<!-- Created with Inkscape (http://www.inkscape.org/) --><svg xmlns:dc="http://purl.org/dc/elements/1.1/" xmlns:cc="http://creativecommons.org/ns#" xmlns:rdf="http://www.w3.org/1999/02/22-rdf-syntax-ns#" xmlns:svg="http://www.w3.org/2000/svg" xmlns="http://www.w3.org/2000/svg" xmlns:sodipodi="http://sodipodi.sourceforge.net/DTD/sodipodi-0.dtd" xmlns:inkscape="http://www.inkscape.org/namespaces/inkscape" id="svg2" version="1.1" inkscape:version="0.48.5 r10040" width="779.52754px" height="450.1468324033976px" xml:space="preserve" sodipodi:docname="Wing_Aerodynamic_Center.svg" viewBox="0.0 0.0 479.31696 276.7869"><sodipodi:namedview pagecolor="#ffffff" bordercolor="#666666" borderopacity="1" objecttolerance="10" gridtolerance="10" guidetolerance="10" inkscape:pageopacity="0" inkscape:pageshadow="2" inkscape:window-width="1280" inkscape:window-height="697" id="namedview4" showgrid="false" inkscape:zoom="2.1587878" inkscape:cx="148.20181" inkscape:cy="137.37278" inkscape:window-x="-8" inkscape:window-y="-8" inkscape:window-maximized="1" inkscape:current-layer="g10" fit-margin-top="10" fit-margin-left="10" fit-margin-right="10" fit-margin-bottom="10"/><metadata id="metadata8"><rdf:RDF><cc:Work rdf:about=""><dc:format>image/svg+xml</dc:format><dc:type rdf:resource="http://purl.org/dc/dcmitype/StillImage"/><dc:title/></cc:Work></rdf:RDF></metadata><defs id="defs6"><clipPath id="clipPath476" clipPathUnits="userSpaceOnUse"><path id="path478" d="m 0,141.7644 194.27132,0 0,-407.85093 -194.27132,0" inkscape:connector-curvature="0"/></clipPath><clipPath id="clipPath492" clipPathUnits="userSpaceOnUse"><path id="path494" d="m -141.7644,0 0,-124.32211 477.80014,0 0,124.32211" inkscape:connector-curvature="0"/></clipPath></defs><g transform="matrix(1.25,0,0,-1.25,-1.4252375,276.04471)" inkscape:label="wing_ac_1_drawing" inkscape:groupmode="layer" id="g10"><g id="g42" transform="matrix(1.5,0,0,1.5,85.137,193.941)"><path inkscape:connector-curvature="0" id="path44" style="fill:none;stroke:#000000;stroke-width:0.79701;stroke-linecap:butt;stroke-linejoin:miter;stroke-miterlimit:10;stroke-opacity:1;stroke-dasharray:5.97766, 1.99255;stroke-dashoffset:0" d="M 72.75255,-37.82603 72.75255,0"/></g><g id="g50" transform="matrix(1.5,0,0,1.5,85.137,193.941)"><g id="g52"><path inkscape:connector-curvature="0" id="path54" style="fill:#ffffff;fill-opacity:1;fill-rule:nonzero;stroke:none" d="m 65.68846,-114.06699 14.12816,0 0,12.20436 -14.12816,0 0,-12.20436 z"/></g><g transform="translate(67.68,-110.579)" id="g56"><g id="g58"><g transform="translate(-124.438,-18.715)" id="g60"><g transform="translate(124.438,18.715)" id="g74"/></g></g><g transform="translate(-67.68,110.579)" id="g76"/></g></g><g id="g78" transform="matrix(1.5,0,0,1.5,85.137,205.141)"><path inkscape:connector-curvature="0" id="path80" style="fill:#ff0000;fill-opacity:1;fill-rule:nonzero;stroke:none" d="m 1.79329,-37.82603 c 0,0.99041 -0.80287,1.79328 -1.79329,1.79328 -0.99042,0 -1.79329,-0.80287 -1.79329,-1.79328 0,-0.99044 0.80287,-1.79331 1.79329,-1.79331 0.99042,0 1.79329,0.80287 1.79329,1.79331 z"/></g><g id="g82" transform="matrix(1.5,0,0,1.5,85.137,205.141)"><path inkscape:connector-curvature="0" id="path84" style="fill:none;stroke:#000000;stroke-width:0.79701;stroke-linecap:butt;stroke-linejoin:miter;stroke-miterlimit:10;stroke-opacity:1;stroke-dasharray:5.97766, 1.99255;stroke-dashoffset:-0.99628" d="m 72.75255,-37.82603 -70.16229,0"/><g transform="matrix(-1,0,0,-1,2.59026,-37.82603)" id="g86"><g id="g88"><path inkscape:connector-curvature="0" id="path90" style="fill:#000000;fill-opacity:1;fill-rule:nonzero;stroke:none" d="M 2.59026,0 -1.55415,2.0722 0,0 -1.55415,-2.0722"/></g></g></g><g id="g92" transform="matrix(1.5,0,0,1.5,85.137,205.141)"><path inkscape:connector-curvature="0" id="path94" style="fill:#ff0000;fill-opacity:1;fill-rule:nonzero;stroke:none" d="m 1.79329,-86.85493 c 0,0.99043 -0.80287,1.7933 -1.79329,1.7933 -0.99042,0 -1.79329,-0.80287 -1.79329,-1.7933 0,-0.99042 0.80287,-1.79329 1.79329,-1.79329 0.99042,0 1.79329,0.80287 1.79329,1.79329 z"/></g><g id="g96" transform="matrix(1.5,0,0,1.5,85.137,205.141)"><path inkscape:connector-curvature="0" id="path98" style="fill:none;stroke:#000000;stroke-width:0.79701;stroke-linecap:butt;stroke-linejoin:miter;stroke-miterlimit:10;stroke-opacity:1;stroke-dasharray:5.97766, 1.99255;stroke-dashoffset:-0.99628" d="m 72.75255,-86.85493 -70.16229,0"/><g transform="matrix(-1,0,0,-1,2.59026,-86.85493)" id="g100"><g id="g102"><path inkscape:connector-curvature="0" id="path104" style="fill:#000000;fill-opacity:1;fill-rule:nonzero;stroke:none" d="M 2.59026,0 -1.55415,2.0722 0,0 -1.55415,-2.0722"/></g></g></g><g id="g106" transform="matrix(1.5,0,0,1.5,85.137,193.941)"><path inkscape:connector-curvature="0" id="path108" style="fill:none;stroke:#000000;stroke-width:0.79701;stroke-linecap:butt;stroke-linejoin:miter;stroke-miterlimit:10;stroke-opacity:1;stroke-dasharray:0.79701, 0.99628;stroke-dashoffset:0" d="M 0,-17.13359 176.60947,-97.20372"/></g><g id="g110" transform="matrix(1.5,0,0,1.5,85.137,205.141)"><path inkscape:connector-curvature="0" id="path112" style="fill:#ff0000;fill-opacity:1;fill-rule:nonzero;stroke:none" d="m 2.29143,-51.47757 c 0,1.26553 -1.0259,2.29144 -2.29143,2.29144 -1.26553,0 -2.29143,-1.02591 -2.29143,-2.29144 0,-1.26553 1.0259,-2.29144 2.29143,-2.29144 1.26553,0 2.29143,1.02591 2.29143,2.29144 z"/></g><g id="g114" transform="matrix(1.5,0,0,1.5,101.137,205.141)"><path inkscape:connector-curvature="0" id="path116" style="fill:none;stroke:#000000;stroke-width:0.79701;stroke-linecap:butt;stroke-linejoin:miter;stroke-miterlimit:10;stroke-opacity:1;stroke-dasharray:none" d="m -35.58548,-49.97319 0,10.64278"/><g transform="matrix(0,-1,1,0,-35.58548,-49.97319)" id="g118"><g id="g120"><g transform="translate(0.9066,0)" id="g122"><path inkscape:connector-curvature="0" id="path124" style="fill:none;stroke:#000000;stroke-width:0.79701;stroke-linecap:square;stroke-linejoin:miter;stroke-miterlimit:10;stroke-opacity:1;stroke-dasharray:none" d="m 0.19925,-3.18808 0,6.37616"/></g><path inkscape:connector-curvature="0" id="path126" style="fill:none;stroke:#000000;stroke-width:0.6376;stroke-linecap:round;stroke-linejoin:round;stroke-miterlimit:10;stroke-opacity:1;stroke-dasharray:none" d="M -1.55415,2.0722 C -1.42464,1.29512 0,0.1295 0.38852,0 0,-0.1295 -1.42464,-1.29512 -1.55415,-2.0722"/></g></g><g transform="matrix(0,1,-1,0,-35.58548,-39.33041)" id="g128"><g id="g130"><g transform="translate(0.9066,0)" id="g132"><path inkscape:connector-curvature="0" id="path134" style="fill:none;stroke:#000000;stroke-width:0.79701;stroke-linecap:square;stroke-linejoin:miter;stroke-miterlimit:10;stroke-opacity:1;stroke-dasharray:none" d="m 0.19925,-3.18808 0,6.37616"/></g><path inkscape:connector-curvature="0" id="path136" style="fill:none;stroke:#000000;stroke-width:0.6376;stroke-linecap:round;stroke-linejoin:round;stroke-miterlimit:10;stroke-opacity:1;stroke-dasharray:none" d="M -1.55415,2.0722 C -1.42464,1.29512 0,0.1295 0.38852,0 0,-0.1295 -1.42464,-1.29512 -1.55415,-2.0722"/></g></g><g id="g138"><g transform="translate(-53.437,-46.139)" id="g140"><g id="g142"><g transform="translate(-3.321,-83.155)" id="g144"><g transform="translate(3.321,83.155)" id="g154"/></g></g><g transform="translate(53.437,46.139)" id="g156"/></g></g></g><g id="g158" transform="matrix(1.5,0,0,1.5,101.137,193.941)"><path inkscape:connector-curvature="0" id="path160" style="fill:none;stroke:#000000;stroke-width:0.79701;stroke-linecap:butt;stroke-linejoin:miter;stroke-miterlimit:10;stroke-opacity:1;stroke-dasharray:none" d="m -22.40567,-42.506523 0,41.002163" sodipodi:nodetypes="cc"/><g transform="matrix(0,-1,1,0,-22.40567,-49.97319)" id="g162"><g id="g164"><g transform="translate(0.9066,0)" id="g166"><path inkscape:connector-curvature="0" id="path168" style="fill:none;stroke:#000000;stroke-width:0.79701;stroke-linecap:square;stroke-linejoin:miter;stroke-miterlimit:10;stroke-opacity:1;stroke-dasharray:none" d="m -7.2674167,-3.18808 0,6.37616" sodipodi:nodetypes="cc"/></g><path inkscape:connector-curvature="0" id="path170" style="fill:none;stroke:#000000;stroke-width:0.6376;stroke-linecap:round;stroke-linejoin:round;stroke-miterlimit:10;stroke-opacity:1;stroke-dasharray:none" d="m -9.0208167,2.0722 c 0.12951,-0.77708 1.55415,-1.9427 1.94267,-2.0722 -0.38852,-0.1295 -1.81316,-1.29512 -1.94267,-2.0722" sodipodi:nodetypes="ccc"/></g></g><g transform="matrix(0,1,-1,0,-22.40567,-1.50436)" id="g172"><g id="g174"><g transform="translate(0.9066,0)" id="g176"><path inkscape:connector-curvature="0" id="path178" style="fill:none;stroke:#000000;stroke-width:0.79701;stroke-linecap:square;stroke-linejoin:miter;stroke-miterlimit:10;stroke-opacity:1;stroke-dasharray:none" d="m 0.19925,-3.18808 0,6.37616"/></g><path inkscape:connector-curvature="0" id="path180" style="fill:none;stroke:#000000;stroke-width:0.6376;stroke-linecap:round;stroke-linejoin:round;stroke-miterlimit:10;stroke-opacity:1;stroke-dasharray:none" d="M -1.55415,2.0722 C -1.42464,1.29512 0,0.1295 0.38852,0 0,-0.1295 -1.42464,-1.29512 -1.55415,-2.0722"/></g></g><g id="g182"><g transform="translate(-38.335,-18.017)" id="g184"><g id="g186"><g transform="translate(-18.423,-111.277)" id="g188"><g transform="translate(18.423,111.277)" id="g198"/></g></g><g transform="translate(38.335,18.017)" id="g200"/></g></g></g><g id="g202" transform="matrix(1.5,0,0,1.5,85.137,193.941)"><path inkscape:connector-curvature="0" id="path204" style="fill:none;stroke:#000000;stroke-width:0.79701;stroke-linecap:butt;stroke-linejoin:miter;stroke-miterlimit:10;stroke-opacity:1;stroke-dasharray:none" d="m 85.93236,-28.855003 0,28.147653" sodipodi:nodetypes="cc"/><g transform="matrix(0,-1,1,0,85.93236,-36.32167)" id="g206"><g id="g208"><g transform="translate(0.9066,0)" id="g210"><path inkscape:connector-curvature="0" id="path212" style="fill:none;stroke:#000000;stroke-width:0.79701;stroke-linecap:square;stroke-linejoin:miter;stroke-miterlimit:10;stroke-opacity:1;stroke-dasharray:none" d="m -7.2674167,-3.18808 0,6.37616" sodipodi:nodetypes="cc"/></g><path inkscape:connector-curvature="0" id="path214" style="fill:none;stroke:#000000;stroke-width:0.6376;stroke-linecap:round;stroke-linejoin:round;stroke-miterlimit:10;stroke-opacity:1;stroke-dasharray:none" d="m -9.0208167,2.0722 c 0.12951,-0.77708 1.55415,-1.9427 1.94267,-2.0722 -0.38852,-0.1295 -1.81316,-1.29512 -1.94267,-2.0722" sodipodi:nodetypes="ccc"/></g></g><g transform="matrix(0,1,-1,0,85.93236,-0.70735)" id="g216"><g id="g218"><path inkscape:connector-curvature="0" id="path220" style="fill:none;stroke:#000000;stroke-width:0.6376;stroke-linecap:round;stroke-linejoin:round;stroke-miterlimit:10;stroke-opacity:1;stroke-dasharray:none" d="M -1.55415,2.0722 C -1.42464,1.29512 0,0.1295 0.38852,0 0,-0.1295 -1.42464,-1.29512 -1.55415,-2.0722"/></g></g><g id="g222"><g transform="translate(87.657,-20.956)" id="g224"><g id="g226"><g transform="translate(-144.415,-108.338)" id="g228"><g transform="translate(144.415,108.338)" id="g250"/></g></g><g transform="translate(-87.657,20.956)" id="g252"/></g></g></g><g id="g254" transform="matrix(1.5,0,0,1.5,85.137,193.941)"/><g id="g256" transform="matrix(1.5,0,0,1.5,85.137,193.941)"/><g id="g258" transform="matrix(1.5,0,0,1.5,85.137,205.141)"><path inkscape:connector-curvature="0" id="path260" style="fill:none;stroke:#121466;stroke-width:0.3985;stroke-linecap:butt;stroke-linejoin:miter;stroke-miterlimit:10;stroke-opacity:1;stroke-dasharray:none" d="m 0,-51.47757 39.53943,0"/></g><g id="g262" transform="matrix(1.5,0,0,1.5,85.137,193.941)"><g transform="translate(39.538,-51.477)" id="g264"><g id="g266"/><g transform="translate(-39.538,51.477)" id="g268"/></g></g><g id="g270" transform="matrix(1.9279409,0,0,1.5,68.21648,205.141)"><g id="g272"><path inkscape:connector-curvature="0" id="path274" style="fill:#e6e6ff;fill-opacity:1;fill-rule:nonzero;stroke:none" d="m 14.85965,-129.29576 49.35954,0 0,20.04106 -49.35954,0 0,-20.04106 z"/></g><g transform="translate(17.848,-126.21)" id="g276"><g id="g278"><g transform="translate(-74.606,-3.084)" id="g280"><g transform="translate(74.606,3.084)" id="g288"/></g></g><g transform="translate(-17.848,126.21)" id="g290"/></g></g><g id="g292" transform="matrix(1.5,0,0,1.5,85.137,205.141)"><g id="g294"><path inkscape:connector-curvature="0" id="path296" style="fill:none;stroke:#121466;stroke-width:0.3985;stroke-linecap:butt;stroke-linejoin:miter;stroke-miterlimit:10;stroke-opacity:1;stroke-dasharray:none" d="m 39.53943,-51.51042 c 0,-24.58995 0,-36.44205 0,-57.44539"/></g></g><g id="g298" transform="matrix(1.5,0,0,1.5,85.137,193.941)"/><g id="g300" transform="matrix(1.5,0,0,1.5,85.137,193.941)"/><g id="g302" transform="matrix(1.5,0,0,1.5,85.137,193.941)"/><g id="g304" transform="matrix(1.5,0,0,1.5,85.137,193.941)"><path inkscape:connector-curvature="0" id="path306" style="fill:none;stroke:#808080;stroke-width:0.79701;stroke-linecap:butt;stroke-linejoin:miter;stroke-miterlimit:10;stroke-opacity:1;stroke-dasharray:none" d="m 105.96675,-55.15962 27.00032,0"/></g><path inkscape:connector-curvature="0" id="path308" style="fill:none;stroke:#000000;stroke-width:0.89664006;stroke-linecap:butt;stroke-linejoin:miter;stroke-miterlimit:10;stroke-opacity:1;stroke-dasharray:none" d="m 277.8376,111.20157 c 0,-5.42442 -1.31068,-10.77207 -3.41129,-14.80752"/><g transform="matrix(-0.692805,-1.3308,1.3308,-0.692805,274.42631,96.39405)" id="g310"><g id="g312"><path inkscape:connector-curvature="0" id="path314" style="fill:none;stroke:#000000;stroke-width:0.47819999;stroke-linecap:round;stroke-linejoin:round;stroke-miterlimit:10;stroke-opacity:1;stroke-dasharray:none" d="M -1.37483,1.83311 C -1.26025,1.14569 0,0.11455 0.34369,0 0,-0.11455 -1.26025,-1.14569 -1.37483,-1.83311"/></g></g><g id="g316" transform="matrix(1.5,0,0,1.5,85.137,193.941)"><g transform="translate(131.937,-64.954)" id="g318"><g id="g320"><g transform="translate(-188.695,-64.34)" id="g322"><g transform="translate(188.695,64.34)" id="g336"/></g></g><g transform="translate(-131.937,64.954)" id="g338"/></g></g><g id="g340" transform="matrix(1.5,0,0,1.5,85.137,193.941)"/><g id="g342" transform="matrix(1.5,0,0,1.5,85.137,193.941)"/><g id="g344" transform="matrix(1.5,0,0,1.5,85.137,193.941)"/><g id="g346" transform="matrix(1.5,0,0,1.5,85.137,193.941)"/><g transform="matrix(-0.36645,-1.45521,1.45521,-0.36645,250.53481,50.37702)" id="g352"><g id="g354"/></g><g id="g358" transform="matrix(1.5,0,0,1.5,85.137,193.941)"><g transform="translate(116.137,-95.88)" id="g360"><g id="g362"><g transform="translate(-172.895,-33.414)" id="g364"><g transform="translate(172.895,33.414)" id="g378"/></g></g><g transform="translate(-116.137,95.88)" id="g380"/></g></g><g id="g382" transform="matrix(1.5,0,0,1.5,85.137,193.941)"><path inkscape:connector-curvature="0" id="path384" style="fill:none;stroke:#121466;stroke-width:1.19553006;stroke-linecap:butt;stroke-linejoin:miter;stroke-miterlimit:10;stroke-opacity:1;stroke-dasharray:none" d="m 0,0 176.60947,-91.9318 0,-21.08785 L 0,-68.53857 0,0"/><path inkscape:connector-curvature="0" id="path386" style="fill:#121466;fill-opacity:1;fill-rule:nonzero;stroke:#121466;stroke-width:1.19553006;stroke-linecap:butt;stroke-linejoin:miter;stroke-miterlimit:10;stroke-opacity:1;stroke-dasharray:none" d="M 0.99628,0 C 0.99628,0.55023 0.55023,0.99628 0,0.99628 -0.55023,0.99628 -0.99628,0.55023 -0.99628,0 c 0,-0.55023 0.44605,-0.99628 0.99628,-0.99628 0.55023,0 0.99628,0.44605 0.99628,0.99628 z"/><path inkscape:connector-curvature="0" id="path388" style="fill:#121466;fill-opacity:1;fill-rule:nonzero;stroke:#121466;stroke-width:1.19553006;stroke-linecap:butt;stroke-linejoin:miter;stroke-miterlimit:10;stroke-opacity:1;stroke-dasharray:none" d="m 177.60574,-91.9318 c 0,0.55024 -0.44604,0.99628 -0.99627,0.99628 -0.55024,0 -0.99628,-0.44604 -0.99628,-0.99628 0,-0.55024 0.44604,-0.99627 0.99628,-0.99627 0.55023,0 0.99627,0.44603 0.99627,0.99627 z"/><path inkscape:connector-curvature="0" id="path390" style="fill:#121466;fill-opacity:1;fill-rule:nonzero;stroke:#121466;stroke-width:1.19553006;stroke-linecap:butt;stroke-linejoin:miter;stroke-miterlimit:10;stroke-opacity:1;stroke-dasharray:none" d="m 177.60574,-113.01965 c 0,0.55025 -0.44604,0.99627 -0.99627,0.99627 -0.55024,0 -0.99628,-0.44602 -0.99628,-0.99627 0,-0.55024 0.44604,-0.99628 0.99628,-0.99628 0.55023,0 0.99627,0.44604 0.99627,0.99628 z"/><path inkscape:connector-curvature="0" id="path392" style="fill:#121466;fill-opacity:1;fill-rule:nonzero;stroke:#121466;stroke-width:1.19553006;stroke-linecap:butt;stroke-linejoin:miter;stroke-miterlimit:10;stroke-opacity:1;stroke-dasharray:none" d="m 0.99628,-68.53857 c 0,0.55024 -0.44605,0.99627 -0.99628,0.99627 -0.55023,0 -0.99628,-0.44603 -0.99628,-0.99627 0,-0.55023 0.44605,-0.99628 0.99628,-0.99628 0.55023,0 0.99628,0.44605 0.99628,0.99628 z"/><path inkscape:connector-curvature="0" id="path394" style="fill:#121466;fill-opacity:1;fill-rule:nonzero;stroke:#121466;stroke-width:1.19553006;stroke-linecap:butt;stroke-linejoin:miter;stroke-miterlimit:10;stroke-opacity:1;stroke-dasharray:none" d="M 0.99628,0 C 0.99628,0.55023 0.55023,0.99628 0,0.99628 -0.55023,0.99628 -0.99628,0.55023 -0.99628,0 c 0,-0.55023 0.44605,-0.99628 0.99628,-0.99628 0.55023,0 0.99628,0.44605 0.99628,0.99628 z"/><g id="g396"/></g><path d="m 194.26582,148.40195 0,-73.543345" style="fill:none;stroke:#411052;stroke-width:4.4832449;stroke-linecap:butt;stroke-linejoin:miter;stroke-miterlimit:10;stroke-opacity:1;stroke-dasharray:none" id="path400" inkscape:connector-curvature="0"/><g id="g402" transform="matrix(1.5,0,0,1.5,85.137,193.941)"><g id="g404" transform="translate(72.751,-69.694)"><g id="g406"/><g id="g408" transform="translate(-72.751,69.694)"/></g></g><g id="g410" transform="matrix(1.9659389,0,0,1.5,47.20311,193.941)"><g id="g412"><path d="m 112.31921,-30.12796 48.91321,0 0,20.91779 -48.91321,0 0,-20.91779 z" style="fill:#e6e6ff;fill-opacity:1;fill-rule:nonzero;stroke:none" id="path414" inkscape:connector-curvature="0"/></g><g id="g416" transform="translate(115.306,-27.043)"><g id="g418"><g id="g420" transform="translate(-172.064,-102.251)"><g id="g428" transform="translate(172.064,102.251)"/></g></g><g id="g430" transform="translate(-115.306,27.043)"/></g></g><g id="g432" transform="matrix(1.5,0,0,1.5,85.137,205.141)"><g id="g434"><path d="m 74.7451,-68.13916 c 18.28328,14.28661 28.45159,22.23018 46.73488,36.51678" style="fill:none;stroke:#808080;stroke-width:0.3985;stroke-linecap:butt;stroke-linejoin:miter;stroke-miterlimit:10;stroke-opacity:1;stroke-dasharray:none" id="path436" inkscape:connector-curvature="0"/></g></g><path d="m 195.76024,148.40195 c 0,0.82535 -0.66907,1.49441 -1.49442,1.49441 -0.82537,0 -1.49441,-0.66906 -1.49441,-1.49441 0,-0.82537 0.66904,-1.49442 1.49441,-1.49442 0.82535,0 1.49442,0.66905 1.49442,1.49442 z" style="fill:#121466;fill-opacity:1;fill-rule:nonzero;stroke:#411052;stroke-width:4.4832449;stroke-linecap:butt;stroke-linejoin:miter;stroke-miterlimit:10;stroke-opacity:1;stroke-dasharray:none" id="path438" inkscape:connector-curvature="0"/><path d="m 195.76024,74.858605 c 0,0.82536 -0.66907,1.494405 -1.49442,1.494405 -0.82537,0 -1.49441,-0.669045 -1.49441,-1.494405 0,-0.82536 0.66904,-1.49442 1.49441,-1.49442 0.82535,0 1.49442,0.66906 1.49442,1.49442 z" style="fill:#121466;fill-opacity:1;fill-rule:nonzero;stroke:#411052;stroke-width:4.4832449;stroke-linecap:butt;stroke-linejoin:miter;stroke-miterlimit:10;stroke-opacity:1;stroke-dasharray:none" id="path440" inkscape:connector-curvature="0"/><g id="g442" transform="matrix(1.5,0,0,1.5,85.137,193.941)"/><g id="g444" transform="matrix(1.5,0,0,1.5,85.137,205.141)"><path inkscape:connector-curvature="0" id="path446" style="fill:none;stroke:#000000;stroke-width:1.19553006;stroke-linecap:butt;stroke-linejoin:miter;stroke-miterlimit:10;stroke-opacity:1;stroke-dasharray:none" d="m 7.97021,-37.82603 c 1.49442,-0.74718 2.49069,-2.4907 2.49069,-4.98139 l 0,-14.55168 c 0,-2.4907 0.99627,-4.2342 2.4907,-4.98138 -1.49443,-0.74718 -2.4907,-2.4907 -2.4907,-4.98139 l 0,-14.55168 c 0,-2.49069 -0.99627,-4.23421 -2.49069,-4.98138"/><g id="g448"><g id="g450"><path inkscape:connector-curvature="0" id="path452" style="fill:#e6e6ff;fill-opacity:1;fill-rule:nonzero;stroke:none" d="m 14.44104,-68.60207 10.96898,0 0,12.52316 -10.96898,0 0,-12.52316 z"/></g><g transform="translate(17.429,-65.612)" id="g454"><g id="g456"><g transform="translate(-74.187,-63.682)" id="g458"><g transform="translate(74.187,63.682)" id="g468"/></g></g><g transform="translate(-17.429,65.612)" id="g470"/></g></g></g><g transform="matrix(1.5,0,0,1.5,85.137,193.941)" id="g504"><path d="M 0,0 191.97992,0" style="fill:none;stroke:#000000;stroke-width:0.59776002;stroke-linecap:butt;stroke-linejoin:miter;stroke-miterlimit:10;stroke-opacity:1;stroke-dasharray:none" id="path506" inkscape:connector-curvature="0"/><g id="g508" transform="translate(191.97992,0)"><g id="g510"><path d="M 2.29138,0 -1.37483,1.83311 0,0 -1.37483,-1.83311" style="fill:#000000;fill-opacity:1;fill-rule:nonzero;stroke:none" id="path512" inkscape:connector-curvature="0"/></g></g></g><g transform="matrix(1.5,0,0,1.5,85.137,193.941)" id="g514"><path d="M 0,0 0,-122.03072" style="fill:none;stroke:#000000;stroke-width:0.59776002;stroke-linecap:butt;stroke-linejoin:miter;stroke-miterlimit:10;stroke-opacity:1;stroke-dasharray:none" id="path516" inkscape:connector-curvature="0"/><g id="g518" transform="matrix(0,-1,1,0,0,-122.03072)"><g id="g520"><path d="M 2.29138,0 -1.37483,1.83311 0,0 -1.37483,-1.83311" style="fill:#000000;fill-opacity:1;fill-rule:nonzero;stroke:none" id="path522" inkscape:connector-curvature="0"/></g></g></g><g id="g6890" transform="translate(-92.36897,-48.099596)"><path id="path6793" d="m 132.29359,222.6232 h -2.78423 l -0.0444,-0.24854 c 0.59176,0 0.78112,-0.28109 0.78112,-0.50004 0,-0.23374 -0.21007,-0.55921 -0.45861,-0.8255 l -2.31082,-2.5209 -0.66573,2.07708 c -0.0888,0.28108 -0.26333,0.71011 -0.26333,1.10955 0,0.57104 0.61838,0.65981 1.02966,0.65981 l 0.0414,0.24854 h -3.96183 l -0.0444,-0.24854 c 0.98824,0 1.25157,-0.44382 1.53265,-1.28116 l 1.25454,-3.77543 c -1.16577,-1.36992 -3.0239,-3.34344 -3.0239,-3.34344 -0.51483,-0.57697 -1.15097,-1.05037 -1.67764,-1.05037 l -0.0473,-0.24854 h 3.19846 l 0.0474,0.24854 c -0.36985,0 -0.96161,0.0148 -0.96161,0.48524 0,0.2367 0.24854,0.59176 0.42902,0.78112 l 2.23685,2.5061 0.76929,-2.31082 c 0.074,-0.19528 0.14794,-0.53258 0.14794,-0.78112 0,-0.63318 -0.51483,-0.68052 -1.10659,-0.68052 l -0.0444,-0.24854 h 3.93816 l 0.0414,0.24854 c -0.72194,0 -1.13322,0.31067 -1.4291,1.2131 l -1.23677,3.77247 2.51793,2.81382 c 0.45862,0.50004 1.47644,1.65101 2.05341,1.65101 z" inkscape:connector-curvature="0" style="font-style:normal;font-variant:normal;font-weight:normal;font-stretch:normal;letter-spacing:normal;word-spacing:normal;text-anchor:start;fill:#000000;stroke:#000000;stroke-width:0;stroke-linecap:butt;stroke-linejoin:miter;stroke-miterlimit:10.43299961;stroke-opacity:1;stroke-dasharray:none;stroke-dashoffset:0"/><path id="path6795" d="m 136.61344,210.88564 v 0.26925 c -0.17457,-0.14498 -0.29884,-0.19528 -0.4527,-0.19528 -0.23966,0 -0.30771,0.14498 -0.30771,0.59768 v 2.00902 c 0,0.52963 -0.0533,0.81367 -0.2012,1.05038 -0.21599,0.39352 -0.6539,0.60063 -1.28412,0.60063 -0.52667,0 -1.02079,-0.14202 -1.31371,-0.38168 -0.25445,-0.21895 -0.42015,-0.51483 -0.42015,-0.77225 0,-0.2367 0.19528,-0.44382 0.44382,-0.44382 0.24558,0 0.46158,0.20712 0.46158,0.43495 0,0.0414 -0.009,0.0917 -0.0178,0.16569 -0.0237,0.0917 -0.0325,0.17161 -0.0325,0.24558 0,0.27517 0.32842,0.503 0.74561,0.503 0.503,0 0.78113,-0.29588 0.78113,-0.8551 v -0.63022 -0.24262 -1.50011 c 0,-0.31955 -0.0503,-0.41128 -0.26925,-0.54442 -0.24558,-0.14498 -0.53555,-0.22783 -0.75154,-0.22783 -0.36097,0 -0.64798,0.3521 -0.64798,0.79592 v 0.0414 c 0,0.60655 0.42015,0.97936 1.66877,1.43502 v 0.24262 c -1.58592,-0.63614 -1.76049,-0.71899 -2.20431,-1.11251 -0.22783,-0.20416 -0.36985,-0.55625 -0.36985,-0.89652 0,-0.64797 0.4379,-1.10067 1.07996,-1.10067 0.4527,0 0.87285,0.21599 1.50307,0.74858 0.0503,-0.54442 0.23967,-0.74858 0.65982,-0.74858 0.35209,0 0.57104,0.11835 0.92906,0.51187 z" inkscape:connector-curvature="0" style="font-style:normal;font-variant:normal;font-weight:normal;font-stretch:normal;letter-spacing:normal;word-spacing:normal;text-anchor:start;fill:#000000;stroke:#000000;stroke-width:0;stroke-linecap:butt;stroke-linejoin:miter;stroke-miterlimit:10.43299961;stroke-opacity:1;stroke-dasharray:none;stroke-dashoffset:0"/><path id="path6797" d="m 140.88298,211.99223 -0.14202,0.0917 c -0.49412,-0.72195 -0.86988,-0.97049 -1.45573,-0.97049 -0.94977,0 -1.60071,0.82551 -1.60071,2.00902 0,1.07405 0.56809,1.796 1.40543,1.796 0.36985,0 0.503,-0.11244 0.60656,-0.49412 l 0.0651,-0.22783 c 0.0829,-0.3018 0.26629,-0.47637 0.49412,-0.47637 0.26925,0 0.48524,0.19824 0.48524,0.43495 0,0.57696 -0.7249,1.0622 -1.59183,1.0622 -0.48524,0 -0.97936,-0.18344 -1.39064,-0.52666 -0.55329,-0.46157 -0.86397,-1.17465 -0.86397,-2.02974 0,-1.33146 0.81367,-2.28715 1.95577,-2.28715 0.44382,0 0.83734,0.14202 1.18648,0.42903 0.31067,0.24854 0.51483,0.55033 0.84621,1.18943 z" inkscape:connector-curvature="0" style="font-style:normal;font-variant:normal;font-weight:normal;font-stretch:normal;letter-spacing:normal;word-spacing:normal;text-anchor:start;fill:#000000;stroke:#000000;stroke-width:0;stroke-linecap:butt;stroke-linejoin:miter;stroke-miterlimit:10.43299961;stroke-opacity:1;stroke-dasharray:none;stroke-dashoffset:0"/><path id="path6799" d="m 142.11976,208.78194 0.0296,0.009 0.0266,0.006 0.0266,0.006 0.0237,0.009 0.0237,0.006 0.0237,0.006 0.0237,0.006 0.0237,0.009 0.0414,0.0148 0.0414,0.0148 0.0414,0.0148 0.0385,0.0148 0.0385,0.0177 0.0414,0.0207 0.0385,0.0178 0.0414,0.0237 0.0207,0.0118 0.0207,0.0118 0.0207,0.0118 0.0237,0.0118 0.0237,0.0148 0.0207,0.0148 0.0266,0.0148 0.0237,0.0148 c 0.50299,0.31955 0.83734,0.78113 0.83734,1.59776 0,0.79295 -0.37577,1.12434 -0.86101,1.12434 -0.42903,0 -0.70716,-0.26629 -0.70716,-0.68348 0,-0.38761 0.26925,-0.64798 0.64798,-0.64798 0.11539,0 0.22487,0.0178 0.34026,0.0917 0.0414,0.0237 0.0533,0.0325 0.071,0.0325 0.0503,0 0.0829,-0.10652 0.0829,-0.22487 0,-0.10652 0,-0.85509 -1.11547,-1.27228 z" inkscape:connector-curvature="0" style="font-style:normal;font-variant:normal;font-weight:normal;font-stretch:normal;letter-spacing:normal;word-spacing:normal;text-anchor:start;fill:#000000;stroke:#000000;stroke-width:0;stroke-linecap:butt;stroke-linejoin:miter;stroke-miterlimit:10.43299961;stroke-opacity:1;stroke-dasharray:none;stroke-dashoffset:0"/><path id="path6801" d="m 154.15911,217.10504 v 0.19232 h -2.03861 v -0.19232 c 0.52667,-0.0503 0.71011,-0.1657 0.71011,-0.44382 0,-0.21895 -0.0651,-0.48525 -0.16569,-0.77225 l -1.29004,-3.49434 -1.35808,3.51209 -0.12723,0.31068 c -0.0917,0.21599 -0.1509,0.41127 -0.1509,0.52666 0,0.24558 0.2367,0.3521 0.79,0.36098 v 0.19232 h -2.74873 v -0.19232 c 0.58585,-0.009 0.68645,-0.10356 1.03854,-0.92907 l 0.34322,-0.84621 -1.10659,-2.9085 -1.48236,3.87898 c -0.074,0.18345 -0.11243,0.36098 -0.11243,0.47637 0,0.22487 0.14498,0.29588 0.67165,0.32843 v 0.19232 h -2.52978 v -0.19232 c 0.52667,-0.0503 0.68053,-0.23671 1.06221,-1.20719 l 1.98832,-5.53887 h 0.15681 l 1.58592,4.36422 1.65101,-4.36422 h 0.15386 l 2.1037,6.01523 c 0.19824,0.53555 0.30772,0.62727 0.85509,0.73083 z" inkscape:connector-curvature="0" style="font-style:normal;font-variant:normal;font-weight:normal;font-stretch:normal;letter-spacing:normal;word-spacing:normal;text-anchor:start;fill:#000000;stroke:#000000;stroke-width:0;stroke-linecap:butt;stroke-linejoin:miter;stroke-miterlimit:10.43299961;stroke-opacity:1;stroke-dasharray:none;stroke-dashoffset:0"/></g><g id="g6913" transform="translate(59.992294,-44.531111)"><path id="path6803" d="m 170.46209,222.6232 h -2.78423 l -0.0444,-0.24854 c 0.59176,0 0.78113,-0.28109 0.78113,-0.50004 0,-0.23374 -0.21008,-0.55921 -0.45862,-0.8255 l -2.31082,-2.5209 -0.66573,2.07708 c -0.0888,0.28108 -0.26333,0.71011 -0.26333,1.10955 0,0.57104 0.61839,0.65981 1.02966,0.65981 l 0.0414,0.24854 h -3.96183 l -0.0473,-0.24854 c 0.9912,0 1.25453,-0.44382 1.53562,-1.28116 l 1.25453,-3.77543 c -1.16577,-1.36992 -3.02389,-3.34344 -3.02389,-3.34344 -0.51484,-0.57697 -1.15098,-1.05037 -1.67764,-1.05037 l -0.0473,-0.24854 h 3.19846 l 0.0473,0.24854 c -0.36985,0 -0.96161,0.0148 -0.96161,0.48524 0,0.2367 0.24854,0.59176 0.42902,0.78112 l 2.23981,2.5061 0.76633,-2.31082 c 0.074,-0.19528 0.14794,-0.53258 0.14794,-0.78112 0,-0.63318 -0.51483,-0.68052 -1.10659,-0.68052 l -0.0444,-0.24854 h 3.93816 l 0.0414,0.24854 c -0.72194,0 -1.13322,0.31067 -1.4291,1.2131 l -1.23973,3.77247 2.52089,2.81382 c 0.45862,0.50004 1.47349,1.65101 2.05341,1.65101 z" inkscape:connector-curvature="0" style="font-style:normal;font-variant:normal;font-weight:normal;font-stretch:normal;letter-spacing:normal;word-spacing:normal;text-anchor:start;fill:#000000;stroke:#000000;stroke-width:0;stroke-linecap:butt;stroke-linejoin:miter;stroke-miterlimit:10.43299961;stroke-opacity:1;stroke-dasharray:none;stroke-dashoffset:0"/><path id="path6805" d="m 172.87352,210.47437 v 0.15386 c -0.65982,0.0414 -0.77225,0.14794 -0.77225,0.71011 v 6.16022 l -0.0414,0.0178 c -0.53555,-0.17753 -0.92907,-0.27813 -1.64214,-0.4527 v -0.16865 h 0.0651 c 0.11243,0.0148 0.2367,0.0237 0.31955,0.0237 0.32842,0 0.43494,-0.14202 0.43494,-0.62726 v -4.92048 c 0,-0.5533 -0.14794,-0.6894 -0.79592,-0.74266 v -0.15386 z" inkscape:connector-curvature="0" style="font-style:normal;font-variant:normal;font-weight:normal;font-stretch:normal;letter-spacing:normal;word-spacing:normal;text-anchor:start;fill:#000000;stroke:#000000;stroke-width:0;stroke-linecap:butt;stroke-linejoin:miter;stroke-miterlimit:10.43299961;stroke-opacity:1;stroke-dasharray:none;stroke-dashoffset:0"/><path id="path6807" d="m 177.47445,212.09283 -0.1657,0.074 c -0.49707,-0.78704 -0.94089,-1.08292 -1.60071,-1.08292 -0.56513,0 -1.00007,0.26925 -1.29891,0.82551 -0.20416,0.39944 -0.287,0.76041 -0.31067,1.42318 l 0.0237,0.32843 c 0.11243,0.81367 0.46157,1.18647 1.09179,1.18647 0.62727,0 0.87877,-0.28996 1.01191,-1.18647 h 0 -2.1037 l -0.0237,-0.32843 h 3.17775 c -0.0828,0.66869 -0.18641,0.96457 -0.44382,1.29891 -0.31068,0.36985 -0.78113,0.58584 -1.31963,0.58584 -1.2782,0 -2.154,-1.02966 -2.154,-2.53865 0,-1.42318 0.7397,-2.3049 1.92913,-2.3049 0.98824,0 1.75161,0.6036 2.18656,1.71906 z" inkscape:connector-curvature="0" style="font-style:normal;font-variant:normal;font-weight:normal;font-stretch:normal;letter-spacing:normal;word-spacing:normal;text-anchor:start;fill:#000000;stroke:#000000;stroke-width:0;stroke-linecap:butt;stroke-linejoin:miter;stroke-miterlimit:10.43299961;stroke-opacity:1;stroke-dasharray:none;stroke-dashoffset:0"/><path id="path6809" d="m 178.58696,208.78194 0.0266,0.009 0.0266,0.006 0.0266,0.006 0.0237,0.009 0.0237,0.006 0.0237,0.006 0.0237,0.006 0.0237,0.009 0.0414,0.0148 0.0444,0.0148 0.0385,0.0148 0.0385,0.0148 0.0414,0.0177 0.0385,0.0207 0.0385,0.0178 0.0414,0.0237 0.0207,0.0118 0.0207,0.0118 0.0237,0.0118 0.0207,0.0118 0.0237,0.0148 0.0237,0.0148 0.0237,0.0148 0.0237,0.0148 c 0.503,0.31955 0.83734,0.78113 0.83734,1.59776 0,0.79295 -0.37577,1.12434 -0.86101,1.12434 -0.42903,0 -0.70715,-0.26629 -0.70715,-0.68348 0,-0.38761 0.26925,-0.64798 0.64797,-0.64798 0.1154,0 0.22783,0.0178 0.34322,0.0917 0.0414,0.0237 0.0503,0.0325 0.0681,0.0325 0.0503,0 0.0828,-0.10652 0.0828,-0.22487 0,-0.10652 0,-0.85509 -1.1125,-1.27228 z" inkscape:connector-curvature="0" style="font-style:normal;font-variant:normal;font-weight:normal;font-stretch:normal;letter-spacing:normal;word-spacing:normal;text-anchor:start;fill:#000000;stroke:#000000;stroke-width:0;stroke-linecap:butt;stroke-linejoin:miter;stroke-miterlimit:10.43299961;stroke-opacity:1;stroke-dasharray:none;stroke-dashoffset:0"/><polygon transform="matrix(0.29587986,0,0,0.29587986,-13.835553,92.489317)" id="polygon6811" points="664.13,421.48 676.04,421.48 676.04,423.71 664.13,423.71 " style="font-style:normal;font-variant:normal;font-weight:normal;font-stretch:normal;letter-spacing:normal;word-spacing:normal;text-anchor:start;fill:#000000;stroke:#000000;stroke-width:0;stroke-linecap:butt;stroke-linejoin:miter;stroke-miterlimit:10.43299961;stroke-opacity:1;stroke-dasharray:none;stroke-dashoffset:0"/><path id="path6813" d="m 185.91294,214.60781 -0.003,0.0414 -0.003,0.0414 -0.003,0.0414 -0.009,0.0444 -0.009,0.0414 -0.0118,0.0414 -0.0148,0.0414 -0.0148,0.0385 -0.0177,0.0414 -0.0207,0.0385 -0.0237,0.0385 -0.0266,0.0385 -0.0266,0.0385 -0.0296,0.0355 -0.0325,0.0355 -0.0355,0.0326 -0.0385,0.0325 -0.0385,0.0326 -0.0444,0.0296 -0.0444,0.0266 -0.0473,0.0266 -0.0503,0.0237 -0.0533,0.0237 -0.0533,0.0207 -0.0592,0.0178 -0.0621,0.0178 -0.0621,0.0148 -0.0651,0.0118 -0.071,0.009 -0.071,0.006 -0.074,0.006 -0.0769,0 c -1.7013,0 -3.31977,-1.82557 -3.31977,-3.43516 0,-1.18352 0.77225,-1.75161 1.64509,-1.75161 1.1066,0 1.82558,0.73378 2.3197,1.32258 l -0.29884,0.17457 c -0.3373,-0.40239 -0.88468,-0.93794 -1.59479,-0.93794 -0.62135,0 -0.97048,0.47045 -0.97048,1.2427 0,1.01487 0.80183,3.03277 2.21909,3.03277 0.17161,0 0.36985,-0.0592 0.36985,-0.21599 0,-0.17457 -0.29292,-0.31068 -0.29292,-0.58881 0,-0.27516 0.19824,-0.48524 0.48525,-0.48524 0.39352,0 0.63022,0.34322 0.63022,0.71307 z" inkscape:connector-curvature="0" style="font-style:normal;font-variant:normal;font-weight:normal;font-stretch:normal;letter-spacing:normal;word-spacing:normal;text-anchor:start;fill:#000000;stroke:#000000;stroke-width:0;stroke-linecap:butt;stroke-linejoin:miter;stroke-miterlimit:10.43299961;stroke-opacity:1;stroke-dasharray:none;stroke-dashoffset:0"/></g><g id="g6908" transform="translate(-8.9824547,-9.85173)"><path id="path6815" d="m 205.74873,222.6232 h -3.08307 l -0.0414,-0.24854 c 0.58585,0 1.04446,-0.0592 1.04446,-0.51779 0,-0.16274 -0.17457,-0.52667 -0.39648,-0.80775 -0.0148,-0.0414 -2.18359,-2.79015 -2.4203,-3.09491 -0.14794,0.52667 -0.94089,3.13929 -0.94089,3.13929 -0.0621,0.17753 -0.1154,0.47341 -0.1154,0.63318 0,0.60655 0.60064,0.64798 1.10364,0.64798 l 0.0414,0.24854 h -3.88786 l -0.0473,-0.24854 c 0.81071,0 1.15097,-0.26334 1.46164,-1.26637 l 1.10659,-3.73104 -0.76928,-2.74281 c -0.39648,-1.39951 -0.76633,-1.67764 -1.84334,-1.71018 l -0.0414,-0.24854 h 4.40565 l 0.0444,0.24854 c -0.78112,0 -1.31074,0.0473 -1.31074,0.70715 0,0.28404 0.15977,0.81367 0.39648,1.62438 l 0.57696,2.06228 2.66884,3.43517 c 0.52666,0.69236 1.09179,1.59479 2.00015,1.59479 z" inkscape:connector-curvature="0" style="font-style:normal;font-variant:normal;font-weight:normal;font-stretch:normal;letter-spacing:normal;word-spacing:normal;text-anchor:start;fill:#000000;stroke:#000000;stroke-width:0;stroke-linecap:butt;stroke-linejoin:miter;stroke-miterlimit:10.43299961;stroke-opacity:1;stroke-dasharray:none;stroke-dashoffset:0"/><polygon transform="matrix(0.29587986,0,0,0.29587986,-13.835553,92.489317)" id="polygon6817" points="742.5,423.71 742.5,421.48 754.41,421.48 754.41,423.71 " style="font-style:normal;font-variant:normal;font-weight:normal;font-stretch:normal;letter-spacing:normal;word-spacing:normal;text-anchor:start;fill:#000000;stroke:#000000;stroke-width:0;stroke-linecap:butt;stroke-linejoin:miter;stroke-miterlimit:10.43299961;stroke-opacity:1;stroke-dasharray:none;stroke-dashoffset:0"/><path id="path6819" d="m 209.10105,214.60781 -0.003,0.0414 -0.003,0.0414 -0.006,0.0414 -0.006,0.0444 -0.009,0.0414 -0.0118,0.0414 -0.0148,0.0414 -0.0178,0.0385 -0.0178,0.0414 -0.0207,0.0385 -0.0237,0.0385 -0.0237,0.0385 -0.0266,0.0385 -0.0325,0.0355 -0.0325,0.0355 -0.0325,0.0326 -0.0385,0.0325 -0.0414,0.0326 -0.0414,0.0296 -0.0444,0.0266 -0.0473,0.0266 -0.0503,0.0237 -0.0533,0.0237 -0.0562,0.0207 -0.0562,0.0178 -0.0621,0.0178 -0.0621,0.0148 -0.068,0.0118 -0.068,0.009 -0.071,0.006 -0.074,0.006 -0.0799,0 c -1.70131,0 -3.31681,-1.82557 -3.31681,-3.43516 0,-1.18352 0.76928,-1.75161 1.64509,-1.75161 1.10363,0 1.82558,0.73378 2.3197,1.32258 l -0.3018,0.17457 c -0.33434,-0.40239 -0.88172,-0.93794 -1.59183,-0.93794 -0.62135,0 -0.97345,0.47045 -0.97345,1.2427 0,1.01487 0.80479,3.03277 2.2191,3.03277 0.17161,0 0.36985,-0.0592 0.36985,-0.21599 0,-0.17457 -0.28996,-0.31068 -0.28996,-0.58881 0,-0.27516 0.19824,-0.48524 0.48524,-0.48524 0.39352,0 0.63023,0.34322 0.63023,0.71307 z" inkscape:connector-curvature="0" style="font-style:normal;font-variant:normal;font-weight:normal;font-stretch:normal;letter-spacing:normal;word-spacing:normal;text-anchor:start;fill:#000000;stroke:#000000;stroke-width:0;stroke-linecap:butt;stroke-linejoin:miter;stroke-miterlimit:10.43299961;stroke-opacity:1;stroke-dasharray:none;stroke-dashoffset:0"/></g><g id="g6897" transform="translate(-205.95356,-75.726981)"><path id="path6821" d="m 222.49257,218.85073 0,0.0355 -0.003,0.0355 -0.006,0.0325 -0.006,0.0325 -0.009,0.0296 -0.009,0.0296 -0.0118,0.0296 -0.0148,0.0266 -0.0148,0.0237 -0.0148,0.0266 -0.0177,0.0237 -0.0207,0.0207 -0.0178,0.0207 -0.0207,0.0207 -0.0237,0.0207 -0.0207,0.0178 -0.0237,0.0148 -0.0266,0.0148 -0.0237,0.0148 -0.0266,0.0148 -0.0266,0.0118 -0.0237,0.0118 -0.0266,0.009 -0.0296,0.009 -0.0266,0.009 -0.0266,0.006 -0.0266,0.006 -0.0296,0.006 -0.0266,0.003 -0.0266,0.003 -0.0266,0 -0.0266,0 c -0.73969,0 -1.68059,-1.10363 -2.41733,-2.2694 -0.0178,0.0148 -0.11836,0.50596 -0.11836,0.50596 -0.2367,0.97048 -0.51483,1.5297 -1.01782,1.76344 0,0 -1.67764,-0.34914 -1.87292,-0.41127 v -0.24854 c 0.29588,0.074 0.51779,0.1006 0.69236,0.1006 0.81071,0 0.94385,-0.78112 1.50307,-2.90258 -0.67461,-0.98824 -1.71019,-2.62446 -2.12146,-2.62446 -0.3521,0 -0.36985,0.35506 -0.82255,0.35506 -0.32842,0 -0.53258,-0.23671 -0.53258,-0.53258 0,-0.38169 0.27813,-0.64502 0.69532,-0.64502 1.02966,0 1.98535,1.83741 2.88778,3.00318 0.0414,-0.1154 0.37873,-1.4291 0.37873,-1.4291 0.36985,-1.35217 0.6391,-1.57408 1.02374,-1.57408 0.43791,0 1.13026,0.45565 1.83742,1.73681 l -0.22191,0.13315 c -0.23375,-0.32251 -0.65981,-1.03558 -1.02966,-1.03558 -0.51779,0 -0.80776,2.09483 -1.17761,3.40853 0.0858,0.12131 1.10364,1.76937 1.66285,1.76937 0.28108,0 0.53258,-0.23375 0.78112,-0.23375 0.36985,0 0.503,0.28996 0.503,0.57105 z" inkscape:connector-curvature="0" style="font-style:normal;font-variant:normal;font-weight:normal;font-stretch:normal;letter-spacing:normal;word-spacing:normal;text-anchor:start;fill:#000000;stroke:#000000;stroke-width:0;stroke-linecap:butt;stroke-linejoin:miter;stroke-miterlimit:10.43299961;stroke-opacity:1;stroke-dasharray:none;stroke-dashoffset:0"/><path id="path6823" d="m 227.47518,210.88564 v 0.26925 c -0.17752,-0.14498 -0.30179,-0.19528 -0.45565,-0.19528 -0.23966,0 -0.30772,0.14498 -0.30772,0.59768 v 2.00902 c 0,0.52963 -0.0503,0.81367 -0.19824,1.05038 -0.21895,0.39352 -0.65685,0.60063 -1.28707,0.60063 -0.52667,0 -1.02079,-0.14202 -1.31371,-0.38168 -0.2515,-0.21895 -0.42015,-0.51483 -0.42015,-0.77225 0,-0.2367 0.19528,-0.44382 0.44382,-0.44382 0.24558,0 0.46453,0.20712 0.46453,0.43495 0,0.0414 -0.009,0.0917 -0.0207,0.16569 -0.0237,0.0917 -0.0325,0.17161 -0.0325,0.24558 0,0.27517 0.32843,0.503 0.74562,0.503 0.503,0 0.78112,-0.29588 0.78112,-0.8551 v -0.63022 -0.24262 -1.50011 c 0,-0.31955 -0.0503,-0.41128 -0.26925,-0.54442 -0.24262,-0.14498 -0.53554,-0.22783 -0.75153,-0.22783 -0.36097,0 -0.64798,0.3521 -0.64798,0.79592 v 0.0414 c 0,0.60655 0.42015,0.97936 1.66876,1.43502 v 0.24262 c -1.58591,-0.63614 -1.76048,-0.71899 -2.2043,-1.11251 -0.22783,-0.20416 -0.36985,-0.55625 -0.36985,-0.89652 0,-0.64797 0.4379,-1.10067 1.07996,-1.10067 0.45566,0 0.87581,0.21599 1.50307,0.74858 0.0503,-0.54442 0.23966,-0.74858 0.66277,-0.74858 0.34914,0 0.56809,0.11835 0.92906,0.51187 z" inkscape:connector-curvature="0" style="font-style:normal;font-variant:normal;font-weight:normal;font-stretch:normal;letter-spacing:normal;word-spacing:normal;text-anchor:start;fill:#000000;stroke:#000000;stroke-width:0;stroke-linecap:butt;stroke-linejoin:miter;stroke-miterlimit:10.43299961;stroke-opacity:1;stroke-dasharray:none;stroke-dashoffset:0"/><path id="path6825" d="m 231.74473,211.99223 -0.14498,0.0917 c -0.49412,-0.72195 -0.86989,-0.97049 -1.45573,-0.97049 -0.94681,0 -1.60071,0.82551 -1.60071,2.00902 0,1.07405 0.56809,1.796 1.40543,1.796 0.36985,0 0.50595,-0.11244 0.60655,-0.49412 l 0.0651,-0.22783 c 0.0828,-0.3018 0.26629,-0.47637 0.49412,-0.47637 0.26925,0 0.48524,0.19824 0.48524,0.43495 0,0.57696 -0.72491,1.0622 -1.58888,1.0622 -0.48524,0 -0.98232,-0.18344 -1.39359,-0.52666 -0.55329,-0.46157 -0.86397,-1.17465 -0.86397,-2.02974 0,-1.33146 0.81367,-2.28715 1.95577,-2.28715 0.44382,0 0.83734,0.14202 1.18943,0.42903 0.30772,0.24854 0.51188,0.55033 0.84622,1.18943 z" inkscape:connector-curvature="0" style="font-style:normal;font-variant:normal;font-weight:normal;font-stretch:normal;letter-spacing:normal;word-spacing:normal;text-anchor:start;fill:#000000;stroke:#000000;stroke-width:0;stroke-linecap:butt;stroke-linejoin:miter;stroke-miterlimit:10.43299961;stroke-opacity:1;stroke-dasharray:none;stroke-dashoffset:0"/><path id="path6827" d="m 232.98151,208.78194 0.0266,0.009 0.0266,0.006 0.0266,0.006 0.0237,0.009 0.0237,0.006 0.0237,0.006 0.0237,0.006 0.0237,0.009 0.0414,0.0148 0.0414,0.0148 0.0414,0.0148 0.0385,0.0148 0.0414,0.0177 0.0385,0.0207 0.0385,0.0178 0.0414,0.0237 0.0207,0.0118 0.0207,0.0118 0.0237,0.0118 0.0207,0.0118 0.0237,0.0148 0.0237,0.0148 0.0237,0.0148 0.0237,0.0148 c 0.503,0.31955 0.83734,0.78113 0.83734,1.59776 0,0.79295 -0.37576,1.12434 -0.86101,1.12434 -0.42902,0 -0.70715,-0.26629 -0.70715,-0.68348 0,-0.38761 0.26925,-0.64798 0.64798,-0.64798 0.11539,0 0.22487,0.0178 0.34322,0.0917 0.0414,0.0237 0.0503,0.0325 0.068,0.0325 0.0503,0 0.0829,-0.10652 0.0829,-0.22487 0,-0.10652 0,-0.85509 -1.11251,-1.27228 z" inkscape:connector-curvature="0" style="font-style:normal;font-variant:normal;font-weight:normal;font-stretch:normal;letter-spacing:normal;word-spacing:normal;text-anchor:start;fill:#000000;stroke:#000000;stroke-width:0;stroke-linecap:butt;stroke-linejoin:miter;stroke-miterlimit:10.43299961;stroke-opacity:1;stroke-dasharray:none;stroke-dashoffset:0"/><path id="path6829" d="m 245.0179,217.10504 v 0.19232 h -2.03861 v -0.19232 c 0.52667,-0.0503 0.71307,-0.1657 0.71307,-0.44382 0,-0.21895 -0.0651,-0.48525 -0.16865,-0.77225 l -1.29004,-3.49434 -1.35809,3.51209 -0.12427,0.31068 c -0.0917,0.21599 -0.15385,0.41127 -0.15385,0.52666 0,0.24558 0.2367,0.3521 0.79,0.36098 v 0.19232 h -2.74873 v -0.19232 c 0.58584,-0.009 0.6894,-0.10356 1.03854,-0.92907 l 0.34322,-0.84621 -1.10659,-2.9085 -1.48236,3.87898 c -0.074,0.18345 -0.11243,0.36098 -0.11243,0.47637 0,0.22487 0.14498,0.29588 0.67164,0.32843 v 0.19232 h -2.52977 v -0.19232 c 0.52667,-0.0503 0.68053,-0.23671 1.06517,-1.20719 l 1.98831,-5.53887 h 0.15682 l 1.58591,4.36422 1.64806,-4.36422 h 0.15385 l 2.10371,6.01523 c 0.19824,0.53555 0.31067,0.62727 0.85509,0.73083 z" inkscape:connector-curvature="0" style="font-style:normal;font-variant:normal;font-weight:normal;font-stretch:normal;letter-spacing:normal;word-spacing:normal;text-anchor:start;fill:#000000;stroke:#000000;stroke-width:0;stroke-linecap:butt;stroke-linejoin:miter;stroke-miterlimit:10.43299961;stroke-opacity:1;stroke-dasharray:none;stroke-dashoffset:0"/></g><g id="g6921" transform="translate(33.032253,-114.74362)"><path id="path6831" d="m 260.62852,212.98639 -0.0621,0.003 -0.0592,0.006 -0.0592,0.009 -0.0562,0.0118 -0.0503,0.0177 -0.0533,0.0178 -0.0473,0.0237 -0.0473,0.0237 -0.0444,0.0266 -0.0414,0.0325 -0.0414,0.0326 -0.0385,0.0355 -0.0385,0.0355 -0.0355,0.0414 -0.0325,0.0414 -0.0296,0.0444 -0.0325,0.0473 -0.0266,0.0473 -0.0266,0.0503 -0.0266,0.0503 -0.0237,0.0533 -0.0207,0.0562 -0.0207,0.0562 -0.0207,0.0592 -0.0177,0.0592 -0.0177,0.0592 -0.0148,0.0621 -0.0148,0.0621 -0.0118,0.0651 -0.0118,0.0651 -0.0118,0.0651 -0.009,0.0651 -1.28116,8.53318 h -0.31068 l -5.01516,-8.12191 c -0.86989,-1.42909 -1.48828,-1.69243 -2.16288,-1.73681 l -0.074,-0.31067 h 3.81685 l 0.074,0.31067 c -0.51779,0.0118 -1.29891,0.15978 -1.29891,0.79296 0,0.21007 0.0888,0.45861 0.28108,0.75449 l 3.72809,5.9679 0.89947,-6.21644 c 0.0148,-0.074 0.0148,-0.1361 0.0148,-0.21007 0,-0.64502 -0.50004,-1.04446 -1.11843,-1.08884 l -0.074,-0.31067 h 3.49138 z" inkscape:connector-curvature="0" style="font-style:normal;font-variant:normal;font-weight:normal;font-stretch:normal;letter-spacing:normal;word-spacing:normal;text-anchor:start;fill:#000000;stroke:#000000;stroke-width:0;stroke-linecap:butt;stroke-linejoin:miter;stroke-miterlimit:10.43299961;stroke-opacity:1;stroke-dasharray:none;stroke-dashoffset:0"/><path id="path6833" d="m 264.3359,210.47437 v 0.15386 c -0.65981,0.0414 -0.77225,0.14794 -0.77225,0.71011 v 6.16022 l -0.0414,0.0178 c -0.53554,-0.17753 -0.92906,-0.27813 -1.64214,-0.4527 v -0.16865 h 0.0651 c 0.11243,0.0148 0.2367,0.0237 0.31955,0.0237 0.32843,0 0.43494,-0.14202 0.43494,-0.62726 v -4.92048 c 0,-0.5533 -0.14794,-0.6894 -0.79592,-0.74266 v -0.15386 z" inkscape:connector-curvature="0" style="font-style:normal;font-variant:normal;font-weight:normal;font-stretch:normal;letter-spacing:normal;word-spacing:normal;text-anchor:start;fill:#000000;stroke:#000000;stroke-width:0;stroke-linecap:butt;stroke-linejoin:miter;stroke-miterlimit:10.43299961;stroke-opacity:1;stroke-dasharray:none;stroke-dashoffset:0"/><path id="path6835" d="m 268.93683,212.09283 -0.16569,0.074 c -0.49412,-0.78704 -0.93794,-1.08292 -1.60071,-1.08292 -0.56513,0 -1.00008,0.26925 -1.29892,0.82551 -0.20415,0.39944 -0.287,0.76041 -0.31067,1.42318 l 0.0237,0.32843 c 0.11243,0.81367 0.46157,1.18647 1.0918,1.18647 0.62726,0 0.87876,-0.28996 1.01191,-1.18647 h 0 -2.10371 l -0.0237,-0.32843 h 3.17775 c -0.0829,0.66869 -0.1864,0.96457 -0.44382,1.29891 -0.31067,0.36985 -0.78112,0.58584 -1.31962,0.58584 -1.27821,0 -2.15401,-1.02966 -2.15401,-2.53865 0,-1.42318 0.7397,-2.3049 1.92914,-2.3049 0.98824,0 1.75161,0.6036 2.18655,1.71906 z" inkscape:connector-curvature="0" style="font-style:normal;font-variant:normal;font-weight:normal;font-stretch:normal;letter-spacing:normal;word-spacing:normal;text-anchor:start;fill:#000000;stroke:#000000;stroke-width:0;stroke-linecap:butt;stroke-linejoin:miter;stroke-miterlimit:10.43299961;stroke-opacity:1;stroke-dasharray:none;stroke-dashoffset:0"/></g><g id="g6904" transform="translate(-162.84321,-104.70264)"><polygon transform="matrix(0.29587986,0,0,0.29587986,-13.835553,92.489317)" id="polygon6837" points="979.87,436.54 995.37,436.54 995.37,439.23 979.87,439.23 " style="font-style:normal;font-variant:normal;font-weight:normal;font-stretch:normal;letter-spacing:normal;word-spacing:normal;text-anchor:start;fill:#000000;stroke:#000000;stroke-width:0;stroke-linecap:butt;stroke-linejoin:miter;stroke-miterlimit:10.43299961;stroke-opacity:1;stroke-dasharray:none;stroke-dashoffset:0"/><path id="path6839" d="m 280.13588,218.23234 -0.003,0.0533 -0.003,0.0533 -0.006,0.0533 -0.009,0.0503 -0.0118,0.0533 -0.0148,0.0533 -0.0178,0.0533 -0.0177,0.0503 -0.0237,0.0503 -0.0266,0.0503 -0.0266,0.0503 -0.0326,0.0473 -0.0326,0.0473 -0.0385,0.0473 -0.0385,0.0444 -0.0444,0.0414 -0.0444,0.0414 -0.0503,0.0385 -0.0503,0.0385 -0.0562,0.0355 -0.0562,0.0355 -0.0621,0.0296 -0.0651,0.0296 -0.068,0.0266 -0.071,0.0237 -0.074,0.0207 -0.0769,0.0177 -0.0829,0.0148 -0.0828,0.0118 -0.0888,0.009 -0.0917,0.006 -0.0947,0 c -2.1688,0 -4.23109,-2.45876 -4.23109,-4.62756 0,-1.56224 0.95865,-2.28123 2.06229,-2.28123 1.40247,0 2.31674,0.97048 2.86115,1.66284 l -0.22191,0.14794 c -0.39647,-0.48524 -1.13026,-1.25157 -2.09187,-1.25157 -0.85805,0 -1.35513,0.69236 -1.35513,1.81078 0,1.40248 1.08884,4.24292 2.97656,4.24292 0.28108,0 0.55921,-0.12723 0.55921,-0.37872 0,-0.25446 -0.36393,-0.42903 -0.36393,-0.82551 0,-0.32547 0.21599,-0.54738 0.54442,-0.54738 0.45269,0 0.72194,0.41128 0.72194,0.86989 z" inkscape:connector-curvature="0" style="font-style:normal;font-variant:normal;font-weight:normal;font-stretch:normal;letter-spacing:normal;word-spacing:normal;text-anchor:start;fill:#000000;stroke:#000000;stroke-width:0;stroke-linecap:butt;stroke-linejoin:miter;stroke-miterlimit:10.43299961;stroke-opacity:1;stroke-dasharray:none;stroke-dashoffset:0"/></g><path id="path6928" d="m 376.54395,212.77147 h -3.08307 l -0.0414,-0.24854 c 0.58585,0 1.04446,-0.0592 1.04446,-0.51779 0,-0.16274 -0.17457,-0.52667 -0.39648,-0.80775 -0.0148,-0.0414 -2.18359,-2.79015 -2.4203,-3.09491 -0.14794,0.52667 -0.94089,3.13929 -0.94089,3.13929 -0.0621,0.17753 -0.1154,0.47341 -0.1154,0.63318 0,0.60655 0.60064,0.64798 1.10364,0.64798 l 0.0414,0.24854 h -3.88786 l -0.0473,-0.24854 c 0.81071,0 1.15097,-0.26334 1.46164,-1.26637 l 1.10659,-3.73104 -0.76928,-2.74281 c -0.39648,-1.39951 -0.76633,-1.67764 -1.84334,-1.71018 l -0.0414,-0.24854 h 4.40565 l 0.0444,0.24854 c -0.78112,0 -1.31074,0.0473 -1.31074,0.70715 0,0.28404 0.15977,0.81367 0.39648,1.62438 l 0.57696,2.06228 2.66884,3.43517 c 0.52666,0.69236 1.09179,1.59479 2.00015,1.59479 z" inkscape:connector-curvature="0" style="font-style:normal;font-variant:normal;font-weight:normal;font-stretch:normal;letter-spacing:normal;word-spacing:normal;text-anchor:start;fill:#000000;stroke:#000000;stroke-width:0;stroke-linecap:butt;stroke-linejoin:miter;stroke-miterlimit:10.43299961;stroke-opacity:1;stroke-dasharray:none;stroke-dashoffset:0"/><path id="path6939" d="m 75.501295,17.40533 h -2.78423 l -0.0444,-0.24854 c 0.59176,0 0.78112,-0.28109 0.78112,-0.50004 0,-0.23374 -0.21007,-0.55921 -0.45861,-0.8255 l -2.31082,-2.5209 -0.66573,2.07708 c -0.0888,0.28108 -0.26333,0.71011 -0.26333,1.10955 0,0.57104 0.61838,0.65981 1.02966,0.65981 l 0.0414,0.24854 h -3.96183 l -0.0444,-0.24854 c 0.98824,0 1.25157,-0.44382 1.53265,-1.28116 l 1.25454,-3.77543 c -1.16577,-1.36992 -3.0239,-3.34344 -3.0239,-3.34344 -0.51483,-0.57697 -1.15097,-1.05037 -1.67764,-1.05037 l -0.0473,-0.24854 h 3.19846 l 0.0474,0.24854 c -0.36985,0 -0.96161,0.0148 -0.96161,0.48524 0,0.2367 0.24854,0.59176 0.42902,0.78112 l 2.23685,2.5061 0.76929,-2.31082 c 0.074,-0.19528 0.14794,-0.53258 0.14794,-0.78112 0,-0.63318 -0.51483,-0.68052 -1.10659,-0.68052 l -0.0444,-0.24854 h 3.93816 l 0.0414,0.24854 c -0.72194,0 -1.13322,0.31067 -1.4291,1.2131 l -1.23677,3.77247 2.51793,2.81382 c 0.45862,0.50004 1.47644,1.65101 2.05341,1.65101 z" inkscape:connector-curvature="0" style="font-style:normal;font-variant:normal;font-weight:normal;font-stretch:normal;letter-spacing:normal;word-spacing:normal;text-anchor:start;fill:#000000;stroke:#000000;stroke-width:0;stroke-linecap:butt;stroke-linejoin:miter;stroke-miterlimit:10.43299961;stroke-opacity:1;stroke-dasharray:none;stroke-dashoffset:0"/><text xml:space="preserve" style="font-size:11.19999981px;font-style:normal;font-variant:normal;font-weight:normal;font-stretch:normal;text-align:center;line-height:104.99999523%;letter-spacing:0px;word-spacing:0px;writing-mode:lr-tb;text-anchor:middle;fill:#000000;fill-opacity:1;stroke:none;font-family:Times New Roman;-inkscape-font-specification:'Times New Roman,'" x="144.58012" y="-28.296436" id="text7139" sodipodi:linespacing="105%" transform="scale(1,-1)"><tspan sodipodi:role="line" id="tspan7141" x="144.58012" y="-28.296436">wing aerodynamic</tspan><tspan sodipodi:role="line" x="144.58012" y="-16.536438" id="tspan7143">center</tspan></text>
<text transform="scale(1,-1)" sodipodi:linespacing="105%" id="text7145" y="-166.50568" x="316.22998" style="font-size:11.19999981px;font-style:normal;font-variant:normal;font-weight:normal;font-stretch:normal;text-align:center;line-height:104.99999523%;letter-spacing:0px;word-spacing:0px;writing-mode:lr-tb;text-anchor:middle;fill:#000000;fill-opacity:1;stroke:none;font-family:Times New Roman;-inkscape-font-specification:'Times New Roman,'" xml:space="preserve"><tspan y="-166.50568" x="316.22998" id="tspan7147" sodipodi:role="line">mean aerodynamic</tspan><tspan id="tspan7149" y="-154.74568" x="316.22998" sodipodi:role="line">chord</tspan></text>
</g><g inkscape:groupmode="layer" inkscape:label="Frame" sodipodi:insensitive="true"><path style="fill:#ffffff;stroke:none" d="M -2.767869 -2.767869 v 282.322638 h 484.852698 v -282.322638 z M 0 0 h 479.31696 v 276.7869 h -479.31696 z"/></g></svg>