<!DOCTYPE svg PUBLIC "-//W3C//DTD SVG 1.1//EN" "http://www.w3.org/Graphics/SVG/1.1/DTD/svg11.dtd">
<svg xmlns="http://www.w3.org/2000/svg" xmlns:xlink="http://www.w3.org/1999/xlink" xmlns:jfreesvg="http://www.jfree.org/jfreesvg/svg" width="1920" height="1080" text-rendering="auto" shape-rendering="auto">
<defs><clipPath id="_88312338121998clip-0"><path d="M 0 0 L 1920 0 L 1920 1080 L 0 1080 L 0 0 Z "/></clipPath>
<clipPath id="_88312338121998clip-1"><path d="M 5 27 L 5 1075 L 1915 1075 L 1915 27 Z "/></clipPath>
</defs>
<rect x="0" y="0" width="1920" height="1080" style="fill: rgb(255,255,255); fill-opacity: 1.0" transform="matrix(1,0,0,1,0,0)" clip-path="url(#_88312338121998clip-0)"/><g transform="matrix(1,0,0,1,0,0)"><text x="859" y="21.01" style="fill: rgb(0,0,0); fill-opacity: 1.0; font-family: Tahoma; font-size: 20px; font-weight: bold;" clip-path="url(#_88312338121998clip-0)">Weights Breakdown</text></g><rect x="5" y="27" width="1910" height="1048" style="fill: rgb(255,255,255); fill-opacity: 0.0" transform="matrix(1,0,0,1,0,0)" clip-path="url(#_88312338121998clip-0)"/><rect x="5" y="27" width="1910" height="1048" style="stroke-width: 0.5;stroke: rgb(0,0,0);stroke-opacity: 1.0;stroke-linecap: round;stroke-linejoin: round;shape-rendering:crispEdges;; fill: none" transform="matrix(1,0,0,1,0,0)" clip-path="url(#_88312338121998clip-0)"/><g style="fill: rgb(128,128,128); fill-opacity: 1.0; stroke: none" transform="matrix(1,0,0,1,0,0)" clip-path="url(#_88312338121998clip-1)"><path d="M 964 136.85 C 1072.38 136.85 1176.53 178.93 1254.49 254.22 L 964 555 Z "/></g><g style="fill: rgb(128,128,128); fill-opacity: 1.0; stroke: none" transform="matrix(1,0,0,1,0,0)" clip-path="url(#_88312338121998clip-1)"><path d="M 1254.49 254.22 C 1304.64 302.65 1341.88 362.85 1362.82 429.34 L 964 555 Z "/></g><g style="fill: rgb(128,128,128); fill-opacity: 1.0; stroke: none" transform="matrix(1,0,0,1,0,0)" clip-path="url(#_88312338121998clip-1)"><path d="M 1362.82 429.34 C 1364.76 435.48 1366.55 441.66 1368.2 447.87 L 964 555 Z "/></g><g style="fill: rgb(128,128,128); fill-opacity: 1.0; stroke: none" transform="matrix(1,0,0,1,0,0)" clip-path="url(#_88312338121998clip-1)"><path d="M 1368.2 447.87 C 1370.79 457.66 1373.03 467.54 1374.9 477.48 L 964 555 Z "/></g><g style="fill: rgb(128,128,128); fill-opacity: 1.0; stroke: none" transform="matrix(1,0,0,1,0,0)" clip-path="url(#_88312338121998clip-1)"><path d="M 1374.9 477.48 C 1376.55 486.21 1377.92 495 1379.01 503.81 L 964 555 Z "/></g><g style="fill: rgb(128,128,128); fill-opacity: 1.0; stroke: none" transform="matrix(1,0,0,1,0,0)" clip-path="url(#_88312338121998clip-1)"><path d="M 1379.01 503.81 C 1382.95 535.76 1383.19 568.05 1379.72 600.05 L 964 555 Z "/></g><g style="fill: rgb(128,128,128); fill-opacity: 1.0; stroke: none" transform="matrix(1,0,0,1,0,0)" clip-path="url(#_88312338121998clip-1)"><path d="M 1379.72 600.05 C 1374.49 648.28 1360.91 695.24 1339.58 738.82 L 964 555 Z "/></g><g style="fill: rgb(128,128,128); fill-opacity: 1.0; stroke: none" transform="matrix(1,0,0,1,0,0)" clip-path="url(#_88312338121998clip-1)"><path d="M 1339.58 738.82 C 1302.09 815.42 1242.07 878.73 1167.58 920.25 L 964 555 Z "/></g><g style="fill: rgb(128,128,128); fill-opacity: 1.0; stroke: none" transform="matrix(1,0,0,1,0,0)" clip-path="url(#_88312338121998clip-1)"><path d="M 1167.58 920.25 C 1127.68 942.49 1084.4 958.04 1039.46 966.29 L 964 555 Z "/></g><g style="fill: rgb(128,128,128); fill-opacity: 1.0; stroke: none" transform="matrix(1,0,0,1,0,0)" clip-path="url(#_88312338121998clip-1)"><path d="M 1039.46 966.29 C 1017.23 970.37 994.71 972.64 972.11 973.07 L 964 555 Z "/></g><g style="fill: rgb(128,128,128); fill-opacity: 1.0; stroke: none" transform="matrix(1,0,0,1,0,0)" clip-path="url(#_88312338121998clip-1)"><path d="M 972.11 973.07 C 960.97 973.29 949.82 973.06 938.69 972.39 L 964 555 Z "/></g><g style="fill: rgb(128,128,128); fill-opacity: 1.0; stroke: none" transform="matrix(1,0,0,1,0,0)" clip-path="url(#_88312338121998clip-1)"><path d="M 938.69 972.39 C 812.29 964.72 696.17 900.19 622.91 796.89 C 549.65 693.59 527.16 562.65 561.74 440.83 L 964 555 Z "/></g><g style="fill: rgb(128,128,128); fill-opacity: 1.0; stroke: none" transform="matrix(1,0,0,1,0,0)" clip-path="url(#_88312338121998clip-1)"><path d="M 561.74 440.83 C 612.79 260.96 777.03 136.85 964 136.85 L 964 555 Z "/></g><g style="fill: rgb(255,85,85); fill-opacity: 1.0; stroke: none" transform="matrix(1,0,0,1,0,0)" clip-path="url(#_88312338121998clip-1)"><path d="M 960 132.85 C 1068.38 132.85 1172.53 174.93 1250.49 250.22 L 960 551 Z "/></g><g style="stroke-width: 0.5;stroke: rgb(128,128,128);stroke-opacity: 1.0;stroke-linecap: round;stroke-linejoin: round;shape-rendering:geometricPrecision;; fill: none" transform="matrix(1,0,0,1,0,0)" clip-path="url(#_88312338121998clip-1)"><path d="M 960 132.85 C 1068.38 132.85 1172.53 174.93 1250.49 250.22 L 960 551 Z "/></g><g style="fill: rgb(85,85,255); fill-opacity: 1.0; stroke: none" transform="matrix(1,0,0,1,0,0)" clip-path="url(#_88312338121998clip-1)"><path d="M 1250.49 250.22 C 1300.64 298.65 1337.88 358.85 1358.82 425.34 L 960 551 Z "/></g><g style="stroke-width: 0.5;stroke: rgb(128,128,128);stroke-opacity: 1.0;stroke-linecap: round;stroke-linejoin: round;shape-rendering:geometricPrecision;; fill: none" transform="matrix(1,0,0,1,0,0)" clip-path="url(#_88312338121998clip-1)"><path d="M 1250.49 250.22 C 1300.64 298.65 1337.88 358.85 1358.82 425.34 L 960 551 Z "/></g><g style="fill: rgb(85,255,85); fill-opacity: 1.0; stroke: none" transform="matrix(1,0,0,1,0,0)" clip-path="url(#_88312338121998clip-1)"><path d="M 1358.82 425.34 C 1360.76 431.48 1362.55 437.66 1364.2 443.87 L 960 551 Z "/></g><g style="stroke-width: 0.5;stroke: rgb(128,128,128);stroke-opacity: 1.0;stroke-linecap: round;stroke-linejoin: round;shape-rendering:geometricPrecision;; fill: none" transform="matrix(1,0,0,1,0,0)" clip-path="url(#_88312338121998clip-1)"><path d="M 1358.82 425.34 C 1360.76 431.48 1362.55 437.66 1364.2 443.87 L 960 551 Z "/></g><g style="fill: rgb(255,255,85); fill-opacity: 1.0; stroke: none" transform="matrix(1,0,0,1,0,0)" clip-path="url(#_88312338121998clip-1)"><path d="M 1364.2 443.87 C 1366.79 453.66 1369.03 463.54 1370.9 473.48 L 960 551 Z "/></g><g style="stroke-width: 0.5;stroke: rgb(128,128,128);stroke-opacity: 1.0;stroke-linecap: round;stroke-linejoin: round;shape-rendering:geometricPrecision;; fill: none" transform="matrix(1,0,0,1,0,0)" clip-path="url(#_88312338121998clip-1)"><path d="M 1364.2 443.87 C 1366.79 453.66 1369.03 463.54 1370.9 473.48 L 960 551 Z "/></g><g style="fill: rgb(255,85,255); fill-opacity: 1.0; stroke: none" transform="matrix(1,0,0,1,0,0)" clip-path="url(#_88312338121998clip-1)"><path d="M 1370.9 473.48 C 1372.55 482.21 1373.92 491 1375.01 499.81 L 960 551 Z "/></g><g style="stroke-width: 0.5;stroke: rgb(128,128,128);stroke-opacity: 1.0;stroke-linecap: round;stroke-linejoin: round;shape-rendering:geometricPrecision;; fill: none" transform="matrix(1,0,0,1,0,0)" clip-path="url(#_88312338121998clip-1)"><path d="M 1370.9 473.48 C 1372.55 482.21 1373.92 491 1375.01 499.81 L 960 551 Z "/></g><g style="fill: rgb(85,255,255); fill-opacity: 1.0; stroke: none" transform="matrix(1,0,0,1,0,0)" clip-path="url(#_88312338121998clip-1)"><path d="M 1375.01 499.81 C 1378.95 531.76 1379.19 564.05 1375.72 596.05 L 960 551 Z "/></g><g style="stroke-width: 0.5;stroke: rgb(128,128,128);stroke-opacity: 1.0;stroke-linecap: round;stroke-linejoin: round;shape-rendering:geometricPrecision;; fill: none" transform="matrix(1,0,0,1,0,0)" clip-path="url(#_88312338121998clip-1)"><path d="M 1375.01 499.81 C 1378.95 531.76 1379.19 564.05 1375.72 596.05 L 960 551 Z "/></g><g style="fill: rgb(255,175,175); fill-opacity: 1.0; stroke: none" transform="matrix(1,0,0,1,0,0)" clip-path="url(#_88312338121998clip-1)"><path d="M 1375.72 596.05 C 1370.49 644.28 1356.91 691.24 1335.58 734.82 L 960 551 Z "/></g><g style="stroke-width: 0.5;stroke: rgb(128,128,128);stroke-opacity: 1.0;stroke-linecap: round;stroke-linejoin: round;shape-rendering:geometricPrecision;; fill: none" transform="matrix(1,0,0,1,0,0)" clip-path="url(#_88312338121998clip-1)"><path d="M 1375.72 596.05 C 1370.49 644.28 1356.91 691.24 1335.58 734.82 L 960 551 Z "/></g><g style="fill: rgb(128,128,128); fill-opacity: 1.0; stroke: none" transform="matrix(1,0,0,1,0,0)" clip-path="url(#_88312338121998clip-1)"><path d="M 1335.58 734.82 C 1298.09 811.42 1238.07 874.73 1163.58 916.25 L 960 551 Z "/></g><g style="stroke-width: 0.5;stroke: rgb(128,128,128);stroke-opacity: 1.0;stroke-linecap: round;stroke-linejoin: round;shape-rendering:geometricPrecision;; fill: none" transform="matrix(1,0,0,1,0,0)" clip-path="url(#_88312338121998clip-1)"><path d="M 1335.58 734.82 C 1298.09 811.42 1238.07 874.73 1163.58 916.25 L 960 551 Z "/></g><g style="fill: rgb(192,0,0); fill-opacity: 1.0; stroke: none" transform="matrix(1,0,0,1,0,0)" clip-path="url(#_88312338121998clip-1)"><path d="M 1163.58 916.25 C 1123.68 938.49 1080.4 954.04 1035.46 962.29 L 960 551 Z "/></g><g style="stroke-width: 0.5;stroke: rgb(128,128,128);stroke-opacity: 1.0;stroke-linecap: round;stroke-linejoin: round;shape-rendering:geometricPrecision;; fill: none" transform="matrix(1,0,0,1,0,0)" clip-path="url(#_88312338121998clip-1)"><path d="M 1163.58 916.25 C 1123.68 938.49 1080.4 954.04 1035.46 962.29 L 960 551 Z "/></g><g style="fill: rgb(0,0,192); fill-opacity: 1.0; stroke: none" transform="matrix(1,0,0,1,0,0)" clip-path="url(#_88312338121998clip-1)"><path d="M 1035.46 962.29 C 1013.23 966.37 990.71 968.64 968.11 969.07 L 960 551 Z "/></g><g style="stroke-width: 0.5;stroke: rgb(128,128,128);stroke-opacity: 1.0;stroke-linecap: round;stroke-linejoin: round;shape-rendering:geometricPrecision;; fill: none" transform="matrix(1,0,0,1,0,0)" clip-path="url(#_88312338121998clip-1)"><path d="M 1035.46 962.29 C 1013.23 966.37 990.71 968.64 968.11 969.07 L 960 551 Z "/></g><g style="fill: rgb(0,192,0); fill-opacity: 1.0; stroke: none" transform="matrix(1,0,0,1,0,0)" clip-path="url(#_88312338121998clip-1)"><path d="M 968.11 969.07 C 956.97 969.29 945.82 969.06 934.69 968.39 L 960 551 Z "/></g><g style="stroke-width: 0.5;stroke: rgb(128,128,128);stroke-opacity: 1.0;stroke-linecap: round;stroke-linejoin: round;shape-rendering:geometricPrecision;; fill: none" transform="matrix(1,0,0,1,0,0)" clip-path="url(#_88312338121998clip-1)"><path d="M 968.11 969.07 C 956.97 969.29 945.82 969.06 934.69 968.39 L 960 551 Z "/></g><g style="fill: rgb(192,192,0); fill-opacity: 1.0; stroke: none" transform="matrix(1,0,0,1,0,0)" clip-path="url(#_88312338121998clip-1)"><path d="M 934.69 968.39 C 808.29 960.72 692.17 896.19 618.91 792.89 C 545.65 689.59 523.16 558.65 557.74 436.83 L 960 551 Z "/></g><g style="stroke-width: 0.5;stroke: rgb(128,128,128);stroke-opacity: 1.0;stroke-linecap: round;stroke-linejoin: round;shape-rendering:geometricPrecision;; fill: none" transform="matrix(1,0,0,1,0,0)" clip-path="url(#_88312338121998clip-1)"><path d="M 934.69 968.39 C 808.29 960.72 692.17 896.19 618.91 792.89 C 545.65 689.59 523.16 558.65 557.74 436.83 L 960 551 Z "/></g><g style="fill: rgb(192,0,192); fill-opacity: 1.0; stroke: none" transform="matrix(1,0,0,1,0,0)" clip-path="url(#_88312338121998clip-1)"><path d="M 557.74 436.83 C 608.79 256.96 773.03 132.85 960 132.85 L 960 551 Z "/></g><g style="stroke-width: 0.5;stroke: rgb(128,128,128);stroke-opacity: 1.0;stroke-linecap: round;stroke-linejoin: round;shape-rendering:geometricPrecision;; fill: none" transform="matrix(1,0,0,1,0,0)" clip-path="url(#_88312338121998clip-1)"><path d="M 557.74 436.83 C 608.79 256.96 773.03 132.85 960 132.85 L 960 551 Z "/></g><g style="stroke-width: 0.5;stroke: rgb(0,0,0);stroke-opacity: 1.0;stroke-linecap: square;shape-rendering:geometricPrecision;; fill: none" transform="matrix(1,0,0,1,0,0)" clip-path="url(#_88312338121998clip-1)"><path d="M 481.57 199.83 C 519.84 199.83 694.63 199.83 733.11 250.75"/></g><rect x="290.57" y="178.83" width="193" height="46" style="fill: rgb(151,151,151); fill-opacity: 0.5019608" transform="matrix(1,0,0,1,0,0)" clip-path="url(#_88312338121998clip-1)"/><rect x="288.57" y="176.83" width="193" height="46" style="fill: rgb(255,255,192); fill-opacity: 1.0" transform="matrix(1,0,0,1,0,0)" clip-path="url(#_88312338121998clip-1)"/><rect x="288.57" y="176.83" width="193" height="46" style="stroke-width: 0.5;stroke: rgb(0,0,0);stroke-opacity: 1.0;stroke-linecap: square;shape-rendering:geometricPrecision;; fill: none" transform="matrix(1,0,0,1,0,0)" clip-path="url(#_88312338121998clip-1)"/><g transform="matrix(1,0,0,1,0,0)"><text x="290.57" y="211" style="fill: rgb(0,0,0); fill-opacity: 1.0; font-family: sans-serif; font-size: 32px;" clip-path="url(#_88312338121998clip-1)">Fuel: 20,60%</text></g><g style="stroke-width: 0.5;stroke: rgb(0,0,0);stroke-opacity: 1.0;stroke-linecap: square;shape-rendering:geometricPrecision;; fill: none" transform="matrix(1,0,0,1,0,0)" clip-path="url(#_88312338121998clip-1)"><path d="M 476.49 805.62 C 519.84 805.62 600.96 805.62 653.02 768.7"/></g><rect x="179.49" y="784.62" width="299" height="46" style="fill: rgb(151,151,151); fill-opacity: 0.5019608" transform="matrix(1,0,0,1,0,0)" clip-path="url(#_88312338121998clip-1)"/><rect x="177.49" y="782.62" width="299" height="46" style="fill: rgb(255,255,192); fill-opacity: 1.0" transform="matrix(1,0,0,1,0,0)" clip-path="url(#_88312338121998clip-1)"/><rect x="177.49" y="782.62" width="299" height="46" style="stroke-width: 0.5;stroke: rgb(0,0,0);stroke-opacity: 1.0;stroke-linecap: square;shape-rendering:geometricPrecision;; fill: none" transform="matrix(1,0,0,1,0,0)" clip-path="url(#_88312338121998clip-1)"/><g transform="matrix(1,0,0,1,0,0)"><text x="179.49" y="816.79" style="fill: rgb(0,0,0); fill-opacity: 1.0; font-family: sans-serif; font-size: 32px;" clip-path="url(#_88312338121998clip-1)">Passengers: 28,44%</text></g><g style="stroke-width: 0.5;stroke: rgb(0,0,0);stroke-opacity: 1.0;stroke-linecap: square;shape-rendering:geometricPrecision;; fill: none" transform="matrix(1,0,0,1,0,0)" clip-path="url(#_88312338121998clip-1)"><path d="M 495.47 991.07 C 519.84 991.07 950.94 991.07 952.25 927.26"/></g><rect x="310.47" y="970.07" width="187" height="46" style="fill: rgb(151,151,151); fill-opacity: 0.5019608" transform="matrix(1,0,0,1,0,0)" clip-path="url(#_88312338121998clip-1)"/><rect x="308.47" y="968.07" width="187" height="46" style="fill: rgb(255,255,192); fill-opacity: 1.0" transform="matrix(1,0,0,1,0,0)" clip-path="url(#_88312338121998clip-1)"/><rect x="308.47" y="968.07" width="187" height="46" style="stroke-width: 0.5;stroke: rgb(0,0,0);stroke-opacity: 1.0;stroke-linecap: square;shape-rendering:geometricPrecision;; fill: none" transform="matrix(1,0,0,1,0,0)" clip-path="url(#_88312338121998clip-1)"/><g transform="matrix(1,0,0,1,0,0)"><text x="310.47" y="1002.24" style="fill: rgb(0,0,0); fill-opacity: 1.0; font-family: sans-serif; font-size: 32px;" clip-path="url(#_88312338121998clip-1)">Crew: 1,27%</text></g><g style="stroke-width: 0.5;stroke: rgb(0,0,0);stroke-opacity: 1.0;stroke-linecap: square;shape-rendering:geometricPrecision;; fill: none" transform="matrix(1,0,0,1,0,0)" clip-path="url(#_88312338121998clip-1)"><path d="M 1432.98 142.9 C 1400.16 142.9 1124.9 142.9 1100.99 202.07"/></g><rect x="1434.98" y="121.9" width="262" height="46" style="fill: rgb(151,151,151); fill-opacity: 0.5019608" transform="matrix(1,0,0,1,0,0)" clip-path="url(#_88312338121998clip-1)"/><rect x="1432.98" y="119.9" width="262" height="46" style="fill: rgb(255,255,192); fill-opacity: 1.0" transform="matrix(1,0,0,1,0,0)" clip-path="url(#_88312338121998clip-1)"/><rect x="1432.98" y="119.9" width="262" height="46" style="stroke-width: 0.5;stroke: rgb(0,0,0);stroke-opacity: 1.0;stroke-linecap: square;shape-rendering:geometricPrecision;; fill: none" transform="matrix(1,0,0,1,0,0)" clip-path="url(#_88312338121998clip-1)"/><g transform="matrix(1,0,0,1,0,0)"><text x="1434.98" y="154.07" style="fill: rgb(0,0,0); fill-opacity: 1.0; font-family: sans-serif; font-size: 32px;" clip-path="url(#_88312338121998clip-1)">Fuselage: 12,22%</text></g><g style="stroke-width: 0.5;stroke: rgb(0,0,0);stroke-opacity: 1.0;stroke-linecap: square;shape-rendering:geometricPrecision;; fill: none" transform="matrix(1,0,0,1,0,0)" clip-path="url(#_88312338121998clip-1)"><path d="M 1444.34 319.43 C 1400.16 319.43 1334.32 319.43 1280.05 353.01"/></g><rect x="1446.34" y="298.43" width="185" height="46" style="fill: rgb(151,151,151); fill-opacity: 0.5019608" transform="matrix(1,0,0,1,0,0)" clip-path="url(#_88312338121998clip-1)"/><rect x="1444.34" y="296.43" width="185" height="46" style="fill: rgb(255,255,192); fill-opacity: 1.0" transform="matrix(1,0,0,1,0,0)" clip-path="url(#_88312338121998clip-1)"/><rect x="1444.34" y="296.43" width="185" height="46" style="stroke-width: 0.5;stroke: rgb(0,0,0);stroke-opacity: 1.0;stroke-linecap: square;shape-rendering:geometricPrecision;; fill: none" transform="matrix(1,0,0,1,0,0)" clip-path="url(#_88312338121998clip-1)"/><g transform="matrix(1,0,0,1,0,0)"><text x="1446.34" y="330.6" style="fill: rgb(0,0,0); fill-opacity: 1.0; font-family: sans-serif; font-size: 32px;" clip-path="url(#_88312338121998clip-1)">Wing: 7,92%</text></g><g style="stroke-width: 0.5;stroke: rgb(0,0,0);stroke-opacity: 1.0;stroke-linecap: square;shape-rendering:geometricPrecision;; fill: none" transform="matrix(1,0,0,1,0,0)" clip-path="url(#_88312338121998clip-1)"><path d="M 1446.97 428.45 C 1400.16 428.45 1382.76 428.45 1321.46 446.22"/></g><rect x="1448.97" y="407.45" width="317" height="46" style="fill: rgb(151,151,151); fill-opacity: 0.5019608" transform="matrix(1,0,0,1,0,0)" clip-path="url(#_88312338121998clip-1)"/><rect x="1446.97" y="405.45" width="317" height="46" style="fill: rgb(255,255,192); fill-opacity: 1.0" transform="matrix(1,0,0,1,0,0)" clip-path="url(#_88312338121998clip-1)"/><rect x="1446.97" y="405.45" width="317" height="46" style="stroke-width: 0.5;stroke: rgb(0,0,0);stroke-opacity: 1.0;stroke-linecap: square;shape-rendering:geometricPrecision;; fill: none" transform="matrix(1,0,0,1,0,0)" clip-path="url(#_88312338121998clip-1)"/><g transform="matrix(1,0,0,1,0,0)"><text x="1448.97" y="439.62" style="fill: rgb(0,0,0); fill-opacity: 1.0; font-family: sans-serif; font-size: 32px;" clip-path="url(#_88312338121998clip-1)">Horizontal Tail: 0,73%</text></g><g style="stroke-width: 0.5;stroke: rgb(0,0,0);stroke-opacity: 1.0;stroke-linecap: square;shape-rendering:geometricPrecision;; fill: none" transform="matrix(1,0,0,1,0,0)" clip-path="url(#_88312338121998clip-1)"><path d="M 1447.32 478.45 C 1400.16 453.76 1389.28 453.76 1327.04 467.86"/></g><rect x="1449.32" y="457.45" width="280" height="46" style="fill: rgb(151,151,151); fill-opacity: 0.5019608" transform="matrix(1,0,0,1,0,0)" clip-path="url(#_88312338121998clip-1)"/><rect x="1447.32" y="455.45" width="280" height="46" style="fill: rgb(255,255,192); fill-opacity: 1.0" transform="matrix(1,0,0,1,0,0)" clip-path="url(#_88312338121998clip-1)"/><rect x="1447.32" y="455.45" width="280" height="46" style="stroke-width: 0.5;stroke: rgb(0,0,0);stroke-opacity: 1.0;stroke-linecap: square;shape-rendering:geometricPrecision;; fill: none" transform="matrix(1,0,0,1,0,0)" clip-path="url(#_88312338121998clip-1)"/><g transform="matrix(1,0,0,1,0,0)"><text x="1449.32" y="489.62" style="fill: rgb(0,0,0); fill-opacity: 1.0; font-family: sans-serif; font-size: 32px;" clip-path="url(#_88312338121998clip-1)">Vertical Tail: 1,16%</text></g><g style="stroke-width: 0.5;stroke: rgb(0,0,0);stroke-opacity: 1.0;stroke-linecap: square;shape-rendering:geometricPrecision;; fill: none" transform="matrix(1,0,0,1,0,0)" clip-path="url(#_88312338121998clip-1)"><path d="M 1447.63 528.45 C 1400.16 483.23 1394.91 483.23 1331.85 493.05"/></g><rect x="1449.63" y="507.45" width="235" height="46" style="fill: rgb(151,151,151); fill-opacity: 0.5019608" transform="matrix(1,0,0,1,0,0)" clip-path="url(#_88312338121998clip-1)"/><rect x="1447.63" y="505.45" width="235" height="46" style="fill: rgb(255,255,192); fill-opacity: 1.0" transform="matrix(1,0,0,1,0,0)" clip-path="url(#_88312338121998clip-1)"/><rect x="1447.63" y="505.45" width="235" height="46" style="stroke-width: 0.5;stroke: rgb(0,0,0);stroke-opacity: 1.0;stroke-linecap: square;shape-rendering:geometricPrecision;; fill: none" transform="matrix(1,0,0,1,0,0)" clip-path="url(#_88312338121998clip-1)"/><g transform="matrix(1,0,0,1,0,0)"><text x="1449.63" y="539.62" style="fill: rgb(0,0,0); fill-opacity: 1.0; font-family: sans-serif; font-size: 32px;" clip-path="url(#_88312338121998clip-1)">Nacelles: 1,01%</text></g><g style="stroke-width: 0.5;stroke: rgb(0,0,0);stroke-opacity: 1.0;stroke-linecap: square;shape-rendering:geometricPrecision;; fill: none" transform="matrix(1,0,0,1,0,0)" clip-path="url(#_88312338121998clip-1)"><path d="M 1447.91 578.45 C 1400.16 547.75 1400.15 547.75 1336.33 548.22"/></g><rect x="1449.91" y="557.45" width="322" height="46" style="fill: rgb(151,151,151); fill-opacity: 0.5019608" transform="matrix(1,0,0,1,0,0)" clip-path="url(#_88312338121998clip-1)"/><rect x="1447.91" y="555.45" width="322" height="46" style="fill: rgb(255,255,192); fill-opacity: 1.0" transform="matrix(1,0,0,1,0,0)" clip-path="url(#_88312338121998clip-1)"/><rect x="1447.91" y="555.45" width="322" height="46" style="stroke-width: 0.5;stroke: rgb(0,0,0);stroke-opacity: 1.0;stroke-linecap: square;shape-rendering:geometricPrecision;; fill: none" transform="matrix(1,0,0,1,0,0)" clip-path="url(#_88312338121998clip-1)"/><g transform="matrix(1,0,0,1,0,0)"><text x="1449.91" y="589.62" style="fill: rgb(0,0,0); fill-opacity: 1.0; font-family: sans-serif; font-size: 32px;" clip-path="url(#_88312338121998clip-1)">Landing Gears: 3,67%</text></g><g style="stroke-width: 0.5;stroke: rgb(0,0,0);stroke-opacity: 1.0;stroke-linecap: square;shape-rendering:geometricPrecision;; fill: none" transform="matrix(1,0,0,1,0,0)" clip-path="url(#_88312338121998clip-1)"><path d="M 1446.97 673.3 C 1400.16 673.3 1382.83 673.3 1321.52 655.56"/></g><rect x="1448.97" y="652.3" width="285" height="46" style="fill: rgb(151,151,151); fill-opacity: 0.5019608" transform="matrix(1,0,0,1,0,0)" clip-path="url(#_88312338121998clip-1)"/><rect x="1446.97" y="650.3" width="285" height="46" style="fill: rgb(255,255,192); fill-opacity: 1.0" transform="matrix(1,0,0,1,0,0)" clip-path="url(#_88312338121998clip-1)"/><rect x="1446.97" y="650.3" width="285" height="46" style="stroke-width: 0.5;stroke: rgb(0,0,0);stroke-opacity: 1.0;stroke-linecap: square;shape-rendering:geometricPrecision;; fill: none" transform="matrix(1,0,0,1,0,0)" clip-path="url(#_88312338121998clip-1)"/><g transform="matrix(1,0,0,1,0,0)"><text x="1448.97" y="684.47" style="fill: rgb(0,0,0); fill-opacity: 1.0; font-family: sans-serif; font-size: 32px;" clip-path="url(#_88312338121998clip-1)">Power Plant: 5,53%</text></g><g style="stroke-width: 0.5;stroke: rgb(0,0,0);stroke-opacity: 1.0;stroke-linecap: square;shape-rendering:geometricPrecision;; fill: none" transform="matrix(1,0,0,1,0,0)" clip-path="url(#_88312338121998clip-1)"><path d="M 1441.36 853.83 C 1400.16 853.83 1279.43 853.83 1233.11 809.92"/></g><rect x="1443.36" y="832.83" width="235" height="46" style="fill: rgb(151,151,151); fill-opacity: 0.5019608" transform="matrix(1,0,0,1,0,0)" clip-path="url(#_88312338121998clip-1)"/><rect x="1441.36" y="830.83" width="235" height="46" style="fill: rgb(255,255,192); fill-opacity: 1.0" transform="matrix(1,0,0,1,0,0)" clip-path="url(#_88312338121998clip-1)"/><rect x="1441.36" y="830.83" width="235" height="46" style="stroke-width: 0.5;stroke: rgb(0,0,0);stroke-opacity: 1.0;stroke-linecap: square;shape-rendering:geometricPrecision;; fill: none" transform="matrix(1,0,0,1,0,0)" clip-path="url(#_88312338121998clip-1)"/><g transform="matrix(1,0,0,1,0,0)"><text x="1443.36" y="865" style="fill: rgb(0,0,0); fill-opacity: 1.0; font-family: sans-serif; font-size: 32px;" clip-path="url(#_88312338121998clip-1)">Systems: 9,66%</text></g><g style="stroke-width: 0.5;stroke: rgb(0,0,0);stroke-opacity: 1.0;stroke-linecap: square;shape-rendering:geometricPrecision;; fill: none" transform="matrix(1,0,0,1,0,0)" clip-path="url(#_88312338121998clip-1)"><path d="M 1432.11 965.23 C 1400.16 965.23 1108.85 965.23 1087.27 905.16"/></g><rect x="1434.11" y="923.23" width="411" height="88" style="fill: rgb(151,151,151); fill-opacity: 0.5019608" transform="matrix(1,0,0,1,0,0)" clip-path="url(#_88312338121998clip-1)"/><rect x="1432.11" y="921.23" width="411" height="88" style="fill: rgb(255,255,192); fill-opacity: 1.0" transform="matrix(1,0,0,1,0,0)" clip-path="url(#_88312338121998clip-1)"/><rect x="1432.11" y="921.23" width="411" height="88" style="stroke-width: 0.5;stroke: rgb(0,0,0);stroke-opacity: 1.0;stroke-linecap: square;shape-rendering:geometricPrecision;; fill: none" transform="matrix(1,0,0,1,0,0)" clip-path="url(#_88312338121998clip-1)"/><g transform="matrix(1,0,0,1,0,0)"><text x="1434.11" y="955.4" style="fill: rgb(0,0,0); fill-opacity: 1.0; font-family: sans-serif; font-size: 32px;" clip-path="url(#_88312338121998clip-1)">Furnishings and Equipment: </text></g><g transform="matrix(1,0,0,1,0,0)"><text x="1592.11" y="997.4" style="fill: rgb(0,0,0); fill-opacity: 1.0; font-family: sans-serif; font-size: 32px;" clip-path="url(#_88312338121998clip-1)">5,20%</text></g><g style="stroke-width: 0.5;stroke: rgb(0,0,0);stroke-opacity: 1.0;stroke-linecap: square;shape-rendering:geometricPrecision;; fill: none" transform="matrix(1,0,0,1,0,0)" clip-path="url(#_88312338121998clip-1)"><path d="M 1426.43 1036.23 C 1400.16 988.94 1004.13 988.94 997.73 925.44"/></g><rect x="1428.43" y="1015.23" width="340" height="46" style="fill: rgb(151,151,151); fill-opacity: 0.5019608" transform="matrix(1,0,0,1,0,0)" clip-path="url(#_88312338121998clip-1)"/><rect x="1426.43" y="1013.23" width="340" height="46" style="fill: rgb(255,255,192); fill-opacity: 1.0" transform="matrix(1,0,0,1,0,0)" clip-path="url(#_88312338121998clip-1)"/><rect x="1426.43" y="1013.23" width="340" height="46" style="stroke-width: 0.5;stroke: rgb(0,0,0);stroke-opacity: 1.0;stroke-linecap: square;shape-rendering:geometricPrecision;; fill: none" transform="matrix(1,0,0,1,0,0)" clip-path="url(#_88312338121998clip-1)"/><g transform="matrix(1,0,0,1,0,0)"><text x="1428.43" y="1047.4" style="fill: rgb(0,0,0); fill-opacity: 1.0; font-family: sans-serif; font-size: 32px;" clip-path="url(#_88312338121998clip-1)">Operating Items: 2,58%</text></g><rect x="5" y="27" width="1910" height="1048" style="stroke-width: 0.5;stroke: rgb(0,0,0);stroke-opacity: 1.0;stroke-linecap: round;stroke-linejoin: round;shape-rendering:crispEdges;; fill: none" transform="matrix(1,0,0,1,0,0)" clip-path="url(#_88312338121998clip-0)"/></svg>
