<!DOCTYPE svg PUBLIC "-//W3C//DTD SVG 1.1//EN" "http://www.w3.org/Graphics/SVG/1.1/DTD/svg11.dtd">
<svg xmlns="http://www.w3.org/2000/svg" xmlns:xlink="http://www.w3.org/1999/xlink" xmlns:jfreesvg="http://www.jfree.org/jfreesvg/svg" width="1920" height="1080" text-rendering="auto" shape-rendering="auto">
<defs><clipPath id="_3120606369553413clip-0"><path d="M 0 0 L 1920 0 L 1920 1080 L 0 1080 L 0 0 Z "/></clipPath>
<clipPath id="_3120606369553413clip-1"><path d="M 5 27 L 5 1075 L 1915 1075 L 1915 27 Z "/></clipPath>
</defs>
<rect x="0" y="0" width="1920" height="1080" style="fill: rgb(255,255,255); fill-opacity: 1.0" transform="matrix(1,0,0,1,0,0)" clip-path="url(#_3120606369553413clip-0)"/><g transform="matrix(1,0,0,1,0,0)"><text x="859" y="21.01" style="fill: rgb(0,0,0); fill-opacity: 1.0; font-family: Tahoma; font-size: 20px; font-weight: bold;" clip-path="url(#_3120606369553413clip-0)">Weights Breakdown</text></g><rect x="5" y="27" width="1910" height="1048" style="fill: rgb(255,255,255); fill-opacity: 0.0" transform="matrix(1,0,0,1,0,0)" clip-path="url(#_3120606369553413clip-0)"/><rect x="5" y="27" width="1910" height="1048" style="stroke-width: 0.5;stroke: rgb(0,0,0);stroke-opacity: 1.0;stroke-linecap: round;stroke-linejoin: round;shape-rendering:crispEdges;; fill: none" transform="matrix(1,0,0,1,0,0)" clip-path="url(#_3120606369553413clip-0)"/><g style="fill: rgb(128,128,128); fill-opacity: 1.0; stroke: none" transform="matrix(1,0,0,1,0,0)" clip-path="url(#_3120606369553413clip-1)"><path d="M 964 136.85 C 1079.74 136.85 1190.3 184.82 1269.37 269.34 L 964 555 Z "/></g><g style="fill: rgb(128,128,128); fill-opacity: 1.0; stroke: none" transform="matrix(1,0,0,1,0,0)" clip-path="url(#_3120606369553413clip-1)"><path d="M 1269.37 269.34 C 1320.9 324.43 1356.57 392.44 1372.6 466.15 L 964 555 Z "/></g><g style="fill: rgb(128,128,128); fill-opacity: 1.0; stroke: none" transform="matrix(1,0,0,1,0,0)" clip-path="url(#_3120606369553413clip-1)"><path d="M 1372.6 466.15 C 1374.23 473.64 1375.66 481.18 1376.87 488.75 L 964 555 Z "/></g><g style="fill: rgb(128,128,128); fill-opacity: 1.0; stroke: none" transform="matrix(1,0,0,1,0,0)" clip-path="url(#_3120606369553413clip-1)"><path d="M 1376.87 488.75 C 1378.53 499.11 1379.8 509.52 1380.68 519.98 L 964 555 Z "/></g><g style="fill: rgb(128,128,128); fill-opacity: 1.0; stroke: none" transform="matrix(1,0,0,1,0,0)" clip-path="url(#_3120606369553413clip-1)"><path d="M 1380.68 519.98 C 1381.64 531.37 1382.13 542.79 1382.15 554.22 L 964 555 Z "/></g><g style="fill: rgb(128,128,128); fill-opacity: 1.0; stroke: none" transform="matrix(1,0,0,1,0,0)" clip-path="url(#_3120606369553413clip-1)"><path d="M 1382.15 554.22 C 1382.22 592.81 1376.95 631.22 1366.49 668.36 L 964 555 Z "/></g><g style="fill: rgb(128,128,128); fill-opacity: 1.0; stroke: none" transform="matrix(1,0,0,1,0,0)" clip-path="url(#_3120606369553413clip-1)"><path d="M 1366.49 668.36 C 1351.07 723.12 1324.64 774.15 1288.81 818.34 L 964 555 Z "/></g><g style="fill: rgb(128,128,128); fill-opacity: 1.0; stroke: none" transform="matrix(1,0,0,1,0,0)" clip-path="url(#_3120606369553413clip-1)"><path d="M 1288.81 818.34 C 1204.7 922.09 1076.08 979.42 942.69 972.61 L 964 555 Z "/></g><g style="fill: rgb(128,128,128); fill-opacity: 1.0; stroke: none" transform="matrix(1,0,0,1,0,0)" clip-path="url(#_3120606369553413clip-1)"><path d="M 942.69 972.61 C 922.68 971.59 902.76 969.13 883.1 965.25 L 964 555 Z "/></g><g style="fill: rgb(128,128,128); fill-opacity: 1.0; stroke: none" transform="matrix(1,0,0,1,0,0)" clip-path="url(#_3120606369553413clip-1)"><path d="M 883.1 965.25 C 875.83 963.82 868.6 962.19 861.41 960.37 L 964 555 Z "/></g><g style="fill: rgb(128,128,128); fill-opacity: 1.0; stroke: none" transform="matrix(1,0,0,1,0,0)" clip-path="url(#_3120606369553413clip-1)"><path d="M 861.41 960.37 C 744.72 930.84 646.42 852.46 591.65 745.27 C 536.87 638.09 530.95 512.5 575.39 400.63 L 964 555 Z "/></g><g style="fill: rgb(128,128,128); fill-opacity: 1.0; stroke: none" transform="matrix(1,0,0,1,0,0)" clip-path="url(#_3120606369553413clip-1)"><path d="M 575.39 400.63 C 638.64 241.39 792.65 136.85 964 136.85 L 964 555 Z "/></g><g style="fill: rgb(255,85,85); fill-opacity: 1.0; stroke: none" transform="matrix(1,0,0,1,0,0)" clip-path="url(#_3120606369553413clip-1)"><path d="M 960 132.85 C 1075.74 132.85 1186.3 180.82 1265.37 265.34 L 960 551 Z "/></g><g style="stroke-width: 0.5;stroke: rgb(128,128,128);stroke-opacity: 1.0;stroke-linecap: round;stroke-linejoin: round;shape-rendering:geometricPrecision;; fill: none" transform="matrix(1,0,0,1,0,0)" clip-path="url(#_3120606369553413clip-1)"><path d="M 960 132.85 C 1075.74 132.85 1186.3 180.82 1265.37 265.34 L 960 551 Z "/></g><g style="fill: rgb(85,85,255); fill-opacity: 1.0; stroke: none" transform="matrix(1,0,0,1,0,0)" clip-path="url(#_3120606369553413clip-1)"><path d="M 1265.37 265.34 C 1316.9 320.43 1352.57 388.44 1368.6 462.15 L 960 551 Z "/></g><g style="stroke-width: 0.5;stroke: rgb(128,128,128);stroke-opacity: 1.0;stroke-linecap: round;stroke-linejoin: round;shape-rendering:geometricPrecision;; fill: none" transform="matrix(1,0,0,1,0,0)" clip-path="url(#_3120606369553413clip-1)"><path d="M 1265.37 265.34 C 1316.9 320.43 1352.57 388.44 1368.6 462.15 L 960 551 Z "/></g><g style="fill: rgb(85,255,85); fill-opacity: 1.0; stroke: none" transform="matrix(1,0,0,1,0,0)" clip-path="url(#_3120606369553413clip-1)"><path d="M 1368.6 462.15 C 1370.23 469.64 1371.66 477.18 1372.87 484.75 L 960 551 Z "/></g><g style="stroke-width: 0.5;stroke: rgb(128,128,128);stroke-opacity: 1.0;stroke-linecap: round;stroke-linejoin: round;shape-rendering:geometricPrecision;; fill: none" transform="matrix(1,0,0,1,0,0)" clip-path="url(#_3120606369553413clip-1)"><path d="M 1368.6 462.15 C 1370.23 469.64 1371.66 477.18 1372.87 484.75 L 960 551 Z "/></g><g style="fill: rgb(255,255,85); fill-opacity: 1.0; stroke: none" transform="matrix(1,0,0,1,0,0)" clip-path="url(#_3120606369553413clip-1)"><path d="M 1372.87 484.75 C 1374.53 495.11 1375.8 505.52 1376.68 515.98 L 960 551 Z "/></g><g style="stroke-width: 0.5;stroke: rgb(128,128,128);stroke-opacity: 1.0;stroke-linecap: round;stroke-linejoin: round;shape-rendering:geometricPrecision;; fill: none" transform="matrix(1,0,0,1,0,0)" clip-path="url(#_3120606369553413clip-1)"><path d="M 1372.87 484.75 C 1374.53 495.11 1375.8 505.52 1376.68 515.98 L 960 551 Z "/></g><g style="fill: rgb(255,85,255); fill-opacity: 1.0; stroke: none" transform="matrix(1,0,0,1,0,0)" clip-path="url(#_3120606369553413clip-1)"><path d="M 1376.68 515.98 C 1377.64 527.37 1378.13 538.79 1378.15 550.22 L 960 551 Z "/></g><g style="stroke-width: 0.5;stroke: rgb(128,128,128);stroke-opacity: 1.0;stroke-linecap: round;stroke-linejoin: round;shape-rendering:geometricPrecision;; fill: none" transform="matrix(1,0,0,1,0,0)" clip-path="url(#_3120606369553413clip-1)"><path d="M 1376.68 515.98 C 1377.64 527.37 1378.13 538.79 1378.15 550.22 L 960 551 Z "/></g><g style="fill: rgb(85,255,255); fill-opacity: 1.0; stroke: none" transform="matrix(1,0,0,1,0,0)" clip-path="url(#_3120606369553413clip-1)"><path d="M 1378.15 550.22 C 1378.22 588.81 1372.95 627.22 1362.49 664.36 L 960 551 Z "/></g><g style="stroke-width: 0.5;stroke: rgb(128,128,128);stroke-opacity: 1.0;stroke-linecap: round;stroke-linejoin: round;shape-rendering:geometricPrecision;; fill: none" transform="matrix(1,0,0,1,0,0)" clip-path="url(#_3120606369553413clip-1)"><path d="M 1378.15 550.22 C 1378.22 588.81 1372.95 627.22 1362.49 664.36 L 960 551 Z "/></g><g style="fill: rgb(255,175,175); fill-opacity: 1.0; stroke: none" transform="matrix(1,0,0,1,0,0)" clip-path="url(#_3120606369553413clip-1)"><path d="M 1362.49 664.36 C 1347.07 719.12 1320.64 770.15 1284.81 814.34 L 960 551 Z "/></g><g style="stroke-width: 0.5;stroke: rgb(128,128,128);stroke-opacity: 1.0;stroke-linecap: round;stroke-linejoin: round;shape-rendering:geometricPrecision;; fill: none" transform="matrix(1,0,0,1,0,0)" clip-path="url(#_3120606369553413clip-1)"><path d="M 1362.49 664.36 C 1347.07 719.12 1320.64 770.15 1284.81 814.34 L 960 551 Z "/></g><g style="fill: rgb(128,128,128); fill-opacity: 1.0; stroke: none" transform="matrix(1,0,0,1,0,0)" clip-path="url(#_3120606369553413clip-1)"><path d="M 1284.81 814.34 C 1200.7 918.09 1072.08 975.42 938.69 968.61 L 960 551 Z "/></g><g style="stroke-width: 0.5;stroke: rgb(128,128,128);stroke-opacity: 1.0;stroke-linecap: round;stroke-linejoin: round;shape-rendering:geometricPrecision;; fill: none" transform="matrix(1,0,0,1,0,0)" clip-path="url(#_3120606369553413clip-1)"><path d="M 1284.81 814.34 C 1200.7 918.09 1072.08 975.42 938.69 968.61 L 960 551 Z "/></g><g style="fill: rgb(192,0,0); fill-opacity: 1.0; stroke: none" transform="matrix(1,0,0,1,0,0)" clip-path="url(#_3120606369553413clip-1)"><path d="M 938.69 968.61 C 918.68 967.59 898.76 965.13 879.1 961.25 L 960 551 Z "/></g><g style="stroke-width: 0.5;stroke: rgb(128,128,128);stroke-opacity: 1.0;stroke-linecap: round;stroke-linejoin: round;shape-rendering:geometricPrecision;; fill: none" transform="matrix(1,0,0,1,0,0)" clip-path="url(#_3120606369553413clip-1)"><path d="M 938.69 968.61 C 918.68 967.59 898.76 965.13 879.1 961.25 L 960 551 Z "/></g><g style="fill: rgb(0,0,192); fill-opacity: 1.0; stroke: none" transform="matrix(1,0,0,1,0,0)" clip-path="url(#_3120606369553413clip-1)"><path d="M 879.1 961.25 C 871.83 959.82 864.6 958.19 857.41 956.37 L 960 551 Z "/></g><g style="stroke-width: 0.5;stroke: rgb(128,128,128);stroke-opacity: 1.0;stroke-linecap: round;stroke-linejoin: round;shape-rendering:geometricPrecision;; fill: none" transform="matrix(1,0,0,1,0,0)" clip-path="url(#_3120606369553413clip-1)"><path d="M 879.1 961.25 C 871.83 959.82 864.6 958.19 857.41 956.37 L 960 551 Z "/></g><g style="fill: rgb(0,192,0); fill-opacity: 1.0; stroke: none" transform="matrix(1,0,0,1,0,0)" clip-path="url(#_3120606369553413clip-1)"><path d="M 857.41 956.37 C 740.72 926.84 642.42 848.46 587.65 741.27 C 532.87 634.09 526.95 508.5 571.39 396.63 L 960 551 Z "/></g><g style="stroke-width: 0.5;stroke: rgb(128,128,128);stroke-opacity: 1.0;stroke-linecap: round;stroke-linejoin: round;shape-rendering:geometricPrecision;; fill: none" transform="matrix(1,0,0,1,0,0)" clip-path="url(#_3120606369553413clip-1)"><path d="M 857.41 956.37 C 740.72 926.84 642.42 848.46 587.65 741.27 C 532.87 634.09 526.95 508.5 571.39 396.63 L 960 551 Z "/></g><g style="fill: rgb(192,192,0); fill-opacity: 1.0; stroke: none" transform="matrix(1,0,0,1,0,0)" clip-path="url(#_3120606369553413clip-1)"><path d="M 571.39 396.63 C 634.64 237.39 788.65 132.85 960 132.85 L 960 551 Z "/></g><g style="stroke-width: 0.5;stroke: rgb(128,128,128);stroke-opacity: 1.0;stroke-linecap: round;stroke-linejoin: round;shape-rendering:geometricPrecision;; fill: none" transform="matrix(1,0,0,1,0,0)" clip-path="url(#_3120606369553413clip-1)"><path d="M 571.39 396.63 C 634.64 237.39 788.65 132.85 960 132.85 L 960 551 Z "/></g><g style="stroke-width: 0.5;stroke: rgb(0,0,0);stroke-opacity: 1.0;stroke-linecap: square;shape-rendering:geometricPrecision;; fill: none" transform="matrix(1,0,0,1,0,0)" clip-path="url(#_3120606369553413clip-1)"><path d="M 482.56 186.81 C 519.84 186.81 712.8 186.81 748.64 239.62"/></g><rect x="291.56" y="165.81" width="193" height="46" style="fill: rgb(151,151,151); fill-opacity: 0.5019608" transform="matrix(1,0,0,1,0,0)" clip-path="url(#_3120606369553413clip-1)"/><rect x="289.56" y="163.81" width="193" height="46" style="fill: rgb(255,255,192); fill-opacity: 1.0" transform="matrix(1,0,0,1,0,0)" clip-path="url(#_3120606369553413clip-1)"/><rect x="289.56" y="163.81" width="193" height="46" style="stroke-width: 0.5;stroke: rgb(0,0,0);stroke-opacity: 1.0;stroke-linecap: square;shape-rendering:geometricPrecision;; fill: none" transform="matrix(1,0,0,1,0,0)" clip-path="url(#_3120606369553413clip-1)"/><g transform="matrix(1,0,0,1,0,0)"><text x="291.56" y="197.99" style="fill: rgb(0,0,0); fill-opacity: 1.0; font-family: sans-serif; font-size: 32px;" clip-path="url(#_3120606369553413clip-1)">Fuel: 18,98%</text></g><g style="stroke-width: 0.5;stroke: rgb(0,0,0);stroke-opacity: 1.0;stroke-linecap: square;shape-rendering:geometricPrecision;; fill: none" transform="matrix(1,0,0,1,0,0)" clip-path="url(#_3120606369553413clip-1)"><path d="M 474.7 751.29 C 519.84 751.29 568.05 751.29 624.88 722.25"/></g><rect x="177.7" y="730.29" width="299" height="46" style="fill: rgb(151,151,151); fill-opacity: 0.5019608" transform="matrix(1,0,0,1,0,0)" clip-path="url(#_3120606369553413clip-1)"/><rect x="175.7" y="728.29" width="299" height="46" style="fill: rgb(255,255,192); fill-opacity: 1.0" transform="matrix(1,0,0,1,0,0)" clip-path="url(#_3120606369553413clip-1)"/><rect x="175.7" y="728.29" width="299" height="46" style="stroke-width: 0.5;stroke: rgb(0,0,0);stroke-opacity: 1.0;stroke-linecap: square;shape-rendering:geometricPrecision;; fill: none" transform="matrix(1,0,0,1,0,0)" clip-path="url(#_3120606369553413clip-1)"/><g transform="matrix(1,0,0,1,0,0)"><text x="177.7" y="762.46" style="fill: rgb(0,0,0); fill-opacity: 1.0; font-family: sans-serif; font-size: 32px;" clip-path="url(#_3120606369553413clip-1)">Passengers: 27,07%</text></g><g style="stroke-width: 0.5;stroke: rgb(0,0,0);stroke-opacity: 1.0;stroke-linecap: square;shape-rendering:geometricPrecision;; fill: none" transform="matrix(1,0,0,1,0,0)" clip-path="url(#_3120606369553413clip-1)"><path d="M 490.72 918.16 C 519.84 980.43 863.4 980.43 877.4 918.16"/></g><rect x="305.72" y="897.16" width="187" height="46" style="fill: rgb(151,151,151); fill-opacity: 0.5019608" transform="matrix(1,0,0,1,0,0)" clip-path="url(#_3120606369553413clip-1)"/><rect x="303.72" y="895.16" width="187" height="46" style="fill: rgb(255,255,192); fill-opacity: 1.0" transform="matrix(1,0,0,1,0,0)" clip-path="url(#_3120606369553413clip-1)"/><rect x="303.72" y="895.16" width="187" height="46" style="stroke-width: 0.5;stroke: rgb(0,0,0);stroke-opacity: 1.0;stroke-linecap: square;shape-rendering:geometricPrecision;; fill: none" transform="matrix(1,0,0,1,0,0)" clip-path="url(#_3120606369553413clip-1)"/><g transform="matrix(1,0,0,1,0,0)"><text x="305.72" y="929.33" style="fill: rgb(0,0,0); fill-opacity: 1.0; font-family: sans-serif; font-size: 32px;" clip-path="url(#_3120606369553413clip-1)">Crew: 0,85%</text></g><g style="stroke-width: 0.5;stroke: rgb(0,0,0);stroke-opacity: 1.0;stroke-linecap: square;shape-rendering:geometricPrecision;; fill: none" transform="matrix(1,0,0,1,0,0)" clip-path="url(#_3120606369553413clip-1)"><path d="M 493.04 968.16 C 519.84 987.84 906.07 987.84 913.89 924.5"/></g><rect x="155.04" y="947.16" width="340" height="46" style="fill: rgb(151,151,151); fill-opacity: 0.5019608" transform="matrix(1,0,0,1,0,0)" clip-path="url(#_3120606369553413clip-1)"/><rect x="153.04" y="945.16" width="340" height="46" style="fill: rgb(255,255,192); fill-opacity: 1.0" transform="matrix(1,0,0,1,0,0)" clip-path="url(#_3120606369553413clip-1)"/><rect x="153.04" y="945.16" width="340" height="46" style="stroke-width: 0.5;stroke: rgb(0,0,0);stroke-opacity: 1.0;stroke-linecap: square;shape-rendering:geometricPrecision;; fill: none" transform="matrix(1,0,0,1,0,0)" clip-path="url(#_3120606369553413clip-1)"/><g transform="matrix(1,0,0,1,0,0)"><text x="155.04" y="979.33" style="fill: rgb(0,0,0); fill-opacity: 1.0; font-family: sans-serif; font-size: 32px;" clip-path="url(#_3120606369553413clip-1)">Operating Items: 2,29%</text></g><g style="stroke-width: 0.5;stroke: rgb(0,0,0);stroke-opacity: 1.0;stroke-linecap: square;shape-rendering:geometricPrecision;; fill: none" transform="matrix(1,0,0,1,0,0)" clip-path="url(#_3120606369553413clip-1)"><path d="M 1433.54 147.21 C 1400.16 147.21 1135.2 147.21 1109.79 205.76"/></g><rect x="1435.54" y="126.21" width="262" height="46" style="fill: rgb(151,151,151); fill-opacity: 0.5019608" transform="matrix(1,0,0,1,0,0)" clip-path="url(#_3120606369553413clip-1)"/><rect x="1433.54" y="124.21" width="262" height="46" style="fill: rgb(255,255,192); fill-opacity: 1.0" transform="matrix(1,0,0,1,0,0)" clip-path="url(#_3120606369553413clip-1)"/><rect x="1433.54" y="124.21" width="262" height="46" style="stroke-width: 0.5;stroke: rgb(0,0,0);stroke-opacity: 1.0;stroke-linecap: square;shape-rendering:geometricPrecision;; fill: none" transform="matrix(1,0,0,1,0,0)" clip-path="url(#_3120606369553413clip-1)"/><g transform="matrix(1,0,0,1,0,0)"><text x="1435.54" y="158.38" style="fill: rgb(0,0,0); fill-opacity: 1.0; font-family: sans-serif; font-size: 32px;" clip-path="url(#_3120606369553413clip-1)">Fuselage: 13,03%</text></g><g style="stroke-width: 0.5;stroke: rgb(0,0,0);stroke-opacity: 1.0;stroke-linecap: square;shape-rendering:geometricPrecision;; fill: none" transform="matrix(1,0,0,1,0,0)" clip-path="url(#_3120606369553413clip-1)"><path d="M 1445.18 346.54 C 1400.16 346.54 1349.79 346.54 1293.27 376.19"/></g><rect x="1447.18" y="325.54" width="185" height="46" style="fill: rgb(151,151,151); fill-opacity: 0.5019608" transform="matrix(1,0,0,1,0,0)" clip-path="url(#_3120606369553413clip-1)"/><rect x="1445.18" y="323.54" width="185" height="46" style="fill: rgb(255,255,192); fill-opacity: 1.0" transform="matrix(1,0,0,1,0,0)" clip-path="url(#_3120606369553413clip-1)"/><rect x="1445.18" y="323.54" width="185" height="46" style="stroke-width: 0.5;stroke: rgb(0,0,0);stroke-opacity: 1.0;stroke-linecap: square;shape-rendering:geometricPrecision;; fill: none" transform="matrix(1,0,0,1,0,0)" clip-path="url(#_3120606369553413clip-1)"/><g transform="matrix(1,0,0,1,0,0)"><text x="1447.18" y="357.71" style="fill: rgb(0,0,0); fill-opacity: 1.0; font-family: sans-serif; font-size: 32px;" clip-path="url(#_3120606369553413clip-1)">Wing: 8,56%</text></g><g style="stroke-width: 0.5;stroke: rgb(0,0,0);stroke-opacity: 1.0;stroke-linecap: square;shape-rendering:geometricPrecision;; fill: none" transform="matrix(1,0,0,1,0,0)" clip-path="url(#_3120606369553413clip-1)"><path d="M 1447.5 469.34 C 1400.16 469.34 1392.52 469.34 1329.8 481.18"/></g><rect x="1449.5" y="448.34" width="317" height="46" style="fill: rgb(151,151,151); fill-opacity: 0.5019608" transform="matrix(1,0,0,1,0,0)" clip-path="url(#_3120606369553413clip-1)"/><rect x="1447.5" y="446.34" width="317" height="46" style="fill: rgb(255,255,192); fill-opacity: 1.0" transform="matrix(1,0,0,1,0,0)" clip-path="url(#_3120606369553413clip-1)"/><rect x="1447.5" y="446.34" width="317" height="46" style="stroke-width: 0.5;stroke: rgb(0,0,0);stroke-opacity: 1.0;stroke-linecap: square;shape-rendering:geometricPrecision;; fill: none" transform="matrix(1,0,0,1,0,0)" clip-path="url(#_3120606369553413clip-1)"/><g transform="matrix(1,0,0,1,0,0)"><text x="1449.5" y="480.51" style="fill: rgb(0,0,0); fill-opacity: 1.0; font-family: sans-serif; font-size: 32px;" clip-path="url(#_3120606369553413clip-1)">Horizontal Tail: 0,88%</text></g><g style="stroke-width: 0.5;stroke: rgb(0,0,0);stroke-opacity: 1.0;stroke-linecap: square;shape-rendering:geometricPrecision;; fill: none" transform="matrix(1,0,0,1,0,0)" clip-path="url(#_3120606369553413clip-1)"><path d="M 1447.73 519.34 C 1400.16 497.66 1396.92 497.66 1333.56 505.39"/></g><rect x="1449.73" y="498.34" width="280" height="46" style="fill: rgb(151,151,151); fill-opacity: 0.5019608" transform="matrix(1,0,0,1,0,0)" clip-path="url(#_3120606369553413clip-1)"/><rect x="1447.73" y="496.34" width="280" height="46" style="fill: rgb(255,255,192); fill-opacity: 1.0" transform="matrix(1,0,0,1,0,0)" clip-path="url(#_3120606369553413clip-1)"/><rect x="1447.73" y="496.34" width="280" height="46" style="stroke-width: 0.5;stroke: rgb(0,0,0);stroke-opacity: 1.0;stroke-linecap: square;shape-rendering:geometricPrecision;; fill: none" transform="matrix(1,0,0,1,0,0)" clip-path="url(#_3120606369553413clip-1)"/><g transform="matrix(1,0,0,1,0,0)"><text x="1449.73" y="530.51" style="fill: rgb(0,0,0); fill-opacity: 1.0; font-family: sans-serif; font-size: 32px;" clip-path="url(#_3120606369553413clip-1)">Vertical Tail: 1,20%</text></g><g style="stroke-width: 0.5;stroke: rgb(0,0,0);stroke-opacity: 1.0;stroke-linecap: square;shape-rendering:geometricPrecision;; fill: none" transform="matrix(1,0,0,1,0,0)" clip-path="url(#_3120606369553413clip-1)"><path d="M 1447.89 569.34 C 1400.16 532.14 1399.76 532.14 1335.99 534.87"/></g><rect x="1449.89" y="548.34" width="235" height="46" style="fill: rgb(151,151,151); fill-opacity: 0.5019608" transform="matrix(1,0,0,1,0,0)" clip-path="url(#_3120606369553413clip-1)"/><rect x="1447.89" y="546.34" width="235" height="46" style="fill: rgb(255,255,192); fill-opacity: 1.0" transform="matrix(1,0,0,1,0,0)" clip-path="url(#_3120606369553413clip-1)"/><rect x="1447.89" y="546.34" width="235" height="46" style="stroke-width: 0.5;stroke: rgb(0,0,0);stroke-opacity: 1.0;stroke-linecap: square;shape-rendering:geometricPrecision;; fill: none" transform="matrix(1,0,0,1,0,0)" clip-path="url(#_3120606369553413clip-1)"/><g transform="matrix(1,0,0,1,0,0)"><text x="1449.89" y="580.51" style="fill: rgb(0,0,0); fill-opacity: 1.0; font-family: sans-serif; font-size: 32px;" clip-path="url(#_3120606369553413clip-1)">Nacelles: 1,30%</text></g><g style="stroke-width: 0.5;stroke: rgb(0,0,0);stroke-opacity: 1.0;stroke-linecap: square;shape-rendering:geometricPrecision;; fill: none" transform="matrix(1,0,0,1,0,0)" clip-path="url(#_3120606369553413clip-1)"><path d="M 1447.69 619.34 C 1400.16 610.82 1396.08 610.82 1332.84 602.15"/></g><rect x="1449.69" y="598.34" width="322" height="46" style="fill: rgb(151,151,151); fill-opacity: 0.5019608" transform="matrix(1,0,0,1,0,0)" clip-path="url(#_3120606369553413clip-1)"/><rect x="1447.69" y="596.34" width="322" height="46" style="fill: rgb(255,255,192); fill-opacity: 1.0" transform="matrix(1,0,0,1,0,0)" clip-path="url(#_3120606369553413clip-1)"/><rect x="1447.69" y="596.34" width="322" height="46" style="stroke-width: 0.5;stroke: rgb(0,0,0);stroke-opacity: 1.0;stroke-linecap: square;shape-rendering:geometricPrecision;; fill: none" transform="matrix(1,0,0,1,0,0)" clip-path="url(#_3120606369553413clip-1)"/><g transform="matrix(1,0,0,1,0,0)"><text x="1449.69" y="630.51" style="fill: rgb(0,0,0); fill-opacity: 1.0; font-family: sans-serif; font-size: 32px;" clip-path="url(#_3120606369553413clip-1)">Landing Gears: 4,40%</text></g><g style="stroke-width: 0.5;stroke: rgb(0,0,0);stroke-opacity: 1.0;stroke-linecap: square;shape-rendering:geometricPrecision;; fill: none" transform="matrix(1,0,0,1,0,0)" clip-path="url(#_3120606369553413clip-1)"><path d="M 1445.24 753.43 C 1400.16 753.43 1350.85 753.43 1294.17 724.08"/></g><rect x="1447.24" y="732.43" width="285" height="46" style="fill: rgb(151,151,151); fill-opacity: 0.5019608" transform="matrix(1,0,0,1,0,0)" clip-path="url(#_3120606369553413clip-1)"/><rect x="1445.24" y="730.43" width="285" height="46" style="fill: rgb(255,255,192); fill-opacity: 1.0" transform="matrix(1,0,0,1,0,0)" clip-path="url(#_3120606369553413clip-1)"/><rect x="1445.24" y="730.43" width="285" height="46" style="stroke-width: 0.5;stroke: rgb(0,0,0);stroke-opacity: 1.0;stroke-linecap: square;shape-rendering:geometricPrecision;; fill: none" transform="matrix(1,0,0,1,0,0)" clip-path="url(#_3120606369553413clip-1)"/><g transform="matrix(1,0,0,1,0,0)"><text x="1447.24" y="764.61" style="fill: rgb(0,0,0); fill-opacity: 1.0; font-family: sans-serif; font-size: 32px;" clip-path="url(#_3120606369553413clip-1)">Power Plant: 6,47%</text></g><g style="stroke-width: 0.5;stroke: rgb(0,0,0);stroke-opacity: 1.0;stroke-linecap: square;shape-rendering:geometricPrecision;; fill: none" transform="matrix(1,0,0,1,0,0)" clip-path="url(#_3120606369553413clip-1)"><path d="M 1433.75 953.04 C 1400.16 953.04 1139.19 953.04 1113.21 894.74"/></g><rect x="1435.75" y="932.04" width="253" height="46" style="fill: rgb(151,151,151); fill-opacity: 0.5019608" transform="matrix(1,0,0,1,0,0)" clip-path="url(#_3120606369553413clip-1)"/><rect x="1433.75" y="930.04" width="253" height="46" style="fill: rgb(255,255,192); fill-opacity: 1.0" transform="matrix(1,0,0,1,0,0)" clip-path="url(#_3120606369553413clip-1)"/><rect x="1433.75" y="930.04" width="253" height="46" style="stroke-width: 0.5;stroke: rgb(0,0,0);stroke-opacity: 1.0;stroke-linecap: square;shape-rendering:geometricPrecision;; fill: none" transform="matrix(1,0,0,1,0,0)" clip-path="url(#_3120606369553413clip-1)"/><g transform="matrix(1,0,0,1,0,0)"><text x="1435.75" y="964.21" style="fill: rgb(0,0,0); fill-opacity: 1.0; font-family: sans-serif; font-size: 32px;" clip-path="url(#_3120606369553413clip-1)">Systems: 14,97%</text></g><rect x="5" y="27" width="1910" height="1048" style="stroke-width: 0.5;stroke: rgb(0,0,0);stroke-opacity: 1.0;stroke-linecap: round;stroke-linejoin: round;shape-rendering:crispEdges;; fill: none" transform="matrix(1,0,0,1,0,0)" clip-path="url(#_3120606369553413clip-0)"/></svg>
