<!DOCTYPE svg PUBLIC "-//W3C//DTD SVG 1.1//EN" "http://www.w3.org/Graphics/SVG/1.1/DTD/svg11.dtd">
<svg xmlns="http://www.w3.org/2000/svg" xmlns:xlink="http://www.w3.org/1999/xlink" xmlns:jfreesvg="http://www.jfree.org/jfreesvg/svg" width="1152" height="768" text-rendering="auto" shape-rendering="auto">
<defs><clipPath id="_2040033064303217clip-0"><path d="M 0 0 L 1152 0 L 1152 768 L 0 768 L 0 0 Z "/></clipPath>
<clipPath id="_2040033064303217clip-1"><path d="M 384.5 345.5 L 384.5 1497.5 L -383.5 1497.5 L -383.5 345.5 L 384.5 345.5 Z "/></clipPath>
<clipPath id="_2040033064303217clip-2"><path d="M 71 35 L 71 695 L 1140 695 L 1140 35 Z "/></clipPath>
</defs>
<rect x="0" y="0" width="1152" height="768" style="fill: rgb(255,255,255); fill-opacity: 1.0" transform="matrix(1,0,0,1,0,0)" clip-path="url(#_2040033064303217clip-0)"/><g transform="matrix(1,0,0,1,0,0)"><text x="405" y="21.01" style="fill: rgb(0,0,0); fill-opacity: 1.0; font-family: Tahoma; font-size: 20px; font-weight: bold;" clip-path="url(#_2040033064303217clip-0)">Polar_Curve_Clean_Configuration</text></g><rect x="472" y="746" width="208" height="21" style="fill: rgb(255,255,255); fill-opacity: 1.0" transform="matrix(1,0,0,1,0,0)" clip-path="url(#_2040033064303217clip-0)"/><g style="stroke-width: 3.0;stroke: rgb(0,0,0);stroke-opacity: 1.0;stroke-linecap: square;shape-rendering:geometricPrecision;; fill: none" transform="matrix(1,0,0,1,0,0)" clip-path="url(#_2040033064303217clip-0)"><path d="M 475 756.5 L 489 756.5"/></g><g transform="matrix(1,0,0,1,0,0)"><text x="493" y="761.01" style="fill: rgb(64,64,64); fill-opacity: 1.0; font-family: Tahoma; font-size: 12px;" clip-path="url(#_2040033064303217clip-0)"> Polar_Curve_Clean_Configuration </text></g><rect x="71" y="35" width="1069" height="660" style="fill: rgb(255,255,255); fill-opacity: 0.0" transform="matrix(1,0,0,1,0,0)" clip-path="url(#_2040033064303217clip-0)"/><line x1="71" y1="699" x2="1140" y2="699" style="stroke-width: 0.5;stroke: rgb(128,128,128);stroke-opacity: 1.0;stroke-linecap: square;shape-rendering:crispEdges;" transform="matrix(1,0,0,1,0,0)" clip-path="url(#_2040033064303217clip-0)"/><g transform="matrix(1,0,0,1,0,0)"><text x="80.09" y="715.52" style="fill: rgb(64,64,64); fill-opacity: 1.0; font-family: Tahoma; font-size: 12px;" clip-path="url(#_2040033064303217clip-0)">0,0076</text></g><line x1="98.09" y1="701" x2="98.09" y2="699" style="stroke-width: 0.5;stroke: rgb(128,128,128);stroke-opacity: 1.0;stroke-linecap: square;shape-rendering:crispEdges;" transform="matrix(1,0,0,1,0,0)" clip-path="url(#_2040033064303217clip-0)"/><g transform="matrix(1,0,0,1,0,0)"><text x="134.35" y="715.52" style="fill: rgb(64,64,64); fill-opacity: 1.0; font-family: Tahoma; font-size: 12px;" clip-path="url(#_2040033064303217clip-0)">0,0078</text></g><line x1="152.35" y1="701" x2="152.35" y2="699" style="stroke-width: 0.5;stroke: rgb(128,128,128);stroke-opacity: 1.0;stroke-linecap: square;shape-rendering:crispEdges;" transform="matrix(1,0,0,1,0,0)" clip-path="url(#_2040033064303217clip-0)"/><g transform="matrix(1,0,0,1,0,0)"><text x="188.62" y="715.52" style="fill: rgb(64,64,64); fill-opacity: 1.0; font-family: Tahoma; font-size: 12px;" clip-path="url(#_2040033064303217clip-0)">0,0080</text></g><line x1="206.62" y1="701" x2="206.62" y2="699" style="stroke-width: 0.5;stroke: rgb(128,128,128);stroke-opacity: 1.0;stroke-linecap: square;shape-rendering:crispEdges;" transform="matrix(1,0,0,1,0,0)" clip-path="url(#_2040033064303217clip-0)"/><g transform="matrix(1,0,0,1,0,0)"><text x="242.88" y="715.52" style="fill: rgb(64,64,64); fill-opacity: 1.0; font-family: Tahoma; font-size: 12px;" clip-path="url(#_2040033064303217clip-0)">0,0082</text></g><line x1="260.88" y1="701" x2="260.88" y2="699" style="stroke-width: 0.5;stroke: rgb(128,128,128);stroke-opacity: 1.0;stroke-linecap: square;shape-rendering:crispEdges;" transform="matrix(1,0,0,1,0,0)" clip-path="url(#_2040033064303217clip-0)"/><g transform="matrix(1,0,0,1,0,0)"><text x="297.15" y="715.52" style="fill: rgb(64,64,64); fill-opacity: 1.0; font-family: Tahoma; font-size: 12px;" clip-path="url(#_2040033064303217clip-0)">0,0084</text></g><line x1="315.15" y1="701" x2="315.15" y2="699" style="stroke-width: 0.5;stroke: rgb(128,128,128);stroke-opacity: 1.0;stroke-linecap: square;shape-rendering:crispEdges;" transform="matrix(1,0,0,1,0,0)" clip-path="url(#_2040033064303217clip-0)"/><g transform="matrix(1,0,0,1,0,0)"><text x="351.41" y="715.52" style="fill: rgb(64,64,64); fill-opacity: 1.0; font-family: Tahoma; font-size: 12px;" clip-path="url(#_2040033064303217clip-0)">0,0086</text></g><line x1="369.41" y1="701" x2="369.41" y2="699" style="stroke-width: 0.5;stroke: rgb(128,128,128);stroke-opacity: 1.0;stroke-linecap: square;shape-rendering:crispEdges;" transform="matrix(1,0,0,1,0,0)" clip-path="url(#_2040033064303217clip-0)"/><g transform="matrix(1,0,0,1,0,0)"><text x="405.67" y="715.52" style="fill: rgb(64,64,64); fill-opacity: 1.0; font-family: Tahoma; font-size: 12px;" clip-path="url(#_2040033064303217clip-0)">0,0088</text></g><line x1="423.67" y1="701" x2="423.67" y2="699" style="stroke-width: 0.5;stroke: rgb(128,128,128);stroke-opacity: 1.0;stroke-linecap: square;shape-rendering:crispEdges;" transform="matrix(1,0,0,1,0,0)" clip-path="url(#_2040033064303217clip-0)"/><g transform="matrix(1,0,0,1,0,0)"><text x="459.94" y="715.52" style="fill: rgb(64,64,64); fill-opacity: 1.0; font-family: Tahoma; font-size: 12px;" clip-path="url(#_2040033064303217clip-0)">0,0090</text></g><line x1="477.94" y1="701" x2="477.94" y2="699" style="stroke-width: 0.5;stroke: rgb(128,128,128);stroke-opacity: 1.0;stroke-linecap: square;shape-rendering:crispEdges;" transform="matrix(1,0,0,1,0,0)" clip-path="url(#_2040033064303217clip-0)"/><g transform="matrix(1,0,0,1,0,0)"><text x="514.2" y="715.52" style="fill: rgb(64,64,64); fill-opacity: 1.0; font-family: Tahoma; font-size: 12px;" clip-path="url(#_2040033064303217clip-0)">0,0092</text></g><line x1="532.2" y1="701" x2="532.2" y2="699" style="stroke-width: 0.5;stroke: rgb(128,128,128);stroke-opacity: 1.0;stroke-linecap: square;shape-rendering:crispEdges;" transform="matrix(1,0,0,1,0,0)" clip-path="url(#_2040033064303217clip-0)"/><g transform="matrix(1,0,0,1,0,0)"><text x="568.47" y="715.52" style="fill: rgb(64,64,64); fill-opacity: 1.0; font-family: Tahoma; font-size: 12px;" clip-path="url(#_2040033064303217clip-0)">0,0094</text></g><line x1="586.47" y1="701" x2="586.47" y2="699" style="stroke-width: 0.5;stroke: rgb(128,128,128);stroke-opacity: 1.0;stroke-linecap: square;shape-rendering:crispEdges;" transform="matrix(1,0,0,1,0,0)" clip-path="url(#_2040033064303217clip-0)"/><g transform="matrix(1,0,0,1,0,0)"><text x="622.73" y="715.52" style="fill: rgb(64,64,64); fill-opacity: 1.0; font-family: Tahoma; font-size: 12px;" clip-path="url(#_2040033064303217clip-0)">0,0096</text></g><line x1="640.73" y1="701" x2="640.73" y2="699" style="stroke-width: 0.5;stroke: rgb(128,128,128);stroke-opacity: 1.0;stroke-linecap: square;shape-rendering:crispEdges;" transform="matrix(1,0,0,1,0,0)" clip-path="url(#_2040033064303217clip-0)"/><g transform="matrix(1,0,0,1,0,0)"><text x="677" y="715.52" style="fill: rgb(64,64,64); fill-opacity: 1.0; font-family: Tahoma; font-size: 12px;" clip-path="url(#_2040033064303217clip-0)">0,0098</text></g><line x1="695" y1="701" x2="695" y2="699" style="stroke-width: 0.5;stroke: rgb(128,128,128);stroke-opacity: 1.0;stroke-linecap: square;shape-rendering:crispEdges;" transform="matrix(1,0,0,1,0,0)" clip-path="url(#_2040033064303217clip-0)"/><g transform="matrix(1,0,0,1,0,0)"><text x="731.26" y="715.52" style="fill: rgb(64,64,64); fill-opacity: 1.0; font-family: Tahoma; font-size: 12px;" clip-path="url(#_2040033064303217clip-0)">0,0100</text></g><line x1="749.26" y1="701" x2="749.26" y2="699" style="stroke-width: 0.5;stroke: rgb(128,128,128);stroke-opacity: 1.0;stroke-linecap: square;shape-rendering:crispEdges;" transform="matrix(1,0,0,1,0,0)" clip-path="url(#_2040033064303217clip-0)"/><g transform="matrix(1,0,0,1,0,0)"><text x="785.52" y="715.52" style="fill: rgb(64,64,64); fill-opacity: 1.0; font-family: Tahoma; font-size: 12px;" clip-path="url(#_2040033064303217clip-0)">0,0102</text></g><line x1="803.52" y1="701" x2="803.52" y2="699" style="stroke-width: 0.5;stroke: rgb(128,128,128);stroke-opacity: 1.0;stroke-linecap: square;shape-rendering:crispEdges;" transform="matrix(1,0,0,1,0,0)" clip-path="url(#_2040033064303217clip-0)"/><g transform="matrix(1,0,0,1,0,0)"><text x="839.79" y="715.52" style="fill: rgb(64,64,64); fill-opacity: 1.0; font-family: Tahoma; font-size: 12px;" clip-path="url(#_2040033064303217clip-0)">0,0104</text></g><line x1="857.79" y1="701" x2="857.79" y2="699" style="stroke-width: 0.5;stroke: rgb(128,128,128);stroke-opacity: 1.0;stroke-linecap: square;shape-rendering:crispEdges;" transform="matrix(1,0,0,1,0,0)" clip-path="url(#_2040033064303217clip-0)"/><g transform="matrix(1,0,0,1,0,0)"><text x="894.05" y="715.52" style="fill: rgb(64,64,64); fill-opacity: 1.0; font-family: Tahoma; font-size: 12px;" clip-path="url(#_2040033064303217clip-0)">0,0106</text></g><line x1="912.05" y1="701" x2="912.05" y2="699" style="stroke-width: 0.5;stroke: rgb(128,128,128);stroke-opacity: 1.0;stroke-linecap: square;shape-rendering:crispEdges;" transform="matrix(1,0,0,1,0,0)" clip-path="url(#_2040033064303217clip-0)"/><g transform="matrix(1,0,0,1,0,0)"><text x="948.32" y="715.52" style="fill: rgb(64,64,64); fill-opacity: 1.0; font-family: Tahoma; font-size: 12px;" clip-path="url(#_2040033064303217clip-0)">0,0108</text></g><line x1="966.32" y1="701" x2="966.32" y2="699" style="stroke-width: 0.5;stroke: rgb(128,128,128);stroke-opacity: 1.0;stroke-linecap: square;shape-rendering:crispEdges;" transform="matrix(1,0,0,1,0,0)" clip-path="url(#_2040033064303217clip-0)"/><g transform="matrix(1,0,0,1,0,0)"><text x="1002.58" y="715.52" style="fill: rgb(64,64,64); fill-opacity: 1.0; font-family: Tahoma; font-size: 12px;" clip-path="url(#_2040033064303217clip-0)">0,0110</text></g><line x1="1020.58" y1="701" x2="1020.58" y2="699" style="stroke-width: 0.5;stroke: rgb(128,128,128);stroke-opacity: 1.0;stroke-linecap: square;shape-rendering:crispEdges;" transform="matrix(1,0,0,1,0,0)" clip-path="url(#_2040033064303217clip-0)"/><g transform="matrix(1,0,0,1,0,0)"><text x="1056.85" y="715.52" style="fill: rgb(64,64,64); fill-opacity: 1.0; font-family: Tahoma; font-size: 12px;" clip-path="url(#_2040033064303217clip-0)">0,0112</text></g><line x1="1074.85" y1="701" x2="1074.85" y2="699" style="stroke-width: 0.5;stroke: rgb(128,128,128);stroke-opacity: 1.0;stroke-linecap: square;shape-rendering:crispEdges;" transform="matrix(1,0,0,1,0,0)" clip-path="url(#_2040033064303217clip-0)"/><g transform="matrix(1,0,0,1,0,0)"><text x="1111.11" y="715.52" style="fill: rgb(64,64,64); fill-opacity: 1.0; font-family: Tahoma; font-size: 12px;" clip-path="url(#_2040033064303217clip-0)">0,0114</text></g><line x1="1129.11" y1="701" x2="1129.11" y2="699" style="stroke-width: 0.5;stroke: rgb(128,128,128);stroke-opacity: 1.0;stroke-linecap: square;shape-rendering:crispEdges;" transform="matrix(1,0,0,1,0,0)" clip-path="url(#_2040033064303217clip-0)"/><g transform="matrix(1,0,0,1,0,0)"><text x="593.5" y="734.59" style="fill: rgb(64,64,64); fill-opacity: 1.0; font-family: Tahoma; font-size: 14px; font-weight: bold;" clip-path="url(#_2040033064303217clip-0)">CD </text></g><line x1="67" y1="35" x2="67" y2="695" style="stroke-width: 0.5;stroke: rgb(128,128,128);stroke-opacity: 1.0;stroke-linecap: square;shape-rendering:crispEdges;" transform="matrix(1,0,0,1,0,0)" clip-path="url(#_2040033064303217clip-0)"/><g transform="matrix(1,0,0,1,0,0)"><text x="33" y="696.51" style="fill: rgb(64,64,64); fill-opacity: 1.0; font-family: Tahoma; font-size: 12px;" clip-path="url(#_2040033064303217clip-0)">-0,50</text></g><line x1="65" y1="691.49" x2="67" y2="691.49" style="stroke-width: 0.5;stroke: rgb(128,128,128);stroke-opacity: 1.0;stroke-linecap: square;shape-rendering:crispEdges;" transform="matrix(1,0,0,1,0,0)" clip-path="url(#_2040033064303217clip-0)"/><g transform="matrix(1,0,0,1,0,0)"><text x="33" y="676.15" style="fill: rgb(64,64,64); fill-opacity: 1.0; font-family: Tahoma; font-size: 12px;" clip-path="url(#_2040033064303217clip-0)">-0,45</text></g><line x1="65" y1="671.13" x2="67" y2="671.13" style="stroke-width: 0.5;stroke: rgb(128,128,128);stroke-opacity: 1.0;stroke-linecap: square;shape-rendering:crispEdges;" transform="matrix(1,0,0,1,0,0)" clip-path="url(#_2040033064303217clip-0)"/><g transform="matrix(1,0,0,1,0,0)"><text x="33" y="655.8" style="fill: rgb(64,64,64); fill-opacity: 1.0; font-family: Tahoma; font-size: 12px;" clip-path="url(#_2040033064303217clip-0)">-0,40</text></g><line x1="65" y1="650.78" x2="67" y2="650.78" style="stroke-width: 0.5;stroke: rgb(128,128,128);stroke-opacity: 1.0;stroke-linecap: square;shape-rendering:crispEdges;" transform="matrix(1,0,0,1,0,0)" clip-path="url(#_2040033064303217clip-0)"/><g transform="matrix(1,0,0,1,0,0)"><text x="33" y="635.44" style="fill: rgb(64,64,64); fill-opacity: 1.0; font-family: Tahoma; font-size: 12px;" clip-path="url(#_2040033064303217clip-0)">-0,35</text></g><line x1="65" y1="630.42" x2="67" y2="630.42" style="stroke-width: 0.5;stroke: rgb(128,128,128);stroke-opacity: 1.0;stroke-linecap: square;shape-rendering:crispEdges;" transform="matrix(1,0,0,1,0,0)" clip-path="url(#_2040033064303217clip-0)"/><g transform="matrix(1,0,0,1,0,0)"><text x="33" y="615.09" style="fill: rgb(64,64,64); fill-opacity: 1.0; font-family: Tahoma; font-size: 12px;" clip-path="url(#_2040033064303217clip-0)">-0,30</text></g><line x1="65" y1="610.07" x2="67" y2="610.07" style="stroke-width: 0.5;stroke: rgb(128,128,128);stroke-opacity: 1.0;stroke-linecap: square;shape-rendering:crispEdges;" transform="matrix(1,0,0,1,0,0)" clip-path="url(#_2040033064303217clip-0)"/><g transform="matrix(1,0,0,1,0,0)"><text x="33" y="594.73" style="fill: rgb(64,64,64); fill-opacity: 1.0; font-family: Tahoma; font-size: 12px;" clip-path="url(#_2040033064303217clip-0)">-0,25</text></g><line x1="65" y1="589.71" x2="67" y2="589.71" style="stroke-width: 0.5;stroke: rgb(128,128,128);stroke-opacity: 1.0;stroke-linecap: square;shape-rendering:crispEdges;" transform="matrix(1,0,0,1,0,0)" clip-path="url(#_2040033064303217clip-0)"/><g transform="matrix(1,0,0,1,0,0)"><text x="33" y="574.38" style="fill: rgb(64,64,64); fill-opacity: 1.0; font-family: Tahoma; font-size: 12px;" clip-path="url(#_2040033064303217clip-0)">-0,20</text></g><line x1="65" y1="569.36" x2="67" y2="569.36" style="stroke-width: 0.5;stroke: rgb(128,128,128);stroke-opacity: 1.0;stroke-linecap: square;shape-rendering:crispEdges;" transform="matrix(1,0,0,1,0,0)" clip-path="url(#_2040033064303217clip-0)"/><g transform="matrix(1,0,0,1,0,0)"><text x="33" y="554.03" style="fill: rgb(64,64,64); fill-opacity: 1.0; font-family: Tahoma; font-size: 12px;" clip-path="url(#_2040033064303217clip-0)">-0,15</text></g><line x1="65" y1="549" x2="67" y2="549" style="stroke-width: 0.5;stroke: rgb(128,128,128);stroke-opacity: 1.0;stroke-linecap: square;shape-rendering:crispEdges;" transform="matrix(1,0,0,1,0,0)" clip-path="url(#_2040033064303217clip-0)"/><g transform="matrix(1,0,0,1,0,0)"><text x="33" y="533.67" style="fill: rgb(64,64,64); fill-opacity: 1.0; font-family: Tahoma; font-size: 12px;" clip-path="url(#_2040033064303217clip-0)">-0,10</text></g><line x1="65" y1="528.65" x2="67" y2="528.65" style="stroke-width: 0.5;stroke: rgb(128,128,128);stroke-opacity: 1.0;stroke-linecap: square;shape-rendering:crispEdges;" transform="matrix(1,0,0,1,0,0)" clip-path="url(#_2040033064303217clip-0)"/><g transform="matrix(1,0,0,1,0,0)"><text x="33" y="513.32" style="fill: rgb(64,64,64); fill-opacity: 1.0; font-family: Tahoma; font-size: 12px;" clip-path="url(#_2040033064303217clip-0)">-0,05</text></g><line x1="65" y1="508.29" x2="67" y2="508.29" style="stroke-width: 0.5;stroke: rgb(128,128,128);stroke-opacity: 1.0;stroke-linecap: square;shape-rendering:crispEdges;" transform="matrix(1,0,0,1,0,0)" clip-path="url(#_2040033064303217clip-0)"/><g transform="matrix(1,0,0,1,0,0)"><text x="38" y="492.96" style="fill: rgb(64,64,64); fill-opacity: 1.0; font-family: Tahoma; font-size: 12px;" clip-path="url(#_2040033064303217clip-0)">0,00</text></g><line x1="65" y1="487.94" x2="67" y2="487.94" style="stroke-width: 0.5;stroke: rgb(128,128,128);stroke-opacity: 1.0;stroke-linecap: square;shape-rendering:crispEdges;" transform="matrix(1,0,0,1,0,0)" clip-path="url(#_2040033064303217clip-0)"/><g transform="matrix(1,0,0,1,0,0)"><text x="38" y="472.61" style="fill: rgb(64,64,64); fill-opacity: 1.0; font-family: Tahoma; font-size: 12px;" clip-path="url(#_2040033064303217clip-0)">0,05</text></g><line x1="65" y1="467.58" x2="67" y2="467.58" style="stroke-width: 0.5;stroke: rgb(128,128,128);stroke-opacity: 1.0;stroke-linecap: square;shape-rendering:crispEdges;" transform="matrix(1,0,0,1,0,0)" clip-path="url(#_2040033064303217clip-0)"/><g transform="matrix(1,0,0,1,0,0)"><text x="38" y="452.25" style="fill: rgb(64,64,64); fill-opacity: 1.0; font-family: Tahoma; font-size: 12px;" clip-path="url(#_2040033064303217clip-0)">0,10</text></g><line x1="65" y1="447.23" x2="67" y2="447.23" style="stroke-width: 0.5;stroke: rgb(128,128,128);stroke-opacity: 1.0;stroke-linecap: square;shape-rendering:crispEdges;" transform="matrix(1,0,0,1,0,0)" clip-path="url(#_2040033064303217clip-0)"/><g transform="matrix(1,0,0,1,0,0)"><text x="38" y="431.9" style="fill: rgb(64,64,64); fill-opacity: 1.0; font-family: Tahoma; font-size: 12px;" clip-path="url(#_2040033064303217clip-0)">0,15</text></g><line x1="65" y1="426.88" x2="67" y2="426.88" style="stroke-width: 0.5;stroke: rgb(128,128,128);stroke-opacity: 1.0;stroke-linecap: square;shape-rendering:crispEdges;" transform="matrix(1,0,0,1,0,0)" clip-path="url(#_2040033064303217clip-0)"/><g transform="matrix(1,0,0,1,0,0)"><text x="38" y="411.54" style="fill: rgb(64,64,64); fill-opacity: 1.0; font-family: Tahoma; font-size: 12px;" clip-path="url(#_2040033064303217clip-0)">0,20</text></g><line x1="65" y1="406.52" x2="67" y2="406.52" style="stroke-width: 0.5;stroke: rgb(128,128,128);stroke-opacity: 1.0;stroke-linecap: square;shape-rendering:crispEdges;" transform="matrix(1,0,0,1,0,0)" clip-path="url(#_2040033064303217clip-0)"/><g transform="matrix(1,0,0,1,0,0)"><text x="38" y="391.19" style="fill: rgb(64,64,64); fill-opacity: 1.0; font-family: Tahoma; font-size: 12px;" clip-path="url(#_2040033064303217clip-0)">0,25</text></g><line x1="65" y1="386.17" x2="67" y2="386.17" style="stroke-width: 0.5;stroke: rgb(128,128,128);stroke-opacity: 1.0;stroke-linecap: square;shape-rendering:crispEdges;" transform="matrix(1,0,0,1,0,0)" clip-path="url(#_2040033064303217clip-0)"/><g transform="matrix(1,0,0,1,0,0)"><text x="38" y="370.83" style="fill: rgb(64,64,64); fill-opacity: 1.0; font-family: Tahoma; font-size: 12px;" clip-path="url(#_2040033064303217clip-0)">0,30</text></g><line x1="65" y1="365.81" x2="67" y2="365.81" style="stroke-width: 0.5;stroke: rgb(128,128,128);stroke-opacity: 1.0;stroke-linecap: square;shape-rendering:crispEdges;" transform="matrix(1,0,0,1,0,0)" clip-path="url(#_2040033064303217clip-0)"/><g transform="matrix(1,0,0,1,0,0)"><text x="38" y="350.48" style="fill: rgb(64,64,64); fill-opacity: 1.0; font-family: Tahoma; font-size: 12px;" clip-path="url(#_2040033064303217clip-0)">0,35</text></g><line x1="65" y1="345.46" x2="67" y2="345.46" style="stroke-width: 0.5;stroke: rgb(128,128,128);stroke-opacity: 1.0;stroke-linecap: square;shape-rendering:crispEdges;" transform="matrix(1,0,0,1,0,0)" clip-path="url(#_2040033064303217clip-0)"/><g transform="matrix(1,0,0,1,0,0)"><text x="38" y="330.12" style="fill: rgb(64,64,64); fill-opacity: 1.0; font-family: Tahoma; font-size: 12px;" clip-path="url(#_2040033064303217clip-0)">0,40</text></g><line x1="65" y1="325.1" x2="67" y2="325.1" style="stroke-width: 0.5;stroke: rgb(128,128,128);stroke-opacity: 1.0;stroke-linecap: square;shape-rendering:crispEdges;" transform="matrix(1,0,0,1,0,0)" clip-path="url(#_2040033064303217clip-0)"/><g transform="matrix(1,0,0,1,0,0)"><text x="38" y="309.77" style="fill: rgb(64,64,64); fill-opacity: 1.0; font-family: Tahoma; font-size: 12px;" clip-path="url(#_2040033064303217clip-0)">0,45</text></g><line x1="65" y1="304.75" x2="67" y2="304.75" style="stroke-width: 0.5;stroke: rgb(128,128,128);stroke-opacity: 1.0;stroke-linecap: square;shape-rendering:crispEdges;" transform="matrix(1,0,0,1,0,0)" clip-path="url(#_2040033064303217clip-0)"/><g transform="matrix(1,0,0,1,0,0)"><text x="38" y="289.41" style="fill: rgb(64,64,64); fill-opacity: 1.0; font-family: Tahoma; font-size: 12px;" clip-path="url(#_2040033064303217clip-0)">0,50</text></g><line x1="65" y1="284.39" x2="67" y2="284.39" style="stroke-width: 0.5;stroke: rgb(128,128,128);stroke-opacity: 1.0;stroke-linecap: square;shape-rendering:crispEdges;" transform="matrix(1,0,0,1,0,0)" clip-path="url(#_2040033064303217clip-0)"/><g transform="matrix(1,0,0,1,0,0)"><text x="38" y="269.06" style="fill: rgb(64,64,64); fill-opacity: 1.0; font-family: Tahoma; font-size: 12px;" clip-path="url(#_2040033064303217clip-0)">0,55</text></g><line x1="65" y1="264.04" x2="67" y2="264.04" style="stroke-width: 0.5;stroke: rgb(128,128,128);stroke-opacity: 1.0;stroke-linecap: square;shape-rendering:crispEdges;" transform="matrix(1,0,0,1,0,0)" clip-path="url(#_2040033064303217clip-0)"/><g transform="matrix(1,0,0,1,0,0)"><text x="38" y="248.7" style="fill: rgb(64,64,64); fill-opacity: 1.0; font-family: Tahoma; font-size: 12px;" clip-path="url(#_2040033064303217clip-0)">0,60</text></g><line x1="65" y1="243.68" x2="67" y2="243.68" style="stroke-width: 0.5;stroke: rgb(128,128,128);stroke-opacity: 1.0;stroke-linecap: square;shape-rendering:crispEdges;" transform="matrix(1,0,0,1,0,0)" clip-path="url(#_2040033064303217clip-0)"/><g transform="matrix(1,0,0,1,0,0)"><text x="38" y="228.35" style="fill: rgb(64,64,64); fill-opacity: 1.0; font-family: Tahoma; font-size: 12px;" clip-path="url(#_2040033064303217clip-0)">0,65</text></g><line x1="65" y1="223.33" x2="67" y2="223.33" style="stroke-width: 0.5;stroke: rgb(128,128,128);stroke-opacity: 1.0;stroke-linecap: square;shape-rendering:crispEdges;" transform="matrix(1,0,0,1,0,0)" clip-path="url(#_2040033064303217clip-0)"/><g transform="matrix(1,0,0,1,0,0)"><text x="38" y="208" style="fill: rgb(64,64,64); fill-opacity: 1.0; font-family: Tahoma; font-size: 12px;" clip-path="url(#_2040033064303217clip-0)">0,70</text></g><line x1="65" y1="202.97" x2="67" y2="202.97" style="stroke-width: 0.5;stroke: rgb(128,128,128);stroke-opacity: 1.0;stroke-linecap: square;shape-rendering:crispEdges;" transform="matrix(1,0,0,1,0,0)" clip-path="url(#_2040033064303217clip-0)"/><g transform="matrix(1,0,0,1,0,0)"><text x="38" y="187.64" style="fill: rgb(64,64,64); fill-opacity: 1.0; font-family: Tahoma; font-size: 12px;" clip-path="url(#_2040033064303217clip-0)">0,75</text></g><line x1="65" y1="182.62" x2="67" y2="182.62" style="stroke-width: 0.5;stroke: rgb(128,128,128);stroke-opacity: 1.0;stroke-linecap: square;shape-rendering:crispEdges;" transform="matrix(1,0,0,1,0,0)" clip-path="url(#_2040033064303217clip-0)"/><g transform="matrix(1,0,0,1,0,0)"><text x="38" y="167.29" style="fill: rgb(64,64,64); fill-opacity: 1.0; font-family: Tahoma; font-size: 12px;" clip-path="url(#_2040033064303217clip-0)">0,80</text></g><line x1="65" y1="162.26" x2="67" y2="162.26" style="stroke-width: 0.5;stroke: rgb(128,128,128);stroke-opacity: 1.0;stroke-linecap: square;shape-rendering:crispEdges;" transform="matrix(1,0,0,1,0,0)" clip-path="url(#_2040033064303217clip-0)"/><g transform="matrix(1,0,0,1,0,0)"><text x="38" y="146.93" style="fill: rgb(64,64,64); fill-opacity: 1.0; font-family: Tahoma; font-size: 12px;" clip-path="url(#_2040033064303217clip-0)">0,85</text></g><line x1="65" y1="141.91" x2="67" y2="141.91" style="stroke-width: 0.5;stroke: rgb(128,128,128);stroke-opacity: 1.0;stroke-linecap: square;shape-rendering:crispEdges;" transform="matrix(1,0,0,1,0,0)" clip-path="url(#_2040033064303217clip-0)"/><g transform="matrix(1,0,0,1,0,0)"><text x="38" y="126.58" style="fill: rgb(64,64,64); fill-opacity: 1.0; font-family: Tahoma; font-size: 12px;" clip-path="url(#_2040033064303217clip-0)">0,90</text></g><line x1="65" y1="121.55" x2="67" y2="121.55" style="stroke-width: 0.5;stroke: rgb(128,128,128);stroke-opacity: 1.0;stroke-linecap: square;shape-rendering:crispEdges;" transform="matrix(1,0,0,1,0,0)" clip-path="url(#_2040033064303217clip-0)"/><g transform="matrix(1,0,0,1,0,0)"><text x="38" y="106.22" style="fill: rgb(64,64,64); fill-opacity: 1.0; font-family: Tahoma; font-size: 12px;" clip-path="url(#_2040033064303217clip-0)">0,95</text></g><line x1="65" y1="101.2" x2="67" y2="101.2" style="stroke-width: 0.5;stroke: rgb(128,128,128);stroke-opacity: 1.0;stroke-linecap: square;shape-rendering:crispEdges;" transform="matrix(1,0,0,1,0,0)" clip-path="url(#_2040033064303217clip-0)"/><g transform="matrix(1,0,0,1,0,0)"><text x="38" y="85.87" style="fill: rgb(64,64,64); fill-opacity: 1.0; font-family: Tahoma; font-size: 12px;" clip-path="url(#_2040033064303217clip-0)">1,00</text></g><line x1="65" y1="80.85" x2="67" y2="80.85" style="stroke-width: 0.5;stroke: rgb(128,128,128);stroke-opacity: 1.0;stroke-linecap: square;shape-rendering:crispEdges;" transform="matrix(1,0,0,1,0,0)" clip-path="url(#_2040033064303217clip-0)"/><g transform="matrix(1,0,0,1,0,0)"><text x="38" y="65.51" style="fill: rgb(64,64,64); fill-opacity: 1.0; font-family: Tahoma; font-size: 12px;" clip-path="url(#_2040033064303217clip-0)">1,05</text></g><line x1="65" y1="60.49" x2="67" y2="60.49" style="stroke-width: 0.5;stroke: rgb(128,128,128);stroke-opacity: 1.0;stroke-linecap: square;shape-rendering:crispEdges;" transform="matrix(1,0,0,1,0,0)" clip-path="url(#_2040033064303217clip-0)"/><g transform="matrix(1,0,0,1,0,0)"><text x="38" y="45.16" style="fill: rgb(64,64,64); fill-opacity: 1.0; font-family: Tahoma; font-size: 12px;" clip-path="url(#_2040033064303217clip-0)">1,10</text></g><line x1="65" y1="40.14" x2="67" y2="40.14" style="stroke-width: 0.5;stroke: rgb(128,128,128);stroke-opacity: 1.0;stroke-linecap: square;shape-rendering:crispEdges;" transform="matrix(1,0,0,1,0,0)" clip-path="url(#_2040033064303217clip-0)"/><g style="fill: rgb(64,64,64); fill-opacity: 1.0; stroke: none" transform="matrix(0,-1,1,0,-345.5,384.5)" clip-path="url(#_2040033064303217clip-1)"><path d="M 14.44 370.81 Q 12.16 370.81 10.8 369.42 Q 9.45 368.03 9.45 365.53 Q 9.45 363.11 10.8 361.67 Q 12.16 360.23 14.45 360.23 Q 15.06 360.23 15.55 360.3 Q 16.03 360.37 16.47 360.48 Q 16.83 360.59 17.23 360.77 Q 17.64 360.95 17.89 361.08 L 17.89 363.5 L 17.64 363.5 Q 17.45 363.34 17.17 363.12 Q 16.89 362.89 16.53 362.67 Q 16.17 362.45 15.75 362.3 Q 15.33 362.14 14.86 362.14 Q 14.31 362.14 13.84 362.31 Q 13.38 362.48 12.97 362.92 Q 12.58 363.31 12.34 363.98 Q 12.09 364.64 12.09 365.53 Q 12.09 366.48 12.35 367.13 Q 12.61 367.78 13.02 368.17 Q 13.41 368.56 13.9 368.73 Q 14.39 368.91 14.88 368.91 Q 15.38 368.91 15.84 368.73 Q 16.3 368.56 16.61 368.36 Q 16.95 368.14 17.21 367.92 Q 17.47 367.7 17.66 367.55 L 17.89 367.55 L 17.89 369.94 Q 17.61 370.06 17.24 370.23 Q 16.88 370.39 16.48 370.51 Q 16 370.66 15.59 370.73 Q 15.17 370.81 14.44 370.81 Z  M 26.19 370.61 L 19.39 370.61 L 19.39 360.44 L 21.95 360.44 L 21.95 368.67 L 26.19 368.67 L 26.19 370.61 Z "/></g><line x1="98.09" y1="35" x2="98.09" y2="695" style="stroke-width: 0.5;stroke: rgb(192,192,192);stroke-opacity: 1.0;stroke-linejoin: bevel;stroke-dasharray: 2.0, 2.0;shape-rendering:crispEdges;" transform="matrix(1,0,0,1,0,0)" clip-path="url(#_2040033064303217clip-2)"/><line x1="152.35" y1="35" x2="152.35" y2="695" style="stroke-width: 0.5;stroke: rgb(192,192,192);stroke-opacity: 1.0;stroke-linejoin: bevel;stroke-dasharray: 2.0, 2.0;shape-rendering:crispEdges;" transform="matrix(1,0,0,1,0,0)" clip-path="url(#_2040033064303217clip-2)"/><line x1="206.62" y1="35" x2="206.62" y2="695" style="stroke-width: 0.5;stroke: rgb(192,192,192);stroke-opacity: 1.0;stroke-linejoin: bevel;stroke-dasharray: 2.0, 2.0;shape-rendering:crispEdges;" transform="matrix(1,0,0,1,0,0)" clip-path="url(#_2040033064303217clip-2)"/><line x1="260.88" y1="35" x2="260.88" y2="695" style="stroke-width: 0.5;stroke: rgb(192,192,192);stroke-opacity: 1.0;stroke-linejoin: bevel;stroke-dasharray: 2.0, 2.0;shape-rendering:crispEdges;" transform="matrix(1,0,0,1,0,0)" clip-path="url(#_2040033064303217clip-2)"/><line x1="315.15" y1="35" x2="315.15" y2="695" style="stroke-width: 0.5;stroke: rgb(192,192,192);stroke-opacity: 1.0;stroke-linejoin: bevel;stroke-dasharray: 2.0, 2.0;shape-rendering:crispEdges;" transform="matrix(1,0,0,1,0,0)" clip-path="url(#_2040033064303217clip-2)"/><line x1="369.41" y1="35" x2="369.41" y2="695" style="stroke-width: 0.5;stroke: rgb(192,192,192);stroke-opacity: 1.0;stroke-linejoin: bevel;stroke-dasharray: 2.0, 2.0;shape-rendering:crispEdges;" transform="matrix(1,0,0,1,0,0)" clip-path="url(#_2040033064303217clip-2)"/><line x1="423.67" y1="35" x2="423.67" y2="695" style="stroke-width: 0.5;stroke: rgb(192,192,192);stroke-opacity: 1.0;stroke-linejoin: bevel;stroke-dasharray: 2.0, 2.0;shape-rendering:crispEdges;" transform="matrix(1,0,0,1,0,0)" clip-path="url(#_2040033064303217clip-2)"/><line x1="477.94" y1="35" x2="477.94" y2="695" style="stroke-width: 0.5;stroke: rgb(192,192,192);stroke-opacity: 1.0;stroke-linejoin: bevel;stroke-dasharray: 2.0, 2.0;shape-rendering:crispEdges;" transform="matrix(1,0,0,1,0,0)" clip-path="url(#_2040033064303217clip-2)"/><line x1="532.2" y1="35" x2="532.2" y2="695" style="stroke-width: 0.5;stroke: rgb(192,192,192);stroke-opacity: 1.0;stroke-linejoin: bevel;stroke-dasharray: 2.0, 2.0;shape-rendering:crispEdges;" transform="matrix(1,0,0,1,0,0)" clip-path="url(#_2040033064303217clip-2)"/><line x1="586.47" y1="35" x2="586.47" y2="695" style="stroke-width: 0.5;stroke: rgb(192,192,192);stroke-opacity: 1.0;stroke-linejoin: bevel;stroke-dasharray: 2.0, 2.0;shape-rendering:crispEdges;" transform="matrix(1,0,0,1,0,0)" clip-path="url(#_2040033064303217clip-2)"/><line x1="640.73" y1="35" x2="640.73" y2="695" style="stroke-width: 0.5;stroke: rgb(192,192,192);stroke-opacity: 1.0;stroke-linejoin: bevel;stroke-dasharray: 2.0, 2.0;shape-rendering:crispEdges;" transform="matrix(1,0,0,1,0,0)" clip-path="url(#_2040033064303217clip-2)"/><line x1="695" y1="35" x2="695" y2="695" style="stroke-width: 0.5;stroke: rgb(192,192,192);stroke-opacity: 1.0;stroke-linejoin: bevel;stroke-dasharray: 2.0, 2.0;shape-rendering:crispEdges;" transform="matrix(1,0,0,1,0,0)" clip-path="url(#_2040033064303217clip-2)"/><line x1="749.26" y1="35" x2="749.26" y2="695" style="stroke-width: 0.5;stroke: rgb(192,192,192);stroke-opacity: 1.0;stroke-linejoin: bevel;stroke-dasharray: 2.0, 2.0;shape-rendering:crispEdges;" transform="matrix(1,0,0,1,0,0)" clip-path="url(#_2040033064303217clip-2)"/><line x1="803.52" y1="35" x2="803.52" y2="695" style="stroke-width: 0.5;stroke: rgb(192,192,192);stroke-opacity: 1.0;stroke-linejoin: bevel;stroke-dasharray: 2.0, 2.0;shape-rendering:crispEdges;" transform="matrix(1,0,0,1,0,0)" clip-path="url(#_2040033064303217clip-2)"/><line x1="857.79" y1="35" x2="857.79" y2="695" style="stroke-width: 0.5;stroke: rgb(192,192,192);stroke-opacity: 1.0;stroke-linejoin: bevel;stroke-dasharray: 2.0, 2.0;shape-rendering:crispEdges;" transform="matrix(1,0,0,1,0,0)" clip-path="url(#_2040033064303217clip-2)"/><line x1="912.05" y1="35" x2="912.05" y2="695" style="stroke-width: 0.5;stroke: rgb(192,192,192);stroke-opacity: 1.0;stroke-linejoin: bevel;stroke-dasharray: 2.0, 2.0;shape-rendering:crispEdges;" transform="matrix(1,0,0,1,0,0)" clip-path="url(#_2040033064303217clip-2)"/><line x1="966.32" y1="35" x2="966.32" y2="695" style="stroke-width: 0.5;stroke: rgb(192,192,192);stroke-opacity: 1.0;stroke-linejoin: bevel;stroke-dasharray: 2.0, 2.0;shape-rendering:crispEdges;" transform="matrix(1,0,0,1,0,0)" clip-path="url(#_2040033064303217clip-2)"/><line x1="1020.58" y1="35" x2="1020.58" y2="695" style="stroke-width: 0.5;stroke: rgb(192,192,192);stroke-opacity: 1.0;stroke-linejoin: bevel;stroke-dasharray: 2.0, 2.0;shape-rendering:crispEdges;" transform="matrix(1,0,0,1,0,0)" clip-path="url(#_2040033064303217clip-2)"/><line x1="1074.85" y1="35" x2="1074.85" y2="695" style="stroke-width: 0.5;stroke: rgb(192,192,192);stroke-opacity: 1.0;stroke-linejoin: bevel;stroke-dasharray: 2.0, 2.0;shape-rendering:crispEdges;" transform="matrix(1,0,0,1,0,0)" clip-path="url(#_2040033064303217clip-2)"/><line x1="1129.11" y1="35" x2="1129.11" y2="695" style="stroke-width: 0.5;stroke: rgb(192,192,192);stroke-opacity: 1.0;stroke-linejoin: bevel;stroke-dasharray: 2.0, 2.0;shape-rendering:crispEdges;" transform="matrix(1,0,0,1,0,0)" clip-path="url(#_2040033064303217clip-2)"/><line x1="71" y1="691.49" x2="1140" y2="691.49" style="stroke-width: 0.5;stroke: rgb(192,192,192);stroke-opacity: 1.0;stroke-linejoin: bevel;stroke-dasharray: 2.0, 2.0;shape-rendering:crispEdges;" transform="matrix(1,0,0,1,0,0)" clip-path="url(#_2040033064303217clip-2)"/><line x1="71" y1="671.13" x2="1140" y2="671.13" style="stroke-width: 0.5;stroke: rgb(192,192,192);stroke-opacity: 1.0;stroke-linejoin: bevel;stroke-dasharray: 2.0, 2.0;shape-rendering:crispEdges;" transform="matrix(1,0,0,1,0,0)" clip-path="url(#_2040033064303217clip-2)"/><line x1="71" y1="650.78" x2="1140" y2="650.78" style="stroke-width: 0.5;stroke: rgb(192,192,192);stroke-opacity: 1.0;stroke-linejoin: bevel;stroke-dasharray: 2.0, 2.0;shape-rendering:crispEdges;" transform="matrix(1,0,0,1,0,0)" clip-path="url(#_2040033064303217clip-2)"/><line x1="71" y1="630.42" x2="1140" y2="630.42" style="stroke-width: 0.5;stroke: rgb(192,192,192);stroke-opacity: 1.0;stroke-linejoin: bevel;stroke-dasharray: 2.0, 2.0;shape-rendering:crispEdges;" transform="matrix(1,0,0,1,0,0)" clip-path="url(#_2040033064303217clip-2)"/><line x1="71" y1="610.07" x2="1140" y2="610.07" style="stroke-width: 0.5;stroke: rgb(192,192,192);stroke-opacity: 1.0;stroke-linejoin: bevel;stroke-dasharray: 2.0, 2.0;shape-rendering:crispEdges;" transform="matrix(1,0,0,1,0,0)" clip-path="url(#_2040033064303217clip-2)"/><line x1="71" y1="589.71" x2="1140" y2="589.71" style="stroke-width: 0.5;stroke: rgb(192,192,192);stroke-opacity: 1.0;stroke-linejoin: bevel;stroke-dasharray: 2.0, 2.0;shape-rendering:crispEdges;" transform="matrix(1,0,0,1,0,0)" clip-path="url(#_2040033064303217clip-2)"/><line x1="71" y1="569.36" x2="1140" y2="569.36" style="stroke-width: 0.5;stroke: rgb(192,192,192);stroke-opacity: 1.0;stroke-linejoin: bevel;stroke-dasharray: 2.0, 2.0;shape-rendering:crispEdges;" transform="matrix(1,0,0,1,0,0)" clip-path="url(#_2040033064303217clip-2)"/><line x1="71" y1="549" x2="1140" y2="549" style="stroke-width: 0.5;stroke: rgb(192,192,192);stroke-opacity: 1.0;stroke-linejoin: bevel;stroke-dasharray: 2.0, 2.0;shape-rendering:crispEdges;" transform="matrix(1,0,0,1,0,0)" clip-path="url(#_2040033064303217clip-2)"/><line x1="71" y1="528.65" x2="1140" y2="528.65" style="stroke-width: 0.5;stroke: rgb(192,192,192);stroke-opacity: 1.0;stroke-linejoin: bevel;stroke-dasharray: 2.0, 2.0;shape-rendering:crispEdges;" transform="matrix(1,0,0,1,0,0)" clip-path="url(#_2040033064303217clip-2)"/><line x1="71" y1="508.29" x2="1140" y2="508.29" style="stroke-width: 0.5;stroke: rgb(192,192,192);stroke-opacity: 1.0;stroke-linejoin: bevel;stroke-dasharray: 2.0, 2.0;shape-rendering:crispEdges;" transform="matrix(1,0,0,1,0,0)" clip-path="url(#_2040033064303217clip-2)"/><line x1="71" y1="487.94" x2="1140" y2="487.94" style="stroke-width: 0.5;stroke: rgb(192,192,192);stroke-opacity: 1.0;stroke-linejoin: bevel;stroke-dasharray: 2.0, 2.0;shape-rendering:crispEdges;" transform="matrix(1,0,0,1,0,0)" clip-path="url(#_2040033064303217clip-2)"/><line x1="71" y1="467.58" x2="1140" y2="467.58" style="stroke-width: 0.5;stroke: rgb(192,192,192);stroke-opacity: 1.0;stroke-linejoin: bevel;stroke-dasharray: 2.0, 2.0;shape-rendering:crispEdges;" transform="matrix(1,0,0,1,0,0)" clip-path="url(#_2040033064303217clip-2)"/><line x1="71" y1="447.23" x2="1140" y2="447.23" style="stroke-width: 0.5;stroke: rgb(192,192,192);stroke-opacity: 1.0;stroke-linejoin: bevel;stroke-dasharray: 2.0, 2.0;shape-rendering:crispEdges;" transform="matrix(1,0,0,1,0,0)" clip-path="url(#_2040033064303217clip-2)"/><line x1="71" y1="426.88" x2="1140" y2="426.88" style="stroke-width: 0.5;stroke: rgb(192,192,192);stroke-opacity: 1.0;stroke-linejoin: bevel;stroke-dasharray: 2.0, 2.0;shape-rendering:crispEdges;" transform="matrix(1,0,0,1,0,0)" clip-path="url(#_2040033064303217clip-2)"/><line x1="71" y1="406.52" x2="1140" y2="406.52" style="stroke-width: 0.5;stroke: rgb(192,192,192);stroke-opacity: 1.0;stroke-linejoin: bevel;stroke-dasharray: 2.0, 2.0;shape-rendering:crispEdges;" transform="matrix(1,0,0,1,0,0)" clip-path="url(#_2040033064303217clip-2)"/><line x1="71" y1="386.17" x2="1140" y2="386.17" style="stroke-width: 0.5;stroke: rgb(192,192,192);stroke-opacity: 1.0;stroke-linejoin: bevel;stroke-dasharray: 2.0, 2.0;shape-rendering:crispEdges;" transform="matrix(1,0,0,1,0,0)" clip-path="url(#_2040033064303217clip-2)"/><line x1="71" y1="365.81" x2="1140" y2="365.81" style="stroke-width: 0.5;stroke: rgb(192,192,192);stroke-opacity: 1.0;stroke-linejoin: bevel;stroke-dasharray: 2.0, 2.0;shape-rendering:crispEdges;" transform="matrix(1,0,0,1,0,0)" clip-path="url(#_2040033064303217clip-2)"/><line x1="71" y1="345.46" x2="1140" y2="345.46" style="stroke-width: 0.5;stroke: rgb(192,192,192);stroke-opacity: 1.0;stroke-linejoin: bevel;stroke-dasharray: 2.0, 2.0;shape-rendering:crispEdges;" transform="matrix(1,0,0,1,0,0)" clip-path="url(#_2040033064303217clip-2)"/><line x1="71" y1="325.1" x2="1140" y2="325.1" style="stroke-width: 0.5;stroke: rgb(192,192,192);stroke-opacity: 1.0;stroke-linejoin: bevel;stroke-dasharray: 2.0, 2.0;shape-rendering:crispEdges;" transform="matrix(1,0,0,1,0,0)" clip-path="url(#_2040033064303217clip-2)"/><line x1="71" y1="304.75" x2="1140" y2="304.75" style="stroke-width: 0.5;stroke: rgb(192,192,192);stroke-opacity: 1.0;stroke-linejoin: bevel;stroke-dasharray: 2.0, 2.0;shape-rendering:crispEdges;" transform="matrix(1,0,0,1,0,0)" clip-path="url(#_2040033064303217clip-2)"/><line x1="71" y1="284.39" x2="1140" y2="284.39" style="stroke-width: 0.5;stroke: rgb(192,192,192);stroke-opacity: 1.0;stroke-linejoin: bevel;stroke-dasharray: 2.0, 2.0;shape-rendering:crispEdges;" transform="matrix(1,0,0,1,0,0)" clip-path="url(#_2040033064303217clip-2)"/><line x1="71" y1="264.04" x2="1140" y2="264.04" style="stroke-width: 0.5;stroke: rgb(192,192,192);stroke-opacity: 1.0;stroke-linejoin: bevel;stroke-dasharray: 2.0, 2.0;shape-rendering:crispEdges;" transform="matrix(1,0,0,1,0,0)" clip-path="url(#_2040033064303217clip-2)"/><line x1="71" y1="243.68" x2="1140" y2="243.68" style="stroke-width: 0.5;stroke: rgb(192,192,192);stroke-opacity: 1.0;stroke-linejoin: bevel;stroke-dasharray: 2.0, 2.0;shape-rendering:crispEdges;" transform="matrix(1,0,0,1,0,0)" clip-path="url(#_2040033064303217clip-2)"/><line x1="71" y1="223.33" x2="1140" y2="223.33" style="stroke-width: 0.5;stroke: rgb(192,192,192);stroke-opacity: 1.0;stroke-linejoin: bevel;stroke-dasharray: 2.0, 2.0;shape-rendering:crispEdges;" transform="matrix(1,0,0,1,0,0)" clip-path="url(#_2040033064303217clip-2)"/><line x1="71" y1="202.97" x2="1140" y2="202.97" style="stroke-width: 0.5;stroke: rgb(192,192,192);stroke-opacity: 1.0;stroke-linejoin: bevel;stroke-dasharray: 2.0, 2.0;shape-rendering:crispEdges;" transform="matrix(1,0,0,1,0,0)" clip-path="url(#_2040033064303217clip-2)"/><line x1="71" y1="182.62" x2="1140" y2="182.62" style="stroke-width: 0.5;stroke: rgb(192,192,192);stroke-opacity: 1.0;stroke-linejoin: bevel;stroke-dasharray: 2.0, 2.0;shape-rendering:crispEdges;" transform="matrix(1,0,0,1,0,0)" clip-path="url(#_2040033064303217clip-2)"/><line x1="71" y1="162.26" x2="1140" y2="162.26" style="stroke-width: 0.5;stroke: rgb(192,192,192);stroke-opacity: 1.0;stroke-linejoin: bevel;stroke-dasharray: 2.0, 2.0;shape-rendering:crispEdges;" transform="matrix(1,0,0,1,0,0)" clip-path="url(#_2040033064303217clip-2)"/><line x1="71" y1="141.91" x2="1140" y2="141.91" style="stroke-width: 0.5;stroke: rgb(192,192,192);stroke-opacity: 1.0;stroke-linejoin: bevel;stroke-dasharray: 2.0, 2.0;shape-rendering:crispEdges;" transform="matrix(1,0,0,1,0,0)" clip-path="url(#_2040033064303217clip-2)"/><line x1="71" y1="121.55" x2="1140" y2="121.55" style="stroke-width: 0.5;stroke: rgb(192,192,192);stroke-opacity: 1.0;stroke-linejoin: bevel;stroke-dasharray: 2.0, 2.0;shape-rendering:crispEdges;" transform="matrix(1,0,0,1,0,0)" clip-path="url(#_2040033064303217clip-2)"/><line x1="71" y1="101.2" x2="1140" y2="101.2" style="stroke-width: 0.5;stroke: rgb(192,192,192);stroke-opacity: 1.0;stroke-linejoin: bevel;stroke-dasharray: 2.0, 2.0;shape-rendering:crispEdges;" transform="matrix(1,0,0,1,0,0)" clip-path="url(#_2040033064303217clip-2)"/><line x1="71" y1="80.85" x2="1140" y2="80.85" style="stroke-width: 0.5;stroke: rgb(192,192,192);stroke-opacity: 1.0;stroke-linejoin: bevel;stroke-dasharray: 2.0, 2.0;shape-rendering:crispEdges;" transform="matrix(1,0,0,1,0,0)" clip-path="url(#_2040033064303217clip-2)"/><line x1="71" y1="60.49" x2="1140" y2="60.49" style="stroke-width: 0.5;stroke: rgb(192,192,192);stroke-opacity: 1.0;stroke-linejoin: bevel;stroke-dasharray: 2.0, 2.0;shape-rendering:crispEdges;" transform="matrix(1,0,0,1,0,0)" clip-path="url(#_2040033064303217clip-2)"/><line x1="71" y1="40.14" x2="1140" y2="40.14" style="stroke-width: 0.5;stroke: rgb(192,192,192);stroke-opacity: 1.0;stroke-linejoin: bevel;stroke-dasharray: 2.0, 2.0;shape-rendering:crispEdges;" transform="matrix(1,0,0,1,0,0)" clip-path="url(#_2040033064303217clip-2)"/><line x1="436.35" y1="653.82" x2="422.18" y2="639.8" style="stroke-width: 3.0;stroke: rgb(0,0,0);stroke-opacity: 1.0;stroke-linecap: square;shape-rendering:geometricPrecision;" transform="matrix(1,0,0,1,0,0)" clip-path="url(#_2040033064303217clip-2)"/><line x1="422.18" y1="639.8" x2="410.21" y2="625.83" style="stroke-width: 3.0;stroke: rgb(0,0,0);stroke-opacity: 1.0;stroke-linecap: square;shape-rendering:geometricPrecision;" transform="matrix(1,0,0,1,0,0)" clip-path="url(#_2040033064303217clip-2)"/><line x1="410.21" y1="625.83" x2="398.73" y2="611.92" style="stroke-width: 3.0;stroke: rgb(0,0,0);stroke-opacity: 1.0;stroke-linecap: square;shape-rendering:geometricPrecision;" transform="matrix(1,0,0,1,0,0)" clip-path="url(#_2040033064303217clip-2)"/><line x1="398.73" y1="611.92" x2="388.43" y2="598.06" style="stroke-width: 3.0;stroke: rgb(0,0,0);stroke-opacity: 1.0;stroke-linecap: square;shape-rendering:geometricPrecision;" transform="matrix(1,0,0,1,0,0)" clip-path="url(#_2040033064303217clip-2)"/><line x1="388.43" y1="598.06" x2="380.47" y2="584.17" style="stroke-width: 3.0;stroke: rgb(0,0,0);stroke-opacity: 1.0;stroke-linecap: square;shape-rendering:geometricPrecision;" transform="matrix(1,0,0,1,0,0)" clip-path="url(#_2040033064303217clip-2)"/><line x1="380.47" y1="584.17" x2="372.56" y2="569.9" style="stroke-width: 3.0;stroke: rgb(0,0,0);stroke-opacity: 1.0;stroke-linecap: square;shape-rendering:geometricPrecision;" transform="matrix(1,0,0,1,0,0)" clip-path="url(#_2040033064303217clip-2)"/><line x1="372.56" y1="569.9" x2="366.53" y2="555.54" style="stroke-width: 3.0;stroke: rgb(0,0,0);stroke-opacity: 1.0;stroke-linecap: square;shape-rendering:geometricPrecision;" transform="matrix(1,0,0,1,0,0)" clip-path="url(#_2040033064303217clip-2)"/><line x1="366.53" y1="555.54" x2="361.7" y2="541.12" style="stroke-width: 3.0;stroke: rgb(0,0,0);stroke-opacity: 1.0;stroke-linecap: square;shape-rendering:geometricPrecision;" transform="matrix(1,0,0,1,0,0)" clip-path="url(#_2040033064303217clip-2)"/><line x1="361.7" y1="541.12" x2="357.13" y2="526.62" style="stroke-width: 3.0;stroke: rgb(0,0,0);stroke-opacity: 1.0;stroke-linecap: square;shape-rendering:geometricPrecision;" transform="matrix(1,0,0,1,0,0)" clip-path="url(#_2040033064303217clip-2)"/><line x1="357.13" y1="526.62" x2="355.32" y2="512.05" style="stroke-width: 3.0;stroke: rgb(0,0,0);stroke-opacity: 1.0;stroke-linecap: square;shape-rendering:geometricPrecision;" transform="matrix(1,0,0,1,0,0)" clip-path="url(#_2040033064303217clip-2)"/><line x1="355.32" y1="512.05" x2="353.65" y2="497.41" style="stroke-width: 3.0;stroke: rgb(0,0,0);stroke-opacity: 1.0;stroke-linecap: square;shape-rendering:geometricPrecision;" transform="matrix(1,0,0,1,0,0)" clip-path="url(#_2040033064303217clip-2)"/><line x1="353.65" y1="497.41" x2="353.18" y2="482.65" style="stroke-width: 3.0;stroke: rgb(0,0,0);stroke-opacity: 1.0;stroke-linecap: square;shape-rendering:geometricPrecision;" transform="matrix(1,0,0,1,0,0)" clip-path="url(#_2040033064303217clip-2)"/><line x1="353.18" y1="482.65" x2="354.9" y2="467.49" style="stroke-width: 3.0;stroke: rgb(0,0,0);stroke-opacity: 1.0;stroke-linecap: square;shape-rendering:geometricPrecision;" transform="matrix(1,0,0,1,0,0)" clip-path="url(#_2040033064303217clip-2)"/><line x1="354.9" y1="467.49" x2="356.75" y2="451.19" style="stroke-width: 3.0;stroke: rgb(0,0,0);stroke-opacity: 1.0;stroke-linecap: square;shape-rendering:geometricPrecision;" transform="matrix(1,0,0,1,0,0)" clip-path="url(#_2040033064303217clip-2)"/><line x1="356.75" y1="451.19" x2="362.35" y2="432.8" style="stroke-width: 3.0;stroke: rgb(0,0,0);stroke-opacity: 1.0;stroke-linecap: square;shape-rendering:geometricPrecision;" transform="matrix(1,0,0,1,0,0)" clip-path="url(#_2040033064303217clip-2)"/><line x1="362.35" y1="432.8" x2="369.69" y2="411.52" style="stroke-width: 3.0;stroke: rgb(0,0,0);stroke-opacity: 1.0;stroke-linecap: square;shape-rendering:geometricPrecision;" transform="matrix(1,0,0,1,0,0)" clip-path="url(#_2040033064303217clip-2)"/><line x1="369.69" y1="411.52" x2="383.54" y2="386.43" style="stroke-width: 3.0;stroke: rgb(0,0,0);stroke-opacity: 1.0;stroke-linecap: square;shape-rendering:geometricPrecision;" transform="matrix(1,0,0,1,0,0)" clip-path="url(#_2040033064303217clip-2)"/><line x1="383.54" y1="386.43" x2="405.21" y2="356.06" style="stroke-width: 3.0;stroke: rgb(0,0,0);stroke-opacity: 1.0;stroke-linecap: square;shape-rendering:geometricPrecision;" transform="matrix(1,0,0,1,0,0)" clip-path="url(#_2040033064303217clip-2)"/><line x1="405.21" y1="356.06" x2="430.05" y2="328.13" style="stroke-width: 3.0;stroke: rgb(0,0,0);stroke-opacity: 1.0;stroke-linecap: square;shape-rendering:geometricPrecision;" transform="matrix(1,0,0,1,0,0)" clip-path="url(#_2040033064303217clip-2)"/><line x1="430.05" y1="328.13" x2="453.68" y2="305.58" style="stroke-width: 3.0;stroke: rgb(0,0,0);stroke-opacity: 1.0;stroke-linecap: square;shape-rendering:geometricPrecision;" transform="matrix(1,0,0,1,0,0)" clip-path="url(#_2040033064303217clip-2)"/><line x1="453.68" y1="305.58" x2="480.45" y2="283.02" style="stroke-width: 3.0;stroke: rgb(0,0,0);stroke-opacity: 1.0;stroke-linecap: square;shape-rendering:geometricPrecision;" transform="matrix(1,0,0,1,0,0)" clip-path="url(#_2040033064303217clip-2)"/><line x1="480.45" y1="283.02" x2="509.6" y2="260.44" style="stroke-width: 3.0;stroke: rgb(0,0,0);stroke-opacity: 1.0;stroke-linecap: square;shape-rendering:geometricPrecision;" transform="matrix(1,0,0,1,0,0)" clip-path="url(#_2040033064303217clip-2)"/><line x1="509.6" y1="260.44" x2="542.47" y2="237.85" style="stroke-width: 3.0;stroke: rgb(0,0,0);stroke-opacity: 1.0;stroke-linecap: square;shape-rendering:geometricPrecision;" transform="matrix(1,0,0,1,0,0)" clip-path="url(#_2040033064303217clip-2)"/><line x1="542.47" y1="237.85" x2="577.69" y2="215.25" style="stroke-width: 3.0;stroke: rgb(0,0,0);stroke-opacity: 1.0;stroke-linecap: square;shape-rendering:geometricPrecision;" transform="matrix(1,0,0,1,0,0)" clip-path="url(#_2040033064303217clip-2)"/><line x1="577.69" y1="215.25" x2="616.01" y2="192.64" style="stroke-width: 3.0;stroke: rgb(0,0,0);stroke-opacity: 1.0;stroke-linecap: square;shape-rendering:geometricPrecision;" transform="matrix(1,0,0,1,0,0)" clip-path="url(#_2040033064303217clip-2)"/><line x1="616.01" y1="192.64" x2="658.13" y2="169.92" style="stroke-width: 3.0;stroke: rgb(0,0,0);stroke-opacity: 1.0;stroke-linecap: square;shape-rendering:geometricPrecision;" transform="matrix(1,0,0,1,0,0)" clip-path="url(#_2040033064303217clip-2)"/><line x1="658.13" y1="169.92" x2="703.27" y2="146.98" style="stroke-width: 3.0;stroke: rgb(0,0,0);stroke-opacity: 1.0;stroke-linecap: square;shape-rendering:geometricPrecision;" transform="matrix(1,0,0,1,0,0)" clip-path="url(#_2040033064303217clip-2)"/><line x1="703.27" y1="146.98" x2="751.99" y2="123.75" style="stroke-width: 3.0;stroke: rgb(0,0,0);stroke-opacity: 1.0;stroke-linecap: square;shape-rendering:geometricPrecision;" transform="matrix(1,0,0,1,0,0)" clip-path="url(#_2040033064303217clip-2)"/><line x1="751.99" y1="123.75" x2="803.44" y2="100.15" style="stroke-width: 3.0;stroke: rgb(0,0,0);stroke-opacity: 1.0;stroke-linecap: square;shape-rendering:geometricPrecision;" transform="matrix(1,0,0,1,0,0)" clip-path="url(#_2040033064303217clip-2)"/><line x1="803.44" y1="100.15" x2="857.82" y2="76.18" style="stroke-width: 3.0;stroke: rgb(0,0,0);stroke-opacity: 1.0;stroke-linecap: square;shape-rendering:geometricPrecision;" transform="matrix(1,0,0,1,0,0)" clip-path="url(#_2040033064303217clip-2)"/><rect x="71" y="35" width="1069" height="660" style="stroke-width: 0.5;stroke: rgb(0,0,0);stroke-opacity: 1.0;stroke-linecap: round;stroke-linejoin: round;shape-rendering:crispEdges;; fill: none" transform="matrix(1,0,0,1,0,0)" clip-path="url(#_2040033064303217clip-0)"/></svg>
