<!DOCTYPE svg PUBLIC "-//W3C//DTD SVG 1.1//EN" "http://www.w3.org/Graphics/SVG/1.1/DTD/svg11.dtd">
<svg xmlns="http://www.w3.org/2000/svg" xmlns:xlink="http://www.w3.org/1999/xlink" xmlns:jfreesvg="http://www.jfree.org/jfreesvg/svg" width="1152" height="768" text-rendering="auto" shape-rendering="auto">
<defs><clipPath id="_285439052817021clip-0"><path d="M 0 0 L 1152 0 L 1152 768 L 0 768 L 0 0 Z "/></clipPath>
<clipPath id="_285439052817021clip-1"><path d="M 384.5 345.5 L 384.5 1497.5 L -383.5 1497.5 L -383.5 345.5 L 384.5 345.5 Z "/></clipPath>
<clipPath id="_285439052817021clip-2"><path d="M 71 35 L 71 695 L 1140 695 L 1140 35 Z "/></clipPath>
</defs>
<rect x="0" y="0" width="1152" height="768" style="fill: rgb(255,255,255); fill-opacity: 1.0" transform="matrix(1,0,0,1,0,0)" clip-path="url(#_285439052817021clip-0)"/><g transform="matrix(1,0,0,1,0,0)"><text x="463" y="21.01" style="fill: rgb(0,0,0); fill-opacity: 1.0; font-family: Tahoma; font-size: 20px; font-weight: bold;" clip-path="url(#_285439052817021clip-0)">Lift_Coefficient_Curve</text></g><rect x="502.5" y="746" width="147" height="21" style="fill: rgb(255,255,255); fill-opacity: 1.0" transform="matrix(1,0,0,1,0,0)" clip-path="url(#_285439052817021clip-0)"/><g style="stroke-width: 3.0;stroke: rgb(0,0,0);stroke-opacity: 1.0;stroke-linecap: square;shape-rendering:geometricPrecision;; fill: none" transform="matrix(1,0,0,1,0,0)" clip-path="url(#_285439052817021clip-0)"><path d="M 505.5 756.5 L 519.5 756.5"/></g><g transform="matrix(1,0,0,1,0,0)"><text x="523.5" y="761.01" style="fill: rgb(64,64,64); fill-opacity: 1.0; font-family: Tahoma; font-size: 12px;" clip-path="url(#_285439052817021clip-0)"> Lift_Coefficient_Curve </text></g><rect x="71" y="35" width="1069" height="660" style="fill: rgb(255,255,255); fill-opacity: 0.0" transform="matrix(1,0,0,1,0,0)" clip-path="url(#_285439052817021clip-0)"/><line x1="71" y1="699" x2="1140" y2="699" style="stroke-width: 0.5;stroke: rgb(128,128,128);stroke-opacity: 1.0;stroke-linecap: square;shape-rendering:crispEdges;" transform="matrix(1,0,0,1,0,0)" clip-path="url(#_285439052817021clip-0)"/><g transform="matrix(1,0,0,1,0,0)"><text x="95.59" y="715.52" style="fill: rgb(64,64,64); fill-opacity: 1.0; font-family: Tahoma; font-size: 12px;" clip-path="url(#_285439052817021clip-0)">-4,0</text></g><line x1="106.09" y1="701" x2="106.09" y2="699" style="stroke-width: 0.5;stroke: rgb(128,128,128);stroke-opacity: 1.0;stroke-linecap: square;shape-rendering:crispEdges;" transform="matrix(1,0,0,1,0,0)" clip-path="url(#_285439052817021clip-0)"/><g transform="matrix(1,0,0,1,0,0)"><text x="163.01" y="715.52" style="fill: rgb(64,64,64); fill-opacity: 1.0; font-family: Tahoma; font-size: 12px;" clip-path="url(#_285439052817021clip-0)">-3,5</text></g><line x1="173.51" y1="701" x2="173.51" y2="699" style="stroke-width: 0.5;stroke: rgb(128,128,128);stroke-opacity: 1.0;stroke-linecap: square;shape-rendering:crispEdges;" transform="matrix(1,0,0,1,0,0)" clip-path="url(#_285439052817021clip-0)"/><g transform="matrix(1,0,0,1,0,0)"><text x="230.42" y="715.52" style="fill: rgb(64,64,64); fill-opacity: 1.0; font-family: Tahoma; font-size: 12px;" clip-path="url(#_285439052817021clip-0)">-3,0</text></g><line x1="240.92" y1="701" x2="240.92" y2="699" style="stroke-width: 0.5;stroke: rgb(128,128,128);stroke-opacity: 1.0;stroke-linecap: square;shape-rendering:crispEdges;" transform="matrix(1,0,0,1,0,0)" clip-path="url(#_285439052817021clip-0)"/><g transform="matrix(1,0,0,1,0,0)"><text x="297.84" y="715.52" style="fill: rgb(64,64,64); fill-opacity: 1.0; font-family: Tahoma; font-size: 12px;" clip-path="url(#_285439052817021clip-0)">-2,5</text></g><line x1="308.34" y1="701" x2="308.34" y2="699" style="stroke-width: 0.5;stroke: rgb(128,128,128);stroke-opacity: 1.0;stroke-linecap: square;shape-rendering:crispEdges;" transform="matrix(1,0,0,1,0,0)" clip-path="url(#_285439052817021clip-0)"/><g transform="matrix(1,0,0,1,0,0)"><text x="365.25" y="715.52" style="fill: rgb(64,64,64); fill-opacity: 1.0; font-family: Tahoma; font-size: 12px;" clip-path="url(#_285439052817021clip-0)">-2,0</text></g><line x1="375.75" y1="701" x2="375.75" y2="699" style="stroke-width: 0.5;stroke: rgb(128,128,128);stroke-opacity: 1.0;stroke-linecap: square;shape-rendering:crispEdges;" transform="matrix(1,0,0,1,0,0)" clip-path="url(#_285439052817021clip-0)"/><g transform="matrix(1,0,0,1,0,0)"><text x="432.67" y="715.52" style="fill: rgb(64,64,64); fill-opacity: 1.0; font-family: Tahoma; font-size: 12px;" clip-path="url(#_285439052817021clip-0)">-1,5</text></g><line x1="443.17" y1="701" x2="443.17" y2="699" style="stroke-width: 0.5;stroke: rgb(128,128,128);stroke-opacity: 1.0;stroke-linecap: square;shape-rendering:crispEdges;" transform="matrix(1,0,0,1,0,0)" clip-path="url(#_285439052817021clip-0)"/><g transform="matrix(1,0,0,1,0,0)"><text x="500.08" y="715.52" style="fill: rgb(64,64,64); fill-opacity: 1.0; font-family: Tahoma; font-size: 12px;" clip-path="url(#_285439052817021clip-0)">-1,0</text></g><line x1="510.58" y1="701" x2="510.58" y2="699" style="stroke-width: 0.5;stroke: rgb(128,128,128);stroke-opacity: 1.0;stroke-linecap: square;shape-rendering:crispEdges;" transform="matrix(1,0,0,1,0,0)" clip-path="url(#_285439052817021clip-0)"/><g transform="matrix(1,0,0,1,0,0)"><text x="567.49" y="715.52" style="fill: rgb(64,64,64); fill-opacity: 1.0; font-family: Tahoma; font-size: 12px;" clip-path="url(#_285439052817021clip-0)">-0,5</text></g><line x1="577.99" y1="701" x2="577.99" y2="699" style="stroke-width: 0.5;stroke: rgb(128,128,128);stroke-opacity: 1.0;stroke-linecap: square;shape-rendering:crispEdges;" transform="matrix(1,0,0,1,0,0)" clip-path="url(#_285439052817021clip-0)"/><g transform="matrix(1,0,0,1,0,0)"><text x="636.91" y="715.52" style="fill: rgb(64,64,64); fill-opacity: 1.0; font-family: Tahoma; font-size: 12px;" clip-path="url(#_285439052817021clip-0)">0,0</text></g><line x1="645.41" y1="701" x2="645.41" y2="699" style="stroke-width: 0.5;stroke: rgb(128,128,128);stroke-opacity: 1.0;stroke-linecap: square;shape-rendering:crispEdges;" transform="matrix(1,0,0,1,0,0)" clip-path="url(#_285439052817021clip-0)"/><g transform="matrix(1,0,0,1,0,0)"><text x="704.32" y="715.52" style="fill: rgb(64,64,64); fill-opacity: 1.0; font-family: Tahoma; font-size: 12px;" clip-path="url(#_285439052817021clip-0)">0,5</text></g><line x1="712.82" y1="701" x2="712.82" y2="699" style="stroke-width: 0.5;stroke: rgb(128,128,128);stroke-opacity: 1.0;stroke-linecap: square;shape-rendering:crispEdges;" transform="matrix(1,0,0,1,0,0)" clip-path="url(#_285439052817021clip-0)"/><g transform="matrix(1,0,0,1,0,0)"><text x="771.74" y="715.52" style="fill: rgb(64,64,64); fill-opacity: 1.0; font-family: Tahoma; font-size: 12px;" clip-path="url(#_285439052817021clip-0)">1,0</text></g><line x1="780.24" y1="701" x2="780.24" y2="699" style="stroke-width: 0.5;stroke: rgb(128,128,128);stroke-opacity: 1.0;stroke-linecap: square;shape-rendering:crispEdges;" transform="matrix(1,0,0,1,0,0)" clip-path="url(#_285439052817021clip-0)"/><g transform="matrix(1,0,0,1,0,0)"><text x="839.15" y="715.52" style="fill: rgb(64,64,64); fill-opacity: 1.0; font-family: Tahoma; font-size: 12px;" clip-path="url(#_285439052817021clip-0)">1,5</text></g><line x1="847.65" y1="701" x2="847.65" y2="699" style="stroke-width: 0.5;stroke: rgb(128,128,128);stroke-opacity: 1.0;stroke-linecap: square;shape-rendering:crispEdges;" transform="matrix(1,0,0,1,0,0)" clip-path="url(#_285439052817021clip-0)"/><g transform="matrix(1,0,0,1,0,0)"><text x="906.57" y="715.52" style="fill: rgb(64,64,64); fill-opacity: 1.0; font-family: Tahoma; font-size: 12px;" clip-path="url(#_285439052817021clip-0)">2,0</text></g><line x1="915.07" y1="701" x2="915.07" y2="699" style="stroke-width: 0.5;stroke: rgb(128,128,128);stroke-opacity: 1.0;stroke-linecap: square;shape-rendering:crispEdges;" transform="matrix(1,0,0,1,0,0)" clip-path="url(#_285439052817021clip-0)"/><g transform="matrix(1,0,0,1,0,0)"><text x="973.98" y="715.52" style="fill: rgb(64,64,64); fill-opacity: 1.0; font-family: Tahoma; font-size: 12px;" clip-path="url(#_285439052817021clip-0)">2,5</text></g><line x1="982.48" y1="701" x2="982.48" y2="699" style="stroke-width: 0.5;stroke: rgb(128,128,128);stroke-opacity: 1.0;stroke-linecap: square;shape-rendering:crispEdges;" transform="matrix(1,0,0,1,0,0)" clip-path="url(#_285439052817021clip-0)"/><g transform="matrix(1,0,0,1,0,0)"><text x="1041.4" y="715.52" style="fill: rgb(64,64,64); fill-opacity: 1.0; font-family: Tahoma; font-size: 12px;" clip-path="url(#_285439052817021clip-0)">3,0</text></g><line x1="1049.9" y1="701" x2="1049.9" y2="699" style="stroke-width: 0.5;stroke: rgb(128,128,128);stroke-opacity: 1.0;stroke-linecap: square;shape-rendering:crispEdges;" transform="matrix(1,0,0,1,0,0)" clip-path="url(#_285439052817021clip-0)"/><g transform="matrix(1,0,0,1,0,0)"><text x="1108.81" y="715.52" style="fill: rgb(64,64,64); fill-opacity: 1.0; font-family: Tahoma; font-size: 12px;" clip-path="url(#_285439052817021clip-0)">3,5</text></g><line x1="1117.31" y1="701" x2="1117.31" y2="699" style="stroke-width: 0.5;stroke: rgb(128,128,128);stroke-opacity: 1.0;stroke-linecap: square;shape-rendering:crispEdges;" transform="matrix(1,0,0,1,0,0)" clip-path="url(#_285439052817021clip-0)"/><g transform="matrix(1,0,0,1,0,0)"><text x="556" y="734.59" style="fill: rgb(64,64,64); fill-opacity: 1.0; font-family: Tahoma; font-size: 14px; font-weight: bold;" clip-path="url(#_285439052817021clip-0)">alpha_h (deg)</text></g><line x1="67" y1="35" x2="67" y2="695" style="stroke-width: 0.5;stroke: rgb(128,128,128);stroke-opacity: 1.0;stroke-linecap: square;shape-rendering:crispEdges;" transform="matrix(1,0,0,1,0,0)" clip-path="url(#_285439052817021clip-0)"/><g transform="matrix(1,0,0,1,0,0)"><text x="33" y="693.91" style="fill: rgb(64,64,64); fill-opacity: 1.0; font-family: Tahoma; font-size: 12px;" clip-path="url(#_285439052817021clip-0)">-0,32</text></g><line x1="65" y1="688.89" x2="67" y2="688.89" style="stroke-width: 0.5;stroke: rgb(128,128,128);stroke-opacity: 1.0;stroke-linecap: square;shape-rendering:crispEdges;" transform="matrix(1,0,0,1,0,0)" clip-path="url(#_285439052817021clip-0)"/><g transform="matrix(1,0,0,1,0,0)"><text x="33" y="672.13" style="fill: rgb(64,64,64); fill-opacity: 1.0; font-family: Tahoma; font-size: 12px;" clip-path="url(#_285439052817021clip-0)">-0,30</text></g><line x1="65" y1="667.11" x2="67" y2="667.11" style="stroke-width: 0.5;stroke: rgb(128,128,128);stroke-opacity: 1.0;stroke-linecap: square;shape-rendering:crispEdges;" transform="matrix(1,0,0,1,0,0)" clip-path="url(#_285439052817021clip-0)"/><g transform="matrix(1,0,0,1,0,0)"><text x="33" y="650.35" style="fill: rgb(64,64,64); fill-opacity: 1.0; font-family: Tahoma; font-size: 12px;" clip-path="url(#_285439052817021clip-0)">-0,28</text></g><line x1="65" y1="645.32" x2="67" y2="645.32" style="stroke-width: 0.5;stroke: rgb(128,128,128);stroke-opacity: 1.0;stroke-linecap: square;shape-rendering:crispEdges;" transform="matrix(1,0,0,1,0,0)" clip-path="url(#_285439052817021clip-0)"/><g transform="matrix(1,0,0,1,0,0)"><text x="33" y="628.56" style="fill: rgb(64,64,64); fill-opacity: 1.0; font-family: Tahoma; font-size: 12px;" clip-path="url(#_285439052817021clip-0)">-0,26</text></g><line x1="65" y1="623.54" x2="67" y2="623.54" style="stroke-width: 0.5;stroke: rgb(128,128,128);stroke-opacity: 1.0;stroke-linecap: square;shape-rendering:crispEdges;" transform="matrix(1,0,0,1,0,0)" clip-path="url(#_285439052817021clip-0)"/><g transform="matrix(1,0,0,1,0,0)"><text x="33" y="606.78" style="fill: rgb(64,64,64); fill-opacity: 1.0; font-family: Tahoma; font-size: 12px;" clip-path="url(#_285439052817021clip-0)">-0,24</text></g><line x1="65" y1="601.76" x2="67" y2="601.76" style="stroke-width: 0.5;stroke: rgb(128,128,128);stroke-opacity: 1.0;stroke-linecap: square;shape-rendering:crispEdges;" transform="matrix(1,0,0,1,0,0)" clip-path="url(#_285439052817021clip-0)"/><g transform="matrix(1,0,0,1,0,0)"><text x="33" y="585" style="fill: rgb(64,64,64); fill-opacity: 1.0; font-family: Tahoma; font-size: 12px;" clip-path="url(#_285439052817021clip-0)">-0,22</text></g><line x1="65" y1="579.97" x2="67" y2="579.97" style="stroke-width: 0.5;stroke: rgb(128,128,128);stroke-opacity: 1.0;stroke-linecap: square;shape-rendering:crispEdges;" transform="matrix(1,0,0,1,0,0)" clip-path="url(#_285439052817021clip-0)"/><g transform="matrix(1,0,0,1,0,0)"><text x="33" y="563.21" style="fill: rgb(64,64,64); fill-opacity: 1.0; font-family: Tahoma; font-size: 12px;" clip-path="url(#_285439052817021clip-0)">-0,20</text></g><line x1="65" y1="558.19" x2="67" y2="558.19" style="stroke-width: 0.5;stroke: rgb(128,128,128);stroke-opacity: 1.0;stroke-linecap: square;shape-rendering:crispEdges;" transform="matrix(1,0,0,1,0,0)" clip-path="url(#_285439052817021clip-0)"/><g transform="matrix(1,0,0,1,0,0)"><text x="33" y="541.43" style="fill: rgb(64,64,64); fill-opacity: 1.0; font-family: Tahoma; font-size: 12px;" clip-path="url(#_285439052817021clip-0)">-0,18</text></g><line x1="65" y1="536.41" x2="67" y2="536.41" style="stroke-width: 0.5;stroke: rgb(128,128,128);stroke-opacity: 1.0;stroke-linecap: square;shape-rendering:crispEdges;" transform="matrix(1,0,0,1,0,0)" clip-path="url(#_285439052817021clip-0)"/><g transform="matrix(1,0,0,1,0,0)"><text x="33" y="519.65" style="fill: rgb(64,64,64); fill-opacity: 1.0; font-family: Tahoma; font-size: 12px;" clip-path="url(#_285439052817021clip-0)">-0,16</text></g><line x1="65" y1="514.62" x2="67" y2="514.62" style="stroke-width: 0.5;stroke: rgb(128,128,128);stroke-opacity: 1.0;stroke-linecap: square;shape-rendering:crispEdges;" transform="matrix(1,0,0,1,0,0)" clip-path="url(#_285439052817021clip-0)"/><g transform="matrix(1,0,0,1,0,0)"><text x="33" y="497.86" style="fill: rgb(64,64,64); fill-opacity: 1.0; font-family: Tahoma; font-size: 12px;" clip-path="url(#_285439052817021clip-0)">-0,14</text></g><line x1="65" y1="492.84" x2="67" y2="492.84" style="stroke-width: 0.5;stroke: rgb(128,128,128);stroke-opacity: 1.0;stroke-linecap: square;shape-rendering:crispEdges;" transform="matrix(1,0,0,1,0,0)" clip-path="url(#_285439052817021clip-0)"/><g transform="matrix(1,0,0,1,0,0)"><text x="33" y="476.08" style="fill: rgb(64,64,64); fill-opacity: 1.0; font-family: Tahoma; font-size: 12px;" clip-path="url(#_285439052817021clip-0)">-0,12</text></g><line x1="65" y1="471.06" x2="67" y2="471.06" style="stroke-width: 0.5;stroke: rgb(128,128,128);stroke-opacity: 1.0;stroke-linecap: square;shape-rendering:crispEdges;" transform="matrix(1,0,0,1,0,0)" clip-path="url(#_285439052817021clip-0)"/><g transform="matrix(1,0,0,1,0,0)"><text x="33" y="454.3" style="fill: rgb(64,64,64); fill-opacity: 1.0; font-family: Tahoma; font-size: 12px;" clip-path="url(#_285439052817021clip-0)">-0,10</text></g><line x1="65" y1="449.28" x2="67" y2="449.28" style="stroke-width: 0.5;stroke: rgb(128,128,128);stroke-opacity: 1.0;stroke-linecap: square;shape-rendering:crispEdges;" transform="matrix(1,0,0,1,0,0)" clip-path="url(#_285439052817021clip-0)"/><g transform="matrix(1,0,0,1,0,0)"><text x="33" y="432.51" style="fill: rgb(64,64,64); fill-opacity: 1.0; font-family: Tahoma; font-size: 12px;" clip-path="url(#_285439052817021clip-0)">-0,08</text></g><line x1="65" y1="427.49" x2="67" y2="427.49" style="stroke-width: 0.5;stroke: rgb(128,128,128);stroke-opacity: 1.0;stroke-linecap: square;shape-rendering:crispEdges;" transform="matrix(1,0,0,1,0,0)" clip-path="url(#_285439052817021clip-0)"/><g transform="matrix(1,0,0,1,0,0)"><text x="33" y="410.73" style="fill: rgb(64,64,64); fill-opacity: 1.0; font-family: Tahoma; font-size: 12px;" clip-path="url(#_285439052817021clip-0)">-0,06</text></g><line x1="65" y1="405.71" x2="67" y2="405.71" style="stroke-width: 0.5;stroke: rgb(128,128,128);stroke-opacity: 1.0;stroke-linecap: square;shape-rendering:crispEdges;" transform="matrix(1,0,0,1,0,0)" clip-path="url(#_285439052817021clip-0)"/><g transform="matrix(1,0,0,1,0,0)"><text x="33" y="388.95" style="fill: rgb(64,64,64); fill-opacity: 1.0; font-family: Tahoma; font-size: 12px;" clip-path="url(#_285439052817021clip-0)">-0,04</text></g><line x1="65" y1="383.93" x2="67" y2="383.93" style="stroke-width: 0.5;stroke: rgb(128,128,128);stroke-opacity: 1.0;stroke-linecap: square;shape-rendering:crispEdges;" transform="matrix(1,0,0,1,0,0)" clip-path="url(#_285439052817021clip-0)"/><g transform="matrix(1,0,0,1,0,0)"><text x="33" y="367.16" style="fill: rgb(64,64,64); fill-opacity: 1.0; font-family: Tahoma; font-size: 12px;" clip-path="url(#_285439052817021clip-0)">-0,02</text></g><line x1="65" y1="362.14" x2="67" y2="362.14" style="stroke-width: 0.5;stroke: rgb(128,128,128);stroke-opacity: 1.0;stroke-linecap: square;shape-rendering:crispEdges;" transform="matrix(1,0,0,1,0,0)" clip-path="url(#_285439052817021clip-0)"/><g transform="matrix(1,0,0,1,0,0)"><text x="38" y="345.38" style="fill: rgb(64,64,64); fill-opacity: 1.0; font-family: Tahoma; font-size: 12px;" clip-path="url(#_285439052817021clip-0)">0,00</text></g><line x1="65" y1="340.36" x2="67" y2="340.36" style="stroke-width: 0.5;stroke: rgb(128,128,128);stroke-opacity: 1.0;stroke-linecap: square;shape-rendering:crispEdges;" transform="matrix(1,0,0,1,0,0)" clip-path="url(#_285439052817021clip-0)"/><g transform="matrix(1,0,0,1,0,0)"><text x="38" y="323.6" style="fill: rgb(64,64,64); fill-opacity: 1.0; font-family: Tahoma; font-size: 12px;" clip-path="url(#_285439052817021clip-0)">0,02</text></g><line x1="65" y1="318.58" x2="67" y2="318.58" style="stroke-width: 0.5;stroke: rgb(128,128,128);stroke-opacity: 1.0;stroke-linecap: square;shape-rendering:crispEdges;" transform="matrix(1,0,0,1,0,0)" clip-path="url(#_285439052817021clip-0)"/><g transform="matrix(1,0,0,1,0,0)"><text x="38" y="301.82" style="fill: rgb(64,64,64); fill-opacity: 1.0; font-family: Tahoma; font-size: 12px;" clip-path="url(#_285439052817021clip-0)">0,04</text></g><line x1="65" y1="296.79" x2="67" y2="296.79" style="stroke-width: 0.5;stroke: rgb(128,128,128);stroke-opacity: 1.0;stroke-linecap: square;shape-rendering:crispEdges;" transform="matrix(1,0,0,1,0,0)" clip-path="url(#_285439052817021clip-0)"/><g transform="matrix(1,0,0,1,0,0)"><text x="38" y="280.03" style="fill: rgb(64,64,64); fill-opacity: 1.0; font-family: Tahoma; font-size: 12px;" clip-path="url(#_285439052817021clip-0)">0,06</text></g><line x1="65" y1="275.01" x2="67" y2="275.01" style="stroke-width: 0.5;stroke: rgb(128,128,128);stroke-opacity: 1.0;stroke-linecap: square;shape-rendering:crispEdges;" transform="matrix(1,0,0,1,0,0)" clip-path="url(#_285439052817021clip-0)"/><g transform="matrix(1,0,0,1,0,0)"><text x="38" y="258.25" style="fill: rgb(64,64,64); fill-opacity: 1.0; font-family: Tahoma; font-size: 12px;" clip-path="url(#_285439052817021clip-0)">0,08</text></g><line x1="65" y1="253.23" x2="67" y2="253.23" style="stroke-width: 0.5;stroke: rgb(128,128,128);stroke-opacity: 1.0;stroke-linecap: square;shape-rendering:crispEdges;" transform="matrix(1,0,0,1,0,0)" clip-path="url(#_285439052817021clip-0)"/><g transform="matrix(1,0,0,1,0,0)"><text x="38" y="236.47" style="fill: rgb(64,64,64); fill-opacity: 1.0; font-family: Tahoma; font-size: 12px;" clip-path="url(#_285439052817021clip-0)">0,10</text></g><line x1="65" y1="231.44" x2="67" y2="231.44" style="stroke-width: 0.5;stroke: rgb(128,128,128);stroke-opacity: 1.0;stroke-linecap: square;shape-rendering:crispEdges;" transform="matrix(1,0,0,1,0,0)" clip-path="url(#_285439052817021clip-0)"/><g transform="matrix(1,0,0,1,0,0)"><text x="38" y="214.68" style="fill: rgb(64,64,64); fill-opacity: 1.0; font-family: Tahoma; font-size: 12px;" clip-path="url(#_285439052817021clip-0)">0,12</text></g><line x1="65" y1="209.66" x2="67" y2="209.66" style="stroke-width: 0.5;stroke: rgb(128,128,128);stroke-opacity: 1.0;stroke-linecap: square;shape-rendering:crispEdges;" transform="matrix(1,0,0,1,0,0)" clip-path="url(#_285439052817021clip-0)"/><g transform="matrix(1,0,0,1,0,0)"><text x="38" y="192.9" style="fill: rgb(64,64,64); fill-opacity: 1.0; font-family: Tahoma; font-size: 12px;" clip-path="url(#_285439052817021clip-0)">0,14</text></g><line x1="65" y1="187.88" x2="67" y2="187.88" style="stroke-width: 0.5;stroke: rgb(128,128,128);stroke-opacity: 1.0;stroke-linecap: square;shape-rendering:crispEdges;" transform="matrix(1,0,0,1,0,0)" clip-path="url(#_285439052817021clip-0)"/><g transform="matrix(1,0,0,1,0,0)"><text x="38" y="171.12" style="fill: rgb(64,64,64); fill-opacity: 1.0; font-family: Tahoma; font-size: 12px;" clip-path="url(#_285439052817021clip-0)">0,16</text></g><line x1="65" y1="166.1" x2="67" y2="166.1" style="stroke-width: 0.5;stroke: rgb(128,128,128);stroke-opacity: 1.0;stroke-linecap: square;shape-rendering:crispEdges;" transform="matrix(1,0,0,1,0,0)" clip-path="url(#_285439052817021clip-0)"/><g transform="matrix(1,0,0,1,0,0)"><text x="38" y="149.33" style="fill: rgb(64,64,64); fill-opacity: 1.0; font-family: Tahoma; font-size: 12px;" clip-path="url(#_285439052817021clip-0)">0,18</text></g><line x1="65" y1="144.31" x2="67" y2="144.31" style="stroke-width: 0.5;stroke: rgb(128,128,128);stroke-opacity: 1.0;stroke-linecap: square;shape-rendering:crispEdges;" transform="matrix(1,0,0,1,0,0)" clip-path="url(#_285439052817021clip-0)"/><g transform="matrix(1,0,0,1,0,0)"><text x="38" y="127.55" style="fill: rgb(64,64,64); fill-opacity: 1.0; font-family: Tahoma; font-size: 12px;" clip-path="url(#_285439052817021clip-0)">0,20</text></g><line x1="65" y1="122.53" x2="67" y2="122.53" style="stroke-width: 0.5;stroke: rgb(128,128,128);stroke-opacity: 1.0;stroke-linecap: square;shape-rendering:crispEdges;" transform="matrix(1,0,0,1,0,0)" clip-path="url(#_285439052817021clip-0)"/><g transform="matrix(1,0,0,1,0,0)"><text x="38" y="105.77" style="fill: rgb(64,64,64); fill-opacity: 1.0; font-family: Tahoma; font-size: 12px;" clip-path="url(#_285439052817021clip-0)">0,22</text></g><line x1="65" y1="100.75" x2="67" y2="100.75" style="stroke-width: 0.5;stroke: rgb(128,128,128);stroke-opacity: 1.0;stroke-linecap: square;shape-rendering:crispEdges;" transform="matrix(1,0,0,1,0,0)" clip-path="url(#_285439052817021clip-0)"/><g transform="matrix(1,0,0,1,0,0)"><text x="38" y="83.98" style="fill: rgb(64,64,64); fill-opacity: 1.0; font-family: Tahoma; font-size: 12px;" clip-path="url(#_285439052817021clip-0)">0,24</text></g><line x1="65" y1="78.96" x2="67" y2="78.96" style="stroke-width: 0.5;stroke: rgb(128,128,128);stroke-opacity: 1.0;stroke-linecap: square;shape-rendering:crispEdges;" transform="matrix(1,0,0,1,0,0)" clip-path="url(#_285439052817021clip-0)"/><g transform="matrix(1,0,0,1,0,0)"><text x="38" y="62.2" style="fill: rgb(64,64,64); fill-opacity: 1.0; font-family: Tahoma; font-size: 12px;" clip-path="url(#_285439052817021clip-0)">0,26</text></g><line x1="65" y1="57.18" x2="67" y2="57.18" style="stroke-width: 0.5;stroke: rgb(128,128,128);stroke-opacity: 1.0;stroke-linecap: square;shape-rendering:crispEdges;" transform="matrix(1,0,0,1,0,0)" clip-path="url(#_285439052817021clip-0)"/><g transform="matrix(1,0,0,1,0,0)"><text x="38" y="40.42" style="fill: rgb(64,64,64); fill-opacity: 1.0; font-family: Tahoma; font-size: 12px;" clip-path="url(#_285439052817021clip-0)">0,28</text></g><line x1="65" y1="35.4" x2="67" y2="35.4" style="stroke-width: 0.5;stroke: rgb(128,128,128);stroke-opacity: 1.0;stroke-linecap: square;shape-rendering:crispEdges;" transform="matrix(1,0,0,1,0,0)" clip-path="url(#_285439052817021clip-0)"/><g style="fill: rgb(64,64,64); fill-opacity: 1.0; stroke: none" transform="matrix(0,-1,1,0,-345.5,384.5)" clip-path="url(#_285439052817021clip-1)"><path d="M 14.44 370.81 Q 12.16 370.81 10.8 369.42 Q 9.45 368.03 9.45 365.53 Q 9.45 363.11 10.8 361.67 Q 12.16 360.23 14.45 360.23 Q 15.06 360.23 15.55 360.3 Q 16.03 360.37 16.47 360.48 Q 16.83 360.59 17.23 360.77 Q 17.64 360.95 17.89 361.08 L 17.89 363.5 L 17.64 363.5 Q 17.45 363.34 17.17 363.12 Q 16.89 362.89 16.53 362.67 Q 16.17 362.45 15.75 362.3 Q 15.33 362.14 14.86 362.14 Q 14.31 362.14 13.84 362.31 Q 13.38 362.48 12.97 362.92 Q 12.58 363.31 12.34 363.98 Q 12.09 364.64 12.09 365.53 Q 12.09 366.48 12.35 367.13 Q 12.61 367.78 13.02 368.17 Q 13.41 368.56 13.9 368.73 Q 14.39 368.91 14.88 368.91 Q 15.38 368.91 15.84 368.73 Q 16.3 368.56 16.61 368.36 Q 16.95 368.14 17.21 367.92 Q 17.47 367.7 17.66 367.55 L 17.89 367.55 L 17.89 369.94 Q 17.61 370.06 17.24 370.23 Q 16.88 370.39 16.48 370.51 Q 16 370.66 15.59 370.73 Q 15.17 370.81 14.44 370.81 Z  M 26.19 370.61 L 19.39 370.61 L 19.39 360.44 L 21.95 360.44 L 21.95 368.67 L 26.19 368.67 L 26.19 370.61 Z "/></g><line x1="106.09" y1="35" x2="106.09" y2="695" style="stroke-width: 0.5;stroke: rgb(192,192,192);stroke-opacity: 1.0;stroke-linejoin: bevel;stroke-dasharray: 2.0, 2.0;shape-rendering:crispEdges;" transform="matrix(1,0,0,1,0,0)" clip-path="url(#_285439052817021clip-2)"/><line x1="173.51" y1="35" x2="173.51" y2="695" style="stroke-width: 0.5;stroke: rgb(192,192,192);stroke-opacity: 1.0;stroke-linejoin: bevel;stroke-dasharray: 2.0, 2.0;shape-rendering:crispEdges;" transform="matrix(1,0,0,1,0,0)" clip-path="url(#_285439052817021clip-2)"/><line x1="240.92" y1="35" x2="240.92" y2="695" style="stroke-width: 0.5;stroke: rgb(192,192,192);stroke-opacity: 1.0;stroke-linejoin: bevel;stroke-dasharray: 2.0, 2.0;shape-rendering:crispEdges;" transform="matrix(1,0,0,1,0,0)" clip-path="url(#_285439052817021clip-2)"/><line x1="308.34" y1="35" x2="308.34" y2="695" style="stroke-width: 0.5;stroke: rgb(192,192,192);stroke-opacity: 1.0;stroke-linejoin: bevel;stroke-dasharray: 2.0, 2.0;shape-rendering:crispEdges;" transform="matrix(1,0,0,1,0,0)" clip-path="url(#_285439052817021clip-2)"/><line x1="375.75" y1="35" x2="375.75" y2="695" style="stroke-width: 0.5;stroke: rgb(192,192,192);stroke-opacity: 1.0;stroke-linejoin: bevel;stroke-dasharray: 2.0, 2.0;shape-rendering:crispEdges;" transform="matrix(1,0,0,1,0,0)" clip-path="url(#_285439052817021clip-2)"/><line x1="443.17" y1="35" x2="443.17" y2="695" style="stroke-width: 0.5;stroke: rgb(192,192,192);stroke-opacity: 1.0;stroke-linejoin: bevel;stroke-dasharray: 2.0, 2.0;shape-rendering:crispEdges;" transform="matrix(1,0,0,1,0,0)" clip-path="url(#_285439052817021clip-2)"/><line x1="510.58" y1="35" x2="510.58" y2="695" style="stroke-width: 0.5;stroke: rgb(192,192,192);stroke-opacity: 1.0;stroke-linejoin: bevel;stroke-dasharray: 2.0, 2.0;shape-rendering:crispEdges;" transform="matrix(1,0,0,1,0,0)" clip-path="url(#_285439052817021clip-2)"/><line x1="577.99" y1="35" x2="577.99" y2="695" style="stroke-width: 0.5;stroke: rgb(192,192,192);stroke-opacity: 1.0;stroke-linejoin: bevel;stroke-dasharray: 2.0, 2.0;shape-rendering:crispEdges;" transform="matrix(1,0,0,1,0,0)" clip-path="url(#_285439052817021clip-2)"/><line x1="645.41" y1="35" x2="645.41" y2="695" style="stroke-width: 0.5;stroke: rgb(192,192,192);stroke-opacity: 1.0;stroke-linejoin: bevel;stroke-dasharray: 2.0, 2.0;shape-rendering:crispEdges;" transform="matrix(1,0,0,1,0,0)" clip-path="url(#_285439052817021clip-2)"/><line x1="712.82" y1="35" x2="712.82" y2="695" style="stroke-width: 0.5;stroke: rgb(192,192,192);stroke-opacity: 1.0;stroke-linejoin: bevel;stroke-dasharray: 2.0, 2.0;shape-rendering:crispEdges;" transform="matrix(1,0,0,1,0,0)" clip-path="url(#_285439052817021clip-2)"/><line x1="780.24" y1="35" x2="780.24" y2="695" style="stroke-width: 0.5;stroke: rgb(192,192,192);stroke-opacity: 1.0;stroke-linejoin: bevel;stroke-dasharray: 2.0, 2.0;shape-rendering:crispEdges;" transform="matrix(1,0,0,1,0,0)" clip-path="url(#_285439052817021clip-2)"/><line x1="847.65" y1="35" x2="847.65" y2="695" style="stroke-width: 0.5;stroke: rgb(192,192,192);stroke-opacity: 1.0;stroke-linejoin: bevel;stroke-dasharray: 2.0, 2.0;shape-rendering:crispEdges;" transform="matrix(1,0,0,1,0,0)" clip-path="url(#_285439052817021clip-2)"/><line x1="915.07" y1="35" x2="915.07" y2="695" style="stroke-width: 0.5;stroke: rgb(192,192,192);stroke-opacity: 1.0;stroke-linejoin: bevel;stroke-dasharray: 2.0, 2.0;shape-rendering:crispEdges;" transform="matrix(1,0,0,1,0,0)" clip-path="url(#_285439052817021clip-2)"/><line x1="982.48" y1="35" x2="982.48" y2="695" style="stroke-width: 0.5;stroke: rgb(192,192,192);stroke-opacity: 1.0;stroke-linejoin: bevel;stroke-dasharray: 2.0, 2.0;shape-rendering:crispEdges;" transform="matrix(1,0,0,1,0,0)" clip-path="url(#_285439052817021clip-2)"/><line x1="1049.9" y1="35" x2="1049.9" y2="695" style="stroke-width: 0.5;stroke: rgb(192,192,192);stroke-opacity: 1.0;stroke-linejoin: bevel;stroke-dasharray: 2.0, 2.0;shape-rendering:crispEdges;" transform="matrix(1,0,0,1,0,0)" clip-path="url(#_285439052817021clip-2)"/><line x1="1117.31" y1="35" x2="1117.31" y2="695" style="stroke-width: 0.5;stroke: rgb(192,192,192);stroke-opacity: 1.0;stroke-linejoin: bevel;stroke-dasharray: 2.0, 2.0;shape-rendering:crispEdges;" transform="matrix(1,0,0,1,0,0)" clip-path="url(#_285439052817021clip-2)"/><line x1="71" y1="688.89" x2="1140" y2="688.89" style="stroke-width: 0.5;stroke: rgb(192,192,192);stroke-opacity: 1.0;stroke-linejoin: bevel;stroke-dasharray: 2.0, 2.0;shape-rendering:crispEdges;" transform="matrix(1,0,0,1,0,0)" clip-path="url(#_285439052817021clip-2)"/><line x1="71" y1="667.11" x2="1140" y2="667.11" style="stroke-width: 0.5;stroke: rgb(192,192,192);stroke-opacity: 1.0;stroke-linejoin: bevel;stroke-dasharray: 2.0, 2.0;shape-rendering:crispEdges;" transform="matrix(1,0,0,1,0,0)" clip-path="url(#_285439052817021clip-2)"/><line x1="71" y1="645.32" x2="1140" y2="645.32" style="stroke-width: 0.5;stroke: rgb(192,192,192);stroke-opacity: 1.0;stroke-linejoin: bevel;stroke-dasharray: 2.0, 2.0;shape-rendering:crispEdges;" transform="matrix(1,0,0,1,0,0)" clip-path="url(#_285439052817021clip-2)"/><line x1="71" y1="623.54" x2="1140" y2="623.54" style="stroke-width: 0.5;stroke: rgb(192,192,192);stroke-opacity: 1.0;stroke-linejoin: bevel;stroke-dasharray: 2.0, 2.0;shape-rendering:crispEdges;" transform="matrix(1,0,0,1,0,0)" clip-path="url(#_285439052817021clip-2)"/><line x1="71" y1="601.76" x2="1140" y2="601.76" style="stroke-width: 0.5;stroke: rgb(192,192,192);stroke-opacity: 1.0;stroke-linejoin: bevel;stroke-dasharray: 2.0, 2.0;shape-rendering:crispEdges;" transform="matrix(1,0,0,1,0,0)" clip-path="url(#_285439052817021clip-2)"/><line x1="71" y1="579.97" x2="1140" y2="579.97" style="stroke-width: 0.5;stroke: rgb(192,192,192);stroke-opacity: 1.0;stroke-linejoin: bevel;stroke-dasharray: 2.0, 2.0;shape-rendering:crispEdges;" transform="matrix(1,0,0,1,0,0)" clip-path="url(#_285439052817021clip-2)"/><line x1="71" y1="558.19" x2="1140" y2="558.19" style="stroke-width: 0.5;stroke: rgb(192,192,192);stroke-opacity: 1.0;stroke-linejoin: bevel;stroke-dasharray: 2.0, 2.0;shape-rendering:crispEdges;" transform="matrix(1,0,0,1,0,0)" clip-path="url(#_285439052817021clip-2)"/><line x1="71" y1="536.41" x2="1140" y2="536.41" style="stroke-width: 0.5;stroke: rgb(192,192,192);stroke-opacity: 1.0;stroke-linejoin: bevel;stroke-dasharray: 2.0, 2.0;shape-rendering:crispEdges;" transform="matrix(1,0,0,1,0,0)" clip-path="url(#_285439052817021clip-2)"/><line x1="71" y1="514.62" x2="1140" y2="514.62" style="stroke-width: 0.5;stroke: rgb(192,192,192);stroke-opacity: 1.0;stroke-linejoin: bevel;stroke-dasharray: 2.0, 2.0;shape-rendering:crispEdges;" transform="matrix(1,0,0,1,0,0)" clip-path="url(#_285439052817021clip-2)"/><line x1="71" y1="492.84" x2="1140" y2="492.84" style="stroke-width: 0.5;stroke: rgb(192,192,192);stroke-opacity: 1.0;stroke-linejoin: bevel;stroke-dasharray: 2.0, 2.0;shape-rendering:crispEdges;" transform="matrix(1,0,0,1,0,0)" clip-path="url(#_285439052817021clip-2)"/><line x1="71" y1="471.06" x2="1140" y2="471.06" style="stroke-width: 0.5;stroke: rgb(192,192,192);stroke-opacity: 1.0;stroke-linejoin: bevel;stroke-dasharray: 2.0, 2.0;shape-rendering:crispEdges;" transform="matrix(1,0,0,1,0,0)" clip-path="url(#_285439052817021clip-2)"/><line x1="71" y1="449.28" x2="1140" y2="449.28" style="stroke-width: 0.5;stroke: rgb(192,192,192);stroke-opacity: 1.0;stroke-linejoin: bevel;stroke-dasharray: 2.0, 2.0;shape-rendering:crispEdges;" transform="matrix(1,0,0,1,0,0)" clip-path="url(#_285439052817021clip-2)"/><line x1="71" y1="427.49" x2="1140" y2="427.49" style="stroke-width: 0.5;stroke: rgb(192,192,192);stroke-opacity: 1.0;stroke-linejoin: bevel;stroke-dasharray: 2.0, 2.0;shape-rendering:crispEdges;" transform="matrix(1,0,0,1,0,0)" clip-path="url(#_285439052817021clip-2)"/><line x1="71" y1="405.71" x2="1140" y2="405.71" style="stroke-width: 0.5;stroke: rgb(192,192,192);stroke-opacity: 1.0;stroke-linejoin: bevel;stroke-dasharray: 2.0, 2.0;shape-rendering:crispEdges;" transform="matrix(1,0,0,1,0,0)" clip-path="url(#_285439052817021clip-2)"/><line x1="71" y1="383.93" x2="1140" y2="383.93" style="stroke-width: 0.5;stroke: rgb(192,192,192);stroke-opacity: 1.0;stroke-linejoin: bevel;stroke-dasharray: 2.0, 2.0;shape-rendering:crispEdges;" transform="matrix(1,0,0,1,0,0)" clip-path="url(#_285439052817021clip-2)"/><line x1="71" y1="362.14" x2="1140" y2="362.14" style="stroke-width: 0.5;stroke: rgb(192,192,192);stroke-opacity: 1.0;stroke-linejoin: bevel;stroke-dasharray: 2.0, 2.0;shape-rendering:crispEdges;" transform="matrix(1,0,0,1,0,0)" clip-path="url(#_285439052817021clip-2)"/><line x1="71" y1="340.36" x2="1140" y2="340.36" style="stroke-width: 0.5;stroke: rgb(192,192,192);stroke-opacity: 1.0;stroke-linejoin: bevel;stroke-dasharray: 2.0, 2.0;shape-rendering:crispEdges;" transform="matrix(1,0,0,1,0,0)" clip-path="url(#_285439052817021clip-2)"/><line x1="71" y1="318.58" x2="1140" y2="318.58" style="stroke-width: 0.5;stroke: rgb(192,192,192);stroke-opacity: 1.0;stroke-linejoin: bevel;stroke-dasharray: 2.0, 2.0;shape-rendering:crispEdges;" transform="matrix(1,0,0,1,0,0)" clip-path="url(#_285439052817021clip-2)"/><line x1="71" y1="296.79" x2="1140" y2="296.79" style="stroke-width: 0.5;stroke: rgb(192,192,192);stroke-opacity: 1.0;stroke-linejoin: bevel;stroke-dasharray: 2.0, 2.0;shape-rendering:crispEdges;" transform="matrix(1,0,0,1,0,0)" clip-path="url(#_285439052817021clip-2)"/><line x1="71" y1="275.01" x2="1140" y2="275.01" style="stroke-width: 0.5;stroke: rgb(192,192,192);stroke-opacity: 1.0;stroke-linejoin: bevel;stroke-dasharray: 2.0, 2.0;shape-rendering:crispEdges;" transform="matrix(1,0,0,1,0,0)" clip-path="url(#_285439052817021clip-2)"/><line x1="71" y1="253.23" x2="1140" y2="253.23" style="stroke-width: 0.5;stroke: rgb(192,192,192);stroke-opacity: 1.0;stroke-linejoin: bevel;stroke-dasharray: 2.0, 2.0;shape-rendering:crispEdges;" transform="matrix(1,0,0,1,0,0)" clip-path="url(#_285439052817021clip-2)"/><line x1="71" y1="231.44" x2="1140" y2="231.44" style="stroke-width: 0.5;stroke: rgb(192,192,192);stroke-opacity: 1.0;stroke-linejoin: bevel;stroke-dasharray: 2.0, 2.0;shape-rendering:crispEdges;" transform="matrix(1,0,0,1,0,0)" clip-path="url(#_285439052817021clip-2)"/><line x1="71" y1="209.66" x2="1140" y2="209.66" style="stroke-width: 0.5;stroke: rgb(192,192,192);stroke-opacity: 1.0;stroke-linejoin: bevel;stroke-dasharray: 2.0, 2.0;shape-rendering:crispEdges;" transform="matrix(1,0,0,1,0,0)" clip-path="url(#_285439052817021clip-2)"/><line x1="71" y1="187.88" x2="1140" y2="187.88" style="stroke-width: 0.5;stroke: rgb(192,192,192);stroke-opacity: 1.0;stroke-linejoin: bevel;stroke-dasharray: 2.0, 2.0;shape-rendering:crispEdges;" transform="matrix(1,0,0,1,0,0)" clip-path="url(#_285439052817021clip-2)"/><line x1="71" y1="166.1" x2="1140" y2="166.1" style="stroke-width: 0.5;stroke: rgb(192,192,192);stroke-opacity: 1.0;stroke-linejoin: bevel;stroke-dasharray: 2.0, 2.0;shape-rendering:crispEdges;" transform="matrix(1,0,0,1,0,0)" clip-path="url(#_285439052817021clip-2)"/><line x1="71" y1="144.31" x2="1140" y2="144.31" style="stroke-width: 0.5;stroke: rgb(192,192,192);stroke-opacity: 1.0;stroke-linejoin: bevel;stroke-dasharray: 2.0, 2.0;shape-rendering:crispEdges;" transform="matrix(1,0,0,1,0,0)" clip-path="url(#_285439052817021clip-2)"/><line x1="71" y1="122.53" x2="1140" y2="122.53" style="stroke-width: 0.5;stroke: rgb(192,192,192);stroke-opacity: 1.0;stroke-linejoin: bevel;stroke-dasharray: 2.0, 2.0;shape-rendering:crispEdges;" transform="matrix(1,0,0,1,0,0)" clip-path="url(#_285439052817021clip-2)"/><line x1="71" y1="100.75" x2="1140" y2="100.75" style="stroke-width: 0.5;stroke: rgb(192,192,192);stroke-opacity: 1.0;stroke-linejoin: bevel;stroke-dasharray: 2.0, 2.0;shape-rendering:crispEdges;" transform="matrix(1,0,0,1,0,0)" clip-path="url(#_285439052817021clip-2)"/><line x1="71" y1="78.96" x2="1140" y2="78.96" style="stroke-width: 0.5;stroke: rgb(192,192,192);stroke-opacity: 1.0;stroke-linejoin: bevel;stroke-dasharray: 2.0, 2.0;shape-rendering:crispEdges;" transform="matrix(1,0,0,1,0,0)" clip-path="url(#_285439052817021clip-2)"/><line x1="71" y1="57.18" x2="1140" y2="57.18" style="stroke-width: 0.5;stroke: rgb(192,192,192);stroke-opacity: 1.0;stroke-linejoin: bevel;stroke-dasharray: 2.0, 2.0;shape-rendering:crispEdges;" transform="matrix(1,0,0,1,0,0)" clip-path="url(#_285439052817021clip-2)"/><line x1="71" y1="35.4" x2="1140" y2="35.4" style="stroke-width: 0.5;stroke: rgb(192,192,192);stroke-opacity: 1.0;stroke-linejoin: bevel;stroke-dasharray: 2.0, 2.0;shape-rendering:crispEdges;" transform="matrix(1,0,0,1,0,0)" clip-path="url(#_285439052817021clip-2)"/><line x1="123.22" y1="662.76" x2="167.71" y2="635.29" style="stroke-width: 3.0;stroke: rgb(0,0,0);stroke-opacity: 1.0;stroke-linecap: square;shape-rendering:geometricPrecision;" transform="matrix(1,0,0,1,0,0)" clip-path="url(#_285439052817021clip-2)"/><line x1="167.71" y1="635.29" x2="206.65" y2="611.25" style="stroke-width: 3.0;stroke: rgb(0,0,0);stroke-opacity: 1.0;stroke-linecap: square;shape-rendering:geometricPrecision;" transform="matrix(1,0,0,1,0,0)" clip-path="url(#_285439052817021clip-2)"/><line x1="206.65" y1="611.25" x2="245.44" y2="587.3" style="stroke-width: 3.0;stroke: rgb(0,0,0);stroke-opacity: 1.0;stroke-linecap: square;shape-rendering:geometricPrecision;" transform="matrix(1,0,0,1,0,0)" clip-path="url(#_285439052817021clip-2)"/><line x1="245.44" y1="587.3" x2="284.07" y2="563.45" style="stroke-width: 3.0;stroke: rgb(0,0,0);stroke-opacity: 1.0;stroke-linecap: square;shape-rendering:geometricPrecision;" transform="matrix(1,0,0,1,0,0)" clip-path="url(#_285439052817021clip-2)"/><line x1="284.07" y1="563.45" x2="322.57" y2="539.68" style="stroke-width: 3.0;stroke: rgb(0,0,0);stroke-opacity: 1.0;stroke-linecap: square;shape-rendering:geometricPrecision;" transform="matrix(1,0,0,1,0,0)" clip-path="url(#_285439052817021clip-2)"/><line x1="322.57" y1="539.68" x2="360.93" y2="516" style="stroke-width: 3.0;stroke: rgb(0,0,0);stroke-opacity: 1.0;stroke-linecap: square;shape-rendering:geometricPrecision;" transform="matrix(1,0,0,1,0,0)" clip-path="url(#_285439052817021clip-2)"/><line x1="360.93" y1="516" x2="399.15" y2="492.4" style="stroke-width: 3.0;stroke: rgb(0,0,0);stroke-opacity: 1.0;stroke-linecap: square;shape-rendering:geometricPrecision;" transform="matrix(1,0,0,1,0,0)" clip-path="url(#_285439052817021clip-2)"/><line x1="399.15" y1="492.4" x2="437.25" y2="468.88" style="stroke-width: 3.0;stroke: rgb(0,0,0);stroke-opacity: 1.0;stroke-linecap: square;shape-rendering:geometricPrecision;" transform="matrix(1,0,0,1,0,0)" clip-path="url(#_285439052817021clip-2)"/><line x1="437.25" y1="468.88" x2="475.2" y2="445.45" style="stroke-width: 3.0;stroke: rgb(0,0,0);stroke-opacity: 1.0;stroke-linecap: square;shape-rendering:geometricPrecision;" transform="matrix(1,0,0,1,0,0)" clip-path="url(#_285439052817021clip-2)"/><line x1="475.2" y1="445.45" x2="513.02" y2="422.1" style="stroke-width: 3.0;stroke: rgb(0,0,0);stroke-opacity: 1.0;stroke-linecap: square;shape-rendering:geometricPrecision;" transform="matrix(1,0,0,1,0,0)" clip-path="url(#_285439052817021clip-2)"/><line x1="513.02" y1="422.1" x2="550.71" y2="398.83" style="stroke-width: 3.0;stroke: rgb(0,0,0);stroke-opacity: 1.0;stroke-linecap: square;shape-rendering:geometricPrecision;" transform="matrix(1,0,0,1,0,0)" clip-path="url(#_285439052817021clip-2)"/><line x1="550.71" y1="398.83" x2="588.29" y2="375.63" style="stroke-width: 3.0;stroke: rgb(0,0,0);stroke-opacity: 1.0;stroke-linecap: square;shape-rendering:geometricPrecision;" transform="matrix(1,0,0,1,0,0)" clip-path="url(#_285439052817021clip-2)"/><line x1="588.29" y1="375.63" x2="625.75" y2="352.5" style="stroke-width: 3.0;stroke: rgb(0,0,0);stroke-opacity: 1.0;stroke-linecap: square;shape-rendering:geometricPrecision;" transform="matrix(1,0,0,1,0,0)" clip-path="url(#_285439052817021clip-2)"/><line x1="625.75" y1="352.5" x2="663.07" y2="329.45" style="stroke-width: 3.0;stroke: rgb(0,0,0);stroke-opacity: 1.0;stroke-linecap: square;shape-rendering:geometricPrecision;" transform="matrix(1,0,0,1,0,0)" clip-path="url(#_285439052817021clip-2)"/><line x1="663.07" y1="329.45" x2="700.28" y2="306.48" style="stroke-width: 3.0;stroke: rgb(0,0,0);stroke-opacity: 1.0;stroke-linecap: square;shape-rendering:geometricPrecision;" transform="matrix(1,0,0,1,0,0)" clip-path="url(#_285439052817021clip-2)"/><line x1="700.28" y1="306.48" x2="737.38" y2="283.58" style="stroke-width: 3.0;stroke: rgb(0,0,0);stroke-opacity: 1.0;stroke-linecap: square;shape-rendering:geometricPrecision;" transform="matrix(1,0,0,1,0,0)" clip-path="url(#_285439052817021clip-2)"/><line x1="737.38" y1="283.58" x2="774.37" y2="260.74" style="stroke-width: 3.0;stroke: rgb(0,0,0);stroke-opacity: 1.0;stroke-linecap: square;shape-rendering:geometricPrecision;" transform="matrix(1,0,0,1,0,0)" clip-path="url(#_285439052817021clip-2)"/><line x1="774.37" y1="260.74" x2="811.25" y2="237.97" style="stroke-width: 3.0;stroke: rgb(0,0,0);stroke-opacity: 1.0;stroke-linecap: square;shape-rendering:geometricPrecision;" transform="matrix(1,0,0,1,0,0)" clip-path="url(#_285439052817021clip-2)"/><line x1="811.25" y1="237.97" x2="848.02" y2="215.27" style="stroke-width: 3.0;stroke: rgb(0,0,0);stroke-opacity: 1.0;stroke-linecap: square;shape-rendering:geometricPrecision;" transform="matrix(1,0,0,1,0,0)" clip-path="url(#_285439052817021clip-2)"/><line x1="848.02" y1="215.27" x2="884.91" y2="192.49" style="stroke-width: 3.0;stroke: rgb(0,0,0);stroke-opacity: 1.0;stroke-linecap: square;shape-rendering:geometricPrecision;" transform="matrix(1,0,0,1,0,0)" clip-path="url(#_285439052817021clip-2)"/><line x1="884.91" y1="192.49" x2="923.04" y2="168.95" style="stroke-width: 3.0;stroke: rgb(0,0,0);stroke-opacity: 1.0;stroke-linecap: square;shape-rendering:geometricPrecision;" transform="matrix(1,0,0,1,0,0)" clip-path="url(#_285439052817021clip-2)"/><line x1="923.04" y1="168.95" x2="962.16" y2="144.8" style="stroke-width: 3.0;stroke: rgb(0,0,0);stroke-opacity: 1.0;stroke-linecap: square;shape-rendering:geometricPrecision;" transform="matrix(1,0,0,1,0,0)" clip-path="url(#_285439052817021clip-2)"/><line x1="962.16" y1="144.8" x2="1001.43" y2="120.56" style="stroke-width: 3.0;stroke: rgb(0,0,0);stroke-opacity: 1.0;stroke-linecap: square;shape-rendering:geometricPrecision;" transform="matrix(1,0,0,1,0,0)" clip-path="url(#_285439052817021clip-2)"/><line x1="1001.43" y1="120.56" x2="1040.89" y2="96.19" style="stroke-width: 3.0;stroke: rgb(0,0,0);stroke-opacity: 1.0;stroke-linecap: square;shape-rendering:geometricPrecision;" transform="matrix(1,0,0,1,0,0)" clip-path="url(#_285439052817021clip-2)"/><line x1="1040.89" y1="96.19" x2="1087.78" y2="67.24" style="stroke-width: 3.0;stroke: rgb(0,0,0);stroke-opacity: 1.0;stroke-linecap: square;shape-rendering:geometricPrecision;" transform="matrix(1,0,0,1,0,0)" clip-path="url(#_285439052817021clip-2)"/><rect x="71" y="35" width="1069" height="660" style="stroke-width: 0.5;stroke: rgb(0,0,0);stroke-opacity: 1.0;stroke-linecap: round;stroke-linejoin: round;shape-rendering:crispEdges;; fill: none" transform="matrix(1,0,0,1,0,0)" clip-path="url(#_285439052817021clip-0)"/></svg>
