<!DOCTYPE svg PUBLIC "-//W3C//DTD SVG 1.1//EN" "http://www.w3.org/Graphics/SVG/1.1/DTD/svg11.dtd">
<svg xmlns="http://www.w3.org/2000/svg" xmlns:xlink="http://www.w3.org/1999/xlink" xmlns:jfreesvg="http://www.jfree.org/jfreesvg/svg" width="1000" height="1000" text-rendering="auto" shape-rendering="auto">
<defs><clipPath id="_80059590025300clip-0"><path d="M 0 0 L 1000 0 L 1000 1000 L 0 1000 L 0 0 Z "/></clipPath>
<clipPath id="_80059590025300clip-1"><path d="M 503.5 442.5 L 503.5 1442.5 L -496.5 1442.5 L -496.5 442.5 L 503.5 442.5 Z "/></clipPath>
<clipPath id="_80059590025300clip-2"><path d="M 108 35 L 108 911 L 988 911 L 988 35 Z "/></clipPath>
</defs>
<rect x="0" y="0" width="1000" height="1000" style="fill: rgb(245,245,245); fill-opacity: 1.0" transform="matrix(1,0,0,1,0,0)" clip-path="url(#_80059590025300clip-0)"/><g transform="matrix(1,0,0,1,0,0)"><text x="338.5" y="21.01" style="fill: rgb(0,0,0); fill-opacity: 1.0; font-family: Tahoma; font-size: 20px; font-weight: bold;" clip-path="url(#_80059590025300clip-0)">Canard Planform representation</text></g><rect x="108" y="35" width="880" height="876" style="fill: rgb(240,248,255); fill-opacity: 0.0" transform="matrix(1,0,0,1,0,0)" clip-path="url(#_80059590025300clip-0)"/><line x1="108" y1="915" x2="988" y2="915" style="stroke-width: 0.5;stroke: rgb(128,128,128);stroke-opacity: 1.0;stroke-linecap: square;shape-rendering:crispEdges;" transform="matrix(1,0,0,1,0,0)" clip-path="url(#_80059590025300clip-0)"/><g transform="matrix(1,0,0,1,0,0)"><text x="130.5" y="945.69" style="fill: rgb(64,64,64); fill-opacity: 1.0; font-family: sans-serif; font-size: 25px;" clip-path="url(#_80059590025300clip-0)">0,0</text></g><line x1="148" y1="917" x2="148" y2="915" style="stroke-width: 0.5;stroke: rgb(128,128,128);stroke-opacity: 1.0;stroke-linecap: square;shape-rendering:crispEdges;" transform="matrix(1,0,0,1,0,0)" clip-path="url(#_80059590025300clip-0)"/><g transform="matrix(1,0,0,1,0,0)"><text x="230.5" y="945.69" style="fill: rgb(64,64,64); fill-opacity: 1.0; font-family: sans-serif; font-size: 25px;" clip-path="url(#_80059590025300clip-0)">0,5</text></g><line x1="248" y1="917" x2="248" y2="915" style="stroke-width: 0.5;stroke: rgb(128,128,128);stroke-opacity: 1.0;stroke-linecap: square;shape-rendering:crispEdges;" transform="matrix(1,0,0,1,0,0)" clip-path="url(#_80059590025300clip-0)"/><g transform="matrix(1,0,0,1,0,0)"><text x="330.5" y="945.69" style="fill: rgb(64,64,64); fill-opacity: 1.0; font-family: sans-serif; font-size: 25px;" clip-path="url(#_80059590025300clip-0)">1,0</text></g><line x1="348" y1="917" x2="348" y2="915" style="stroke-width: 0.5;stroke: rgb(128,128,128);stroke-opacity: 1.0;stroke-linecap: square;shape-rendering:crispEdges;" transform="matrix(1,0,0,1,0,0)" clip-path="url(#_80059590025300clip-0)"/><g transform="matrix(1,0,0,1,0,0)"><text x="430.5" y="945.69" style="fill: rgb(64,64,64); fill-opacity: 1.0; font-family: sans-serif; font-size: 25px;" clip-path="url(#_80059590025300clip-0)">1,5</text></g><line x1="448" y1="917" x2="448" y2="915" style="stroke-width: 0.5;stroke: rgb(128,128,128);stroke-opacity: 1.0;stroke-linecap: square;shape-rendering:crispEdges;" transform="matrix(1,0,0,1,0,0)" clip-path="url(#_80059590025300clip-0)"/><g transform="matrix(1,0,0,1,0,0)"><text x="530.5" y="945.69" style="fill: rgb(64,64,64); fill-opacity: 1.0; font-family: sans-serif; font-size: 25px;" clip-path="url(#_80059590025300clip-0)">2,0</text></g><line x1="548" y1="917" x2="548" y2="915" style="stroke-width: 0.5;stroke: rgb(128,128,128);stroke-opacity: 1.0;stroke-linecap: square;shape-rendering:crispEdges;" transform="matrix(1,0,0,1,0,0)" clip-path="url(#_80059590025300clip-0)"/><g transform="matrix(1,0,0,1,0,0)"><text x="630.5" y="945.69" style="fill: rgb(64,64,64); fill-opacity: 1.0; font-family: sans-serif; font-size: 25px;" clip-path="url(#_80059590025300clip-0)">2,5</text></g><line x1="648" y1="917" x2="648" y2="915" style="stroke-width: 0.5;stroke: rgb(128,128,128);stroke-opacity: 1.0;stroke-linecap: square;shape-rendering:crispEdges;" transform="matrix(1,0,0,1,0,0)" clip-path="url(#_80059590025300clip-0)"/><g transform="matrix(1,0,0,1,0,0)"><text x="730.5" y="945.69" style="fill: rgb(64,64,64); fill-opacity: 1.0; font-family: sans-serif; font-size: 25px;" clip-path="url(#_80059590025300clip-0)">3,0</text></g><line x1="748" y1="917" x2="748" y2="915" style="stroke-width: 0.5;stroke: rgb(128,128,128);stroke-opacity: 1.0;stroke-linecap: square;shape-rendering:crispEdges;" transform="matrix(1,0,0,1,0,0)" clip-path="url(#_80059590025300clip-0)"/><g transform="matrix(1,0,0,1,0,0)"><text x="830.5" y="945.69" style="fill: rgb(64,64,64); fill-opacity: 1.0; font-family: sans-serif; font-size: 25px;" clip-path="url(#_80059590025300clip-0)">3,5</text></g><line x1="848" y1="917" x2="848" y2="915" style="stroke-width: 0.5;stroke: rgb(128,128,128);stroke-opacity: 1.0;stroke-linecap: square;shape-rendering:crispEdges;" transform="matrix(1,0,0,1,0,0)" clip-path="url(#_80059590025300clip-0)"/><g transform="matrix(1,0,0,1,0,0)"><text x="930.5" y="945.69" style="fill: rgb(64,64,64); fill-opacity: 1.0; font-family: sans-serif; font-size: 25px;" clip-path="url(#_80059590025300clip-0)">4,0</text></g><line x1="948" y1="917" x2="948" y2="915" style="stroke-width: 0.5;stroke: rgb(128,128,128);stroke-opacity: 1.0;stroke-linecap: square;shape-rendering:crispEdges;" transform="matrix(1,0,0,1,0,0)" clip-path="url(#_80059590025300clip-0)"/><g transform="matrix(1,0,0,1,0,0)"><text x="514" y="984.87" style="fill: rgb(64,64,64); fill-opacity: 1.0; font-family: sans-serif; font-size: 30px;" clip-path="url(#_80059590025300clip-0)">x (m)</text></g><line x1="104" y1="35" x2="104" y2="911" style="stroke-width: 0.5;stroke: rgb(128,128,128);stroke-opacity: 1.0;stroke-linecap: square;shape-rendering:crispEdges;" transform="matrix(1,0,0,1,0,0)" clip-path="url(#_80059590025300clip-0)"/><g transform="matrix(1,0,0,1,0,0)"><text x="55" y="59.53" style="fill: rgb(64,64,64); fill-opacity: 1.0; font-family: sans-serif; font-size: 25px;" clip-path="url(#_80059590025300clip-0)">-1,0</text></g><line x1="102" y1="49.34" x2="104" y2="49.34" style="stroke-width: 0.5;stroke: rgb(128,128,128);stroke-opacity: 1.0;stroke-linecap: square;shape-rendering:crispEdges;" transform="matrix(1,0,0,1,0,0)" clip-path="url(#_80059590025300clip-0)"/><g transform="matrix(1,0,0,1,0,0)"><text x="55" y="99.35" style="fill: rgb(64,64,64); fill-opacity: 1.0; font-family: sans-serif; font-size: 25px;" clip-path="url(#_80059590025300clip-0)">-0,8</text></g><line x1="102" y1="89.16" x2="104" y2="89.16" style="stroke-width: 0.5;stroke: rgb(128,128,128);stroke-opacity: 1.0;stroke-linecap: square;shape-rendering:crispEdges;" transform="matrix(1,0,0,1,0,0)" clip-path="url(#_80059590025300clip-0)"/><g transform="matrix(1,0,0,1,0,0)"><text x="55" y="139.17" style="fill: rgb(64,64,64); fill-opacity: 1.0; font-family: sans-serif; font-size: 25px;" clip-path="url(#_80059590025300clip-0)">-0,6</text></g><line x1="102" y1="128.98" x2="104" y2="128.98" style="stroke-width: 0.5;stroke: rgb(128,128,128);stroke-opacity: 1.0;stroke-linecap: square;shape-rendering:crispEdges;" transform="matrix(1,0,0,1,0,0)" clip-path="url(#_80059590025300clip-0)"/><g transform="matrix(1,0,0,1,0,0)"><text x="55" y="178.99" style="fill: rgb(64,64,64); fill-opacity: 1.0; font-family: sans-serif; font-size: 25px;" clip-path="url(#_80059590025300clip-0)">-0,4</text></g><line x1="102" y1="168.8" x2="104" y2="168.8" style="stroke-width: 0.5;stroke: rgb(128,128,128);stroke-opacity: 1.0;stroke-linecap: square;shape-rendering:crispEdges;" transform="matrix(1,0,0,1,0,0)" clip-path="url(#_80059590025300clip-0)"/><g transform="matrix(1,0,0,1,0,0)"><text x="55" y="218.81" style="fill: rgb(64,64,64); fill-opacity: 1.0; font-family: sans-serif; font-size: 25px;" clip-path="url(#_80059590025300clip-0)">-0,2</text></g><line x1="102" y1="208.62" x2="104" y2="208.62" style="stroke-width: 0.5;stroke: rgb(128,128,128);stroke-opacity: 1.0;stroke-linecap: square;shape-rendering:crispEdges;" transform="matrix(1,0,0,1,0,0)" clip-path="url(#_80059590025300clip-0)"/><g transform="matrix(1,0,0,1,0,0)"><text x="63" y="258.62" style="fill: rgb(64,64,64); fill-opacity: 1.0; font-family: sans-serif; font-size: 25px;" clip-path="url(#_80059590025300clip-0)">0,0</text></g><line x1="102" y1="248.44" x2="104" y2="248.44" style="stroke-width: 0.5;stroke: rgb(128,128,128);stroke-opacity: 1.0;stroke-linecap: square;shape-rendering:crispEdges;" transform="matrix(1,0,0,1,0,0)" clip-path="url(#_80059590025300clip-0)"/><g transform="matrix(1,0,0,1,0,0)"><text x="63" y="298.44" style="fill: rgb(64,64,64); fill-opacity: 1.0; font-family: sans-serif; font-size: 25px;" clip-path="url(#_80059590025300clip-0)">0,2</text></g><line x1="102" y1="288.25" x2="104" y2="288.25" style="stroke-width: 0.5;stroke: rgb(128,128,128);stroke-opacity: 1.0;stroke-linecap: square;shape-rendering:crispEdges;" transform="matrix(1,0,0,1,0,0)" clip-path="url(#_80059590025300clip-0)"/><g transform="matrix(1,0,0,1,0,0)"><text x="63" y="338.26" style="fill: rgb(64,64,64); fill-opacity: 1.0; font-family: sans-serif; font-size: 25px;" clip-path="url(#_80059590025300clip-0)">0,4</text></g><line x1="102" y1="328.07" x2="104" y2="328.07" style="stroke-width: 0.5;stroke: rgb(128,128,128);stroke-opacity: 1.0;stroke-linecap: square;shape-rendering:crispEdges;" transform="matrix(1,0,0,1,0,0)" clip-path="url(#_80059590025300clip-0)"/><g transform="matrix(1,0,0,1,0,0)"><text x="63" y="378.08" style="fill: rgb(64,64,64); fill-opacity: 1.0; font-family: sans-serif; font-size: 25px;" clip-path="url(#_80059590025300clip-0)">0,6</text></g><line x1="102" y1="367.89" x2="104" y2="367.89" style="stroke-width: 0.5;stroke: rgb(128,128,128);stroke-opacity: 1.0;stroke-linecap: square;shape-rendering:crispEdges;" transform="matrix(1,0,0,1,0,0)" clip-path="url(#_80059590025300clip-0)"/><g transform="matrix(1,0,0,1,0,0)"><text x="63" y="417.9" style="fill: rgb(64,64,64); fill-opacity: 1.0; font-family: sans-serif; font-size: 25px;" clip-path="url(#_80059590025300clip-0)">0,8</text></g><line x1="102" y1="407.71" x2="104" y2="407.71" style="stroke-width: 0.5;stroke: rgb(128,128,128);stroke-opacity: 1.0;stroke-linecap: square;shape-rendering:crispEdges;" transform="matrix(1,0,0,1,0,0)" clip-path="url(#_80059590025300clip-0)"/><g transform="matrix(1,0,0,1,0,0)"><text x="63" y="457.71" style="fill: rgb(64,64,64); fill-opacity: 1.0; font-family: sans-serif; font-size: 25px;" clip-path="url(#_80059590025300clip-0)">1,0</text></g><line x1="102" y1="447.53" x2="104" y2="447.53" style="stroke-width: 0.5;stroke: rgb(128,128,128);stroke-opacity: 1.0;stroke-linecap: square;shape-rendering:crispEdges;" transform="matrix(1,0,0,1,0,0)" clip-path="url(#_80059590025300clip-0)"/><g transform="matrix(1,0,0,1,0,0)"><text x="63" y="497.53" style="fill: rgb(64,64,64); fill-opacity: 1.0; font-family: sans-serif; font-size: 25px;" clip-path="url(#_80059590025300clip-0)">1,2</text></g><line x1="102" y1="487.34" x2="104" y2="487.34" style="stroke-width: 0.5;stroke: rgb(128,128,128);stroke-opacity: 1.0;stroke-linecap: square;shape-rendering:crispEdges;" transform="matrix(1,0,0,1,0,0)" clip-path="url(#_80059590025300clip-0)"/><g transform="matrix(1,0,0,1,0,0)"><text x="63" y="537.35" style="fill: rgb(64,64,64); fill-opacity: 1.0; font-family: sans-serif; font-size: 25px;" clip-path="url(#_80059590025300clip-0)">1,4</text></g><line x1="102" y1="527.16" x2="104" y2="527.16" style="stroke-width: 0.5;stroke: rgb(128,128,128);stroke-opacity: 1.0;stroke-linecap: square;shape-rendering:crispEdges;" transform="matrix(1,0,0,1,0,0)" clip-path="url(#_80059590025300clip-0)"/><g transform="matrix(1,0,0,1,0,0)"><text x="63" y="577.17" style="fill: rgb(64,64,64); fill-opacity: 1.0; font-family: sans-serif; font-size: 25px;" clip-path="url(#_80059590025300clip-0)">1,6</text></g><line x1="102" y1="566.98" x2="104" y2="566.98" style="stroke-width: 0.5;stroke: rgb(128,128,128);stroke-opacity: 1.0;stroke-linecap: square;shape-rendering:crispEdges;" transform="matrix(1,0,0,1,0,0)" clip-path="url(#_80059590025300clip-0)"/><g transform="matrix(1,0,0,1,0,0)"><text x="63" y="616.99" style="fill: rgb(64,64,64); fill-opacity: 1.0; font-family: sans-serif; font-size: 25px;" clip-path="url(#_80059590025300clip-0)">1,8</text></g><line x1="102" y1="606.8" x2="104" y2="606.8" style="stroke-width: 0.5;stroke: rgb(128,128,128);stroke-opacity: 1.0;stroke-linecap: square;shape-rendering:crispEdges;" transform="matrix(1,0,0,1,0,0)" clip-path="url(#_80059590025300clip-0)"/><g transform="matrix(1,0,0,1,0,0)"><text x="63" y="656.81" style="fill: rgb(64,64,64); fill-opacity: 1.0; font-family: sans-serif; font-size: 25px;" clip-path="url(#_80059590025300clip-0)">2,0</text></g><line x1="102" y1="646.62" x2="104" y2="646.62" style="stroke-width: 0.5;stroke: rgb(128,128,128);stroke-opacity: 1.0;stroke-linecap: square;shape-rendering:crispEdges;" transform="matrix(1,0,0,1,0,0)" clip-path="url(#_80059590025300clip-0)"/><g transform="matrix(1,0,0,1,0,0)"><text x="63" y="696.62" style="fill: rgb(64,64,64); fill-opacity: 1.0; font-family: sans-serif; font-size: 25px;" clip-path="url(#_80059590025300clip-0)">2,2</text></g><line x1="102" y1="686.43" x2="104" y2="686.43" style="stroke-width: 0.5;stroke: rgb(128,128,128);stroke-opacity: 1.0;stroke-linecap: square;shape-rendering:crispEdges;" transform="matrix(1,0,0,1,0,0)" clip-path="url(#_80059590025300clip-0)"/><g transform="matrix(1,0,0,1,0,0)"><text x="63" y="736.44" style="fill: rgb(64,64,64); fill-opacity: 1.0; font-family: sans-serif; font-size: 25px;" clip-path="url(#_80059590025300clip-0)">2,4</text></g><line x1="102" y1="726.25" x2="104" y2="726.25" style="stroke-width: 0.5;stroke: rgb(128,128,128);stroke-opacity: 1.0;stroke-linecap: square;shape-rendering:crispEdges;" transform="matrix(1,0,0,1,0,0)" clip-path="url(#_80059590025300clip-0)"/><g transform="matrix(1,0,0,1,0,0)"><text x="63" y="776.26" style="fill: rgb(64,64,64); fill-opacity: 1.0; font-family: sans-serif; font-size: 25px;" clip-path="url(#_80059590025300clip-0)">2,6</text></g><line x1="102" y1="766.07" x2="104" y2="766.07" style="stroke-width: 0.5;stroke: rgb(128,128,128);stroke-opacity: 1.0;stroke-linecap: square;shape-rendering:crispEdges;" transform="matrix(1,0,0,1,0,0)" clip-path="url(#_80059590025300clip-0)"/><g transform="matrix(1,0,0,1,0,0)"><text x="63" y="816.08" style="fill: rgb(64,64,64); fill-opacity: 1.0; font-family: sans-serif; font-size: 25px;" clip-path="url(#_80059590025300clip-0)">2,8</text></g><line x1="102" y1="805.89" x2="104" y2="805.89" style="stroke-width: 0.5;stroke: rgb(128,128,128);stroke-opacity: 1.0;stroke-linecap: square;shape-rendering:crispEdges;" transform="matrix(1,0,0,1,0,0)" clip-path="url(#_80059590025300clip-0)"/><g transform="matrix(1,0,0,1,0,0)"><text x="63" y="855.9" style="fill: rgb(64,64,64); fill-opacity: 1.0; font-family: sans-serif; font-size: 25px;" clip-path="url(#_80059590025300clip-0)">3,0</text></g><line x1="102" y1="845.71" x2="104" y2="845.71" style="stroke-width: 0.5;stroke: rgb(128,128,128);stroke-opacity: 1.0;stroke-linecap: square;shape-rendering:crispEdges;" transform="matrix(1,0,0,1,0,0)" clip-path="url(#_80059590025300clip-0)"/><g transform="matrix(1,0,0,1,0,0)"><text x="63" y="895.71" style="fill: rgb(64,64,64); fill-opacity: 1.0; font-family: sans-serif; font-size: 25px;" clip-path="url(#_80059590025300clip-0)">3,2</text></g><line x1="102" y1="885.53" x2="104" y2="885.53" style="stroke-width: 0.5;stroke: rgb(128,128,128);stroke-opacity: 1.0;stroke-linecap: square;shape-rendering:crispEdges;" transform="matrix(1,0,0,1,0,0)" clip-path="url(#_80059590025300clip-0)"/><g style="fill: rgb(64,64,64); fill-opacity: 1.0; stroke: none" transform="matrix(0,-1,1,0,-442.5,503.5)" clip-path="url(#_80059590025300clip-1)"><path d="M -1.64 490.91 L -1.94 488.44 Q -1.06 488.68 -0.42 488.68 Q 0.45 488.68 0.98 488.39 Q 1.52 488.1 1.84 487.57 Q 2.09 487.16 2.66 485.6 Q 2.72 485.38 2.89 484.96 L -3.02 469.36 L -0.17 469.36 L 3.06 478.38 Q 3.69 480.1 4.19 481.99 Q 4.64 480.16 5.28 478.44 L 8.59 469.36 L 11.23 469.36 L 5.31 485.19 Q 4.36 487.75 3.84 488.72 Q 3.14 490.02 2.23 490.63 Q 1.31 491.24 0.06 491.24 Q -0.7 491.24 -1.64 490.91 Z  M 26.85 491.24 Q 24.66 488.49 23.16 484.79 Q 21.65 481.1 21.65 477.15 Q 21.65 473.66 22.77 470.47 Q 24.1 466.75 26.85 463.08 L 28.74 463.08 Q 26.98 466.13 26.4 467.44 Q 25.51 469.46 24.99 471.66 Q 24.37 474.4 24.37 477.16 Q 24.37 484.21 28.74 491.24 L 26.85 491.24 Z  M 31.81 484.93 L 31.81 469.36 L 34.17 469.36 L 34.17 471.55 Q 34.89 470.41 36.11 469.72 Q 37.33 469.02 38.87 469.02 Q 40.61 469.02 41.72 469.74 Q 42.83 470.46 43.28 471.74 Q 45.12 469.02 48.08 469.02 Q 50.39 469.02 51.64 470.3 Q 52.89 471.58 52.89 474.25 L 52.89 484.93 L 50.26 484.93 L 50.26 475.13 Q 50.26 473.55 50 472.85 Q 49.75 472.15 49.08 471.72 Q 48.4 471.3 47.5 471.3 Q 45.86 471.3 44.77 472.4 Q 43.68 473.49 43.68 475.9 L 43.68 484.93 L 41.04 484.93 L 41.04 474.82 Q 41.04 473.07 40.4 472.18 Q 39.76 471.3 38.29 471.3 Q 37.18 471.3 36.24 471.89 Q 35.29 472.47 34.86 473.6 Q 34.43 474.72 34.43 476.85 L 34.43 484.93 L 31.81 484.93 Z  M 58.52 491.24 L 56.63 491.24 Q 61.02 484.21 61.02 477.16 Q 61.02 474.41 60.38 471.69 Q 59.88 469.5 58.99 467.47 Q 58.42 466.16 56.63 463.08 L 58.52 463.08 Q 61.27 466.75 62.6 470.47 Q 63.72 473.66 63.72 477.15 Q 63.72 481.1 62.21 484.79 Q 60.69 488.49 58.52 491.24 Z "/></g><line x1="108" y1="49.34" x2="988" y2="49.34" style="stroke-width: 0.5;stroke: rgb(128,128,128);stroke-opacity: 0.5;stroke-linejoin: bevel;stroke-dasharray: 2.0, 2.0;shape-rendering:crispEdges;" transform="matrix(1,0,0,1,0,0)" clip-path="url(#_80059590025300clip-2)"/><line x1="108" y1="89.16" x2="988" y2="89.16" style="stroke-width: 0.5;stroke: rgb(128,128,128);stroke-opacity: 0.5;stroke-linejoin: bevel;stroke-dasharray: 2.0, 2.0;shape-rendering:crispEdges;" transform="matrix(1,0,0,1,0,0)" clip-path="url(#_80059590025300clip-2)"/><line x1="108" y1="128.98" x2="988" y2="128.98" style="stroke-width: 0.5;stroke: rgb(128,128,128);stroke-opacity: 0.5;stroke-linejoin: bevel;stroke-dasharray: 2.0, 2.0;shape-rendering:crispEdges;" transform="matrix(1,0,0,1,0,0)" clip-path="url(#_80059590025300clip-2)"/><line x1="108" y1="168.8" x2="988" y2="168.8" style="stroke-width: 0.5;stroke: rgb(128,128,128);stroke-opacity: 0.5;stroke-linejoin: bevel;stroke-dasharray: 2.0, 2.0;shape-rendering:crispEdges;" transform="matrix(1,0,0,1,0,0)" clip-path="url(#_80059590025300clip-2)"/><line x1="108" y1="208.62" x2="988" y2="208.62" style="stroke-width: 0.5;stroke: rgb(128,128,128);stroke-opacity: 0.5;stroke-linejoin: bevel;stroke-dasharray: 2.0, 2.0;shape-rendering:crispEdges;" transform="matrix(1,0,0,1,0,0)" clip-path="url(#_80059590025300clip-2)"/><line x1="108" y1="248.44" x2="988" y2="248.44" style="stroke-width: 0.5;stroke: rgb(128,128,128);stroke-opacity: 0.5;stroke-linejoin: bevel;stroke-dasharray: 2.0, 2.0;shape-rendering:crispEdges;" transform="matrix(1,0,0,1,0,0)" clip-path="url(#_80059590025300clip-2)"/><line x1="108" y1="288.25" x2="988" y2="288.25" style="stroke-width: 0.5;stroke: rgb(128,128,128);stroke-opacity: 0.5;stroke-linejoin: bevel;stroke-dasharray: 2.0, 2.0;shape-rendering:crispEdges;" transform="matrix(1,0,0,1,0,0)" clip-path="url(#_80059590025300clip-2)"/><line x1="108" y1="328.07" x2="988" y2="328.07" style="stroke-width: 0.5;stroke: rgb(128,128,128);stroke-opacity: 0.5;stroke-linejoin: bevel;stroke-dasharray: 2.0, 2.0;shape-rendering:crispEdges;" transform="matrix(1,0,0,1,0,0)" clip-path="url(#_80059590025300clip-2)"/><line x1="108" y1="367.89" x2="988" y2="367.89" style="stroke-width: 0.5;stroke: rgb(128,128,128);stroke-opacity: 0.5;stroke-linejoin: bevel;stroke-dasharray: 2.0, 2.0;shape-rendering:crispEdges;" transform="matrix(1,0,0,1,0,0)" clip-path="url(#_80059590025300clip-2)"/><line x1="108" y1="407.71" x2="988" y2="407.71" style="stroke-width: 0.5;stroke: rgb(128,128,128);stroke-opacity: 0.5;stroke-linejoin: bevel;stroke-dasharray: 2.0, 2.0;shape-rendering:crispEdges;" transform="matrix(1,0,0,1,0,0)" clip-path="url(#_80059590025300clip-2)"/><line x1="108" y1="447.53" x2="988" y2="447.53" style="stroke-width: 0.5;stroke: rgb(128,128,128);stroke-opacity: 0.5;stroke-linejoin: bevel;stroke-dasharray: 2.0, 2.0;shape-rendering:crispEdges;" transform="matrix(1,0,0,1,0,0)" clip-path="url(#_80059590025300clip-2)"/><line x1="108" y1="487.34" x2="988" y2="487.34" style="stroke-width: 0.5;stroke: rgb(128,128,128);stroke-opacity: 0.5;stroke-linejoin: bevel;stroke-dasharray: 2.0, 2.0;shape-rendering:crispEdges;" transform="matrix(1,0,0,1,0,0)" clip-path="url(#_80059590025300clip-2)"/><line x1="108" y1="527.16" x2="988" y2="527.16" style="stroke-width: 0.5;stroke: rgb(128,128,128);stroke-opacity: 0.5;stroke-linejoin: bevel;stroke-dasharray: 2.0, 2.0;shape-rendering:crispEdges;" transform="matrix(1,0,0,1,0,0)" clip-path="url(#_80059590025300clip-2)"/><line x1="108" y1="566.98" x2="988" y2="566.98" style="stroke-width: 0.5;stroke: rgb(128,128,128);stroke-opacity: 0.5;stroke-linejoin: bevel;stroke-dasharray: 2.0, 2.0;shape-rendering:crispEdges;" transform="matrix(1,0,0,1,0,0)" clip-path="url(#_80059590025300clip-2)"/><line x1="108" y1="606.8" x2="988" y2="606.8" style="stroke-width: 0.5;stroke: rgb(128,128,128);stroke-opacity: 0.5;stroke-linejoin: bevel;stroke-dasharray: 2.0, 2.0;shape-rendering:crispEdges;" transform="matrix(1,0,0,1,0,0)" clip-path="url(#_80059590025300clip-2)"/><line x1="108" y1="646.62" x2="988" y2="646.62" style="stroke-width: 0.5;stroke: rgb(128,128,128);stroke-opacity: 0.5;stroke-linejoin: bevel;stroke-dasharray: 2.0, 2.0;shape-rendering:crispEdges;" transform="matrix(1,0,0,1,0,0)" clip-path="url(#_80059590025300clip-2)"/><line x1="108" y1="686.44" x2="988" y2="686.44" style="stroke-width: 0.5;stroke: rgb(128,128,128);stroke-opacity: 0.5;stroke-linejoin: bevel;stroke-dasharray: 2.0, 2.0;shape-rendering:crispEdges;" transform="matrix(1,0,0,1,0,0)" clip-path="url(#_80059590025300clip-2)"/><line x1="108" y1="726.25" x2="988" y2="726.25" style="stroke-width: 0.5;stroke: rgb(128,128,128);stroke-opacity: 0.5;stroke-linejoin: bevel;stroke-dasharray: 2.0, 2.0;shape-rendering:crispEdges;" transform="matrix(1,0,0,1,0,0)" clip-path="url(#_80059590025300clip-2)"/><line x1="108" y1="766.07" x2="988" y2="766.07" style="stroke-width: 0.5;stroke: rgb(128,128,128);stroke-opacity: 0.5;stroke-linejoin: bevel;stroke-dasharray: 2.0, 2.0;shape-rendering:crispEdges;" transform="matrix(1,0,0,1,0,0)" clip-path="url(#_80059590025300clip-2)"/><line x1="108" y1="805.89" x2="988" y2="805.89" style="stroke-width: 0.5;stroke: rgb(128,128,128);stroke-opacity: 0.5;stroke-linejoin: bevel;stroke-dasharray: 2.0, 2.0;shape-rendering:crispEdges;" transform="matrix(1,0,0,1,0,0)" clip-path="url(#_80059590025300clip-2)"/><line x1="108" y1="845.71" x2="988" y2="845.71" style="stroke-width: 0.5;stroke: rgb(128,128,128);stroke-opacity: 0.5;stroke-linejoin: bevel;stroke-dasharray: 2.0, 2.0;shape-rendering:crispEdges;" transform="matrix(1,0,0,1,0,0)" clip-path="url(#_80059590025300clip-2)"/><line x1="108" y1="885.53" x2="988" y2="885.53" style="stroke-width: 0.5;stroke: rgb(128,128,128);stroke-opacity: 0.5;stroke-linejoin: bevel;stroke-dasharray: 2.0, 2.0;shape-rendering:crispEdges;" transform="matrix(1,0,0,1,0,0)" clip-path="url(#_80059590025300clip-2)"/><line x1="148" y1="35" x2="148" y2="911" style="stroke-width: 0.5;stroke: rgb(128,128,128);stroke-opacity: 0.5;stroke-linejoin: bevel;stroke-dasharray: 2.0, 2.0;shape-rendering:crispEdges;" transform="matrix(1,0,0,1,0,0)" clip-path="url(#_80059590025300clip-2)"/><line x1="248" y1="35" x2="248" y2="911" style="stroke-width: 0.5;stroke: rgb(128,128,128);stroke-opacity: 0.5;stroke-linejoin: bevel;stroke-dasharray: 2.0, 2.0;shape-rendering:crispEdges;" transform="matrix(1,0,0,1,0,0)" clip-path="url(#_80059590025300clip-2)"/><line x1="348" y1="35" x2="348" y2="911" style="stroke-width: 0.5;stroke: rgb(128,128,128);stroke-opacity: 0.5;stroke-linejoin: bevel;stroke-dasharray: 2.0, 2.0;shape-rendering:crispEdges;" transform="matrix(1,0,0,1,0,0)" clip-path="url(#_80059590025300clip-2)"/><line x1="448" y1="35" x2="448" y2="911" style="stroke-width: 0.5;stroke: rgb(128,128,128);stroke-opacity: 0.5;stroke-linejoin: bevel;stroke-dasharray: 2.0, 2.0;shape-rendering:crispEdges;" transform="matrix(1,0,0,1,0,0)" clip-path="url(#_80059590025300clip-2)"/><line x1="548" y1="35" x2="548" y2="911" style="stroke-width: 0.5;stroke: rgb(128,128,128);stroke-opacity: 0.5;stroke-linejoin: bevel;stroke-dasharray: 2.0, 2.0;shape-rendering:crispEdges;" transform="matrix(1,0,0,1,0,0)" clip-path="url(#_80059590025300clip-2)"/><line x1="648" y1="35" x2="648" y2="911" style="stroke-width: 0.5;stroke: rgb(128,128,128);stroke-opacity: 0.5;stroke-linejoin: bevel;stroke-dasharray: 2.0, 2.0;shape-rendering:crispEdges;" transform="matrix(1,0,0,1,0,0)" clip-path="url(#_80059590025300clip-2)"/><line x1="748" y1="35" x2="748" y2="911" style="stroke-width: 0.5;stroke: rgb(128,128,128);stroke-opacity: 0.5;stroke-linejoin: bevel;stroke-dasharray: 2.0, 2.0;shape-rendering:crispEdges;" transform="matrix(1,0,0,1,0,0)" clip-path="url(#_80059590025300clip-2)"/><line x1="848" y1="35" x2="848" y2="911" style="stroke-width: 0.5;stroke: rgb(128,128,128);stroke-opacity: 0.5;stroke-linejoin: bevel;stroke-dasharray: 2.0, 2.0;shape-rendering:crispEdges;" transform="matrix(1,0,0,1,0,0)" clip-path="url(#_80059590025300clip-2)"/><line x1="948" y1="35" x2="948" y2="911" style="stroke-width: 0.5;stroke: rgb(128,128,128);stroke-opacity: 0.5;stroke-linejoin: bevel;stroke-dasharray: 2.0, 2.0;shape-rendering:crispEdges;" transform="matrix(1,0,0,1,0,0)" clip-path="url(#_80059590025300clip-2)"/><g style="fill: rgb(34,139,34); fill-opacity: 0.5; stroke: none" transform="matrix(1,0,0,1,0,0)" clip-path="url(#_80059590025300clip-2)"><path d="M 148 248.44 L 148 248.44 L 175.59 253.28 L 203.17 258.12 L 230.76 262.96 L 258.34 267.8 L 285.93 272.65 L 313.52 277.49 L 341.1 282.33 L 368.69 287.17 L 396.28 292.01 L 423.86 296.86 L 451.45 301.7 L 479.03 306.54 L 506.62 311.38 L 534.21 316.22 L 561.79 321.07 L 589.38 325.91 L 616.97 330.75 L 644.55 335.59 L 672.14 340.43 L 699.72 345.28 L 727.31 350.12 L 754.9 354.96 L 782.48 359.8 L 810.07 364.64 L 837.66 369.49 L 865.24 374.33 L 892.83 379.17 L 920.41 384.01 L 948 388.86 L 948 636.13 L 920.41 635.82 L 892.83 635.52 L 865.24 635.22 L 837.66 634.92 L 810.07 634.61 L 782.48 634.31 L 754.9 634.01 L 727.31 633.71 L 699.72 633.4 L 672.14 633.1 L 644.55 632.8 L 616.97 632.5 L 589.38 632.19 L 561.79 631.89 L 534.21 631.59 L 506.62 631.29 L 479.03 630.98 L 451.45 630.68 L 423.86 630.38 L 396.28 630.08 L 368.69 629.77 L 341.1 629.47 L 313.52 629.17 L 285.93 628.87 L 258.34 628.56 L 230.76 628.26 L 203.17 627.96 L 175.59 627.66 L 148 627.35 L 148 248.44 L 148 248.44 Z "/></g><g style="fill: rgb(50,205,50); fill-opacity: 0.5; stroke: none" transform="matrix(1,0,0,1,0,0)" clip-path="url(#_80059590025300clip-2)"><path d="M 148 518.51 L 228 518.51 L 228 628.23 L 948 636.13 L 948 561.95 L 228 518.51 L 148 518.51 Z "/></g><line x1="148" y1="248.44" x2="175.59" y2="253.28" style="stroke-width: 1.5;stroke: rgb(0,0,0);stroke-opacity: 0.5;stroke-linecap: round;stroke-linejoin: round;shape-rendering:geometricPrecision;" transform="matrix(1,0,0,1,0,0)" clip-path="url(#_80059590025300clip-2)"/><line x1="175.59" y1="253.28" x2="203.17" y2="258.12" style="stroke-width: 1.5;stroke: rgb(0,0,0);stroke-opacity: 0.5;stroke-linecap: round;stroke-linejoin: round;shape-rendering:geometricPrecision;" transform="matrix(1,0,0,1,0,0)" clip-path="url(#_80059590025300clip-2)"/><line x1="203.17" y1="258.12" x2="230.76" y2="262.96" style="stroke-width: 1.5;stroke: rgb(0,0,0);stroke-opacity: 0.5;stroke-linecap: round;stroke-linejoin: round;shape-rendering:geometricPrecision;" transform="matrix(1,0,0,1,0,0)" clip-path="url(#_80059590025300clip-2)"/><line x1="230.76" y1="262.96" x2="258.34" y2="267.8" style="stroke-width: 1.5;stroke: rgb(0,0,0);stroke-opacity: 0.5;stroke-linecap: round;stroke-linejoin: round;shape-rendering:geometricPrecision;" transform="matrix(1,0,0,1,0,0)" clip-path="url(#_80059590025300clip-2)"/><line x1="258.34" y1="267.8" x2="285.93" y2="272.65" style="stroke-width: 1.5;stroke: rgb(0,0,0);stroke-opacity: 0.5;stroke-linecap: round;stroke-linejoin: round;shape-rendering:geometricPrecision;" transform="matrix(1,0,0,1,0,0)" clip-path="url(#_80059590025300clip-2)"/><line x1="285.93" y1="272.65" x2="313.52" y2="277.49" style="stroke-width: 1.5;stroke: rgb(0,0,0);stroke-opacity: 0.5;stroke-linecap: round;stroke-linejoin: round;shape-rendering:geometricPrecision;" transform="matrix(1,0,0,1,0,0)" clip-path="url(#_80059590025300clip-2)"/><line x1="313.52" y1="277.49" x2="341.1" y2="282.33" style="stroke-width: 1.5;stroke: rgb(0,0,0);stroke-opacity: 0.5;stroke-linecap: round;stroke-linejoin: round;shape-rendering:geometricPrecision;" transform="matrix(1,0,0,1,0,0)" clip-path="url(#_80059590025300clip-2)"/><line x1="341.1" y1="282.33" x2="368.69" y2="287.17" style="stroke-width: 1.5;stroke: rgb(0,0,0);stroke-opacity: 0.5;stroke-linecap: round;stroke-linejoin: round;shape-rendering:geometricPrecision;" transform="matrix(1,0,0,1,0,0)" clip-path="url(#_80059590025300clip-2)"/><line x1="368.69" y1="287.17" x2="396.28" y2="292.01" style="stroke-width: 1.5;stroke: rgb(0,0,0);stroke-opacity: 0.5;stroke-linecap: round;stroke-linejoin: round;shape-rendering:geometricPrecision;" transform="matrix(1,0,0,1,0,0)" clip-path="url(#_80059590025300clip-2)"/><line x1="396.28" y1="292.01" x2="423.86" y2="296.86" style="stroke-width: 1.5;stroke: rgb(0,0,0);stroke-opacity: 0.5;stroke-linecap: round;stroke-linejoin: round;shape-rendering:geometricPrecision;" transform="matrix(1,0,0,1,0,0)" clip-path="url(#_80059590025300clip-2)"/><line x1="423.86" y1="296.86" x2="451.45" y2="301.7" style="stroke-width: 1.5;stroke: rgb(0,0,0);stroke-opacity: 0.5;stroke-linecap: round;stroke-linejoin: round;shape-rendering:geometricPrecision;" transform="matrix(1,0,0,1,0,0)" clip-path="url(#_80059590025300clip-2)"/><line x1="451.45" y1="301.7" x2="479.03" y2="306.54" style="stroke-width: 1.5;stroke: rgb(0,0,0);stroke-opacity: 0.5;stroke-linecap: round;stroke-linejoin: round;shape-rendering:geometricPrecision;" transform="matrix(1,0,0,1,0,0)" clip-path="url(#_80059590025300clip-2)"/><line x1="479.03" y1="306.54" x2="506.62" y2="311.38" style="stroke-width: 1.5;stroke: rgb(0,0,0);stroke-opacity: 0.5;stroke-linecap: round;stroke-linejoin: round;shape-rendering:geometricPrecision;" transform="matrix(1,0,0,1,0,0)" clip-path="url(#_80059590025300clip-2)"/><line x1="506.62" y1="311.38" x2="534.21" y2="316.22" style="stroke-width: 1.5;stroke: rgb(0,0,0);stroke-opacity: 0.5;stroke-linecap: round;stroke-linejoin: round;shape-rendering:geometricPrecision;" transform="matrix(1,0,0,1,0,0)" clip-path="url(#_80059590025300clip-2)"/><line x1="534.21" y1="316.22" x2="561.79" y2="321.07" style="stroke-width: 1.5;stroke: rgb(0,0,0);stroke-opacity: 0.5;stroke-linecap: round;stroke-linejoin: round;shape-rendering:geometricPrecision;" transform="matrix(1,0,0,1,0,0)" clip-path="url(#_80059590025300clip-2)"/><line x1="561.79" y1="321.07" x2="589.38" y2="325.91" style="stroke-width: 1.5;stroke: rgb(0,0,0);stroke-opacity: 0.5;stroke-linecap: round;stroke-linejoin: round;shape-rendering:geometricPrecision;" transform="matrix(1,0,0,1,0,0)" clip-path="url(#_80059590025300clip-2)"/><line x1="589.38" y1="325.91" x2="616.97" y2="330.75" style="stroke-width: 1.5;stroke: rgb(0,0,0);stroke-opacity: 0.5;stroke-linecap: round;stroke-linejoin: round;shape-rendering:geometricPrecision;" transform="matrix(1,0,0,1,0,0)" clip-path="url(#_80059590025300clip-2)"/><line x1="616.97" y1="330.75" x2="644.55" y2="335.59" style="stroke-width: 1.5;stroke: rgb(0,0,0);stroke-opacity: 0.5;stroke-linecap: round;stroke-linejoin: round;shape-rendering:geometricPrecision;" transform="matrix(1,0,0,1,0,0)" clip-path="url(#_80059590025300clip-2)"/><line x1="644.55" y1="335.59" x2="672.14" y2="340.43" style="stroke-width: 1.5;stroke: rgb(0,0,0);stroke-opacity: 0.5;stroke-linecap: round;stroke-linejoin: round;shape-rendering:geometricPrecision;" transform="matrix(1,0,0,1,0,0)" clip-path="url(#_80059590025300clip-2)"/><line x1="672.14" y1="340.43" x2="699.72" y2="345.28" style="stroke-width: 1.5;stroke: rgb(0,0,0);stroke-opacity: 0.5;stroke-linecap: round;stroke-linejoin: round;shape-rendering:geometricPrecision;" transform="matrix(1,0,0,1,0,0)" clip-path="url(#_80059590025300clip-2)"/><line x1="699.72" y1="345.28" x2="727.31" y2="350.12" style="stroke-width: 1.5;stroke: rgb(0,0,0);stroke-opacity: 0.5;stroke-linecap: round;stroke-linejoin: round;shape-rendering:geometricPrecision;" transform="matrix(1,0,0,1,0,0)" clip-path="url(#_80059590025300clip-2)"/><line x1="727.31" y1="350.12" x2="754.9" y2="354.96" style="stroke-width: 1.5;stroke: rgb(0,0,0);stroke-opacity: 0.5;stroke-linecap: round;stroke-linejoin: round;shape-rendering:geometricPrecision;" transform="matrix(1,0,0,1,0,0)" clip-path="url(#_80059590025300clip-2)"/><line x1="754.9" y1="354.96" x2="782.48" y2="359.8" style="stroke-width: 1.5;stroke: rgb(0,0,0);stroke-opacity: 0.5;stroke-linecap: round;stroke-linejoin: round;shape-rendering:geometricPrecision;" transform="matrix(1,0,0,1,0,0)" clip-path="url(#_80059590025300clip-2)"/><line x1="782.48" y1="359.8" x2="810.07" y2="364.64" style="stroke-width: 1.5;stroke: rgb(0,0,0);stroke-opacity: 0.5;stroke-linecap: round;stroke-linejoin: round;shape-rendering:geometricPrecision;" transform="matrix(1,0,0,1,0,0)" clip-path="url(#_80059590025300clip-2)"/><line x1="810.07" y1="364.64" x2="837.66" y2="369.49" style="stroke-width: 1.5;stroke: rgb(0,0,0);stroke-opacity: 0.5;stroke-linecap: round;stroke-linejoin: round;shape-rendering:geometricPrecision;" transform="matrix(1,0,0,1,0,0)" clip-path="url(#_80059590025300clip-2)"/><line x1="837.66" y1="369.49" x2="865.24" y2="374.33" style="stroke-width: 1.5;stroke: rgb(0,0,0);stroke-opacity: 0.5;stroke-linecap: round;stroke-linejoin: round;shape-rendering:geometricPrecision;" transform="matrix(1,0,0,1,0,0)" clip-path="url(#_80059590025300clip-2)"/><line x1="865.24" y1="374.33" x2="892.83" y2="379.17" style="stroke-width: 1.5;stroke: rgb(0,0,0);stroke-opacity: 0.5;stroke-linecap: round;stroke-linejoin: round;shape-rendering:geometricPrecision;" transform="matrix(1,0,0,1,0,0)" clip-path="url(#_80059590025300clip-2)"/><line x1="892.83" y1="379.17" x2="920.41" y2="384.01" style="stroke-width: 1.5;stroke: rgb(0,0,0);stroke-opacity: 0.5;stroke-linecap: round;stroke-linejoin: round;shape-rendering:geometricPrecision;" transform="matrix(1,0,0,1,0,0)" clip-path="url(#_80059590025300clip-2)"/><line x1="920.41" y1="384.01" x2="948" y2="388.86" style="stroke-width: 1.5;stroke: rgb(0,0,0);stroke-opacity: 0.5;stroke-linecap: round;stroke-linejoin: round;shape-rendering:geometricPrecision;" transform="matrix(1,0,0,1,0,0)" clip-path="url(#_80059590025300clip-2)"/><line x1="948" y1="388.86" x2="948" y2="636.13" style="stroke-width: 1.5;stroke: rgb(0,0,0);stroke-opacity: 0.5;stroke-linecap: round;stroke-linejoin: round;shape-rendering:geometricPrecision;" transform="matrix(1,0,0,1,0,0)" clip-path="url(#_80059590025300clip-2)"/><line x1="948" y1="636.13" x2="920.41" y2="635.82" style="stroke-width: 1.5;stroke: rgb(0,0,0);stroke-opacity: 0.5;stroke-linecap: round;stroke-linejoin: round;shape-rendering:geometricPrecision;" transform="matrix(1,0,0,1,0,0)" clip-path="url(#_80059590025300clip-2)"/><line x1="920.41" y1="635.82" x2="892.83" y2="635.52" style="stroke-width: 1.5;stroke: rgb(0,0,0);stroke-opacity: 0.5;stroke-linecap: round;stroke-linejoin: round;shape-rendering:geometricPrecision;" transform="matrix(1,0,0,1,0,0)" clip-path="url(#_80059590025300clip-2)"/><line x1="892.83" y1="635.52" x2="865.24" y2="635.22" style="stroke-width: 1.5;stroke: rgb(0,0,0);stroke-opacity: 0.5;stroke-linecap: round;stroke-linejoin: round;shape-rendering:geometricPrecision;" transform="matrix(1,0,0,1,0,0)" clip-path="url(#_80059590025300clip-2)"/><line x1="865.24" y1="635.22" x2="837.66" y2="634.92" style="stroke-width: 1.5;stroke: rgb(0,0,0);stroke-opacity: 0.5;stroke-linecap: round;stroke-linejoin: round;shape-rendering:geometricPrecision;" transform="matrix(1,0,0,1,0,0)" clip-path="url(#_80059590025300clip-2)"/><line x1="837.66" y1="634.92" x2="810.07" y2="634.61" style="stroke-width: 1.5;stroke: rgb(0,0,0);stroke-opacity: 0.5;stroke-linecap: round;stroke-linejoin: round;shape-rendering:geometricPrecision;" transform="matrix(1,0,0,1,0,0)" clip-path="url(#_80059590025300clip-2)"/><line x1="810.07" y1="634.61" x2="782.48" y2="634.31" style="stroke-width: 1.5;stroke: rgb(0,0,0);stroke-opacity: 0.5;stroke-linecap: round;stroke-linejoin: round;shape-rendering:geometricPrecision;" transform="matrix(1,0,0,1,0,0)" clip-path="url(#_80059590025300clip-2)"/><line x1="782.48" y1="634.31" x2="754.9" y2="634.01" style="stroke-width: 1.5;stroke: rgb(0,0,0);stroke-opacity: 0.5;stroke-linecap: round;stroke-linejoin: round;shape-rendering:geometricPrecision;" transform="matrix(1,0,0,1,0,0)" clip-path="url(#_80059590025300clip-2)"/><line x1="754.9" y1="634.01" x2="727.31" y2="633.71" style="stroke-width: 1.5;stroke: rgb(0,0,0);stroke-opacity: 0.5;stroke-linecap: round;stroke-linejoin: round;shape-rendering:geometricPrecision;" transform="matrix(1,0,0,1,0,0)" clip-path="url(#_80059590025300clip-2)"/><line x1="727.31" y1="633.71" x2="699.72" y2="633.4" style="stroke-width: 1.5;stroke: rgb(0,0,0);stroke-opacity: 0.5;stroke-linecap: round;stroke-linejoin: round;shape-rendering:geometricPrecision;" transform="matrix(1,0,0,1,0,0)" clip-path="url(#_80059590025300clip-2)"/><line x1="699.72" y1="633.4" x2="672.14" y2="633.1" style="stroke-width: 1.5;stroke: rgb(0,0,0);stroke-opacity: 0.5;stroke-linecap: round;stroke-linejoin: round;shape-rendering:geometricPrecision;" transform="matrix(1,0,0,1,0,0)" clip-path="url(#_80059590025300clip-2)"/><line x1="672.14" y1="633.1" x2="644.55" y2="632.8" style="stroke-width: 1.5;stroke: rgb(0,0,0);stroke-opacity: 0.5;stroke-linecap: round;stroke-linejoin: round;shape-rendering:geometricPrecision;" transform="matrix(1,0,0,1,0,0)" clip-path="url(#_80059590025300clip-2)"/><line x1="644.55" y1="632.8" x2="616.97" y2="632.5" style="stroke-width: 1.5;stroke: rgb(0,0,0);stroke-opacity: 0.5;stroke-linecap: round;stroke-linejoin: round;shape-rendering:geometricPrecision;" transform="matrix(1,0,0,1,0,0)" clip-path="url(#_80059590025300clip-2)"/><line x1="616.97" y1="632.5" x2="589.38" y2="632.19" style="stroke-width: 1.5;stroke: rgb(0,0,0);stroke-opacity: 0.5;stroke-linecap: round;stroke-linejoin: round;shape-rendering:geometricPrecision;" transform="matrix(1,0,0,1,0,0)" clip-path="url(#_80059590025300clip-2)"/><line x1="589.38" y1="632.19" x2="561.79" y2="631.89" style="stroke-width: 1.5;stroke: rgb(0,0,0);stroke-opacity: 0.5;stroke-linecap: round;stroke-linejoin: round;shape-rendering:geometricPrecision;" transform="matrix(1,0,0,1,0,0)" clip-path="url(#_80059590025300clip-2)"/><line x1="561.79" y1="631.89" x2="534.21" y2="631.59" style="stroke-width: 1.5;stroke: rgb(0,0,0);stroke-opacity: 0.5;stroke-linecap: round;stroke-linejoin: round;shape-rendering:geometricPrecision;" transform="matrix(1,0,0,1,0,0)" clip-path="url(#_80059590025300clip-2)"/><line x1="534.21" y1="631.59" x2="506.62" y2="631.29" style="stroke-width: 1.5;stroke: rgb(0,0,0);stroke-opacity: 0.5;stroke-linecap: round;stroke-linejoin: round;shape-rendering:geometricPrecision;" transform="matrix(1,0,0,1,0,0)" clip-path="url(#_80059590025300clip-2)"/><line x1="506.62" y1="631.29" x2="479.03" y2="630.98" style="stroke-width: 1.5;stroke: rgb(0,0,0);stroke-opacity: 0.5;stroke-linecap: round;stroke-linejoin: round;shape-rendering:geometricPrecision;" transform="matrix(1,0,0,1,0,0)" clip-path="url(#_80059590025300clip-2)"/><line x1="479.03" y1="630.98" x2="451.45" y2="630.68" style="stroke-width: 1.5;stroke: rgb(0,0,0);stroke-opacity: 0.5;stroke-linecap: round;stroke-linejoin: round;shape-rendering:geometricPrecision;" transform="matrix(1,0,0,1,0,0)" clip-path="url(#_80059590025300clip-2)"/><line x1="451.45" y1="630.68" x2="423.86" y2="630.38" style="stroke-width: 1.5;stroke: rgb(0,0,0);stroke-opacity: 0.5;stroke-linecap: round;stroke-linejoin: round;shape-rendering:geometricPrecision;" transform="matrix(1,0,0,1,0,0)" clip-path="url(#_80059590025300clip-2)"/><line x1="423.86" y1="630.38" x2="396.28" y2="630.08" style="stroke-width: 1.5;stroke: rgb(0,0,0);stroke-opacity: 0.5;stroke-linecap: round;stroke-linejoin: round;shape-rendering:geometricPrecision;" transform="matrix(1,0,0,1,0,0)" clip-path="url(#_80059590025300clip-2)"/><line x1="396.28" y1="630.08" x2="368.69" y2="629.77" style="stroke-width: 1.5;stroke: rgb(0,0,0);stroke-opacity: 0.5;stroke-linecap: round;stroke-linejoin: round;shape-rendering:geometricPrecision;" transform="matrix(1,0,0,1,0,0)" clip-path="url(#_80059590025300clip-2)"/><line x1="368.69" y1="629.77" x2="341.1" y2="629.47" style="stroke-width: 1.5;stroke: rgb(0,0,0);stroke-opacity: 0.5;stroke-linecap: round;stroke-linejoin: round;shape-rendering:geometricPrecision;" transform="matrix(1,0,0,1,0,0)" clip-path="url(#_80059590025300clip-2)"/><line x1="341.1" y1="629.47" x2="313.52" y2="629.17" style="stroke-width: 1.5;stroke: rgb(0,0,0);stroke-opacity: 0.5;stroke-linecap: round;stroke-linejoin: round;shape-rendering:geometricPrecision;" transform="matrix(1,0,0,1,0,0)" clip-path="url(#_80059590025300clip-2)"/><line x1="313.52" y1="629.17" x2="285.93" y2="628.87" style="stroke-width: 1.5;stroke: rgb(0,0,0);stroke-opacity: 0.5;stroke-linecap: round;stroke-linejoin: round;shape-rendering:geometricPrecision;" transform="matrix(1,0,0,1,0,0)" clip-path="url(#_80059590025300clip-2)"/><line x1="285.93" y1="628.87" x2="258.34" y2="628.56" style="stroke-width: 1.5;stroke: rgb(0,0,0);stroke-opacity: 0.5;stroke-linecap: round;stroke-linejoin: round;shape-rendering:geometricPrecision;" transform="matrix(1,0,0,1,0,0)" clip-path="url(#_80059590025300clip-2)"/><line x1="258.34" y1="628.56" x2="230.76" y2="628.26" style="stroke-width: 1.5;stroke: rgb(0,0,0);stroke-opacity: 0.5;stroke-linecap: round;stroke-linejoin: round;shape-rendering:geometricPrecision;" transform="matrix(1,0,0,1,0,0)" clip-path="url(#_80059590025300clip-2)"/><line x1="230.76" y1="628.26" x2="203.17" y2="627.96" style="stroke-width: 1.5;stroke: rgb(0,0,0);stroke-opacity: 0.5;stroke-linecap: round;stroke-linejoin: round;shape-rendering:geometricPrecision;" transform="matrix(1,0,0,1,0,0)" clip-path="url(#_80059590025300clip-2)"/><line x1="203.17" y1="627.96" x2="175.59" y2="627.66" style="stroke-width: 1.5;stroke: rgb(0,0,0);stroke-opacity: 0.5;stroke-linecap: round;stroke-linejoin: round;shape-rendering:geometricPrecision;" transform="matrix(1,0,0,1,0,0)" clip-path="url(#_80059590025300clip-2)"/><line x1="175.59" y1="627.66" x2="148" y2="627.35" style="stroke-width: 1.5;stroke: rgb(0,0,0);stroke-opacity: 0.5;stroke-linecap: round;stroke-linejoin: round;shape-rendering:geometricPrecision;" transform="matrix(1,0,0,1,0,0)" clip-path="url(#_80059590025300clip-2)"/><line x1="148" y1="627.35" x2="148" y2="248.44" style="stroke-width: 1.5;stroke: rgb(0,0,0);stroke-opacity: 0.5;stroke-linecap: round;stroke-linejoin: round;shape-rendering:geometricPrecision;" transform="matrix(1,0,0,1,0,0)" clip-path="url(#_80059590025300clip-2)"/><line x1="228" y1="518.51" x2="228" y2="628.23" style="stroke-width: 1.5;stroke: rgb(0,0,0);stroke-opacity: 0.5;stroke-linecap: round;stroke-linejoin: round;shape-rendering:geometricPrecision;" transform="matrix(1,0,0,1,0,0)" clip-path="url(#_80059590025300clip-2)"/><line x1="228" y1="628.23" x2="948" y2="636.13" style="stroke-width: 1.5;stroke: rgb(0,0,0);stroke-opacity: 0.5;stroke-linecap: round;stroke-linejoin: round;shape-rendering:geometricPrecision;" transform="matrix(1,0,0,1,0,0)" clip-path="url(#_80059590025300clip-2)"/><line x1="948" y1="636.13" x2="948" y2="561.95" style="stroke-width: 1.5;stroke: rgb(0,0,0);stroke-opacity: 0.5;stroke-linecap: round;stroke-linejoin: round;shape-rendering:geometricPrecision;" transform="matrix(1,0,0,1,0,0)" clip-path="url(#_80059590025300clip-2)"/><line x1="948" y1="561.95" x2="228" y2="518.51" style="stroke-width: 1.5;stroke: rgb(0,0,0);stroke-opacity: 0.5;stroke-linecap: round;stroke-linejoin: round;shape-rendering:geometricPrecision;" transform="matrix(1,0,0,1,0,0)" clip-path="url(#_80059590025300clip-2)"/><line x1="519.97" y1="313.72" x2="519.97" y2="631.43" style="stroke-width: 2.5;stroke: rgb(255,85,85);stroke-opacity: 0.5;stroke-linecap: round;stroke-linejoin: round;stroke-dasharray: 5.0;shape-rendering:geometricPrecision;" transform="matrix(1,0,0,1,0,0)" clip-path="url(#_80059590025300clip-2)"/><rect x="108" y="35" width="880" height="876" style="stroke-width: 0.5;stroke: rgb(0,0,0);stroke-opacity: 1.0;stroke-linecap: round;stroke-linejoin: round;shape-rendering:crispEdges;; fill: none" transform="matrix(1,0,0,1,0,0)" clip-path="url(#_80059590025300clip-0)"/></svg>
