<!DOCTYPE svg PUBLIC "-//W3C//DTD SVG 1.1//EN" "http://www.w3.org/Graphics/SVG/1.1/DTD/svg11.dtd">
<svg xmlns="http://www.w3.org/2000/svg" xmlns:xlink="http://www.w3.org/1999/xlink" xmlns:jfreesvg="http://www.jfree.org/jfreesvg/svg" width="1000" height="1000" text-rendering="auto" shape-rendering="auto">
<defs><clipPath id="_80059804354400clip-0"><path d="M 0 0 L 1000 0 L 1000 1000 L 0 1000 L 0 0 Z "/></clipPath>
<clipPath id="_80059804354400clip-1"><path d="M 503.5 442.5 L 503.5 1442.5 L -496.5 1442.5 L -496.5 442.5 L 503.5 442.5 Z "/></clipPath>
<clipPath id="_80059804354400clip-2"><path d="M 108 35 L 108 911 L 988 911 L 988 35 Z "/></clipPath>
</defs>
<rect x="0" y="0" width="1000" height="1000" style="fill: rgb(245,245,245); fill-opacity: 1.0" transform="matrix(1,0,0,1,0,0)" clip-path="url(#_80059804354400clip-0)"/><g transform="matrix(1,0,0,1,0,0)"><text x="304.5" y="21.01" style="fill: rgb(0,0,0); fill-opacity: 1.0; font-family: Tahoma; font-size: 20px; font-weight: bold;" clip-path="url(#_80059804354400clip-0)">Nacelle data representation - Top View</text></g><rect x="108" y="35" width="880" height="876" style="fill: rgb(240,248,255); fill-opacity: 0.0" transform="matrix(1,0,0,1,0,0)" clip-path="url(#_80059804354400clip-0)"/><line x1="108" y1="915" x2="988" y2="915" style="stroke-width: 0.5;stroke: rgb(128,128,128);stroke-opacity: 1.0;stroke-linecap: square;shape-rendering:crispEdges;" transform="matrix(1,0,0,1,0,0)" clip-path="url(#_80059804354400clip-0)"/><g transform="matrix(1,0,0,1,0,0)"><text x="109.83" y="945.69" style="fill: rgb(64,64,64); fill-opacity: 1.0; font-family: sans-serif; font-size: 25px;" clip-path="url(#_80059804354400clip-0)">-3,5</text></g><line x1="131.33" y1="917" x2="131.33" y2="915" style="stroke-width: 0.5;stroke: rgb(128,128,128);stroke-opacity: 1.0;stroke-linecap: square;shape-rendering:crispEdges;" transform="matrix(1,0,0,1,0,0)" clip-path="url(#_80059804354400clip-0)"/><g transform="matrix(1,0,0,1,0,0)"><text x="169.36" y="945.69" style="fill: rgb(64,64,64); fill-opacity: 1.0; font-family: sans-serif; font-size: 25px;" clip-path="url(#_80059804354400clip-0)">-3,0</text></g><line x1="190.86" y1="917" x2="190.86" y2="915" style="stroke-width: 0.5;stroke: rgb(128,128,128);stroke-opacity: 1.0;stroke-linecap: square;shape-rendering:crispEdges;" transform="matrix(1,0,0,1,0,0)" clip-path="url(#_80059804354400clip-0)"/><g transform="matrix(1,0,0,1,0,0)"><text x="228.88" y="945.69" style="fill: rgb(64,64,64); fill-opacity: 1.0; font-family: sans-serif; font-size: 25px;" clip-path="url(#_80059804354400clip-0)">-2,5</text></g><line x1="250.38" y1="917" x2="250.38" y2="915" style="stroke-width: 0.5;stroke: rgb(128,128,128);stroke-opacity: 1.0;stroke-linecap: square;shape-rendering:crispEdges;" transform="matrix(1,0,0,1,0,0)" clip-path="url(#_80059804354400clip-0)"/><g transform="matrix(1,0,0,1,0,0)"><text x="288.4" y="945.69" style="fill: rgb(64,64,64); fill-opacity: 1.0; font-family: sans-serif; font-size: 25px;" clip-path="url(#_80059804354400clip-0)">-2,0</text></g><line x1="309.9" y1="917" x2="309.9" y2="915" style="stroke-width: 0.5;stroke: rgb(128,128,128);stroke-opacity: 1.0;stroke-linecap: square;shape-rendering:crispEdges;" transform="matrix(1,0,0,1,0,0)" clip-path="url(#_80059804354400clip-0)"/><g transform="matrix(1,0,0,1,0,0)"><text x="347.93" y="945.69" style="fill: rgb(64,64,64); fill-opacity: 1.0; font-family: sans-serif; font-size: 25px;" clip-path="url(#_80059804354400clip-0)">-1,5</text></g><line x1="369.43" y1="917" x2="369.43" y2="915" style="stroke-width: 0.5;stroke: rgb(128,128,128);stroke-opacity: 1.0;stroke-linecap: square;shape-rendering:crispEdges;" transform="matrix(1,0,0,1,0,0)" clip-path="url(#_80059804354400clip-0)"/><g transform="matrix(1,0,0,1,0,0)"><text x="407.45" y="945.69" style="fill: rgb(64,64,64); fill-opacity: 1.0; font-family: sans-serif; font-size: 25px;" clip-path="url(#_80059804354400clip-0)">-1,0</text></g><line x1="428.95" y1="917" x2="428.95" y2="915" style="stroke-width: 0.5;stroke: rgb(128,128,128);stroke-opacity: 1.0;stroke-linecap: square;shape-rendering:crispEdges;" transform="matrix(1,0,0,1,0,0)" clip-path="url(#_80059804354400clip-0)"/><g transform="matrix(1,0,0,1,0,0)"><text x="466.98" y="945.69" style="fill: rgb(64,64,64); fill-opacity: 1.0; font-family: sans-serif; font-size: 25px;" clip-path="url(#_80059804354400clip-0)">-0,5</text></g><line x1="488.48" y1="917" x2="488.48" y2="915" style="stroke-width: 0.5;stroke: rgb(128,128,128);stroke-opacity: 1.0;stroke-linecap: square;shape-rendering:crispEdges;" transform="matrix(1,0,0,1,0,0)" clip-path="url(#_80059804354400clip-0)"/><g transform="matrix(1,0,0,1,0,0)"><text x="530.5" y="945.69" style="fill: rgb(64,64,64); fill-opacity: 1.0; font-family: sans-serif; font-size: 25px;" clip-path="url(#_80059804354400clip-0)">0,0</text></g><line x1="548" y1="917" x2="548" y2="915" style="stroke-width: 0.5;stroke: rgb(128,128,128);stroke-opacity: 1.0;stroke-linecap: square;shape-rendering:crispEdges;" transform="matrix(1,0,0,1,0,0)" clip-path="url(#_80059804354400clip-0)"/><g transform="matrix(1,0,0,1,0,0)"><text x="590.02" y="945.69" style="fill: rgb(64,64,64); fill-opacity: 1.0; font-family: sans-serif; font-size: 25px;" clip-path="url(#_80059804354400clip-0)">0,5</text></g><line x1="607.52" y1="917" x2="607.52" y2="915" style="stroke-width: 0.5;stroke: rgb(128,128,128);stroke-opacity: 1.0;stroke-linecap: square;shape-rendering:crispEdges;" transform="matrix(1,0,0,1,0,0)" clip-path="url(#_80059804354400clip-0)"/><g transform="matrix(1,0,0,1,0,0)"><text x="649.55" y="945.69" style="fill: rgb(64,64,64); fill-opacity: 1.0; font-family: sans-serif; font-size: 25px;" clip-path="url(#_80059804354400clip-0)">1,0</text></g><line x1="667.05" y1="917" x2="667.05" y2="915" style="stroke-width: 0.5;stroke: rgb(128,128,128);stroke-opacity: 1.0;stroke-linecap: square;shape-rendering:crispEdges;" transform="matrix(1,0,0,1,0,0)" clip-path="url(#_80059804354400clip-0)"/><g transform="matrix(1,0,0,1,0,0)"><text x="709.07" y="945.69" style="fill: rgb(64,64,64); fill-opacity: 1.0; font-family: sans-serif; font-size: 25px;" clip-path="url(#_80059804354400clip-0)">1,5</text></g><line x1="726.57" y1="917" x2="726.57" y2="915" style="stroke-width: 0.5;stroke: rgb(128,128,128);stroke-opacity: 1.0;stroke-linecap: square;shape-rendering:crispEdges;" transform="matrix(1,0,0,1,0,0)" clip-path="url(#_80059804354400clip-0)"/><g transform="matrix(1,0,0,1,0,0)"><text x="768.6" y="945.69" style="fill: rgb(64,64,64); fill-opacity: 1.0; font-family: sans-serif; font-size: 25px;" clip-path="url(#_80059804354400clip-0)">2,0</text></g><line x1="786.1" y1="917" x2="786.1" y2="915" style="stroke-width: 0.5;stroke: rgb(128,128,128);stroke-opacity: 1.0;stroke-linecap: square;shape-rendering:crispEdges;" transform="matrix(1,0,0,1,0,0)" clip-path="url(#_80059804354400clip-0)"/><g transform="matrix(1,0,0,1,0,0)"><text x="828.12" y="945.69" style="fill: rgb(64,64,64); fill-opacity: 1.0; font-family: sans-serif; font-size: 25px;" clip-path="url(#_80059804354400clip-0)">2,5</text></g><line x1="845.62" y1="917" x2="845.62" y2="915" style="stroke-width: 0.5;stroke: rgb(128,128,128);stroke-opacity: 1.0;stroke-linecap: square;shape-rendering:crispEdges;" transform="matrix(1,0,0,1,0,0)" clip-path="url(#_80059804354400clip-0)"/><g transform="matrix(1,0,0,1,0,0)"><text x="887.64" y="945.69" style="fill: rgb(64,64,64); fill-opacity: 1.0; font-family: sans-serif; font-size: 25px;" clip-path="url(#_80059804354400clip-0)">3,0</text></g><line x1="905.14" y1="917" x2="905.14" y2="915" style="stroke-width: 0.5;stroke: rgb(128,128,128);stroke-opacity: 1.0;stroke-linecap: square;shape-rendering:crispEdges;" transform="matrix(1,0,0,1,0,0)" clip-path="url(#_80059804354400clip-0)"/><g transform="matrix(1,0,0,1,0,0)"><text x="947.17" y="945.69" style="fill: rgb(64,64,64); fill-opacity: 1.0; font-family: sans-serif; font-size: 25px;" clip-path="url(#_80059804354400clip-0)">3,5</text></g><line x1="964.67" y1="917" x2="964.67" y2="915" style="stroke-width: 0.5;stroke: rgb(128,128,128);stroke-opacity: 1.0;stroke-linecap: square;shape-rendering:crispEdges;" transform="matrix(1,0,0,1,0,0)" clip-path="url(#_80059804354400clip-0)"/><g transform="matrix(1,0,0,1,0,0)"><text x="514" y="984.87" style="fill: rgb(64,64,64); fill-opacity: 1.0; font-family: sans-serif; font-size: 30px;" clip-path="url(#_80059804354400clip-0)">x (m)</text></g><line x1="104" y1="35" x2="104" y2="911" style="stroke-width: 0.5;stroke: rgb(128,128,128);stroke-opacity: 1.0;stroke-linecap: square;shape-rendering:crispEdges;" transform="matrix(1,0,0,1,0,0)" clip-path="url(#_80059804354400clip-0)"/><g transform="matrix(1,0,0,1,0,0)"><text x="55" y="51.83" style="fill: rgb(64,64,64); fill-opacity: 1.0; font-family: sans-serif; font-size: 25px;" clip-path="url(#_80059804354400clip-0)">-1,0</text></g><line x1="102" y1="41.64" x2="104" y2="41.64" style="stroke-width: 0.5;stroke: rgb(128,128,128);stroke-opacity: 1.0;stroke-linecap: square;shape-rendering:crispEdges;" transform="matrix(1,0,0,1,0,0)" clip-path="url(#_80059804354400clip-0)"/><g transform="matrix(1,0,0,1,0,0)"><text x="55" y="111.08" style="fill: rgb(64,64,64); fill-opacity: 1.0; font-family: sans-serif; font-size: 25px;" clip-path="url(#_80059804354400clip-0)">-0,5</text></g><line x1="102" y1="100.89" x2="104" y2="100.89" style="stroke-width: 0.5;stroke: rgb(128,128,128);stroke-opacity: 1.0;stroke-linecap: square;shape-rendering:crispEdges;" transform="matrix(1,0,0,1,0,0)" clip-path="url(#_80059804354400clip-0)"/><g transform="matrix(1,0,0,1,0,0)"><text x="63" y="170.33" style="fill: rgb(64,64,64); fill-opacity: 1.0; font-family: sans-serif; font-size: 25px;" clip-path="url(#_80059804354400clip-0)">0,0</text></g><line x1="102" y1="160.14" x2="104" y2="160.14" style="stroke-width: 0.5;stroke: rgb(128,128,128);stroke-opacity: 1.0;stroke-linecap: square;shape-rendering:crispEdges;" transform="matrix(1,0,0,1,0,0)" clip-path="url(#_80059804354400clip-0)"/><g transform="matrix(1,0,0,1,0,0)"><text x="63" y="229.59" style="fill: rgb(64,64,64); fill-opacity: 1.0; font-family: sans-serif; font-size: 25px;" clip-path="url(#_80059804354400clip-0)">0,5</text></g><line x1="102" y1="219.4" x2="104" y2="219.4" style="stroke-width: 0.5;stroke: rgb(128,128,128);stroke-opacity: 1.0;stroke-linecap: square;shape-rendering:crispEdges;" transform="matrix(1,0,0,1,0,0)" clip-path="url(#_80059804354400clip-0)"/><g transform="matrix(1,0,0,1,0,0)"><text x="63" y="288.84" style="fill: rgb(64,64,64); fill-opacity: 1.0; font-family: sans-serif; font-size: 25px;" clip-path="url(#_80059804354400clip-0)">1,0</text></g><line x1="102" y1="278.65" x2="104" y2="278.65" style="stroke-width: 0.5;stroke: rgb(128,128,128);stroke-opacity: 1.0;stroke-linecap: square;shape-rendering:crispEdges;" transform="matrix(1,0,0,1,0,0)" clip-path="url(#_80059804354400clip-0)"/><g transform="matrix(1,0,0,1,0,0)"><text x="63" y="348.09" style="fill: rgb(64,64,64); fill-opacity: 1.0; font-family: sans-serif; font-size: 25px;" clip-path="url(#_80059804354400clip-0)">1,5</text></g><line x1="102" y1="337.9" x2="104" y2="337.9" style="stroke-width: 0.5;stroke: rgb(128,128,128);stroke-opacity: 1.0;stroke-linecap: square;shape-rendering:crispEdges;" transform="matrix(1,0,0,1,0,0)" clip-path="url(#_80059804354400clip-0)"/><g transform="matrix(1,0,0,1,0,0)"><text x="63" y="407.34" style="fill: rgb(64,64,64); fill-opacity: 1.0; font-family: sans-serif; font-size: 25px;" clip-path="url(#_80059804354400clip-0)">2,0</text></g><line x1="102" y1="397.16" x2="104" y2="397.16" style="stroke-width: 0.5;stroke: rgb(128,128,128);stroke-opacity: 1.0;stroke-linecap: square;shape-rendering:crispEdges;" transform="matrix(1,0,0,1,0,0)" clip-path="url(#_80059804354400clip-0)"/><g transform="matrix(1,0,0,1,0,0)"><text x="63" y="466.6" style="fill: rgb(64,64,64); fill-opacity: 1.0; font-family: sans-serif; font-size: 25px;" clip-path="url(#_80059804354400clip-0)">2,5</text></g><line x1="102" y1="456.41" x2="104" y2="456.41" style="stroke-width: 0.5;stroke: rgb(128,128,128);stroke-opacity: 1.0;stroke-linecap: square;shape-rendering:crispEdges;" transform="matrix(1,0,0,1,0,0)" clip-path="url(#_80059804354400clip-0)"/><g transform="matrix(1,0,0,1,0,0)"><text x="63" y="525.85" style="fill: rgb(64,64,64); fill-opacity: 1.0; font-family: sans-serif; font-size: 25px;" clip-path="url(#_80059804354400clip-0)">3,0</text></g><line x1="102" y1="515.66" x2="104" y2="515.66" style="stroke-width: 0.5;stroke: rgb(128,128,128);stroke-opacity: 1.0;stroke-linecap: square;shape-rendering:crispEdges;" transform="matrix(1,0,0,1,0,0)" clip-path="url(#_80059804354400clip-0)"/><g transform="matrix(1,0,0,1,0,0)"><text x="63" y="585.1" style="fill: rgb(64,64,64); fill-opacity: 1.0; font-family: sans-serif; font-size: 25px;" clip-path="url(#_80059804354400clip-0)">3,5</text></g><line x1="102" y1="574.92" x2="104" y2="574.92" style="stroke-width: 0.5;stroke: rgb(128,128,128);stroke-opacity: 1.0;stroke-linecap: square;shape-rendering:crispEdges;" transform="matrix(1,0,0,1,0,0)" clip-path="url(#_80059804354400clip-0)"/><g transform="matrix(1,0,0,1,0,0)"><text x="63" y="644.36" style="fill: rgb(64,64,64); fill-opacity: 1.0; font-family: sans-serif; font-size: 25px;" clip-path="url(#_80059804354400clip-0)">4,0</text></g><line x1="102" y1="634.17" x2="104" y2="634.17" style="stroke-width: 0.5;stroke: rgb(128,128,128);stroke-opacity: 1.0;stroke-linecap: square;shape-rendering:crispEdges;" transform="matrix(1,0,0,1,0,0)" clip-path="url(#_80059804354400clip-0)"/><g transform="matrix(1,0,0,1,0,0)"><text x="63" y="703.61" style="fill: rgb(64,64,64); fill-opacity: 1.0; font-family: sans-serif; font-size: 25px;" clip-path="url(#_80059804354400clip-0)">4,5</text></g><line x1="102" y1="693.42" x2="104" y2="693.42" style="stroke-width: 0.5;stroke: rgb(128,128,128);stroke-opacity: 1.0;stroke-linecap: square;shape-rendering:crispEdges;" transform="matrix(1,0,0,1,0,0)" clip-path="url(#_80059804354400clip-0)"/><g transform="matrix(1,0,0,1,0,0)"><text x="63" y="762.86" style="fill: rgb(64,64,64); fill-opacity: 1.0; font-family: sans-serif; font-size: 25px;" clip-path="url(#_80059804354400clip-0)">5,0</text></g><line x1="102" y1="752.68" x2="104" y2="752.68" style="stroke-width: 0.5;stroke: rgb(128,128,128);stroke-opacity: 1.0;stroke-linecap: square;shape-rendering:crispEdges;" transform="matrix(1,0,0,1,0,0)" clip-path="url(#_80059804354400clip-0)"/><g transform="matrix(1,0,0,1,0,0)"><text x="63" y="822.12" style="fill: rgb(64,64,64); fill-opacity: 1.0; font-family: sans-serif; font-size: 25px;" clip-path="url(#_80059804354400clip-0)">5,5</text></g><line x1="102" y1="811.93" x2="104" y2="811.93" style="stroke-width: 0.5;stroke: rgb(128,128,128);stroke-opacity: 1.0;stroke-linecap: square;shape-rendering:crispEdges;" transform="matrix(1,0,0,1,0,0)" clip-path="url(#_80059804354400clip-0)"/><g transform="matrix(1,0,0,1,0,0)"><text x="63" y="881.37" style="fill: rgb(64,64,64); fill-opacity: 1.0; font-family: sans-serif; font-size: 25px;" clip-path="url(#_80059804354400clip-0)">6,0</text></g><line x1="102" y1="871.18" x2="104" y2="871.18" style="stroke-width: 0.5;stroke: rgb(128,128,128);stroke-opacity: 1.0;stroke-linecap: square;shape-rendering:crispEdges;" transform="matrix(1,0,0,1,0,0)" clip-path="url(#_80059804354400clip-0)"/><g style="fill: rgb(64,64,64); fill-opacity: 1.0; stroke: none" transform="matrix(0,-1,1,0,-442.5,503.5)" clip-path="url(#_80059804354400clip-1)"><path d="M -1.64 490.91 L -1.94 488.44 Q -1.06 488.68 -0.42 488.68 Q 0.45 488.68 0.98 488.39 Q 1.52 488.1 1.84 487.57 Q 2.09 487.16 2.66 485.6 Q 2.72 485.38 2.89 484.96 L -3.02 469.36 L -0.17 469.36 L 3.06 478.38 Q 3.69 480.1 4.19 481.99 Q 4.64 480.16 5.28 478.44 L 8.59 469.36 L 11.23 469.36 L 5.31 485.19 Q 4.36 487.75 3.84 488.72 Q 3.14 490.02 2.23 490.63 Q 1.31 491.24 0.06 491.24 Q -0.7 491.24 -1.64 490.91 Z  M 26.85 491.24 Q 24.66 488.49 23.16 484.79 Q 21.65 481.1 21.65 477.15 Q 21.65 473.66 22.77 470.47 Q 24.1 466.75 26.85 463.08 L 28.74 463.08 Q 26.98 466.13 26.4 467.44 Q 25.51 469.46 24.99 471.66 Q 24.37 474.4 24.37 477.16 Q 24.37 484.21 28.74 491.24 L 26.85 491.24 Z  M 31.81 484.93 L 31.81 469.36 L 34.17 469.36 L 34.17 471.55 Q 34.89 470.41 36.11 469.72 Q 37.33 469.02 38.87 469.02 Q 40.61 469.02 41.72 469.74 Q 42.83 470.46 43.28 471.74 Q 45.12 469.02 48.08 469.02 Q 50.39 469.02 51.64 470.3 Q 52.89 471.58 52.89 474.25 L 52.89 484.93 L 50.26 484.93 L 50.26 475.13 Q 50.26 473.55 50 472.85 Q 49.75 472.15 49.08 471.72 Q 48.4 471.3 47.5 471.3 Q 45.86 471.3 44.77 472.4 Q 43.68 473.49 43.68 475.9 L 43.68 484.93 L 41.04 484.93 L 41.04 474.82 Q 41.04 473.07 40.4 472.18 Q 39.76 471.3 38.29 471.3 Q 37.18 471.3 36.24 471.89 Q 35.29 472.47 34.86 473.6 Q 34.43 474.72 34.43 476.85 L 34.43 484.93 L 31.81 484.93 Z  M 58.52 491.24 L 56.63 491.24 Q 61.02 484.21 61.02 477.16 Q 61.02 474.41 60.38 471.69 Q 59.88 469.5 58.99 467.47 Q 58.42 466.16 56.63 463.08 L 58.52 463.08 Q 61.27 466.75 62.6 470.47 Q 63.72 473.66 63.72 477.15 Q 63.72 481.1 62.21 484.79 Q 60.69 488.49 58.52 491.24 Z "/></g><line x1="108" y1="41.64" x2="988" y2="41.64" style="stroke-width: 0.5;stroke: rgb(128,128,128);stroke-opacity: 0.5;stroke-linejoin: bevel;stroke-dasharray: 2.0, 2.0;shape-rendering:crispEdges;" transform="matrix(1,0,0,1,0,0)" clip-path="url(#_80059804354400clip-2)"/><line x1="108" y1="100.89" x2="988" y2="100.89" style="stroke-width: 0.5;stroke: rgb(128,128,128);stroke-opacity: 0.5;stroke-linejoin: bevel;stroke-dasharray: 2.0, 2.0;shape-rendering:crispEdges;" transform="matrix(1,0,0,1,0,0)" clip-path="url(#_80059804354400clip-2)"/><line x1="108" y1="160.14" x2="988" y2="160.14" style="stroke-width: 0.5;stroke: rgb(128,128,128);stroke-opacity: 0.5;stroke-linejoin: bevel;stroke-dasharray: 2.0, 2.0;shape-rendering:crispEdges;" transform="matrix(1,0,0,1,0,0)" clip-path="url(#_80059804354400clip-2)"/><line x1="108" y1="219.4" x2="988" y2="219.4" style="stroke-width: 0.5;stroke: rgb(128,128,128);stroke-opacity: 0.5;stroke-linejoin: bevel;stroke-dasharray: 2.0, 2.0;shape-rendering:crispEdges;" transform="matrix(1,0,0,1,0,0)" clip-path="url(#_80059804354400clip-2)"/><line x1="108" y1="278.65" x2="988" y2="278.65" style="stroke-width: 0.5;stroke: rgb(128,128,128);stroke-opacity: 0.5;stroke-linejoin: bevel;stroke-dasharray: 2.0, 2.0;shape-rendering:crispEdges;" transform="matrix(1,0,0,1,0,0)" clip-path="url(#_80059804354400clip-2)"/><line x1="108" y1="337.9" x2="988" y2="337.9" style="stroke-width: 0.5;stroke: rgb(128,128,128);stroke-opacity: 0.5;stroke-linejoin: bevel;stroke-dasharray: 2.0, 2.0;shape-rendering:crispEdges;" transform="matrix(1,0,0,1,0,0)" clip-path="url(#_80059804354400clip-2)"/><line x1="108" y1="397.16" x2="988" y2="397.16" style="stroke-width: 0.5;stroke: rgb(128,128,128);stroke-opacity: 0.5;stroke-linejoin: bevel;stroke-dasharray: 2.0, 2.0;shape-rendering:crispEdges;" transform="matrix(1,0,0,1,0,0)" clip-path="url(#_80059804354400clip-2)"/><line x1="108" y1="456.41" x2="988" y2="456.41" style="stroke-width: 0.5;stroke: rgb(128,128,128);stroke-opacity: 0.5;stroke-linejoin: bevel;stroke-dasharray: 2.0, 2.0;shape-rendering:crispEdges;" transform="matrix(1,0,0,1,0,0)" clip-path="url(#_80059804354400clip-2)"/><line x1="108" y1="515.66" x2="988" y2="515.66" style="stroke-width: 0.5;stroke: rgb(128,128,128);stroke-opacity: 0.5;stroke-linejoin: bevel;stroke-dasharray: 2.0, 2.0;shape-rendering:crispEdges;" transform="matrix(1,0,0,1,0,0)" clip-path="url(#_80059804354400clip-2)"/><line x1="108" y1="574.92" x2="988" y2="574.92" style="stroke-width: 0.5;stroke: rgb(128,128,128);stroke-opacity: 0.5;stroke-linejoin: bevel;stroke-dasharray: 2.0, 2.0;shape-rendering:crispEdges;" transform="matrix(1,0,0,1,0,0)" clip-path="url(#_80059804354400clip-2)"/><line x1="108" y1="634.17" x2="988" y2="634.17" style="stroke-width: 0.5;stroke: rgb(128,128,128);stroke-opacity: 0.5;stroke-linejoin: bevel;stroke-dasharray: 2.0, 2.0;shape-rendering:crispEdges;" transform="matrix(1,0,0,1,0,0)" clip-path="url(#_80059804354400clip-2)"/><line x1="108" y1="693.42" x2="988" y2="693.42" style="stroke-width: 0.5;stroke: rgb(128,128,128);stroke-opacity: 0.5;stroke-linejoin: bevel;stroke-dasharray: 2.0, 2.0;shape-rendering:crispEdges;" transform="matrix(1,0,0,1,0,0)" clip-path="url(#_80059804354400clip-2)"/><line x1="108" y1="752.68" x2="988" y2="752.68" style="stroke-width: 0.5;stroke: rgb(128,128,128);stroke-opacity: 0.5;stroke-linejoin: bevel;stroke-dasharray: 2.0, 2.0;shape-rendering:crispEdges;" transform="matrix(1,0,0,1,0,0)" clip-path="url(#_80059804354400clip-2)"/><line x1="108" y1="811.93" x2="988" y2="811.93" style="stroke-width: 0.5;stroke: rgb(128,128,128);stroke-opacity: 0.5;stroke-linejoin: bevel;stroke-dasharray: 2.0, 2.0;shape-rendering:crispEdges;" transform="matrix(1,0,0,1,0,0)" clip-path="url(#_80059804354400clip-2)"/><line x1="108" y1="871.18" x2="988" y2="871.18" style="stroke-width: 0.5;stroke: rgb(128,128,128);stroke-opacity: 0.5;stroke-linejoin: bevel;stroke-dasharray: 2.0, 2.0;shape-rendering:crispEdges;" transform="matrix(1,0,0,1,0,0)" clip-path="url(#_80059804354400clip-2)"/><line x1="131.33" y1="35" x2="131.33" y2="911" style="stroke-width: 0.5;stroke: rgb(128,128,128);stroke-opacity: 0.5;stroke-linejoin: bevel;stroke-dasharray: 2.0, 2.0;shape-rendering:crispEdges;" transform="matrix(1,0,0,1,0,0)" clip-path="url(#_80059804354400clip-2)"/><line x1="190.86" y1="35" x2="190.86" y2="911" style="stroke-width: 0.5;stroke: rgb(128,128,128);stroke-opacity: 0.5;stroke-linejoin: bevel;stroke-dasharray: 2.0, 2.0;shape-rendering:crispEdges;" transform="matrix(1,0,0,1,0,0)" clip-path="url(#_80059804354400clip-2)"/><line x1="250.38" y1="35" x2="250.38" y2="911" style="stroke-width: 0.5;stroke: rgb(128,128,128);stroke-opacity: 0.5;stroke-linejoin: bevel;stroke-dasharray: 2.0, 2.0;shape-rendering:crispEdges;" transform="matrix(1,0,0,1,0,0)" clip-path="url(#_80059804354400clip-2)"/><line x1="309.9" y1="35" x2="309.9" y2="911" style="stroke-width: 0.5;stroke: rgb(128,128,128);stroke-opacity: 0.5;stroke-linejoin: bevel;stroke-dasharray: 2.0, 2.0;shape-rendering:crispEdges;" transform="matrix(1,0,0,1,0,0)" clip-path="url(#_80059804354400clip-2)"/><line x1="369.43" y1="35" x2="369.43" y2="911" style="stroke-width: 0.5;stroke: rgb(128,128,128);stroke-opacity: 0.5;stroke-linejoin: bevel;stroke-dasharray: 2.0, 2.0;shape-rendering:crispEdges;" transform="matrix(1,0,0,1,0,0)" clip-path="url(#_80059804354400clip-2)"/><line x1="428.95" y1="35" x2="428.95" y2="911" style="stroke-width: 0.5;stroke: rgb(128,128,128);stroke-opacity: 0.5;stroke-linejoin: bevel;stroke-dasharray: 2.0, 2.0;shape-rendering:crispEdges;" transform="matrix(1,0,0,1,0,0)" clip-path="url(#_80059804354400clip-2)"/><line x1="488.48" y1="35" x2="488.48" y2="911" style="stroke-width: 0.5;stroke: rgb(128,128,128);stroke-opacity: 0.5;stroke-linejoin: bevel;stroke-dasharray: 2.0, 2.0;shape-rendering:crispEdges;" transform="matrix(1,0,0,1,0,0)" clip-path="url(#_80059804354400clip-2)"/><line x1="548" y1="35" x2="548" y2="911" style="stroke-width: 0.5;stroke: rgb(128,128,128);stroke-opacity: 0.5;stroke-linejoin: bevel;stroke-dasharray: 2.0, 2.0;shape-rendering:crispEdges;" transform="matrix(1,0,0,1,0,0)" clip-path="url(#_80059804354400clip-2)"/><line x1="607.52" y1="35" x2="607.52" y2="911" style="stroke-width: 0.5;stroke: rgb(128,128,128);stroke-opacity: 0.5;stroke-linejoin: bevel;stroke-dasharray: 2.0, 2.0;shape-rendering:crispEdges;" transform="matrix(1,0,0,1,0,0)" clip-path="url(#_80059804354400clip-2)"/><line x1="667.05" y1="35" x2="667.05" y2="911" style="stroke-width: 0.5;stroke: rgb(128,128,128);stroke-opacity: 0.5;stroke-linejoin: bevel;stroke-dasharray: 2.0, 2.0;shape-rendering:crispEdges;" transform="matrix(1,0,0,1,0,0)" clip-path="url(#_80059804354400clip-2)"/><line x1="726.57" y1="35" x2="726.57" y2="911" style="stroke-width: 0.5;stroke: rgb(128,128,128);stroke-opacity: 0.5;stroke-linejoin: bevel;stroke-dasharray: 2.0, 2.0;shape-rendering:crispEdges;" transform="matrix(1,0,0,1,0,0)" clip-path="url(#_80059804354400clip-2)"/><line x1="786.1" y1="35" x2="786.1" y2="911" style="stroke-width: 0.5;stroke: rgb(128,128,128);stroke-opacity: 0.5;stroke-linejoin: bevel;stroke-dasharray: 2.0, 2.0;shape-rendering:crispEdges;" transform="matrix(1,0,0,1,0,0)" clip-path="url(#_80059804354400clip-2)"/><line x1="845.62" y1="35" x2="845.62" y2="911" style="stroke-width: 0.5;stroke: rgb(128,128,128);stroke-opacity: 0.5;stroke-linejoin: bevel;stroke-dasharray: 2.0, 2.0;shape-rendering:crispEdges;" transform="matrix(1,0,0,1,0,0)" clip-path="url(#_80059804354400clip-2)"/><line x1="905.14" y1="35" x2="905.14" y2="911" style="stroke-width: 0.5;stroke: rgb(128,128,128);stroke-opacity: 0.5;stroke-linejoin: bevel;stroke-dasharray: 2.0, 2.0;shape-rendering:crispEdges;" transform="matrix(1,0,0,1,0,0)" clip-path="url(#_80059804354400clip-2)"/><line x1="964.67" y1="35" x2="964.67" y2="911" style="stroke-width: 0.5;stroke: rgb(128,128,128);stroke-opacity: 0.5;stroke-linejoin: bevel;stroke-dasharray: 2.0, 2.0;shape-rendering:crispEdges;" transform="matrix(1,0,0,1,0,0)" clip-path="url(#_80059804354400clip-2)"/><line x1="574.67" y1="160.14" x2="582.91" y2="193.08" style="stroke-width: 1.5;stroke: rgb(0,0,0);stroke-opacity: 0.5;stroke-linecap: round;stroke-linejoin: round;shape-rendering:geometricPrecision;" transform="matrix(1,0,0,1,0,0)" clip-path="url(#_80059804354400clip-2)"/><line x1="582.91" y1="193.08" x2="590.96" y2="226.01" style="stroke-width: 1.5;stroke: rgb(0,0,0);stroke-opacity: 0.5;stroke-linecap: round;stroke-linejoin: round;shape-rendering:geometricPrecision;" transform="matrix(1,0,0,1,0,0)" clip-path="url(#_80059804354400clip-2)"/><line x1="590.96" y1="226.01" x2="598.6" y2="258.94" style="stroke-width: 1.5;stroke: rgb(0,0,0);stroke-opacity: 0.5;stroke-linecap: round;stroke-linejoin: round;shape-rendering:geometricPrecision;" transform="matrix(1,0,0,1,0,0)" clip-path="url(#_80059804354400clip-2)"/><line x1="598.6" y1="258.94" x2="605.63" y2="291.87" style="stroke-width: 1.5;stroke: rgb(0,0,0);stroke-opacity: 0.5;stroke-linecap: round;stroke-linejoin: round;shape-rendering:geometricPrecision;" transform="matrix(1,0,0,1,0,0)" clip-path="url(#_80059804354400clip-2)"/><line x1="605.63" y1="291.87" x2="611.86" y2="324.8" style="stroke-width: 1.5;stroke: rgb(0,0,0);stroke-opacity: 0.5;stroke-linecap: round;stroke-linejoin: round;shape-rendering:geometricPrecision;" transform="matrix(1,0,0,1,0,0)" clip-path="url(#_80059804354400clip-2)"/><line x1="611.86" y1="324.8" x2="617.09" y2="357.74" style="stroke-width: 1.5;stroke: rgb(0,0,0);stroke-opacity: 0.5;stroke-linecap: round;stroke-linejoin: round;shape-rendering:geometricPrecision;" transform="matrix(1,0,0,1,0,0)" clip-path="url(#_80059804354400clip-2)"/><line x1="617.09" y1="357.74" x2="621.1" y2="390.67" style="stroke-width: 1.5;stroke: rgb(0,0,0);stroke-opacity: 0.5;stroke-linecap: round;stroke-linejoin: round;shape-rendering:geometricPrecision;" transform="matrix(1,0,0,1,0,0)" clip-path="url(#_80059804354400clip-2)"/><line x1="621.1" y1="390.67" x2="623.7" y2="423.6" style="stroke-width: 1.5;stroke: rgb(0,0,0);stroke-opacity: 0.5;stroke-linecap: round;stroke-linejoin: round;shape-rendering:geometricPrecision;" transform="matrix(1,0,0,1,0,0)" clip-path="url(#_80059804354400clip-2)"/><line x1="623.7" y1="423.6" x2="624.7" y2="456.53" style="stroke-width: 1.5;stroke: rgb(0,0,0);stroke-opacity: 0.5;stroke-linecap: round;stroke-linejoin: round;shape-rendering:geometricPrecision;" transform="matrix(1,0,0,1,0,0)" clip-path="url(#_80059804354400clip-2)"/><line x1="624.7" y1="456.53" x2="623.88" y2="489.47" style="stroke-width: 1.5;stroke: rgb(0,0,0);stroke-opacity: 0.5;stroke-linecap: round;stroke-linejoin: round;shape-rendering:geometricPrecision;" transform="matrix(1,0,0,1,0,0)" clip-path="url(#_80059804354400clip-2)"/><line x1="623.88" y1="489.47" x2="621.16" y2="522.4" style="stroke-width: 1.5;stroke: rgb(0,0,0);stroke-opacity: 0.5;stroke-linecap: round;stroke-linejoin: round;shape-rendering:geometricPrecision;" transform="matrix(1,0,0,1,0,0)" clip-path="url(#_80059804354400clip-2)"/><line x1="621.16" y1="522.4" x2="616.73" y2="555.33" style="stroke-width: 1.5;stroke: rgb(0,0,0);stroke-opacity: 0.5;stroke-linecap: round;stroke-linejoin: round;shape-rendering:geometricPrecision;" transform="matrix(1,0,0,1,0,0)" clip-path="url(#_80059804354400clip-2)"/><line x1="616.73" y1="555.33" x2="610.79" y2="588.26" style="stroke-width: 1.5;stroke: rgb(0,0,0);stroke-opacity: 0.5;stroke-linecap: round;stroke-linejoin: round;shape-rendering:geometricPrecision;" transform="matrix(1,0,0,1,0,0)" clip-path="url(#_80059804354400clip-2)"/><line x1="610.79" y1="588.26" x2="603.56" y2="621.2" style="stroke-width: 1.5;stroke: rgb(0,0,0);stroke-opacity: 0.5;stroke-linecap: round;stroke-linejoin: round;shape-rendering:geometricPrecision;" transform="matrix(1,0,0,1,0,0)" clip-path="url(#_80059804354400clip-2)"/><line x1="603.56" y1="621.2" x2="595.26" y2="654.13" style="stroke-width: 1.5;stroke: rgb(0,0,0);stroke-opacity: 0.5;stroke-linecap: round;stroke-linejoin: round;shape-rendering:geometricPrecision;" transform="matrix(1,0,0,1,0,0)" clip-path="url(#_80059804354400clip-2)"/><line x1="595.26" y1="654.13" x2="586.1" y2="687.06" style="stroke-width: 1.5;stroke: rgb(0,0,0);stroke-opacity: 0.5;stroke-linecap: round;stroke-linejoin: round;shape-rendering:geometricPrecision;" transform="matrix(1,0,0,1,0,0)" clip-path="url(#_80059804354400clip-2)"/><line x1="586.1" y1="687.06" x2="576.3" y2="719.99" style="stroke-width: 1.5;stroke: rgb(0,0,0);stroke-opacity: 0.5;stroke-linecap: round;stroke-linejoin: round;shape-rendering:geometricPrecision;" transform="matrix(1,0,0,1,0,0)" clip-path="url(#_80059804354400clip-2)"/><line x1="576.3" y1="719.99" x2="566.07" y2="752.92" style="stroke-width: 1.5;stroke: rgb(0,0,0);stroke-opacity: 0.5;stroke-linecap: round;stroke-linejoin: round;shape-rendering:geometricPrecision;" transform="matrix(1,0,0,1,0,0)" clip-path="url(#_80059804354400clip-2)"/><line x1="566.07" y1="752.92" x2="555.62" y2="785.86" style="stroke-width: 1.5;stroke: rgb(0,0,0);stroke-opacity: 0.5;stroke-linecap: round;stroke-linejoin: round;shape-rendering:geometricPrecision;" transform="matrix(1,0,0,1,0,0)" clip-path="url(#_80059804354400clip-2)"/><line x1="555.62" y1="785.86" x2="540.38" y2="785.86" style="stroke-width: 1.5;stroke: rgb(0,0,0);stroke-opacity: 0.5;stroke-linecap: round;stroke-linejoin: round;shape-rendering:geometricPrecision;" transform="matrix(1,0,0,1,0,0)" clip-path="url(#_80059804354400clip-2)"/><line x1="540.38" y1="785.86" x2="529.93" y2="752.92" style="stroke-width: 1.5;stroke: rgb(0,0,0);stroke-opacity: 0.5;stroke-linecap: round;stroke-linejoin: round;shape-rendering:geometricPrecision;" transform="matrix(1,0,0,1,0,0)" clip-path="url(#_80059804354400clip-2)"/><line x1="529.93" y1="752.92" x2="519.7" y2="719.99" style="stroke-width: 1.5;stroke: rgb(0,0,0);stroke-opacity: 0.5;stroke-linecap: round;stroke-linejoin: round;shape-rendering:geometricPrecision;" transform="matrix(1,0,0,1,0,0)" clip-path="url(#_80059804354400clip-2)"/><line x1="519.7" y1="719.99" x2="509.9" y2="687.06" style="stroke-width: 1.5;stroke: rgb(0,0,0);stroke-opacity: 0.5;stroke-linecap: round;stroke-linejoin: round;shape-rendering:geometricPrecision;" transform="matrix(1,0,0,1,0,0)" clip-path="url(#_80059804354400clip-2)"/><line x1="509.9" y1="687.06" x2="500.74" y2="654.13" style="stroke-width: 1.5;stroke: rgb(0,0,0);stroke-opacity: 0.5;stroke-linecap: round;stroke-linejoin: round;shape-rendering:geometricPrecision;" transform="matrix(1,0,0,1,0,0)" clip-path="url(#_80059804354400clip-2)"/><line x1="500.74" y1="654.13" x2="492.44" y2="621.2" style="stroke-width: 1.5;stroke: rgb(0,0,0);stroke-opacity: 0.5;stroke-linecap: round;stroke-linejoin: round;shape-rendering:geometricPrecision;" transform="matrix(1,0,0,1,0,0)" clip-path="url(#_80059804354400clip-2)"/><line x1="492.44" y1="621.2" x2="485.21" y2="588.26" style="stroke-width: 1.5;stroke: rgb(0,0,0);stroke-opacity: 0.5;stroke-linecap: round;stroke-linejoin: round;shape-rendering:geometricPrecision;" transform="matrix(1,0,0,1,0,0)" clip-path="url(#_80059804354400clip-2)"/><line x1="485.21" y1="588.26" x2="479.27" y2="555.33" style="stroke-width: 1.5;stroke: rgb(0,0,0);stroke-opacity: 0.5;stroke-linecap: round;stroke-linejoin: round;shape-rendering:geometricPrecision;" transform="matrix(1,0,0,1,0,0)" clip-path="url(#_80059804354400clip-2)"/><line x1="479.27" y1="555.33" x2="474.84" y2="522.4" style="stroke-width: 1.5;stroke: rgb(0,0,0);stroke-opacity: 0.5;stroke-linecap: round;stroke-linejoin: round;shape-rendering:geometricPrecision;" transform="matrix(1,0,0,1,0,0)" clip-path="url(#_80059804354400clip-2)"/><line x1="474.84" y1="522.4" x2="472.12" y2="489.47" style="stroke-width: 1.5;stroke: rgb(0,0,0);stroke-opacity: 0.5;stroke-linecap: round;stroke-linejoin: round;shape-rendering:geometricPrecision;" transform="matrix(1,0,0,1,0,0)" clip-path="url(#_80059804354400clip-2)"/><line x1="472.12" y1="489.47" x2="471.3" y2="456.53" style="stroke-width: 1.5;stroke: rgb(0,0,0);stroke-opacity: 0.5;stroke-linecap: round;stroke-linejoin: round;shape-rendering:geometricPrecision;" transform="matrix(1,0,0,1,0,0)" clip-path="url(#_80059804354400clip-2)"/><line x1="471.3" y1="456.53" x2="472.3" y2="423.6" style="stroke-width: 1.5;stroke: rgb(0,0,0);stroke-opacity: 0.5;stroke-linecap: round;stroke-linejoin: round;shape-rendering:geometricPrecision;" transform="matrix(1,0,0,1,0,0)" clip-path="url(#_80059804354400clip-2)"/><line x1="472.3" y1="423.6" x2="474.9" y2="390.67" style="stroke-width: 1.5;stroke: rgb(0,0,0);stroke-opacity: 0.5;stroke-linecap: round;stroke-linejoin: round;shape-rendering:geometricPrecision;" transform="matrix(1,0,0,1,0,0)" clip-path="url(#_80059804354400clip-2)"/><line x1="474.9" y1="390.67" x2="478.91" y2="357.74" style="stroke-width: 1.5;stroke: rgb(0,0,0);stroke-opacity: 0.5;stroke-linecap: round;stroke-linejoin: round;shape-rendering:geometricPrecision;" transform="matrix(1,0,0,1,0,0)" clip-path="url(#_80059804354400clip-2)"/><line x1="478.91" y1="357.74" x2="484.14" y2="324.8" style="stroke-width: 1.5;stroke: rgb(0,0,0);stroke-opacity: 0.5;stroke-linecap: round;stroke-linejoin: round;shape-rendering:geometricPrecision;" transform="matrix(1,0,0,1,0,0)" clip-path="url(#_80059804354400clip-2)"/><line x1="484.14" y1="324.8" x2="490.37" y2="291.87" style="stroke-width: 1.5;stroke: rgb(0,0,0);stroke-opacity: 0.5;stroke-linecap: round;stroke-linejoin: round;shape-rendering:geometricPrecision;" transform="matrix(1,0,0,1,0,0)" clip-path="url(#_80059804354400clip-2)"/><line x1="490.37" y1="291.87" x2="497.4" y2="258.94" style="stroke-width: 1.5;stroke: rgb(0,0,0);stroke-opacity: 0.5;stroke-linecap: round;stroke-linejoin: round;shape-rendering:geometricPrecision;" transform="matrix(1,0,0,1,0,0)" clip-path="url(#_80059804354400clip-2)"/><line x1="497.4" y1="258.94" x2="505.04" y2="226.01" style="stroke-width: 1.5;stroke: rgb(0,0,0);stroke-opacity: 0.5;stroke-linecap: round;stroke-linejoin: round;shape-rendering:geometricPrecision;" transform="matrix(1,0,0,1,0,0)" clip-path="url(#_80059804354400clip-2)"/><line x1="505.04" y1="226.01" x2="513.09" y2="193.08" style="stroke-width: 1.5;stroke: rgb(0,0,0);stroke-opacity: 0.5;stroke-linecap: round;stroke-linejoin: round;shape-rendering:geometricPrecision;" transform="matrix(1,0,0,1,0,0)" clip-path="url(#_80059804354400clip-2)"/><line x1="513.09" y1="193.08" x2="521.33" y2="160.14" style="stroke-width: 1.5;stroke: rgb(0,0,0);stroke-opacity: 0.5;stroke-linecap: round;stroke-linejoin: round;shape-rendering:geometricPrecision;" transform="matrix(1,0,0,1,0,0)" clip-path="url(#_80059804354400clip-2)"/><line x1="521.33" y1="160.14" x2="574.67" y2="160.14" style="stroke-width: 1.5;stroke: rgb(0,0,0);stroke-opacity: 0.5;stroke-linecap: round;stroke-linejoin: round;shape-rendering:geometricPrecision;" transform="matrix(1,0,0,1,0,0)" clip-path="url(#_80059804354400clip-2)"/><g style="fill: rgb(255,127,80); fill-opacity: 0.5; stroke: none" transform="matrix(1,0,0,1,0,0)" clip-path="url(#_80059804354400clip-2)"><path d="M 548 160.14 L 574.67 160.14 L 582.91 193.08 L 590.96 226.01 L 598.6 258.94 L 605.63 291.87 L 611.86 324.8 L 617.09 357.74 L 621.1 390.67 L 623.7 423.6 L 624.7 456.53 L 623.88 489.47 L 621.16 522.4 L 616.73 555.33 L 610.79 588.26 L 603.56 621.2 L 595.26 654.13 L 586.1 687.06 L 576.3 719.99 L 566.07 752.92 L 555.62 785.86 L 540.38 785.86 L 529.93 752.92 L 519.7 719.99 L 509.9 687.06 L 500.74 654.13 L 492.44 621.2 L 485.21 588.26 L 479.27 555.33 L 474.84 522.4 L 472.12 489.47 L 471.3 456.53 L 472.3 423.6 L 474.9 390.67 L 478.91 357.74 L 484.14 324.8 L 490.37 291.87 L 497.4 258.94 L 505.04 226.01 L 513.09 193.08 L 521.33 160.14 L 574.67 160.14 L 548 160.14 Z "/></g><rect x="108" y="35" width="880" height="876" style="stroke-width: 0.5;stroke: rgb(0,0,0);stroke-opacity: 1.0;stroke-linecap: round;stroke-linejoin: round;shape-rendering:crispEdges;; fill: none" transform="matrix(1,0,0,1,0,0)" clip-path="url(#_80059804354400clip-0)"/></svg>
