<!DOCTYPE svg PUBLIC "-//W3C//DTD SVG 1.1//EN" "http://www.w3.org/Graphics/SVG/1.1/DTD/svg11.dtd">
<svg xmlns="http://www.w3.org/2000/svg" xmlns:xlink="http://www.w3.org/1999/xlink" xmlns:jfreesvg="http://www.jfree.org/jfreesvg/svg" width="1152" height="768" text-rendering="auto" shape-rendering="auto">
<defs><clipPath id="_1279758098908616clip-0"><path d="M 0 0 L 1152 0 L 1152 768 L 0 768 L 0 0 Z "/></clipPath>
<clipPath id="_1279758098908616clip-1"><path d="M 370.5 309.5 L 370.5 1461.5 L -397.5 1461.5 L -397.5 309.5 L 370.5 309.5 Z "/></clipPath>
<clipPath id="_1279758098908616clip-2"><path d="M 122 35 L 122 645 L 1140 645 L 1140 35 Z "/></clipPath>
</defs>
<rect x="0" y="0" width="1152" height="768" style="fill: rgb(255,255,255); fill-opacity: 1.0" transform="matrix(1,0,0,1,0,0)" clip-path="url(#_1279758098908616clip-0)"/><g transform="matrix(1,0,0,1,0,0)"><text x="390" y="21.01" style="fill: rgb(0,0,0); fill-opacity: 1.0; font-family: Tahoma; font-size: 20px; font-weight: bold;" clip-path="url(#_1279758098908616clip-0)">Moment_Curve_Clean_Configuration</text></g><rect x="393.5" y="735" width="365" height="32" style="fill: rgb(255,255,255); fill-opacity: 1.0" transform="matrix(1,0,0,1,0,0)" clip-path="url(#_1279758098908616clip-0)"/><g style="stroke-width: 3.0;stroke: rgb(0,0,0);stroke-opacity: 1.0;stroke-linecap: square;shape-rendering:geometricPrecision;; fill: none" transform="matrix(1,0,0,1,0,0)" clip-path="url(#_1279758098908616clip-0)"><path d="M 396.5 751 L 410.5 751"/></g><g transform="matrix(1,0,0,1,0,0)"><text x="414.5" y="758.11" style="fill: rgb(64,64,64); fill-opacity: 1.0; font-family: sans-serif; font-size: 20px;" clip-path="url(#_1279758098908616clip-0)"> Moment_Curve_Clean_Configuration </text></g><rect x="122" y="35" width="1018" height="610" style="fill: rgb(255,255,255); fill-opacity: 0.0" transform="matrix(1,0,0,1,0,0)" clip-path="url(#_1279758098908616clip-0)"/><line x1="122" y1="649" x2="1140" y2="649" style="stroke-width: 0.5;stroke: rgb(128,128,128);stroke-opacity: 1.0;stroke-linecap: square;shape-rendering:crispEdges;" transform="matrix(1,0,0,1,0,0)" clip-path="url(#_1279758098908616clip-0)"/><g transform="matrix(1,0,0,1,0,0)"><text x="111" y="679.69" style="fill: rgb(64,64,64); fill-opacity: 1.0; font-family: sans-serif; font-size: 25px;" clip-path="url(#_1279758098908616clip-0)">-5</text></g><line x1="122" y1="651" x2="122" y2="649" style="stroke-width: 0.5;stroke: rgb(128,128,128);stroke-opacity: 1.0;stroke-linecap: square;shape-rendering:crispEdges;" transform="matrix(1,0,0,1,0,0)" clip-path="url(#_1279758098908616clip-0)"/><g transform="matrix(1,0,0,1,0,0)"><text x="174.62" y="679.69" style="fill: rgb(64,64,64); fill-opacity: 1.0; font-family: sans-serif; font-size: 25px;" clip-path="url(#_1279758098908616clip-0)">-4</text></g><line x1="185.62" y1="651" x2="185.62" y2="649" style="stroke-width: 0.5;stroke: rgb(128,128,128);stroke-opacity: 1.0;stroke-linecap: square;shape-rendering:crispEdges;" transform="matrix(1,0,0,1,0,0)" clip-path="url(#_1279758098908616clip-0)"/><g transform="matrix(1,0,0,1,0,0)"><text x="238.25" y="679.69" style="fill: rgb(64,64,64); fill-opacity: 1.0; font-family: sans-serif; font-size: 25px;" clip-path="url(#_1279758098908616clip-0)">-3</text></g><line x1="249.25" y1="651" x2="249.25" y2="649" style="stroke-width: 0.5;stroke: rgb(128,128,128);stroke-opacity: 1.0;stroke-linecap: square;shape-rendering:crispEdges;" transform="matrix(1,0,0,1,0,0)" clip-path="url(#_1279758098908616clip-0)"/><g transform="matrix(1,0,0,1,0,0)"><text x="301.88" y="679.69" style="fill: rgb(64,64,64); fill-opacity: 1.0; font-family: sans-serif; font-size: 25px;" clip-path="url(#_1279758098908616clip-0)">-2</text></g><line x1="312.88" y1="651" x2="312.88" y2="649" style="stroke-width: 0.5;stroke: rgb(128,128,128);stroke-opacity: 1.0;stroke-linecap: square;shape-rendering:crispEdges;" transform="matrix(1,0,0,1,0,0)" clip-path="url(#_1279758098908616clip-0)"/><g transform="matrix(1,0,0,1,0,0)"><text x="365.5" y="679.69" style="fill: rgb(64,64,64); fill-opacity: 1.0; font-family: sans-serif; font-size: 25px;" clip-path="url(#_1279758098908616clip-0)">-1</text></g><line x1="376.5" y1="651" x2="376.5" y2="649" style="stroke-width: 0.5;stroke: rgb(128,128,128);stroke-opacity: 1.0;stroke-linecap: square;shape-rendering:crispEdges;" transform="matrix(1,0,0,1,0,0)" clip-path="url(#_1279758098908616clip-0)"/><g transform="matrix(1,0,0,1,0,0)"><text x="433.12" y="679.69" style="fill: rgb(64,64,64); fill-opacity: 1.0; font-family: sans-serif; font-size: 25px;" clip-path="url(#_1279758098908616clip-0)">0</text></g><line x1="440.12" y1="651" x2="440.12" y2="649" style="stroke-width: 0.5;stroke: rgb(128,128,128);stroke-opacity: 1.0;stroke-linecap: square;shape-rendering:crispEdges;" transform="matrix(1,0,0,1,0,0)" clip-path="url(#_1279758098908616clip-0)"/><g transform="matrix(1,0,0,1,0,0)"><text x="496.75" y="679.69" style="fill: rgb(64,64,64); fill-opacity: 1.0; font-family: sans-serif; font-size: 25px;" clip-path="url(#_1279758098908616clip-0)">1</text></g><line x1="503.75" y1="651" x2="503.75" y2="649" style="stroke-width: 0.5;stroke: rgb(128,128,128);stroke-opacity: 1.0;stroke-linecap: square;shape-rendering:crispEdges;" transform="matrix(1,0,0,1,0,0)" clip-path="url(#_1279758098908616clip-0)"/><g transform="matrix(1,0,0,1,0,0)"><text x="560.38" y="679.69" style="fill: rgb(64,64,64); fill-opacity: 1.0; font-family: sans-serif; font-size: 25px;" clip-path="url(#_1279758098908616clip-0)">2</text></g><line x1="567.38" y1="651" x2="567.38" y2="649" style="stroke-width: 0.5;stroke: rgb(128,128,128);stroke-opacity: 1.0;stroke-linecap: square;shape-rendering:crispEdges;" transform="matrix(1,0,0,1,0,0)" clip-path="url(#_1279758098908616clip-0)"/><g transform="matrix(1,0,0,1,0,0)"><text x="624" y="679.69" style="fill: rgb(64,64,64); fill-opacity: 1.0; font-family: sans-serif; font-size: 25px;" clip-path="url(#_1279758098908616clip-0)">3</text></g><line x1="631" y1="651" x2="631" y2="649" style="stroke-width: 0.5;stroke: rgb(128,128,128);stroke-opacity: 1.0;stroke-linecap: square;shape-rendering:crispEdges;" transform="matrix(1,0,0,1,0,0)" clip-path="url(#_1279758098908616clip-0)"/><g transform="matrix(1,0,0,1,0,0)"><text x="687.62" y="679.69" style="fill: rgb(64,64,64); fill-opacity: 1.0; font-family: sans-serif; font-size: 25px;" clip-path="url(#_1279758098908616clip-0)">4</text></g><line x1="694.62" y1="651" x2="694.62" y2="649" style="stroke-width: 0.5;stroke: rgb(128,128,128);stroke-opacity: 1.0;stroke-linecap: square;shape-rendering:crispEdges;" transform="matrix(1,0,0,1,0,0)" clip-path="url(#_1279758098908616clip-0)"/><g transform="matrix(1,0,0,1,0,0)"><text x="751.25" y="679.69" style="fill: rgb(64,64,64); fill-opacity: 1.0; font-family: sans-serif; font-size: 25px;" clip-path="url(#_1279758098908616clip-0)">5</text></g><line x1="758.25" y1="651" x2="758.25" y2="649" style="stroke-width: 0.5;stroke: rgb(128,128,128);stroke-opacity: 1.0;stroke-linecap: square;shape-rendering:crispEdges;" transform="matrix(1,0,0,1,0,0)" clip-path="url(#_1279758098908616clip-0)"/><g transform="matrix(1,0,0,1,0,0)"><text x="814.88" y="679.69" style="fill: rgb(64,64,64); fill-opacity: 1.0; font-family: sans-serif; font-size: 25px;" clip-path="url(#_1279758098908616clip-0)">6</text></g><line x1="821.88" y1="651" x2="821.88" y2="649" style="stroke-width: 0.5;stroke: rgb(128,128,128);stroke-opacity: 1.0;stroke-linecap: square;shape-rendering:crispEdges;" transform="matrix(1,0,0,1,0,0)" clip-path="url(#_1279758098908616clip-0)"/><g transform="matrix(1,0,0,1,0,0)"><text x="878.5" y="679.69" style="fill: rgb(64,64,64); fill-opacity: 1.0; font-family: sans-serif; font-size: 25px;" clip-path="url(#_1279758098908616clip-0)">7</text></g><line x1="885.5" y1="651" x2="885.5" y2="649" style="stroke-width: 0.5;stroke: rgb(128,128,128);stroke-opacity: 1.0;stroke-linecap: square;shape-rendering:crispEdges;" transform="matrix(1,0,0,1,0,0)" clip-path="url(#_1279758098908616clip-0)"/><g transform="matrix(1,0,0,1,0,0)"><text x="942.12" y="679.69" style="fill: rgb(64,64,64); fill-opacity: 1.0; font-family: sans-serif; font-size: 25px;" clip-path="url(#_1279758098908616clip-0)">8</text></g><line x1="949.12" y1="651" x2="949.12" y2="649" style="stroke-width: 0.5;stroke: rgb(128,128,128);stroke-opacity: 1.0;stroke-linecap: square;shape-rendering:crispEdges;" transform="matrix(1,0,0,1,0,0)" clip-path="url(#_1279758098908616clip-0)"/><g transform="matrix(1,0,0,1,0,0)"><text x="1005.75" y="679.69" style="fill: rgb(64,64,64); fill-opacity: 1.0; font-family: sans-serif; font-size: 25px;" clip-path="url(#_1279758098908616clip-0)">9</text></g><line x1="1012.75" y1="651" x2="1012.75" y2="649" style="stroke-width: 0.5;stroke: rgb(128,128,128);stroke-opacity: 1.0;stroke-linecap: square;shape-rendering:crispEdges;" transform="matrix(1,0,0,1,0,0)" clip-path="url(#_1279758098908616clip-0)"/><g transform="matrix(1,0,0,1,0,0)"><text x="1062.38" y="679.69" style="fill: rgb(64,64,64); fill-opacity: 1.0; font-family: sans-serif; font-size: 25px;" clip-path="url(#_1279758098908616clip-0)">10</text></g><line x1="1076.38" y1="651" x2="1076.38" y2="649" style="stroke-width: 0.5;stroke: rgb(128,128,128);stroke-opacity: 1.0;stroke-linecap: square;shape-rendering:crispEdges;" transform="matrix(1,0,0,1,0,0)" clip-path="url(#_1279758098908616clip-0)"/><g transform="matrix(1,0,0,1,0,0)"><text x="1126" y="679.69" style="fill: rgb(64,64,64); fill-opacity: 1.0; font-family: sans-serif; font-size: 25px;" clip-path="url(#_1279758098908616clip-0)">11</text></g><line x1="1140" y1="651" x2="1140" y2="649" style="stroke-width: 0.5;stroke: rgb(128,128,128);stroke-opacity: 1.0;stroke-linecap: square;shape-rendering:crispEdges;" transform="matrix(1,0,0,1,0,0)" clip-path="url(#_1279758098908616clip-0)"/><g transform="matrix(1,0,0,1,0,0)"><text x="538.5" y="718.87" style="fill: rgb(64,64,64); fill-opacity: 1.0; font-family: sans-serif; font-size: 30px;" clip-path="url(#_1279758098908616clip-0)">alpha_b (deg)</text></g><line x1="118" y1="35" x2="118" y2="645" style="stroke-width: 0.5;stroke: rgb(128,128,128);stroke-opacity: 1.0;stroke-linecap: square;shape-rendering:crispEdges;" transform="matrix(1,0,0,1,0,0)" clip-path="url(#_1279758098908616clip-0)"/><g transform="matrix(1,0,0,1,0,0)"><text x="55" y="649.15" style="fill: rgb(64,64,64); fill-opacity: 1.0; font-family: sans-serif; font-size: 25px;" clip-path="url(#_1279758098908616clip-0)">-0,12</text></g><line x1="116" y1="638.96" x2="118" y2="638.96" style="stroke-width: 0.5;stroke: rgb(128,128,128);stroke-opacity: 1.0;stroke-linecap: square;shape-rendering:crispEdges;" transform="matrix(1,0,0,1,0,0)" clip-path="url(#_1279758098908616clip-0)"/><g transform="matrix(1,0,0,1,0,0)"><text x="55" y="612.04" style="fill: rgb(64,64,64); fill-opacity: 1.0; font-family: sans-serif; font-size: 25px;" clip-path="url(#_1279758098908616clip-0)">-0,10</text></g><line x1="116" y1="601.85" x2="118" y2="601.85" style="stroke-width: 0.5;stroke: rgb(128,128,128);stroke-opacity: 1.0;stroke-linecap: square;shape-rendering:crispEdges;" transform="matrix(1,0,0,1,0,0)" clip-path="url(#_1279758098908616clip-0)"/><g transform="matrix(1,0,0,1,0,0)"><text x="55" y="574.92" style="fill: rgb(64,64,64); fill-opacity: 1.0; font-family: sans-serif; font-size: 25px;" clip-path="url(#_1279758098908616clip-0)">-0,08</text></g><line x1="116" y1="564.74" x2="118" y2="564.74" style="stroke-width: 0.5;stroke: rgb(128,128,128);stroke-opacity: 1.0;stroke-linecap: square;shape-rendering:crispEdges;" transform="matrix(1,0,0,1,0,0)" clip-path="url(#_1279758098908616clip-0)"/><g transform="matrix(1,0,0,1,0,0)"><text x="55" y="537.81" style="fill: rgb(64,64,64); fill-opacity: 1.0; font-family: sans-serif; font-size: 25px;" clip-path="url(#_1279758098908616clip-0)">-0,06</text></g><line x1="116" y1="527.62" x2="118" y2="527.62" style="stroke-width: 0.5;stroke: rgb(128,128,128);stroke-opacity: 1.0;stroke-linecap: square;shape-rendering:crispEdges;" transform="matrix(1,0,0,1,0,0)" clip-path="url(#_1279758098908616clip-0)"/><g transform="matrix(1,0,0,1,0,0)"><text x="55" y="500.7" style="fill: rgb(64,64,64); fill-opacity: 1.0; font-family: sans-serif; font-size: 25px;" clip-path="url(#_1279758098908616clip-0)">-0,04</text></g><line x1="116" y1="490.51" x2="118" y2="490.51" style="stroke-width: 0.5;stroke: rgb(128,128,128);stroke-opacity: 1.0;stroke-linecap: square;shape-rendering:crispEdges;" transform="matrix(1,0,0,1,0,0)" clip-path="url(#_1279758098908616clip-0)"/><g transform="matrix(1,0,0,1,0,0)"><text x="55" y="463.59" style="fill: rgb(64,64,64); fill-opacity: 1.0; font-family: sans-serif; font-size: 25px;" clip-path="url(#_1279758098908616clip-0)">-0,02</text></g><line x1="116" y1="453.4" x2="118" y2="453.4" style="stroke-width: 0.5;stroke: rgb(128,128,128);stroke-opacity: 1.0;stroke-linecap: square;shape-rendering:crispEdges;" transform="matrix(1,0,0,1,0,0)" clip-path="url(#_1279758098908616clip-0)"/><g transform="matrix(1,0,0,1,0,0)"><text x="63" y="426.47" style="fill: rgb(64,64,64); fill-opacity: 1.0; font-family: sans-serif; font-size: 25px;" clip-path="url(#_1279758098908616clip-0)">0,00</text></g><line x1="116" y1="416.28" x2="118" y2="416.28" style="stroke-width: 0.5;stroke: rgb(128,128,128);stroke-opacity: 1.0;stroke-linecap: square;shape-rendering:crispEdges;" transform="matrix(1,0,0,1,0,0)" clip-path="url(#_1279758098908616clip-0)"/><g transform="matrix(1,0,0,1,0,0)"><text x="63" y="389.36" style="fill: rgb(64,64,64); fill-opacity: 1.0; font-family: sans-serif; font-size: 25px;" clip-path="url(#_1279758098908616clip-0)">0,02</text></g><line x1="116" y1="379.17" x2="118" y2="379.17" style="stroke-width: 0.5;stroke: rgb(128,128,128);stroke-opacity: 1.0;stroke-linecap: square;shape-rendering:crispEdges;" transform="matrix(1,0,0,1,0,0)" clip-path="url(#_1279758098908616clip-0)"/><g transform="matrix(1,0,0,1,0,0)"><text x="63" y="352.25" style="fill: rgb(64,64,64); fill-opacity: 1.0; font-family: sans-serif; font-size: 25px;" clip-path="url(#_1279758098908616clip-0)">0,04</text></g><line x1="116" y1="342.06" x2="118" y2="342.06" style="stroke-width: 0.5;stroke: rgb(128,128,128);stroke-opacity: 1.0;stroke-linecap: square;shape-rendering:crispEdges;" transform="matrix(1,0,0,1,0,0)" clip-path="url(#_1279758098908616clip-0)"/><g transform="matrix(1,0,0,1,0,0)"><text x="63" y="315.13" style="fill: rgb(64,64,64); fill-opacity: 1.0; font-family: sans-serif; font-size: 25px;" clip-path="url(#_1279758098908616clip-0)">0,06</text></g><line x1="116" y1="304.95" x2="118" y2="304.95" style="stroke-width: 0.5;stroke: rgb(128,128,128);stroke-opacity: 1.0;stroke-linecap: square;shape-rendering:crispEdges;" transform="matrix(1,0,0,1,0,0)" clip-path="url(#_1279758098908616clip-0)"/><g transform="matrix(1,0,0,1,0,0)"><text x="63" y="278.02" style="fill: rgb(64,64,64); fill-opacity: 1.0; font-family: sans-serif; font-size: 25px;" clip-path="url(#_1279758098908616clip-0)">0,08</text></g><line x1="116" y1="267.83" x2="118" y2="267.83" style="stroke-width: 0.5;stroke: rgb(128,128,128);stroke-opacity: 1.0;stroke-linecap: square;shape-rendering:crispEdges;" transform="matrix(1,0,0,1,0,0)" clip-path="url(#_1279758098908616clip-0)"/><g transform="matrix(1,0,0,1,0,0)"><text x="63" y="240.91" style="fill: rgb(64,64,64); fill-opacity: 1.0; font-family: sans-serif; font-size: 25px;" clip-path="url(#_1279758098908616clip-0)">0,10</text></g><line x1="116" y1="230.72" x2="118" y2="230.72" style="stroke-width: 0.5;stroke: rgb(128,128,128);stroke-opacity: 1.0;stroke-linecap: square;shape-rendering:crispEdges;" transform="matrix(1,0,0,1,0,0)" clip-path="url(#_1279758098908616clip-0)"/><g transform="matrix(1,0,0,1,0,0)"><text x="63" y="203.8" style="fill: rgb(64,64,64); fill-opacity: 1.0; font-family: sans-serif; font-size: 25px;" clip-path="url(#_1279758098908616clip-0)">0,12</text></g><line x1="116" y1="193.61" x2="118" y2="193.61" style="stroke-width: 0.5;stroke: rgb(128,128,128);stroke-opacity: 1.0;stroke-linecap: square;shape-rendering:crispEdges;" transform="matrix(1,0,0,1,0,0)" clip-path="url(#_1279758098908616clip-0)"/><g transform="matrix(1,0,0,1,0,0)"><text x="63" y="166.68" style="fill: rgb(64,64,64); fill-opacity: 1.0; font-family: sans-serif; font-size: 25px;" clip-path="url(#_1279758098908616clip-0)">0,14</text></g><line x1="116" y1="156.49" x2="118" y2="156.49" style="stroke-width: 0.5;stroke: rgb(128,128,128);stroke-opacity: 1.0;stroke-linecap: square;shape-rendering:crispEdges;" transform="matrix(1,0,0,1,0,0)" clip-path="url(#_1279758098908616clip-0)"/><g transform="matrix(1,0,0,1,0,0)"><text x="63" y="129.57" style="fill: rgb(64,64,64); fill-opacity: 1.0; font-family: sans-serif; font-size: 25px;" clip-path="url(#_1279758098908616clip-0)">0,16</text></g><line x1="116" y1="119.38" x2="118" y2="119.38" style="stroke-width: 0.5;stroke: rgb(128,128,128);stroke-opacity: 1.0;stroke-linecap: square;shape-rendering:crispEdges;" transform="matrix(1,0,0,1,0,0)" clip-path="url(#_1279758098908616clip-0)"/><g transform="matrix(1,0,0,1,0,0)"><text x="63" y="92.46" style="fill: rgb(64,64,64); fill-opacity: 1.0; font-family: sans-serif; font-size: 25px;" clip-path="url(#_1279758098908616clip-0)">0,18</text></g><line x1="116" y1="82.27" x2="118" y2="82.27" style="stroke-width: 0.5;stroke: rgb(128,128,128);stroke-opacity: 1.0;stroke-linecap: square;shape-rendering:crispEdges;" transform="matrix(1,0,0,1,0,0)" clip-path="url(#_1279758098908616clip-0)"/><g transform="matrix(1,0,0,1,0,0)"><text x="63" y="55.34" style="fill: rgb(64,64,64); fill-opacity: 1.0; font-family: sans-serif; font-size: 25px;" clip-path="url(#_1279758098908616clip-0)">0,20</text></g><line x1="116" y1="45.15" x2="118" y2="45.15" style="stroke-width: 0.5;stroke: rgb(128,128,128);stroke-opacity: 1.0;stroke-linecap: square;shape-rendering:crispEdges;" transform="matrix(1,0,0,1,0,0)" clip-path="url(#_1279758098908616clip-0)"/><g style="fill: rgb(64,64,64); fill-opacity: 1.0; stroke: none" transform="matrix(0,-1,1,0,-309.5,370.5)" clip-path="url(#_1279758098908616clip-1)"><path d="M 20.64 344.4 L 23.48 345.11 Q 22.58 348.61 20.26 350.45 Q 17.94 352.29 14.59 352.29 Q 11.11 352.29 8.94 350.87 Q 6.77 349.46 5.63 346.78 Q 4.5 344.1 4.5 341.02 Q 4.5 337.68 5.78 335.18 Q 7.06 332.68 9.43 331.38 Q 11.8 330.08 14.62 330.08 Q 17.86 330.08 20.05 331.72 Q 22.25 333.36 23.11 336.33 L 20.31 337 Q 19.56 334.66 18.14 333.59 Q 16.72 332.52 14.58 332.52 Q 12.09 332.52 10.43 333.71 Q 8.77 334.9 8.09 336.9 Q 7.42 338.9 7.42 341.02 Q 7.42 343.75 8.22 345.79 Q 9.02 347.83 10.7 348.85 Q 12.39 349.86 14.36 349.86 Q 16.73 349.86 18.39 348.49 Q 20.05 347.11 20.64 344.4 Z  M 26.9 351.93 L 26.9 330.46 L 31.17 330.46 L 36.26 345.66 Q 36.96 347.79 37.27 348.83 Q 37.65 347.66 38.42 345.4 L 43.56 330.46 L 47.38 330.46 L 47.38 351.93 L 44.65 351.93 L 44.65 333.96 L 38.4 351.93 L 35.84 351.93 L 29.63 333.65 L 29.63 351.93 L 26.9 351.93 Z "/></g><line x1="122" y1="35" x2="122" y2="645" style="stroke-width: 0.5;stroke: rgb(192,192,192);stroke-opacity: 1.0;stroke-linejoin: bevel;stroke-dasharray: 2.0, 2.0;shape-rendering:crispEdges;" transform="matrix(1,0,0,1,0,0)" clip-path="url(#_1279758098908616clip-2)"/><line x1="185.62" y1="35" x2="185.62" y2="645" style="stroke-width: 0.5;stroke: rgb(192,192,192);stroke-opacity: 1.0;stroke-linejoin: bevel;stroke-dasharray: 2.0, 2.0;shape-rendering:crispEdges;" transform="matrix(1,0,0,1,0,0)" clip-path="url(#_1279758098908616clip-2)"/><line x1="249.25" y1="35" x2="249.25" y2="645" style="stroke-width: 0.5;stroke: rgb(192,192,192);stroke-opacity: 1.0;stroke-linejoin: bevel;stroke-dasharray: 2.0, 2.0;shape-rendering:crispEdges;" transform="matrix(1,0,0,1,0,0)" clip-path="url(#_1279758098908616clip-2)"/><line x1="312.88" y1="35" x2="312.88" y2="645" style="stroke-width: 0.5;stroke: rgb(192,192,192);stroke-opacity: 1.0;stroke-linejoin: bevel;stroke-dasharray: 2.0, 2.0;shape-rendering:crispEdges;" transform="matrix(1,0,0,1,0,0)" clip-path="url(#_1279758098908616clip-2)"/><line x1="376.5" y1="35" x2="376.5" y2="645" style="stroke-width: 0.5;stroke: rgb(192,192,192);stroke-opacity: 1.0;stroke-linejoin: bevel;stroke-dasharray: 2.0, 2.0;shape-rendering:crispEdges;" transform="matrix(1,0,0,1,0,0)" clip-path="url(#_1279758098908616clip-2)"/><line x1="440.12" y1="35" x2="440.12" y2="645" style="stroke-width: 0.5;stroke: rgb(192,192,192);stroke-opacity: 1.0;stroke-linejoin: bevel;stroke-dasharray: 2.0, 2.0;shape-rendering:crispEdges;" transform="matrix(1,0,0,1,0,0)" clip-path="url(#_1279758098908616clip-2)"/><line x1="503.75" y1="35" x2="503.75" y2="645" style="stroke-width: 0.5;stroke: rgb(192,192,192);stroke-opacity: 1.0;stroke-linejoin: bevel;stroke-dasharray: 2.0, 2.0;shape-rendering:crispEdges;" transform="matrix(1,0,0,1,0,0)" clip-path="url(#_1279758098908616clip-2)"/><line x1="567.38" y1="35" x2="567.38" y2="645" style="stroke-width: 0.5;stroke: rgb(192,192,192);stroke-opacity: 1.0;stroke-linejoin: bevel;stroke-dasharray: 2.0, 2.0;shape-rendering:crispEdges;" transform="matrix(1,0,0,1,0,0)" clip-path="url(#_1279758098908616clip-2)"/><line x1="631" y1="35" x2="631" y2="645" style="stroke-width: 0.5;stroke: rgb(192,192,192);stroke-opacity: 1.0;stroke-linejoin: bevel;stroke-dasharray: 2.0, 2.0;shape-rendering:crispEdges;" transform="matrix(1,0,0,1,0,0)" clip-path="url(#_1279758098908616clip-2)"/><line x1="694.62" y1="35" x2="694.62" y2="645" style="stroke-width: 0.5;stroke: rgb(192,192,192);stroke-opacity: 1.0;stroke-linejoin: bevel;stroke-dasharray: 2.0, 2.0;shape-rendering:crispEdges;" transform="matrix(1,0,0,1,0,0)" clip-path="url(#_1279758098908616clip-2)"/><line x1="758.25" y1="35" x2="758.25" y2="645" style="stroke-width: 0.5;stroke: rgb(192,192,192);stroke-opacity: 1.0;stroke-linejoin: bevel;stroke-dasharray: 2.0, 2.0;shape-rendering:crispEdges;" transform="matrix(1,0,0,1,0,0)" clip-path="url(#_1279758098908616clip-2)"/><line x1="821.88" y1="35" x2="821.88" y2="645" style="stroke-width: 0.5;stroke: rgb(192,192,192);stroke-opacity: 1.0;stroke-linejoin: bevel;stroke-dasharray: 2.0, 2.0;shape-rendering:crispEdges;" transform="matrix(1,0,0,1,0,0)" clip-path="url(#_1279758098908616clip-2)"/><line x1="885.5" y1="35" x2="885.5" y2="645" style="stroke-width: 0.5;stroke: rgb(192,192,192);stroke-opacity: 1.0;stroke-linejoin: bevel;stroke-dasharray: 2.0, 2.0;shape-rendering:crispEdges;" transform="matrix(1,0,0,1,0,0)" clip-path="url(#_1279758098908616clip-2)"/><line x1="949.12" y1="35" x2="949.12" y2="645" style="stroke-width: 0.5;stroke: rgb(192,192,192);stroke-opacity: 1.0;stroke-linejoin: bevel;stroke-dasharray: 2.0, 2.0;shape-rendering:crispEdges;" transform="matrix(1,0,0,1,0,0)" clip-path="url(#_1279758098908616clip-2)"/><line x1="1012.75" y1="35" x2="1012.75" y2="645" style="stroke-width: 0.5;stroke: rgb(192,192,192);stroke-opacity: 1.0;stroke-linejoin: bevel;stroke-dasharray: 2.0, 2.0;shape-rendering:crispEdges;" transform="matrix(1,0,0,1,0,0)" clip-path="url(#_1279758098908616clip-2)"/><line x1="1076.38" y1="35" x2="1076.38" y2="645" style="stroke-width: 0.5;stroke: rgb(192,192,192);stroke-opacity: 1.0;stroke-linejoin: bevel;stroke-dasharray: 2.0, 2.0;shape-rendering:crispEdges;" transform="matrix(1,0,0,1,0,0)" clip-path="url(#_1279758098908616clip-2)"/><line x1="1140" y1="35" x2="1140" y2="645" style="stroke-width: 0.5;stroke: rgb(192,192,192);stroke-opacity: 1.0;stroke-linejoin: bevel;stroke-dasharray: 2.0, 2.0;shape-rendering:crispEdges;" transform="matrix(1,0,0,1,0,0)" clip-path="url(#_1279758098908616clip-2)"/><line x1="122" y1="638.96" x2="1140" y2="638.96" style="stroke-width: 0.5;stroke: rgb(192,192,192);stroke-opacity: 1.0;stroke-linejoin: bevel;stroke-dasharray: 2.0, 2.0;shape-rendering:crispEdges;" transform="matrix(1,0,0,1,0,0)" clip-path="url(#_1279758098908616clip-2)"/><line x1="122" y1="601.85" x2="1140" y2="601.85" style="stroke-width: 0.5;stroke: rgb(192,192,192);stroke-opacity: 1.0;stroke-linejoin: bevel;stroke-dasharray: 2.0, 2.0;shape-rendering:crispEdges;" transform="matrix(1,0,0,1,0,0)" clip-path="url(#_1279758098908616clip-2)"/><line x1="122" y1="564.74" x2="1140" y2="564.74" style="stroke-width: 0.5;stroke: rgb(192,192,192);stroke-opacity: 1.0;stroke-linejoin: bevel;stroke-dasharray: 2.0, 2.0;shape-rendering:crispEdges;" transform="matrix(1,0,0,1,0,0)" clip-path="url(#_1279758098908616clip-2)"/><line x1="122" y1="527.62" x2="1140" y2="527.62" style="stroke-width: 0.5;stroke: rgb(192,192,192);stroke-opacity: 1.0;stroke-linejoin: bevel;stroke-dasharray: 2.0, 2.0;shape-rendering:crispEdges;" transform="matrix(1,0,0,1,0,0)" clip-path="url(#_1279758098908616clip-2)"/><line x1="122" y1="490.51" x2="1140" y2="490.51" style="stroke-width: 0.5;stroke: rgb(192,192,192);stroke-opacity: 1.0;stroke-linejoin: bevel;stroke-dasharray: 2.0, 2.0;shape-rendering:crispEdges;" transform="matrix(1,0,0,1,0,0)" clip-path="url(#_1279758098908616clip-2)"/><line x1="122" y1="453.4" x2="1140" y2="453.4" style="stroke-width: 0.5;stroke: rgb(192,192,192);stroke-opacity: 1.0;stroke-linejoin: bevel;stroke-dasharray: 2.0, 2.0;shape-rendering:crispEdges;" transform="matrix(1,0,0,1,0,0)" clip-path="url(#_1279758098908616clip-2)"/><line x1="122" y1="416.28" x2="1140" y2="416.28" style="stroke-width: 0.5;stroke: rgb(192,192,192);stroke-opacity: 1.0;stroke-linejoin: bevel;stroke-dasharray: 2.0, 2.0;shape-rendering:crispEdges;" transform="matrix(1,0,0,1,0,0)" clip-path="url(#_1279758098908616clip-2)"/><line x1="122" y1="379.17" x2="1140" y2="379.17" style="stroke-width: 0.5;stroke: rgb(192,192,192);stroke-opacity: 1.0;stroke-linejoin: bevel;stroke-dasharray: 2.0, 2.0;shape-rendering:crispEdges;" transform="matrix(1,0,0,1,0,0)" clip-path="url(#_1279758098908616clip-2)"/><line x1="122" y1="342.06" x2="1140" y2="342.06" style="stroke-width: 0.5;stroke: rgb(192,192,192);stroke-opacity: 1.0;stroke-linejoin: bevel;stroke-dasharray: 2.0, 2.0;shape-rendering:crispEdges;" transform="matrix(1,0,0,1,0,0)" clip-path="url(#_1279758098908616clip-2)"/><line x1="122" y1="304.95" x2="1140" y2="304.95" style="stroke-width: 0.5;stroke: rgb(192,192,192);stroke-opacity: 1.0;stroke-linejoin: bevel;stroke-dasharray: 2.0, 2.0;shape-rendering:crispEdges;" transform="matrix(1,0,0,1,0,0)" clip-path="url(#_1279758098908616clip-2)"/><line x1="122" y1="267.83" x2="1140" y2="267.83" style="stroke-width: 0.5;stroke: rgb(192,192,192);stroke-opacity: 1.0;stroke-linejoin: bevel;stroke-dasharray: 2.0, 2.0;shape-rendering:crispEdges;" transform="matrix(1,0,0,1,0,0)" clip-path="url(#_1279758098908616clip-2)"/><line x1="122" y1="230.72" x2="1140" y2="230.72" style="stroke-width: 0.5;stroke: rgb(192,192,192);stroke-opacity: 1.0;stroke-linejoin: bevel;stroke-dasharray: 2.0, 2.0;shape-rendering:crispEdges;" transform="matrix(1,0,0,1,0,0)" clip-path="url(#_1279758098908616clip-2)"/><line x1="122" y1="193.61" x2="1140" y2="193.61" style="stroke-width: 0.5;stroke: rgb(192,192,192);stroke-opacity: 1.0;stroke-linejoin: bevel;stroke-dasharray: 2.0, 2.0;shape-rendering:crispEdges;" transform="matrix(1,0,0,1,0,0)" clip-path="url(#_1279758098908616clip-2)"/><line x1="122" y1="156.49" x2="1140" y2="156.49" style="stroke-width: 0.5;stroke: rgb(192,192,192);stroke-opacity: 1.0;stroke-linejoin: bevel;stroke-dasharray: 2.0, 2.0;shape-rendering:crispEdges;" transform="matrix(1,0,0,1,0,0)" clip-path="url(#_1279758098908616clip-2)"/><line x1="122" y1="119.38" x2="1140" y2="119.38" style="stroke-width: 0.5;stroke: rgb(192,192,192);stroke-opacity: 1.0;stroke-linejoin: bevel;stroke-dasharray: 2.0, 2.0;shape-rendering:crispEdges;" transform="matrix(1,0,0,1,0,0)" clip-path="url(#_1279758098908616clip-2)"/><line x1="122" y1="82.27" x2="1140" y2="82.27" style="stroke-width: 0.5;stroke: rgb(192,192,192);stroke-opacity: 1.0;stroke-linejoin: bevel;stroke-dasharray: 2.0, 2.0;shape-rendering:crispEdges;" transform="matrix(1,0,0,1,0,0)" clip-path="url(#_1279758098908616clip-2)"/><line x1="122" y1="45.15" x2="1140" y2="45.15" style="stroke-width: 0.5;stroke: rgb(192,192,192);stroke-opacity: 1.0;stroke-linejoin: bevel;stroke-dasharray: 2.0, 2.0;shape-rendering:crispEdges;" transform="matrix(1,0,0,1,0,0)" clip-path="url(#_1279758098908616clip-2)"/><line x1="185.62" y1="610.34" x2="232.51" y2="581.88" style="stroke-width: 3.0;stroke: rgb(0,0,0);stroke-opacity: 1.0;stroke-linecap: square;shape-rendering:geometricPrecision;" transform="matrix(1,0,0,1,0,0)" clip-path="url(#_1279758098908616clip-2)"/><line x1="232.51" y1="581.88" x2="279.39" y2="553.42" style="stroke-width: 3.0;stroke: rgb(0,0,0);stroke-opacity: 1.0;stroke-linecap: square;shape-rendering:geometricPrecision;" transform="matrix(1,0,0,1,0,0)" clip-path="url(#_1279758098908616clip-2)"/><line x1="279.39" y1="553.42" x2="326.27" y2="524.97" style="stroke-width: 3.0;stroke: rgb(0,0,0);stroke-opacity: 1.0;stroke-linecap: square;shape-rendering:geometricPrecision;" transform="matrix(1,0,0,1,0,0)" clip-path="url(#_1279758098908616clip-2)"/><line x1="326.27" y1="524.97" x2="373.15" y2="496.51" style="stroke-width: 3.0;stroke: rgb(0,0,0);stroke-opacity: 1.0;stroke-linecap: square;shape-rendering:geometricPrecision;" transform="matrix(1,0,0,1,0,0)" clip-path="url(#_1279758098908616clip-2)"/><line x1="373.15" y1="496.51" x2="420.03" y2="468.05" style="stroke-width: 3.0;stroke: rgb(0,0,0);stroke-opacity: 1.0;stroke-linecap: square;shape-rendering:geometricPrecision;" transform="matrix(1,0,0,1,0,0)" clip-path="url(#_1279758098908616clip-2)"/><line x1="420.03" y1="468.05" x2="466.91" y2="439.6" style="stroke-width: 3.0;stroke: rgb(0,0,0);stroke-opacity: 1.0;stroke-linecap: square;shape-rendering:geometricPrecision;" transform="matrix(1,0,0,1,0,0)" clip-path="url(#_1279758098908616clip-2)"/><line x1="466.91" y1="439.6" x2="513.8" y2="411.14" style="stroke-width: 3.0;stroke: rgb(0,0,0);stroke-opacity: 1.0;stroke-linecap: square;shape-rendering:geometricPrecision;" transform="matrix(1,0,0,1,0,0)" clip-path="url(#_1279758098908616clip-2)"/><line x1="513.8" y1="411.14" x2="560.68" y2="382.68" style="stroke-width: 3.0;stroke: rgb(0,0,0);stroke-opacity: 1.0;stroke-linecap: square;shape-rendering:geometricPrecision;" transform="matrix(1,0,0,1,0,0)" clip-path="url(#_1279758098908616clip-2)"/><line x1="560.68" y1="382.68" x2="607.56" y2="354.23" style="stroke-width: 3.0;stroke: rgb(0,0,0);stroke-opacity: 1.0;stroke-linecap: square;shape-rendering:geometricPrecision;" transform="matrix(1,0,0,1,0,0)" clip-path="url(#_1279758098908616clip-2)"/><line x1="607.56" y1="354.23" x2="654.44" y2="325.77" style="stroke-width: 3.0;stroke: rgb(0,0,0);stroke-opacity: 1.0;stroke-linecap: square;shape-rendering:geometricPrecision;" transform="matrix(1,0,0,1,0,0)" clip-path="url(#_1279758098908616clip-2)"/><line x1="654.44" y1="325.77" x2="701.32" y2="297.32" style="stroke-width: 3.0;stroke: rgb(0,0,0);stroke-opacity: 1.0;stroke-linecap: square;shape-rendering:geometricPrecision;" transform="matrix(1,0,0,1,0,0)" clip-path="url(#_1279758098908616clip-2)"/><line x1="701.32" y1="297.32" x2="748.2" y2="268.86" style="stroke-width: 3.0;stroke: rgb(0,0,0);stroke-opacity: 1.0;stroke-linecap: square;shape-rendering:geometricPrecision;" transform="matrix(1,0,0,1,0,0)" clip-path="url(#_1279758098908616clip-2)"/><line x1="748.2" y1="268.86" x2="795.09" y2="240.4" style="stroke-width: 3.0;stroke: rgb(0,0,0);stroke-opacity: 1.0;stroke-linecap: square;shape-rendering:geometricPrecision;" transform="matrix(1,0,0,1,0,0)" clip-path="url(#_1279758098908616clip-2)"/><line x1="795.09" y1="240.4" x2="841.97" y2="211.95" style="stroke-width: 3.0;stroke: rgb(0,0,0);stroke-opacity: 1.0;stroke-linecap: square;shape-rendering:geometricPrecision;" transform="matrix(1,0,0,1,0,0)" clip-path="url(#_1279758098908616clip-2)"/><line x1="841.97" y1="211.95" x2="888.85" y2="183.49" style="stroke-width: 3.0;stroke: rgb(0,0,0);stroke-opacity: 1.0;stroke-linecap: square;shape-rendering:geometricPrecision;" transform="matrix(1,0,0,1,0,0)" clip-path="url(#_1279758098908616clip-2)"/><line x1="888.85" y1="183.49" x2="935.73" y2="155.03" style="stroke-width: 3.0;stroke: rgb(0,0,0);stroke-opacity: 1.0;stroke-linecap: square;shape-rendering:geometricPrecision;" transform="matrix(1,0,0,1,0,0)" clip-path="url(#_1279758098908616clip-2)"/><line x1="935.73" y1="155.03" x2="982.61" y2="126.58" style="stroke-width: 3.0;stroke: rgb(0,0,0);stroke-opacity: 1.0;stroke-linecap: square;shape-rendering:geometricPrecision;" transform="matrix(1,0,0,1,0,0)" clip-path="url(#_1279758098908616clip-2)"/><line x1="982.61" y1="126.58" x2="1029.49" y2="98.12" style="stroke-width: 3.0;stroke: rgb(0,0,0);stroke-opacity: 1.0;stroke-linecap: square;shape-rendering:geometricPrecision;" transform="matrix(1,0,0,1,0,0)" clip-path="url(#_1279758098908616clip-2)"/><line x1="1029.49" y1="98.12" x2="1076.38" y2="69.66" style="stroke-width: 3.0;stroke: rgb(0,0,0);stroke-opacity: 1.0;stroke-linecap: square;shape-rendering:geometricPrecision;" transform="matrix(1,0,0,1,0,0)" clip-path="url(#_1279758098908616clip-2)"/><rect x="122" y="35" width="1018" height="610" style="stroke-width: 0.5;stroke: rgb(0,0,0);stroke-opacity: 1.0;stroke-linecap: round;stroke-linejoin: round;shape-rendering:crispEdges;; fill: none" transform="matrix(1,0,0,1,0,0)" clip-path="url(#_1279758098908616clip-0)"/></svg>
