DBRep_DrawableShape

CASCADE Topology V1, (c) Matra-Datavision
Locations 0
Curve2ds 8
1 0 0 1 0 
1 1 0 0 1 
1 0 1 1 0 
1 0 0 0 1 
7 0 0  10 29 4  5.5511151231257827e-17 0  0.049999712823131426 0  0.099999935547434471 0  0.15000015078679355 0  0.20000017254868582 0  0.25000003678965954 0  0.29999989196969301 0  0.34999988960799383 0  0.400000074837291 0  0.45000027695942069 0  0.52499986152028799 0  0.54999975651863786 0  0.57499970923348165 0  0.59999973079854918 0  0.62499981924197812 0  0.64999995948771538 0  0.67500012335379556 0  0.70000026955402683 0  0.72500034369665733 0  0.77500021287381771 0  0.79999380304867795 0  0.82502623668467634 0  0.84995241582278136 0  0.8750390913347792 0  0.89999107969810566 0  0.92499587596555399 0  0.95000279714466118 0  0.97499480244380587 0  1 0 
 0 11 0.5 9 0.75 9 1 11
8 0 1
1 1 0 0 1 
8 0 1
1 0 1 1 0 
8 0 1
1 0 0 0 1 
Curves 7
7 0 0  2 3 2  0 0 0  0 10 10  0 20 0 
 0 3 22.360679774997898 3
7 0 0  2 3 2  15 0 0  15 10 10  15 20 0 
 0 3 22.360679774997898 3
7 0 0  2 3 2  45 0 0  45 10 10  45 20 0 
 0 3 22.360679774997898 3
7 0 0  2 3 2  0 0 0  0 10 10  0 20 0 
 0 3 1 3
7 0 0  2 3 2  0 20 0  22.500000000000004 19.999999999999996 0  45 20 0 
 0 3 1 3
7 0 0  2 3 2  45 0 0  45 10 10  45 20 0 
 0 3 1 3
7 0 0  2 3 2  0 0 0  22.500000000000004 0 0  45 0 0 
 0 3 1 3
Polygon3D 0
PolygonOnTriangulations 0
Surfaces 2
9 0 0 0 0 2 2 3 3 2 2 0 0 0  22.500000000000004 0 0  45 0 0  
0 10 10  22.500000000000004 9.9999999999999982 9.9999999999999982  45 10 10  
0 20 0  22.500000000000004 19.999999999999996 0  45 20 0  

0 3
1 3

0 3
1 3

9 0 0 0 0 8 8 23 23 4 4 -1.7763568394002505e-15 -2.7047221449859609e-15 -3.2629067128296359e-05  2.0624999999999774 -2.5794180768716774e-15 0.00039408044377771016  4.1250000000000471 -1.5215197100726211e-15 -0.0011149886723211459  6.1874999999999147 -3.3026492960635398e-15 0.0016996048036810301  8.2500000000001208 2.6509321503321075e-16 -0.0015519680361034084  10.312499999999931 -3.9988281572306587e-15 0.00082596120737589375  12.374999999999979 8.6292104885872814e-16 -0.00020850007860550817  14.437500000000083 -2.8478487943759796e-15 1.6868865472213978e-06  18.562499999999833 3.1328109436609894e-15 -2.203462566305887e-06  20.625000000000693 -1.3931588240944926e-15 -4.059078281503263e-06  22.6874999999986 4.4994645481668347e-15 -4.5377096897340316e-06  24.750000000001634 -1.8573020562944214e-15 -3.2403444148673301e-06  26.812499999998764 4.0897465184398316e-15 -6.5638314104153015e-07  28.875000000000551 -6.6105167170785769e-16 1.836360365909166e-06  30.937499999999879 2.6994015689302495e-15 1.9716592677504198e-06  35.062500000000092 -1.1123014037749098e-15 -8.7819119560528128e-06  37.124999999999588 1.8341626656330728e-14 0.0015079893208285544  39.187500000000952 -6.8165406532899771e-14 -0.0037020498219046774  41.249999999998515 1.0905585547112028e-13 -0.00048397227999790414  43.312500000001442 -8.0237973497019995e-14 0.014745597697400133  45.374999999999218 -7.8415811446853247e-15 -0.024256270857208218  47.43750000000022 2.5334228088678221e-14 0.0068215641644462704  49.499999999999957 7.4422323087596293e-14 0.036901088603762039  
-4.6714649479422642e-14 0.91666666666667784 0.91664456744837308  2.062500000000508 0.91666666666671481 0.86126744121541665  4.124999999997998 0.91666666666662433 0.7968147685709267  6.1875000000038947 0.91666666666658936 0.73479062941341067  8.2499999999947455 0.91666666666695951 0.66161475316667717  10.312500000004537 0.91666666666646557 0.59613157476724887  12.374999999997732 0.91666666666676921 0.52857399224741308  14.437500000000609 0.91666666666668339 0.46825134302086591  18.562499999999758 0.91666666666664209 0.36440764746487275  20.624999999999456 0.91666666666692709 0.3211585340129875  22.687500000001545 0.91666666666606367 0.28972573712840205  24.749999999997421 0.91666666666749186 0.27318656078522535  26.812500000003212 0.91666666666617702 0.27465706261924167  28.874999999997609 0.91666666666684493 0.29622962847213841  30.937500000001027 0.91666666666664054 0.33781880088858013  35.062499999999154 0.91666666666686147 0.45616334499492861  37.125000000002217 0.91666666666588814 0.53634395153090886  39.187499999999282 0.91666666666825358 0.61384654985557585  41.249999999994671 0.91666666666471863 0.73967569609812045  43.312500000009841 0.91666666666814656 0.838183516466941  45.374999999992831 0.9166666666659955 0.9159868292482255  47.437500000002828 0.91666666666682262 1.0449951420982335  49.499999999999879 0.91666666666676855 1.1662471320423848  
9.9732738075078411e-14 1.8333333333332766 1.7377225153661573  2.062499999997939 1.833333333333196 1.625785849119324  4.1250000000075504 1.8333333333334103 1.4919712561158462  6.1874999999850768 1.8333333333336634 1.3551067897780196  8.2500000000198792 1.8333333333323263 1.2116993403921521  10.31249999998321 1.8333333333341266 1.0626514978920598  12.375000000008178 1.8333333333329334 0.92239514522573252  14.437499999997954 1.8333333333333675 0.79089018318178805  18.562500000000526 1.8333333333334358 0.56394304902937753  20.625000000004601 1.8333333333326443 0.46801767690261897  22.687499999989988 1.8333333333352351 0.39674537374144464  24.75000000001361 1.8333333333308584 0.35673711540075526  26.812499999986098 1.833333333334862 0.35524281678987135  28.875000000009969 1.8333333333329025 0.39813438349561403  30.93749999999601 1.8333333333334627 0.48509882896609124  35.062500000004263 1.8333333333327269 0.73761870816245534  37.124999999984908 1.8333333333360002 0.89732007885608323  39.187500000020798 1.8333333333277215 1.1220905211793297  41.249999999993506 1.8333333333404966 1.2974394776329623  43.312499999987111 1.8333333333278339 1.5722713199397633  45.375000000014502 1.8333333333355897 1.7774506698485304  47.437499999992802 1.8333333333328927 2.0032203293539794  49.500000000000583 1.8333333333333133 2.2182594866922871  
-1.5914421564593445e-13 2.7500000000000964 2.4606639574972342  2.0625000000040354 2.7500000000000906 2.2882978484761725  4.1249999999850502 2.7500000000003113 2.098218000293151  6.1875000000303526 2.7499999999987614 1.8719936904606875  8.2499999999598792 2.7500000000025109 1.6520453186439887  10.31250000003349 2.7499999999979829 1.4192137510908016  12.37499999998407 2.7500000000011839 1.1942326021005627  14.43750000000459 2.7499999999998335 0.98454335987431085  18.56249999999801 2.7499999999999947 0.61781576461545273  20.624999999996117 2.7500000000011324 0.4609047559668637  22.68750000000977 2.7499999999968492 0.34130743696722193  24.749999999986098 2.7500000000044631 0.27119791215937578  26.81250000001706 2.7499999999973981 0.26173437491952661  28.874999999985956 2.7500000000007629 0.32417015014125228  30.937500000006516 2.7499999999998828 0.45957293164530189  35.062499999992525 2.7500000000011924 0.85964118642302045  37.125000000030482 2.749999999994869 1.1342710424703215  39.187499999952458 2.7500000000112097 1.4088207260905194  41.25000000002585 2.7499999999853841 1.8682375991689379  43.312500000013578 2.7500000000113971 2.1265456356977301  45.374999999976687 2.7499999999950804 2.5479560815382749  47.437500000013102 2.750000000001072 2.8875960359430026  49.499999999998934 2.7500000000002309 3.1986333717915967  
1.2887158045927921e-13 3.6666666666665608 3.0921788037760383  2.0624999999953073 3.6666666666667651 2.8636457930018029  4.1250000000175682 3.6666666666655963 2.5905906893871351  6.187499999963558 3.6666666666694998 2.3098848784674586  8.2500000000483151 3.6666666666620409 1.9906760422747776  10.312499999960151 3.6666666666705532 1.6783541361536176  12.375000000018748 3.6666666666644709 1.3655110723510056  14.437499999994605 3.6666666666671657 1.0732331200325771  18.562500000002785 3.6666666666664747 0.55799559810601096  20.625000000003549 3.6666666666660874 0.33515812237052495  22.687499999991346 3.6666666666694723 0.16251201331596293  24.750000000012058 3.6666666666621475 0.057188317085382252  26.812499999984052 3.6666666666692946 0.036132032831325177  28.8750000000142 3.6666666666661771 0.11596300399420596  30.937499999993427 3.6666666666667393 0.29986810285661175  35.062500000008157 3.6666666666652312 0.85314496500720194  37.124999999965915 3.6666666666734264 1.2137725060671853  39.187500000056325 3.6666666666515595 1.7058602686587829  41.24999999996728 3.6666666666867616 2.1236901007237652  43.312499999984801 3.6666666666504315 2.7479411566087131  45.375000000028422 3.6666666666740482 3.1898571585140152  47.437499999983856 3.6666666666649674 3.6646971078026351  49.500000000001265 3.666666666666536 4.0790829965042139  
-8.659386307350513e-14 4.5833333333334147 3.6218360010874648  2.0625000000034577 4.5833333333331785 3.3379441321069621  4.1249999999870468 4.5833333333345578 3.0145953422531182  6.1875000000269358 4.5833333333301791 2.6421021481228957  8.2499999999644587 4.5833333333384525 2.2589114579096141  10.312500000029527 4.5833333333289854 1.8554203926683741  12.374999999986118 4.5833333333358528 1.4606150912204987  14.437500000004395 4.5833333333327788 1.0868061176157482  18.562499999997453 4.5833333333337265 0.42348294740449338  20.624999999999119 4.5833333333333872 0.1338192157300401  22.687500000003094 4.5833333333318107 -0.094004622180487857  24.749999999995833 4.5833333333365092 -0.23779667885275801  26.812500000008008 4.5833333333316375 -0.2754526503406452  28.874999999991989 4.5833333333335622 -0.18258785589079177  30.937500000004007 4.5833333333333348 0.046346602527733594  35.062499999994976 4.5833333333347284 0.74896200257639944  37.125000000019945 4.5833333333265305 1.2273011656753492  39.187499999969454 4.5833333333484996 1.7866330986325736  41.250000000007553 4.5833333333129493 2.4929685527136995  43.312500000027526 4.5833333333502635 3.1085024495881854  45.374999999969354 4.5833333333251201 3.7799098828623769  47.437500000015262 4.5833333333354735 4.3551718633343066  49.499999999999261 4.5833333333335622 4.8613568072946638  
4.1565871081680146e-14 5.4999999999999396 4.0598813589667184  2.0624999999984794 5.5000000000000355 3.7285072966397248  4.1250000000057394 5.4999999999994404 3.3421979130440089  6.1874999999882849 5.5000000000016076 2.9142049232980325  8.2500000000157883 5.4999999999972129 2.4517268282737863  10.312499999986706 5.5000000000024389 1.9772812109542386  12.375000000006494 5.4999999999985647 1.504722327718  14.437499999998089 5.5000000000004068 1.0565804983117788  18.562500000001101 5.4999999999996483 0.25557677684501062  20.625000000002032 5.5000000000007638 -0.097166178170095652  22.687499999995751 5.4999999999992841 -0.37904206809724106  24.750000000004981 5.5000000000002878 -0.56210712083892211  26.812499999994401 5.4999999999993943 -0.62137628655087473  28.875000000004363 5.5000000000006164 -0.52310150959941204  30.937499999998394 5.4999999999999041 -0.25679456428100678  35.062500000001904 5.4999999999990976 0.58024823931120939  37.124999999993989 5.500000000004631 1.1500127985656019  39.187500000006793 5.4999999999898179 1.8620188800364765  41.250000000007475 5.5000000000135092 2.6531261905458869  43.312499999977021 5.4999999999884821 3.4874854962835453  45.37500000001954 5.500000000005814 4.2436729387594045  47.437499999991203 5.4999999999983782 4.9319478123111402  49.500000000000227 5.4999999999999503 5.5240045147082526  
-2.6481000841720636e-14 6.4166666666666936 4.3999899912922542  2.0625000000002389 6.4166666666668446 4.0292232783648956  4.1249999999990656 6.416666666666222 3.5978448155862903  6.1875000000022284 6.4166666666674423 3.11425526623702  8.2499999999969003 6.4166666666659831 2.5945194213967597  10.312500000002949 6.4166666666672656 2.056691793998167  12.3749999999986 6.4166666666664911 1.5207056620563437  14.437500000000608 6.416666666666722 1.0100145806631102  18.562499999999751 6.4166666666667664 0.092336184184720213  20.624999999999996 6.4166666666664796 -0.31457709698233999  22.68750000000043 6.4166666666672789 -0.64348974553656357  24.749999999999922 6.4166666666658108 -0.86309810268503018  26.812500000000405 6.4166666666677017 -0.94397122063765337  28.874999999999861 6.4166666666660985 -0.84891771179556752  30.937500000000114 6.416666666666778 -0.55688988553378294  35.062500000000064 6.4166666666670951 0.38840479508626596  37.124999999999503 6.41666666666449 1.0417228899613225  39.18750000000248 6.4166666666713175 1.8598727204197936  41.249999999992525 6.4166666666604382 2.7931636342016861  43.312500000010495 6.4166666666721568 3.7483320851869517  45.374999999993001 6.4166666666636676 4.6189699838261902  47.437500000002771 6.4166666666676093 5.394191875079474  49.500000000000107 6.416666666666762 6.0557613395655236  
4.0601453839691343e-14 8.2499999999999574 4.8888484009619519  2.0625000000002598 8.2499999999993925 4.4599098104496866  4.1249999999992957 8.2500000000018971 3.95965057176327  6.1875000000011529 8.2499999999963496 3.396442820825833  8.2499999999991722 8.2500000000042739 2.7889495520145871  10.312500000000329 8.2499999999964437 2.1580939076446013  12.374999999999929 8.2500000000016946 1.5268361283484371  14.437499999999959 8.2499999999996803 0.92238333504592618  18.562499999999847 8.2499999999999414 -0.17146870831533972  20.625000000001414 8.2500000000007692 -0.66084802355643624  22.687499999997375 8.2499999999978062 -1.0618770371895869  24.750000000002309 8.2500000000034444 -1.3401860447672518  26.812499999998373 8.2499999999968257 -1.456511131266025  28.875000000000629 8.2500000000016609 -1.3735398357472564  30.937499999999851 8.2499999999997282 -1.0518368068854609  35.062500000000036 8.2499999999993303 0.047416018255941071  37.124999999998742 8.2500000000035421 0.82398798475457258  39.187500000002146 8.2499999999924576 1.8239389551661616  41.249999999999936 8.2500000000099512 2.963654214859083  43.312499999996653 8.2499999999909566 4.1269188988435506  45.375000000002274 8.2500000000051603 5.1599554523299265  47.437499999998842 8.2499999999983551 6.0674313473699328  49.499999999999844 8.2499999999999982 6.8324340795920513  
-1.718015624224053e-13 9.1666666666668721 5.0376483842321607  2.0624999999986682 9.1666666666697143 4.5898426395327361  4.1250000000044311 9.1666666666570986 4.0662905590163305  6.1874999999928617 9.1666666666855736 3.4777157678761936  8.2500000000075406 9.1666666666441543 2.8414487982209611  10.312499999996007 9.1666666666859946 2.1796117531632224  12.375000000001709 9.1666666666572443 1.5171445520976348  14.437500000000641 9.1666666666688847 0.88135703688021771  18.562500000000124 9.1666666666664032 -0.27197460144989333  20.624999999998593 9.1666666666653072 -0.78979302525342721  22.687500000006082 9.1666666666731569 -1.2151248908937826  24.749999999993598 9.1666666666551055 -1.5174136838887247  26.812500000006565 9.1666666666778873 -1.6448198294839245  28.874999999997588 9.1666666666610368 -1.5733976015014419  30.937500000000792 9.166666666667556 -1.2456290461090713  35.062500000000767 9.1666666666697694 -0.09503452780644539  37.125000000002544 9.1666666666504959 0.72820301053065928  39.187499999996 9.1666666667008965 1.7709844387342084  41.249999999996618 9.1666666666214827 3.0116698237344943  43.312500000014218 9.1666666667072452 4.2349771138631773  45.374999999990997 9.166666666643783 5.328417583027302  47.437500000004334 9.1666666666737946 6.2786760367422501  49.500000000001016 9.1666666666669521 7.077365215523149  
3.4210955402854173e-13 10.083333333332961 5.0887656193505206  2.0625000000026774 10.083333333327161 4.6339098405947414  4.124999999991533 10.083333333352929 4.1045498852180753  6.1875000000142082 10.083333333294897 3.5042786882573131  8.2499999999856986 10.083333333379716 2.85719664984178  10.312500000007292 10.083333333293268 2.184875316430841  12.374999999997826 10.083333333353483 1.5094969209619205  14.437499999998648 10.083333333328603 0.86194874122480114  18.562500000000338 10.083333333334412 -0.31464626579363691  20.625000000003023 10.083333333335096 -0.8431472142251909  22.687499999984396 10.083333333322701 -1.2820788573059314  24.750000000021686 10.083333333353959 -1.5858355263592085  26.812499999977426 10.083333333313236 -1.7339667607440907  28.875000000011017 10.083333333343466 -1.6551978343023641  30.937499999997392 10.083333333331801 -1.3445225763050916  35.062499999997982 10.083333333327378 -0.21141481470769918  37.124999999997172 10.083333333364516 0.59666556205016275  39.187500000005443 10.083333333267845 1.8203706386322469  41.250000000004441 10.083333333418821 2.9593533877416034  43.312499999977533 10.083333333257237 4.2972270656428648  45.37500000001468 10.083333333376075 5.3844726317050098  47.437499999992234 10.08333333332034 6.3569654386277001  49.499999999998124 10.08333333333289 7.1680959084600149  
-4.2006254444019723e-13 11.00000000000038 5.0469808411321466  2.0624999999968696 11.000000000007706 4.5977585912521306  4.1250000000102576 10.99999999997498 4.0712133398935979  6.1874999999835545 11.000000000049097 3.481721149767472  8.2500000000160689 10.999999999940027 2.8432771421002778  10.312499999993049 11.000000000051994 2.1785362954381555  12.375000000001137 10.999999999973301 1.5141106005042626  14.437500000002522 11.00000000000642 0.87567398335439961  18.562499999998597 10.999999999997858 -0.28282117089876424  20.624999999998547 11.000000000000519 -0.80353387288989708  22.687500000019053 11.000000000007818 -1.2303334796734748  24.749999999968299 10.999999999980902 -1.5382397978073654  26.812500000035332 11.000000000019451 -1.6646280133233231  28.87499999998122 10.999999999990223 -1.5997456199004996  30.937500000003915 11.000000000001327 -1.2760313895947526  35.06250000000378 11.000000000007258 -0.12382484881771878  37.124999999996355 10.999999999962013 0.70507821470256371  39.18750000000442 11.000000000078757 1.7480405430158283  41.249999999985974 10.999999999898067 3.0126407016772752  43.312500000029893 11.000000000089496 4.2398759971234732  45.374999999980886 10.999999999949837 5.3401743197247136  47.43750000000982 11.000000000014991 6.2932366898988787  49.500000000002323 11.000000000000577 7.0941779121762893  
3.4297313461833114e-13 11.91666666666644 4.9057728607710658  2.0625000000027112 11.916666666660449 4.474697425066311  4.1249999999916005 11.916666666687192 3.9732046469737474  6.1875000000136415 11.916666666626465 3.4062266276242528  8.2499999999874429 11.91666666671628 2.795726351619416  10.312500000005123 11.916666666623897 2.1622179811218705  12.375000000000055 11.916666666688943 1.5272079953291668  14.43749999999787 11.916666666661396 0.91970250149554922  18.562500000001553 11.916666666668732 -0.17985040847757305  20.625000000001037 11.916666666665577 -0.67173658470484299  22.687499999984475 11.916666666661836 -1.0748126008474352  24.750000000028226 11.916666666680142 -1.3538481351976002  26.812499999967848 11.916666666653237 -1.4702238969227659  28.875000000018279 11.916666666673377 -1.3851288942493896  30.937499999996714 11.916666666665879 -1.0537893477636948  35.062499999995971 11.916666666661014 0.059886042894943578  37.125000000007823 11.916666666695898 0.84402755490522152  39.187499999990834 11.91666666660694 1.827648786350454  41.25000000001161 11.916666666743408 2.9788391321802705  43.312499999979991 11.916666666599948 4.1381503507634143  45.375000000012676 11.916666666704277 5.1784575857055026  47.437499999993229 11.916666666655388 6.0900789188764675  49.499999999998273 11.916666666666336 6.8585377898330888  
-1.704556388477893e-13 12.833333333333417 4.670769993840584  2.0624999999985727 12.833333333336485 4.2691241333669101  4.125000000004575 12.833333333323145 3.8010127450131312  6.1874999999931113 12.833333333353139 3.2759609893902728  8.2500000000062137 12.833333333308866 2.7102415561723747  10.312499999997966 12.833333333354219 2.1236309917746614  12.374999999999531 12.833333333322539 1.53825480896849  14.437500000001432 12.833333333335879 0.97900633124622338  18.562499999998757 12.833333333332375 -0.028957885222002995  20.625000000001737 12.833333333333847 -0.47774597797197216  22.68750000000329 12.833333333335963 -0.84230049764106318  24.749999999990454 12.83333333332636 -1.0902338896748758  26.812500000013358 12.833333333340201 -1.1865172094751975  28.874999999991665 12.833333333329822 -1.092107996812884  30.937500000001322 12.833333333333835 -0.78079038462949968  35.062500000002487 12.833333333335956 0.24669852309715248  37.12499999999423 12.8333333333195 0.96186893402988616  39.187500000006239 12.833333333361352 1.8753332602929766  41.249999999994884 12.833333333297395 2.9016049158069528  43.312500000007162 12.833333333364356 3.9629724316541828  45.37499999999558 12.833333333315741 4.9145491953135281  47.437500000002544 12.83333333333877 5.7582727336440671  49.500000000000945 12.833333333333531 6.4737644147001969  
3.4030600272803071e-14 13.749999999999998 4.3388847154019414  2.0625000000005067 13.74999999999898 3.9759181954767269  4.1249999999986331 13.750000000003094 3.5539896523016616  6.1875000000022569 13.749999999994143 3.0814346013778078  8.2499999999982254 13.750000000007256 2.5739762547164986  10.312500000000663 13.749999999994067 2.0492232340401939  12.375000000000243 13.750000000002883 1.5266467780744717  14.437499999999758 13.749999999999448 1.0292168792033849  18.562500000000281 13.749999999999938 0.1365366911956967  20.625000000000028 13.750000000001311 -0.25877035619800365  22.687499999998789 13.749999999996763 -0.57674704853405678  24.750000000002842 13.750000000004643 -0.78909518694047176  26.812499999996383 13.749999999996083 -0.86361386574121568  28.875000000002427 13.750000000001984 -0.76773061753242122  30.937499999999464 13.749999999999645 -0.48096552367690748  35.062500000000028 13.749999999999481 0.4413089352700495  37.124999999998224 13.750000000003157 1.0769068468884959  39.187500000005485 13.749999999993594 1.8719170399644016  41.24999999999126 13.750000000008136 2.7769350281094867  43.312500000007539 13.749999999992932 3.7027397884794451  45.374999999995843 13.750000000004052 4.5508341080031052  47.437500000001108 13.749999999998645 5.3070069348676778  49.499999999999936 13.749999999999998 5.9535116449267651  
3.6344452380703435e-15 15.583333333333309 3.4833134949377804  2.0624999999994458 15.583333333334684 3.2116124055999213  4.1250000000019336 15.583333333329588 2.8971463244874682  6.1874999999971489 15.583333333340503 2.547878296832796  8.2500000000027143 15.583333333324287 2.1756126433252532  10.312499999998876 15.583333333340578 1.7931596442439643  12.37500000000003 15.58333333333011 1.4148625402670545  14.437500000000325 15.583333333333869 1.0577691465760646  18.562499999999524 15.583333333333727 0.42369160689458235  20.625000000001627 15.583333333330835 0.14663707387729985  22.68749999999747 15.583333333338748 -0.071082931417856182  24.750000000001936 15.583333333326314 -0.20975361872121256  26.812499999999705 15.583333333339388 -0.24597820950398752  28.87499999999973 15.583333333330334 -0.15890588177457254  30.937500000000263 15.58333333333392 0.059433672007376835  35.062499999999709 15.583333333333607 0.7308221169350172  37.125000000002601 15.583333333331039 1.1841191724634477  39.187499999993456 15.583333333338118 1.7407365449057834  41.250000000009535 15.583333333327072 2.3718939320808547  43.312499999991068 15.583333333338807 3.0159129967246234  45.37500000000523 15.583333333330378 3.6263032648232363  47.437499999998323 15.583333333334409 4.182647241290681  49.500000000000071 15.583333333333359 4.6682317398782409  
-5.072895526207142e-14 16.500000000000107 2.960417622054011  2.062500000002419 16.499999999994934 2.7421266827142241  4.1249999999923519 16.500000000013056 2.4843845595519447  6.1875000000128733 16.499999999975 2.212412948735937  8.2499999999874287 16.500000000031363 1.9108492804216886  10.312500000006208 16.499999999975916 1.6129002050462506  12.37499999999903 16.500000000009891 1.3144820112105213  14.437499999999512 16.499999999998948 1.0362027443640109  18.562500000000721 16.4999999999973 0.54543137628889093  20.624999999997904 16.500000000014158 0.33308555173432808  22.687500000004487 16.49999999997187 0.1691226155673963  24.749999999995715 16.500000000033243 0.068391730776029683  26.812500000001048 16.499999999973586 0.048883050782295379  28.875000000000547 16.500000000011916 0.12535386746884769  30.937499999998472 16.499999999997527 0.30094926123896659  35.062500000002487 16.499999999999883 0.82869166570478014  37.124999999985093 16.500000000003507 1.1817282333857504  39.187500000031555 16.499999999992529 1.6046283026568964  41.249999999954397 16.500000000009781 2.1078236788600688  43.312500000044338 16.499999999990742 2.5697979825234913  45.374999999972289 16.500000000004952 3.0774670674257369  47.437500000009585 16.499999999997566 3.5106964131765612  49.500000000000227 16.500000000000064 3.9035925839234418  
1.6550457683199613e-13 17.416666666666494 2.3365877653715601  2.0624999999955609 17.416666666676068 2.171423437882805  4.1250000000139977 17.416666666643028 2.0028417769192695  6.187499999977554 17.416666666713148 1.7748752696603383  8.2500000000214087 17.416666666608098 1.5853260461372938  10.312499999990431 17.416666666710967 1.3540473679522078  12.375000000001078 17.416666666649267 1.1485075120369765  14.437500000000975 17.416666666668117 0.95096775859088567  18.562499999998941 17.416666666672594 0.60811729409806559  20.625000000003485 17.41666666663756 0.4619709497066416  22.687499999990724 17.416666666721884 0.35082182084090685  24.750000000012101 17.416666666604705 0.28657745725874528  26.812499999993147 17.416666666713951 0.28009639246480733  28.875000000001581 17.416666666646737 0.33951395158255299  30.937500000002508 17.416666666670714 0.46753941137833444  35.062499999995978 17.416666666667389 0.84272422540387837  37.12500000002504 17.416666666659406 1.0879896995155536  39.187499999948493 17.416666666682389 1.4064865401658277  41.250000000075374 17.416666666646258 1.6788292517376679  43.312499999924704 17.416666666685845 2.1419729488198862  45.375000000047301 17.416666666656763 2.3602404623754891  47.437499999983245 17.416666666671606 2.7285149811294258  49.499999999999702 17.416666666666554 3.0271342122867555  
-2.0748998310564361e-13 18.333333333333417 1.62869955009927  2.0625000000056799 18.333333333322699 1.5317403756601446  4.1249999999826459 18.333333333358794 1.3859138885996529  6.1875000000281482 18.333333333282077 1.2979760934916313  8.2499999999726654 18.333333333398258 1.1333223677273632  10.312500000012797 18.333333333284436 1.0236871139389132  12.374999999997568 18.333333333351629 0.88895960655514361  14.437499999999455 18.333333333332334 0.7737853052932675  18.562499999999904 18.333333333324898 0.57270767734471839  20.625000000001123 18.333333333372241 0.48780427730468023  22.687500000002544 18.333333333262132 0.42613753888696271  24.749999999992546 18.333333333410039 0.39116864605390411  26.812500000004551 18.333333333276457 0.39071260980730604  28.874999999999485 18.333333333356354 0.43064488440986398  30.937499999996593 18.333333333328905 0.50847920994072948  35.062500000004569 18.33333333333135 0.73447115411163466  37.124999999970257 18.333333333345752 0.88550763003655508  39.187500000057746 18.333333333307685 1.031781753890691  41.249999999914763 18.333333333365282 1.3414693839077452  43.312500000085137 18.333333333304061 1.334254333090543  45.374999999946702 18.333333333348811 1.7514396652385829  47.437500000019121 18.333333333326138 1.8791560959871609  49.500000000000441 18.333333333333659 2.0654497777135323  
1.6493255254131229e-13 19.250000000000053 0.80863749864307533  2.0624999999950302 19.250000000008232 0.75978240224252891  4.1250000000159872 19.249999999980762 0.72749069509776676  6.18749999997309 19.250000000038714 0.65228780504248662  8.250000000027832 19.249999999951701 0.62594109732918923  10.312499999984505 19.250000000036 0.55857198487265292  12.375000000005175 19.249999999987331 0.51728124308244605  14.437499999999346 19.250000000000433 0.47310717443807165  18.562500000001389 19.25000000000702 0.40149465602744006  20.62499999999466 19.249999999969479 0.37309373166443843  22.687500000005112 19.250000000054161 0.35330444674702782  24.749999999998607 19.249999999943878 0.34575169786210441  26.812500000001062 19.250000000040277 0.35118252598699901  28.874999999998636 19.249999999984482 0.36944282978050186  30.937500000002657 19.250000000002686 0.40150139035740923  35.062499999997328 19.250000000002494 0.48708932603812755  37.125000000018808 19.249999999987548 0.54212472907229148  39.187499999965794 19.250000000024563 0.61206588525671668  41.250000000052921 19.249999999970093 0.62908316689833288  43.312499999946304 19.250000000027271 0.84312958753184686  45.375000000032742 19.249999999985221 0.72217300427698639  47.43749999998775 19.250000000006629 0.88519149542385522  49.499999999999822 19.249999999999631 0.99340070149326165  
-4.4333989170011036e-14 20.166666666666636 -0.097274150939650209  2.0625000000029443 20.166666666662454 -0.083898762340522973  4.1249999999898561 20.166666666676289 -0.070755953588067619  6.1875000000177858 20.16666666664857 -0.044309284948257886  8.2499999999806786 20.166666666687895 -0.035039516971526366  10.312500000012045 20.166666666651963 -0.008191473048473185  12.374999999995033 20.166666666670675 0.0088446824062555184  14.43750000000114 20.166666666667165 0.028332134320483298  18.562499999998241 20.166666666662419 0.062339222515854484  20.625000000006441 20.166666666684311 0.077307950048530749  22.687499999991399 20.166666666635692 0.089530020197977025  24.750000000007461 20.166666666698823 0.097310533895293566  26.812499999994394 20.166666666643742 0.099642941843521002  28.875000000003052 20.166666666676001 0.095737599029746961  30.937499999998479 20.166666666665034 0.084725820235709265  35.062500000000888 20.166666666665598 0.050989761806140392  37.124999999993157 20.166666666672825 0.02699405123880497  39.187500000010658 20.166666666654713 0.0059881742677535283  41.249999999980901 20.166666666681358 -0.046368297490036056  43.312500000020833 20.166666666652858 -0.038977111033054547  45.374999999987146 20.166666666674658 -0.10974262296520522  47.43750000000535 20.166666666663041 -0.1159503373317459  49.500000000000284 20.16666666666698 -0.11147981967905195  
4.4024347768607895e-15 21.083333333333343 -1.096147646074445  2.0624999999990945 21.083333333334693 -1.0296610753961344  4.1250000000032712 21.083333333329907 -0.95936895169527769  6.1874999999942641 21.083333333339532 -0.87970893971255326  8.250000000006402 21.083333333326514 -0.80110736861028042  10.312499999995683 21.083333333337592 -0.72071306309705818  12.375000000001966 21.083333333332568 -0.6440756295639527  14.437499999999558 21.083333333332995 -0.57421276632112639  18.562500000000391 21.083333333334714 -0.45514165078825464  20.624999999998945 21.083333333327698 -0.40599243682104436  22.687500000000753 21.083333333343305 -0.37063718966901243  24.74999999999967 21.083333333322543 -0.35290966552470626  26.812500000000405 21.083333333341379 -0.35604071922673147  28.874999999999609 21.083333333329623 -0.38197571113416096  30.937500000000203 21.083333333334078 -0.43069350219392705  35.062500000000099 21.083333333333428 -0.56767086576257353  37.125000000000277 21.083333333331755 -0.65531092083551024  39.187500000000412 21.083333333336778 -0.76307898275864938  41.250000000001016 21.083333333328738 -0.87856675214401359  43.312499999997939 21.083333333337642 -0.99307136291009823  45.375000000001286 21.083333333330913 -1.1348395325193963  47.43749999999924 21.08333333333437 -1.2295395052425442  49.500000000000064 21.083333333333258 -1.3114184127594599  
-3.7303493627405449e-14 22.000000000000007 -2.2018269371290744  2.062500000000004 22.000000000000043 -2.0860788561381001  4.1250000000000409 21.999999999999886 -1.9655637918240945  6.1874999999999716 22.000000000000231 -1.8362179840615385  8.2500000000000977 21.999999999999741 -1.704746146959536  10.312499999999908 22.000000000000195 -1.5755761513107374  12.375000000000037 21.999999999999886 -1.4523695487128105  14.437500000000048 22.00000000000006 -1.3420956142191056  18.562499999999872 21.999999999999872 -1.1572575545325938  20.625000000000622 22.000000000000611 -1.0828265745538785  22.687499999998824 21.999999999998796 -1.031699226730199  24.750000000001229 22.000000000001439 -1.0094304390069289  26.812499999999083 21.999999999998888 -1.0205238249083179  28.875000000000426 22.000000000000554 -1.0673329452067519  30.937499999999883 21.99999999999989 -1.1491544913362155  35.062500000000071 22.000000000000064 -1.3738722897647662  37.124999999999488 21.999999999999908 -1.5163239052671862  39.187500000001108 22.00000000000011 -1.6877359176317988  41.249999999998245 21.99999999999989 -1.8726527668741206  43.312500000001648 22.000000000000135 -2.0696164697265238  45.374999999998998 21.999999999999918 -2.2756165575057996  47.437500000000348 22.00000000000005 -2.4503274765433241  49.500000000000142 22.000000000000021 -2.6104278360323394  

0 9
0.3666666666666667 7
0.73333333333333339 7
1.1000000000000001 9

0 9
0.3666666666666667 7
0.73333333333333339 7
1.1000000000000001 9

Triangulations 0

TShapes 25
Ve
0.000388865751654644
0 0 0
0 0

0101101
*
Ve
0.000236068184778504
0 20 0
0 0

0101101
*
Ed
 1e-07 1 1 0
1  1 0 0 22.3606797749979
0

0101000
+25 0 -24 0 *
Ve
1e-07
15 0 0
0 0

0101101
*
Ve
1e-07
15 20 0
0 0

0101101
*
Ed
 1e-07 1 1 0
1  2 0 0 22.3606797749979
0

0101000
+22 0 -21 0 *
Ve
0.000388865751654644
45 0 0
0 0

0101101
*
Ve
0.000388865751654644
45 20 0
0 0

0101101
*
Ed
 1e-07 1 1 0
1  3 0 0 22.3606797749979
0

0101000
+19 0 -18 0 *
Ve
1e-07
10 15 0
0 0

0101101
*
Ed
 1e-07 1 1 0
1  4 0 0 1
2  1 1 0 0 1
0

0101000
+25 0 -24 0 *
Ed
 1e-07 1 1 0
1  5 0 0 1
2  2 1 0 0 1
0

0101000
+24 0 -18 0 *
Ed
 1e-07 1 1 0
1  6 0 0 1
2  3 1 0 0 1
0

0101000
+19 0 -18 0 *
Ed
 1e-07 1 1 0
1  7 0 0 1
2  4 1 0 0 1
0

0101000
+25 0 -19 0 *
Wi

0101000
+15 0 +14 0 -13 0 -12 0 *
Fa
0  1e-07 1 0

0101000
+11 0 *
Sh

0101000
+10 0 *
Ve
1e-07
35 10 0
0 0

0101101
*
Ed
 8.72156455352657e-05 1 1 0
1  4 0 0 1
2  1 1 0 0 1
2  5 2 0 0 1
0

0101000
+25 0 -24 0 *
Ed
 0.000236068184778504 1 1 0
1  5 0 0 1
2  2 1 0 0 1
2  6 2 0 0 1
0

0101000
+24 0 -18 0 *
Ed
 0.000388865751654643 1 1 0
1  6 0 0 1
2  3 1 0 0 1
2  7 2 0 0 1
0

0101000
-18 0 +19 0 *
Ed
 0.000388865751654643 1 1 0
1  7 0 0 1
2  4 1 0 0 1
2  8 2 0 0 1
0

0101000
-19 0 +25 0 *
Wi

0101100
+7 0 +6 0 -5 0 -4 0 *
Fa
0  1e-07 2 0

0111000
+3 0 *
Co

1100000
+23 0 +20 0 +17 0 +16 0 +9 0 +8 0 +2 0 *

+1 0 