<!DOCTYPE svg PUBLIC "-//W3C//DTD SVG 1.1//EN" "http://www.w3.org/Graphics/SVG/1.1/DTD/svg11.dtd">
<svg xmlns="http://www.w3.org/2000/svg" xmlns:xlink="http://www.w3.org/1999/xlink" xmlns:jfreesvg="http://www.jfree.org/jfreesvg/svg" width="1152" height="768" text-rendering="auto" shape-rendering="auto">
<defs><clipPath id="_1061647336377937clip-0"><path d="M 0 0 L 1152 0 L 1152 768 L 0 768 L 0 0 Z "/></clipPath>
<clipPath id="_1061647336377937clip-1"><path d="M 384.5 345.5 L 384.5 1497.5 L -383.5 1497.5 L -383.5 345.5 L 384.5 345.5 Z "/></clipPath>
<clipPath id="_1061647336377937clip-2"><path d="M 84 35 L 84 695 L 1140 695 L 1140 35 Z "/></clipPath>
</defs>
<rect x="0" y="0" width="1152" height="768" style="fill: rgb(255,255,255); fill-opacity: 1.0" transform="matrix(1,0,0,1,0,0)" clip-path="url(#_1061647336377937clip-0)"/><g transform="matrix(1,0,0,1,0,0)"><text x="329" y="21.01" style="fill: rgb(0,0,0); fill-opacity: 1.0; font-family: Tahoma; font-size: 20px; font-weight: bold;" clip-path="url(#_1061647336377937clip-0)">Moment_Coefficient_Curve_Clean_Configuration</text></g><rect x="432.5" y="746" width="287" height="21" style="fill: rgb(255,255,255); fill-opacity: 1.0" transform="matrix(1,0,0,1,0,0)" clip-path="url(#_1061647336377937clip-0)"/><g style="stroke-width: 3.0;stroke: rgb(0,0,0);stroke-opacity: 1.0;stroke-linecap: square;shape-rendering:geometricPrecision;; fill: none" transform="matrix(1,0,0,1,0,0)" clip-path="url(#_1061647336377937clip-0)"><path d="M 435.5 756.5 L 449.5 756.5"/></g><g transform="matrix(1,0,0,1,0,0)"><text x="453.5" y="761.01" style="fill: rgb(64,64,64); fill-opacity: 1.0; font-family: Tahoma; font-size: 12px;" clip-path="url(#_1061647336377937clip-0)"> Moment_Coefficient_Curve_Clean_Configuration </text></g><rect x="84" y="35" width="1056" height="660" style="fill: rgb(255,255,255); fill-opacity: 0.0" transform="matrix(1,0,0,1,0,0)" clip-path="url(#_1061647336377937clip-0)"/><line x1="84" y1="699" x2="1140" y2="699" style="stroke-width: 0.5;stroke: rgb(128,128,128);stroke-opacity: 1.0;stroke-linecap: square;shape-rendering:crispEdges;" transform="matrix(1,0,0,1,0,0)" clip-path="url(#_1061647336377937clip-0)"/><g transform="matrix(1,0,0,1,0,0)"><text x="87.39" y="715.52" style="fill: rgb(64,64,64); fill-opacity: 1.0; font-family: Tahoma; font-size: 12px;" clip-path="url(#_1061647336377937clip-0)">-10</text></g><line x1="95.89" y1="701" x2="95.89" y2="699" style="stroke-width: 0.5;stroke: rgb(128,128,128);stroke-opacity: 1.0;stroke-linecap: square;shape-rendering:crispEdges;" transform="matrix(1,0,0,1,0,0)" clip-path="url(#_1061647336377937clip-0)"/><g transform="matrix(1,0,0,1,0,0)"><text x="129.63" y="715.52" style="fill: rgb(64,64,64); fill-opacity: 1.0; font-family: Tahoma; font-size: 12px;" clip-path="url(#_1061647336377937clip-0)">-9</text></g><line x1="135.13" y1="701" x2="135.13" y2="699" style="stroke-width: 0.5;stroke: rgb(128,128,128);stroke-opacity: 1.0;stroke-linecap: square;shape-rendering:crispEdges;" transform="matrix(1,0,0,1,0,0)" clip-path="url(#_1061647336377937clip-0)"/><g transform="matrix(1,0,0,1,0,0)"><text x="168.87" y="715.52" style="fill: rgb(64,64,64); fill-opacity: 1.0; font-family: Tahoma; font-size: 12px;" clip-path="url(#_1061647336377937clip-0)">-8</text></g><line x1="174.37" y1="701" x2="174.37" y2="699" style="stroke-width: 0.5;stroke: rgb(128,128,128);stroke-opacity: 1.0;stroke-linecap: square;shape-rendering:crispEdges;" transform="matrix(1,0,0,1,0,0)" clip-path="url(#_1061647336377937clip-0)"/><g transform="matrix(1,0,0,1,0,0)"><text x="208.1" y="715.52" style="fill: rgb(64,64,64); fill-opacity: 1.0; font-family: Tahoma; font-size: 12px;" clip-path="url(#_1061647336377937clip-0)">-7</text></g><line x1="213.6" y1="701" x2="213.6" y2="699" style="stroke-width: 0.5;stroke: rgb(128,128,128);stroke-opacity: 1.0;stroke-linecap: square;shape-rendering:crispEdges;" transform="matrix(1,0,0,1,0,0)" clip-path="url(#_1061647336377937clip-0)"/><g transform="matrix(1,0,0,1,0,0)"><text x="247.34" y="715.52" style="fill: rgb(64,64,64); fill-opacity: 1.0; font-family: Tahoma; font-size: 12px;" clip-path="url(#_1061647336377937clip-0)">-6</text></g><line x1="252.84" y1="701" x2="252.84" y2="699" style="stroke-width: 0.5;stroke: rgb(128,128,128);stroke-opacity: 1.0;stroke-linecap: square;shape-rendering:crispEdges;" transform="matrix(1,0,0,1,0,0)" clip-path="url(#_1061647336377937clip-0)"/><g transform="matrix(1,0,0,1,0,0)"><text x="286.58" y="715.52" style="fill: rgb(64,64,64); fill-opacity: 1.0; font-family: Tahoma; font-size: 12px;" clip-path="url(#_1061647336377937clip-0)">-5</text></g><line x1="292.08" y1="701" x2="292.08" y2="699" style="stroke-width: 0.5;stroke: rgb(128,128,128);stroke-opacity: 1.0;stroke-linecap: square;shape-rendering:crispEdges;" transform="matrix(1,0,0,1,0,0)" clip-path="url(#_1061647336377937clip-0)"/><g transform="matrix(1,0,0,1,0,0)"><text x="325.82" y="715.52" style="fill: rgb(64,64,64); fill-opacity: 1.0; font-family: Tahoma; font-size: 12px;" clip-path="url(#_1061647336377937clip-0)">-4</text></g><line x1="331.32" y1="701" x2="331.32" y2="699" style="stroke-width: 0.5;stroke: rgb(128,128,128);stroke-opacity: 1.0;stroke-linecap: square;shape-rendering:crispEdges;" transform="matrix(1,0,0,1,0,0)" clip-path="url(#_1061647336377937clip-0)"/><g transform="matrix(1,0,0,1,0,0)"><text x="365.05" y="715.52" style="fill: rgb(64,64,64); fill-opacity: 1.0; font-family: Tahoma; font-size: 12px;" clip-path="url(#_1061647336377937clip-0)">-3</text></g><line x1="370.55" y1="701" x2="370.55" y2="699" style="stroke-width: 0.5;stroke: rgb(128,128,128);stroke-opacity: 1.0;stroke-linecap: square;shape-rendering:crispEdges;" transform="matrix(1,0,0,1,0,0)" clip-path="url(#_1061647336377937clip-0)"/><g transform="matrix(1,0,0,1,0,0)"><text x="404.29" y="715.52" style="fill: rgb(64,64,64); fill-opacity: 1.0; font-family: Tahoma; font-size: 12px;" clip-path="url(#_1061647336377937clip-0)">-2</text></g><line x1="409.79" y1="701" x2="409.79" y2="699" style="stroke-width: 0.5;stroke: rgb(128,128,128);stroke-opacity: 1.0;stroke-linecap: square;shape-rendering:crispEdges;" transform="matrix(1,0,0,1,0,0)" clip-path="url(#_1061647336377937clip-0)"/><g transform="matrix(1,0,0,1,0,0)"><text x="443.53" y="715.52" style="fill: rgb(64,64,64); fill-opacity: 1.0; font-family: Tahoma; font-size: 12px;" clip-path="url(#_1061647336377937clip-0)">-1</text></g><line x1="449.03" y1="701" x2="449.03" y2="699" style="stroke-width: 0.5;stroke: rgb(128,128,128);stroke-opacity: 1.0;stroke-linecap: square;shape-rendering:crispEdges;" transform="matrix(1,0,0,1,0,0)" clip-path="url(#_1061647336377937clip-0)"/><g transform="matrix(1,0,0,1,0,0)"><text x="484.77" y="715.52" style="fill: rgb(64,64,64); fill-opacity: 1.0; font-family: Tahoma; font-size: 12px;" clip-path="url(#_1061647336377937clip-0)">0</text></g><line x1="488.27" y1="701" x2="488.27" y2="699" style="stroke-width: 0.5;stroke: rgb(128,128,128);stroke-opacity: 1.0;stroke-linecap: square;shape-rendering:crispEdges;" transform="matrix(1,0,0,1,0,0)" clip-path="url(#_1061647336377937clip-0)"/><g transform="matrix(1,0,0,1,0,0)"><text x="524" y="715.52" style="fill: rgb(64,64,64); fill-opacity: 1.0; font-family: Tahoma; font-size: 12px;" clip-path="url(#_1061647336377937clip-0)">1</text></g><line x1="527.5" y1="701" x2="527.5" y2="699" style="stroke-width: 0.5;stroke: rgb(128,128,128);stroke-opacity: 1.0;stroke-linecap: square;shape-rendering:crispEdges;" transform="matrix(1,0,0,1,0,0)" clip-path="url(#_1061647336377937clip-0)"/><g transform="matrix(1,0,0,1,0,0)"><text x="563.24" y="715.52" style="fill: rgb(64,64,64); fill-opacity: 1.0; font-family: Tahoma; font-size: 12px;" clip-path="url(#_1061647336377937clip-0)">2</text></g><line x1="566.74" y1="701" x2="566.74" y2="699" style="stroke-width: 0.5;stroke: rgb(128,128,128);stroke-opacity: 1.0;stroke-linecap: square;shape-rendering:crispEdges;" transform="matrix(1,0,0,1,0,0)" clip-path="url(#_1061647336377937clip-0)"/><g transform="matrix(1,0,0,1,0,0)"><text x="602.48" y="715.52" style="fill: rgb(64,64,64); fill-opacity: 1.0; font-family: Tahoma; font-size: 12px;" clip-path="url(#_1061647336377937clip-0)">3</text></g><line x1="605.98" y1="701" x2="605.98" y2="699" style="stroke-width: 0.5;stroke: rgb(128,128,128);stroke-opacity: 1.0;stroke-linecap: square;shape-rendering:crispEdges;" transform="matrix(1,0,0,1,0,0)" clip-path="url(#_1061647336377937clip-0)"/><g transform="matrix(1,0,0,1,0,0)"><text x="641.71" y="715.52" style="fill: rgb(64,64,64); fill-opacity: 1.0; font-family: Tahoma; font-size: 12px;" clip-path="url(#_1061647336377937clip-0)">4</text></g><line x1="645.21" y1="701" x2="645.21" y2="699" style="stroke-width: 0.5;stroke: rgb(128,128,128);stroke-opacity: 1.0;stroke-linecap: square;shape-rendering:crispEdges;" transform="matrix(1,0,0,1,0,0)" clip-path="url(#_1061647336377937clip-0)"/><g transform="matrix(1,0,0,1,0,0)"><text x="680.95" y="715.52" style="fill: rgb(64,64,64); fill-opacity: 1.0; font-family: Tahoma; font-size: 12px;" clip-path="url(#_1061647336377937clip-0)">5</text></g><line x1="684.45" y1="701" x2="684.45" y2="699" style="stroke-width: 0.5;stroke: rgb(128,128,128);stroke-opacity: 1.0;stroke-linecap: square;shape-rendering:crispEdges;" transform="matrix(1,0,0,1,0,0)" clip-path="url(#_1061647336377937clip-0)"/><g transform="matrix(1,0,0,1,0,0)"><text x="720.19" y="715.52" style="fill: rgb(64,64,64); fill-opacity: 1.0; font-family: Tahoma; font-size: 12px;" clip-path="url(#_1061647336377937clip-0)">6</text></g><line x1="723.69" y1="701" x2="723.69" y2="699" style="stroke-width: 0.5;stroke: rgb(128,128,128);stroke-opacity: 1.0;stroke-linecap: square;shape-rendering:crispEdges;" transform="matrix(1,0,0,1,0,0)" clip-path="url(#_1061647336377937clip-0)"/><g transform="matrix(1,0,0,1,0,0)"><text x="759.43" y="715.52" style="fill: rgb(64,64,64); fill-opacity: 1.0; font-family: Tahoma; font-size: 12px;" clip-path="url(#_1061647336377937clip-0)">7</text></g><line x1="762.93" y1="701" x2="762.93" y2="699" style="stroke-width: 0.5;stroke: rgb(128,128,128);stroke-opacity: 1.0;stroke-linecap: square;shape-rendering:crispEdges;" transform="matrix(1,0,0,1,0,0)" clip-path="url(#_1061647336377937clip-0)"/><g transform="matrix(1,0,0,1,0,0)"><text x="798.66" y="715.52" style="fill: rgb(64,64,64); fill-opacity: 1.0; font-family: Tahoma; font-size: 12px;" clip-path="url(#_1061647336377937clip-0)">8</text></g><line x1="802.16" y1="701" x2="802.16" y2="699" style="stroke-width: 0.5;stroke: rgb(128,128,128);stroke-opacity: 1.0;stroke-linecap: square;shape-rendering:crispEdges;" transform="matrix(1,0,0,1,0,0)" clip-path="url(#_1061647336377937clip-0)"/><g transform="matrix(1,0,0,1,0,0)"><text x="837.9" y="715.52" style="fill: rgb(64,64,64); fill-opacity: 1.0; font-family: Tahoma; font-size: 12px;" clip-path="url(#_1061647336377937clip-0)">9</text></g><line x1="841.4" y1="701" x2="841.4" y2="699" style="stroke-width: 0.5;stroke: rgb(128,128,128);stroke-opacity: 1.0;stroke-linecap: square;shape-rendering:crispEdges;" transform="matrix(1,0,0,1,0,0)" clip-path="url(#_1061647336377937clip-0)"/><g transform="matrix(1,0,0,1,0,0)"><text x="874.14" y="715.52" style="fill: rgb(64,64,64); fill-opacity: 1.0; font-family: Tahoma; font-size: 12px;" clip-path="url(#_1061647336377937clip-0)">10</text></g><line x1="880.64" y1="701" x2="880.64" y2="699" style="stroke-width: 0.5;stroke: rgb(128,128,128);stroke-opacity: 1.0;stroke-linecap: square;shape-rendering:crispEdges;" transform="matrix(1,0,0,1,0,0)" clip-path="url(#_1061647336377937clip-0)"/><g transform="matrix(1,0,0,1,0,0)"><text x="913.38" y="715.52" style="fill: rgb(64,64,64); fill-opacity: 1.0; font-family: Tahoma; font-size: 12px;" clip-path="url(#_1061647336377937clip-0)">11</text></g><line x1="919.88" y1="701" x2="919.88" y2="699" style="stroke-width: 0.5;stroke: rgb(128,128,128);stroke-opacity: 1.0;stroke-linecap: square;shape-rendering:crispEdges;" transform="matrix(1,0,0,1,0,0)" clip-path="url(#_1061647336377937clip-0)"/><g transform="matrix(1,0,0,1,0,0)"><text x="952.61" y="715.52" style="fill: rgb(64,64,64); fill-opacity: 1.0; font-family: Tahoma; font-size: 12px;" clip-path="url(#_1061647336377937clip-0)">12</text></g><line x1="959.11" y1="701" x2="959.11" y2="699" style="stroke-width: 0.5;stroke: rgb(128,128,128);stroke-opacity: 1.0;stroke-linecap: square;shape-rendering:crispEdges;" transform="matrix(1,0,0,1,0,0)" clip-path="url(#_1061647336377937clip-0)"/><g transform="matrix(1,0,0,1,0,0)"><text x="991.85" y="715.52" style="fill: rgb(64,64,64); fill-opacity: 1.0; font-family: Tahoma; font-size: 12px;" clip-path="url(#_1061647336377937clip-0)">13</text></g><line x1="998.35" y1="701" x2="998.35" y2="699" style="stroke-width: 0.5;stroke: rgb(128,128,128);stroke-opacity: 1.0;stroke-linecap: square;shape-rendering:crispEdges;" transform="matrix(1,0,0,1,0,0)" clip-path="url(#_1061647336377937clip-0)"/><g transform="matrix(1,0,0,1,0,0)"><text x="1031.09" y="715.52" style="fill: rgb(64,64,64); fill-opacity: 1.0; font-family: Tahoma; font-size: 12px;" clip-path="url(#_1061647336377937clip-0)">14</text></g><line x1="1037.59" y1="701" x2="1037.59" y2="699" style="stroke-width: 0.5;stroke: rgb(128,128,128);stroke-opacity: 1.0;stroke-linecap: square;shape-rendering:crispEdges;" transform="matrix(1,0,0,1,0,0)" clip-path="url(#_1061647336377937clip-0)"/><g transform="matrix(1,0,0,1,0,0)"><text x="1070.33" y="715.52" style="fill: rgb(64,64,64); fill-opacity: 1.0; font-family: Tahoma; font-size: 12px;" clip-path="url(#_1061647336377937clip-0)">15</text></g><line x1="1076.83" y1="701" x2="1076.83" y2="699" style="stroke-width: 0.5;stroke: rgb(128,128,128);stroke-opacity: 1.0;stroke-linecap: square;shape-rendering:crispEdges;" transform="matrix(1,0,0,1,0,0)" clip-path="url(#_1061647336377937clip-0)"/><g transform="matrix(1,0,0,1,0,0)"><text x="1109.56" y="715.52" style="fill: rgb(64,64,64); fill-opacity: 1.0; font-family: Tahoma; font-size: 12px;" clip-path="url(#_1061647336377937clip-0)">16</text></g><line x1="1116.06" y1="701" x2="1116.06" y2="699" style="stroke-width: 0.5;stroke: rgb(128,128,128);stroke-opacity: 1.0;stroke-linecap: square;shape-rendering:crispEdges;" transform="matrix(1,0,0,1,0,0)" clip-path="url(#_1061647336377937clip-0)"/><g transform="matrix(1,0,0,1,0,0)"><text x="562.5" y="734.59" style="fill: rgb(64,64,64); fill-opacity: 1.0; font-family: Tahoma; font-size: 14px; font-weight: bold;" clip-path="url(#_1061647336377937clip-0)">alpha_h (deg)</text></g><line x1="80" y1="35" x2="80" y2="695" style="stroke-width: 0.5;stroke: rgb(128,128,128);stroke-opacity: 1.0;stroke-linecap: square;shape-rendering:crispEdges;" transform="matrix(1,0,0,1,0,0)" clip-path="url(#_1061647336377937clip-0)"/><g transform="matrix(1,0,0,1,0,0)"><text x="33" y="679.42" style="fill: rgb(64,64,64); fill-opacity: 1.0; font-family: Tahoma; font-size: 12px;" clip-path="url(#_1061647336377937clip-0)">-0,0005</text></g><line x1="78" y1="674.4" x2="80" y2="674.4" style="stroke-width: 0.5;stroke: rgb(128,128,128);stroke-opacity: 1.0;stroke-linecap: square;shape-rendering:crispEdges;" transform="matrix(1,0,0,1,0,0)" clip-path="url(#_1061647336377937clip-0)"/><g transform="matrix(1,0,0,1,0,0)"><text x="38" y="639.94" style="fill: rgb(64,64,64); fill-opacity: 1.0; font-family: Tahoma; font-size: 12px;" clip-path="url(#_1061647336377937clip-0)">0,0000</text></g><line x1="78" y1="634.92" x2="80" y2="634.92" style="stroke-width: 0.5;stroke: rgb(128,128,128);stroke-opacity: 1.0;stroke-linecap: square;shape-rendering:crispEdges;" transform="matrix(1,0,0,1,0,0)" clip-path="url(#_1061647336377937clip-0)"/><g transform="matrix(1,0,0,1,0,0)"><text x="38" y="600.46" style="fill: rgb(64,64,64); fill-opacity: 1.0; font-family: Tahoma; font-size: 12px;" clip-path="url(#_1061647336377937clip-0)">0,0005</text></g><line x1="78" y1="595.44" x2="80" y2="595.44" style="stroke-width: 0.5;stroke: rgb(128,128,128);stroke-opacity: 1.0;stroke-linecap: square;shape-rendering:crispEdges;" transform="matrix(1,0,0,1,0,0)" clip-path="url(#_1061647336377937clip-0)"/><g transform="matrix(1,0,0,1,0,0)"><text x="38" y="560.98" style="fill: rgb(64,64,64); fill-opacity: 1.0; font-family: Tahoma; font-size: 12px;" clip-path="url(#_1061647336377937clip-0)">0,0010</text></g><line x1="78" y1="555.96" x2="80" y2="555.96" style="stroke-width: 0.5;stroke: rgb(128,128,128);stroke-opacity: 1.0;stroke-linecap: square;shape-rendering:crispEdges;" transform="matrix(1,0,0,1,0,0)" clip-path="url(#_1061647336377937clip-0)"/><g transform="matrix(1,0,0,1,0,0)"><text x="38" y="521.5" style="fill: rgb(64,64,64); fill-opacity: 1.0; font-family: Tahoma; font-size: 12px;" clip-path="url(#_1061647336377937clip-0)">0,0015</text></g><line x1="78" y1="516.48" x2="80" y2="516.48" style="stroke-width: 0.5;stroke: rgb(128,128,128);stroke-opacity: 1.0;stroke-linecap: square;shape-rendering:crispEdges;" transform="matrix(1,0,0,1,0,0)" clip-path="url(#_1061647336377937clip-0)"/><g transform="matrix(1,0,0,1,0,0)"><text x="38" y="482.02" style="fill: rgb(64,64,64); fill-opacity: 1.0; font-family: Tahoma; font-size: 12px;" clip-path="url(#_1061647336377937clip-0)">0,0020</text></g><line x1="78" y1="477" x2="80" y2="477" style="stroke-width: 0.5;stroke: rgb(128,128,128);stroke-opacity: 1.0;stroke-linecap: square;shape-rendering:crispEdges;" transform="matrix(1,0,0,1,0,0)" clip-path="url(#_1061647336377937clip-0)"/><g transform="matrix(1,0,0,1,0,0)"><text x="38" y="442.54" style="fill: rgb(64,64,64); fill-opacity: 1.0; font-family: Tahoma; font-size: 12px;" clip-path="url(#_1061647336377937clip-0)">0,0025</text></g><line x1="78" y1="437.52" x2="80" y2="437.52" style="stroke-width: 0.5;stroke: rgb(128,128,128);stroke-opacity: 1.0;stroke-linecap: square;shape-rendering:crispEdges;" transform="matrix(1,0,0,1,0,0)" clip-path="url(#_1061647336377937clip-0)"/><g transform="matrix(1,0,0,1,0,0)"><text x="38" y="403.06" style="fill: rgb(64,64,64); fill-opacity: 1.0; font-family: Tahoma; font-size: 12px;" clip-path="url(#_1061647336377937clip-0)">0,0030</text></g><line x1="78" y1="398.04" x2="80" y2="398.04" style="stroke-width: 0.5;stroke: rgb(128,128,128);stroke-opacity: 1.0;stroke-linecap: square;shape-rendering:crispEdges;" transform="matrix(1,0,0,1,0,0)" clip-path="url(#_1061647336377937clip-0)"/><g transform="matrix(1,0,0,1,0,0)"><text x="38" y="363.58" style="fill: rgb(64,64,64); fill-opacity: 1.0; font-family: Tahoma; font-size: 12px;" clip-path="url(#_1061647336377937clip-0)">0,0035</text></g><line x1="78" y1="358.56" x2="80" y2="358.56" style="stroke-width: 0.5;stroke: rgb(128,128,128);stroke-opacity: 1.0;stroke-linecap: square;shape-rendering:crispEdges;" transform="matrix(1,0,0,1,0,0)" clip-path="url(#_1061647336377937clip-0)"/><g transform="matrix(1,0,0,1,0,0)"><text x="38" y="324.1" style="fill: rgb(64,64,64); fill-opacity: 1.0; font-family: Tahoma; font-size: 12px;" clip-path="url(#_1061647336377937clip-0)">0,0040</text></g><line x1="78" y1="319.08" x2="80" y2="319.08" style="stroke-width: 0.5;stroke: rgb(128,128,128);stroke-opacity: 1.0;stroke-linecap: square;shape-rendering:crispEdges;" transform="matrix(1,0,0,1,0,0)" clip-path="url(#_1061647336377937clip-0)"/><g transform="matrix(1,0,0,1,0,0)"><text x="38" y="284.62" style="fill: rgb(64,64,64); fill-opacity: 1.0; font-family: Tahoma; font-size: 12px;" clip-path="url(#_1061647336377937clip-0)">0,0045</text></g><line x1="78" y1="279.6" x2="80" y2="279.6" style="stroke-width: 0.5;stroke: rgb(128,128,128);stroke-opacity: 1.0;stroke-linecap: square;shape-rendering:crispEdges;" transform="matrix(1,0,0,1,0,0)" clip-path="url(#_1061647336377937clip-0)"/><g transform="matrix(1,0,0,1,0,0)"><text x="38" y="245.14" style="fill: rgb(64,64,64); fill-opacity: 1.0; font-family: Tahoma; font-size: 12px;" clip-path="url(#_1061647336377937clip-0)">0,0050</text></g><line x1="78" y1="240.12" x2="80" y2="240.12" style="stroke-width: 0.5;stroke: rgb(128,128,128);stroke-opacity: 1.0;stroke-linecap: square;shape-rendering:crispEdges;" transform="matrix(1,0,0,1,0,0)" clip-path="url(#_1061647336377937clip-0)"/><g transform="matrix(1,0,0,1,0,0)"><text x="38" y="205.66" style="fill: rgb(64,64,64); fill-opacity: 1.0; font-family: Tahoma; font-size: 12px;" clip-path="url(#_1061647336377937clip-0)">0,0055</text></g><line x1="78" y1="200.63" x2="80" y2="200.63" style="stroke-width: 0.5;stroke: rgb(128,128,128);stroke-opacity: 1.0;stroke-linecap: square;shape-rendering:crispEdges;" transform="matrix(1,0,0,1,0,0)" clip-path="url(#_1061647336377937clip-0)"/><g transform="matrix(1,0,0,1,0,0)"><text x="38" y="166.18" style="fill: rgb(64,64,64); fill-opacity: 1.0; font-family: Tahoma; font-size: 12px;" clip-path="url(#_1061647336377937clip-0)">0,0060</text></g><line x1="78" y1="161.15" x2="80" y2="161.15" style="stroke-width: 0.5;stroke: rgb(128,128,128);stroke-opacity: 1.0;stroke-linecap: square;shape-rendering:crispEdges;" transform="matrix(1,0,0,1,0,0)" clip-path="url(#_1061647336377937clip-0)"/><g transform="matrix(1,0,0,1,0,0)"><text x="38" y="126.7" style="fill: rgb(64,64,64); fill-opacity: 1.0; font-family: Tahoma; font-size: 12px;" clip-path="url(#_1061647336377937clip-0)">0,0065</text></g><line x1="78" y1="121.67" x2="80" y2="121.67" style="stroke-width: 0.5;stroke: rgb(128,128,128);stroke-opacity: 1.0;stroke-linecap: square;shape-rendering:crispEdges;" transform="matrix(1,0,0,1,0,0)" clip-path="url(#_1061647336377937clip-0)"/><g transform="matrix(1,0,0,1,0,0)"><text x="38" y="87.22" style="fill: rgb(64,64,64); fill-opacity: 1.0; font-family: Tahoma; font-size: 12px;" clip-path="url(#_1061647336377937clip-0)">0,0070</text></g><line x1="78" y1="82.19" x2="80" y2="82.19" style="stroke-width: 0.5;stroke: rgb(128,128,128);stroke-opacity: 1.0;stroke-linecap: square;shape-rendering:crispEdges;" transform="matrix(1,0,0,1,0,0)" clip-path="url(#_1061647336377937clip-0)"/><g transform="matrix(1,0,0,1,0,0)"><text x="38" y="47.73" style="fill: rgb(64,64,64); fill-opacity: 1.0; font-family: Tahoma; font-size: 12px;" clip-path="url(#_1061647336377937clip-0)">0,0075</text></g><line x1="78" y1="42.71" x2="80" y2="42.71" style="stroke-width: 0.5;stroke: rgb(128,128,128);stroke-opacity: 1.0;stroke-linecap: square;shape-rendering:crispEdges;" transform="matrix(1,0,0,1,0,0)" clip-path="url(#_1061647336377937clip-0)"/><g style="fill: rgb(64,64,64); fill-opacity: 1.0; stroke: none" transform="matrix(0,-1,1,0,-345.5,384.5)" clip-path="url(#_1061647336377937clip-1)"><path d="M 11.94 370.81 Q 9.66 370.81 8.3 369.42 Q 6.95 368.03 6.95 365.53 Q 6.95 363.11 8.3 361.67 Q 9.66 360.23 11.95 360.23 Q 12.56 360.23 13.05 360.3 Q 13.53 360.37 13.97 360.48 Q 14.33 360.59 14.73 360.77 Q 15.14 360.95 15.39 361.08 L 15.39 363.5 L 15.14 363.5 Q 14.95 363.34 14.67 363.12 Q 14.39 362.89 14.03 362.67 Q 13.67 362.45 13.25 362.3 Q 12.83 362.14 12.36 362.14 Q 11.81 362.14 11.34 362.31 Q 10.88 362.48 10.47 362.92 Q 10.08 363.31 9.84 363.98 Q 9.59 364.64 9.59 365.53 Q 9.59 366.48 9.85 367.13 Q 10.11 367.78 10.52 368.17 Q 10.91 368.56 11.4 368.73 Q 11.89 368.91 12.38 368.91 Q 12.88 368.91 13.34 368.73 Q 13.8 368.56 14.11 368.36 Q 14.45 368.14 14.71 367.92 Q 14.97 367.7 15.16 367.55 L 15.39 367.55 L 15.39 369.94 Q 15.11 370.06 14.74 370.23 Q 14.38 370.39 13.98 370.51 Q 13.5 370.66 13.09 370.73 Q 12.67 370.81 11.94 370.81 Z  M 27.3 370.61 L 24.75 370.61 L 24.75 363.86 L 22.91 368.22 L 21.16 368.22 L 19.3 363.86 L 19.3 370.61 L 16.89 370.61 L 16.89 360.44 L 19.84 360.44 L 22.09 365.45 L 24.34 360.44 L 27.3 360.44 L 27.3 370.61 Z "/></g><line x1="95.89" y1="35" x2="95.89" y2="695" style="stroke-width: 0.5;stroke: rgb(192,192,192);stroke-opacity: 1.0;stroke-linejoin: bevel;stroke-dasharray: 2.0, 2.0;shape-rendering:crispEdges;" transform="matrix(1,0,0,1,0,0)" clip-path="url(#_1061647336377937clip-2)"/><line x1="135.13" y1="35" x2="135.13" y2="695" style="stroke-width: 0.5;stroke: rgb(192,192,192);stroke-opacity: 1.0;stroke-linejoin: bevel;stroke-dasharray: 2.0, 2.0;shape-rendering:crispEdges;" transform="matrix(1,0,0,1,0,0)" clip-path="url(#_1061647336377937clip-2)"/><line x1="174.37" y1="35" x2="174.37" y2="695" style="stroke-width: 0.5;stroke: rgb(192,192,192);stroke-opacity: 1.0;stroke-linejoin: bevel;stroke-dasharray: 2.0, 2.0;shape-rendering:crispEdges;" transform="matrix(1,0,0,1,0,0)" clip-path="url(#_1061647336377937clip-2)"/><line x1="213.6" y1="35" x2="213.6" y2="695" style="stroke-width: 0.5;stroke: rgb(192,192,192);stroke-opacity: 1.0;stroke-linejoin: bevel;stroke-dasharray: 2.0, 2.0;shape-rendering:crispEdges;" transform="matrix(1,0,0,1,0,0)" clip-path="url(#_1061647336377937clip-2)"/><line x1="252.84" y1="35" x2="252.84" y2="695" style="stroke-width: 0.5;stroke: rgb(192,192,192);stroke-opacity: 1.0;stroke-linejoin: bevel;stroke-dasharray: 2.0, 2.0;shape-rendering:crispEdges;" transform="matrix(1,0,0,1,0,0)" clip-path="url(#_1061647336377937clip-2)"/><line x1="292.08" y1="35" x2="292.08" y2="695" style="stroke-width: 0.5;stroke: rgb(192,192,192);stroke-opacity: 1.0;stroke-linejoin: bevel;stroke-dasharray: 2.0, 2.0;shape-rendering:crispEdges;" transform="matrix(1,0,0,1,0,0)" clip-path="url(#_1061647336377937clip-2)"/><line x1="331.32" y1="35" x2="331.32" y2="695" style="stroke-width: 0.5;stroke: rgb(192,192,192);stroke-opacity: 1.0;stroke-linejoin: bevel;stroke-dasharray: 2.0, 2.0;shape-rendering:crispEdges;" transform="matrix(1,0,0,1,0,0)" clip-path="url(#_1061647336377937clip-2)"/><line x1="370.55" y1="35" x2="370.55" y2="695" style="stroke-width: 0.5;stroke: rgb(192,192,192);stroke-opacity: 1.0;stroke-linejoin: bevel;stroke-dasharray: 2.0, 2.0;shape-rendering:crispEdges;" transform="matrix(1,0,0,1,0,0)" clip-path="url(#_1061647336377937clip-2)"/><line x1="409.79" y1="35" x2="409.79" y2="695" style="stroke-width: 0.5;stroke: rgb(192,192,192);stroke-opacity: 1.0;stroke-linejoin: bevel;stroke-dasharray: 2.0, 2.0;shape-rendering:crispEdges;" transform="matrix(1,0,0,1,0,0)" clip-path="url(#_1061647336377937clip-2)"/><line x1="449.03" y1="35" x2="449.03" y2="695" style="stroke-width: 0.5;stroke: rgb(192,192,192);stroke-opacity: 1.0;stroke-linejoin: bevel;stroke-dasharray: 2.0, 2.0;shape-rendering:crispEdges;" transform="matrix(1,0,0,1,0,0)" clip-path="url(#_1061647336377937clip-2)"/><line x1="488.27" y1="35" x2="488.27" y2="695" style="stroke-width: 0.5;stroke: rgb(192,192,192);stroke-opacity: 1.0;stroke-linejoin: bevel;stroke-dasharray: 2.0, 2.0;shape-rendering:crispEdges;" transform="matrix(1,0,0,1,0,0)" clip-path="url(#_1061647336377937clip-2)"/><line x1="527.5" y1="35" x2="527.5" y2="695" style="stroke-width: 0.5;stroke: rgb(192,192,192);stroke-opacity: 1.0;stroke-linejoin: bevel;stroke-dasharray: 2.0, 2.0;shape-rendering:crispEdges;" transform="matrix(1,0,0,1,0,0)" clip-path="url(#_1061647336377937clip-2)"/><line x1="566.74" y1="35" x2="566.74" y2="695" style="stroke-width: 0.5;stroke: rgb(192,192,192);stroke-opacity: 1.0;stroke-linejoin: bevel;stroke-dasharray: 2.0, 2.0;shape-rendering:crispEdges;" transform="matrix(1,0,0,1,0,0)" clip-path="url(#_1061647336377937clip-2)"/><line x1="605.98" y1="35" x2="605.98" y2="695" style="stroke-width: 0.5;stroke: rgb(192,192,192);stroke-opacity: 1.0;stroke-linejoin: bevel;stroke-dasharray: 2.0, 2.0;shape-rendering:crispEdges;" transform="matrix(1,0,0,1,0,0)" clip-path="url(#_1061647336377937clip-2)"/><line x1="645.21" y1="35" x2="645.21" y2="695" style="stroke-width: 0.5;stroke: rgb(192,192,192);stroke-opacity: 1.0;stroke-linejoin: bevel;stroke-dasharray: 2.0, 2.0;shape-rendering:crispEdges;" transform="matrix(1,0,0,1,0,0)" clip-path="url(#_1061647336377937clip-2)"/><line x1="684.45" y1="35" x2="684.45" y2="695" style="stroke-width: 0.5;stroke: rgb(192,192,192);stroke-opacity: 1.0;stroke-linejoin: bevel;stroke-dasharray: 2.0, 2.0;shape-rendering:crispEdges;" transform="matrix(1,0,0,1,0,0)" clip-path="url(#_1061647336377937clip-2)"/><line x1="723.69" y1="35" x2="723.69" y2="695" style="stroke-width: 0.5;stroke: rgb(192,192,192);stroke-opacity: 1.0;stroke-linejoin: bevel;stroke-dasharray: 2.0, 2.0;shape-rendering:crispEdges;" transform="matrix(1,0,0,1,0,0)" clip-path="url(#_1061647336377937clip-2)"/><line x1="762.93" y1="35" x2="762.93" y2="695" style="stroke-width: 0.5;stroke: rgb(192,192,192);stroke-opacity: 1.0;stroke-linejoin: bevel;stroke-dasharray: 2.0, 2.0;shape-rendering:crispEdges;" transform="matrix(1,0,0,1,0,0)" clip-path="url(#_1061647336377937clip-2)"/><line x1="802.16" y1="35" x2="802.16" y2="695" style="stroke-width: 0.5;stroke: rgb(192,192,192);stroke-opacity: 1.0;stroke-linejoin: bevel;stroke-dasharray: 2.0, 2.0;shape-rendering:crispEdges;" transform="matrix(1,0,0,1,0,0)" clip-path="url(#_1061647336377937clip-2)"/><line x1="841.4" y1="35" x2="841.4" y2="695" style="stroke-width: 0.5;stroke: rgb(192,192,192);stroke-opacity: 1.0;stroke-linejoin: bevel;stroke-dasharray: 2.0, 2.0;shape-rendering:crispEdges;" transform="matrix(1,0,0,1,0,0)" clip-path="url(#_1061647336377937clip-2)"/><line x1="880.64" y1="35" x2="880.64" y2="695" style="stroke-width: 0.5;stroke: rgb(192,192,192);stroke-opacity: 1.0;stroke-linejoin: bevel;stroke-dasharray: 2.0, 2.0;shape-rendering:crispEdges;" transform="matrix(1,0,0,1,0,0)" clip-path="url(#_1061647336377937clip-2)"/><line x1="919.88" y1="35" x2="919.88" y2="695" style="stroke-width: 0.5;stroke: rgb(192,192,192);stroke-opacity: 1.0;stroke-linejoin: bevel;stroke-dasharray: 2.0, 2.0;shape-rendering:crispEdges;" transform="matrix(1,0,0,1,0,0)" clip-path="url(#_1061647336377937clip-2)"/><line x1="959.11" y1="35" x2="959.11" y2="695" style="stroke-width: 0.5;stroke: rgb(192,192,192);stroke-opacity: 1.0;stroke-linejoin: bevel;stroke-dasharray: 2.0, 2.0;shape-rendering:crispEdges;" transform="matrix(1,0,0,1,0,0)" clip-path="url(#_1061647336377937clip-2)"/><line x1="998.35" y1="35" x2="998.35" y2="695" style="stroke-width: 0.5;stroke: rgb(192,192,192);stroke-opacity: 1.0;stroke-linejoin: bevel;stroke-dasharray: 2.0, 2.0;shape-rendering:crispEdges;" transform="matrix(1,0,0,1,0,0)" clip-path="url(#_1061647336377937clip-2)"/><line x1="1037.59" y1="35" x2="1037.59" y2="695" style="stroke-width: 0.5;stroke: rgb(192,192,192);stroke-opacity: 1.0;stroke-linejoin: bevel;stroke-dasharray: 2.0, 2.0;shape-rendering:crispEdges;" transform="matrix(1,0,0,1,0,0)" clip-path="url(#_1061647336377937clip-2)"/><line x1="1076.83" y1="35" x2="1076.83" y2="695" style="stroke-width: 0.5;stroke: rgb(192,192,192);stroke-opacity: 1.0;stroke-linejoin: bevel;stroke-dasharray: 2.0, 2.0;shape-rendering:crispEdges;" transform="matrix(1,0,0,1,0,0)" clip-path="url(#_1061647336377937clip-2)"/><line x1="1116.06" y1="35" x2="1116.06" y2="695" style="stroke-width: 0.5;stroke: rgb(192,192,192);stroke-opacity: 1.0;stroke-linejoin: bevel;stroke-dasharray: 2.0, 2.0;shape-rendering:crispEdges;" transform="matrix(1,0,0,1,0,0)" clip-path="url(#_1061647336377937clip-2)"/><line x1="84" y1="674.4" x2="1140" y2="674.4" style="stroke-width: 0.5;stroke: rgb(192,192,192);stroke-opacity: 1.0;stroke-linejoin: bevel;stroke-dasharray: 2.0, 2.0;shape-rendering:crispEdges;" transform="matrix(1,0,0,1,0,0)" clip-path="url(#_1061647336377937clip-2)"/><line x1="84" y1="634.92" x2="1140" y2="634.92" style="stroke-width: 0.5;stroke: rgb(192,192,192);stroke-opacity: 1.0;stroke-linejoin: bevel;stroke-dasharray: 2.0, 2.0;shape-rendering:crispEdges;" transform="matrix(1,0,0,1,0,0)" clip-path="url(#_1061647336377937clip-2)"/><line x1="84" y1="595.44" x2="1140" y2="595.44" style="stroke-width: 0.5;stroke: rgb(192,192,192);stroke-opacity: 1.0;stroke-linejoin: bevel;stroke-dasharray: 2.0, 2.0;shape-rendering:crispEdges;" transform="matrix(1,0,0,1,0,0)" clip-path="url(#_1061647336377937clip-2)"/><line x1="84" y1="555.96" x2="1140" y2="555.96" style="stroke-width: 0.5;stroke: rgb(192,192,192);stroke-opacity: 1.0;stroke-linejoin: bevel;stroke-dasharray: 2.0, 2.0;shape-rendering:crispEdges;" transform="matrix(1,0,0,1,0,0)" clip-path="url(#_1061647336377937clip-2)"/><line x1="84" y1="516.48" x2="1140" y2="516.48" style="stroke-width: 0.5;stroke: rgb(192,192,192);stroke-opacity: 1.0;stroke-linejoin: bevel;stroke-dasharray: 2.0, 2.0;shape-rendering:crispEdges;" transform="matrix(1,0,0,1,0,0)" clip-path="url(#_1061647336377937clip-2)"/><line x1="84" y1="477" x2="1140" y2="477" style="stroke-width: 0.5;stroke: rgb(192,192,192);stroke-opacity: 1.0;stroke-linejoin: bevel;stroke-dasharray: 2.0, 2.0;shape-rendering:crispEdges;" transform="matrix(1,0,0,1,0,0)" clip-path="url(#_1061647336377937clip-2)"/><line x1="84" y1="437.52" x2="1140" y2="437.52" style="stroke-width: 0.5;stroke: rgb(192,192,192);stroke-opacity: 1.0;stroke-linejoin: bevel;stroke-dasharray: 2.0, 2.0;shape-rendering:crispEdges;" transform="matrix(1,0,0,1,0,0)" clip-path="url(#_1061647336377937clip-2)"/><line x1="84" y1="398.04" x2="1140" y2="398.04" style="stroke-width: 0.5;stroke: rgb(192,192,192);stroke-opacity: 1.0;stroke-linejoin: bevel;stroke-dasharray: 2.0, 2.0;shape-rendering:crispEdges;" transform="matrix(1,0,0,1,0,0)" clip-path="url(#_1061647336377937clip-2)"/><line x1="84" y1="358.56" x2="1140" y2="358.56" style="stroke-width: 0.5;stroke: rgb(192,192,192);stroke-opacity: 1.0;stroke-linejoin: bevel;stroke-dasharray: 2.0, 2.0;shape-rendering:crispEdges;" transform="matrix(1,0,0,1,0,0)" clip-path="url(#_1061647336377937clip-2)"/><line x1="84" y1="319.08" x2="1140" y2="319.08" style="stroke-width: 0.5;stroke: rgb(192,192,192);stroke-opacity: 1.0;stroke-linejoin: bevel;stroke-dasharray: 2.0, 2.0;shape-rendering:crispEdges;" transform="matrix(1,0,0,1,0,0)" clip-path="url(#_1061647336377937clip-2)"/><line x1="84" y1="279.6" x2="1140" y2="279.6" style="stroke-width: 0.5;stroke: rgb(192,192,192);stroke-opacity: 1.0;stroke-linejoin: bevel;stroke-dasharray: 2.0, 2.0;shape-rendering:crispEdges;" transform="matrix(1,0,0,1,0,0)" clip-path="url(#_1061647336377937clip-2)"/><line x1="84" y1="240.12" x2="1140" y2="240.12" style="stroke-width: 0.5;stroke: rgb(192,192,192);stroke-opacity: 1.0;stroke-linejoin: bevel;stroke-dasharray: 2.0, 2.0;shape-rendering:crispEdges;" transform="matrix(1,0,0,1,0,0)" clip-path="url(#_1061647336377937clip-2)"/><line x1="84" y1="200.63" x2="1140" y2="200.63" style="stroke-width: 0.5;stroke: rgb(192,192,192);stroke-opacity: 1.0;stroke-linejoin: bevel;stroke-dasharray: 2.0, 2.0;shape-rendering:crispEdges;" transform="matrix(1,0,0,1,0,0)" clip-path="url(#_1061647336377937clip-2)"/><line x1="84" y1="161.15" x2="1140" y2="161.15" style="stroke-width: 0.5;stroke: rgb(192,192,192);stroke-opacity: 1.0;stroke-linejoin: bevel;stroke-dasharray: 2.0, 2.0;shape-rendering:crispEdges;" transform="matrix(1,0,0,1,0,0)" clip-path="url(#_1061647336377937clip-2)"/><line x1="84" y1="121.67" x2="1140" y2="121.67" style="stroke-width: 0.5;stroke: rgb(192,192,192);stroke-opacity: 1.0;stroke-linejoin: bevel;stroke-dasharray: 2.0, 2.0;shape-rendering:crispEdges;" transform="matrix(1,0,0,1,0,0)" clip-path="url(#_1061647336377937clip-2)"/><line x1="84" y1="82.19" x2="1140" y2="82.19" style="stroke-width: 0.5;stroke: rgb(192,192,192);stroke-opacity: 1.0;stroke-linejoin: bevel;stroke-dasharray: 2.0, 2.0;shape-rendering:crispEdges;" transform="matrix(1,0,0,1,0,0)" clip-path="url(#_1061647336377937clip-2)"/><line x1="84" y1="42.71" x2="1140" y2="42.71" style="stroke-width: 0.5;stroke: rgb(192,192,192);stroke-opacity: 1.0;stroke-linejoin: bevel;stroke-dasharray: 2.0, 2.0;shape-rendering:crispEdges;" transform="matrix(1,0,0,1,0,0)" clip-path="url(#_1061647336377937clip-2)"/><line x1="143.25" y1="640.46" x2="167.09" y2="640.08" style="stroke-width: 3.0;stroke: rgb(0,0,0);stroke-opacity: 1.0;stroke-linecap: square;shape-rendering:geometricPrecision;" transform="matrix(1,0,0,1,0,0)" clip-path="url(#_1061647336377937clip-2)"/><line x1="167.09" y1="640.08" x2="190.94" y2="639.7" style="stroke-width: 3.0;stroke: rgb(0,0,0);stroke-opacity: 1.0;stroke-linecap: square;shape-rendering:geometricPrecision;" transform="matrix(1,0,0,1,0,0)" clip-path="url(#_1061647336377937clip-2)"/><line x1="190.94" y1="639.7" x2="214.78" y2="639.31" style="stroke-width: 3.0;stroke: rgb(0,0,0);stroke-opacity: 1.0;stroke-linecap: square;shape-rendering:geometricPrecision;" transform="matrix(1,0,0,1,0,0)" clip-path="url(#_1061647336377937clip-2)"/><line x1="214.78" y1="639.31" x2="238.48" y2="638.93" style="stroke-width: 3.0;stroke: rgb(0,0,0);stroke-opacity: 1.0;stroke-linecap: square;shape-rendering:geometricPrecision;" transform="matrix(1,0,0,1,0,0)" clip-path="url(#_1061647336377937clip-2)"/><line x1="238.48" y1="638.93" x2="262.47" y2="638.55" style="stroke-width: 3.0;stroke: rgb(0,0,0);stroke-opacity: 1.0;stroke-linecap: square;shape-rendering:geometricPrecision;" transform="matrix(1,0,0,1,0,0)" clip-path="url(#_1061647336377937clip-2)"/><line x1="262.47" y1="638.55" x2="286.32" y2="638.16" style="stroke-width: 3.0;stroke: rgb(0,0,0);stroke-opacity: 1.0;stroke-linecap: square;shape-rendering:geometricPrecision;" transform="matrix(1,0,0,1,0,0)" clip-path="url(#_1061647336377937clip-2)"/><line x1="286.32" y1="638.16" x2="310.01" y2="637.78" style="stroke-width: 3.0;stroke: rgb(0,0,0);stroke-opacity: 1.0;stroke-linecap: square;shape-rendering:geometricPrecision;" transform="matrix(1,0,0,1,0,0)" clip-path="url(#_1061647336377937clip-2)"/><line x1="310.01" y1="637.78" x2="333.56" y2="637.4" style="stroke-width: 3.0;stroke: rgb(0,0,0);stroke-opacity: 1.0;stroke-linecap: square;shape-rendering:geometricPrecision;" transform="matrix(1,0,0,1,0,0)" clip-path="url(#_1061647336377937clip-2)"/><line x1="333.56" y1="637.4" x2="356.98" y2="637.03" style="stroke-width: 3.0;stroke: rgb(0,0,0);stroke-opacity: 1.0;stroke-linecap: square;shape-rendering:geometricPrecision;" transform="matrix(1,0,0,1,0,0)" clip-path="url(#_1061647336377937clip-2)"/><line x1="356.98" y1="637.03" x2="380.26" y2="636.65" style="stroke-width: 3.0;stroke: rgb(0,0,0);stroke-opacity: 1.0;stroke-linecap: square;shape-rendering:geometricPrecision;" transform="matrix(1,0,0,1,0,0)" clip-path="url(#_1061647336377937clip-2)"/><line x1="380.26" y1="636.65" x2="403.42" y2="636.28" style="stroke-width: 3.0;stroke: rgb(0,0,0);stroke-opacity: 1.0;stroke-linecap: square;shape-rendering:geometricPrecision;" transform="matrix(1,0,0,1,0,0)" clip-path="url(#_1061647336377937clip-2)"/><line x1="403.42" y1="636.28" x2="426.65" y2="635.91" style="stroke-width: 3.0;stroke: rgb(0,0,0);stroke-opacity: 1.0;stroke-linecap: square;shape-rendering:geometricPrecision;" transform="matrix(1,0,0,1,0,0)" clip-path="url(#_1061647336377937clip-2)"/><line x1="426.65" y1="635.91" x2="450.75" y2="635.52" style="stroke-width: 3.0;stroke: rgb(0,0,0);stroke-opacity: 1.0;stroke-linecap: square;shape-rendering:geometricPrecision;" transform="matrix(1,0,0,1,0,0)" clip-path="url(#_1061647336377937clip-2)"/><line x1="450.75" y1="635.52" x2="475.04" y2="635.13" style="stroke-width: 3.0;stroke: rgb(0,0,0);stroke-opacity: 1.0;stroke-linecap: square;shape-rendering:geometricPrecision;" transform="matrix(1,0,0,1,0,0)" clip-path="url(#_1061647336377937clip-2)"/><line x1="475.04" y1="635.13" x2="499.51" y2="624.57" style="stroke-width: 3.0;stroke: rgb(0,0,0);stroke-opacity: 1.0;stroke-linecap: square;shape-rendering:geometricPrecision;" transform="matrix(1,0,0,1,0,0)" clip-path="url(#_1061647336377937clip-2)"/><line x1="499.51" y1="624.57" x2="524.14" y2="601.89" style="stroke-width: 3.0;stroke: rgb(0,0,0);stroke-opacity: 1.0;stroke-linecap: square;shape-rendering:geometricPrecision;" transform="matrix(1,0,0,1,0,0)" clip-path="url(#_1061647336377937clip-2)"/><line x1="524.14" y1="601.89" x2="548.95" y2="579.06" style="stroke-width: 3.0;stroke: rgb(0,0,0);stroke-opacity: 1.0;stroke-linecap: square;shape-rendering:geometricPrecision;" transform="matrix(1,0,0,1,0,0)" clip-path="url(#_1061647336377937clip-2)"/><line x1="548.95" y1="579.06" x2="573.94" y2="556.06" style="stroke-width: 3.0;stroke: rgb(0,0,0);stroke-opacity: 1.0;stroke-linecap: square;shape-rendering:geometricPrecision;" transform="matrix(1,0,0,1,0,0)" clip-path="url(#_1061647336377937clip-2)"/><line x1="573.94" y1="556.06" x2="599.13" y2="532.87" style="stroke-width: 3.0;stroke: rgb(0,0,0);stroke-opacity: 1.0;stroke-linecap: square;shape-rendering:geometricPrecision;" transform="matrix(1,0,0,1,0,0)" clip-path="url(#_1061647336377937clip-2)"/><line x1="599.13" y1="532.87" x2="624.68" y2="509.35" style="stroke-width: 3.0;stroke: rgb(0,0,0);stroke-opacity: 1.0;stroke-linecap: square;shape-rendering:geometricPrecision;" transform="matrix(1,0,0,1,0,0)" clip-path="url(#_1061647336377937clip-2)"/><line x1="624.68" y1="509.35" x2="651.19" y2="484.94" style="stroke-width: 3.0;stroke: rgb(0,0,0);stroke-opacity: 1.0;stroke-linecap: square;shape-rendering:geometricPrecision;" transform="matrix(1,0,0,1,0,0)" clip-path="url(#_1061647336377937clip-2)"/><line x1="651.19" y1="484.94" x2="679.31" y2="459.07" style="stroke-width: 3.0;stroke: rgb(0,0,0);stroke-opacity: 1.0;stroke-linecap: square;shape-rendering:geometricPrecision;" transform="matrix(1,0,0,1,0,0)" clip-path="url(#_1061647336377937clip-2)"/><line x1="679.31" y1="459.07" x2="709.52" y2="431.25" style="stroke-width: 3.0;stroke: rgb(0,0,0);stroke-opacity: 1.0;stroke-linecap: square;shape-rendering:geometricPrecision;" transform="matrix(1,0,0,1,0,0)" clip-path="url(#_1061647336377937clip-2)"/><line x1="709.52" y1="431.25" x2="741.91" y2="401.44" style="stroke-width: 3.0;stroke: rgb(0,0,0);stroke-opacity: 1.0;stroke-linecap: square;shape-rendering:geometricPrecision;" transform="matrix(1,0,0,1,0,0)" clip-path="url(#_1061647336377937clip-2)"/><line x1="741.91" y1="401.44" x2="776.39" y2="369.7" style="stroke-width: 3.0;stroke: rgb(0,0,0);stroke-opacity: 1.0;stroke-linecap: square;shape-rendering:geometricPrecision;" transform="matrix(1,0,0,1,0,0)" clip-path="url(#_1061647336377937clip-2)"/><line x1="776.39" y1="369.7" x2="812.71" y2="336.27" style="stroke-width: 3.0;stroke: rgb(0,0,0);stroke-opacity: 1.0;stroke-linecap: square;shape-rendering:geometricPrecision;" transform="matrix(1,0,0,1,0,0)" clip-path="url(#_1061647336377937clip-2)"/><line x1="812.71" y1="336.27" x2="850.51" y2="301.47" style="stroke-width: 3.0;stroke: rgb(0,0,0);stroke-opacity: 1.0;stroke-linecap: square;shape-rendering:geometricPrecision;" transform="matrix(1,0,0,1,0,0)" clip-path="url(#_1061647336377937clip-2)"/><line x1="850.51" y1="301.47" x2="888.94" y2="266.1" style="stroke-width: 3.0;stroke: rgb(0,0,0);stroke-opacity: 1.0;stroke-linecap: square;shape-rendering:geometricPrecision;" transform="matrix(1,0,0,1,0,0)" clip-path="url(#_1061647336377937clip-2)"/><line x1="888.94" y1="266.1" x2="927.14" y2="230.94" style="stroke-width: 3.0;stroke: rgb(0,0,0);stroke-opacity: 1.0;stroke-linecap: square;shape-rendering:geometricPrecision;" transform="matrix(1,0,0,1,0,0)" clip-path="url(#_1061647336377937clip-2)"/><line x1="927.14" y1="230.94" x2="965.36" y2="195.76" style="stroke-width: 3.0;stroke: rgb(0,0,0);stroke-opacity: 1.0;stroke-linecap: square;shape-rendering:geometricPrecision;" transform="matrix(1,0,0,1,0,0)" clip-path="url(#_1061647336377937clip-2)"/><line x1="965.36" y1="195.76" x2="1003.81" y2="160.36" style="stroke-width: 3.0;stroke: rgb(0,0,0);stroke-opacity: 1.0;stroke-linecap: square;shape-rendering:geometricPrecision;" transform="matrix(1,0,0,1,0,0)" clip-path="url(#_1061647336377937clip-2)"/><line x1="1003.81" y1="160.36" x2="1042.28" y2="124.95" style="stroke-width: 3.0;stroke: rgb(0,0,0);stroke-opacity: 1.0;stroke-linecap: square;shape-rendering:geometricPrecision;" transform="matrix(1,0,0,1,0,0)" clip-path="url(#_1061647336377937clip-2)"/><line x1="1042.28" y1="124.95" x2="1080.75" y2="89.54" style="stroke-width: 3.0;stroke: rgb(0,0,0);stroke-opacity: 1.0;stroke-linecap: square;shape-rendering:geometricPrecision;" transform="matrix(1,0,0,1,0,0)" clip-path="url(#_1061647336377937clip-2)"/><rect x="84" y="35" width="1056" height="660" style="stroke-width: 0.5;stroke: rgb(0,0,0);stroke-opacity: 1.0;stroke-linecap: round;stroke-linejoin: round;shape-rendering:crispEdges;; fill: none" transform="matrix(1,0,0,1,0,0)" clip-path="url(#_1061647336377937clip-0)"/></svg>
