<!DOCTYPE svg PUBLIC "-//W3C//DTD SVG 1.1//EN" "http://www.w3.org/Graphics/SVG/1.1/DTD/svg11.dtd">
<svg xmlns="http://www.w3.org/2000/svg" xmlns:xlink="http://www.w3.org/1999/xlink" xmlns:jfreesvg="http://www.jfree.org/jfreesvg/svg" width="1152" height="768" text-rendering="auto" shape-rendering="auto">
<defs><clipPath id="_110908052573200clip-0"><path d="M 0 0 L 1152 0 L 1152 768 L 0 768 L 0 0 Z "/></clipPath>
<clipPath id="_110908052573200clip-1"><path d="M 370.5 309.5 L 370.5 1461.5 L -397.5 1461.5 L -397.5 309.5 L 370.5 309.5 Z "/></clipPath>
<clipPath id="_110908052573200clip-2"><path d="M 107 35 L 107 645 L 1140 645 L 1140 35 Z "/></clipPath>
</defs>
<rect x="0" y="0" width="1152" height="768" style="fill: rgb(255,255,255); fill-opacity: 1.0" transform="matrix(1,0,0,1,0,0)" clip-path="url(#_110908052573200clip-0)"/><g transform="matrix(1,0,0,1,0,0)"><text x="440" y="21.01" style="fill: rgb(0,0,0); fill-opacity: 1.0; font-family: Tahoma; font-size: 20px; font-weight: bold;" clip-path="url(#_110908052573200clip-0)">Fuel_used_AEO_IMPERIAL</text></g><rect x="433" y="735" width="286" height="32" style="fill: rgb(255,255,255); fill-opacity: 1.0" transform="matrix(1,0,0,1,0,0)" clip-path="url(#_110908052573200clip-0)"/><g style="stroke-width: 3.0;stroke: rgb(0,0,0);stroke-opacity: 1.0;stroke-linecap: square;shape-rendering:geometricPrecision;; fill: none" transform="matrix(1,0,0,1,0,0)" clip-path="url(#_110908052573200clip-0)"><path d="M 436 751 L 450 751"/></g><g transform="matrix(1,0,0,1,0,0)"><text x="454" y="758.11" style="fill: rgb(64,64,64); fill-opacity: 1.0; font-family: sans-serif; font-size: 20px;" clip-path="url(#_110908052573200clip-0)"> Fuel_used_AEO_IMPERIAL </text></g><rect x="107" y="35" width="1033" height="610" style="fill: rgb(255,255,255); fill-opacity: 0.0" transform="matrix(1,0,0,1,0,0)" clip-path="url(#_110908052573200clip-0)"/><line x1="107" y1="649" x2="1140" y2="649" style="stroke-width: 0.5;stroke: rgb(128,128,128);stroke-opacity: 1.0;stroke-linecap: square;shape-rendering:crispEdges;" transform="matrix(1,0,0,1,0,0)" clip-path="url(#_110908052573200clip-0)"/><g transform="matrix(1,0,0,1,0,0)"><text x="186.08" y="679.69" style="fill: rgb(64,64,64); fill-opacity: 1.0; font-family: sans-serif; font-size: 25px;" clip-path="url(#_110908052573200clip-0)">0</text></g><line x1="193.08" y1="651" x2="193.08" y2="649" style="stroke-width: 0.5;stroke: rgb(128,128,128);stroke-opacity: 1.0;stroke-linecap: square;shape-rendering:crispEdges;" transform="matrix(1,0,0,1,0,0)" clip-path="url(#_110908052573200clip-0)"/><g transform="matrix(1,0,0,1,0,0)"><text x="262.86" y="679.69" style="fill: rgb(64,64,64); fill-opacity: 1.0; font-family: sans-serif; font-size: 25px;" clip-path="url(#_110908052573200clip-0)">2.000</text></g><line x1="294.36" y1="651" x2="294.36" y2="649" style="stroke-width: 0.5;stroke: rgb(128,128,128);stroke-opacity: 1.0;stroke-linecap: square;shape-rendering:crispEdges;" transform="matrix(1,0,0,1,0,0)" clip-path="url(#_110908052573200clip-0)"/><g transform="matrix(1,0,0,1,0,0)"><text x="364.13" y="679.69" style="fill: rgb(64,64,64); fill-opacity: 1.0; font-family: sans-serif; font-size: 25px;" clip-path="url(#_110908052573200clip-0)">4.000</text></g><line x1="395.63" y1="651" x2="395.63" y2="649" style="stroke-width: 0.5;stroke: rgb(128,128,128);stroke-opacity: 1.0;stroke-linecap: square;shape-rendering:crispEdges;" transform="matrix(1,0,0,1,0,0)" clip-path="url(#_110908052573200clip-0)"/><g transform="matrix(1,0,0,1,0,0)"><text x="465.41" y="679.69" style="fill: rgb(64,64,64); fill-opacity: 1.0; font-family: sans-serif; font-size: 25px;" clip-path="url(#_110908052573200clip-0)">6.000</text></g><line x1="496.91" y1="651" x2="496.91" y2="649" style="stroke-width: 0.5;stroke: rgb(128,128,128);stroke-opacity: 1.0;stroke-linecap: square;shape-rendering:crispEdges;" transform="matrix(1,0,0,1,0,0)" clip-path="url(#_110908052573200clip-0)"/><g transform="matrix(1,0,0,1,0,0)"><text x="566.68" y="679.69" style="fill: rgb(64,64,64); fill-opacity: 1.0; font-family: sans-serif; font-size: 25px;" clip-path="url(#_110908052573200clip-0)">8.000</text></g><line x1="598.18" y1="651" x2="598.18" y2="649" style="stroke-width: 0.5;stroke: rgb(128,128,128);stroke-opacity: 1.0;stroke-linecap: square;shape-rendering:crispEdges;" transform="matrix(1,0,0,1,0,0)" clip-path="url(#_110908052573200clip-0)"/><g transform="matrix(1,0,0,1,0,0)"><text x="661.46" y="679.69" style="fill: rgb(64,64,64); fill-opacity: 1.0; font-family: sans-serif; font-size: 25px;" clip-path="url(#_110908052573200clip-0)">10.000</text></g><line x1="699.46" y1="651" x2="699.46" y2="649" style="stroke-width: 0.5;stroke: rgb(128,128,128);stroke-opacity: 1.0;stroke-linecap: square;shape-rendering:crispEdges;" transform="matrix(1,0,0,1,0,0)" clip-path="url(#_110908052573200clip-0)"/><g transform="matrix(1,0,0,1,0,0)"><text x="762.73" y="679.69" style="fill: rgb(64,64,64); fill-opacity: 1.0; font-family: sans-serif; font-size: 25px;" clip-path="url(#_110908052573200clip-0)">12.000</text></g><line x1="800.73" y1="651" x2="800.73" y2="649" style="stroke-width: 0.5;stroke: rgb(128,128,128);stroke-opacity: 1.0;stroke-linecap: square;shape-rendering:crispEdges;" transform="matrix(1,0,0,1,0,0)" clip-path="url(#_110908052573200clip-0)"/><g transform="matrix(1,0,0,1,0,0)"><text x="864" y="679.69" style="fill: rgb(64,64,64); fill-opacity: 1.0; font-family: sans-serif; font-size: 25px;" clip-path="url(#_110908052573200clip-0)">14.000</text></g><line x1="902" y1="651" x2="902" y2="649" style="stroke-width: 0.5;stroke: rgb(128,128,128);stroke-opacity: 1.0;stroke-linecap: square;shape-rendering:crispEdges;" transform="matrix(1,0,0,1,0,0)" clip-path="url(#_110908052573200clip-0)"/><g transform="matrix(1,0,0,1,0,0)"><text x="965.28" y="679.69" style="fill: rgb(64,64,64); fill-opacity: 1.0; font-family: sans-serif; font-size: 25px;" clip-path="url(#_110908052573200clip-0)">16.000</text></g><line x1="1003.28" y1="651" x2="1003.28" y2="649" style="stroke-width: 0.5;stroke: rgb(128,128,128);stroke-opacity: 1.0;stroke-linecap: square;shape-rendering:crispEdges;" transform="matrix(1,0,0,1,0,0)" clip-path="url(#_110908052573200clip-0)"/><g transform="matrix(1,0,0,1,0,0)"><text x="1066.55" y="679.69" style="fill: rgb(64,64,64); fill-opacity: 1.0; font-family: sans-serif; font-size: 25px;" clip-path="url(#_110908052573200clip-0)">18.000</text></g><line x1="1104.55" y1="651" x2="1104.55" y2="649" style="stroke-width: 0.5;stroke: rgb(128,128,128);stroke-opacity: 1.0;stroke-linecap: square;shape-rendering:crispEdges;" transform="matrix(1,0,0,1,0,0)" clip-path="url(#_110908052573200clip-0)"/><g transform="matrix(1,0,0,1,0,0)"><text x="551" y="718.87" style="fill: rgb(64,64,64); fill-opacity: 1.0; font-family: sans-serif; font-size: 30px;" clip-path="url(#_110908052573200clip-0)">Altitude (ft)</text></g><line x1="103" y1="35" x2="103" y2="645" style="stroke-width: 0.5;stroke: rgb(128,128,128);stroke-opacity: 1.0;stroke-linecap: square;shape-rendering:crispEdges;" transform="matrix(1,0,0,1,0,0)" clip-path="url(#_110908052573200clip-0)"/><g transform="matrix(1,0,0,1,0,0)"><text x="61" y="647.62" style="fill: rgb(64,64,64); fill-opacity: 1.0; font-family: sans-serif; font-size: 25px;" clip-path="url(#_110908052573200clip-0)">-20</text></g><line x1="101" y1="637.43" x2="103" y2="637.43" style="stroke-width: 0.5;stroke: rgb(128,128,128);stroke-opacity: 1.0;stroke-linecap: square;shape-rendering:crispEdges;" transform="matrix(1,0,0,1,0,0)" clip-path="url(#_110908052573200clip-0)"/><g transform="matrix(1,0,0,1,0,0)"><text x="83" y="604.36" style="fill: rgb(64,64,64); fill-opacity: 1.0; font-family: sans-serif; font-size: 25px;" clip-path="url(#_110908052573200clip-0)">0</text></g><line x1="101" y1="594.17" x2="103" y2="594.17" style="stroke-width: 0.5;stroke: rgb(128,128,128);stroke-opacity: 1.0;stroke-linecap: square;shape-rendering:crispEdges;" transform="matrix(1,0,0,1,0,0)" clip-path="url(#_110908052573200clip-0)"/><g transform="matrix(1,0,0,1,0,0)"><text x="69" y="561.09" style="fill: rgb(64,64,64); fill-opacity: 1.0; font-family: sans-serif; font-size: 25px;" clip-path="url(#_110908052573200clip-0)">20</text></g><line x1="101" y1="550.9" x2="103" y2="550.9" style="stroke-width: 0.5;stroke: rgb(128,128,128);stroke-opacity: 1.0;stroke-linecap: square;shape-rendering:crispEdges;" transform="matrix(1,0,0,1,0,0)" clip-path="url(#_110908052573200clip-0)"/><g transform="matrix(1,0,0,1,0,0)"><text x="69" y="517.82" style="fill: rgb(64,64,64); fill-opacity: 1.0; font-family: sans-serif; font-size: 25px;" clip-path="url(#_110908052573200clip-0)">40</text></g><line x1="101" y1="507.64" x2="103" y2="507.64" style="stroke-width: 0.5;stroke: rgb(128,128,128);stroke-opacity: 1.0;stroke-linecap: square;shape-rendering:crispEdges;" transform="matrix(1,0,0,1,0,0)" clip-path="url(#_110908052573200clip-0)"/><g transform="matrix(1,0,0,1,0,0)"><text x="69" y="474.56" style="fill: rgb(64,64,64); fill-opacity: 1.0; font-family: sans-serif; font-size: 25px;" clip-path="url(#_110908052573200clip-0)">60</text></g><line x1="101" y1="464.37" x2="103" y2="464.37" style="stroke-width: 0.5;stroke: rgb(128,128,128);stroke-opacity: 1.0;stroke-linecap: square;shape-rendering:crispEdges;" transform="matrix(1,0,0,1,0,0)" clip-path="url(#_110908052573200clip-0)"/><g transform="matrix(1,0,0,1,0,0)"><text x="69" y="431.29" style="fill: rgb(64,64,64); fill-opacity: 1.0; font-family: sans-serif; font-size: 25px;" clip-path="url(#_110908052573200clip-0)">80</text></g><line x1="101" y1="421.11" x2="103" y2="421.11" style="stroke-width: 0.5;stroke: rgb(128,128,128);stroke-opacity: 1.0;stroke-linecap: square;shape-rendering:crispEdges;" transform="matrix(1,0,0,1,0,0)" clip-path="url(#_110908052573200clip-0)"/><g transform="matrix(1,0,0,1,0,0)"><text x="55" y="388.03" style="fill: rgb(64,64,64); fill-opacity: 1.0; font-family: sans-serif; font-size: 25px;" clip-path="url(#_110908052573200clip-0)">100</text></g><line x1="101" y1="377.84" x2="103" y2="377.84" style="stroke-width: 0.5;stroke: rgb(128,128,128);stroke-opacity: 1.0;stroke-linecap: square;shape-rendering:crispEdges;" transform="matrix(1,0,0,1,0,0)" clip-path="url(#_110908052573200clip-0)"/><g transform="matrix(1,0,0,1,0,0)"><text x="55" y="344.76" style="fill: rgb(64,64,64); fill-opacity: 1.0; font-family: sans-serif; font-size: 25px;" clip-path="url(#_110908052573200clip-0)">120</text></g><line x1="101" y1="334.57" x2="103" y2="334.57" style="stroke-width: 0.5;stroke: rgb(128,128,128);stroke-opacity: 1.0;stroke-linecap: square;shape-rendering:crispEdges;" transform="matrix(1,0,0,1,0,0)" clip-path="url(#_110908052573200clip-0)"/><g transform="matrix(1,0,0,1,0,0)"><text x="55" y="301.5" style="fill: rgb(64,64,64); fill-opacity: 1.0; font-family: sans-serif; font-size: 25px;" clip-path="url(#_110908052573200clip-0)">140</text></g><line x1="101" y1="291.31" x2="103" y2="291.31" style="stroke-width: 0.5;stroke: rgb(128,128,128);stroke-opacity: 1.0;stroke-linecap: square;shape-rendering:crispEdges;" transform="matrix(1,0,0,1,0,0)" clip-path="url(#_110908052573200clip-0)"/><g transform="matrix(1,0,0,1,0,0)"><text x="55" y="258.23" style="fill: rgb(64,64,64); fill-opacity: 1.0; font-family: sans-serif; font-size: 25px;" clip-path="url(#_110908052573200clip-0)">160</text></g><line x1="101" y1="248.04" x2="103" y2="248.04" style="stroke-width: 0.5;stroke: rgb(128,128,128);stroke-opacity: 1.0;stroke-linecap: square;shape-rendering:crispEdges;" transform="matrix(1,0,0,1,0,0)" clip-path="url(#_110908052573200clip-0)"/><g transform="matrix(1,0,0,1,0,0)"><text x="55" y="214.97" style="fill: rgb(64,64,64); fill-opacity: 1.0; font-family: sans-serif; font-size: 25px;" clip-path="url(#_110908052573200clip-0)">180</text></g><line x1="101" y1="204.78" x2="103" y2="204.78" style="stroke-width: 0.5;stroke: rgb(128,128,128);stroke-opacity: 1.0;stroke-linecap: square;shape-rendering:crispEdges;" transform="matrix(1,0,0,1,0,0)" clip-path="url(#_110908052573200clip-0)"/><g transform="matrix(1,0,0,1,0,0)"><text x="55" y="171.7" style="fill: rgb(64,64,64); fill-opacity: 1.0; font-family: sans-serif; font-size: 25px;" clip-path="url(#_110908052573200clip-0)">200</text></g><line x1="101" y1="161.51" x2="103" y2="161.51" style="stroke-width: 0.5;stroke: rgb(128,128,128);stroke-opacity: 1.0;stroke-linecap: square;shape-rendering:crispEdges;" transform="matrix(1,0,0,1,0,0)" clip-path="url(#_110908052573200clip-0)"/><g transform="matrix(1,0,0,1,0,0)"><text x="55" y="128.44" style="fill: rgb(64,64,64); fill-opacity: 1.0; font-family: sans-serif; font-size: 25px;" clip-path="url(#_110908052573200clip-0)">220</text></g><line x1="101" y1="118.25" x2="103" y2="118.25" style="stroke-width: 0.5;stroke: rgb(128,128,128);stroke-opacity: 1.0;stroke-linecap: square;shape-rendering:crispEdges;" transform="matrix(1,0,0,1,0,0)" clip-path="url(#_110908052573200clip-0)"/><g transform="matrix(1,0,0,1,0,0)"><text x="55" y="85.17" style="fill: rgb(64,64,64); fill-opacity: 1.0; font-family: sans-serif; font-size: 25px;" clip-path="url(#_110908052573200clip-0)">240</text></g><line x1="101" y1="74.98" x2="103" y2="74.98" style="stroke-width: 0.5;stroke: rgb(128,128,128);stroke-opacity: 1.0;stroke-linecap: square;shape-rendering:crispEdges;" transform="matrix(1,0,0,1,0,0)" clip-path="url(#_110908052573200clip-0)"/><g style="fill: rgb(64,64,64); fill-opacity: 1.0; stroke: none" transform="matrix(0,-1,1,0,-309.5,370.5)" clip-path="url(#_110908052573200clip-1)"><path d="M -67.03 351.93 L -67.03 330.46 L -52.55 330.46 L -52.55 332.99 L -64.2 332.99 L -64.2 339.63 L -54.12 339.63 L -54.12 342.18 L -64.2 342.18 L -64.2 351.93 L -67.03 351.93 Z  M -39 351.93 L -39 349.65 Q -40.82 352.29 -43.94 352.29 Q -45.32 352.29 -46.51 351.75 Q -47.71 351.22 -48.28 350.43 Q -48.86 349.63 -49.1 348.47 Q -49.25 347.69 -49.25 346 L -49.25 336.36 L -46.61 336.36 L -46.61 345 Q -46.61 347.07 -46.46 347.79 Q -46.21 348.82 -45.4 349.41 Q -44.6 350 -43.41 350 Q -42.22 350 -41.18 349.4 Q -40.14 348.79 -39.71 347.74 Q -39.28 346.69 -39.28 344.71 L -39.28 336.36 L -36.64 336.36 L -36.64 351.93 L -39 351.93 Z  M -21.87 346.91 L -19.13 347.25 Q -19.79 349.65 -21.53 350.97 Q -23.27 352.29 -25.97 352.29 Q -29.4 352.29 -31.4 350.18 Q -33.4 348.07 -33.4 344.29 Q -33.4 340.35 -31.37 338.18 Q -29.35 336.02 -26.13 336.02 Q -23.01 336.02 -21.03 338.15 Q -19.05 340.27 -19.05 344.11 Q -19.05 344.35 -19.07 344.82 L -30.66 344.82 Q -30.52 347.38 -29.22 348.75 Q -27.91 350.11 -25.96 350.11 Q -24.52 350.11 -23.49 349.35 Q -22.46 348.58 -21.87 346.91 Z  M -30.52 342.66 L -21.83 342.66 Q -22.01 340.69 -22.83 339.71 Q -24.08 338.19 -26.1 338.19 Q -27.91 338.19 -29.15 339.4 Q -30.38 340.61 -30.52 342.66 Z  M -15.88 351.93 L -15.88 330.46 L -13.24 330.46 L -13.24 351.93 L -15.88 351.93 Z  M 17.7 351.93 L 17.7 349.65 Q 15.89 352.29 12.76 352.29 Q 11.39 352.29 10.19 351.75 Q 9 351.22 8.42 350.43 Q 7.84 349.63 7.61 348.47 Q 7.45 347.69 7.45 346 L 7.45 336.36 L 10.09 336.36 L 10.09 345 Q 10.09 347.07 10.25 347.79 Q 10.5 348.82 11.3 349.41 Q 12.11 350 13.29 350 Q 14.48 350 15.52 349.4 Q 16.56 348.79 16.99 347.74 Q 17.42 346.69 17.42 344.71 L 17.42 336.36 L 20.06 336.36 L 20.06 351.93 L 17.7 351.93 Z  M 23.14 347.29 L 25.75 346.88 Q 25.96 348.44 26.96 349.28 Q 27.96 350.11 29.78 350.11 Q 31.59 350.11 32.47 349.37 Q 33.35 348.63 33.35 347.63 Q 33.35 346.74 32.57 346.22 Q 32.03 345.88 29.87 345.33 Q 26.98 344.6 25.85 344.07 Q 24.73 343.54 24.15 342.59 Q 23.57 341.65 23.57 340.5 Q 23.57 339.46 24.05 338.58 Q 24.53 337.69 25.35 337.1 Q 25.96 336.65 27.03 336.33 Q 28.09 336.02 29.31 336.02 Q 31.14 336.02 32.52 336.54 Q 33.9 337.07 34.57 337.97 Q 35.23 338.88 35.46 340.38 L 32.89 340.74 Q 32.71 339.54 31.87 338.86 Q 31.03 338.19 29.5 338.19 Q 27.68 338.19 26.9 338.79 Q 26.12 339.38 26.12 340.19 Q 26.12 340.71 26.45 341.11 Q 26.78 341.54 27.46 341.82 Q 27.85 341.96 29.79 342.49 Q 32.59 343.24 33.69 343.72 Q 34.79 344.19 35.42 345.1 Q 36.06 346 36.06 347.35 Q 36.06 348.68 35.29 349.84 Q 34.53 351 33.07 351.65 Q 31.62 352.29 29.79 352.29 Q 26.76 352.29 25.17 351.02 Q 23.57 349.75 23.14 347.29 Z  M 49.84 346.91 L 52.57 347.25 Q 51.92 349.65 50.17 350.97 Q 48.43 352.29 45.73 352.29 Q 42.31 352.29 40.31 350.18 Q 38.31 348.07 38.31 344.29 Q 38.31 340.35 40.33 338.18 Q 42.35 336.02 45.57 336.02 Q 48.7 336.02 50.67 338.15 Q 52.65 340.27 52.65 344.11 Q 52.65 344.35 52.64 344.82 L 41.04 344.82 Q 41.18 347.38 42.49 348.75 Q 43.79 350.11 45.75 350.11 Q 47.18 350.11 48.21 349.35 Q 49.25 348.58 49.84 346.91 Z  M 41.18 342.66 L 49.87 342.66 Q 49.7 340.69 48.87 339.71 Q 47.62 338.19 45.6 338.19 Q 43.79 338.19 42.56 339.4 Q 41.32 340.61 41.18 342.66 Z  M 65.98 351.93 L 65.98 349.96 Q 64.49 352.29 61.62 352.29 Q 59.76 352.29 58.2 351.25 Q 56.63 350.22 55.78 348.39 Q 54.93 346.55 54.93 344.16 Q 54.93 341.83 55.7 339.93 Q 56.48 338.04 58.03 337.03 Q 59.59 336.02 61.51 336.02 Q 62.91 336.02 64.01 336.61 Q 65.1 337.21 65.79 338.16 L 65.79 330.46 L 68.41 330.46 L 68.41 351.93 L 65.98 351.93 Z  M 57.63 344.16 Q 57.63 347.15 58.89 348.63 Q 60.15 350.11 61.87 350.11 Q 63.6 350.11 64.8 348.7 Q 66.01 347.29 66.01 344.38 Q 66.01 341.19 64.78 339.7 Q 63.55 338.21 61.76 338.21 Q 59.99 338.21 58.81 339.64 Q 57.63 341.07 57.63 344.16 Z  M 85.93 358.24 Q 83.75 355.49 82.24 351.79 Q 80.73 348.1 80.73 344.15 Q 80.73 340.66 81.86 337.47 Q 83.18 333.75 85.93 330.08 L 87.82 330.08 Q 86.06 333.13 85.48 334.44 Q 84.59 336.46 84.07 338.66 Q 83.45 341.4 83.45 344.16 Q 83.45 351.21 87.82 358.24 L 85.93 358.24 Z  M 90.91 351.93 L 90.91 330.46 L 93.53 330.46 L 93.53 342.69 L 99.78 336.36 L 103.19 336.36 L 97.24 342.15 L 103.8 351.93 L 100.53 351.93 L 95.39 343.97 L 93.53 345.75 L 93.53 351.93 L 90.91 351.93 Z  M 105.41 353.22 L 107.97 353.6 Q 108.13 354.79 108.86 355.33 Q 109.85 356.05 111.53 356.05 Q 113.38 356.05 114.37 355.33 Q 115.36 354.6 115.72 353.27 Q 115.92 352.47 115.91 349.9 Q 114.17 351.93 111.6 351.93 Q 108.39 351.93 106.63 349.61 Q 104.88 347.3 104.88 344.07 Q 104.88 341.83 105.68 339.95 Q 106.49 338.07 108.02 337.04 Q 109.55 336.02 111.61 336.02 Q 114.36 336.02 116.16 338.24 L 116.16 336.36 L 118.58 336.36 L 118.58 349.82 Q 118.58 353.46 117.85 354.97 Q 117.11 356.49 115.5 357.36 Q 113.89 358.24 111.55 358.24 Q 108.77 358.24 107.06 356.99 Q 105.35 355.74 105.41 353.22 Z  M 107.58 343.86 Q 107.58 346.93 108.8 348.33 Q 110.02 349.74 111.85 349.74 Q 113.66 349.74 114.89 348.34 Q 116.13 346.94 116.13 343.96 Q 116.13 341.1 114.86 339.65 Q 113.6 338.21 111.8 338.21 Q 110.05 338.21 108.81 339.63 Q 107.58 341.05 107.58 343.86 Z  M 124.3 358.24 L 122.41 358.24 Q 126.8 351.21 126.8 344.16 Q 126.8 341.41 126.16 338.69 Q 125.66 336.5 124.76 334.47 Q 124.2 333.16 122.41 330.08 L 124.3 330.08 Q 127.05 333.75 128.37 337.47 Q 129.5 340.66 129.5 344.15 Q 129.5 348.1 127.98 351.79 Q 126.47 355.49 124.3 358.24 Z "/></g><line x1="193.08" y1="35" x2="193.08" y2="645" style="stroke-width: 0.5;stroke: rgb(192,192,192);stroke-opacity: 1.0;stroke-linejoin: bevel;stroke-dasharray: 2.0, 2.0;shape-rendering:crispEdges;" transform="matrix(1,0,0,1,0,0)" clip-path="url(#_110908052573200clip-2)"/><line x1="294.36" y1="35" x2="294.36" y2="645" style="stroke-width: 0.5;stroke: rgb(192,192,192);stroke-opacity: 1.0;stroke-linejoin: bevel;stroke-dasharray: 2.0, 2.0;shape-rendering:crispEdges;" transform="matrix(1,0,0,1,0,0)" clip-path="url(#_110908052573200clip-2)"/><line x1="395.63" y1="35" x2="395.63" y2="645" style="stroke-width: 0.5;stroke: rgb(192,192,192);stroke-opacity: 1.0;stroke-linejoin: bevel;stroke-dasharray: 2.0, 2.0;shape-rendering:crispEdges;" transform="matrix(1,0,0,1,0,0)" clip-path="url(#_110908052573200clip-2)"/><line x1="496.91" y1="35" x2="496.91" y2="645" style="stroke-width: 0.5;stroke: rgb(192,192,192);stroke-opacity: 1.0;stroke-linejoin: bevel;stroke-dasharray: 2.0, 2.0;shape-rendering:crispEdges;" transform="matrix(1,0,0,1,0,0)" clip-path="url(#_110908052573200clip-2)"/><line x1="598.18" y1="35" x2="598.18" y2="645" style="stroke-width: 0.5;stroke: rgb(192,192,192);stroke-opacity: 1.0;stroke-linejoin: bevel;stroke-dasharray: 2.0, 2.0;shape-rendering:crispEdges;" transform="matrix(1,0,0,1,0,0)" clip-path="url(#_110908052573200clip-2)"/><line x1="699.46" y1="35" x2="699.46" y2="645" style="stroke-width: 0.5;stroke: rgb(192,192,192);stroke-opacity: 1.0;stroke-linejoin: bevel;stroke-dasharray: 2.0, 2.0;shape-rendering:crispEdges;" transform="matrix(1,0,0,1,0,0)" clip-path="url(#_110908052573200clip-2)"/><line x1="800.73" y1="35" x2="800.73" y2="645" style="stroke-width: 0.5;stroke: rgb(192,192,192);stroke-opacity: 1.0;stroke-linejoin: bevel;stroke-dasharray: 2.0, 2.0;shape-rendering:crispEdges;" transform="matrix(1,0,0,1,0,0)" clip-path="url(#_110908052573200clip-2)"/><line x1="902" y1="35" x2="902" y2="645" style="stroke-width: 0.5;stroke: rgb(192,192,192);stroke-opacity: 1.0;stroke-linejoin: bevel;stroke-dasharray: 2.0, 2.0;shape-rendering:crispEdges;" transform="matrix(1,0,0,1,0,0)" clip-path="url(#_110908052573200clip-2)"/><line x1="1003.28" y1="35" x2="1003.28" y2="645" style="stroke-width: 0.5;stroke: rgb(192,192,192);stroke-opacity: 1.0;stroke-linejoin: bevel;stroke-dasharray: 2.0, 2.0;shape-rendering:crispEdges;" transform="matrix(1,0,0,1,0,0)" clip-path="url(#_110908052573200clip-2)"/><line x1="1104.55" y1="35" x2="1104.55" y2="645" style="stroke-width: 0.5;stroke: rgb(192,192,192);stroke-opacity: 1.0;stroke-linejoin: bevel;stroke-dasharray: 2.0, 2.0;shape-rendering:crispEdges;" transform="matrix(1,0,0,1,0,0)" clip-path="url(#_110908052573200clip-2)"/><line x1="107" y1="637.43" x2="1140" y2="637.43" style="stroke-width: 0.5;stroke: rgb(192,192,192);stroke-opacity: 1.0;stroke-linejoin: bevel;stroke-dasharray: 2.0, 2.0;shape-rendering:crispEdges;" transform="matrix(1,0,0,1,0,0)" clip-path="url(#_110908052573200clip-2)"/><line x1="107" y1="594.17" x2="1140" y2="594.17" style="stroke-width: 0.5;stroke: rgb(192,192,192);stroke-opacity: 1.0;stroke-linejoin: bevel;stroke-dasharray: 2.0, 2.0;shape-rendering:crispEdges;" transform="matrix(1,0,0,1,0,0)" clip-path="url(#_110908052573200clip-2)"/><line x1="107" y1="550.9" x2="1140" y2="550.9" style="stroke-width: 0.5;stroke: rgb(192,192,192);stroke-opacity: 1.0;stroke-linejoin: bevel;stroke-dasharray: 2.0, 2.0;shape-rendering:crispEdges;" transform="matrix(1,0,0,1,0,0)" clip-path="url(#_110908052573200clip-2)"/><line x1="107" y1="507.64" x2="1140" y2="507.64" style="stroke-width: 0.5;stroke: rgb(192,192,192);stroke-opacity: 1.0;stroke-linejoin: bevel;stroke-dasharray: 2.0, 2.0;shape-rendering:crispEdges;" transform="matrix(1,0,0,1,0,0)" clip-path="url(#_110908052573200clip-2)"/><line x1="107" y1="464.37" x2="1140" y2="464.37" style="stroke-width: 0.5;stroke: rgb(192,192,192);stroke-opacity: 1.0;stroke-linejoin: bevel;stroke-dasharray: 2.0, 2.0;shape-rendering:crispEdges;" transform="matrix(1,0,0,1,0,0)" clip-path="url(#_110908052573200clip-2)"/><line x1="107" y1="421.11" x2="1140" y2="421.11" style="stroke-width: 0.5;stroke: rgb(192,192,192);stroke-opacity: 1.0;stroke-linejoin: bevel;stroke-dasharray: 2.0, 2.0;shape-rendering:crispEdges;" transform="matrix(1,0,0,1,0,0)" clip-path="url(#_110908052573200clip-2)"/><line x1="107" y1="377.84" x2="1140" y2="377.84" style="stroke-width: 0.5;stroke: rgb(192,192,192);stroke-opacity: 1.0;stroke-linejoin: bevel;stroke-dasharray: 2.0, 2.0;shape-rendering:crispEdges;" transform="matrix(1,0,0,1,0,0)" clip-path="url(#_110908052573200clip-2)"/><line x1="107" y1="334.57" x2="1140" y2="334.57" style="stroke-width: 0.5;stroke: rgb(192,192,192);stroke-opacity: 1.0;stroke-linejoin: bevel;stroke-dasharray: 2.0, 2.0;shape-rendering:crispEdges;" transform="matrix(1,0,0,1,0,0)" clip-path="url(#_110908052573200clip-2)"/><line x1="107" y1="291.31" x2="1140" y2="291.31" style="stroke-width: 0.5;stroke: rgb(192,192,192);stroke-opacity: 1.0;stroke-linejoin: bevel;stroke-dasharray: 2.0, 2.0;shape-rendering:crispEdges;" transform="matrix(1,0,0,1,0,0)" clip-path="url(#_110908052573200clip-2)"/><line x1="107" y1="248.04" x2="1140" y2="248.04" style="stroke-width: 0.5;stroke: rgb(192,192,192);stroke-opacity: 1.0;stroke-linejoin: bevel;stroke-dasharray: 2.0, 2.0;shape-rendering:crispEdges;" transform="matrix(1,0,0,1,0,0)" clip-path="url(#_110908052573200clip-2)"/><line x1="107" y1="204.78" x2="1140" y2="204.78" style="stroke-width: 0.5;stroke: rgb(192,192,192);stroke-opacity: 1.0;stroke-linejoin: bevel;stroke-dasharray: 2.0, 2.0;shape-rendering:crispEdges;" transform="matrix(1,0,0,1,0,0)" clip-path="url(#_110908052573200clip-2)"/><line x1="107" y1="161.51" x2="1140" y2="161.51" style="stroke-width: 0.5;stroke: rgb(192,192,192);stroke-opacity: 1.0;stroke-linejoin: bevel;stroke-dasharray: 2.0, 2.0;shape-rendering:crispEdges;" transform="matrix(1,0,0,1,0,0)" clip-path="url(#_110908052573200clip-2)"/><line x1="107" y1="118.25" x2="1140" y2="118.25" style="stroke-width: 0.5;stroke: rgb(192,192,192);stroke-opacity: 1.0;stroke-linejoin: bevel;stroke-dasharray: 2.0, 2.0;shape-rendering:crispEdges;" transform="matrix(1,0,0,1,0,0)" clip-path="url(#_110908052573200clip-2)"/><line x1="107" y1="74.98" x2="1140" y2="74.98" style="stroke-width: 0.5;stroke: rgb(192,192,192);stroke-opacity: 1.0;stroke-linejoin: bevel;stroke-dasharray: 2.0, 2.0;shape-rendering:crispEdges;" transform="matrix(1,0,0,1,0,0)" clip-path="url(#_110908052573200clip-2)"/><line x1="269.04" y1="594.17" x2="465.26" y2="490.14" style="stroke-width: 3.0;stroke: rgb(0,0,0);stroke-opacity: 1.0;stroke-linecap: square;shape-rendering:geometricPrecision;" transform="matrix(1,0,0,1,0,0)" clip-path="url(#_110908052573200clip-2)"/><line x1="465.26" y1="490.14" x2="661.48" y2="378.21" style="stroke-width: 3.0;stroke: rgb(0,0,0);stroke-opacity: 1.0;stroke-linecap: square;shape-rendering:geometricPrecision;" transform="matrix(1,0,0,1,0,0)" clip-path="url(#_110908052573200clip-2)"/><line x1="661.48" y1="378.21" x2="857.7" y2="249.5" style="stroke-width: 3.0;stroke: rgb(0,0,0);stroke-opacity: 1.0;stroke-linecap: square;shape-rendering:geometricPrecision;" transform="matrix(1,0,0,1,0,0)" clip-path="url(#_110908052573200clip-2)"/><line x1="857.7" y1="249.5" x2="1053.92" y2="85.83" style="stroke-width: 3.0;stroke: rgb(0,0,0);stroke-opacity: 1.0;stroke-linecap: square;shape-rendering:geometricPrecision;" transform="matrix(1,0,0,1,0,0)" clip-path="url(#_110908052573200clip-2)"/><rect x="107" y="35" width="1033" height="610" style="stroke-width: 0.5;stroke: rgb(0,0,0);stroke-opacity: 1.0;stroke-linecap: round;stroke-linejoin: round;shape-rendering:crispEdges;; fill: none" transform="matrix(1,0,0,1,0,0)" clip-path="url(#_110908052573200clip-0)"/></svg>
