<!DOCTYPE svg PUBLIC "-//W3C//DTD SVG 1.1//EN" "http://www.w3.org/Graphics/SVG/1.1/DTD/svg11.dtd">
<svg xmlns="http://www.w3.org/2000/svg" xmlns:xlink="http://www.w3.org/1999/xlink" xmlns:jfreesvg="http://www.jfree.org/jfreesvg/svg" width="1152" height="768" text-rendering="auto" shape-rendering="auto">
<defs><clipPath id="_20728927576462clip-0"><path d="M 0 0 L 1152 0 L 1152 768 L 0 768 L 0 0 Z "/></clipPath>
<clipPath id="_20728927576462clip-1"><path d="M 384.5 345.5 L 384.5 1497.5 L -383.5 1497.5 L -383.5 345.5 L 384.5 345.5 Z "/></clipPath>
<clipPath id="_20728927576462clip-2"><path d="M 79 35 L 79 695 L 1140 695 L 1140 35 Z "/></clipPath>
</defs>
<rect x="0" y="0" width="1152" height="768" style="fill: rgb(255,255,255); fill-opacity: 1.0" transform="matrix(1,0,0,1,0,0)" clip-path="url(#_20728927576462clip-0)"/><g transform="matrix(1,0,0,1,0,0)"><text x="389" y="21.01" style="fill: rgb(0,0,0); fill-opacity: 1.0; font-family: Tahoma; font-size: 20px; font-weight: bold;" clip-path="url(#_20728927576462clip-0)">Max_Climb_Angle_envelope_AEO_SI</text></g><rect x="463" y="746" width="226" height="21" style="fill: rgb(255,255,255); fill-opacity: 1.0" transform="matrix(1,0,0,1,0,0)" clip-path="url(#_20728927576462clip-0)"/><g style="stroke-width: 3.0;stroke: rgb(0,0,0);stroke-opacity: 1.0;stroke-linecap: square;shape-rendering:geometricPrecision;; fill: none" transform="matrix(1,0,0,1,0,0)" clip-path="url(#_20728927576462clip-0)"><path d="M 466 756.5 L 480 756.5"/></g><g transform="matrix(1,0,0,1,0,0)"><text x="484" y="761.01" style="fill: rgb(64,64,64); fill-opacity: 1.0; font-family: Tahoma; font-size: 12px;" clip-path="url(#_20728927576462clip-0)"> Max_Climb_Angle_envelope_AEO_SI </text></g><rect x="79" y="35" width="1061" height="660" style="fill: rgb(255,255,255); fill-opacity: 0.0" transform="matrix(1,0,0,1,0,0)" clip-path="url(#_20728927576462clip-0)"/><line x1="79" y1="699" x2="1140" y2="699" style="stroke-width: 0.5;stroke: rgb(128,128,128);stroke-opacity: 1.0;stroke-linecap: square;shape-rendering:crispEdges;" transform="matrix(1,0,0,1,0,0)" clip-path="url(#_20728927576462clip-0)"/><g transform="matrix(1,0,0,1,0,0)"><text x="81.77" y="715.52" style="fill: rgb(64,64,64); fill-opacity: 1.0; font-family: Tahoma; font-size: 12px;" clip-path="url(#_20728927576462clip-0)">-0,01</text></g><line x1="95.77" y1="701" x2="95.77" y2="699" style="stroke-width: 0.5;stroke: rgb(128,128,128);stroke-opacity: 1.0;stroke-linecap: square;shape-rendering:crispEdges;" transform="matrix(1,0,0,1,0,0)" clip-path="url(#_20728927576462clip-0)"/><g transform="matrix(1,0,0,1,0,0)"><text x="155.92" y="715.52" style="fill: rgb(64,64,64); fill-opacity: 1.0; font-family: Tahoma; font-size: 12px;" clip-path="url(#_20728927576462clip-0)">0,00</text></g><line x1="167.42" y1="701" x2="167.42" y2="699" style="stroke-width: 0.5;stroke: rgb(128,128,128);stroke-opacity: 1.0;stroke-linecap: square;shape-rendering:crispEdges;" transform="matrix(1,0,0,1,0,0)" clip-path="url(#_20728927576462clip-0)"/><g transform="matrix(1,0,0,1,0,0)"><text x="227.56" y="715.52" style="fill: rgb(64,64,64); fill-opacity: 1.0; font-family: Tahoma; font-size: 12px;" clip-path="url(#_20728927576462clip-0)">0,01</text></g><line x1="239.06" y1="701" x2="239.06" y2="699" style="stroke-width: 0.5;stroke: rgb(128,128,128);stroke-opacity: 1.0;stroke-linecap: square;shape-rendering:crispEdges;" transform="matrix(1,0,0,1,0,0)" clip-path="url(#_20728927576462clip-0)"/><g transform="matrix(1,0,0,1,0,0)"><text x="299.21" y="715.52" style="fill: rgb(64,64,64); fill-opacity: 1.0; font-family: Tahoma; font-size: 12px;" clip-path="url(#_20728927576462clip-0)">0,02</text></g><line x1="310.71" y1="701" x2="310.71" y2="699" style="stroke-width: 0.5;stroke: rgb(128,128,128);stroke-opacity: 1.0;stroke-linecap: square;shape-rendering:crispEdges;" transform="matrix(1,0,0,1,0,0)" clip-path="url(#_20728927576462clip-0)"/><g transform="matrix(1,0,0,1,0,0)"><text x="370.85" y="715.52" style="fill: rgb(64,64,64); fill-opacity: 1.0; font-family: Tahoma; font-size: 12px;" clip-path="url(#_20728927576462clip-0)">0,03</text></g><line x1="382.35" y1="701" x2="382.35" y2="699" style="stroke-width: 0.5;stroke: rgb(128,128,128);stroke-opacity: 1.0;stroke-linecap: square;shape-rendering:crispEdges;" transform="matrix(1,0,0,1,0,0)" clip-path="url(#_20728927576462clip-0)"/><g transform="matrix(1,0,0,1,0,0)"><text x="442.5" y="715.52" style="fill: rgb(64,64,64); fill-opacity: 1.0; font-family: Tahoma; font-size: 12px;" clip-path="url(#_20728927576462clip-0)">0,04</text></g><line x1="454" y1="701" x2="454" y2="699" style="stroke-width: 0.5;stroke: rgb(128,128,128);stroke-opacity: 1.0;stroke-linecap: square;shape-rendering:crispEdges;" transform="matrix(1,0,0,1,0,0)" clip-path="url(#_20728927576462clip-0)"/><g transform="matrix(1,0,0,1,0,0)"><text x="514.14" y="715.52" style="fill: rgb(64,64,64); fill-opacity: 1.0; font-family: Tahoma; font-size: 12px;" clip-path="url(#_20728927576462clip-0)">0,05</text></g><line x1="525.64" y1="701" x2="525.64" y2="699" style="stroke-width: 0.5;stroke: rgb(128,128,128);stroke-opacity: 1.0;stroke-linecap: square;shape-rendering:crispEdges;" transform="matrix(1,0,0,1,0,0)" clip-path="url(#_20728927576462clip-0)"/><g transform="matrix(1,0,0,1,0,0)"><text x="585.79" y="715.52" style="fill: rgb(64,64,64); fill-opacity: 1.0; font-family: Tahoma; font-size: 12px;" clip-path="url(#_20728927576462clip-0)">0,06</text></g><line x1="597.29" y1="701" x2="597.29" y2="699" style="stroke-width: 0.5;stroke: rgb(128,128,128);stroke-opacity: 1.0;stroke-linecap: square;shape-rendering:crispEdges;" transform="matrix(1,0,0,1,0,0)" clip-path="url(#_20728927576462clip-0)"/><g transform="matrix(1,0,0,1,0,0)"><text x="657.43" y="715.52" style="fill: rgb(64,64,64); fill-opacity: 1.0; font-family: Tahoma; font-size: 12px;" clip-path="url(#_20728927576462clip-0)">0,07</text></g><line x1="668.93" y1="701" x2="668.93" y2="699" style="stroke-width: 0.5;stroke: rgb(128,128,128);stroke-opacity: 1.0;stroke-linecap: square;shape-rendering:crispEdges;" transform="matrix(1,0,0,1,0,0)" clip-path="url(#_20728927576462clip-0)"/><g transform="matrix(1,0,0,1,0,0)"><text x="729.08" y="715.52" style="fill: rgb(64,64,64); fill-opacity: 1.0; font-family: Tahoma; font-size: 12px;" clip-path="url(#_20728927576462clip-0)">0,08</text></g><line x1="740.58" y1="701" x2="740.58" y2="699" style="stroke-width: 0.5;stroke: rgb(128,128,128);stroke-opacity: 1.0;stroke-linecap: square;shape-rendering:crispEdges;" transform="matrix(1,0,0,1,0,0)" clip-path="url(#_20728927576462clip-0)"/><g transform="matrix(1,0,0,1,0,0)"><text x="800.73" y="715.52" style="fill: rgb(64,64,64); fill-opacity: 1.0; font-family: Tahoma; font-size: 12px;" clip-path="url(#_20728927576462clip-0)">0,09</text></g><line x1="812.23" y1="701" x2="812.23" y2="699" style="stroke-width: 0.5;stroke: rgb(128,128,128);stroke-opacity: 1.0;stroke-linecap: square;shape-rendering:crispEdges;" transform="matrix(1,0,0,1,0,0)" clip-path="url(#_20728927576462clip-0)"/><g transform="matrix(1,0,0,1,0,0)"><text x="872.37" y="715.52" style="fill: rgb(64,64,64); fill-opacity: 1.0; font-family: Tahoma; font-size: 12px;" clip-path="url(#_20728927576462clip-0)">0,10</text></g><line x1="883.87" y1="701" x2="883.87" y2="699" style="stroke-width: 0.5;stroke: rgb(128,128,128);stroke-opacity: 1.0;stroke-linecap: square;shape-rendering:crispEdges;" transform="matrix(1,0,0,1,0,0)" clip-path="url(#_20728927576462clip-0)"/><g transform="matrix(1,0,0,1,0,0)"><text x="944.02" y="715.52" style="fill: rgb(64,64,64); fill-opacity: 1.0; font-family: Tahoma; font-size: 12px;" clip-path="url(#_20728927576462clip-0)">0,11</text></g><line x1="955.52" y1="701" x2="955.52" y2="699" style="stroke-width: 0.5;stroke: rgb(128,128,128);stroke-opacity: 1.0;stroke-linecap: square;shape-rendering:crispEdges;" transform="matrix(1,0,0,1,0,0)" clip-path="url(#_20728927576462clip-0)"/><g transform="matrix(1,0,0,1,0,0)"><text x="1015.66" y="715.52" style="fill: rgb(64,64,64); fill-opacity: 1.0; font-family: Tahoma; font-size: 12px;" clip-path="url(#_20728927576462clip-0)">0,12</text></g><line x1="1027.16" y1="701" x2="1027.16" y2="699" style="stroke-width: 0.5;stroke: rgb(128,128,128);stroke-opacity: 1.0;stroke-linecap: square;shape-rendering:crispEdges;" transform="matrix(1,0,0,1,0,0)" clip-path="url(#_20728927576462clip-0)"/><g transform="matrix(1,0,0,1,0,0)"><text x="1087.31" y="715.52" style="fill: rgb(64,64,64); fill-opacity: 1.0; font-family: Tahoma; font-size: 12px;" clip-path="url(#_20728927576462clip-0)">0,13</text></g><line x1="1098.81" y1="701" x2="1098.81" y2="699" style="stroke-width: 0.5;stroke: rgb(128,128,128);stroke-opacity: 1.0;stroke-linecap: square;shape-rendering:crispEdges;" transform="matrix(1,0,0,1,0,0)" clip-path="url(#_20728927576462clip-0)"/><g transform="matrix(1,0,0,1,0,0)"><text x="511" y="734.59" style="fill: rgb(64,64,64); fill-opacity: 1.0; font-family: Tahoma; font-size: 14px; font-weight: bold;" clip-path="url(#_20728927576462clip-0)">Maximum Climb Angle (rad)</text></g><line x1="75" y1="35" x2="75" y2="695" style="stroke-width: 0.5;stroke: rgb(128,128,128);stroke-opacity: 1.0;stroke-linecap: square;shape-rendering:crispEdges;" transform="matrix(1,0,0,1,0,0)" clip-path="url(#_20728927576462clip-0)"/><g transform="matrix(1,0,0,1,0,0)"><text x="35" y="691.21" style="fill: rgb(64,64,64); fill-opacity: 1.0; font-family: Tahoma; font-size: 12px;" clip-path="url(#_20728927576462clip-0)">-1.000</text></g><line x1="73" y1="686.19" x2="75" y2="686.19" style="stroke-width: 0.5;stroke: rgb(128,128,128);stroke-opacity: 1.0;stroke-linecap: square;shape-rendering:crispEdges;" transform="matrix(1,0,0,1,0,0)" clip-path="url(#_20728927576462clip-0)"/><g transform="matrix(1,0,0,1,0,0)"><text x="45" y="668.12" style="fill: rgb(64,64,64); fill-opacity: 1.0; font-family: Tahoma; font-size: 12px;" clip-path="url(#_20728927576462clip-0)">-500</text></g><line x1="73" y1="663.1" x2="75" y2="663.1" style="stroke-width: 0.5;stroke: rgb(128,128,128);stroke-opacity: 1.0;stroke-linecap: square;shape-rendering:crispEdges;" transform="matrix(1,0,0,1,0,0)" clip-path="url(#_20728927576462clip-0)"/><g transform="matrix(1,0,0,1,0,0)"><text x="62" y="645.02" style="fill: rgb(64,64,64); fill-opacity: 1.0; font-family: Tahoma; font-size: 12px;" clip-path="url(#_20728927576462clip-0)">0</text></g><line x1="73" y1="640" x2="75" y2="640" style="stroke-width: 0.5;stroke: rgb(128,128,128);stroke-opacity: 1.0;stroke-linecap: square;shape-rendering:crispEdges;" transform="matrix(1,0,0,1,0,0)" clip-path="url(#_20728927576462clip-0)"/><g transform="matrix(1,0,0,1,0,0)"><text x="49" y="621.93" style="fill: rgb(64,64,64); fill-opacity: 1.0; font-family: Tahoma; font-size: 12px;" clip-path="url(#_20728927576462clip-0)">500</text></g><line x1="73" y1="616.9" x2="75" y2="616.9" style="stroke-width: 0.5;stroke: rgb(128,128,128);stroke-opacity: 1.0;stroke-linecap: square;shape-rendering:crispEdges;" transform="matrix(1,0,0,1,0,0)" clip-path="url(#_20728927576462clip-0)"/><g transform="matrix(1,0,0,1,0,0)"><text x="39" y="598.83" style="fill: rgb(64,64,64); fill-opacity: 1.0; font-family: Tahoma; font-size: 12px;" clip-path="url(#_20728927576462clip-0)">1.000</text></g><line x1="73" y1="593.81" x2="75" y2="593.81" style="stroke-width: 0.5;stroke: rgb(128,128,128);stroke-opacity: 1.0;stroke-linecap: square;shape-rendering:crispEdges;" transform="matrix(1,0,0,1,0,0)" clip-path="url(#_20728927576462clip-0)"/><g transform="matrix(1,0,0,1,0,0)"><text x="39" y="575.73" style="fill: rgb(64,64,64); fill-opacity: 1.0; font-family: Tahoma; font-size: 12px;" clip-path="url(#_20728927576462clip-0)">1.500</text></g><line x1="73" y1="570.71" x2="75" y2="570.71" style="stroke-width: 0.5;stroke: rgb(128,128,128);stroke-opacity: 1.0;stroke-linecap: square;shape-rendering:crispEdges;" transform="matrix(1,0,0,1,0,0)" clip-path="url(#_20728927576462clip-0)"/><g transform="matrix(1,0,0,1,0,0)"><text x="39" y="552.64" style="fill: rgb(64,64,64); fill-opacity: 1.0; font-family: Tahoma; font-size: 12px;" clip-path="url(#_20728927576462clip-0)">2.000</text></g><line x1="73" y1="547.62" x2="75" y2="547.62" style="stroke-width: 0.5;stroke: rgb(128,128,128);stroke-opacity: 1.0;stroke-linecap: square;shape-rendering:crispEdges;" transform="matrix(1,0,0,1,0,0)" clip-path="url(#_20728927576462clip-0)"/><g transform="matrix(1,0,0,1,0,0)"><text x="39" y="529.54" style="fill: rgb(64,64,64); fill-opacity: 1.0; font-family: Tahoma; font-size: 12px;" clip-path="url(#_20728927576462clip-0)">2.500</text></g><line x1="73" y1="524.52" x2="75" y2="524.52" style="stroke-width: 0.5;stroke: rgb(128,128,128);stroke-opacity: 1.0;stroke-linecap: square;shape-rendering:crispEdges;" transform="matrix(1,0,0,1,0,0)" clip-path="url(#_20728927576462clip-0)"/><g transform="matrix(1,0,0,1,0,0)"><text x="39" y="506.45" style="fill: rgb(64,64,64); fill-opacity: 1.0; font-family: Tahoma; font-size: 12px;" clip-path="url(#_20728927576462clip-0)">3.000</text></g><line x1="73" y1="501.43" x2="75" y2="501.43" style="stroke-width: 0.5;stroke: rgb(128,128,128);stroke-opacity: 1.0;stroke-linecap: square;shape-rendering:crispEdges;" transform="matrix(1,0,0,1,0,0)" clip-path="url(#_20728927576462clip-0)"/><g transform="matrix(1,0,0,1,0,0)"><text x="39" y="483.35" style="fill: rgb(64,64,64); fill-opacity: 1.0; font-family: Tahoma; font-size: 12px;" clip-path="url(#_20728927576462clip-0)">3.500</text></g><line x1="73" y1="478.33" x2="75" y2="478.33" style="stroke-width: 0.5;stroke: rgb(128,128,128);stroke-opacity: 1.0;stroke-linecap: square;shape-rendering:crispEdges;" transform="matrix(1,0,0,1,0,0)" clip-path="url(#_20728927576462clip-0)"/><g transform="matrix(1,0,0,1,0,0)"><text x="39" y="460.26" style="fill: rgb(64,64,64); fill-opacity: 1.0; font-family: Tahoma; font-size: 12px;" clip-path="url(#_20728927576462clip-0)">4.000</text></g><line x1="73" y1="455.23" x2="75" y2="455.23" style="stroke-width: 0.5;stroke: rgb(128,128,128);stroke-opacity: 1.0;stroke-linecap: square;shape-rendering:crispEdges;" transform="matrix(1,0,0,1,0,0)" clip-path="url(#_20728927576462clip-0)"/><g transform="matrix(1,0,0,1,0,0)"><text x="39" y="437.16" style="fill: rgb(64,64,64); fill-opacity: 1.0; font-family: Tahoma; font-size: 12px;" clip-path="url(#_20728927576462clip-0)">4.500</text></g><line x1="73" y1="432.14" x2="75" y2="432.14" style="stroke-width: 0.5;stroke: rgb(128,128,128);stroke-opacity: 1.0;stroke-linecap: square;shape-rendering:crispEdges;" transform="matrix(1,0,0,1,0,0)" clip-path="url(#_20728927576462clip-0)"/><g transform="matrix(1,0,0,1,0,0)"><text x="39" y="414.06" style="fill: rgb(64,64,64); fill-opacity: 1.0; font-family: Tahoma; font-size: 12px;" clip-path="url(#_20728927576462clip-0)">5.000</text></g><line x1="73" y1="409.04" x2="75" y2="409.04" style="stroke-width: 0.5;stroke: rgb(128,128,128);stroke-opacity: 1.0;stroke-linecap: square;shape-rendering:crispEdges;" transform="matrix(1,0,0,1,0,0)" clip-path="url(#_20728927576462clip-0)"/><g transform="matrix(1,0,0,1,0,0)"><text x="39" y="390.97" style="fill: rgb(64,64,64); fill-opacity: 1.0; font-family: Tahoma; font-size: 12px;" clip-path="url(#_20728927576462clip-0)">5.500</text></g><line x1="73" y1="385.95" x2="75" y2="385.95" style="stroke-width: 0.5;stroke: rgb(128,128,128);stroke-opacity: 1.0;stroke-linecap: square;shape-rendering:crispEdges;" transform="matrix(1,0,0,1,0,0)" clip-path="url(#_20728927576462clip-0)"/><g transform="matrix(1,0,0,1,0,0)"><text x="39" y="367.87" style="fill: rgb(64,64,64); fill-opacity: 1.0; font-family: Tahoma; font-size: 12px;" clip-path="url(#_20728927576462clip-0)">6.000</text></g><line x1="73" y1="362.85" x2="75" y2="362.85" style="stroke-width: 0.5;stroke: rgb(128,128,128);stroke-opacity: 1.0;stroke-linecap: square;shape-rendering:crispEdges;" transform="matrix(1,0,0,1,0,0)" clip-path="url(#_20728927576462clip-0)"/><g transform="matrix(1,0,0,1,0,0)"><text x="39" y="344.78" style="fill: rgb(64,64,64); fill-opacity: 1.0; font-family: Tahoma; font-size: 12px;" clip-path="url(#_20728927576462clip-0)">6.500</text></g><line x1="73" y1="339.75" x2="75" y2="339.75" style="stroke-width: 0.5;stroke: rgb(128,128,128);stroke-opacity: 1.0;stroke-linecap: square;shape-rendering:crispEdges;" transform="matrix(1,0,0,1,0,0)" clip-path="url(#_20728927576462clip-0)"/><g transform="matrix(1,0,0,1,0,0)"><text x="39" y="321.68" style="fill: rgb(64,64,64); fill-opacity: 1.0; font-family: Tahoma; font-size: 12px;" clip-path="url(#_20728927576462clip-0)">7.000</text></g><line x1="73" y1="316.66" x2="75" y2="316.66" style="stroke-width: 0.5;stroke: rgb(128,128,128);stroke-opacity: 1.0;stroke-linecap: square;shape-rendering:crispEdges;" transform="matrix(1,0,0,1,0,0)" clip-path="url(#_20728927576462clip-0)"/><g transform="matrix(1,0,0,1,0,0)"><text x="39" y="298.58" style="fill: rgb(64,64,64); fill-opacity: 1.0; font-family: Tahoma; font-size: 12px;" clip-path="url(#_20728927576462clip-0)">7.500</text></g><line x1="73" y1="293.56" x2="75" y2="293.56" style="stroke-width: 0.5;stroke: rgb(128,128,128);stroke-opacity: 1.0;stroke-linecap: square;shape-rendering:crispEdges;" transform="matrix(1,0,0,1,0,0)" clip-path="url(#_20728927576462clip-0)"/><g transform="matrix(1,0,0,1,0,0)"><text x="39" y="275.49" style="fill: rgb(64,64,64); fill-opacity: 1.0; font-family: Tahoma; font-size: 12px;" clip-path="url(#_20728927576462clip-0)">8.000</text></g><line x1="73" y1="270.47" x2="75" y2="270.47" style="stroke-width: 0.5;stroke: rgb(128,128,128);stroke-opacity: 1.0;stroke-linecap: square;shape-rendering:crispEdges;" transform="matrix(1,0,0,1,0,0)" clip-path="url(#_20728927576462clip-0)"/><g transform="matrix(1,0,0,1,0,0)"><text x="39" y="252.39" style="fill: rgb(64,64,64); fill-opacity: 1.0; font-family: Tahoma; font-size: 12px;" clip-path="url(#_20728927576462clip-0)">8.500</text></g><line x1="73" y1="247.37" x2="75" y2="247.37" style="stroke-width: 0.5;stroke: rgb(128,128,128);stroke-opacity: 1.0;stroke-linecap: square;shape-rendering:crispEdges;" transform="matrix(1,0,0,1,0,0)" clip-path="url(#_20728927576462clip-0)"/><g transform="matrix(1,0,0,1,0,0)"><text x="39" y="229.3" style="fill: rgb(64,64,64); fill-opacity: 1.0; font-family: Tahoma; font-size: 12px;" clip-path="url(#_20728927576462clip-0)">9.000</text></g><line x1="73" y1="224.28" x2="75" y2="224.28" style="stroke-width: 0.5;stroke: rgb(128,128,128);stroke-opacity: 1.0;stroke-linecap: square;shape-rendering:crispEdges;" transform="matrix(1,0,0,1,0,0)" clip-path="url(#_20728927576462clip-0)"/><g transform="matrix(1,0,0,1,0,0)"><text x="39" y="206.2" style="fill: rgb(64,64,64); fill-opacity: 1.0; font-family: Tahoma; font-size: 12px;" clip-path="url(#_20728927576462clip-0)">9.500</text></g><line x1="73" y1="201.18" x2="75" y2="201.18" style="stroke-width: 0.5;stroke: rgb(128,128,128);stroke-opacity: 1.0;stroke-linecap: square;shape-rendering:crispEdges;" transform="matrix(1,0,0,1,0,0)" clip-path="url(#_20728927576462clip-0)"/><g transform="matrix(1,0,0,1,0,0)"><text x="33" y="183.11" style="fill: rgb(64,64,64); fill-opacity: 1.0; font-family: Tahoma; font-size: 12px;" clip-path="url(#_20728927576462clip-0)">10.000</text></g><line x1="73" y1="178.08" x2="75" y2="178.08" style="stroke-width: 0.5;stroke: rgb(128,128,128);stroke-opacity: 1.0;stroke-linecap: square;shape-rendering:crispEdges;" transform="matrix(1,0,0,1,0,0)" clip-path="url(#_20728927576462clip-0)"/><g transform="matrix(1,0,0,1,0,0)"><text x="33" y="160.01" style="fill: rgb(64,64,64); fill-opacity: 1.0; font-family: Tahoma; font-size: 12px;" clip-path="url(#_20728927576462clip-0)">10.500</text></g><line x1="73" y1="154.99" x2="75" y2="154.99" style="stroke-width: 0.5;stroke: rgb(128,128,128);stroke-opacity: 1.0;stroke-linecap: square;shape-rendering:crispEdges;" transform="matrix(1,0,0,1,0,0)" clip-path="url(#_20728927576462clip-0)"/><g transform="matrix(1,0,0,1,0,0)"><text x="33" y="136.91" style="fill: rgb(64,64,64); fill-opacity: 1.0; font-family: Tahoma; font-size: 12px;" clip-path="url(#_20728927576462clip-0)">11.000</text></g><line x1="73" y1="131.89" x2="75" y2="131.89" style="stroke-width: 0.5;stroke: rgb(128,128,128);stroke-opacity: 1.0;stroke-linecap: square;shape-rendering:crispEdges;" transform="matrix(1,0,0,1,0,0)" clip-path="url(#_20728927576462clip-0)"/><g transform="matrix(1,0,0,1,0,0)"><text x="33" y="113.82" style="fill: rgb(64,64,64); fill-opacity: 1.0; font-family: Tahoma; font-size: 12px;" clip-path="url(#_20728927576462clip-0)">11.500</text></g><line x1="73" y1="108.8" x2="75" y2="108.8" style="stroke-width: 0.5;stroke: rgb(128,128,128);stroke-opacity: 1.0;stroke-linecap: square;shape-rendering:crispEdges;" transform="matrix(1,0,0,1,0,0)" clip-path="url(#_20728927576462clip-0)"/><g transform="matrix(1,0,0,1,0,0)"><text x="33" y="90.72" style="fill: rgb(64,64,64); fill-opacity: 1.0; font-family: Tahoma; font-size: 12px;" clip-path="url(#_20728927576462clip-0)">12.000</text></g><line x1="73" y1="85.7" x2="75" y2="85.7" style="stroke-width: 0.5;stroke: rgb(128,128,128);stroke-opacity: 1.0;stroke-linecap: square;shape-rendering:crispEdges;" transform="matrix(1,0,0,1,0,0)" clip-path="url(#_20728927576462clip-0)"/><g transform="matrix(1,0,0,1,0,0)"><text x="33" y="67.63" style="fill: rgb(64,64,64); fill-opacity: 1.0; font-family: Tahoma; font-size: 12px;" clip-path="url(#_20728927576462clip-0)">12.500</text></g><line x1="73" y1="62.6" x2="75" y2="62.6" style="stroke-width: 0.5;stroke: rgb(128,128,128);stroke-opacity: 1.0;stroke-linecap: square;shape-rendering:crispEdges;" transform="matrix(1,0,0,1,0,0)" clip-path="url(#_20728927576462clip-0)"/><g transform="matrix(1,0,0,1,0,0)"><text x="33" y="44.53" style="fill: rgb(64,64,64); fill-opacity: 1.0; font-family: Tahoma; font-size: 12px;" clip-path="url(#_20728927576462clip-0)">13.000</text></g><line x1="73" y1="39.51" x2="75" y2="39.51" style="stroke-width: 0.5;stroke: rgb(128,128,128);stroke-opacity: 1.0;stroke-linecap: square;shape-rendering:crispEdges;" transform="matrix(1,0,0,1,0,0)" clip-path="url(#_20728927576462clip-0)"/><g style="fill: rgb(64,64,64); fill-opacity: 1.0; stroke: none" transform="matrix(0,-1,1,0,-345.5,384.5)" clip-path="url(#_20728927576462clip-1)"><path d="M -23.55 370.61 L -20.11 360.44 L -17.31 360.44 L -13.88 370.61 L -16.5 370.61 L -17.14 368.53 L -20.34 368.53 L -20.98 370.61 L -23.55 370.61 Z  M -17.7 366.69 L -18.73 363.33 L -19.78 366.69 L -17.7 366.69 Z  M -10.6 370.61 L -12.99 370.61 L -12.99 359.97 L -10.6 359.97 L -10.6 370.61 Z  M -5.83 370.76 Q -7.3 370.76 -7.96 370.16 Q -8.63 369.56 -8.63 368.19 L -8.63 364.59 L -9.55 364.59 L -9.55 362.94 L -8.63 362.94 L -8.63 360.73 L -6.24 360.73 L -6.24 362.94 L -3.94 362.94 L -3.94 364.59 L -6.24 364.59 L -6.24 367.33 Q -6.24 367.72 -6.23 368.02 Q -6.22 368.33 -6.13 368.56 Q -6.02 368.8 -5.78 368.94 Q -5.54 369.08 -5.08 369.08 Q -4.88 369.08 -4.57 369 Q -4.27 368.92 -4.14 368.86 L -3.94 368.86 L -3.94 370.55 Q -4.33 370.64 -4.77 370.7 Q -5.21 370.76 -5.83 370.76 Z  M -0.56 370.61 L -2.95 370.61 L -2.95 362.94 L -0.56 362.94 L -0.56 370.61 Z  M -0.5 361.84 L -3.03 361.84 L -3.03 359.97 L -0.5 359.97 L -0.5 361.84 Z  M 4.21 370.76 Q 2.74 370.76 2.08 370.16 Q 1.41 369.56 1.41 368.19 L 1.41 364.59 L 0.49 364.59 L 0.49 362.94 L 1.41 362.94 L 1.41 360.73 L 3.8 360.73 L 3.8 362.94 L 6.1 362.94 L 6.1 364.59 L 3.8 364.59 L 3.8 367.33 Q 3.8 367.72 3.81 368.02 Q 3.82 368.33 3.91 368.56 Q 4.02 368.8 4.26 368.94 Q 4.51 369.08 4.96 369.08 Q 5.16 369.08 5.47 369 Q 5.77 368.92 5.9 368.86 L 6.1 368.86 L 6.1 370.55 Q 5.71 370.64 5.27 370.7 Q 4.83 370.76 4.21 370.76 Z  M 14.21 370.61 L 11.82 370.61 L 11.82 369.76 Q 11.2 370.28 10.68 370.55 Q 10.17 370.83 9.45 370.83 Q 8.31 370.83 7.67 370.1 Q 7.03 369.37 7.03 367.92 L 7.03 362.94 L 9.43 362.94 L 9.43 366.73 Q 9.43 367.33 9.46 367.71 Q 9.5 368.09 9.61 368.34 Q 9.71 368.58 9.94 368.7 Q 10.17 368.83 10.59 368.83 Q 10.84 368.83 11.18 368.7 Q 11.53 368.58 11.82 368.37 L 11.82 362.94 L 14.21 362.94 L 14.21 370.61 Z  M 23.02 370.61 L 20.63 370.61 L 20.63 369.81 Q 20.4 370 20.1 370.22 Q 19.8 370.44 19.58 370.55 Q 19.29 370.69 19.01 370.76 Q 18.74 370.83 18.35 370.83 Q 17.04 370.83 16.27 369.73 Q 15.5 368.64 15.5 366.83 Q 15.5 365.83 15.76 365.08 Q 16.02 364.34 16.47 363.8 Q 16.9 363.3 17.49 363.01 Q 18.08 362.72 18.74 362.72 Q 19.35 362.72 19.73 362.84 Q 20.11 362.97 20.63 363.23 L 20.63 359.97 L 23.02 359.97 L 23.02 370.61 Z  M 20.63 368.48 L 20.63 364.72 Q 20.46 364.64 20.17 364.58 Q 19.88 364.51 19.68 364.51 Q 18.82 364.51 18.38 365.12 Q 17.94 365.72 17.94 366.8 Q 17.94 367.94 18.29 368.44 Q 18.63 368.95 19.41 368.95 Q 19.72 368.95 20.04 368.83 Q 20.36 368.7 20.63 368.48 Z  M 28.79 370.81 Q 26.61 370.81 25.46 369.77 Q 24.3 368.73 24.3 366.81 Q 24.3 364.94 25.38 363.81 Q 26.46 362.69 28.39 362.69 Q 30.16 362.69 31.05 363.64 Q 31.94 364.59 31.94 366.36 L 31.94 367.22 L 26.69 367.22 Q 26.74 367.76 26.93 368.12 Q 27.11 368.47 27.43 368.69 Q 27.74 368.91 28.14 368.99 Q 28.55 369.08 29.04 369.08 Q 29.46 369.08 29.86 368.99 Q 30.27 368.91 30.6 368.75 Q 30.89 368.62 31.14 368.47 Q 31.39 368.31 31.55 368.2 L 31.8 368.2 L 31.8 370.17 Q 31.5 370.3 31.26 370.4 Q 31.02 370.5 30.6 370.59 Q 30.21 370.7 29.79 370.76 Q 29.38 370.81 28.79 370.81 Z  M 29.58 365.78 Q 29.57 365.03 29.23 364.63 Q 28.89 364.23 28.21 364.23 Q 27.52 364.23 27.13 364.65 Q 26.74 365.06 26.69 365.78 L 29.58 365.78 Z  M 42.17 373.42 L 39.65 373.42 Q 39.07 372.73 38.61 372 Q 38.14 371.26 37.79 370.44 Q 37.46 369.64 37.29 368.69 Q 37.11 367.73 37.11 366.7 Q 37.11 365.58 37.29 364.66 Q 37.48 363.73 37.78 362.98 Q 38.11 362.16 38.58 361.42 Q 39.06 360.69 39.65 359.97 L 42.17 359.97 L 42.17 360.17 Q 41.61 360.67 41.11 361.3 Q 40.61 361.94 40.18 362.78 Q 39.76 363.59 39.51 364.58 Q 39.26 365.58 39.26 366.7 Q 39.26 367.87 39.5 368.82 Q 39.75 369.76 40.18 370.61 Q 40.59 371.42 41.11 372.08 Q 41.62 372.75 42.17 373.23 L 42.17 373.42 Z  M 52.81 370.61 L 52.81 366.78 Q 52.81 366.2 52.78 365.81 Q 52.76 365.42 52.67 365.19 Q 52.56 364.94 52.34 364.82 Q 52.12 364.7 51.74 364.7 Q 51.46 364.7 51.2 364.83 Q 50.93 364.95 50.62 365.17 L 50.62 370.61 L 48.21 370.61 L 48.21 366.78 Q 48.21 366.22 48.19 365.82 Q 48.17 365.42 48.06 365.19 Q 47.96 364.94 47.74 364.82 Q 47.53 364.7 47.15 364.7 Q 46.85 364.7 46.57 364.84 Q 46.29 364.98 46.03 365.17 L 46.03 370.61 L 43.63 370.61 L 43.63 362.94 L 46.03 362.94 L 46.03 363.78 Q 46.6 363.28 47.13 363 Q 47.65 362.72 48.29 362.72 Q 49.01 362.72 49.54 363.05 Q 50.07 363.39 50.35 364.05 Q 51.04 363.41 51.65 363.06 Q 52.26 362.72 52.88 362.72 Q 53.43 362.72 53.85 362.89 Q 54.28 363.06 54.57 363.41 Q 54.88 363.76 55.05 364.28 Q 55.21 364.8 55.21 365.61 L 55.21 370.61 L 52.81 370.61 Z  M 61.66 366.7 Q 61.66 367.73 61.48 368.69 Q 61.3 369.64 60.99 370.44 Q 60.64 371.26 60.17 372 Q 59.69 372.73 59.11 373.42 L 56.61 373.42 L 56.61 373.23 Q 57.16 372.75 57.67 372.09 Q 58.19 371.44 58.59 370.61 Q 59.02 369.76 59.27 368.82 Q 59.52 367.87 59.52 366.7 Q 59.52 365.58 59.26 364.58 Q 59 363.59 58.59 362.78 Q 58.16 361.94 57.66 361.3 Q 57.16 360.67 56.61 360.17 L 56.61 359.97 L 59.11 359.97 Q 59.7 360.69 60.18 361.42 Q 60.66 362.16 60.99 362.98 Q 61.28 363.73 61.47 364.66 Q 61.66 365.58 61.66 366.7 Z "/></g><line x1="95.77" y1="35" x2="95.77" y2="695" style="stroke-width: 0.5;stroke: rgb(192,192,192);stroke-opacity: 1.0;stroke-linejoin: bevel;stroke-dasharray: 2.0, 2.0;shape-rendering:crispEdges;" transform="matrix(1,0,0,1,0,0)" clip-path="url(#_20728927576462clip-2)"/><line x1="167.42" y1="35" x2="167.42" y2="695" style="stroke-width: 0.5;stroke: rgb(192,192,192);stroke-opacity: 1.0;stroke-linejoin: bevel;stroke-dasharray: 2.0, 2.0;shape-rendering:crispEdges;" transform="matrix(1,0,0,1,0,0)" clip-path="url(#_20728927576462clip-2)"/><line x1="239.06" y1="35" x2="239.06" y2="695" style="stroke-width: 0.5;stroke: rgb(192,192,192);stroke-opacity: 1.0;stroke-linejoin: bevel;stroke-dasharray: 2.0, 2.0;shape-rendering:crispEdges;" transform="matrix(1,0,0,1,0,0)" clip-path="url(#_20728927576462clip-2)"/><line x1="310.71" y1="35" x2="310.71" y2="695" style="stroke-width: 0.5;stroke: rgb(192,192,192);stroke-opacity: 1.0;stroke-linejoin: bevel;stroke-dasharray: 2.0, 2.0;shape-rendering:crispEdges;" transform="matrix(1,0,0,1,0,0)" clip-path="url(#_20728927576462clip-2)"/><line x1="382.35" y1="35" x2="382.35" y2="695" style="stroke-width: 0.5;stroke: rgb(192,192,192);stroke-opacity: 1.0;stroke-linejoin: bevel;stroke-dasharray: 2.0, 2.0;shape-rendering:crispEdges;" transform="matrix(1,0,0,1,0,0)" clip-path="url(#_20728927576462clip-2)"/><line x1="454" y1="35" x2="454" y2="695" style="stroke-width: 0.5;stroke: rgb(192,192,192);stroke-opacity: 1.0;stroke-linejoin: bevel;stroke-dasharray: 2.0, 2.0;shape-rendering:crispEdges;" transform="matrix(1,0,0,1,0,0)" clip-path="url(#_20728927576462clip-2)"/><line x1="525.64" y1="35" x2="525.64" y2="695" style="stroke-width: 0.5;stroke: rgb(192,192,192);stroke-opacity: 1.0;stroke-linejoin: bevel;stroke-dasharray: 2.0, 2.0;shape-rendering:crispEdges;" transform="matrix(1,0,0,1,0,0)" clip-path="url(#_20728927576462clip-2)"/><line x1="597.29" y1="35" x2="597.29" y2="695" style="stroke-width: 0.5;stroke: rgb(192,192,192);stroke-opacity: 1.0;stroke-linejoin: bevel;stroke-dasharray: 2.0, 2.0;shape-rendering:crispEdges;" transform="matrix(1,0,0,1,0,0)" clip-path="url(#_20728927576462clip-2)"/><line x1="668.93" y1="35" x2="668.93" y2="695" style="stroke-width: 0.5;stroke: rgb(192,192,192);stroke-opacity: 1.0;stroke-linejoin: bevel;stroke-dasharray: 2.0, 2.0;shape-rendering:crispEdges;" transform="matrix(1,0,0,1,0,0)" clip-path="url(#_20728927576462clip-2)"/><line x1="740.58" y1="35" x2="740.58" y2="695" style="stroke-width: 0.5;stroke: rgb(192,192,192);stroke-opacity: 1.0;stroke-linejoin: bevel;stroke-dasharray: 2.0, 2.0;shape-rendering:crispEdges;" transform="matrix(1,0,0,1,0,0)" clip-path="url(#_20728927576462clip-2)"/><line x1="812.23" y1="35" x2="812.23" y2="695" style="stroke-width: 0.5;stroke: rgb(192,192,192);stroke-opacity: 1.0;stroke-linejoin: bevel;stroke-dasharray: 2.0, 2.0;shape-rendering:crispEdges;" transform="matrix(1,0,0,1,0,0)" clip-path="url(#_20728927576462clip-2)"/><line x1="883.87" y1="35" x2="883.87" y2="695" style="stroke-width: 0.5;stroke: rgb(192,192,192);stroke-opacity: 1.0;stroke-linejoin: bevel;stroke-dasharray: 2.0, 2.0;shape-rendering:crispEdges;" transform="matrix(1,0,0,1,0,0)" clip-path="url(#_20728927576462clip-2)"/><line x1="955.52" y1="35" x2="955.52" y2="695" style="stroke-width: 0.5;stroke: rgb(192,192,192);stroke-opacity: 1.0;stroke-linejoin: bevel;stroke-dasharray: 2.0, 2.0;shape-rendering:crispEdges;" transform="matrix(1,0,0,1,0,0)" clip-path="url(#_20728927576462clip-2)"/><line x1="1027.16" y1="35" x2="1027.16" y2="695" style="stroke-width: 0.5;stroke: rgb(192,192,192);stroke-opacity: 1.0;stroke-linejoin: bevel;stroke-dasharray: 2.0, 2.0;shape-rendering:crispEdges;" transform="matrix(1,0,0,1,0,0)" clip-path="url(#_20728927576462clip-2)"/><line x1="1098.81" y1="35" x2="1098.81" y2="695" style="stroke-width: 0.5;stroke: rgb(192,192,192);stroke-opacity: 1.0;stroke-linejoin: bevel;stroke-dasharray: 2.0, 2.0;shape-rendering:crispEdges;" transform="matrix(1,0,0,1,0,0)" clip-path="url(#_20728927576462clip-2)"/><line x1="79" y1="686.19" x2="1140" y2="686.19" style="stroke-width: 0.5;stroke: rgb(192,192,192);stroke-opacity: 1.0;stroke-linejoin: bevel;stroke-dasharray: 2.0, 2.0;shape-rendering:crispEdges;" transform="matrix(1,0,0,1,0,0)" clip-path="url(#_20728927576462clip-2)"/><line x1="79" y1="663.1" x2="1140" y2="663.1" style="stroke-width: 0.5;stroke: rgb(192,192,192);stroke-opacity: 1.0;stroke-linejoin: bevel;stroke-dasharray: 2.0, 2.0;shape-rendering:crispEdges;" transform="matrix(1,0,0,1,0,0)" clip-path="url(#_20728927576462clip-2)"/><line x1="79" y1="640" x2="1140" y2="640" style="stroke-width: 0.5;stroke: rgb(192,192,192);stroke-opacity: 1.0;stroke-linejoin: bevel;stroke-dasharray: 2.0, 2.0;shape-rendering:crispEdges;" transform="matrix(1,0,0,1,0,0)" clip-path="url(#_20728927576462clip-2)"/><line x1="79" y1="616.9" x2="1140" y2="616.9" style="stroke-width: 0.5;stroke: rgb(192,192,192);stroke-opacity: 1.0;stroke-linejoin: bevel;stroke-dasharray: 2.0, 2.0;shape-rendering:crispEdges;" transform="matrix(1,0,0,1,0,0)" clip-path="url(#_20728927576462clip-2)"/><line x1="79" y1="593.81" x2="1140" y2="593.81" style="stroke-width: 0.5;stroke: rgb(192,192,192);stroke-opacity: 1.0;stroke-linejoin: bevel;stroke-dasharray: 2.0, 2.0;shape-rendering:crispEdges;" transform="matrix(1,0,0,1,0,0)" clip-path="url(#_20728927576462clip-2)"/><line x1="79" y1="570.71" x2="1140" y2="570.71" style="stroke-width: 0.5;stroke: rgb(192,192,192);stroke-opacity: 1.0;stroke-linejoin: bevel;stroke-dasharray: 2.0, 2.0;shape-rendering:crispEdges;" transform="matrix(1,0,0,1,0,0)" clip-path="url(#_20728927576462clip-2)"/><line x1="79" y1="547.62" x2="1140" y2="547.62" style="stroke-width: 0.5;stroke: rgb(192,192,192);stroke-opacity: 1.0;stroke-linejoin: bevel;stroke-dasharray: 2.0, 2.0;shape-rendering:crispEdges;" transform="matrix(1,0,0,1,0,0)" clip-path="url(#_20728927576462clip-2)"/><line x1="79" y1="524.52" x2="1140" y2="524.52" style="stroke-width: 0.5;stroke: rgb(192,192,192);stroke-opacity: 1.0;stroke-linejoin: bevel;stroke-dasharray: 2.0, 2.0;shape-rendering:crispEdges;" transform="matrix(1,0,0,1,0,0)" clip-path="url(#_20728927576462clip-2)"/><line x1="79" y1="501.43" x2="1140" y2="501.43" style="stroke-width: 0.5;stroke: rgb(192,192,192);stroke-opacity: 1.0;stroke-linejoin: bevel;stroke-dasharray: 2.0, 2.0;shape-rendering:crispEdges;" transform="matrix(1,0,0,1,0,0)" clip-path="url(#_20728927576462clip-2)"/><line x1="79" y1="478.33" x2="1140" y2="478.33" style="stroke-width: 0.5;stroke: rgb(192,192,192);stroke-opacity: 1.0;stroke-linejoin: bevel;stroke-dasharray: 2.0, 2.0;shape-rendering:crispEdges;" transform="matrix(1,0,0,1,0,0)" clip-path="url(#_20728927576462clip-2)"/><line x1="79" y1="455.23" x2="1140" y2="455.23" style="stroke-width: 0.5;stroke: rgb(192,192,192);stroke-opacity: 1.0;stroke-linejoin: bevel;stroke-dasharray: 2.0, 2.0;shape-rendering:crispEdges;" transform="matrix(1,0,0,1,0,0)" clip-path="url(#_20728927576462clip-2)"/><line x1="79" y1="432.14" x2="1140" y2="432.14" style="stroke-width: 0.5;stroke: rgb(192,192,192);stroke-opacity: 1.0;stroke-linejoin: bevel;stroke-dasharray: 2.0, 2.0;shape-rendering:crispEdges;" transform="matrix(1,0,0,1,0,0)" clip-path="url(#_20728927576462clip-2)"/><line x1="79" y1="409.04" x2="1140" y2="409.04" style="stroke-width: 0.5;stroke: rgb(192,192,192);stroke-opacity: 1.0;stroke-linejoin: bevel;stroke-dasharray: 2.0, 2.0;shape-rendering:crispEdges;" transform="matrix(1,0,0,1,0,0)" clip-path="url(#_20728927576462clip-2)"/><line x1="79" y1="385.95" x2="1140" y2="385.95" style="stroke-width: 0.5;stroke: rgb(192,192,192);stroke-opacity: 1.0;stroke-linejoin: bevel;stroke-dasharray: 2.0, 2.0;shape-rendering:crispEdges;" transform="matrix(1,0,0,1,0,0)" clip-path="url(#_20728927576462clip-2)"/><line x1="79" y1="362.85" x2="1140" y2="362.85" style="stroke-width: 0.5;stroke: rgb(192,192,192);stroke-opacity: 1.0;stroke-linejoin: bevel;stroke-dasharray: 2.0, 2.0;shape-rendering:crispEdges;" transform="matrix(1,0,0,1,0,0)" clip-path="url(#_20728927576462clip-2)"/><line x1="79" y1="339.75" x2="1140" y2="339.75" style="stroke-width: 0.5;stroke: rgb(192,192,192);stroke-opacity: 1.0;stroke-linejoin: bevel;stroke-dasharray: 2.0, 2.0;shape-rendering:crispEdges;" transform="matrix(1,0,0,1,0,0)" clip-path="url(#_20728927576462clip-2)"/><line x1="79" y1="316.66" x2="1140" y2="316.66" style="stroke-width: 0.5;stroke: rgb(192,192,192);stroke-opacity: 1.0;stroke-linejoin: bevel;stroke-dasharray: 2.0, 2.0;shape-rendering:crispEdges;" transform="matrix(1,0,0,1,0,0)" clip-path="url(#_20728927576462clip-2)"/><line x1="79" y1="293.56" x2="1140" y2="293.56" style="stroke-width: 0.5;stroke: rgb(192,192,192);stroke-opacity: 1.0;stroke-linejoin: bevel;stroke-dasharray: 2.0, 2.0;shape-rendering:crispEdges;" transform="matrix(1,0,0,1,0,0)" clip-path="url(#_20728927576462clip-2)"/><line x1="79" y1="270.47" x2="1140" y2="270.47" style="stroke-width: 0.5;stroke: rgb(192,192,192);stroke-opacity: 1.0;stroke-linejoin: bevel;stroke-dasharray: 2.0, 2.0;shape-rendering:crispEdges;" transform="matrix(1,0,0,1,0,0)" clip-path="url(#_20728927576462clip-2)"/><line x1="79" y1="247.37" x2="1140" y2="247.37" style="stroke-width: 0.5;stroke: rgb(192,192,192);stroke-opacity: 1.0;stroke-linejoin: bevel;stroke-dasharray: 2.0, 2.0;shape-rendering:crispEdges;" transform="matrix(1,0,0,1,0,0)" clip-path="url(#_20728927576462clip-2)"/><line x1="79" y1="224.28" x2="1140" y2="224.28" style="stroke-width: 0.5;stroke: rgb(192,192,192);stroke-opacity: 1.0;stroke-linejoin: bevel;stroke-dasharray: 2.0, 2.0;shape-rendering:crispEdges;" transform="matrix(1,0,0,1,0,0)" clip-path="url(#_20728927576462clip-2)"/><line x1="79" y1="201.18" x2="1140" y2="201.18" style="stroke-width: 0.5;stroke: rgb(192,192,192);stroke-opacity: 1.0;stroke-linejoin: bevel;stroke-dasharray: 2.0, 2.0;shape-rendering:crispEdges;" transform="matrix(1,0,0,1,0,0)" clip-path="url(#_20728927576462clip-2)"/><line x1="79" y1="178.08" x2="1140" y2="178.08" style="stroke-width: 0.5;stroke: rgb(192,192,192);stroke-opacity: 1.0;stroke-linejoin: bevel;stroke-dasharray: 2.0, 2.0;shape-rendering:crispEdges;" transform="matrix(1,0,0,1,0,0)" clip-path="url(#_20728927576462clip-2)"/><line x1="79" y1="154.99" x2="1140" y2="154.99" style="stroke-width: 0.5;stroke: rgb(192,192,192);stroke-opacity: 1.0;stroke-linejoin: bevel;stroke-dasharray: 2.0, 2.0;shape-rendering:crispEdges;" transform="matrix(1,0,0,1,0,0)" clip-path="url(#_20728927576462clip-2)"/><line x1="79" y1="131.89" x2="1140" y2="131.89" style="stroke-width: 0.5;stroke: rgb(192,192,192);stroke-opacity: 1.0;stroke-linejoin: bevel;stroke-dasharray: 2.0, 2.0;shape-rendering:crispEdges;" transform="matrix(1,0,0,1,0,0)" clip-path="url(#_20728927576462clip-2)"/><line x1="79" y1="108.8" x2="1140" y2="108.8" style="stroke-width: 0.5;stroke: rgb(192,192,192);stroke-opacity: 1.0;stroke-linejoin: bevel;stroke-dasharray: 2.0, 2.0;shape-rendering:crispEdges;" transform="matrix(1,0,0,1,0,0)" clip-path="url(#_20728927576462clip-2)"/><line x1="79" y1="85.7" x2="1140" y2="85.7" style="stroke-width: 0.5;stroke: rgb(192,192,192);stroke-opacity: 1.0;stroke-linejoin: bevel;stroke-dasharray: 2.0, 2.0;shape-rendering:crispEdges;" transform="matrix(1,0,0,1,0,0)" clip-path="url(#_20728927576462clip-2)"/><line x1="79" y1="62.6" x2="1140" y2="62.6" style="stroke-width: 0.5;stroke: rgb(192,192,192);stroke-opacity: 1.0;stroke-linejoin: bevel;stroke-dasharray: 2.0, 2.0;shape-rendering:crispEdges;" transform="matrix(1,0,0,1,0,0)" clip-path="url(#_20728927576462clip-2)"/><line x1="79" y1="39.51" x2="1140" y2="39.51" style="stroke-width: 0.5;stroke: rgb(192,192,192);stroke-opacity: 1.0;stroke-linejoin: bevel;stroke-dasharray: 2.0, 2.0;shape-rendering:crispEdges;" transform="matrix(1,0,0,1,0,0)" clip-path="url(#_20728927576462clip-2)"/><line x1="167.42" y1="90" x2="220.25" y2="147.23" style="stroke-width: 3.0;stroke: rgb(0,0,0);stroke-opacity: 1.0;stroke-linecap: square;shape-rendering:geometricPrecision;" transform="matrix(1,0,0,1,0,0)" clip-path="url(#_20728927576462clip-2)"/><line x1="220.25" y1="147.23" x2="358.28" y2="265.14" style="stroke-width: 3.0;stroke: rgb(0,0,0);stroke-opacity: 1.0;stroke-linecap: square;shape-rendering:geometricPrecision;" transform="matrix(1,0,0,1,0,0)" clip-path="url(#_20728927576462clip-2)"/><line x1="358.28" y1="265.14" x2="551.45" y2="383.05" style="stroke-width: 3.0;stroke: rgb(0,0,0);stroke-opacity: 1.0;stroke-linecap: square;shape-rendering:geometricPrecision;" transform="matrix(1,0,0,1,0,0)" clip-path="url(#_20728927576462clip-2)"/><line x1="551.45" y1="383.05" x2="797.93" y2="500.97" style="stroke-width: 3.0;stroke: rgb(0,0,0);stroke-opacity: 1.0;stroke-linecap: square;shape-rendering:geometricPrecision;" transform="matrix(1,0,0,1,0,0)" clip-path="url(#_20728927576462clip-2)"/><line x1="797.93" y1="500.97" x2="1051.58" y2="618.88" style="stroke-width: 3.0;stroke: rgb(0,0,0);stroke-opacity: 1.0;stroke-linecap: square;shape-rendering:geometricPrecision;" transform="matrix(1,0,0,1,0,0)" clip-path="url(#_20728927576462clip-2)"/><rect x="79" y="35" width="1061" height="660" style="stroke-width: 0.5;stroke: rgb(0,0,0);stroke-opacity: 1.0;stroke-linecap: round;stroke-linejoin: round;shape-rendering:crispEdges;; fill: none" transform="matrix(1,0,0,1,0,0)" clip-path="url(#_20728927576462clip-0)"/></svg>
