<!DOCTYPE svg PUBLIC "-//W3C//DTD SVG 1.1//EN" "http://www.w3.org/Graphics/SVG/1.1/DTD/svg11.dtd">
<svg xmlns="http://www.w3.org/2000/svg" xmlns:xlink="http://www.w3.org/1999/xlink" xmlns:jfreesvg="http://www.jfree.org/jfreesvg/svg" width="1152" height="768" text-rendering="auto" shape-rendering="auto">
<defs><clipPath id="_1742905768487477clip-0"><path d="M 0 0 L 1152 0 L 1152 768 L 0 768 L 0 0 Z "/></clipPath>
<clipPath id="_1742905768487477clip-1"><path d="M 384.5 345.5 L 384.5 1497.5 L -383.5 1497.5 L -383.5 345.5 L 384.5 345.5 Z "/></clipPath>
<clipPath id="_1742905768487477clip-2"><path d="M 79 35 L 79 695 L 1140 695 L 1140 35 Z "/></clipPath>
</defs>
<rect x="0" y="0" width="1152" height="768" style="fill: rgb(255,255,255); fill-opacity: 1.0" transform="matrix(1,0,0,1,0,0)" clip-path="url(#_1742905768487477clip-0)"/><g transform="matrix(1,0,0,1,0,0)"><text x="514.5" y="21.01" style="fill: rgb(0,0,0); fill-opacity: 1.0; font-family: Tahoma; font-size: 20px; font-weight: bold;" clip-path="url(#_1742905768487477clip-0)">Polar_Curve</text></g><rect x="528.5" y="746" width="95" height="21" style="fill: rgb(255,255,255); fill-opacity: 1.0" transform="matrix(1,0,0,1,0,0)" clip-path="url(#_1742905768487477clip-0)"/><g style="stroke-width: 3.0;stroke: rgb(0,0,0);stroke-opacity: 1.0;stroke-linecap: square;shape-rendering:geometricPrecision;; fill: none" transform="matrix(1,0,0,1,0,0)" clip-path="url(#_1742905768487477clip-0)"><path d="M 531.5 756.5 L 545.5 756.5"/></g><g transform="matrix(1,0,0,1,0,0)"><text x="549.5" y="761.01" style="fill: rgb(64,64,64); fill-opacity: 1.0; font-family: Tahoma; font-size: 12px;" clip-path="url(#_1742905768487477clip-0)"> Polar_Curve </text></g><rect x="79" y="35" width="1061" height="660" style="fill: rgb(255,255,255); fill-opacity: 0.0" transform="matrix(1,0,0,1,0,0)" clip-path="url(#_1742905768487477clip-0)"/><line x1="79" y1="699" x2="1140" y2="699" style="stroke-width: 0.5;stroke: rgb(128,128,128);stroke-opacity: 1.0;stroke-linecap: square;shape-rendering:crispEdges;" transform="matrix(1,0,0,1,0,0)" clip-path="url(#_1742905768487477clip-0)"/><g transform="matrix(1,0,0,1,0,0)"><text x="97.78" y="715.52" style="fill: rgb(64,64,64); fill-opacity: 1.0; font-family: Tahoma; font-size: 12px;" clip-path="url(#_1742905768487477clip-0)">-11</text></g><line x1="106.28" y1="701" x2="106.28" y2="699" style="stroke-width: 0.5;stroke: rgb(128,128,128);stroke-opacity: 1.0;stroke-linecap: square;shape-rendering:crispEdges;" transform="matrix(1,0,0,1,0,0)" clip-path="url(#_1742905768487477clip-0)"/><g transform="matrix(1,0,0,1,0,0)"><text x="131.13" y="715.52" style="fill: rgb(64,64,64); fill-opacity: 1.0; font-family: Tahoma; font-size: 12px;" clip-path="url(#_1742905768487477clip-0)">-10</text></g><line x1="139.63" y1="701" x2="139.63" y2="699" style="stroke-width: 0.5;stroke: rgb(128,128,128);stroke-opacity: 1.0;stroke-linecap: square;shape-rendering:crispEdges;" transform="matrix(1,0,0,1,0,0)" clip-path="url(#_1742905768487477clip-0)"/><g transform="matrix(1,0,0,1,0,0)"><text x="167.47" y="715.52" style="fill: rgb(64,64,64); fill-opacity: 1.0; font-family: Tahoma; font-size: 12px;" clip-path="url(#_1742905768487477clip-0)">-9</text></g><line x1="172.97" y1="701" x2="172.97" y2="699" style="stroke-width: 0.5;stroke: rgb(128,128,128);stroke-opacity: 1.0;stroke-linecap: square;shape-rendering:crispEdges;" transform="matrix(1,0,0,1,0,0)" clip-path="url(#_1742905768487477clip-0)"/><g transform="matrix(1,0,0,1,0,0)"><text x="200.82" y="715.52" style="fill: rgb(64,64,64); fill-opacity: 1.0; font-family: Tahoma; font-size: 12px;" clip-path="url(#_1742905768487477clip-0)">-8</text></g><line x1="206.32" y1="701" x2="206.32" y2="699" style="stroke-width: 0.5;stroke: rgb(128,128,128);stroke-opacity: 1.0;stroke-linecap: square;shape-rendering:crispEdges;" transform="matrix(1,0,0,1,0,0)" clip-path="url(#_1742905768487477clip-0)"/><g transform="matrix(1,0,0,1,0,0)"><text x="234.17" y="715.52" style="fill: rgb(64,64,64); fill-opacity: 1.0; font-family: Tahoma; font-size: 12px;" clip-path="url(#_1742905768487477clip-0)">-7</text></g><line x1="239.67" y1="701" x2="239.67" y2="699" style="stroke-width: 0.5;stroke: rgb(128,128,128);stroke-opacity: 1.0;stroke-linecap: square;shape-rendering:crispEdges;" transform="matrix(1,0,0,1,0,0)" clip-path="url(#_1742905768487477clip-0)"/><g transform="matrix(1,0,0,1,0,0)"><text x="267.51" y="715.52" style="fill: rgb(64,64,64); fill-opacity: 1.0; font-family: Tahoma; font-size: 12px;" clip-path="url(#_1742905768487477clip-0)">-6</text></g><line x1="273.01" y1="701" x2="273.01" y2="699" style="stroke-width: 0.5;stroke: rgb(128,128,128);stroke-opacity: 1.0;stroke-linecap: square;shape-rendering:crispEdges;" transform="matrix(1,0,0,1,0,0)" clip-path="url(#_1742905768487477clip-0)"/><g transform="matrix(1,0,0,1,0,0)"><text x="300.86" y="715.52" style="fill: rgb(64,64,64); fill-opacity: 1.0; font-family: Tahoma; font-size: 12px;" clip-path="url(#_1742905768487477clip-0)">-5</text></g><line x1="306.36" y1="701" x2="306.36" y2="699" style="stroke-width: 0.5;stroke: rgb(128,128,128);stroke-opacity: 1.0;stroke-linecap: square;shape-rendering:crispEdges;" transform="matrix(1,0,0,1,0,0)" clip-path="url(#_1742905768487477clip-0)"/><g transform="matrix(1,0,0,1,0,0)"><text x="334.2" y="715.52" style="fill: rgb(64,64,64); fill-opacity: 1.0; font-family: Tahoma; font-size: 12px;" clip-path="url(#_1742905768487477clip-0)">-4</text></g><line x1="339.7" y1="701" x2="339.7" y2="699" style="stroke-width: 0.5;stroke: rgb(128,128,128);stroke-opacity: 1.0;stroke-linecap: square;shape-rendering:crispEdges;" transform="matrix(1,0,0,1,0,0)" clip-path="url(#_1742905768487477clip-0)"/><g transform="matrix(1,0,0,1,0,0)"><text x="367.55" y="715.52" style="fill: rgb(64,64,64); fill-opacity: 1.0; font-family: Tahoma; font-size: 12px;" clip-path="url(#_1742905768487477clip-0)">-3</text></g><line x1="373.05" y1="701" x2="373.05" y2="699" style="stroke-width: 0.5;stroke: rgb(128,128,128);stroke-opacity: 1.0;stroke-linecap: square;shape-rendering:crispEdges;" transform="matrix(1,0,0,1,0,0)" clip-path="url(#_1742905768487477clip-0)"/><g transform="matrix(1,0,0,1,0,0)"><text x="400.89" y="715.52" style="fill: rgb(64,64,64); fill-opacity: 1.0; font-family: Tahoma; font-size: 12px;" clip-path="url(#_1742905768487477clip-0)">-2</text></g><line x1="406.39" y1="701" x2="406.39" y2="699" style="stroke-width: 0.5;stroke: rgb(128,128,128);stroke-opacity: 1.0;stroke-linecap: square;shape-rendering:crispEdges;" transform="matrix(1,0,0,1,0,0)" clip-path="url(#_1742905768487477clip-0)"/><g transform="matrix(1,0,0,1,0,0)"><text x="434.24" y="715.52" style="fill: rgb(64,64,64); fill-opacity: 1.0; font-family: Tahoma; font-size: 12px;" clip-path="url(#_1742905768487477clip-0)">-1</text></g><line x1="439.74" y1="701" x2="439.74" y2="699" style="stroke-width: 0.5;stroke: rgb(128,128,128);stroke-opacity: 1.0;stroke-linecap: square;shape-rendering:crispEdges;" transform="matrix(1,0,0,1,0,0)" clip-path="url(#_1742905768487477clip-0)"/><g transform="matrix(1,0,0,1,0,0)"><text x="469.59" y="715.52" style="fill: rgb(64,64,64); fill-opacity: 1.0; font-family: Tahoma; font-size: 12px;" clip-path="url(#_1742905768487477clip-0)">0</text></g><line x1="473.09" y1="701" x2="473.09" y2="699" style="stroke-width: 0.5;stroke: rgb(128,128,128);stroke-opacity: 1.0;stroke-linecap: square;shape-rendering:crispEdges;" transform="matrix(1,0,0,1,0,0)" clip-path="url(#_1742905768487477clip-0)"/><g transform="matrix(1,0,0,1,0,0)"><text x="502.93" y="715.52" style="fill: rgb(64,64,64); fill-opacity: 1.0; font-family: Tahoma; font-size: 12px;" clip-path="url(#_1742905768487477clip-0)">1</text></g><line x1="506.43" y1="701" x2="506.43" y2="699" style="stroke-width: 0.5;stroke: rgb(128,128,128);stroke-opacity: 1.0;stroke-linecap: square;shape-rendering:crispEdges;" transform="matrix(1,0,0,1,0,0)" clip-path="url(#_1742905768487477clip-0)"/><g transform="matrix(1,0,0,1,0,0)"><text x="536.28" y="715.52" style="fill: rgb(64,64,64); fill-opacity: 1.0; font-family: Tahoma; font-size: 12px;" clip-path="url(#_1742905768487477clip-0)">2</text></g><line x1="539.78" y1="701" x2="539.78" y2="699" style="stroke-width: 0.5;stroke: rgb(128,128,128);stroke-opacity: 1.0;stroke-linecap: square;shape-rendering:crispEdges;" transform="matrix(1,0,0,1,0,0)" clip-path="url(#_1742905768487477clip-0)"/><g transform="matrix(1,0,0,1,0,0)"><text x="569.62" y="715.52" style="fill: rgb(64,64,64); fill-opacity: 1.0; font-family: Tahoma; font-size: 12px;" clip-path="url(#_1742905768487477clip-0)">3</text></g><line x1="573.12" y1="701" x2="573.12" y2="699" style="stroke-width: 0.5;stroke: rgb(128,128,128);stroke-opacity: 1.0;stroke-linecap: square;shape-rendering:crispEdges;" transform="matrix(1,0,0,1,0,0)" clip-path="url(#_1742905768487477clip-0)"/><g transform="matrix(1,0,0,1,0,0)"><text x="602.97" y="715.52" style="fill: rgb(64,64,64); fill-opacity: 1.0; font-family: Tahoma; font-size: 12px;" clip-path="url(#_1742905768487477clip-0)">4</text></g><line x1="606.47" y1="701" x2="606.47" y2="699" style="stroke-width: 0.5;stroke: rgb(128,128,128);stroke-opacity: 1.0;stroke-linecap: square;shape-rendering:crispEdges;" transform="matrix(1,0,0,1,0,0)" clip-path="url(#_1742905768487477clip-0)"/><g transform="matrix(1,0,0,1,0,0)"><text x="636.31" y="715.52" style="fill: rgb(64,64,64); fill-opacity: 1.0; font-family: Tahoma; font-size: 12px;" clip-path="url(#_1742905768487477clip-0)">5</text></g><line x1="639.81" y1="701" x2="639.81" y2="699" style="stroke-width: 0.5;stroke: rgb(128,128,128);stroke-opacity: 1.0;stroke-linecap: square;shape-rendering:crispEdges;" transform="matrix(1,0,0,1,0,0)" clip-path="url(#_1742905768487477clip-0)"/><g transform="matrix(1,0,0,1,0,0)"><text x="669.66" y="715.52" style="fill: rgb(64,64,64); fill-opacity: 1.0; font-family: Tahoma; font-size: 12px;" clip-path="url(#_1742905768487477clip-0)">6</text></g><line x1="673.16" y1="701" x2="673.16" y2="699" style="stroke-width: 0.5;stroke: rgb(128,128,128);stroke-opacity: 1.0;stroke-linecap: square;shape-rendering:crispEdges;" transform="matrix(1,0,0,1,0,0)" clip-path="url(#_1742905768487477clip-0)"/><g transform="matrix(1,0,0,1,0,0)"><text x="703.01" y="715.52" style="fill: rgb(64,64,64); fill-opacity: 1.0; font-family: Tahoma; font-size: 12px;" clip-path="url(#_1742905768487477clip-0)">7</text></g><line x1="706.51" y1="701" x2="706.51" y2="699" style="stroke-width: 0.5;stroke: rgb(128,128,128);stroke-opacity: 1.0;stroke-linecap: square;shape-rendering:crispEdges;" transform="matrix(1,0,0,1,0,0)" clip-path="url(#_1742905768487477clip-0)"/><g transform="matrix(1,0,0,1,0,0)"><text x="736.35" y="715.52" style="fill: rgb(64,64,64); fill-opacity: 1.0; font-family: Tahoma; font-size: 12px;" clip-path="url(#_1742905768487477clip-0)">8</text></g><line x1="739.85" y1="701" x2="739.85" y2="699" style="stroke-width: 0.5;stroke: rgb(128,128,128);stroke-opacity: 1.0;stroke-linecap: square;shape-rendering:crispEdges;" transform="matrix(1,0,0,1,0,0)" clip-path="url(#_1742905768487477clip-0)"/><g transform="matrix(1,0,0,1,0,0)"><text x="769.7" y="715.52" style="fill: rgb(64,64,64); fill-opacity: 1.0; font-family: Tahoma; font-size: 12px;" clip-path="url(#_1742905768487477clip-0)">9</text></g><line x1="773.2" y1="701" x2="773.2" y2="699" style="stroke-width: 0.5;stroke: rgb(128,128,128);stroke-opacity: 1.0;stroke-linecap: square;shape-rendering:crispEdges;" transform="matrix(1,0,0,1,0,0)" clip-path="url(#_1742905768487477clip-0)"/><g transform="matrix(1,0,0,1,0,0)"><text x="800.04" y="715.52" style="fill: rgb(64,64,64); fill-opacity: 1.0; font-family: Tahoma; font-size: 12px;" clip-path="url(#_1742905768487477clip-0)">10</text></g><line x1="806.54" y1="701" x2="806.54" y2="699" style="stroke-width: 0.5;stroke: rgb(128,128,128);stroke-opacity: 1.0;stroke-linecap: square;shape-rendering:crispEdges;" transform="matrix(1,0,0,1,0,0)" clip-path="url(#_1742905768487477clip-0)"/><g transform="matrix(1,0,0,1,0,0)"><text x="833.39" y="715.52" style="fill: rgb(64,64,64); fill-opacity: 1.0; font-family: Tahoma; font-size: 12px;" clip-path="url(#_1742905768487477clip-0)">11</text></g><line x1="839.89" y1="701" x2="839.89" y2="699" style="stroke-width: 0.5;stroke: rgb(128,128,128);stroke-opacity: 1.0;stroke-linecap: square;shape-rendering:crispEdges;" transform="matrix(1,0,0,1,0,0)" clip-path="url(#_1742905768487477clip-0)"/><g transform="matrix(1,0,0,1,0,0)"><text x="866.73" y="715.52" style="fill: rgb(64,64,64); fill-opacity: 1.0; font-family: Tahoma; font-size: 12px;" clip-path="url(#_1742905768487477clip-0)">12</text></g><line x1="873.23" y1="701" x2="873.23" y2="699" style="stroke-width: 0.5;stroke: rgb(128,128,128);stroke-opacity: 1.0;stroke-linecap: square;shape-rendering:crispEdges;" transform="matrix(1,0,0,1,0,0)" clip-path="url(#_1742905768487477clip-0)"/><g transform="matrix(1,0,0,1,0,0)"><text x="900.08" y="715.52" style="fill: rgb(64,64,64); fill-opacity: 1.0; font-family: Tahoma; font-size: 12px;" clip-path="url(#_1742905768487477clip-0)">13</text></g><line x1="906.58" y1="701" x2="906.58" y2="699" style="stroke-width: 0.5;stroke: rgb(128,128,128);stroke-opacity: 1.0;stroke-linecap: square;shape-rendering:crispEdges;" transform="matrix(1,0,0,1,0,0)" clip-path="url(#_1742905768487477clip-0)"/><g transform="matrix(1,0,0,1,0,0)"><text x="933.43" y="715.52" style="fill: rgb(64,64,64); fill-opacity: 1.0; font-family: Tahoma; font-size: 12px;" clip-path="url(#_1742905768487477clip-0)">14</text></g><line x1="939.93" y1="701" x2="939.93" y2="699" style="stroke-width: 0.5;stroke: rgb(128,128,128);stroke-opacity: 1.0;stroke-linecap: square;shape-rendering:crispEdges;" transform="matrix(1,0,0,1,0,0)" clip-path="url(#_1742905768487477clip-0)"/><g transform="matrix(1,0,0,1,0,0)"><text x="966.77" y="715.52" style="fill: rgb(64,64,64); fill-opacity: 1.0; font-family: Tahoma; font-size: 12px;" clip-path="url(#_1742905768487477clip-0)">15</text></g><line x1="973.27" y1="701" x2="973.27" y2="699" style="stroke-width: 0.5;stroke: rgb(128,128,128);stroke-opacity: 1.0;stroke-linecap: square;shape-rendering:crispEdges;" transform="matrix(1,0,0,1,0,0)" clip-path="url(#_1742905768487477clip-0)"/><g transform="matrix(1,0,0,1,0,0)"><text x="1000.12" y="715.52" style="fill: rgb(64,64,64); fill-opacity: 1.0; font-family: Tahoma; font-size: 12px;" clip-path="url(#_1742905768487477clip-0)">16</text></g><line x1="1006.62" y1="701" x2="1006.62" y2="699" style="stroke-width: 0.5;stroke: rgb(128,128,128);stroke-opacity: 1.0;stroke-linecap: square;shape-rendering:crispEdges;" transform="matrix(1,0,0,1,0,0)" clip-path="url(#_1742905768487477clip-0)"/><g transform="matrix(1,0,0,1,0,0)"><text x="1033.46" y="715.52" style="fill: rgb(64,64,64); fill-opacity: 1.0; font-family: Tahoma; font-size: 12px;" clip-path="url(#_1742905768487477clip-0)">17</text></g><line x1="1039.96" y1="701" x2="1039.96" y2="699" style="stroke-width: 0.5;stroke: rgb(128,128,128);stroke-opacity: 1.0;stroke-linecap: square;shape-rendering:crispEdges;" transform="matrix(1,0,0,1,0,0)" clip-path="url(#_1742905768487477clip-0)"/><g transform="matrix(1,0,0,1,0,0)"><text x="1066.81" y="715.52" style="fill: rgb(64,64,64); fill-opacity: 1.0; font-family: Tahoma; font-size: 12px;" clip-path="url(#_1742905768487477clip-0)">18</text></g><line x1="1073.31" y1="701" x2="1073.31" y2="699" style="stroke-width: 0.5;stroke: rgb(128,128,128);stroke-opacity: 1.0;stroke-linecap: square;shape-rendering:crispEdges;" transform="matrix(1,0,0,1,0,0)" clip-path="url(#_1742905768487477clip-0)"/><g transform="matrix(1,0,0,1,0,0)"><text x="1100.15" y="715.52" style="fill: rgb(64,64,64); fill-opacity: 1.0; font-family: Tahoma; font-size: 12px;" clip-path="url(#_1742905768487477clip-0)">19</text></g><line x1="1106.65" y1="701" x2="1106.65" y2="699" style="stroke-width: 0.5;stroke: rgb(128,128,128);stroke-opacity: 1.0;stroke-linecap: square;shape-rendering:crispEdges;" transform="matrix(1,0,0,1,0,0)" clip-path="url(#_1742905768487477clip-0)"/><g transform="matrix(1,0,0,1,0,0)"><text x="560" y="734.59" style="fill: rgb(64,64,64); fill-opacity: 1.0; font-family: Tahoma; font-size: 14px; font-weight: bold;" clip-path="url(#_1742905768487477clip-0)">alpha_b (deg)</text></g><line x1="75" y1="35" x2="75" y2="695" style="stroke-width: 0.5;stroke: rgb(128,128,128);stroke-opacity: 1.0;stroke-linecap: square;shape-rendering:crispEdges;" transform="matrix(1,0,0,1,0,0)" clip-path="url(#_1742905768487477clip-0)"/><g transform="matrix(1,0,0,1,0,0)"><text x="33" y="657.58" style="fill: rgb(64,64,64); fill-opacity: 1.0; font-family: Tahoma; font-size: 12px;" clip-path="url(#_1742905768487477clip-0)">0,0010</text></g><line x1="73" y1="652.56" x2="75" y2="652.56" style="stroke-width: 0.5;stroke: rgb(128,128,128);stroke-opacity: 1.0;stroke-linecap: square;shape-rendering:crispEdges;" transform="matrix(1,0,0,1,0,0)" clip-path="url(#_1742905768487477clip-0)"/><g transform="matrix(1,0,0,1,0,0)"><text x="33" y="612.99" style="fill: rgb(64,64,64); fill-opacity: 1.0; font-family: Tahoma; font-size: 12px;" clip-path="url(#_1742905768487477clip-0)">0,0015</text></g><line x1="73" y1="607.97" x2="75" y2="607.97" style="stroke-width: 0.5;stroke: rgb(128,128,128);stroke-opacity: 1.0;stroke-linecap: square;shape-rendering:crispEdges;" transform="matrix(1,0,0,1,0,0)" clip-path="url(#_1742905768487477clip-0)"/><g transform="matrix(1,0,0,1,0,0)"><text x="33" y="568.39" style="fill: rgb(64,64,64); fill-opacity: 1.0; font-family: Tahoma; font-size: 12px;" clip-path="url(#_1742905768487477clip-0)">0,0020</text></g><line x1="73" y1="563.37" x2="75" y2="563.37" style="stroke-width: 0.5;stroke: rgb(128,128,128);stroke-opacity: 1.0;stroke-linecap: square;shape-rendering:crispEdges;" transform="matrix(1,0,0,1,0,0)" clip-path="url(#_1742905768487477clip-0)"/><g transform="matrix(1,0,0,1,0,0)"><text x="33" y="523.8" style="fill: rgb(64,64,64); fill-opacity: 1.0; font-family: Tahoma; font-size: 12px;" clip-path="url(#_1742905768487477clip-0)">0,0025</text></g><line x1="73" y1="518.78" x2="75" y2="518.78" style="stroke-width: 0.5;stroke: rgb(128,128,128);stroke-opacity: 1.0;stroke-linecap: square;shape-rendering:crispEdges;" transform="matrix(1,0,0,1,0,0)" clip-path="url(#_1742905768487477clip-0)"/><g transform="matrix(1,0,0,1,0,0)"><text x="33" y="479.2" style="fill: rgb(64,64,64); fill-opacity: 1.0; font-family: Tahoma; font-size: 12px;" clip-path="url(#_1742905768487477clip-0)">0,0030</text></g><line x1="73" y1="474.18" x2="75" y2="474.18" style="stroke-width: 0.5;stroke: rgb(128,128,128);stroke-opacity: 1.0;stroke-linecap: square;shape-rendering:crispEdges;" transform="matrix(1,0,0,1,0,0)" clip-path="url(#_1742905768487477clip-0)"/><g transform="matrix(1,0,0,1,0,0)"><text x="33" y="434.61" style="fill: rgb(64,64,64); fill-opacity: 1.0; font-family: Tahoma; font-size: 12px;" clip-path="url(#_1742905768487477clip-0)">0,0035</text></g><line x1="73" y1="429.59" x2="75" y2="429.59" style="stroke-width: 0.5;stroke: rgb(128,128,128);stroke-opacity: 1.0;stroke-linecap: square;shape-rendering:crispEdges;" transform="matrix(1,0,0,1,0,0)" clip-path="url(#_1742905768487477clip-0)"/><g transform="matrix(1,0,0,1,0,0)"><text x="33" y="390.01" style="fill: rgb(64,64,64); fill-opacity: 1.0; font-family: Tahoma; font-size: 12px;" clip-path="url(#_1742905768487477clip-0)">0,0040</text></g><line x1="73" y1="384.99" x2="75" y2="384.99" style="stroke-width: 0.5;stroke: rgb(128,128,128);stroke-opacity: 1.0;stroke-linecap: square;shape-rendering:crispEdges;" transform="matrix(1,0,0,1,0,0)" clip-path="url(#_1742905768487477clip-0)"/><g transform="matrix(1,0,0,1,0,0)"><text x="33" y="345.42" style="fill: rgb(64,64,64); fill-opacity: 1.0; font-family: Tahoma; font-size: 12px;" clip-path="url(#_1742905768487477clip-0)">0,0045</text></g><line x1="73" y1="340.4" x2="75" y2="340.4" style="stroke-width: 0.5;stroke: rgb(128,128,128);stroke-opacity: 1.0;stroke-linecap: square;shape-rendering:crispEdges;" transform="matrix(1,0,0,1,0,0)" clip-path="url(#_1742905768487477clip-0)"/><g transform="matrix(1,0,0,1,0,0)"><text x="33" y="300.82" style="fill: rgb(64,64,64); fill-opacity: 1.0; font-family: Tahoma; font-size: 12px;" clip-path="url(#_1742905768487477clip-0)">0,0050</text></g><line x1="73" y1="295.8" x2="75" y2="295.8" style="stroke-width: 0.5;stroke: rgb(128,128,128);stroke-opacity: 1.0;stroke-linecap: square;shape-rendering:crispEdges;" transform="matrix(1,0,0,1,0,0)" clip-path="url(#_1742905768487477clip-0)"/><g transform="matrix(1,0,0,1,0,0)"><text x="33" y="256.23" style="fill: rgb(64,64,64); fill-opacity: 1.0; font-family: Tahoma; font-size: 12px;" clip-path="url(#_1742905768487477clip-0)">0,0055</text></g><line x1="73" y1="251.21" x2="75" y2="251.21" style="stroke-width: 0.5;stroke: rgb(128,128,128);stroke-opacity: 1.0;stroke-linecap: square;shape-rendering:crispEdges;" transform="matrix(1,0,0,1,0,0)" clip-path="url(#_1742905768487477clip-0)"/><g transform="matrix(1,0,0,1,0,0)"><text x="33" y="211.64" style="fill: rgb(64,64,64); fill-opacity: 1.0; font-family: Tahoma; font-size: 12px;" clip-path="url(#_1742905768487477clip-0)">0,0060</text></g><line x1="73" y1="206.61" x2="75" y2="206.61" style="stroke-width: 0.5;stroke: rgb(128,128,128);stroke-opacity: 1.0;stroke-linecap: square;shape-rendering:crispEdges;" transform="matrix(1,0,0,1,0,0)" clip-path="url(#_1742905768487477clip-0)"/><g transform="matrix(1,0,0,1,0,0)"><text x="33" y="167.04" style="fill: rgb(64,64,64); fill-opacity: 1.0; font-family: Tahoma; font-size: 12px;" clip-path="url(#_1742905768487477clip-0)">0,0065</text></g><line x1="73" y1="162.02" x2="75" y2="162.02" style="stroke-width: 0.5;stroke: rgb(128,128,128);stroke-opacity: 1.0;stroke-linecap: square;shape-rendering:crispEdges;" transform="matrix(1,0,0,1,0,0)" clip-path="url(#_1742905768487477clip-0)"/><g transform="matrix(1,0,0,1,0,0)"><text x="33" y="122.45" style="fill: rgb(64,64,64); fill-opacity: 1.0; font-family: Tahoma; font-size: 12px;" clip-path="url(#_1742905768487477clip-0)">0,0070</text></g><line x1="73" y1="117.42" x2="75" y2="117.42" style="stroke-width: 0.5;stroke: rgb(128,128,128);stroke-opacity: 1.0;stroke-linecap: square;shape-rendering:crispEdges;" transform="matrix(1,0,0,1,0,0)" clip-path="url(#_1742905768487477clip-0)"/><g transform="matrix(1,0,0,1,0,0)"><text x="33" y="77.85" style="fill: rgb(64,64,64); fill-opacity: 1.0; font-family: Tahoma; font-size: 12px;" clip-path="url(#_1742905768487477clip-0)">0,0075</text></g><line x1="73" y1="72.83" x2="75" y2="72.83" style="stroke-width: 0.5;stroke: rgb(128,128,128);stroke-opacity: 1.0;stroke-linecap: square;shape-rendering:crispEdges;" transform="matrix(1,0,0,1,0,0)" clip-path="url(#_1742905768487477clip-0)"/><g style="fill: rgb(64,64,64); fill-opacity: 1.0; stroke: none" transform="matrix(0,-1,1,0,-345.5,384.5)" clip-path="url(#_1742905768487477clip-1)"><path d="M 12.94 370.81 Q 10.66 370.81 9.3 369.42 Q 7.95 368.03 7.95 365.53 Q 7.95 363.11 9.3 361.67 Q 10.66 360.23 12.95 360.23 Q 13.56 360.23 14.05 360.3 Q 14.53 360.37 14.97 360.48 Q 15.33 360.59 15.73 360.77 Q 16.14 360.95 16.39 361.08 L 16.39 363.5 L 16.14 363.5 Q 15.95 363.34 15.67 363.12 Q 15.39 362.89 15.03 362.67 Q 14.67 362.45 14.25 362.3 Q 13.83 362.14 13.36 362.14 Q 12.81 362.14 12.34 362.31 Q 11.88 362.48 11.47 362.92 Q 11.08 363.31 10.84 363.98 Q 10.59 364.64 10.59 365.53 Q 10.59 366.48 10.85 367.13 Q 11.11 367.78 11.52 368.17 Q 11.91 368.56 12.4 368.73 Q 12.89 368.91 13.38 368.91 Q 13.88 368.91 14.34 368.73 Q 14.8 368.56 15.11 368.36 Q 15.45 368.14 15.71 367.92 Q 15.97 367.7 16.16 367.55 L 16.39 367.55 L 16.39 369.94 Q 16.11 370.06 15.74 370.23 Q 15.38 370.39 14.98 370.51 Q 14.5 370.66 14.09 370.73 Q 13.67 370.81 12.94 370.81 Z  M 26.99 365.53 Q 26.99 366.95 26.37 368.08 Q 25.75 369.2 24.8 369.8 Q 24 370.31 23.07 370.46 Q 22.14 370.61 21.08 370.61 L 17.89 370.61 L 17.89 360.44 L 21.06 360.44 Q 22.13 360.44 23.06 360.57 Q 24 360.7 24.83 361.23 Q 25.83 361.87 26.41 362.96 Q 26.99 364.05 26.99 365.53 Z  M 24.36 365.51 Q 24.36 364.5 24.02 363.79 Q 23.67 363.08 22.95 362.67 Q 22.44 362.39 21.87 362.36 Q 21.3 362.33 20.5 362.33 L 20.45 362.33 L 20.45 368.7 L 20.5 368.7 Q 21.36 368.7 21.95 368.67 Q 22.55 368.64 23.08 368.31 Q 23.7 367.91 24.03 367.21 Q 24.36 366.51 24.36 365.51 Z "/></g><line x1="106.28" y1="35" x2="106.28" y2="695" style="stroke-width: 0.5;stroke: rgb(192,192,192);stroke-opacity: 1.0;stroke-linejoin: bevel;stroke-dasharray: 2.0, 2.0;shape-rendering:crispEdges;" transform="matrix(1,0,0,1,0,0)" clip-path="url(#_1742905768487477clip-2)"/><line x1="139.63" y1="35" x2="139.63" y2="695" style="stroke-width: 0.5;stroke: rgb(192,192,192);stroke-opacity: 1.0;stroke-linejoin: bevel;stroke-dasharray: 2.0, 2.0;shape-rendering:crispEdges;" transform="matrix(1,0,0,1,0,0)" clip-path="url(#_1742905768487477clip-2)"/><line x1="172.97" y1="35" x2="172.97" y2="695" style="stroke-width: 0.5;stroke: rgb(192,192,192);stroke-opacity: 1.0;stroke-linejoin: bevel;stroke-dasharray: 2.0, 2.0;shape-rendering:crispEdges;" transform="matrix(1,0,0,1,0,0)" clip-path="url(#_1742905768487477clip-2)"/><line x1="206.32" y1="35" x2="206.32" y2="695" style="stroke-width: 0.5;stroke: rgb(192,192,192);stroke-opacity: 1.0;stroke-linejoin: bevel;stroke-dasharray: 2.0, 2.0;shape-rendering:crispEdges;" transform="matrix(1,0,0,1,0,0)" clip-path="url(#_1742905768487477clip-2)"/><line x1="239.67" y1="35" x2="239.67" y2="695" style="stroke-width: 0.5;stroke: rgb(192,192,192);stroke-opacity: 1.0;stroke-linejoin: bevel;stroke-dasharray: 2.0, 2.0;shape-rendering:crispEdges;" transform="matrix(1,0,0,1,0,0)" clip-path="url(#_1742905768487477clip-2)"/><line x1="273.01" y1="35" x2="273.01" y2="695" style="stroke-width: 0.5;stroke: rgb(192,192,192);stroke-opacity: 1.0;stroke-linejoin: bevel;stroke-dasharray: 2.0, 2.0;shape-rendering:crispEdges;" transform="matrix(1,0,0,1,0,0)" clip-path="url(#_1742905768487477clip-2)"/><line x1="306.36" y1="35" x2="306.36" y2="695" style="stroke-width: 0.5;stroke: rgb(192,192,192);stroke-opacity: 1.0;stroke-linejoin: bevel;stroke-dasharray: 2.0, 2.0;shape-rendering:crispEdges;" transform="matrix(1,0,0,1,0,0)" clip-path="url(#_1742905768487477clip-2)"/><line x1="339.7" y1="35" x2="339.7" y2="695" style="stroke-width: 0.5;stroke: rgb(192,192,192);stroke-opacity: 1.0;stroke-linejoin: bevel;stroke-dasharray: 2.0, 2.0;shape-rendering:crispEdges;" transform="matrix(1,0,0,1,0,0)" clip-path="url(#_1742905768487477clip-2)"/><line x1="373.05" y1="35" x2="373.05" y2="695" style="stroke-width: 0.5;stroke: rgb(192,192,192);stroke-opacity: 1.0;stroke-linejoin: bevel;stroke-dasharray: 2.0, 2.0;shape-rendering:crispEdges;" transform="matrix(1,0,0,1,0,0)" clip-path="url(#_1742905768487477clip-2)"/><line x1="406.39" y1="35" x2="406.39" y2="695" style="stroke-width: 0.5;stroke: rgb(192,192,192);stroke-opacity: 1.0;stroke-linejoin: bevel;stroke-dasharray: 2.0, 2.0;shape-rendering:crispEdges;" transform="matrix(1,0,0,1,0,0)" clip-path="url(#_1742905768487477clip-2)"/><line x1="439.74" y1="35" x2="439.74" y2="695" style="stroke-width: 0.5;stroke: rgb(192,192,192);stroke-opacity: 1.0;stroke-linejoin: bevel;stroke-dasharray: 2.0, 2.0;shape-rendering:crispEdges;" transform="matrix(1,0,0,1,0,0)" clip-path="url(#_1742905768487477clip-2)"/><line x1="473.09" y1="35" x2="473.09" y2="695" style="stroke-width: 0.5;stroke: rgb(192,192,192);stroke-opacity: 1.0;stroke-linejoin: bevel;stroke-dasharray: 2.0, 2.0;shape-rendering:crispEdges;" transform="matrix(1,0,0,1,0,0)" clip-path="url(#_1742905768487477clip-2)"/><line x1="506.43" y1="35" x2="506.43" y2="695" style="stroke-width: 0.5;stroke: rgb(192,192,192);stroke-opacity: 1.0;stroke-linejoin: bevel;stroke-dasharray: 2.0, 2.0;shape-rendering:crispEdges;" transform="matrix(1,0,0,1,0,0)" clip-path="url(#_1742905768487477clip-2)"/><line x1="539.78" y1="35" x2="539.78" y2="695" style="stroke-width: 0.5;stroke: rgb(192,192,192);stroke-opacity: 1.0;stroke-linejoin: bevel;stroke-dasharray: 2.0, 2.0;shape-rendering:crispEdges;" transform="matrix(1,0,0,1,0,0)" clip-path="url(#_1742905768487477clip-2)"/><line x1="573.12" y1="35" x2="573.12" y2="695" style="stroke-width: 0.5;stroke: rgb(192,192,192);stroke-opacity: 1.0;stroke-linejoin: bevel;stroke-dasharray: 2.0, 2.0;shape-rendering:crispEdges;" transform="matrix(1,0,0,1,0,0)" clip-path="url(#_1742905768487477clip-2)"/><line x1="606.47" y1="35" x2="606.47" y2="695" style="stroke-width: 0.5;stroke: rgb(192,192,192);stroke-opacity: 1.0;stroke-linejoin: bevel;stroke-dasharray: 2.0, 2.0;shape-rendering:crispEdges;" transform="matrix(1,0,0,1,0,0)" clip-path="url(#_1742905768487477clip-2)"/><line x1="639.81" y1="35" x2="639.81" y2="695" style="stroke-width: 0.5;stroke: rgb(192,192,192);stroke-opacity: 1.0;stroke-linejoin: bevel;stroke-dasharray: 2.0, 2.0;shape-rendering:crispEdges;" transform="matrix(1,0,0,1,0,0)" clip-path="url(#_1742905768487477clip-2)"/><line x1="673.16" y1="35" x2="673.16" y2="695" style="stroke-width: 0.5;stroke: rgb(192,192,192);stroke-opacity: 1.0;stroke-linejoin: bevel;stroke-dasharray: 2.0, 2.0;shape-rendering:crispEdges;" transform="matrix(1,0,0,1,0,0)" clip-path="url(#_1742905768487477clip-2)"/><line x1="706.51" y1="35" x2="706.51" y2="695" style="stroke-width: 0.5;stroke: rgb(192,192,192);stroke-opacity: 1.0;stroke-linejoin: bevel;stroke-dasharray: 2.0, 2.0;shape-rendering:crispEdges;" transform="matrix(1,0,0,1,0,0)" clip-path="url(#_1742905768487477clip-2)"/><line x1="739.85" y1="35" x2="739.85" y2="695" style="stroke-width: 0.5;stroke: rgb(192,192,192);stroke-opacity: 1.0;stroke-linejoin: bevel;stroke-dasharray: 2.0, 2.0;shape-rendering:crispEdges;" transform="matrix(1,0,0,1,0,0)" clip-path="url(#_1742905768487477clip-2)"/><line x1="773.2" y1="35" x2="773.2" y2="695" style="stroke-width: 0.5;stroke: rgb(192,192,192);stroke-opacity: 1.0;stroke-linejoin: bevel;stroke-dasharray: 2.0, 2.0;shape-rendering:crispEdges;" transform="matrix(1,0,0,1,0,0)" clip-path="url(#_1742905768487477clip-2)"/><line x1="806.54" y1="35" x2="806.54" y2="695" style="stroke-width: 0.5;stroke: rgb(192,192,192);stroke-opacity: 1.0;stroke-linejoin: bevel;stroke-dasharray: 2.0, 2.0;shape-rendering:crispEdges;" transform="matrix(1,0,0,1,0,0)" clip-path="url(#_1742905768487477clip-2)"/><line x1="839.89" y1="35" x2="839.89" y2="695" style="stroke-width: 0.5;stroke: rgb(192,192,192);stroke-opacity: 1.0;stroke-linejoin: bevel;stroke-dasharray: 2.0, 2.0;shape-rendering:crispEdges;" transform="matrix(1,0,0,1,0,0)" clip-path="url(#_1742905768487477clip-2)"/><line x1="873.23" y1="35" x2="873.23" y2="695" style="stroke-width: 0.5;stroke: rgb(192,192,192);stroke-opacity: 1.0;stroke-linejoin: bevel;stroke-dasharray: 2.0, 2.0;shape-rendering:crispEdges;" transform="matrix(1,0,0,1,0,0)" clip-path="url(#_1742905768487477clip-2)"/><line x1="906.58" y1="35" x2="906.58" y2="695" style="stroke-width: 0.5;stroke: rgb(192,192,192);stroke-opacity: 1.0;stroke-linejoin: bevel;stroke-dasharray: 2.0, 2.0;shape-rendering:crispEdges;" transform="matrix(1,0,0,1,0,0)" clip-path="url(#_1742905768487477clip-2)"/><line x1="939.93" y1="35" x2="939.93" y2="695" style="stroke-width: 0.5;stroke: rgb(192,192,192);stroke-opacity: 1.0;stroke-linejoin: bevel;stroke-dasharray: 2.0, 2.0;shape-rendering:crispEdges;" transform="matrix(1,0,0,1,0,0)" clip-path="url(#_1742905768487477clip-2)"/><line x1="973.27" y1="35" x2="973.27" y2="695" style="stroke-width: 0.5;stroke: rgb(192,192,192);stroke-opacity: 1.0;stroke-linejoin: bevel;stroke-dasharray: 2.0, 2.0;shape-rendering:crispEdges;" transform="matrix(1,0,0,1,0,0)" clip-path="url(#_1742905768487477clip-2)"/><line x1="1006.62" y1="35" x2="1006.62" y2="695" style="stroke-width: 0.5;stroke: rgb(192,192,192);stroke-opacity: 1.0;stroke-linejoin: bevel;stroke-dasharray: 2.0, 2.0;shape-rendering:crispEdges;" transform="matrix(1,0,0,1,0,0)" clip-path="url(#_1742905768487477clip-2)"/><line x1="1039.96" y1="35" x2="1039.96" y2="695" style="stroke-width: 0.5;stroke: rgb(192,192,192);stroke-opacity: 1.0;stroke-linejoin: bevel;stroke-dasharray: 2.0, 2.0;shape-rendering:crispEdges;" transform="matrix(1,0,0,1,0,0)" clip-path="url(#_1742905768487477clip-2)"/><line x1="1073.31" y1="35" x2="1073.31" y2="695" style="stroke-width: 0.5;stroke: rgb(192,192,192);stroke-opacity: 1.0;stroke-linejoin: bevel;stroke-dasharray: 2.0, 2.0;shape-rendering:crispEdges;" transform="matrix(1,0,0,1,0,0)" clip-path="url(#_1742905768487477clip-2)"/><line x1="1106.65" y1="35" x2="1106.65" y2="695" style="stroke-width: 0.5;stroke: rgb(192,192,192);stroke-opacity: 1.0;stroke-linejoin: bevel;stroke-dasharray: 2.0, 2.0;shape-rendering:crispEdges;" transform="matrix(1,0,0,1,0,0)" clip-path="url(#_1742905768487477clip-2)"/><line x1="79" y1="652.56" x2="1140" y2="652.56" style="stroke-width: 0.5;stroke: rgb(192,192,192);stroke-opacity: 1.0;stroke-linejoin: bevel;stroke-dasharray: 2.0, 2.0;shape-rendering:crispEdges;" transform="matrix(1,0,0,1,0,0)" clip-path="url(#_1742905768487477clip-2)"/><line x1="79" y1="607.97" x2="1140" y2="607.97" style="stroke-width: 0.5;stroke: rgb(192,192,192);stroke-opacity: 1.0;stroke-linejoin: bevel;stroke-dasharray: 2.0, 2.0;shape-rendering:crispEdges;" transform="matrix(1,0,0,1,0,0)" clip-path="url(#_1742905768487477clip-2)"/><line x1="79" y1="563.37" x2="1140" y2="563.37" style="stroke-width: 0.5;stroke: rgb(192,192,192);stroke-opacity: 1.0;stroke-linejoin: bevel;stroke-dasharray: 2.0, 2.0;shape-rendering:crispEdges;" transform="matrix(1,0,0,1,0,0)" clip-path="url(#_1742905768487477clip-2)"/><line x1="79" y1="518.78" x2="1140" y2="518.78" style="stroke-width: 0.5;stroke: rgb(192,192,192);stroke-opacity: 1.0;stroke-linejoin: bevel;stroke-dasharray: 2.0, 2.0;shape-rendering:crispEdges;" transform="matrix(1,0,0,1,0,0)" clip-path="url(#_1742905768487477clip-2)"/><line x1="79" y1="474.18" x2="1140" y2="474.18" style="stroke-width: 0.5;stroke: rgb(192,192,192);stroke-opacity: 1.0;stroke-linejoin: bevel;stroke-dasharray: 2.0, 2.0;shape-rendering:crispEdges;" transform="matrix(1,0,0,1,0,0)" clip-path="url(#_1742905768487477clip-2)"/><line x1="79" y1="429.59" x2="1140" y2="429.59" style="stroke-width: 0.5;stroke: rgb(192,192,192);stroke-opacity: 1.0;stroke-linejoin: bevel;stroke-dasharray: 2.0, 2.0;shape-rendering:crispEdges;" transform="matrix(1,0,0,1,0,0)" clip-path="url(#_1742905768487477clip-2)"/><line x1="79" y1="384.99" x2="1140" y2="384.99" style="stroke-width: 0.5;stroke: rgb(192,192,192);stroke-opacity: 1.0;stroke-linejoin: bevel;stroke-dasharray: 2.0, 2.0;shape-rendering:crispEdges;" transform="matrix(1,0,0,1,0,0)" clip-path="url(#_1742905768487477clip-2)"/><line x1="79" y1="340.4" x2="1140" y2="340.4" style="stroke-width: 0.5;stroke: rgb(192,192,192);stroke-opacity: 1.0;stroke-linejoin: bevel;stroke-dasharray: 2.0, 2.0;shape-rendering:crispEdges;" transform="matrix(1,0,0,1,0,0)" clip-path="url(#_1742905768487477clip-2)"/><line x1="79" y1="295.8" x2="1140" y2="295.8" style="stroke-width: 0.5;stroke: rgb(192,192,192);stroke-opacity: 1.0;stroke-linejoin: bevel;stroke-dasharray: 2.0, 2.0;shape-rendering:crispEdges;" transform="matrix(1,0,0,1,0,0)" clip-path="url(#_1742905768487477clip-2)"/><line x1="79" y1="251.21" x2="1140" y2="251.21" style="stroke-width: 0.5;stroke: rgb(192,192,192);stroke-opacity: 1.0;stroke-linejoin: bevel;stroke-dasharray: 2.0, 2.0;shape-rendering:crispEdges;" transform="matrix(1,0,0,1,0,0)" clip-path="url(#_1742905768487477clip-2)"/><line x1="79" y1="206.61" x2="1140" y2="206.61" style="stroke-width: 0.5;stroke: rgb(192,192,192);stroke-opacity: 1.0;stroke-linejoin: bevel;stroke-dasharray: 2.0, 2.0;shape-rendering:crispEdges;" transform="matrix(1,0,0,1,0,0)" clip-path="url(#_1742905768487477clip-2)"/><line x1="79" y1="162.02" x2="1140" y2="162.02" style="stroke-width: 0.5;stroke: rgb(192,192,192);stroke-opacity: 1.0;stroke-linejoin: bevel;stroke-dasharray: 2.0, 2.0;shape-rendering:crispEdges;" transform="matrix(1,0,0,1,0,0)" clip-path="url(#_1742905768487477clip-2)"/><line x1="79" y1="117.42" x2="1140" y2="117.42" style="stroke-width: 0.5;stroke: rgb(192,192,192);stroke-opacity: 1.0;stroke-linejoin: bevel;stroke-dasharray: 2.0, 2.0;shape-rendering:crispEdges;" transform="matrix(1,0,0,1,0,0)" clip-path="url(#_1742905768487477clip-2)"/><line x1="79" y1="72.83" x2="1140" y2="72.83" style="stroke-width: 0.5;stroke: rgb(192,192,192);stroke-opacity: 1.0;stroke-linejoin: bevel;stroke-dasharray: 2.0, 2.0;shape-rendering:crispEdges;" transform="matrix(1,0,0,1,0,0)" clip-path="url(#_1742905768487477clip-2)"/><line x1="139.63" y1="567.13" x2="169.94" y2="580.08" style="stroke-width: 3.0;stroke: rgb(0,0,0);stroke-opacity: 1.0;stroke-linecap: square;shape-rendering:geometricPrecision;" transform="matrix(1,0,0,1,0,0)" clip-path="url(#_1742905768487477clip-2)"/><line x1="169.94" y1="580.08" x2="200.26" y2="591.75" style="stroke-width: 3.0;stroke: rgb(0,0,0);stroke-opacity: 1.0;stroke-linecap: square;shape-rendering:geometricPrecision;" transform="matrix(1,0,0,1,0,0)" clip-path="url(#_1742905768487477clip-2)"/><line x1="200.26" y1="591.75" x2="230.57" y2="602.05" style="stroke-width: 3.0;stroke: rgb(0,0,0);stroke-opacity: 1.0;stroke-linecap: square;shape-rendering:geometricPrecision;" transform="matrix(1,0,0,1,0,0)" clip-path="url(#_1742905768487477clip-2)"/><line x1="230.57" y1="602.05" x2="260.89" y2="610.88" style="stroke-width: 3.0;stroke: rgb(0,0,0);stroke-opacity: 1.0;stroke-linecap: square;shape-rendering:geometricPrecision;" transform="matrix(1,0,0,1,0,0)" clip-path="url(#_1742905768487477clip-2)"/><line x1="260.89" y1="610.88" x2="291.2" y2="618.18" style="stroke-width: 3.0;stroke: rgb(0,0,0);stroke-opacity: 1.0;stroke-linecap: square;shape-rendering:geometricPrecision;" transform="matrix(1,0,0,1,0,0)" clip-path="url(#_1742905768487477clip-2)"/><line x1="291.2" y1="618.18" x2="321.51" y2="623.87" style="stroke-width: 3.0;stroke: rgb(0,0,0);stroke-opacity: 1.0;stroke-linecap: square;shape-rendering:geometricPrecision;" transform="matrix(1,0,0,1,0,0)" clip-path="url(#_1742905768487477clip-2)"/><line x1="321.51" y1="623.87" x2="351.83" y2="627.9" style="stroke-width: 3.0;stroke: rgb(0,0,0);stroke-opacity: 1.0;stroke-linecap: square;shape-rendering:geometricPrecision;" transform="matrix(1,0,0,1,0,0)" clip-path="url(#_1742905768487477clip-2)"/><line x1="351.83" y1="627.9" x2="382.14" y2="630.21" style="stroke-width: 3.0;stroke: rgb(0,0,0);stroke-opacity: 1.0;stroke-linecap: square;shape-rendering:geometricPrecision;" transform="matrix(1,0,0,1,0,0)" clip-path="url(#_1742905768487477clip-2)"/><line x1="382.14" y1="630.21" x2="412.46" y2="630.75" style="stroke-width: 3.0;stroke: rgb(0,0,0);stroke-opacity: 1.0;stroke-linecap: square;shape-rendering:geometricPrecision;" transform="matrix(1,0,0,1,0,0)" clip-path="url(#_1742905768487477clip-2)"/><line x1="412.46" y1="630.75" x2="442.77" y2="629.47" style="stroke-width: 3.0;stroke: rgb(0,0,0);stroke-opacity: 1.0;stroke-linecap: square;shape-rendering:geometricPrecision;" transform="matrix(1,0,0,1,0,0)" clip-path="url(#_1742905768487477clip-2)"/><line x1="442.77" y1="629.47" x2="473.09" y2="626.32" style="stroke-width: 3.0;stroke: rgb(0,0,0);stroke-opacity: 1.0;stroke-linecap: square;shape-rendering:geometricPrecision;" transform="matrix(1,0,0,1,0,0)" clip-path="url(#_1742905768487477clip-2)"/><line x1="473.09" y1="626.32" x2="503.4" y2="621.26" style="stroke-width: 3.0;stroke: rgb(0,0,0);stroke-opacity: 1.0;stroke-linecap: square;shape-rendering:geometricPrecision;" transform="matrix(1,0,0,1,0,0)" clip-path="url(#_1742905768487477clip-2)"/><line x1="503.4" y1="621.26" x2="533.71" y2="614.24" style="stroke-width: 3.0;stroke: rgb(0,0,0);stroke-opacity: 1.0;stroke-linecap: square;shape-rendering:geometricPrecision;" transform="matrix(1,0,0,1,0,0)" clip-path="url(#_1742905768487477clip-2)"/><line x1="533.71" y1="614.24" x2="564.03" y2="605.22" style="stroke-width: 3.0;stroke: rgb(0,0,0);stroke-opacity: 1.0;stroke-linecap: square;shape-rendering:geometricPrecision;" transform="matrix(1,0,0,1,0,0)" clip-path="url(#_1742905768487477clip-2)"/><line x1="564.03" y1="605.22" x2="594.34" y2="594.15" style="stroke-width: 3.0;stroke: rgb(0,0,0);stroke-opacity: 1.0;stroke-linecap: square;shape-rendering:geometricPrecision;" transform="matrix(1,0,0,1,0,0)" clip-path="url(#_1742905768487477clip-2)"/><line x1="594.34" y1="594.15" x2="624.66" y2="580.99" style="stroke-width: 3.0;stroke: rgb(0,0,0);stroke-opacity: 1.0;stroke-linecap: square;shape-rendering:geometricPrecision;" transform="matrix(1,0,0,1,0,0)" clip-path="url(#_1742905768487477clip-2)"/><line x1="624.66" y1="580.99" x2="654.97" y2="565.69" style="stroke-width: 3.0;stroke: rgb(0,0,0);stroke-opacity: 1.0;stroke-linecap: square;shape-rendering:geometricPrecision;" transform="matrix(1,0,0,1,0,0)" clip-path="url(#_1742905768487477clip-2)"/><line x1="654.97" y1="565.69" x2="685.29" y2="548.2" style="stroke-width: 3.0;stroke: rgb(0,0,0);stroke-opacity: 1.0;stroke-linecap: square;shape-rendering:geometricPrecision;" transform="matrix(1,0,0,1,0,0)" clip-path="url(#_1742905768487477clip-2)"/><line x1="685.29" y1="548.2" x2="715.6" y2="528.48" style="stroke-width: 3.0;stroke: rgb(0,0,0);stroke-opacity: 1.0;stroke-linecap: square;shape-rendering:geometricPrecision;" transform="matrix(1,0,0,1,0,0)" clip-path="url(#_1742905768487477clip-2)"/><line x1="715.6" y1="528.48" x2="745.91" y2="506.48" style="stroke-width: 3.0;stroke: rgb(0,0,0);stroke-opacity: 1.0;stroke-linecap: square;shape-rendering:geometricPrecision;" transform="matrix(1,0,0,1,0,0)" clip-path="url(#_1742905768487477clip-2)"/><line x1="745.91" y1="506.48" x2="776.23" y2="482.14" style="stroke-width: 3.0;stroke: rgb(0,0,0);stroke-opacity: 1.0;stroke-linecap: square;shape-rendering:geometricPrecision;" transform="matrix(1,0,0,1,0,0)" clip-path="url(#_1742905768487477clip-2)"/><line x1="776.23" y1="482.14" x2="806.54" y2="455.43" style="stroke-width: 3.0;stroke: rgb(0,0,0);stroke-opacity: 1.0;stroke-linecap: square;shape-rendering:geometricPrecision;" transform="matrix(1,0,0,1,0,0)" clip-path="url(#_1742905768487477clip-2)"/><line x1="806.54" y1="455.43" x2="836.86" y2="426.28" style="stroke-width: 3.0;stroke: rgb(0,0,0);stroke-opacity: 1.0;stroke-linecap: square;shape-rendering:geometricPrecision;" transform="matrix(1,0,0,1,0,0)" clip-path="url(#_1742905768487477clip-2)"/><line x1="836.86" y1="426.28" x2="867.17" y2="394.64" style="stroke-width: 3.0;stroke: rgb(0,0,0);stroke-opacity: 1.0;stroke-linecap: square;shape-rendering:geometricPrecision;" transform="matrix(1,0,0,1,0,0)" clip-path="url(#_1742905768487477clip-2)"/><line x1="867.17" y1="394.64" x2="897.49" y2="360.47" style="stroke-width: 3.0;stroke: rgb(0,0,0);stroke-opacity: 1.0;stroke-linecap: square;shape-rendering:geometricPrecision;" transform="matrix(1,0,0,1,0,0)" clip-path="url(#_1742905768487477clip-2)"/><line x1="897.49" y1="360.47" x2="927.8" y2="323.72" style="stroke-width: 3.0;stroke: rgb(0,0,0);stroke-opacity: 1.0;stroke-linecap: square;shape-rendering:geometricPrecision;" transform="matrix(1,0,0,1,0,0)" clip-path="url(#_1742905768487477clip-2)"/><line x1="927.8" y1="323.72" x2="958.11" y2="284.32" style="stroke-width: 3.0;stroke: rgb(0,0,0);stroke-opacity: 1.0;stroke-linecap: square;shape-rendering:geometricPrecision;" transform="matrix(1,0,0,1,0,0)" clip-path="url(#_1742905768487477clip-2)"/><line x1="958.11" y1="284.32" x2="988.43" y2="242.22" style="stroke-width: 3.0;stroke: rgb(0,0,0);stroke-opacity: 1.0;stroke-linecap: square;shape-rendering:geometricPrecision;" transform="matrix(1,0,0,1,0,0)" clip-path="url(#_1742905768487477clip-2)"/><line x1="988.43" y1="242.22" x2="1018.74" y2="197.38" style="stroke-width: 3.0;stroke: rgb(0,0,0);stroke-opacity: 1.0;stroke-linecap: square;shape-rendering:geometricPrecision;" transform="matrix(1,0,0,1,0,0)" clip-path="url(#_1742905768487477clip-2)"/><line x1="1018.74" y1="197.38" x2="1049.06" y2="149.74" style="stroke-width: 3.0;stroke: rgb(0,0,0);stroke-opacity: 1.0;stroke-linecap: square;shape-rendering:geometricPrecision;" transform="matrix(1,0,0,1,0,0)" clip-path="url(#_1742905768487477clip-2)"/><line x1="1049.06" y1="149.74" x2="1079.37" y2="99.25" style="stroke-width: 3.0;stroke: rgb(0,0,0);stroke-opacity: 1.0;stroke-linecap: square;shape-rendering:geometricPrecision;" transform="matrix(1,0,0,1,0,0)" clip-path="url(#_1742905768487477clip-2)"/><rect x="79" y="35" width="1061" height="660" style="stroke-width: 0.5;stroke: rgb(0,0,0);stroke-opacity: 1.0;stroke-linecap: round;stroke-linejoin: round;shape-rendering:crispEdges;; fill: none" transform="matrix(1,0,0,1,0,0)" clip-path="url(#_1742905768487477clip-0)"/></svg>
