<!DOCTYPE svg PUBLIC "-//W3C//DTD SVG 1.1//EN" "http://www.w3.org/Graphics/SVG/1.1/DTD/svg11.dtd">
<svg xmlns="http://www.w3.org/2000/svg" xmlns:xlink="http://www.w3.org/1999/xlink" xmlns:jfreesvg="http://www.jfree.org/jfreesvg/svg" width="1152" height="768" text-rendering="auto" shape-rendering="auto">
<defs><clipPath id="_1972757504243200clip-0"><path d="M 0 0 L 1152 0 L 1152 768 L 0 768 L 0 0 Z "/></clipPath>
<clipPath id="_1972757504243200clip-1"><path d="M 384.5 345.5 L 384.5 1497.5 L -383.5 1497.5 L -383.5 345.5 L 384.5 345.5 Z "/></clipPath>
<clipPath id="_1972757504243200clip-2"><path d="M 64 35 L 64 695 L 1140 695 L 1140 35 Z "/></clipPath>
</defs>
<rect x="0" y="0" width="1152" height="768" style="fill: rgb(255,255,255); fill-opacity: 1.0" transform="matrix(1,0,0,1,0,0)" clip-path="url(#_1972757504243200clip-0)"/><g transform="matrix(1,0,0,1,0,0)"><text x="405" y="21.01" style="fill: rgb(0,0,0); fill-opacity: 1.0; font-family: Tahoma; font-size: 20px; font-weight: bold;" clip-path="url(#_1972757504243200clip-0)">Polar_Curve_Clean_Configuration</text></g><rect x="472" y="746" width="208" height="21" style="fill: rgb(255,255,255); fill-opacity: 1.0" transform="matrix(1,0,0,1,0,0)" clip-path="url(#_1972757504243200clip-0)"/><g style="stroke-width: 3.0;stroke: rgb(0,0,0);stroke-opacity: 1.0;stroke-linecap: square;shape-rendering:geometricPrecision;; fill: none" transform="matrix(1,0,0,1,0,0)" clip-path="url(#_1972757504243200clip-0)"><path d="M 475 756.5 L 489 756.5"/></g><g transform="matrix(1,0,0,1,0,0)"><text x="493" y="761.01" style="fill: rgb(64,64,64); fill-opacity: 1.0; font-family: Tahoma; font-size: 12px;" clip-path="url(#_1972757504243200clip-0)"> Polar_Curve_Clean_Configuration </text></g><rect x="64" y="35" width="1076" height="660" style="fill: rgb(255,255,255); fill-opacity: 0.0" transform="matrix(1,0,0,1,0,0)" clip-path="url(#_1972757504243200clip-0)"/><line x1="64" y1="699" x2="1140" y2="699" style="stroke-width: 0.5;stroke: rgb(128,128,128);stroke-opacity: 1.0;stroke-linecap: square;shape-rendering:crispEdges;" transform="matrix(1,0,0,1,0,0)" clip-path="url(#_1972757504243200clip-0)"/><g transform="matrix(1,0,0,1,0,0)"><text x="80.34" y="715.52" style="fill: rgb(64,64,64); fill-opacity: 1.0; font-family: Tahoma; font-size: 12px;" clip-path="url(#_1972757504243200clip-0)">0,0180</text></g><line x1="98.34" y1="701" x2="98.34" y2="699" style="stroke-width: 0.5;stroke: rgb(128,128,128);stroke-opacity: 1.0;stroke-linecap: square;shape-rendering:crispEdges;" transform="matrix(1,0,0,1,0,0)" clip-path="url(#_1972757504243200clip-0)"/><g transform="matrix(1,0,0,1,0,0)"><text x="164.22" y="715.52" style="fill: rgb(64,64,64); fill-opacity: 1.0; font-family: Tahoma; font-size: 12px;" clip-path="url(#_1972757504243200clip-0)">0,0185</text></g><line x1="182.22" y1="701" x2="182.22" y2="699" style="stroke-width: 0.5;stroke: rgb(128,128,128);stroke-opacity: 1.0;stroke-linecap: square;shape-rendering:crispEdges;" transform="matrix(1,0,0,1,0,0)" clip-path="url(#_1972757504243200clip-0)"/><g transform="matrix(1,0,0,1,0,0)"><text x="248.11" y="715.52" style="fill: rgb(64,64,64); fill-opacity: 1.0; font-family: Tahoma; font-size: 12px;" clip-path="url(#_1972757504243200clip-0)">0,0190</text></g><line x1="266.11" y1="701" x2="266.11" y2="699" style="stroke-width: 0.5;stroke: rgb(128,128,128);stroke-opacity: 1.0;stroke-linecap: square;shape-rendering:crispEdges;" transform="matrix(1,0,0,1,0,0)" clip-path="url(#_1972757504243200clip-0)"/><g transform="matrix(1,0,0,1,0,0)"><text x="332" y="715.52" style="fill: rgb(64,64,64); fill-opacity: 1.0; font-family: Tahoma; font-size: 12px;" clip-path="url(#_1972757504243200clip-0)">0,0195</text></g><line x1="350" y1="701" x2="350" y2="699" style="stroke-width: 0.5;stroke: rgb(128,128,128);stroke-opacity: 1.0;stroke-linecap: square;shape-rendering:crispEdges;" transform="matrix(1,0,0,1,0,0)" clip-path="url(#_1972757504243200clip-0)"/><g transform="matrix(1,0,0,1,0,0)"><text x="415.88" y="715.52" style="fill: rgb(64,64,64); fill-opacity: 1.0; font-family: Tahoma; font-size: 12px;" clip-path="url(#_1972757504243200clip-0)">0,0200</text></g><line x1="433.88" y1="701" x2="433.88" y2="699" style="stroke-width: 0.5;stroke: rgb(128,128,128);stroke-opacity: 1.0;stroke-linecap: square;shape-rendering:crispEdges;" transform="matrix(1,0,0,1,0,0)" clip-path="url(#_1972757504243200clip-0)"/><g transform="matrix(1,0,0,1,0,0)"><text x="499.77" y="715.52" style="fill: rgb(64,64,64); fill-opacity: 1.0; font-family: Tahoma; font-size: 12px;" clip-path="url(#_1972757504243200clip-0)">0,0205</text></g><line x1="517.77" y1="701" x2="517.77" y2="699" style="stroke-width: 0.5;stroke: rgb(128,128,128);stroke-opacity: 1.0;stroke-linecap: square;shape-rendering:crispEdges;" transform="matrix(1,0,0,1,0,0)" clip-path="url(#_1972757504243200clip-0)"/><g transform="matrix(1,0,0,1,0,0)"><text x="583.66" y="715.52" style="fill: rgb(64,64,64); fill-opacity: 1.0; font-family: Tahoma; font-size: 12px;" clip-path="url(#_1972757504243200clip-0)">0,0210</text></g><line x1="601.66" y1="701" x2="601.66" y2="699" style="stroke-width: 0.5;stroke: rgb(128,128,128);stroke-opacity: 1.0;stroke-linecap: square;shape-rendering:crispEdges;" transform="matrix(1,0,0,1,0,0)" clip-path="url(#_1972757504243200clip-0)"/><g transform="matrix(1,0,0,1,0,0)"><text x="667.54" y="715.52" style="fill: rgb(64,64,64); fill-opacity: 1.0; font-family: Tahoma; font-size: 12px;" clip-path="url(#_1972757504243200clip-0)">0,0215</text></g><line x1="685.54" y1="701" x2="685.54" y2="699" style="stroke-width: 0.5;stroke: rgb(128,128,128);stroke-opacity: 1.0;stroke-linecap: square;shape-rendering:crispEdges;" transform="matrix(1,0,0,1,0,0)" clip-path="url(#_1972757504243200clip-0)"/><g transform="matrix(1,0,0,1,0,0)"><text x="751.43" y="715.52" style="fill: rgb(64,64,64); fill-opacity: 1.0; font-family: Tahoma; font-size: 12px;" clip-path="url(#_1972757504243200clip-0)">0,0220</text></g><line x1="769.43" y1="701" x2="769.43" y2="699" style="stroke-width: 0.5;stroke: rgb(128,128,128);stroke-opacity: 1.0;stroke-linecap: square;shape-rendering:crispEdges;" transform="matrix(1,0,0,1,0,0)" clip-path="url(#_1972757504243200clip-0)"/><g transform="matrix(1,0,0,1,0,0)"><text x="835.31" y="715.52" style="fill: rgb(64,64,64); fill-opacity: 1.0; font-family: Tahoma; font-size: 12px;" clip-path="url(#_1972757504243200clip-0)">0,0225</text></g><line x1="853.31" y1="701" x2="853.31" y2="699" style="stroke-width: 0.5;stroke: rgb(128,128,128);stroke-opacity: 1.0;stroke-linecap: square;shape-rendering:crispEdges;" transform="matrix(1,0,0,1,0,0)" clip-path="url(#_1972757504243200clip-0)"/><g transform="matrix(1,0,0,1,0,0)"><text x="919.2" y="715.52" style="fill: rgb(64,64,64); fill-opacity: 1.0; font-family: Tahoma; font-size: 12px;" clip-path="url(#_1972757504243200clip-0)">0,0230</text></g><line x1="937.2" y1="701" x2="937.2" y2="699" style="stroke-width: 0.5;stroke: rgb(128,128,128);stroke-opacity: 1.0;stroke-linecap: square;shape-rendering:crispEdges;" transform="matrix(1,0,0,1,0,0)" clip-path="url(#_1972757504243200clip-0)"/><g transform="matrix(1,0,0,1,0,0)"><text x="1003.09" y="715.52" style="fill: rgb(64,64,64); fill-opacity: 1.0; font-family: Tahoma; font-size: 12px;" clip-path="url(#_1972757504243200clip-0)">0,0235</text></g><line x1="1021.09" y1="701" x2="1021.09" y2="699" style="stroke-width: 0.5;stroke: rgb(128,128,128);stroke-opacity: 1.0;stroke-linecap: square;shape-rendering:crispEdges;" transform="matrix(1,0,0,1,0,0)" clip-path="url(#_1972757504243200clip-0)"/><g transform="matrix(1,0,0,1,0,0)"><text x="1086.97" y="715.52" style="fill: rgb(64,64,64); fill-opacity: 1.0; font-family: Tahoma; font-size: 12px;" clip-path="url(#_1972757504243200clip-0)">0,0240</text></g><line x1="1104.97" y1="701" x2="1104.97" y2="699" style="stroke-width: 0.5;stroke: rgb(128,128,128);stroke-opacity: 1.0;stroke-linecap: square;shape-rendering:crispEdges;" transform="matrix(1,0,0,1,0,0)" clip-path="url(#_1972757504243200clip-0)"/><g transform="matrix(1,0,0,1,0,0)"><text x="590" y="734.59" style="fill: rgb(64,64,64); fill-opacity: 1.0; font-family: Tahoma; font-size: 14px; font-weight: bold;" clip-path="url(#_1972757504243200clip-0)">CD </text></g><line x1="60" y1="35" x2="60" y2="695" style="stroke-width: 0.5;stroke: rgb(128,128,128);stroke-opacity: 1.0;stroke-linecap: square;shape-rendering:crispEdges;" transform="matrix(1,0,0,1,0,0)" clip-path="url(#_1972757504243200clip-0)"/><g transform="matrix(1,0,0,1,0,0)"><text x="33" y="689.42" style="fill: rgb(64,64,64); fill-opacity: 1.0; font-family: Tahoma; font-size: 12px;" clip-path="url(#_1972757504243200clip-0)">-0,8</text></g><line x1="58" y1="684.4" x2="60" y2="684.4" style="stroke-width: 0.5;stroke: rgb(128,128,128);stroke-opacity: 1.0;stroke-linecap: square;shape-rendering:crispEdges;" transform="matrix(1,0,0,1,0,0)" clip-path="url(#_1972757504243200clip-0)"/><g transform="matrix(1,0,0,1,0,0)"><text x="33" y="656.27" style="fill: rgb(64,64,64); fill-opacity: 1.0; font-family: Tahoma; font-size: 12px;" clip-path="url(#_1972757504243200clip-0)">-0,7</text></g><line x1="58" y1="651.25" x2="60" y2="651.25" style="stroke-width: 0.5;stroke: rgb(128,128,128);stroke-opacity: 1.0;stroke-linecap: square;shape-rendering:crispEdges;" transform="matrix(1,0,0,1,0,0)" clip-path="url(#_1972757504243200clip-0)"/><g transform="matrix(1,0,0,1,0,0)"><text x="33" y="623.13" style="fill: rgb(64,64,64); fill-opacity: 1.0; font-family: Tahoma; font-size: 12px;" clip-path="url(#_1972757504243200clip-0)">-0,6</text></g><line x1="58" y1="618.11" x2="60" y2="618.11" style="stroke-width: 0.5;stroke: rgb(128,128,128);stroke-opacity: 1.0;stroke-linecap: square;shape-rendering:crispEdges;" transform="matrix(1,0,0,1,0,0)" clip-path="url(#_1972757504243200clip-0)"/><g transform="matrix(1,0,0,1,0,0)"><text x="33" y="589.98" style="fill: rgb(64,64,64); fill-opacity: 1.0; font-family: Tahoma; font-size: 12px;" clip-path="url(#_1972757504243200clip-0)">-0,5</text></g><line x1="58" y1="584.96" x2="60" y2="584.96" style="stroke-width: 0.5;stroke: rgb(128,128,128);stroke-opacity: 1.0;stroke-linecap: square;shape-rendering:crispEdges;" transform="matrix(1,0,0,1,0,0)" clip-path="url(#_1972757504243200clip-0)"/><g transform="matrix(1,0,0,1,0,0)"><text x="33" y="556.83" style="fill: rgb(64,64,64); fill-opacity: 1.0; font-family: Tahoma; font-size: 12px;" clip-path="url(#_1972757504243200clip-0)">-0,4</text></g><line x1="58" y1="551.81" x2="60" y2="551.81" style="stroke-width: 0.5;stroke: rgb(128,128,128);stroke-opacity: 1.0;stroke-linecap: square;shape-rendering:crispEdges;" transform="matrix(1,0,0,1,0,0)" clip-path="url(#_1972757504243200clip-0)"/><g transform="matrix(1,0,0,1,0,0)"><text x="33" y="523.69" style="fill: rgb(64,64,64); fill-opacity: 1.0; font-family: Tahoma; font-size: 12px;" clip-path="url(#_1972757504243200clip-0)">-0,3</text></g><line x1="58" y1="518.66" x2="60" y2="518.66" style="stroke-width: 0.5;stroke: rgb(128,128,128);stroke-opacity: 1.0;stroke-linecap: square;shape-rendering:crispEdges;" transform="matrix(1,0,0,1,0,0)" clip-path="url(#_1972757504243200clip-0)"/><g transform="matrix(1,0,0,1,0,0)"><text x="33" y="490.54" style="fill: rgb(64,64,64); fill-opacity: 1.0; font-family: Tahoma; font-size: 12px;" clip-path="url(#_1972757504243200clip-0)">-0,2</text></g><line x1="58" y1="485.52" x2="60" y2="485.52" style="stroke-width: 0.5;stroke: rgb(128,128,128);stroke-opacity: 1.0;stroke-linecap: square;shape-rendering:crispEdges;" transform="matrix(1,0,0,1,0,0)" clip-path="url(#_1972757504243200clip-0)"/><g transform="matrix(1,0,0,1,0,0)"><text x="33" y="457.39" style="fill: rgb(64,64,64); fill-opacity: 1.0; font-family: Tahoma; font-size: 12px;" clip-path="url(#_1972757504243200clip-0)">-0,1</text></g><line x1="58" y1="452.37" x2="60" y2="452.37" style="stroke-width: 0.5;stroke: rgb(128,128,128);stroke-opacity: 1.0;stroke-linecap: square;shape-rendering:crispEdges;" transform="matrix(1,0,0,1,0,0)" clip-path="url(#_1972757504243200clip-0)"/><g transform="matrix(1,0,0,1,0,0)"><text x="37" y="424.25" style="fill: rgb(64,64,64); fill-opacity: 1.0; font-family: Tahoma; font-size: 12px;" clip-path="url(#_1972757504243200clip-0)">0,0</text></g><line x1="58" y1="419.22" x2="60" y2="419.22" style="stroke-width: 0.5;stroke: rgb(128,128,128);stroke-opacity: 1.0;stroke-linecap: square;shape-rendering:crispEdges;" transform="matrix(1,0,0,1,0,0)" clip-path="url(#_1972757504243200clip-0)"/><g transform="matrix(1,0,0,1,0,0)"><text x="37" y="391.1" style="fill: rgb(64,64,64); fill-opacity: 1.0; font-family: Tahoma; font-size: 12px;" clip-path="url(#_1972757504243200clip-0)">0,1</text></g><line x1="58" y1="386.08" x2="60" y2="386.08" style="stroke-width: 0.5;stroke: rgb(128,128,128);stroke-opacity: 1.0;stroke-linecap: square;shape-rendering:crispEdges;" transform="matrix(1,0,0,1,0,0)" clip-path="url(#_1972757504243200clip-0)"/><g transform="matrix(1,0,0,1,0,0)"><text x="37" y="357.95" style="fill: rgb(64,64,64); fill-opacity: 1.0; font-family: Tahoma; font-size: 12px;" clip-path="url(#_1972757504243200clip-0)">0,2</text></g><line x1="58" y1="352.93" x2="60" y2="352.93" style="stroke-width: 0.5;stroke: rgb(128,128,128);stroke-opacity: 1.0;stroke-linecap: square;shape-rendering:crispEdges;" transform="matrix(1,0,0,1,0,0)" clip-path="url(#_1972757504243200clip-0)"/><g transform="matrix(1,0,0,1,0,0)"><text x="37" y="324.81" style="fill: rgb(64,64,64); fill-opacity: 1.0; font-family: Tahoma; font-size: 12px;" clip-path="url(#_1972757504243200clip-0)">0,3</text></g><line x1="58" y1="319.78" x2="60" y2="319.78" style="stroke-width: 0.5;stroke: rgb(128,128,128);stroke-opacity: 1.0;stroke-linecap: square;shape-rendering:crispEdges;" transform="matrix(1,0,0,1,0,0)" clip-path="url(#_1972757504243200clip-0)"/><g transform="matrix(1,0,0,1,0,0)"><text x="37" y="291.66" style="fill: rgb(64,64,64); fill-opacity: 1.0; font-family: Tahoma; font-size: 12px;" clip-path="url(#_1972757504243200clip-0)">0,4</text></g><line x1="58" y1="286.64" x2="60" y2="286.64" style="stroke-width: 0.5;stroke: rgb(128,128,128);stroke-opacity: 1.0;stroke-linecap: square;shape-rendering:crispEdges;" transform="matrix(1,0,0,1,0,0)" clip-path="url(#_1972757504243200clip-0)"/><g transform="matrix(1,0,0,1,0,0)"><text x="37" y="258.51" style="fill: rgb(64,64,64); fill-opacity: 1.0; font-family: Tahoma; font-size: 12px;" clip-path="url(#_1972757504243200clip-0)">0,5</text></g><line x1="58" y1="253.49" x2="60" y2="253.49" style="stroke-width: 0.5;stroke: rgb(128,128,128);stroke-opacity: 1.0;stroke-linecap: square;shape-rendering:crispEdges;" transform="matrix(1,0,0,1,0,0)" clip-path="url(#_1972757504243200clip-0)"/><g transform="matrix(1,0,0,1,0,0)"><text x="37" y="225.36" style="fill: rgb(64,64,64); fill-opacity: 1.0; font-family: Tahoma; font-size: 12px;" clip-path="url(#_1972757504243200clip-0)">0,6</text></g><line x1="58" y1="220.34" x2="60" y2="220.34" style="stroke-width: 0.5;stroke: rgb(128,128,128);stroke-opacity: 1.0;stroke-linecap: square;shape-rendering:crispEdges;" transform="matrix(1,0,0,1,0,0)" clip-path="url(#_1972757504243200clip-0)"/><g transform="matrix(1,0,0,1,0,0)"><text x="37" y="192.22" style="fill: rgb(64,64,64); fill-opacity: 1.0; font-family: Tahoma; font-size: 12px;" clip-path="url(#_1972757504243200clip-0)">0,7</text></g><line x1="58" y1="187.2" x2="60" y2="187.2" style="stroke-width: 0.5;stroke: rgb(128,128,128);stroke-opacity: 1.0;stroke-linecap: square;shape-rendering:crispEdges;" transform="matrix(1,0,0,1,0,0)" clip-path="url(#_1972757504243200clip-0)"/><g transform="matrix(1,0,0,1,0,0)"><text x="37" y="159.07" style="fill: rgb(64,64,64); fill-opacity: 1.0; font-family: Tahoma; font-size: 12px;" clip-path="url(#_1972757504243200clip-0)">0,8</text></g><line x1="58" y1="154.05" x2="60" y2="154.05" style="stroke-width: 0.5;stroke: rgb(128,128,128);stroke-opacity: 1.0;stroke-linecap: square;shape-rendering:crispEdges;" transform="matrix(1,0,0,1,0,0)" clip-path="url(#_1972757504243200clip-0)"/><g transform="matrix(1,0,0,1,0,0)"><text x="37" y="125.92" style="fill: rgb(64,64,64); fill-opacity: 1.0; font-family: Tahoma; font-size: 12px;" clip-path="url(#_1972757504243200clip-0)">0,9</text></g><line x1="58" y1="120.9" x2="60" y2="120.9" style="stroke-width: 0.5;stroke: rgb(128,128,128);stroke-opacity: 1.0;stroke-linecap: square;shape-rendering:crispEdges;" transform="matrix(1,0,0,1,0,0)" clip-path="url(#_1972757504243200clip-0)"/><g transform="matrix(1,0,0,1,0,0)"><text x="37" y="92.78" style="fill: rgb(64,64,64); fill-opacity: 1.0; font-family: Tahoma; font-size: 12px;" clip-path="url(#_1972757504243200clip-0)">1,0</text></g><line x1="58" y1="87.76" x2="60" y2="87.76" style="stroke-width: 0.5;stroke: rgb(128,128,128);stroke-opacity: 1.0;stroke-linecap: square;shape-rendering:crispEdges;" transform="matrix(1,0,0,1,0,0)" clip-path="url(#_1972757504243200clip-0)"/><g transform="matrix(1,0,0,1,0,0)"><text x="37" y="59.63" style="fill: rgb(64,64,64); fill-opacity: 1.0; font-family: Tahoma; font-size: 12px;" clip-path="url(#_1972757504243200clip-0)">1,1</text></g><line x1="58" y1="54.61" x2="60" y2="54.61" style="stroke-width: 0.5;stroke: rgb(128,128,128);stroke-opacity: 1.0;stroke-linecap: square;shape-rendering:crispEdges;" transform="matrix(1,0,0,1,0,0)" clip-path="url(#_1972757504243200clip-0)"/><g style="fill: rgb(64,64,64); fill-opacity: 1.0; stroke: none" transform="matrix(0,-1,1,0,-345.5,384.5)" clip-path="url(#_1972757504243200clip-1)"><path d="M 14.44 370.81 Q 12.16 370.81 10.8 369.42 Q 9.45 368.03 9.45 365.53 Q 9.45 363.11 10.8 361.67 Q 12.16 360.23 14.45 360.23 Q 15.06 360.23 15.55 360.3 Q 16.03 360.37 16.47 360.48 Q 16.83 360.59 17.23 360.77 Q 17.64 360.95 17.89 361.08 L 17.89 363.5 L 17.64 363.5 Q 17.45 363.34 17.17 363.12 Q 16.89 362.89 16.53 362.67 Q 16.17 362.45 15.75 362.3 Q 15.33 362.14 14.86 362.14 Q 14.31 362.14 13.84 362.31 Q 13.38 362.48 12.97 362.92 Q 12.58 363.31 12.34 363.98 Q 12.09 364.64 12.09 365.53 Q 12.09 366.48 12.35 367.13 Q 12.61 367.78 13.02 368.17 Q 13.41 368.56 13.9 368.73 Q 14.39 368.91 14.88 368.91 Q 15.38 368.91 15.84 368.73 Q 16.3 368.56 16.61 368.36 Q 16.95 368.14 17.21 367.92 Q 17.47 367.7 17.66 367.55 L 17.89 367.55 L 17.89 369.94 Q 17.61 370.06 17.24 370.23 Q 16.88 370.39 16.48 370.51 Q 16 370.66 15.59 370.73 Q 15.17 370.81 14.44 370.81 Z  M 26.19 370.61 L 19.39 370.61 L 19.39 360.44 L 21.95 360.44 L 21.95 368.67 L 26.19 368.67 L 26.19 370.61 Z "/></g><line x1="98.34" y1="35" x2="98.34" y2="695" style="stroke-width: 0.5;stroke: rgb(192,192,192);stroke-opacity: 1.0;stroke-linejoin: bevel;stroke-dasharray: 2.0, 2.0;shape-rendering:crispEdges;" transform="matrix(1,0,0,1,0,0)" clip-path="url(#_1972757504243200clip-2)"/><line x1="182.22" y1="35" x2="182.22" y2="695" style="stroke-width: 0.5;stroke: rgb(192,192,192);stroke-opacity: 1.0;stroke-linejoin: bevel;stroke-dasharray: 2.0, 2.0;shape-rendering:crispEdges;" transform="matrix(1,0,0,1,0,0)" clip-path="url(#_1972757504243200clip-2)"/><line x1="266.11" y1="35" x2="266.11" y2="695" style="stroke-width: 0.5;stroke: rgb(192,192,192);stroke-opacity: 1.0;stroke-linejoin: bevel;stroke-dasharray: 2.0, 2.0;shape-rendering:crispEdges;" transform="matrix(1,0,0,1,0,0)" clip-path="url(#_1972757504243200clip-2)"/><line x1="350" y1="35" x2="350" y2="695" style="stroke-width: 0.5;stroke: rgb(192,192,192);stroke-opacity: 1.0;stroke-linejoin: bevel;stroke-dasharray: 2.0, 2.0;shape-rendering:crispEdges;" transform="matrix(1,0,0,1,0,0)" clip-path="url(#_1972757504243200clip-2)"/><line x1="433.88" y1="35" x2="433.88" y2="695" style="stroke-width: 0.5;stroke: rgb(192,192,192);stroke-opacity: 1.0;stroke-linejoin: bevel;stroke-dasharray: 2.0, 2.0;shape-rendering:crispEdges;" transform="matrix(1,0,0,1,0,0)" clip-path="url(#_1972757504243200clip-2)"/><line x1="517.77" y1="35" x2="517.77" y2="695" style="stroke-width: 0.5;stroke: rgb(192,192,192);stroke-opacity: 1.0;stroke-linejoin: bevel;stroke-dasharray: 2.0, 2.0;shape-rendering:crispEdges;" transform="matrix(1,0,0,1,0,0)" clip-path="url(#_1972757504243200clip-2)"/><line x1="601.66" y1="35" x2="601.66" y2="695" style="stroke-width: 0.5;stroke: rgb(192,192,192);stroke-opacity: 1.0;stroke-linejoin: bevel;stroke-dasharray: 2.0, 2.0;shape-rendering:crispEdges;" transform="matrix(1,0,0,1,0,0)" clip-path="url(#_1972757504243200clip-2)"/><line x1="685.54" y1="35" x2="685.54" y2="695" style="stroke-width: 0.5;stroke: rgb(192,192,192);stroke-opacity: 1.0;stroke-linejoin: bevel;stroke-dasharray: 2.0, 2.0;shape-rendering:crispEdges;" transform="matrix(1,0,0,1,0,0)" clip-path="url(#_1972757504243200clip-2)"/><line x1="769.43" y1="35" x2="769.43" y2="695" style="stroke-width: 0.5;stroke: rgb(192,192,192);stroke-opacity: 1.0;stroke-linejoin: bevel;stroke-dasharray: 2.0, 2.0;shape-rendering:crispEdges;" transform="matrix(1,0,0,1,0,0)" clip-path="url(#_1972757504243200clip-2)"/><line x1="853.31" y1="35" x2="853.31" y2="695" style="stroke-width: 0.5;stroke: rgb(192,192,192);stroke-opacity: 1.0;stroke-linejoin: bevel;stroke-dasharray: 2.0, 2.0;shape-rendering:crispEdges;" transform="matrix(1,0,0,1,0,0)" clip-path="url(#_1972757504243200clip-2)"/><line x1="937.2" y1="35" x2="937.2" y2="695" style="stroke-width: 0.5;stroke: rgb(192,192,192);stroke-opacity: 1.0;stroke-linejoin: bevel;stroke-dasharray: 2.0, 2.0;shape-rendering:crispEdges;" transform="matrix(1,0,0,1,0,0)" clip-path="url(#_1972757504243200clip-2)"/><line x1="1021.09" y1="35" x2="1021.09" y2="695" style="stroke-width: 0.5;stroke: rgb(192,192,192);stroke-opacity: 1.0;stroke-linejoin: bevel;stroke-dasharray: 2.0, 2.0;shape-rendering:crispEdges;" transform="matrix(1,0,0,1,0,0)" clip-path="url(#_1972757504243200clip-2)"/><line x1="1104.97" y1="35" x2="1104.97" y2="695" style="stroke-width: 0.5;stroke: rgb(192,192,192);stroke-opacity: 1.0;stroke-linejoin: bevel;stroke-dasharray: 2.0, 2.0;shape-rendering:crispEdges;" transform="matrix(1,0,0,1,0,0)" clip-path="url(#_1972757504243200clip-2)"/><line x1="64" y1="684.4" x2="1140" y2="684.4" style="stroke-width: 0.5;stroke: rgb(192,192,192);stroke-opacity: 1.0;stroke-linejoin: bevel;stroke-dasharray: 2.0, 2.0;shape-rendering:crispEdges;" transform="matrix(1,0,0,1,0,0)" clip-path="url(#_1972757504243200clip-2)"/><line x1="64" y1="651.25" x2="1140" y2="651.25" style="stroke-width: 0.5;stroke: rgb(192,192,192);stroke-opacity: 1.0;stroke-linejoin: bevel;stroke-dasharray: 2.0, 2.0;shape-rendering:crispEdges;" transform="matrix(1,0,0,1,0,0)" clip-path="url(#_1972757504243200clip-2)"/><line x1="64" y1="618.11" x2="1140" y2="618.11" style="stroke-width: 0.5;stroke: rgb(192,192,192);stroke-opacity: 1.0;stroke-linejoin: bevel;stroke-dasharray: 2.0, 2.0;shape-rendering:crispEdges;" transform="matrix(1,0,0,1,0,0)" clip-path="url(#_1972757504243200clip-2)"/><line x1="64" y1="584.96" x2="1140" y2="584.96" style="stroke-width: 0.5;stroke: rgb(192,192,192);stroke-opacity: 1.0;stroke-linejoin: bevel;stroke-dasharray: 2.0, 2.0;shape-rendering:crispEdges;" transform="matrix(1,0,0,1,0,0)" clip-path="url(#_1972757504243200clip-2)"/><line x1="64" y1="551.81" x2="1140" y2="551.81" style="stroke-width: 0.5;stroke: rgb(192,192,192);stroke-opacity: 1.0;stroke-linejoin: bevel;stroke-dasharray: 2.0, 2.0;shape-rendering:crispEdges;" transform="matrix(1,0,0,1,0,0)" clip-path="url(#_1972757504243200clip-2)"/><line x1="64" y1="518.66" x2="1140" y2="518.66" style="stroke-width: 0.5;stroke: rgb(192,192,192);stroke-opacity: 1.0;stroke-linejoin: bevel;stroke-dasharray: 2.0, 2.0;shape-rendering:crispEdges;" transform="matrix(1,0,0,1,0,0)" clip-path="url(#_1972757504243200clip-2)"/><line x1="64" y1="485.52" x2="1140" y2="485.52" style="stroke-width: 0.5;stroke: rgb(192,192,192);stroke-opacity: 1.0;stroke-linejoin: bevel;stroke-dasharray: 2.0, 2.0;shape-rendering:crispEdges;" transform="matrix(1,0,0,1,0,0)" clip-path="url(#_1972757504243200clip-2)"/><line x1="64" y1="452.37" x2="1140" y2="452.37" style="stroke-width: 0.5;stroke: rgb(192,192,192);stroke-opacity: 1.0;stroke-linejoin: bevel;stroke-dasharray: 2.0, 2.0;shape-rendering:crispEdges;" transform="matrix(1,0,0,1,0,0)" clip-path="url(#_1972757504243200clip-2)"/><line x1="64" y1="419.22" x2="1140" y2="419.22" style="stroke-width: 0.5;stroke: rgb(192,192,192);stroke-opacity: 1.0;stroke-linejoin: bevel;stroke-dasharray: 2.0, 2.0;shape-rendering:crispEdges;" transform="matrix(1,0,0,1,0,0)" clip-path="url(#_1972757504243200clip-2)"/><line x1="64" y1="386.08" x2="1140" y2="386.08" style="stroke-width: 0.5;stroke: rgb(192,192,192);stroke-opacity: 1.0;stroke-linejoin: bevel;stroke-dasharray: 2.0, 2.0;shape-rendering:crispEdges;" transform="matrix(1,0,0,1,0,0)" clip-path="url(#_1972757504243200clip-2)"/><line x1="64" y1="352.93" x2="1140" y2="352.93" style="stroke-width: 0.5;stroke: rgb(192,192,192);stroke-opacity: 1.0;stroke-linejoin: bevel;stroke-dasharray: 2.0, 2.0;shape-rendering:crispEdges;" transform="matrix(1,0,0,1,0,0)" clip-path="url(#_1972757504243200clip-2)"/><line x1="64" y1="319.78" x2="1140" y2="319.78" style="stroke-width: 0.5;stroke: rgb(192,192,192);stroke-opacity: 1.0;stroke-linejoin: bevel;stroke-dasharray: 2.0, 2.0;shape-rendering:crispEdges;" transform="matrix(1,0,0,1,0,0)" clip-path="url(#_1972757504243200clip-2)"/><line x1="64" y1="286.64" x2="1140" y2="286.64" style="stroke-width: 0.5;stroke: rgb(192,192,192);stroke-opacity: 1.0;stroke-linejoin: bevel;stroke-dasharray: 2.0, 2.0;shape-rendering:crispEdges;" transform="matrix(1,0,0,1,0,0)" clip-path="url(#_1972757504243200clip-2)"/><line x1="64" y1="253.49" x2="1140" y2="253.49" style="stroke-width: 0.5;stroke: rgb(192,192,192);stroke-opacity: 1.0;stroke-linejoin: bevel;stroke-dasharray: 2.0, 2.0;shape-rendering:crispEdges;" transform="matrix(1,0,0,1,0,0)" clip-path="url(#_1972757504243200clip-2)"/><line x1="64" y1="220.34" x2="1140" y2="220.34" style="stroke-width: 0.5;stroke: rgb(192,192,192);stroke-opacity: 1.0;stroke-linejoin: bevel;stroke-dasharray: 2.0, 2.0;shape-rendering:crispEdges;" transform="matrix(1,0,0,1,0,0)" clip-path="url(#_1972757504243200clip-2)"/><line x1="64" y1="187.2" x2="1140" y2="187.2" style="stroke-width: 0.5;stroke: rgb(192,192,192);stroke-opacity: 1.0;stroke-linejoin: bevel;stroke-dasharray: 2.0, 2.0;shape-rendering:crispEdges;" transform="matrix(1,0,0,1,0,0)" clip-path="url(#_1972757504243200clip-2)"/><line x1="64" y1="154.05" x2="1140" y2="154.05" style="stroke-width: 0.5;stroke: rgb(192,192,192);stroke-opacity: 1.0;stroke-linejoin: bevel;stroke-dasharray: 2.0, 2.0;shape-rendering:crispEdges;" transform="matrix(1,0,0,1,0,0)" clip-path="url(#_1972757504243200clip-2)"/><line x1="64" y1="120.9" x2="1140" y2="120.9" style="stroke-width: 0.5;stroke: rgb(192,192,192);stroke-opacity: 1.0;stroke-linejoin: bevel;stroke-dasharray: 2.0, 2.0;shape-rendering:crispEdges;" transform="matrix(1,0,0,1,0,0)" clip-path="url(#_1972757504243200clip-2)"/><line x1="64" y1="87.76" x2="1140" y2="87.76" style="stroke-width: 0.5;stroke: rgb(192,192,192);stroke-opacity: 1.0;stroke-linejoin: bevel;stroke-dasharray: 2.0, 2.0;shape-rendering:crispEdges;" transform="matrix(1,0,0,1,0,0)" clip-path="url(#_1972757504243200clip-2)"/><line x1="64" y1="54.61" x2="1140" y2="54.61" style="stroke-width: 0.5;stroke: rgb(192,192,192);stroke-opacity: 1.0;stroke-linejoin: bevel;stroke-dasharray: 2.0, 2.0;shape-rendering:crispEdges;" transform="matrix(1,0,0,1,0,0)" clip-path="url(#_1972757504243200clip-2)"/><line x1="596.61" y1="660.07" x2="575.94" y2="644.06" style="stroke-width: 3.0;stroke: rgb(0,0,0);stroke-opacity: 1.0;stroke-linecap: square;shape-rendering:geometricPrecision;" transform="matrix(1,0,0,1,0,0)" clip-path="url(#_1972757504243200clip-2)"/><line x1="575.94" y1="644.06" x2="556.5" y2="628.05" style="stroke-width: 3.0;stroke: rgb(0,0,0);stroke-opacity: 1.0;stroke-linecap: square;shape-rendering:geometricPrecision;" transform="matrix(1,0,0,1,0,0)" clip-path="url(#_1972757504243200clip-2)"/><line x1="556.5" y1="628.05" x2="538.47" y2="612.05" style="stroke-width: 3.0;stroke: rgb(0,0,0);stroke-opacity: 1.0;stroke-linecap: square;shape-rendering:geometricPrecision;" transform="matrix(1,0,0,1,0,0)" clip-path="url(#_1972757504243200clip-2)"/><line x1="538.47" y1="612.05" x2="521.97" y2="596.14" style="stroke-width: 3.0;stroke: rgb(0,0,0);stroke-opacity: 1.0;stroke-linecap: square;shape-rendering:geometricPrecision;" transform="matrix(1,0,0,1,0,0)" clip-path="url(#_1972757504243200clip-2)"/><line x1="521.97" y1="596.14" x2="506.51" y2="580.03" style="stroke-width: 3.0;stroke: rgb(0,0,0);stroke-opacity: 1.0;stroke-linecap: square;shape-rendering:geometricPrecision;" transform="matrix(1,0,0,1,0,0)" clip-path="url(#_1972757504243200clip-2)"/><line x1="506.51" y1="580.03" x2="492.74" y2="564.02" style="stroke-width: 3.0;stroke: rgb(0,0,0);stroke-opacity: 1.0;stroke-linecap: square;shape-rendering:geometricPrecision;" transform="matrix(1,0,0,1,0,0)" clip-path="url(#_1972757504243200clip-2)"/><line x1="492.74" y1="564.02" x2="480.13" y2="548.11" style="stroke-width: 3.0;stroke: rgb(0,0,0);stroke-opacity: 1.0;stroke-linecap: square;shape-rendering:geometricPrecision;" transform="matrix(1,0,0,1,0,0)" clip-path="url(#_1972757504243200clip-2)"/><line x1="480.13" y1="548.11" x2="469.32" y2="532.29" style="stroke-width: 3.0;stroke: rgb(0,0,0);stroke-opacity: 1.0;stroke-linecap: square;shape-rendering:geometricPrecision;" transform="matrix(1,0,0,1,0,0)" clip-path="url(#_1972757504243200clip-2)"/><line x1="469.32" y1="532.29" x2="459.51" y2="516.55" style="stroke-width: 3.0;stroke: rgb(0,0,0);stroke-opacity: 1.0;stroke-linecap: square;shape-rendering:geometricPrecision;" transform="matrix(1,0,0,1,0,0)" clip-path="url(#_1972757504243200clip-2)"/><line x1="459.51" y1="516.55" x2="451.87" y2="500.81" style="stroke-width: 3.0;stroke: rgb(0,0,0);stroke-opacity: 1.0;stroke-linecap: square;shape-rendering:geometricPrecision;" transform="matrix(1,0,0,1,0,0)" clip-path="url(#_1972757504243200clip-2)"/><line x1="451.87" y1="500.81" x2="444.98" y2="484.61" style="stroke-width: 3.0;stroke: rgb(0,0,0);stroke-opacity: 1.0;stroke-linecap: square;shape-rendering:geometricPrecision;" transform="matrix(1,0,0,1,0,0)" clip-path="url(#_1972757504243200clip-2)"/><line x1="444.98" y1="484.61" x2="440.27" y2="468.3" style="stroke-width: 3.0;stroke: rgb(0,0,0);stroke-opacity: 1.0;stroke-linecap: square;shape-rendering:geometricPrecision;" transform="matrix(1,0,0,1,0,0)" clip-path="url(#_1972757504243200clip-2)"/><line x1="440.27" y1="468.3" x2="436.24" y2="451.88" style="stroke-width: 3.0;stroke: rgb(0,0,0);stroke-opacity: 1.0;stroke-linecap: square;shape-rendering:geometricPrecision;" transform="matrix(1,0,0,1,0,0)" clip-path="url(#_1972757504243200clip-2)"/><line x1="436.24" y1="451.88" x2="434.58" y2="435.34" style="stroke-width: 3.0;stroke: rgb(0,0,0);stroke-opacity: 1.0;stroke-linecap: square;shape-rendering:geometricPrecision;" transform="matrix(1,0,0,1,0,0)" clip-path="url(#_1972757504243200clip-2)"/><line x1="434.58" y1="435.34" x2="433.23" y2="418.68" style="stroke-width: 3.0;stroke: rgb(0,0,0);stroke-opacity: 1.0;stroke-linecap: square;shape-rendering:geometricPrecision;" transform="matrix(1,0,0,1,0,0)" clip-path="url(#_1972757504243200clip-2)"/><line x1="433.23" y1="418.68" x2="434.68" y2="401.93" style="stroke-width: 3.0;stroke: rgb(0,0,0);stroke-opacity: 1.0;stroke-linecap: square;shape-rendering:geometricPrecision;" transform="matrix(1,0,0,1,0,0)" clip-path="url(#_1972757504243200clip-2)"/><line x1="434.68" y1="401.93" x2="436.55" y2="385.24" style="stroke-width: 3.0;stroke: rgb(0,0,0);stroke-opacity: 1.0;stroke-linecap: square;shape-rendering:geometricPrecision;" transform="matrix(1,0,0,1,0,0)" clip-path="url(#_1972757504243200clip-2)"/><line x1="436.55" y1="385.24" x2="440.67" y2="368.65" style="stroke-width: 3.0;stroke: rgb(0,0,0);stroke-opacity: 1.0;stroke-linecap: square;shape-rendering:geometricPrecision;" transform="matrix(1,0,0,1,0,0)" clip-path="url(#_1972757504243200clip-2)"/><line x1="440.67" y1="368.65" x2="445.78" y2="351.91" style="stroke-width: 3.0;stroke: rgb(0,0,0);stroke-opacity: 1.0;stroke-linecap: square;shape-rendering:geometricPrecision;" transform="matrix(1,0,0,1,0,0)" clip-path="url(#_1972757504243200clip-2)"/><line x1="445.78" y1="351.91" x2="453.3" y2="334.36" style="stroke-width: 3.0;stroke: rgb(0,0,0);stroke-opacity: 1.0;stroke-linecap: square;shape-rendering:geometricPrecision;" transform="matrix(1,0,0,1,0,0)" clip-path="url(#_1972757504243200clip-2)"/><line x1="453.3" y1="334.36" x2="463.67" y2="315.14" style="stroke-width: 3.0;stroke: rgb(0,0,0);stroke-opacity: 1.0;stroke-linecap: square;shape-rendering:geometricPrecision;" transform="matrix(1,0,0,1,0,0)" clip-path="url(#_1972757504243200clip-2)"/><line x1="463.67" y1="315.14" x2="478.02" y2="293.13" style="stroke-width: 3.0;stroke: rgb(0,0,0);stroke-opacity: 1.0;stroke-linecap: square;shape-rendering:geometricPrecision;" transform="matrix(1,0,0,1,0,0)" clip-path="url(#_1972757504243200clip-2)"/><line x1="478.02" y1="293.13" x2="499.2" y2="266.49" style="stroke-width: 3.0;stroke: rgb(0,0,0);stroke-opacity: 1.0;stroke-linecap: square;shape-rendering:geometricPrecision;" transform="matrix(1,0,0,1,0,0)" clip-path="url(#_1972757504243200clip-2)"/><line x1="499.2" y1="266.49" x2="530.44" y2="233.83" style="stroke-width: 3.0;stroke: rgb(0,0,0);stroke-opacity: 1.0;stroke-linecap: square;shape-rendering:geometricPrecision;" transform="matrix(1,0,0,1,0,0)" clip-path="url(#_1972757504243200clip-2)"/><line x1="530.44" y1="233.83" x2="563.51" y2="204.39" style="stroke-width: 3.0;stroke: rgb(0,0,0);stroke-opacity: 1.0;stroke-linecap: square;shape-rendering:geometricPrecision;" transform="matrix(1,0,0,1,0,0)" clip-path="url(#_1972757504243200clip-2)"/><line x1="563.51" y1="204.39" x2="596.77" y2="178.25" style="stroke-width: 3.0;stroke: rgb(0,0,0);stroke-opacity: 1.0;stroke-linecap: square;shape-rendering:geometricPrecision;" transform="matrix(1,0,0,1,0,0)" clip-path="url(#_1972757504243200clip-2)"/><line x1="596.77" y1="178.25" x2="634.44" y2="151.93" style="stroke-width: 3.0;stroke: rgb(0,0,0);stroke-opacity: 1.0;stroke-linecap: square;shape-rendering:geometricPrecision;" transform="matrix(1,0,0,1,0,0)" clip-path="url(#_1972757504243200clip-2)"/><line x1="634.44" y1="151.93" x2="676.12" y2="125.19" style="stroke-width: 3.0;stroke: rgb(0,0,0);stroke-opacity: 1.0;stroke-linecap: square;shape-rendering:geometricPrecision;" transform="matrix(1,0,0,1,0,0)" clip-path="url(#_1972757504243200clip-2)"/><line x1="676.12" y1="125.19" x2="721.57" y2="97.87" style="stroke-width: 3.0;stroke: rgb(0,0,0);stroke-opacity: 1.0;stroke-linecap: square;shape-rendering:geometricPrecision;" transform="matrix(1,0,0,1,0,0)" clip-path="url(#_1972757504243200clip-2)"/><line x1="721.57" y1="97.87" x2="770.77" y2="69.93" style="stroke-width: 3.0;stroke: rgb(0,0,0);stroke-opacity: 1.0;stroke-linecap: square;shape-rendering:geometricPrecision;" transform="matrix(1,0,0,1,0,0)" clip-path="url(#_1972757504243200clip-2)"/><rect x="64" y="35" width="1076" height="660" style="stroke-width: 0.5;stroke: rgb(0,0,0);stroke-opacity: 1.0;stroke-linecap: round;stroke-linejoin: round;shape-rendering:crispEdges;; fill: none" transform="matrix(1,0,0,1,0,0)" clip-path="url(#_1972757504243200clip-0)"/></svg>
