<!DOCTYPE svg PUBLIC "-//W3C//DTD SVG 1.1//EN" "http://www.w3.org/Graphics/SVG/1.1/DTD/svg11.dtd">
<svg xmlns="http://www.w3.org/2000/svg" xmlns:xlink="http://www.w3.org/1999/xlink" xmlns:jfreesvg="http://www.jfree.org/jfreesvg/svg" width="1920" height="1080" text-rendering="auto" shape-rendering="auto">
<defs><clipPath id="_1650299693711891clip-0"><path d="M 0 0 L 1920 0 L 1920 1080 L 0 1080 L 0 0 Z "/></clipPath>
<clipPath id="_1650299693711891clip-1"><path d="M 552 513 L 552 2433 L -528 2433 L -528 513 L 552 513 Z "/></clipPath>
<clipPath id="_1650299693711891clip-2"><path d="M 66 35 L 66 1030 L 1908 1030 L 1908 35 Z "/></clipPath>
</defs>
<rect x="0" y="0" width="1920" height="1080" style="fill: rgb(255,255,255); fill-opacity: 1.0" transform="matrix(1,0,0,1,0,0)" clip-path="url(#_1650299693711891clip-0)"/><g transform="matrix(1,0,0,1,0,0)"><text x="813" y="21.01" style="fill: rgb(0,0,0); fill-opacity: 1.0; font-family: Tahoma; font-size: 20px; font-weight: bold;" clip-path="url(#_1650299693711891clip-0)">Total Equilibrium Polar Curve</text></g><rect x="66" y="35" width="1842" height="995" style="fill: rgb(255,255,255); fill-opacity: 0.0" transform="matrix(1,0,0,1,0,0)" clip-path="url(#_1650299693711891clip-0)"/><line x1="66" y1="1034" x2="1908" y2="1034" style="stroke-width: 0.5;stroke: rgb(128,128,128);stroke-opacity: 1.0;stroke-linecap: square;shape-rendering:crispEdges;" transform="matrix(1,0,0,1,0,0)" clip-path="url(#_1650299693711891clip-0)"/><g transform="matrix(1,0,0,1,0,0)"><text x="110.06" y="1050.52" style="fill: rgb(64,64,64); fill-opacity: 1.0; font-family: Tahoma; font-size: 12px;" clip-path="url(#_1650299693711891clip-0)">0,085</text></g><line x1="125.06" y1="1036" x2="125.06" y2="1034" style="stroke-width: 0.5;stroke: rgb(128,128,128);stroke-opacity: 1.0;stroke-linecap: square;shape-rendering:crispEdges;" transform="matrix(1,0,0,1,0,0)" clip-path="url(#_1650299693711891clip-0)"/><g transform="matrix(1,0,0,1,0,0)"><text x="190.2" y="1050.52" style="fill: rgb(64,64,64); fill-opacity: 1.0; font-family: Tahoma; font-size: 12px;" clip-path="url(#_1650299693711891clip-0)">0,086</text></g><line x1="205.2" y1="1036" x2="205.2" y2="1034" style="stroke-width: 0.5;stroke: rgb(128,128,128);stroke-opacity: 1.0;stroke-linecap: square;shape-rendering:crispEdges;" transform="matrix(1,0,0,1,0,0)" clip-path="url(#_1650299693711891clip-0)"/><g transform="matrix(1,0,0,1,0,0)"><text x="270.34" y="1050.52" style="fill: rgb(64,64,64); fill-opacity: 1.0; font-family: Tahoma; font-size: 12px;" clip-path="url(#_1650299693711891clip-0)">0,087</text></g><line x1="285.34" y1="1036" x2="285.34" y2="1034" style="stroke-width: 0.5;stroke: rgb(128,128,128);stroke-opacity: 1.0;stroke-linecap: square;shape-rendering:crispEdges;" transform="matrix(1,0,0,1,0,0)" clip-path="url(#_1650299693711891clip-0)"/><g transform="matrix(1,0,0,1,0,0)"><text x="350.48" y="1050.52" style="fill: rgb(64,64,64); fill-opacity: 1.0; font-family: Tahoma; font-size: 12px;" clip-path="url(#_1650299693711891clip-0)">0,088</text></g><line x1="365.48" y1="1036" x2="365.48" y2="1034" style="stroke-width: 0.5;stroke: rgb(128,128,128);stroke-opacity: 1.0;stroke-linecap: square;shape-rendering:crispEdges;" transform="matrix(1,0,0,1,0,0)" clip-path="url(#_1650299693711891clip-0)"/><g transform="matrix(1,0,0,1,0,0)"><text x="430.61" y="1050.52" style="fill: rgb(64,64,64); fill-opacity: 1.0; font-family: Tahoma; font-size: 12px;" clip-path="url(#_1650299693711891clip-0)">0,089</text></g><line x1="445.61" y1="1036" x2="445.61" y2="1034" style="stroke-width: 0.5;stroke: rgb(128,128,128);stroke-opacity: 1.0;stroke-linecap: square;shape-rendering:crispEdges;" transform="matrix(1,0,0,1,0,0)" clip-path="url(#_1650299693711891clip-0)"/><g transform="matrix(1,0,0,1,0,0)"><text x="510.75" y="1050.52" style="fill: rgb(64,64,64); fill-opacity: 1.0; font-family: Tahoma; font-size: 12px;" clip-path="url(#_1650299693711891clip-0)">0,090</text></g><line x1="525.75" y1="1036" x2="525.75" y2="1034" style="stroke-width: 0.5;stroke: rgb(128,128,128);stroke-opacity: 1.0;stroke-linecap: square;shape-rendering:crispEdges;" transform="matrix(1,0,0,1,0,0)" clip-path="url(#_1650299693711891clip-0)"/><g transform="matrix(1,0,0,1,0,0)"><text x="590.89" y="1050.52" style="fill: rgb(64,64,64); fill-opacity: 1.0; font-family: Tahoma; font-size: 12px;" clip-path="url(#_1650299693711891clip-0)">0,091</text></g><line x1="605.89" y1="1036" x2="605.89" y2="1034" style="stroke-width: 0.5;stroke: rgb(128,128,128);stroke-opacity: 1.0;stroke-linecap: square;shape-rendering:crispEdges;" transform="matrix(1,0,0,1,0,0)" clip-path="url(#_1650299693711891clip-0)"/><g transform="matrix(1,0,0,1,0,0)"><text x="671.02" y="1050.52" style="fill: rgb(64,64,64); fill-opacity: 1.0; font-family: Tahoma; font-size: 12px;" clip-path="url(#_1650299693711891clip-0)">0,092</text></g><line x1="686.02" y1="1036" x2="686.02" y2="1034" style="stroke-width: 0.5;stroke: rgb(128,128,128);stroke-opacity: 1.0;stroke-linecap: square;shape-rendering:crispEdges;" transform="matrix(1,0,0,1,0,0)" clip-path="url(#_1650299693711891clip-0)"/><g transform="matrix(1,0,0,1,0,0)"><text x="751.16" y="1050.52" style="fill: rgb(64,64,64); fill-opacity: 1.0; font-family: Tahoma; font-size: 12px;" clip-path="url(#_1650299693711891clip-0)">0,093</text></g><line x1="766.16" y1="1036" x2="766.16" y2="1034" style="stroke-width: 0.5;stroke: rgb(128,128,128);stroke-opacity: 1.0;stroke-linecap: square;shape-rendering:crispEdges;" transform="matrix(1,0,0,1,0,0)" clip-path="url(#_1650299693711891clip-0)"/><g transform="matrix(1,0,0,1,0,0)"><text x="831.3" y="1050.52" style="fill: rgb(64,64,64); fill-opacity: 1.0; font-family: Tahoma; font-size: 12px;" clip-path="url(#_1650299693711891clip-0)">0,094</text></g><line x1="846.3" y1="1036" x2="846.3" y2="1034" style="stroke-width: 0.5;stroke: rgb(128,128,128);stroke-opacity: 1.0;stroke-linecap: square;shape-rendering:crispEdges;" transform="matrix(1,0,0,1,0,0)" clip-path="url(#_1650299693711891clip-0)"/><g transform="matrix(1,0,0,1,0,0)"><text x="911.43" y="1050.52" style="fill: rgb(64,64,64); fill-opacity: 1.0; font-family: Tahoma; font-size: 12px;" clip-path="url(#_1650299693711891clip-0)">0,095</text></g><line x1="926.43" y1="1036" x2="926.43" y2="1034" style="stroke-width: 0.5;stroke: rgb(128,128,128);stroke-opacity: 1.0;stroke-linecap: square;shape-rendering:crispEdges;" transform="matrix(1,0,0,1,0,0)" clip-path="url(#_1650299693711891clip-0)"/><g transform="matrix(1,0,0,1,0,0)"><text x="991.57" y="1050.52" style="fill: rgb(64,64,64); fill-opacity: 1.0; font-family: Tahoma; font-size: 12px;" clip-path="url(#_1650299693711891clip-0)">0,096</text></g><line x1="1006.57" y1="1036" x2="1006.57" y2="1034" style="stroke-width: 0.5;stroke: rgb(128,128,128);stroke-opacity: 1.0;stroke-linecap: square;shape-rendering:crispEdges;" transform="matrix(1,0,0,1,0,0)" clip-path="url(#_1650299693711891clip-0)"/><g transform="matrix(1,0,0,1,0,0)"><text x="1071.71" y="1050.52" style="fill: rgb(64,64,64); fill-opacity: 1.0; font-family: Tahoma; font-size: 12px;" clip-path="url(#_1650299693711891clip-0)">0,097</text></g><line x1="1086.71" y1="1036" x2="1086.71" y2="1034" style="stroke-width: 0.5;stroke: rgb(128,128,128);stroke-opacity: 1.0;stroke-linecap: square;shape-rendering:crispEdges;" transform="matrix(1,0,0,1,0,0)" clip-path="url(#_1650299693711891clip-0)"/><g transform="matrix(1,0,0,1,0,0)"><text x="1151.85" y="1050.52" style="fill: rgb(64,64,64); fill-opacity: 1.0; font-family: Tahoma; font-size: 12px;" clip-path="url(#_1650299693711891clip-0)">0,098</text></g><line x1="1166.85" y1="1036" x2="1166.85" y2="1034" style="stroke-width: 0.5;stroke: rgb(128,128,128);stroke-opacity: 1.0;stroke-linecap: square;shape-rendering:crispEdges;" transform="matrix(1,0,0,1,0,0)" clip-path="url(#_1650299693711891clip-0)"/><g transform="matrix(1,0,0,1,0,0)"><text x="1231.98" y="1050.52" style="fill: rgb(64,64,64); fill-opacity: 1.0; font-family: Tahoma; font-size: 12px;" clip-path="url(#_1650299693711891clip-0)">0,099</text></g><line x1="1246.98" y1="1036" x2="1246.98" y2="1034" style="stroke-width: 0.5;stroke: rgb(128,128,128);stroke-opacity: 1.0;stroke-linecap: square;shape-rendering:crispEdges;" transform="matrix(1,0,0,1,0,0)" clip-path="url(#_1650299693711891clip-0)"/><g transform="matrix(1,0,0,1,0,0)"><text x="1312.12" y="1050.52" style="fill: rgb(64,64,64); fill-opacity: 1.0; font-family: Tahoma; font-size: 12px;" clip-path="url(#_1650299693711891clip-0)">0,100</text></g><line x1="1327.12" y1="1036" x2="1327.12" y2="1034" style="stroke-width: 0.5;stroke: rgb(128,128,128);stroke-opacity: 1.0;stroke-linecap: square;shape-rendering:crispEdges;" transform="matrix(1,0,0,1,0,0)" clip-path="url(#_1650299693711891clip-0)"/><g transform="matrix(1,0,0,1,0,0)"><text x="1392.26" y="1050.52" style="fill: rgb(64,64,64); fill-opacity: 1.0; font-family: Tahoma; font-size: 12px;" clip-path="url(#_1650299693711891clip-0)">0,101</text></g><line x1="1407.26" y1="1036" x2="1407.26" y2="1034" style="stroke-width: 0.5;stroke: rgb(128,128,128);stroke-opacity: 1.0;stroke-linecap: square;shape-rendering:crispEdges;" transform="matrix(1,0,0,1,0,0)" clip-path="url(#_1650299693711891clip-0)"/><g transform="matrix(1,0,0,1,0,0)"><text x="1472.39" y="1050.52" style="fill: rgb(64,64,64); fill-opacity: 1.0; font-family: Tahoma; font-size: 12px;" clip-path="url(#_1650299693711891clip-0)">0,102</text></g><line x1="1487.39" y1="1036" x2="1487.39" y2="1034" style="stroke-width: 0.5;stroke: rgb(128,128,128);stroke-opacity: 1.0;stroke-linecap: square;shape-rendering:crispEdges;" transform="matrix(1,0,0,1,0,0)" clip-path="url(#_1650299693711891clip-0)"/><g transform="matrix(1,0,0,1,0,0)"><text x="1552.53" y="1050.52" style="fill: rgb(64,64,64); fill-opacity: 1.0; font-family: Tahoma; font-size: 12px;" clip-path="url(#_1650299693711891clip-0)">0,103</text></g><line x1="1567.53" y1="1036" x2="1567.53" y2="1034" style="stroke-width: 0.5;stroke: rgb(128,128,128);stroke-opacity: 1.0;stroke-linecap: square;shape-rendering:crispEdges;" transform="matrix(1,0,0,1,0,0)" clip-path="url(#_1650299693711891clip-0)"/><g transform="matrix(1,0,0,1,0,0)"><text x="1632.67" y="1050.52" style="fill: rgb(64,64,64); fill-opacity: 1.0; font-family: Tahoma; font-size: 12px;" clip-path="url(#_1650299693711891clip-0)">0,104</text></g><line x1="1647.67" y1="1036" x2="1647.67" y2="1034" style="stroke-width: 0.5;stroke: rgb(128,128,128);stroke-opacity: 1.0;stroke-linecap: square;shape-rendering:crispEdges;" transform="matrix(1,0,0,1,0,0)" clip-path="url(#_1650299693711891clip-0)"/><g transform="matrix(1,0,0,1,0,0)"><text x="1712.8" y="1050.52" style="fill: rgb(64,64,64); fill-opacity: 1.0; font-family: Tahoma; font-size: 12px;" clip-path="url(#_1650299693711891clip-0)">0,105</text></g><line x1="1727.8" y1="1036" x2="1727.8" y2="1034" style="stroke-width: 0.5;stroke: rgb(128,128,128);stroke-opacity: 1.0;stroke-linecap: square;shape-rendering:crispEdges;" transform="matrix(1,0,0,1,0,0)" clip-path="url(#_1650299693711891clip-0)"/><g transform="matrix(1,0,0,1,0,0)"><text x="1792.94" y="1050.52" style="fill: rgb(64,64,64); fill-opacity: 1.0; font-family: Tahoma; font-size: 12px;" clip-path="url(#_1650299693711891clip-0)">0,106</text></g><line x1="1807.94" y1="1036" x2="1807.94" y2="1034" style="stroke-width: 0.5;stroke: rgb(128,128,128);stroke-opacity: 1.0;stroke-linecap: square;shape-rendering:crispEdges;" transform="matrix(1,0,0,1,0,0)" clip-path="url(#_1650299693711891clip-0)"/><g transform="matrix(1,0,0,1,0,0)"><text x="1873.08" y="1050.52" style="fill: rgb(64,64,64); fill-opacity: 1.0; font-family: Tahoma; font-size: 12px;" clip-path="url(#_1650299693711891clip-0)">0,107</text></g><line x1="1888.08" y1="1036" x2="1888.08" y2="1034" style="stroke-width: 0.5;stroke: rgb(128,128,128);stroke-opacity: 1.0;stroke-linecap: square;shape-rendering:crispEdges;" transform="matrix(1,0,0,1,0,0)" clip-path="url(#_1650299693711891clip-0)"/><g transform="matrix(1,0,0,1,0,0)"><text x="967.5" y="1069.59" style="fill: rgb(64,64,64); fill-opacity: 1.0; font-family: Tahoma; font-size: 14px; font-weight: bold;" clip-path="url(#_1650299693711891clip-0)">CL_e </text></g><line x1="62" y1="35" x2="62" y2="1030" style="stroke-width: 0.5;stroke: rgb(128,128,128);stroke-opacity: 1.0;stroke-linecap: square;shape-rendering:crispEdges;" transform="matrix(1,0,0,1,0,0)" clip-path="url(#_1650299693711891clip-0)"/><g transform="matrix(1,0,0,1,0,0)"><text x="33" y="1021.73" style="fill: rgb(64,64,64); fill-opacity: 1.0; font-family: Tahoma; font-size: 12px;" clip-path="url(#_1650299693711891clip-0)">0,55</text></g><line x1="60" y1="1016.71" x2="62" y2="1016.71" style="stroke-width: 0.5;stroke: rgb(128,128,128);stroke-opacity: 1.0;stroke-linecap: square;shape-rendering:crispEdges;" transform="matrix(1,0,0,1,0,0)" clip-path="url(#_1650299693711891clip-0)"/><g transform="matrix(1,0,0,1,0,0)"><text x="33" y="985.71" style="fill: rgb(64,64,64); fill-opacity: 1.0; font-family: Tahoma; font-size: 12px;" clip-path="url(#_1650299693711891clip-0)">0,60</text></g><line x1="60" y1="980.69" x2="62" y2="980.69" style="stroke-width: 0.5;stroke: rgb(128,128,128);stroke-opacity: 1.0;stroke-linecap: square;shape-rendering:crispEdges;" transform="matrix(1,0,0,1,0,0)" clip-path="url(#_1650299693711891clip-0)"/><g transform="matrix(1,0,0,1,0,0)"><text x="33" y="949.69" style="fill: rgb(64,64,64); fill-opacity: 1.0; font-family: Tahoma; font-size: 12px;" clip-path="url(#_1650299693711891clip-0)">0,65</text></g><line x1="60" y1="944.67" x2="62" y2="944.67" style="stroke-width: 0.5;stroke: rgb(128,128,128);stroke-opacity: 1.0;stroke-linecap: square;shape-rendering:crispEdges;" transform="matrix(1,0,0,1,0,0)" clip-path="url(#_1650299693711891clip-0)"/><g transform="matrix(1,0,0,1,0,0)"><text x="33" y="913.68" style="fill: rgb(64,64,64); fill-opacity: 1.0; font-family: Tahoma; font-size: 12px;" clip-path="url(#_1650299693711891clip-0)">0,70</text></g><line x1="60" y1="908.65" x2="62" y2="908.65" style="stroke-width: 0.5;stroke: rgb(128,128,128);stroke-opacity: 1.0;stroke-linecap: square;shape-rendering:crispEdges;" transform="matrix(1,0,0,1,0,0)" clip-path="url(#_1650299693711891clip-0)"/><g transform="matrix(1,0,0,1,0,0)"><text x="33" y="877.66" style="fill: rgb(64,64,64); fill-opacity: 1.0; font-family: Tahoma; font-size: 12px;" clip-path="url(#_1650299693711891clip-0)">0,75</text></g><line x1="60" y1="872.64" x2="62" y2="872.64" style="stroke-width: 0.5;stroke: rgb(128,128,128);stroke-opacity: 1.0;stroke-linecap: square;shape-rendering:crispEdges;" transform="matrix(1,0,0,1,0,0)" clip-path="url(#_1650299693711891clip-0)"/><g transform="matrix(1,0,0,1,0,0)"><text x="33" y="841.64" style="fill: rgb(64,64,64); fill-opacity: 1.0; font-family: Tahoma; font-size: 12px;" clip-path="url(#_1650299693711891clip-0)">0,80</text></g><line x1="60" y1="836.62" x2="62" y2="836.62" style="stroke-width: 0.5;stroke: rgb(128,128,128);stroke-opacity: 1.0;stroke-linecap: square;shape-rendering:crispEdges;" transform="matrix(1,0,0,1,0,0)" clip-path="url(#_1650299693711891clip-0)"/><g transform="matrix(1,0,0,1,0,0)"><text x="33" y="805.62" style="fill: rgb(64,64,64); fill-opacity: 1.0; font-family: Tahoma; font-size: 12px;" clip-path="url(#_1650299693711891clip-0)">0,85</text></g><line x1="60" y1="800.6" x2="62" y2="800.6" style="stroke-width: 0.5;stroke: rgb(128,128,128);stroke-opacity: 1.0;stroke-linecap: square;shape-rendering:crispEdges;" transform="matrix(1,0,0,1,0,0)" clip-path="url(#_1650299693711891clip-0)"/><g transform="matrix(1,0,0,1,0,0)"><text x="33" y="769.6" style="fill: rgb(64,64,64); fill-opacity: 1.0; font-family: Tahoma; font-size: 12px;" clip-path="url(#_1650299693711891clip-0)">0,90</text></g><line x1="60" y1="764.58" x2="62" y2="764.58" style="stroke-width: 0.5;stroke: rgb(128,128,128);stroke-opacity: 1.0;stroke-linecap: square;shape-rendering:crispEdges;" transform="matrix(1,0,0,1,0,0)" clip-path="url(#_1650299693711891clip-0)"/><g transform="matrix(1,0,0,1,0,0)"><text x="33" y="733.58" style="fill: rgb(64,64,64); fill-opacity: 1.0; font-family: Tahoma; font-size: 12px;" clip-path="url(#_1650299693711891clip-0)">0,95</text></g><line x1="60" y1="728.56" x2="62" y2="728.56" style="stroke-width: 0.5;stroke: rgb(128,128,128);stroke-opacity: 1.0;stroke-linecap: square;shape-rendering:crispEdges;" transform="matrix(1,0,0,1,0,0)" clip-path="url(#_1650299693711891clip-0)"/><g transform="matrix(1,0,0,1,0,0)"><text x="33" y="697.56" style="fill: rgb(64,64,64); fill-opacity: 1.0; font-family: Tahoma; font-size: 12px;" clip-path="url(#_1650299693711891clip-0)">1,00</text></g><line x1="60" y1="692.54" x2="62" y2="692.54" style="stroke-width: 0.5;stroke: rgb(128,128,128);stroke-opacity: 1.0;stroke-linecap: square;shape-rendering:crispEdges;" transform="matrix(1,0,0,1,0,0)" clip-path="url(#_1650299693711891clip-0)"/><g transform="matrix(1,0,0,1,0,0)"><text x="33" y="661.54" style="fill: rgb(64,64,64); fill-opacity: 1.0; font-family: Tahoma; font-size: 12px;" clip-path="url(#_1650299693711891clip-0)">1,05</text></g><line x1="60" y1="656.52" x2="62" y2="656.52" style="stroke-width: 0.5;stroke: rgb(128,128,128);stroke-opacity: 1.0;stroke-linecap: square;shape-rendering:crispEdges;" transform="matrix(1,0,0,1,0,0)" clip-path="url(#_1650299693711891clip-0)"/><g transform="matrix(1,0,0,1,0,0)"><text x="33" y="625.52" style="fill: rgb(64,64,64); fill-opacity: 1.0; font-family: Tahoma; font-size: 12px;" clip-path="url(#_1650299693711891clip-0)">1,10</text></g><line x1="60" y1="620.5" x2="62" y2="620.5" style="stroke-width: 0.5;stroke: rgb(128,128,128);stroke-opacity: 1.0;stroke-linecap: square;shape-rendering:crispEdges;" transform="matrix(1,0,0,1,0,0)" clip-path="url(#_1650299693711891clip-0)"/><g transform="matrix(1,0,0,1,0,0)"><text x="33" y="589.51" style="fill: rgb(64,64,64); fill-opacity: 1.0; font-family: Tahoma; font-size: 12px;" clip-path="url(#_1650299693711891clip-0)">1,15</text></g><line x1="60" y1="584.48" x2="62" y2="584.48" style="stroke-width: 0.5;stroke: rgb(128,128,128);stroke-opacity: 1.0;stroke-linecap: square;shape-rendering:crispEdges;" transform="matrix(1,0,0,1,0,0)" clip-path="url(#_1650299693711891clip-0)"/><g transform="matrix(1,0,0,1,0,0)"><text x="33" y="553.49" style="fill: rgb(64,64,64); fill-opacity: 1.0; font-family: Tahoma; font-size: 12px;" clip-path="url(#_1650299693711891clip-0)">1,20</text></g><line x1="60" y1="548.46" x2="62" y2="548.46" style="stroke-width: 0.5;stroke: rgb(128,128,128);stroke-opacity: 1.0;stroke-linecap: square;shape-rendering:crispEdges;" transform="matrix(1,0,0,1,0,0)" clip-path="url(#_1650299693711891clip-0)"/><g transform="matrix(1,0,0,1,0,0)"><text x="33" y="517.47" style="fill: rgb(64,64,64); fill-opacity: 1.0; font-family: Tahoma; font-size: 12px;" clip-path="url(#_1650299693711891clip-0)">1,25</text></g><line x1="60" y1="512.45" x2="62" y2="512.45" style="stroke-width: 0.5;stroke: rgb(128,128,128);stroke-opacity: 1.0;stroke-linecap: square;shape-rendering:crispEdges;" transform="matrix(1,0,0,1,0,0)" clip-path="url(#_1650299693711891clip-0)"/><g transform="matrix(1,0,0,1,0,0)"><text x="33" y="481.45" style="fill: rgb(64,64,64); fill-opacity: 1.0; font-family: Tahoma; font-size: 12px;" clip-path="url(#_1650299693711891clip-0)">1,30</text></g><line x1="60" y1="476.43" x2="62" y2="476.43" style="stroke-width: 0.5;stroke: rgb(128,128,128);stroke-opacity: 1.0;stroke-linecap: square;shape-rendering:crispEdges;" transform="matrix(1,0,0,1,0,0)" clip-path="url(#_1650299693711891clip-0)"/><g transform="matrix(1,0,0,1,0,0)"><text x="33" y="445.43" style="fill: rgb(64,64,64); fill-opacity: 1.0; font-family: Tahoma; font-size: 12px;" clip-path="url(#_1650299693711891clip-0)">1,35</text></g><line x1="60" y1="440.41" x2="62" y2="440.41" style="stroke-width: 0.5;stroke: rgb(128,128,128);stroke-opacity: 1.0;stroke-linecap: square;shape-rendering:crispEdges;" transform="matrix(1,0,0,1,0,0)" clip-path="url(#_1650299693711891clip-0)"/><g transform="matrix(1,0,0,1,0,0)"><text x="33" y="409.41" style="fill: rgb(64,64,64); fill-opacity: 1.0; font-family: Tahoma; font-size: 12px;" clip-path="url(#_1650299693711891clip-0)">1,40</text></g><line x1="60" y1="404.39" x2="62" y2="404.39" style="stroke-width: 0.5;stroke: rgb(128,128,128);stroke-opacity: 1.0;stroke-linecap: square;shape-rendering:crispEdges;" transform="matrix(1,0,0,1,0,0)" clip-path="url(#_1650299693711891clip-0)"/><g transform="matrix(1,0,0,1,0,0)"><text x="33" y="373.39" style="fill: rgb(64,64,64); fill-opacity: 1.0; font-family: Tahoma; font-size: 12px;" clip-path="url(#_1650299693711891clip-0)">1,45</text></g><line x1="60" y1="368.37" x2="62" y2="368.37" style="stroke-width: 0.5;stroke: rgb(128,128,128);stroke-opacity: 1.0;stroke-linecap: square;shape-rendering:crispEdges;" transform="matrix(1,0,0,1,0,0)" clip-path="url(#_1650299693711891clip-0)"/><g transform="matrix(1,0,0,1,0,0)"><text x="33" y="337.37" style="fill: rgb(64,64,64); fill-opacity: 1.0; font-family: Tahoma; font-size: 12px;" clip-path="url(#_1650299693711891clip-0)">1,50</text></g><line x1="60" y1="332.35" x2="62" y2="332.35" style="stroke-width: 0.5;stroke: rgb(128,128,128);stroke-opacity: 1.0;stroke-linecap: square;shape-rendering:crispEdges;" transform="matrix(1,0,0,1,0,0)" clip-path="url(#_1650299693711891clip-0)"/><g transform="matrix(1,0,0,1,0,0)"><text x="33" y="301.35" style="fill: rgb(64,64,64); fill-opacity: 1.0; font-family: Tahoma; font-size: 12px;" clip-path="url(#_1650299693711891clip-0)">1,55</text></g><line x1="60" y1="296.33" x2="62" y2="296.33" style="stroke-width: 0.5;stroke: rgb(128,128,128);stroke-opacity: 1.0;stroke-linecap: square;shape-rendering:crispEdges;" transform="matrix(1,0,0,1,0,0)" clip-path="url(#_1650299693711891clip-0)"/><g transform="matrix(1,0,0,1,0,0)"><text x="33" y="265.34" style="fill: rgb(64,64,64); fill-opacity: 1.0; font-family: Tahoma; font-size: 12px;" clip-path="url(#_1650299693711891clip-0)">1,60</text></g><line x1="60" y1="260.31" x2="62" y2="260.31" style="stroke-width: 0.5;stroke: rgb(128,128,128);stroke-opacity: 1.0;stroke-linecap: square;shape-rendering:crispEdges;" transform="matrix(1,0,0,1,0,0)" clip-path="url(#_1650299693711891clip-0)"/><g transform="matrix(1,0,0,1,0,0)"><text x="33" y="229.32" style="fill: rgb(64,64,64); fill-opacity: 1.0; font-family: Tahoma; font-size: 12px;" clip-path="url(#_1650299693711891clip-0)">1,65</text></g><line x1="60" y1="224.29" x2="62" y2="224.29" style="stroke-width: 0.5;stroke: rgb(128,128,128);stroke-opacity: 1.0;stroke-linecap: square;shape-rendering:crispEdges;" transform="matrix(1,0,0,1,0,0)" clip-path="url(#_1650299693711891clip-0)"/><g transform="matrix(1,0,0,1,0,0)"><text x="33" y="193.3" style="fill: rgb(64,64,64); fill-opacity: 1.0; font-family: Tahoma; font-size: 12px;" clip-path="url(#_1650299693711891clip-0)">1,70</text></g><line x1="60" y1="188.28" x2="62" y2="188.28" style="stroke-width: 0.5;stroke: rgb(128,128,128);stroke-opacity: 1.0;stroke-linecap: square;shape-rendering:crispEdges;" transform="matrix(1,0,0,1,0,0)" clip-path="url(#_1650299693711891clip-0)"/><g transform="matrix(1,0,0,1,0,0)"><text x="33" y="157.28" style="fill: rgb(64,64,64); fill-opacity: 1.0; font-family: Tahoma; font-size: 12px;" clip-path="url(#_1650299693711891clip-0)">1,75</text></g><line x1="60" y1="152.26" x2="62" y2="152.26" style="stroke-width: 0.5;stroke: rgb(128,128,128);stroke-opacity: 1.0;stroke-linecap: square;shape-rendering:crispEdges;" transform="matrix(1,0,0,1,0,0)" clip-path="url(#_1650299693711891clip-0)"/><g transform="matrix(1,0,0,1,0,0)"><text x="33" y="121.26" style="fill: rgb(64,64,64); fill-opacity: 1.0; font-family: Tahoma; font-size: 12px;" clip-path="url(#_1650299693711891clip-0)">1,80</text></g><line x1="60" y1="116.24" x2="62" y2="116.24" style="stroke-width: 0.5;stroke: rgb(128,128,128);stroke-opacity: 1.0;stroke-linecap: square;shape-rendering:crispEdges;" transform="matrix(1,0,0,1,0,0)" clip-path="url(#_1650299693711891clip-0)"/><g transform="matrix(1,0,0,1,0,0)"><text x="33" y="85.24" style="fill: rgb(64,64,64); fill-opacity: 1.0; font-family: Tahoma; font-size: 12px;" clip-path="url(#_1650299693711891clip-0)">1,85</text></g><line x1="60" y1="80.22" x2="62" y2="80.22" style="stroke-width: 0.5;stroke: rgb(128,128,128);stroke-opacity: 1.0;stroke-linecap: square;shape-rendering:crispEdges;" transform="matrix(1,0,0,1,0,0)" clip-path="url(#_1650299693711891clip-0)"/><g transform="matrix(1,0,0,1,0,0)"><text x="33" y="49.22" style="fill: rgb(64,64,64); fill-opacity: 1.0; font-family: Tahoma; font-size: 12px;" clip-path="url(#_1650299693711891clip-0)">1,90</text></g><line x1="60" y1="44.2" x2="62" y2="44.2" style="stroke-width: 0.5;stroke: rgb(128,128,128);stroke-opacity: 1.0;stroke-linecap: square;shape-rendering:crispEdges;" transform="matrix(1,0,0,1,0,0)" clip-path="url(#_1650299693711891clip-0)"/><g style="fill: rgb(64,64,64); fill-opacity: 1.0; stroke: none" transform="matrix(0,-1,1,0,-513,552)" clip-path="url(#_1650299693711891clip-1)"><path d="M 4.44 538.31 Q 2.16 538.31 0.8 536.92 Q -0.55 535.53 -0.55 533.03 Q -0.55 530.61 0.8 529.17 Q 2.16 527.73 4.45 527.73 Q 5.06 527.73 5.55 527.8 Q 6.03 527.87 6.47 527.98 Q 6.83 528.09 7.23 528.27 Q 7.64 528.45 7.89 528.58 L 7.89 531 L 7.64 531 Q 7.45 530.84 7.17 530.62 Q 6.89 530.39 6.53 530.17 Q 6.17 529.95 5.75 529.8 Q 5.33 529.64 4.86 529.64 Q 4.31 529.64 3.84 529.81 Q 3.38 529.98 2.97 530.42 Q 2.58 530.81 2.34 531.48 Q 2.09 532.14 2.09 533.03 Q 2.09 533.98 2.35 534.63 Q 2.61 535.28 3.02 535.67 Q 3.41 536.06 3.9 536.23 Q 4.39 536.41 4.88 536.41 Q 5.38 536.41 5.84 536.23 Q 6.3 536.06 6.61 535.86 Q 6.95 535.64 7.21 535.42 Q 7.47 535.2 7.66 535.05 L 7.89 535.05 L 7.89 537.44 Q 7.61 537.56 7.24 537.73 Q 6.88 537.89 6.48 538.01 Q 6 538.16 5.59 538.23 Q 5.17 538.31 4.44 538.31 Z  M 18.49 533.03 Q 18.49 534.45 17.87 535.58 Q 17.25 536.7 16.3 537.3 Q 15.5 537.81 14.57 537.96 Q 13.64 538.11 12.58 538.11 L 9.39 538.11 L 9.39 527.94 L 12.56 527.94 Q 13.63 527.94 14.56 528.07 Q 15.5 528.2 16.33 528.73 Q 17.33 529.37 17.91 530.46 Q 18.49 531.55 18.49 533.03 Z  M 15.86 533.01 Q 15.86 532 15.52 531.29 Q 15.17 530.58 14.45 530.17 Q 13.94 529.89 13.37 529.86 Q 12.8 529.83 12 529.83 L 11.95 529.83 L 11.95 536.2 L 12 536.2 Q 12.86 536.2 13.45 536.17 Q 14.05 536.14 14.58 535.81 Q 15.2 535.41 15.53 534.71 Q 15.86 534.01 15.86 533.01 Z  M 27.98 540.47 L 18.84 540.47 L 18.84 539.09 L 27.98 539.09 L 27.98 540.47 Z  M 32.71 538.31 Q 30.53 538.31 29.38 537.27 Q 28.22 536.23 28.22 534.31 Q 28.22 532.44 29.3 531.31 Q 30.38 530.19 32.31 530.19 Q 34.08 530.19 34.97 531.14 Q 35.86 532.09 35.86 533.86 L 35.86 534.72 L 30.61 534.72 Q 30.66 535.26 30.85 535.62 Q 31.03 535.97 31.35 536.19 Q 31.66 536.41 32.06 536.49 Q 32.47 536.58 32.96 536.58 Q 33.38 536.58 33.78 536.49 Q 34.19 536.41 34.52 536.25 Q 34.81 536.12 35.06 535.97 Q 35.31 535.81 35.47 535.7 L 35.72 535.7 L 35.72 537.67 Q 35.42 537.8 35.18 537.9 Q 34.94 538 34.52 538.09 Q 34.13 538.2 33.71 538.26 Q 33.3 538.31 32.71 538.31 Z  M 33.5 533.28 Q 33.49 532.53 33.15 532.13 Q 32.81 531.73 32.13 531.73 Q 31.44 531.73 31.05 532.15 Q 30.66 532.56 30.61 533.28 L 33.5 533.28 Z "/></g><line x1="125.06" y1="35" x2="125.06" y2="1030" style="stroke-width: 0.5;stroke: rgb(192,192,192);stroke-opacity: 1.0;stroke-linejoin: bevel;stroke-dasharray: 2.0, 2.0;shape-rendering:crispEdges;" transform="matrix(1,0,0,1,0,0)" clip-path="url(#_1650299693711891clip-2)"/><line x1="205.2" y1="35" x2="205.2" y2="1030" style="stroke-width: 0.5;stroke: rgb(192,192,192);stroke-opacity: 1.0;stroke-linejoin: bevel;stroke-dasharray: 2.0, 2.0;shape-rendering:crispEdges;" transform="matrix(1,0,0,1,0,0)" clip-path="url(#_1650299693711891clip-2)"/><line x1="285.34" y1="35" x2="285.34" y2="1030" style="stroke-width: 0.5;stroke: rgb(192,192,192);stroke-opacity: 1.0;stroke-linejoin: bevel;stroke-dasharray: 2.0, 2.0;shape-rendering:crispEdges;" transform="matrix(1,0,0,1,0,0)" clip-path="url(#_1650299693711891clip-2)"/><line x1="365.48" y1="35" x2="365.48" y2="1030" style="stroke-width: 0.5;stroke: rgb(192,192,192);stroke-opacity: 1.0;stroke-linejoin: bevel;stroke-dasharray: 2.0, 2.0;shape-rendering:crispEdges;" transform="matrix(1,0,0,1,0,0)" clip-path="url(#_1650299693711891clip-2)"/><line x1="445.61" y1="35" x2="445.61" y2="1030" style="stroke-width: 0.5;stroke: rgb(192,192,192);stroke-opacity: 1.0;stroke-linejoin: bevel;stroke-dasharray: 2.0, 2.0;shape-rendering:crispEdges;" transform="matrix(1,0,0,1,0,0)" clip-path="url(#_1650299693711891clip-2)"/><line x1="525.75" y1="35" x2="525.75" y2="1030" style="stroke-width: 0.5;stroke: rgb(192,192,192);stroke-opacity: 1.0;stroke-linejoin: bevel;stroke-dasharray: 2.0, 2.0;shape-rendering:crispEdges;" transform="matrix(1,0,0,1,0,0)" clip-path="url(#_1650299693711891clip-2)"/><line x1="605.89" y1="35" x2="605.89" y2="1030" style="stroke-width: 0.5;stroke: rgb(192,192,192);stroke-opacity: 1.0;stroke-linejoin: bevel;stroke-dasharray: 2.0, 2.0;shape-rendering:crispEdges;" transform="matrix(1,0,0,1,0,0)" clip-path="url(#_1650299693711891clip-2)"/><line x1="686.02" y1="35" x2="686.02" y2="1030" style="stroke-width: 0.5;stroke: rgb(192,192,192);stroke-opacity: 1.0;stroke-linejoin: bevel;stroke-dasharray: 2.0, 2.0;shape-rendering:crispEdges;" transform="matrix(1,0,0,1,0,0)" clip-path="url(#_1650299693711891clip-2)"/><line x1="766.16" y1="35" x2="766.16" y2="1030" style="stroke-width: 0.5;stroke: rgb(192,192,192);stroke-opacity: 1.0;stroke-linejoin: bevel;stroke-dasharray: 2.0, 2.0;shape-rendering:crispEdges;" transform="matrix(1,0,0,1,0,0)" clip-path="url(#_1650299693711891clip-2)"/><line x1="846.3" y1="35" x2="846.3" y2="1030" style="stroke-width: 0.5;stroke: rgb(192,192,192);stroke-opacity: 1.0;stroke-linejoin: bevel;stroke-dasharray: 2.0, 2.0;shape-rendering:crispEdges;" transform="matrix(1,0,0,1,0,0)" clip-path="url(#_1650299693711891clip-2)"/><line x1="926.43" y1="35" x2="926.43" y2="1030" style="stroke-width: 0.5;stroke: rgb(192,192,192);stroke-opacity: 1.0;stroke-linejoin: bevel;stroke-dasharray: 2.0, 2.0;shape-rendering:crispEdges;" transform="matrix(1,0,0,1,0,0)" clip-path="url(#_1650299693711891clip-2)"/><line x1="1006.57" y1="35" x2="1006.57" y2="1030" style="stroke-width: 0.5;stroke: rgb(192,192,192);stroke-opacity: 1.0;stroke-linejoin: bevel;stroke-dasharray: 2.0, 2.0;shape-rendering:crispEdges;" transform="matrix(1,0,0,1,0,0)" clip-path="url(#_1650299693711891clip-2)"/><line x1="1086.71" y1="35" x2="1086.71" y2="1030" style="stroke-width: 0.5;stroke: rgb(192,192,192);stroke-opacity: 1.0;stroke-linejoin: bevel;stroke-dasharray: 2.0, 2.0;shape-rendering:crispEdges;" transform="matrix(1,0,0,1,0,0)" clip-path="url(#_1650299693711891clip-2)"/><line x1="1166.85" y1="35" x2="1166.85" y2="1030" style="stroke-width: 0.5;stroke: rgb(192,192,192);stroke-opacity: 1.0;stroke-linejoin: bevel;stroke-dasharray: 2.0, 2.0;shape-rendering:crispEdges;" transform="matrix(1,0,0,1,0,0)" clip-path="url(#_1650299693711891clip-2)"/><line x1="1246.98" y1="35" x2="1246.98" y2="1030" style="stroke-width: 0.5;stroke: rgb(192,192,192);stroke-opacity: 1.0;stroke-linejoin: bevel;stroke-dasharray: 2.0, 2.0;shape-rendering:crispEdges;" transform="matrix(1,0,0,1,0,0)" clip-path="url(#_1650299693711891clip-2)"/><line x1="1327.12" y1="35" x2="1327.12" y2="1030" style="stroke-width: 0.5;stroke: rgb(192,192,192);stroke-opacity: 1.0;stroke-linejoin: bevel;stroke-dasharray: 2.0, 2.0;shape-rendering:crispEdges;" transform="matrix(1,0,0,1,0,0)" clip-path="url(#_1650299693711891clip-2)"/><line x1="1407.26" y1="35" x2="1407.26" y2="1030" style="stroke-width: 0.5;stroke: rgb(192,192,192);stroke-opacity: 1.0;stroke-linejoin: bevel;stroke-dasharray: 2.0, 2.0;shape-rendering:crispEdges;" transform="matrix(1,0,0,1,0,0)" clip-path="url(#_1650299693711891clip-2)"/><line x1="1487.39" y1="35" x2="1487.39" y2="1030" style="stroke-width: 0.5;stroke: rgb(192,192,192);stroke-opacity: 1.0;stroke-linejoin: bevel;stroke-dasharray: 2.0, 2.0;shape-rendering:crispEdges;" transform="matrix(1,0,0,1,0,0)" clip-path="url(#_1650299693711891clip-2)"/><line x1="1567.53" y1="35" x2="1567.53" y2="1030" style="stroke-width: 0.5;stroke: rgb(192,192,192);stroke-opacity: 1.0;stroke-linejoin: bevel;stroke-dasharray: 2.0, 2.0;shape-rendering:crispEdges;" transform="matrix(1,0,0,1,0,0)" clip-path="url(#_1650299693711891clip-2)"/><line x1="1647.67" y1="35" x2="1647.67" y2="1030" style="stroke-width: 0.5;stroke: rgb(192,192,192);stroke-opacity: 1.0;stroke-linejoin: bevel;stroke-dasharray: 2.0, 2.0;shape-rendering:crispEdges;" transform="matrix(1,0,0,1,0,0)" clip-path="url(#_1650299693711891clip-2)"/><line x1="1727.8" y1="35" x2="1727.8" y2="1030" style="stroke-width: 0.5;stroke: rgb(192,192,192);stroke-opacity: 1.0;stroke-linejoin: bevel;stroke-dasharray: 2.0, 2.0;shape-rendering:crispEdges;" transform="matrix(1,0,0,1,0,0)" clip-path="url(#_1650299693711891clip-2)"/><line x1="1807.94" y1="35" x2="1807.94" y2="1030" style="stroke-width: 0.5;stroke: rgb(192,192,192);stroke-opacity: 1.0;stroke-linejoin: bevel;stroke-dasharray: 2.0, 2.0;shape-rendering:crispEdges;" transform="matrix(1,0,0,1,0,0)" clip-path="url(#_1650299693711891clip-2)"/><line x1="1888.08" y1="35" x2="1888.08" y2="1030" style="stroke-width: 0.5;stroke: rgb(192,192,192);stroke-opacity: 1.0;stroke-linejoin: bevel;stroke-dasharray: 2.0, 2.0;shape-rendering:crispEdges;" transform="matrix(1,0,0,1,0,0)" clip-path="url(#_1650299693711891clip-2)"/><line x1="66" y1="1016.71" x2="1908" y2="1016.71" style="stroke-width: 0.5;stroke: rgb(192,192,192);stroke-opacity: 1.0;stroke-linejoin: bevel;stroke-dasharray: 2.0, 2.0;shape-rendering:crispEdges;" transform="matrix(1,0,0,1,0,0)" clip-path="url(#_1650299693711891clip-2)"/><line x1="66" y1="980.69" x2="1908" y2="980.69" style="stroke-width: 0.5;stroke: rgb(192,192,192);stroke-opacity: 1.0;stroke-linejoin: bevel;stroke-dasharray: 2.0, 2.0;shape-rendering:crispEdges;" transform="matrix(1,0,0,1,0,0)" clip-path="url(#_1650299693711891clip-2)"/><line x1="66" y1="944.67" x2="1908" y2="944.67" style="stroke-width: 0.5;stroke: rgb(192,192,192);stroke-opacity: 1.0;stroke-linejoin: bevel;stroke-dasharray: 2.0, 2.0;shape-rendering:crispEdges;" transform="matrix(1,0,0,1,0,0)" clip-path="url(#_1650299693711891clip-2)"/><line x1="66" y1="908.65" x2="1908" y2="908.65" style="stroke-width: 0.5;stroke: rgb(192,192,192);stroke-opacity: 1.0;stroke-linejoin: bevel;stroke-dasharray: 2.0, 2.0;shape-rendering:crispEdges;" transform="matrix(1,0,0,1,0,0)" clip-path="url(#_1650299693711891clip-2)"/><line x1="66" y1="872.64" x2="1908" y2="872.64" style="stroke-width: 0.5;stroke: rgb(192,192,192);stroke-opacity: 1.0;stroke-linejoin: bevel;stroke-dasharray: 2.0, 2.0;shape-rendering:crispEdges;" transform="matrix(1,0,0,1,0,0)" clip-path="url(#_1650299693711891clip-2)"/><line x1="66" y1="836.62" x2="1908" y2="836.62" style="stroke-width: 0.5;stroke: rgb(192,192,192);stroke-opacity: 1.0;stroke-linejoin: bevel;stroke-dasharray: 2.0, 2.0;shape-rendering:crispEdges;" transform="matrix(1,0,0,1,0,0)" clip-path="url(#_1650299693711891clip-2)"/><line x1="66" y1="800.6" x2="1908" y2="800.6" style="stroke-width: 0.5;stroke: rgb(192,192,192);stroke-opacity: 1.0;stroke-linejoin: bevel;stroke-dasharray: 2.0, 2.0;shape-rendering:crispEdges;" transform="matrix(1,0,0,1,0,0)" clip-path="url(#_1650299693711891clip-2)"/><line x1="66" y1="764.58" x2="1908" y2="764.58" style="stroke-width: 0.5;stroke: rgb(192,192,192);stroke-opacity: 1.0;stroke-linejoin: bevel;stroke-dasharray: 2.0, 2.0;shape-rendering:crispEdges;" transform="matrix(1,0,0,1,0,0)" clip-path="url(#_1650299693711891clip-2)"/><line x1="66" y1="728.56" x2="1908" y2="728.56" style="stroke-width: 0.5;stroke: rgb(192,192,192);stroke-opacity: 1.0;stroke-linejoin: bevel;stroke-dasharray: 2.0, 2.0;shape-rendering:crispEdges;" transform="matrix(1,0,0,1,0,0)" clip-path="url(#_1650299693711891clip-2)"/><line x1="66" y1="692.54" x2="1908" y2="692.54" style="stroke-width: 0.5;stroke: rgb(192,192,192);stroke-opacity: 1.0;stroke-linejoin: bevel;stroke-dasharray: 2.0, 2.0;shape-rendering:crispEdges;" transform="matrix(1,0,0,1,0,0)" clip-path="url(#_1650299693711891clip-2)"/><line x1="66" y1="656.52" x2="1908" y2="656.52" style="stroke-width: 0.5;stroke: rgb(192,192,192);stroke-opacity: 1.0;stroke-linejoin: bevel;stroke-dasharray: 2.0, 2.0;shape-rendering:crispEdges;" transform="matrix(1,0,0,1,0,0)" clip-path="url(#_1650299693711891clip-2)"/><line x1="66" y1="620.5" x2="1908" y2="620.5" style="stroke-width: 0.5;stroke: rgb(192,192,192);stroke-opacity: 1.0;stroke-linejoin: bevel;stroke-dasharray: 2.0, 2.0;shape-rendering:crispEdges;" transform="matrix(1,0,0,1,0,0)" clip-path="url(#_1650299693711891clip-2)"/><line x1="66" y1="584.48" x2="1908" y2="584.48" style="stroke-width: 0.5;stroke: rgb(192,192,192);stroke-opacity: 1.0;stroke-linejoin: bevel;stroke-dasharray: 2.0, 2.0;shape-rendering:crispEdges;" transform="matrix(1,0,0,1,0,0)" clip-path="url(#_1650299693711891clip-2)"/><line x1="66" y1="548.46" x2="1908" y2="548.46" style="stroke-width: 0.5;stroke: rgb(192,192,192);stroke-opacity: 1.0;stroke-linejoin: bevel;stroke-dasharray: 2.0, 2.0;shape-rendering:crispEdges;" transform="matrix(1,0,0,1,0,0)" clip-path="url(#_1650299693711891clip-2)"/><line x1="66" y1="512.45" x2="1908" y2="512.45" style="stroke-width: 0.5;stroke: rgb(192,192,192);stroke-opacity: 1.0;stroke-linejoin: bevel;stroke-dasharray: 2.0, 2.0;shape-rendering:crispEdges;" transform="matrix(1,0,0,1,0,0)" clip-path="url(#_1650299693711891clip-2)"/><line x1="66" y1="476.43" x2="1908" y2="476.43" style="stroke-width: 0.5;stroke: rgb(192,192,192);stroke-opacity: 1.0;stroke-linejoin: bevel;stroke-dasharray: 2.0, 2.0;shape-rendering:crispEdges;" transform="matrix(1,0,0,1,0,0)" clip-path="url(#_1650299693711891clip-2)"/><line x1="66" y1="440.41" x2="1908" y2="440.41" style="stroke-width: 0.5;stroke: rgb(192,192,192);stroke-opacity: 1.0;stroke-linejoin: bevel;stroke-dasharray: 2.0, 2.0;shape-rendering:crispEdges;" transform="matrix(1,0,0,1,0,0)" clip-path="url(#_1650299693711891clip-2)"/><line x1="66" y1="404.39" x2="1908" y2="404.39" style="stroke-width: 0.5;stroke: rgb(192,192,192);stroke-opacity: 1.0;stroke-linejoin: bevel;stroke-dasharray: 2.0, 2.0;shape-rendering:crispEdges;" transform="matrix(1,0,0,1,0,0)" clip-path="url(#_1650299693711891clip-2)"/><line x1="66" y1="368.37" x2="1908" y2="368.37" style="stroke-width: 0.5;stroke: rgb(192,192,192);stroke-opacity: 1.0;stroke-linejoin: bevel;stroke-dasharray: 2.0, 2.0;shape-rendering:crispEdges;" transform="matrix(1,0,0,1,0,0)" clip-path="url(#_1650299693711891clip-2)"/><line x1="66" y1="332.35" x2="1908" y2="332.35" style="stroke-width: 0.5;stroke: rgb(192,192,192);stroke-opacity: 1.0;stroke-linejoin: bevel;stroke-dasharray: 2.0, 2.0;shape-rendering:crispEdges;" transform="matrix(1,0,0,1,0,0)" clip-path="url(#_1650299693711891clip-2)"/><line x1="66" y1="296.33" x2="1908" y2="296.33" style="stroke-width: 0.5;stroke: rgb(192,192,192);stroke-opacity: 1.0;stroke-linejoin: bevel;stroke-dasharray: 2.0, 2.0;shape-rendering:crispEdges;" transform="matrix(1,0,0,1,0,0)" clip-path="url(#_1650299693711891clip-2)"/><line x1="66" y1="260.31" x2="1908" y2="260.31" style="stroke-width: 0.5;stroke: rgb(192,192,192);stroke-opacity: 1.0;stroke-linejoin: bevel;stroke-dasharray: 2.0, 2.0;shape-rendering:crispEdges;" transform="matrix(1,0,0,1,0,0)" clip-path="url(#_1650299693711891clip-2)"/><line x1="66" y1="224.29" x2="1908" y2="224.29" style="stroke-width: 0.5;stroke: rgb(192,192,192);stroke-opacity: 1.0;stroke-linejoin: bevel;stroke-dasharray: 2.0, 2.0;shape-rendering:crispEdges;" transform="matrix(1,0,0,1,0,0)" clip-path="url(#_1650299693711891clip-2)"/><line x1="66" y1="188.28" x2="1908" y2="188.28" style="stroke-width: 0.5;stroke: rgb(192,192,192);stroke-opacity: 1.0;stroke-linejoin: bevel;stroke-dasharray: 2.0, 2.0;shape-rendering:crispEdges;" transform="matrix(1,0,0,1,0,0)" clip-path="url(#_1650299693711891clip-2)"/><line x1="66" y1="152.26" x2="1908" y2="152.26" style="stroke-width: 0.5;stroke: rgb(192,192,192);stroke-opacity: 1.0;stroke-linejoin: bevel;stroke-dasharray: 2.0, 2.0;shape-rendering:crispEdges;" transform="matrix(1,0,0,1,0,0)" clip-path="url(#_1650299693711891clip-2)"/><line x1="66" y1="116.24" x2="1908" y2="116.24" style="stroke-width: 0.5;stroke: rgb(192,192,192);stroke-opacity: 1.0;stroke-linejoin: bevel;stroke-dasharray: 2.0, 2.0;shape-rendering:crispEdges;" transform="matrix(1,0,0,1,0,0)" clip-path="url(#_1650299693711891clip-2)"/><line x1="66" y1="80.22" x2="1908" y2="80.22" style="stroke-width: 0.5;stroke: rgb(192,192,192);stroke-opacity: 1.0;stroke-linejoin: bevel;stroke-dasharray: 2.0, 2.0;shape-rendering:crispEdges;" transform="matrix(1,0,0,1,0,0)" clip-path="url(#_1650299693711891clip-2)"/><line x1="66" y1="44.2" x2="1908" y2="44.2" style="stroke-width: 0.5;stroke: rgb(192,192,192);stroke-opacity: 1.0;stroke-linejoin: bevel;stroke-dasharray: 2.0, 2.0;shape-rendering:crispEdges;" transform="matrix(1,0,0,1,0,0)" clip-path="url(#_1650299693711891clip-2)"/><line x1="1126.67" y1="987.45" x2="1074.76" y2="929.28" style="stroke-width: 3.0;stroke: rgb(0,0,255);stroke-opacity: 1.0;stroke-linecap: square;shape-rendering:geometricPrecision;" transform="matrix(1,0,0,1,0,0)" clip-path="url(#_1650299693711891clip-2)"/><line x1="1074.76" y1="929.28" x2="1024.36" y2="870.94" style="stroke-width: 3.0;stroke: rgb(0,0,255);stroke-opacity: 1.0;stroke-linecap: square;shape-rendering:geometricPrecision;" transform="matrix(1,0,0,1,0,0)" clip-path="url(#_1650299693711891clip-2)"/><line x1="1024.36" y1="870.94" x2="976.17" y2="812.42" style="stroke-width: 3.0;stroke: rgb(0,0,255);stroke-opacity: 1.0;stroke-linecap: square;shape-rendering:geometricPrecision;" transform="matrix(1,0,0,1,0,0)" clip-path="url(#_1650299693711891clip-2)"/><line x1="976.17" y1="812.42" x2="932.04" y2="753.74" style="stroke-width: 3.0;stroke: rgb(0,0,255);stroke-opacity: 1.0;stroke-linecap: square;shape-rendering:geometricPrecision;" transform="matrix(1,0,0,1,0,0)" clip-path="url(#_1650299693711891clip-2)"/><line x1="932.04" y1="753.74" x2="894.53" y2="694.88" style="stroke-width: 3.0;stroke: rgb(0,0,255);stroke-opacity: 1.0;stroke-linecap: square;shape-rendering:geometricPrecision;" transform="matrix(1,0,0,1,0,0)" clip-path="url(#_1650299693711891clip-2)"/><line x1="894.53" y1="694.88" x2="864.2" y2="635.86" style="stroke-width: 3.0;stroke: rgb(0,0,255);stroke-opacity: 1.0;stroke-linecap: square;shape-rendering:geometricPrecision;" transform="matrix(1,0,0,1,0,0)" clip-path="url(#_1650299693711891clip-2)"/><line x1="864.2" y1="635.86" x2="840.62" y2="576.66" style="stroke-width: 3.0;stroke: rgb(0,0,255);stroke-opacity: 1.0;stroke-linecap: square;shape-rendering:geometricPrecision;" transform="matrix(1,0,0,1,0,0)" clip-path="url(#_1650299693711891clip-2)"/><line x1="840.62" y1="576.66" x2="824.79" y2="517.3" style="stroke-width: 3.0;stroke: rgb(0,0,255);stroke-opacity: 1.0;stroke-linecap: square;shape-rendering:geometricPrecision;" transform="matrix(1,0,0,1,0,0)" clip-path="url(#_1650299693711891clip-2)"/><line x1="824.79" y1="517.3" x2="816.29" y2="456.88" style="stroke-width: 3.0;stroke: rgb(0,0,255);stroke-opacity: 1.0;stroke-linecap: square;shape-rendering:geometricPrecision;" transform="matrix(1,0,0,1,0,0)" clip-path="url(#_1650299693711891clip-2)"/><line x1="816.29" y1="456.88" x2="827.94" y2="397.89" style="stroke-width: 3.0;stroke: rgb(0,0,255);stroke-opacity: 1.0;stroke-linecap: square;shape-rendering:geometricPrecision;" transform="matrix(1,0,0,1,0,0)" clip-path="url(#_1650299693711891clip-2)"/><line x1="827.94" y1="397.89" x2="858.48" y2="338.74" style="stroke-width: 3.0;stroke: rgb(0,0,255);stroke-opacity: 1.0;stroke-linecap: square;shape-rendering:geometricPrecision;" transform="matrix(1,0,0,1,0,0)" clip-path="url(#_1650299693711891clip-2)"/><line x1="858.48" y1="338.74" x2="925.39" y2="279.42" style="stroke-width: 3.0;stroke: rgb(0,0,255);stroke-opacity: 1.0;stroke-linecap: square;shape-rendering:geometricPrecision;" transform="matrix(1,0,0,1,0,0)" clip-path="url(#_1650299693711891clip-2)"/><line x1="925.39" y1="279.42" x2="985.59" y2="219.93" style="stroke-width: 3.0;stroke: rgb(0,0,255);stroke-opacity: 1.0;stroke-linecap: square;shape-rendering:geometricPrecision;" transform="matrix(1,0,0,1,0,0)" clip-path="url(#_1650299693711891clip-2)"/><line x1="985.59" y1="219.93" x2="1036.23" y2="160.27" style="stroke-width: 3.0;stroke: rgb(0,0,255);stroke-opacity: 1.0;stroke-linecap: square;shape-rendering:geometricPrecision;" transform="matrix(1,0,0,1,0,0)" clip-path="url(#_1650299693711891clip-2)"/><rect x="66" y="35" width="1842" height="995" style="stroke-width: 0.5;stroke: rgb(0,0,0);stroke-opacity: 1.0;stroke-linecap: round;stroke-linejoin: round;shape-rendering:crispEdges;; fill: none" transform="matrix(1,0,0,1,0,0)" clip-path="url(#_1650299693711891clip-0)"/></svg>
