DBRep_DrawableShape

CASCADE Topology V1, (c) Matra-Datavision
Locations 2
1
              1               0               0               0 
              0               1               0               0 
              0               0               1              15 
2  1 -1 0
Curve2ds 4
1 0 0 1 0 
1 0 -15 1 0 
1 0 0 0 -1 
1 28.284271247461902 0 0 -1 
Curves 2
7 0 1  3 5 5  -4.4444444444444446 5.5555555555555554 0  4.4444444444444446 4.4444444444444446 0  6.6666666666666661 0.238095238095238 0  3.5868743872505058e-16 -7.5000000000000009 0  -6.6666666666666687 -0.23809523809523814 0 
 0 2 7.0710678118654755 1 14.142135623730951 1 21.213203435596427 1 28.284271247461902 2
1 0 5 0 0 0 1 
Polygon3D 0
PolygonOnTriangulations 0
Surfaces 2
6 -0 -0 -1 
7 0 1  3 5 5  -4.4444444444444446 5.5555555555555554 0  4.4444444444444446 4.4444444444444446 0  6.6666666666666661 0.238095238095238 0  3.5868743872505058e-16 -7.5000000000000009 0  -6.6666666666666687 -0.23809523809523814 0 
 0 2 7.0710678118654755 1 14.142135623730951 1 21.213203435596427 1 28.284271247461902 2
1 0.8173375344445335 -0.57118078259425809 0 -0 -0 -1 -1 0 0 0 1 -0 
Triangulations 0

TShapes 10
Ve
1e-07
0 5 0
0 0

0101101
*
Ed
 1e-07 1 1 0
1  1 0 0 28.2842712474619
2  1 1 0 0 28.2842712474619
2  2 1 2 0 28.2842712474619
0

0101000
+10 0 -10 0 *
Wi

0101100
+9 0 *
Fa
0  1e-07 2 0

0111000
+8 0 *
Ed
 1e-07 1 1 0
1  2 0 0 15
3  3 4CN 1 0 0 15
0

0101000
+10 0 -10 1 *
Wi

0101100
+6 0 -6 0 -9 0 +9 1 *
Fa
0  1e-07 1 0

0101000
+5 0 *
Sh

0101100
+4 0 +7 0 -7 1 *
So

0100000
+3 0 *
Co

1100000
+9 0 +7 0 +2 0 *

+1 0 