DBRep_DrawableShape

CASCADE Topology V1, (c) Matra-Datavision
Locations 0
Curve2ds 84
1 0 0 1 0 
1 -1.0072841396232555 -0.076462526752714366 0.22522683985227884 -0.97430635357168638 
1 0 0 1 0 
1 -0.79050330626543719 -1.0142323920654621 1 -6.0154874219890343e-62 
1 0 0 1 0 
1 1.1344966937345617 -1.0142323920654621 0 1 
1 0 0 1 0 
1 1.1344966937345617 0.91076760793453704 -1 6.0154874219890343e-62 
1 0 0 1 0 
1 -1.2533233770551977 0.91076760793453704 -0.080733322143959743 -0.99673573764343359 
1 0 0 1 0 
7 0 0  3 4 2  -1.3109092687620993 0.19981066074011444  -1.3109092687621011 0.062975361049806722  -1.1441194393135632 -0.076462526752714366  -1.0072841396232555 -0.076462526752714366 
 0 4 0.41050589907092361 4
1 0.96249999999999969 0 0 1 
1 0 0 0 1 
7 0 0  1 2 2  0 1  0.96249999999999969 1 
 0 2 0.88374069154417989 2
1 0 0 1 0 
1 -0.92852068439807844 -0.071007238482769131 0.22997919895121682 -0.97319554461051494 
1 0 0 0 1 
1 0.41050589907092361 0 0 1 
1 1.9249999999999989 0 0 1 
1 0 0 0 1 
7 0 0  1 2 2  0 1  1.9249999999999989 1 
 0 2 1.7674813830883593 2
1 0 0 1 0 
1 -0.72527870807615358 -0.93105974208458031 1 -1.8389817629512192e-34 
1 1.9249999999999992 0 0 1 
1 0 0 0 1 
7 0 0  1 2 2  0 1  1.9249999999999992 1 
 0 2 1.76748138308836 2
1 0 0 1 0 
1 1.0422026750122058 -0.93105974208458031 0 1 
1 2.3878200707897594 0 0 1 
1 0 0 0 1 
7 0 0  1 2 2  0 1  2.3878200707897594 1 
 0 2 2.1912184657106462 2
1 0 0 1 0 
1 1.0422026750122058 0.83642164100377969 -1 1.8389817629512192e-34 
1 0.71328529754067693 0 0 1 
1 0 0 0 1 
7 0 0  1 2 2  0 1  0.71328529754067693 1 
 0 2 0.65153424940329541 2
1 0 0 1 0 
1 -1.1490157906984404 0.83642164100377969 -0.089849329783240978 -0.99595536945061069 
7 0 0  1 2 2  0 1  0.41050589907092361 1 
 0 2 0.38039219818240055 2
1 0 0 1 0 
7 0 0  3 4 2  -1.2075557063381535 0.18752260692959433  -1.2075557063381552 0.060725207535460957  -1.055318083792212 -0.071007238482769131  -0.92852068439807844 -0.071007238482769131 
 0 4 0.38039219818240055 4
1 0.88374069154417989 0 0 1 
1 0 0 0 1 
7 0 0  1 2 2  0 1  0.88374069154417989 1 
 0 2 0.86053398822981242 2
1 0 0 0 1 
1 0.38039219818240055 0 0 1 
1 1.7674813830883593 0 0 1 
1 0 0 0 1 
7 0 0  1 2 2  0 1  1.7674813830883593 1 
 0 2 1.7210679764596257 2
1 1.76748138308836 0 0 1 
1 0 0 0 1 
7 0 0  1 2 2  0 1  1.76748138308836 1 
 0 2 1.7210679764596251 2
1 2.1912184657106462 0 0 1 
1 0 0 0 1 
7 0 0  1 2 2  0 1  2.1912184657106462 1 
 0 2 2.1309759024339048 2
1 0.65153424940329541 0 0 1 
1 0 0 0 1 
7 0 0  1 2 2  0 1  0.65153424940329541 1 
 0 2 0.63304152198415753 2
7 0 0  1 2 2  0 1  0.38039219818240055 1 
 0 2 0.37117679745826554 2
1 0 0 1 0 
1 0 0 1 0 
1 0 0 1 0 
1 0 0 1 0 
1 0 0 1 0 
1 0 0 1 0 
1 0.94120904962635743 0 0 1 
1 0 0 0 1 
7 0 0  1 2 2  0 1  0.94120904962635743 1 
 0 2 0.6183302810843343 2
1 0 0 0 1 
1 0.40209221009271823 0 0 1 
1 1.882418099252714 0 0 1 
1 0 0 0 1 
7 0 0  1 2 2  0 1  1.882418099252714 1 
 0 2 1.2366605621686695 2
1 1.8824180992527146 0 0 1 
1 0 0 0 1 
7 0 0  1 2 2  0 1  1.8824180992527146 1 
 0 2 1.236660562168669 2
1 2.3315059394030424 0 0 1 
1 0 0 0 1 
7 0 0  1 2 2  0 1  2.3315059394030424 1 
 0 2 1.4991087332553885 2
1 0.69606999057378938 0 0 1 
1 0 0 0 1 
7 0 0  1 2 2  0 1  0.69606999057378938 1 
 0 2 0.44896123455926473 2
7 0 0  1 2 2  0 1  0.40209221009271823 1 
 0 2 0.26666100395890513 2
Curves 48
1 12.880838485367859 1.0175919999999996 1.6331849968357253 0.22522683985227882 0 0.97430635357168627 
1 13.097619318725677 1.0175919999999996 2.570954862148473 1 0 0 
1 15.022619318725676 1.0175919999999996 2.570954862148473 0 0 -1 
1 15.022619318725676 1.0175919999999996 0.64595486214847386 -1 0 0 
1 12.634799247935916 1.0175919999999996 0.64595486214847386 -0.080733322143959743 0 0.99673573764343359 
7 0 0  3 4 2  12.577213356229015 1.0175919999999996 1.3569118093428965  12.577213356229013 1.0175919999999996 1.4937471090332042  12.744003185677551 1.0175919999999996 1.6331849968357253  12.880838485367859 1.0175919999999996 1.6331849968357253 
 0 4 0.41050589907092361 4
7 0 0  1 2 2  13.097619318725677 1.0175919999999996 2.570954862148473  13.138619695992684 4.0804999999999989 2.4804924244098441 
 0 2 1 2
1 12.935377719670759 4.0804999999999989 1.6204399208080329 0.2299791989512168 0 0.97319554461051483 
7 0 0  1 2 2  12.880838485367859 1.0175919999999996 1.6331849968357253  12.935377719670759 4.0804999999999989 1.6204399208080329 
 0 2 1 2
7 0 0  1 2 2  15.022619318725676 1.0175919999999996 2.570954862148473  14.906101079081044 4.0804999999999989 2.4804924244098441 
 0 2 1 2
1 13.138619695992684 4.0804999999999989 2.4804924244098441 1 0 0 
7 0 0  1 2 2  15.022619318725676 1.0175919999999996 0.64595486214847386  14.906101079081044 4.0804999999999989 0.71301104132148407 
 0 2 1 2
1 14.906101079081044 4.0804999999999989 2.4804924244098441 0 0 -1 
7 0 0  1 2 2  12.634799247935916 1.0175919999999996 0.64595486214847386  12.714882613370397 4.0804999999999989 0.71301104132148407 
 0 2 1 2
1 14.906101079081044 4.0804999999999989 0.71301104132148407 -1 0 0 
7 0 0  1 2 2  12.577213356229015 1.0175919999999996 1.3569118093428965  12.656342697730684 4.0804999999999989 1.3619100753956694 
 0 2 1 2
1 12.714882613370397 4.0804999999999989 0.71301104132148407 -0.089849329783240964 0 0.99595536945061058 
7 0 0  3 4 2  12.656342697730684 4.0804999999999989 1.3619100753956694  12.656342697730683 4.080499999999998 1.4887074747898028  12.808580320276626 4.080499999999998 1.6204399208080329  12.935377719670759 4.0804999999999989 1.6204399208080329 
 0 4 0.38039219818240055 4
7 0 0  1 2 2  13.138619695992684 4.0804999999999989 2.4804924244098441  13.127103500298709 4.4519649999999977 2.4599123750889453 
 0 2 1 2
1 12.929577699407227 4.4519649999999977 1.6223550320485505 0.22953863948803255 0 0.97329954946151243 
7 0 0  1 2 2  12.935377719670759 4.0804999999999989 1.6204399208080329  12.929577699407227 4.4519649999999977 1.6223550320485505 
 0 2 1 2
7 0 0  1 2 2  14.906101079081044 4.0804999999999989 2.4804924244098441  14.848171476758335 4.4519649999999977 2.4599123750889453 
 0 2 1 2
1 13.127103500298709 4.4519649999999977 2.4599123750889453 1 0 0 
7 0 0  1 2 2  14.906101079081044 4.0804999999999989 0.71301104132148407  14.848171476758335 4.4519649999999977 0.73884439862932028 
 0 2 1 2
1 14.848171476758335 4.4519649999999977 2.4599123750889453 0 0 -1 
7 0 0  1 2 2  12.714882613370397 4.0804999999999989 0.71301104132148407  12.71719557432443 4.4519649999999977 0.73884439862932028 
 0 2 1 2
1 14.848171476758335 4.4519649999999977 0.73884439862932028 -1 0 0 
7 0 0  1 2 2  12.656342697730684 4.0804999999999989 1.3619100753956694  12.658193383256513 4.4519649999999977 1.3691302940809031 
 0 2 1 2
1 12.71719557432443 4.4519649999999977 0.73884439862932028 -0.093204298642187933 0 0.99564700507489989 
7 0 0  3 4 2  12.658193383256513 4.4519649999999977 1.3691302940809031  12.658193383256513 4.4519649999999977 1.4928558932336582  12.805852100254473 4.4519649999999977 1.6223550320485505  12.929577699407227 4.4519649999999977 1.6223550320485505 
 0 4 0.37117679745826554 4
1 12.873694579760647 4.4519649999999968 1.6353707749092055 0.22414290426351269 0 0.97455628799383243 
1 13.084659909662999 4.4519649999999968 2.5526319725392712 1 0 0 
1 14.967078008915713 4.4519649999999968 2.5526319725392712 0 0 -1 
1 14.967078008915713 4.4519649999999968 0.67021387328655657 -1 0 0 
1 12.635572069512671 4.4519649999999968 0.67021387328655657 -0.083940031199222068 0 0.99647080798299037 
7 0 0  3 4 2  12.577143932787065 4.4519649999999968 1.3638272992063329  12.577143932787065 4.4519649999999977 1.4978580359039058  12.739663843063076 4.4519649999999977 1.6353707749092055  12.873694579760647 4.4519649999999968 1.6353707749092055 
 0 4 0.40209221009271823 4
7 0 0  1 2 2  13.084659909662999 4.4519649999999968 2.5526319725392712  12.887908698169044 10.175919999999998 2.2565171534664823 
 0 2 1 2
1 12.759776208649342 10.175919999999998 1.6516085639793472 0.20722337792514803 0 0.97829365307216998 
7 0 0  1 2 2  12.873694579760647 4.4519649999999968 1.6353707749092055  12.759776208649342 10.175919999999998 1.6516085639793472 
 0 2 1 2
7 0 0  1 2 2  14.967078008915713 4.4519649999999968 2.5526319725392712  14.124569260337713 10.175919999999998 2.2565171534664823 
 0 2 1 2
1 12.887908698169044 10.175919999999998 2.2565171534664823 1 0 0 
7 0 0  1 2 2  14.967078008915713 4.4519649999999968 0.67021387328655657  14.124569260337713 10.175919999999998 1.0198565912978133 
 0 2 1 2
1 14.124569260337713 10.175919999999998 2.2565171534664823 0 0 -1 
7 0 0  1 2 2  12.635572069512671 4.4519649999999968 0.67021387328655657  12.625460527082325 10.175919999999998 1.0198565912978133 
 0 2 1 2
1 14.124569260337713 10.175919999999998 1.0198565912978133 -1 0 0 
7 0 0  1 2 2  12.577143932787065 4.4519649999999968 1.3638272992063329  12.56903658030464 10.175919999999998 1.4652581274054115 
 0 2 1 2
1 12.625460527082325 10.175919999999998 1.0198565912978133 -0.12567665632217556 0 0.99207125654142292 
7 0 0  3 4 2  12.56903658030464 10.175919999999998 1.4652581274054115  12.56903658030464 10.175919999999996 1.5541451287250465  12.670889207329706 10.175919999999996 1.6516085639793472  12.759776208649342 10.175919999999998 1.6516085639793472 
 0 4 0.26666100395890513 4
Polygon3D 0
PolygonOnTriangulations 0
Surfaces 24
1 13.888122624991114 1.0175919999999998 1.5567224700830109 -5.201260371072745e-31 1 1.1565441821456743e-31 1 5.201260371072745e-31 0 -6.0154874219890343e-62 1.1565441821456743e-31 -1 
9 0 0 0 0 1 1 2 2 2 2 12.880838485367859 1.0175919999999996 1.6331849968357253  12.935377719670759 4.0804999999999989 1.6204399208080329  
13.097619318725677 1.0175919999999996 2.570954862148473  13.138619695992684 4.0804999999999989 2.4804924244098441  

0 2
0.96249999999999969 2

0 2
1 2

9 0 0 0 0 1 1 2 2 2 2 13.097619318725677 1.0175919999999996 2.570954862148473  13.138619695992684 4.0804999999999989 2.4804924244098441  
15.022619318725676 1.0175919999999996 2.570954862148473  14.906101079081044 4.0804999999999989 2.4804924244098441  

0 2
1.9249999999999989 2

0 2
1 2

9 0 0 0 0 1 1 2 2 2 2 15.022619318725676 1.0175919999999996 2.570954862148473  14.906101079081044 4.0804999999999989 2.4804924244098441  
15.022619318725676 1.0175919999999996 0.64595486214847386  14.906101079081044 4.0804999999999989 0.71301104132148407  

0 2
1.9249999999999992 2

0 2
1 2

9 0 0 0 0 1 1 2 2 2 2 15.022619318725676 1.0175919999999996 0.64595486214847386  14.906101079081044 4.0804999999999989 0.71301104132148407  
12.634799247935916 1.0175919999999996 0.64595486214847386  12.714882613370397 4.0804999999999989 0.71301104132148407  

0 2
2.3878200707897594 2

0 2
1 2

9 0 0 0 0 1 1 2 2 2 2 12.634799247935916 1.0175919999999996 0.64595486214847386  12.714882613370397 4.0804999999999989 0.71301104132148407  
12.577213356229015 1.0175919999999996 1.3569118093428965  12.656342697730684 4.0804999999999989 1.3619100753956694  

0 2
0.71328529754067693 2

0 2
1 2

9 0 0 0 0 3 1 4 2 2 2 12.577213356229015 1.0175919999999996 1.3569118093428965  12.656342697730684 4.0804999999999989 1.3619100753956694  
12.577213356229013 1.0175919999999996 1.4937471090332042  12.656342697730683 4.080499999999998 1.4887074747898028  
12.744003185677551 1.0175919999999996 1.6331849968357253  12.808580320276626 4.080499999999998 1.6204399208080329  
12.880838485367859 1.0175919999999996 1.6331849968357253  12.935377719670759 4.0804999999999989 1.6204399208080329  

0 4
0.41050589907092361 4

0 2
1 2

9 0 0 0 0 1 1 2 2 2 2 12.935377719670759 4.0804999999999989 1.6204399208080329  12.929577699407227 4.4519649999999977 1.6223550320485505  
13.138619695992684 4.0804999999999989 2.4804924244098441  13.127103500298709 4.4519649999999977 2.4599123750889453  

0 2
0.88374069154417989 2

0 2
1 2

1 13.863898404068838 4.080499999999998 1.5494326823252638 -4.1150925948501017e-17 1 4.4688709198248473e-18 1 4.1150925948501017e-17 0 -1.8389817629512192e-34 4.4688709198248473e-18 -1 
9 0 0 0 0 1 1 2 2 2 2 13.138619695992684 4.0804999999999989 2.4804924244098441  13.127103500298709 4.4519649999999977 2.4599123750889453  
14.906101079081044 4.0804999999999989 2.4804924244098441  14.848171476758335 4.4519649999999977 2.4599123750889453  

0 2
1.7674813830883593 2

0 2
1 2

9 0 0 0 0 1 1 2 2 2 2 14.906101079081044 4.0804999999999989 2.4804924244098441  14.848171476758335 4.4519649999999977 2.4599123750889453  
14.906101079081044 4.0804999999999989 0.71301104132148407  14.848171476758335 4.4519649999999977 0.73884439862932028  

0 2
1.76748138308836 2

0 2
1 2

9 0 0 0 0 1 1 2 2 2 2 14.906101079081044 4.0804999999999989 0.71301104132148407  14.848171476758335 4.4519649999999977 0.73884439862932028  
12.714882613370397 4.0804999999999989 0.71301104132148407  12.71719557432443 4.4519649999999977 0.73884439862932028  

0 2
2.1912184657106462 2

0 2
1 2

9 0 0 0 0 1 1 2 2 2 2 12.714882613370397 4.0804999999999989 0.71301104132148407  12.71719557432443 4.4519649999999977 0.73884439862932028  
12.656342697730684 4.0804999999999989 1.3619100753956694  12.658193383256513 4.4519649999999977 1.3691302940809031  

0 2
0.65153424940329541 2

0 2
1 2

9 0 0 0 0 3 1 4 2 2 2 12.656342697730684 4.0804999999999989 1.3619100753956694  12.658193383256513 4.4519649999999977 1.3691302940809031  
12.656342697730683 4.080499999999998 1.4887074747898028  12.658193383256513 4.4519649999999977 1.4928558932336582  
12.808580320276626 4.080499999999998 1.6204399208080329  12.805852100254473 4.4519649999999977 1.6223550320485505  
12.935377719670759 4.0804999999999989 1.6204399208080329  12.929577699407227 4.4519649999999977 1.6223550320485505  

0 4
0.38039219818240055 4

0 2
1 2

1 13.863898404068838 4.080499999999998 1.5494326823252638 -4.1150925948501017e-17 1 4.4688709198248473e-18 1 4.1150925948501017e-17 0 -1.8389817629512192e-34 4.4688709198248473e-18 -1 
1 13.834014350497304 4.4519649999999977 1.5535701692460335 0 1 0 0 -0 1 1 0 -0 
1 13.858640009538579 4.451964999999996 1.5611760241215413 3.8324282151850826e-17 1 -4.1442302144473934e-18 1 -3.8324282151850826e-17 0 -1.5882464804070717e-34 -4.1442302144473934e-18 -1 
9 0 0 0 0 1 1 2 2 2 2 12.873694579760647 4.4519649999999968 1.6353707749092055  12.759776208649342 10.175919999999998 1.6516085639793472  
13.084659909662999 4.4519649999999968 2.5526319725392712  12.887908698169044 10.175919999999998 2.2565171534664823  

0 2
0.94120904962635743 2

0 2
1 2

9 0 0 0 0 1 1 2 2 2 2 13.084659909662999 4.4519649999999968 2.5526319725392712  12.887908698169044 10.175919999999998 2.2565171534664823  
14.967078008915713 4.4519649999999968 2.5526319725392712  14.124569260337713 10.175919999999998 2.2565171534664823  

0 2
1.882418099252714 2

0 2
1 2

9 0 0 0 0 1 1 2 2 2 2 14.967078008915713 4.4519649999999968 2.5526319725392712  14.124569260337713 10.175919999999998 2.2565171534664823  
14.967078008915713 4.4519649999999968 0.67021387328655657  14.124569260337713 10.175919999999998 1.0198565912978133  

0 2
1.8824180992527146 2

0 2
1 2

9 0 0 0 0 1 1 2 2 2 2 14.967078008915713 4.4519649999999968 0.67021387328655657  14.124569260337713 10.175919999999998 1.0198565912978133  
12.635572069512671 4.4519649999999968 0.67021387328655657  12.625460527082325 10.175919999999998 1.0198565912978133  

0 2
2.3315059394030424 2

0 2
1 2

9 0 0 0 0 1 1 2 2 2 2 12.635572069512671 4.4519649999999968 0.67021387328655657  12.625460527082325 10.175919999999998 1.0198565912978133  
12.577143932787065 4.4519649999999968 1.3638272992063329  12.56903658030464 10.175919999999998 1.4652581274054115  

0 2
0.69606999057378938 2

0 2
1 2

9 0 0 0 0 3 1 4 2 2 2 12.577143932787065 4.4519649999999968 1.3638272992063329  12.56903658030464 10.175919999999998 1.4652581274054115  
12.577143932787065 4.4519649999999977 1.4978580359039058  12.56903658030464 10.175919999999996 1.5541451287250465  
12.739663843063076 4.4519649999999977 1.6353707749092055  12.670889207329706 10.175919999999996 1.6516085639793472  
12.873694579760647 4.4519649999999968 1.6353707749092055  12.759776208649342 10.175919999999998 1.6516085639793472  

0 4
0.40209221009271823 4

0 2
1 2

1 13.405342809001755 10.175919999999998 1.6083664692682331 -1.2086383992670995e-16 1 9.7157607627242392e-18 1 1.2086383992670995e-16 0 -1.1742841535921117e-33 9.7157607627242392e-18 -1 
Triangulations 0

TShapes 132
Ve
5.000001e-06
12.8808384853679 1.017592 1.63318499683573
0 0

0101101
*
Ve
1e-07
13.0976193187257 1.017592 2.57095486214847
0 0

0101101
*
Ed
 1e-07 1 1 0
1  1 0 0 0.9625
2  1 2 0 0 0.9625
2  2 1 0 0 0.9625
0

0101000
+132 0 -131 0 *
Ve
1e-07
15.0226193187257 1.017592 2.57095486214847
0 0

0101101
*
Ed
 1e-07 1 1 0
1  2 0 0 1.925
2  3 3 0 0 1.925
2  4 1 0 0 1.925
0

0101000
+131 0 -129 0 *
Ve
1e-07
15.0226193187257 1.017592 0.645954862148474
0 0

0101101
*
Ed
 1e-07 1 1 0
1  3 0 0 1.925
2  5 4 0 0 1.925
2  6 1 0 0 1.925
0

0101000
+129 0 -127 0 *
Ve
1e-07
12.6347992479359 1.017592 0.645954862148474
0 0

0101101
*
Ed
 1e-07 1 1 0
1  4 0 0 2.38782007078976
2  7 5 0 0 2.38782007078976
2  8 1 0 0 2.38782007078976
0

0101000
+127 0 -125 0 *
Ve
5.000001e-06
12.577213356229 1.017592 1.3569118093429
0 0

0101101
*
Ed
 1e-07 1 1 0
1  5 0 0 0.713285297540677
2  9 6 0 0 0.713285297540677
2  10 1 0 0 0.713285297540677
0

0101000
+125 0 -123 0 *
Ed
 1e-07 1 1 0
1  6 0 0 0.410505899070924
2  11 7 0 0 0.410505899070924
2  12 1 0 0 0.410505899070924
0

0101000
+123 0 -132 0 *
Wi

0101100
+130 0 +128 0 +126 0 +124 0 +122 0 +121 0 *
Fa
0  1e-07 1 0

0111000
+120 0 *
Ve
1e-07
13.1386196959927 4.0805 2.48049242440984
0 0

0101101
*
Ed
 1e-07 1 1 0
1  7 0 0 1
2  13 2 0 0 1
2  14 3 0 0 1
0

0101000
+131 0 -118 0 *
Ve
0.240278238815405
12.9353777196708 4.0805 1.62043992080803
0 0

0101101
*
Ed
 1e-07 1 1 0
1  8 0 0 0.88374069154418
2  15 2 0 0 0.88374069154418
2  16 8 0 0 0.88374069154418
2  17 9 0 0 0.88374069154418
0

0101000
+116 0 -118 0 *
Ed
 1e-07 1 1 0
1  9 0 0 1
2  18 2 0 0 1
2  19 7 0 0 1
0

0101000
+132 0 -116 0 *
Wi

0101000
+130 0 +117 0 -115 0 -114 0 *
Fa
0  1e-07 2 0

0111000
+113 0 *
Ve
1e-07
14.906101079081 4.0805 2.48049242440984
0 0

0101101
*
Ed
 1e-07 1 1 0
1  10 0 0 1
2  20 3 0 0 1
2  21 4 0 0 1
0

0101000
+129 0 -111 0 *
Ed
 1e-07 1 1 0
1  11 0 0 1.76748138308836
2  22 3 0 0 1.76748138308836
2  23 10 0 0 1.76748138308836
2  24 9 0 0 1.76748138308836
0

0101000
+118 0 -111 0 *
Wi

0101000
+128 0 +110 0 -109 0 -117 0 *
Fa
0  1e-07 3 0

0101000
+108 0 *
Ve
1e-07
14.906101079081 4.0805 0.713011041321484
0 0

0101101
*
Ed
 1e-07 1 1 0
1  12 0 0 1
2  25 4 0 0 1
2  26 5 0 0 1
0

0101000
+127 0 -106 0 *
Ed
 1e-07 1 1 0
1  13 0 0 1.76748138308836
2  27 4 0 0 1.76748138308836
2  28 11 0 0 1.76748138308836
2  29 9 0 0 1.76748138308836
0

0101000
+111 0 -106 0 *
Wi

0101000
+126 0 +105 0 -104 0 -110 0 *
Fa
0  1e-07 4 0

0101000
+103 0 *
Ve
1e-07
12.7148826133704 4.0805 0.713011041321484
0 0

0101101
*
Ed
 1e-07 1 1 0
1  14 0 0 1
2  30 5 0 0 1
2  31 6 0 0 1
0

0101000
+125 0 -101 0 *
Ed
 1e-07 1 1 0
1  15 0 0 2.19121846571065
2  32 5 0 0 2.19121846571065
2  33 12 0 0 2.19121846571065
2  34 9 0 0 2.19121846571065
0

0101000
+106 0 -101 0 *
Wi

0101000
+124 0 +100 0 -99 0 -105 0 *
Fa
0  1e-07 5 0

0101000
+98 0 *
Ve
0.318709643778399
12.6563426977307 4.0805 1.36191007539567
0 0

0101101
*
Ed
 1e-07 1 1 0
1  16 0 0 1
2  35 6 0 0 1
2  36 7 0 0 1
0

0101000
+123 0 -96 0 *
Ed
 1e-07 1 1 0
1  17 0 0 0.651534249403295
2  37 6 0 0 0.651534249403295
2  38 13 0 0 0.651534249403295
2  39 9 0 0 0.651534249403295
0

0101000
+101 0 -96 0 *
Wi

0101000
+122 0 +95 0 -94 0 -100 0 *
Fa
0  1e-07 6 0

0111000
+93 0 *
Ed
 1e-07 1 1 0
1  18 0 0 0.380392198182401
2  40 7 0 0 0.380392198182401
2  41 14 0 0 0.380392198182401
2  42 9 0 0 0.380392198182401
0

0101000
+96 0 -116 0 *
Wi

0101000
+121 0 +114 0 -91 0 -95 0 *
Fa
0  1e-07 7 0

0111000
+90 0 *
Wi

0101100
+115 0 +109 0 +104 0 +99 0 +94 0 +91 0 *
Fa
0  1e-07 9 0

0111000
+88 0 *
Sh

0101100
+119 0 -112 0 -107 0 -102 0 -97 0 -92 0 -89 0 -87 0 *
So

0100000
+86 0 *
Fa
0  1e-07 15 0

0111000
+88 0 *
Ve
1e-07
13.1271035002987 4.451965 2.45991237508895
0 0

0101101
*
Ed
 1e-07 1 1 0
1  19 0 0 1
2  43 8 0 0 1
2  44 10 0 0 1
0

0101000
+118 0 -83 0 *
Ve
1e-07
12.9295776994072 4.451965 1.62235503204855
0 0

0101101
*
Ed
 1e-07 1 1 0
1  20 0 0 0.860533988229812
2  45 8 0 0 0.860533988229812
0

0101000
+81 0 -83 0 *
Ed
 1e-07 1 1 0
1  21 0 0 1
2  46 8 0 0 1
2  47 14 0 0 1
0

0101000
+116 0 -81 0 *
Wi

0101000
+115 0 +82 0 -80 0 -79 0 *
Fa
0  1e-07 8 0

0101000
+78 0 *
Ve
1e-07
14.8481714767583 4.451965 2.45991237508895
0 0

0101101
*
Ed
 1e-07 1 1 0
1  22 0 0 1
2  48 10 0 0 1
2  49 11 0 0 1
0

0101000
+111 0 -76 0 *
Ed
 1e-07 1 1 0
1  23 0 0 1.72106797645963
2  50 10 0 0 1.72106797645963
0

0101000
+83 0 -76 0 *
Wi

0101000
+109 0 +75 0 -74 0 -82 0 *
Fa
0  1e-07 10 0

0101000
+73 0 *
Ve
1e-07
14.8481714767583 4.451965 0.73884439862932
0 0

0101101
*
Ed
 1e-07 1 1 0
1  24 0 0 1
2  51 11 0 0 1
2  52 12 0 0 1
0

0101000
+106 0 -71 0 *
Ed
 1e-07 1 1 0
1  25 0 0 1.72106797645963
2  53 11 0 0 1.72106797645963
0

0101000
+76 0 -71 0 *
Wi

0101000
+104 0 +70 0 -69 0 -75 0 *
Fa
0  1e-07 11 0

0101000
+68 0 *
Ve
1e-07
12.7171955743244 4.451965 0.73884439862932
0 0

0101101
*
Ed
 1e-07 1 1 0
1  26 0 0 1
2  54 12 0 0 1
2  55 13 0 0 1
0

0101000
+101 0 -66 0 *
Ed
 1e-07 1 1 0
1  27 0 0 2.1309759024339
2  56 12 0 0 2.1309759024339
0

0101000
+71 0 -66 0 *
Wi

0101000
+99 0 +65 0 -64 0 -70 0 *
Fa
0  1e-07 12 0

0101000
+63 0 *
Ve
1e-07
12.6581933832565 4.451965 1.3691302940809
0 0

0101101
*
Ed
 1e-07 1 1 0
1  28 0 0 1
2  57 13 0 0 1
2  58 14 0 0 1
0

0101000
+96 0 -61 0 *
Ed
 1e-07 1 1 0
1  29 0 0 0.633041521984158
2  59 13 0 0 0.633041521984158
0

0101000
+66 0 -61 0 *
Wi

0101000
+94 0 +60 0 -59 0 -65 0 *
Fa
0  1e-07 13 0

0101000
+58 0 *
Ed
 1e-07 1 1 0
1  30 0 0 0.371176797458266
2  60 14 0 0 0.371176797458266
0

0101000
+61 0 -81 0 *
Wi

0101000
+91 0 +79 0 -56 0 -60 0 *
Fa
0  1e-07 14 0

0101000
+55 0 *
Wi

0101100
+80 0 +74 0 +69 0 +64 0 +59 0 +56 0 *
Fa
0  1e-07 16 0

0111000
+53 0 *
Sh

0101100
+84 0 -77 0 -72 0 -67 0 -62 0 -57 0 -54 0 -52 0 *
So

0100000
+51 0 *
Ve
1e-07
12.8736945797606 4.451965 1.63537077490921
0 0

0101101
*
Ve
1e-07
13.084659909663 4.451965 2.55263197253927
0 0

0101101
*
Ed
 1e-07 1 1 0
1  31 0 0 0.941209049626357
2  61 18 0 0 0.941209049626357
0

0101000
+49 0 -48 0 *
Ve
1e-07
14.9670780089157 4.451965 2.55263197253927
0 0

0101101
*
Ed
 1e-07 1 1 0
1  32 0 0 1.88241809925271
2  62 19 0 0 1.88241809925271
0

0101000
+48 0 -46 0 *
Ve
1e-07
14.9670780089157 4.451965 0.670213873286557
0 0

0101101
*
Ed
 1e-07 1 1 0
1  33 0 0 1.88241809925271
2  63 20 0 0 1.88241809925271
0

0101000
+46 0 -44 0 *
Ve
1e-07
12.6355720695127 4.451965 0.670213873286557
0 0

0101101
*
Ed
 1e-07 1 1 0
1  34 0 0 2.33150593940304
2  64 21 0 0 2.33150593940304
0

0101000
+44 0 -42 0 *
Ve
1e-07
12.5771439327871 4.451965 1.36382729920633
0 0

0101101
*
Ed
 1e-07 1 1 0
1  35 0 0 0.696069990573789
2  65 22 0 0 0.696069990573789
0

0101000
+42 0 -40 0 *
Ed
 1e-07 1 1 0
1  36 0 0 0.402092210092718
2  66 23 0 0 0.402092210092718
0

0101000
+40 0 -49 0 *
Wi

0101100
+47 0 +45 0 +43 0 +41 0 +39 0 +38 0 *
Fa
0  1e-07 17 0

0111000
+37 0 *
Ve
1e-07
12.887908698169 10.17592 2.25651715346648
0 0

0101101
*
Ed
 1e-07 1 1 0
1  37 0 0 1
2  67 18 0 0 1
2  68 19 0 0 1
0

0101000
+48 0 -35 0 *
Ve
1e-07
12.7597762086493 10.17592 1.65160856397935
0 0

0101101
*
Ed
 1e-07 1 1 0
1  38 0 0 0.618330281084334
2  69 18 0 0 0.618330281084334
0

0101000
+33 0 -35 0 *
Ed
 1e-07 1 1 0
1  39 0 0 1
2  70 18 0 0 1
2  71 23 0 0 1
0

0101000
+49 0 -33 0 *
Wi

0101000
+47 0 +34 0 -32 0 -31 0 *
Fa
0  1e-07 18 0

0101000
+30 0 *
Ve
1e-07
14.1245692603377 10.17592 2.25651715346648
0 0

0101101
*
Ed
 1e-07 1 1 0
1  40 0 0 1
2  72 19 0 0 1
2  73 20 0 0 1
0

0101000
+46 0 -28 0 *
Ed
 1e-07 1 1 0
1  41 0 0 1.23666056216867
2  74 19 0 0 1.23666056216867
0

0101000
+35 0 -28 0 *
Wi

0101000
+45 0 +27 0 -26 0 -34 0 *
Fa
0  1e-07 19 0

0101000
+25 0 *
Ve
1e-07
14.1245692603377 10.17592 1.01985659129781
0 0

0101101
*
Ed
 1e-07 1 1 0
1  42 0 0 1
2  75 20 0 0 1
2  76 21 0 0 1
0

0101000
+44 0 -23 0 *
Ed
 1e-07 1 1 0
1  43 0 0 1.23666056216867
2  77 20 0 0 1.23666056216867
0

0101000
+28 0 -23 0 *
Wi

0101000
+43 0 +22 0 -21 0 -27 0 *
Fa
0  1e-07 20 0

0101000
+20 0 *
Ve
1e-07
12.6254605270823 10.17592 1.01985659129781
0 0

0101101
*
Ed
 1e-07 1 1 0
1  44 0 0 1
2  78 21 0 0 1
2  79 22 0 0 1
0

0101000
+42 0 -18 0 *
Ed
 1e-07 1 1 0
1  45 0 0 1.49910873325539
2  80 21 0 0 1.49910873325539
0

0101000
+23 0 -18 0 *
Wi

0101000
+41 0 +17 0 -16 0 -22 0 *
Fa
0  1e-07 21 0

0101000
+15 0 *
Ve
1e-07
12.5690365803046 10.17592 1.46525812740541
0 0

0101101
*
Ed
 1e-07 1 1 0
1  46 0 0 1
2  81 22 0 0 1
2  82 23 0 0 1
0

0101000
+40 0 -13 0 *
Ed
 1e-07 1 1 0
1  47 0 0 0.448961234559265
2  83 22 0 0 0.448961234559265
0

0101000
+18 0 -13 0 *
Wi

0101000
+39 0 +12 0 -11 0 -17 0 *
Fa
0  1e-07 22 0

0101000
+10 0 *
Ed
 1e-07 1 1 0
1  48 0 0 0.266661003958905
2  84 23 0 0 0.266661003958905
0

0101000
+13 0 -33 0 *
Wi

0101000
+38 0 +31 0 -8 0 -12 0 *
Fa
0  1e-07 23 0

0101000
+7 0 *
Wi

0101100
+32 0 +26 0 +21 0 +16 0 +11 0 +8 0 *
Fa
0  1e-07 24 0

0111000
+5 0 *
Sh

0101100
+36 0 -29 0 -24 0 -19 0 -14 0 -9 0 -6 0 -4 0 *
So

0100000
+3 0 *
Co

1100000
+85 0 +50 0 +2 0 *

+1 0 