DBRep_DrawableShape

CASCADE Topology V1, (c) Matra-Datavision
Locations 2
1
              1               0               0               0 
              0              -1               0               0 
              0               0              -1               0 
2  1 -1 0
Curve2ds 92
1 6.2831853071795862 0 0 1 
1 0 0 0 1 
1 0 3.1415926535897931 1 0 
1 0 28.5 1 0 
1 0 0 1 0 
1 0 0 1 0 
8 3.1415926535897931 4.7123889803846897
1 6.2831853071795862 0 0 1 
8 3.1415926535897931 4.7123889803846897
1 0 0 0 1 
1 0 4.7123889803846897 1 0 
2 0 0 -1 0 0 1 16.449999999999999
1 6.2831853071795862 0 0 1 
1 0 0 0 1 
1 0 3.1415926535897931 1 0 
1 0 28.5 1 0 
1 0 4.7123889803846897 1 0 
2 0 0 -1 -1.8369701987210297e-16 -1.8369701987210297e-16 1 19.226081044134432
8 3.1415926535897931 4.7123889803846897
1 6.2831853071795862 0 0 1 
8 3.1415926535897931 4.7123889803846897
1 0 0 0 1 
1 0 4.7123889803846897 1 0 
2 0 0 -1 0 0 1 16.449999999999999
8 4.7123889803846897 6.2049141666583081
1 6.2831853071795862 0 0 1 
8 4.7123889803846897 6.2049141666583081
1 0 0 0 1 
1 0 6.2049141666583081 1 0 
1 0 2.7739189558655672 1 0 
1 0 4.7123889803846897 1 0 
2 0 0 -1 1.8369701987210297e-16 1.8369701987210297e-16 1 19.226081044134432
1 6.2831853071795862 0 0 1 
1 0 0 0 1 
1 6.2831853071795862 0 0 1 
1 0 0 0 1 
1 0 3.2198637941110713 1 0 
1 0 22.804392168991757 1 0 
8 4.7123889803846897 6.2049141666583081
1 6.2831853071795862 0 0 1 
8 4.7123889803846897 6.2049141666583081
1 -1.8369701987210299e-16 0 0 1 
1 0 6.2049141666583081 1 0 
1 1.8369701987210299e-16 2.7739189558655672 1 0 
8 3.2198637941110713 4.7123889803846897
1 6.2831853071795862 0 0 1 
8 3.2198637941110713 4.7123889803846897
1 0 0 0 1 
1 0 4.7123889803846897 1 0 
2 0 0 -1 -1.8369701987210297e-16 -1.8369701987210297e-16 1 26.773918955865568
1 0 3.2198637941110713 1 0 
1 1.8369701987210297e-16 22.804392168991757 1 0 
1 0 4.7123889803846897 1 0 
2 0 0 -1 1.8369701987210297e-16 1.8369701987210297e-16 1 30.214003028737579
8 3.2198637941110713 4.7123889803846897
1 6.2831853071795862 0 0 1 
8 3.2198637941110713 4.7123889803846897
1 -1.8369701987210297e-16 0 0 1 
1 0 4.7123889803846897 1 0 
2 0 0 -1 1.8369701987210297e-16 1.8369701987210297e-16 1 26.773918955865568
8 4.7123889803846897 6.2092462695216462
1 6.2831853071795862 0 0 1 
8 4.7123889803846897 6.2092462695216462
1 -1.8369701987210294e-16 0 0 1 
1 0 6.2092462695216462 1 0 
1 1.8369701987210294e-16 2.785996971262418 1 0 
1 0 4.7123889803846897 1 0 
2 0 0 -1 -1.8369701987210297e-16 -1.8369701987210297e-16 1 30.214003028737579
1 6.2831853071795862 0 0 1 
1 0 0 0 1 
1 6.2831853071795862 0 0 1 
1 0 0 0 1 
1 0 3.2155316912477336 1 0 
1 1.8369701987210297e-16 24.287975770099347 1 0 
8 4.7123889803846897 6.2092462695216462
1 6.2831853071795862 0 0 1 
8 4.7123889803846897 6.2092462695216462
1 0 0 0 1 
1 0 6.2092462695216462 1 0 
1 0 2.785996971262418 1 0 
8 3.2155316912477336 4.7123889803846897
1 6.2831853071795862 0 0 1 
8 3.2155316912477336 4.7123889803846897
1 -1.8369701987210297e-16 0 0 1 
1 0 4.7123889803846897 1 0 
2 0 0 -1 1.8369701987210297e-16 1.8369701987210297e-16 1 37.785996971262421
1 0 3.2155316912477336 1 0 
1 0 24.287975770099347 1 0 
1 0 4.7123889803846897 1 0 
2 0 0 -1 0 0 1 38
8 3.2155316912477336 4.7123889803846897
1 6.2831853071795862 0 0 1 
8 3.2155316912477336 4.7123889803846897
1 0 0 0 1 
1 0 4.7123889803846897 1 0 
2 0 0 -1 -1.8369701987210297e-16 -1.8369701987210297e-16 1 37.785996971262421
8 4.7123889803846897 6.2831853071795862
1 6.2831853071795862 0 0 1 
8 4.7123889803846897 6.2831853071795862
1 0 0 0 1 
1 0 6.2831853071795862 1 0 
1 0 3 1 0 
1 0 4.7123889803846897 1 0 
2 0 0 -1 0 0 1 38
1 6.2831853071795862 0 0 1 
1 0 0 0 1 
1 0 33 1 0 
1 0 33 1 0 
8 4.7123889803846897 6.2831853071795862
1 6.2831853071795862 0 0 1 
8 4.7123889803846897 6.2831853071795862
1 0 0 0 1 
1 0 6.2831853071795862 1 0 
1 0 3 1 0 
1 6.2831853071795862 0 0 1 
1 0 0 0 1 
Curves 42
1 -13.449999999999999 0 0 0 -1 0 
2 0 -28.5 0 0 1 -0 -1 0 0 0 0 1 13.449999999999999
2 0 0 0 0 1 0 -1 0 0 0 -0 1 13.449999999999999
2 -16.449999999999999 -28.5 0 -0 0 -1 -1 0 0 0 1 0 3
2 0 -31.5 0 0 1 -0 -1 0 0 0 0 1 16.449999999999999
2 0 28.5 0 0 1 -0 -1 0 0 0 0 1 13.449999999999999
2 0 -31.5 0 0 1 -0 -1 0 -1.8369701987210297e-16 -1.8369701987210297e-16 0 1 19.226081044134432
2 -16.449999999999999 28.5 0 0 0 1 -1 0 0 0 -1 0 3
2 0 31.5 0 0 1 -0 -1 0 0 0 0 1 16.449999999999999
2 -19.226081044134432 -28.5 -3.5317737916270247e-15 1.8369701987210297e-16 -0 -1 -1 0 -1.8369701987210297e-16 0 1 0 3
2 0 -28.734573735955895 0 0 1 -0 -1 0 -1.8369701987210297e-16 -1.8369701987210297e-16 0 1 22.216896177572085
2 0 31.5 0 0 1 -0 -1 0 1.8369701987210297e-16 1.8369701987210297e-16 0 1 19.226081044134432
1 -22 -31.5 0 -0.078191245318631489 0.99693837781255146 0 
2 0 -8.7654262640441054 0 0 1 -0 -1 0 -1.8369701987210299e-16 -1.8369701987210299e-16 0 1 23.783103822427915
2 -19.226081044134432 28.5 -4.7395949051026324e-31 -2.4651903288156619e-32 0 1 -1 0 -2.4651903288156619e-32 -0 -1 0 3
2 0 28.734573735955895 0 0 1 -0 -1 0 1.8369701987210297e-16 1.8369701987210297e-16 0 1 22.216896177572085
2 -26.773918955865568 -9 -4.9182891224897119e-15 -1.8369701987210299e-16 0 1 -1 0 -1.8369701987210299e-16 -0 -1 0 3
2 0 -6 0 0 1 -0 -1 0 -1.8369701987210299e-16 -1.8369701987210299e-16 0 1 26.773918955865568
2 0 8.7654262640441054 0 0 1 -0 -1 0 1.8369701987210299e-16 1.8369701987210299e-16 0 1 23.783103822427915
2 0 -6 0 0 1 -0 -1 0 1.8369701987210297e-16 1.8369701987210297e-16 0 1 30.214003028737579
2 -26.773918955865568 9 6.6002806074494123e-31 -2.4651903288156619e-32 0 -1 -1 0 2.4651903288156619e-32 0 1 0 3
2 0 6 0 0 1 -0 -1 0 1.8369701987210299e-16 1.8369701987210299e-16 0 1 26.773918955865568
2 -30.214003028737579 -9 7.4483268061250998e-31 2.4651903288156619e-32 0 1 -1 0 2.4651903288156619e-32 0 -1 0 3
2 0 -8.7783849434540642 0 0 1 -0 -1 0 1.8369701987210297e-16 1.8369701987210297e-16 0 1 33.20580629210771
2 0 6 0 0 1 -0 -1 0 -1.8369701987210297e-16 -1.8369701987210297e-16 0 1 30.214003028737579
1 -33 -6 0 -0.073871685515311772 -0.99726775445670901 0 
2 0 -30.221615056545936 0 0 1 -0 -1 0 1.8369701987210297e-16 1.8369701987210297e-16 0 1 34.79419370789229
2 -30.214003028737579 9 -5.5502223147857865e-15 1.8369701987210297e-16 -0 -1 -1 0 -1.8369701987210297e-16 0 1 0 3
2 0 8.7783849434540642 0 0 1 -0 -1 0 -1.8369701987210297e-16 -1.8369701987210297e-16 0 1 33.20580629210771
2 -37.785996971262421 -30 0 -0 0 -1 -1 0 0 0 1 0 3
2 0 -33 0 0 1 -0 -1 0 1.8369701987210297e-16 1.8369701987210297e-16 0 1 37.785996971262421
2 0 30.221615056545936 0 0 1 -0 -1 0 -1.8369701987210297e-16 -1.8369701987210297e-16 0 1 34.79419370789229
2 0 -33 0 0 1 -0 -1 0 0 0 0 1 38
2 -37.785996971262421 30 -6.9411750365172152e-15 -1.8369701987210297e-16 0 1 -1 0 -1.8369701987210297e-16 -0 -1 0 3
2 0 33 0 0 1 -0 -1 0 -1.8369701987210297e-16 -1.8369701987210297e-16 0 1 37.785996971262421
2 -38 -30 0 -0 0 -1 -1 0 0 0 1 0 3
2 0 -30 0 0 1 -0 -1 0 0 0 0 1 41
2 0 33 0 0 1 -0 -1 0 0 0 0 1 38
1 -41 -33 0 0 1 0 
2 0 0 0 0 1 0 -1 0 0 0 -0 1 41
2 -38 30 0 0 0 1 -1 0 0 0 -1 0 3
2 0 30 0 0 1 -0 -1 0 0 0 0 1 41
Polygon3D 0
PolygonOnTriangulations 0
Surfaces 26
2 0 0 0 -0 -1 -0 -1 0 0 -0 -0 1 13.449999999999999
5 0 -28.5 0 0 1 -0 -1 0 0 0 0 1 16.449999999999999 3
2 0 0 0 0 1 0 -1 0 0 0 -0 1 13.449999999999999
1 0 -31.5 0 0 1 0 1 -0 -0 0 -0 1 
5 0 28.5 0 -0 -1 0 -1 0 0 0 -0 1 16.449999999999999 3
5 0 -28.5 0 0 1 -0 -1 0 -1.8369701987210297e-16 -1.8369701987210297e-16 0 1 19.226081044134432 3
1 0 31.5 0 0 1 0 1 -0 -0 0 -0 1 
3 0 -31.5 0 0 1 0 -1 0 0 0 -0 1 22
0.078271140521277968
5 0 28.5 0 -0 -1 0 -1 0 1.8369701987210297e-16 1.8369701987210297e-16 -0 1 19.226081044134432 3
3 0 31.5 0 -0 -1 -0 -1 0 0 -0 -0 1 22
0.078271140521277968
5 0 -9 0 -0 -1 0 -1 0 -1.8369701987210299e-16 -1.8369701987210299e-16 0 1 26.773918955865568 3
1 0 -6 0 0 1 0 1 -0 -0 0 -0 1 
5 0 9 0 0 1 -0 -1 0 1.8369701987210299e-16 1.8369701987210299e-16 0 1 26.773918955865568 3
5 0 -9 0 -0 -1 0 -1 0 1.8369701987210297e-16 1.8369701987210297e-16 -0 1 30.214003028737579 3
1 0 6 0 0 1 0 1 -0 -0 0 -0 1 
3 0 -6 0 -0 -1 -0 -1 0 0 -0 -0 1 33
0.07393903765794034
5 0 9 0 0 1 -0 -1 0 -1.8369701987210297e-16 -1.8369701987210297e-16 0 1 30.214003028737579 3
3 0 6 0 0 1 0 -1 0 0 0 -0 1 33
0.07393903765794034
5 0 -30 0 0 1 -0 -1 0 1.8369701987210297e-16 1.8369701987210297e-16 0 1 37.785996971262421 3
1 0 -33 0 0 1 0 1 -0 -0 0 -0 1 
5 0 30 0 -0 -1 0 -1 0 -1.8369701987210297e-16 -1.8369701987210297e-16 0 1 37.785996971262421 3
5 0 -30 0 0 1 -0 -1 0 0 0 0 1 38 3
1 0 33 0 0 1 0 1 -0 -0 0 -0 1 
2 0 -33 0 0 1 0 -1 0 0 0 -0 1 41
5 0 30 0 -0 -1 0 -1 0 0 0 -0 1 38 3
2 0 33 0 -0 -1 -0 -1 0 0 -0 -0 1 41
Triangulations 0

TShapes 134
Ve
1e-07
-13.45 -28.5 0
0 0

0101101
*
Ve
1e-07
-13.45 0 0
0 0

0101101
*
Ed
 1e-07 1 1 0
1  1 0 0 28.5
3  1 2CN 1 0 0 28.5
0

0101000
-134 0 +133 0 *
Ed
 1e-07 1 1 0
1  2 0 0 6.28318530717959
2  3 2 0 0 6.28318530717959
2  4 1 0 0 6.28318530717959
4 G1 2 0 1 0
0

0101000
+134 0 -134 0 *
Ed
 1e-07 1 1 0
1  3 0 0 6.28318530717959
2  5 1 0 0 6.28318530717959
2  6 3 0 0 6.28318530717959
4 C2 1 0 3 0
0

0101000
+133 0 -133 0 *
Wi

0101100
-132 0 -131 0 +130 0 +132 0 *
Fa
0  1e-07 1 0

0101000
+129 0 *
Ve
1e-07
-16.45 -31.5 0
0 0

0101101
*
Ed
 1e-07 1 1 0
1  4 0 3.14159265358979 4.71238898038469
3  7 8CN 2 0 3.14159265358979 4.71238898038469
0

0101000
+134 0 -127 0 *
Ed
 1e-07 1 1 0
1  5 0 0 6.28318530717959
2  9 2 0 0 6.28318530717959
2  10 4 0 0 6.28318530717959
4 G1 2 0 4 0
0

0101000
+127 0 -127 0 *
Wi

0101100
-126 0 +131 0 -125 0 +126 0 *
Fa
0  0 2 0

0101000
+124 0 *
Ve
1e-07
-13.45 28.5 0
0 0

0101101
*
Ed
 1e-07 1 1 0
1  1 0 0 28.5
3  11 12CN 3 2 0 28.5
0

0101000
-122 2 +133 2 *
Ed
 1e-07 1 1 0
1  6 0 0 6.28318530717959
2  13 5 0 0 6.28318530717959
2  14 3 0 0 6.28318530717959
4 G1 5 0 3 0
0

0101000
+122 0 -122 0 *
Wi

0101100
-121 1 -120 0 +130 0 +121 1 *
Fa
0  1e-07 3 0

0101000
+119 0 *
Wi

0101100
+125 0 *
Ve
1e-07
-19.2260810441344 -31.5 -3.53177379162702e-15
0 0

0101101
*
Ed
 1e-07 1 1 0
1  7 0 0 6.28318530717959
2  15 6 0 0 6.28318530717959
2  16 4 0 0 6.28318530717959
4 G1 6 0 4 0
0

0101000
+116 0 -116 0 *
Wi

0101100
-115 0 *
Fa
0  1e-07 4 0

0101000
+117 0 +114 0 *
Ve
1e-07
-16.45 31.5 0
0 0

0101101
*
Ed
 1e-07 1 1 0
1  8 0 3.14159265358979 4.71238898038469
3  17 18CN 5 0 3.14159265358979 4.71238898038469
0

0101000
+122 0 -112 0 *
Ed
 1e-07 1 1 0
1  9 0 0 6.28318530717959
2  19 5 0 0 6.28318530717959
2  20 7 0 0 6.28318530717959
4 G1 5 0 7 0
0

0101000
+112 0 -112 0 *
Wi

0101100
-111 0 +120 0 -110 0 +111 0 *
Fa
0  0 5 0

0101000
+109 0 *
Ve
1e-07
-22.2168961775721 -28.7345737359559 -4.08117761862791e-15
0 0

0101101
*
Ed
 1e-07 1 1 0
1  10 0 4.71238898038469 6.20491416665831
3  21 22CN 6 0 4.71238898038469 6.20491416665831
0

0101000
+116 0 -107 0 *
Ed
 1e-07 1 1 0
1  11 0 0 6.28318530717959
2  23 6 0 0 6.28318530717959
2  24 8 0 0 6.28318530717959
4 G1 6 0 8 0
0

0101000
+107 0 -107 0 *
Wi

0101100
-106 0 +115 0 -105 0 +106 0 *
Fa
0  0 6 0

0101000
+104 0 *
Wi

0101100
+110 0 *
Ve
1e-07
-19.2260810441344 31.5 3.53177379162702e-15
0 0

0101101
*
Ed
 1e-07 1 1 0
1  12 0 -1.83697019872103e-16 6.28318530717959
2  25 9 0 -1.83697019872103e-16 6.28318530717959
2  26 7 0 -1.83697019872103e-16 6.28318530717959
4 G1 9 0 7 0
0

0101000
+101 0 -101 0 *
Wi

0101100
-100 0 *
Fa
0  1e-07 7 0

0101000
+102 0 +99 0 *
Ve
1e-07
-23.7831038224279 -8.76542626404411 -4.36888529548883e-15
0 0

0101101
*
Ed
 1e-07 1 1 0
1  13 0 2.77391895586557 22.8043921689918
3  27 28CN 8 0 2.77391895586557 22.8043921689918
3  29 30CN 10 2 2.77391895586557 22.8043921689918
0

0101000
+107 0 -97 0 *
Ed
 1e-07 1 1 0
1  14 0 0 6.28318530717959
2  31 11 0 0 6.28318530717959
2  32 8 0 0 6.28318530717959
4 G1 11 0 8 0
0

0101000
+97 0 -97 0 *
Wi

0101100
-96 0 +105 0 -95 0 +96 0 *
Fa
0  1e-07 8 0

0101000
+94 0 *
Ve
1e-07
-22.2168961775721 28.7345737359559 4.08117761862791e-15
0 0

0101101
*
Ed
 1e-07 1 1 0
1  15 0 4.71238898038469 6.20491416665831
3  33 34CN 9 0 4.71238898038469 6.20491416665831
0

0101000
+101 0 -92 0 *
Ed
 1e-07 1 1 0
1  16 0 -1.83697019872103e-16 6.28318530717959
2  35 9 0 -1.83697019872103e-16 6.28318530717959
2  36 10 0 -1.83697019872103e-16 6.28318530717959
4 G1 9 0 10 0
0

0101000
+92 0 -92 0 *
Wi

0101100
-91 0 +100 0 -90 0 +91 0 *
Fa
0  0 9 0

0101000
+89 0 *
Ve
1e-07
-26.7739189558656 -6 -4.91828912248971e-15
0 0

0101101
*
Ed
 1e-07 1 1 0
1  17 0 3.21986379411107 4.71238898038469
3  37 38CN 11 0 3.21986379411107 4.71238898038469
0

0101000
+97 0 -87 0 *
Ed
 1e-07 1 1 0
1  18 0 0 6.28318530717959
2  39 11 0 0 6.28318530717959
2  40 12 0 0 6.28318530717959
4 G1 11 0 12 0
0

0101000
+87 0 -87 0 *
Wi

0101100
-86 0 +95 0 -85 0 +86 0 *
Fa
0  0 11 0

0101000
+84 0 *
Ve
1e-07
-23.7831038224279 8.76542626404411 4.36888529548883e-15
0 0

0101101
*
Ed
 1e-07 1 1 0
1  13 0 2.77391895586557 22.8043921689918
3  27 28CN 8 0 2.77391895586557 22.8043921689918
3  29 30CN 10 2 2.77391895586557 22.8043921689918
0

0101000
+92 2 -82 2 *
Ed
 1e-07 1 1 0
1  19 0 -1.83697019872103e-16 6.28318530717959
2  41 13 0 -1.83697019872103e-16 6.28318530717959
2  42 10 0 -1.83697019872103e-16 6.28318530717959
4 G1 13 0 10 0
0

0101000
+82 0 -82 0 *
Wi

0101100
-81 1 +90 0 -80 0 +81 1 *
Fa
0  1e-07 10 0

0101000
+79 0 *
Wi

0101100
+85 0 *
Ve
1e-07
-30.2140030287376 -6 5.55022231478579e-15
0 0

0101101
*
Ed
 1e-07 1 1 0
1  20 0 -1.83697019872103e-16 6.28318530717959
2  43 14 0 -1.83697019872103e-16 6.28318530717959
2  44 12 0 -1.83697019872103e-16 6.28318530717959
4 G1 14 0 12 0
0

0101000
+76 0 -76 0 *
Wi

0101100
-75 0 *
Fa
0  1e-07 12 0

0101000
+77 0 +74 0 *
Ve
1e-07
-26.7739189558656 6 4.91828912248971e-15
0 0

0101101
*
Ed
 1e-07 1 1 0
1  21 0 3.21986379411107 4.71238898038469
3  45 46CN 13 0 3.21986379411107 4.71238898038469
0

0101000
+82 0 -72 0 *
Ed
 1e-07 1 1 0
1  22 0 -1.83697019872103e-16 6.28318530717959
2  47 13 0 -1.83697019872103e-16 6.28318530717959
2  48 15 0 -1.83697019872103e-16 6.28318530717959
4 G1 13 0 15 0
0

0101000
+72 0 -72 0 *
Wi

0101100
-71 0 +80 0 -70 0 +71 0 *
Fa
0  0 13 0

0101000
+69 0 *
Ve
1e-07
-33.2058062921077 -8.77838494345406 6.09980765831051e-15
0 0

0101101
*
Ed
 1e-07 1 1 0
1  23 0 4.71238898038469 6.20924626952165
3  49 50CN 14 0 4.71238898038469 6.20924626952165
0

0101000
+76 0 -67 0 *
Ed
 1e-07 1 1 0
1  24 0 -1.83697019872103e-16 6.28318530717959
2  51 14 0 -1.83697019872103e-16 6.28318530717959
2  52 16 0 -1.83697019872103e-16 6.28318530717959
4 G1 14 0 16 0
0

0101000
+67 0 -67 0 *
Wi

0101100
-66 0 +75 0 -65 0 +66 0 *
Fa
0  0 14 0

0101000
+64 0 *
Wi

0101100
+70 0 *
Ve
1e-07
-30.2140030287376 6 -5.55022231478579e-15
0 0

0101101
*
Ed
 1e-07 1 1 0
1  25 0 0 6.28318530717959
2  53 17 0 0 6.28318530717959
2  54 15 0 0 6.28318530717959
4 G1 17 0 15 0
0

0101000
+61 0 -61 0 *
Wi

0101100
-60 0 *
Fa
0  1e-07 15 0

0101000
+62 0 +59 0 *
Ve
1e-07
-34.7941937078923 -30.2216150565459 6.39158969299249e-15
0 0

0101101
*
Ed
 1e-07 1 1 0
1  26 0 2.78599697126242 24.2879757700993
3  55 56CN 16 0 2.78599697126242 24.2879757700993
3  57 58CN 18 2 2.78599697126242 24.2879757700993
0

0101000
+67 0 -57 0 *
Ed
 1e-07 1 1 0
1  27 0 -1.83697019872103e-16 6.28318530717959
2  59 19 0 -1.83697019872103e-16 6.28318530717959
2  60 16 0 -1.83697019872103e-16 6.28318530717959
4 G1 19 0 16 0
0

0101000
+57 0 -57 0 *
Wi

0101100
-56 0 +65 0 -55 0 +56 0 *
Fa
0  1e-07 16 0

0101000
+54 0 *
Ve
1e-07
-33.2058062921077 8.77838494345406 -6.09980765831051e-15
0 0

0101101
*
Ed
 1e-07 1 1 0
1  28 0 4.71238898038469 6.20924626952165
3  61 62CN 17 0 4.71238898038469 6.20924626952165
0

0101000
+61 0 -52 0 *
Ed
 1e-07 1 1 0
1  29 0 0 6.28318530717959
2  63 17 0 0 6.28318530717959
2  64 18 0 0 6.28318530717959
4 G1 17 0 18 0
0

0101000
+52 0 -52 0 *
Wi

0101100
-51 0 +60 0 -50 0 +51 0 *
Fa
0  0 17 0

0101000
+49 0 *
Ve
1e-07
-37.7859969712624 -33 6.94117503651722e-15
0 0

0101101
*
Ed
 1e-07 1 1 0
1  30 0 3.21553169124773 4.71238898038469
3  65 66CN 19 0 3.21553169124773 4.71238898038469
0

0101000
+57 0 -47 0 *
Ed
 1e-07 1 1 0
1  31 0 -1.83697019872103e-16 6.28318530717959
2  67 19 0 -1.83697019872103e-16 6.28318530717959
2  68 20 0 -1.83697019872103e-16 6.28318530717959
4 G1 19 0 20 0
0

0101000
+47 0 -47 0 *
Wi

0101100
-46 0 +55 0 -45 0 +46 0 *
Fa
0  0 19 0

0101000
+44 0 *
Ve
1e-07
-34.7941937078923 30.2216150565459 -6.39158969299249e-15
0 0

0101101
*
Ed
 1e-07 1 1 0
1  26 0 2.78599697126242 24.2879757700993
3  55 56CN 16 0 2.78599697126242 24.2879757700993
3  57 58CN 18 2 2.78599697126242 24.2879757700993
0

0101000
+52 2 -42 2 *
Ed
 1e-07 1 1 0
1  32 0 0 6.28318530717959
2  69 21 0 0 6.28318530717959
2  70 18 0 0 6.28318530717959
4 G1 21 0 18 0
0

0101000
+42 0 -42 0 *
Wi

0101100
-41 1 +50 0 -40 0 +41 1 *
Fa
0  1e-07 18 0

0101000
+39 0 *
Wi

0101100
+45 0 *
Ve
1e-07
-38 -33 0
0 0

0101101
*
Ed
 1e-07 1 1 0
1  33 0 0 6.28318530717959
2  71 22 0 0 6.28318530717959
2  72 20 0 0 6.28318530717959
4 G1 22 0 20 0
0

0101000
+36 0 -36 0 *
Wi

0101100
-35 0 *
Fa
0  1e-07 20 0

0101000
+37 0 +34 0 *
Ve
1e-07
-37.7859969712624 33 -6.94117503651722e-15
0 0

0101101
*
Ed
 1e-07 1 1 0
1  34 0 3.21553169124773 4.71238898038469
3  73 74CN 21 0 3.21553169124773 4.71238898038469
0

0101000
+42 0 -32 0 *
Ed
 1e-07 1 1 0
1  35 0 0 6.28318530717959
2  75 21 0 0 6.28318530717959
2  76 23 0 0 6.28318530717959
4 G1 21 0 23 0
0

0101000
+32 0 -32 0 *
Wi

0101100
-31 0 +40 0 -30 0 +31 0 *
Fa
0  0 21 0

0101000
+29 0 *
Ve
1e-07
-41 -30 0
0 0

0101101
*
Ed
 1e-07 1 1 0
1  36 0 4.71238898038469 6.28318530717959
3  77 78CN 22 0 4.71238898038469 6.28318530717959
0

0101000
+36 0 -27 0 *
Ed
 1e-07 1 1 0
1  37 0 0 6.28318530717959
2  79 22 0 0 6.28318530717959
2  80 24 0 0 6.28318530717959
4 G1 22 0 24 0
0

0101000
+27 0 -27 0 *
Wi

0101100
-26 0 +35 0 -25 0 +26 0 *
Fa
0  0 22 0

0101000
+24 0 *
Wi

0101100
+30 0 *
Ve
1e-07
-38 33 0
0 0

0101101
*
Ed
 1e-07 1 1 0
1  38 0 0 6.28318530717959
2  81 25 0 0 6.28318530717959
2  82 23 0 0 6.28318530717959
4 G1 25 0 23 0
0

0101000
+21 0 -21 0 *
Wi

0101100
-20 0 *
Fa
0  1e-07 23 0

0101000
+22 0 +19 0 *
Ve
1e-07
-41 0 0
0 0

0101101
*
Ed
 1e-07 1 1 0
1  39 0 3 33
3  83 84CN 24 0 3 33
0

0101000
+27 0 -17 0 *
Ed
 1e-07 1 1 0
1  40 0 0 6.28318530717959
2  85 24 0 0 6.28318530717959
2  86 26 0 0 6.28318530717959
4 C2 24 0 26 0
0

0101000
+17 0 -17 0 *
Wi

0101100
-16 0 +25 0 -15 0 +16 0 *
Fa
0  1e-07 24 0

0101000
+14 0 *
Ve
1e-07
-41 30 0
0 0

0101101
*
Ed
 1e-07 1 1 0
1  41 0 4.71238898038469 6.28318530717959
3  87 88CN 25 0 4.71238898038469 6.28318530717959
0

0101000
+21 0 -12 0 *
Ed
 1e-07 1 1 0
1  42 0 0 6.28318530717959
2  89 25 0 0 6.28318530717959
2  90 26 0 0 6.28318530717959
4 G1 25 0 26 0
0

0101000
+12 0 -12 0 *
Wi

0101100
-11 0 +20 0 -10 0 +11 0 *
Fa
0  0 25 0

0101000
+9 0 *
Ed
 1e-07 1 1 0
1  39 0 3 33
3  91 92CN 26 2 3 33
0

0101000
+12 2 -17 2 *
Wi

0101100
-7 1 +10 0 -15 0 +7 1 *
Fa
0  1e-07 26 0

0101000
+6 0 *
Sh

0101100
+128 0 +123 0 -118 0 +113 0 -108 0 +103 0 -98 0 +93 0 -88 0 +83 0 
-78 0 +73 0 -68 0 +63 0 -58 0 +53 0 -48 0 +43 0 -38 0 +33 0 
-28 0 +23 0 -18 0 +13 0 -8 0 -5 0 *
So

0100000
+4 0 *
Co

0100000
+3 0 *
Co

1100000
+2 0 *

+1 0 