DBRep_DrawableShape

CASCADE Topology V1, (c) Matra-Datavision
Locations 25
1
              1               0               0               0 
              0               1               0             -15 
              0               0               1               0 
2  1 -1 0
1
1.11022302462516e-16               0              -1               0 
              0               1               0               0 
              1               0 1.11022302462516e-16               0 
1
1.11022302462516e-16               0              -1               0 
              0               1               0               0 
              1               0 1.11022302462516e-16               0 
2  3 1 4 1 0
1
              1               0               0               0 
              0               1               0             -15 
              0               0               1               0 
2  6 -1 0
2  1 1 6 -1 0
2  3 -1 0
2  1 1 3 -1 6 -1 0
2  4 -1 3 -1 0
2  1 1 4 -1 3 -1 6 -1 0
1
1.11022302462516e-16               0              -1               0 
              0               1               0               0 
              1               0 1.11022302462516e-16               0 
2  13 -1 4 -1 3 -1 0
2  1 1 13 -1 4 -1 3 -1 6 -1 0
1
              1               0               0               0 
              0               1               0             -45 
              0               0               1               0 
2  16 -1 0
2  3 1 4 1 13 1 0
2  6 1 3 1 4 1 0
2  6 1 3 1 4 1 13 1 0
2  6 1 3 1 0
1
              1               0               0               0 
              0               1               0             -90 
              0               0               1               0 
2  22 -1 0
1
              1               0               0               0 
              0               1               0             -51 
              0               0               1               0 
2  24 -1 0
Curve2ds 76
1 0 0 0 -1 
1 6.2831853071795862 0 0 -1 
1 0 0 1 0 
1 0 -15 1 0 
2 2.9172056160841027e-15 -4.6791201778939577e-16 1 0 -0 1 60
1 0 0 1 0 
1 0 -15 1 0 
2 -7.1054273576010019e-15 -2.4035713027331545e-16 1 0 -0 1 9
2 -45 -4.6791201778939577e-16 1 0 -0 1 9
2 -45 -4.6791201778939577e-16 1 0 -0 1 9
2 -2.0787979947291018e-15 -45 1.1102230246251565e-16 1 -1 1.1102230246251565e-16 9
2 -2.0787979947291018e-15 -45 1.1102230246251565e-16 1 -1 1.1102230246251565e-16 9
2 45 -1.0459919239415805e-14 -1 2.2204460492503131e-16 -2.2204460492503131e-16 -1 9
2 45 -1.0459919239415805e-14 -1 2.2204460492503131e-16 -2.2204460492503131e-16 -1 9
2 1.7905216448523717e-14 45 -3.3306690738754696e-16 -1 1 -3.3306690738754696e-16 9
2 1.7905216448523717e-14 45 -3.3306690738754696e-16 -1 1 -3.3306690738754696e-16 9
1 0 0 1 0 
1 0 -45 1 0 
2 1.4586028080420513e-15 -2.3395600889469788e-16 1 0 -0 1 30
2 2.9172056160841027e-15 -4.6791201778939577e-16 1 0 -0 1 30
2 2.9172056160841027e-15 -4.6791201778939577e-16 1 0 0 -1 30
1 6.2831853071795862 -15 -1 0 
1 0 0 0 -1 
1 6.2831853071795862 0 0 -1 
1 0 0 1 0 
1 0 -90 1 0 
2 7.2930140402102567e-16 -1.1697800444734894e-16 1 0 -0 1 15
2 1.4586028080420513e-15 -2.3395600889469788e-16 1 0 -0 1 15
1 0 0 1 0 
1 0 -51 1 0 
1 2.25 3 -1 0 
1 -11.999999999999998 2.9999999999999996 -1 0 
1 0 0 1 0 
1 0 -51 1 0 
1 -2.25 3 0 -1 
1 -16.5 2.9999999999999996 0 -1 
1 0 0 1 0 
1 0 -51 1 0 
1 -2.25 -3 1 0 
1 -16.5 -3.0000000000000004 1 0 
1 0 0 0 -1 
1 6.2831853071795862 0 0 -1 
8 -45.0000006 5.9999999999999997e-07
1 2.9402347327994622 0 0 1 
8 -45.0000006 5.9999999999999997e-07
1 2.6969384566990691 0 0 1 
2 1.4586028080420513e-15 -2.3395600889469788e-16 1 0 0 -1 15
1 6.2831853071795862 -45 -1 0 
1 0 0 0 -1 
1 6.2831853071795862 0 0 -1 
1 4.5 0 0 -1 
1 0 0 0 -1 
8 -10.949999999999999 -5.5499999999999989
1 -5.9999999999999991 2.9999999999999996 1 0 
8 -10.949999999999999 -5.5499999999999989
1 -5.9999999999999991 -45 -1 0 
1 6 0 0 -1 
1 0 0 0 -1 
8 -5.0999999999999996 2.0999999999999996
1 -16.5 1.5 0 1 
8 -5.0999999999999996 2.0999999999999996
1 1.4999999999999998 -45 -1 0 
8 -45.0000006 5.9999999999999997e-07
1 3.342950574380124 0 0 1 
8 -45.0000006 5.9999999999999997e-07
1 1.8030615433009309 0 0 1 
8 3.2999999999999998 8.6999999999999993
1 -8.2499999999999982 -3.0000000000000004 -1 0 
8 3.2999999999999998 8.6999999999999993
1 8.25 -45 -1 0 
8 -56.100000000000001 5.9999999999999997e-07
1 2.9402347327994622 0 0 1 
8 -56.100000000000001 5.9999999999999997e-07
1 2.6969384566990691 0 0 1 
1 6.2831853071795862 -51 -1 0 
2 14.25 0 1 0 0 -1 15
8 -56.100000000000001 5.9999999999999997e-07
1 3.342950574380124 0 0 1 
8 -56.100000000000001 5.9999999999999997e-07
1 1.8030615433009309 0 0 1 
1 -16.5 -3 1 0 
1 0 0 1 0 
1 0 -51 1 0 
1 2.25 -3 0 1 
1 -12 -3 0 1 
1 -12 3 -1 0 
1 0 0 0 -1 
1 6 0 0 -1 
1 4.5 0 0 -1 
1 0 0 0 -1 
Curves 26
1 0 0 -60 0 -1 0 
2 0 0 0 0 -1 0 0 -0 -1 1 0 0 60
2 0 0 45 0 -1 0 0 -0 -1 1 0 0 9
2 0 0 0 0 -1 0 0 -0 -1 1 0 0 30
2 0 -15 0 -0 1 -0 0 0 -1 -1 -0 -0 30
1 0 0 36 0 -1 0 
2 0 0 0 0 -1 0 0 -0 -1 1 0 0 15
1 3 0 12 0 0 1 
1 3 0 16.5 -1 0 0 
1 -3 0 16.5 0 0 -1 
1 0 0 -30 0 -1 0 
1 3 0 14.696938456699069 -0 1 -0 
2 0 -45 0 -0 1 -0 0 0 -1 -1 -0 -0 15
1 0 0 -15 0 -1 0 
1 3 0 16.5 0 -1 0 
1 3 -45 6.0000000000000009 0 0 -1 
1 -3 0 16.5 0 -1 0 
1 1.5000000000000002 -45 16.5 1 0 0 
1 -3 0 14.696938456699069 -0 1 -0 
1 -3 -45 8.25 0 0 1 
1 3 0 14.696938456699069 -0 1 -0 
2 0 -51 0 -0 1 -0 0 0 -1 -1 -0 -0 15
1 -3 0 14.696938456699069 -0 1 -0 
1 -3 0 12 1 0 0 
1 3 0 12 0 -1 0 
1 -3 0 12 0 -1 0 
Polygon3D 0
PolygonOnTriangulations 0
Surfaces 13
2 0 0 0 -0 1 -0 0 -0 -1 1 0 0 60
1 4.6791201778939577e-16 0 2.9172056160841027e-15 -0 -1 -0 0 0 -1 1 -0 0 
2 0 0 45 -0 1 -0 0 -0 -1 1 0 0 9
1 2.4035713027331545e-16 0 44.999999999999993 -0 -1 -0 0 0 -1 1 -0 0 
2 0 0 0 -0 1 -0 0 -0 -1 1 0 0 30
1 2.3395600889469788e-16 0 1.4586028080420513e-15 -0 -1 -0 0 0 -1 1 -0 0 
2 0 0 0 -0 1 -0 0 -0 -1 1 0 0 15
1 1.1697800444734894e-16 0 7.2930140402102567e-16 -0 -1 -0 0 0 -1 1 -0 0 
1 3 0 12 -1 0 0 0 0 1 0 1 -0 
1 0 0 14.25 -0 -1 -0 0 0 -1 1 -0 0 
1 3 0 16.5 -0 -0 -1 -1 0 0 0 1 -0 
1 -3 0 16.5 1 0 0 0 0 -1 -0 1 0 
1 -3 0 12 -0 0 1 1 0 0 0 1 -0 
Triangulations 0

TShapes 116
Ve
1e-07
0 0 -60
0 0

0101101
*
Ed
 1e-07 1 1 0
1  1 0 0 15
3  1 2CN 1 0 0 15
0

0101000
+116 0 -116 1 *
Ed
 1e-07 1 1 0
1  2 0 0 6.28318530717959
2  3 1 0 0 6.28318530717959
2  4 1 2 0 6.28318530717959
2  5 2 0 0 6.28318530717959
0

0101000
+116 0 -116 0 *
Wi

0101100
+115 0 -115 0 -114 0 +114 1 *
Fa
0  1e-07 1 0

0111000
+113 0 *
Wi

0101100
+114 0 *
Ve
1.50001e-07
0 0 36
0 0

0101101
*
Ed
 1e-07 1 1 0
1  3 0 0 6.28318530717959
2  6 3 0 0 6.28318530717959
2  7 3 7 0 6.28318530717959
2  8 4 0 0 6.28318530717959
2  9 2 0 0 6.28318530717959
2  10 2 8 0 6.28318530717959
2  11 2 9 0 6.28318530717959
2  12 2 10 0 6.28318530717959
2  13 2 11 0 6.28318530717959
2  14 2 12 0 6.28318530717959
2  15 2 14 0 6.28318530717959
2  16 2 15 0 6.28318530717959
0

0101000
+110 0 -110 0 *
Wi

0101100
-109 5 *
Ve
1.50001e-07
0 0 -30
0 0

0101101
*
Ed
 1e-07 1 1 0
1  4 0 0 6.28318530717959
2  17 5 0 0 6.28318530717959
2  18 5 17 0 6.28318530717959
2  19 6 0 0 6.28318530717959
2  20 2 0 0 6.28318530717959
0

0101000
+107 0 -107 0 *
Wi

0101100
-106 0 *
Wi

0101100
-109 18 *
Wi

0101100
-109 0 *
Wi

0101100
-109 3 *
Fa
0  1e-07 2 0

0111000
+111 0 +108 0 +105 0 +104 0 +103 0 +102 0 *
Wi

0101100
+114 1 *
Wi

0101100
-109 19 *
Ve
1.00000007347881e-07
0 -15 -30
0 0

0101101
*
Ed
 1e-07 1 1 0
1  5 0 0 6.28318530717959
2  21 2 1 0 6.28318530717959
2  22 5 0 0 6.28318530717959
0

0101000
+98 0 -98 0 *
Wi

0101100
+97 0 *
Wi

0101100
-109 20 *
Wi

0101100
-109 6 *
Wi

0101100
-109 21 *
Fa
0  1e-07 2 1

0111000
+100 0 +99 0 +96 0 +95 0 +94 0 +93 0 *
Ed
 1e-07 1 1 0
1  6 0 0 15
3  23 24CN 3 0 0 15
0

0101000
+110 0 -110 6 *
Wi

0101100
+91 0 -91 0 -109 0 +109 6 *
Fa
0  1e-07 3 0

0111000
+90 0 *
Wi

0101100
+106 0 *
Ve
1.50001e-07
0 0 -15
0 0

0101101
*
Ve
1.0000020988513e-07
3.00000000000019 0 14.696938456699
0 0

0101101
*
Ed
 1e-07 1 1 0
1  7 0 0 2.94023473279945
2  25 7 0 0 2.94023473279945
2  26 7 23 0 2.94023473279945
2  27 8 0 0 2.94023473279945
2  28 6 0 0 2.94023473279945
0

0101000
+87 0 -86 0 *
Ve
2.12133034355964e-07
3 0 16.5
0 0

0101101
*
Ed
 1e-07 1 1 0
1  8 0 2.69693845669899 4.5
2  29 9 0 2.69693845669899 4.5
2  30 9 25 2.69693845669899 4.5
2  31 10 0 2.69693845669899 4.5
2  32 6 0 2.69693845669899 4.5
0

0101000
+86 0 -84 0 *
Ve
2.12133034355964e-07
-3 0 16.5
0 0

0101101
*
Ed
 1e-07 1 1 0
1  9 0 0 6
2  33 11 0 0 6
2  34 11 25 0 6
2  35 10 0 0 6
2  36 6 0 0 6
0

0101000
+84 0 -82 0 *
Ve
1.00000208243749e-07
-3.00000000000019 0 14.696938456699
0 0

0101101
*
Ed
 1e-07 1 1 0
1  10 0 0 1.80306154330101
2  37 12 0 0 1.80306154330101
2  38 12 25 0 1.80306154330101
2  39 10 0 0 1.80306154330101
2  40 6 0 0 1.80306154330101
0

0101000
+82 0 -80 0 *
Ed
 1e-07 1 1 0
1  7 0 3.34295057438014 6.28318530717959
2  25 7 0 3.34295057438014 6.28318530717959
2  26 7 23 3.34295057438014 6.28318530717959
2  27 8 0 3.34295057438014 6.28318530717959
2  28 6 0 3.34295057438014 6.28318530717959
0

0101000
+80 0 -87 0 *
Wi

0101100
-85 0 -83 0 -81 0 -79 0 -78 0 *
Fa
0  1e-07 6 0

0111000
+88 0 +77 0 *
Ed
 1e-07 1 1 0
1  11 0 15 45
3  41 42CN 5 0 15 45
0

0101000
+98 0 -107 16 *
Wi

0101100
+97 0 -75 0 +106 16 +75 0 *
Fa
0  1e-07 5 0

0111000
+74 0 *
Ve
1.50000001986027e-07
3 -45 14.6969384566991
0 0

0101101
*
Ed
 1e-07 1 1 0
1  12 0 -45 0
2  43 7 0 -45 0
2  44 9 0 -45 0
0

0101000
+72 0 -86 0 *
Ve
1.0000000367394e-07
0 -45 -15
0 0

0101101
*
Ed
 1e-07 1 1 0
1  13 0 3.34295057438012 6.28318530717959
2  45 6 16 3.34295057438012 6.28318530717959
2  46 7 0 3.34295057438012 6.28318530717959
0

0101000
+72 0 -70 0 *
Ed
 1e-07 1 1 0
1  14 0 0 45
3  47 48CN 7 0 0 45
0

0101000
+87 0 -70 0 *
Wi

0101100
-85 0 +71 0 -69 0 +68 0 *
Fa
0  1e-07 7 0

0111000
+67 0 *
Ve
1.5e-07
3 -45 16.5
0 0

0101101
*
Ed
 1e-07 1 1 0
1  15 0 0 45
2  49 9 0 0 45
2  50 11 0 0 45
0

0101000
+84 0 -65 0 *
Ed
 1.5e-07 1 1 0
1  16 0 -10.5 -8.69693845669907
2  51 6 16 -10.5 -8.69693845669907
2  52 9 0 -10.5 -8.69693845669907
0

0101000
+65 0 -72 0 *
Wi

0101100
-83 0 -64 0 -63 0 -71 0 *
Fa
0  1e-07 9 0

0111000
+62 0 *
Ve
1.5e-07
-3 -45 16.5
0 0

0101101
*
Ed
 1e-07 1 1 0
1  17 0 0 45
2  53 11 0 0 45
2  54 12 0 0 45
0

0101000
+82 0 -60 0 *
Ed
 1.5e-07 1 1 0
1  18 0 -4.5 1.5
2  55 6 16 -4.5 1.5
2  56 11 0 -4.5 1.5
0

0101000
+60 0 -65 0 *
Wi

0101100
-81 0 -59 0 -58 0 +64 0 *
Fa
0  1e-07 11 0

0111000
+57 0 *
Ve
1.50000003108624e-07
-3 -45 14.6969384566991
0 0

0101101
*
Ed
 1e-07 1 1 0
1  19 0 -45 0
2  57 7 0 -45 0
2  58 12 0 -45 0
0

0101000
+55 0 -80 0 *
Ed
 1.5e-07 1 1 0
1  20 0 6.44693845669907 8.25
2  59 6 16 6.44693845669907 8.25
2  60 12 0 6.44693845669907 8.25
0

0101000
+55 0 -60 0 *
Wi

0101100
-79 0 +54 0 -53 0 +59 0 *
Fa
0  1e-07 12 0

0111000
+52 0 *
Ed
 1e-07 1 1 0
1  13 0 0 2.94023473279946
2  45 6 16 0 2.94023473279946
2  46 7 0 0 2.94023473279946
0

0101000
+70 0 -55 0 *
Wi

0101100
-68 0 -50 0 -54 0 -78 0 *
Fa
0  1e-07 7 0

0111000
+49 0 *
Wi

0101100
+106 16 *
Wi

0101100
+69 0 +63 0 +58 0 +53 0 +50 0 *
Fa
0  1e-07 6 16

0111000
+47 0 +46 0 *
Sh

0101100
-112 0 -101 0 +92 0 +89 5 -76 0 +89 18 +89 0 +89 3 -73 0 +66 0 
+61 0 +56 0 +51 0 +48 0 +45 0 *
So

0100000
+44 0 *
Co

0100000
+43 0 *
Ve
1.0000020988513e-07
3.00000000000019 0 14.696938456699
0 0

0101101
*
Ed
 1e-07 1 1 0
1  7 0 0 2.94023473279945
2  25 7 0 0 2.94023473279945
2  26 7 23 0 2.94023473279945
2  27 8 0 0 2.94023473279945
2  28 6 0 0 2.94023473279945
0

0101000
+87 0 -41 0 *
Ve
1.00000001986027e-07
3 -51 14.6969384566991
0 0

0101101
*
Ed
 1e-07 1 1 0
1  21 0 -51 0
2  61 7 0 -51 0
2  62 9 0 -51 0
0

0101000
+39 0 -41 0 *
Ve
1.00000003580362e-07
-3 -51 14.6969384566991
0 0

0101101
*
Ed
 1e-07 1 1 0
1  22 0 2.94023473279946 3.34295057438012
2  63 7 0 2.94023473279946 3.34295057438012
2  64 10 24 2.94023473279946 3.34295057438012
0

0101000
+37 0 -39 0 *
Ve
1.00000208243749e-07
-3.00000000000019 0 14.696938456699
0 0

0101101
*
Ed
 1e-07 1 1 0
1  23 0 -51 0
2  65 7 0 -51 0
2  66 12 0 -51 0
0

0101000
+37 0 -35 0 *
Ed
 1e-07 1 1 0
1  7 0 3.34295057438014 6.28318530717959
2  25 7 0 3.34295057438014 6.28318530717959
2  26 7 23 3.34295057438014 6.28318530717959
2  27 8 0 3.34295057438014 6.28318530717959
2  28 6 0 3.34295057438014 6.28318530717959
0

0101000
+35 0 -87 0 *
Ed
 1e-07 1 1 0
1  14 0 0 90
3  47 48CN 7 0 0 90
0

0101000
+87 0 -87 22 *
Ed
 1e-07 1 1 0
1  7 0 0 6.28318530717959
2  25 7 0 0 6.28318530717959
2  26 7 23 0 6.28318530717959
2  27 8 0 0 6.28318530717959
2  28 6 0 0 6.28318530717959
0

0101000
+87 0 -87 0 *
Wi

0101100
-40 0 +38 0 +36 0 -34 0 -33 0 -32 0 +31 22 +32 0 *
Fa
0  1e-07 7 0

0111000
+30 0 *
Ve
2.12133034355964e-07
-3 0 12
0 0

0101101
*
Ed
 1e-07 1 1 0
1  10 0 1.80306154330101 4.5
2  37 12 0 1.80306154330101 4.5
2  38 12 25 1.80306154330101 4.5
2  39 10 0 1.80306154330101 4.5
2  67 8 0 1.80306154330101 4.5
0

0101000
+35 0 -28 0 *
Ve
2.12133034355964e-07
3 0 12
0 0

0101101
*
Ed
 1e-07 1 1 0
1  24 0 0 6
2  68 13 0 0 6
2  69 13 25 0 6
2  70 10 0 0 6
2  71 8 0 0 6
0

0101000
+28 0 -26 0 *
Ed
 1e-07 1 1 0
1  8 0 0 2.69693845669899
2  29 9 0 0 2.69693845669899
2  30 9 25 0 2.69693845669899
2  31 10 0 0 2.69693845669899
2  72 8 0 0 2.69693845669899
0

0101000
+26 0 -41 0 *
Wi

0101100
+33 0 -27 0 -25 0 -24 0 +40 0 *
Fa
0  1e-07 8 0

0111000
+23 0 *
Ed
 1e-07 1 1 0
1  8 0 0 2.69693845669907
2  29 9 0 0 2.69693845669907
2  30 9 25 0 2.69693845669907
2  31 10 0 0 2.69693845669907
0

0101000
+26 0 -39 25 *
Ed
 1e-07 1 1 0
1  25 0 0 51
2  73 9 0 0 51
2  74 13 0 0 51
0

0101000
+26 0 -26 24 *
Wi

0101100
-24 0 +38 0 +21 24 +20 0 *
Fa
0  1e-07 9 0

0111000
+19 0 *
Ed
 1e-07 1 1 0
1  10 0 1.80306154330093 4.5
2  37 12 0 1.80306154330093 4.5
2  38 12 25 1.80306154330093 4.5
2  39 10 0 1.80306154330093 4.5
0

0101000
+37 25 -28 0 *
Wi

0101100
+25 24 +17 24 -36 0 +21 24 *
Fa
0  1e-07 10 24

0111000
+16 0 *
Ed
 1e-07 1 1 0
1  26 0 0 51
2  75 12 0 0 51
2  76 13 0 0 51
0

0101000
+28 0 -28 24 *
Wi

0101100
-27 0 -14 0 +17 24 -34 0 *
Fa
0  1e-07 12 0

0111000
+13 0 *
Wi

0101100
+31 0 *
Fa
0  1e-07 8 0

0111000
+11 0 *
Wi

0101100
+14 0 -20 0 -25 0 +25 24 *
Fa
0  1e-07 13 0

0111000
+9 0 *
Sh

0101100
-29 0 -22 0 +18 0 -15 0 +12 0 +10 22 +8 0 *
So

0100000
+7 0 *
Co

0100000
+6 0 *
Ed
 1e-07 1 1 0
1  8 0 0 4.5
2  29 9 0 0 4.5
2  30 9 25 0 4.5
2  31 10 0 0 4.5
0

0101000
+26 0 -84 0 *
Ed
 1e-07 1 1 0
1  10 0 0 4.5
2  37 12 0 0 4.5
2  38 12 25 0 4.5
2  39 10 0 0 4.5
0

0101000
+82 0 -28 0 *
Wi

0101100
+4 0 +81 0 +3 0 +25 0 *
Co

1100000
+42 0 +5 0 +2 0 *

+1 0 