DBRep_DrawableShape

CASCADE Topology V1, (c) Matra-Datavision
Locations 0
Curve2ds 12
1 -0.35355339059327373 -0.35355339059327373 1 0 
1 0.15450849718747373 -0.40450849718747373 0 1 
1 0.64644660940672627 -0.35355339059327373 -0.70710678118654757 0.70710678118654757 
1 -0.24174999171828432 -0.71548288749799172 0.63245553203367588 0.7745966692414834 
1 -0.35355339059327373 0.64644660940672627 0 -1 
8 0 1
1 -0.15450849718747373 -0.59549150281252627 -0 1 
1 0.15450849718747373 0.59549150281252627 -0.44721359549995798 -0.89442719099991597 
8 0 1.1180339887498949
1 -0.24174999171828435 -0.71548288749799172 -0.19999999999999998 0.97979589711327131 
1 -0.34549150281252627 -0.40450849718747373 1 0 
1 0.34549150281252627 0.40450849718747373 -1 0 
1 0.65267719928163159 0.37996222751234066 -1 0 
1 -0.15450849718747373 -0.59549150281252627 0.44721359549995798 0.89442719099991597 
Curves 6
1 0 0 0 1 0 0 
1 1 0 0 -0.70710678118654746 0.70710678118654746 0 
1 0 1 0 0 -1 0 
1 1 0 0 -0.89442719099991586 0 0.44721359549995793 
1 0 0 0.5 0 0 -1 
1 0 1 0 0 -0.89442719099991586 0.44721359549995793 
Polygon3D 0
PolygonOnTriangulations 0
Surfaces 4
1 0.35355339059327373 0.35355339059327373 0 0 0 1 1 0 -0 -0 1 0 
1 0.40450849718747373 0 0.15450849718747373 -0 -1 -0 0 0 -1 1 -0 0 
1 0.34685647168069828 0.34685647168069828 0.15314352831930172 0.40824829046386302 0.40824829046386307 0.81649658092772603 0 0.89442719099991597 -0.44721359549995798 -0.91287092917527701 0.18257418583505539 0.36514837167011077 
1 0 0.40450849718747373 0.15450849718747373 1 0 0 -0 0 1 0 -1 0 
Triangulations 0

TShapes 21
Ve
1e-07
0 0 0
0 0

0101101
*
Ve
1e-07
1 0 0
0 0

0101101
*
Ed
 1e-07 1 1 0
1  1 0 0 1
2  1 1 0 0 1
2  2 2 0 0 1
0

0101000
+21 0 -20 0 *
Ve
1e-07
0 1 0
0 0

0101101
*
Ed
 1e-07 1 1 0
1  2 0 0 1.4142135623731
2  3 1 0 0 1.4142135623731
2  4 3 0 0 1.4142135623731
0

0101000
+20 0 -18 0 *
Ed
 1e-07 1 1 0
1  3 0 0 1
2  5 1 0 0 1
2  6 4 0 0 1
0

0101000
+18 0 -21 0 *
Wi

0101100
+19 0 +17 0 +16 0 *
Fa
0  1e-07 1 0

0101000
+15 0 *
Ve
1e-07
0 0 0.5
0 0

0101101
*
Ed
 1e-07 1 1 0
1  4 0 0 1.11803398874989
2  7 2 0 0 1.11803398874989
2  8 3 0 0 1.11803398874989
0

0101000
+20 0 -13 0 *
Ed
 1e-07 1 1 0
1  5 0 0 0.5
2  9 2 0 0 0.5
2  10 4 0 0 0.5
0

0101000
+13 0 -21 0 *
Wi

0101100
+19 0 +12 0 +11 0 *
Fa
0  1e-07 2 0

0101000
+10 0 *
Ed
 1e-07 1 1 0
1  6 0 0 1.11803398874989
2  11 3 0 0 1.11803398874989
2  12 4 0 0 1.11803398874989
0

0101000
+18 0 -13 0 *
Wi

0101100
+17 0 +8 0 -12 0 *
Fa
0  1e-07 3 0

0101000
+7 0 *
Wi

0101100
-16 0 +8 0 +11 0 *
Fa
0  1e-07 4 0

0101000
+5 0 *
Sh

0101100
+14 0 -9 0 -6 0 +4 0 *
So

0100000
+3 0 *
Co

1100000
+2 0 *

+1 0 