DBRep_DrawableShape

CASCADE Topology V1, (c) Matra-Datavision
Locations 0
Curve2ds 10
1 0 0 1 0 
1 0 0 1 0 
1 -0.18537452397055915 0.0026504722181700888 0.99983888580705105 -0.017949997997631282 
7 0 0  1 2 2  5.7120890631011667 1  5.7120890631011667 0 
 0 2 0.37215389177634306 2
7 0 0  1 2 2  0 1  5.7120890631011667 1 
 0 2 5.6085954169594441 2
7 0 0  1 2 2  0 1  5.7120890631011667 1 
 0 2 5.6085954169594441 2
1 0 0 0 1 
7 0 0  1 2 2  -0.18536215864902703 -0.0026128806572821373  0.1867317713164823 0.0040174558849453207 
 0 2 1 2
1 -0.18536215857097407 -0.0053628809017771386 0.99968238957169042 0.025201586859463734 
1 0.18671940853185748 -0.0040296893940259563 -0.99968238957160249 0.02520158686294785 
Curves 7
7 0 0  3 37 35  13.546231220103982 4.0804999999999989 1.4574511023414207  13.500804954558644 4.080499999999998 1.4726802624755873  13.409677073948236 4.0804999999999989 1.5003659809221184  13.226044663092869 4.0805000000000007 1.547981454500611  12.997790583863667 4.080499999999998 1.6068776689760225  12.722922146390671 4.0804999999999989 1.6694670844479229  12.448452729126908 4.0804999999999989 1.7272845817735358  12.173756254461587 4.0804999999999989 1.7768996204754188  11.899297898214433 4.080499999999998 1.818869390778262  11.669978746165112 4.0804999999999998 1.8427434819643982  11.486568085503915 4.0804999999999989 1.8522852813963235  11.349072619526408 4.080499999999998 1.8537488920604956  11.21117205223622 4.0804999999999998 1.8475844414512745  11.096026977486918 4.0804999999999989 1.8307453389866728  11.004820754941075 4.0804999999999989 1.8051382768114235  10.934363237217092 4.0804999999999998 1.7793224098228042  10.87646589618052 4.0804999999999989 1.7448599708320507  10.816369978795825 4.0804999999999998 1.6946439426849391  10.781025318012645 4.080499999999998 1.6118962893082716  10.827968854588558 4.0804999999999998 1.5489244225798042  10.876840943356882 4.080499999999998 1.5126468787992284  10.936104526729526 4.0804999999999998 1.4861084513463605  11.005100041424877 4.0804999999999989 1.4601553297677299  11.096790641953973 4.0804999999999998 1.4333144566769123  11.211099398154026 4.080499999999998 1.4056576591529291  11.348609373536981 4.0804999999999998 1.3796728362983057  11.48620983675089 4.080499999999998 1.3617286356562699  11.669257686783205 4.0804999999999989 1.345124699963643  11.898384834926153 4.0804999999999989 1.3367944814099753  12.173184390348815 4.0805000000000007 1.3387640495286288  12.447893226049111 4.0804999999999989 1.3487533190437606  12.722564777230344 4.0804999999999989 1.3655113743549521  12.997244925344402 4.0804999999999989 1.3880806504907408  13.225965730953829 4.0804999999999989 1.4118499953174124  13.409280635147345 4.080499999999998 1.4323903365555344  13.500623408826062 4.0804999999999989 1.4463982923184915  13.546231220103982 4.0804999999999989 1.4547011023414207 
 0 4 0.14362330429642275 1 0.28572693705457541 1 0.56902065011336234 1 0.85081088411014982 1 1.1313445150259365 1 1.4104386570144964 1 1.6881215532160903 1 1.9641502113180509 1 2.1016520684756488 1 2.238982885257653 1 2.3764974378629455 1 2.5155260954284198 1 2.586805472790064 1 2.660389254623388 1 2.740328392734769 1 2.7863953256429137 1 2.8980844966727126 1 2.9616432686720398 1 3.0048915304935826 1 3.081372266876071 1 3.1546534046711279 1 3.2263401650932551 1 3.3676845536238869 1 3.5073985121242091 1 3.6459302415641242 1 3.7838162964039861 1 4.0586806407426117 1 4.3333148587733454 1 4.6081182922372639 1 4.8832468332220893 1 5.1588007211335833 1 5.4348532141539927 1 5.5731176783493881 1 5.7120890631011667 4
1 13.524606039452427 4.4519649999999977 1.4613812637081978 0.058108163817158165 -0.99814890616068519 -0.017949997995147553 
7 0 0  3 37 35  13.524606084447107 4.4519649999999977 1.4640814388836474  13.479997967511983 4.4519649999999977 1.4789681076191554  13.390512605917607 4.4519649999999986 1.5060186747134203  13.210196091391913 4.4519649999999968 1.5525011776836581  12.986057648519523 4.4519649999999986 1.6099976080545852  12.716150393136298 4.4519649999999977 1.6710534366598822  12.446632687661022 4.4519649999999977 1.7274280676934584  12.17689328292939 4.4519649999999968 1.7757516046547843  11.907384962569536 4.4519649999999995 1.8165739075103704  11.682206798466648 4.4519649999999977 1.8396954411367381  11.502110075539592 4.4519649999999977 1.8488118774994586  11.36709510091509 4.4519649999999977 1.8500617394499166  11.231679727767679 4.4519649999999977 1.8438229999716509  11.118614646820699 4.4519649999999977 1.8271323648856426  11.029058612202101 4.4519649999999977 1.8018627001571303  10.959869828697789 4.4519649999999977 1.7764124522734235  10.903015868126682 4.4519649999999977 1.7424835806570977  10.844003375030244 4.4519649999999977 1.6930571662971325  10.80925847974523 4.4519649999999977 1.6117468226319855  10.855401615744286 4.4519649999999977 1.5499223518208143  10.90339510749258 4.4519649999999986 1.5143913135509359  10.961585236955894 4.4519649999999968 1.4884230986194875  11.029335506318629 4.4519649999999986 1.4630437378854317  11.119371709520495 4.4519649999999986 1.4368230019991315  11.231619276106958 4.4519649999999968 1.4098338849063015  11.366648008809928 4.4519649999999977 1.3845196970789371  11.501763952638969 4.4519649999999986 1.3670992770829651  11.681512064832951 4.4519649999999968 1.3510593556679811  11.906505436064151 4.4519649999999977 1.3432097757662469  12.176342882488104 4.4519649999999977 1.3455401892612664  12.446093154060604 4.4519649999999977 1.3557466010218171  12.715807354497812 4.4519649999999977 1.372600677489165  12.985530456747675 4.4519649999999968 1.3951622365889351  13.210121744609145 4.4519649999999986 1.4188358391448384  13.390130488918373 4.4519649999999968 1.4392736864915538  13.479822909866789 4.4519649999999977 1.4531619038975359  13.524606084447107 4.4519649999999977 1.4613812719663846 
 0 4 0.14097158094680023 1 0.28045846280449349 1 0.55854048191475425 1 0.83515541662324944 1 1.1105450313725012 1 1.3845320826440151 1 1.6571459194464213 1 1.9281543179084903 1 2.0631647683816299 1 2.1980152207149506 1 2.3330571774640219 1 2.4696052296924846 1 2.5396235022688671 1 2.6119141324684363 1 2.6904652651313219 1 2.7357423945882253 1 2.8455751475967199 1 2.9079091665536869 1 2.9503399666152963 1 3.0253934612922104 1 3.0973160240082795 1 3.1676798786801088 1 3.3064256949214279 1 3.4435813835667743 1 3.5795868678787168 1 3.7149666372825525 1 3.9848545778071394 1 4.254534762817002 1 4.5243934366164655 1 4.7945813288108585 1 5.0651956880291946 1 5.3363076559114848 1 5.4721007497668541 1 5.6085954169594441 4
7 0 0  1 2 2  13.546231220103982 4.0804999999999989 1.4574511023414207  13.524606084447107 4.4519649999999977 1.4640814388836474 
 0 2 1 2
1 13.546231220103982 4.0804999999999989 1.4574511023414207 -4.8837148161873792e-07 0 -0.99999999999988076 
1 13.54623121876096 4.0804999999999989 1.454701102096926 -0.058098948166716138 0.99799268145697662 0.025201586859460737 
1 13.524606084447107 4.4519649999999977 1.4640814388836474 -1.6663615155312891e-05 0 -0.99999999986116195 
Polygon3D 0
PolygonOnTriangulations 0
Surfaces 6
9 0 0 0 0 3 1 70 2 68 2 13.546231220103982 4.0804999999999989 1.4574511023414207  13.524606084447107 4.4519649999999977 1.4640814388836474  
13.500820901503175 4.080499999999998 1.472674916260815  13.479997967511983 4.4519649999999977 1.4789681076191554  
13.455014757550792 4.0804999999999989 1.4865918611375868  13.435002630955964 4.4519649999999977 1.4925697665804809  
13.363373642082657 4.0804999999999998 1.5123716985459068  13.344986038680798 4.4519649999999977 1.5177546424497983  
13.317498344987161 4.0804999999999998 1.5242677192530603  13.299925203039676 4.4519649999999977 1.5293705458364388  
13.180264976157234 4.0805000000000007 1.5597939025542877  13.16512892637966 4.4519649999999977 1.5640618947205713  
13.088798113315594 4.0804999999999989 1.5833950701476533  13.07528651755797 4.4519649999999977 1.587107991858431  
12.90584147197743 4.0804999999999989 1.6278139135311587  12.895582313290404 4.4519649999999977 1.6304640699617041  
12.814189260104188 4.0804999999999989 1.6486849409917554  12.805561239947766 4.4519649999999977 1.6508272977282465  
12.631182292616176 4.0804999999999989 1.6887914069918402  12.625813694802382 4.4519649999999977 1.6899490339950756  
12.539592986512817 4.0804999999999989 1.7080857156841986  12.535856617275734 4.4519649999999977 1.708764039283396  
12.356635965685575 4.0804999999999989 1.7438665598831458  12.356163605927351 4.4519649999999977 1.7436355106488688  
12.264973197740126 4.0804999999999989 1.7604242282209452  12.266138030342074 4.4519649999999968 1.7597621198006235  
12.082026902537848 4.0804999999999989 1.7909249379202781  12.086463060998021 4.4519649999999977 1.7894490292910668  
11.990396324440225 4.0804999999999989 1.804938752717441  11.996472612113912 4.4519649999999986 1.803076982056246  
11.807442242423861 4.0804999999999989 1.8284290098352602  11.816799251643918 4.4519649999999986 1.8258753447504312  
11.715734900668052 4.0804999999999998 1.8379798737128943  11.726739610989668 4.4519649999999986 1.8351182491298412  
11.578351376795867 4.0804999999999998 1.847507926278116  11.5918312962228 4.4519649999999977 1.8442702190758604  
11.532431356436977 4.0804999999999989 1.8498992797813809  11.546739773330726 4.4519649999999977 1.84654990814897  
11.440993572616458 4.0804999999999989 1.8527675926276554  11.456954478972632 4.4519649999999977 1.8492298923319335  
11.395062447664614 4.0804999999999989 1.8532593398965171  11.411854905953835 4.4519649999999977 1.8496436118782997  
11.303580503152501 4.0804999999999989 1.8517116936153868  11.322032846485108 4.4519649999999977 1.8479856703954383  
11.257625285109832 4.0804999999999989 1.8496610004191969  11.276913537454297 4.4519649999999977 1.8459002525905479  
11.16589354695763 4.080499999999998 1.8409568299881753  11.186857262742944 4.4519649999999977 1.8372063204352513  
11.119739560676997 4.0804999999999989 1.8342131262012586  11.141551497521712 4.4519649999999977 1.8305073563837051  
11.051577124007634 4.0804999999999989 1.8182607568233173  11.07465131679292 4.4519649999999977 1.814727409542519  
11.028563610639605 4.0804999999999989 1.8118043217929993  11.052065382968969 4.4519649999999977 1.808349869259769  
10.982668726846642 4.0804999999999989 1.7970177942812591  11.007025848195893 4.4519649999999977 1.793758217362079  
10.95950497784235 4.0804999999999998 1.7885344265501986  10.984297297455552 4.4519649999999977 1.7853877948437176  
10.913164203809707 4.0804999999999998 1.7666959090527947  10.938833895028981 4.4519649999999977 1.76385878871843  
10.889891960271195 4.0804999999999989 1.752851614426159  10.91600705860478 4.4519649999999977 1.7502257943273263  
10.856355503726284 4.0804999999999989 1.7280513841790528  10.883123540928361 4.4519649999999977 1.7258225932102282  
10.844651352074665 4.0804999999999989 1.7182758015268327  10.871651877485306 4.4519649999999977 1.7161994277877712  
10.809040471352432 4.080499999999998 1.6774841340326101  10.836741789235456 4.4519649999999977 1.6760635322198181  
10.791175982954293 4.080499999999998 1.6356606623570553  10.819231895260291 4.4519649999999977 1.6350018816086329  
10.805015409347225 4.0804999999999989 1.5797311339633877  10.832875084349848 4.4519649999999977 1.5801043247734305  
10.818660846382432 4.0804999999999989 1.5614105430346572  10.846294189552971 4.4519649999999977 1.5621249351042925  
10.84486916397039 4.0804999999999989 1.5363851314560071  10.872058311416929 4.4519649999999977 1.5375908945786887  
10.85641872500646 4.0804999999999989 1.5278062046839056  10.883412961320911 4.4519649999999977 1.5291871234899486  
10.890043756048941 4.080499999999998 1.5067422597382565  10.916463964852433 4.4519649999999977 1.5085591406384657  
10.913556896965023 4.0804999999999989 1.496205354076269  10.939568271529222 4.4519649999999977 1.4982497315659506  
10.959828999905289 4.0804999999999989 1.4771863133100995  10.98502785889789 4.4519649999999977 1.4796414544369001  
10.982707799842123 4.0804999999999989 1.4685783203169178  11.007504760444849 4.4519649999999977 1.4712235931951563  
11.028443557903557 4.0804999999999989 1.4533245913676942  11.05243557569044 4.4519649999999986 1.456316434907146  
11.051458911378132 4.0804999999999989 1.4465845543788809  11.075044209888599 4.4519649999999986 1.4497332512066952  
11.119874419571191 4.0804999999999989 1.4277320413453969  11.1422475336677 4.4519649999999977 1.4313226752189658  
11.165744559425764 4.0804999999999989 1.4166311806322911  11.187303065069008 4.4519649999999977 1.4204911851854771  
11.257251434334613 4.0804999999999989 1.396938796557851  11.277181366400509 4.4519649999999977 1.401292241298971  
11.30311939010571 4.0804999999999989 1.3882689338383523  11.322231358554316 4.4519649999999977 1.3928489589461082  
11.394621845293743 4.0804999999999989 1.3736752221163842  11.412098154744054 4.4519649999999977 1.3786598362171245  
11.44051963819032 4.080499999999998 1.3676870028826267  11.457173462624336 4.4519649999999977 1.3728500827266075  
11.532012601183167 4.0804999999999998 1.3575759097856404  11.547023868592781 4.4519649999999977 1.3630604836498277  
11.577892533802187 4.0804999999999989 1.3534122658890337  11.592078777868995 4.4519649999999977 1.3590417133653347  
11.715021966189157 4.0804999999999989 1.343464426181048  11.726738526654401 4.4519649999999968 1.3494814926234053  
11.806742253418648 4.0804999999999989 1.3401262678829755  11.816801960079548 4.4519649999999977 1.346341484868979  
11.989827911214682 4.0804999999999998 1.3374518584773254  11.996574085083051 4.4519649999999977 1.3439876410993705  
12.081481657661588 4.0805000000000007 1.3381067894453058  12.086566145133744 4.4519649999999977 1.3447662537704062  
12.264510329172804 4.0804999999999998 1.3420861033455636  12.266272577268651 4.4519649999999977 1.3489428160281656  
12.356153441304567 4.0804999999999989 1.3454173745236753  12.356250274069826 4.4519649999999977 1.3523483565966183  
12.539187914173864 4.0804999999999989 1.3543241142462905  12.535955203310799 4.4519649999999977 1.3613619592310633  
12.630813094814229 4.0804999999999989 1.3599134893092977  12.625912013052449 4.4519649999999977 1.3669840588988966  
12.813865327008623 4.0804999999999989 1.3730136328566631  12.805628327280413 4.4519649999999977 1.3801139426449107  
12.905481289380763 4.0804999999999989 1.3805408306184019  12.89557328262495 4.4519649999999977 1.3876382603750597  
13.088531187939886 4.0804999999999989 1.3975676661395484  13.075281663229806 4.4519649999999977 1.4046226854398332  
13.180100010930497 4.0804999999999989 1.4070834935903249  13.16517755051934 4.4519649999999977 1.4140986289635475  
13.317387941497996 4.0804999999999989 1.4220938450030087  13.299956202370474 4.4519649999999977 1.4290354710640911  
13.363222876655865 4.0804999999999989 1.4272295882779185  13.344953143406176 4.4519649999999977 1.4341448462389459  
13.454821735055685 4.0804999999999989 1.4393743341638867  13.434874725554893 4.4519649999999977 1.4462020052893048  
13.500623408826062 4.0804999999999989 1.4463982923184915  13.479836432305488 4.4519649999999977 1.4531643857649312  
13.546231220103982 4.0804999999999989 1.4547011023414207  13.524606084447107 4.4519649999999977 1.4613812719663846  

0 4
0.14357288516468528 1
0.14362330429642275 1
0.28563367455522359 1
0.28572693705457541 1
0.5688470536486181 1
0.56902065011336234 1
0.85056627669348905 1
0.85081088411014982 1
1.1310375693355303 1
1.1313445150259365 1
1.4100804174373816 1
1.4104386570144964 1
1.6877247115756926 1
1.6881215532160903 1
1.9637339427252214 1
1.9641502113180509 1
2.1012356985516498 1
2.1016520684756488 1
2.2385745038429383 1
2.238982885257653 1
2.3761083473206925 1
2.3764974378629455 1
2.5151760777837344 1
2.5155260954284198 1
2.5864863755084389 1
2.586805472790064 1
2.6601109619564145 1
2.660389254623388 1
2.7401115739494122 1
2.740328392734769 1
2.7862241880269671 1
2.7863953256429137 1
2.8980836502611371 1
2.8980844966727126 1
2.961567899252707 1
2.9616432686720398 1
3.0047816615144081 1
3.0048915304935826 1
3.0812200947084247 1
3.081372266876071 1
3.154469821839462 1
3.1546534046711279 1
3.2261320785772618 1
3.2263401650932551 1
3.3674381277008285 1
3.3676845536238869 1
3.507124707104325 1
3.5073985121242091 1
3.6456398578158353 1
3.6459302415641242 1
3.783517747498959 1
3.7838162964039861 1
4.0583858452533059 1
4.0586806407426117 1
4.3330423538457987 1
4.3333148587733454 1
4.6078806448253538 1
4.6081182922372639 1
4.8830542291632719 1
4.8832468332220893 1
5.1586621499869114 1
5.1588007211335833 1
5.4347768616905787 1
5.4348532141539927 1
5.5730757027712627 1
5.5731176783493881 1
5.7120890631011667 4

0 2
1 2

9 0 0 0 0 3 1 70 2 68 2 13.546231220103982 4.0804999999999989 1.4574511023414207  13.524606084447107 4.4519649999999977 1.4640814388836474  
13.500820901503175 4.080499999999998 1.472674916260815  13.479997967511983 4.4519649999999977 1.4789681076191554  
13.455014757550792 4.0804999999999989 1.4865918611375868  13.435002630955964 4.4519649999999977 1.4925697665804809  
13.363373642082657 4.0804999999999998 1.5123716985459068  13.344986038680798 4.4519649999999977 1.5177546424497983  
13.317498344987161 4.0804999999999998 1.5242677192530603  13.299925203039676 4.4519649999999977 1.5293705458364388  
13.180264976157234 4.0805000000000007 1.5597939025542877  13.16512892637966 4.4519649999999977 1.5640618947205713  
13.088798113315594 4.0804999999999989 1.5833950701476533  13.07528651755797 4.4519649999999977 1.587107991858431  
12.90584147197743 4.0804999999999989 1.6278139135311587  12.895582313290404 4.4519649999999977 1.6304640699617041  
12.814189260104188 4.0804999999999989 1.6486849409917554  12.805561239947766 4.4519649999999977 1.6508272977282465  
12.631182292616176 4.0804999999999989 1.6887914069918402  12.625813694802382 4.4519649999999977 1.6899490339950756  
12.539592986512817 4.0804999999999989 1.7080857156841986  12.535856617275734 4.4519649999999977 1.708764039283396  
12.356635965685575 4.0804999999999989 1.7438665598831458  12.356163605927351 4.4519649999999977 1.7436355106488688  
12.264973197740126 4.0804999999999989 1.7604242282209452  12.266138030342074 4.4519649999999968 1.7597621198006235  
12.082026902537848 4.0804999999999989 1.7909249379202781  12.086463060998021 4.4519649999999977 1.7894490292910668  
11.990396324440225 4.0804999999999989 1.804938752717441  11.996472612113912 4.4519649999999986 1.803076982056246  
11.807442242423861 4.0804999999999989 1.8284290098352602  11.816799251643918 4.4519649999999986 1.8258753447504312  
11.715734900668052 4.0804999999999998 1.8379798737128943  11.726739610989668 4.4519649999999986 1.8351182491298412  
11.578351376795867 4.0804999999999998 1.847507926278116  11.5918312962228 4.4519649999999977 1.8442702190758604  
11.532431356436977 4.0804999999999989 1.8498992797813809  11.546739773330726 4.4519649999999977 1.84654990814897  
11.440993572616458 4.0804999999999989 1.8527675926276554  11.456954478972632 4.4519649999999977 1.8492298923319335  
11.395062447664614 4.0804999999999989 1.8532593398965171  11.411854905953835 4.4519649999999977 1.8496436118782997  
11.303580503152501 4.0804999999999989 1.8517116936153868  11.322032846485108 4.4519649999999977 1.8479856703954383  
11.257625285109832 4.0804999999999989 1.8496610004191969  11.276913537454297 4.4519649999999977 1.8459002525905479  
11.16589354695763 4.080499999999998 1.8409568299881753  11.186857262742944 4.4519649999999977 1.8372063204352513  
11.119739560676997 4.0804999999999989 1.8342131262012586  11.141551497521712 4.4519649999999977 1.8305073563837051  
11.051577124007634 4.0804999999999989 1.8182607568233173  11.07465131679292 4.4519649999999977 1.814727409542519  
11.028563610639605 4.0804999999999989 1.8118043217929993  11.052065382968969 4.4519649999999977 1.808349869259769  
10.982668726846642 4.0804999999999989 1.7970177942812591  11.007025848195893 4.4519649999999977 1.793758217362079  
10.95950497784235 4.0804999999999998 1.7885344265501986  10.984297297455552 4.4519649999999977 1.7853877948437176  
10.913164203809707 4.0804999999999998 1.7666959090527947  10.938833895028981 4.4519649999999977 1.76385878871843  
10.889891960271195 4.0804999999999989 1.752851614426159  10.91600705860478 4.4519649999999977 1.7502257943273263  
10.856355503726284 4.0804999999999989 1.7280513841790528  10.883123540928361 4.4519649999999977 1.7258225932102282  
10.844651352074665 4.0804999999999989 1.7182758015268327  10.871651877485306 4.4519649999999977 1.7161994277877712  
10.809040471352432 4.080499999999998 1.6774841340326101  10.836741789235456 4.4519649999999977 1.6760635322198181  
10.791175982954293 4.080499999999998 1.6356606623570553  10.819231895260291 4.4519649999999977 1.6350018816086329  
10.805015409347225 4.0804999999999989 1.5797311339633877  10.832875084349848 4.4519649999999977 1.5801043247734305  
10.818660846382432 4.0804999999999989 1.5614105430346572  10.846294189552971 4.4519649999999977 1.5621249351042925  
10.84486916397039 4.0804999999999989 1.5363851314560071  10.872058311416929 4.4519649999999977 1.5375908945786887  
10.85641872500646 4.0804999999999989 1.5278062046839056  10.883412961320911 4.4519649999999977 1.5291871234899486  
10.890043756048941 4.080499999999998 1.5067422597382565  10.916463964852433 4.4519649999999977 1.5085591406384657  
10.913556896965023 4.0804999999999989 1.496205354076269  10.939568271529222 4.4519649999999977 1.4982497315659506  
10.959828999905289 4.0804999999999989 1.4771863133100995  10.98502785889789 4.4519649999999977 1.4796414544369001  
10.982707799842123 4.0804999999999989 1.4685783203169178  11.007504760444849 4.4519649999999977 1.4712235931951563  
11.028443557903557 4.0804999999999989 1.4533245913676942  11.05243557569044 4.4519649999999986 1.456316434907146  
11.051458911378132 4.0804999999999989 1.4465845543788809  11.075044209888599 4.4519649999999986 1.4497332512066952  
11.119874419571191 4.0804999999999989 1.4277320413453969  11.1422475336677 4.4519649999999977 1.4313226752189658  
11.165744559425764 4.0804999999999989 1.4166311806322911  11.187303065069008 4.4519649999999977 1.4204911851854771  
11.257251434334613 4.0804999999999989 1.396938796557851  11.277181366400509 4.4519649999999977 1.401292241298971  
11.30311939010571 4.0804999999999989 1.3882689338383523  11.322231358554316 4.4519649999999977 1.3928489589461082  
11.394621845293743 4.0804999999999989 1.3736752221163842  11.412098154744054 4.4519649999999977 1.3786598362171245  
11.44051963819032 4.080499999999998 1.3676870028826267  11.457173462624336 4.4519649999999977 1.3728500827266075  
11.532012601183167 4.0804999999999998 1.3575759097856404  11.547023868592781 4.4519649999999977 1.3630604836498277  
11.577892533802187 4.0804999999999989 1.3534122658890337  11.592078777868995 4.4519649999999977 1.3590417133653347  
11.715021966189157 4.0804999999999989 1.343464426181048  11.726738526654401 4.4519649999999968 1.3494814926234053  
11.806742253418648 4.0804999999999989 1.3401262678829755  11.816801960079548 4.4519649999999977 1.346341484868979  
11.989827911214682 4.0804999999999998 1.3374518584773254  11.996574085083051 4.4519649999999977 1.3439876410993705  
12.081481657661588 4.0805000000000007 1.3381067894453058  12.086566145133744 4.4519649999999977 1.3447662537704062  
12.264510329172804 4.0804999999999998 1.3420861033455636  12.266272577268651 4.4519649999999977 1.3489428160281656  
12.356153441304567 4.0804999999999989 1.3454173745236753  12.356250274069826 4.4519649999999977 1.3523483565966183  
12.539187914173864 4.0804999999999989 1.3543241142462905  12.535955203310799 4.4519649999999977 1.3613619592310633  
12.630813094814229 4.0804999999999989 1.3599134893092977  12.625912013052449 4.4519649999999977 1.3669840588988966  
12.813865327008623 4.0804999999999989 1.3730136328566631  12.805628327280413 4.4519649999999977 1.3801139426449107  
12.905481289380763 4.0804999999999989 1.3805408306184019  12.89557328262495 4.4519649999999977 1.3876382603750597  
13.088531187939886 4.0804999999999989 1.3975676661395484  13.075281663229806 4.4519649999999977 1.4046226854398332  
13.180100010930497 4.0804999999999989 1.4070834935903249  13.16517755051934 4.4519649999999977 1.4140986289635475  
13.317387941497996 4.0804999999999989 1.4220938450030087  13.299956202370474 4.4519649999999977 1.4290354710640911  
13.363222876655865 4.0804999999999989 1.4272295882779185  13.344953143406176 4.4519649999999977 1.4341448462389459  
13.454821735055685 4.0804999999999989 1.4393743341638867  13.434874725554893 4.4519649999999977 1.4462020052893048  
13.500623408826062 4.0804999999999989 1.4463982923184915  13.479836432305488 4.4519649999999977 1.4531643857649312  
13.546231220103982 4.0804999999999989 1.4547011023414207  13.524606084447107 4.4519649999999977 1.4613812719663846  

0 4
0.14357288516468528 1
0.14362330429642275 1
0.28563367455522359 1
0.28572693705457541 1
0.5688470536486181 1
0.56902065011336234 1
0.85056627669348905 1
0.85081088411014982 1
1.1310375693355303 1
1.1313445150259365 1
1.4100804174373816 1
1.4104386570144964 1
1.6877247115756926 1
1.6881215532160903 1
1.9637339427252214 1
1.9641502113180509 1
2.1012356985516498 1
2.1016520684756488 1
2.2385745038429383 1
2.238982885257653 1
2.3761083473206925 1
2.3764974378629455 1
2.5151760777837344 1
2.5155260954284198 1
2.5864863755084389 1
2.586805472790064 1
2.6601109619564145 1
2.660389254623388 1
2.7401115739494122 1
2.740328392734769 1
2.7862241880269671 1
2.7863953256429137 1
2.8980836502611371 1
2.8980844966727126 1
2.961567899252707 1
2.9616432686720398 1
3.0047816615144081 1
3.0048915304935826 1
3.0812200947084247 1
3.081372266876071 1
3.154469821839462 1
3.1546534046711279 1
3.2261320785772618 1
3.2263401650932551 1
3.3674381277008285 1
3.3676845536238869 1
3.507124707104325 1
3.5073985121242091 1
3.6456398578158353 1
3.6459302415641242 1
3.783517747498959 1
3.7838162964039861 1
4.0583858452533059 1
4.0586806407426117 1
4.3330423538457987 1
4.3333148587733454 1
4.6078806448253538 1
4.6081182922372639 1
4.8830542291632719 1
4.8832468332220893 1
5.1586621499869114 1
5.1588007211335833 1
5.4347768616905787 1
5.4348532141539927 1
5.5730757027712627 1
5.5731176783493881 1
5.7120890631011667 4

0 2
1 2

1 13.535379559676107 4.2669038063388109 1.4587307914903944 -0.99830973053477312 -0.058117825517225753 1.6635449148877937e-05 0.058117825525267452 -0.99830973067290829 2.1175823681357504e-22 1.6607330759439191e-05 9.6681613116894683e-07 0.99999999986163091 
1 13.535458451110447 4.2655488511373107 1.4600639829987025 0.99830975433143199 0.058117419131256919 -4.8754600781803553e-07 -0.05811741913126383 0.99830975433155067 0 4.8672193529015144e-07 2.8334915682135205e-08 0.99999999999988121 
1 12.134985141164213 4.0804999999999989 1.5581712390420337 -8.7337213055160876e-17 -1 -5.0542266194875105e-16 0 5.0542266194875105e-16 -1 1 -8.7337213055160876e-17 -4.4142206709524625e-32 
1 12.138783353931284 4.4519649999999995 1.5609353631522149 1.7452614029094406e-17 1 -5.0603683022306789e-16 0 5.0603683022306789e-16 1 1 -1.7452614029094406e-17 8.8316654823895788e-33 
Triangulations 0

TShapes 24
Ve
1e-07
13.546231220104 4.0805 1.45745110234142
0 0

0101101
*
Ve
1.00682547599523e-07
13.5462312194325 4.0805 1.45470110221917
0 0

0101101
*
Ed
 1e-07 1 1 0
1  1 0 0 5.71208906310117
2  1 2 0 0 5.71208906310117
2  2 1 0 0 5.71208906310117
0

0101000
+24 0 -23 0 *
Ve
1.22873122195669e-07
13.5246060619498 4.451965 1.46138126783729
0 0

0101101
*
Ed
 1e-07 1 1 0
1  2 0 0 0.372153891776343
2  3 3 0 0 0.372153891776343
2  4 1 0 0 0.372153891776343
4 C0 1 0 3 0
0

0101000
+21 0 -23 0 *
Ve
1e-07
13.5246060844471 4.451965 1.46408143888365
0 0

0101101
*
Ed
 1e-07 1 1 0
1  3 0 0 5.60859541695944
2  5 2 0 0 5.60859541695944
2  6 1 0 0 5.60859541695944
0

0101000
+19 0 -21 0 *
Ed
 1e-07 1 1 0
1  4 0 0 1
2  7 1 0 0 1
2  8 4 0 0 1
4 C0 1 0 4 0
0

0101000
+24 0 -19 0 *
Wi

0101100
+22 0 -20 0 -18 0 -17 0 *
Fa
0  1e-07 1 0

0101000
+16 0 *
Ed
 1e-07 1 1 0
1  5 0 0 0.002750000244495
0

0101000
+24 0 -23 0 *
Ed
 1e-07 1 1 0
1  6 0 0 0.372212148347315
2  9 4 0 0 0.372212148347315
2  10 3 0 0 0.372212148347315
4 C0 4 0 3 0
0

0101000
+23 0 -19 0 *
Wi

0101100
+14 0 +13 0 -17 0 *
Fa
0  1e-07 4 0

0101000
+12 0 *
Ed
 1e-07 1 1 0
1  7 0 0 0.00270017517582451
0

0101000
+19 0 -21 0 *
Wi

0101100
+10 0 +20 0 +13 0 *
Fa
0  1e-07 3 0

0101000
+9 0 *
Wi

0101100
+22 0 -14 0 *
Fa
0  1e-07 5 0

0111000
+7 0 *
Wi

0101100
+10 0 -18 0 *
Fa
0  1e-07 6 0

0111000
+5 0 *
Sh

0101100
+15 0 -11 0 +8 0 -6 0 -4 0 *
So

0100000
+3 0 *
Co

1100000
+2 0 *

+1 0 