<!DOCTYPE svg PUBLIC "-//W3C//DTD SVG 1.1//EN" "http://www.w3.org/Graphics/SVG/1.1/DTD/svg11.dtd">
<svg xmlns="http://www.w3.org/2000/svg" xmlns:xlink="http://www.w3.org/1999/xlink" xmlns:jfreesvg="http://www.jfree.org/jfreesvg/svg" width="1152" height="768" text-rendering="auto" shape-rendering="auto">
<defs><clipPath id="_1045408919362892clip-0"><path d="M 0 0 L 1152 0 L 1152 768 L 0 768 L 0 0 Z "/></clipPath>
<clipPath id="_1045408919362892clip-1"><path d="M 391.5 338.5 L 391.5 1490.5 L -376.5 1490.5 L -376.5 338.5 L 391.5 338.5 Z "/></clipPath>
<clipPath id="_1045408919362892clip-2"><path d="M 71 35 L 71 695 L 1140 695 L 1140 35 Z "/></clipPath>
</defs>
<rect x="0" y="0" width="1152" height="768" style="fill: rgb(255,255,255); fill-opacity: 1.0" transform="matrix(1,0,0,1,0,0)" clip-path="url(#_1045408919362892clip-0)"/><g transform="matrix(1,0,0,1,0,0)"><text x="405" y="21.01" style="fill: rgb(0,0,0); fill-opacity: 1.0; font-family: Tahoma; font-size: 20px; font-weight: bold;" clip-path="url(#_1045408919362892clip-0)">Polar_Curve_Clean_Configuration</text></g><rect x="472" y="746" width="208" height="21" style="fill: rgb(255,255,255); fill-opacity: 1.0" transform="matrix(1,0,0,1,0,0)" clip-path="url(#_1045408919362892clip-0)"/><g style="stroke-width: 3.0;stroke: rgb(0,0,0);stroke-opacity: 1.0;stroke-linecap: square;shape-rendering:geometricPrecision;; fill: none" transform="matrix(1,0,0,1,0,0)" clip-path="url(#_1045408919362892clip-0)"><path d="M 475 756.5 L 489 756.5"/></g><g transform="matrix(1,0,0,1,0,0)"><text x="493" y="761.01" style="fill: rgb(64,64,64); fill-opacity: 1.0; font-family: Tahoma; font-size: 12px;" clip-path="url(#_1045408919362892clip-0)"> Polar_Curve_Clean_Configuration </text></g><rect x="71" y="35" width="1069" height="660" style="fill: rgb(255,255,255); fill-opacity: 0.0" transform="matrix(1,0,0,1,0,0)" clip-path="url(#_1045408919362892clip-0)"/><line x1="71" y1="699" x2="1140" y2="699" style="stroke-width: 0.5;stroke: rgb(128,128,128);stroke-opacity: 1.0;stroke-linecap: square;shape-rendering:crispEdges;" transform="matrix(1,0,0,1,0,0)" clip-path="url(#_1045408919362892clip-0)"/><g transform="matrix(1,0,0,1,0,0)"><text x="80.67" y="715.52" style="fill: rgb(64,64,64); fill-opacity: 1.0; font-family: Tahoma; font-size: 12px;" clip-path="url(#_1045408919362892clip-0)">0,0095</text></g><line x1="98.67" y1="701" x2="98.67" y2="699" style="stroke-width: 0.5;stroke: rgb(128,128,128);stroke-opacity: 1.0;stroke-linecap: square;shape-rendering:crispEdges;" transform="matrix(1,0,0,1,0,0)" clip-path="url(#_1045408919362892clip-0)"/><g transform="matrix(1,0,0,1,0,0)"><text x="151.41" y="715.52" style="fill: rgb(64,64,64); fill-opacity: 1.0; font-family: Tahoma; font-size: 12px;" clip-path="url(#_1045408919362892clip-0)">0,0100</text></g><line x1="169.41" y1="701" x2="169.41" y2="699" style="stroke-width: 0.5;stroke: rgb(128,128,128);stroke-opacity: 1.0;stroke-linecap: square;shape-rendering:crispEdges;" transform="matrix(1,0,0,1,0,0)" clip-path="url(#_1045408919362892clip-0)"/><g transform="matrix(1,0,0,1,0,0)"><text x="222.16" y="715.52" style="fill: rgb(64,64,64); fill-opacity: 1.0; font-family: Tahoma; font-size: 12px;" clip-path="url(#_1045408919362892clip-0)">0,0105</text></g><line x1="240.16" y1="701" x2="240.16" y2="699" style="stroke-width: 0.5;stroke: rgb(128,128,128);stroke-opacity: 1.0;stroke-linecap: square;shape-rendering:crispEdges;" transform="matrix(1,0,0,1,0,0)" clip-path="url(#_1045408919362892clip-0)"/><g transform="matrix(1,0,0,1,0,0)"><text x="292.9" y="715.52" style="fill: rgb(64,64,64); fill-opacity: 1.0; font-family: Tahoma; font-size: 12px;" clip-path="url(#_1045408919362892clip-0)">0,0110</text></g><line x1="310.9" y1="701" x2="310.9" y2="699" style="stroke-width: 0.5;stroke: rgb(128,128,128);stroke-opacity: 1.0;stroke-linecap: square;shape-rendering:crispEdges;" transform="matrix(1,0,0,1,0,0)" clip-path="url(#_1045408919362892clip-0)"/><g transform="matrix(1,0,0,1,0,0)"><text x="363.65" y="715.52" style="fill: rgb(64,64,64); fill-opacity: 1.0; font-family: Tahoma; font-size: 12px;" clip-path="url(#_1045408919362892clip-0)">0,0115</text></g><line x1="381.65" y1="701" x2="381.65" y2="699" style="stroke-width: 0.5;stroke: rgb(128,128,128);stroke-opacity: 1.0;stroke-linecap: square;shape-rendering:crispEdges;" transform="matrix(1,0,0,1,0,0)" clip-path="url(#_1045408919362892clip-0)"/><g transform="matrix(1,0,0,1,0,0)"><text x="434.4" y="715.52" style="fill: rgb(64,64,64); fill-opacity: 1.0; font-family: Tahoma; font-size: 12px;" clip-path="url(#_1045408919362892clip-0)">0,0120</text></g><line x1="452.4" y1="701" x2="452.4" y2="699" style="stroke-width: 0.5;stroke: rgb(128,128,128);stroke-opacity: 1.0;stroke-linecap: square;shape-rendering:crispEdges;" transform="matrix(1,0,0,1,0,0)" clip-path="url(#_1045408919362892clip-0)"/><g transform="matrix(1,0,0,1,0,0)"><text x="505.14" y="715.52" style="fill: rgb(64,64,64); fill-opacity: 1.0; font-family: Tahoma; font-size: 12px;" clip-path="url(#_1045408919362892clip-0)">0,0125</text></g><line x1="523.14" y1="701" x2="523.14" y2="699" style="stroke-width: 0.5;stroke: rgb(128,128,128);stroke-opacity: 1.0;stroke-linecap: square;shape-rendering:crispEdges;" transform="matrix(1,0,0,1,0,0)" clip-path="url(#_1045408919362892clip-0)"/><g transform="matrix(1,0,0,1,0,0)"><text x="575.89" y="715.52" style="fill: rgb(64,64,64); fill-opacity: 1.0; font-family: Tahoma; font-size: 12px;" clip-path="url(#_1045408919362892clip-0)">0,0130</text></g><line x1="593.89" y1="701" x2="593.89" y2="699" style="stroke-width: 0.5;stroke: rgb(128,128,128);stroke-opacity: 1.0;stroke-linecap: square;shape-rendering:crispEdges;" transform="matrix(1,0,0,1,0,0)" clip-path="url(#_1045408919362892clip-0)"/><g transform="matrix(1,0,0,1,0,0)"><text x="646.64" y="715.52" style="fill: rgb(64,64,64); fill-opacity: 1.0; font-family: Tahoma; font-size: 12px;" clip-path="url(#_1045408919362892clip-0)">0,0135</text></g><line x1="664.64" y1="701" x2="664.64" y2="699" style="stroke-width: 0.5;stroke: rgb(128,128,128);stroke-opacity: 1.0;stroke-linecap: square;shape-rendering:crispEdges;" transform="matrix(1,0,0,1,0,0)" clip-path="url(#_1045408919362892clip-0)"/><g transform="matrix(1,0,0,1,0,0)"><text x="717.38" y="715.52" style="fill: rgb(64,64,64); fill-opacity: 1.0; font-family: Tahoma; font-size: 12px;" clip-path="url(#_1045408919362892clip-0)">0,0140</text></g><line x1="735.38" y1="701" x2="735.38" y2="699" style="stroke-width: 0.5;stroke: rgb(128,128,128);stroke-opacity: 1.0;stroke-linecap: square;shape-rendering:crispEdges;" transform="matrix(1,0,0,1,0,0)" clip-path="url(#_1045408919362892clip-0)"/><g transform="matrix(1,0,0,1,0,0)"><text x="788.13" y="715.52" style="fill: rgb(64,64,64); fill-opacity: 1.0; font-family: Tahoma; font-size: 12px;" clip-path="url(#_1045408919362892clip-0)">0,0145</text></g><line x1="806.13" y1="701" x2="806.13" y2="699" style="stroke-width: 0.5;stroke: rgb(128,128,128);stroke-opacity: 1.0;stroke-linecap: square;shape-rendering:crispEdges;" transform="matrix(1,0,0,1,0,0)" clip-path="url(#_1045408919362892clip-0)"/><g transform="matrix(1,0,0,1,0,0)"><text x="858.88" y="715.52" style="fill: rgb(64,64,64); fill-opacity: 1.0; font-family: Tahoma; font-size: 12px;" clip-path="url(#_1045408919362892clip-0)">0,0150</text></g><line x1="876.88" y1="701" x2="876.88" y2="699" style="stroke-width: 0.5;stroke: rgb(128,128,128);stroke-opacity: 1.0;stroke-linecap: square;shape-rendering:crispEdges;" transform="matrix(1,0,0,1,0,0)" clip-path="url(#_1045408919362892clip-0)"/><g transform="matrix(1,0,0,1,0,0)"><text x="929.62" y="715.52" style="fill: rgb(64,64,64); fill-opacity: 1.0; font-family: Tahoma; font-size: 12px;" clip-path="url(#_1045408919362892clip-0)">0,0155</text></g><line x1="947.62" y1="701" x2="947.62" y2="699" style="stroke-width: 0.5;stroke: rgb(128,128,128);stroke-opacity: 1.0;stroke-linecap: square;shape-rendering:crispEdges;" transform="matrix(1,0,0,1,0,0)" clip-path="url(#_1045408919362892clip-0)"/><g transform="matrix(1,0,0,1,0,0)"><text x="1000.37" y="715.52" style="fill: rgb(64,64,64); fill-opacity: 1.0; font-family: Tahoma; font-size: 12px;" clip-path="url(#_1045408919362892clip-0)">0,0160</text></g><line x1="1018.37" y1="701" x2="1018.37" y2="699" style="stroke-width: 0.5;stroke: rgb(128,128,128);stroke-opacity: 1.0;stroke-linecap: square;shape-rendering:crispEdges;" transform="matrix(1,0,0,1,0,0)" clip-path="url(#_1045408919362892clip-0)"/><g transform="matrix(1,0,0,1,0,0)"><text x="1071.11" y="715.52" style="fill: rgb(64,64,64); fill-opacity: 1.0; font-family: Tahoma; font-size: 12px;" clip-path="url(#_1045408919362892clip-0)">0,0165</text></g><line x1="1089.11" y1="701" x2="1089.11" y2="699" style="stroke-width: 0.5;stroke: rgb(128,128,128);stroke-opacity: 1.0;stroke-linecap: square;shape-rendering:crispEdges;" transform="matrix(1,0,0,1,0,0)" clip-path="url(#_1045408919362892clip-0)"/><g transform="matrix(1,0,0,1,0,0)"><text x="593.5" y="734.59" style="fill: rgb(64,64,64); fill-opacity: 1.0; font-family: Tahoma; font-size: 14px; font-weight: bold;" clip-path="url(#_1045408919362892clip-0)">CD </text></g><line x1="67" y1="35" x2="67" y2="695" style="stroke-width: 0.5;stroke: rgb(128,128,128);stroke-opacity: 1.0;stroke-linecap: square;shape-rendering:crispEdges;" transform="matrix(1,0,0,1,0,0)" clip-path="url(#_1045408919362892clip-0)"/><g transform="matrix(1,0,0,1,0,0)"><text x="40" y="698.71" style="fill: rgb(64,64,64); fill-opacity: 1.0; font-family: Tahoma; font-size: 12px;" clip-path="url(#_1045408919362892clip-0)">-0,6</text></g><line x1="65" y1="693.69" x2="67" y2="693.69" style="stroke-width: 0.5;stroke: rgb(128,128,128);stroke-opacity: 1.0;stroke-linecap: square;shape-rendering:crispEdges;" transform="matrix(1,0,0,1,0,0)" clip-path="url(#_1045408919362892clip-0)"/><g transform="matrix(1,0,0,1,0,0)"><text x="40" y="663.09" style="fill: rgb(64,64,64); fill-opacity: 1.0; font-family: Tahoma; font-size: 12px;" clip-path="url(#_1045408919362892clip-0)">-0,5</text></g><line x1="65" y1="658.07" x2="67" y2="658.07" style="stroke-width: 0.5;stroke: rgb(128,128,128);stroke-opacity: 1.0;stroke-linecap: square;shape-rendering:crispEdges;" transform="matrix(1,0,0,1,0,0)" clip-path="url(#_1045408919362892clip-0)"/><g transform="matrix(1,0,0,1,0,0)"><text x="40" y="627.48" style="fill: rgb(64,64,64); fill-opacity: 1.0; font-family: Tahoma; font-size: 12px;" clip-path="url(#_1045408919362892clip-0)">-0,4</text></g><line x1="65" y1="622.45" x2="67" y2="622.45" style="stroke-width: 0.5;stroke: rgb(128,128,128);stroke-opacity: 1.0;stroke-linecap: square;shape-rendering:crispEdges;" transform="matrix(1,0,0,1,0,0)" clip-path="url(#_1045408919362892clip-0)"/><g transform="matrix(1,0,0,1,0,0)"><text x="40" y="591.86" style="fill: rgb(64,64,64); fill-opacity: 1.0; font-family: Tahoma; font-size: 12px;" clip-path="url(#_1045408919362892clip-0)">-0,3</text></g><line x1="65" y1="586.83" x2="67" y2="586.83" style="stroke-width: 0.5;stroke: rgb(128,128,128);stroke-opacity: 1.0;stroke-linecap: square;shape-rendering:crispEdges;" transform="matrix(1,0,0,1,0,0)" clip-path="url(#_1045408919362892clip-0)"/><g transform="matrix(1,0,0,1,0,0)"><text x="40" y="556.24" style="fill: rgb(64,64,64); fill-opacity: 1.0; font-family: Tahoma; font-size: 12px;" clip-path="url(#_1045408919362892clip-0)">-0,2</text></g><line x1="65" y1="551.22" x2="67" y2="551.22" style="stroke-width: 0.5;stroke: rgb(128,128,128);stroke-opacity: 1.0;stroke-linecap: square;shape-rendering:crispEdges;" transform="matrix(1,0,0,1,0,0)" clip-path="url(#_1045408919362892clip-0)"/><g transform="matrix(1,0,0,1,0,0)"><text x="40" y="520.62" style="fill: rgb(64,64,64); fill-opacity: 1.0; font-family: Tahoma; font-size: 12px;" clip-path="url(#_1045408919362892clip-0)">-0,1</text></g><line x1="65" y1="515.6" x2="67" y2="515.6" style="stroke-width: 0.5;stroke: rgb(128,128,128);stroke-opacity: 1.0;stroke-linecap: square;shape-rendering:crispEdges;" transform="matrix(1,0,0,1,0,0)" clip-path="url(#_1045408919362892clip-0)"/><g transform="matrix(1,0,0,1,0,0)"><text x="44" y="485" style="fill: rgb(64,64,64); fill-opacity: 1.0; font-family: Tahoma; font-size: 12px;" clip-path="url(#_1045408919362892clip-0)">0,0</text></g><line x1="65" y1="479.98" x2="67" y2="479.98" style="stroke-width: 0.5;stroke: rgb(128,128,128);stroke-opacity: 1.0;stroke-linecap: square;shape-rendering:crispEdges;" transform="matrix(1,0,0,1,0,0)" clip-path="url(#_1045408919362892clip-0)"/><g transform="matrix(1,0,0,1,0,0)"><text x="44" y="449.38" style="fill: rgb(64,64,64); fill-opacity: 1.0; font-family: Tahoma; font-size: 12px;" clip-path="url(#_1045408919362892clip-0)">0,1</text></g><line x1="65" y1="444.36" x2="67" y2="444.36" style="stroke-width: 0.5;stroke: rgb(128,128,128);stroke-opacity: 1.0;stroke-linecap: square;shape-rendering:crispEdges;" transform="matrix(1,0,0,1,0,0)" clip-path="url(#_1045408919362892clip-0)"/><g transform="matrix(1,0,0,1,0,0)"><text x="44" y="413.76" style="fill: rgb(64,64,64); fill-opacity: 1.0; font-family: Tahoma; font-size: 12px;" clip-path="url(#_1045408919362892clip-0)">0,2</text></g><line x1="65" y1="408.74" x2="67" y2="408.74" style="stroke-width: 0.5;stroke: rgb(128,128,128);stroke-opacity: 1.0;stroke-linecap: square;shape-rendering:crispEdges;" transform="matrix(1,0,0,1,0,0)" clip-path="url(#_1045408919362892clip-0)"/><g transform="matrix(1,0,0,1,0,0)"><text x="44" y="378.14" style="fill: rgb(64,64,64); fill-opacity: 1.0; font-family: Tahoma; font-size: 12px;" clip-path="url(#_1045408919362892clip-0)">0,3</text></g><line x1="65" y1="373.12" x2="67" y2="373.12" style="stroke-width: 0.5;stroke: rgb(128,128,128);stroke-opacity: 1.0;stroke-linecap: square;shape-rendering:crispEdges;" transform="matrix(1,0,0,1,0,0)" clip-path="url(#_1045408919362892clip-0)"/><g transform="matrix(1,0,0,1,0,0)"><text x="44" y="342.52" style="fill: rgb(64,64,64); fill-opacity: 1.0; font-family: Tahoma; font-size: 12px;" clip-path="url(#_1045408919362892clip-0)">0,4</text></g><line x1="65" y1="337.5" x2="67" y2="337.5" style="stroke-width: 0.5;stroke: rgb(128,128,128);stroke-opacity: 1.0;stroke-linecap: square;shape-rendering:crispEdges;" transform="matrix(1,0,0,1,0,0)" clip-path="url(#_1045408919362892clip-0)"/><g transform="matrix(1,0,0,1,0,0)"><text x="44" y="306.9" style="fill: rgb(64,64,64); fill-opacity: 1.0; font-family: Tahoma; font-size: 12px;" clip-path="url(#_1045408919362892clip-0)">0,5</text></g><line x1="65" y1="301.88" x2="67" y2="301.88" style="stroke-width: 0.5;stroke: rgb(128,128,128);stroke-opacity: 1.0;stroke-linecap: square;shape-rendering:crispEdges;" transform="matrix(1,0,0,1,0,0)" clip-path="url(#_1045408919362892clip-0)"/><g transform="matrix(1,0,0,1,0,0)"><text x="44" y="271.28" style="fill: rgb(64,64,64); fill-opacity: 1.0; font-family: Tahoma; font-size: 12px;" clip-path="url(#_1045408919362892clip-0)">0,6</text></g><line x1="65" y1="266.26" x2="67" y2="266.26" style="stroke-width: 0.5;stroke: rgb(128,128,128);stroke-opacity: 1.0;stroke-linecap: square;shape-rendering:crispEdges;" transform="matrix(1,0,0,1,0,0)" clip-path="url(#_1045408919362892clip-0)"/><g transform="matrix(1,0,0,1,0,0)"><text x="44" y="235.66" style="fill: rgb(64,64,64); fill-opacity: 1.0; font-family: Tahoma; font-size: 12px;" clip-path="url(#_1045408919362892clip-0)">0,7</text></g><line x1="65" y1="230.64" x2="67" y2="230.64" style="stroke-width: 0.5;stroke: rgb(128,128,128);stroke-opacity: 1.0;stroke-linecap: square;shape-rendering:crispEdges;" transform="matrix(1,0,0,1,0,0)" clip-path="url(#_1045408919362892clip-0)"/><g transform="matrix(1,0,0,1,0,0)"><text x="44" y="200.04" style="fill: rgb(64,64,64); fill-opacity: 1.0; font-family: Tahoma; font-size: 12px;" clip-path="url(#_1045408919362892clip-0)">0,8</text></g><line x1="65" y1="195.02" x2="67" y2="195.02" style="stroke-width: 0.5;stroke: rgb(128,128,128);stroke-opacity: 1.0;stroke-linecap: square;shape-rendering:crispEdges;" transform="matrix(1,0,0,1,0,0)" clip-path="url(#_1045408919362892clip-0)"/><g transform="matrix(1,0,0,1,0,0)"><text x="44" y="164.42" style="fill: rgb(64,64,64); fill-opacity: 1.0; font-family: Tahoma; font-size: 12px;" clip-path="url(#_1045408919362892clip-0)">0,9</text></g><line x1="65" y1="159.4" x2="67" y2="159.4" style="stroke-width: 0.5;stroke: rgb(128,128,128);stroke-opacity: 1.0;stroke-linecap: square;shape-rendering:crispEdges;" transform="matrix(1,0,0,1,0,0)" clip-path="url(#_1045408919362892clip-0)"/><g transform="matrix(1,0,0,1,0,0)"><text x="44" y="128.8" style="fill: rgb(64,64,64); fill-opacity: 1.0; font-family: Tahoma; font-size: 12px;" clip-path="url(#_1045408919362892clip-0)">1,0</text></g><line x1="65" y1="123.78" x2="67" y2="123.78" style="stroke-width: 0.5;stroke: rgb(128,128,128);stroke-opacity: 1.0;stroke-linecap: square;shape-rendering:crispEdges;" transform="matrix(1,0,0,1,0,0)" clip-path="url(#_1045408919362892clip-0)"/><g transform="matrix(1,0,0,1,0,0)"><text x="44" y="93.18" style="fill: rgb(64,64,64); fill-opacity: 1.0; font-family: Tahoma; font-size: 12px;" clip-path="url(#_1045408919362892clip-0)">1,1</text></g><line x1="65" y1="88.16" x2="67" y2="88.16" style="stroke-width: 0.5;stroke: rgb(128,128,128);stroke-opacity: 1.0;stroke-linecap: square;shape-rendering:crispEdges;" transform="matrix(1,0,0,1,0,0)" clip-path="url(#_1045408919362892clip-0)"/><g transform="matrix(1,0,0,1,0,0)"><text x="44" y="57.56" style="fill: rgb(64,64,64); fill-opacity: 1.0; font-family: Tahoma; font-size: 12px;" clip-path="url(#_1045408919362892clip-0)">1,2</text></g><line x1="65" y1="52.54" x2="67" y2="52.54" style="stroke-width: 0.5;stroke: rgb(128,128,128);stroke-opacity: 1.0;stroke-linecap: square;shape-rendering:crispEdges;" transform="matrix(1,0,0,1,0,0)" clip-path="url(#_1045408919362892clip-0)"/><g style="fill: rgb(64,64,64); fill-opacity: 1.0; stroke: none" transform="matrix(0,-1,1,0,-338.5,391.5)" clip-path="url(#_1045408919362892clip-1)"><path d="M 21.44 370.81 Q 19.16 370.81 17.8 369.42 Q 16.45 368.03 16.45 365.53 Q 16.45 363.11 17.8 361.67 Q 19.16 360.23 21.45 360.23 Q 22.06 360.23 22.55 360.3 Q 23.03 360.37 23.47 360.48 Q 23.83 360.59 24.23 360.77 Q 24.64 360.95 24.89 361.08 L 24.89 363.5 L 24.64 363.5 Q 24.45 363.34 24.17 363.12 Q 23.89 362.89 23.53 362.67 Q 23.17 362.45 22.75 362.3 Q 22.33 362.14 21.86 362.14 Q 21.31 362.14 20.84 362.31 Q 20.38 362.48 19.97 362.92 Q 19.58 363.31 19.34 363.98 Q 19.09 364.64 19.09 365.53 Q 19.09 366.48 19.35 367.13 Q 19.61 367.78 20.02 368.17 Q 20.41 368.56 20.9 368.73 Q 21.39 368.91 21.88 368.91 Q 22.38 368.91 22.84 368.73 Q 23.3 368.56 23.61 368.36 Q 23.95 368.14 24.21 367.92 Q 24.47 367.7 24.66 367.55 L 24.89 367.55 L 24.89 369.94 Q 24.61 370.06 24.24 370.23 Q 23.88 370.39 23.48 370.51 Q 23 370.66 22.59 370.73 Q 22.17 370.81 21.44 370.81 Z  M 33.19 370.61 L 26.39 370.61 L 26.39 360.44 L 28.95 360.44 L 28.95 368.67 L 33.19 368.67 L 33.19 370.61 Z "/></g><line x1="98.67" y1="35" x2="98.67" y2="695" style="stroke-width: 0.5;stroke: rgb(192,192,192);stroke-opacity: 1.0;stroke-linejoin: bevel;stroke-dasharray: 2.0, 2.0;shape-rendering:crispEdges;" transform="matrix(1,0,0,1,0,0)" clip-path="url(#_1045408919362892clip-2)"/><line x1="169.41" y1="35" x2="169.41" y2="695" style="stroke-width: 0.5;stroke: rgb(192,192,192);stroke-opacity: 1.0;stroke-linejoin: bevel;stroke-dasharray: 2.0, 2.0;shape-rendering:crispEdges;" transform="matrix(1,0,0,1,0,0)" clip-path="url(#_1045408919362892clip-2)"/><line x1="240.16" y1="35" x2="240.16" y2="695" style="stroke-width: 0.5;stroke: rgb(192,192,192);stroke-opacity: 1.0;stroke-linejoin: bevel;stroke-dasharray: 2.0, 2.0;shape-rendering:crispEdges;" transform="matrix(1,0,0,1,0,0)" clip-path="url(#_1045408919362892clip-2)"/><line x1="310.9" y1="35" x2="310.9" y2="695" style="stroke-width: 0.5;stroke: rgb(192,192,192);stroke-opacity: 1.0;stroke-linejoin: bevel;stroke-dasharray: 2.0, 2.0;shape-rendering:crispEdges;" transform="matrix(1,0,0,1,0,0)" clip-path="url(#_1045408919362892clip-2)"/><line x1="381.65" y1="35" x2="381.65" y2="695" style="stroke-width: 0.5;stroke: rgb(192,192,192);stroke-opacity: 1.0;stroke-linejoin: bevel;stroke-dasharray: 2.0, 2.0;shape-rendering:crispEdges;" transform="matrix(1,0,0,1,0,0)" clip-path="url(#_1045408919362892clip-2)"/><line x1="452.4" y1="35" x2="452.4" y2="695" style="stroke-width: 0.5;stroke: rgb(192,192,192);stroke-opacity: 1.0;stroke-linejoin: bevel;stroke-dasharray: 2.0, 2.0;shape-rendering:crispEdges;" transform="matrix(1,0,0,1,0,0)" clip-path="url(#_1045408919362892clip-2)"/><line x1="523.14" y1="35" x2="523.14" y2="695" style="stroke-width: 0.5;stroke: rgb(192,192,192);stroke-opacity: 1.0;stroke-linejoin: bevel;stroke-dasharray: 2.0, 2.0;shape-rendering:crispEdges;" transform="matrix(1,0,0,1,0,0)" clip-path="url(#_1045408919362892clip-2)"/><line x1="593.89" y1="35" x2="593.89" y2="695" style="stroke-width: 0.5;stroke: rgb(192,192,192);stroke-opacity: 1.0;stroke-linejoin: bevel;stroke-dasharray: 2.0, 2.0;shape-rendering:crispEdges;" transform="matrix(1,0,0,1,0,0)" clip-path="url(#_1045408919362892clip-2)"/><line x1="664.64" y1="35" x2="664.64" y2="695" style="stroke-width: 0.5;stroke: rgb(192,192,192);stroke-opacity: 1.0;stroke-linejoin: bevel;stroke-dasharray: 2.0, 2.0;shape-rendering:crispEdges;" transform="matrix(1,0,0,1,0,0)" clip-path="url(#_1045408919362892clip-2)"/><line x1="735.38" y1="35" x2="735.38" y2="695" style="stroke-width: 0.5;stroke: rgb(192,192,192);stroke-opacity: 1.0;stroke-linejoin: bevel;stroke-dasharray: 2.0, 2.0;shape-rendering:crispEdges;" transform="matrix(1,0,0,1,0,0)" clip-path="url(#_1045408919362892clip-2)"/><line x1="806.13" y1="35" x2="806.13" y2="695" style="stroke-width: 0.5;stroke: rgb(192,192,192);stroke-opacity: 1.0;stroke-linejoin: bevel;stroke-dasharray: 2.0, 2.0;shape-rendering:crispEdges;" transform="matrix(1,0,0,1,0,0)" clip-path="url(#_1045408919362892clip-2)"/><line x1="876.88" y1="35" x2="876.88" y2="695" style="stroke-width: 0.5;stroke: rgb(192,192,192);stroke-opacity: 1.0;stroke-linejoin: bevel;stroke-dasharray: 2.0, 2.0;shape-rendering:crispEdges;" transform="matrix(1,0,0,1,0,0)" clip-path="url(#_1045408919362892clip-2)"/><line x1="947.62" y1="35" x2="947.62" y2="695" style="stroke-width: 0.5;stroke: rgb(192,192,192);stroke-opacity: 1.0;stroke-linejoin: bevel;stroke-dasharray: 2.0, 2.0;shape-rendering:crispEdges;" transform="matrix(1,0,0,1,0,0)" clip-path="url(#_1045408919362892clip-2)"/><line x1="1018.37" y1="35" x2="1018.37" y2="695" style="stroke-width: 0.5;stroke: rgb(192,192,192);stroke-opacity: 1.0;stroke-linejoin: bevel;stroke-dasharray: 2.0, 2.0;shape-rendering:crispEdges;" transform="matrix(1,0,0,1,0,0)" clip-path="url(#_1045408919362892clip-2)"/><line x1="1089.11" y1="35" x2="1089.11" y2="695" style="stroke-width: 0.5;stroke: rgb(192,192,192);stroke-opacity: 1.0;stroke-linejoin: bevel;stroke-dasharray: 2.0, 2.0;shape-rendering:crispEdges;" transform="matrix(1,0,0,1,0,0)" clip-path="url(#_1045408919362892clip-2)"/><line x1="71" y1="693.69" x2="1140" y2="693.69" style="stroke-width: 0.5;stroke: rgb(192,192,192);stroke-opacity: 1.0;stroke-linejoin: bevel;stroke-dasharray: 2.0, 2.0;shape-rendering:crispEdges;" transform="matrix(1,0,0,1,0,0)" clip-path="url(#_1045408919362892clip-2)"/><line x1="71" y1="658.07" x2="1140" y2="658.07" style="stroke-width: 0.5;stroke: rgb(192,192,192);stroke-opacity: 1.0;stroke-linejoin: bevel;stroke-dasharray: 2.0, 2.0;shape-rendering:crispEdges;" transform="matrix(1,0,0,1,0,0)" clip-path="url(#_1045408919362892clip-2)"/><line x1="71" y1="622.45" x2="1140" y2="622.45" style="stroke-width: 0.5;stroke: rgb(192,192,192);stroke-opacity: 1.0;stroke-linejoin: bevel;stroke-dasharray: 2.0, 2.0;shape-rendering:crispEdges;" transform="matrix(1,0,0,1,0,0)" clip-path="url(#_1045408919362892clip-2)"/><line x1="71" y1="586.83" x2="1140" y2="586.83" style="stroke-width: 0.5;stroke: rgb(192,192,192);stroke-opacity: 1.0;stroke-linejoin: bevel;stroke-dasharray: 2.0, 2.0;shape-rendering:crispEdges;" transform="matrix(1,0,0,1,0,0)" clip-path="url(#_1045408919362892clip-2)"/><line x1="71" y1="551.22" x2="1140" y2="551.22" style="stroke-width: 0.5;stroke: rgb(192,192,192);stroke-opacity: 1.0;stroke-linejoin: bevel;stroke-dasharray: 2.0, 2.0;shape-rendering:crispEdges;" transform="matrix(1,0,0,1,0,0)" clip-path="url(#_1045408919362892clip-2)"/><line x1="71" y1="515.6" x2="1140" y2="515.6" style="stroke-width: 0.5;stroke: rgb(192,192,192);stroke-opacity: 1.0;stroke-linejoin: bevel;stroke-dasharray: 2.0, 2.0;shape-rendering:crispEdges;" transform="matrix(1,0,0,1,0,0)" clip-path="url(#_1045408919362892clip-2)"/><line x1="71" y1="479.98" x2="1140" y2="479.98" style="stroke-width: 0.5;stroke: rgb(192,192,192);stroke-opacity: 1.0;stroke-linejoin: bevel;stroke-dasharray: 2.0, 2.0;shape-rendering:crispEdges;" transform="matrix(1,0,0,1,0,0)" clip-path="url(#_1045408919362892clip-2)"/><line x1="71" y1="444.36" x2="1140" y2="444.36" style="stroke-width: 0.5;stroke: rgb(192,192,192);stroke-opacity: 1.0;stroke-linejoin: bevel;stroke-dasharray: 2.0, 2.0;shape-rendering:crispEdges;" transform="matrix(1,0,0,1,0,0)" clip-path="url(#_1045408919362892clip-2)"/><line x1="71" y1="408.74" x2="1140" y2="408.74" style="stroke-width: 0.5;stroke: rgb(192,192,192);stroke-opacity: 1.0;stroke-linejoin: bevel;stroke-dasharray: 2.0, 2.0;shape-rendering:crispEdges;" transform="matrix(1,0,0,1,0,0)" clip-path="url(#_1045408919362892clip-2)"/><line x1="71" y1="373.12" x2="1140" y2="373.12" style="stroke-width: 0.5;stroke: rgb(192,192,192);stroke-opacity: 1.0;stroke-linejoin: bevel;stroke-dasharray: 2.0, 2.0;shape-rendering:crispEdges;" transform="matrix(1,0,0,1,0,0)" clip-path="url(#_1045408919362892clip-2)"/><line x1="71" y1="337.5" x2="1140" y2="337.5" style="stroke-width: 0.5;stroke: rgb(192,192,192);stroke-opacity: 1.0;stroke-linejoin: bevel;stroke-dasharray: 2.0, 2.0;shape-rendering:crispEdges;" transform="matrix(1,0,0,1,0,0)" clip-path="url(#_1045408919362892clip-2)"/><line x1="71" y1="301.88" x2="1140" y2="301.88" style="stroke-width: 0.5;stroke: rgb(192,192,192);stroke-opacity: 1.0;stroke-linejoin: bevel;stroke-dasharray: 2.0, 2.0;shape-rendering:crispEdges;" transform="matrix(1,0,0,1,0,0)" clip-path="url(#_1045408919362892clip-2)"/><line x1="71" y1="266.26" x2="1140" y2="266.26" style="stroke-width: 0.5;stroke: rgb(192,192,192);stroke-opacity: 1.0;stroke-linejoin: bevel;stroke-dasharray: 2.0, 2.0;shape-rendering:crispEdges;" transform="matrix(1,0,0,1,0,0)" clip-path="url(#_1045408919362892clip-2)"/><line x1="71" y1="230.64" x2="1140" y2="230.64" style="stroke-width: 0.5;stroke: rgb(192,192,192);stroke-opacity: 1.0;stroke-linejoin: bevel;stroke-dasharray: 2.0, 2.0;shape-rendering:crispEdges;" transform="matrix(1,0,0,1,0,0)" clip-path="url(#_1045408919362892clip-2)"/><line x1="71" y1="195.02" x2="1140" y2="195.02" style="stroke-width: 0.5;stroke: rgb(192,192,192);stroke-opacity: 1.0;stroke-linejoin: bevel;stroke-dasharray: 2.0, 2.0;shape-rendering:crispEdges;" transform="matrix(1,0,0,1,0,0)" clip-path="url(#_1045408919362892clip-2)"/><line x1="71" y1="159.4" x2="1140" y2="159.4" style="stroke-width: 0.5;stroke: rgb(192,192,192);stroke-opacity: 1.0;stroke-linejoin: bevel;stroke-dasharray: 2.0, 2.0;shape-rendering:crispEdges;" transform="matrix(1,0,0,1,0,0)" clip-path="url(#_1045408919362892clip-2)"/><line x1="71" y1="123.78" x2="1140" y2="123.78" style="stroke-width: 0.5;stroke: rgb(192,192,192);stroke-opacity: 1.0;stroke-linejoin: bevel;stroke-dasharray: 2.0, 2.0;shape-rendering:crispEdges;" transform="matrix(1,0,0,1,0,0)" clip-path="url(#_1045408919362892clip-2)"/><line x1="71" y1="88.16" x2="1140" y2="88.16" style="stroke-width: 0.5;stroke: rgb(192,192,192);stroke-opacity: 1.0;stroke-linejoin: bevel;stroke-dasharray: 2.0, 2.0;shape-rendering:crispEdges;" transform="matrix(1,0,0,1,0,0)" clip-path="url(#_1045408919362892clip-2)"/><line x1="71" y1="52.54" x2="1140" y2="52.54" style="stroke-width: 0.5;stroke: rgb(192,192,192);stroke-opacity: 1.0;stroke-linejoin: bevel;stroke-dasharray: 2.0, 2.0;shape-rendering:crispEdges;" transform="matrix(1,0,0,1,0,0)" clip-path="url(#_1045408919362892clip-2)"/><line x1="407.84" y1="654.55" x2="386.1" y2="637.89" style="stroke-width: 3.0;stroke: rgb(0,0,0);stroke-opacity: 1.0;stroke-linecap: square;shape-rendering:geometricPrecision;" transform="matrix(1,0,0,1,0,0)" clip-path="url(#_1045408919362892clip-2)"/><line x1="386.1" y1="637.89" x2="366.83" y2="621.23" style="stroke-width: 3.0;stroke: rgb(0,0,0);stroke-opacity: 1.0;stroke-linecap: square;shape-rendering:geometricPrecision;" transform="matrix(1,0,0,1,0,0)" clip-path="url(#_1045408919362892clip-2)"/><line x1="366.83" y1="621.23" x2="349.07" y2="604.57" style="stroke-width: 3.0;stroke: rgb(0,0,0);stroke-opacity: 1.0;stroke-linecap: square;shape-rendering:geometricPrecision;" transform="matrix(1,0,0,1,0,0)" clip-path="url(#_1045408919362892clip-2)"/><line x1="349.07" y1="604.57" x2="333.94" y2="587.92" style="stroke-width: 3.0;stroke: rgb(0,0,0);stroke-opacity: 1.0;stroke-linecap: square;shape-rendering:geometricPrecision;" transform="matrix(1,0,0,1,0,0)" clip-path="url(#_1045408919362892clip-2)"/><line x1="333.94" y1="587.92" x2="319.93" y2="571.26" style="stroke-width: 3.0;stroke: rgb(0,0,0);stroke-opacity: 1.0;stroke-linecap: square;shape-rendering:geometricPrecision;" transform="matrix(1,0,0,1,0,0)" clip-path="url(#_1045408919362892clip-2)"/><line x1="319.93" y1="571.26" x2="308.84" y2="554.6" style="stroke-width: 3.0;stroke: rgb(0,0,0);stroke-opacity: 1.0;stroke-linecap: square;shape-rendering:geometricPrecision;" transform="matrix(1,0,0,1,0,0)" clip-path="url(#_1045408919362892clip-2)"/><line x1="308.84" y1="554.6" x2="299.33" y2="537.94" style="stroke-width: 3.0;stroke: rgb(0,0,0);stroke-opacity: 1.0;stroke-linecap: square;shape-rendering:geometricPrecision;" transform="matrix(1,0,0,1,0,0)" clip-path="url(#_1045408919362892clip-2)"/><line x1="299.33" y1="537.94" x2="293.81" y2="521.45" style="stroke-width: 3.0;stroke: rgb(0,0,0);stroke-opacity: 1.0;stroke-linecap: square;shape-rendering:geometricPrecision;" transform="matrix(1,0,0,1,0,0)" clip-path="url(#_1045408919362892clip-2)"/><line x1="293.81" y1="521.45" x2="289.71" y2="504.63" style="stroke-width: 3.0;stroke: rgb(0,0,0);stroke-opacity: 1.0;stroke-linecap: square;shape-rendering:geometricPrecision;" transform="matrix(1,0,0,1,0,0)" clip-path="url(#_1045408919362892clip-2)"/><line x1="289.71" y1="504.63" x2="287.86" y2="487.97" style="stroke-width: 3.0;stroke: rgb(0,0,0);stroke-opacity: 1.0;stroke-linecap: square;shape-rendering:geometricPrecision;" transform="matrix(1,0,0,1,0,0)" clip-path="url(#_1045408919362892clip-2)"/><line x1="287.86" y1="487.97" x2="287.92" y2="471.47" style="stroke-width: 3.0;stroke: rgb(0,0,0);stroke-opacity: 1.0;stroke-linecap: square;shape-rendering:geometricPrecision;" transform="matrix(1,0,0,1,0,0)" clip-path="url(#_1045408919362892clip-2)"/><line x1="287.92" y1="471.47" x2="289.73" y2="455.13" style="stroke-width: 3.0;stroke: rgb(0,0,0);stroke-opacity: 1.0;stroke-linecap: square;shape-rendering:geometricPrecision;" transform="matrix(1,0,0,1,0,0)" clip-path="url(#_1045408919362892clip-2)"/><line x1="289.73" y1="455.13" x2="293.66" y2="438.95" style="stroke-width: 3.0;stroke: rgb(0,0,0);stroke-opacity: 1.0;stroke-linecap: square;shape-rendering:geometricPrecision;" transform="matrix(1,0,0,1,0,0)" clip-path="url(#_1045408919362892clip-2)"/><line x1="293.66" y1="438.95" x2="299.02" y2="422.93" style="stroke-width: 3.0;stroke: rgb(0,0,0);stroke-opacity: 1.0;stroke-linecap: square;shape-rendering:geometricPrecision;" transform="matrix(1,0,0,1,0,0)" clip-path="url(#_1045408919362892clip-2)"/><line x1="299.02" y1="422.93" x2="307.74" y2="407.05" style="stroke-width: 3.0;stroke: rgb(0,0,0);stroke-opacity: 1.0;stroke-linecap: square;shape-rendering:geometricPrecision;" transform="matrix(1,0,0,1,0,0)" clip-path="url(#_1045408919362892clip-2)"/><line x1="307.74" y1="407.05" x2="318.05" y2="391.32" style="stroke-width: 3.0;stroke: rgb(0,0,0);stroke-opacity: 1.0;stroke-linecap: square;shape-rendering:geometricPrecision;" transform="matrix(1,0,0,1,0,0)" clip-path="url(#_1045408919362892clip-2)"/><line x1="318.05" y1="391.32" x2="330.71" y2="375.74" style="stroke-width: 3.0;stroke: rgb(0,0,0);stroke-opacity: 1.0;stroke-linecap: square;shape-rendering:geometricPrecision;" transform="matrix(1,0,0,1,0,0)" clip-path="url(#_1045408919362892clip-2)"/><line x1="330.71" y1="375.74" x2="344.24" y2="360.31" style="stroke-width: 3.0;stroke: rgb(0,0,0);stroke-opacity: 1.0;stroke-linecap: square;shape-rendering:geometricPrecision;" transform="matrix(1,0,0,1,0,0)" clip-path="url(#_1045408919362892clip-2)"/><line x1="344.24" y1="360.31" x2="360" y2="345.01" style="stroke-width: 3.0;stroke: rgb(0,0,0);stroke-opacity: 1.0;stroke-linecap: square;shape-rendering:geometricPrecision;" transform="matrix(1,0,0,1,0,0)" clip-path="url(#_1045408919362892clip-2)"/><line x1="360" y1="345.01" x2="376.6" y2="329.84" style="stroke-width: 3.0;stroke: rgb(0,0,0);stroke-opacity: 1.0;stroke-linecap: square;shape-rendering:geometricPrecision;" transform="matrix(1,0,0,1,0,0)" clip-path="url(#_1045408919362892clip-2)"/><line x1="376.6" y1="329.84" x2="395.42" y2="314.82" style="stroke-width: 3.0;stroke: rgb(0,0,0);stroke-opacity: 1.0;stroke-linecap: square;shape-rendering:geometricPrecision;" transform="matrix(1,0,0,1,0,0)" clip-path="url(#_1045408919362892clip-2)"/><line x1="395.42" y1="314.82" x2="415.25" y2="299.92" style="stroke-width: 3.0;stroke: rgb(0,0,0);stroke-opacity: 1.0;stroke-linecap: square;shape-rendering:geometricPrecision;" transform="matrix(1,0,0,1,0,0)" clip-path="url(#_1045408919362892clip-2)"/><line x1="415.25" y1="299.92" x2="437.73" y2="285.13" style="stroke-width: 3.0;stroke: rgb(0,0,0);stroke-opacity: 1.0;stroke-linecap: square;shape-rendering:geometricPrecision;" transform="matrix(1,0,0,1,0,0)" clip-path="url(#_1045408919362892clip-2)"/><line x1="437.73" y1="285.13" x2="461.69" y2="270.38" style="stroke-width: 3.0;stroke: rgb(0,0,0);stroke-opacity: 1.0;stroke-linecap: square;shape-rendering:geometricPrecision;" transform="matrix(1,0,0,1,0,0)" clip-path="url(#_1045408919362892clip-2)"/><line x1="461.69" y1="270.38" x2="488.1" y2="255.36" style="stroke-width: 3.0;stroke: rgb(0,0,0);stroke-opacity: 1.0;stroke-linecap: square;shape-rendering:geometricPrecision;" transform="matrix(1,0,0,1,0,0)" clip-path="url(#_1045408919362892clip-2)"/><line x1="488.1" y1="255.36" x2="516.97" y2="239.72" style="stroke-width: 3.0;stroke: rgb(0,0,0);stroke-opacity: 1.0;stroke-linecap: square;shape-rendering:geometricPrecision;" transform="matrix(1,0,0,1,0,0)" clip-path="url(#_1045408919362892clip-2)"/><line x1="516.97" y1="239.72" x2="549.81" y2="223.15" style="stroke-width: 3.0;stroke: rgb(0,0,0);stroke-opacity: 1.0;stroke-linecap: square;shape-rendering:geometricPrecision;" transform="matrix(1,0,0,1,0,0)" clip-path="url(#_1045408919362892clip-2)"/><line x1="549.81" y1="223.15" x2="589.23" y2="204.34" style="stroke-width: 3.0;stroke: rgb(0,0,0);stroke-opacity: 1.0;stroke-linecap: square;shape-rendering:geometricPrecision;" transform="matrix(1,0,0,1,0,0)" clip-path="url(#_1045408919362892clip-2)"/><line x1="589.23" y1="204.34" x2="640.67" y2="181.51" style="stroke-width: 3.0;stroke: rgb(0,0,0);stroke-opacity: 1.0;stroke-linecap: square;shape-rendering:geometricPrecision;" transform="matrix(1,0,0,1,0,0)" clip-path="url(#_1045408919362892clip-2)"/><line x1="640.67" y1="181.51" x2="702.04" y2="156.47" style="stroke-width: 3.0;stroke: rgb(0,0,0);stroke-opacity: 1.0;stroke-linecap: square;shape-rendering:geometricPrecision;" transform="matrix(1,0,0,1,0,0)" clip-path="url(#_1045408919362892clip-2)"/><line x1="702.04" y1="156.47" x2="773.58" y2="129" style="stroke-width: 3.0;stroke: rgb(0,0,0);stroke-opacity: 1.0;stroke-linecap: square;shape-rendering:geometricPrecision;" transform="matrix(1,0,0,1,0,0)" clip-path="url(#_1045408919362892clip-2)"/><line x1="773.58" y1="129" x2="848.57" y2="101.54" style="stroke-width: 3.0;stroke: rgb(0,0,0);stroke-opacity: 1.0;stroke-linecap: square;shape-rendering:geometricPrecision;" transform="matrix(1,0,0,1,0,0)" clip-path="url(#_1045408919362892clip-2)"/><line x1="848.57" y1="101.54" x2="923.14" y2="75.45" style="stroke-width: 3.0;stroke: rgb(0,0,0);stroke-opacity: 1.0;stroke-linecap: square;shape-rendering:geometricPrecision;" transform="matrix(1,0,0,1,0,0)" clip-path="url(#_1045408919362892clip-2)"/><rect x="71" y="35" width="1069" height="660" style="stroke-width: 0.5;stroke: rgb(0,0,0);stroke-opacity: 1.0;stroke-linecap: round;stroke-linejoin: round;shape-rendering:crispEdges;; fill: none" transform="matrix(1,0,0,1,0,0)" clip-path="url(#_1045408919362892clip-0)"/></svg>
