<!DOCTYPE svg PUBLIC "-//W3C//DTD SVG 1.1//EN" "http://www.w3.org/Graphics/SVG/1.1/DTD/svg11.dtd">
<svg xmlns="http://www.w3.org/2000/svg" xmlns:xlink="http://www.w3.org/1999/xlink" xmlns:jfreesvg="http://www.jfree.org/jfreesvg/svg" width="1152" height="768" text-rendering="auto" shape-rendering="auto">
<defs><clipPath id="_1045410466929830clip-0"><path d="M 0 0 L 1152 0 L 1152 768 L 0 768 L 0 0 Z "/></clipPath>
<clipPath id="_1045410466929830clip-1"><path d="M 384.5 345.5 L 384.5 1497.5 L -383.5 1497.5 L -383.5 345.5 L 384.5 345.5 Z "/></clipPath>
<clipPath id="_1045410466929830clip-2"><path d="M 64 35 L 64 695 L 1140 695 L 1140 35 Z "/></clipPath>
</defs>
<rect x="0" y="0" width="1152" height="768" style="fill: rgb(255,255,255); fill-opacity: 1.0" transform="matrix(1,0,0,1,0,0)" clip-path="url(#_1045410466929830clip-0)"/><g transform="matrix(1,0,0,1,0,0)"><text x="466.5" y="21.01" style="fill: rgb(0,0,0); fill-opacity: 1.0; font-family: Tahoma; font-size: 20px; font-weight: bold;" clip-path="url(#_1045410466929830clip-0)">Polar_Curve_Elevator</text></g><rect x="392.5" y="746" width="367" height="21" style="fill: rgb(255,255,255); fill-opacity: 1.0" transform="matrix(1,0,0,1,0,0)" clip-path="url(#_1045410466929830clip-0)"/><g style="stroke-width: 3.0;stroke: rgb(0,0,0);stroke-opacity: 1.0;stroke-linecap: square;shape-rendering:geometricPrecision;; fill: none" transform="matrix(1,0,0,1,0,0)" clip-path="url(#_1045410466929830clip-0)"><path d="M 395.5 756.5 L 409.5 756.5"/></g><g transform="matrix(1,0,0,1,0,0)"><text x="413.5" y="761.01" style="fill: rgb(64,64,64); fill-opacity: 1.0; font-family: Tahoma; font-size: 12px;" clip-path="url(#_1045410466929830clip-0)"> Clean configuration </text></g><g style="stroke-width: 3.0;stroke: rgb(0,0,255);stroke-opacity: 1.0;stroke-linecap: round;stroke-linejoin: round;stroke-dasharray: 10.0, 5.0;shape-rendering:geometricPrecision;; fill: none" transform="matrix(1,0,0,1,0,0)" clip-path="url(#_1045410466929830clip-0)"><path d="M 529.5 756.5 L 543.5 756.5"/></g><g transform="matrix(1,0,0,1,0,0)"><text x="547.5" y="761.01" style="fill: rgb(64,64,64); fill-opacity: 1.0; font-family: Tahoma; font-size: 12px;" clip-path="url(#_1045410466929830clip-0)"> Configuration with elevator at 5.0 deg </text></g><rect x="64" y="35" width="1076" height="660" style="fill: rgb(255,255,255); fill-opacity: 0.0" transform="matrix(1,0,0,1,0,0)" clip-path="url(#_1045410466929830clip-0)"/><line x1="64" y1="699" x2="1140" y2="699" style="stroke-width: 0.5;stroke: rgb(128,128,128);stroke-opacity: 1.0;stroke-linecap: square;shape-rendering:crispEdges;" transform="matrix(1,0,0,1,0,0)" clip-path="url(#_1045410466929830clip-0)"/><g transform="matrix(1,0,0,1,0,0)"><text x="77.54" y="715.52" style="fill: rgb(64,64,64); fill-opacity: 1.0; font-family: Tahoma; font-size: 12px;" clip-path="url(#_1045410466929830clip-0)">0,0095</text></g><line x1="95.54" y1="701" x2="95.54" y2="699" style="stroke-width: 0.5;stroke: rgb(128,128,128);stroke-opacity: 1.0;stroke-linecap: square;shape-rendering:crispEdges;" transform="matrix(1,0,0,1,0,0)" clip-path="url(#_1045410466929830clip-0)"/><g transform="matrix(1,0,0,1,0,0)"><text x="144.5" y="715.52" style="fill: rgb(64,64,64); fill-opacity: 1.0; font-family: Tahoma; font-size: 12px;" clip-path="url(#_1045410466929830clip-0)">0,0100</text></g><line x1="162.5" y1="701" x2="162.5" y2="699" style="stroke-width: 0.5;stroke: rgb(128,128,128);stroke-opacity: 1.0;stroke-linecap: square;shape-rendering:crispEdges;" transform="matrix(1,0,0,1,0,0)" clip-path="url(#_1045410466929830clip-0)"/><g transform="matrix(1,0,0,1,0,0)"><text x="211.45" y="715.52" style="fill: rgb(64,64,64); fill-opacity: 1.0; font-family: Tahoma; font-size: 12px;" clip-path="url(#_1045410466929830clip-0)">0,0105</text></g><line x1="229.45" y1="701" x2="229.45" y2="699" style="stroke-width: 0.5;stroke: rgb(128,128,128);stroke-opacity: 1.0;stroke-linecap: square;shape-rendering:crispEdges;" transform="matrix(1,0,0,1,0,0)" clip-path="url(#_1045410466929830clip-0)"/><g transform="matrix(1,0,0,1,0,0)"><text x="278.41" y="715.52" style="fill: rgb(64,64,64); fill-opacity: 1.0; font-family: Tahoma; font-size: 12px;" clip-path="url(#_1045410466929830clip-0)">0,0110</text></g><line x1="296.41" y1="701" x2="296.41" y2="699" style="stroke-width: 0.5;stroke: rgb(128,128,128);stroke-opacity: 1.0;stroke-linecap: square;shape-rendering:crispEdges;" transform="matrix(1,0,0,1,0,0)" clip-path="url(#_1045410466929830clip-0)"/><g transform="matrix(1,0,0,1,0,0)"><text x="345.36" y="715.52" style="fill: rgb(64,64,64); fill-opacity: 1.0; font-family: Tahoma; font-size: 12px;" clip-path="url(#_1045410466929830clip-0)">0,0115</text></g><line x1="363.36" y1="701" x2="363.36" y2="699" style="stroke-width: 0.5;stroke: rgb(128,128,128);stroke-opacity: 1.0;stroke-linecap: square;shape-rendering:crispEdges;" transform="matrix(1,0,0,1,0,0)" clip-path="url(#_1045410466929830clip-0)"/><g transform="matrix(1,0,0,1,0,0)"><text x="412.32" y="715.52" style="fill: rgb(64,64,64); fill-opacity: 1.0; font-family: Tahoma; font-size: 12px;" clip-path="url(#_1045410466929830clip-0)">0,0120</text></g><line x1="430.32" y1="701" x2="430.32" y2="699" style="stroke-width: 0.5;stroke: rgb(128,128,128);stroke-opacity: 1.0;stroke-linecap: square;shape-rendering:crispEdges;" transform="matrix(1,0,0,1,0,0)" clip-path="url(#_1045410466929830clip-0)"/><g transform="matrix(1,0,0,1,0,0)"><text x="479.27" y="715.52" style="fill: rgb(64,64,64); fill-opacity: 1.0; font-family: Tahoma; font-size: 12px;" clip-path="url(#_1045410466929830clip-0)">0,0125</text></g><line x1="497.27" y1="701" x2="497.27" y2="699" style="stroke-width: 0.5;stroke: rgb(128,128,128);stroke-opacity: 1.0;stroke-linecap: square;shape-rendering:crispEdges;" transform="matrix(1,0,0,1,0,0)" clip-path="url(#_1045410466929830clip-0)"/><g transform="matrix(1,0,0,1,0,0)"><text x="546.23" y="715.52" style="fill: rgb(64,64,64); fill-opacity: 1.0; font-family: Tahoma; font-size: 12px;" clip-path="url(#_1045410466929830clip-0)">0,0130</text></g><line x1="564.23" y1="701" x2="564.23" y2="699" style="stroke-width: 0.5;stroke: rgb(128,128,128);stroke-opacity: 1.0;stroke-linecap: square;shape-rendering:crispEdges;" transform="matrix(1,0,0,1,0,0)" clip-path="url(#_1045410466929830clip-0)"/><g transform="matrix(1,0,0,1,0,0)"><text x="613.19" y="715.52" style="fill: rgb(64,64,64); fill-opacity: 1.0; font-family: Tahoma; font-size: 12px;" clip-path="url(#_1045410466929830clip-0)">0,0135</text></g><line x1="631.19" y1="701" x2="631.19" y2="699" style="stroke-width: 0.5;stroke: rgb(128,128,128);stroke-opacity: 1.0;stroke-linecap: square;shape-rendering:crispEdges;" transform="matrix(1,0,0,1,0,0)" clip-path="url(#_1045410466929830clip-0)"/><g transform="matrix(1,0,0,1,0,0)"><text x="680.14" y="715.52" style="fill: rgb(64,64,64); fill-opacity: 1.0; font-family: Tahoma; font-size: 12px;" clip-path="url(#_1045410466929830clip-0)">0,0140</text></g><line x1="698.14" y1="701" x2="698.14" y2="699" style="stroke-width: 0.5;stroke: rgb(128,128,128);stroke-opacity: 1.0;stroke-linecap: square;shape-rendering:crispEdges;" transform="matrix(1,0,0,1,0,0)" clip-path="url(#_1045410466929830clip-0)"/><g transform="matrix(1,0,0,1,0,0)"><text x="747.1" y="715.52" style="fill: rgb(64,64,64); fill-opacity: 1.0; font-family: Tahoma; font-size: 12px;" clip-path="url(#_1045410466929830clip-0)">0,0145</text></g><line x1="765.1" y1="701" x2="765.1" y2="699" style="stroke-width: 0.5;stroke: rgb(128,128,128);stroke-opacity: 1.0;stroke-linecap: square;shape-rendering:crispEdges;" transform="matrix(1,0,0,1,0,0)" clip-path="url(#_1045410466929830clip-0)"/><g transform="matrix(1,0,0,1,0,0)"><text x="814.05" y="715.52" style="fill: rgb(64,64,64); fill-opacity: 1.0; font-family: Tahoma; font-size: 12px;" clip-path="url(#_1045410466929830clip-0)">0,0150</text></g><line x1="832.05" y1="701" x2="832.05" y2="699" style="stroke-width: 0.5;stroke: rgb(128,128,128);stroke-opacity: 1.0;stroke-linecap: square;shape-rendering:crispEdges;" transform="matrix(1,0,0,1,0,0)" clip-path="url(#_1045410466929830clip-0)"/><g transform="matrix(1,0,0,1,0,0)"><text x="881.01" y="715.52" style="fill: rgb(64,64,64); fill-opacity: 1.0; font-family: Tahoma; font-size: 12px;" clip-path="url(#_1045410466929830clip-0)">0,0155</text></g><line x1="899.01" y1="701" x2="899.01" y2="699" style="stroke-width: 0.5;stroke: rgb(128,128,128);stroke-opacity: 1.0;stroke-linecap: square;shape-rendering:crispEdges;" transform="matrix(1,0,0,1,0,0)" clip-path="url(#_1045410466929830clip-0)"/><g transform="matrix(1,0,0,1,0,0)"><text x="947.96" y="715.52" style="fill: rgb(64,64,64); fill-opacity: 1.0; font-family: Tahoma; font-size: 12px;" clip-path="url(#_1045410466929830clip-0)">0,0160</text></g><line x1="965.96" y1="701" x2="965.96" y2="699" style="stroke-width: 0.5;stroke: rgb(128,128,128);stroke-opacity: 1.0;stroke-linecap: square;shape-rendering:crispEdges;" transform="matrix(1,0,0,1,0,0)" clip-path="url(#_1045410466929830clip-0)"/><g transform="matrix(1,0,0,1,0,0)"><text x="1014.92" y="715.52" style="fill: rgb(64,64,64); fill-opacity: 1.0; font-family: Tahoma; font-size: 12px;" clip-path="url(#_1045410466929830clip-0)">0,0165</text></g><line x1="1032.92" y1="701" x2="1032.92" y2="699" style="stroke-width: 0.5;stroke: rgb(128,128,128);stroke-opacity: 1.0;stroke-linecap: square;shape-rendering:crispEdges;" transform="matrix(1,0,0,1,0,0)" clip-path="url(#_1045410466929830clip-0)"/><g transform="matrix(1,0,0,1,0,0)"><text x="1081.88" y="715.52" style="fill: rgb(64,64,64); fill-opacity: 1.0; font-family: Tahoma; font-size: 12px;" clip-path="url(#_1045410466929830clip-0)">0,0170</text></g><line x1="1099.88" y1="701" x2="1099.88" y2="699" style="stroke-width: 0.5;stroke: rgb(128,128,128);stroke-opacity: 1.0;stroke-linecap: square;shape-rendering:crispEdges;" transform="matrix(1,0,0,1,0,0)" clip-path="url(#_1045410466929830clip-0)"/><g transform="matrix(1,0,0,1,0,0)"><text x="570.5" y="734.59" style="fill: rgb(64,64,64); fill-opacity: 1.0; font-family: Tahoma; font-size: 14px; font-weight: bold;" clip-path="url(#_1045410466929830clip-0)">CD (deg)</text></g><line x1="60" y1="35" x2="60" y2="695" style="stroke-width: 0.5;stroke: rgb(128,128,128);stroke-opacity: 1.0;stroke-linecap: square;shape-rendering:crispEdges;" transform="matrix(1,0,0,1,0,0)" clip-path="url(#_1045410466929830clip-0)"/><g transform="matrix(1,0,0,1,0,0)"><text x="33" y="692.79" style="fill: rgb(64,64,64); fill-opacity: 1.0; font-family: Tahoma; font-size: 12px;" clip-path="url(#_1045410466929830clip-0)">-0,6</text></g><line x1="58" y1="687.77" x2="60" y2="687.77" style="stroke-width: 0.5;stroke: rgb(128,128,128);stroke-opacity: 1.0;stroke-linecap: square;shape-rendering:crispEdges;" transform="matrix(1,0,0,1,0,0)" clip-path="url(#_1045410466929830clip-0)"/><g transform="matrix(1,0,0,1,0,0)"><text x="33" y="661.1" style="fill: rgb(64,64,64); fill-opacity: 1.0; font-family: Tahoma; font-size: 12px;" clip-path="url(#_1045410466929830clip-0)">-0,5</text></g><line x1="58" y1="656.08" x2="60" y2="656.08" style="stroke-width: 0.5;stroke: rgb(128,128,128);stroke-opacity: 1.0;stroke-linecap: square;shape-rendering:crispEdges;" transform="matrix(1,0,0,1,0,0)" clip-path="url(#_1045410466929830clip-0)"/><g transform="matrix(1,0,0,1,0,0)"><text x="33" y="629.41" style="fill: rgb(64,64,64); fill-opacity: 1.0; font-family: Tahoma; font-size: 12px;" clip-path="url(#_1045410466929830clip-0)">-0,4</text></g><line x1="58" y1="624.39" x2="60" y2="624.39" style="stroke-width: 0.5;stroke: rgb(128,128,128);stroke-opacity: 1.0;stroke-linecap: square;shape-rendering:crispEdges;" transform="matrix(1,0,0,1,0,0)" clip-path="url(#_1045410466929830clip-0)"/><g transform="matrix(1,0,0,1,0,0)"><text x="33" y="597.72" style="fill: rgb(64,64,64); fill-opacity: 1.0; font-family: Tahoma; font-size: 12px;" clip-path="url(#_1045410466929830clip-0)">-0,3</text></g><line x1="58" y1="592.7" x2="60" y2="592.7" style="stroke-width: 0.5;stroke: rgb(128,128,128);stroke-opacity: 1.0;stroke-linecap: square;shape-rendering:crispEdges;" transform="matrix(1,0,0,1,0,0)" clip-path="url(#_1045410466929830clip-0)"/><g transform="matrix(1,0,0,1,0,0)"><text x="33" y="566.03" style="fill: rgb(64,64,64); fill-opacity: 1.0; font-family: Tahoma; font-size: 12px;" clip-path="url(#_1045410466929830clip-0)">-0,2</text></g><line x1="58" y1="561.01" x2="60" y2="561.01" style="stroke-width: 0.5;stroke: rgb(128,128,128);stroke-opacity: 1.0;stroke-linecap: square;shape-rendering:crispEdges;" transform="matrix(1,0,0,1,0,0)" clip-path="url(#_1045410466929830clip-0)"/><g transform="matrix(1,0,0,1,0,0)"><text x="33" y="534.34" style="fill: rgb(64,64,64); fill-opacity: 1.0; font-family: Tahoma; font-size: 12px;" clip-path="url(#_1045410466929830clip-0)">-0,1</text></g><line x1="58" y1="529.32" x2="60" y2="529.32" style="stroke-width: 0.5;stroke: rgb(128,128,128);stroke-opacity: 1.0;stroke-linecap: square;shape-rendering:crispEdges;" transform="matrix(1,0,0,1,0,0)" clip-path="url(#_1045410466929830clip-0)"/><g transform="matrix(1,0,0,1,0,0)"><text x="37" y="502.65" style="fill: rgb(64,64,64); fill-opacity: 1.0; font-family: Tahoma; font-size: 12px;" clip-path="url(#_1045410466929830clip-0)">0,0</text></g><line x1="58" y1="497.63" x2="60" y2="497.63" style="stroke-width: 0.5;stroke: rgb(128,128,128);stroke-opacity: 1.0;stroke-linecap: square;shape-rendering:crispEdges;" transform="matrix(1,0,0,1,0,0)" clip-path="url(#_1045410466929830clip-0)"/><g transform="matrix(1,0,0,1,0,0)"><text x="37" y="470.96" style="fill: rgb(64,64,64); fill-opacity: 1.0; font-family: Tahoma; font-size: 12px;" clip-path="url(#_1045410466929830clip-0)">0,1</text></g><line x1="58" y1="465.94" x2="60" y2="465.94" style="stroke-width: 0.5;stroke: rgb(128,128,128);stroke-opacity: 1.0;stroke-linecap: square;shape-rendering:crispEdges;" transform="matrix(1,0,0,1,0,0)" clip-path="url(#_1045410466929830clip-0)"/><g transform="matrix(1,0,0,1,0,0)"><text x="37" y="439.27" style="fill: rgb(64,64,64); fill-opacity: 1.0; font-family: Tahoma; font-size: 12px;" clip-path="url(#_1045410466929830clip-0)">0,2</text></g><line x1="58" y1="434.25" x2="60" y2="434.25" style="stroke-width: 0.5;stroke: rgb(128,128,128);stroke-opacity: 1.0;stroke-linecap: square;shape-rendering:crispEdges;" transform="matrix(1,0,0,1,0,0)" clip-path="url(#_1045410466929830clip-0)"/><g transform="matrix(1,0,0,1,0,0)"><text x="37" y="407.58" style="fill: rgb(64,64,64); fill-opacity: 1.0; font-family: Tahoma; font-size: 12px;" clip-path="url(#_1045410466929830clip-0)">0,3</text></g><line x1="58" y1="402.56" x2="60" y2="402.56" style="stroke-width: 0.5;stroke: rgb(128,128,128);stroke-opacity: 1.0;stroke-linecap: square;shape-rendering:crispEdges;" transform="matrix(1,0,0,1,0,0)" clip-path="url(#_1045410466929830clip-0)"/><g transform="matrix(1,0,0,1,0,0)"><text x="37" y="375.89" style="fill: rgb(64,64,64); fill-opacity: 1.0; font-family: Tahoma; font-size: 12px;" clip-path="url(#_1045410466929830clip-0)">0,4</text></g><line x1="58" y1="370.87" x2="60" y2="370.87" style="stroke-width: 0.5;stroke: rgb(128,128,128);stroke-opacity: 1.0;stroke-linecap: square;shape-rendering:crispEdges;" transform="matrix(1,0,0,1,0,0)" clip-path="url(#_1045410466929830clip-0)"/><g transform="matrix(1,0,0,1,0,0)"><text x="37" y="344.2" style="fill: rgb(64,64,64); fill-opacity: 1.0; font-family: Tahoma; font-size: 12px;" clip-path="url(#_1045410466929830clip-0)">0,5</text></g><line x1="58" y1="339.18" x2="60" y2="339.18" style="stroke-width: 0.5;stroke: rgb(128,128,128);stroke-opacity: 1.0;stroke-linecap: square;shape-rendering:crispEdges;" transform="matrix(1,0,0,1,0,0)" clip-path="url(#_1045410466929830clip-0)"/><g transform="matrix(1,0,0,1,0,0)"><text x="37" y="312.51" style="fill: rgb(64,64,64); fill-opacity: 1.0; font-family: Tahoma; font-size: 12px;" clip-path="url(#_1045410466929830clip-0)">0,6</text></g><line x1="58" y1="307.49" x2="60" y2="307.49" style="stroke-width: 0.5;stroke: rgb(128,128,128);stroke-opacity: 1.0;stroke-linecap: square;shape-rendering:crispEdges;" transform="matrix(1,0,0,1,0,0)" clip-path="url(#_1045410466929830clip-0)"/><g transform="matrix(1,0,0,1,0,0)"><text x="37" y="280.82" style="fill: rgb(64,64,64); fill-opacity: 1.0; font-family: Tahoma; font-size: 12px;" clip-path="url(#_1045410466929830clip-0)">0,7</text></g><line x1="58" y1="275.8" x2="60" y2="275.8" style="stroke-width: 0.5;stroke: rgb(128,128,128);stroke-opacity: 1.0;stroke-linecap: square;shape-rendering:crispEdges;" transform="matrix(1,0,0,1,0,0)" clip-path="url(#_1045410466929830clip-0)"/><g transform="matrix(1,0,0,1,0,0)"><text x="37" y="249.13" style="fill: rgb(64,64,64); fill-opacity: 1.0; font-family: Tahoma; font-size: 12px;" clip-path="url(#_1045410466929830clip-0)">0,8</text></g><line x1="58" y1="244.11" x2="60" y2="244.11" style="stroke-width: 0.5;stroke: rgb(128,128,128);stroke-opacity: 1.0;stroke-linecap: square;shape-rendering:crispEdges;" transform="matrix(1,0,0,1,0,0)" clip-path="url(#_1045410466929830clip-0)"/><g transform="matrix(1,0,0,1,0,0)"><text x="37" y="217.44" style="fill: rgb(64,64,64); fill-opacity: 1.0; font-family: Tahoma; font-size: 12px;" clip-path="url(#_1045410466929830clip-0)">0,9</text></g><line x1="58" y1="212.42" x2="60" y2="212.42" style="stroke-width: 0.5;stroke: rgb(128,128,128);stroke-opacity: 1.0;stroke-linecap: square;shape-rendering:crispEdges;" transform="matrix(1,0,0,1,0,0)" clip-path="url(#_1045410466929830clip-0)"/><g transform="matrix(1,0,0,1,0,0)"><text x="37" y="185.75" style="fill: rgb(64,64,64); fill-opacity: 1.0; font-family: Tahoma; font-size: 12px;" clip-path="url(#_1045410466929830clip-0)">1,0</text></g><line x1="58" y1="180.73" x2="60" y2="180.73" style="stroke-width: 0.5;stroke: rgb(128,128,128);stroke-opacity: 1.0;stroke-linecap: square;shape-rendering:crispEdges;" transform="matrix(1,0,0,1,0,0)" clip-path="url(#_1045410466929830clip-0)"/><g transform="matrix(1,0,0,1,0,0)"><text x="37" y="154.06" style="fill: rgb(64,64,64); fill-opacity: 1.0; font-family: Tahoma; font-size: 12px;" clip-path="url(#_1045410466929830clip-0)">1,1</text></g><line x1="58" y1="149.04" x2="60" y2="149.04" style="stroke-width: 0.5;stroke: rgb(128,128,128);stroke-opacity: 1.0;stroke-linecap: square;shape-rendering:crispEdges;" transform="matrix(1,0,0,1,0,0)" clip-path="url(#_1045410466929830clip-0)"/><g transform="matrix(1,0,0,1,0,0)"><text x="37" y="122.38" style="fill: rgb(64,64,64); fill-opacity: 1.0; font-family: Tahoma; font-size: 12px;" clip-path="url(#_1045410466929830clip-0)">1,2</text></g><line x1="58" y1="117.35" x2="60" y2="117.35" style="stroke-width: 0.5;stroke: rgb(128,128,128);stroke-opacity: 1.0;stroke-linecap: square;shape-rendering:crispEdges;" transform="matrix(1,0,0,1,0,0)" clip-path="url(#_1045410466929830clip-0)"/><g transform="matrix(1,0,0,1,0,0)"><text x="37" y="90.69" style="fill: rgb(64,64,64); fill-opacity: 1.0; font-family: Tahoma; font-size: 12px;" clip-path="url(#_1045410466929830clip-0)">1,3</text></g><line x1="58" y1="85.66" x2="60" y2="85.66" style="stroke-width: 0.5;stroke: rgb(128,128,128);stroke-opacity: 1.0;stroke-linecap: square;shape-rendering:crispEdges;" transform="matrix(1,0,0,1,0,0)" clip-path="url(#_1045410466929830clip-0)"/><g transform="matrix(1,0,0,1,0,0)"><text x="37" y="59" style="fill: rgb(64,64,64); fill-opacity: 1.0; font-family: Tahoma; font-size: 12px;" clip-path="url(#_1045410466929830clip-0)">1,4</text></g><line x1="58" y1="53.97" x2="60" y2="53.97" style="stroke-width: 0.5;stroke: rgb(128,128,128);stroke-opacity: 1.0;stroke-linecap: square;shape-rendering:crispEdges;" transform="matrix(1,0,0,1,0,0)" clip-path="url(#_1045410466929830clip-0)"/><g style="fill: rgb(64,64,64); fill-opacity: 1.0; stroke: none" transform="matrix(0,-1,1,0,-345.5,384.5)" clip-path="url(#_1045410466929830clip-1)"><path d="M 14.44 370.81 Q 12.16 370.81 10.8 369.42 Q 9.45 368.03 9.45 365.53 Q 9.45 363.11 10.8 361.67 Q 12.16 360.23 14.45 360.23 Q 15.06 360.23 15.55 360.3 Q 16.03 360.37 16.47 360.48 Q 16.83 360.59 17.23 360.77 Q 17.64 360.95 17.89 361.08 L 17.89 363.5 L 17.64 363.5 Q 17.45 363.34 17.17 363.12 Q 16.89 362.89 16.53 362.67 Q 16.17 362.45 15.75 362.3 Q 15.33 362.14 14.86 362.14 Q 14.31 362.14 13.84 362.31 Q 13.38 362.48 12.97 362.92 Q 12.58 363.31 12.34 363.98 Q 12.09 364.64 12.09 365.53 Q 12.09 366.48 12.35 367.13 Q 12.61 367.78 13.02 368.17 Q 13.41 368.56 13.9 368.73 Q 14.39 368.91 14.88 368.91 Q 15.38 368.91 15.84 368.73 Q 16.3 368.56 16.61 368.36 Q 16.95 368.14 17.21 367.92 Q 17.47 367.7 17.66 367.55 L 17.89 367.55 L 17.89 369.94 Q 17.61 370.06 17.24 370.23 Q 16.88 370.39 16.48 370.51 Q 16 370.66 15.59 370.73 Q 15.17 370.81 14.44 370.81 Z  M 26.19 370.61 L 19.39 370.61 L 19.39 360.44 L 21.95 360.44 L 21.95 368.67 L 26.19 368.67 L 26.19 370.61 Z "/></g><line x1="95.54" y1="35" x2="95.54" y2="695" style="stroke-width: 0.5;stroke: rgb(192,192,192);stroke-opacity: 1.0;stroke-linejoin: bevel;stroke-dasharray: 2.0, 2.0;shape-rendering:crispEdges;" transform="matrix(1,0,0,1,0,0)" clip-path="url(#_1045410466929830clip-2)"/><line x1="162.5" y1="35" x2="162.5" y2="695" style="stroke-width: 0.5;stroke: rgb(192,192,192);stroke-opacity: 1.0;stroke-linejoin: bevel;stroke-dasharray: 2.0, 2.0;shape-rendering:crispEdges;" transform="matrix(1,0,0,1,0,0)" clip-path="url(#_1045410466929830clip-2)"/><line x1="229.45" y1="35" x2="229.45" y2="695" style="stroke-width: 0.5;stroke: rgb(192,192,192);stroke-opacity: 1.0;stroke-linejoin: bevel;stroke-dasharray: 2.0, 2.0;shape-rendering:crispEdges;" transform="matrix(1,0,0,1,0,0)" clip-path="url(#_1045410466929830clip-2)"/><line x1="296.41" y1="35" x2="296.41" y2="695" style="stroke-width: 0.5;stroke: rgb(192,192,192);stroke-opacity: 1.0;stroke-linejoin: bevel;stroke-dasharray: 2.0, 2.0;shape-rendering:crispEdges;" transform="matrix(1,0,0,1,0,0)" clip-path="url(#_1045410466929830clip-2)"/><line x1="363.36" y1="35" x2="363.36" y2="695" style="stroke-width: 0.5;stroke: rgb(192,192,192);stroke-opacity: 1.0;stroke-linejoin: bevel;stroke-dasharray: 2.0, 2.0;shape-rendering:crispEdges;" transform="matrix(1,0,0,1,0,0)" clip-path="url(#_1045410466929830clip-2)"/><line x1="430.32" y1="35" x2="430.32" y2="695" style="stroke-width: 0.5;stroke: rgb(192,192,192);stroke-opacity: 1.0;stroke-linejoin: bevel;stroke-dasharray: 2.0, 2.0;shape-rendering:crispEdges;" transform="matrix(1,0,0,1,0,0)" clip-path="url(#_1045410466929830clip-2)"/><line x1="497.27" y1="35" x2="497.27" y2="695" style="stroke-width: 0.5;stroke: rgb(192,192,192);stroke-opacity: 1.0;stroke-linejoin: bevel;stroke-dasharray: 2.0, 2.0;shape-rendering:crispEdges;" transform="matrix(1,0,0,1,0,0)" clip-path="url(#_1045410466929830clip-2)"/><line x1="564.23" y1="35" x2="564.23" y2="695" style="stroke-width: 0.5;stroke: rgb(192,192,192);stroke-opacity: 1.0;stroke-linejoin: bevel;stroke-dasharray: 2.0, 2.0;shape-rendering:crispEdges;" transform="matrix(1,0,0,1,0,0)" clip-path="url(#_1045410466929830clip-2)"/><line x1="631.19" y1="35" x2="631.19" y2="695" style="stroke-width: 0.5;stroke: rgb(192,192,192);stroke-opacity: 1.0;stroke-linejoin: bevel;stroke-dasharray: 2.0, 2.0;shape-rendering:crispEdges;" transform="matrix(1,0,0,1,0,0)" clip-path="url(#_1045410466929830clip-2)"/><line x1="698.14" y1="35" x2="698.14" y2="695" style="stroke-width: 0.5;stroke: rgb(192,192,192);stroke-opacity: 1.0;stroke-linejoin: bevel;stroke-dasharray: 2.0, 2.0;shape-rendering:crispEdges;" transform="matrix(1,0,0,1,0,0)" clip-path="url(#_1045410466929830clip-2)"/><line x1="765.1" y1="35" x2="765.1" y2="695" style="stroke-width: 0.5;stroke: rgb(192,192,192);stroke-opacity: 1.0;stroke-linejoin: bevel;stroke-dasharray: 2.0, 2.0;shape-rendering:crispEdges;" transform="matrix(1,0,0,1,0,0)" clip-path="url(#_1045410466929830clip-2)"/><line x1="832.05" y1="35" x2="832.05" y2="695" style="stroke-width: 0.5;stroke: rgb(192,192,192);stroke-opacity: 1.0;stroke-linejoin: bevel;stroke-dasharray: 2.0, 2.0;shape-rendering:crispEdges;" transform="matrix(1,0,0,1,0,0)" clip-path="url(#_1045410466929830clip-2)"/><line x1="899.01" y1="35" x2="899.01" y2="695" style="stroke-width: 0.5;stroke: rgb(192,192,192);stroke-opacity: 1.0;stroke-linejoin: bevel;stroke-dasharray: 2.0, 2.0;shape-rendering:crispEdges;" transform="matrix(1,0,0,1,0,0)" clip-path="url(#_1045410466929830clip-2)"/><line x1="965.96" y1="35" x2="965.96" y2="695" style="stroke-width: 0.5;stroke: rgb(192,192,192);stroke-opacity: 1.0;stroke-linejoin: bevel;stroke-dasharray: 2.0, 2.0;shape-rendering:crispEdges;" transform="matrix(1,0,0,1,0,0)" clip-path="url(#_1045410466929830clip-2)"/><line x1="1032.92" y1="35" x2="1032.92" y2="695" style="stroke-width: 0.5;stroke: rgb(192,192,192);stroke-opacity: 1.0;stroke-linejoin: bevel;stroke-dasharray: 2.0, 2.0;shape-rendering:crispEdges;" transform="matrix(1,0,0,1,0,0)" clip-path="url(#_1045410466929830clip-2)"/><line x1="1099.88" y1="35" x2="1099.88" y2="695" style="stroke-width: 0.5;stroke: rgb(192,192,192);stroke-opacity: 1.0;stroke-linejoin: bevel;stroke-dasharray: 2.0, 2.0;shape-rendering:crispEdges;" transform="matrix(1,0,0,1,0,0)" clip-path="url(#_1045410466929830clip-2)"/><line x1="64" y1="687.77" x2="1140" y2="687.77" style="stroke-width: 0.5;stroke: rgb(192,192,192);stroke-opacity: 1.0;stroke-linejoin: bevel;stroke-dasharray: 2.0, 2.0;shape-rendering:crispEdges;" transform="matrix(1,0,0,1,0,0)" clip-path="url(#_1045410466929830clip-2)"/><line x1="64" y1="656.08" x2="1140" y2="656.08" style="stroke-width: 0.5;stroke: rgb(192,192,192);stroke-opacity: 1.0;stroke-linejoin: bevel;stroke-dasharray: 2.0, 2.0;shape-rendering:crispEdges;" transform="matrix(1,0,0,1,0,0)" clip-path="url(#_1045410466929830clip-2)"/><line x1="64" y1="624.39" x2="1140" y2="624.39" style="stroke-width: 0.5;stroke: rgb(192,192,192);stroke-opacity: 1.0;stroke-linejoin: bevel;stroke-dasharray: 2.0, 2.0;shape-rendering:crispEdges;" transform="matrix(1,0,0,1,0,0)" clip-path="url(#_1045410466929830clip-2)"/><line x1="64" y1="592.7" x2="1140" y2="592.7" style="stroke-width: 0.5;stroke: rgb(192,192,192);stroke-opacity: 1.0;stroke-linejoin: bevel;stroke-dasharray: 2.0, 2.0;shape-rendering:crispEdges;" transform="matrix(1,0,0,1,0,0)" clip-path="url(#_1045410466929830clip-2)"/><line x1="64" y1="561.01" x2="1140" y2="561.01" style="stroke-width: 0.5;stroke: rgb(192,192,192);stroke-opacity: 1.0;stroke-linejoin: bevel;stroke-dasharray: 2.0, 2.0;shape-rendering:crispEdges;" transform="matrix(1,0,0,1,0,0)" clip-path="url(#_1045410466929830clip-2)"/><line x1="64" y1="529.32" x2="1140" y2="529.32" style="stroke-width: 0.5;stroke: rgb(192,192,192);stroke-opacity: 1.0;stroke-linejoin: bevel;stroke-dasharray: 2.0, 2.0;shape-rendering:crispEdges;" transform="matrix(1,0,0,1,0,0)" clip-path="url(#_1045410466929830clip-2)"/><line x1="64" y1="497.63" x2="1140" y2="497.63" style="stroke-width: 0.5;stroke: rgb(192,192,192);stroke-opacity: 1.0;stroke-linejoin: bevel;stroke-dasharray: 2.0, 2.0;shape-rendering:crispEdges;" transform="matrix(1,0,0,1,0,0)" clip-path="url(#_1045410466929830clip-2)"/><line x1="64" y1="465.94" x2="1140" y2="465.94" style="stroke-width: 0.5;stroke: rgb(192,192,192);stroke-opacity: 1.0;stroke-linejoin: bevel;stroke-dasharray: 2.0, 2.0;shape-rendering:crispEdges;" transform="matrix(1,0,0,1,0,0)" clip-path="url(#_1045410466929830clip-2)"/><line x1="64" y1="434.25" x2="1140" y2="434.25" style="stroke-width: 0.5;stroke: rgb(192,192,192);stroke-opacity: 1.0;stroke-linejoin: bevel;stroke-dasharray: 2.0, 2.0;shape-rendering:crispEdges;" transform="matrix(1,0,0,1,0,0)" clip-path="url(#_1045410466929830clip-2)"/><line x1="64" y1="402.56" x2="1140" y2="402.56" style="stroke-width: 0.5;stroke: rgb(192,192,192);stroke-opacity: 1.0;stroke-linejoin: bevel;stroke-dasharray: 2.0, 2.0;shape-rendering:crispEdges;" transform="matrix(1,0,0,1,0,0)" clip-path="url(#_1045410466929830clip-2)"/><line x1="64" y1="370.87" x2="1140" y2="370.87" style="stroke-width: 0.5;stroke: rgb(192,192,192);stroke-opacity: 1.0;stroke-linejoin: bevel;stroke-dasharray: 2.0, 2.0;shape-rendering:crispEdges;" transform="matrix(1,0,0,1,0,0)" clip-path="url(#_1045410466929830clip-2)"/><line x1="64" y1="339.18" x2="1140" y2="339.18" style="stroke-width: 0.5;stroke: rgb(192,192,192);stroke-opacity: 1.0;stroke-linejoin: bevel;stroke-dasharray: 2.0, 2.0;shape-rendering:crispEdges;" transform="matrix(1,0,0,1,0,0)" clip-path="url(#_1045410466929830clip-2)"/><line x1="64" y1="307.49" x2="1140" y2="307.49" style="stroke-width: 0.5;stroke: rgb(192,192,192);stroke-opacity: 1.0;stroke-linejoin: bevel;stroke-dasharray: 2.0, 2.0;shape-rendering:crispEdges;" transform="matrix(1,0,0,1,0,0)" clip-path="url(#_1045410466929830clip-2)"/><line x1="64" y1="275.8" x2="1140" y2="275.8" style="stroke-width: 0.5;stroke: rgb(192,192,192);stroke-opacity: 1.0;stroke-linejoin: bevel;stroke-dasharray: 2.0, 2.0;shape-rendering:crispEdges;" transform="matrix(1,0,0,1,0,0)" clip-path="url(#_1045410466929830clip-2)"/><line x1="64" y1="244.11" x2="1140" y2="244.11" style="stroke-width: 0.5;stroke: rgb(192,192,192);stroke-opacity: 1.0;stroke-linejoin: bevel;stroke-dasharray: 2.0, 2.0;shape-rendering:crispEdges;" transform="matrix(1,0,0,1,0,0)" clip-path="url(#_1045410466929830clip-2)"/><line x1="64" y1="212.42" x2="1140" y2="212.42" style="stroke-width: 0.5;stroke: rgb(192,192,192);stroke-opacity: 1.0;stroke-linejoin: bevel;stroke-dasharray: 2.0, 2.0;shape-rendering:crispEdges;" transform="matrix(1,0,0,1,0,0)" clip-path="url(#_1045410466929830clip-2)"/><line x1="64" y1="180.73" x2="1140" y2="180.73" style="stroke-width: 0.5;stroke: rgb(192,192,192);stroke-opacity: 1.0;stroke-linejoin: bevel;stroke-dasharray: 2.0, 2.0;shape-rendering:crispEdges;" transform="matrix(1,0,0,1,0,0)" clip-path="url(#_1045410466929830clip-2)"/><line x1="64" y1="149.04" x2="1140" y2="149.04" style="stroke-width: 0.5;stroke: rgb(192,192,192);stroke-opacity: 1.0;stroke-linejoin: bevel;stroke-dasharray: 2.0, 2.0;shape-rendering:crispEdges;" transform="matrix(1,0,0,1,0,0)" clip-path="url(#_1045410466929830clip-2)"/><line x1="64" y1="117.35" x2="1140" y2="117.35" style="stroke-width: 0.5;stroke: rgb(192,192,192);stroke-opacity: 1.0;stroke-linejoin: bevel;stroke-dasharray: 2.0, 2.0;shape-rendering:crispEdges;" transform="matrix(1,0,0,1,0,0)" clip-path="url(#_1045410466929830clip-2)"/><line x1="64" y1="85.66" x2="1140" y2="85.66" style="stroke-width: 0.5;stroke: rgb(192,192,192);stroke-opacity: 1.0;stroke-linejoin: bevel;stroke-dasharray: 2.0, 2.0;shape-rendering:crispEdges;" transform="matrix(1,0,0,1,0,0)" clip-path="url(#_1045410466929830clip-2)"/><line x1="64" y1="53.97" x2="1140" y2="53.97" style="stroke-width: 0.5;stroke: rgb(192,192,192);stroke-opacity: 1.0;stroke-linejoin: bevel;stroke-dasharray: 2.0, 2.0;shape-rendering:crispEdges;" transform="matrix(1,0,0,1,0,0)" clip-path="url(#_1045410466929830clip-2)"/><line x1="441.71" y1="596.54" x2="421.13" y2="581.72" style="stroke-width: 3.0;stroke: rgb(0,0,255);stroke-opacity: 1.0;stroke-linecap: round;stroke-linejoin: round;stroke-dasharray: 10.0, 5.0;shape-rendering:geometricPrecision;" transform="matrix(1,0,0,1,0,0)" clip-path="url(#_1045410466929830clip-2)"/><line x1="421.13" y1="581.72" x2="402.9" y2="566.9" style="stroke-width: 3.0;stroke: rgb(0,0,255);stroke-opacity: 1.0;stroke-linecap: round;stroke-linejoin: round;stroke-dasharray: 10.0, 5.0;shape-rendering:geometricPrecision;" transform="matrix(1,0,0,1,0,0)" clip-path="url(#_1045410466929830clip-2)"/><line x1="402.9" y1="566.9" x2="386.09" y2="552.08" style="stroke-width: 3.0;stroke: rgb(0,0,255);stroke-opacity: 1.0;stroke-linecap: round;stroke-linejoin: round;stroke-dasharray: 10.0, 5.0;shape-rendering:geometricPrecision;" transform="matrix(1,0,0,1,0,0)" clip-path="url(#_1045410466929830clip-2)"/><line x1="386.09" y1="552.08" x2="371.77" y2="537.26" style="stroke-width: 3.0;stroke: rgb(0,0,255);stroke-opacity: 1.0;stroke-linecap: round;stroke-linejoin: round;stroke-dasharray: 10.0, 5.0;shape-rendering:geometricPrecision;" transform="matrix(1,0,0,1,0,0)" clip-path="url(#_1045410466929830clip-2)"/><line x1="371.77" y1="537.26" x2="358.52" y2="522.44" style="stroke-width: 3.0;stroke: rgb(0,0,255);stroke-opacity: 1.0;stroke-linecap: round;stroke-linejoin: round;stroke-dasharray: 10.0, 5.0;shape-rendering:geometricPrecision;" transform="matrix(1,0,0,1,0,0)" clip-path="url(#_1045410466929830clip-2)"/><line x1="358.52" y1="522.44" x2="348.02" y2="507.62" style="stroke-width: 3.0;stroke: rgb(0,0,255);stroke-opacity: 1.0;stroke-linecap: round;stroke-linejoin: round;stroke-dasharray: 10.0, 5.0;shape-rendering:geometricPrecision;" transform="matrix(1,0,0,1,0,0)" clip-path="url(#_1045410466929830clip-2)"/><line x1="348.02" y1="507.62" x2="339.02" y2="492.8" style="stroke-width: 3.0;stroke: rgb(0,0,255);stroke-opacity: 1.0;stroke-linecap: round;stroke-linejoin: round;stroke-dasharray: 10.0, 5.0;shape-rendering:geometricPrecision;" transform="matrix(1,0,0,1,0,0)" clip-path="url(#_1045410466929830clip-2)"/><line x1="339.02" y1="492.8" x2="333.79" y2="478.12" style="stroke-width: 3.0;stroke: rgb(0,0,255);stroke-opacity: 1.0;stroke-linecap: round;stroke-linejoin: round;stroke-dasharray: 10.0, 5.0;shape-rendering:geometricPrecision;" transform="matrix(1,0,0,1,0,0)" clip-path="url(#_1045410466929830clip-2)"/><line x1="333.79" y1="478.12" x2="329.92" y2="463.16" style="stroke-width: 3.0;stroke: rgb(0,0,255);stroke-opacity: 1.0;stroke-linecap: round;stroke-linejoin: round;stroke-dasharray: 10.0, 5.0;shape-rendering:geometricPrecision;" transform="matrix(1,0,0,1,0,0)" clip-path="url(#_1045410466929830clip-2)"/><line x1="329.92" y1="463.16" x2="328.17" y2="448.34" style="stroke-width: 3.0;stroke: rgb(0,0,255);stroke-opacity: 1.0;stroke-linecap: round;stroke-linejoin: round;stroke-dasharray: 10.0, 5.0;shape-rendering:geometricPrecision;" transform="matrix(1,0,0,1,0,0)" clip-path="url(#_1045410466929830clip-2)"/><line x1="328.17" y1="448.34" x2="328.22" y2="433.66" style="stroke-width: 3.0;stroke: rgb(0,0,255);stroke-opacity: 1.0;stroke-linecap: round;stroke-linejoin: round;stroke-dasharray: 10.0, 5.0;shape-rendering:geometricPrecision;" transform="matrix(1,0,0,1,0,0)" clip-path="url(#_1045410466929830clip-2)"/><line x1="328.22" y1="433.66" x2="329.94" y2="419.12" style="stroke-width: 3.0;stroke: rgb(0,0,255);stroke-opacity: 1.0;stroke-linecap: round;stroke-linejoin: round;stroke-dasharray: 10.0, 5.0;shape-rendering:geometricPrecision;" transform="matrix(1,0,0,1,0,0)" clip-path="url(#_1045410466929830clip-2)"/><line x1="329.94" y1="419.12" x2="333.66" y2="404.73" style="stroke-width: 3.0;stroke: rgb(0,0,255);stroke-opacity: 1.0;stroke-linecap: round;stroke-linejoin: round;stroke-dasharray: 10.0, 5.0;shape-rendering:geometricPrecision;" transform="matrix(1,0,0,1,0,0)" clip-path="url(#_1045410466929830clip-2)"/><line x1="333.66" y1="404.73" x2="338.73" y2="390.47" style="stroke-width: 3.0;stroke: rgb(0,0,255);stroke-opacity: 1.0;stroke-linecap: round;stroke-linejoin: round;stroke-dasharray: 10.0, 5.0;shape-rendering:geometricPrecision;" transform="matrix(1,0,0,1,0,0)" clip-path="url(#_1045410466929830clip-2)"/><line x1="338.73" y1="390.47" x2="346.98" y2="376.35" style="stroke-width: 3.0;stroke: rgb(0,0,255);stroke-opacity: 1.0;stroke-linecap: round;stroke-linejoin: round;stroke-dasharray: 10.0, 5.0;shape-rendering:geometricPrecision;" transform="matrix(1,0,0,1,0,0)" clip-path="url(#_1045410466929830clip-2)"/><line x1="346.98" y1="376.35" x2="356.73" y2="362.35" style="stroke-width: 3.0;stroke: rgb(0,0,255);stroke-opacity: 1.0;stroke-linecap: round;stroke-linejoin: round;stroke-dasharray: 10.0, 5.0;shape-rendering:geometricPrecision;" transform="matrix(1,0,0,1,0,0)" clip-path="url(#_1045410466929830clip-2)"/><line x1="356.73" y1="362.35" x2="368.72" y2="348.49" style="stroke-width: 3.0;stroke: rgb(0,0,255);stroke-opacity: 1.0;stroke-linecap: round;stroke-linejoin: round;stroke-dasharray: 10.0, 5.0;shape-rendering:geometricPrecision;" transform="matrix(1,0,0,1,0,0)" clip-path="url(#_1045410466929830clip-2)"/><line x1="368.72" y1="348.49" x2="381.52" y2="334.76" style="stroke-width: 3.0;stroke: rgb(0,0,255);stroke-opacity: 1.0;stroke-linecap: round;stroke-linejoin: round;stroke-dasharray: 10.0, 5.0;shape-rendering:geometricPrecision;" transform="matrix(1,0,0,1,0,0)" clip-path="url(#_1045410466929830clip-2)"/><line x1="381.52" y1="334.76" x2="396.44" y2="321.15" style="stroke-width: 3.0;stroke: rgb(0,0,255);stroke-opacity: 1.0;stroke-linecap: round;stroke-linejoin: round;stroke-dasharray: 10.0, 5.0;shape-rendering:geometricPrecision;" transform="matrix(1,0,0,1,0,0)" clip-path="url(#_1045410466929830clip-2)"/><line x1="396.44" y1="321.15" x2="412.15" y2="307.66" style="stroke-width: 3.0;stroke: rgb(0,0,255);stroke-opacity: 1.0;stroke-linecap: round;stroke-linejoin: round;stroke-dasharray: 10.0, 5.0;shape-rendering:geometricPrecision;" transform="matrix(1,0,0,1,0,0)" clip-path="url(#_1045410466929830clip-2)"/><line x1="412.15" y1="307.66" x2="429.96" y2="294.29" style="stroke-width: 3.0;stroke: rgb(0,0,255);stroke-opacity: 1.0;stroke-linecap: round;stroke-linejoin: round;stroke-dasharray: 10.0, 5.0;shape-rendering:geometricPrecision;" transform="matrix(1,0,0,1,0,0)" clip-path="url(#_1045410466929830clip-2)"/><line x1="429.96" y1="294.29" x2="448.73" y2="281.03" style="stroke-width: 3.0;stroke: rgb(0,0,255);stroke-opacity: 1.0;stroke-linecap: round;stroke-linejoin: round;stroke-dasharray: 10.0, 5.0;shape-rendering:geometricPrecision;" transform="matrix(1,0,0,1,0,0)" clip-path="url(#_1045410466929830clip-2)"/><line x1="448.73" y1="281.03" x2="470" y2="267.88" style="stroke-width: 3.0;stroke: rgb(0,0,255);stroke-opacity: 1.0;stroke-linecap: round;stroke-linejoin: round;stroke-dasharray: 10.0, 5.0;shape-rendering:geometricPrecision;" transform="matrix(1,0,0,1,0,0)" clip-path="url(#_1045410466929830clip-2)"/><line x1="470" y1="267.88" x2="492.68" y2="254.76" style="stroke-width: 3.0;stroke: rgb(0,0,255);stroke-opacity: 1.0;stroke-linecap: round;stroke-linejoin: round;stroke-dasharray: 10.0, 5.0;shape-rendering:geometricPrecision;" transform="matrix(1,0,0,1,0,0)" clip-path="url(#_1045410466929830clip-2)"/><line x1="492.68" y1="254.76" x2="517.67" y2="241.39" style="stroke-width: 3.0;stroke: rgb(0,0,255);stroke-opacity: 1.0;stroke-linecap: round;stroke-linejoin: round;stroke-dasharray: 10.0, 5.0;shape-rendering:geometricPrecision;" transform="matrix(1,0,0,1,0,0)" clip-path="url(#_1045410466929830clip-2)"/><line x1="517.67" y1="241.39" x2="544.99" y2="227.4" style="stroke-width: 3.0;stroke: rgb(0,0,255);stroke-opacity: 1.0;stroke-linecap: round;stroke-linejoin: round;stroke-dasharray: 10.0, 5.0;shape-rendering:geometricPrecision;" transform="matrix(1,0,0,1,0,0)" clip-path="url(#_1045410466929830clip-2)"/><line x1="544.99" y1="227.4" x2="576.07" y2="212.47" style="stroke-width: 3.0;stroke: rgb(0,0,255);stroke-opacity: 1.0;stroke-linecap: round;stroke-linejoin: round;stroke-dasharray: 10.0, 5.0;shape-rendering:geometricPrecision;" transform="matrix(1,0,0,1,0,0)" clip-path="url(#_1045410466929830clip-2)"/><line x1="576.07" y1="212.47" x2="613.39" y2="195.3" style="stroke-width: 3.0;stroke: rgb(0,0,255);stroke-opacity: 1.0;stroke-linecap: round;stroke-linejoin: round;stroke-dasharray: 10.0, 5.0;shape-rendering:geometricPrecision;" transform="matrix(1,0,0,1,0,0)" clip-path="url(#_1045410466929830clip-2)"/><line x1="613.39" y1="195.3" x2="662.07" y2="174.21" style="stroke-width: 3.0;stroke: rgb(0,0,255);stroke-opacity: 1.0;stroke-linecap: round;stroke-linejoin: round;stroke-dasharray: 10.0, 5.0;shape-rendering:geometricPrecision;" transform="matrix(1,0,0,1,0,0)" clip-path="url(#_1045410466929830clip-2)"/><line x1="662.07" y1="174.21" x2="720.15" y2="150.95" style="stroke-width: 3.0;stroke: rgb(0,0,255);stroke-opacity: 1.0;stroke-linecap: round;stroke-linejoin: round;stroke-dasharray: 10.0, 5.0;shape-rendering:geometricPrecision;" transform="matrix(1,0,0,1,0,0)" clip-path="url(#_1045410466929830clip-2)"/><line x1="720.15" y1="150.95" x2="787.85" y2="125.51" style="stroke-width: 3.0;stroke: rgb(0,0,255);stroke-opacity: 1.0;stroke-linecap: round;stroke-linejoin: round;stroke-dasharray: 10.0, 5.0;shape-rendering:geometricPrecision;" transform="matrix(1,0,0,1,0,0)" clip-path="url(#_1045410466929830clip-2)"/><line x1="787.85" y1="125.51" x2="858.83" y2="100.4" style="stroke-width: 3.0;stroke: rgb(0,0,255);stroke-opacity: 1.0;stroke-linecap: round;stroke-linejoin: round;stroke-dasharray: 10.0, 5.0;shape-rendering:geometricPrecision;" transform="matrix(1,0,0,1,0,0)" clip-path="url(#_1045410466929830clip-2)"/><line x1="858.83" y1="100.4" x2="929.4" y2="77.06" style="stroke-width: 3.0;stroke: rgb(0,0,255);stroke-opacity: 1.0;stroke-linecap: round;stroke-linejoin: round;stroke-dasharray: 10.0, 5.0;shape-rendering:geometricPrecision;" transform="matrix(1,0,0,1,0,0)" clip-path="url(#_1045410466929830clip-2)"/><line x1="388.15" y1="652.94" x2="367.57" y2="638.12" style="stroke-width: 3.0;stroke: rgb(0,0,0);stroke-opacity: 1.0;stroke-linecap: square;shape-rendering:geometricPrecision;" transform="matrix(1,0,0,1,0,0)" clip-path="url(#_1045410466929830clip-2)"/><line x1="367.57" y1="638.12" x2="349.34" y2="623.3" style="stroke-width: 3.0;stroke: rgb(0,0,0);stroke-opacity: 1.0;stroke-linecap: square;shape-rendering:geometricPrecision;" transform="matrix(1,0,0,1,0,0)" clip-path="url(#_1045410466929830clip-2)"/><line x1="349.34" y1="623.3" x2="332.53" y2="608.48" style="stroke-width: 3.0;stroke: rgb(0,0,0);stroke-opacity: 1.0;stroke-linecap: square;shape-rendering:geometricPrecision;" transform="matrix(1,0,0,1,0,0)" clip-path="url(#_1045410466929830clip-2)"/><line x1="332.53" y1="608.48" x2="318.2" y2="593.66" style="stroke-width: 3.0;stroke: rgb(0,0,0);stroke-opacity: 1.0;stroke-linecap: square;shape-rendering:geometricPrecision;" transform="matrix(1,0,0,1,0,0)" clip-path="url(#_1045410466929830clip-2)"/><line x1="318.2" y1="593.66" x2="304.95" y2="578.84" style="stroke-width: 3.0;stroke: rgb(0,0,0);stroke-opacity: 1.0;stroke-linecap: square;shape-rendering:geometricPrecision;" transform="matrix(1,0,0,1,0,0)" clip-path="url(#_1045410466929830clip-2)"/><line x1="304.95" y1="578.84" x2="294.45" y2="564.02" style="stroke-width: 3.0;stroke: rgb(0,0,0);stroke-opacity: 1.0;stroke-linecap: square;shape-rendering:geometricPrecision;" transform="matrix(1,0,0,1,0,0)" clip-path="url(#_1045410466929830clip-2)"/><line x1="294.45" y1="564.02" x2="285.45" y2="549.2" style="stroke-width: 3.0;stroke: rgb(0,0,0);stroke-opacity: 1.0;stroke-linecap: square;shape-rendering:geometricPrecision;" transform="matrix(1,0,0,1,0,0)" clip-path="url(#_1045410466929830clip-2)"/><line x1="285.45" y1="549.2" x2="280.23" y2="534.53" style="stroke-width: 3.0;stroke: rgb(0,0,0);stroke-opacity: 1.0;stroke-linecap: square;shape-rendering:geometricPrecision;" transform="matrix(1,0,0,1,0,0)" clip-path="url(#_1045410466929830clip-2)"/><line x1="280.23" y1="534.53" x2="276.35" y2="519.56" style="stroke-width: 3.0;stroke: rgb(0,0,0);stroke-opacity: 1.0;stroke-linecap: square;shape-rendering:geometricPrecision;" transform="matrix(1,0,0,1,0,0)" clip-path="url(#_1045410466929830clip-2)"/><line x1="276.35" y1="519.56" x2="274.6" y2="504.74" style="stroke-width: 3.0;stroke: rgb(0,0,0);stroke-opacity: 1.0;stroke-linecap: square;shape-rendering:geometricPrecision;" transform="matrix(1,0,0,1,0,0)" clip-path="url(#_1045410466929830clip-2)"/><line x1="274.6" y1="504.74" x2="274.66" y2="490.06" style="stroke-width: 3.0;stroke: rgb(0,0,0);stroke-opacity: 1.0;stroke-linecap: square;shape-rendering:geometricPrecision;" transform="matrix(1,0,0,1,0,0)" clip-path="url(#_1045410466929830clip-2)"/><line x1="274.66" y1="490.06" x2="276.37" y2="475.53" style="stroke-width: 3.0;stroke: rgb(0,0,0);stroke-opacity: 1.0;stroke-linecap: square;shape-rendering:geometricPrecision;" transform="matrix(1,0,0,1,0,0)" clip-path="url(#_1045410466929830clip-2)"/><line x1="276.37" y1="475.53" x2="280.09" y2="461.13" style="stroke-width: 3.0;stroke: rgb(0,0,0);stroke-opacity: 1.0;stroke-linecap: square;shape-rendering:geometricPrecision;" transform="matrix(1,0,0,1,0,0)" clip-path="url(#_1045410466929830clip-2)"/><line x1="280.09" y1="461.13" x2="285.16" y2="446.87" style="stroke-width: 3.0;stroke: rgb(0,0,0);stroke-opacity: 1.0;stroke-linecap: square;shape-rendering:geometricPrecision;" transform="matrix(1,0,0,1,0,0)" clip-path="url(#_1045410466929830clip-2)"/><line x1="285.16" y1="446.87" x2="293.41" y2="432.75" style="stroke-width: 3.0;stroke: rgb(0,0,0);stroke-opacity: 1.0;stroke-linecap: square;shape-rendering:geometricPrecision;" transform="matrix(1,0,0,1,0,0)" clip-path="url(#_1045410466929830clip-2)"/><line x1="293.41" y1="432.75" x2="303.17" y2="418.76" style="stroke-width: 3.0;stroke: rgb(0,0,0);stroke-opacity: 1.0;stroke-linecap: square;shape-rendering:geometricPrecision;" transform="matrix(1,0,0,1,0,0)" clip-path="url(#_1045410466929830clip-2)"/><line x1="303.17" y1="418.76" x2="315.15" y2="404.9" style="stroke-width: 3.0;stroke: rgb(0,0,0);stroke-opacity: 1.0;stroke-linecap: square;shape-rendering:geometricPrecision;" transform="matrix(1,0,0,1,0,0)" clip-path="url(#_1045410466929830clip-2)"/><line x1="315.15" y1="404.9" x2="327.96" y2="391.16" style="stroke-width: 3.0;stroke: rgb(0,0,0);stroke-opacity: 1.0;stroke-linecap: square;shape-rendering:geometricPrecision;" transform="matrix(1,0,0,1,0,0)" clip-path="url(#_1045410466929830clip-2)"/><line x1="327.96" y1="391.16" x2="342.88" y2="377.55" style="stroke-width: 3.0;stroke: rgb(0,0,0);stroke-opacity: 1.0;stroke-linecap: square;shape-rendering:geometricPrecision;" transform="matrix(1,0,0,1,0,0)" clip-path="url(#_1045410466929830clip-2)"/><line x1="342.88" y1="377.55" x2="358.58" y2="364.06" style="stroke-width: 3.0;stroke: rgb(0,0,0);stroke-opacity: 1.0;stroke-linecap: square;shape-rendering:geometricPrecision;" transform="matrix(1,0,0,1,0,0)" clip-path="url(#_1045410466929830clip-2)"/><line x1="358.58" y1="364.06" x2="376.39" y2="350.69" style="stroke-width: 3.0;stroke: rgb(0,0,0);stroke-opacity: 1.0;stroke-linecap: square;shape-rendering:geometricPrecision;" transform="matrix(1,0,0,1,0,0)" clip-path="url(#_1045410466929830clip-2)"/><line x1="376.39" y1="350.69" x2="395.17" y2="337.43" style="stroke-width: 3.0;stroke: rgb(0,0,0);stroke-opacity: 1.0;stroke-linecap: square;shape-rendering:geometricPrecision;" transform="matrix(1,0,0,1,0,0)" clip-path="url(#_1045410466929830clip-2)"/><line x1="395.17" y1="337.43" x2="416.44" y2="324.28" style="stroke-width: 3.0;stroke: rgb(0,0,0);stroke-opacity: 1.0;stroke-linecap: square;shape-rendering:geometricPrecision;" transform="matrix(1,0,0,1,0,0)" clip-path="url(#_1045410466929830clip-2)"/><line x1="416.44" y1="324.28" x2="439.12" y2="311.16" style="stroke-width: 3.0;stroke: rgb(0,0,0);stroke-opacity: 1.0;stroke-linecap: square;shape-rendering:geometricPrecision;" transform="matrix(1,0,0,1,0,0)" clip-path="url(#_1045410466929830clip-2)"/><line x1="439.12" y1="311.16" x2="464.11" y2="297.8" style="stroke-width: 3.0;stroke: rgb(0,0,0);stroke-opacity: 1.0;stroke-linecap: square;shape-rendering:geometricPrecision;" transform="matrix(1,0,0,1,0,0)" clip-path="url(#_1045410466929830clip-2)"/><line x1="464.11" y1="297.8" x2="491.43" y2="283.88" style="stroke-width: 3.0;stroke: rgb(0,0,0);stroke-opacity: 1.0;stroke-linecap: square;shape-rendering:geometricPrecision;" transform="matrix(1,0,0,1,0,0)" clip-path="url(#_1045410466929830clip-2)"/><line x1="491.43" y1="283.88" x2="522.51" y2="269.14" style="stroke-width: 3.0;stroke: rgb(0,0,0);stroke-opacity: 1.0;stroke-linecap: square;shape-rendering:geometricPrecision;" transform="matrix(1,0,0,1,0,0)" clip-path="url(#_1045410466929830clip-2)"/><line x1="522.51" y1="269.14" x2="559.82" y2="252.4" style="stroke-width: 3.0;stroke: rgb(0,0,0);stroke-opacity: 1.0;stroke-linecap: square;shape-rendering:geometricPrecision;" transform="matrix(1,0,0,1,0,0)" clip-path="url(#_1045410466929830clip-2)"/><line x1="559.82" y1="252.4" x2="608.5" y2="232.09" style="stroke-width: 3.0;stroke: rgb(0,0,0);stroke-opacity: 1.0;stroke-linecap: square;shape-rendering:geometricPrecision;" transform="matrix(1,0,0,1,0,0)" clip-path="url(#_1045410466929830clip-2)"/><line x1="608.5" y1="232.09" x2="666.59" y2="209.82" style="stroke-width: 3.0;stroke: rgb(0,0,0);stroke-opacity: 1.0;stroke-linecap: square;shape-rendering:geometricPrecision;" transform="matrix(1,0,0,1,0,0)" clip-path="url(#_1045410466929830clip-2)"/><line x1="666.59" y1="209.82" x2="734.29" y2="185.38" style="stroke-width: 3.0;stroke: rgb(0,0,0);stroke-opacity: 1.0;stroke-linecap: square;shape-rendering:geometricPrecision;" transform="matrix(1,0,0,1,0,0)" clip-path="url(#_1045410466929830clip-2)"/><line x1="734.29" y1="185.38" x2="805.26" y2="160.94" style="stroke-width: 3.0;stroke: rgb(0,0,0);stroke-opacity: 1.0;stroke-linecap: square;shape-rendering:geometricPrecision;" transform="matrix(1,0,0,1,0,0)" clip-path="url(#_1045410466929830clip-2)"/><line x1="805.26" y1="160.94" x2="875.83" y2="137.74" style="stroke-width: 3.0;stroke: rgb(0,0,0);stroke-opacity: 1.0;stroke-linecap: square;shape-rendering:geometricPrecision;" transform="matrix(1,0,0,1,0,0)" clip-path="url(#_1045410466929830clip-2)"/><rect x="64" y="35" width="1076" height="660" style="stroke-width: 0.5;stroke: rgb(0,0,0);stroke-opacity: 1.0;stroke-linecap: round;stroke-linejoin: round;shape-rendering:crispEdges;; fill: none" transform="matrix(1,0,0,1,0,0)" clip-path="url(#_1045410466929830clip-0)"/></svg>
