<!DOCTYPE svg PUBLIC "-//W3C//DTD SVG 1.1//EN" "http://www.w3.org/Graphics/SVG/1.1/DTD/svg11.dtd">
<svg xmlns="http://www.w3.org/2000/svg" xmlns:xlink="http://www.w3.org/1999/xlink" xmlns:jfreesvg="http://www.jfree.org/jfreesvg/svg" width="1152" height="768" text-rendering="auto" shape-rendering="auto">
<defs><clipPath id="_88721318787715clip-0"><path d="M 0 0 L 1152 0 L 1152 768 L 0 768 L 0 0 Z "/></clipPath>
<clipPath id="_88721318787715clip-1"><path d="M 391.5 338.5 L 391.5 1490.5 L -376.5 1490.5 L -376.5 338.5 L 391.5 338.5 Z "/></clipPath>
<clipPath id="_88721318787715clip-2"><path d="M 71 35 L 71 695 L 1140 695 L 1140 35 Z "/></clipPath>
</defs>
<rect x="0" y="0" width="1152" height="768" style="fill: rgb(255,255,255); fill-opacity: 1.0" transform="matrix(1,0,0,1,0,0)" clip-path="url(#_88721318787715clip-0)"/><g transform="matrix(1,0,0,1,0,0)"><text x="353.5" y="21.01" style="fill: rgb(0,0,0); fill-opacity: 1.0; font-family: Tahoma; font-size: 20px; font-weight: bold;" clip-path="url(#_88721318787715clip-0)">Lift_Coefficient_Curve_Clean_Configuration</text></g><rect x="445.5" y="746" width="261" height="21" style="fill: rgb(255,255,255); fill-opacity: 1.0" transform="matrix(1,0,0,1,0,0)" clip-path="url(#_88721318787715clip-0)"/><g style="stroke-width: 3.0;stroke: rgb(0,0,0);stroke-opacity: 1.0;stroke-linecap: square;shape-rendering:geometricPrecision;; fill: none" transform="matrix(1,0,0,1,0,0)" clip-path="url(#_88721318787715clip-0)"><path d="M 448.5 756.5 L 462.5 756.5"/></g><g transform="matrix(1,0,0,1,0,0)"><text x="466.5" y="761.01" style="fill: rgb(64,64,64); fill-opacity: 1.0; font-family: Tahoma; font-size: 12px;" clip-path="url(#_88721318787715clip-0)"> Lift_Coefficient_Curve_Clean_Configuration </text></g><rect x="71" y="35" width="1069" height="660" style="fill: rgb(255,255,255); fill-opacity: 0.0" transform="matrix(1,0,0,1,0,0)" clip-path="url(#_88721318787715clip-0)"/><line x1="71" y1="699" x2="1140" y2="699" style="stroke-width: 0.5;stroke: rgb(128,128,128);stroke-opacity: 1.0;stroke-linecap: square;shape-rendering:crispEdges;" transform="matrix(1,0,0,1,0,0)" clip-path="url(#_88721318787715clip-0)"/><g transform="matrix(1,0,0,1,0,0)"><text x="97.61" y="715.52" style="fill: rgb(64,64,64); fill-opacity: 1.0; font-family: Tahoma; font-size: 12px;" clip-path="url(#_88721318787715clip-0)">-8</text></g><line x1="103.11" y1="701" x2="103.11" y2="699" style="stroke-width: 0.5;stroke: rgb(128,128,128);stroke-opacity: 1.0;stroke-linecap: square;shape-rendering:crispEdges;" transform="matrix(1,0,0,1,0,0)" clip-path="url(#_88721318787715clip-0)"/><g transform="matrix(1,0,0,1,0,0)"><text x="137.44" y="715.52" style="fill: rgb(64,64,64); fill-opacity: 1.0; font-family: Tahoma; font-size: 12px;" clip-path="url(#_88721318787715clip-0)">-7</text></g><line x1="142.94" y1="701" x2="142.94" y2="699" style="stroke-width: 0.5;stroke: rgb(128,128,128);stroke-opacity: 1.0;stroke-linecap: square;shape-rendering:crispEdges;" transform="matrix(1,0,0,1,0,0)" clip-path="url(#_88721318787715clip-0)"/><g transform="matrix(1,0,0,1,0,0)"><text x="177.26" y="715.52" style="fill: rgb(64,64,64); fill-opacity: 1.0; font-family: Tahoma; font-size: 12px;" clip-path="url(#_88721318787715clip-0)">-6</text></g><line x1="182.76" y1="701" x2="182.76" y2="699" style="stroke-width: 0.5;stroke: rgb(128,128,128);stroke-opacity: 1.0;stroke-linecap: square;shape-rendering:crispEdges;" transform="matrix(1,0,0,1,0,0)" clip-path="url(#_88721318787715clip-0)"/><g transform="matrix(1,0,0,1,0,0)"><text x="217.09" y="715.52" style="fill: rgb(64,64,64); fill-opacity: 1.0; font-family: Tahoma; font-size: 12px;" clip-path="url(#_88721318787715clip-0)">-5</text></g><line x1="222.59" y1="701" x2="222.59" y2="699" style="stroke-width: 0.5;stroke: rgb(128,128,128);stroke-opacity: 1.0;stroke-linecap: square;shape-rendering:crispEdges;" transform="matrix(1,0,0,1,0,0)" clip-path="url(#_88721318787715clip-0)"/><g transform="matrix(1,0,0,1,0,0)"><text x="256.91" y="715.52" style="fill: rgb(64,64,64); fill-opacity: 1.0; font-family: Tahoma; font-size: 12px;" clip-path="url(#_88721318787715clip-0)">-4</text></g><line x1="262.41" y1="701" x2="262.41" y2="699" style="stroke-width: 0.5;stroke: rgb(128,128,128);stroke-opacity: 1.0;stroke-linecap: square;shape-rendering:crispEdges;" transform="matrix(1,0,0,1,0,0)" clip-path="url(#_88721318787715clip-0)"/><g transform="matrix(1,0,0,1,0,0)"><text x="296.74" y="715.52" style="fill: rgb(64,64,64); fill-opacity: 1.0; font-family: Tahoma; font-size: 12px;" clip-path="url(#_88721318787715clip-0)">-3</text></g><line x1="302.24" y1="701" x2="302.24" y2="699" style="stroke-width: 0.5;stroke: rgb(128,128,128);stroke-opacity: 1.0;stroke-linecap: square;shape-rendering:crispEdges;" transform="matrix(1,0,0,1,0,0)" clip-path="url(#_88721318787715clip-0)"/><g transform="matrix(1,0,0,1,0,0)"><text x="336.56" y="715.52" style="fill: rgb(64,64,64); fill-opacity: 1.0; font-family: Tahoma; font-size: 12px;" clip-path="url(#_88721318787715clip-0)">-2</text></g><line x1="342.06" y1="701" x2="342.06" y2="699" style="stroke-width: 0.5;stroke: rgb(128,128,128);stroke-opacity: 1.0;stroke-linecap: square;shape-rendering:crispEdges;" transform="matrix(1,0,0,1,0,0)" clip-path="url(#_88721318787715clip-0)"/><g transform="matrix(1,0,0,1,0,0)"><text x="376.39" y="715.52" style="fill: rgb(64,64,64); fill-opacity: 1.0; font-family: Tahoma; font-size: 12px;" clip-path="url(#_88721318787715clip-0)">-1</text></g><line x1="381.89" y1="701" x2="381.89" y2="699" style="stroke-width: 0.5;stroke: rgb(128,128,128);stroke-opacity: 1.0;stroke-linecap: square;shape-rendering:crispEdges;" transform="matrix(1,0,0,1,0,0)" clip-path="url(#_88721318787715clip-0)"/><g transform="matrix(1,0,0,1,0,0)"><text x="418.21" y="715.52" style="fill: rgb(64,64,64); fill-opacity: 1.0; font-family: Tahoma; font-size: 12px;" clip-path="url(#_88721318787715clip-0)">0</text></g><line x1="421.71" y1="701" x2="421.71" y2="699" style="stroke-width: 0.5;stroke: rgb(128,128,128);stroke-opacity: 1.0;stroke-linecap: square;shape-rendering:crispEdges;" transform="matrix(1,0,0,1,0,0)" clip-path="url(#_88721318787715clip-0)"/><g transform="matrix(1,0,0,1,0,0)"><text x="458.04" y="715.52" style="fill: rgb(64,64,64); fill-opacity: 1.0; font-family: Tahoma; font-size: 12px;" clip-path="url(#_88721318787715clip-0)">1</text></g><line x1="461.54" y1="701" x2="461.54" y2="699" style="stroke-width: 0.5;stroke: rgb(128,128,128);stroke-opacity: 1.0;stroke-linecap: square;shape-rendering:crispEdges;" transform="matrix(1,0,0,1,0,0)" clip-path="url(#_88721318787715clip-0)"/><g transform="matrix(1,0,0,1,0,0)"><text x="497.86" y="715.52" style="fill: rgb(64,64,64); fill-opacity: 1.0; font-family: Tahoma; font-size: 12px;" clip-path="url(#_88721318787715clip-0)">2</text></g><line x1="501.36" y1="701" x2="501.36" y2="699" style="stroke-width: 0.5;stroke: rgb(128,128,128);stroke-opacity: 1.0;stroke-linecap: square;shape-rendering:crispEdges;" transform="matrix(1,0,0,1,0,0)" clip-path="url(#_88721318787715clip-0)"/><g transform="matrix(1,0,0,1,0,0)"><text x="537.69" y="715.52" style="fill: rgb(64,64,64); fill-opacity: 1.0; font-family: Tahoma; font-size: 12px;" clip-path="url(#_88721318787715clip-0)">3</text></g><line x1="541.19" y1="701" x2="541.19" y2="699" style="stroke-width: 0.5;stroke: rgb(128,128,128);stroke-opacity: 1.0;stroke-linecap: square;shape-rendering:crispEdges;" transform="matrix(1,0,0,1,0,0)" clip-path="url(#_88721318787715clip-0)"/><g transform="matrix(1,0,0,1,0,0)"><text x="577.51" y="715.52" style="fill: rgb(64,64,64); fill-opacity: 1.0; font-family: Tahoma; font-size: 12px;" clip-path="url(#_88721318787715clip-0)">4</text></g><line x1="581.01" y1="701" x2="581.01" y2="699" style="stroke-width: 0.5;stroke: rgb(128,128,128);stroke-opacity: 1.0;stroke-linecap: square;shape-rendering:crispEdges;" transform="matrix(1,0,0,1,0,0)" clip-path="url(#_88721318787715clip-0)"/><g transform="matrix(1,0,0,1,0,0)"><text x="617.34" y="715.52" style="fill: rgb(64,64,64); fill-opacity: 1.0; font-family: Tahoma; font-size: 12px;" clip-path="url(#_88721318787715clip-0)">5</text></g><line x1="620.84" y1="701" x2="620.84" y2="699" style="stroke-width: 0.5;stroke: rgb(128,128,128);stroke-opacity: 1.0;stroke-linecap: square;shape-rendering:crispEdges;" transform="matrix(1,0,0,1,0,0)" clip-path="url(#_88721318787715clip-0)"/><g transform="matrix(1,0,0,1,0,0)"><text x="657.16" y="715.52" style="fill: rgb(64,64,64); fill-opacity: 1.0; font-family: Tahoma; font-size: 12px;" clip-path="url(#_88721318787715clip-0)">6</text></g><line x1="660.66" y1="701" x2="660.66" y2="699" style="stroke-width: 0.5;stroke: rgb(128,128,128);stroke-opacity: 1.0;stroke-linecap: square;shape-rendering:crispEdges;" transform="matrix(1,0,0,1,0,0)" clip-path="url(#_88721318787715clip-0)"/><g transform="matrix(1,0,0,1,0,0)"><text x="696.99" y="715.52" style="fill: rgb(64,64,64); fill-opacity: 1.0; font-family: Tahoma; font-size: 12px;" clip-path="url(#_88721318787715clip-0)">7</text></g><line x1="700.49" y1="701" x2="700.49" y2="699" style="stroke-width: 0.5;stroke: rgb(128,128,128);stroke-opacity: 1.0;stroke-linecap: square;shape-rendering:crispEdges;" transform="matrix(1,0,0,1,0,0)" clip-path="url(#_88721318787715clip-0)"/><g transform="matrix(1,0,0,1,0,0)"><text x="736.81" y="715.52" style="fill: rgb(64,64,64); fill-opacity: 1.0; font-family: Tahoma; font-size: 12px;" clip-path="url(#_88721318787715clip-0)">8</text></g><line x1="740.31" y1="701" x2="740.31" y2="699" style="stroke-width: 0.5;stroke: rgb(128,128,128);stroke-opacity: 1.0;stroke-linecap: square;shape-rendering:crispEdges;" transform="matrix(1,0,0,1,0,0)" clip-path="url(#_88721318787715clip-0)"/><g transform="matrix(1,0,0,1,0,0)"><text x="776.64" y="715.52" style="fill: rgb(64,64,64); fill-opacity: 1.0; font-family: Tahoma; font-size: 12px;" clip-path="url(#_88721318787715clip-0)">9</text></g><line x1="780.14" y1="701" x2="780.14" y2="699" style="stroke-width: 0.5;stroke: rgb(128,128,128);stroke-opacity: 1.0;stroke-linecap: square;shape-rendering:crispEdges;" transform="matrix(1,0,0,1,0,0)" clip-path="url(#_88721318787715clip-0)"/><g transform="matrix(1,0,0,1,0,0)"><text x="813.46" y="715.52" style="fill: rgb(64,64,64); fill-opacity: 1.0; font-family: Tahoma; font-size: 12px;" clip-path="url(#_88721318787715clip-0)">10</text></g><line x1="819.96" y1="701" x2="819.96" y2="699" style="stroke-width: 0.5;stroke: rgb(128,128,128);stroke-opacity: 1.0;stroke-linecap: square;shape-rendering:crispEdges;" transform="matrix(1,0,0,1,0,0)" clip-path="url(#_88721318787715clip-0)"/><g transform="matrix(1,0,0,1,0,0)"><text x="853.29" y="715.52" style="fill: rgb(64,64,64); fill-opacity: 1.0; font-family: Tahoma; font-size: 12px;" clip-path="url(#_88721318787715clip-0)">11</text></g><line x1="859.79" y1="701" x2="859.79" y2="699" style="stroke-width: 0.5;stroke: rgb(128,128,128);stroke-opacity: 1.0;stroke-linecap: square;shape-rendering:crispEdges;" transform="matrix(1,0,0,1,0,0)" clip-path="url(#_88721318787715clip-0)"/><g transform="matrix(1,0,0,1,0,0)"><text x="893.11" y="715.52" style="fill: rgb(64,64,64); fill-opacity: 1.0; font-family: Tahoma; font-size: 12px;" clip-path="url(#_88721318787715clip-0)">12</text></g><line x1="899.61" y1="701" x2="899.61" y2="699" style="stroke-width: 0.5;stroke: rgb(128,128,128);stroke-opacity: 1.0;stroke-linecap: square;shape-rendering:crispEdges;" transform="matrix(1,0,0,1,0,0)" clip-path="url(#_88721318787715clip-0)"/><g transform="matrix(1,0,0,1,0,0)"><text x="932.94" y="715.52" style="fill: rgb(64,64,64); fill-opacity: 1.0; font-family: Tahoma; font-size: 12px;" clip-path="url(#_88721318787715clip-0)">13</text></g><line x1="939.44" y1="701" x2="939.44" y2="699" style="stroke-width: 0.5;stroke: rgb(128,128,128);stroke-opacity: 1.0;stroke-linecap: square;shape-rendering:crispEdges;" transform="matrix(1,0,0,1,0,0)" clip-path="url(#_88721318787715clip-0)"/><g transform="matrix(1,0,0,1,0,0)"><text x="972.76" y="715.52" style="fill: rgb(64,64,64); fill-opacity: 1.0; font-family: Tahoma; font-size: 12px;" clip-path="url(#_88721318787715clip-0)">14</text></g><line x1="979.26" y1="701" x2="979.26" y2="699" style="stroke-width: 0.5;stroke: rgb(128,128,128);stroke-opacity: 1.0;stroke-linecap: square;shape-rendering:crispEdges;" transform="matrix(1,0,0,1,0,0)" clip-path="url(#_88721318787715clip-0)"/><g transform="matrix(1,0,0,1,0,0)"><text x="1012.59" y="715.52" style="fill: rgb(64,64,64); fill-opacity: 1.0; font-family: Tahoma; font-size: 12px;" clip-path="url(#_88721318787715clip-0)">15</text></g><line x1="1019.09" y1="701" x2="1019.09" y2="699" style="stroke-width: 0.5;stroke: rgb(128,128,128);stroke-opacity: 1.0;stroke-linecap: square;shape-rendering:crispEdges;" transform="matrix(1,0,0,1,0,0)" clip-path="url(#_88721318787715clip-0)"/><g transform="matrix(1,0,0,1,0,0)"><text x="1052.41" y="715.52" style="fill: rgb(64,64,64); fill-opacity: 1.0; font-family: Tahoma; font-size: 12px;" clip-path="url(#_88721318787715clip-0)">16</text></g><line x1="1058.91" y1="701" x2="1058.91" y2="699" style="stroke-width: 0.5;stroke: rgb(128,128,128);stroke-opacity: 1.0;stroke-linecap: square;shape-rendering:crispEdges;" transform="matrix(1,0,0,1,0,0)" clip-path="url(#_88721318787715clip-0)"/><g transform="matrix(1,0,0,1,0,0)"><text x="1092.24" y="715.52" style="fill: rgb(64,64,64); fill-opacity: 1.0; font-family: Tahoma; font-size: 12px;" clip-path="url(#_88721318787715clip-0)">17</text></g><line x1="1098.74" y1="701" x2="1098.74" y2="699" style="stroke-width: 0.5;stroke: rgb(128,128,128);stroke-opacity: 1.0;stroke-linecap: square;shape-rendering:crispEdges;" transform="matrix(1,0,0,1,0,0)" clip-path="url(#_88721318787715clip-0)"/><g transform="matrix(1,0,0,1,0,0)"><text x="1132.06" y="715.52" style="fill: rgb(64,64,64); fill-opacity: 1.0; font-family: Tahoma; font-size: 12px;" clip-path="url(#_88721318787715clip-0)">18</text></g><line x1="1138.56" y1="701" x2="1138.56" y2="699" style="stroke-width: 0.5;stroke: rgb(128,128,128);stroke-opacity: 1.0;stroke-linecap: square;shape-rendering:crispEdges;" transform="matrix(1,0,0,1,0,0)" clip-path="url(#_88721318787715clip-0)"/><g transform="matrix(1,0,0,1,0,0)"><text x="556" y="734.59" style="fill: rgb(64,64,64); fill-opacity: 1.0; font-family: Tahoma; font-size: 14px; font-weight: bold;" clip-path="url(#_88721318787715clip-0)">alpha_h (deg)</text></g><line x1="67" y1="35" x2="67" y2="695" style="stroke-width: 0.5;stroke: rgb(128,128,128);stroke-opacity: 1.0;stroke-linecap: square;shape-rendering:crispEdges;" transform="matrix(1,0,0,1,0,0)" clip-path="url(#_88721318787715clip-0)"/><g transform="matrix(1,0,0,1,0,0)"><text x="40" y="698.5" style="fill: rgb(64,64,64); fill-opacity: 1.0; font-family: Tahoma; font-size: 12px;" clip-path="url(#_88721318787715clip-0)">-0,6</text></g><line x1="65" y1="693.48" x2="67" y2="693.48" style="stroke-width: 0.5;stroke: rgb(128,128,128);stroke-opacity: 1.0;stroke-linecap: square;shape-rendering:crispEdges;" transform="matrix(1,0,0,1,0,0)" clip-path="url(#_88721318787715clip-0)"/><g transform="matrix(1,0,0,1,0,0)"><text x="40" y="662.89" style="fill: rgb(64,64,64); fill-opacity: 1.0; font-family: Tahoma; font-size: 12px;" clip-path="url(#_88721318787715clip-0)">-0,5</text></g><line x1="65" y1="657.87" x2="67" y2="657.87" style="stroke-width: 0.5;stroke: rgb(128,128,128);stroke-opacity: 1.0;stroke-linecap: square;shape-rendering:crispEdges;" transform="matrix(1,0,0,1,0,0)" clip-path="url(#_88721318787715clip-0)"/><g transform="matrix(1,0,0,1,0,0)"><text x="40" y="627.28" style="fill: rgb(64,64,64); fill-opacity: 1.0; font-family: Tahoma; font-size: 12px;" clip-path="url(#_88721318787715clip-0)">-0,4</text></g><line x1="65" y1="622.26" x2="67" y2="622.26" style="stroke-width: 0.5;stroke: rgb(128,128,128);stroke-opacity: 1.0;stroke-linecap: square;shape-rendering:crispEdges;" transform="matrix(1,0,0,1,0,0)" clip-path="url(#_88721318787715clip-0)"/><g transform="matrix(1,0,0,1,0,0)"><text x="40" y="591.68" style="fill: rgb(64,64,64); fill-opacity: 1.0; font-family: Tahoma; font-size: 12px;" clip-path="url(#_88721318787715clip-0)">-0,3</text></g><line x1="65" y1="586.65" x2="67" y2="586.65" style="stroke-width: 0.5;stroke: rgb(128,128,128);stroke-opacity: 1.0;stroke-linecap: square;shape-rendering:crispEdges;" transform="matrix(1,0,0,1,0,0)" clip-path="url(#_88721318787715clip-0)"/><g transform="matrix(1,0,0,1,0,0)"><text x="40" y="556.07" style="fill: rgb(64,64,64); fill-opacity: 1.0; font-family: Tahoma; font-size: 12px;" clip-path="url(#_88721318787715clip-0)">-0,2</text></g><line x1="65" y1="551.05" x2="67" y2="551.05" style="stroke-width: 0.5;stroke: rgb(128,128,128);stroke-opacity: 1.0;stroke-linecap: square;shape-rendering:crispEdges;" transform="matrix(1,0,0,1,0,0)" clip-path="url(#_88721318787715clip-0)"/><g transform="matrix(1,0,0,1,0,0)"><text x="40" y="520.46" style="fill: rgb(64,64,64); fill-opacity: 1.0; font-family: Tahoma; font-size: 12px;" clip-path="url(#_88721318787715clip-0)">-0,1</text></g><line x1="65" y1="515.44" x2="67" y2="515.44" style="stroke-width: 0.5;stroke: rgb(128,128,128);stroke-opacity: 1.0;stroke-linecap: square;shape-rendering:crispEdges;" transform="matrix(1,0,0,1,0,0)" clip-path="url(#_88721318787715clip-0)"/><g transform="matrix(1,0,0,1,0,0)"><text x="44" y="484.85" style="fill: rgb(64,64,64); fill-opacity: 1.0; font-family: Tahoma; font-size: 12px;" clip-path="url(#_88721318787715clip-0)">0,0</text></g><line x1="65" y1="479.83" x2="67" y2="479.83" style="stroke-width: 0.5;stroke: rgb(128,128,128);stroke-opacity: 1.0;stroke-linecap: square;shape-rendering:crispEdges;" transform="matrix(1,0,0,1,0,0)" clip-path="url(#_88721318787715clip-0)"/><g transform="matrix(1,0,0,1,0,0)"><text x="44" y="449.24" style="fill: rgb(64,64,64); fill-opacity: 1.0; font-family: Tahoma; font-size: 12px;" clip-path="url(#_88721318787715clip-0)">0,1</text></g><line x1="65" y1="444.22" x2="67" y2="444.22" style="stroke-width: 0.5;stroke: rgb(128,128,128);stroke-opacity: 1.0;stroke-linecap: square;shape-rendering:crispEdges;" transform="matrix(1,0,0,1,0,0)" clip-path="url(#_88721318787715clip-0)"/><g transform="matrix(1,0,0,1,0,0)"><text x="44" y="413.64" style="fill: rgb(64,64,64); fill-opacity: 1.0; font-family: Tahoma; font-size: 12px;" clip-path="url(#_88721318787715clip-0)">0,2</text></g><line x1="65" y1="408.62" x2="67" y2="408.62" style="stroke-width: 0.5;stroke: rgb(128,128,128);stroke-opacity: 1.0;stroke-linecap: square;shape-rendering:crispEdges;" transform="matrix(1,0,0,1,0,0)" clip-path="url(#_88721318787715clip-0)"/><g transform="matrix(1,0,0,1,0,0)"><text x="44" y="378.03" style="fill: rgb(64,64,64); fill-opacity: 1.0; font-family: Tahoma; font-size: 12px;" clip-path="url(#_88721318787715clip-0)">0,3</text></g><line x1="65" y1="373.01" x2="67" y2="373.01" style="stroke-width: 0.5;stroke: rgb(128,128,128);stroke-opacity: 1.0;stroke-linecap: square;shape-rendering:crispEdges;" transform="matrix(1,0,0,1,0,0)" clip-path="url(#_88721318787715clip-0)"/><g transform="matrix(1,0,0,1,0,0)"><text x="44" y="342.42" style="fill: rgb(64,64,64); fill-opacity: 1.0; font-family: Tahoma; font-size: 12px;" clip-path="url(#_88721318787715clip-0)">0,4</text></g><line x1="65" y1="337.4" x2="67" y2="337.4" style="stroke-width: 0.5;stroke: rgb(128,128,128);stroke-opacity: 1.0;stroke-linecap: square;shape-rendering:crispEdges;" transform="matrix(1,0,0,1,0,0)" clip-path="url(#_88721318787715clip-0)"/><g transform="matrix(1,0,0,1,0,0)"><text x="44" y="306.81" style="fill: rgb(64,64,64); fill-opacity: 1.0; font-family: Tahoma; font-size: 12px;" clip-path="url(#_88721318787715clip-0)">0,5</text></g><line x1="65" y1="301.79" x2="67" y2="301.79" style="stroke-width: 0.5;stroke: rgb(128,128,128);stroke-opacity: 1.0;stroke-linecap: square;shape-rendering:crispEdges;" transform="matrix(1,0,0,1,0,0)" clip-path="url(#_88721318787715clip-0)"/><g transform="matrix(1,0,0,1,0,0)"><text x="44" y="271.21" style="fill: rgb(64,64,64); fill-opacity: 1.0; font-family: Tahoma; font-size: 12px;" clip-path="url(#_88721318787715clip-0)">0,6</text></g><line x1="65" y1="266.18" x2="67" y2="266.18" style="stroke-width: 0.5;stroke: rgb(128,128,128);stroke-opacity: 1.0;stroke-linecap: square;shape-rendering:crispEdges;" transform="matrix(1,0,0,1,0,0)" clip-path="url(#_88721318787715clip-0)"/><g transform="matrix(1,0,0,1,0,0)"><text x="44" y="235.6" style="fill: rgb(64,64,64); fill-opacity: 1.0; font-family: Tahoma; font-size: 12px;" clip-path="url(#_88721318787715clip-0)">0,7</text></g><line x1="65" y1="230.58" x2="67" y2="230.58" style="stroke-width: 0.5;stroke: rgb(128,128,128);stroke-opacity: 1.0;stroke-linecap: square;shape-rendering:crispEdges;" transform="matrix(1,0,0,1,0,0)" clip-path="url(#_88721318787715clip-0)"/><g transform="matrix(1,0,0,1,0,0)"><text x="44" y="199.99" style="fill: rgb(64,64,64); fill-opacity: 1.0; font-family: Tahoma; font-size: 12px;" clip-path="url(#_88721318787715clip-0)">0,8</text></g><line x1="65" y1="194.97" x2="67" y2="194.97" style="stroke-width: 0.5;stroke: rgb(128,128,128);stroke-opacity: 1.0;stroke-linecap: square;shape-rendering:crispEdges;" transform="matrix(1,0,0,1,0,0)" clip-path="url(#_88721318787715clip-0)"/><g transform="matrix(1,0,0,1,0,0)"><text x="44" y="164.38" style="fill: rgb(64,64,64); fill-opacity: 1.0; font-family: Tahoma; font-size: 12px;" clip-path="url(#_88721318787715clip-0)">0,9</text></g><line x1="65" y1="159.36" x2="67" y2="159.36" style="stroke-width: 0.5;stroke: rgb(128,128,128);stroke-opacity: 1.0;stroke-linecap: square;shape-rendering:crispEdges;" transform="matrix(1,0,0,1,0,0)" clip-path="url(#_88721318787715clip-0)"/><g transform="matrix(1,0,0,1,0,0)"><text x="44" y="128.77" style="fill: rgb(64,64,64); fill-opacity: 1.0; font-family: Tahoma; font-size: 12px;" clip-path="url(#_88721318787715clip-0)">1,0</text></g><line x1="65" y1="123.75" x2="67" y2="123.75" style="stroke-width: 0.5;stroke: rgb(128,128,128);stroke-opacity: 1.0;stroke-linecap: square;shape-rendering:crispEdges;" transform="matrix(1,0,0,1,0,0)" clip-path="url(#_88721318787715clip-0)"/><g transform="matrix(1,0,0,1,0,0)"><text x="44" y="93.17" style="fill: rgb(64,64,64); fill-opacity: 1.0; font-family: Tahoma; font-size: 12px;" clip-path="url(#_88721318787715clip-0)">1,1</text></g><line x1="65" y1="88.15" x2="67" y2="88.15" style="stroke-width: 0.5;stroke: rgb(128,128,128);stroke-opacity: 1.0;stroke-linecap: square;shape-rendering:crispEdges;" transform="matrix(1,0,0,1,0,0)" clip-path="url(#_88721318787715clip-0)"/><g transform="matrix(1,0,0,1,0,0)"><text x="44" y="57.56" style="fill: rgb(64,64,64); fill-opacity: 1.0; font-family: Tahoma; font-size: 12px;" clip-path="url(#_88721318787715clip-0)">1,2</text></g><line x1="65" y1="52.54" x2="67" y2="52.54" style="stroke-width: 0.5;stroke: rgb(128,128,128);stroke-opacity: 1.0;stroke-linecap: square;shape-rendering:crispEdges;" transform="matrix(1,0,0,1,0,0)" clip-path="url(#_88721318787715clip-0)"/><g style="fill: rgb(64,64,64); fill-opacity: 1.0; stroke: none" transform="matrix(0,-1,1,0,-338.5,391.5)" clip-path="url(#_88721318787715clip-1)"><path d="M 21.44 370.81 Q 19.16 370.81 17.8 369.42 Q 16.45 368.03 16.45 365.53 Q 16.45 363.11 17.8 361.67 Q 19.16 360.23 21.45 360.23 Q 22.06 360.23 22.55 360.3 Q 23.03 360.37 23.47 360.48 Q 23.83 360.59 24.23 360.77 Q 24.64 360.95 24.89 361.08 L 24.89 363.5 L 24.64 363.5 Q 24.45 363.34 24.17 363.12 Q 23.89 362.89 23.53 362.67 Q 23.17 362.45 22.75 362.3 Q 22.33 362.14 21.86 362.14 Q 21.31 362.14 20.84 362.31 Q 20.38 362.48 19.97 362.92 Q 19.58 363.31 19.34 363.98 Q 19.09 364.64 19.09 365.53 Q 19.09 366.48 19.35 367.13 Q 19.61 367.78 20.02 368.17 Q 20.41 368.56 20.9 368.73 Q 21.39 368.91 21.88 368.91 Q 22.38 368.91 22.84 368.73 Q 23.3 368.56 23.61 368.36 Q 23.95 368.14 24.21 367.92 Q 24.47 367.7 24.66 367.55 L 24.89 367.55 L 24.89 369.94 Q 24.61 370.06 24.24 370.23 Q 23.88 370.39 23.48 370.51 Q 23 370.66 22.59 370.73 Q 22.17 370.81 21.44 370.81 Z  M 33.19 370.61 L 26.39 370.61 L 26.39 360.44 L 28.95 360.44 L 28.95 368.67 L 33.19 368.67 L 33.19 370.61 Z "/></g><line x1="103.11" y1="35" x2="103.11" y2="695" style="stroke-width: 0.5;stroke: rgb(192,192,192);stroke-opacity: 1.0;stroke-linejoin: bevel;stroke-dasharray: 2.0, 2.0;shape-rendering:crispEdges;" transform="matrix(1,0,0,1,0,0)" clip-path="url(#_88721318787715clip-2)"/><line x1="142.94" y1="35" x2="142.94" y2="695" style="stroke-width: 0.5;stroke: rgb(192,192,192);stroke-opacity: 1.0;stroke-linejoin: bevel;stroke-dasharray: 2.0, 2.0;shape-rendering:crispEdges;" transform="matrix(1,0,0,1,0,0)" clip-path="url(#_88721318787715clip-2)"/><line x1="182.76" y1="35" x2="182.76" y2="695" style="stroke-width: 0.5;stroke: rgb(192,192,192);stroke-opacity: 1.0;stroke-linejoin: bevel;stroke-dasharray: 2.0, 2.0;shape-rendering:crispEdges;" transform="matrix(1,0,0,1,0,0)" clip-path="url(#_88721318787715clip-2)"/><line x1="222.59" y1="35" x2="222.59" y2="695" style="stroke-width: 0.5;stroke: rgb(192,192,192);stroke-opacity: 1.0;stroke-linejoin: bevel;stroke-dasharray: 2.0, 2.0;shape-rendering:crispEdges;" transform="matrix(1,0,0,1,0,0)" clip-path="url(#_88721318787715clip-2)"/><line x1="262.41" y1="35" x2="262.41" y2="695" style="stroke-width: 0.5;stroke: rgb(192,192,192);stroke-opacity: 1.0;stroke-linejoin: bevel;stroke-dasharray: 2.0, 2.0;shape-rendering:crispEdges;" transform="matrix(1,0,0,1,0,0)" clip-path="url(#_88721318787715clip-2)"/><line x1="302.24" y1="35" x2="302.24" y2="695" style="stroke-width: 0.5;stroke: rgb(192,192,192);stroke-opacity: 1.0;stroke-linejoin: bevel;stroke-dasharray: 2.0, 2.0;shape-rendering:crispEdges;" transform="matrix(1,0,0,1,0,0)" clip-path="url(#_88721318787715clip-2)"/><line x1="342.06" y1="35" x2="342.06" y2="695" style="stroke-width: 0.5;stroke: rgb(192,192,192);stroke-opacity: 1.0;stroke-linejoin: bevel;stroke-dasharray: 2.0, 2.0;shape-rendering:crispEdges;" transform="matrix(1,0,0,1,0,0)" clip-path="url(#_88721318787715clip-2)"/><line x1="381.89" y1="35" x2="381.89" y2="695" style="stroke-width: 0.5;stroke: rgb(192,192,192);stroke-opacity: 1.0;stroke-linejoin: bevel;stroke-dasharray: 2.0, 2.0;shape-rendering:crispEdges;" transform="matrix(1,0,0,1,0,0)" clip-path="url(#_88721318787715clip-2)"/><line x1="421.71" y1="35" x2="421.71" y2="695" style="stroke-width: 0.5;stroke: rgb(192,192,192);stroke-opacity: 1.0;stroke-linejoin: bevel;stroke-dasharray: 2.0, 2.0;shape-rendering:crispEdges;" transform="matrix(1,0,0,1,0,0)" clip-path="url(#_88721318787715clip-2)"/><line x1="461.54" y1="35" x2="461.54" y2="695" style="stroke-width: 0.5;stroke: rgb(192,192,192);stroke-opacity: 1.0;stroke-linejoin: bevel;stroke-dasharray: 2.0, 2.0;shape-rendering:crispEdges;" transform="matrix(1,0,0,1,0,0)" clip-path="url(#_88721318787715clip-2)"/><line x1="501.36" y1="35" x2="501.36" y2="695" style="stroke-width: 0.5;stroke: rgb(192,192,192);stroke-opacity: 1.0;stroke-linejoin: bevel;stroke-dasharray: 2.0, 2.0;shape-rendering:crispEdges;" transform="matrix(1,0,0,1,0,0)" clip-path="url(#_88721318787715clip-2)"/><line x1="541.19" y1="35" x2="541.19" y2="695" style="stroke-width: 0.5;stroke: rgb(192,192,192);stroke-opacity: 1.0;stroke-linejoin: bevel;stroke-dasharray: 2.0, 2.0;shape-rendering:crispEdges;" transform="matrix(1,0,0,1,0,0)" clip-path="url(#_88721318787715clip-2)"/><line x1="581.01" y1="35" x2="581.01" y2="695" style="stroke-width: 0.5;stroke: rgb(192,192,192);stroke-opacity: 1.0;stroke-linejoin: bevel;stroke-dasharray: 2.0, 2.0;shape-rendering:crispEdges;" transform="matrix(1,0,0,1,0,0)" clip-path="url(#_88721318787715clip-2)"/><line x1="620.84" y1="35" x2="620.84" y2="695" style="stroke-width: 0.5;stroke: rgb(192,192,192);stroke-opacity: 1.0;stroke-linejoin: bevel;stroke-dasharray: 2.0, 2.0;shape-rendering:crispEdges;" transform="matrix(1,0,0,1,0,0)" clip-path="url(#_88721318787715clip-2)"/><line x1="660.66" y1="35" x2="660.66" y2="695" style="stroke-width: 0.5;stroke: rgb(192,192,192);stroke-opacity: 1.0;stroke-linejoin: bevel;stroke-dasharray: 2.0, 2.0;shape-rendering:crispEdges;" transform="matrix(1,0,0,1,0,0)" clip-path="url(#_88721318787715clip-2)"/><line x1="700.49" y1="35" x2="700.49" y2="695" style="stroke-width: 0.5;stroke: rgb(192,192,192);stroke-opacity: 1.0;stroke-linejoin: bevel;stroke-dasharray: 2.0, 2.0;shape-rendering:crispEdges;" transform="matrix(1,0,0,1,0,0)" clip-path="url(#_88721318787715clip-2)"/><line x1="740.31" y1="35" x2="740.31" y2="695" style="stroke-width: 0.5;stroke: rgb(192,192,192);stroke-opacity: 1.0;stroke-linejoin: bevel;stroke-dasharray: 2.0, 2.0;shape-rendering:crispEdges;" transform="matrix(1,0,0,1,0,0)" clip-path="url(#_88721318787715clip-2)"/><line x1="780.14" y1="35" x2="780.14" y2="695" style="stroke-width: 0.5;stroke: rgb(192,192,192);stroke-opacity: 1.0;stroke-linejoin: bevel;stroke-dasharray: 2.0, 2.0;shape-rendering:crispEdges;" transform="matrix(1,0,0,1,0,0)" clip-path="url(#_88721318787715clip-2)"/><line x1="819.96" y1="35" x2="819.96" y2="695" style="stroke-width: 0.5;stroke: rgb(192,192,192);stroke-opacity: 1.0;stroke-linejoin: bevel;stroke-dasharray: 2.0, 2.0;shape-rendering:crispEdges;" transform="matrix(1,0,0,1,0,0)" clip-path="url(#_88721318787715clip-2)"/><line x1="859.79" y1="35" x2="859.79" y2="695" style="stroke-width: 0.5;stroke: rgb(192,192,192);stroke-opacity: 1.0;stroke-linejoin: bevel;stroke-dasharray: 2.0, 2.0;shape-rendering:crispEdges;" transform="matrix(1,0,0,1,0,0)" clip-path="url(#_88721318787715clip-2)"/><line x1="899.61" y1="35" x2="899.61" y2="695" style="stroke-width: 0.5;stroke: rgb(192,192,192);stroke-opacity: 1.0;stroke-linejoin: bevel;stroke-dasharray: 2.0, 2.0;shape-rendering:crispEdges;" transform="matrix(1,0,0,1,0,0)" clip-path="url(#_88721318787715clip-2)"/><line x1="939.44" y1="35" x2="939.44" y2="695" style="stroke-width: 0.5;stroke: rgb(192,192,192);stroke-opacity: 1.0;stroke-linejoin: bevel;stroke-dasharray: 2.0, 2.0;shape-rendering:crispEdges;" transform="matrix(1,0,0,1,0,0)" clip-path="url(#_88721318787715clip-2)"/><line x1="979.26" y1="35" x2="979.26" y2="695" style="stroke-width: 0.5;stroke: rgb(192,192,192);stroke-opacity: 1.0;stroke-linejoin: bevel;stroke-dasharray: 2.0, 2.0;shape-rendering:crispEdges;" transform="matrix(1,0,0,1,0,0)" clip-path="url(#_88721318787715clip-2)"/><line x1="1019.09" y1="35" x2="1019.09" y2="695" style="stroke-width: 0.5;stroke: rgb(192,192,192);stroke-opacity: 1.0;stroke-linejoin: bevel;stroke-dasharray: 2.0, 2.0;shape-rendering:crispEdges;" transform="matrix(1,0,0,1,0,0)" clip-path="url(#_88721318787715clip-2)"/><line x1="1058.91" y1="35" x2="1058.91" y2="695" style="stroke-width: 0.5;stroke: rgb(192,192,192);stroke-opacity: 1.0;stroke-linejoin: bevel;stroke-dasharray: 2.0, 2.0;shape-rendering:crispEdges;" transform="matrix(1,0,0,1,0,0)" clip-path="url(#_88721318787715clip-2)"/><line x1="1098.74" y1="35" x2="1098.74" y2="695" style="stroke-width: 0.5;stroke: rgb(192,192,192);stroke-opacity: 1.0;stroke-linejoin: bevel;stroke-dasharray: 2.0, 2.0;shape-rendering:crispEdges;" transform="matrix(1,0,0,1,0,0)" clip-path="url(#_88721318787715clip-2)"/><line x1="1138.56" y1="35" x2="1138.56" y2="695" style="stroke-width: 0.5;stroke: rgb(192,192,192);stroke-opacity: 1.0;stroke-linejoin: bevel;stroke-dasharray: 2.0, 2.0;shape-rendering:crispEdges;" transform="matrix(1,0,0,1,0,0)" clip-path="url(#_88721318787715clip-2)"/><line x1="71" y1="693.48" x2="1140" y2="693.48" style="stroke-width: 0.5;stroke: rgb(192,192,192);stroke-opacity: 1.0;stroke-linejoin: bevel;stroke-dasharray: 2.0, 2.0;shape-rendering:crispEdges;" transform="matrix(1,0,0,1,0,0)" clip-path="url(#_88721318787715clip-2)"/><line x1="71" y1="657.87" x2="1140" y2="657.87" style="stroke-width: 0.5;stroke: rgb(192,192,192);stroke-opacity: 1.0;stroke-linejoin: bevel;stroke-dasharray: 2.0, 2.0;shape-rendering:crispEdges;" transform="matrix(1,0,0,1,0,0)" clip-path="url(#_88721318787715clip-2)"/><line x1="71" y1="622.26" x2="1140" y2="622.26" style="stroke-width: 0.5;stroke: rgb(192,192,192);stroke-opacity: 1.0;stroke-linejoin: bevel;stroke-dasharray: 2.0, 2.0;shape-rendering:crispEdges;" transform="matrix(1,0,0,1,0,0)" clip-path="url(#_88721318787715clip-2)"/><line x1="71" y1="586.65" x2="1140" y2="586.65" style="stroke-width: 0.5;stroke: rgb(192,192,192);stroke-opacity: 1.0;stroke-linejoin: bevel;stroke-dasharray: 2.0, 2.0;shape-rendering:crispEdges;" transform="matrix(1,0,0,1,0,0)" clip-path="url(#_88721318787715clip-2)"/><line x1="71" y1="551.05" x2="1140" y2="551.05" style="stroke-width: 0.5;stroke: rgb(192,192,192);stroke-opacity: 1.0;stroke-linejoin: bevel;stroke-dasharray: 2.0, 2.0;shape-rendering:crispEdges;" transform="matrix(1,0,0,1,0,0)" clip-path="url(#_88721318787715clip-2)"/><line x1="71" y1="515.44" x2="1140" y2="515.44" style="stroke-width: 0.5;stroke: rgb(192,192,192);stroke-opacity: 1.0;stroke-linejoin: bevel;stroke-dasharray: 2.0, 2.0;shape-rendering:crispEdges;" transform="matrix(1,0,0,1,0,0)" clip-path="url(#_88721318787715clip-2)"/><line x1="71" y1="479.83" x2="1140" y2="479.83" style="stroke-width: 0.5;stroke: rgb(192,192,192);stroke-opacity: 1.0;stroke-linejoin: bevel;stroke-dasharray: 2.0, 2.0;shape-rendering:crispEdges;" transform="matrix(1,0,0,1,0,0)" clip-path="url(#_88721318787715clip-2)"/><line x1="71" y1="444.22" x2="1140" y2="444.22" style="stroke-width: 0.5;stroke: rgb(192,192,192);stroke-opacity: 1.0;stroke-linejoin: bevel;stroke-dasharray: 2.0, 2.0;shape-rendering:crispEdges;" transform="matrix(1,0,0,1,0,0)" clip-path="url(#_88721318787715clip-2)"/><line x1="71" y1="408.62" x2="1140" y2="408.62" style="stroke-width: 0.5;stroke: rgb(192,192,192);stroke-opacity: 1.0;stroke-linejoin: bevel;stroke-dasharray: 2.0, 2.0;shape-rendering:crispEdges;" transform="matrix(1,0,0,1,0,0)" clip-path="url(#_88721318787715clip-2)"/><line x1="71" y1="373.01" x2="1140" y2="373.01" style="stroke-width: 0.5;stroke: rgb(192,192,192);stroke-opacity: 1.0;stroke-linejoin: bevel;stroke-dasharray: 2.0, 2.0;shape-rendering:crispEdges;" transform="matrix(1,0,0,1,0,0)" clip-path="url(#_88721318787715clip-2)"/><line x1="71" y1="337.4" x2="1140" y2="337.4" style="stroke-width: 0.5;stroke: rgb(192,192,192);stroke-opacity: 1.0;stroke-linejoin: bevel;stroke-dasharray: 2.0, 2.0;shape-rendering:crispEdges;" transform="matrix(1,0,0,1,0,0)" clip-path="url(#_88721318787715clip-2)"/><line x1="71" y1="301.79" x2="1140" y2="301.79" style="stroke-width: 0.5;stroke: rgb(192,192,192);stroke-opacity: 1.0;stroke-linejoin: bevel;stroke-dasharray: 2.0, 2.0;shape-rendering:crispEdges;" transform="matrix(1,0,0,1,0,0)" clip-path="url(#_88721318787715clip-2)"/><line x1="71" y1="266.18" x2="1140" y2="266.18" style="stroke-width: 0.5;stroke: rgb(192,192,192);stroke-opacity: 1.0;stroke-linejoin: bevel;stroke-dasharray: 2.0, 2.0;shape-rendering:crispEdges;" transform="matrix(1,0,0,1,0,0)" clip-path="url(#_88721318787715clip-2)"/><line x1="71" y1="230.58" x2="1140" y2="230.58" style="stroke-width: 0.5;stroke: rgb(192,192,192);stroke-opacity: 1.0;stroke-linejoin: bevel;stroke-dasharray: 2.0, 2.0;shape-rendering:crispEdges;" transform="matrix(1,0,0,1,0,0)" clip-path="url(#_88721318787715clip-2)"/><line x1="71" y1="194.97" x2="1140" y2="194.97" style="stroke-width: 0.5;stroke: rgb(192,192,192);stroke-opacity: 1.0;stroke-linejoin: bevel;stroke-dasharray: 2.0, 2.0;shape-rendering:crispEdges;" transform="matrix(1,0,0,1,0,0)" clip-path="url(#_88721318787715clip-2)"/><line x1="71" y1="159.36" x2="1140" y2="159.36" style="stroke-width: 0.5;stroke: rgb(192,192,192);stroke-opacity: 1.0;stroke-linejoin: bevel;stroke-dasharray: 2.0, 2.0;shape-rendering:crispEdges;" transform="matrix(1,0,0,1,0,0)" clip-path="url(#_88721318787715clip-2)"/><line x1="71" y1="123.75" x2="1140" y2="123.75" style="stroke-width: 0.5;stroke: rgb(192,192,192);stroke-opacity: 1.0;stroke-linejoin: bevel;stroke-dasharray: 2.0, 2.0;shape-rendering:crispEdges;" transform="matrix(1,0,0,1,0,0)" clip-path="url(#_88721318787715clip-2)"/><line x1="71" y1="88.15" x2="1140" y2="88.15" style="stroke-width: 0.5;stroke: rgb(192,192,192);stroke-opacity: 1.0;stroke-linejoin: bevel;stroke-dasharray: 2.0, 2.0;shape-rendering:crispEdges;" transform="matrix(1,0,0,1,0,0)" clip-path="url(#_88721318787715clip-2)"/><line x1="71" y1="52.54" x2="1140" y2="52.54" style="stroke-width: 0.5;stroke: rgb(192,192,192);stroke-opacity: 1.0;stroke-linejoin: bevel;stroke-dasharray: 2.0, 2.0;shape-rendering:crispEdges;" transform="matrix(1,0,0,1,0,0)" clip-path="url(#_88721318787715clip-2)"/><line x1="136.3" y1="654.56" x2="166.26" y2="636.22" style="stroke-width: 3.0;stroke: rgb(0,0,0);stroke-opacity: 1.0;stroke-linecap: square;shape-rendering:geometricPrecision;" transform="matrix(1,0,0,1,0,0)" clip-path="url(#_88721318787715clip-2)"/><line x1="166.26" y1="636.22" x2="196.22" y2="617.88" style="stroke-width: 3.0;stroke: rgb(0,0,0);stroke-opacity: 1.0;stroke-linecap: square;shape-rendering:geometricPrecision;" transform="matrix(1,0,0,1,0,0)" clip-path="url(#_88721318787715clip-2)"/><line x1="196.22" y1="617.88" x2="226.18" y2="599.53" style="stroke-width: 3.0;stroke: rgb(0,0,0);stroke-opacity: 1.0;stroke-linecap: square;shape-rendering:geometricPrecision;" transform="matrix(1,0,0,1,0,0)" clip-path="url(#_88721318787715clip-2)"/><line x1="226.18" y1="599.53" x2="256.14" y2="581.19" style="stroke-width: 3.0;stroke: rgb(0,0,0);stroke-opacity: 1.0;stroke-linecap: square;shape-rendering:geometricPrecision;" transform="matrix(1,0,0,1,0,0)" clip-path="url(#_88721318787715clip-2)"/><line x1="256.14" y1="581.19" x2="286.1" y2="562.85" style="stroke-width: 3.0;stroke: rgb(0,0,0);stroke-opacity: 1.0;stroke-linecap: square;shape-rendering:geometricPrecision;" transform="matrix(1,0,0,1,0,0)" clip-path="url(#_88721318787715clip-2)"/><line x1="286.1" y1="562.85" x2="316.07" y2="544.51" style="stroke-width: 3.0;stroke: rgb(0,0,0);stroke-opacity: 1.0;stroke-linecap: square;shape-rendering:geometricPrecision;" transform="matrix(1,0,0,1,0,0)" clip-path="url(#_88721318787715clip-2)"/><line x1="316.07" y1="544.51" x2="345.69" y2="526.37" style="stroke-width: 3.0;stroke: rgb(0,0,0);stroke-opacity: 1.0;stroke-linecap: square;shape-rendering:geometricPrecision;" transform="matrix(1,0,0,1,0,0)" clip-path="url(#_88721318787715clip-2)"/><line x1="345.69" y1="526.37" x2="375.99" y2="507.82" style="stroke-width: 3.0;stroke: rgb(0,0,0);stroke-opacity: 1.0;stroke-linecap: square;shape-rendering:geometricPrecision;" transform="matrix(1,0,0,1,0,0)" clip-path="url(#_88721318787715clip-2)"/><line x1="375.99" y1="507.82" x2="405.95" y2="489.48" style="stroke-width: 3.0;stroke: rgb(0,0,0);stroke-opacity: 1.0;stroke-linecap: square;shape-rendering:geometricPrecision;" transform="matrix(1,0,0,1,0,0)" clip-path="url(#_88721318787715clip-2)"/><line x1="405.95" y1="489.48" x2="435.6" y2="471.33" style="stroke-width: 3.0;stroke: rgb(0,0,0);stroke-opacity: 1.0;stroke-linecap: square;shape-rendering:geometricPrecision;" transform="matrix(1,0,0,1,0,0)" clip-path="url(#_88721318787715clip-2)"/><line x1="435.6" y1="471.33" x2="464.93" y2="453.37" style="stroke-width: 3.0;stroke: rgb(0,0,0);stroke-opacity: 1.0;stroke-linecap: square;shape-rendering:geometricPrecision;" transform="matrix(1,0,0,1,0,0)" clip-path="url(#_88721318787715clip-2)"/><line x1="464.93" y1="453.37" x2="493.96" y2="435.6" style="stroke-width: 3.0;stroke: rgb(0,0,0);stroke-opacity: 1.0;stroke-linecap: square;shape-rendering:geometricPrecision;" transform="matrix(1,0,0,1,0,0)" clip-path="url(#_88721318787715clip-2)"/><line x1="493.96" y1="435.6" x2="522.67" y2="418.02" style="stroke-width: 3.0;stroke: rgb(0,0,0);stroke-opacity: 1.0;stroke-linecap: square;shape-rendering:geometricPrecision;" transform="matrix(1,0,0,1,0,0)" clip-path="url(#_88721318787715clip-2)"/><line x1="522.67" y1="418.02" x2="551.1" y2="400.62" style="stroke-width: 3.0;stroke: rgb(0,0,0);stroke-opacity: 1.0;stroke-linecap: square;shape-rendering:geometricPrecision;" transform="matrix(1,0,0,1,0,0)" clip-path="url(#_88721318787715clip-2)"/><line x1="551.1" y1="400.62" x2="579.23" y2="383.4" style="stroke-width: 3.0;stroke: rgb(0,0,0);stroke-opacity: 1.0;stroke-linecap: square;shape-rendering:geometricPrecision;" transform="matrix(1,0,0,1,0,0)" clip-path="url(#_88721318787715clip-2)"/><line x1="579.23" y1="383.4" x2="607.07" y2="366.36" style="stroke-width: 3.0;stroke: rgb(0,0,0);stroke-opacity: 1.0;stroke-linecap: square;shape-rendering:geometricPrecision;" transform="matrix(1,0,0,1,0,0)" clip-path="url(#_88721318787715clip-2)"/><line x1="607.07" y1="366.36" x2="634.63" y2="349.48" style="stroke-width: 3.0;stroke: rgb(0,0,0);stroke-opacity: 1.0;stroke-linecap: square;shape-rendering:geometricPrecision;" transform="matrix(1,0,0,1,0,0)" clip-path="url(#_88721318787715clip-2)"/><line x1="634.63" y1="349.48" x2="661.93" y2="332.77" style="stroke-width: 3.0;stroke: rgb(0,0,0);stroke-opacity: 1.0;stroke-linecap: square;shape-rendering:geometricPrecision;" transform="matrix(1,0,0,1,0,0)" clip-path="url(#_88721318787715clip-2)"/><line x1="661.93" y1="332.77" x2="688.96" y2="316.22" style="stroke-width: 3.0;stroke: rgb(0,0,0);stroke-opacity: 1.0;stroke-linecap: square;shape-rendering:geometricPrecision;" transform="matrix(1,0,0,1,0,0)" clip-path="url(#_88721318787715clip-2)"/><line x1="688.96" y1="316.22" x2="715.74" y2="299.83" style="stroke-width: 3.0;stroke: rgb(0,0,0);stroke-opacity: 1.0;stroke-linecap: square;shape-rendering:geometricPrecision;" transform="matrix(1,0,0,1,0,0)" clip-path="url(#_88721318787715clip-2)"/><line x1="715.74" y1="299.83" x2="742.28" y2="283.58" style="stroke-width: 3.0;stroke: rgb(0,0,0);stroke-opacity: 1.0;stroke-linecap: square;shape-rendering:geometricPrecision;" transform="matrix(1,0,0,1,0,0)" clip-path="url(#_88721318787715clip-2)"/><line x1="742.28" y1="283.58" x2="768.82" y2="267.33" style="stroke-width: 3.0;stroke: rgb(0,0,0);stroke-opacity: 1.0;stroke-linecap: square;shape-rendering:geometricPrecision;" transform="matrix(1,0,0,1,0,0)" clip-path="url(#_88721318787715clip-2)"/><line x1="768.82" y1="267.33" x2="796.03" y2="250.68" style="stroke-width: 3.0;stroke: rgb(0,0,0);stroke-opacity: 1.0;stroke-linecap: square;shape-rendering:geometricPrecision;" transform="matrix(1,0,0,1,0,0)" clip-path="url(#_88721318787715clip-2)"/><line x1="796.03" y1="250.68" x2="824.68" y2="233.13" style="stroke-width: 3.0;stroke: rgb(0,0,0);stroke-opacity: 1.0;stroke-linecap: square;shape-rendering:geometricPrecision;" transform="matrix(1,0,0,1,0,0)" clip-path="url(#_88721318787715clip-2)"/><line x1="824.68" y1="233.13" x2="855.34" y2="214.37" style="stroke-width: 3.0;stroke: rgb(0,0,0);stroke-opacity: 1.0;stroke-linecap: square;shape-rendering:geometricPrecision;" transform="matrix(1,0,0,1,0,0)" clip-path="url(#_88721318787715clip-2)"/><line x1="855.34" y1="214.37" x2="893.75" y2="190.82" style="stroke-width: 3.0;stroke: rgb(0,0,0);stroke-opacity: 1.0;stroke-linecap: square;shape-rendering:geometricPrecision;" transform="matrix(1,0,0,1,0,0)" clip-path="url(#_88721318787715clip-2)"/><line x1="893.75" y1="190.82" x2="936.65" y2="164.28" style="stroke-width: 3.0;stroke: rgb(0,0,0);stroke-opacity: 1.0;stroke-linecap: square;shape-rendering:geometricPrecision;" transform="matrix(1,0,0,1,0,0)" clip-path="url(#_88721318787715clip-2)"/><line x1="936.65" y1="164.28" x2="983.58" y2="134.69" style="stroke-width: 3.0;stroke: rgb(0,0,0);stroke-opacity: 1.0;stroke-linecap: square;shape-rendering:geometricPrecision;" transform="matrix(1,0,0,1,0,0)" clip-path="url(#_88721318787715clip-2)"/><line x1="983.58" y1="134.69" x2="1031.05" y2="104.1" style="stroke-width: 3.0;stroke: rgb(0,0,0);stroke-opacity: 1.0;stroke-linecap: square;shape-rendering:geometricPrecision;" transform="matrix(1,0,0,1,0,0)" clip-path="url(#_88721318787715clip-2)"/><line x1="1031.05" y1="104.1" x2="1074.7" y2="75.44" style="stroke-width: 3.0;stroke: rgb(0,0,0);stroke-opacity: 1.0;stroke-linecap: square;shape-rendering:geometricPrecision;" transform="matrix(1,0,0,1,0,0)" clip-path="url(#_88721318787715clip-2)"/><rect x="71" y="35" width="1069" height="660" style="stroke-width: 0.5;stroke: rgb(0,0,0);stroke-opacity: 1.0;stroke-linecap: round;stroke-linejoin: round;shape-rendering:crispEdges;; fill: none" transform="matrix(1,0,0,1,0,0)" clip-path="url(#_88721318787715clip-0)"/></svg>
