<!DOCTYPE svg PUBLIC "-//W3C//DTD SVG 1.1//EN" "http://www.w3.org/Graphics/SVG/1.1/DTD/svg11.dtd">
<svg xmlns="http://www.w3.org/2000/svg" xmlns:xlink="http://www.w3.org/1999/xlink" xmlns:jfreesvg="http://www.jfree.org/jfreesvg/svg" width="1152" height="768" text-rendering="auto" shape-rendering="auto">
<defs><clipPath id="_88721581838653clip-0"><path d="M 0 0 L 1152 0 L 1152 768 L 0 768 L 0 0 Z "/></clipPath>
<clipPath id="_88721581838653clip-1"><path d="M 384.5 345.5 L 384.5 1497.5 L -383.5 1497.5 L -383.5 345.5 L 384.5 345.5 Z "/></clipPath>
<clipPath id="_88721581838653clip-2"><path d="M 84 35 L 84 695 L 1140 695 L 1140 35 Z "/></clipPath>
</defs>
<rect x="0" y="0" width="1152" height="768" style="fill: rgb(255,255,255); fill-opacity: 1.0" transform="matrix(1,0,0,1,0,0)" clip-path="url(#_88721581838653clip-0)"/><g transform="matrix(1,0,0,1,0,0)"><text x="329" y="21.01" style="fill: rgb(0,0,0); fill-opacity: 1.0; font-family: Tahoma; font-size: 20px; font-weight: bold;" clip-path="url(#_88721581838653clip-0)">Moment_Coefficient_Curve_Clean_Configuration</text></g><rect x="432.5" y="746" width="287" height="21" style="fill: rgb(255,255,255); fill-opacity: 1.0" transform="matrix(1,0,0,1,0,0)" clip-path="url(#_88721581838653clip-0)"/><g style="stroke-width: 3.0;stroke: rgb(0,0,0);stroke-opacity: 1.0;stroke-linecap: square;shape-rendering:geometricPrecision;; fill: none" transform="matrix(1,0,0,1,0,0)" clip-path="url(#_88721581838653clip-0)"><path d="M 435.5 756.5 L 449.5 756.5"/></g><g transform="matrix(1,0,0,1,0,0)"><text x="453.5" y="761.01" style="fill: rgb(64,64,64); fill-opacity: 1.0; font-family: Tahoma; font-size: 12px;" clip-path="url(#_88721581838653clip-0)"> Moment_Coefficient_Curve_Clean_Configuration </text></g><rect x="84" y="35" width="1056" height="660" style="fill: rgb(255,255,255); fill-opacity: 0.0" transform="matrix(1,0,0,1,0,0)" clip-path="url(#_88721581838653clip-0)"/><line x1="84" y1="699" x2="1140" y2="699" style="stroke-width: 0.5;stroke: rgb(128,128,128);stroke-opacity: 1.0;stroke-linecap: square;shape-rendering:crispEdges;" transform="matrix(1,0,0,1,0,0)" clip-path="url(#_88721581838653clip-0)"/><g transform="matrix(1,0,0,1,0,0)"><text x="110.22" y="715.52" style="fill: rgb(64,64,64); fill-opacity: 1.0; font-family: Tahoma; font-size: 12px;" clip-path="url(#_88721581838653clip-0)">-8</text></g><line x1="115.72" y1="701" x2="115.72" y2="699" style="stroke-width: 0.5;stroke: rgb(128,128,128);stroke-opacity: 1.0;stroke-linecap: square;shape-rendering:crispEdges;" transform="matrix(1,0,0,1,0,0)" clip-path="url(#_88721581838653clip-0)"/><g transform="matrix(1,0,0,1,0,0)"><text x="149.56" y="715.52" style="fill: rgb(64,64,64); fill-opacity: 1.0; font-family: Tahoma; font-size: 12px;" clip-path="url(#_88721581838653clip-0)">-7</text></g><line x1="155.06" y1="701" x2="155.06" y2="699" style="stroke-width: 0.5;stroke: rgb(128,128,128);stroke-opacity: 1.0;stroke-linecap: square;shape-rendering:crispEdges;" transform="matrix(1,0,0,1,0,0)" clip-path="url(#_88721581838653clip-0)"/><g transform="matrix(1,0,0,1,0,0)"><text x="188.9" y="715.52" style="fill: rgb(64,64,64); fill-opacity: 1.0; font-family: Tahoma; font-size: 12px;" clip-path="url(#_88721581838653clip-0)">-6</text></g><line x1="194.4" y1="701" x2="194.4" y2="699" style="stroke-width: 0.5;stroke: rgb(128,128,128);stroke-opacity: 1.0;stroke-linecap: square;shape-rendering:crispEdges;" transform="matrix(1,0,0,1,0,0)" clip-path="url(#_88721581838653clip-0)"/><g transform="matrix(1,0,0,1,0,0)"><text x="228.24" y="715.52" style="fill: rgb(64,64,64); fill-opacity: 1.0; font-family: Tahoma; font-size: 12px;" clip-path="url(#_88721581838653clip-0)">-5</text></g><line x1="233.74" y1="701" x2="233.74" y2="699" style="stroke-width: 0.5;stroke: rgb(128,128,128);stroke-opacity: 1.0;stroke-linecap: square;shape-rendering:crispEdges;" transform="matrix(1,0,0,1,0,0)" clip-path="url(#_88721581838653clip-0)"/><g transform="matrix(1,0,0,1,0,0)"><text x="267.58" y="715.52" style="fill: rgb(64,64,64); fill-opacity: 1.0; font-family: Tahoma; font-size: 12px;" clip-path="url(#_88721581838653clip-0)">-4</text></g><line x1="273.08" y1="701" x2="273.08" y2="699" style="stroke-width: 0.5;stroke: rgb(128,128,128);stroke-opacity: 1.0;stroke-linecap: square;shape-rendering:crispEdges;" transform="matrix(1,0,0,1,0,0)" clip-path="url(#_88721581838653clip-0)"/><g transform="matrix(1,0,0,1,0,0)"><text x="306.92" y="715.52" style="fill: rgb(64,64,64); fill-opacity: 1.0; font-family: Tahoma; font-size: 12px;" clip-path="url(#_88721581838653clip-0)">-3</text></g><line x1="312.42" y1="701" x2="312.42" y2="699" style="stroke-width: 0.5;stroke: rgb(128,128,128);stroke-opacity: 1.0;stroke-linecap: square;shape-rendering:crispEdges;" transform="matrix(1,0,0,1,0,0)" clip-path="url(#_88721581838653clip-0)"/><g transform="matrix(1,0,0,1,0,0)"><text x="346.26" y="715.52" style="fill: rgb(64,64,64); fill-opacity: 1.0; font-family: Tahoma; font-size: 12px;" clip-path="url(#_88721581838653clip-0)">-2</text></g><line x1="351.76" y1="701" x2="351.76" y2="699" style="stroke-width: 0.5;stroke: rgb(128,128,128);stroke-opacity: 1.0;stroke-linecap: square;shape-rendering:crispEdges;" transform="matrix(1,0,0,1,0,0)" clip-path="url(#_88721581838653clip-0)"/><g transform="matrix(1,0,0,1,0,0)"><text x="385.61" y="715.52" style="fill: rgb(64,64,64); fill-opacity: 1.0; font-family: Tahoma; font-size: 12px;" clip-path="url(#_88721581838653clip-0)">-1</text></g><line x1="391.11" y1="701" x2="391.11" y2="699" style="stroke-width: 0.5;stroke: rgb(128,128,128);stroke-opacity: 1.0;stroke-linecap: square;shape-rendering:crispEdges;" transform="matrix(1,0,0,1,0,0)" clip-path="url(#_88721581838653clip-0)"/><g transform="matrix(1,0,0,1,0,0)"><text x="426.95" y="715.52" style="fill: rgb(64,64,64); fill-opacity: 1.0; font-family: Tahoma; font-size: 12px;" clip-path="url(#_88721581838653clip-0)">0</text></g><line x1="430.45" y1="701" x2="430.45" y2="699" style="stroke-width: 0.5;stroke: rgb(128,128,128);stroke-opacity: 1.0;stroke-linecap: square;shape-rendering:crispEdges;" transform="matrix(1,0,0,1,0,0)" clip-path="url(#_88721581838653clip-0)"/><g transform="matrix(1,0,0,1,0,0)"><text x="466.29" y="715.52" style="fill: rgb(64,64,64); fill-opacity: 1.0; font-family: Tahoma; font-size: 12px;" clip-path="url(#_88721581838653clip-0)">1</text></g><line x1="469.79" y1="701" x2="469.79" y2="699" style="stroke-width: 0.5;stroke: rgb(128,128,128);stroke-opacity: 1.0;stroke-linecap: square;shape-rendering:crispEdges;" transform="matrix(1,0,0,1,0,0)" clip-path="url(#_88721581838653clip-0)"/><g transform="matrix(1,0,0,1,0,0)"><text x="505.63" y="715.52" style="fill: rgb(64,64,64); fill-opacity: 1.0; font-family: Tahoma; font-size: 12px;" clip-path="url(#_88721581838653clip-0)">2</text></g><line x1="509.13" y1="701" x2="509.13" y2="699" style="stroke-width: 0.5;stroke: rgb(128,128,128);stroke-opacity: 1.0;stroke-linecap: square;shape-rendering:crispEdges;" transform="matrix(1,0,0,1,0,0)" clip-path="url(#_88721581838653clip-0)"/><g transform="matrix(1,0,0,1,0,0)"><text x="544.97" y="715.52" style="fill: rgb(64,64,64); fill-opacity: 1.0; font-family: Tahoma; font-size: 12px;" clip-path="url(#_88721581838653clip-0)">3</text></g><line x1="548.47" y1="701" x2="548.47" y2="699" style="stroke-width: 0.5;stroke: rgb(128,128,128);stroke-opacity: 1.0;stroke-linecap: square;shape-rendering:crispEdges;" transform="matrix(1,0,0,1,0,0)" clip-path="url(#_88721581838653clip-0)"/><g transform="matrix(1,0,0,1,0,0)"><text x="584.31" y="715.52" style="fill: rgb(64,64,64); fill-opacity: 1.0; font-family: Tahoma; font-size: 12px;" clip-path="url(#_88721581838653clip-0)">4</text></g><line x1="587.81" y1="701" x2="587.81" y2="699" style="stroke-width: 0.5;stroke: rgb(128,128,128);stroke-opacity: 1.0;stroke-linecap: square;shape-rendering:crispEdges;" transform="matrix(1,0,0,1,0,0)" clip-path="url(#_88721581838653clip-0)"/><g transform="matrix(1,0,0,1,0,0)"><text x="623.65" y="715.52" style="fill: rgb(64,64,64); fill-opacity: 1.0; font-family: Tahoma; font-size: 12px;" clip-path="url(#_88721581838653clip-0)">5</text></g><line x1="627.15" y1="701" x2="627.15" y2="699" style="stroke-width: 0.5;stroke: rgb(128,128,128);stroke-opacity: 1.0;stroke-linecap: square;shape-rendering:crispEdges;" transform="matrix(1,0,0,1,0,0)" clip-path="url(#_88721581838653clip-0)"/><g transform="matrix(1,0,0,1,0,0)"><text x="662.99" y="715.52" style="fill: rgb(64,64,64); fill-opacity: 1.0; font-family: Tahoma; font-size: 12px;" clip-path="url(#_88721581838653clip-0)">6</text></g><line x1="666.49" y1="701" x2="666.49" y2="699" style="stroke-width: 0.5;stroke: rgb(128,128,128);stroke-opacity: 1.0;stroke-linecap: square;shape-rendering:crispEdges;" transform="matrix(1,0,0,1,0,0)" clip-path="url(#_88721581838653clip-0)"/><g transform="matrix(1,0,0,1,0,0)"><text x="702.33" y="715.52" style="fill: rgb(64,64,64); fill-opacity: 1.0; font-family: Tahoma; font-size: 12px;" clip-path="url(#_88721581838653clip-0)">7</text></g><line x1="705.83" y1="701" x2="705.83" y2="699" style="stroke-width: 0.5;stroke: rgb(128,128,128);stroke-opacity: 1.0;stroke-linecap: square;shape-rendering:crispEdges;" transform="matrix(1,0,0,1,0,0)" clip-path="url(#_88721581838653clip-0)"/><g transform="matrix(1,0,0,1,0,0)"><text x="741.67" y="715.52" style="fill: rgb(64,64,64); fill-opacity: 1.0; font-family: Tahoma; font-size: 12px;" clip-path="url(#_88721581838653clip-0)">8</text></g><line x1="745.17" y1="701" x2="745.17" y2="699" style="stroke-width: 0.5;stroke: rgb(128,128,128);stroke-opacity: 1.0;stroke-linecap: square;shape-rendering:crispEdges;" transform="matrix(1,0,0,1,0,0)" clip-path="url(#_88721581838653clip-0)"/><g transform="matrix(1,0,0,1,0,0)"><text x="781.01" y="715.52" style="fill: rgb(64,64,64); fill-opacity: 1.0; font-family: Tahoma; font-size: 12px;" clip-path="url(#_88721581838653clip-0)">9</text></g><line x1="784.51" y1="701" x2="784.51" y2="699" style="stroke-width: 0.5;stroke: rgb(128,128,128);stroke-opacity: 1.0;stroke-linecap: square;shape-rendering:crispEdges;" transform="matrix(1,0,0,1,0,0)" clip-path="url(#_88721581838653clip-0)"/><g transform="matrix(1,0,0,1,0,0)"><text x="817.35" y="715.52" style="fill: rgb(64,64,64); fill-opacity: 1.0; font-family: Tahoma; font-size: 12px;" clip-path="url(#_88721581838653clip-0)">10</text></g><line x1="823.85" y1="701" x2="823.85" y2="699" style="stroke-width: 0.5;stroke: rgb(128,128,128);stroke-opacity: 1.0;stroke-linecap: square;shape-rendering:crispEdges;" transform="matrix(1,0,0,1,0,0)" clip-path="url(#_88721581838653clip-0)"/><g transform="matrix(1,0,0,1,0,0)"><text x="856.7" y="715.52" style="fill: rgb(64,64,64); fill-opacity: 1.0; font-family: Tahoma; font-size: 12px;" clip-path="url(#_88721581838653clip-0)">11</text></g><line x1="863.2" y1="701" x2="863.2" y2="699" style="stroke-width: 0.5;stroke: rgb(128,128,128);stroke-opacity: 1.0;stroke-linecap: square;shape-rendering:crispEdges;" transform="matrix(1,0,0,1,0,0)" clip-path="url(#_88721581838653clip-0)"/><g transform="matrix(1,0,0,1,0,0)"><text x="896.04" y="715.52" style="fill: rgb(64,64,64); fill-opacity: 1.0; font-family: Tahoma; font-size: 12px;" clip-path="url(#_88721581838653clip-0)">12</text></g><line x1="902.54" y1="701" x2="902.54" y2="699" style="stroke-width: 0.5;stroke: rgb(128,128,128);stroke-opacity: 1.0;stroke-linecap: square;shape-rendering:crispEdges;" transform="matrix(1,0,0,1,0,0)" clip-path="url(#_88721581838653clip-0)"/><g transform="matrix(1,0,0,1,0,0)"><text x="935.38" y="715.52" style="fill: rgb(64,64,64); fill-opacity: 1.0; font-family: Tahoma; font-size: 12px;" clip-path="url(#_88721581838653clip-0)">13</text></g><line x1="941.88" y1="701" x2="941.88" y2="699" style="stroke-width: 0.5;stroke: rgb(128,128,128);stroke-opacity: 1.0;stroke-linecap: square;shape-rendering:crispEdges;" transform="matrix(1,0,0,1,0,0)" clip-path="url(#_88721581838653clip-0)"/><g transform="matrix(1,0,0,1,0,0)"><text x="974.72" y="715.52" style="fill: rgb(64,64,64); fill-opacity: 1.0; font-family: Tahoma; font-size: 12px;" clip-path="url(#_88721581838653clip-0)">14</text></g><line x1="981.22" y1="701" x2="981.22" y2="699" style="stroke-width: 0.5;stroke: rgb(128,128,128);stroke-opacity: 1.0;stroke-linecap: square;shape-rendering:crispEdges;" transform="matrix(1,0,0,1,0,0)" clip-path="url(#_88721581838653clip-0)"/><g transform="matrix(1,0,0,1,0,0)"><text x="1014.06" y="715.52" style="fill: rgb(64,64,64); fill-opacity: 1.0; font-family: Tahoma; font-size: 12px;" clip-path="url(#_88721581838653clip-0)">15</text></g><line x1="1020.56" y1="701" x2="1020.56" y2="699" style="stroke-width: 0.5;stroke: rgb(128,128,128);stroke-opacity: 1.0;stroke-linecap: square;shape-rendering:crispEdges;" transform="matrix(1,0,0,1,0,0)" clip-path="url(#_88721581838653clip-0)"/><g transform="matrix(1,0,0,1,0,0)"><text x="1053.4" y="715.52" style="fill: rgb(64,64,64); fill-opacity: 1.0; font-family: Tahoma; font-size: 12px;" clip-path="url(#_88721581838653clip-0)">16</text></g><line x1="1059.9" y1="701" x2="1059.9" y2="699" style="stroke-width: 0.5;stroke: rgb(128,128,128);stroke-opacity: 1.0;stroke-linecap: square;shape-rendering:crispEdges;" transform="matrix(1,0,0,1,0,0)" clip-path="url(#_88721581838653clip-0)"/><g transform="matrix(1,0,0,1,0,0)"><text x="1092.74" y="715.52" style="fill: rgb(64,64,64); fill-opacity: 1.0; font-family: Tahoma; font-size: 12px;" clip-path="url(#_88721581838653clip-0)">17</text></g><line x1="1099.24" y1="701" x2="1099.24" y2="699" style="stroke-width: 0.5;stroke: rgb(128,128,128);stroke-opacity: 1.0;stroke-linecap: square;shape-rendering:crispEdges;" transform="matrix(1,0,0,1,0,0)" clip-path="url(#_88721581838653clip-0)"/><g transform="matrix(1,0,0,1,0,0)"><text x="1132.08" y="715.52" style="fill: rgb(64,64,64); fill-opacity: 1.0; font-family: Tahoma; font-size: 12px;" clip-path="url(#_88721581838653clip-0)">18</text></g><line x1="1138.58" y1="701" x2="1138.58" y2="699" style="stroke-width: 0.5;stroke: rgb(128,128,128);stroke-opacity: 1.0;stroke-linecap: square;shape-rendering:crispEdges;" transform="matrix(1,0,0,1,0,0)" clip-path="url(#_88721581838653clip-0)"/><g transform="matrix(1,0,0,1,0,0)"><text x="562.5" y="734.59" style="fill: rgb(64,64,64); fill-opacity: 1.0; font-family: Tahoma; font-size: 14px; font-weight: bold;" clip-path="url(#_88721581838653clip-0)">alpha_h (deg)</text></g><line x1="80" y1="35" x2="80" y2="695" style="stroke-width: 0.5;stroke: rgb(128,128,128);stroke-opacity: 1.0;stroke-linecap: square;shape-rendering:crispEdges;" transform="matrix(1,0,0,1,0,0)" clip-path="url(#_88721581838653clip-0)"/><g transform="matrix(1,0,0,1,0,0)"><text x="33" y="695.61" style="fill: rgb(64,64,64); fill-opacity: 1.0; font-family: Tahoma; font-size: 12px;" clip-path="url(#_88721581838653clip-0)">-0,0010</text></g><line x1="78" y1="690.59" x2="80" y2="690.59" style="stroke-width: 0.5;stroke: rgb(128,128,128);stroke-opacity: 1.0;stroke-linecap: square;shape-rendering:crispEdges;" transform="matrix(1,0,0,1,0,0)" clip-path="url(#_88721581838653clip-0)"/><g transform="matrix(1,0,0,1,0,0)"><text x="33" y="668.4" style="fill: rgb(64,64,64); fill-opacity: 1.0; font-family: Tahoma; font-size: 12px;" clip-path="url(#_88721581838653clip-0)">-0,0005</text></g><line x1="78" y1="663.38" x2="80" y2="663.38" style="stroke-width: 0.5;stroke: rgb(128,128,128);stroke-opacity: 1.0;stroke-linecap: square;shape-rendering:crispEdges;" transform="matrix(1,0,0,1,0,0)" clip-path="url(#_88721581838653clip-0)"/><g transform="matrix(1,0,0,1,0,0)"><text x="38" y="641.2" style="fill: rgb(64,64,64); fill-opacity: 1.0; font-family: Tahoma; font-size: 12px;" clip-path="url(#_88721581838653clip-0)">0,0000</text></g><line x1="78" y1="636.18" x2="80" y2="636.18" style="stroke-width: 0.5;stroke: rgb(128,128,128);stroke-opacity: 1.0;stroke-linecap: square;shape-rendering:crispEdges;" transform="matrix(1,0,0,1,0,0)" clip-path="url(#_88721581838653clip-0)"/><g transform="matrix(1,0,0,1,0,0)"><text x="38" y="613.99" style="fill: rgb(64,64,64); fill-opacity: 1.0; font-family: Tahoma; font-size: 12px;" clip-path="url(#_88721581838653clip-0)">0,0005</text></g><line x1="78" y1="608.97" x2="80" y2="608.97" style="stroke-width: 0.5;stroke: rgb(128,128,128);stroke-opacity: 1.0;stroke-linecap: square;shape-rendering:crispEdges;" transform="matrix(1,0,0,1,0,0)" clip-path="url(#_88721581838653clip-0)"/><g transform="matrix(1,0,0,1,0,0)"><text x="38" y="586.79" style="fill: rgb(64,64,64); fill-opacity: 1.0; font-family: Tahoma; font-size: 12px;" clip-path="url(#_88721581838653clip-0)">0,0010</text></g><line x1="78" y1="581.77" x2="80" y2="581.77" style="stroke-width: 0.5;stroke: rgb(128,128,128);stroke-opacity: 1.0;stroke-linecap: square;shape-rendering:crispEdges;" transform="matrix(1,0,0,1,0,0)" clip-path="url(#_88721581838653clip-0)"/><g transform="matrix(1,0,0,1,0,0)"><text x="38" y="559.59" style="fill: rgb(64,64,64); fill-opacity: 1.0; font-family: Tahoma; font-size: 12px;" clip-path="url(#_88721581838653clip-0)">0,0015</text></g><line x1="78" y1="554.56" x2="80" y2="554.56" style="stroke-width: 0.5;stroke: rgb(128,128,128);stroke-opacity: 1.0;stroke-linecap: square;shape-rendering:crispEdges;" transform="matrix(1,0,0,1,0,0)" clip-path="url(#_88721581838653clip-0)"/><g transform="matrix(1,0,0,1,0,0)"><text x="38" y="532.38" style="fill: rgb(64,64,64); fill-opacity: 1.0; font-family: Tahoma; font-size: 12px;" clip-path="url(#_88721581838653clip-0)">0,0020</text></g><line x1="78" y1="527.36" x2="80" y2="527.36" style="stroke-width: 0.5;stroke: rgb(128,128,128);stroke-opacity: 1.0;stroke-linecap: square;shape-rendering:crispEdges;" transform="matrix(1,0,0,1,0,0)" clip-path="url(#_88721581838653clip-0)"/><g transform="matrix(1,0,0,1,0,0)"><text x="38" y="505.18" style="fill: rgb(64,64,64); fill-opacity: 1.0; font-family: Tahoma; font-size: 12px;" clip-path="url(#_88721581838653clip-0)">0,0025</text></g><line x1="78" y1="500.15" x2="80" y2="500.15" style="stroke-width: 0.5;stroke: rgb(128,128,128);stroke-opacity: 1.0;stroke-linecap: square;shape-rendering:crispEdges;" transform="matrix(1,0,0,1,0,0)" clip-path="url(#_88721581838653clip-0)"/><g transform="matrix(1,0,0,1,0,0)"><text x="38" y="477.97" style="fill: rgb(64,64,64); fill-opacity: 1.0; font-family: Tahoma; font-size: 12px;" clip-path="url(#_88721581838653clip-0)">0,0030</text></g><line x1="78" y1="472.95" x2="80" y2="472.95" style="stroke-width: 0.5;stroke: rgb(128,128,128);stroke-opacity: 1.0;stroke-linecap: square;shape-rendering:crispEdges;" transform="matrix(1,0,0,1,0,0)" clip-path="url(#_88721581838653clip-0)"/><g transform="matrix(1,0,0,1,0,0)"><text x="38" y="450.77" style="fill: rgb(64,64,64); fill-opacity: 1.0; font-family: Tahoma; font-size: 12px;" clip-path="url(#_88721581838653clip-0)">0,0035</text></g><line x1="78" y1="445.74" x2="80" y2="445.74" style="stroke-width: 0.5;stroke: rgb(128,128,128);stroke-opacity: 1.0;stroke-linecap: square;shape-rendering:crispEdges;" transform="matrix(1,0,0,1,0,0)" clip-path="url(#_88721581838653clip-0)"/><g transform="matrix(1,0,0,1,0,0)"><text x="38" y="423.56" style="fill: rgb(64,64,64); fill-opacity: 1.0; font-family: Tahoma; font-size: 12px;" clip-path="url(#_88721581838653clip-0)">0,0040</text></g><line x1="78" y1="418.54" x2="80" y2="418.54" style="stroke-width: 0.5;stroke: rgb(128,128,128);stroke-opacity: 1.0;stroke-linecap: square;shape-rendering:crispEdges;" transform="matrix(1,0,0,1,0,0)" clip-path="url(#_88721581838653clip-0)"/><g transform="matrix(1,0,0,1,0,0)"><text x="38" y="396.36" style="fill: rgb(64,64,64); fill-opacity: 1.0; font-family: Tahoma; font-size: 12px;" clip-path="url(#_88721581838653clip-0)">0,0045</text></g><line x1="78" y1="391.33" x2="80" y2="391.33" style="stroke-width: 0.5;stroke: rgb(128,128,128);stroke-opacity: 1.0;stroke-linecap: square;shape-rendering:crispEdges;" transform="matrix(1,0,0,1,0,0)" clip-path="url(#_88721581838653clip-0)"/><g transform="matrix(1,0,0,1,0,0)"><text x="38" y="369.15" style="fill: rgb(64,64,64); fill-opacity: 1.0; font-family: Tahoma; font-size: 12px;" clip-path="url(#_88721581838653clip-0)">0,0050</text></g><line x1="78" y1="364.13" x2="80" y2="364.13" style="stroke-width: 0.5;stroke: rgb(128,128,128);stroke-opacity: 1.0;stroke-linecap: square;shape-rendering:crispEdges;" transform="matrix(1,0,0,1,0,0)" clip-path="url(#_88721581838653clip-0)"/><g transform="matrix(1,0,0,1,0,0)"><text x="38" y="341.95" style="fill: rgb(64,64,64); fill-opacity: 1.0; font-family: Tahoma; font-size: 12px;" clip-path="url(#_88721581838653clip-0)">0,0055</text></g><line x1="78" y1="336.92" x2="80" y2="336.92" style="stroke-width: 0.5;stroke: rgb(128,128,128);stroke-opacity: 1.0;stroke-linecap: square;shape-rendering:crispEdges;" transform="matrix(1,0,0,1,0,0)" clip-path="url(#_88721581838653clip-0)"/><g transform="matrix(1,0,0,1,0,0)"><text x="38" y="314.74" style="fill: rgb(64,64,64); fill-opacity: 1.0; font-family: Tahoma; font-size: 12px;" clip-path="url(#_88721581838653clip-0)">0,0060</text></g><line x1="78" y1="309.72" x2="80" y2="309.72" style="stroke-width: 0.5;stroke: rgb(128,128,128);stroke-opacity: 1.0;stroke-linecap: square;shape-rendering:crispEdges;" transform="matrix(1,0,0,1,0,0)" clip-path="url(#_88721581838653clip-0)"/><g transform="matrix(1,0,0,1,0,0)"><text x="38" y="287.54" style="fill: rgb(64,64,64); fill-opacity: 1.0; font-family: Tahoma; font-size: 12px;" clip-path="url(#_88721581838653clip-0)">0,0065</text></g><line x1="78" y1="282.52" x2="80" y2="282.52" style="stroke-width: 0.5;stroke: rgb(128,128,128);stroke-opacity: 1.0;stroke-linecap: square;shape-rendering:crispEdges;" transform="matrix(1,0,0,1,0,0)" clip-path="url(#_88721581838653clip-0)"/><g transform="matrix(1,0,0,1,0,0)"><text x="38" y="260.33" style="fill: rgb(64,64,64); fill-opacity: 1.0; font-family: Tahoma; font-size: 12px;" clip-path="url(#_88721581838653clip-0)">0,0070</text></g><line x1="78" y1="255.31" x2="80" y2="255.31" style="stroke-width: 0.5;stroke: rgb(128,128,128);stroke-opacity: 1.0;stroke-linecap: square;shape-rendering:crispEdges;" transform="matrix(1,0,0,1,0,0)" clip-path="url(#_88721581838653clip-0)"/><g transform="matrix(1,0,0,1,0,0)"><text x="38" y="233.13" style="fill: rgb(64,64,64); fill-opacity: 1.0; font-family: Tahoma; font-size: 12px;" clip-path="url(#_88721581838653clip-0)">0,0075</text></g><line x1="78" y1="228.11" x2="80" y2="228.11" style="stroke-width: 0.5;stroke: rgb(128,128,128);stroke-opacity: 1.0;stroke-linecap: square;shape-rendering:crispEdges;" transform="matrix(1,0,0,1,0,0)" clip-path="url(#_88721581838653clip-0)"/><g transform="matrix(1,0,0,1,0,0)"><text x="38" y="205.92" style="fill: rgb(64,64,64); fill-opacity: 1.0; font-family: Tahoma; font-size: 12px;" clip-path="url(#_88721581838653clip-0)">0,0080</text></g><line x1="78" y1="200.9" x2="80" y2="200.9" style="stroke-width: 0.5;stroke: rgb(128,128,128);stroke-opacity: 1.0;stroke-linecap: square;shape-rendering:crispEdges;" transform="matrix(1,0,0,1,0,0)" clip-path="url(#_88721581838653clip-0)"/><g transform="matrix(1,0,0,1,0,0)"><text x="38" y="178.72" style="fill: rgb(64,64,64); fill-opacity: 1.0; font-family: Tahoma; font-size: 12px;" clip-path="url(#_88721581838653clip-0)">0,0085</text></g><line x1="78" y1="173.7" x2="80" y2="173.7" style="stroke-width: 0.5;stroke: rgb(128,128,128);stroke-opacity: 1.0;stroke-linecap: square;shape-rendering:crispEdges;" transform="matrix(1,0,0,1,0,0)" clip-path="url(#_88721581838653clip-0)"/><g transform="matrix(1,0,0,1,0,0)"><text x="38" y="151.51" style="fill: rgb(64,64,64); fill-opacity: 1.0; font-family: Tahoma; font-size: 12px;" clip-path="url(#_88721581838653clip-0)">0,0090</text></g><line x1="78" y1="146.49" x2="80" y2="146.49" style="stroke-width: 0.5;stroke: rgb(128,128,128);stroke-opacity: 1.0;stroke-linecap: square;shape-rendering:crispEdges;" transform="matrix(1,0,0,1,0,0)" clip-path="url(#_88721581838653clip-0)"/><g transform="matrix(1,0,0,1,0,0)"><text x="38" y="124.31" style="fill: rgb(64,64,64); fill-opacity: 1.0; font-family: Tahoma; font-size: 12px;" clip-path="url(#_88721581838653clip-0)">0,0095</text></g><line x1="78" y1="119.29" x2="80" y2="119.29" style="stroke-width: 0.5;stroke: rgb(128,128,128);stroke-opacity: 1.0;stroke-linecap: square;shape-rendering:crispEdges;" transform="matrix(1,0,0,1,0,0)" clip-path="url(#_88721581838653clip-0)"/><g transform="matrix(1,0,0,1,0,0)"><text x="38" y="97.1" style="fill: rgb(64,64,64); fill-opacity: 1.0; font-family: Tahoma; font-size: 12px;" clip-path="url(#_88721581838653clip-0)">0,0100</text></g><line x1="78" y1="92.08" x2="80" y2="92.08" style="stroke-width: 0.5;stroke: rgb(128,128,128);stroke-opacity: 1.0;stroke-linecap: square;shape-rendering:crispEdges;" transform="matrix(1,0,0,1,0,0)" clip-path="url(#_88721581838653clip-0)"/><g transform="matrix(1,0,0,1,0,0)"><text x="38" y="69.9" style="fill: rgb(64,64,64); fill-opacity: 1.0; font-family: Tahoma; font-size: 12px;" clip-path="url(#_88721581838653clip-0)">0,0105</text></g><line x1="78" y1="64.88" x2="80" y2="64.88" style="stroke-width: 0.5;stroke: rgb(128,128,128);stroke-opacity: 1.0;stroke-linecap: square;shape-rendering:crispEdges;" transform="matrix(1,0,0,1,0,0)" clip-path="url(#_88721581838653clip-0)"/><g transform="matrix(1,0,0,1,0,0)"><text x="38" y="42.69" style="fill: rgb(64,64,64); fill-opacity: 1.0; font-family: Tahoma; font-size: 12px;" clip-path="url(#_88721581838653clip-0)">0,0110</text></g><line x1="78" y1="37.67" x2="80" y2="37.67" style="stroke-width: 0.5;stroke: rgb(128,128,128);stroke-opacity: 1.0;stroke-linecap: square;shape-rendering:crispEdges;" transform="matrix(1,0,0,1,0,0)" clip-path="url(#_88721581838653clip-0)"/><g style="fill: rgb(64,64,64); fill-opacity: 1.0; stroke: none" transform="matrix(0,-1,1,0,-345.5,384.5)" clip-path="url(#_88721581838653clip-1)"><path d="M 11.94 370.81 Q 9.66 370.81 8.3 369.42 Q 6.95 368.03 6.95 365.53 Q 6.95 363.11 8.3 361.67 Q 9.66 360.23 11.95 360.23 Q 12.56 360.23 13.05 360.3 Q 13.53 360.37 13.97 360.48 Q 14.33 360.59 14.73 360.77 Q 15.14 360.95 15.39 361.08 L 15.39 363.5 L 15.14 363.5 Q 14.95 363.34 14.67 363.12 Q 14.39 362.89 14.03 362.67 Q 13.67 362.45 13.25 362.3 Q 12.83 362.14 12.36 362.14 Q 11.81 362.14 11.34 362.31 Q 10.88 362.48 10.47 362.92 Q 10.08 363.31 9.84 363.98 Q 9.59 364.64 9.59 365.53 Q 9.59 366.48 9.85 367.13 Q 10.11 367.78 10.52 368.17 Q 10.91 368.56 11.4 368.73 Q 11.89 368.91 12.38 368.91 Q 12.88 368.91 13.34 368.73 Q 13.8 368.56 14.11 368.36 Q 14.45 368.14 14.71 367.92 Q 14.97 367.7 15.16 367.55 L 15.39 367.55 L 15.39 369.94 Q 15.11 370.06 14.74 370.23 Q 14.38 370.39 13.98 370.51 Q 13.5 370.66 13.09 370.73 Q 12.67 370.81 11.94 370.81 Z  M 27.3 370.61 L 24.75 370.61 L 24.75 363.86 L 22.91 368.22 L 21.16 368.22 L 19.3 363.86 L 19.3 370.61 L 16.89 370.61 L 16.89 360.44 L 19.84 360.44 L 22.09 365.45 L 24.34 360.44 L 27.3 360.44 L 27.3 370.61 Z "/></g><line x1="115.72" y1="35" x2="115.72" y2="695" style="stroke-width: 0.5;stroke: rgb(192,192,192);stroke-opacity: 1.0;stroke-linejoin: bevel;stroke-dasharray: 2.0, 2.0;shape-rendering:crispEdges;" transform="matrix(1,0,0,1,0,0)" clip-path="url(#_88721581838653clip-2)"/><line x1="155.06" y1="35" x2="155.06" y2="695" style="stroke-width: 0.5;stroke: rgb(192,192,192);stroke-opacity: 1.0;stroke-linejoin: bevel;stroke-dasharray: 2.0, 2.0;shape-rendering:crispEdges;" transform="matrix(1,0,0,1,0,0)" clip-path="url(#_88721581838653clip-2)"/><line x1="194.4" y1="35" x2="194.4" y2="695" style="stroke-width: 0.5;stroke: rgb(192,192,192);stroke-opacity: 1.0;stroke-linejoin: bevel;stroke-dasharray: 2.0, 2.0;shape-rendering:crispEdges;" transform="matrix(1,0,0,1,0,0)" clip-path="url(#_88721581838653clip-2)"/><line x1="233.74" y1="35" x2="233.74" y2="695" style="stroke-width: 0.5;stroke: rgb(192,192,192);stroke-opacity: 1.0;stroke-linejoin: bevel;stroke-dasharray: 2.0, 2.0;shape-rendering:crispEdges;" transform="matrix(1,0,0,1,0,0)" clip-path="url(#_88721581838653clip-2)"/><line x1="273.08" y1="35" x2="273.08" y2="695" style="stroke-width: 0.5;stroke: rgb(192,192,192);stroke-opacity: 1.0;stroke-linejoin: bevel;stroke-dasharray: 2.0, 2.0;shape-rendering:crispEdges;" transform="matrix(1,0,0,1,0,0)" clip-path="url(#_88721581838653clip-2)"/><line x1="312.42" y1="35" x2="312.42" y2="695" style="stroke-width: 0.5;stroke: rgb(192,192,192);stroke-opacity: 1.0;stroke-linejoin: bevel;stroke-dasharray: 2.0, 2.0;shape-rendering:crispEdges;" transform="matrix(1,0,0,1,0,0)" clip-path="url(#_88721581838653clip-2)"/><line x1="351.76" y1="35" x2="351.76" y2="695" style="stroke-width: 0.5;stroke: rgb(192,192,192);stroke-opacity: 1.0;stroke-linejoin: bevel;stroke-dasharray: 2.0, 2.0;shape-rendering:crispEdges;" transform="matrix(1,0,0,1,0,0)" clip-path="url(#_88721581838653clip-2)"/><line x1="391.11" y1="35" x2="391.11" y2="695" style="stroke-width: 0.5;stroke: rgb(192,192,192);stroke-opacity: 1.0;stroke-linejoin: bevel;stroke-dasharray: 2.0, 2.0;shape-rendering:crispEdges;" transform="matrix(1,0,0,1,0,0)" clip-path="url(#_88721581838653clip-2)"/><line x1="430.45" y1="35" x2="430.45" y2="695" style="stroke-width: 0.5;stroke: rgb(192,192,192);stroke-opacity: 1.0;stroke-linejoin: bevel;stroke-dasharray: 2.0, 2.0;shape-rendering:crispEdges;" transform="matrix(1,0,0,1,0,0)" clip-path="url(#_88721581838653clip-2)"/><line x1="469.79" y1="35" x2="469.79" y2="695" style="stroke-width: 0.5;stroke: rgb(192,192,192);stroke-opacity: 1.0;stroke-linejoin: bevel;stroke-dasharray: 2.0, 2.0;shape-rendering:crispEdges;" transform="matrix(1,0,0,1,0,0)" clip-path="url(#_88721581838653clip-2)"/><line x1="509.13" y1="35" x2="509.13" y2="695" style="stroke-width: 0.5;stroke: rgb(192,192,192);stroke-opacity: 1.0;stroke-linejoin: bevel;stroke-dasharray: 2.0, 2.0;shape-rendering:crispEdges;" transform="matrix(1,0,0,1,0,0)" clip-path="url(#_88721581838653clip-2)"/><line x1="548.47" y1="35" x2="548.47" y2="695" style="stroke-width: 0.5;stroke: rgb(192,192,192);stroke-opacity: 1.0;stroke-linejoin: bevel;stroke-dasharray: 2.0, 2.0;shape-rendering:crispEdges;" transform="matrix(1,0,0,1,0,0)" clip-path="url(#_88721581838653clip-2)"/><line x1="587.81" y1="35" x2="587.81" y2="695" style="stroke-width: 0.5;stroke: rgb(192,192,192);stroke-opacity: 1.0;stroke-linejoin: bevel;stroke-dasharray: 2.0, 2.0;shape-rendering:crispEdges;" transform="matrix(1,0,0,1,0,0)" clip-path="url(#_88721581838653clip-2)"/><line x1="627.15" y1="35" x2="627.15" y2="695" style="stroke-width: 0.5;stroke: rgb(192,192,192);stroke-opacity: 1.0;stroke-linejoin: bevel;stroke-dasharray: 2.0, 2.0;shape-rendering:crispEdges;" transform="matrix(1,0,0,1,0,0)" clip-path="url(#_88721581838653clip-2)"/><line x1="666.49" y1="35" x2="666.49" y2="695" style="stroke-width: 0.5;stroke: rgb(192,192,192);stroke-opacity: 1.0;stroke-linejoin: bevel;stroke-dasharray: 2.0, 2.0;shape-rendering:crispEdges;" transform="matrix(1,0,0,1,0,0)" clip-path="url(#_88721581838653clip-2)"/><line x1="705.83" y1="35" x2="705.83" y2="695" style="stroke-width: 0.5;stroke: rgb(192,192,192);stroke-opacity: 1.0;stroke-linejoin: bevel;stroke-dasharray: 2.0, 2.0;shape-rendering:crispEdges;" transform="matrix(1,0,0,1,0,0)" clip-path="url(#_88721581838653clip-2)"/><line x1="745.17" y1="35" x2="745.17" y2="695" style="stroke-width: 0.5;stroke: rgb(192,192,192);stroke-opacity: 1.0;stroke-linejoin: bevel;stroke-dasharray: 2.0, 2.0;shape-rendering:crispEdges;" transform="matrix(1,0,0,1,0,0)" clip-path="url(#_88721581838653clip-2)"/><line x1="784.51" y1="35" x2="784.51" y2="695" style="stroke-width: 0.5;stroke: rgb(192,192,192);stroke-opacity: 1.0;stroke-linejoin: bevel;stroke-dasharray: 2.0, 2.0;shape-rendering:crispEdges;" transform="matrix(1,0,0,1,0,0)" clip-path="url(#_88721581838653clip-2)"/><line x1="823.85" y1="35" x2="823.85" y2="695" style="stroke-width: 0.5;stroke: rgb(192,192,192);stroke-opacity: 1.0;stroke-linejoin: bevel;stroke-dasharray: 2.0, 2.0;shape-rendering:crispEdges;" transform="matrix(1,0,0,1,0,0)" clip-path="url(#_88721581838653clip-2)"/><line x1="863.2" y1="35" x2="863.2" y2="695" style="stroke-width: 0.5;stroke: rgb(192,192,192);stroke-opacity: 1.0;stroke-linejoin: bevel;stroke-dasharray: 2.0, 2.0;shape-rendering:crispEdges;" transform="matrix(1,0,0,1,0,0)" clip-path="url(#_88721581838653clip-2)"/><line x1="902.54" y1="35" x2="902.54" y2="695" style="stroke-width: 0.5;stroke: rgb(192,192,192);stroke-opacity: 1.0;stroke-linejoin: bevel;stroke-dasharray: 2.0, 2.0;shape-rendering:crispEdges;" transform="matrix(1,0,0,1,0,0)" clip-path="url(#_88721581838653clip-2)"/><line x1="941.88" y1="35" x2="941.88" y2="695" style="stroke-width: 0.5;stroke: rgb(192,192,192);stroke-opacity: 1.0;stroke-linejoin: bevel;stroke-dasharray: 2.0, 2.0;shape-rendering:crispEdges;" transform="matrix(1,0,0,1,0,0)" clip-path="url(#_88721581838653clip-2)"/><line x1="981.22" y1="35" x2="981.22" y2="695" style="stroke-width: 0.5;stroke: rgb(192,192,192);stroke-opacity: 1.0;stroke-linejoin: bevel;stroke-dasharray: 2.0, 2.0;shape-rendering:crispEdges;" transform="matrix(1,0,0,1,0,0)" clip-path="url(#_88721581838653clip-2)"/><line x1="1020.56" y1="35" x2="1020.56" y2="695" style="stroke-width: 0.5;stroke: rgb(192,192,192);stroke-opacity: 1.0;stroke-linejoin: bevel;stroke-dasharray: 2.0, 2.0;shape-rendering:crispEdges;" transform="matrix(1,0,0,1,0,0)" clip-path="url(#_88721581838653clip-2)"/><line x1="1059.9" y1="35" x2="1059.9" y2="695" style="stroke-width: 0.5;stroke: rgb(192,192,192);stroke-opacity: 1.0;stroke-linejoin: bevel;stroke-dasharray: 2.0, 2.0;shape-rendering:crispEdges;" transform="matrix(1,0,0,1,0,0)" clip-path="url(#_88721581838653clip-2)"/><line x1="1099.24" y1="35" x2="1099.24" y2="695" style="stroke-width: 0.5;stroke: rgb(192,192,192);stroke-opacity: 1.0;stroke-linejoin: bevel;stroke-dasharray: 2.0, 2.0;shape-rendering:crispEdges;" transform="matrix(1,0,0,1,0,0)" clip-path="url(#_88721581838653clip-2)"/><line x1="1138.58" y1="35" x2="1138.58" y2="695" style="stroke-width: 0.5;stroke: rgb(192,192,192);stroke-opacity: 1.0;stroke-linejoin: bevel;stroke-dasharray: 2.0, 2.0;shape-rendering:crispEdges;" transform="matrix(1,0,0,1,0,0)" clip-path="url(#_88721581838653clip-2)"/><line x1="84" y1="690.59" x2="1140" y2="690.59" style="stroke-width: 0.5;stroke: rgb(192,192,192);stroke-opacity: 1.0;stroke-linejoin: bevel;stroke-dasharray: 2.0, 2.0;shape-rendering:crispEdges;" transform="matrix(1,0,0,1,0,0)" clip-path="url(#_88721581838653clip-2)"/><line x1="84" y1="663.38" x2="1140" y2="663.38" style="stroke-width: 0.5;stroke: rgb(192,192,192);stroke-opacity: 1.0;stroke-linejoin: bevel;stroke-dasharray: 2.0, 2.0;shape-rendering:crispEdges;" transform="matrix(1,0,0,1,0,0)" clip-path="url(#_88721581838653clip-2)"/><line x1="84" y1="636.18" x2="1140" y2="636.18" style="stroke-width: 0.5;stroke: rgb(192,192,192);stroke-opacity: 1.0;stroke-linejoin: bevel;stroke-dasharray: 2.0, 2.0;shape-rendering:crispEdges;" transform="matrix(1,0,0,1,0,0)" clip-path="url(#_88721581838653clip-2)"/><line x1="84" y1="608.97" x2="1140" y2="608.97" style="stroke-width: 0.5;stroke: rgb(192,192,192);stroke-opacity: 1.0;stroke-linejoin: bevel;stroke-dasharray: 2.0, 2.0;shape-rendering:crispEdges;" transform="matrix(1,0,0,1,0,0)" clip-path="url(#_88721581838653clip-2)"/><line x1="84" y1="581.77" x2="1140" y2="581.77" style="stroke-width: 0.5;stroke: rgb(192,192,192);stroke-opacity: 1.0;stroke-linejoin: bevel;stroke-dasharray: 2.0, 2.0;shape-rendering:crispEdges;" transform="matrix(1,0,0,1,0,0)" clip-path="url(#_88721581838653clip-2)"/><line x1="84" y1="554.56" x2="1140" y2="554.56" style="stroke-width: 0.5;stroke: rgb(192,192,192);stroke-opacity: 1.0;stroke-linejoin: bevel;stroke-dasharray: 2.0, 2.0;shape-rendering:crispEdges;" transform="matrix(1,0,0,1,0,0)" clip-path="url(#_88721581838653clip-2)"/><line x1="84" y1="527.36" x2="1140" y2="527.36" style="stroke-width: 0.5;stroke: rgb(192,192,192);stroke-opacity: 1.0;stroke-linejoin: bevel;stroke-dasharray: 2.0, 2.0;shape-rendering:crispEdges;" transform="matrix(1,0,0,1,0,0)" clip-path="url(#_88721581838653clip-2)"/><line x1="84" y1="500.15" x2="1140" y2="500.15" style="stroke-width: 0.5;stroke: rgb(192,192,192);stroke-opacity: 1.0;stroke-linejoin: bevel;stroke-dasharray: 2.0, 2.0;shape-rendering:crispEdges;" transform="matrix(1,0,0,1,0,0)" clip-path="url(#_88721581838653clip-2)"/><line x1="84" y1="472.95" x2="1140" y2="472.95" style="stroke-width: 0.5;stroke: rgb(192,192,192);stroke-opacity: 1.0;stroke-linejoin: bevel;stroke-dasharray: 2.0, 2.0;shape-rendering:crispEdges;" transform="matrix(1,0,0,1,0,0)" clip-path="url(#_88721581838653clip-2)"/><line x1="84" y1="445.74" x2="1140" y2="445.74" style="stroke-width: 0.5;stroke: rgb(192,192,192);stroke-opacity: 1.0;stroke-linejoin: bevel;stroke-dasharray: 2.0, 2.0;shape-rendering:crispEdges;" transform="matrix(1,0,0,1,0,0)" clip-path="url(#_88721581838653clip-2)"/><line x1="84" y1="418.54" x2="1140" y2="418.54" style="stroke-width: 0.5;stroke: rgb(192,192,192);stroke-opacity: 1.0;stroke-linejoin: bevel;stroke-dasharray: 2.0, 2.0;shape-rendering:crispEdges;" transform="matrix(1,0,0,1,0,0)" clip-path="url(#_88721581838653clip-2)"/><line x1="84" y1="391.33" x2="1140" y2="391.33" style="stroke-width: 0.5;stroke: rgb(192,192,192);stroke-opacity: 1.0;stroke-linejoin: bevel;stroke-dasharray: 2.0, 2.0;shape-rendering:crispEdges;" transform="matrix(1,0,0,1,0,0)" clip-path="url(#_88721581838653clip-2)"/><line x1="84" y1="364.13" x2="1140" y2="364.13" style="stroke-width: 0.5;stroke: rgb(192,192,192);stroke-opacity: 1.0;stroke-linejoin: bevel;stroke-dasharray: 2.0, 2.0;shape-rendering:crispEdges;" transform="matrix(1,0,0,1,0,0)" clip-path="url(#_88721581838653clip-2)"/><line x1="84" y1="336.92" x2="1140" y2="336.92" style="stroke-width: 0.5;stroke: rgb(192,192,192);stroke-opacity: 1.0;stroke-linejoin: bevel;stroke-dasharray: 2.0, 2.0;shape-rendering:crispEdges;" transform="matrix(1,0,0,1,0,0)" clip-path="url(#_88721581838653clip-2)"/><line x1="84" y1="309.72" x2="1140" y2="309.72" style="stroke-width: 0.5;stroke: rgb(192,192,192);stroke-opacity: 1.0;stroke-linejoin: bevel;stroke-dasharray: 2.0, 2.0;shape-rendering:crispEdges;" transform="matrix(1,0,0,1,0,0)" clip-path="url(#_88721581838653clip-2)"/><line x1="84" y1="282.52" x2="1140" y2="282.52" style="stroke-width: 0.5;stroke: rgb(192,192,192);stroke-opacity: 1.0;stroke-linejoin: bevel;stroke-dasharray: 2.0, 2.0;shape-rendering:crispEdges;" transform="matrix(1,0,0,1,0,0)" clip-path="url(#_88721581838653clip-2)"/><line x1="84" y1="255.31" x2="1140" y2="255.31" style="stroke-width: 0.5;stroke: rgb(192,192,192);stroke-opacity: 1.0;stroke-linejoin: bevel;stroke-dasharray: 2.0, 2.0;shape-rendering:crispEdges;" transform="matrix(1,0,0,1,0,0)" clip-path="url(#_88721581838653clip-2)"/><line x1="84" y1="228.11" x2="1140" y2="228.11" style="stroke-width: 0.5;stroke: rgb(192,192,192);stroke-opacity: 1.0;stroke-linejoin: bevel;stroke-dasharray: 2.0, 2.0;shape-rendering:crispEdges;" transform="matrix(1,0,0,1,0,0)" clip-path="url(#_88721581838653clip-2)"/><line x1="84" y1="200.9" x2="1140" y2="200.9" style="stroke-width: 0.5;stroke: rgb(192,192,192);stroke-opacity: 1.0;stroke-linejoin: bevel;stroke-dasharray: 2.0, 2.0;shape-rendering:crispEdges;" transform="matrix(1,0,0,1,0,0)" clip-path="url(#_88721581838653clip-2)"/><line x1="84" y1="173.7" x2="1140" y2="173.7" style="stroke-width: 0.5;stroke: rgb(192,192,192);stroke-opacity: 1.0;stroke-linejoin: bevel;stroke-dasharray: 2.0, 2.0;shape-rendering:crispEdges;" transform="matrix(1,0,0,1,0,0)" clip-path="url(#_88721581838653clip-2)"/><line x1="84" y1="146.49" x2="1140" y2="146.49" style="stroke-width: 0.5;stroke: rgb(192,192,192);stroke-opacity: 1.0;stroke-linejoin: bevel;stroke-dasharray: 2.0, 2.0;shape-rendering:crispEdges;" transform="matrix(1,0,0,1,0,0)" clip-path="url(#_88721581838653clip-2)"/><line x1="84" y1="119.29" x2="1140" y2="119.29" style="stroke-width: 0.5;stroke: rgb(192,192,192);stroke-opacity: 1.0;stroke-linejoin: bevel;stroke-dasharray: 2.0, 2.0;shape-rendering:crispEdges;" transform="matrix(1,0,0,1,0,0)" clip-path="url(#_88721581838653clip-2)"/><line x1="84" y1="92.08" x2="1140" y2="92.08" style="stroke-width: 0.5;stroke: rgb(192,192,192);stroke-opacity: 1.0;stroke-linejoin: bevel;stroke-dasharray: 2.0, 2.0;shape-rendering:crispEdges;" transform="matrix(1,0,0,1,0,0)" clip-path="url(#_88721581838653clip-2)"/><line x1="84" y1="64.88" x2="1140" y2="64.88" style="stroke-width: 0.5;stroke: rgb(192,192,192);stroke-opacity: 1.0;stroke-linejoin: bevel;stroke-dasharray: 2.0, 2.0;shape-rendering:crispEdges;" transform="matrix(1,0,0,1,0,0)" clip-path="url(#_88721581838653clip-2)"/><line x1="84" y1="37.67" x2="1140" y2="37.67" style="stroke-width: 0.5;stroke: rgb(192,192,192);stroke-opacity: 1.0;stroke-linejoin: bevel;stroke-dasharray: 2.0, 2.0;shape-rendering:crispEdges;" transform="matrix(1,0,0,1,0,0)" clip-path="url(#_88721581838653clip-2)"/><line x1="148.5" y1="640.35" x2="178.1" y2="639.91" style="stroke-width: 3.0;stroke: rgb(0,0,0);stroke-opacity: 1.0;stroke-linecap: square;shape-rendering:geometricPrecision;" transform="matrix(1,0,0,1,0,0)" clip-path="url(#_88721581838653clip-2)"/><line x1="178.1" y1="639.91" x2="207.7" y2="639.47" style="stroke-width: 3.0;stroke: rgb(0,0,0);stroke-opacity: 1.0;stroke-linecap: square;shape-rendering:geometricPrecision;" transform="matrix(1,0,0,1,0,0)" clip-path="url(#_88721581838653clip-2)"/><line x1="207.7" y1="639.47" x2="237.3" y2="639.03" style="stroke-width: 3.0;stroke: rgb(0,0,0);stroke-opacity: 1.0;stroke-linecap: square;shape-rendering:geometricPrecision;" transform="matrix(1,0,0,1,0,0)" clip-path="url(#_88721581838653clip-2)"/><line x1="237.3" y1="639.03" x2="266.89" y2="638.6" style="stroke-width: 3.0;stroke: rgb(0,0,0);stroke-opacity: 1.0;stroke-linecap: square;shape-rendering:geometricPrecision;" transform="matrix(1,0,0,1,0,0)" clip-path="url(#_88721581838653clip-2)"/><line x1="266.89" y1="638.6" x2="296.49" y2="638.16" style="stroke-width: 3.0;stroke: rgb(0,0,0);stroke-opacity: 1.0;stroke-linecap: square;shape-rendering:geometricPrecision;" transform="matrix(1,0,0,1,0,0)" clip-path="url(#_88721581838653clip-2)"/><line x1="296.49" y1="638.16" x2="326.09" y2="637.72" style="stroke-width: 3.0;stroke: rgb(0,0,0);stroke-opacity: 1.0;stroke-linecap: square;shape-rendering:geometricPrecision;" transform="matrix(1,0,0,1,0,0)" clip-path="url(#_88721581838653clip-2)"/><line x1="326.09" y1="637.72" x2="355.35" y2="637.29" style="stroke-width: 3.0;stroke: rgb(0,0,0);stroke-opacity: 1.0;stroke-linecap: square;shape-rendering:geometricPrecision;" transform="matrix(1,0,0,1,0,0)" clip-path="url(#_88721581838653clip-2)"/><line x1="355.35" y1="637.29" x2="385.28" y2="636.85" style="stroke-width: 3.0;stroke: rgb(0,0,0);stroke-opacity: 1.0;stroke-linecap: square;shape-rendering:geometricPrecision;" transform="matrix(1,0,0,1,0,0)" clip-path="url(#_88721581838653clip-2)"/><line x1="385.28" y1="636.85" x2="414.88" y2="636.41" style="stroke-width: 3.0;stroke: rgb(0,0,0);stroke-opacity: 1.0;stroke-linecap: square;shape-rendering:geometricPrecision;" transform="matrix(1,0,0,1,0,0)" clip-path="url(#_88721581838653clip-2)"/><line x1="414.88" y1="636.41" x2="444.17" y2="624.55" style="stroke-width: 3.0;stroke: rgb(0,0,0);stroke-opacity: 1.0;stroke-linecap: square;shape-rendering:geometricPrecision;" transform="matrix(1,0,0,1,0,0)" clip-path="url(#_88721581838653clip-2)"/><line x1="444.17" y1="624.55" x2="473.14" y2="600.01" style="stroke-width: 3.0;stroke: rgb(0,0,0);stroke-opacity: 1.0;stroke-linecap: square;shape-rendering:geometricPrecision;" transform="matrix(1,0,0,1,0,0)" clip-path="url(#_88721581838653clip-2)"/><line x1="473.14" y1="600.01" x2="501.81" y2="575.71" style="stroke-width: 3.0;stroke: rgb(0,0,0);stroke-opacity: 1.0;stroke-linecap: square;shape-rendering:geometricPrecision;" transform="matrix(1,0,0,1,0,0)" clip-path="url(#_88721581838653clip-2)"/><line x1="501.81" y1="575.71" x2="530.18" y2="551.68" style="stroke-width: 3.0;stroke: rgb(0,0,0);stroke-opacity: 1.0;stroke-linecap: square;shape-rendering:geometricPrecision;" transform="matrix(1,0,0,1,0,0)" clip-path="url(#_88721581838653clip-2)"/><line x1="530.18" y1="551.68" x2="558.26" y2="527.89" style="stroke-width: 3.0;stroke: rgb(0,0,0);stroke-opacity: 1.0;stroke-linecap: square;shape-rendering:geometricPrecision;" transform="matrix(1,0,0,1,0,0)" clip-path="url(#_88721581838653clip-2)"/><line x1="558.26" y1="527.89" x2="586.04" y2="504.35" style="stroke-width: 3.0;stroke: rgb(0,0,0);stroke-opacity: 1.0;stroke-linecap: square;shape-rendering:geometricPrecision;" transform="matrix(1,0,0,1,0,0)" clip-path="url(#_88721581838653clip-2)"/><line x1="586.04" y1="504.35" x2="613.55" y2="481.04" style="stroke-width: 3.0;stroke: rgb(0,0,0);stroke-opacity: 1.0;stroke-linecap: square;shape-rendering:geometricPrecision;" transform="matrix(1,0,0,1,0,0)" clip-path="url(#_88721581838653clip-2)"/><line x1="613.55" y1="481.04" x2="640.78" y2="457.97" style="stroke-width: 3.0;stroke: rgb(0,0,0);stroke-opacity: 1.0;stroke-linecap: square;shape-rendering:geometricPrecision;" transform="matrix(1,0,0,1,0,0)" clip-path="url(#_88721581838653clip-2)"/><line x1="640.78" y1="457.97" x2="667.74" y2="435.13" style="stroke-width: 3.0;stroke: rgb(0,0,0);stroke-opacity: 1.0;stroke-linecap: square;shape-rendering:geometricPrecision;" transform="matrix(1,0,0,1,0,0)" clip-path="url(#_88721581838653clip-2)"/><line x1="667.74" y1="435.13" x2="694.45" y2="412.5" style="stroke-width: 3.0;stroke: rgb(0,0,0);stroke-opacity: 1.0;stroke-linecap: square;shape-rendering:geometricPrecision;" transform="matrix(1,0,0,1,0,0)" clip-path="url(#_88721581838653clip-2)"/><line x1="694.45" y1="412.5" x2="720.9" y2="390.09" style="stroke-width: 3.0;stroke: rgb(0,0,0);stroke-opacity: 1.0;stroke-linecap: square;shape-rendering:geometricPrecision;" transform="matrix(1,0,0,1,0,0)" clip-path="url(#_88721581838653clip-2)"/><line x1="720.9" y1="390.09" x2="747.12" y2="367.87" style="stroke-width: 3.0;stroke: rgb(0,0,0);stroke-opacity: 1.0;stroke-linecap: square;shape-rendering:geometricPrecision;" transform="matrix(1,0,0,1,0,0)" clip-path="url(#_88721581838653clip-2)"/><line x1="747.12" y1="367.87" x2="773.34" y2="345.66" style="stroke-width: 3.0;stroke: rgb(0,0,0);stroke-opacity: 1.0;stroke-linecap: square;shape-rendering:geometricPrecision;" transform="matrix(1,0,0,1,0,0)" clip-path="url(#_88721581838653clip-2)"/><line x1="773.34" y1="345.66" x2="800.21" y2="322.89" style="stroke-width: 3.0;stroke: rgb(0,0,0);stroke-opacity: 1.0;stroke-linecap: square;shape-rendering:geometricPrecision;" transform="matrix(1,0,0,1,0,0)" clip-path="url(#_88721581838653clip-2)"/><line x1="800.21" y1="322.89" x2="828.51" y2="298.91" style="stroke-width: 3.0;stroke: rgb(0,0,0);stroke-opacity: 1.0;stroke-linecap: square;shape-rendering:geometricPrecision;" transform="matrix(1,0,0,1,0,0)" clip-path="url(#_88721581838653clip-2)"/><line x1="828.51" y1="298.91" x2="858.8" y2="273.25" style="stroke-width: 3.0;stroke: rgb(0,0,0);stroke-opacity: 1.0;stroke-linecap: square;shape-rendering:geometricPrecision;" transform="matrix(1,0,0,1,0,0)" clip-path="url(#_88721581838653clip-2)"/><line x1="858.8" y1="273.25" x2="896.74" y2="241.11" style="stroke-width: 3.0;stroke: rgb(0,0,0);stroke-opacity: 1.0;stroke-linecap: square;shape-rendering:geometricPrecision;" transform="matrix(1,0,0,1,0,0)" clip-path="url(#_88721581838653clip-2)"/><line x1="896.74" y1="241.11" x2="939.12" y2="205.2" style="stroke-width: 3.0;stroke: rgb(0,0,0);stroke-opacity: 1.0;stroke-linecap: square;shape-rendering:geometricPrecision;" transform="matrix(1,0,0,1,0,0)" clip-path="url(#_88721581838653clip-2)"/><line x1="939.12" y1="205.2" x2="985.49" y2="165.91" style="stroke-width: 3.0;stroke: rgb(0,0,0);stroke-opacity: 1.0;stroke-linecap: square;shape-rendering:geometricPrecision;" transform="matrix(1,0,0,1,0,0)" clip-path="url(#_88721581838653clip-2)"/><line x1="985.49" y1="165.91" x2="1032.37" y2="126.19" style="stroke-width: 3.0;stroke: rgb(0,0,0);stroke-opacity: 1.0;stroke-linecap: square;shape-rendering:geometricPrecision;" transform="matrix(1,0,0,1,0,0)" clip-path="url(#_88721581838653clip-2)"/><line x1="1032.37" y1="126.19" x2="1075.5" y2="89.65" style="stroke-width: 3.0;stroke: rgb(0,0,0);stroke-opacity: 1.0;stroke-linecap: square;shape-rendering:geometricPrecision;" transform="matrix(1,0,0,1,0,0)" clip-path="url(#_88721581838653clip-2)"/><rect x="84" y="35" width="1056" height="660" style="stroke-width: 0.5;stroke: rgb(0,0,0);stroke-opacity: 1.0;stroke-linecap: round;stroke-linejoin: round;shape-rendering:crispEdges;; fill: none" transform="matrix(1,0,0,1,0,0)" clip-path="url(#_88721581838653clip-0)"/></svg>
