<!DOCTYPE svg PUBLIC "-//W3C//DTD SVG 1.1//EN" "http://www.w3.org/Graphics/SVG/1.1/DTD/svg11.dtd">
<svg xmlns="http://www.w3.org/2000/svg" xmlns:xlink="http://www.w3.org/1999/xlink" xmlns:jfreesvg="http://www.jfree.org/jfreesvg/svg" width="1152" height="768" text-rendering="auto" shape-rendering="auto">
<defs><clipPath id="_1669112410753721clip-0"><path d="M 0 0 L 1152 0 L 1152 768 L 0 768 L 0 0 Z "/></clipPath>
<clipPath id="_1669112410753721clip-1"><path d="M 384.5 345.5 L 384.5 1497.5 L -383.5 1497.5 L -383.5 345.5 L 384.5 345.5 Z "/></clipPath>
<clipPath id="_1669112410753721clip-2"><path d="M 71 35 L 71 695 L 1140 695 L 1140 35 Z "/></clipPath>
</defs>
<rect x="0" y="0" width="1152" height="768" style="fill: rgb(255,255,255); fill-opacity: 1.0" transform="matrix(1,0,0,1,0,0)" clip-path="url(#_1669112410753721clip-0)"/><g transform="matrix(1,0,0,1,0,0)"><text x="514.5" y="21.01" style="fill: rgb(0,0,0); fill-opacity: 1.0; font-family: Tahoma; font-size: 20px; font-weight: bold;" clip-path="url(#_1669112410753721clip-0)">Polar_Curve</text></g><rect x="528.5" y="746" width="95" height="21" style="fill: rgb(255,255,255); fill-opacity: 1.0" transform="matrix(1,0,0,1,0,0)" clip-path="url(#_1669112410753721clip-0)"/><g style="stroke-width: 3.0;stroke: rgb(0,0,0);stroke-opacity: 1.0;stroke-linecap: square;shape-rendering:geometricPrecision;; fill: none" transform="matrix(1,0,0,1,0,0)" clip-path="url(#_1669112410753721clip-0)"><path d="M 531.5 756.5 L 545.5 756.5"/></g><g transform="matrix(1,0,0,1,0,0)"><text x="549.5" y="761.01" style="fill: rgb(64,64,64); fill-opacity: 1.0; font-family: Tahoma; font-size: 12px;" clip-path="url(#_1669112410753721clip-0)"> Polar_Curve </text></g><rect x="71" y="35" width="1069" height="660" style="fill: rgb(255,255,255); fill-opacity: 0.0" transform="matrix(1,0,0,1,0,0)" clip-path="url(#_1669112410753721clip-0)"/><line x1="71" y1="699" x2="1140" y2="699" style="stroke-width: 0.5;stroke: rgb(128,128,128);stroke-opacity: 1.0;stroke-linecap: square;shape-rendering:crispEdges;" transform="matrix(1,0,0,1,0,0)" clip-path="url(#_1669112410753721clip-0)"/><g transform="matrix(1,0,0,1,0,0)"><text x="97.12" y="715.52" style="fill: rgb(64,64,64); fill-opacity: 1.0; font-family: Tahoma; font-size: 12px;" clip-path="url(#_1669112410753721clip-0)">0,009</text></g><line x1="112.12" y1="701" x2="112.12" y2="699" style="stroke-width: 0.5;stroke: rgb(128,128,128);stroke-opacity: 1.0;stroke-linecap: square;shape-rendering:crispEdges;" transform="matrix(1,0,0,1,0,0)" clip-path="url(#_1669112410753721clip-0)"/><g transform="matrix(1,0,0,1,0,0)"><text x="139.65" y="715.52" style="fill: rgb(64,64,64); fill-opacity: 1.0; font-family: Tahoma; font-size: 12px;" clip-path="url(#_1669112410753721clip-0)">0,010</text></g><line x1="154.65" y1="701" x2="154.65" y2="699" style="stroke-width: 0.5;stroke: rgb(128,128,128);stroke-opacity: 1.0;stroke-linecap: square;shape-rendering:crispEdges;" transform="matrix(1,0,0,1,0,0)" clip-path="url(#_1669112410753721clip-0)"/><g transform="matrix(1,0,0,1,0,0)"><text x="182.18" y="715.52" style="fill: rgb(64,64,64); fill-opacity: 1.0; font-family: Tahoma; font-size: 12px;" clip-path="url(#_1669112410753721clip-0)">0,011</text></g><line x1="197.18" y1="701" x2="197.18" y2="699" style="stroke-width: 0.5;stroke: rgb(128,128,128);stroke-opacity: 1.0;stroke-linecap: square;shape-rendering:crispEdges;" transform="matrix(1,0,0,1,0,0)" clip-path="url(#_1669112410753721clip-0)"/><g transform="matrix(1,0,0,1,0,0)"><text x="224.72" y="715.52" style="fill: rgb(64,64,64); fill-opacity: 1.0; font-family: Tahoma; font-size: 12px;" clip-path="url(#_1669112410753721clip-0)">0,012</text></g><line x1="239.72" y1="701" x2="239.72" y2="699" style="stroke-width: 0.5;stroke: rgb(128,128,128);stroke-opacity: 1.0;stroke-linecap: square;shape-rendering:crispEdges;" transform="matrix(1,0,0,1,0,0)" clip-path="url(#_1669112410753721clip-0)"/><g transform="matrix(1,0,0,1,0,0)"><text x="267.25" y="715.52" style="fill: rgb(64,64,64); fill-opacity: 1.0; font-family: Tahoma; font-size: 12px;" clip-path="url(#_1669112410753721clip-0)">0,013</text></g><line x1="282.25" y1="701" x2="282.25" y2="699" style="stroke-width: 0.5;stroke: rgb(128,128,128);stroke-opacity: 1.0;stroke-linecap: square;shape-rendering:crispEdges;" transform="matrix(1,0,0,1,0,0)" clip-path="url(#_1669112410753721clip-0)"/><g transform="matrix(1,0,0,1,0,0)"><text x="309.78" y="715.52" style="fill: rgb(64,64,64); fill-opacity: 1.0; font-family: Tahoma; font-size: 12px;" clip-path="url(#_1669112410753721clip-0)">0,014</text></g><line x1="324.78" y1="701" x2="324.78" y2="699" style="stroke-width: 0.5;stroke: rgb(128,128,128);stroke-opacity: 1.0;stroke-linecap: square;shape-rendering:crispEdges;" transform="matrix(1,0,0,1,0,0)" clip-path="url(#_1669112410753721clip-0)"/><g transform="matrix(1,0,0,1,0,0)"><text x="352.32" y="715.52" style="fill: rgb(64,64,64); fill-opacity: 1.0; font-family: Tahoma; font-size: 12px;" clip-path="url(#_1669112410753721clip-0)">0,015</text></g><line x1="367.32" y1="701" x2="367.32" y2="699" style="stroke-width: 0.5;stroke: rgb(128,128,128);stroke-opacity: 1.0;stroke-linecap: square;shape-rendering:crispEdges;" transform="matrix(1,0,0,1,0,0)" clip-path="url(#_1669112410753721clip-0)"/><g transform="matrix(1,0,0,1,0,0)"><text x="394.85" y="715.52" style="fill: rgb(64,64,64); fill-opacity: 1.0; font-family: Tahoma; font-size: 12px;" clip-path="url(#_1669112410753721clip-0)">0,016</text></g><line x1="409.85" y1="701" x2="409.85" y2="699" style="stroke-width: 0.5;stroke: rgb(128,128,128);stroke-opacity: 1.0;stroke-linecap: square;shape-rendering:crispEdges;" transform="matrix(1,0,0,1,0,0)" clip-path="url(#_1669112410753721clip-0)"/><g transform="matrix(1,0,0,1,0,0)"><text x="437.38" y="715.52" style="fill: rgb(64,64,64); fill-opacity: 1.0; font-family: Tahoma; font-size: 12px;" clip-path="url(#_1669112410753721clip-0)">0,017</text></g><line x1="452.38" y1="701" x2="452.38" y2="699" style="stroke-width: 0.5;stroke: rgb(128,128,128);stroke-opacity: 1.0;stroke-linecap: square;shape-rendering:crispEdges;" transform="matrix(1,0,0,1,0,0)" clip-path="url(#_1669112410753721clip-0)"/><g transform="matrix(1,0,0,1,0,0)"><text x="479.91" y="715.52" style="fill: rgb(64,64,64); fill-opacity: 1.0; font-family: Tahoma; font-size: 12px;" clip-path="url(#_1669112410753721clip-0)">0,018</text></g><line x1="494.91" y1="701" x2="494.91" y2="699" style="stroke-width: 0.5;stroke: rgb(128,128,128);stroke-opacity: 1.0;stroke-linecap: square;shape-rendering:crispEdges;" transform="matrix(1,0,0,1,0,0)" clip-path="url(#_1669112410753721clip-0)"/><g transform="matrix(1,0,0,1,0,0)"><text x="522.45" y="715.52" style="fill: rgb(64,64,64); fill-opacity: 1.0; font-family: Tahoma; font-size: 12px;" clip-path="url(#_1669112410753721clip-0)">0,019</text></g><line x1="537.45" y1="701" x2="537.45" y2="699" style="stroke-width: 0.5;stroke: rgb(128,128,128);stroke-opacity: 1.0;stroke-linecap: square;shape-rendering:crispEdges;" transform="matrix(1,0,0,1,0,0)" clip-path="url(#_1669112410753721clip-0)"/><g transform="matrix(1,0,0,1,0,0)"><text x="564.98" y="715.52" style="fill: rgb(64,64,64); fill-opacity: 1.0; font-family: Tahoma; font-size: 12px;" clip-path="url(#_1669112410753721clip-0)">0,020</text></g><line x1="579.98" y1="701" x2="579.98" y2="699" style="stroke-width: 0.5;stroke: rgb(128,128,128);stroke-opacity: 1.0;stroke-linecap: square;shape-rendering:crispEdges;" transform="matrix(1,0,0,1,0,0)" clip-path="url(#_1669112410753721clip-0)"/><g transform="matrix(1,0,0,1,0,0)"><text x="607.51" y="715.52" style="fill: rgb(64,64,64); fill-opacity: 1.0; font-family: Tahoma; font-size: 12px;" clip-path="url(#_1669112410753721clip-0)">0,021</text></g><line x1="622.51" y1="701" x2="622.51" y2="699" style="stroke-width: 0.5;stroke: rgb(128,128,128);stroke-opacity: 1.0;stroke-linecap: square;shape-rendering:crispEdges;" transform="matrix(1,0,0,1,0,0)" clip-path="url(#_1669112410753721clip-0)"/><g transform="matrix(1,0,0,1,0,0)"><text x="650.05" y="715.52" style="fill: rgb(64,64,64); fill-opacity: 1.0; font-family: Tahoma; font-size: 12px;" clip-path="url(#_1669112410753721clip-0)">0,022</text></g><line x1="665.05" y1="701" x2="665.05" y2="699" style="stroke-width: 0.5;stroke: rgb(128,128,128);stroke-opacity: 1.0;stroke-linecap: square;shape-rendering:crispEdges;" transform="matrix(1,0,0,1,0,0)" clip-path="url(#_1669112410753721clip-0)"/><g transform="matrix(1,0,0,1,0,0)"><text x="692.58" y="715.52" style="fill: rgb(64,64,64); fill-opacity: 1.0; font-family: Tahoma; font-size: 12px;" clip-path="url(#_1669112410753721clip-0)">0,023</text></g><line x1="707.58" y1="701" x2="707.58" y2="699" style="stroke-width: 0.5;stroke: rgb(128,128,128);stroke-opacity: 1.0;stroke-linecap: square;shape-rendering:crispEdges;" transform="matrix(1,0,0,1,0,0)" clip-path="url(#_1669112410753721clip-0)"/><g transform="matrix(1,0,0,1,0,0)"><text x="735.11" y="715.52" style="fill: rgb(64,64,64); fill-opacity: 1.0; font-family: Tahoma; font-size: 12px;" clip-path="url(#_1669112410753721clip-0)">0,024</text></g><line x1="750.11" y1="701" x2="750.11" y2="699" style="stroke-width: 0.5;stroke: rgb(128,128,128);stroke-opacity: 1.0;stroke-linecap: square;shape-rendering:crispEdges;" transform="matrix(1,0,0,1,0,0)" clip-path="url(#_1669112410753721clip-0)"/><g transform="matrix(1,0,0,1,0,0)"><text x="777.64" y="715.52" style="fill: rgb(64,64,64); fill-opacity: 1.0; font-family: Tahoma; font-size: 12px;" clip-path="url(#_1669112410753721clip-0)">0,025</text></g><line x1="792.64" y1="701" x2="792.64" y2="699" style="stroke-width: 0.5;stroke: rgb(128,128,128);stroke-opacity: 1.0;stroke-linecap: square;shape-rendering:crispEdges;" transform="matrix(1,0,0,1,0,0)" clip-path="url(#_1669112410753721clip-0)"/><g transform="matrix(1,0,0,1,0,0)"><text x="820.18" y="715.52" style="fill: rgb(64,64,64); fill-opacity: 1.0; font-family: Tahoma; font-size: 12px;" clip-path="url(#_1669112410753721clip-0)">0,026</text></g><line x1="835.18" y1="701" x2="835.18" y2="699" style="stroke-width: 0.5;stroke: rgb(128,128,128);stroke-opacity: 1.0;stroke-linecap: square;shape-rendering:crispEdges;" transform="matrix(1,0,0,1,0,0)" clip-path="url(#_1669112410753721clip-0)"/><g transform="matrix(1,0,0,1,0,0)"><text x="862.71" y="715.52" style="fill: rgb(64,64,64); fill-opacity: 1.0; font-family: Tahoma; font-size: 12px;" clip-path="url(#_1669112410753721clip-0)">0,027</text></g><line x1="877.71" y1="701" x2="877.71" y2="699" style="stroke-width: 0.5;stroke: rgb(128,128,128);stroke-opacity: 1.0;stroke-linecap: square;shape-rendering:crispEdges;" transform="matrix(1,0,0,1,0,0)" clip-path="url(#_1669112410753721clip-0)"/><g transform="matrix(1,0,0,1,0,0)"><text x="905.24" y="715.52" style="fill: rgb(64,64,64); fill-opacity: 1.0; font-family: Tahoma; font-size: 12px;" clip-path="url(#_1669112410753721clip-0)">0,028</text></g><line x1="920.24" y1="701" x2="920.24" y2="699" style="stroke-width: 0.5;stroke: rgb(128,128,128);stroke-opacity: 1.0;stroke-linecap: square;shape-rendering:crispEdges;" transform="matrix(1,0,0,1,0,0)" clip-path="url(#_1669112410753721clip-0)"/><g transform="matrix(1,0,0,1,0,0)"><text x="947.78" y="715.52" style="fill: rgb(64,64,64); fill-opacity: 1.0; font-family: Tahoma; font-size: 12px;" clip-path="url(#_1669112410753721clip-0)">0,029</text></g><line x1="962.78" y1="701" x2="962.78" y2="699" style="stroke-width: 0.5;stroke: rgb(128,128,128);stroke-opacity: 1.0;stroke-linecap: square;shape-rendering:crispEdges;" transform="matrix(1,0,0,1,0,0)" clip-path="url(#_1669112410753721clip-0)"/><g transform="matrix(1,0,0,1,0,0)"><text x="990.31" y="715.52" style="fill: rgb(64,64,64); fill-opacity: 1.0; font-family: Tahoma; font-size: 12px;" clip-path="url(#_1669112410753721clip-0)">0,030</text></g><line x1="1005.31" y1="701" x2="1005.31" y2="699" style="stroke-width: 0.5;stroke: rgb(128,128,128);stroke-opacity: 1.0;stroke-linecap: square;shape-rendering:crispEdges;" transform="matrix(1,0,0,1,0,0)" clip-path="url(#_1669112410753721clip-0)"/><g transform="matrix(1,0,0,1,0,0)"><text x="1032.84" y="715.52" style="fill: rgb(64,64,64); fill-opacity: 1.0; font-family: Tahoma; font-size: 12px;" clip-path="url(#_1669112410753721clip-0)">0,031</text></g><line x1="1047.84" y1="701" x2="1047.84" y2="699" style="stroke-width: 0.5;stroke: rgb(128,128,128);stroke-opacity: 1.0;stroke-linecap: square;shape-rendering:crispEdges;" transform="matrix(1,0,0,1,0,0)" clip-path="url(#_1669112410753721clip-0)"/><g transform="matrix(1,0,0,1,0,0)"><text x="1075.37" y="715.52" style="fill: rgb(64,64,64); fill-opacity: 1.0; font-family: Tahoma; font-size: 12px;" clip-path="url(#_1669112410753721clip-0)">0,032</text></g><line x1="1090.37" y1="701" x2="1090.37" y2="699" style="stroke-width: 0.5;stroke: rgb(128,128,128);stroke-opacity: 1.0;stroke-linecap: square;shape-rendering:crispEdges;" transform="matrix(1,0,0,1,0,0)" clip-path="url(#_1669112410753721clip-0)"/><g transform="matrix(1,0,0,1,0,0)"><text x="1117.91" y="715.52" style="fill: rgb(64,64,64); fill-opacity: 1.0; font-family: Tahoma; font-size: 12px;" clip-path="url(#_1669112410753721clip-0)">0,033</text></g><line x1="1132.91" y1="701" x2="1132.91" y2="699" style="stroke-width: 0.5;stroke: rgb(128,128,128);stroke-opacity: 1.0;stroke-linecap: square;shape-rendering:crispEdges;" transform="matrix(1,0,0,1,0,0)" clip-path="url(#_1669112410753721clip-0)"/><g transform="matrix(1,0,0,1,0,0)"><text x="593.5" y="734.59" style="fill: rgb(64,64,64); fill-opacity: 1.0; font-family: Tahoma; font-size: 14px; font-weight: bold;" clip-path="url(#_1669112410753721clip-0)">CD </text></g><line x1="67" y1="35" x2="67" y2="695" style="stroke-width: 0.5;stroke: rgb(128,128,128);stroke-opacity: 1.0;stroke-linecap: square;shape-rendering:crispEdges;" transform="matrix(1,0,0,1,0,0)" clip-path="url(#_1669112410753721clip-0)"/><g transform="matrix(1,0,0,1,0,0)"><text x="33" y="696.21" style="fill: rgb(64,64,64); fill-opacity: 1.0; font-family: Tahoma; font-size: 12px;" clip-path="url(#_1669112410753721clip-0)">-0,10</text></g><line x1="65" y1="691.19" x2="67" y2="691.19" style="stroke-width: 0.5;stroke: rgb(128,128,128);stroke-opacity: 1.0;stroke-linecap: square;shape-rendering:crispEdges;" transform="matrix(1,0,0,1,0,0)" clip-path="url(#_1669112410753721clip-0)"/><g transform="matrix(1,0,0,1,0,0)"><text x="33" y="670.61" style="fill: rgb(64,64,64); fill-opacity: 1.0; font-family: Tahoma; font-size: 12px;" clip-path="url(#_1669112410753721clip-0)">-0,05</text></g><line x1="65" y1="665.59" x2="67" y2="665.59" style="stroke-width: 0.5;stroke: rgb(128,128,128);stroke-opacity: 1.0;stroke-linecap: square;shape-rendering:crispEdges;" transform="matrix(1,0,0,1,0,0)" clip-path="url(#_1669112410753721clip-0)"/><g transform="matrix(1,0,0,1,0,0)"><text x="38" y="645.02" style="fill: rgb(64,64,64); fill-opacity: 1.0; font-family: Tahoma; font-size: 12px;" clip-path="url(#_1669112410753721clip-0)">0,00</text></g><line x1="65" y1="640" x2="67" y2="640" style="stroke-width: 0.5;stroke: rgb(128,128,128);stroke-opacity: 1.0;stroke-linecap: square;shape-rendering:crispEdges;" transform="matrix(1,0,0,1,0,0)" clip-path="url(#_1669112410753721clip-0)"/><g transform="matrix(1,0,0,1,0,0)"><text x="38" y="619.43" style="fill: rgb(64,64,64); fill-opacity: 1.0; font-family: Tahoma; font-size: 12px;" clip-path="url(#_1669112410753721clip-0)">0,05</text></g><line x1="65" y1="614.41" x2="67" y2="614.41" style="stroke-width: 0.5;stroke: rgb(128,128,128);stroke-opacity: 1.0;stroke-linecap: square;shape-rendering:crispEdges;" transform="matrix(1,0,0,1,0,0)" clip-path="url(#_1669112410753721clip-0)"/><g transform="matrix(1,0,0,1,0,0)"><text x="38" y="593.83" style="fill: rgb(64,64,64); fill-opacity: 1.0; font-family: Tahoma; font-size: 12px;" clip-path="url(#_1669112410753721clip-0)">0,10</text></g><line x1="65" y1="588.81" x2="67" y2="588.81" style="stroke-width: 0.5;stroke: rgb(128,128,128);stroke-opacity: 1.0;stroke-linecap: square;shape-rendering:crispEdges;" transform="matrix(1,0,0,1,0,0)" clip-path="url(#_1669112410753721clip-0)"/><g transform="matrix(1,0,0,1,0,0)"><text x="38" y="568.24" style="fill: rgb(64,64,64); fill-opacity: 1.0; font-family: Tahoma; font-size: 12px;" clip-path="url(#_1669112410753721clip-0)">0,15</text></g><line x1="65" y1="563.22" x2="67" y2="563.22" style="stroke-width: 0.5;stroke: rgb(128,128,128);stroke-opacity: 1.0;stroke-linecap: square;shape-rendering:crispEdges;" transform="matrix(1,0,0,1,0,0)" clip-path="url(#_1669112410753721clip-0)"/><g transform="matrix(1,0,0,1,0,0)"><text x="38" y="542.65" style="fill: rgb(64,64,64); fill-opacity: 1.0; font-family: Tahoma; font-size: 12px;" clip-path="url(#_1669112410753721clip-0)">0,20</text></g><line x1="65" y1="537.63" x2="67" y2="537.63" style="stroke-width: 0.5;stroke: rgb(128,128,128);stroke-opacity: 1.0;stroke-linecap: square;shape-rendering:crispEdges;" transform="matrix(1,0,0,1,0,0)" clip-path="url(#_1669112410753721clip-0)"/><g transform="matrix(1,0,0,1,0,0)"><text x="38" y="517.05" style="fill: rgb(64,64,64); fill-opacity: 1.0; font-family: Tahoma; font-size: 12px;" clip-path="url(#_1669112410753721clip-0)">0,25</text></g><line x1="65" y1="512.03" x2="67" y2="512.03" style="stroke-width: 0.5;stroke: rgb(128,128,128);stroke-opacity: 1.0;stroke-linecap: square;shape-rendering:crispEdges;" transform="matrix(1,0,0,1,0,0)" clip-path="url(#_1669112410753721clip-0)"/><g transform="matrix(1,0,0,1,0,0)"><text x="38" y="491.46" style="fill: rgb(64,64,64); fill-opacity: 1.0; font-family: Tahoma; font-size: 12px;" clip-path="url(#_1669112410753721clip-0)">0,30</text></g><line x1="65" y1="486.44" x2="67" y2="486.44" style="stroke-width: 0.5;stroke: rgb(128,128,128);stroke-opacity: 1.0;stroke-linecap: square;shape-rendering:crispEdges;" transform="matrix(1,0,0,1,0,0)" clip-path="url(#_1669112410753721clip-0)"/><g transform="matrix(1,0,0,1,0,0)"><text x="38" y="465.87" style="fill: rgb(64,64,64); fill-opacity: 1.0; font-family: Tahoma; font-size: 12px;" clip-path="url(#_1669112410753721clip-0)">0,35</text></g><line x1="65" y1="460.85" x2="67" y2="460.85" style="stroke-width: 0.5;stroke: rgb(128,128,128);stroke-opacity: 1.0;stroke-linecap: square;shape-rendering:crispEdges;" transform="matrix(1,0,0,1,0,0)" clip-path="url(#_1669112410753721clip-0)"/><g transform="matrix(1,0,0,1,0,0)"><text x="38" y="440.27" style="fill: rgb(64,64,64); fill-opacity: 1.0; font-family: Tahoma; font-size: 12px;" clip-path="url(#_1669112410753721clip-0)">0,40</text></g><line x1="65" y1="435.25" x2="67" y2="435.25" style="stroke-width: 0.5;stroke: rgb(128,128,128);stroke-opacity: 1.0;stroke-linecap: square;shape-rendering:crispEdges;" transform="matrix(1,0,0,1,0,0)" clip-path="url(#_1669112410753721clip-0)"/><g transform="matrix(1,0,0,1,0,0)"><text x="38" y="414.68" style="fill: rgb(64,64,64); fill-opacity: 1.0; font-family: Tahoma; font-size: 12px;" clip-path="url(#_1669112410753721clip-0)">0,45</text></g><line x1="65" y1="409.66" x2="67" y2="409.66" style="stroke-width: 0.5;stroke: rgb(128,128,128);stroke-opacity: 1.0;stroke-linecap: square;shape-rendering:crispEdges;" transform="matrix(1,0,0,1,0,0)" clip-path="url(#_1669112410753721clip-0)"/><g transform="matrix(1,0,0,1,0,0)"><text x="38" y="389.09" style="fill: rgb(64,64,64); fill-opacity: 1.0; font-family: Tahoma; font-size: 12px;" clip-path="url(#_1669112410753721clip-0)">0,50</text></g><line x1="65" y1="384.07" x2="67" y2="384.07" style="stroke-width: 0.5;stroke: rgb(128,128,128);stroke-opacity: 1.0;stroke-linecap: square;shape-rendering:crispEdges;" transform="matrix(1,0,0,1,0,0)" clip-path="url(#_1669112410753721clip-0)"/><g transform="matrix(1,0,0,1,0,0)"><text x="38" y="363.49" style="fill: rgb(64,64,64); fill-opacity: 1.0; font-family: Tahoma; font-size: 12px;" clip-path="url(#_1669112410753721clip-0)">0,55</text></g><line x1="65" y1="358.47" x2="67" y2="358.47" style="stroke-width: 0.5;stroke: rgb(128,128,128);stroke-opacity: 1.0;stroke-linecap: square;shape-rendering:crispEdges;" transform="matrix(1,0,0,1,0,0)" clip-path="url(#_1669112410753721clip-0)"/><g transform="matrix(1,0,0,1,0,0)"><text x="38" y="337.9" style="fill: rgb(64,64,64); fill-opacity: 1.0; font-family: Tahoma; font-size: 12px;" clip-path="url(#_1669112410753721clip-0)">0,60</text></g><line x1="65" y1="332.88" x2="67" y2="332.88" style="stroke-width: 0.5;stroke: rgb(128,128,128);stroke-opacity: 1.0;stroke-linecap: square;shape-rendering:crispEdges;" transform="matrix(1,0,0,1,0,0)" clip-path="url(#_1669112410753721clip-0)"/><g transform="matrix(1,0,0,1,0,0)"><text x="38" y="312.31" style="fill: rgb(64,64,64); fill-opacity: 1.0; font-family: Tahoma; font-size: 12px;" clip-path="url(#_1669112410753721clip-0)">0,65</text></g><line x1="65" y1="307.28" x2="67" y2="307.28" style="stroke-width: 0.5;stroke: rgb(128,128,128);stroke-opacity: 1.0;stroke-linecap: square;shape-rendering:crispEdges;" transform="matrix(1,0,0,1,0,0)" clip-path="url(#_1669112410753721clip-0)"/><g transform="matrix(1,0,0,1,0,0)"><text x="38" y="286.71" style="fill: rgb(64,64,64); fill-opacity: 1.0; font-family: Tahoma; font-size: 12px;" clip-path="url(#_1669112410753721clip-0)">0,70</text></g><line x1="65" y1="281.69" x2="67" y2="281.69" style="stroke-width: 0.5;stroke: rgb(128,128,128);stroke-opacity: 1.0;stroke-linecap: square;shape-rendering:crispEdges;" transform="matrix(1,0,0,1,0,0)" clip-path="url(#_1669112410753721clip-0)"/><g transform="matrix(1,0,0,1,0,0)"><text x="38" y="261.12" style="fill: rgb(64,64,64); fill-opacity: 1.0; font-family: Tahoma; font-size: 12px;" clip-path="url(#_1669112410753721clip-0)">0,75</text></g><line x1="65" y1="256.1" x2="67" y2="256.1" style="stroke-width: 0.5;stroke: rgb(128,128,128);stroke-opacity: 1.0;stroke-linecap: square;shape-rendering:crispEdges;" transform="matrix(1,0,0,1,0,0)" clip-path="url(#_1669112410753721clip-0)"/><g transform="matrix(1,0,0,1,0,0)"><text x="38" y="235.53" style="fill: rgb(64,64,64); fill-opacity: 1.0; font-family: Tahoma; font-size: 12px;" clip-path="url(#_1669112410753721clip-0)">0,80</text></g><line x1="65" y1="230.5" x2="67" y2="230.5" style="stroke-width: 0.5;stroke: rgb(128,128,128);stroke-opacity: 1.0;stroke-linecap: square;shape-rendering:crispEdges;" transform="matrix(1,0,0,1,0,0)" clip-path="url(#_1669112410753721clip-0)"/><g transform="matrix(1,0,0,1,0,0)"><text x="38" y="209.93" style="fill: rgb(64,64,64); fill-opacity: 1.0; font-family: Tahoma; font-size: 12px;" clip-path="url(#_1669112410753721clip-0)">0,85</text></g><line x1="65" y1="204.91" x2="67" y2="204.91" style="stroke-width: 0.5;stroke: rgb(128,128,128);stroke-opacity: 1.0;stroke-linecap: square;shape-rendering:crispEdges;" transform="matrix(1,0,0,1,0,0)" clip-path="url(#_1669112410753721clip-0)"/><g transform="matrix(1,0,0,1,0,0)"><text x="38" y="184.34" style="fill: rgb(64,64,64); fill-opacity: 1.0; font-family: Tahoma; font-size: 12px;" clip-path="url(#_1669112410753721clip-0)">0,90</text></g><line x1="65" y1="179.32" x2="67" y2="179.32" style="stroke-width: 0.5;stroke: rgb(128,128,128);stroke-opacity: 1.0;stroke-linecap: square;shape-rendering:crispEdges;" transform="matrix(1,0,0,1,0,0)" clip-path="url(#_1669112410753721clip-0)"/><g transform="matrix(1,0,0,1,0,0)"><text x="38" y="158.75" style="fill: rgb(64,64,64); fill-opacity: 1.0; font-family: Tahoma; font-size: 12px;" clip-path="url(#_1669112410753721clip-0)">0,95</text></g><line x1="65" y1="153.72" x2="67" y2="153.72" style="stroke-width: 0.5;stroke: rgb(128,128,128);stroke-opacity: 1.0;stroke-linecap: square;shape-rendering:crispEdges;" transform="matrix(1,0,0,1,0,0)" clip-path="url(#_1669112410753721clip-0)"/><g transform="matrix(1,0,0,1,0,0)"><text x="38" y="133.15" style="fill: rgb(64,64,64); fill-opacity: 1.0; font-family: Tahoma; font-size: 12px;" clip-path="url(#_1669112410753721clip-0)">1,00</text></g><line x1="65" y1="128.13" x2="67" y2="128.13" style="stroke-width: 0.5;stroke: rgb(128,128,128);stroke-opacity: 1.0;stroke-linecap: square;shape-rendering:crispEdges;" transform="matrix(1,0,0,1,0,0)" clip-path="url(#_1669112410753721clip-0)"/><g transform="matrix(1,0,0,1,0,0)"><text x="38" y="107.56" style="fill: rgb(64,64,64); fill-opacity: 1.0; font-family: Tahoma; font-size: 12px;" clip-path="url(#_1669112410753721clip-0)">1,05</text></g><line x1="65" y1="102.54" x2="67" y2="102.54" style="stroke-width: 0.5;stroke: rgb(128,128,128);stroke-opacity: 1.0;stroke-linecap: square;shape-rendering:crispEdges;" transform="matrix(1,0,0,1,0,0)" clip-path="url(#_1669112410753721clip-0)"/><g transform="matrix(1,0,0,1,0,0)"><text x="38" y="81.96" style="fill: rgb(64,64,64); fill-opacity: 1.0; font-family: Tahoma; font-size: 12px;" clip-path="url(#_1669112410753721clip-0)">1,10</text></g><line x1="65" y1="76.94" x2="67" y2="76.94" style="stroke-width: 0.5;stroke: rgb(128,128,128);stroke-opacity: 1.0;stroke-linecap: square;shape-rendering:crispEdges;" transform="matrix(1,0,0,1,0,0)" clip-path="url(#_1669112410753721clip-0)"/><g transform="matrix(1,0,0,1,0,0)"><text x="38" y="56.37" style="fill: rgb(64,64,64); fill-opacity: 1.0; font-family: Tahoma; font-size: 12px;" clip-path="url(#_1669112410753721clip-0)">1,15</text></g><line x1="65" y1="51.35" x2="67" y2="51.35" style="stroke-width: 0.5;stroke: rgb(128,128,128);stroke-opacity: 1.0;stroke-linecap: square;shape-rendering:crispEdges;" transform="matrix(1,0,0,1,0,0)" clip-path="url(#_1669112410753721clip-0)"/><g style="fill: rgb(64,64,64); fill-opacity: 1.0; stroke: none" transform="matrix(0,-1,1,0,-345.5,384.5)" clip-path="url(#_1669112410753721clip-1)"><path d="M 14.44 370.81 Q 12.16 370.81 10.8 369.42 Q 9.45 368.03 9.45 365.53 Q 9.45 363.11 10.8 361.67 Q 12.16 360.23 14.45 360.23 Q 15.06 360.23 15.55 360.3 Q 16.03 360.37 16.47 360.48 Q 16.83 360.59 17.23 360.77 Q 17.64 360.95 17.89 361.08 L 17.89 363.5 L 17.64 363.5 Q 17.45 363.34 17.17 363.12 Q 16.89 362.89 16.53 362.67 Q 16.17 362.45 15.75 362.3 Q 15.33 362.14 14.86 362.14 Q 14.31 362.14 13.84 362.31 Q 13.38 362.48 12.97 362.92 Q 12.58 363.31 12.34 363.98 Q 12.09 364.64 12.09 365.53 Q 12.09 366.48 12.35 367.13 Q 12.61 367.78 13.02 368.17 Q 13.41 368.56 13.9 368.73 Q 14.39 368.91 14.88 368.91 Q 15.38 368.91 15.84 368.73 Q 16.3 368.56 16.61 368.36 Q 16.95 368.14 17.21 367.92 Q 17.47 367.7 17.66 367.55 L 17.89 367.55 L 17.89 369.94 Q 17.61 370.06 17.24 370.23 Q 16.88 370.39 16.48 370.51 Q 16 370.66 15.59 370.73 Q 15.17 370.81 14.44 370.81 Z  M 26.19 370.61 L 19.39 370.61 L 19.39 360.44 L 21.95 360.44 L 21.95 368.67 L 26.19 368.67 L 26.19 370.61 Z "/></g><line x1="112.12" y1="35" x2="112.12" y2="695" style="stroke-width: 0.5;stroke: rgb(192,192,192);stroke-opacity: 1.0;stroke-linejoin: bevel;stroke-dasharray: 2.0, 2.0;shape-rendering:crispEdges;" transform="matrix(1,0,0,1,0,0)" clip-path="url(#_1669112410753721clip-2)"/><line x1="154.65" y1="35" x2="154.65" y2="695" style="stroke-width: 0.5;stroke: rgb(192,192,192);stroke-opacity: 1.0;stroke-linejoin: bevel;stroke-dasharray: 2.0, 2.0;shape-rendering:crispEdges;" transform="matrix(1,0,0,1,0,0)" clip-path="url(#_1669112410753721clip-2)"/><line x1="197.18" y1="35" x2="197.18" y2="695" style="stroke-width: 0.5;stroke: rgb(192,192,192);stroke-opacity: 1.0;stroke-linejoin: bevel;stroke-dasharray: 2.0, 2.0;shape-rendering:crispEdges;" transform="matrix(1,0,0,1,0,0)" clip-path="url(#_1669112410753721clip-2)"/><line x1="239.72" y1="35" x2="239.72" y2="695" style="stroke-width: 0.5;stroke: rgb(192,192,192);stroke-opacity: 1.0;stroke-linejoin: bevel;stroke-dasharray: 2.0, 2.0;shape-rendering:crispEdges;" transform="matrix(1,0,0,1,0,0)" clip-path="url(#_1669112410753721clip-2)"/><line x1="282.25" y1="35" x2="282.25" y2="695" style="stroke-width: 0.5;stroke: rgb(192,192,192);stroke-opacity: 1.0;stroke-linejoin: bevel;stroke-dasharray: 2.0, 2.0;shape-rendering:crispEdges;" transform="matrix(1,0,0,1,0,0)" clip-path="url(#_1669112410753721clip-2)"/><line x1="324.78" y1="35" x2="324.78" y2="695" style="stroke-width: 0.5;stroke: rgb(192,192,192);stroke-opacity: 1.0;stroke-linejoin: bevel;stroke-dasharray: 2.0, 2.0;shape-rendering:crispEdges;" transform="matrix(1,0,0,1,0,0)" clip-path="url(#_1669112410753721clip-2)"/><line x1="367.32" y1="35" x2="367.32" y2="695" style="stroke-width: 0.5;stroke: rgb(192,192,192);stroke-opacity: 1.0;stroke-linejoin: bevel;stroke-dasharray: 2.0, 2.0;shape-rendering:crispEdges;" transform="matrix(1,0,0,1,0,0)" clip-path="url(#_1669112410753721clip-2)"/><line x1="409.85" y1="35" x2="409.85" y2="695" style="stroke-width: 0.5;stroke: rgb(192,192,192);stroke-opacity: 1.0;stroke-linejoin: bevel;stroke-dasharray: 2.0, 2.0;shape-rendering:crispEdges;" transform="matrix(1,0,0,1,0,0)" clip-path="url(#_1669112410753721clip-2)"/><line x1="452.38" y1="35" x2="452.38" y2="695" style="stroke-width: 0.5;stroke: rgb(192,192,192);stroke-opacity: 1.0;stroke-linejoin: bevel;stroke-dasharray: 2.0, 2.0;shape-rendering:crispEdges;" transform="matrix(1,0,0,1,0,0)" clip-path="url(#_1669112410753721clip-2)"/><line x1="494.91" y1="35" x2="494.91" y2="695" style="stroke-width: 0.5;stroke: rgb(192,192,192);stroke-opacity: 1.0;stroke-linejoin: bevel;stroke-dasharray: 2.0, 2.0;shape-rendering:crispEdges;" transform="matrix(1,0,0,1,0,0)" clip-path="url(#_1669112410753721clip-2)"/><line x1="537.45" y1="35" x2="537.45" y2="695" style="stroke-width: 0.5;stroke: rgb(192,192,192);stroke-opacity: 1.0;stroke-linejoin: bevel;stroke-dasharray: 2.0, 2.0;shape-rendering:crispEdges;" transform="matrix(1,0,0,1,0,0)" clip-path="url(#_1669112410753721clip-2)"/><line x1="579.98" y1="35" x2="579.98" y2="695" style="stroke-width: 0.5;stroke: rgb(192,192,192);stroke-opacity: 1.0;stroke-linejoin: bevel;stroke-dasharray: 2.0, 2.0;shape-rendering:crispEdges;" transform="matrix(1,0,0,1,0,0)" clip-path="url(#_1669112410753721clip-2)"/><line x1="622.51" y1="35" x2="622.51" y2="695" style="stroke-width: 0.5;stroke: rgb(192,192,192);stroke-opacity: 1.0;stroke-linejoin: bevel;stroke-dasharray: 2.0, 2.0;shape-rendering:crispEdges;" transform="matrix(1,0,0,1,0,0)" clip-path="url(#_1669112410753721clip-2)"/><line x1="665.05" y1="35" x2="665.05" y2="695" style="stroke-width: 0.5;stroke: rgb(192,192,192);stroke-opacity: 1.0;stroke-linejoin: bevel;stroke-dasharray: 2.0, 2.0;shape-rendering:crispEdges;" transform="matrix(1,0,0,1,0,0)" clip-path="url(#_1669112410753721clip-2)"/><line x1="707.58" y1="35" x2="707.58" y2="695" style="stroke-width: 0.5;stroke: rgb(192,192,192);stroke-opacity: 1.0;stroke-linejoin: bevel;stroke-dasharray: 2.0, 2.0;shape-rendering:crispEdges;" transform="matrix(1,0,0,1,0,0)" clip-path="url(#_1669112410753721clip-2)"/><line x1="750.11" y1="35" x2="750.11" y2="695" style="stroke-width: 0.5;stroke: rgb(192,192,192);stroke-opacity: 1.0;stroke-linejoin: bevel;stroke-dasharray: 2.0, 2.0;shape-rendering:crispEdges;" transform="matrix(1,0,0,1,0,0)" clip-path="url(#_1669112410753721clip-2)"/><line x1="792.64" y1="35" x2="792.64" y2="695" style="stroke-width: 0.5;stroke: rgb(192,192,192);stroke-opacity: 1.0;stroke-linejoin: bevel;stroke-dasharray: 2.0, 2.0;shape-rendering:crispEdges;" transform="matrix(1,0,0,1,0,0)" clip-path="url(#_1669112410753721clip-2)"/><line x1="835.18" y1="35" x2="835.18" y2="695" style="stroke-width: 0.5;stroke: rgb(192,192,192);stroke-opacity: 1.0;stroke-linejoin: bevel;stroke-dasharray: 2.0, 2.0;shape-rendering:crispEdges;" transform="matrix(1,0,0,1,0,0)" clip-path="url(#_1669112410753721clip-2)"/><line x1="877.71" y1="35" x2="877.71" y2="695" style="stroke-width: 0.5;stroke: rgb(192,192,192);stroke-opacity: 1.0;stroke-linejoin: bevel;stroke-dasharray: 2.0, 2.0;shape-rendering:crispEdges;" transform="matrix(1,0,0,1,0,0)" clip-path="url(#_1669112410753721clip-2)"/><line x1="920.24" y1="35" x2="920.24" y2="695" style="stroke-width: 0.5;stroke: rgb(192,192,192);stroke-opacity: 1.0;stroke-linejoin: bevel;stroke-dasharray: 2.0, 2.0;shape-rendering:crispEdges;" transform="matrix(1,0,0,1,0,0)" clip-path="url(#_1669112410753721clip-2)"/><line x1="962.78" y1="35" x2="962.78" y2="695" style="stroke-width: 0.5;stroke: rgb(192,192,192);stroke-opacity: 1.0;stroke-linejoin: bevel;stroke-dasharray: 2.0, 2.0;shape-rendering:crispEdges;" transform="matrix(1,0,0,1,0,0)" clip-path="url(#_1669112410753721clip-2)"/><line x1="1005.31" y1="35" x2="1005.31" y2="695" style="stroke-width: 0.5;stroke: rgb(192,192,192);stroke-opacity: 1.0;stroke-linejoin: bevel;stroke-dasharray: 2.0, 2.0;shape-rendering:crispEdges;" transform="matrix(1,0,0,1,0,0)" clip-path="url(#_1669112410753721clip-2)"/><line x1="1047.84" y1="35" x2="1047.84" y2="695" style="stroke-width: 0.5;stroke: rgb(192,192,192);stroke-opacity: 1.0;stroke-linejoin: bevel;stroke-dasharray: 2.0, 2.0;shape-rendering:crispEdges;" transform="matrix(1,0,0,1,0,0)" clip-path="url(#_1669112410753721clip-2)"/><line x1="1090.37" y1="35" x2="1090.37" y2="695" style="stroke-width: 0.5;stroke: rgb(192,192,192);stroke-opacity: 1.0;stroke-linejoin: bevel;stroke-dasharray: 2.0, 2.0;shape-rendering:crispEdges;" transform="matrix(1,0,0,1,0,0)" clip-path="url(#_1669112410753721clip-2)"/><line x1="1132.91" y1="35" x2="1132.91" y2="695" style="stroke-width: 0.5;stroke: rgb(192,192,192);stroke-opacity: 1.0;stroke-linejoin: bevel;stroke-dasharray: 2.0, 2.0;shape-rendering:crispEdges;" transform="matrix(1,0,0,1,0,0)" clip-path="url(#_1669112410753721clip-2)"/><line x1="71" y1="691.19" x2="1140" y2="691.19" style="stroke-width: 0.5;stroke: rgb(192,192,192);stroke-opacity: 1.0;stroke-linejoin: bevel;stroke-dasharray: 2.0, 2.0;shape-rendering:crispEdges;" transform="matrix(1,0,0,1,0,0)" clip-path="url(#_1669112410753721clip-2)"/><line x1="71" y1="665.59" x2="1140" y2="665.59" style="stroke-width: 0.5;stroke: rgb(192,192,192);stroke-opacity: 1.0;stroke-linejoin: bevel;stroke-dasharray: 2.0, 2.0;shape-rendering:crispEdges;" transform="matrix(1,0,0,1,0,0)" clip-path="url(#_1669112410753721clip-2)"/><line x1="71" y1="640" x2="1140" y2="640" style="stroke-width: 0.5;stroke: rgb(192,192,192);stroke-opacity: 1.0;stroke-linejoin: bevel;stroke-dasharray: 2.0, 2.0;shape-rendering:crispEdges;" transform="matrix(1,0,0,1,0,0)" clip-path="url(#_1669112410753721clip-2)"/><line x1="71" y1="614.41" x2="1140" y2="614.41" style="stroke-width: 0.5;stroke: rgb(192,192,192);stroke-opacity: 1.0;stroke-linejoin: bevel;stroke-dasharray: 2.0, 2.0;shape-rendering:crispEdges;" transform="matrix(1,0,0,1,0,0)" clip-path="url(#_1669112410753721clip-2)"/><line x1="71" y1="588.81" x2="1140" y2="588.81" style="stroke-width: 0.5;stroke: rgb(192,192,192);stroke-opacity: 1.0;stroke-linejoin: bevel;stroke-dasharray: 2.0, 2.0;shape-rendering:crispEdges;" transform="matrix(1,0,0,1,0,0)" clip-path="url(#_1669112410753721clip-2)"/><line x1="71" y1="563.22" x2="1140" y2="563.22" style="stroke-width: 0.5;stroke: rgb(192,192,192);stroke-opacity: 1.0;stroke-linejoin: bevel;stroke-dasharray: 2.0, 2.0;shape-rendering:crispEdges;" transform="matrix(1,0,0,1,0,0)" clip-path="url(#_1669112410753721clip-2)"/><line x1="71" y1="537.63" x2="1140" y2="537.63" style="stroke-width: 0.5;stroke: rgb(192,192,192);stroke-opacity: 1.0;stroke-linejoin: bevel;stroke-dasharray: 2.0, 2.0;shape-rendering:crispEdges;" transform="matrix(1,0,0,1,0,0)" clip-path="url(#_1669112410753721clip-2)"/><line x1="71" y1="512.03" x2="1140" y2="512.03" style="stroke-width: 0.5;stroke: rgb(192,192,192);stroke-opacity: 1.0;stroke-linejoin: bevel;stroke-dasharray: 2.0, 2.0;shape-rendering:crispEdges;" transform="matrix(1,0,0,1,0,0)" clip-path="url(#_1669112410753721clip-2)"/><line x1="71" y1="486.44" x2="1140" y2="486.44" style="stroke-width: 0.5;stroke: rgb(192,192,192);stroke-opacity: 1.0;stroke-linejoin: bevel;stroke-dasharray: 2.0, 2.0;shape-rendering:crispEdges;" transform="matrix(1,0,0,1,0,0)" clip-path="url(#_1669112410753721clip-2)"/><line x1="71" y1="460.85" x2="1140" y2="460.85" style="stroke-width: 0.5;stroke: rgb(192,192,192);stroke-opacity: 1.0;stroke-linejoin: bevel;stroke-dasharray: 2.0, 2.0;shape-rendering:crispEdges;" transform="matrix(1,0,0,1,0,0)" clip-path="url(#_1669112410753721clip-2)"/><line x1="71" y1="435.25" x2="1140" y2="435.25" style="stroke-width: 0.5;stroke: rgb(192,192,192);stroke-opacity: 1.0;stroke-linejoin: bevel;stroke-dasharray: 2.0, 2.0;shape-rendering:crispEdges;" transform="matrix(1,0,0,1,0,0)" clip-path="url(#_1669112410753721clip-2)"/><line x1="71" y1="409.66" x2="1140" y2="409.66" style="stroke-width: 0.5;stroke: rgb(192,192,192);stroke-opacity: 1.0;stroke-linejoin: bevel;stroke-dasharray: 2.0, 2.0;shape-rendering:crispEdges;" transform="matrix(1,0,0,1,0,0)" clip-path="url(#_1669112410753721clip-2)"/><line x1="71" y1="384.07" x2="1140" y2="384.07" style="stroke-width: 0.5;stroke: rgb(192,192,192);stroke-opacity: 1.0;stroke-linejoin: bevel;stroke-dasharray: 2.0, 2.0;shape-rendering:crispEdges;" transform="matrix(1,0,0,1,0,0)" clip-path="url(#_1669112410753721clip-2)"/><line x1="71" y1="358.47" x2="1140" y2="358.47" style="stroke-width: 0.5;stroke: rgb(192,192,192);stroke-opacity: 1.0;stroke-linejoin: bevel;stroke-dasharray: 2.0, 2.0;shape-rendering:crispEdges;" transform="matrix(1,0,0,1,0,0)" clip-path="url(#_1669112410753721clip-2)"/><line x1="71" y1="332.88" x2="1140" y2="332.88" style="stroke-width: 0.5;stroke: rgb(192,192,192);stroke-opacity: 1.0;stroke-linejoin: bevel;stroke-dasharray: 2.0, 2.0;shape-rendering:crispEdges;" transform="matrix(1,0,0,1,0,0)" clip-path="url(#_1669112410753721clip-2)"/><line x1="71" y1="307.28" x2="1140" y2="307.28" style="stroke-width: 0.5;stroke: rgb(192,192,192);stroke-opacity: 1.0;stroke-linejoin: bevel;stroke-dasharray: 2.0, 2.0;shape-rendering:crispEdges;" transform="matrix(1,0,0,1,0,0)" clip-path="url(#_1669112410753721clip-2)"/><line x1="71" y1="281.69" x2="1140" y2="281.69" style="stroke-width: 0.5;stroke: rgb(192,192,192);stroke-opacity: 1.0;stroke-linejoin: bevel;stroke-dasharray: 2.0, 2.0;shape-rendering:crispEdges;" transform="matrix(1,0,0,1,0,0)" clip-path="url(#_1669112410753721clip-2)"/><line x1="71" y1="256.1" x2="1140" y2="256.1" style="stroke-width: 0.5;stroke: rgb(192,192,192);stroke-opacity: 1.0;stroke-linejoin: bevel;stroke-dasharray: 2.0, 2.0;shape-rendering:crispEdges;" transform="matrix(1,0,0,1,0,0)" clip-path="url(#_1669112410753721clip-2)"/><line x1="71" y1="230.5" x2="1140" y2="230.5" style="stroke-width: 0.5;stroke: rgb(192,192,192);stroke-opacity: 1.0;stroke-linejoin: bevel;stroke-dasharray: 2.0, 2.0;shape-rendering:crispEdges;" transform="matrix(1,0,0,1,0,0)" clip-path="url(#_1669112410753721clip-2)"/><line x1="71" y1="204.91" x2="1140" y2="204.91" style="stroke-width: 0.5;stroke: rgb(192,192,192);stroke-opacity: 1.0;stroke-linejoin: bevel;stroke-dasharray: 2.0, 2.0;shape-rendering:crispEdges;" transform="matrix(1,0,0,1,0,0)" clip-path="url(#_1669112410753721clip-2)"/><line x1="71" y1="179.32" x2="1140" y2="179.32" style="stroke-width: 0.5;stroke: rgb(192,192,192);stroke-opacity: 1.0;stroke-linejoin: bevel;stroke-dasharray: 2.0, 2.0;shape-rendering:crispEdges;" transform="matrix(1,0,0,1,0,0)" clip-path="url(#_1669112410753721clip-2)"/><line x1="71" y1="153.72" x2="1140" y2="153.72" style="stroke-width: 0.5;stroke: rgb(192,192,192);stroke-opacity: 1.0;stroke-linejoin: bevel;stroke-dasharray: 2.0, 2.0;shape-rendering:crispEdges;" transform="matrix(1,0,0,1,0,0)" clip-path="url(#_1669112410753721clip-2)"/><line x1="71" y1="128.13" x2="1140" y2="128.13" style="stroke-width: 0.5;stroke: rgb(192,192,192);stroke-opacity: 1.0;stroke-linejoin: bevel;stroke-dasharray: 2.0, 2.0;shape-rendering:crispEdges;" transform="matrix(1,0,0,1,0,0)" clip-path="url(#_1669112410753721clip-2)"/><line x1="71" y1="102.54" x2="1140" y2="102.54" style="stroke-width: 0.5;stroke: rgb(192,192,192);stroke-opacity: 1.0;stroke-linejoin: bevel;stroke-dasharray: 2.0, 2.0;shape-rendering:crispEdges;" transform="matrix(1,0,0,1,0,0)" clip-path="url(#_1669112410753721clip-2)"/><line x1="71" y1="76.94" x2="1140" y2="76.94" style="stroke-width: 0.5;stroke: rgb(192,192,192);stroke-opacity: 1.0;stroke-linejoin: bevel;stroke-dasharray: 2.0, 2.0;shape-rendering:crispEdges;" transform="matrix(1,0,0,1,0,0)" clip-path="url(#_1669112410753721clip-2)"/><line x1="71" y1="51.35" x2="1140" y2="51.35" style="stroke-width: 0.5;stroke: rgb(192,192,192);stroke-opacity: 1.0;stroke-linejoin: bevel;stroke-dasharray: 2.0, 2.0;shape-rendering:crispEdges;" transform="matrix(1,0,0,1,0,0)" clip-path="url(#_1669112410753721clip-2)"/><line x1="199.24" y1="640" x2="200.75" y2="610.17" style="stroke-width: 3.0;stroke: rgb(0,0,0);stroke-opacity: 1.0;stroke-linecap: square;shape-rendering:geometricPrecision;" transform="matrix(1,0,0,1,0,0)" clip-path="url(#_1669112410753721clip-2)"/><line x1="200.75" y1="610.17" x2="206.87" y2="580.34" style="stroke-width: 3.0;stroke: rgb(0,0,0);stroke-opacity: 1.0;stroke-linecap: square;shape-rendering:geometricPrecision;" transform="matrix(1,0,0,1,0,0)" clip-path="url(#_1669112410753721clip-2)"/><line x1="206.87" y1="580.34" x2="217.6" y2="550.51" style="stroke-width: 3.0;stroke: rgb(0,0,0);stroke-opacity: 1.0;stroke-linecap: square;shape-rendering:geometricPrecision;" transform="matrix(1,0,0,1,0,0)" clip-path="url(#_1669112410753721clip-2)"/><line x1="217.6" y1="550.51" x2="231.28" y2="520.69" style="stroke-width: 3.0;stroke: rgb(0,0,0);stroke-opacity: 1.0;stroke-linecap: square;shape-rendering:geometricPrecision;" transform="matrix(1,0,0,1,0,0)" clip-path="url(#_1669112410753721clip-2)"/><line x1="231.28" y1="520.69" x2="250.46" y2="490.86" style="stroke-width: 3.0;stroke: rgb(0,0,0);stroke-opacity: 1.0;stroke-linecap: square;shape-rendering:geometricPrecision;" transform="matrix(1,0,0,1,0,0)" clip-path="url(#_1669112410753721clip-2)"/><line x1="250.46" y1="490.86" x2="272.24" y2="461.03" style="stroke-width: 3.0;stroke: rgb(0,0,0);stroke-opacity: 1.0;stroke-linecap: square;shape-rendering:geometricPrecision;" transform="matrix(1,0,0,1,0,0)" clip-path="url(#_1669112410753721clip-2)"/><line x1="272.24" y1="461.03" x2="298.79" y2="431.2" style="stroke-width: 3.0;stroke: rgb(0,0,0);stroke-opacity: 1.0;stroke-linecap: square;shape-rendering:geometricPrecision;" transform="matrix(1,0,0,1,0,0)" clip-path="url(#_1669112410753721clip-2)"/><line x1="298.79" y1="431.2" x2="328.97" y2="401.38" style="stroke-width: 3.0;stroke: rgb(0,0,0);stroke-opacity: 1.0;stroke-linecap: square;shape-rendering:geometricPrecision;" transform="matrix(1,0,0,1,0,0)" clip-path="url(#_1669112410753721clip-2)"/><line x1="328.97" y1="401.38" x2="362.99" y2="371.63" style="stroke-width: 3.0;stroke: rgb(0,0,0);stroke-opacity: 1.0;stroke-linecap: square;shape-rendering:geometricPrecision;" transform="matrix(1,0,0,1,0,0)" clip-path="url(#_1669112410753721clip-2)"/><line x1="362.99" y1="371.63" x2="401.98" y2="342.09" style="stroke-width: 3.0;stroke: rgb(0,0,0);stroke-opacity: 1.0;stroke-linecap: square;shape-rendering:geometricPrecision;" transform="matrix(1,0,0,1,0,0)" clip-path="url(#_1669112410753721clip-2)"/><line x1="401.98" y1="342.09" x2="444.77" y2="312.87" style="stroke-width: 3.0;stroke: rgb(0,0,0);stroke-opacity: 1.0;stroke-linecap: square;shape-rendering:geometricPrecision;" transform="matrix(1,0,0,1,0,0)" clip-path="url(#_1669112410753721clip-2)"/><line x1="444.77" y1="312.87" x2="491.68" y2="284.12" style="stroke-width: 3.0;stroke: rgb(0,0,0);stroke-opacity: 1.0;stroke-linecap: square;shape-rendering:geometricPrecision;" transform="matrix(1,0,0,1,0,0)" clip-path="url(#_1669112410753721clip-2)"/><line x1="491.68" y1="284.12" x2="542.7" y2="255.99" style="stroke-width: 3.0;stroke: rgb(0,0,0);stroke-opacity: 1.0;stroke-linecap: square;shape-rendering:geometricPrecision;" transform="matrix(1,0,0,1,0,0)" clip-path="url(#_1669112410753721clip-2)"/><line x1="542.7" y1="255.99" x2="597.1" y2="228.62" style="stroke-width: 3.0;stroke: rgb(0,0,0);stroke-opacity: 1.0;stroke-linecap: square;shape-rendering:geometricPrecision;" transform="matrix(1,0,0,1,0,0)" clip-path="url(#_1669112410753721clip-2)"/><line x1="597.1" y1="228.62" x2="656.21" y2="202.17" style="stroke-width: 3.0;stroke: rgb(0,0,0);stroke-opacity: 1.0;stroke-linecap: square;shape-rendering:geometricPrecision;" transform="matrix(1,0,0,1,0,0)" clip-path="url(#_1669112410753721clip-2)"/><line x1="656.21" y1="202.17" x2="718.73" y2="176.82" style="stroke-width: 3.0;stroke: rgb(0,0,0);stroke-opacity: 1.0;stroke-linecap: square;shape-rendering:geometricPrecision;" transform="matrix(1,0,0,1,0,0)" clip-path="url(#_1669112410753721clip-2)"/><line x1="718.73" y1="176.82" x2="785.82" y2="152.74" style="stroke-width: 3.0;stroke: rgb(0,0,0);stroke-opacity: 1.0;stroke-linecap: square;shape-rendering:geometricPrecision;" transform="matrix(1,0,0,1,0,0)" clip-path="url(#_1669112410753721clip-2)"/><line x1="785.82" y1="152.74" x2="857.04" y2="130.11" style="stroke-width: 3.0;stroke: rgb(0,0,0);stroke-opacity: 1.0;stroke-linecap: square;shape-rendering:geometricPrecision;" transform="matrix(1,0,0,1,0,0)" clip-path="url(#_1669112410753721clip-2)"/><line x1="857.04" y1="130.11" x2="932.19" y2="109.13" style="stroke-width: 3.0;stroke: rgb(0,0,0);stroke-opacity: 1.0;stroke-linecap: square;shape-rendering:geometricPrecision;" transform="matrix(1,0,0,1,0,0)" clip-path="url(#_1669112410753721clip-2)"/><line x1="932.19" y1="109.13" x2="1011.76" y2="90" style="stroke-width: 3.0;stroke: rgb(0,0,0);stroke-opacity: 1.0;stroke-linecap: square;shape-rendering:geometricPrecision;" transform="matrix(1,0,0,1,0,0)" clip-path="url(#_1669112410753721clip-2)"/><rect x="71" y="35" width="1069" height="660" style="stroke-width: 0.5;stroke: rgb(0,0,0);stroke-opacity: 1.0;stroke-linecap: round;stroke-linejoin: round;shape-rendering:crispEdges;; fill: none" transform="matrix(1,0,0,1,0,0)" clip-path="url(#_1669112410753721clip-0)"/></svg>
