<!DOCTYPE svg PUBLIC "-//W3C//DTD SVG 1.1//EN" "http://www.w3.org/Graphics/SVG/1.1/DTD/svg11.dtd">
<svg xmlns="http://www.w3.org/2000/svg" xmlns:xlink="http://www.w3.org/1999/xlink" xmlns:jfreesvg="http://www.jfree.org/jfreesvg/svg" width="1920" height="1080" text-rendering="auto" shape-rendering="auto">
<defs><clipPath id="_4774124803413clip-0"><path d="M 0 0 L 1920 0 L 1920 1080 L 0 1080 L 0 0 Z "/></clipPath>
<clipPath id="_4774124803413clip-1"><path d="M 526.5 465.5 L 526.5 2385.5 L -553.5 2385.5 L -553.5 465.5 L 526.5 465.5 Z "/></clipPath>
<clipPath id="_4774124803413clip-2"><path d="M 141 35 L 141 957 L 1908 957 L 1908 35 Z "/></clipPath>
</defs>
<rect x="0" y="0" width="1920" height="1080" style="fill: rgb(255,255,255); fill-opacity: 1.0" transform="matrix(1,0,0,1,0,0)" clip-path="url(#_4774124803413clip-0)"/><g transform="matrix(1,0,0,1,0,0)"><text x="900.5" y="21.01" style="fill: rgb(0,0,0); fill-opacity: 1.0; font-family: Tahoma; font-size: 20px; font-weight: bold;" clip-path="url(#_4774124803413clip-0)">Climb times</text></g><rect x="812.5" y="1047" width="295" height="32" style="fill: rgb(255,255,255); fill-opacity: 1.0" transform="matrix(1,0,0,1,0,0)" clip-path="url(#_4774124803413clip-0)"/><g style="stroke-width: 3.0;stroke: rgb(255,0,0);stroke-opacity: 1.0;stroke-linecap: square;shape-rendering:geometricPrecision;; fill: none" transform="matrix(1,0,0,1,0,0)" clip-path="url(#_4774124803413clip-0)"><path d="M 815.5 1063 L 829.5 1063"/></g><g transform="matrix(1,0,0,1,0,0)"><text x="833.5" y="1070.11" style="fill: rgb(64,64,64); fill-opacity: 1.0; font-family: sans-serif; font-size: 20px;" clip-path="url(#_4774124803413clip-0)">Climb Speed</text></g><g style="stroke-width: 3.0;stroke: rgb(0,192,0);stroke-opacity: 1.0;stroke-linecap: round;stroke-linejoin: round;stroke-dasharray: 10.0, 5.0;shape-rendering:geometricPrecision;; fill: none" transform="matrix(1,0,0,1,0,0)" clip-path="url(#_4774124803413clip-0)"><path d="M 954.5 1063 L 968.5 1063"/></g><g transform="matrix(1,0,0,1,0,0)"><text x="972.5" y="1070.11" style="fill: rgb(64,64,64); fill-opacity: 1.0; font-family: sans-serif; font-size: 20px;" clip-path="url(#_4774124803413clip-0)">RC max speed</text></g><rect x="141" y="35" width="1767" height="922" style="fill: rgb(255,255,255); fill-opacity: 0.0" transform="matrix(1,0,0,1,0,0)" clip-path="url(#_4774124803413clip-0)"/><line x1="141" y1="961" x2="1908" y2="961" style="stroke-width: 0.5;stroke: rgb(128,128,128);stroke-opacity: 1.0;stroke-linecap: square;shape-rendering:crispEdges;" transform="matrix(1,0,0,1,0,0)" clip-path="url(#_4774124803413clip-0)"/><g transform="matrix(1,0,0,1,0,0)"><text x="134" y="991.69" style="fill: rgb(64,64,64); fill-opacity: 1.0; font-family: sans-serif; font-size: 25px;" clip-path="url(#_4774124803413clip-0)">0</text></g><line x1="141" y1="963" x2="141" y2="961" style="stroke-width: 0.5;stroke: rgb(128,128,128);stroke-opacity: 1.0;stroke-linecap: square;shape-rendering:crispEdges;" transform="matrix(1,0,0,1,0,0)" clip-path="url(#_4774124803413clip-0)"/><g transform="matrix(1,0,0,1,0,0)"><text x="233.18" y="991.69" style="fill: rgb(64,64,64); fill-opacity: 1.0; font-family: sans-serif; font-size: 25px;" clip-path="url(#_4774124803413clip-0)">1</text></g><line x1="240.18" y1="963" x2="240.18" y2="961" style="stroke-width: 0.5;stroke: rgb(128,128,128);stroke-opacity: 1.0;stroke-linecap: square;shape-rendering:crispEdges;" transform="matrix(1,0,0,1,0,0)" clip-path="url(#_4774124803413clip-0)"/><g transform="matrix(1,0,0,1,0,0)"><text x="332.35" y="991.69" style="fill: rgb(64,64,64); fill-opacity: 1.0; font-family: sans-serif; font-size: 25px;" clip-path="url(#_4774124803413clip-0)">2</text></g><line x1="339.35" y1="963" x2="339.35" y2="961" style="stroke-width: 0.5;stroke: rgb(128,128,128);stroke-opacity: 1.0;stroke-linecap: square;shape-rendering:crispEdges;" transform="matrix(1,0,0,1,0,0)" clip-path="url(#_4774124803413clip-0)"/><g transform="matrix(1,0,0,1,0,0)"><text x="431.53" y="991.69" style="fill: rgb(64,64,64); fill-opacity: 1.0; font-family: sans-serif; font-size: 25px;" clip-path="url(#_4774124803413clip-0)">3</text></g><line x1="438.53" y1="963" x2="438.53" y2="961" style="stroke-width: 0.5;stroke: rgb(128,128,128);stroke-opacity: 1.0;stroke-linecap: square;shape-rendering:crispEdges;" transform="matrix(1,0,0,1,0,0)" clip-path="url(#_4774124803413clip-0)"/><g transform="matrix(1,0,0,1,0,0)"><text x="530.7" y="991.69" style="fill: rgb(64,64,64); fill-opacity: 1.0; font-family: sans-serif; font-size: 25px;" clip-path="url(#_4774124803413clip-0)">4</text></g><line x1="537.7" y1="963" x2="537.7" y2="961" style="stroke-width: 0.5;stroke: rgb(128,128,128);stroke-opacity: 1.0;stroke-linecap: square;shape-rendering:crispEdges;" transform="matrix(1,0,0,1,0,0)" clip-path="url(#_4774124803413clip-0)"/><g transform="matrix(1,0,0,1,0,0)"><text x="629.88" y="991.69" style="fill: rgb(64,64,64); fill-opacity: 1.0; font-family: sans-serif; font-size: 25px;" clip-path="url(#_4774124803413clip-0)">5</text></g><line x1="636.88" y1="963" x2="636.88" y2="961" style="stroke-width: 0.5;stroke: rgb(128,128,128);stroke-opacity: 1.0;stroke-linecap: square;shape-rendering:crispEdges;" transform="matrix(1,0,0,1,0,0)" clip-path="url(#_4774124803413clip-0)"/><g transform="matrix(1,0,0,1,0,0)"><text x="729.06" y="991.69" style="fill: rgb(64,64,64); fill-opacity: 1.0; font-family: sans-serif; font-size: 25px;" clip-path="url(#_4774124803413clip-0)">6</text></g><line x1="736.06" y1="963" x2="736.06" y2="961" style="stroke-width: 0.5;stroke: rgb(128,128,128);stroke-opacity: 1.0;stroke-linecap: square;shape-rendering:crispEdges;" transform="matrix(1,0,0,1,0,0)" clip-path="url(#_4774124803413clip-0)"/><g transform="matrix(1,0,0,1,0,0)"><text x="828.23" y="991.69" style="fill: rgb(64,64,64); fill-opacity: 1.0; font-family: sans-serif; font-size: 25px;" clip-path="url(#_4774124803413clip-0)">7</text></g><line x1="835.23" y1="963" x2="835.23" y2="961" style="stroke-width: 0.5;stroke: rgb(128,128,128);stroke-opacity: 1.0;stroke-linecap: square;shape-rendering:crispEdges;" transform="matrix(1,0,0,1,0,0)" clip-path="url(#_4774124803413clip-0)"/><g transform="matrix(1,0,0,1,0,0)"><text x="927.41" y="991.69" style="fill: rgb(64,64,64); fill-opacity: 1.0; font-family: sans-serif; font-size: 25px;" clip-path="url(#_4774124803413clip-0)">8</text></g><line x1="934.41" y1="963" x2="934.41" y2="961" style="stroke-width: 0.5;stroke: rgb(128,128,128);stroke-opacity: 1.0;stroke-linecap: square;shape-rendering:crispEdges;" transform="matrix(1,0,0,1,0,0)" clip-path="url(#_4774124803413clip-0)"/><g transform="matrix(1,0,0,1,0,0)"><text x="1026.58" y="991.69" style="fill: rgb(64,64,64); fill-opacity: 1.0; font-family: sans-serif; font-size: 25px;" clip-path="url(#_4774124803413clip-0)">9</text></g><line x1="1033.58" y1="963" x2="1033.58" y2="961" style="stroke-width: 0.5;stroke: rgb(128,128,128);stroke-opacity: 1.0;stroke-linecap: square;shape-rendering:crispEdges;" transform="matrix(1,0,0,1,0,0)" clip-path="url(#_4774124803413clip-0)"/><g transform="matrix(1,0,0,1,0,0)"><text x="1118.76" y="991.69" style="fill: rgb(64,64,64); fill-opacity: 1.0; font-family: sans-serif; font-size: 25px;" clip-path="url(#_4774124803413clip-0)">10</text></g><line x1="1132.76" y1="963" x2="1132.76" y2="961" style="stroke-width: 0.5;stroke: rgb(128,128,128);stroke-opacity: 1.0;stroke-linecap: square;shape-rendering:crispEdges;" transform="matrix(1,0,0,1,0,0)" clip-path="url(#_4774124803413clip-0)"/><g transform="matrix(1,0,0,1,0,0)"><text x="1217.94" y="991.69" style="fill: rgb(64,64,64); fill-opacity: 1.0; font-family: sans-serif; font-size: 25px;" clip-path="url(#_4774124803413clip-0)">11</text></g><line x1="1231.94" y1="963" x2="1231.94" y2="961" style="stroke-width: 0.5;stroke: rgb(128,128,128);stroke-opacity: 1.0;stroke-linecap: square;shape-rendering:crispEdges;" transform="matrix(1,0,0,1,0,0)" clip-path="url(#_4774124803413clip-0)"/><g transform="matrix(1,0,0,1,0,0)"><text x="1317.11" y="991.69" style="fill: rgb(64,64,64); fill-opacity: 1.0; font-family: sans-serif; font-size: 25px;" clip-path="url(#_4774124803413clip-0)">12</text></g><line x1="1331.11" y1="963" x2="1331.11" y2="961" style="stroke-width: 0.5;stroke: rgb(128,128,128);stroke-opacity: 1.0;stroke-linecap: square;shape-rendering:crispEdges;" transform="matrix(1,0,0,1,0,0)" clip-path="url(#_4774124803413clip-0)"/><g transform="matrix(1,0,0,1,0,0)"><text x="1416.29" y="991.69" style="fill: rgb(64,64,64); fill-opacity: 1.0; font-family: sans-serif; font-size: 25px;" clip-path="url(#_4774124803413clip-0)">13</text></g><line x1="1430.29" y1="963" x2="1430.29" y2="961" style="stroke-width: 0.5;stroke: rgb(128,128,128);stroke-opacity: 1.0;stroke-linecap: square;shape-rendering:crispEdges;" transform="matrix(1,0,0,1,0,0)" clip-path="url(#_4774124803413clip-0)"/><g transform="matrix(1,0,0,1,0,0)"><text x="1515.46" y="991.69" style="fill: rgb(64,64,64); fill-opacity: 1.0; font-family: sans-serif; font-size: 25px;" clip-path="url(#_4774124803413clip-0)">14</text></g><line x1="1529.46" y1="963" x2="1529.46" y2="961" style="stroke-width: 0.5;stroke: rgb(128,128,128);stroke-opacity: 1.0;stroke-linecap: square;shape-rendering:crispEdges;" transform="matrix(1,0,0,1,0,0)" clip-path="url(#_4774124803413clip-0)"/><g transform="matrix(1,0,0,1,0,0)"><text x="1614.64" y="991.69" style="fill: rgb(64,64,64); fill-opacity: 1.0; font-family: sans-serif; font-size: 25px;" clip-path="url(#_4774124803413clip-0)">15</text></g><line x1="1628.64" y1="963" x2="1628.64" y2="961" style="stroke-width: 0.5;stroke: rgb(128,128,128);stroke-opacity: 1.0;stroke-linecap: square;shape-rendering:crispEdges;" transform="matrix(1,0,0,1,0,0)" clip-path="url(#_4774124803413clip-0)"/><g transform="matrix(1,0,0,1,0,0)"><text x="1713.81" y="991.69" style="fill: rgb(64,64,64); fill-opacity: 1.0; font-family: sans-serif; font-size: 25px;" clip-path="url(#_4774124803413clip-0)">16</text></g><line x1="1727.81" y1="963" x2="1727.81" y2="961" style="stroke-width: 0.5;stroke: rgb(128,128,128);stroke-opacity: 1.0;stroke-linecap: square;shape-rendering:crispEdges;" transform="matrix(1,0,0,1,0,0)" clip-path="url(#_4774124803413clip-0)"/><g transform="matrix(1,0,0,1,0,0)"><text x="1812.99" y="991.69" style="fill: rgb(64,64,64); fill-opacity: 1.0; font-family: sans-serif; font-size: 25px;" clip-path="url(#_4774124803413clip-0)">17</text></g><line x1="1826.99" y1="963" x2="1826.99" y2="961" style="stroke-width: 0.5;stroke: rgb(128,128,128);stroke-opacity: 1.0;stroke-linecap: square;shape-rendering:crispEdges;" transform="matrix(1,0,0,1,0,0)" clip-path="url(#_4774124803413clip-0)"/><g transform="matrix(1,0,0,1,0,0)"><text x="953" y="1030.87" style="fill: rgb(64,64,64); fill-opacity: 1.0; font-family: sans-serif; font-size: 30px;" clip-path="url(#_4774124803413clip-0)">Time (min)</text></g><line x1="137" y1="35" x2="137" y2="957" style="stroke-width: 0.5;stroke: rgb(128,128,128);stroke-opacity: 1.0;stroke-linecap: square;shape-rendering:crispEdges;" transform="matrix(1,0,0,1,0,0)" clip-path="url(#_4774124803413clip-0)"/><g transform="matrix(1,0,0,1,0,0)"><text x="68" y="932.65" style="fill: rgb(64,64,64); fill-opacity: 1.0; font-family: sans-serif; font-size: 25px;" clip-path="url(#_4774124803413clip-0)">2.000</text></g><line x1="135" y1="922.46" x2="137" y2="922.46" style="stroke-width: 0.5;stroke: rgb(128,128,128);stroke-opacity: 1.0;stroke-linecap: square;shape-rendering:crispEdges;" transform="matrix(1,0,0,1,0,0)" clip-path="url(#_4774124803413clip-0)"/><g transform="matrix(1,0,0,1,0,0)"><text x="68" y="879.51" style="fill: rgb(64,64,64); fill-opacity: 1.0; font-family: sans-serif; font-size: 25px;" clip-path="url(#_4774124803413clip-0)">3.000</text></g><line x1="135" y1="869.32" x2="137" y2="869.32" style="stroke-width: 0.5;stroke: rgb(128,128,128);stroke-opacity: 1.0;stroke-linecap: square;shape-rendering:crispEdges;" transform="matrix(1,0,0,1,0,0)" clip-path="url(#_4774124803413clip-0)"/><g transform="matrix(1,0,0,1,0,0)"><text x="68" y="826.36" style="fill: rgb(64,64,64); fill-opacity: 1.0; font-family: sans-serif; font-size: 25px;" clip-path="url(#_4774124803413clip-0)">4.000</text></g><line x1="135" y1="816.18" x2="137" y2="816.18" style="stroke-width: 0.5;stroke: rgb(128,128,128);stroke-opacity: 1.0;stroke-linecap: square;shape-rendering:crispEdges;" transform="matrix(1,0,0,1,0,0)" clip-path="url(#_4774124803413clip-0)"/><g transform="matrix(1,0,0,1,0,0)"><text x="68" y="773.22" style="fill: rgb(64,64,64); fill-opacity: 1.0; font-family: sans-serif; font-size: 25px;" clip-path="url(#_4774124803413clip-0)">5.000</text></g><line x1="135" y1="763.03" x2="137" y2="763.03" style="stroke-width: 0.5;stroke: rgb(128,128,128);stroke-opacity: 1.0;stroke-linecap: square;shape-rendering:crispEdges;" transform="matrix(1,0,0,1,0,0)" clip-path="url(#_4774124803413clip-0)"/><g transform="matrix(1,0,0,1,0,0)"><text x="68" y="720.08" style="fill: rgb(64,64,64); fill-opacity: 1.0; font-family: sans-serif; font-size: 25px;" clip-path="url(#_4774124803413clip-0)">6.000</text></g><line x1="135" y1="709.89" x2="137" y2="709.89" style="stroke-width: 0.5;stroke: rgb(128,128,128);stroke-opacity: 1.0;stroke-linecap: square;shape-rendering:crispEdges;" transform="matrix(1,0,0,1,0,0)" clip-path="url(#_4774124803413clip-0)"/><g transform="matrix(1,0,0,1,0,0)"><text x="68" y="666.94" style="fill: rgb(64,64,64); fill-opacity: 1.0; font-family: sans-serif; font-size: 25px;" clip-path="url(#_4774124803413clip-0)">7.000</text></g><line x1="135" y1="656.75" x2="137" y2="656.75" style="stroke-width: 0.5;stroke: rgb(128,128,128);stroke-opacity: 1.0;stroke-linecap: square;shape-rendering:crispEdges;" transform="matrix(1,0,0,1,0,0)" clip-path="url(#_4774124803413clip-0)"/><g transform="matrix(1,0,0,1,0,0)"><text x="68" y="613.8" style="fill: rgb(64,64,64); fill-opacity: 1.0; font-family: sans-serif; font-size: 25px;" clip-path="url(#_4774124803413clip-0)">8.000</text></g><line x1="135" y1="603.61" x2="137" y2="603.61" style="stroke-width: 0.5;stroke: rgb(128,128,128);stroke-opacity: 1.0;stroke-linecap: square;shape-rendering:crispEdges;" transform="matrix(1,0,0,1,0,0)" clip-path="url(#_4774124803413clip-0)"/><g transform="matrix(1,0,0,1,0,0)"><text x="68" y="560.66" style="fill: rgb(64,64,64); fill-opacity: 1.0; font-family: sans-serif; font-size: 25px;" clip-path="url(#_4774124803413clip-0)">9.000</text></g><line x1="135" y1="550.47" x2="137" y2="550.47" style="stroke-width: 0.5;stroke: rgb(128,128,128);stroke-opacity: 1.0;stroke-linecap: square;shape-rendering:crispEdges;" transform="matrix(1,0,0,1,0,0)" clip-path="url(#_4774124803413clip-0)"/><g transform="matrix(1,0,0,1,0,0)"><text x="55" y="507.52" style="fill: rgb(64,64,64); fill-opacity: 1.0; font-family: sans-serif; font-size: 25px;" clip-path="url(#_4774124803413clip-0)">10.000</text></g><line x1="135" y1="497.33" x2="137" y2="497.33" style="stroke-width: 0.5;stroke: rgb(128,128,128);stroke-opacity: 1.0;stroke-linecap: square;shape-rendering:crispEdges;" transform="matrix(1,0,0,1,0,0)" clip-path="url(#_4774124803413clip-0)"/><g transform="matrix(1,0,0,1,0,0)"><text x="55" y="454.38" style="fill: rgb(64,64,64); fill-opacity: 1.0; font-family: sans-serif; font-size: 25px;" clip-path="url(#_4774124803413clip-0)">11.000</text></g><line x1="135" y1="444.19" x2="137" y2="444.19" style="stroke-width: 0.5;stroke: rgb(128,128,128);stroke-opacity: 1.0;stroke-linecap: square;shape-rendering:crispEdges;" transform="matrix(1,0,0,1,0,0)" clip-path="url(#_4774124803413clip-0)"/><g transform="matrix(1,0,0,1,0,0)"><text x="55" y="401.24" style="fill: rgb(64,64,64); fill-opacity: 1.0; font-family: sans-serif; font-size: 25px;" clip-path="url(#_4774124803413clip-0)">12.000</text></g><line x1="135" y1="391.05" x2="137" y2="391.05" style="stroke-width: 0.5;stroke: rgb(128,128,128);stroke-opacity: 1.0;stroke-linecap: square;shape-rendering:crispEdges;" transform="matrix(1,0,0,1,0,0)" clip-path="url(#_4774124803413clip-0)"/><g transform="matrix(1,0,0,1,0,0)"><text x="55" y="348.09" style="fill: rgb(64,64,64); fill-opacity: 1.0; font-family: sans-serif; font-size: 25px;" clip-path="url(#_4774124803413clip-0)">13.000</text></g><line x1="135" y1="337.9" x2="137" y2="337.9" style="stroke-width: 0.5;stroke: rgb(128,128,128);stroke-opacity: 1.0;stroke-linecap: square;shape-rendering:crispEdges;" transform="matrix(1,0,0,1,0,0)" clip-path="url(#_4774124803413clip-0)"/><g transform="matrix(1,0,0,1,0,0)"><text x="55" y="294.95" style="fill: rgb(64,64,64); fill-opacity: 1.0; font-family: sans-serif; font-size: 25px;" clip-path="url(#_4774124803413clip-0)">14.000</text></g><line x1="135" y1="284.76" x2="137" y2="284.76" style="stroke-width: 0.5;stroke: rgb(128,128,128);stroke-opacity: 1.0;stroke-linecap: square;shape-rendering:crispEdges;" transform="matrix(1,0,0,1,0,0)" clip-path="url(#_4774124803413clip-0)"/><g transform="matrix(1,0,0,1,0,0)"><text x="55" y="241.81" style="fill: rgb(64,64,64); fill-opacity: 1.0; font-family: sans-serif; font-size: 25px;" clip-path="url(#_4774124803413clip-0)">15.000</text></g><line x1="135" y1="231.62" x2="137" y2="231.62" style="stroke-width: 0.5;stroke: rgb(128,128,128);stroke-opacity: 1.0;stroke-linecap: square;shape-rendering:crispEdges;" transform="matrix(1,0,0,1,0,0)" clip-path="url(#_4774124803413clip-0)"/><g transform="matrix(1,0,0,1,0,0)"><text x="55" y="188.67" style="fill: rgb(64,64,64); fill-opacity: 1.0; font-family: sans-serif; font-size: 25px;" clip-path="url(#_4774124803413clip-0)">16.000</text></g><line x1="135" y1="178.48" x2="137" y2="178.48" style="stroke-width: 0.5;stroke: rgb(128,128,128);stroke-opacity: 1.0;stroke-linecap: square;shape-rendering:crispEdges;" transform="matrix(1,0,0,1,0,0)" clip-path="url(#_4774124803413clip-0)"/><g transform="matrix(1,0,0,1,0,0)"><text x="55" y="135.53" style="fill: rgb(64,64,64); fill-opacity: 1.0; font-family: sans-serif; font-size: 25px;" clip-path="url(#_4774124803413clip-0)">17.000</text></g><line x1="135" y1="125.34" x2="137" y2="125.34" style="stroke-width: 0.5;stroke: rgb(128,128,128);stroke-opacity: 1.0;stroke-linecap: square;shape-rendering:crispEdges;" transform="matrix(1,0,0,1,0,0)" clip-path="url(#_4774124803413clip-0)"/><g transform="matrix(1,0,0,1,0,0)"><text x="55" y="82.39" style="fill: rgb(64,64,64); fill-opacity: 1.0; font-family: sans-serif; font-size: 25px;" clip-path="url(#_4774124803413clip-0)">18.000</text></g><line x1="135" y1="72.2" x2="137" y2="72.2" style="stroke-width: 0.5;stroke: rgb(128,128,128);stroke-opacity: 1.0;stroke-linecap: square;shape-rendering:crispEdges;" transform="matrix(1,0,0,1,0,0)" clip-path="url(#_4774124803413clip-0)"/><g style="fill: rgb(64,64,64); fill-opacity: 1.0; stroke: none" transform="matrix(0,-1,1,0,-465.5,526.5)" clip-path="url(#_4774124803413clip-1)"><path d="M -42.05 507.93 L -33.8 486.46 L -30.73 486.46 L -21.95 507.93 L -25.19 507.93 L -27.69 501.43 L -36.67 501.43 L -39.03 507.93 L -42.05 507.93 Z  M -35.84 499.11 L -28.56 499.11 L -30.81 493.16 Q -31.83 490.46 -32.33 488.71 Q -32.73 490.77 -33.48 492.8 L -35.84 499.11 Z  M -20.07 507.93 L -20.07 486.46 L -17.43 486.46 L -17.43 507.93 L -20.07 507.93 Z  M -7.59 505.57 L -7.22 507.9 Q -8.33 508.13 -9.2 508.13 Q -10.64 508.13 -11.43 507.68 Q -12.22 507.22 -12.54 506.48 Q -12.86 505.74 -12.86 503.36 L -12.86 494.43 L -14.79 494.43 L -14.79 492.36 L -12.86 492.36 L -12.86 488.52 L -10.25 486.94 L -10.25 492.36 L -7.59 492.36 L -7.59 494.43 L -10.25 494.43 L -10.25 503.52 Q -10.25 504.65 -10.11 504.97 Q -9.97 505.29 -9.65 505.48 Q -9.34 505.68 -8.75 505.68 Q -8.31 505.68 -7.59 505.57 Z  M -4.99 489.49 L -4.99 486.46 L -2.37 486.46 L -2.37 489.49 L -4.99 489.49 Z  M -4.99 507.93 L -4.99 492.36 L -2.37 492.36 L -2.37 507.93 L -4.99 507.93 Z  M 7.41 505.57 L 7.78 507.9 Q 6.67 508.13 5.8 508.13 Q 4.36 508.13 3.57 507.68 Q 2.78 507.22 2.46 506.48 Q 2.14 505.74 2.14 503.36 L 2.14 494.43 L 0.21 494.43 L 0.21 492.36 L 2.14 492.36 L 2.14 488.52 L 4.75 486.94 L 4.75 492.36 L 7.41 492.36 L 7.41 494.43 L 4.75 494.43 L 4.75 503.52 Q 4.75 504.65 4.89 504.97 Q 5.03 505.29 5.35 505.48 Q 5.66 505.68 6.25 505.68 Q 6.69 505.68 7.41 505.57 Z  M 20.18 507.93 L 20.18 505.65 Q 18.37 508.29 15.24 508.29 Q 13.87 508.29 12.67 507.75 Q 11.48 507.22 10.9 506.43 Q 10.32 505.63 10.09 504.47 Q 9.93 503.69 9.93 502 L 9.93 492.36 L 12.57 492.36 L 12.57 501 Q 12.57 503.07 12.73 503.79 Q 12.98 504.82 13.78 505.41 Q 14.59 506 15.78 506 Q 16.96 506 18 505.4 Q 19.04 504.79 19.47 503.74 Q 19.9 502.69 19.9 500.71 L 19.9 492.36 L 22.54 492.36 L 22.54 507.93 L 20.18 507.93 Z  M 36.77 507.93 L 36.77 505.96 Q 35.29 508.29 32.41 508.29 Q 30.55 508.29 28.99 507.25 Q 27.43 506.22 26.58 504.39 Q 25.73 502.55 25.73 500.16 Q 25.73 497.83 26.5 495.93 Q 27.27 494.04 28.83 493.03 Q 30.38 492.02 32.3 492.02 Q 33.71 492.02 34.8 492.61 Q 35.9 493.21 36.58 494.16 L 36.58 486.46 L 39.21 486.46 L 39.21 507.93 L 36.77 507.93 Z  M 28.43 500.16 Q 28.43 503.15 29.69 504.63 Q 30.94 506.11 32.66 506.11 Q 34.4 506.11 35.6 504.7 Q 36.8 503.29 36.8 500.38 Q 36.8 497.19 35.58 495.7 Q 34.35 494.21 32.55 494.21 Q 30.79 494.21 29.61 495.64 Q 28.43 497.07 28.43 500.16 Z  M 54 502.91 L 56.74 503.25 Q 56.08 505.65 54.34 506.97 Q 52.6 508.29 49.89 508.29 Q 46.47 508.29 44.47 506.18 Q 42.47 504.07 42.47 500.29 Q 42.47 496.35 44.5 494.18 Q 46.52 492.02 49.74 492.02 Q 52.86 492.02 54.84 494.15 Q 56.82 496.27 56.82 500.11 Q 56.82 500.35 56.8 500.82 L 45.21 500.82 Q 45.35 503.38 46.65 504.75 Q 47.96 506.11 49.91 506.11 Q 51.35 506.11 52.38 505.35 Q 53.41 504.58 54 502.91 Z  M 45.35 498.66 L 54.04 498.66 Q 53.86 496.69 53.04 495.71 Q 51.79 494.19 49.77 494.19 Q 47.96 494.19 46.72 495.4 Q 45.49 496.61 45.35 498.66 Z  M 73.41 514.24 Q 71.23 511.49 69.72 507.79 Q 68.21 504.1 68.21 500.15 Q 68.21 496.66 69.34 493.47 Q 70.66 489.75 73.41 486.08 L 75.3 486.08 Q 73.54 489.13 72.96 490.44 Q 72.07 492.46 71.55 494.66 Q 70.93 497.4 70.93 500.16 Q 70.93 507.21 75.3 514.24 L 73.41 514.24 Z  M 79 507.93 L 79 494.43 L 76.67 494.43 L 76.67 492.36 L 79 492.36 L 79 490.71 Q 79 489.15 79.28 488.38 Q 79.65 487.36 80.62 486.72 Q 81.58 486.08 83.31 486.08 Q 84.42 486.08 85.76 486.35 L 85.37 488.65 Q 84.54 488.5 83.81 488.5 Q 82.61 488.5 82.12 489.01 Q 81.62 489.52 81.62 490.93 L 81.62 492.36 L 84.65 492.36 L 84.65 494.43 L 81.62 494.43 L 81.62 507.93 L 79 507.93 Z  M 92.46 505.57 L 92.83 507.9 Q 91.72 508.13 90.85 508.13 Q 89.41 508.13 88.62 507.68 Q 87.83 507.22 87.51 506.48 Q 87.19 505.74 87.19 503.36 L 87.19 494.43 L 85.25 494.43 L 85.25 492.36 L 87.19 492.36 L 87.19 488.52 L 89.8 486.94 L 89.8 492.36 L 92.46 492.36 L 92.46 494.43 L 89.8 494.43 L 89.8 503.52 Q 89.8 504.65 89.94 504.97 Q 90.08 505.29 90.4 505.48 Q 90.71 505.68 91.3 505.68 Q 91.74 505.68 92.46 505.57 Z  M 96.76 514.24 L 94.87 514.24 Q 99.26 507.21 99.26 500.16 Q 99.26 497.41 98.62 494.69 Q 98.12 492.5 97.23 490.47 Q 96.67 489.16 94.87 486.08 L 96.76 486.08 Q 99.51 489.75 100.84 493.47 Q 101.96 496.66 101.96 500.15 Q 101.96 504.1 100.45 507.79 Q 98.93 511.49 96.76 514.24 Z "/></g><line x1="141" y1="35" x2="141" y2="957" style="stroke-width: 0.5;stroke: rgb(192,192,192);stroke-opacity: 1.0;stroke-linejoin: bevel;stroke-dasharray: 2.0, 2.0;shape-rendering:crispEdges;" transform="matrix(1,0,0,1,0,0)" clip-path="url(#_4774124803413clip-2)"/><line x1="240.18" y1="35" x2="240.18" y2="957" style="stroke-width: 0.5;stroke: rgb(192,192,192);stroke-opacity: 1.0;stroke-linejoin: bevel;stroke-dasharray: 2.0, 2.0;shape-rendering:crispEdges;" transform="matrix(1,0,0,1,0,0)" clip-path="url(#_4774124803413clip-2)"/><line x1="339.35" y1="35" x2="339.35" y2="957" style="stroke-width: 0.5;stroke: rgb(192,192,192);stroke-opacity: 1.0;stroke-linejoin: bevel;stroke-dasharray: 2.0, 2.0;shape-rendering:crispEdges;" transform="matrix(1,0,0,1,0,0)" clip-path="url(#_4774124803413clip-2)"/><line x1="438.53" y1="35" x2="438.53" y2="957" style="stroke-width: 0.5;stroke: rgb(192,192,192);stroke-opacity: 1.0;stroke-linejoin: bevel;stroke-dasharray: 2.0, 2.0;shape-rendering:crispEdges;" transform="matrix(1,0,0,1,0,0)" clip-path="url(#_4774124803413clip-2)"/><line x1="537.7" y1="35" x2="537.7" y2="957" style="stroke-width: 0.5;stroke: rgb(192,192,192);stroke-opacity: 1.0;stroke-linejoin: bevel;stroke-dasharray: 2.0, 2.0;shape-rendering:crispEdges;" transform="matrix(1,0,0,1,0,0)" clip-path="url(#_4774124803413clip-2)"/><line x1="636.88" y1="35" x2="636.88" y2="957" style="stroke-width: 0.5;stroke: rgb(192,192,192);stroke-opacity: 1.0;stroke-linejoin: bevel;stroke-dasharray: 2.0, 2.0;shape-rendering:crispEdges;" transform="matrix(1,0,0,1,0,0)" clip-path="url(#_4774124803413clip-2)"/><line x1="736.06" y1="35" x2="736.06" y2="957" style="stroke-width: 0.5;stroke: rgb(192,192,192);stroke-opacity: 1.0;stroke-linejoin: bevel;stroke-dasharray: 2.0, 2.0;shape-rendering:crispEdges;" transform="matrix(1,0,0,1,0,0)" clip-path="url(#_4774124803413clip-2)"/><line x1="835.23" y1="35" x2="835.23" y2="957" style="stroke-width: 0.5;stroke: rgb(192,192,192);stroke-opacity: 1.0;stroke-linejoin: bevel;stroke-dasharray: 2.0, 2.0;shape-rendering:crispEdges;" transform="matrix(1,0,0,1,0,0)" clip-path="url(#_4774124803413clip-2)"/><line x1="934.41" y1="35" x2="934.41" y2="957" style="stroke-width: 0.5;stroke: rgb(192,192,192);stroke-opacity: 1.0;stroke-linejoin: bevel;stroke-dasharray: 2.0, 2.0;shape-rendering:crispEdges;" transform="matrix(1,0,0,1,0,0)" clip-path="url(#_4774124803413clip-2)"/><line x1="1033.58" y1="35" x2="1033.58" y2="957" style="stroke-width: 0.5;stroke: rgb(192,192,192);stroke-opacity: 1.0;stroke-linejoin: bevel;stroke-dasharray: 2.0, 2.0;shape-rendering:crispEdges;" transform="matrix(1,0,0,1,0,0)" clip-path="url(#_4774124803413clip-2)"/><line x1="1132.76" y1="35" x2="1132.76" y2="957" style="stroke-width: 0.5;stroke: rgb(192,192,192);stroke-opacity: 1.0;stroke-linejoin: bevel;stroke-dasharray: 2.0, 2.0;shape-rendering:crispEdges;" transform="matrix(1,0,0,1,0,0)" clip-path="url(#_4774124803413clip-2)"/><line x1="1231.94" y1="35" x2="1231.94" y2="957" style="stroke-width: 0.5;stroke: rgb(192,192,192);stroke-opacity: 1.0;stroke-linejoin: bevel;stroke-dasharray: 2.0, 2.0;shape-rendering:crispEdges;" transform="matrix(1,0,0,1,0,0)" clip-path="url(#_4774124803413clip-2)"/><line x1="1331.11" y1="35" x2="1331.11" y2="957" style="stroke-width: 0.5;stroke: rgb(192,192,192);stroke-opacity: 1.0;stroke-linejoin: bevel;stroke-dasharray: 2.0, 2.0;shape-rendering:crispEdges;" transform="matrix(1,0,0,1,0,0)" clip-path="url(#_4774124803413clip-2)"/><line x1="1430.29" y1="35" x2="1430.29" y2="957" style="stroke-width: 0.5;stroke: rgb(192,192,192);stroke-opacity: 1.0;stroke-linejoin: bevel;stroke-dasharray: 2.0, 2.0;shape-rendering:crispEdges;" transform="matrix(1,0,0,1,0,0)" clip-path="url(#_4774124803413clip-2)"/><line x1="1529.46" y1="35" x2="1529.46" y2="957" style="stroke-width: 0.5;stroke: rgb(192,192,192);stroke-opacity: 1.0;stroke-linejoin: bevel;stroke-dasharray: 2.0, 2.0;shape-rendering:crispEdges;" transform="matrix(1,0,0,1,0,0)" clip-path="url(#_4774124803413clip-2)"/><line x1="1628.64" y1="35" x2="1628.64" y2="957" style="stroke-width: 0.5;stroke: rgb(192,192,192);stroke-opacity: 1.0;stroke-linejoin: bevel;stroke-dasharray: 2.0, 2.0;shape-rendering:crispEdges;" transform="matrix(1,0,0,1,0,0)" clip-path="url(#_4774124803413clip-2)"/><line x1="1727.81" y1="35" x2="1727.81" y2="957" style="stroke-width: 0.5;stroke: rgb(192,192,192);stroke-opacity: 1.0;stroke-linejoin: bevel;stroke-dasharray: 2.0, 2.0;shape-rendering:crispEdges;" transform="matrix(1,0,0,1,0,0)" clip-path="url(#_4774124803413clip-2)"/><line x1="1826.99" y1="35" x2="1826.99" y2="957" style="stroke-width: 0.5;stroke: rgb(192,192,192);stroke-opacity: 1.0;stroke-linejoin: bevel;stroke-dasharray: 2.0, 2.0;shape-rendering:crispEdges;" transform="matrix(1,0,0,1,0,0)" clip-path="url(#_4774124803413clip-2)"/><line x1="141" y1="922.46" x2="1908" y2="922.46" style="stroke-width: 0.5;stroke: rgb(192,192,192);stroke-opacity: 1.0;stroke-linejoin: bevel;stroke-dasharray: 2.0, 2.0;shape-rendering:crispEdges;" transform="matrix(1,0,0,1,0,0)" clip-path="url(#_4774124803413clip-2)"/><line x1="141" y1="869.32" x2="1908" y2="869.32" style="stroke-width: 0.5;stroke: rgb(192,192,192);stroke-opacity: 1.0;stroke-linejoin: bevel;stroke-dasharray: 2.0, 2.0;shape-rendering:crispEdges;" transform="matrix(1,0,0,1,0,0)" clip-path="url(#_4774124803413clip-2)"/><line x1="141" y1="816.18" x2="1908" y2="816.18" style="stroke-width: 0.5;stroke: rgb(192,192,192);stroke-opacity: 1.0;stroke-linejoin: bevel;stroke-dasharray: 2.0, 2.0;shape-rendering:crispEdges;" transform="matrix(1,0,0,1,0,0)" clip-path="url(#_4774124803413clip-2)"/><line x1="141" y1="763.03" x2="1908" y2="763.03" style="stroke-width: 0.5;stroke: rgb(192,192,192);stroke-opacity: 1.0;stroke-linejoin: bevel;stroke-dasharray: 2.0, 2.0;shape-rendering:crispEdges;" transform="matrix(1,0,0,1,0,0)" clip-path="url(#_4774124803413clip-2)"/><line x1="141" y1="709.89" x2="1908" y2="709.89" style="stroke-width: 0.5;stroke: rgb(192,192,192);stroke-opacity: 1.0;stroke-linejoin: bevel;stroke-dasharray: 2.0, 2.0;shape-rendering:crispEdges;" transform="matrix(1,0,0,1,0,0)" clip-path="url(#_4774124803413clip-2)"/><line x1="141" y1="656.75" x2="1908" y2="656.75" style="stroke-width: 0.5;stroke: rgb(192,192,192);stroke-opacity: 1.0;stroke-linejoin: bevel;stroke-dasharray: 2.0, 2.0;shape-rendering:crispEdges;" transform="matrix(1,0,0,1,0,0)" clip-path="url(#_4774124803413clip-2)"/><line x1="141" y1="603.61" x2="1908" y2="603.61" style="stroke-width: 0.5;stroke: rgb(192,192,192);stroke-opacity: 1.0;stroke-linejoin: bevel;stroke-dasharray: 2.0, 2.0;shape-rendering:crispEdges;" transform="matrix(1,0,0,1,0,0)" clip-path="url(#_4774124803413clip-2)"/><line x1="141" y1="550.47" x2="1908" y2="550.47" style="stroke-width: 0.5;stroke: rgb(192,192,192);stroke-opacity: 1.0;stroke-linejoin: bevel;stroke-dasharray: 2.0, 2.0;shape-rendering:crispEdges;" transform="matrix(1,0,0,1,0,0)" clip-path="url(#_4774124803413clip-2)"/><line x1="141" y1="497.33" x2="1908" y2="497.33" style="stroke-width: 0.5;stroke: rgb(192,192,192);stroke-opacity: 1.0;stroke-linejoin: bevel;stroke-dasharray: 2.0, 2.0;shape-rendering:crispEdges;" transform="matrix(1,0,0,1,0,0)" clip-path="url(#_4774124803413clip-2)"/><line x1="141" y1="444.19" x2="1908" y2="444.19" style="stroke-width: 0.5;stroke: rgb(192,192,192);stroke-opacity: 1.0;stroke-linejoin: bevel;stroke-dasharray: 2.0, 2.0;shape-rendering:crispEdges;" transform="matrix(1,0,0,1,0,0)" clip-path="url(#_4774124803413clip-2)"/><line x1="141" y1="391.05" x2="1908" y2="391.05" style="stroke-width: 0.5;stroke: rgb(192,192,192);stroke-opacity: 1.0;stroke-linejoin: bevel;stroke-dasharray: 2.0, 2.0;shape-rendering:crispEdges;" transform="matrix(1,0,0,1,0,0)" clip-path="url(#_4774124803413clip-2)"/><line x1="141" y1="337.9" x2="1908" y2="337.9" style="stroke-width: 0.5;stroke: rgb(192,192,192);stroke-opacity: 1.0;stroke-linejoin: bevel;stroke-dasharray: 2.0, 2.0;shape-rendering:crispEdges;" transform="matrix(1,0,0,1,0,0)" clip-path="url(#_4774124803413clip-2)"/><line x1="141" y1="284.76" x2="1908" y2="284.76" style="stroke-width: 0.5;stroke: rgb(192,192,192);stroke-opacity: 1.0;stroke-linejoin: bevel;stroke-dasharray: 2.0, 2.0;shape-rendering:crispEdges;" transform="matrix(1,0,0,1,0,0)" clip-path="url(#_4774124803413clip-2)"/><line x1="141" y1="231.62" x2="1908" y2="231.62" style="stroke-width: 0.5;stroke: rgb(192,192,192);stroke-opacity: 1.0;stroke-linejoin: bevel;stroke-dasharray: 2.0, 2.0;shape-rendering:crispEdges;" transform="matrix(1,0,0,1,0,0)" clip-path="url(#_4774124803413clip-2)"/><line x1="141" y1="178.48" x2="1908" y2="178.48" style="stroke-width: 0.5;stroke: rgb(192,192,192);stroke-opacity: 1.0;stroke-linejoin: bevel;stroke-dasharray: 2.0, 2.0;shape-rendering:crispEdges;" transform="matrix(1,0,0,1,0,0)" clip-path="url(#_4774124803413clip-2)"/><line x1="141" y1="125.34" x2="1908" y2="125.34" style="stroke-width: 0.5;stroke: rgb(192,192,192);stroke-opacity: 1.0;stroke-linejoin: bevel;stroke-dasharray: 2.0, 2.0;shape-rendering:crispEdges;" transform="matrix(1,0,0,1,0,0)" clip-path="url(#_4774124803413clip-2)"/><line x1="141" y1="72.2" x2="1908" y2="72.2" style="stroke-width: 0.5;stroke: rgb(192,192,192);stroke-opacity: 1.0;stroke-linejoin: bevel;stroke-dasharray: 2.0, 2.0;shape-rendering:crispEdges;" transform="matrix(1,0,0,1,0,0)" clip-path="url(#_4774124803413clip-2)"/><line x1="141" y1="949.03" x2="413.3" y2="743.11" style="stroke-width: 3.0;stroke: rgb(0,192,0);stroke-opacity: 1.0;stroke-linecap: round;stroke-linejoin: round;stroke-dasharray: 10.0, 5.0;shape-rendering:geometricPrecision;" transform="matrix(1,0,0,1,0,0)" clip-path="url(#_4774124803413clip-2)"/><line x1="413.3" y1="743.11" x2="721.07" y2="537.18" style="stroke-width: 3.0;stroke: rgb(0,192,0);stroke-opacity: 1.0;stroke-linecap: round;stroke-linejoin: round;stroke-dasharray: 10.0, 5.0;shape-rendering:geometricPrecision;" transform="matrix(1,0,0,1,0,0)" clip-path="url(#_4774124803413clip-2)"/><line x1="721.07" y1="537.18" x2="1095.01" y2="331.26" style="stroke-width: 3.0;stroke: rgb(0,192,0);stroke-opacity: 1.0;stroke-linecap: round;stroke-linejoin: round;stroke-dasharray: 10.0, 5.0;shape-rendering:geometricPrecision;" transform="matrix(1,0,0,1,0,0)" clip-path="url(#_4774124803413clip-2)"/><line x1="1095.01" y1="331.26" x2="1579.36" y2="125.34" style="stroke-width: 3.0;stroke: rgb(0,192,0);stroke-opacity: 1.0;stroke-linecap: round;stroke-linejoin: round;stroke-dasharray: 10.0, 5.0;shape-rendering:geometricPrecision;" transform="matrix(1,0,0,1,0,0)" clip-path="url(#_4774124803413clip-2)"/><line x1="141" y1="949.03" x2="426.52" y2="743.11" style="stroke-width: 3.0;stroke: rgb(255,0,0);stroke-opacity: 1.0;stroke-linecap: square;shape-rendering:geometricPrecision;" transform="matrix(1,0,0,1,0,0)" clip-path="url(#_4774124803413clip-2)"/><line x1="426.52" y1="743.11" x2="755.1" y2="537.18" style="stroke-width: 3.0;stroke: rgb(255,0,0);stroke-opacity: 1.0;stroke-linecap: square;shape-rendering:geometricPrecision;" transform="matrix(1,0,0,1,0,0)" clip-path="url(#_4774124803413clip-2)"/><line x1="755.1" y1="537.18" x2="1169.32" y2="331.26" style="stroke-width: 3.0;stroke: rgb(255,0,0);stroke-opacity: 1.0;stroke-linecap: square;shape-rendering:geometricPrecision;" transform="matrix(1,0,0,1,0,0)" clip-path="url(#_4774124803413clip-2)"/><line x1="1169.32" y1="331.26" x2="1747.36" y2="125.34" style="stroke-width: 3.0;stroke: rgb(255,0,0);stroke-opacity: 1.0;stroke-linecap: square;shape-rendering:geometricPrecision;" transform="matrix(1,0,0,1,0,0)" clip-path="url(#_4774124803413clip-2)"/><rect x="141" y="35" width="1767" height="922" style="stroke-width: 0.5;stroke: rgb(0,0,0);stroke-opacity: 1.0;stroke-linecap: round;stroke-linejoin: round;shape-rendering:crispEdges;; fill: none" transform="matrix(1,0,0,1,0,0)" clip-path="url(#_4774124803413clip-0)"/></svg>
