<!DOCTYPE svg PUBLIC "-//W3C//DTD SVG 1.1//EN" "http://www.w3.org/Graphics/SVG/1.1/DTD/svg11.dtd">
<svg xmlns="http://www.w3.org/2000/svg" xmlns:xlink="http://www.w3.org/1999/xlink" xmlns:jfreesvg="http://www.jfree.org/jfreesvg/svg" width="1920" height="1080" text-rendering="auto" shape-rendering="auto">
<defs><clipPath id="_952036653490839clip-0"><path d="M 0 0 L 1920 0 L 1920 1080 L 0 1080 L 0 0 Z "/></clipPath>
<clipPath id="_952036653490839clip-1"><path d="M 5 27 L 5 1075 L 1915 1075 L 1915 27 Z "/></clipPath>
</defs>
<rect x="0" y="0" width="1920" height="1080" style="fill: rgb(255,255,255); fill-opacity: 1.0" transform="matrix(1,0,0,1,0,0)" clip-path="url(#_952036653490839clip-0)"/><g transform="matrix(1,0,0,1,0,0)"><text x="859" y="21.01" style="fill: rgb(0,0,0); fill-opacity: 1.0; font-family: Tahoma; font-size: 20px; font-weight: bold;" clip-path="url(#_952036653490839clip-0)">Weights Breakdown</text></g><rect x="5" y="27" width="1910" height="1048" style="fill: rgb(255,255,255); fill-opacity: 0.0" transform="matrix(1,0,0,1,0,0)" clip-path="url(#_952036653490839clip-0)"/><rect x="5" y="27" width="1910" height="1048" style="stroke-width: 0.5;stroke: rgb(0,0,0);stroke-opacity: 1.0;stroke-linecap: round;stroke-linejoin: round;shape-rendering:crispEdges;; fill: none" transform="matrix(1,0,0,1,0,0)" clip-path="url(#_952036653490839clip-0)"/><g style="fill: rgb(128,128,128); fill-opacity: 1.0; stroke: none" transform="matrix(1,0,0,1,0,0)" clip-path="url(#_952036653490839clip-1)"><path d="M 964 136.85 C 1076.83 136.85 1184.87 182.44 1263.58 263.28 L 964 555 Z "/></g><g style="fill: rgb(128,128,128); fill-opacity: 1.0; stroke: none" transform="matrix(1,0,0,1,0,0)" clip-path="url(#_952036653490839clip-1)"><path d="M 1263.58 263.28 C 1331.13 332.65 1372.52 423.31 1380.67 519.8 L 964 555 Z "/></g><g style="fill: rgb(128,128,128); fill-opacity: 1.0; stroke: none" transform="matrix(1,0,0,1,0,0)" clip-path="url(#_952036653490839clip-1)"><path d="M 1380.67 519.8 C 1381.54 530.14 1382.03 540.51 1382.13 550.89 L 964 555 Z "/></g><g style="fill: rgb(128,128,128); fill-opacity: 1.0; stroke: none" transform="matrix(1,0,0,1,0,0)" clip-path="url(#_952036653490839clip-1)"><path d="M 1382.13 550.89 C 1382.22 559.74 1382.02 568.6 1381.55 577.44 L 964 555 Z "/></g><g style="fill: rgb(128,128,128); fill-opacity: 1.0; stroke: none" transform="matrix(1,0,0,1,0,0)" clip-path="url(#_952036653490839clip-1)"><path d="M 1381.55 577.44 C 1379.55 614.67 1372.58 651.47 1360.82 686.86 L 964 555 Z "/></g><g style="fill: rgb(128,128,128); fill-opacity: 1.0; stroke: none" transform="matrix(1,0,0,1,0,0)" clip-path="url(#_952036653490839clip-1)"><path d="M 1360.82 686.86 C 1352.67 711.37 1342.27 735.08 1329.75 757.68 L 964 555 Z "/></g><g style="fill: rgb(128,128,128); fill-opacity: 1.0; stroke: none" transform="matrix(1,0,0,1,0,0)" clip-path="url(#_952036653490839clip-1)"><path d="M 1329.75 757.68 C 1287.56 833.81 1222.67 894.88 1144.12 932.37 L 964 555 Z "/></g><g style="fill: rgb(128,128,128); fill-opacity: 1.0; stroke: none" transform="matrix(1,0,0,1,0,0)" clip-path="url(#_952036653490839clip-1)"><path d="M 1144.12 932.37 C 1043.43 980.43 927.71 986.26 822.7 948.56 L 964 555 Z "/></g><g style="fill: rgb(128,128,128); fill-opacity: 1.0; stroke: none" transform="matrix(1,0,0,1,0,0)" clip-path="url(#_952036653490839clip-1)"><path d="M 822.7 948.56 C 798.17 939.75 774.52 928.67 752.05 915.45 L 964 555 Z "/></g><g style="fill: rgb(128,128,128); fill-opacity: 1.0; stroke: none" transform="matrix(1,0,0,1,0,0)" clip-path="url(#_952036653490839clip-1)"><path d="M 752.05 915.45 C 747.63 912.86 743.27 910.18 738.95 907.43 L 964 555 Z "/></g><g style="fill: rgb(128,128,128); fill-opacity: 1.0; stroke: none" transform="matrix(1,0,0,1,0,0)" clip-path="url(#_952036653490839clip-1)"><path d="M 738.95 907.43 C 579.22 805.43 508.06 608.76 565.55 428.17 L 964 555 Z "/></g><g style="fill: rgb(128,128,128); fill-opacity: 1.0; stroke: none" transform="matrix(1,0,0,1,0,0)" clip-path="url(#_952036653490839clip-1)"><path d="M 565.55 428.17 C 620.77 254.67 781.92 136.85 964 136.85 L 964 555 Z "/></g><g style="fill: rgb(255,85,85); fill-opacity: 1.0; stroke: none" transform="matrix(1,0,0,1,0,0)" clip-path="url(#_952036653490839clip-1)"><path d="M 960 132.85 C 1072.83 132.85 1180.87 178.44 1259.58 259.28 L 960 551 Z "/></g><g style="stroke-width: 0.5;stroke: rgb(128,128,128);stroke-opacity: 1.0;stroke-linecap: round;stroke-linejoin: round;shape-rendering:geometricPrecision;; fill: none" transform="matrix(1,0,0,1,0,0)" clip-path="url(#_952036653490839clip-1)"><path d="M 960 132.85 C 1072.83 132.85 1180.87 178.44 1259.58 259.28 L 960 551 Z "/></g><g style="fill: rgb(85,85,255); fill-opacity: 1.0; stroke: none" transform="matrix(1,0,0,1,0,0)" clip-path="url(#_952036653490839clip-1)"><path d="M 1259.58 259.28 C 1327.13 328.65 1368.52 419.31 1376.67 515.8 L 960 551 Z "/></g><g style="stroke-width: 0.5;stroke: rgb(128,128,128);stroke-opacity: 1.0;stroke-linecap: round;stroke-linejoin: round;shape-rendering:geometricPrecision;; fill: none" transform="matrix(1,0,0,1,0,0)" clip-path="url(#_952036653490839clip-1)"><path d="M 1259.58 259.28 C 1327.13 328.65 1368.52 419.31 1376.67 515.8 L 960 551 Z "/></g><g style="fill: rgb(85,255,85); fill-opacity: 1.0; stroke: none" transform="matrix(1,0,0,1,0,0)" clip-path="url(#_952036653490839clip-1)"><path d="M 1376.67 515.8 C 1377.54 526.14 1378.03 536.51 1378.13 546.89 L 960 551 Z "/></g><g style="stroke-width: 0.5;stroke: rgb(128,128,128);stroke-opacity: 1.0;stroke-linecap: round;stroke-linejoin: round;shape-rendering:geometricPrecision;; fill: none" transform="matrix(1,0,0,1,0,0)" clip-path="url(#_952036653490839clip-1)"><path d="M 1376.67 515.8 C 1377.54 526.14 1378.03 536.51 1378.13 546.89 L 960 551 Z "/></g><g style="fill: rgb(255,255,85); fill-opacity: 1.0; stroke: none" transform="matrix(1,0,0,1,0,0)" clip-path="url(#_952036653490839clip-1)"><path d="M 1378.13 546.89 C 1378.22 555.74 1378.02 564.6 1377.55 573.44 L 960 551 Z "/></g><g style="stroke-width: 0.5;stroke: rgb(128,128,128);stroke-opacity: 1.0;stroke-linecap: round;stroke-linejoin: round;shape-rendering:geometricPrecision;; fill: none" transform="matrix(1,0,0,1,0,0)" clip-path="url(#_952036653490839clip-1)"><path d="M 1378.13 546.89 C 1378.22 555.74 1378.02 564.6 1377.55 573.44 L 960 551 Z "/></g><g style="fill: rgb(255,85,255); fill-opacity: 1.0; stroke: none" transform="matrix(1,0,0,1,0,0)" clip-path="url(#_952036653490839clip-1)"><path d="M 1377.55 573.44 C 1375.55 610.67 1368.58 647.47 1356.82 682.86 L 960 551 Z "/></g><g style="stroke-width: 0.5;stroke: rgb(128,128,128);stroke-opacity: 1.0;stroke-linecap: round;stroke-linejoin: round;shape-rendering:geometricPrecision;; fill: none" transform="matrix(1,0,0,1,0,0)" clip-path="url(#_952036653490839clip-1)"><path d="M 1377.55 573.44 C 1375.55 610.67 1368.58 647.47 1356.82 682.86 L 960 551 Z "/></g><g style="fill: rgb(85,255,255); fill-opacity: 1.0; stroke: none" transform="matrix(1,0,0,1,0,0)" clip-path="url(#_952036653490839clip-1)"><path d="M 1356.82 682.86 C 1348.67 707.37 1338.27 731.08 1325.75 753.68 L 960 551 Z "/></g><g style="stroke-width: 0.5;stroke: rgb(128,128,128);stroke-opacity: 1.0;stroke-linecap: round;stroke-linejoin: round;shape-rendering:geometricPrecision;; fill: none" transform="matrix(1,0,0,1,0,0)" clip-path="url(#_952036653490839clip-1)"><path d="M 1356.82 682.86 C 1348.67 707.37 1338.27 731.08 1325.75 753.68 L 960 551 Z "/></g><g style="fill: rgb(255,175,175); fill-opacity: 1.0; stroke: none" transform="matrix(1,0,0,1,0,0)" clip-path="url(#_952036653490839clip-1)"><path d="M 1325.75 753.68 C 1283.56 829.81 1218.67 890.88 1140.12 928.37 L 960 551 Z "/></g><g style="stroke-width: 0.5;stroke: rgb(128,128,128);stroke-opacity: 1.0;stroke-linecap: round;stroke-linejoin: round;shape-rendering:geometricPrecision;; fill: none" transform="matrix(1,0,0,1,0,0)" clip-path="url(#_952036653490839clip-1)"><path d="M 1325.75 753.68 C 1283.56 829.81 1218.67 890.88 1140.12 928.37 L 960 551 Z "/></g><g style="fill: rgb(128,128,128); fill-opacity: 1.0; stroke: none" transform="matrix(1,0,0,1,0,0)" clip-path="url(#_952036653490839clip-1)"><path d="M 1140.12 928.37 C 1039.43 976.43 923.71 982.26 818.7 944.56 L 960 551 Z "/></g><g style="stroke-width: 0.5;stroke: rgb(128,128,128);stroke-opacity: 1.0;stroke-linecap: round;stroke-linejoin: round;shape-rendering:geometricPrecision;; fill: none" transform="matrix(1,0,0,1,0,0)" clip-path="url(#_952036653490839clip-1)"><path d="M 1140.12 928.37 C 1039.43 976.43 923.71 982.26 818.7 944.56 L 960 551 Z "/></g><g style="fill: rgb(192,0,0); fill-opacity: 1.0; stroke: none" transform="matrix(1,0,0,1,0,0)" clip-path="url(#_952036653490839clip-1)"><path d="M 818.7 944.56 C 794.17 935.75 770.52 924.67 748.05 911.45 L 960 551 Z "/></g><g style="stroke-width: 0.5;stroke: rgb(128,128,128);stroke-opacity: 1.0;stroke-linecap: round;stroke-linejoin: round;shape-rendering:geometricPrecision;; fill: none" transform="matrix(1,0,0,1,0,0)" clip-path="url(#_952036653490839clip-1)"><path d="M 818.7 944.56 C 794.17 935.75 770.52 924.67 748.05 911.45 L 960 551 Z "/></g><g style="fill: rgb(0,0,192); fill-opacity: 1.0; stroke: none" transform="matrix(1,0,0,1,0,0)" clip-path="url(#_952036653490839clip-1)"><path d="M 748.05 911.45 C 743.63 908.86 739.27 906.18 734.95 903.43 L 960 551 Z "/></g><g style="stroke-width: 0.5;stroke: rgb(128,128,128);stroke-opacity: 1.0;stroke-linecap: round;stroke-linejoin: round;shape-rendering:geometricPrecision;; fill: none" transform="matrix(1,0,0,1,0,0)" clip-path="url(#_952036653490839clip-1)"><path d="M 748.05 911.45 C 743.63 908.86 739.27 906.18 734.95 903.43 L 960 551 Z "/></g><g style="fill: rgb(0,192,0); fill-opacity: 1.0; stroke: none" transform="matrix(1,0,0,1,0,0)" clip-path="url(#_952036653490839clip-1)"><path d="M 734.95 903.43 C 575.22 801.43 504.06 604.76 561.55 424.17 L 960 551 Z "/></g><g style="stroke-width: 0.5;stroke: rgb(128,128,128);stroke-opacity: 1.0;stroke-linecap: round;stroke-linejoin: round;shape-rendering:geometricPrecision;; fill: none" transform="matrix(1,0,0,1,0,0)" clip-path="url(#_952036653490839clip-1)"><path d="M 734.95 903.43 C 575.22 801.43 504.06 604.76 561.55 424.17 L 960 551 Z "/></g><g style="fill: rgb(192,192,0); fill-opacity: 1.0; stroke: none" transform="matrix(1,0,0,1,0,0)" clip-path="url(#_952036653490839clip-1)"><path d="M 561.55 424.17 C 616.77 250.67 777.92 132.85 960 132.85 L 960 551 Z "/></g><g style="stroke-width: 0.5;stroke: rgb(128,128,128);stroke-opacity: 1.0;stroke-linecap: round;stroke-linejoin: round;shape-rendering:geometricPrecision;; fill: none" transform="matrix(1,0,0,1,0,0)" clip-path="url(#_952036653490839clip-1)"><path d="M 561.55 424.17 C 616.77 250.67 777.92 132.85 960 132.85 L 960 551 Z "/></g><g style="stroke-width: 0.5;stroke: rgb(0,0,0);stroke-opacity: 1.0;stroke-linecap: square;shape-rendering:geometricPrecision;; fill: none" transform="matrix(1,0,0,1,0,0)" clip-path="url(#_952036653490839clip-1)"><path d="M 481.87 195.68 C 519.84 195.68 700.22 195.68 737.88 247.2"/></g><rect x="290.87" y="174.68" width="193" height="46" style="fill: rgb(151,151,151); fill-opacity: 0.5019608" transform="matrix(1,0,0,1,0,0)" clip-path="url(#_952036653490839clip-1)"/><rect x="288.87" y="172.68" width="193" height="46" style="fill: rgb(255,255,192); fill-opacity: 1.0" transform="matrix(1,0,0,1,0,0)" clip-path="url(#_952036653490839clip-1)"/><rect x="288.87" y="172.68" width="193" height="46" style="stroke-width: 0.5;stroke: rgb(0,0,0);stroke-opacity: 1.0;stroke-linecap: square;shape-rendering:geometricPrecision;; fill: none" transform="matrix(1,0,0,1,0,0)" clip-path="url(#_952036653490839clip-1)"/><g transform="matrix(1,0,0,1,0,0)"><text x="290.87" y="206.85" style="fill: rgb(0,0,0); fill-opacity: 1.0; font-family: sans-serif; font-size: 32px;" clip-path="url(#_952036653490839clip-1)">Fuel: 20,10%</text></g><g style="stroke-width: 0.5;stroke: rgb(0,0,0);stroke-opacity: 1.0;stroke-linecap: square;shape-rendering:geometricPrecision;; fill: none" transform="matrix(1,0,0,1,0,0)" clip-path="url(#_952036653490839clip-1)"><path d="M 473.51 700.76 C 519.84 700.76 546.1 700.76 606.12 679.04"/></g><rect x="176.51" y="679.76" width="299" height="46" style="fill: rgb(151,151,151); fill-opacity: 0.5019608" transform="matrix(1,0,0,1,0,0)" clip-path="url(#_952036653490839clip-1)"/><rect x="174.51" y="677.76" width="299" height="46" style="fill: rgb(255,255,192); fill-opacity: 1.0" transform="matrix(1,0,0,1,0,0)" clip-path="url(#_952036653490839clip-1)"/><rect x="174.51" y="677.76" width="299" height="46" style="stroke-width: 0.5;stroke: rgb(0,0,0);stroke-opacity: 1.0;stroke-linecap: square;shape-rendering:geometricPrecision;; fill: none" transform="matrix(1,0,0,1,0,0)" clip-path="url(#_952036653490839clip-1)"/><g transform="matrix(1,0,0,1,0,0)"><text x="176.51" y="711.93" style="fill: rgb(0,0,0); fill-opacity: 1.0; font-family: sans-serif; font-size: 32px;" clip-path="url(#_952036653490839clip-1)">Passengers: 20,86%</text></g><g style="stroke-width: 0.5;stroke: rgb(0,0,0);stroke-opacity: 1.0;stroke-linecap: square;shape-rendering:geometricPrecision;; fill: none" transform="matrix(1,0,0,1,0,0)" clip-path="url(#_952036653490839clip-1)"><path d="M 483.49 918.16 C 519.84 926.26 729.96 926.26 763.32 871.85"/></g><rect x="298.49" y="897.16" width="187" height="46" style="fill: rgb(151,151,151); fill-opacity: 0.5019608" transform="matrix(1,0,0,1,0,0)" clip-path="url(#_952036653490839clip-1)"/><rect x="296.49" y="895.16" width="187" height="46" style="fill: rgb(255,255,192); fill-opacity: 1.0" transform="matrix(1,0,0,1,0,0)" clip-path="url(#_952036653490839clip-1)"/><rect x="296.49" y="895.16" width="187" height="46" style="stroke-width: 0.5;stroke: rgb(0,0,0);stroke-opacity: 1.0;stroke-linecap: square;shape-rendering:geometricPrecision;; fill: none" transform="matrix(1,0,0,1,0,0)" clip-path="url(#_952036653490839clip-1)"/><g transform="matrix(1,0,0,1,0,0)"><text x="298.49" y="929.33" style="fill: rgb(0,0,0); fill-opacity: 1.0; font-family: sans-serif; font-size: 32px;" clip-path="url(#_952036653490839clip-1)">Crew: 0,58%</text></g><g style="stroke-width: 0.5;stroke: rgb(0,0,0);stroke-opacity: 1.0;stroke-linecap: square;shape-rendering:geometricPrecision;; fill: none" transform="matrix(1,0,0,1,0,0)" clip-path="url(#_952036653490839clip-1)"><path d="M 485.84 968.16 C 519.84 949.59 773.26 949.59 800.34 891.79"/></g><rect x="147.84" y="947.16" width="340" height="46" style="fill: rgb(151,151,151); fill-opacity: 0.5019608" transform="matrix(1,0,0,1,0,0)" clip-path="url(#_952036653490839clip-1)"/><rect x="145.84" y="945.16" width="340" height="46" style="fill: rgb(255,255,192); fill-opacity: 1.0" transform="matrix(1,0,0,1,0,0)" clip-path="url(#_952036653490839clip-1)"/><rect x="145.84" y="945.16" width="340" height="46" style="stroke-width: 0.5;stroke: rgb(0,0,0);stroke-opacity: 1.0;stroke-linecap: square;shape-rendering:geometricPrecision;; fill: none" transform="matrix(1,0,0,1,0,0)" clip-path="url(#_952036653490839clip-1)"/><g transform="matrix(1,0,0,1,0,0)"><text x="147.84" y="979.33" style="fill: rgb(0,0,0); fill-opacity: 1.0; font-family: sans-serif; font-size: 32px;" clip-path="url(#_952036653490839clip-1)">Operating Items: 2,97%</text></g><g style="stroke-width: 0.5;stroke: rgb(0,0,0);stroke-opacity: 1.0;stroke-linecap: square;shape-rendering:geometricPrecision;; fill: none" transform="matrix(1,0,0,1,0,0)" clip-path="url(#_952036653490839clip-1)"><path d="M 1433.32 145.47 C 1400.16 145.47 1131.14 145.47 1106.33 204.28"/></g><rect x="1435.32" y="124.47" width="262" height="46" style="fill: rgb(151,151,151); fill-opacity: 0.5019608" transform="matrix(1,0,0,1,0,0)" clip-path="url(#_952036653490839clip-1)"/><rect x="1433.32" y="122.47" width="262" height="46" style="fill: rgb(255,255,192); fill-opacity: 1.0" transform="matrix(1,0,0,1,0,0)" clip-path="url(#_952036653490839clip-1)"/><rect x="1433.32" y="122.47" width="262" height="46" style="stroke-width: 0.5;stroke: rgb(0,0,0);stroke-opacity: 1.0;stroke-linecap: square;shape-rendering:geometricPrecision;; fill: none" transform="matrix(1,0,0,1,0,0)" clip-path="url(#_952036653490839clip-1)"/><g transform="matrix(1,0,0,1,0,0)"><text x="1435.32" y="156.65" style="fill: rgb(0,0,0); fill-opacity: 1.0; font-family: sans-serif; font-size: 32px;" clip-path="url(#_952036653490839clip-1)">Fuselage: 12,71%</text></g><g style="stroke-width: 0.5;stroke: rgb(0,0,0);stroke-opacity: 1.0;stroke-linecap: square;shape-rendering:geometricPrecision;; fill: none" transform="matrix(1,0,0,1,0,0)" clip-path="url(#_952036653490839clip-1)"><path d="M 1445.75 368.23 C 1400.16 368.23 1360.42 368.23 1302.36 394.73"/></g><rect x="1447.75" y="347.23" width="203" height="46" style="fill: rgb(151,151,151); fill-opacity: 0.5019608" transform="matrix(1,0,0,1,0,0)" clip-path="url(#_952036653490839clip-1)"/><rect x="1445.75" y="345.23" width="203" height="46" style="fill: rgb(255,255,192); fill-opacity: 1.0" transform="matrix(1,0,0,1,0,0)" clip-path="url(#_952036653490839clip-1)"/><rect x="1445.75" y="345.23" width="203" height="46" style="stroke-width: 0.5;stroke: rgb(0,0,0);stroke-opacity: 1.0;stroke-linecap: square;shape-rendering:geometricPrecision;; fill: none" transform="matrix(1,0,0,1,0,0)" clip-path="url(#_952036653490839clip-1)"/><g transform="matrix(1,0,0,1,0,0)"><text x="1447.75" y="379.4" style="fill: rgb(0,0,0); fill-opacity: 1.0; font-family: sans-serif; font-size: 32px;" clip-path="url(#_952036653490839clip-1)">Wing: 10,95%</text></g><g style="stroke-width: 0.5;stroke: rgb(0,0,0);stroke-opacity: 1.0;stroke-linecap: square;shape-rendering:geometricPrecision;; fill: none" transform="matrix(1,0,0,1,0,0)" clip-path="url(#_952036653490839clip-1)"><path d="M 1447.88 530.29 C 1400.16 530.29 1399.67 530.29 1335.92 533.3"/></g><rect x="1449.88" y="509.29" width="317" height="46" style="fill: rgb(151,151,151); fill-opacity: 0.5019608" transform="matrix(1,0,0,1,0,0)" clip-path="url(#_952036653490839clip-1)"/><rect x="1447.88" y="507.29" width="317" height="46" style="fill: rgb(255,255,192); fill-opacity: 1.0" transform="matrix(1,0,0,1,0,0)" clip-path="url(#_952036653490839clip-1)"/><rect x="1447.88" y="507.29" width="317" height="46" style="stroke-width: 0.5;stroke: rgb(0,0,0);stroke-opacity: 1.0;stroke-linecap: square;shape-rendering:geometricPrecision;; fill: none" transform="matrix(1,0,0,1,0,0)" clip-path="url(#_952036653490839clip-1)"/><g transform="matrix(1,0,0,1,0,0)"><text x="1449.88" y="541.47" style="fill: rgb(0,0,0); fill-opacity: 1.0; font-family: sans-serif; font-size: 32px;" clip-path="url(#_952036653490839clip-1)">Horizontal Tail: 1,19%</text></g><g style="stroke-width: 0.5;stroke: rgb(0,0,0);stroke-opacity: 1.0;stroke-linecap: square;shape-rendering:geometricPrecision;; fill: none" transform="matrix(1,0,0,1,0,0)" clip-path="url(#_952036653490839clip-1)"><path d="M 1447.9 580.29 C 1400.16 560.65 1400.05 560.65 1336.25 559.25"/></g><rect x="1449.9" y="559.29" width="280" height="46" style="fill: rgb(151,151,151); fill-opacity: 0.5019608" transform="matrix(1,0,0,1,0,0)" clip-path="url(#_952036653490839clip-1)"/><rect x="1447.9" y="557.29" width="280" height="46" style="fill: rgb(255,255,192); fill-opacity: 1.0" transform="matrix(1,0,0,1,0,0)" clip-path="url(#_952036653490839clip-1)"/><rect x="1447.9" y="557.29" width="280" height="46" style="stroke-width: 0.5;stroke: rgb(0,0,0);stroke-opacity: 1.0;stroke-linecap: square;shape-rendering:geometricPrecision;; fill: none" transform="matrix(1,0,0,1,0,0)" clip-path="url(#_952036653490839clip-1)"/><g transform="matrix(1,0,0,1,0,0)"><text x="1449.9" y="591.47" style="fill: rgb(0,0,0); fill-opacity: 1.0; font-family: sans-serif; font-size: 32px;" clip-path="url(#_952036653490839clip-1)">Vertical Tail: 1,01%</text></g><g style="stroke-width: 0.5;stroke: rgb(0,0,0);stroke-opacity: 1.0;stroke-linecap: square;shape-rendering:geometricPrecision;; fill: none" transform="matrix(1,0,0,1,0,0)" clip-path="url(#_952036653490839clip-1)"><path d="M 1447.49 632.94 C 1400.16 632.94 1392.47 632.94 1329.76 621.06"/></g><rect x="1449.49" y="611.94" width="235" height="46" style="fill: rgb(151,151,151); fill-opacity: 0.5019608" transform="matrix(1,0,0,1,0,0)" clip-path="url(#_952036653490839clip-1)"/><rect x="1447.49" y="609.94" width="235" height="46" style="fill: rgb(255,255,192); fill-opacity: 1.0" transform="matrix(1,0,0,1,0,0)" clip-path="url(#_952036653490839clip-1)"/><rect x="1447.49" y="609.94" width="235" height="46" style="stroke-width: 0.5;stroke: rgb(0,0,0);stroke-opacity: 1.0;stroke-linecap: square;shape-rendering:geometricPrecision;; fill: none" transform="matrix(1,0,0,1,0,0)" clip-path="url(#_952036653490839clip-1)"/><g transform="matrix(1,0,0,1,0,0)"><text x="1449.49" y="644.11" style="fill: rgb(0,0,0); fill-opacity: 1.0; font-family: sans-serif; font-size: 32px;" clip-path="url(#_952036653490839clip-1)">Nacelles: 4,25%</text></g><g style="stroke-width: 0.5;stroke: rgb(0,0,0);stroke-opacity: 1.0;stroke-linecap: square;shape-rendering:geometricPrecision;; fill: none" transform="matrix(1,0,0,1,0,0)" clip-path="url(#_952036653490839clip-1)"><path d="M 1445.9 727.83 C 1400.16 727.83 1363.08 727.83 1304.63 702.19"/></g><rect x="1447.9" y="706.83" width="322" height="46" style="fill: rgb(151,151,151); fill-opacity: 0.5019608" transform="matrix(1,0,0,1,0,0)" clip-path="url(#_952036653490839clip-1)"/><rect x="1445.9" y="704.83" width="322" height="46" style="fill: rgb(255,255,192); fill-opacity: 1.0" transform="matrix(1,0,0,1,0,0)" clip-path="url(#_952036653490839clip-1)"/><rect x="1445.9" y="704.83" width="322" height="46" style="stroke-width: 0.5;stroke: rgb(0,0,0);stroke-opacity: 1.0;stroke-linecap: square;shape-rendering:geometricPrecision;; fill: none" transform="matrix(1,0,0,1,0,0)" clip-path="url(#_952036653490839clip-1)"/><g transform="matrix(1,0,0,1,0,0)"><text x="1447.9" y="739" style="fill: rgb(0,0,0); fill-opacity: 1.0; font-family: sans-serif; font-size: 32px;" clip-path="url(#_952036653490839clip-1)">Landing Gears: 2,95%</text></g><g style="stroke-width: 0.5;stroke: rgb(0,0,0);stroke-opacity: 1.0;stroke-linecap: square;shape-rendering:geometricPrecision;; fill: none" transform="matrix(1,0,0,1,0,0)" clip-path="url(#_952036653490839clip-1)"><path d="M 1440.4 871.54 C 1400.16 871.54 1261.65 871.54 1217.91 825.06"/></g><rect x="1442.4" y="850.54" width="285" height="46" style="fill: rgb(151,151,151); fill-opacity: 0.5019608" transform="matrix(1,0,0,1,0,0)" clip-path="url(#_952036653490839clip-1)"/><rect x="1440.4" y="848.54" width="285" height="46" style="fill: rgb(255,255,192); fill-opacity: 1.0" transform="matrix(1,0,0,1,0,0)" clip-path="url(#_952036653490839clip-1)"/><rect x="1440.4" y="848.54" width="285" height="46" style="stroke-width: 0.5;stroke: rgb(0,0,0);stroke-opacity: 1.0;stroke-linecap: square;shape-rendering:geometricPrecision;; fill: none" transform="matrix(1,0,0,1,0,0)" clip-path="url(#_952036653490839clip-1)"/><g transform="matrix(1,0,0,1,0,0)"><text x="1442.4" y="882.71" style="fill: rgb(0,0,0); fill-opacity: 1.0; font-family: sans-serif; font-size: 32px;" clip-path="url(#_952036653490839clip-1)">Power Plant: 9,86%</text></g><g style="stroke-width: 0.5;stroke: rgb(0,0,0);stroke-opacity: 1.0;stroke-linecap: square;shape-rendering:geometricPrecision;; fill: none" transform="matrix(1,0,0,1,0,0)" clip-path="url(#_952036653490839clip-1)"><path d="M 1425.24 990.6 C 1400.16 990.6 982.13 990.6 978.93 926.86"/></g><rect x="1427.24" y="969.6" width="253" height="46" style="fill: rgb(151,151,151); fill-opacity: 0.5019608" transform="matrix(1,0,0,1,0,0)" clip-path="url(#_952036653490839clip-1)"/><rect x="1425.24" y="967.6" width="253" height="46" style="fill: rgb(255,255,192); fill-opacity: 1.0" transform="matrix(1,0,0,1,0,0)" clip-path="url(#_952036653490839clip-1)"/><rect x="1425.24" y="967.6" width="253" height="46" style="stroke-width: 0.5;stroke: rgb(0,0,0);stroke-opacity: 1.0;stroke-linecap: square;shape-rendering:geometricPrecision;; fill: none" transform="matrix(1,0,0,1,0,0)" clip-path="url(#_952036653490839clip-1)"/><g transform="matrix(1,0,0,1,0,0)"><text x="1427.24" y="1001.77" style="fill: rgb(0,0,0); fill-opacity: 1.0; font-family: sans-serif; font-size: 32px;" clip-path="url(#_952036653490839clip-1)">Systems: 12,57%</text></g><rect x="5" y="27" width="1910" height="1048" style="stroke-width: 0.5;stroke: rgb(0,0,0);stroke-opacity: 1.0;stroke-linecap: round;stroke-linejoin: round;shape-rendering:crispEdges;; fill: none" transform="matrix(1,0,0,1,0,0)" clip-path="url(#_952036653490839clip-0)"/></svg>
