<!DOCTYPE svg PUBLIC "-//W3C//DTD SVG 1.1//EN" "http://www.w3.org/Graphics/SVG/1.1/DTD/svg11.dtd">
<svg xmlns="http://www.w3.org/2000/svg" xmlns:xlink="http://www.w3.org/1999/xlink" xmlns:jfreesvg="http://www.jfree.org/jfreesvg/svg" width="1920" height="1080" text-rendering="auto" shape-rendering="auto">
<defs><clipPath id="_1983506079417765clip-0"><path d="M 0 0 L 1920 0 L 1920 1080 L 0 1080 L 0 0 Z "/></clipPath>
<clipPath id="_1983506079417765clip-1"><path d="M 5 27 L 5 1075 L 1915 1075 L 1915 27 Z "/></clipPath>
</defs>
<rect x="0" y="0" width="1920" height="1080" style="fill: rgb(255,255,255); fill-opacity: 1.0" transform="matrix(1,0,0,1,0,0)" clip-path="url(#_1983506079417765clip-0)"/><g transform="matrix(1,0,0,1,0,0)"><text x="859" y="21.01" style="fill: rgb(0,0,0); fill-opacity: 1.0; font-family: Tahoma; font-size: 20px; font-weight: bold;" clip-path="url(#_1983506079417765clip-0)">Weights Breakdown</text></g><rect x="5" y="27" width="1910" height="1048" style="fill: rgb(255,255,255); fill-opacity: 0.0" transform="matrix(1,0,0,1,0,0)" clip-path="url(#_1983506079417765clip-0)"/><rect x="5" y="27" width="1910" height="1048" style="stroke-width: 0.5;stroke: rgb(0,0,0);stroke-opacity: 1.0;stroke-linecap: round;stroke-linejoin: round;shape-rendering:crispEdges;; fill: none" transform="matrix(1,0,0,1,0,0)" clip-path="url(#_1983506079417765clip-0)"/><g style="fill: rgb(128,128,128); fill-opacity: 1.0; stroke: none" transform="matrix(1,0,0,1,0,0)" clip-path="url(#_1983506079417765clip-1)"><path d="M 964 136.85 C 1064.46 136.85 1161.57 173.02 1237.55 238.74 L 964 555 Z "/></g><g style="fill: rgb(128,128,128); fill-opacity: 1.0; stroke: none" transform="matrix(1,0,0,1,0,0)" clip-path="url(#_1983506079417765clip-1)"><path d="M 1237.55 238.74 C 1304.3 296.47 1351.07 373.84 1371.16 459.77 L 964 555 Z "/></g><g style="fill: rgb(128,128,128); fill-opacity: 1.0; stroke: none" transform="matrix(1,0,0,1,0,0)" clip-path="url(#_1983506079417765clip-1)"><path d="M 1371.16 459.77 C 1373.37 469.22 1375.25 478.75 1376.8 488.33 L 964 555 Z "/></g><g style="fill: rgb(128,128,128); fill-opacity: 1.0; stroke: none" transform="matrix(1,0,0,1,0,0)" clip-path="url(#_1983506079417765clip-1)"><path d="M 1376.8 488.33 C 1378.11 496.42 1379.18 504.56 1380.01 512.71 L 964 555 Z "/></g><g style="fill: rgb(128,128,128); fill-opacity: 1.0; stroke: none" transform="matrix(1,0,0,1,0,0)" clip-path="url(#_1983506079417765clip-1)"><path d="M 1380.01 512.71 C 1381.72 529.57 1382.41 546.51 1382.07 563.45 L 964 555 Z "/></g><g style="fill: rgb(128,128,128); fill-opacity: 1.0; stroke: none" transform="matrix(1,0,0,1,0,0)" clip-path="url(#_1983506079417765clip-1)"><path d="M 1382.07 563.45 C 1381.44 594.68 1377.31 625.74 1369.76 656.05 L 964 555 Z "/></g><g style="fill: rgb(128,128,128); fill-opacity: 1.0; stroke: none" transform="matrix(1,0,0,1,0,0)" clip-path="url(#_1983506079417765clip-1)"><path d="M 1369.76 656.05 C 1350.64 732.82 1310.13 802.6 1252.94 857.26 L 964 555 Z "/></g><g style="fill: rgb(128,128,128); fill-opacity: 1.0; stroke: none" transform="matrix(1,0,0,1,0,0)" clip-path="url(#_1983506079417765clip-1)"><path d="M 1252.94 857.26 C 1179.39 927.57 1082.73 968.65 981.06 972.8 L 964 555 Z "/></g><g style="fill: rgb(128,128,128); fill-opacity: 1.0; stroke: none" transform="matrix(1,0,0,1,0,0)" clip-path="url(#_1983506079417765clip-1)"><path d="M 981.06 972.8 C 955.53 973.85 929.96 972.55 904.67 968.92 L 964 555 Z "/></g><g style="fill: rgb(128,128,128); fill-opacity: 1.0; stroke: none" transform="matrix(1,0,0,1,0,0)" clip-path="url(#_1983506079417765clip-1)"><path d="M 904.67 968.92 C 899.13 968.13 893.61 967.22 888.11 966.21 L 964 555 Z "/></g><g style="fill: rgb(128,128,128); fill-opacity: 1.0; stroke: none" transform="matrix(1,0,0,1,0,0)" clip-path="url(#_1983506079417765clip-1)"><path d="M 888.11 966.21 C 665.63 925.15 516.16 714.59 550.77 491.02 L 964 555 Z "/></g><g style="fill: rgb(128,128,128); fill-opacity: 1.0; stroke: none" transform="matrix(1,0,0,1,0,0)" clip-path="url(#_1983506079417765clip-1)"><path d="M 550.77 491.02 C 582.33 287.21 757.76 136.85 964 136.85 L 964 555 Z "/></g><g style="fill: rgb(255,85,85); fill-opacity: 1.0; stroke: none" transform="matrix(1,0,0,1,0,0)" clip-path="url(#_1983506079417765clip-1)"><path d="M 960 132.85 C 1060.46 132.85 1157.57 169.02 1233.55 234.74 L 960 551 Z "/></g><g style="stroke-width: 0.5;stroke: rgb(128,128,128);stroke-opacity: 1.0;stroke-linecap: round;stroke-linejoin: round;shape-rendering:geometricPrecision;; fill: none" transform="matrix(1,0,0,1,0,0)" clip-path="url(#_1983506079417765clip-1)"><path d="M 960 132.85 C 1060.46 132.85 1157.57 169.02 1233.55 234.74 L 960 551 Z "/></g><g style="fill: rgb(85,85,255); fill-opacity: 1.0; stroke: none" transform="matrix(1,0,0,1,0,0)" clip-path="url(#_1983506079417765clip-1)"><path d="M 1233.55 234.74 C 1300.3 292.47 1347.07 369.84 1367.16 455.77 L 960 551 Z "/></g><g style="stroke-width: 0.5;stroke: rgb(128,128,128);stroke-opacity: 1.0;stroke-linecap: round;stroke-linejoin: round;shape-rendering:geometricPrecision;; fill: none" transform="matrix(1,0,0,1,0,0)" clip-path="url(#_1983506079417765clip-1)"><path d="M 1233.55 234.74 C 1300.3 292.47 1347.07 369.84 1367.16 455.77 L 960 551 Z "/></g><g style="fill: rgb(85,255,85); fill-opacity: 1.0; stroke: none" transform="matrix(1,0,0,1,0,0)" clip-path="url(#_1983506079417765clip-1)"><path d="M 1367.16 455.77 C 1369.37 465.22 1371.25 474.75 1372.8 484.33 L 960 551 Z "/></g><g style="stroke-width: 0.5;stroke: rgb(128,128,128);stroke-opacity: 1.0;stroke-linecap: round;stroke-linejoin: round;shape-rendering:geometricPrecision;; fill: none" transform="matrix(1,0,0,1,0,0)" clip-path="url(#_1983506079417765clip-1)"><path d="M 1367.16 455.77 C 1369.37 465.22 1371.25 474.75 1372.8 484.33 L 960 551 Z "/></g><g style="fill: rgb(255,255,85); fill-opacity: 1.0; stroke: none" transform="matrix(1,0,0,1,0,0)" clip-path="url(#_1983506079417765clip-1)"><path d="M 1372.8 484.33 C 1374.11 492.42 1375.18 500.56 1376.01 508.71 L 960 551 Z "/></g><g style="stroke-width: 0.5;stroke: rgb(128,128,128);stroke-opacity: 1.0;stroke-linecap: round;stroke-linejoin: round;shape-rendering:geometricPrecision;; fill: none" transform="matrix(1,0,0,1,0,0)" clip-path="url(#_1983506079417765clip-1)"><path d="M 1372.8 484.33 C 1374.11 492.42 1375.18 500.56 1376.01 508.71 L 960 551 Z "/></g><g style="fill: rgb(255,85,255); fill-opacity: 1.0; stroke: none" transform="matrix(1,0,0,1,0,0)" clip-path="url(#_1983506079417765clip-1)"><path d="M 1376.01 508.71 C 1377.72 525.57 1378.41 542.51 1378.07 559.45 L 960 551 Z "/></g><g style="stroke-width: 0.5;stroke: rgb(128,128,128);stroke-opacity: 1.0;stroke-linecap: round;stroke-linejoin: round;shape-rendering:geometricPrecision;; fill: none" transform="matrix(1,0,0,1,0,0)" clip-path="url(#_1983506079417765clip-1)"><path d="M 1376.01 508.71 C 1377.72 525.57 1378.41 542.51 1378.07 559.45 L 960 551 Z "/></g><g style="fill: rgb(85,255,255); fill-opacity: 1.0; stroke: none" transform="matrix(1,0,0,1,0,0)" clip-path="url(#_1983506079417765clip-1)"><path d="M 1378.07 559.45 C 1377.44 590.68 1373.31 621.74 1365.76 652.05 L 960 551 Z "/></g><g style="stroke-width: 0.5;stroke: rgb(128,128,128);stroke-opacity: 1.0;stroke-linecap: round;stroke-linejoin: round;shape-rendering:geometricPrecision;; fill: none" transform="matrix(1,0,0,1,0,0)" clip-path="url(#_1983506079417765clip-1)"><path d="M 1378.07 559.45 C 1377.44 590.68 1373.31 621.74 1365.76 652.05 L 960 551 Z "/></g><g style="fill: rgb(255,175,175); fill-opacity: 1.0; stroke: none" transform="matrix(1,0,0,1,0,0)" clip-path="url(#_1983506079417765clip-1)"><path d="M 1365.76 652.05 C 1346.64 728.82 1306.13 798.6 1248.94 853.26 L 960 551 Z "/></g><g style="stroke-width: 0.5;stroke: rgb(128,128,128);stroke-opacity: 1.0;stroke-linecap: round;stroke-linejoin: round;shape-rendering:geometricPrecision;; fill: none" transform="matrix(1,0,0,1,0,0)" clip-path="url(#_1983506079417765clip-1)"><path d="M 1365.76 652.05 C 1346.64 728.82 1306.13 798.6 1248.94 853.26 L 960 551 Z "/></g><g style="fill: rgb(128,128,128); fill-opacity: 1.0; stroke: none" transform="matrix(1,0,0,1,0,0)" clip-path="url(#_1983506079417765clip-1)"><path d="M 1248.94 853.26 C 1175.39 923.57 1078.73 964.65 977.06 968.8 L 960 551 Z "/></g><g style="stroke-width: 0.5;stroke: rgb(128,128,128);stroke-opacity: 1.0;stroke-linecap: round;stroke-linejoin: round;shape-rendering:geometricPrecision;; fill: none" transform="matrix(1,0,0,1,0,0)" clip-path="url(#_1983506079417765clip-1)"><path d="M 1248.94 853.26 C 1175.39 923.57 1078.73 964.65 977.06 968.8 L 960 551 Z "/></g><g style="fill: rgb(192,0,0); fill-opacity: 1.0; stroke: none" transform="matrix(1,0,0,1,0,0)" clip-path="url(#_1983506079417765clip-1)"><path d="M 977.06 968.8 C 951.53 969.85 925.96 968.55 900.67 964.92 L 960 551 Z "/></g><g style="stroke-width: 0.5;stroke: rgb(128,128,128);stroke-opacity: 1.0;stroke-linecap: round;stroke-linejoin: round;shape-rendering:geometricPrecision;; fill: none" transform="matrix(1,0,0,1,0,0)" clip-path="url(#_1983506079417765clip-1)"><path d="M 977.06 968.8 C 951.53 969.85 925.96 968.55 900.67 964.92 L 960 551 Z "/></g><g style="fill: rgb(0,0,192); fill-opacity: 1.0; stroke: none" transform="matrix(1,0,0,1,0,0)" clip-path="url(#_1983506079417765clip-1)"><path d="M 900.67 964.92 C 895.13 964.13 889.61 963.22 884.11 962.21 L 960 551 Z "/></g><g style="stroke-width: 0.5;stroke: rgb(128,128,128);stroke-opacity: 1.0;stroke-linecap: round;stroke-linejoin: round;shape-rendering:geometricPrecision;; fill: none" transform="matrix(1,0,0,1,0,0)" clip-path="url(#_1983506079417765clip-1)"><path d="M 900.67 964.92 C 895.13 964.13 889.61 963.22 884.11 962.21 L 960 551 Z "/></g><g style="fill: rgb(0,192,0); fill-opacity: 1.0; stroke: none" transform="matrix(1,0,0,1,0,0)" clip-path="url(#_1983506079417765clip-1)"><path d="M 884.11 962.21 C 661.63 921.15 512.16 710.59 546.77 487.02 L 960 551 Z "/></g><g style="stroke-width: 0.5;stroke: rgb(128,128,128);stroke-opacity: 1.0;stroke-linecap: round;stroke-linejoin: round;shape-rendering:geometricPrecision;; fill: none" transform="matrix(1,0,0,1,0,0)" clip-path="url(#_1983506079417765clip-1)"><path d="M 884.11 962.21 C 661.63 921.15 512.16 710.59 546.77 487.02 L 960 551 Z "/></g><g style="fill: rgb(192,192,0); fill-opacity: 1.0; stroke: none" transform="matrix(1,0,0,1,0,0)" clip-path="url(#_1983506079417765clip-1)"><path d="M 546.77 487.02 C 578.33 283.21 753.76 132.85 960 132.85 L 960 551 Z "/></g><g style="stroke-width: 0.5;stroke: rgb(128,128,128);stroke-opacity: 1.0;stroke-linecap: round;stroke-linejoin: round;shape-rendering:geometricPrecision;; fill: none" transform="matrix(1,0,0,1,0,0)" clip-path="url(#_1983506079417765clip-1)"><path d="M 546.77 487.02 C 578.33 283.21 753.76 132.85 960 132.85 L 960 551 Z "/></g><g style="stroke-width: 0.5;stroke: rgb(0,0,0);stroke-opacity: 1.0;stroke-linecap: square;shape-rendering:geometricPrecision;; fill: none" transform="matrix(1,0,0,1,0,0)" clip-path="url(#_1983506079417765clip-1)"><path d="M 480.43 216.8 C 519.84 216.8 673.56 216.8 715.09 265.26"/></g><rect x="289.43" y="195.8" width="193" height="46" style="fill: rgb(151,151,151); fill-opacity: 0.5019608" transform="matrix(1,0,0,1,0,0)" clip-path="url(#_1983506079417765clip-1)"/><rect x="287.43" y="193.8" width="193" height="46" style="fill: rgb(255,255,192); fill-opacity: 1.0" transform="matrix(1,0,0,1,0,0)" clip-path="url(#_1983506079417765clip-1)"/><rect x="287.43" y="193.8" width="193" height="46" style="stroke-width: 0.5;stroke: rgb(0,0,0);stroke-opacity: 1.0;stroke-linecap: square;shape-rendering:geometricPrecision;; fill: none" transform="matrix(1,0,0,1,0,0)" clip-path="url(#_1983506079417765clip-1)"/><g transform="matrix(1,0,0,1,0,0)"><text x="289.43" y="227.97" style="fill: rgb(0,0,0); fill-opacity: 1.0; font-family: sans-serif; font-size: 32px;" clip-path="url(#_1983506079417765clip-1)">Fuel: 22,56%</text></g><g style="stroke-width: 0.5;stroke: rgb(0,0,0);stroke-opacity: 1.0;stroke-linecap: square;shape-rendering:geometricPrecision;; fill: none" transform="matrix(1,0,0,1,0,0)" clip-path="url(#_1983506079417765clip-1)"><path d="M 476.5 805.8 C 519.84 805.8 601.09 805.8 653.13 768.85"/></g><rect x="179.5" y="784.8" width="299" height="46" style="fill: rgb(151,151,151); fill-opacity: 0.5019608" transform="matrix(1,0,0,1,0,0)" clip-path="url(#_1983506079417765clip-1)"/><rect x="177.5" y="782.8" width="299" height="46" style="fill: rgb(255,255,192); fill-opacity: 1.0" transform="matrix(1,0,0,1,0,0)" clip-path="url(#_1983506079417765clip-1)"/><rect x="177.5" y="782.8" width="299" height="46" style="stroke-width: 0.5;stroke: rgb(0,0,0);stroke-opacity: 1.0;stroke-linecap: square;shape-rendering:geometricPrecision;; fill: none" transform="matrix(1,0,0,1,0,0)" clip-path="url(#_1983506079417765clip-1)"/><g transform="matrix(1,0,0,1,0,0)"><text x="179.5" y="816.97" style="fill: rgb(0,0,0); fill-opacity: 1.0; font-family: sans-serif; font-size: 32px;" clip-path="url(#_1983506079417765clip-1)">Passengers: 24,54%</text></g><g style="stroke-width: 0.5;stroke: rgb(0,0,0);stroke-opacity: 1.0;stroke-linecap: square;shape-rendering:geometricPrecision;; fill: none" transform="matrix(1,0,0,1,0,0)" clip-path="url(#_1983506079417765clip-1)"><path d="M 492.1 918.16 C 519.84 985.37 888.81 985.37 899.14 922.38"/></g><rect x="307.1" y="897.16" width="187" height="46" style="fill: rgb(151,151,151); fill-opacity: 0.5019608" transform="matrix(1,0,0,1,0,0)" clip-path="url(#_1983506079417765clip-1)"/><rect x="305.1" y="895.16" width="187" height="46" style="fill: rgb(255,255,192); fill-opacity: 1.0" transform="matrix(1,0,0,1,0,0)" clip-path="url(#_1983506079417765clip-1)"/><rect x="305.1" y="895.16" width="187" height="46" style="stroke-width: 0.5;stroke: rgb(0,0,0);stroke-opacity: 1.0;stroke-linecap: square;shape-rendering:geometricPrecision;; fill: none" transform="matrix(1,0,0,1,0,0)" clip-path="url(#_1983506079417765clip-1)"/><g transform="matrix(1,0,0,1,0,0)"><text x="307.1" y="929.33" style="fill: rgb(0,0,0); fill-opacity: 1.0; font-family: sans-serif; font-size: 32px;" clip-path="url(#_1983506079417765clip-1)">Crew: 0,64%</text></g><g style="stroke-width: 0.5;stroke: rgb(0,0,0);stroke-opacity: 1.0;stroke-linecap: square;shape-rendering:geometricPrecision;; fill: none" transform="matrix(1,0,0,1,0,0)" clip-path="url(#_1983506079417765clip-1)"><path d="M 494.75 968.16 C 519.84 990.59 937.66 990.59 940.9 926.85"/></g><rect x="156.75" y="947.16" width="340" height="46" style="fill: rgb(151,151,151); fill-opacity: 0.5019608" transform="matrix(1,0,0,1,0,0)" clip-path="url(#_1983506079417765clip-1)"/><rect x="154.75" y="945.16" width="340" height="46" style="fill: rgb(255,255,192); fill-opacity: 1.0" transform="matrix(1,0,0,1,0,0)" clip-path="url(#_1983506079417765clip-1)"/><rect x="154.75" y="945.16" width="340" height="46" style="stroke-width: 0.5;stroke: rgb(0,0,0);stroke-opacity: 1.0;stroke-linecap: square;shape-rendering:geometricPrecision;; fill: none" transform="matrix(1,0,0,1,0,0)" clip-path="url(#_1983506079417765clip-1)"/><g transform="matrix(1,0,0,1,0,0)"><text x="156.75" y="979.33" style="fill: rgb(0,0,0); fill-opacity: 1.0; font-family: sans-serif; font-size: 32px;" clip-path="url(#_1983506079417765clip-1)">Operating Items: 2,92%</text></g><g style="stroke-width: 0.5;stroke: rgb(0,0,0);stroke-opacity: 1.0;stroke-linecap: square;shape-rendering:geometricPrecision;; fill: none" transform="matrix(1,0,0,1,0,0)" clip-path="url(#_1983506079417765clip-1)"><path d="M 1432.37 138.52 C 1400.16 138.52 1113.64 138.52 1091.36 198.33"/></g><rect x="1434.37" y="117.52" width="262" height="46" style="fill: rgb(151,151,151); fill-opacity: 0.5019608" transform="matrix(1,0,0,1,0,0)" clip-path="url(#_1983506079417765clip-1)"/><rect x="1432.37" y="115.52" width="262" height="46" style="fill: rgb(255,255,192); fill-opacity: 1.0" transform="matrix(1,0,0,1,0,0)" clip-path="url(#_1983506079417765clip-1)"/><rect x="1432.37" y="115.52" width="262" height="46" style="stroke-width: 0.5;stroke: rgb(0,0,0);stroke-opacity: 1.0;stroke-linecap: square;shape-rendering:geometricPrecision;; fill: none" transform="matrix(1,0,0,1,0,0)" clip-path="url(#_1983506079417765clip-1)"/><g transform="matrix(1,0,0,1,0,0)"><text x="1434.37" y="149.7" style="fill: rgb(0,0,0); fill-opacity: 1.0; font-family: sans-serif; font-size: 32px;" clip-path="url(#_1983506079417765clip-1)">Fuselage: 11,35%</text></g><g style="stroke-width: 0.5;stroke: rgb(0,0,0);stroke-opacity: 1.0;stroke-linecap: square;shape-rendering:geometricPrecision;; fill: none" transform="matrix(1,0,0,1,0,0)" clip-path="url(#_1983506079417765clip-1)"><path d="M 1444.47 323.29 C 1400.16 323.29 1336.68 323.29 1282.06 356.31"/></g><rect x="1446.47" y="302.29" width="185" height="46" style="fill: rgb(151,151,151); fill-opacity: 0.5019608" transform="matrix(1,0,0,1,0,0)" clip-path="url(#_1983506079417765clip-1)"/><rect x="1444.47" y="300.29" width="185" height="46" style="fill: rgb(255,255,192); fill-opacity: 1.0" transform="matrix(1,0,0,1,0,0)" clip-path="url(#_1983506079417765clip-1)"/><rect x="1444.47" y="300.29" width="185" height="46" style="stroke-width: 0.5;stroke: rgb(0,0,0);stroke-opacity: 1.0;stroke-linecap: square;shape-rendering:geometricPrecision;; fill: none" transform="matrix(1,0,0,1,0,0)" clip-path="url(#_1983506079417765clip-1)"/><g transform="matrix(1,0,0,1,0,0)"><text x="1446.47" y="334.47" style="fill: rgb(0,0,0); fill-opacity: 1.0; font-family: sans-serif; font-size: 32px;" clip-path="url(#_1983506079417765clip-1)">Wing: 9,99%</text></g><g style="stroke-width: 0.5;stroke: rgb(0,0,0);stroke-opacity: 1.0;stroke-linecap: square;shape-rendering:geometricPrecision;; fill: none" transform="matrix(1,0,0,1,0,0)" clip-path="url(#_1983506079417765clip-1)"><path d="M 1447.46 465.74 C 1400.16 465.74 1391.82 465.74 1329.21 478.1"/></g><rect x="1449.46" y="444.74" width="317" height="46" style="fill: rgb(151,151,151); fill-opacity: 0.5019608" transform="matrix(1,0,0,1,0,0)" clip-path="url(#_1983506079417765clip-1)"/><rect x="1447.46" y="442.74" width="317" height="46" style="fill: rgb(255,255,192); fill-opacity: 1.0" transform="matrix(1,0,0,1,0,0)" clip-path="url(#_1983506079417765clip-1)"/><rect x="1447.46" y="442.74" width="317" height="46" style="stroke-width: 0.5;stroke: rgb(0,0,0);stroke-opacity: 1.0;stroke-linecap: square;shape-rendering:geometricPrecision;; fill: none" transform="matrix(1,0,0,1,0,0)" clip-path="url(#_1983506079417765clip-1)"/><g transform="matrix(1,0,0,1,0,0)"><text x="1449.46" y="476.91" style="fill: rgb(0,0,0); fill-opacity: 1.0; font-family: sans-serif; font-size: 32px;" clip-path="url(#_1983506079417765clip-1)">Horizontal Tail: 1,11%</text></g><g style="stroke-width: 0.5;stroke: rgb(0,0,0);stroke-opacity: 1.0;stroke-linecap: square;shape-rendering:geometricPrecision;; fill: none" transform="matrix(1,0,0,1,0,0)" clip-path="url(#_1983506079417765clip-1)"><path d="M 1447.71 515.74 C 1400.16 493.63 1396.41 493.63 1333.13 501.95"/></g><rect x="1449.71" y="494.74" width="280" height="46" style="fill: rgb(151,151,151); fill-opacity: 0.5019608" transform="matrix(1,0,0,1,0,0)" clip-path="url(#_1983506079417765clip-1)"/><rect x="1447.71" y="492.74" width="280" height="46" style="fill: rgb(255,255,192); fill-opacity: 1.0" transform="matrix(1,0,0,1,0,0)" clip-path="url(#_1983506079417765clip-1)"/><rect x="1447.71" y="492.74" width="280" height="46" style="stroke-width: 0.5;stroke: rgb(0,0,0);stroke-opacity: 1.0;stroke-linecap: square;shape-rendering:geometricPrecision;; fill: none" transform="matrix(1,0,0,1,0,0)" clip-path="url(#_1983506079417765clip-1)"/><g transform="matrix(1,0,0,1,0,0)"><text x="1449.71" y="526.91" style="fill: rgb(0,0,0); fill-opacity: 1.0; font-family: sans-serif; font-size: 32px;" clip-path="url(#_1983506079417765clip-1)">Vertical Tail: 0,94%</text></g><g style="stroke-width: 0.5;stroke: rgb(0,0,0);stroke-opacity: 1.0;stroke-linecap: square;shape-rendering:geometricPrecision;; fill: none" transform="matrix(1,0,0,1,0,0)" clip-path="url(#_1983506079417765clip-1)"><path d="M 1447.89 565.74 C 1400.16 533.16 1399.8 533.16 1336.03 535.74"/></g><rect x="1449.89" y="544.74" width="235" height="46" style="fill: rgb(151,151,151); fill-opacity: 0.5019608" transform="matrix(1,0,0,1,0,0)" clip-path="url(#_1983506079417765clip-1)"/><rect x="1447.89" y="542.74" width="235" height="46" style="fill: rgb(255,255,192); fill-opacity: 1.0" transform="matrix(1,0,0,1,0,0)" clip-path="url(#_1983506079417765clip-1)"/><rect x="1447.89" y="542.74" width="235" height="46" style="stroke-width: 0.5;stroke: rgb(0,0,0);stroke-opacity: 1.0;stroke-linecap: square;shape-rendering:geometricPrecision;; fill: none" transform="matrix(1,0,0,1,0,0)" clip-path="url(#_1983506079417765clip-1)"/><g transform="matrix(1,0,0,1,0,0)"><text x="1449.89" y="576.91" style="fill: rgb(0,0,0); fill-opacity: 1.0; font-family: sans-serif; font-size: 32px;" clip-path="url(#_1983506079417765clip-1)">Nacelles: 1,93%</text></g><g style="stroke-width: 0.5;stroke: rgb(0,0,0);stroke-opacity: 1.0;stroke-linecap: square;shape-rendering:geometricPrecision;; fill: none" transform="matrix(1,0,0,1,0,0)" clip-path="url(#_1983506079417765clip-1)"><path d="M 1447.7 615.74 C 1400.16 608.99 1396.32 608.99 1333.06 600.58"/></g><rect x="1449.7" y="594.74" width="322" height="46" style="fill: rgb(151,151,151); fill-opacity: 0.5019608" transform="matrix(1,0,0,1,0,0)" clip-path="url(#_1983506079417765clip-1)"/><rect x="1447.7" y="592.74" width="322" height="46" style="fill: rgb(255,255,192); fill-opacity: 1.0" transform="matrix(1,0,0,1,0,0)" clip-path="url(#_1983506079417765clip-1)"/><rect x="1447.7" y="592.74" width="322" height="46" style="stroke-width: 0.5;stroke: rgb(0,0,0);stroke-opacity: 1.0;stroke-linecap: square;shape-rendering:geometricPrecision;; fill: none" transform="matrix(1,0,0,1,0,0)" clip-path="url(#_1983506079417765clip-1)"/><g transform="matrix(1,0,0,1,0,0)"><text x="1449.7" y="626.91" style="fill: rgb(0,0,0); fill-opacity: 1.0; font-family: sans-serif; font-size: 32px;" clip-path="url(#_1983506079417765clip-1)">Landing Gears: 3,56%</text></g><g style="stroke-width: 0.5;stroke: rgb(0,0,0);stroke-opacity: 1.0;stroke-linecap: square;shape-rendering:geometricPrecision;; fill: none" transform="matrix(1,0,0,1,0,0)" clip-path="url(#_1983506079417765clip-1)"><path d="M 1444.68 772 C 1400.16 772 1340.66 772 1285.46 739.95"/></g><rect x="1446.68" y="751" width="285" height="46" style="fill: rgb(151,151,151); fill-opacity: 0.5019608" transform="matrix(1,0,0,1,0,0)" clip-path="url(#_1983506079417765clip-1)"/><rect x="1444.68" y="749" width="285" height="46" style="fill: rgb(255,255,192); fill-opacity: 1.0" transform="matrix(1,0,0,1,0,0)" clip-path="url(#_1983506079417765clip-1)"/><rect x="1444.68" y="749" width="285" height="46" style="stroke-width: 0.5;stroke: rgb(0,0,0);stroke-opacity: 1.0;stroke-linecap: square;shape-rendering:geometricPrecision;; fill: none" transform="matrix(1,0,0,1,0,0)" clip-path="url(#_1983506079417765clip-1)"/><g transform="matrix(1,0,0,1,0,0)"><text x="1446.68" y="783.17" style="fill: rgb(0,0,0); fill-opacity: 1.0; font-family: sans-serif; font-size: 32px;" clip-path="url(#_1983506079417765clip-1)">Power Plant: 8,97%</text></g><g style="stroke-width: 0.5;stroke: rgb(0,0,0);stroke-opacity: 1.0;stroke-linecap: square;shape-rendering:geometricPrecision;; fill: none" transform="matrix(1,0,0,1,0,0)" clip-path="url(#_1983506079417765clip-1)"><path d="M 1433.37 956.1 C 1400.16 956.1 1132.15 956.1 1107.19 897.36"/></g><rect x="1435.37" y="935.1" width="253" height="46" style="fill: rgb(151,151,151); fill-opacity: 0.5019608" transform="matrix(1,0,0,1,0,0)" clip-path="url(#_1983506079417765clip-1)"/><rect x="1433.37" y="933.1" width="253" height="46" style="fill: rgb(255,255,192); fill-opacity: 1.0" transform="matrix(1,0,0,1,0,0)" clip-path="url(#_1983506079417765clip-1)"/><rect x="1433.37" y="933.1" width="253" height="46" style="stroke-width: 0.5;stroke: rgb(0,0,0);stroke-opacity: 1.0;stroke-linecap: square;shape-rendering:geometricPrecision;; fill: none" transform="matrix(1,0,0,1,0,0)" clip-path="url(#_1983506079417765clip-1)"/><g transform="matrix(1,0,0,1,0,0)"><text x="1435.37" y="967.27" style="fill: rgb(0,0,0); fill-opacity: 1.0; font-family: sans-serif; font-size: 32px;" clip-path="url(#_1983506079417765clip-1)">Systems: 11,49%</text></g><rect x="5" y="27" width="1910" height="1048" style="stroke-width: 0.5;stroke: rgb(0,0,0);stroke-opacity: 1.0;stroke-linecap: round;stroke-linejoin: round;shape-rendering:crispEdges;; fill: none" transform="matrix(1,0,0,1,0,0)" clip-path="url(#_1983506079417765clip-0)"/></svg>
