<!DOCTYPE svg PUBLIC "-//W3C//DTD SVG 1.1//EN" "http://www.w3.org/Graphics/SVG/1.1/DTD/svg11.dtd">
<svg xmlns="http://www.w3.org/2000/svg" xmlns:xlink="http://www.w3.org/1999/xlink" xmlns:jfreesvg="http://www.jfree.org/jfreesvg/svg" width="1920" height="1080" text-rendering="auto" shape-rendering="auto">
<defs><clipPath id="_4784029239466clip-0"><path d="M 0 0 L 1920 0 L 1920 1080 L 0 1080 L 0 0 Z "/></clipPath>
<clipPath id="_4784029239466clip-1"><path d="M 526.5 465.5 L 526.5 2385.5 L -553.5 2385.5 L -553.5 465.5 L 526.5 465.5 Z "/></clipPath>
<clipPath id="_4784029239466clip-2"><path d="M 128 35 L 128 957 L 1908 957 L 1908 35 Z "/></clipPath>
</defs>
<rect x="0" y="0" width="1920" height="1080" style="fill: rgb(255,255,255); fill-opacity: 1.0" transform="matrix(1,0,0,1,0,0)" clip-path="url(#_4784029239466clip-0)"/><g transform="matrix(1,0,0,1,0,0)"><text x="780" y="21.01" style="fill: rgb(0,0,0); fill-opacity: 1.0; font-family: Tahoma; font-size: 20px; font-weight: bold;" clip-path="url(#_4784029239466clip-0)">Thrust Interpolation during descent</text></g><rect x="684" y="1047" width="552" height="32" style="fill: rgb(255,255,255); fill-opacity: 1.0" transform="matrix(1,0,0,1,0,0)" clip-path="url(#_4784029239466clip-0)"/><g style="stroke-width: 3.0;stroke: rgb(0,192,0);stroke-opacity: 1.0;stroke-linecap: square;shape-rendering:geometricPrecision;; fill: none" transform="matrix(1,0,0,1,0,0)" clip-path="url(#_4784029239466clip-0)"><path d="M 687 1063 L 701 1063"/></g><g transform="matrix(1,0,0,1,0,0)"><text x="705" y="1070.11" style="fill: rgb(64,64,64); fill-opacity: 1.0; font-family: sans-serif; font-size: 20px;" clip-path="url(#_4784029239466clip-0)">Interpolated Thrust</text></g><g style="stroke-width: 3.0;stroke: rgb(192,192,0);stroke-opacity: 1.0;stroke-linecap: round;stroke-linejoin: round;stroke-dasharray: 10.0, 5.0;shape-rendering:geometricPrecision;; fill: none" transform="matrix(1,0,0,1,0,0)" clip-path="url(#_4784029239466clip-0)"><path d="M 879 1063 L 893 1063"/></g><g transform="matrix(1,0,0,1,0,0)"><text x="897" y="1070.11" style="fill: rgb(64,64,64); fill-opacity: 1.0; font-family: sans-serif; font-size: 20px;" clip-path="url(#_4784029239466clip-0)">Max Cruise Thrust</text></g><g style="stroke-width: 1.0;stroke: rgb(64,64,64);stroke-opacity: 1.0;stroke-linecap: square;stroke-linejoin: bevel;shape-rendering:geometricPrecision;; fill: none" transform="matrix(1,0,0,1,0,0)" clip-path="url(#_4784029239466clip-0)"><path d="M 1066 1063 L 1080 1063"/></g><g transform="matrix(1,0,0,1,0,0)"><text x="1084" y="1070.11" style="fill: rgb(64,64,64); fill-opacity: 1.0; font-family: sans-serif; font-size: 20px;" clip-path="url(#_4784029239466clip-0)">Flight Idle Thrust</text></g><rect x="128" y="35" width="1780" height="922" style="fill: rgb(255,255,255); fill-opacity: 0.0" transform="matrix(1,0,0,1,0,0)" clip-path="url(#_4784029239466clip-0)"/><line x1="128" y1="961" x2="1908" y2="961" style="stroke-width: 0.5;stroke: rgb(128,128,128);stroke-opacity: 1.0;stroke-linecap: square;shape-rendering:crispEdges;" transform="matrix(1,0,0,1,0,0)" clip-path="url(#_4784029239466clip-0)"/><g transform="matrix(1,0,0,1,0,0)"><text x="110.5" y="991.69" style="fill: rgb(64,64,64); fill-opacity: 1.0; font-family: sans-serif; font-size: 25px;" clip-path="url(#_4784029239466clip-0)">0,0</text></g><line x1="128" y1="963" x2="128" y2="961" style="stroke-width: 0.5;stroke: rgb(128,128,128);stroke-opacity: 1.0;stroke-linecap: square;shape-rendering:crispEdges;" transform="matrix(1,0,0,1,0,0)" clip-path="url(#_4784029239466clip-0)"/><g transform="matrix(1,0,0,1,0,0)"><text x="189.54" y="991.69" style="fill: rgb(64,64,64); fill-opacity: 1.0; font-family: sans-serif; font-size: 25px;" clip-path="url(#_4784029239466clip-0)">0,5</text></g><line x1="207.04" y1="963" x2="207.04" y2="961" style="stroke-width: 0.5;stroke: rgb(128,128,128);stroke-opacity: 1.0;stroke-linecap: square;shape-rendering:crispEdges;" transform="matrix(1,0,0,1,0,0)" clip-path="url(#_4784029239466clip-0)"/><g transform="matrix(1,0,0,1,0,0)"><text x="268.58" y="991.69" style="fill: rgb(64,64,64); fill-opacity: 1.0; font-family: sans-serif; font-size: 25px;" clip-path="url(#_4784029239466clip-0)">1,0</text></g><line x1="286.08" y1="963" x2="286.08" y2="961" style="stroke-width: 0.5;stroke: rgb(128,128,128);stroke-opacity: 1.0;stroke-linecap: square;shape-rendering:crispEdges;" transform="matrix(1,0,0,1,0,0)" clip-path="url(#_4784029239466clip-0)"/><g transform="matrix(1,0,0,1,0,0)"><text x="347.62" y="991.69" style="fill: rgb(64,64,64); fill-opacity: 1.0; font-family: sans-serif; font-size: 25px;" clip-path="url(#_4784029239466clip-0)">1,5</text></g><line x1="365.12" y1="963" x2="365.12" y2="961" style="stroke-width: 0.5;stroke: rgb(128,128,128);stroke-opacity: 1.0;stroke-linecap: square;shape-rendering:crispEdges;" transform="matrix(1,0,0,1,0,0)" clip-path="url(#_4784029239466clip-0)"/><g transform="matrix(1,0,0,1,0,0)"><text x="426.65" y="991.69" style="fill: rgb(64,64,64); fill-opacity: 1.0; font-family: sans-serif; font-size: 25px;" clip-path="url(#_4784029239466clip-0)">2,0</text></g><line x1="444.15" y1="963" x2="444.15" y2="961" style="stroke-width: 0.5;stroke: rgb(128,128,128);stroke-opacity: 1.0;stroke-linecap: square;shape-rendering:crispEdges;" transform="matrix(1,0,0,1,0,0)" clip-path="url(#_4784029239466clip-0)"/><g transform="matrix(1,0,0,1,0,0)"><text x="505.69" y="991.69" style="fill: rgb(64,64,64); fill-opacity: 1.0; font-family: sans-serif; font-size: 25px;" clip-path="url(#_4784029239466clip-0)">2,5</text></g><line x1="523.19" y1="963" x2="523.19" y2="961" style="stroke-width: 0.5;stroke: rgb(128,128,128);stroke-opacity: 1.0;stroke-linecap: square;shape-rendering:crispEdges;" transform="matrix(1,0,0,1,0,0)" clip-path="url(#_4784029239466clip-0)"/><g transform="matrix(1,0,0,1,0,0)"><text x="584.73" y="991.69" style="fill: rgb(64,64,64); fill-opacity: 1.0; font-family: sans-serif; font-size: 25px;" clip-path="url(#_4784029239466clip-0)">3,0</text></g><line x1="602.23" y1="963" x2="602.23" y2="961" style="stroke-width: 0.5;stroke: rgb(128,128,128);stroke-opacity: 1.0;stroke-linecap: square;shape-rendering:crispEdges;" transform="matrix(1,0,0,1,0,0)" clip-path="url(#_4784029239466clip-0)"/><g transform="matrix(1,0,0,1,0,0)"><text x="663.77" y="991.69" style="fill: rgb(64,64,64); fill-opacity: 1.0; font-family: sans-serif; font-size: 25px;" clip-path="url(#_4784029239466clip-0)">3,5</text></g><line x1="681.27" y1="963" x2="681.27" y2="961" style="stroke-width: 0.5;stroke: rgb(128,128,128);stroke-opacity: 1.0;stroke-linecap: square;shape-rendering:crispEdges;" transform="matrix(1,0,0,1,0,0)" clip-path="url(#_4784029239466clip-0)"/><g transform="matrix(1,0,0,1,0,0)"><text x="742.81" y="991.69" style="fill: rgb(64,64,64); fill-opacity: 1.0; font-family: sans-serif; font-size: 25px;" clip-path="url(#_4784029239466clip-0)">4,0</text></g><line x1="760.31" y1="963" x2="760.31" y2="961" style="stroke-width: 0.5;stroke: rgb(128,128,128);stroke-opacity: 1.0;stroke-linecap: square;shape-rendering:crispEdges;" transform="matrix(1,0,0,1,0,0)" clip-path="url(#_4784029239466clip-0)"/><g transform="matrix(1,0,0,1,0,0)"><text x="821.85" y="991.69" style="fill: rgb(64,64,64); fill-opacity: 1.0; font-family: sans-serif; font-size: 25px;" clip-path="url(#_4784029239466clip-0)">4,5</text></g><line x1="839.35" y1="963" x2="839.35" y2="961" style="stroke-width: 0.5;stroke: rgb(128,128,128);stroke-opacity: 1.0;stroke-linecap: square;shape-rendering:crispEdges;" transform="matrix(1,0,0,1,0,0)" clip-path="url(#_4784029239466clip-0)"/><g transform="matrix(1,0,0,1,0,0)"><text x="900.89" y="991.69" style="fill: rgb(64,64,64); fill-opacity: 1.0; font-family: sans-serif; font-size: 25px;" clip-path="url(#_4784029239466clip-0)">5,0</text></g><line x1="918.39" y1="963" x2="918.39" y2="961" style="stroke-width: 0.5;stroke: rgb(128,128,128);stroke-opacity: 1.0;stroke-linecap: square;shape-rendering:crispEdges;" transform="matrix(1,0,0,1,0,0)" clip-path="url(#_4784029239466clip-0)"/><g transform="matrix(1,0,0,1,0,0)"><text x="979.92" y="991.69" style="fill: rgb(64,64,64); fill-opacity: 1.0; font-family: sans-serif; font-size: 25px;" clip-path="url(#_4784029239466clip-0)">5,5</text></g><line x1="997.42" y1="963" x2="997.42" y2="961" style="stroke-width: 0.5;stroke: rgb(128,128,128);stroke-opacity: 1.0;stroke-linecap: square;shape-rendering:crispEdges;" transform="matrix(1,0,0,1,0,0)" clip-path="url(#_4784029239466clip-0)"/><g transform="matrix(1,0,0,1,0,0)"><text x="1058.96" y="991.69" style="fill: rgb(64,64,64); fill-opacity: 1.0; font-family: sans-serif; font-size: 25px;" clip-path="url(#_4784029239466clip-0)">6,0</text></g><line x1="1076.46" y1="963" x2="1076.46" y2="961" style="stroke-width: 0.5;stroke: rgb(128,128,128);stroke-opacity: 1.0;stroke-linecap: square;shape-rendering:crispEdges;" transform="matrix(1,0,0,1,0,0)" clip-path="url(#_4784029239466clip-0)"/><g transform="matrix(1,0,0,1,0,0)"><text x="1138" y="991.69" style="fill: rgb(64,64,64); fill-opacity: 1.0; font-family: sans-serif; font-size: 25px;" clip-path="url(#_4784029239466clip-0)">6,5</text></g><line x1="1155.5" y1="963" x2="1155.5" y2="961" style="stroke-width: 0.5;stroke: rgb(128,128,128);stroke-opacity: 1.0;stroke-linecap: square;shape-rendering:crispEdges;" transform="matrix(1,0,0,1,0,0)" clip-path="url(#_4784029239466clip-0)"/><g transform="matrix(1,0,0,1,0,0)"><text x="1217.04" y="991.69" style="fill: rgb(64,64,64); fill-opacity: 1.0; font-family: sans-serif; font-size: 25px;" clip-path="url(#_4784029239466clip-0)">7,0</text></g><line x1="1234.54" y1="963" x2="1234.54" y2="961" style="stroke-width: 0.5;stroke: rgb(128,128,128);stroke-opacity: 1.0;stroke-linecap: square;shape-rendering:crispEdges;" transform="matrix(1,0,0,1,0,0)" clip-path="url(#_4784029239466clip-0)"/><g transform="matrix(1,0,0,1,0,0)"><text x="1296.08" y="991.69" style="fill: rgb(64,64,64); fill-opacity: 1.0; font-family: sans-serif; font-size: 25px;" clip-path="url(#_4784029239466clip-0)">7,5</text></g><line x1="1313.58" y1="963" x2="1313.58" y2="961" style="stroke-width: 0.5;stroke: rgb(128,128,128);stroke-opacity: 1.0;stroke-linecap: square;shape-rendering:crispEdges;" transform="matrix(1,0,0,1,0,0)" clip-path="url(#_4784029239466clip-0)"/><g transform="matrix(1,0,0,1,0,0)"><text x="1375.12" y="991.69" style="fill: rgb(64,64,64); fill-opacity: 1.0; font-family: sans-serif; font-size: 25px;" clip-path="url(#_4784029239466clip-0)">8,0</text></g><line x1="1392.62" y1="963" x2="1392.62" y2="961" style="stroke-width: 0.5;stroke: rgb(128,128,128);stroke-opacity: 1.0;stroke-linecap: square;shape-rendering:crispEdges;" transform="matrix(1,0,0,1,0,0)" clip-path="url(#_4784029239466clip-0)"/><g transform="matrix(1,0,0,1,0,0)"><text x="1454.16" y="991.69" style="fill: rgb(64,64,64); fill-opacity: 1.0; font-family: sans-serif; font-size: 25px;" clip-path="url(#_4784029239466clip-0)">8,5</text></g><line x1="1471.66" y1="963" x2="1471.66" y2="961" style="stroke-width: 0.5;stroke: rgb(128,128,128);stroke-opacity: 1.0;stroke-linecap: square;shape-rendering:crispEdges;" transform="matrix(1,0,0,1,0,0)" clip-path="url(#_4784029239466clip-0)"/><g transform="matrix(1,0,0,1,0,0)"><text x="1533.19" y="991.69" style="fill: rgb(64,64,64); fill-opacity: 1.0; font-family: sans-serif; font-size: 25px;" clip-path="url(#_4784029239466clip-0)">9,0</text></g><line x1="1550.69" y1="963" x2="1550.69" y2="961" style="stroke-width: 0.5;stroke: rgb(128,128,128);stroke-opacity: 1.0;stroke-linecap: square;shape-rendering:crispEdges;" transform="matrix(1,0,0,1,0,0)" clip-path="url(#_4784029239466clip-0)"/><g transform="matrix(1,0,0,1,0,0)"><text x="1612.23" y="991.69" style="fill: rgb(64,64,64); fill-opacity: 1.0; font-family: sans-serif; font-size: 25px;" clip-path="url(#_4784029239466clip-0)">9,5</text></g><line x1="1629.73" y1="963" x2="1629.73" y2="961" style="stroke-width: 0.5;stroke: rgb(128,128,128);stroke-opacity: 1.0;stroke-linecap: square;shape-rendering:crispEdges;" transform="matrix(1,0,0,1,0,0)" clip-path="url(#_4784029239466clip-0)"/><g transform="matrix(1,0,0,1,0,0)"><text x="1684.27" y="991.69" style="fill: rgb(64,64,64); fill-opacity: 1.0; font-family: sans-serif; font-size: 25px;" clip-path="url(#_4784029239466clip-0)">10,0</text></g><line x1="1708.77" y1="963" x2="1708.77" y2="961" style="stroke-width: 0.5;stroke: rgb(128,128,128);stroke-opacity: 1.0;stroke-linecap: square;shape-rendering:crispEdges;" transform="matrix(1,0,0,1,0,0)" clip-path="url(#_4784029239466clip-0)"/><g transform="matrix(1,0,0,1,0,0)"><text x="1763.31" y="991.69" style="fill: rgb(64,64,64); fill-opacity: 1.0; font-family: sans-serif; font-size: 25px;" clip-path="url(#_4784029239466clip-0)">10,5</text></g><line x1="1787.81" y1="963" x2="1787.81" y2="961" style="stroke-width: 0.5;stroke: rgb(128,128,128);stroke-opacity: 1.0;stroke-linecap: square;shape-rendering:crispEdges;" transform="matrix(1,0,0,1,0,0)" clip-path="url(#_4784029239466clip-0)"/><g transform="matrix(1,0,0,1,0,0)"><text x="1842.35" y="991.69" style="fill: rgb(64,64,64); fill-opacity: 1.0; font-family: sans-serif; font-size: 25px;" clip-path="url(#_4784029239466clip-0)">11,0</text></g><line x1="1866.85" y1="963" x2="1866.85" y2="961" style="stroke-width: 0.5;stroke: rgb(128,128,128);stroke-opacity: 1.0;stroke-linecap: square;shape-rendering:crispEdges;" transform="matrix(1,0,0,1,0,0)" clip-path="url(#_4784029239466clip-0)"/><g transform="matrix(1,0,0,1,0,0)"><text x="946.5" y="1030.87" style="fill: rgb(64,64,64); fill-opacity: 1.0; font-family: sans-serif; font-size: 30px;" clip-path="url(#_4784029239466clip-0)">Time (min)</text></g><line x1="124" y1="35" x2="124" y2="957" style="stroke-width: 0.5;stroke: rgb(128,128,128);stroke-opacity: 1.0;stroke-linecap: square;shape-rendering:crispEdges;" transform="matrix(1,0,0,1,0,0)" clip-path="url(#_4784029239466clip-0)"/><g transform="matrix(1,0,0,1,0,0)"><text x="68" y="931.54" style="fill: rgb(64,64,64); fill-opacity: 1.0; font-family: sans-serif; font-size: 25px;" clip-path="url(#_4784029239466clip-0)">-500</text></g><line x1="122" y1="921.35" x2="124" y2="921.35" style="stroke-width: 0.5;stroke: rgb(128,128,128);stroke-opacity: 1.0;stroke-linecap: square;shape-rendering:crispEdges;" transform="matrix(1,0,0,1,0,0)" clip-path="url(#_4784029239466clip-0)"/><g transform="matrix(1,0,0,1,0,0)"><text x="104" y="864.66" style="fill: rgb(64,64,64); fill-opacity: 1.0; font-family: sans-serif; font-size: 25px;" clip-path="url(#_4784029239466clip-0)">0</text></g><line x1="122" y1="854.47" x2="124" y2="854.47" style="stroke-width: 0.5;stroke: rgb(128,128,128);stroke-opacity: 1.0;stroke-linecap: square;shape-rendering:crispEdges;" transform="matrix(1,0,0,1,0,0)" clip-path="url(#_4784029239466clip-0)"/><g transform="matrix(1,0,0,1,0,0)"><text x="76" y="797.78" style="fill: rgb(64,64,64); fill-opacity: 1.0; font-family: sans-serif; font-size: 25px;" clip-path="url(#_4784029239466clip-0)">500</text></g><line x1="122" y1="787.59" x2="124" y2="787.59" style="stroke-width: 0.5;stroke: rgb(128,128,128);stroke-opacity: 1.0;stroke-linecap: square;shape-rendering:crispEdges;" transform="matrix(1,0,0,1,0,0)" clip-path="url(#_4784029239466clip-0)"/><g transform="matrix(1,0,0,1,0,0)"><text x="55" y="730.9" style="fill: rgb(64,64,64); fill-opacity: 1.0; font-family: sans-serif; font-size: 25px;" clip-path="url(#_4784029239466clip-0)">1.000</text></g><line x1="122" y1="720.71" x2="124" y2="720.71" style="stroke-width: 0.5;stroke: rgb(128,128,128);stroke-opacity: 1.0;stroke-linecap: square;shape-rendering:crispEdges;" transform="matrix(1,0,0,1,0,0)" clip-path="url(#_4784029239466clip-0)"/><g transform="matrix(1,0,0,1,0,0)"><text x="55" y="664.02" style="fill: rgb(64,64,64); fill-opacity: 1.0; font-family: sans-serif; font-size: 25px;" clip-path="url(#_4784029239466clip-0)">1.500</text></g><line x1="122" y1="653.83" x2="124" y2="653.83" style="stroke-width: 0.5;stroke: rgb(128,128,128);stroke-opacity: 1.0;stroke-linecap: square;shape-rendering:crispEdges;" transform="matrix(1,0,0,1,0,0)" clip-path="url(#_4784029239466clip-0)"/><g transform="matrix(1,0,0,1,0,0)"><text x="55" y="597.14" style="fill: rgb(64,64,64); fill-opacity: 1.0; font-family: sans-serif; font-size: 25px;" clip-path="url(#_4784029239466clip-0)">2.000</text></g><line x1="122" y1="586.95" x2="124" y2="586.95" style="stroke-width: 0.5;stroke: rgb(128,128,128);stroke-opacity: 1.0;stroke-linecap: square;shape-rendering:crispEdges;" transform="matrix(1,0,0,1,0,0)" clip-path="url(#_4784029239466clip-0)"/><g transform="matrix(1,0,0,1,0,0)"><text x="55" y="530.26" style="fill: rgb(64,64,64); fill-opacity: 1.0; font-family: sans-serif; font-size: 25px;" clip-path="url(#_4784029239466clip-0)">2.500</text></g><line x1="122" y1="520.07" x2="124" y2="520.07" style="stroke-width: 0.5;stroke: rgb(128,128,128);stroke-opacity: 1.0;stroke-linecap: square;shape-rendering:crispEdges;" transform="matrix(1,0,0,1,0,0)" clip-path="url(#_4784029239466clip-0)"/><g transform="matrix(1,0,0,1,0,0)"><text x="55" y="463.38" style="fill: rgb(64,64,64); fill-opacity: 1.0; font-family: sans-serif; font-size: 25px;" clip-path="url(#_4784029239466clip-0)">3.000</text></g><line x1="122" y1="453.19" x2="124" y2="453.19" style="stroke-width: 0.5;stroke: rgb(128,128,128);stroke-opacity: 1.0;stroke-linecap: square;shape-rendering:crispEdges;" transform="matrix(1,0,0,1,0,0)" clip-path="url(#_4784029239466clip-0)"/><g transform="matrix(1,0,0,1,0,0)"><text x="55" y="396.5" style="fill: rgb(64,64,64); fill-opacity: 1.0; font-family: sans-serif; font-size: 25px;" clip-path="url(#_4784029239466clip-0)">3.500</text></g><line x1="122" y1="386.31" x2="124" y2="386.31" style="stroke-width: 0.5;stroke: rgb(128,128,128);stroke-opacity: 1.0;stroke-linecap: square;shape-rendering:crispEdges;" transform="matrix(1,0,0,1,0,0)" clip-path="url(#_4784029239466clip-0)"/><g transform="matrix(1,0,0,1,0,0)"><text x="55" y="329.62" style="fill: rgb(64,64,64); fill-opacity: 1.0; font-family: sans-serif; font-size: 25px;" clip-path="url(#_4784029239466clip-0)">4.000</text></g><line x1="122" y1="319.43" x2="124" y2="319.43" style="stroke-width: 0.5;stroke: rgb(128,128,128);stroke-opacity: 1.0;stroke-linecap: square;shape-rendering:crispEdges;" transform="matrix(1,0,0,1,0,0)" clip-path="url(#_4784029239466clip-0)"/><g transform="matrix(1,0,0,1,0,0)"><text x="55" y="262.74" style="fill: rgb(64,64,64); fill-opacity: 1.0; font-family: sans-serif; font-size: 25px;" clip-path="url(#_4784029239466clip-0)">4.500</text></g><line x1="122" y1="252.55" x2="124" y2="252.55" style="stroke-width: 0.5;stroke: rgb(128,128,128);stroke-opacity: 1.0;stroke-linecap: square;shape-rendering:crispEdges;" transform="matrix(1,0,0,1,0,0)" clip-path="url(#_4784029239466clip-0)"/><g transform="matrix(1,0,0,1,0,0)"><text x="55" y="195.86" style="fill: rgb(64,64,64); fill-opacity: 1.0; font-family: sans-serif; font-size: 25px;" clip-path="url(#_4784029239466clip-0)">5.000</text></g><line x1="122" y1="185.67" x2="124" y2="185.67" style="stroke-width: 0.5;stroke: rgb(128,128,128);stroke-opacity: 1.0;stroke-linecap: square;shape-rendering:crispEdges;" transform="matrix(1,0,0,1,0,0)" clip-path="url(#_4784029239466clip-0)"/><g transform="matrix(1,0,0,1,0,0)"><text x="55" y="128.98" style="fill: rgb(64,64,64); fill-opacity: 1.0; font-family: sans-serif; font-size: 25px;" clip-path="url(#_4784029239466clip-0)">5.500</text></g><line x1="122" y1="118.79" x2="124" y2="118.79" style="stroke-width: 0.5;stroke: rgb(128,128,128);stroke-opacity: 1.0;stroke-linecap: square;shape-rendering:crispEdges;" transform="matrix(1,0,0,1,0,0)" clip-path="url(#_4784029239466clip-0)"/><g transform="matrix(1,0,0,1,0,0)"><text x="55" y="62.09" style="fill: rgb(64,64,64); fill-opacity: 1.0; font-family: sans-serif; font-size: 25px;" clip-path="url(#_4784029239466clip-0)">6.000</text></g><line x1="122" y1="51.91" x2="124" y2="51.91" style="stroke-width: 0.5;stroke: rgb(128,128,128);stroke-opacity: 1.0;stroke-linecap: square;shape-rendering:crispEdges;" transform="matrix(1,0,0,1,0,0)" clip-path="url(#_4784029239466clip-0)"/><g style="fill: rgb(64,64,64); fill-opacity: 1.0; stroke: none" transform="matrix(0,-1,1,0,-465.5,526.5)" clip-path="url(#_4784029239466clip-1)"><path d="M -34.22 507.93 L -34.22 488.99 L -41.3 488.99 L -41.3 486.46 L -24.28 486.46 L -24.28 488.99 L -31.38 488.99 L -31.38 507.93 L -34.22 507.93 Z  M -21.69 507.93 L -21.69 486.46 L -19.07 486.46 L -19.07 494.16 Q -17.22 492.02 -14.41 492.02 Q -12.67 492.02 -11.4 492.7 Q -10.13 493.38 -9.57 494.58 Q -9.02 495.79 -9.02 498.07 L -9.02 507.93 L -11.66 507.93 L -11.66 498.07 Q -11.66 496.08 -12.52 495.18 Q -13.38 494.29 -14.94 494.29 Q -16.11 494.29 -17.14 494.9 Q -18.17 495.5 -18.62 496.54 Q -19.07 497.58 -19.07 499.41 L -19.07 507.93 L -21.69 507.93 Z  M -5.04 507.93 L -5.04 492.36 L -2.66 492.36 L -2.66 494.72 Q -1.76 493.07 -0.99 492.54 Q -0.22 492.02 0.7 492.02 Q 2.04 492.02 3.42 492.86 L 2.51 495.32 Q 1.54 494.74 0.57 494.74 Q -0.3 494.74 -0.99 495.26 Q -1.68 495.79 -1.96 496.71 Q -2.41 498.11 -2.41 499.79 L -2.41 507.93 L -5.04 507.93 Z  M 15.17 507.93 L 15.17 505.65 Q 13.36 508.29 10.23 508.29 Q 8.86 508.29 7.66 507.75 Q 6.47 507.22 5.89 506.43 Q 5.31 505.63 5.08 504.47 Q 4.92 503.69 4.92 502 L 4.92 492.36 L 7.56 492.36 L 7.56 501 Q 7.56 503.07 7.72 503.79 Q 7.97 504.82 8.77 505.41 Q 9.58 506 10.77 506 Q 11.95 506 12.99 505.4 Q 14.03 504.79 14.46 503.74 Q 14.89 502.69 14.89 500.71 L 14.89 492.36 L 17.53 492.36 L 17.53 507.93 L 15.17 507.93 Z  M 20.61 503.29 L 23.22 502.88 Q 23.43 504.44 24.43 505.28 Q 25.43 506.11 27.25 506.11 Q 29.06 506.11 29.94 505.37 Q 30.83 504.63 30.83 503.63 Q 30.83 502.74 30.04 502.22 Q 29.5 501.88 27.34 501.33 Q 24.45 500.6 23.33 500.07 Q 22.2 499.54 21.62 498.59 Q 21.04 497.65 21.04 496.5 Q 21.04 495.46 21.52 494.58 Q 22 493.69 22.83 493.1 Q 23.43 492.65 24.5 492.33 Q 25.56 492.02 26.78 492.02 Q 28.61 492.02 29.99 492.54 Q 31.37 493.07 32.04 493.97 Q 32.7 494.88 32.93 496.38 L 30.36 496.74 Q 30.18 495.54 29.34 494.86 Q 28.5 494.19 26.97 494.19 Q 25.15 494.19 24.37 494.79 Q 23.59 495.38 23.59 496.19 Q 23.59 496.71 23.92 497.11 Q 24.25 497.54 24.93 497.82 Q 25.33 497.96 27.26 498.49 Q 30.06 499.24 31.16 499.72 Q 32.26 500.19 32.9 501.1 Q 33.53 502 33.53 503.35 Q 33.53 504.68 32.76 505.84 Q 32 507 30.54 507.65 Q 29.09 508.29 27.26 508.29 Q 24.23 508.29 22.64 507.02 Q 21.04 505.75 20.61 503.29 Z  M 42.42 505.57 L 42.79 507.9 Q 41.68 508.13 40.81 508.13 Q 39.37 508.13 38.58 507.68 Q 37.79 507.22 37.47 506.48 Q 37.15 505.74 37.15 503.36 L 37.15 494.43 L 35.22 494.43 L 35.22 492.36 L 37.15 492.36 L 37.15 488.52 L 39.76 486.94 L 39.76 492.36 L 42.42 492.36 L 42.42 494.43 L 39.76 494.43 L 39.76 503.52 Q 39.76 504.65 39.9 504.97 Q 40.04 505.29 40.36 505.48 Q 40.67 505.68 41.26 505.68 Q 41.7 505.68 42.42 505.57 Z  M 58.37 514.24 Q 56.18 511.49 54.67 507.79 Q 53.17 504.1 53.17 500.15 Q 53.17 496.66 54.29 493.47 Q 55.62 489.75 58.37 486.08 L 60.26 486.08 Q 58.5 489.13 57.92 490.44 Q 57.03 492.46 56.51 494.66 Q 55.89 497.4 55.89 500.16 Q 55.89 507.21 60.26 514.24 L 58.37 514.24 Z  M 63.27 507.93 L 63.27 486.46 L 65.91 486.46 L 65.91 507.93 L 63.27 507.93 Z  M 72.42 507.93 L 69.98 507.93 L 69.98 486.46 L 72.6 486.46 L 72.6 494.11 Q 74.28 492.02 76.87 492.02 Q 78.31 492.02 79.59 492.6 Q 80.87 493.18 81.7 494.22 Q 82.53 495.27 82.99 496.75 Q 83.46 498.22 83.46 499.91 Q 83.46 503.91 81.49 506.1 Q 79.51 508.29 76.74 508.29 Q 73.99 508.29 72.42 505.97 L 72.42 507.93 Z  M 72.38 500.04 Q 72.38 502.83 73.15 504.07 Q 74.4 506.11 76.53 506.11 Q 78.24 506.11 79.51 504.61 Q 80.78 503.11 80.78 500.13 Q 80.78 497.08 79.56 495.64 Q 78.35 494.19 76.63 494.19 Q 74.92 494.19 73.65 495.69 Q 72.38 497.19 72.38 500.04 Z  M 87.3 507.93 L 87.3 494.43 L 84.98 494.43 L 84.98 492.36 L 87.3 492.36 L 87.3 490.71 Q 87.3 489.15 87.58 488.38 Q 87.96 487.36 88.92 486.72 Q 89.88 486.08 91.62 486.08 Q 92.73 486.08 94.07 486.35 L 93.68 488.65 Q 92.85 488.5 92.12 488.5 Q 90.91 488.5 90.42 489.01 Q 89.93 489.52 89.93 490.93 L 89.93 492.36 L 92.96 492.36 L 92.96 494.43 L 89.93 494.43 L 89.93 507.93 L 87.3 507.93 Z  M 96.73 514.24 L 94.84 514.24 Q 99.23 507.21 99.23 500.16 Q 99.23 497.41 98.59 494.69 Q 98.09 492.5 97.2 490.47 Q 96.64 489.16 94.84 486.08 L 96.73 486.08 Q 99.48 489.75 100.81 493.47 Q 101.94 496.66 101.94 500.15 Q 101.94 504.1 100.42 507.79 Q 98.9 511.49 96.73 514.24 Z "/></g><line x1="128" y1="35" x2="128" y2="957" style="stroke-width: 0.5;stroke: rgb(192,192,192);stroke-opacity: 1.0;stroke-linejoin: bevel;stroke-dasharray: 2.0, 2.0;shape-rendering:crispEdges;" transform="matrix(1,0,0,1,0,0)" clip-path="url(#_4784029239466clip-2)"/><line x1="207.04" y1="35" x2="207.04" y2="957" style="stroke-width: 0.5;stroke: rgb(192,192,192);stroke-opacity: 1.0;stroke-linejoin: bevel;stroke-dasharray: 2.0, 2.0;shape-rendering:crispEdges;" transform="matrix(1,0,0,1,0,0)" clip-path="url(#_4784029239466clip-2)"/><line x1="286.08" y1="35" x2="286.08" y2="957" style="stroke-width: 0.5;stroke: rgb(192,192,192);stroke-opacity: 1.0;stroke-linejoin: bevel;stroke-dasharray: 2.0, 2.0;shape-rendering:crispEdges;" transform="matrix(1,0,0,1,0,0)" clip-path="url(#_4784029239466clip-2)"/><line x1="365.12" y1="35" x2="365.12" y2="957" style="stroke-width: 0.5;stroke: rgb(192,192,192);stroke-opacity: 1.0;stroke-linejoin: bevel;stroke-dasharray: 2.0, 2.0;shape-rendering:crispEdges;" transform="matrix(1,0,0,1,0,0)" clip-path="url(#_4784029239466clip-2)"/><line x1="444.15" y1="35" x2="444.15" y2="957" style="stroke-width: 0.5;stroke: rgb(192,192,192);stroke-opacity: 1.0;stroke-linejoin: bevel;stroke-dasharray: 2.0, 2.0;shape-rendering:crispEdges;" transform="matrix(1,0,0,1,0,0)" clip-path="url(#_4784029239466clip-2)"/><line x1="523.19" y1="35" x2="523.19" y2="957" style="stroke-width: 0.5;stroke: rgb(192,192,192);stroke-opacity: 1.0;stroke-linejoin: bevel;stroke-dasharray: 2.0, 2.0;shape-rendering:crispEdges;" transform="matrix(1,0,0,1,0,0)" clip-path="url(#_4784029239466clip-2)"/><line x1="602.23" y1="35" x2="602.23" y2="957" style="stroke-width: 0.5;stroke: rgb(192,192,192);stroke-opacity: 1.0;stroke-linejoin: bevel;stroke-dasharray: 2.0, 2.0;shape-rendering:crispEdges;" transform="matrix(1,0,0,1,0,0)" clip-path="url(#_4784029239466clip-2)"/><line x1="681.27" y1="35" x2="681.27" y2="957" style="stroke-width: 0.5;stroke: rgb(192,192,192);stroke-opacity: 1.0;stroke-linejoin: bevel;stroke-dasharray: 2.0, 2.0;shape-rendering:crispEdges;" transform="matrix(1,0,0,1,0,0)" clip-path="url(#_4784029239466clip-2)"/><line x1="760.31" y1="35" x2="760.31" y2="957" style="stroke-width: 0.5;stroke: rgb(192,192,192);stroke-opacity: 1.0;stroke-linejoin: bevel;stroke-dasharray: 2.0, 2.0;shape-rendering:crispEdges;" transform="matrix(1,0,0,1,0,0)" clip-path="url(#_4784029239466clip-2)"/><line x1="839.35" y1="35" x2="839.35" y2="957" style="stroke-width: 0.5;stroke: rgb(192,192,192);stroke-opacity: 1.0;stroke-linejoin: bevel;stroke-dasharray: 2.0, 2.0;shape-rendering:crispEdges;" transform="matrix(1,0,0,1,0,0)" clip-path="url(#_4784029239466clip-2)"/><line x1="918.39" y1="35" x2="918.39" y2="957" style="stroke-width: 0.5;stroke: rgb(192,192,192);stroke-opacity: 1.0;stroke-linejoin: bevel;stroke-dasharray: 2.0, 2.0;shape-rendering:crispEdges;" transform="matrix(1,0,0,1,0,0)" clip-path="url(#_4784029239466clip-2)"/><line x1="997.42" y1="35" x2="997.42" y2="957" style="stroke-width: 0.5;stroke: rgb(192,192,192);stroke-opacity: 1.0;stroke-linejoin: bevel;stroke-dasharray: 2.0, 2.0;shape-rendering:crispEdges;" transform="matrix(1,0,0,1,0,0)" clip-path="url(#_4784029239466clip-2)"/><line x1="1076.46" y1="35" x2="1076.46" y2="957" style="stroke-width: 0.5;stroke: rgb(192,192,192);stroke-opacity: 1.0;stroke-linejoin: bevel;stroke-dasharray: 2.0, 2.0;shape-rendering:crispEdges;" transform="matrix(1,0,0,1,0,0)" clip-path="url(#_4784029239466clip-2)"/><line x1="1155.5" y1="35" x2="1155.5" y2="957" style="stroke-width: 0.5;stroke: rgb(192,192,192);stroke-opacity: 1.0;stroke-linejoin: bevel;stroke-dasharray: 2.0, 2.0;shape-rendering:crispEdges;" transform="matrix(1,0,0,1,0,0)" clip-path="url(#_4784029239466clip-2)"/><line x1="1234.54" y1="35" x2="1234.54" y2="957" style="stroke-width: 0.5;stroke: rgb(192,192,192);stroke-opacity: 1.0;stroke-linejoin: bevel;stroke-dasharray: 2.0, 2.0;shape-rendering:crispEdges;" transform="matrix(1,0,0,1,0,0)" clip-path="url(#_4784029239466clip-2)"/><line x1="1313.58" y1="35" x2="1313.58" y2="957" style="stroke-width: 0.5;stroke: rgb(192,192,192);stroke-opacity: 1.0;stroke-linejoin: bevel;stroke-dasharray: 2.0, 2.0;shape-rendering:crispEdges;" transform="matrix(1,0,0,1,0,0)" clip-path="url(#_4784029239466clip-2)"/><line x1="1392.62" y1="35" x2="1392.62" y2="957" style="stroke-width: 0.5;stroke: rgb(192,192,192);stroke-opacity: 1.0;stroke-linejoin: bevel;stroke-dasharray: 2.0, 2.0;shape-rendering:crispEdges;" transform="matrix(1,0,0,1,0,0)" clip-path="url(#_4784029239466clip-2)"/><line x1="1471.66" y1="35" x2="1471.66" y2="957" style="stroke-width: 0.5;stroke: rgb(192,192,192);stroke-opacity: 1.0;stroke-linejoin: bevel;stroke-dasharray: 2.0, 2.0;shape-rendering:crispEdges;" transform="matrix(1,0,0,1,0,0)" clip-path="url(#_4784029239466clip-2)"/><line x1="1550.69" y1="35" x2="1550.69" y2="957" style="stroke-width: 0.5;stroke: rgb(192,192,192);stroke-opacity: 1.0;stroke-linejoin: bevel;stroke-dasharray: 2.0, 2.0;shape-rendering:crispEdges;" transform="matrix(1,0,0,1,0,0)" clip-path="url(#_4784029239466clip-2)"/><line x1="1629.73" y1="35" x2="1629.73" y2="957" style="stroke-width: 0.5;stroke: rgb(192,192,192);stroke-opacity: 1.0;stroke-linejoin: bevel;stroke-dasharray: 2.0, 2.0;shape-rendering:crispEdges;" transform="matrix(1,0,0,1,0,0)" clip-path="url(#_4784029239466clip-2)"/><line x1="1708.77" y1="35" x2="1708.77" y2="957" style="stroke-width: 0.5;stroke: rgb(192,192,192);stroke-opacity: 1.0;stroke-linejoin: bevel;stroke-dasharray: 2.0, 2.0;shape-rendering:crispEdges;" transform="matrix(1,0,0,1,0,0)" clip-path="url(#_4784029239466clip-2)"/><line x1="1787.81" y1="35" x2="1787.81" y2="957" style="stroke-width: 0.5;stroke: rgb(192,192,192);stroke-opacity: 1.0;stroke-linejoin: bevel;stroke-dasharray: 2.0, 2.0;shape-rendering:crispEdges;" transform="matrix(1,0,0,1,0,0)" clip-path="url(#_4784029239466clip-2)"/><line x1="1866.85" y1="35" x2="1866.85" y2="957" style="stroke-width: 0.5;stroke: rgb(192,192,192);stroke-opacity: 1.0;stroke-linejoin: bevel;stroke-dasharray: 2.0, 2.0;shape-rendering:crispEdges;" transform="matrix(1,0,0,1,0,0)" clip-path="url(#_4784029239466clip-2)"/><line x1="128" y1="921.35" x2="1908" y2="921.35" style="stroke-width: 0.5;stroke: rgb(192,192,192);stroke-opacity: 1.0;stroke-linejoin: bevel;stroke-dasharray: 2.0, 2.0;shape-rendering:crispEdges;" transform="matrix(1,0,0,1,0,0)" clip-path="url(#_4784029239466clip-2)"/><line x1="128" y1="854.47" x2="1908" y2="854.47" style="stroke-width: 0.5;stroke: rgb(192,192,192);stroke-opacity: 1.0;stroke-linejoin: bevel;stroke-dasharray: 2.0, 2.0;shape-rendering:crispEdges;" transform="matrix(1,0,0,1,0,0)" clip-path="url(#_4784029239466clip-2)"/><line x1="128" y1="787.59" x2="1908" y2="787.59" style="stroke-width: 0.5;stroke: rgb(192,192,192);stroke-opacity: 1.0;stroke-linejoin: bevel;stroke-dasharray: 2.0, 2.0;shape-rendering:crispEdges;" transform="matrix(1,0,0,1,0,0)" clip-path="url(#_4784029239466clip-2)"/><line x1="128" y1="720.71" x2="1908" y2="720.71" style="stroke-width: 0.5;stroke: rgb(192,192,192);stroke-opacity: 1.0;stroke-linejoin: bevel;stroke-dasharray: 2.0, 2.0;shape-rendering:crispEdges;" transform="matrix(1,0,0,1,0,0)" clip-path="url(#_4784029239466clip-2)"/><line x1="128" y1="653.83" x2="1908" y2="653.83" style="stroke-width: 0.5;stroke: rgb(192,192,192);stroke-opacity: 1.0;stroke-linejoin: bevel;stroke-dasharray: 2.0, 2.0;shape-rendering:crispEdges;" transform="matrix(1,0,0,1,0,0)" clip-path="url(#_4784029239466clip-2)"/><line x1="128" y1="586.95" x2="1908" y2="586.95" style="stroke-width: 0.5;stroke: rgb(192,192,192);stroke-opacity: 1.0;stroke-linejoin: bevel;stroke-dasharray: 2.0, 2.0;shape-rendering:crispEdges;" transform="matrix(1,0,0,1,0,0)" clip-path="url(#_4784029239466clip-2)"/><line x1="128" y1="520.07" x2="1908" y2="520.07" style="stroke-width: 0.5;stroke: rgb(192,192,192);stroke-opacity: 1.0;stroke-linejoin: bevel;stroke-dasharray: 2.0, 2.0;shape-rendering:crispEdges;" transform="matrix(1,0,0,1,0,0)" clip-path="url(#_4784029239466clip-2)"/><line x1="128" y1="453.19" x2="1908" y2="453.19" style="stroke-width: 0.5;stroke: rgb(192,192,192);stroke-opacity: 1.0;stroke-linejoin: bevel;stroke-dasharray: 2.0, 2.0;shape-rendering:crispEdges;" transform="matrix(1,0,0,1,0,0)" clip-path="url(#_4784029239466clip-2)"/><line x1="128" y1="386.31" x2="1908" y2="386.31" style="stroke-width: 0.5;stroke: rgb(192,192,192);stroke-opacity: 1.0;stroke-linejoin: bevel;stroke-dasharray: 2.0, 2.0;shape-rendering:crispEdges;" transform="matrix(1,0,0,1,0,0)" clip-path="url(#_4784029239466clip-2)"/><line x1="128" y1="319.43" x2="1908" y2="319.43" style="stroke-width: 0.5;stroke: rgb(192,192,192);stroke-opacity: 1.0;stroke-linejoin: bevel;stroke-dasharray: 2.0, 2.0;shape-rendering:crispEdges;" transform="matrix(1,0,0,1,0,0)" clip-path="url(#_4784029239466clip-2)"/><line x1="128" y1="252.55" x2="1908" y2="252.55" style="stroke-width: 0.5;stroke: rgb(192,192,192);stroke-opacity: 1.0;stroke-linejoin: bevel;stroke-dasharray: 2.0, 2.0;shape-rendering:crispEdges;" transform="matrix(1,0,0,1,0,0)" clip-path="url(#_4784029239466clip-2)"/><line x1="128" y1="185.67" x2="1908" y2="185.67" style="stroke-width: 0.5;stroke: rgb(192,192,192);stroke-opacity: 1.0;stroke-linejoin: bevel;stroke-dasharray: 2.0, 2.0;shape-rendering:crispEdges;" transform="matrix(1,0,0,1,0,0)" clip-path="url(#_4784029239466clip-2)"/><line x1="128" y1="118.79" x2="1908" y2="118.79" style="stroke-width: 0.5;stroke: rgb(192,192,192);stroke-opacity: 1.0;stroke-linejoin: bevel;stroke-dasharray: 2.0, 2.0;shape-rendering:crispEdges;" transform="matrix(1,0,0,1,0,0)" clip-path="url(#_4784029239466clip-2)"/><line x1="128" y1="51.91" x2="1908" y2="51.91" style="stroke-width: 0.5;stroke: rgb(192,192,192);stroke-opacity: 1.0;stroke-linejoin: bevel;stroke-dasharray: 2.0, 2.0;shape-rendering:crispEdges;" transform="matrix(1,0,0,1,0,0)" clip-path="url(#_4784029239466clip-2)"/><line x1="128" y1="905.05" x2="541.5" y2="909.57" style="stroke-width: 1.0;stroke: rgb(64,64,64);stroke-opacity: 1.0;stroke-linecap: square;stroke-linejoin: bevel;shape-rendering:geometricPrecision;" transform="matrix(1,0,0,1,0,0)" clip-path="url(#_4784029239466clip-2)"/><line x1="541.5" y1="909.57" x2="951.49" y2="916.13" style="stroke-width: 1.0;stroke: rgb(64,64,64);stroke-opacity: 1.0;stroke-linecap: square;stroke-linejoin: bevel;shape-rendering:geometricPrecision;" transform="matrix(1,0,0,1,0,0)" clip-path="url(#_4784029239466clip-2)"/><line x1="951.49" y1="916.13" x2="1351.58" y2="928.44" style="stroke-width: 1.0;stroke: rgb(64,64,64);stroke-opacity: 1.0;stroke-linecap: square;stroke-linejoin: bevel;shape-rendering:geometricPrecision;" transform="matrix(1,0,0,1,0,0)" clip-path="url(#_4784029239466clip-2)"/><line x1="1351.58" y1="928.44" x2="1746.18" y2="947.68" style="stroke-width: 1.0;stroke: rgb(64,64,64);stroke-opacity: 1.0;stroke-linecap: square;stroke-linejoin: bevel;shape-rendering:geometricPrecision;" transform="matrix(1,0,0,1,0,0)" clip-path="url(#_4784029239466clip-2)"/><line x1="128" y1="370.42" x2="541.5" y2="296.03" style="stroke-width: 3.0;stroke: rgb(192,192,0);stroke-opacity: 1.0;stroke-linecap: round;stroke-linejoin: round;stroke-dasharray: 10.0, 5.0;shape-rendering:geometricPrecision;" transform="matrix(1,0,0,1,0,0)" clip-path="url(#_4784029239466clip-2)"/><line x1="541.5" y1="296.03" x2="951.49" y2="226.16" style="stroke-width: 3.0;stroke: rgb(192,192,0);stroke-opacity: 1.0;stroke-linecap: round;stroke-linejoin: round;stroke-dasharray: 10.0, 5.0;shape-rendering:geometricPrecision;" transform="matrix(1,0,0,1,0,0)" clip-path="url(#_4784029239466clip-2)"/><line x1="951.49" y1="226.16" x2="1351.58" y2="153.27" style="stroke-width: 3.0;stroke: rgb(192,192,0);stroke-opacity: 1.0;stroke-linecap: round;stroke-linejoin: round;stroke-dasharray: 10.0, 5.0;shape-rendering:geometricPrecision;" transform="matrix(1,0,0,1,0,0)" clip-path="url(#_4784029239466clip-2)"/><line x1="1351.58" y1="153.27" x2="1746.18" y2="109.5" style="stroke-width: 3.0;stroke: rgb(192,192,0);stroke-opacity: 1.0;stroke-linecap: round;stroke-linejoin: round;stroke-dasharray: 10.0, 5.0;shape-rendering:geometricPrecision;" transform="matrix(1,0,0,1,0,0)" clip-path="url(#_4784029239466clip-2)"/><line x1="128" y1="637.73" x2="541.5" y2="659.62" style="stroke-width: 3.0;stroke: rgb(0,192,0);stroke-opacity: 1.0;stroke-linecap: square;shape-rendering:geometricPrecision;" transform="matrix(1,0,0,1,0,0)" clip-path="url(#_4784029239466clip-2)"/><line x1="541.5" y1="659.62" x2="951.49" y2="682.99" style="stroke-width: 3.0;stroke: rgb(0,192,0);stroke-opacity: 1.0;stroke-linecap: square;shape-rendering:geometricPrecision;" transform="matrix(1,0,0,1,0,0)" clip-path="url(#_4784029239466clip-2)"/><line x1="951.49" y1="682.99" x2="1351.58" y2="713.38" style="stroke-width: 3.0;stroke: rgb(0,192,0);stroke-opacity: 1.0;stroke-linecap: square;shape-rendering:geometricPrecision;" transform="matrix(1,0,0,1,0,0)" clip-path="url(#_4784029239466clip-2)"/><line x1="1351.58" y1="713.38" x2="1746.18" y2="741.38" style="stroke-width: 3.0;stroke: rgb(0,192,0);stroke-opacity: 1.0;stroke-linecap: square;shape-rendering:geometricPrecision;" transform="matrix(1,0,0,1,0,0)" clip-path="url(#_4784029239466clip-2)"/><rect x="128" y="35" width="1780" height="922" style="stroke-width: 0.5;stroke: rgb(0,0,0);stroke-opacity: 1.0;stroke-linecap: round;stroke-linejoin: round;shape-rendering:crispEdges;; fill: none" transform="matrix(1,0,0,1,0,0)" clip-path="url(#_4784029239466clip-0)"/></svg>
