<!DOCTYPE svg PUBLIC "-//W3C//DTD SVG 1.1//EN" "http://www.w3.org/Graphics/SVG/1.1/DTD/svg11.dtd">
<svg xmlns="http://www.w3.org/2000/svg" xmlns:xlink="http://www.w3.org/1999/xlink" xmlns:jfreesvg="http://www.jfree.org/jfreesvg/svg" width="1152" height="768" text-rendering="auto" shape-rendering="auto">
<defs><clipPath id="_1742905528790868clip-0"><path d="M 0 0 L 1152 0 L 1152 768 L 0 768 L 0 0 Z "/></clipPath>
<clipPath id="_1742905528790868clip-1"><path d="M 384.5 345.5 L 384.5 1497.5 L -383.5 1497.5 L -383.5 345.5 L 384.5 345.5 Z "/></clipPath>
<clipPath id="_1742905528790868clip-2"><path d="M 73 35 L 73 695 L 1140 695 L 1140 35 Z "/></clipPath>
</defs>
<rect x="0" y="0" width="1152" height="768" style="fill: rgb(255,255,255); fill-opacity: 1.0" transform="matrix(1,0,0,1,0,0)" clip-path="url(#_1742905528790868clip-0)"/><g transform="matrix(1,0,0,1,0,0)"><text x="514.5" y="21.01" style="fill: rgb(0,0,0); fill-opacity: 1.0; font-family: Tahoma; font-size: 20px; font-weight: bold;" clip-path="url(#_1742905528790868clip-0)">Polar_Curve</text></g><rect x="528.5" y="746" width="95" height="21" style="fill: rgb(255,255,255); fill-opacity: 1.0" transform="matrix(1,0,0,1,0,0)" clip-path="url(#_1742905528790868clip-0)"/><g style="stroke-width: 3.0;stroke: rgb(0,0,0);stroke-opacity: 1.0;stroke-linecap: square;shape-rendering:geometricPrecision;; fill: none" transform="matrix(1,0,0,1,0,0)" clip-path="url(#_1742905528790868clip-0)"><path d="M 531.5 756.5 L 545.5 756.5"/></g><g transform="matrix(1,0,0,1,0,0)"><text x="549.5" y="761.01" style="fill: rgb(64,64,64); fill-opacity: 1.0; font-family: Tahoma; font-size: 12px;" clip-path="url(#_1742905528790868clip-0)"> Polar_Curve </text></g><rect x="73" y="35" width="1067" height="660" style="fill: rgb(255,255,255); fill-opacity: 0.0" transform="matrix(1,0,0,1,0,0)" clip-path="url(#_1742905528790868clip-0)"/><line x1="73" y1="699" x2="1140" y2="699" style="stroke-width: 0.5;stroke: rgb(128,128,128);stroke-opacity: 1.0;stroke-linecap: square;shape-rendering:crispEdges;" transform="matrix(1,0,0,1,0,0)" clip-path="url(#_1742905528790868clip-0)"/><g transform="matrix(1,0,0,1,0,0)"><text x="91.94" y="715.52" style="fill: rgb(64,64,64); fill-opacity: 1.0; font-family: Tahoma; font-size: 12px;" clip-path="url(#_1742905528790868clip-0)">-11</text></g><line x1="100.44" y1="701" x2="100.44" y2="699" style="stroke-width: 0.5;stroke: rgb(128,128,128);stroke-opacity: 1.0;stroke-linecap: square;shape-rendering:crispEdges;" transform="matrix(1,0,0,1,0,0)" clip-path="url(#_1742905528790868clip-0)"/><g transform="matrix(1,0,0,1,0,0)"><text x="125.47" y="715.52" style="fill: rgb(64,64,64); fill-opacity: 1.0; font-family: Tahoma; font-size: 12px;" clip-path="url(#_1742905528790868clip-0)">-10</text></g><line x1="133.97" y1="701" x2="133.97" y2="699" style="stroke-width: 0.5;stroke: rgb(128,128,128);stroke-opacity: 1.0;stroke-linecap: square;shape-rendering:crispEdges;" transform="matrix(1,0,0,1,0,0)" clip-path="url(#_1742905528790868clip-0)"/><g transform="matrix(1,0,0,1,0,0)"><text x="162.01" y="715.52" style="fill: rgb(64,64,64); fill-opacity: 1.0; font-family: Tahoma; font-size: 12px;" clip-path="url(#_1742905528790868clip-0)">-9</text></g><line x1="167.51" y1="701" x2="167.51" y2="699" style="stroke-width: 0.5;stroke: rgb(128,128,128);stroke-opacity: 1.0;stroke-linecap: square;shape-rendering:crispEdges;" transform="matrix(1,0,0,1,0,0)" clip-path="url(#_1742905528790868clip-0)"/><g transform="matrix(1,0,0,1,0,0)"><text x="195.54" y="715.52" style="fill: rgb(64,64,64); fill-opacity: 1.0; font-family: Tahoma; font-size: 12px;" clip-path="url(#_1742905528790868clip-0)">-8</text></g><line x1="201.04" y1="701" x2="201.04" y2="699" style="stroke-width: 0.5;stroke: rgb(128,128,128);stroke-opacity: 1.0;stroke-linecap: square;shape-rendering:crispEdges;" transform="matrix(1,0,0,1,0,0)" clip-path="url(#_1742905528790868clip-0)"/><g transform="matrix(1,0,0,1,0,0)"><text x="229.07" y="715.52" style="fill: rgb(64,64,64); fill-opacity: 1.0; font-family: Tahoma; font-size: 12px;" clip-path="url(#_1742905528790868clip-0)">-7</text></g><line x1="234.57" y1="701" x2="234.57" y2="699" style="stroke-width: 0.5;stroke: rgb(128,128,128);stroke-opacity: 1.0;stroke-linecap: square;shape-rendering:crispEdges;" transform="matrix(1,0,0,1,0,0)" clip-path="url(#_1742905528790868clip-0)"/><g transform="matrix(1,0,0,1,0,0)"><text x="262.61" y="715.52" style="fill: rgb(64,64,64); fill-opacity: 1.0; font-family: Tahoma; font-size: 12px;" clip-path="url(#_1742905528790868clip-0)">-6</text></g><line x1="268.11" y1="701" x2="268.11" y2="699" style="stroke-width: 0.5;stroke: rgb(128,128,128);stroke-opacity: 1.0;stroke-linecap: square;shape-rendering:crispEdges;" transform="matrix(1,0,0,1,0,0)" clip-path="url(#_1742905528790868clip-0)"/><g transform="matrix(1,0,0,1,0,0)"><text x="296.14" y="715.52" style="fill: rgb(64,64,64); fill-opacity: 1.0; font-family: Tahoma; font-size: 12px;" clip-path="url(#_1742905528790868clip-0)">-5</text></g><line x1="301.64" y1="701" x2="301.64" y2="699" style="stroke-width: 0.5;stroke: rgb(128,128,128);stroke-opacity: 1.0;stroke-linecap: square;shape-rendering:crispEdges;" transform="matrix(1,0,0,1,0,0)" clip-path="url(#_1742905528790868clip-0)"/><g transform="matrix(1,0,0,1,0,0)"><text x="329.68" y="715.52" style="fill: rgb(64,64,64); fill-opacity: 1.0; font-family: Tahoma; font-size: 12px;" clip-path="url(#_1742905528790868clip-0)">-4</text></g><line x1="335.18" y1="701" x2="335.18" y2="699" style="stroke-width: 0.5;stroke: rgb(128,128,128);stroke-opacity: 1.0;stroke-linecap: square;shape-rendering:crispEdges;" transform="matrix(1,0,0,1,0,0)" clip-path="url(#_1742905528790868clip-0)"/><g transform="matrix(1,0,0,1,0,0)"><text x="363.21" y="715.52" style="fill: rgb(64,64,64); fill-opacity: 1.0; font-family: Tahoma; font-size: 12px;" clip-path="url(#_1742905528790868clip-0)">-3</text></g><line x1="368.71" y1="701" x2="368.71" y2="699" style="stroke-width: 0.5;stroke: rgb(128,128,128);stroke-opacity: 1.0;stroke-linecap: square;shape-rendering:crispEdges;" transform="matrix(1,0,0,1,0,0)" clip-path="url(#_1742905528790868clip-0)"/><g transform="matrix(1,0,0,1,0,0)"><text x="396.75" y="715.52" style="fill: rgb(64,64,64); fill-opacity: 1.0; font-family: Tahoma; font-size: 12px;" clip-path="url(#_1742905528790868clip-0)">-2</text></g><line x1="402.25" y1="701" x2="402.25" y2="699" style="stroke-width: 0.5;stroke: rgb(128,128,128);stroke-opacity: 1.0;stroke-linecap: square;shape-rendering:crispEdges;" transform="matrix(1,0,0,1,0,0)" clip-path="url(#_1742905528790868clip-0)"/><g transform="matrix(1,0,0,1,0,0)"><text x="430.28" y="715.52" style="fill: rgb(64,64,64); fill-opacity: 1.0; font-family: Tahoma; font-size: 12px;" clip-path="url(#_1742905528790868clip-0)">-1</text></g><line x1="435.78" y1="701" x2="435.78" y2="699" style="stroke-width: 0.5;stroke: rgb(128,128,128);stroke-opacity: 1.0;stroke-linecap: square;shape-rendering:crispEdges;" transform="matrix(1,0,0,1,0,0)" clip-path="url(#_1742905528790868clip-0)"/><g transform="matrix(1,0,0,1,0,0)"><text x="465.81" y="715.52" style="fill: rgb(64,64,64); fill-opacity: 1.0; font-family: Tahoma; font-size: 12px;" clip-path="url(#_1742905528790868clip-0)">0</text></g><line x1="469.31" y1="701" x2="469.31" y2="699" style="stroke-width: 0.5;stroke: rgb(128,128,128);stroke-opacity: 1.0;stroke-linecap: square;shape-rendering:crispEdges;" transform="matrix(1,0,0,1,0,0)" clip-path="url(#_1742905528790868clip-0)"/><g transform="matrix(1,0,0,1,0,0)"><text x="499.35" y="715.52" style="fill: rgb(64,64,64); fill-opacity: 1.0; font-family: Tahoma; font-size: 12px;" clip-path="url(#_1742905528790868clip-0)">1</text></g><line x1="502.85" y1="701" x2="502.85" y2="699" style="stroke-width: 0.5;stroke: rgb(128,128,128);stroke-opacity: 1.0;stroke-linecap: square;shape-rendering:crispEdges;" transform="matrix(1,0,0,1,0,0)" clip-path="url(#_1742905528790868clip-0)"/><g transform="matrix(1,0,0,1,0,0)"><text x="532.88" y="715.52" style="fill: rgb(64,64,64); fill-opacity: 1.0; font-family: Tahoma; font-size: 12px;" clip-path="url(#_1742905528790868clip-0)">2</text></g><line x1="536.38" y1="701" x2="536.38" y2="699" style="stroke-width: 0.5;stroke: rgb(128,128,128);stroke-opacity: 1.0;stroke-linecap: square;shape-rendering:crispEdges;" transform="matrix(1,0,0,1,0,0)" clip-path="url(#_1742905528790868clip-0)"/><g transform="matrix(1,0,0,1,0,0)"><text x="566.42" y="715.52" style="fill: rgb(64,64,64); fill-opacity: 1.0; font-family: Tahoma; font-size: 12px;" clip-path="url(#_1742905528790868clip-0)">3</text></g><line x1="569.92" y1="701" x2="569.92" y2="699" style="stroke-width: 0.5;stroke: rgb(128,128,128);stroke-opacity: 1.0;stroke-linecap: square;shape-rendering:crispEdges;" transform="matrix(1,0,0,1,0,0)" clip-path="url(#_1742905528790868clip-0)"/><g transform="matrix(1,0,0,1,0,0)"><text x="599.95" y="715.52" style="fill: rgb(64,64,64); fill-opacity: 1.0; font-family: Tahoma; font-size: 12px;" clip-path="url(#_1742905528790868clip-0)">4</text></g><line x1="603.45" y1="701" x2="603.45" y2="699" style="stroke-width: 0.5;stroke: rgb(128,128,128);stroke-opacity: 1.0;stroke-linecap: square;shape-rendering:crispEdges;" transform="matrix(1,0,0,1,0,0)" clip-path="url(#_1742905528790868clip-0)"/><g transform="matrix(1,0,0,1,0,0)"><text x="633.49" y="715.52" style="fill: rgb(64,64,64); fill-opacity: 1.0; font-family: Tahoma; font-size: 12px;" clip-path="url(#_1742905528790868clip-0)">5</text></g><line x1="636.99" y1="701" x2="636.99" y2="699" style="stroke-width: 0.5;stroke: rgb(128,128,128);stroke-opacity: 1.0;stroke-linecap: square;shape-rendering:crispEdges;" transform="matrix(1,0,0,1,0,0)" clip-path="url(#_1742905528790868clip-0)"/><g transform="matrix(1,0,0,1,0,0)"><text x="667.02" y="715.52" style="fill: rgb(64,64,64); fill-opacity: 1.0; font-family: Tahoma; font-size: 12px;" clip-path="url(#_1742905528790868clip-0)">6</text></g><line x1="670.52" y1="701" x2="670.52" y2="699" style="stroke-width: 0.5;stroke: rgb(128,128,128);stroke-opacity: 1.0;stroke-linecap: square;shape-rendering:crispEdges;" transform="matrix(1,0,0,1,0,0)" clip-path="url(#_1742905528790868clip-0)"/><g transform="matrix(1,0,0,1,0,0)"><text x="700.55" y="715.52" style="fill: rgb(64,64,64); fill-opacity: 1.0; font-family: Tahoma; font-size: 12px;" clip-path="url(#_1742905528790868clip-0)">7</text></g><line x1="704.05" y1="701" x2="704.05" y2="699" style="stroke-width: 0.5;stroke: rgb(128,128,128);stroke-opacity: 1.0;stroke-linecap: square;shape-rendering:crispEdges;" transform="matrix(1,0,0,1,0,0)" clip-path="url(#_1742905528790868clip-0)"/><g transform="matrix(1,0,0,1,0,0)"><text x="734.09" y="715.52" style="fill: rgb(64,64,64); fill-opacity: 1.0; font-family: Tahoma; font-size: 12px;" clip-path="url(#_1742905528790868clip-0)">8</text></g><line x1="737.59" y1="701" x2="737.59" y2="699" style="stroke-width: 0.5;stroke: rgb(128,128,128);stroke-opacity: 1.0;stroke-linecap: square;shape-rendering:crispEdges;" transform="matrix(1,0,0,1,0,0)" clip-path="url(#_1742905528790868clip-0)"/><g transform="matrix(1,0,0,1,0,0)"><text x="767.62" y="715.52" style="fill: rgb(64,64,64); fill-opacity: 1.0; font-family: Tahoma; font-size: 12px;" clip-path="url(#_1742905528790868clip-0)">9</text></g><line x1="771.12" y1="701" x2="771.12" y2="699" style="stroke-width: 0.5;stroke: rgb(128,128,128);stroke-opacity: 1.0;stroke-linecap: square;shape-rendering:crispEdges;" transform="matrix(1,0,0,1,0,0)" clip-path="url(#_1742905528790868clip-0)"/><g transform="matrix(1,0,0,1,0,0)"><text x="798.16" y="715.52" style="fill: rgb(64,64,64); fill-opacity: 1.0; font-family: Tahoma; font-size: 12px;" clip-path="url(#_1742905528790868clip-0)">10</text></g><line x1="804.66" y1="701" x2="804.66" y2="699" style="stroke-width: 0.5;stroke: rgb(128,128,128);stroke-opacity: 1.0;stroke-linecap: square;shape-rendering:crispEdges;" transform="matrix(1,0,0,1,0,0)" clip-path="url(#_1742905528790868clip-0)"/><g transform="matrix(1,0,0,1,0,0)"><text x="831.69" y="715.52" style="fill: rgb(64,64,64); fill-opacity: 1.0; font-family: Tahoma; font-size: 12px;" clip-path="url(#_1742905528790868clip-0)">11</text></g><line x1="838.19" y1="701" x2="838.19" y2="699" style="stroke-width: 0.5;stroke: rgb(128,128,128);stroke-opacity: 1.0;stroke-linecap: square;shape-rendering:crispEdges;" transform="matrix(1,0,0,1,0,0)" clip-path="url(#_1742905528790868clip-0)"/><g transform="matrix(1,0,0,1,0,0)"><text x="865.23" y="715.52" style="fill: rgb(64,64,64); fill-opacity: 1.0; font-family: Tahoma; font-size: 12px;" clip-path="url(#_1742905528790868clip-0)">12</text></g><line x1="871.73" y1="701" x2="871.73" y2="699" style="stroke-width: 0.5;stroke: rgb(128,128,128);stroke-opacity: 1.0;stroke-linecap: square;shape-rendering:crispEdges;" transform="matrix(1,0,0,1,0,0)" clip-path="url(#_1742905528790868clip-0)"/><g transform="matrix(1,0,0,1,0,0)"><text x="898.76" y="715.52" style="fill: rgb(64,64,64); fill-opacity: 1.0; font-family: Tahoma; font-size: 12px;" clip-path="url(#_1742905528790868clip-0)">13</text></g><line x1="905.26" y1="701" x2="905.26" y2="699" style="stroke-width: 0.5;stroke: rgb(128,128,128);stroke-opacity: 1.0;stroke-linecap: square;shape-rendering:crispEdges;" transform="matrix(1,0,0,1,0,0)" clip-path="url(#_1742905528790868clip-0)"/><g transform="matrix(1,0,0,1,0,0)"><text x="932.29" y="715.52" style="fill: rgb(64,64,64); fill-opacity: 1.0; font-family: Tahoma; font-size: 12px;" clip-path="url(#_1742905528790868clip-0)">14</text></g><line x1="938.79" y1="701" x2="938.79" y2="699" style="stroke-width: 0.5;stroke: rgb(128,128,128);stroke-opacity: 1.0;stroke-linecap: square;shape-rendering:crispEdges;" transform="matrix(1,0,0,1,0,0)" clip-path="url(#_1742905528790868clip-0)"/><g transform="matrix(1,0,0,1,0,0)"><text x="965.83" y="715.52" style="fill: rgb(64,64,64); fill-opacity: 1.0; font-family: Tahoma; font-size: 12px;" clip-path="url(#_1742905528790868clip-0)">15</text></g><line x1="972.33" y1="701" x2="972.33" y2="699" style="stroke-width: 0.5;stroke: rgb(128,128,128);stroke-opacity: 1.0;stroke-linecap: square;shape-rendering:crispEdges;" transform="matrix(1,0,0,1,0,0)" clip-path="url(#_1742905528790868clip-0)"/><g transform="matrix(1,0,0,1,0,0)"><text x="999.36" y="715.52" style="fill: rgb(64,64,64); fill-opacity: 1.0; font-family: Tahoma; font-size: 12px;" clip-path="url(#_1742905528790868clip-0)">16</text></g><line x1="1005.86" y1="701" x2="1005.86" y2="699" style="stroke-width: 0.5;stroke: rgb(128,128,128);stroke-opacity: 1.0;stroke-linecap: square;shape-rendering:crispEdges;" transform="matrix(1,0,0,1,0,0)" clip-path="url(#_1742905528790868clip-0)"/><g transform="matrix(1,0,0,1,0,0)"><text x="1032.9" y="715.52" style="fill: rgb(64,64,64); fill-opacity: 1.0; font-family: Tahoma; font-size: 12px;" clip-path="url(#_1742905528790868clip-0)">17</text></g><line x1="1039.4" y1="701" x2="1039.4" y2="699" style="stroke-width: 0.5;stroke: rgb(128,128,128);stroke-opacity: 1.0;stroke-linecap: square;shape-rendering:crispEdges;" transform="matrix(1,0,0,1,0,0)" clip-path="url(#_1742905528790868clip-0)"/><g transform="matrix(1,0,0,1,0,0)"><text x="1066.43" y="715.52" style="fill: rgb(64,64,64); fill-opacity: 1.0; font-family: Tahoma; font-size: 12px;" clip-path="url(#_1742905528790868clip-0)">18</text></g><line x1="1072.93" y1="701" x2="1072.93" y2="699" style="stroke-width: 0.5;stroke: rgb(128,128,128);stroke-opacity: 1.0;stroke-linecap: square;shape-rendering:crispEdges;" transform="matrix(1,0,0,1,0,0)" clip-path="url(#_1742905528790868clip-0)"/><g transform="matrix(1,0,0,1,0,0)"><text x="1099.97" y="715.52" style="fill: rgb(64,64,64); fill-opacity: 1.0; font-family: Tahoma; font-size: 12px;" clip-path="url(#_1742905528790868clip-0)">19</text></g><line x1="1106.47" y1="701" x2="1106.47" y2="699" style="stroke-width: 0.5;stroke: rgb(128,128,128);stroke-opacity: 1.0;stroke-linecap: square;shape-rendering:crispEdges;" transform="matrix(1,0,0,1,0,0)" clip-path="url(#_1742905528790868clip-0)"/><g transform="matrix(1,0,0,1,0,0)"><text x="557" y="734.59" style="fill: rgb(64,64,64); fill-opacity: 1.0; font-family: Tahoma; font-size: 14px; font-weight: bold;" clip-path="url(#_1742905528790868clip-0)">alpha_b (deg)</text></g><line x1="69" y1="35" x2="69" y2="695" style="stroke-width: 0.5;stroke: rgb(128,128,128);stroke-opacity: 1.0;stroke-linecap: square;shape-rendering:crispEdges;" transform="matrix(1,0,0,1,0,0)" clip-path="url(#_1742905528790868clip-0)"/><g transform="matrix(1,0,0,1,0,0)"><text x="33" y="689.3" style="fill: rgb(64,64,64); fill-opacity: 1.0; font-family: Tahoma; font-size: 12px;" clip-path="url(#_1742905528790868clip-0)">0,004</text></g><line x1="67" y1="684.27" x2="69" y2="684.27" style="stroke-width: 0.5;stroke: rgb(128,128,128);stroke-opacity: 1.0;stroke-linecap: square;shape-rendering:crispEdges;" transform="matrix(1,0,0,1,0,0)" clip-path="url(#_1742905528790868clip-0)"/><g transform="matrix(1,0,0,1,0,0)"><text x="33" y="657.58" style="fill: rgb(64,64,64); fill-opacity: 1.0; font-family: Tahoma; font-size: 12px;" clip-path="url(#_1742905528790868clip-0)">0,006</text></g><line x1="67" y1="652.56" x2="69" y2="652.56" style="stroke-width: 0.5;stroke: rgb(128,128,128);stroke-opacity: 1.0;stroke-linecap: square;shape-rendering:crispEdges;" transform="matrix(1,0,0,1,0,0)" clip-path="url(#_1742905528790868clip-0)"/><g transform="matrix(1,0,0,1,0,0)"><text x="33" y="625.87" style="fill: rgb(64,64,64); fill-opacity: 1.0; font-family: Tahoma; font-size: 12px;" clip-path="url(#_1742905528790868clip-0)">0,008</text></g><line x1="67" y1="620.84" x2="69" y2="620.84" style="stroke-width: 0.5;stroke: rgb(128,128,128);stroke-opacity: 1.0;stroke-linecap: square;shape-rendering:crispEdges;" transform="matrix(1,0,0,1,0,0)" clip-path="url(#_1742905528790868clip-0)"/><g transform="matrix(1,0,0,1,0,0)"><text x="33" y="594.15" style="fill: rgb(64,64,64); fill-opacity: 1.0; font-family: Tahoma; font-size: 12px;" clip-path="url(#_1742905528790868clip-0)">0,010</text></g><line x1="67" y1="589.13" x2="69" y2="589.13" style="stroke-width: 0.5;stroke: rgb(128,128,128);stroke-opacity: 1.0;stroke-linecap: square;shape-rendering:crispEdges;" transform="matrix(1,0,0,1,0,0)" clip-path="url(#_1742905528790868clip-0)"/><g transform="matrix(1,0,0,1,0,0)"><text x="33" y="562.44" style="fill: rgb(64,64,64); fill-opacity: 1.0; font-family: Tahoma; font-size: 12px;" clip-path="url(#_1742905528790868clip-0)">0,012</text></g><line x1="67" y1="557.41" x2="69" y2="557.41" style="stroke-width: 0.5;stroke: rgb(128,128,128);stroke-opacity: 1.0;stroke-linecap: square;shape-rendering:crispEdges;" transform="matrix(1,0,0,1,0,0)" clip-path="url(#_1742905528790868clip-0)"/><g transform="matrix(1,0,0,1,0,0)"><text x="33" y="530.72" style="fill: rgb(64,64,64); fill-opacity: 1.0; font-family: Tahoma; font-size: 12px;" clip-path="url(#_1742905528790868clip-0)">0,014</text></g><line x1="67" y1="525.7" x2="69" y2="525.7" style="stroke-width: 0.5;stroke: rgb(128,128,128);stroke-opacity: 1.0;stroke-linecap: square;shape-rendering:crispEdges;" transform="matrix(1,0,0,1,0,0)" clip-path="url(#_1742905528790868clip-0)"/><g transform="matrix(1,0,0,1,0,0)"><text x="33" y="499.01" style="fill: rgb(64,64,64); fill-opacity: 1.0; font-family: Tahoma; font-size: 12px;" clip-path="url(#_1742905528790868clip-0)">0,016</text></g><line x1="67" y1="493.98" x2="69" y2="493.98" style="stroke-width: 0.5;stroke: rgb(128,128,128);stroke-opacity: 1.0;stroke-linecap: square;shape-rendering:crispEdges;" transform="matrix(1,0,0,1,0,0)" clip-path="url(#_1742905528790868clip-0)"/><g transform="matrix(1,0,0,1,0,0)"><text x="33" y="467.29" style="fill: rgb(64,64,64); fill-opacity: 1.0; font-family: Tahoma; font-size: 12px;" clip-path="url(#_1742905528790868clip-0)">0,018</text></g><line x1="67" y1="462.27" x2="69" y2="462.27" style="stroke-width: 0.5;stroke: rgb(128,128,128);stroke-opacity: 1.0;stroke-linecap: square;shape-rendering:crispEdges;" transform="matrix(1,0,0,1,0,0)" clip-path="url(#_1742905528790868clip-0)"/><g transform="matrix(1,0,0,1,0,0)"><text x="33" y="435.58" style="fill: rgb(64,64,64); fill-opacity: 1.0; font-family: Tahoma; font-size: 12px;" clip-path="url(#_1742905528790868clip-0)">0,020</text></g><line x1="67" y1="430.56" x2="69" y2="430.56" style="stroke-width: 0.5;stroke: rgb(128,128,128);stroke-opacity: 1.0;stroke-linecap: square;shape-rendering:crispEdges;" transform="matrix(1,0,0,1,0,0)" clip-path="url(#_1742905528790868clip-0)"/><g transform="matrix(1,0,0,1,0,0)"><text x="33" y="403.86" style="fill: rgb(64,64,64); fill-opacity: 1.0; font-family: Tahoma; font-size: 12px;" clip-path="url(#_1742905528790868clip-0)">0,022</text></g><line x1="67" y1="398.84" x2="69" y2="398.84" style="stroke-width: 0.5;stroke: rgb(128,128,128);stroke-opacity: 1.0;stroke-linecap: square;shape-rendering:crispEdges;" transform="matrix(1,0,0,1,0,0)" clip-path="url(#_1742905528790868clip-0)"/><g transform="matrix(1,0,0,1,0,0)"><text x="33" y="372.15" style="fill: rgb(64,64,64); fill-opacity: 1.0; font-family: Tahoma; font-size: 12px;" clip-path="url(#_1742905528790868clip-0)">0,024</text></g><line x1="67" y1="367.13" x2="69" y2="367.13" style="stroke-width: 0.5;stroke: rgb(128,128,128);stroke-opacity: 1.0;stroke-linecap: square;shape-rendering:crispEdges;" transform="matrix(1,0,0,1,0,0)" clip-path="url(#_1742905528790868clip-0)"/><g transform="matrix(1,0,0,1,0,0)"><text x="33" y="340.43" style="fill: rgb(64,64,64); fill-opacity: 1.0; font-family: Tahoma; font-size: 12px;" clip-path="url(#_1742905528790868clip-0)">0,026</text></g><line x1="67" y1="335.41" x2="69" y2="335.41" style="stroke-width: 0.5;stroke: rgb(128,128,128);stroke-opacity: 1.0;stroke-linecap: square;shape-rendering:crispEdges;" transform="matrix(1,0,0,1,0,0)" clip-path="url(#_1742905528790868clip-0)"/><g transform="matrix(1,0,0,1,0,0)"><text x="33" y="308.72" style="fill: rgb(64,64,64); fill-opacity: 1.0; font-family: Tahoma; font-size: 12px;" clip-path="url(#_1742905528790868clip-0)">0,028</text></g><line x1="67" y1="303.7" x2="69" y2="303.7" style="stroke-width: 0.5;stroke: rgb(128,128,128);stroke-opacity: 1.0;stroke-linecap: square;shape-rendering:crispEdges;" transform="matrix(1,0,0,1,0,0)" clip-path="url(#_1742905528790868clip-0)"/><g transform="matrix(1,0,0,1,0,0)"><text x="33" y="277" style="fill: rgb(64,64,64); fill-opacity: 1.0; font-family: Tahoma; font-size: 12px;" clip-path="url(#_1742905528790868clip-0)">0,030</text></g><line x1="67" y1="271.98" x2="69" y2="271.98" style="stroke-width: 0.5;stroke: rgb(128,128,128);stroke-opacity: 1.0;stroke-linecap: square;shape-rendering:crispEdges;" transform="matrix(1,0,0,1,0,0)" clip-path="url(#_1742905528790868clip-0)"/><g transform="matrix(1,0,0,1,0,0)"><text x="33" y="245.29" style="fill: rgb(64,64,64); fill-opacity: 1.0; font-family: Tahoma; font-size: 12px;" clip-path="url(#_1742905528790868clip-0)">0,032</text></g><line x1="67" y1="240.27" x2="69" y2="240.27" style="stroke-width: 0.5;stroke: rgb(128,128,128);stroke-opacity: 1.0;stroke-linecap: square;shape-rendering:crispEdges;" transform="matrix(1,0,0,1,0,0)" clip-path="url(#_1742905528790868clip-0)"/><g transform="matrix(1,0,0,1,0,0)"><text x="33" y="213.57" style="fill: rgb(64,64,64); fill-opacity: 1.0; font-family: Tahoma; font-size: 12px;" clip-path="url(#_1742905528790868clip-0)">0,034</text></g><line x1="67" y1="208.55" x2="69" y2="208.55" style="stroke-width: 0.5;stroke: rgb(128,128,128);stroke-opacity: 1.0;stroke-linecap: square;shape-rendering:crispEdges;" transform="matrix(1,0,0,1,0,0)" clip-path="url(#_1742905528790868clip-0)"/><g transform="matrix(1,0,0,1,0,0)"><text x="33" y="181.86" style="fill: rgb(64,64,64); fill-opacity: 1.0; font-family: Tahoma; font-size: 12px;" clip-path="url(#_1742905528790868clip-0)">0,036</text></g><line x1="67" y1="176.84" x2="69" y2="176.84" style="stroke-width: 0.5;stroke: rgb(128,128,128);stroke-opacity: 1.0;stroke-linecap: square;shape-rendering:crispEdges;" transform="matrix(1,0,0,1,0,0)" clip-path="url(#_1742905528790868clip-0)"/><g transform="matrix(1,0,0,1,0,0)"><text x="33" y="150.14" style="fill: rgb(64,64,64); fill-opacity: 1.0; font-family: Tahoma; font-size: 12px;" clip-path="url(#_1742905528790868clip-0)">0,038</text></g><line x1="67" y1="145.12" x2="69" y2="145.12" style="stroke-width: 0.5;stroke: rgb(128,128,128);stroke-opacity: 1.0;stroke-linecap: square;shape-rendering:crispEdges;" transform="matrix(1,0,0,1,0,0)" clip-path="url(#_1742905528790868clip-0)"/><g transform="matrix(1,0,0,1,0,0)"><text x="33" y="118.43" style="fill: rgb(64,64,64); fill-opacity: 1.0; font-family: Tahoma; font-size: 12px;" clip-path="url(#_1742905528790868clip-0)">0,040</text></g><line x1="67" y1="113.41" x2="69" y2="113.41" style="stroke-width: 0.5;stroke: rgb(128,128,128);stroke-opacity: 1.0;stroke-linecap: square;shape-rendering:crispEdges;" transform="matrix(1,0,0,1,0,0)" clip-path="url(#_1742905528790868clip-0)"/><g transform="matrix(1,0,0,1,0,0)"><text x="33" y="86.71" style="fill: rgb(64,64,64); fill-opacity: 1.0; font-family: Tahoma; font-size: 12px;" clip-path="url(#_1742905528790868clip-0)">0,042</text></g><line x1="67" y1="81.69" x2="69" y2="81.69" style="stroke-width: 0.5;stroke: rgb(128,128,128);stroke-opacity: 1.0;stroke-linecap: square;shape-rendering:crispEdges;" transform="matrix(1,0,0,1,0,0)" clip-path="url(#_1742905528790868clip-0)"/><g transform="matrix(1,0,0,1,0,0)"><text x="33" y="55" style="fill: rgb(64,64,64); fill-opacity: 1.0; font-family: Tahoma; font-size: 12px;" clip-path="url(#_1742905528790868clip-0)">0,044</text></g><line x1="67" y1="49.98" x2="69" y2="49.98" style="stroke-width: 0.5;stroke: rgb(128,128,128);stroke-opacity: 1.0;stroke-linecap: square;shape-rendering:crispEdges;" transform="matrix(1,0,0,1,0,0)" clip-path="url(#_1742905528790868clip-0)"/><g style="fill: rgb(64,64,64); fill-opacity: 1.0; stroke: none" transform="matrix(0,-1,1,0,-345.5,384.5)" clip-path="url(#_1742905528790868clip-1)"><path d="M 12.94 370.81 Q 10.66 370.81 9.3 369.42 Q 7.95 368.03 7.95 365.53 Q 7.95 363.11 9.3 361.67 Q 10.66 360.23 12.95 360.23 Q 13.56 360.23 14.05 360.3 Q 14.53 360.37 14.97 360.48 Q 15.33 360.59 15.73 360.77 Q 16.14 360.95 16.39 361.08 L 16.39 363.5 L 16.14 363.5 Q 15.95 363.34 15.67 363.12 Q 15.39 362.89 15.03 362.67 Q 14.67 362.45 14.25 362.3 Q 13.83 362.14 13.36 362.14 Q 12.81 362.14 12.34 362.31 Q 11.88 362.48 11.47 362.92 Q 11.08 363.31 10.84 363.98 Q 10.59 364.64 10.59 365.53 Q 10.59 366.48 10.85 367.13 Q 11.11 367.78 11.52 368.17 Q 11.91 368.56 12.4 368.73 Q 12.89 368.91 13.38 368.91 Q 13.88 368.91 14.34 368.73 Q 14.8 368.56 15.11 368.36 Q 15.45 368.14 15.71 367.92 Q 15.97 367.7 16.16 367.55 L 16.39 367.55 L 16.39 369.94 Q 16.11 370.06 15.74 370.23 Q 15.38 370.39 14.98 370.51 Q 14.5 370.66 14.09 370.73 Q 13.67 370.81 12.94 370.81 Z  M 26.99 365.53 Q 26.99 366.95 26.37 368.08 Q 25.75 369.2 24.8 369.8 Q 24 370.31 23.07 370.46 Q 22.14 370.61 21.08 370.61 L 17.89 370.61 L 17.89 360.44 L 21.06 360.44 Q 22.13 360.44 23.06 360.57 Q 24 360.7 24.83 361.23 Q 25.83 361.87 26.41 362.96 Q 26.99 364.05 26.99 365.53 Z  M 24.36 365.51 Q 24.36 364.5 24.02 363.79 Q 23.67 363.08 22.95 362.67 Q 22.44 362.39 21.87 362.36 Q 21.3 362.33 20.5 362.33 L 20.45 362.33 L 20.45 368.7 L 20.5 368.7 Q 21.36 368.7 21.95 368.67 Q 22.55 368.64 23.08 368.31 Q 23.7 367.91 24.03 367.21 Q 24.36 366.51 24.36 365.51 Z "/></g><line x1="100.44" y1="35" x2="100.44" y2="695" style="stroke-width: 0.5;stroke: rgb(192,192,192);stroke-opacity: 1.0;stroke-linejoin: bevel;stroke-dasharray: 2.0, 2.0;shape-rendering:crispEdges;" transform="matrix(1,0,0,1,0,0)" clip-path="url(#_1742905528790868clip-2)"/><line x1="133.97" y1="35" x2="133.97" y2="695" style="stroke-width: 0.5;stroke: rgb(192,192,192);stroke-opacity: 1.0;stroke-linejoin: bevel;stroke-dasharray: 2.0, 2.0;shape-rendering:crispEdges;" transform="matrix(1,0,0,1,0,0)" clip-path="url(#_1742905528790868clip-2)"/><line x1="167.51" y1="35" x2="167.51" y2="695" style="stroke-width: 0.5;stroke: rgb(192,192,192);stroke-opacity: 1.0;stroke-linejoin: bevel;stroke-dasharray: 2.0, 2.0;shape-rendering:crispEdges;" transform="matrix(1,0,0,1,0,0)" clip-path="url(#_1742905528790868clip-2)"/><line x1="201.04" y1="35" x2="201.04" y2="695" style="stroke-width: 0.5;stroke: rgb(192,192,192);stroke-opacity: 1.0;stroke-linejoin: bevel;stroke-dasharray: 2.0, 2.0;shape-rendering:crispEdges;" transform="matrix(1,0,0,1,0,0)" clip-path="url(#_1742905528790868clip-2)"/><line x1="234.57" y1="35" x2="234.57" y2="695" style="stroke-width: 0.5;stroke: rgb(192,192,192);stroke-opacity: 1.0;stroke-linejoin: bevel;stroke-dasharray: 2.0, 2.0;shape-rendering:crispEdges;" transform="matrix(1,0,0,1,0,0)" clip-path="url(#_1742905528790868clip-2)"/><line x1="268.11" y1="35" x2="268.11" y2="695" style="stroke-width: 0.5;stroke: rgb(192,192,192);stroke-opacity: 1.0;stroke-linejoin: bevel;stroke-dasharray: 2.0, 2.0;shape-rendering:crispEdges;" transform="matrix(1,0,0,1,0,0)" clip-path="url(#_1742905528790868clip-2)"/><line x1="301.64" y1="35" x2="301.64" y2="695" style="stroke-width: 0.5;stroke: rgb(192,192,192);stroke-opacity: 1.0;stroke-linejoin: bevel;stroke-dasharray: 2.0, 2.0;shape-rendering:crispEdges;" transform="matrix(1,0,0,1,0,0)" clip-path="url(#_1742905528790868clip-2)"/><line x1="335.18" y1="35" x2="335.18" y2="695" style="stroke-width: 0.5;stroke: rgb(192,192,192);stroke-opacity: 1.0;stroke-linejoin: bevel;stroke-dasharray: 2.0, 2.0;shape-rendering:crispEdges;" transform="matrix(1,0,0,1,0,0)" clip-path="url(#_1742905528790868clip-2)"/><line x1="368.71" y1="35" x2="368.71" y2="695" style="stroke-width: 0.5;stroke: rgb(192,192,192);stroke-opacity: 1.0;stroke-linejoin: bevel;stroke-dasharray: 2.0, 2.0;shape-rendering:crispEdges;" transform="matrix(1,0,0,1,0,0)" clip-path="url(#_1742905528790868clip-2)"/><line x1="402.25" y1="35" x2="402.25" y2="695" style="stroke-width: 0.5;stroke: rgb(192,192,192);stroke-opacity: 1.0;stroke-linejoin: bevel;stroke-dasharray: 2.0, 2.0;shape-rendering:crispEdges;" transform="matrix(1,0,0,1,0,0)" clip-path="url(#_1742905528790868clip-2)"/><line x1="435.78" y1="35" x2="435.78" y2="695" style="stroke-width: 0.5;stroke: rgb(192,192,192);stroke-opacity: 1.0;stroke-linejoin: bevel;stroke-dasharray: 2.0, 2.0;shape-rendering:crispEdges;" transform="matrix(1,0,0,1,0,0)" clip-path="url(#_1742905528790868clip-2)"/><line x1="469.31" y1="35" x2="469.31" y2="695" style="stroke-width: 0.5;stroke: rgb(192,192,192);stroke-opacity: 1.0;stroke-linejoin: bevel;stroke-dasharray: 2.0, 2.0;shape-rendering:crispEdges;" transform="matrix(1,0,0,1,0,0)" clip-path="url(#_1742905528790868clip-2)"/><line x1="502.85" y1="35" x2="502.85" y2="695" style="stroke-width: 0.5;stroke: rgb(192,192,192);stroke-opacity: 1.0;stroke-linejoin: bevel;stroke-dasharray: 2.0, 2.0;shape-rendering:crispEdges;" transform="matrix(1,0,0,1,0,0)" clip-path="url(#_1742905528790868clip-2)"/><line x1="536.38" y1="35" x2="536.38" y2="695" style="stroke-width: 0.5;stroke: rgb(192,192,192);stroke-opacity: 1.0;stroke-linejoin: bevel;stroke-dasharray: 2.0, 2.0;shape-rendering:crispEdges;" transform="matrix(1,0,0,1,0,0)" clip-path="url(#_1742905528790868clip-2)"/><line x1="569.92" y1="35" x2="569.92" y2="695" style="stroke-width: 0.5;stroke: rgb(192,192,192);stroke-opacity: 1.0;stroke-linejoin: bevel;stroke-dasharray: 2.0, 2.0;shape-rendering:crispEdges;" transform="matrix(1,0,0,1,0,0)" clip-path="url(#_1742905528790868clip-2)"/><line x1="603.45" y1="35" x2="603.45" y2="695" style="stroke-width: 0.5;stroke: rgb(192,192,192);stroke-opacity: 1.0;stroke-linejoin: bevel;stroke-dasharray: 2.0, 2.0;shape-rendering:crispEdges;" transform="matrix(1,0,0,1,0,0)" clip-path="url(#_1742905528790868clip-2)"/><line x1="636.99" y1="35" x2="636.99" y2="695" style="stroke-width: 0.5;stroke: rgb(192,192,192);stroke-opacity: 1.0;stroke-linejoin: bevel;stroke-dasharray: 2.0, 2.0;shape-rendering:crispEdges;" transform="matrix(1,0,0,1,0,0)" clip-path="url(#_1742905528790868clip-2)"/><line x1="670.52" y1="35" x2="670.52" y2="695" style="stroke-width: 0.5;stroke: rgb(192,192,192);stroke-opacity: 1.0;stroke-linejoin: bevel;stroke-dasharray: 2.0, 2.0;shape-rendering:crispEdges;" transform="matrix(1,0,0,1,0,0)" clip-path="url(#_1742905528790868clip-2)"/><line x1="704.05" y1="35" x2="704.05" y2="695" style="stroke-width: 0.5;stroke: rgb(192,192,192);stroke-opacity: 1.0;stroke-linejoin: bevel;stroke-dasharray: 2.0, 2.0;shape-rendering:crispEdges;" transform="matrix(1,0,0,1,0,0)" clip-path="url(#_1742905528790868clip-2)"/><line x1="737.59" y1="35" x2="737.59" y2="695" style="stroke-width: 0.5;stroke: rgb(192,192,192);stroke-opacity: 1.0;stroke-linejoin: bevel;stroke-dasharray: 2.0, 2.0;shape-rendering:crispEdges;" transform="matrix(1,0,0,1,0,0)" clip-path="url(#_1742905528790868clip-2)"/><line x1="771.12" y1="35" x2="771.12" y2="695" style="stroke-width: 0.5;stroke: rgb(192,192,192);stroke-opacity: 1.0;stroke-linejoin: bevel;stroke-dasharray: 2.0, 2.0;shape-rendering:crispEdges;" transform="matrix(1,0,0,1,0,0)" clip-path="url(#_1742905528790868clip-2)"/><line x1="804.66" y1="35" x2="804.66" y2="695" style="stroke-width: 0.5;stroke: rgb(192,192,192);stroke-opacity: 1.0;stroke-linejoin: bevel;stroke-dasharray: 2.0, 2.0;shape-rendering:crispEdges;" transform="matrix(1,0,0,1,0,0)" clip-path="url(#_1742905528790868clip-2)"/><line x1="838.19" y1="35" x2="838.19" y2="695" style="stroke-width: 0.5;stroke: rgb(192,192,192);stroke-opacity: 1.0;stroke-linejoin: bevel;stroke-dasharray: 2.0, 2.0;shape-rendering:crispEdges;" transform="matrix(1,0,0,1,0,0)" clip-path="url(#_1742905528790868clip-2)"/><line x1="871.73" y1="35" x2="871.73" y2="695" style="stroke-width: 0.5;stroke: rgb(192,192,192);stroke-opacity: 1.0;stroke-linejoin: bevel;stroke-dasharray: 2.0, 2.0;shape-rendering:crispEdges;" transform="matrix(1,0,0,1,0,0)" clip-path="url(#_1742905528790868clip-2)"/><line x1="905.26" y1="35" x2="905.26" y2="695" style="stroke-width: 0.5;stroke: rgb(192,192,192);stroke-opacity: 1.0;stroke-linejoin: bevel;stroke-dasharray: 2.0, 2.0;shape-rendering:crispEdges;" transform="matrix(1,0,0,1,0,0)" clip-path="url(#_1742905528790868clip-2)"/><line x1="938.79" y1="35" x2="938.79" y2="695" style="stroke-width: 0.5;stroke: rgb(192,192,192);stroke-opacity: 1.0;stroke-linejoin: bevel;stroke-dasharray: 2.0, 2.0;shape-rendering:crispEdges;" transform="matrix(1,0,0,1,0,0)" clip-path="url(#_1742905528790868clip-2)"/><line x1="972.33" y1="35" x2="972.33" y2="695" style="stroke-width: 0.5;stroke: rgb(192,192,192);stroke-opacity: 1.0;stroke-linejoin: bevel;stroke-dasharray: 2.0, 2.0;shape-rendering:crispEdges;" transform="matrix(1,0,0,1,0,0)" clip-path="url(#_1742905528790868clip-2)"/><line x1="1005.86" y1="35" x2="1005.86" y2="695" style="stroke-width: 0.5;stroke: rgb(192,192,192);stroke-opacity: 1.0;stroke-linejoin: bevel;stroke-dasharray: 2.0, 2.0;shape-rendering:crispEdges;" transform="matrix(1,0,0,1,0,0)" clip-path="url(#_1742905528790868clip-2)"/><line x1="1039.4" y1="35" x2="1039.4" y2="695" style="stroke-width: 0.5;stroke: rgb(192,192,192);stroke-opacity: 1.0;stroke-linejoin: bevel;stroke-dasharray: 2.0, 2.0;shape-rendering:crispEdges;" transform="matrix(1,0,0,1,0,0)" clip-path="url(#_1742905528790868clip-2)"/><line x1="1072.93" y1="35" x2="1072.93" y2="695" style="stroke-width: 0.5;stroke: rgb(192,192,192);stroke-opacity: 1.0;stroke-linejoin: bevel;stroke-dasharray: 2.0, 2.0;shape-rendering:crispEdges;" transform="matrix(1,0,0,1,0,0)" clip-path="url(#_1742905528790868clip-2)"/><line x1="1106.47" y1="35" x2="1106.47" y2="695" style="stroke-width: 0.5;stroke: rgb(192,192,192);stroke-opacity: 1.0;stroke-linejoin: bevel;stroke-dasharray: 2.0, 2.0;shape-rendering:crispEdges;" transform="matrix(1,0,0,1,0,0)" clip-path="url(#_1742905528790868clip-2)"/><line x1="73" y1="684.27" x2="1140" y2="684.27" style="stroke-width: 0.5;stroke: rgb(192,192,192);stroke-opacity: 1.0;stroke-linejoin: bevel;stroke-dasharray: 2.0, 2.0;shape-rendering:crispEdges;" transform="matrix(1,0,0,1,0,0)" clip-path="url(#_1742905528790868clip-2)"/><line x1="73" y1="652.56" x2="1140" y2="652.56" style="stroke-width: 0.5;stroke: rgb(192,192,192);stroke-opacity: 1.0;stroke-linejoin: bevel;stroke-dasharray: 2.0, 2.0;shape-rendering:crispEdges;" transform="matrix(1,0,0,1,0,0)" clip-path="url(#_1742905528790868clip-2)"/><line x1="73" y1="620.84" x2="1140" y2="620.84" style="stroke-width: 0.5;stroke: rgb(192,192,192);stroke-opacity: 1.0;stroke-linejoin: bevel;stroke-dasharray: 2.0, 2.0;shape-rendering:crispEdges;" transform="matrix(1,0,0,1,0,0)" clip-path="url(#_1742905528790868clip-2)"/><line x1="73" y1="589.13" x2="1140" y2="589.13" style="stroke-width: 0.5;stroke: rgb(192,192,192);stroke-opacity: 1.0;stroke-linejoin: bevel;stroke-dasharray: 2.0, 2.0;shape-rendering:crispEdges;" transform="matrix(1,0,0,1,0,0)" clip-path="url(#_1742905528790868clip-2)"/><line x1="73" y1="557.41" x2="1140" y2="557.41" style="stroke-width: 0.5;stroke: rgb(192,192,192);stroke-opacity: 1.0;stroke-linejoin: bevel;stroke-dasharray: 2.0, 2.0;shape-rendering:crispEdges;" transform="matrix(1,0,0,1,0,0)" clip-path="url(#_1742905528790868clip-2)"/><line x1="73" y1="525.7" x2="1140" y2="525.7" style="stroke-width: 0.5;stroke: rgb(192,192,192);stroke-opacity: 1.0;stroke-linejoin: bevel;stroke-dasharray: 2.0, 2.0;shape-rendering:crispEdges;" transform="matrix(1,0,0,1,0,0)" clip-path="url(#_1742905528790868clip-2)"/><line x1="73" y1="493.98" x2="1140" y2="493.98" style="stroke-width: 0.5;stroke: rgb(192,192,192);stroke-opacity: 1.0;stroke-linejoin: bevel;stroke-dasharray: 2.0, 2.0;shape-rendering:crispEdges;" transform="matrix(1,0,0,1,0,0)" clip-path="url(#_1742905528790868clip-2)"/><line x1="73" y1="462.27" x2="1140" y2="462.27" style="stroke-width: 0.5;stroke: rgb(192,192,192);stroke-opacity: 1.0;stroke-linejoin: bevel;stroke-dasharray: 2.0, 2.0;shape-rendering:crispEdges;" transform="matrix(1,0,0,1,0,0)" clip-path="url(#_1742905528790868clip-2)"/><line x1="73" y1="430.56" x2="1140" y2="430.56" style="stroke-width: 0.5;stroke: rgb(192,192,192);stroke-opacity: 1.0;stroke-linejoin: bevel;stroke-dasharray: 2.0, 2.0;shape-rendering:crispEdges;" transform="matrix(1,0,0,1,0,0)" clip-path="url(#_1742905528790868clip-2)"/><line x1="73" y1="398.84" x2="1140" y2="398.84" style="stroke-width: 0.5;stroke: rgb(192,192,192);stroke-opacity: 1.0;stroke-linejoin: bevel;stroke-dasharray: 2.0, 2.0;shape-rendering:crispEdges;" transform="matrix(1,0,0,1,0,0)" clip-path="url(#_1742905528790868clip-2)"/><line x1="73" y1="367.13" x2="1140" y2="367.13" style="stroke-width: 0.5;stroke: rgb(192,192,192);stroke-opacity: 1.0;stroke-linejoin: bevel;stroke-dasharray: 2.0, 2.0;shape-rendering:crispEdges;" transform="matrix(1,0,0,1,0,0)" clip-path="url(#_1742905528790868clip-2)"/><line x1="73" y1="335.41" x2="1140" y2="335.41" style="stroke-width: 0.5;stroke: rgb(192,192,192);stroke-opacity: 1.0;stroke-linejoin: bevel;stroke-dasharray: 2.0, 2.0;shape-rendering:crispEdges;" transform="matrix(1,0,0,1,0,0)" clip-path="url(#_1742905528790868clip-2)"/><line x1="73" y1="303.7" x2="1140" y2="303.7" style="stroke-width: 0.5;stroke: rgb(192,192,192);stroke-opacity: 1.0;stroke-linejoin: bevel;stroke-dasharray: 2.0, 2.0;shape-rendering:crispEdges;" transform="matrix(1,0,0,1,0,0)" clip-path="url(#_1742905528790868clip-2)"/><line x1="73" y1="271.98" x2="1140" y2="271.98" style="stroke-width: 0.5;stroke: rgb(192,192,192);stroke-opacity: 1.0;stroke-linejoin: bevel;stroke-dasharray: 2.0, 2.0;shape-rendering:crispEdges;" transform="matrix(1,0,0,1,0,0)" clip-path="url(#_1742905528790868clip-2)"/><line x1="73" y1="240.27" x2="1140" y2="240.27" style="stroke-width: 0.5;stroke: rgb(192,192,192);stroke-opacity: 1.0;stroke-linejoin: bevel;stroke-dasharray: 2.0, 2.0;shape-rendering:crispEdges;" transform="matrix(1,0,0,1,0,0)" clip-path="url(#_1742905528790868clip-2)"/><line x1="73" y1="208.55" x2="1140" y2="208.55" style="stroke-width: 0.5;stroke: rgb(192,192,192);stroke-opacity: 1.0;stroke-linejoin: bevel;stroke-dasharray: 2.0, 2.0;shape-rendering:crispEdges;" transform="matrix(1,0,0,1,0,0)" clip-path="url(#_1742905528790868clip-2)"/><line x1="73" y1="176.84" x2="1140" y2="176.84" style="stroke-width: 0.5;stroke: rgb(192,192,192);stroke-opacity: 1.0;stroke-linejoin: bevel;stroke-dasharray: 2.0, 2.0;shape-rendering:crispEdges;" transform="matrix(1,0,0,1,0,0)" clip-path="url(#_1742905528790868clip-2)"/><line x1="73" y1="145.12" x2="1140" y2="145.12" style="stroke-width: 0.5;stroke: rgb(192,192,192);stroke-opacity: 1.0;stroke-linejoin: bevel;stroke-dasharray: 2.0, 2.0;shape-rendering:crispEdges;" transform="matrix(1,0,0,1,0,0)" clip-path="url(#_1742905528790868clip-2)"/><line x1="73" y1="113.41" x2="1140" y2="113.41" style="stroke-width: 0.5;stroke: rgb(192,192,192);stroke-opacity: 1.0;stroke-linejoin: bevel;stroke-dasharray: 2.0, 2.0;shape-rendering:crispEdges;" transform="matrix(1,0,0,1,0,0)" clip-path="url(#_1742905528790868clip-2)"/><line x1="73" y1="81.69" x2="1140" y2="81.69" style="stroke-width: 0.5;stroke: rgb(192,192,192);stroke-opacity: 1.0;stroke-linejoin: bevel;stroke-dasharray: 2.0, 2.0;shape-rendering:crispEdges;" transform="matrix(1,0,0,1,0,0)" clip-path="url(#_1742905528790868clip-2)"/><line x1="73" y1="49.98" x2="1140" y2="49.98" style="stroke-width: 0.5;stroke: rgb(192,192,192);stroke-opacity: 1.0;stroke-linejoin: bevel;stroke-dasharray: 2.0, 2.0;shape-rendering:crispEdges;" transform="matrix(1,0,0,1,0,0)" clip-path="url(#_1742905528790868clip-2)"/><line x1="133.97" y1="592.92" x2="164.46" y2="594.33" style="stroke-width: 3.0;stroke: rgb(0,0,0);stroke-opacity: 1.0;stroke-linecap: square;shape-rendering:geometricPrecision;" transform="matrix(1,0,0,1,0,0)" clip-path="url(#_1742905528790868clip-2)"/><line x1="164.46" y1="594.33" x2="194.94" y2="597.32" style="stroke-width: 3.0;stroke: rgb(0,0,0);stroke-opacity: 1.0;stroke-linecap: square;shape-rendering:geometricPrecision;" transform="matrix(1,0,0,1,0,0)" clip-path="url(#_1742905528790868clip-2)"/><line x1="194.94" y1="597.32" x2="225.43" y2="601.39" style="stroke-width: 3.0;stroke: rgb(0,0,0);stroke-opacity: 1.0;stroke-linecap: square;shape-rendering:geometricPrecision;" transform="matrix(1,0,0,1,0,0)" clip-path="url(#_1742905528790868clip-2)"/><line x1="225.43" y1="601.39" x2="255.91" y2="606.11" style="stroke-width: 3.0;stroke: rgb(0,0,0);stroke-opacity: 1.0;stroke-linecap: square;shape-rendering:geometricPrecision;" transform="matrix(1,0,0,1,0,0)" clip-path="url(#_1742905528790868clip-2)"/><line x1="255.91" y1="606.11" x2="286.4" y2="611.09" style="stroke-width: 3.0;stroke: rgb(0,0,0);stroke-opacity: 1.0;stroke-linecap: square;shape-rendering:geometricPrecision;" transform="matrix(1,0,0,1,0,0)" clip-path="url(#_1742905528790868clip-2)"/><line x1="286.4" y1="611.09" x2="316.89" y2="616" style="stroke-width: 3.0;stroke: rgb(0,0,0);stroke-opacity: 1.0;stroke-linecap: square;shape-rendering:geometricPrecision;" transform="matrix(1,0,0,1,0,0)" clip-path="url(#_1742905528790868clip-2)"/><line x1="316.89" y1="616" x2="347.37" y2="620.55" style="stroke-width: 3.0;stroke: rgb(0,0,0);stroke-opacity: 1.0;stroke-linecap: square;shape-rendering:geometricPrecision;" transform="matrix(1,0,0,1,0,0)" clip-path="url(#_1742905528790868clip-2)"/><line x1="347.37" y1="620.55" x2="377.86" y2="624.47" style="stroke-width: 3.0;stroke: rgb(0,0,0);stroke-opacity: 1.0;stroke-linecap: square;shape-rendering:geometricPrecision;" transform="matrix(1,0,0,1,0,0)" clip-path="url(#_1742905528790868clip-2)"/><line x1="377.86" y1="624.47" x2="408.34" y2="627.53" style="stroke-width: 3.0;stroke: rgb(0,0,0);stroke-opacity: 1.0;stroke-linecap: square;shape-rendering:geometricPrecision;" transform="matrix(1,0,0,1,0,0)" clip-path="url(#_1742905528790868clip-2)"/><line x1="408.34" y1="627.53" x2="438.83" y2="629.51" style="stroke-width: 3.0;stroke: rgb(0,0,0);stroke-opacity: 1.0;stroke-linecap: square;shape-rendering:geometricPrecision;" transform="matrix(1,0,0,1,0,0)" clip-path="url(#_1742905528790868clip-2)"/><line x1="438.83" y1="629.51" x2="469.31" y2="630.21" style="stroke-width: 3.0;stroke: rgb(0,0,0);stroke-opacity: 1.0;stroke-linecap: square;shape-rendering:geometricPrecision;" transform="matrix(1,0,0,1,0,0)" clip-path="url(#_1742905528790868clip-2)"/><line x1="469.31" y1="630.21" x2="499.8" y2="629.44" style="stroke-width: 3.0;stroke: rgb(0,0,0);stroke-opacity: 1.0;stroke-linecap: square;shape-rendering:geometricPrecision;" transform="matrix(1,0,0,1,0,0)" clip-path="url(#_1742905528790868clip-2)"/><line x1="499.8" y1="629.44" x2="530.29" y2="627.03" style="stroke-width: 3.0;stroke: rgb(0,0,0);stroke-opacity: 1.0;stroke-linecap: square;shape-rendering:geometricPrecision;" transform="matrix(1,0,0,1,0,0)" clip-path="url(#_1742905528790868clip-2)"/><line x1="530.29" y1="627.03" x2="560.77" y2="622.8" style="stroke-width: 3.0;stroke: rgb(0,0,0);stroke-opacity: 1.0;stroke-linecap: square;shape-rendering:geometricPrecision;" transform="matrix(1,0,0,1,0,0)" clip-path="url(#_1742905528790868clip-2)"/><line x1="560.77" y1="622.8" x2="591.26" y2="616.57" style="stroke-width: 3.0;stroke: rgb(0,0,0);stroke-opacity: 1.0;stroke-linecap: square;shape-rendering:geometricPrecision;" transform="matrix(1,0,0,1,0,0)" clip-path="url(#_1742905528790868clip-2)"/><line x1="591.26" y1="616.57" x2="621.74" y2="608.18" style="stroke-width: 3.0;stroke: rgb(0,0,0);stroke-opacity: 1.0;stroke-linecap: square;shape-rendering:geometricPrecision;" transform="matrix(1,0,0,1,0,0)" clip-path="url(#_1742905528790868clip-2)"/><line x1="621.74" y1="608.18" x2="652.23" y2="597.45" style="stroke-width: 3.0;stroke: rgb(0,0,0);stroke-opacity: 1.0;stroke-linecap: square;shape-rendering:geometricPrecision;" transform="matrix(1,0,0,1,0,0)" clip-path="url(#_1742905528790868clip-2)"/><line x1="652.23" y1="597.45" x2="682.71" y2="584.21" style="stroke-width: 3.0;stroke: rgb(0,0,0);stroke-opacity: 1.0;stroke-linecap: square;shape-rendering:geometricPrecision;" transform="matrix(1,0,0,1,0,0)" clip-path="url(#_1742905528790868clip-2)"/><line x1="682.71" y1="584.21" x2="713.2" y2="568.29" style="stroke-width: 3.0;stroke: rgb(0,0,0);stroke-opacity: 1.0;stroke-linecap: square;shape-rendering:geometricPrecision;" transform="matrix(1,0,0,1,0,0)" clip-path="url(#_1742905528790868clip-2)"/><line x1="713.2" y1="568.29" x2="743.69" y2="549.5" style="stroke-width: 3.0;stroke: rgb(0,0,0);stroke-opacity: 1.0;stroke-linecap: square;shape-rendering:geometricPrecision;" transform="matrix(1,0,0,1,0,0)" clip-path="url(#_1742905528790868clip-2)"/><line x1="743.69" y1="549.5" x2="774.17" y2="527.67" style="stroke-width: 3.0;stroke: rgb(0,0,0);stroke-opacity: 1.0;stroke-linecap: square;shape-rendering:geometricPrecision;" transform="matrix(1,0,0,1,0,0)" clip-path="url(#_1742905528790868clip-2)"/><line x1="774.17" y1="527.67" x2="804.66" y2="502.6" style="stroke-width: 3.0;stroke: rgb(0,0,0);stroke-opacity: 1.0;stroke-linecap: square;shape-rendering:geometricPrecision;" transform="matrix(1,0,0,1,0,0)" clip-path="url(#_1742905528790868clip-2)"/><line x1="804.66" y1="502.6" x2="835.14" y2="474.12" style="stroke-width: 3.0;stroke: rgb(0,0,0);stroke-opacity: 1.0;stroke-linecap: square;shape-rendering:geometricPrecision;" transform="matrix(1,0,0,1,0,0)" clip-path="url(#_1742905528790868clip-2)"/><line x1="835.14" y1="474.12" x2="865.63" y2="442.03" style="stroke-width: 3.0;stroke: rgb(0,0,0);stroke-opacity: 1.0;stroke-linecap: square;shape-rendering:geometricPrecision;" transform="matrix(1,0,0,1,0,0)" clip-path="url(#_1742905528790868clip-2)"/><line x1="865.63" y1="442.03" x2="896.11" y2="406.13" style="stroke-width: 3.0;stroke: rgb(0,0,0);stroke-opacity: 1.0;stroke-linecap: square;shape-rendering:geometricPrecision;" transform="matrix(1,0,0,1,0,0)" clip-path="url(#_1742905528790868clip-2)"/><line x1="896.11" y1="406.13" x2="926.6" y2="366.24" style="stroke-width: 3.0;stroke: rgb(0,0,0);stroke-opacity: 1.0;stroke-linecap: square;shape-rendering:geometricPrecision;" transform="matrix(1,0,0,1,0,0)" clip-path="url(#_1742905528790868clip-2)"/><line x1="926.6" y1="366.24" x2="957.09" y2="322.15" style="stroke-width: 3.0;stroke: rgb(0,0,0);stroke-opacity: 1.0;stroke-linecap: square;shape-rendering:geometricPrecision;" transform="matrix(1,0,0,1,0,0)" clip-path="url(#_1742905528790868clip-2)"/><line x1="957.09" y1="322.15" x2="987.57" y2="273.66" style="stroke-width: 3.0;stroke: rgb(0,0,0);stroke-opacity: 1.0;stroke-linecap: square;shape-rendering:geometricPrecision;" transform="matrix(1,0,0,1,0,0)" clip-path="url(#_1742905528790868clip-2)"/><line x1="987.57" y1="273.66" x2="1018.06" y2="220.57" style="stroke-width: 3.0;stroke: rgb(0,0,0);stroke-opacity: 1.0;stroke-linecap: square;shape-rendering:geometricPrecision;" transform="matrix(1,0,0,1,0,0)" clip-path="url(#_1742905528790868clip-2)"/><line x1="1018.06" y1="220.57" x2="1048.54" y2="162.68" style="stroke-width: 3.0;stroke: rgb(0,0,0);stroke-opacity: 1.0;stroke-linecap: square;shape-rendering:geometricPrecision;" transform="matrix(1,0,0,1,0,0)" clip-path="url(#_1742905528790868clip-2)"/><line x1="1048.54" y1="162.68" x2="1079.03" y2="99.79" style="stroke-width: 3.0;stroke: rgb(0,0,0);stroke-opacity: 1.0;stroke-linecap: square;shape-rendering:geometricPrecision;" transform="matrix(1,0,0,1,0,0)" clip-path="url(#_1742905528790868clip-2)"/><rect x="73" y="35" width="1067" height="660" style="stroke-width: 0.5;stroke: rgb(0,0,0);stroke-opacity: 1.0;stroke-linecap: round;stroke-linejoin: round;shape-rendering:crispEdges;; fill: none" transform="matrix(1,0,0,1,0,0)" clip-path="url(#_1742905528790868clip-0)"/></svg>
