<!DOCTYPE svg PUBLIC "-//W3C//DTD SVG 1.1//EN" "http://www.w3.org/Graphics/SVG/1.1/DTD/svg11.dtd">
<svg xmlns="http://www.w3.org/2000/svg" xmlns:xlink="http://www.w3.org/1999/xlink" xmlns:jfreesvg="http://www.jfree.org/jfreesvg/svg" width="1152" height="768" text-rendering="auto" shape-rendering="auto">
<defs><clipPath id="_1578034896918clip-0"><path d="M 0 0 L 1152 0 L 1152 768 L 0 768 L 0 0 Z "/></clipPath>
<clipPath id="_1578034896918clip-1"><path d="M 384.5 345.5 L 384.5 1497.5 L -383.5 1497.5 L -383.5 345.5 L 384.5 345.5 Z "/></clipPath>
<clipPath id="_1578034896918clip-2"><path d="M 71 35 L 71 695 L 1140 695 L 1140 35 Z "/></clipPath>
</defs>
<rect x="0" y="0" width="1152" height="768" style="fill: rgb(255,255,255); fill-opacity: 1.0" transform="matrix(1,0,0,1,0,0)" clip-path="url(#_1578034896918clip-0)"/><g transform="matrix(1,0,0,1,0,0)"><text x="358.5" y="21.01" style="fill: rgb(0,0,0); fill-opacity: 1.0; font-family: Tahoma; font-size: 20px; font-weight: bold;" clip-path="url(#_1578034896918clip-0)">LoadFactor_vs_GroundDistance_IMPERIAL</text></g><rect x="447.5" y="746" width="257" height="21" style="fill: rgb(255,255,255); fill-opacity: 1.0" transform="matrix(1,0,0,1,0,0)" clip-path="url(#_1578034896918clip-0)"/><g style="stroke-width: 3.0;stroke: rgb(0,0,0);stroke-opacity: 1.0;stroke-linecap: square;shape-rendering:geometricPrecision;; fill: none" transform="matrix(1,0,0,1,0,0)" clip-path="url(#_1578034896918clip-0)"><path d="M 450.5 756.5 L 464.5 756.5"/></g><g transform="matrix(1,0,0,1,0,0)"><text x="468.5" y="761.01" style="fill: rgb(64,64,64); fill-opacity: 1.0; font-family: Tahoma; font-size: 12px;" clip-path="url(#_1578034896918clip-0)"> LoadFactor_vs_GroundDistance_IMPERIAL </text></g><rect x="71" y="35" width="1069" height="660" style="fill: rgb(255,255,255); fill-opacity: 0.0" transform="matrix(1,0,0,1,0,0)" clip-path="url(#_1578034896918clip-0)"/><line x1="71" y1="699" x2="1140" y2="699" style="stroke-width: 0.5;stroke: rgb(128,128,128);stroke-opacity: 1.0;stroke-linecap: square;shape-rendering:crispEdges;" transform="matrix(1,0,0,1,0,0)" clip-path="url(#_1578034896918clip-0)"/><g transform="matrix(1,0,0,1,0,0)"><text x="89.62" y="715.52" style="fill: rgb(64,64,64); fill-opacity: 1.0; font-family: Tahoma; font-size: 12px;" clip-path="url(#_1578034896918clip-0)">900</text></g><line x1="99.62" y1="701" x2="99.62" y2="699" style="stroke-width: 0.5;stroke: rgb(128,128,128);stroke-opacity: 1.0;stroke-linecap: square;shape-rendering:crispEdges;" transform="matrix(1,0,0,1,0,0)" clip-path="url(#_1578034896918clip-0)"/><g transform="matrix(1,0,0,1,0,0)"><text x="153.52" y="715.52" style="fill: rgb(64,64,64); fill-opacity: 1.0; font-family: Tahoma; font-size: 12px;" clip-path="url(#_1578034896918clip-0)">1.000</text></g><line x1="168.52" y1="701" x2="168.52" y2="699" style="stroke-width: 0.5;stroke: rgb(128,128,128);stroke-opacity: 1.0;stroke-linecap: square;shape-rendering:crispEdges;" transform="matrix(1,0,0,1,0,0)" clip-path="url(#_1578034896918clip-0)"/><g transform="matrix(1,0,0,1,0,0)"><text x="222.43" y="715.52" style="fill: rgb(64,64,64); fill-opacity: 1.0; font-family: Tahoma; font-size: 12px;" clip-path="url(#_1578034896918clip-0)">1.100</text></g><line x1="237.43" y1="701" x2="237.43" y2="699" style="stroke-width: 0.5;stroke: rgb(128,128,128);stroke-opacity: 1.0;stroke-linecap: square;shape-rendering:crispEdges;" transform="matrix(1,0,0,1,0,0)" clip-path="url(#_1578034896918clip-0)"/><g transform="matrix(1,0,0,1,0,0)"><text x="291.33" y="715.52" style="fill: rgb(64,64,64); fill-opacity: 1.0; font-family: Tahoma; font-size: 12px;" clip-path="url(#_1578034896918clip-0)">1.200</text></g><line x1="306.33" y1="701" x2="306.33" y2="699" style="stroke-width: 0.5;stroke: rgb(128,128,128);stroke-opacity: 1.0;stroke-linecap: square;shape-rendering:crispEdges;" transform="matrix(1,0,0,1,0,0)" clip-path="url(#_1578034896918clip-0)"/><g transform="matrix(1,0,0,1,0,0)"><text x="360.23" y="715.52" style="fill: rgb(64,64,64); fill-opacity: 1.0; font-family: Tahoma; font-size: 12px;" clip-path="url(#_1578034896918clip-0)">1.300</text></g><line x1="375.23" y1="701" x2="375.23" y2="699" style="stroke-width: 0.5;stroke: rgb(128,128,128);stroke-opacity: 1.0;stroke-linecap: square;shape-rendering:crispEdges;" transform="matrix(1,0,0,1,0,0)" clip-path="url(#_1578034896918clip-0)"/><g transform="matrix(1,0,0,1,0,0)"><text x="429.14" y="715.52" style="fill: rgb(64,64,64); fill-opacity: 1.0; font-family: Tahoma; font-size: 12px;" clip-path="url(#_1578034896918clip-0)">1.400</text></g><line x1="444.14" y1="701" x2="444.14" y2="699" style="stroke-width: 0.5;stroke: rgb(128,128,128);stroke-opacity: 1.0;stroke-linecap: square;shape-rendering:crispEdges;" transform="matrix(1,0,0,1,0,0)" clip-path="url(#_1578034896918clip-0)"/><g transform="matrix(1,0,0,1,0,0)"><text x="498.04" y="715.52" style="fill: rgb(64,64,64); fill-opacity: 1.0; font-family: Tahoma; font-size: 12px;" clip-path="url(#_1578034896918clip-0)">1.500</text></g><line x1="513.04" y1="701" x2="513.04" y2="699" style="stroke-width: 0.5;stroke: rgb(128,128,128);stroke-opacity: 1.0;stroke-linecap: square;shape-rendering:crispEdges;" transform="matrix(1,0,0,1,0,0)" clip-path="url(#_1578034896918clip-0)"/><g transform="matrix(1,0,0,1,0,0)"><text x="566.94" y="715.52" style="fill: rgb(64,64,64); fill-opacity: 1.0; font-family: Tahoma; font-size: 12px;" clip-path="url(#_1578034896918clip-0)">1.600</text></g><line x1="581.94" y1="701" x2="581.94" y2="699" style="stroke-width: 0.5;stroke: rgb(128,128,128);stroke-opacity: 1.0;stroke-linecap: square;shape-rendering:crispEdges;" transform="matrix(1,0,0,1,0,0)" clip-path="url(#_1578034896918clip-0)"/><g transform="matrix(1,0,0,1,0,0)"><text x="635.85" y="715.52" style="fill: rgb(64,64,64); fill-opacity: 1.0; font-family: Tahoma; font-size: 12px;" clip-path="url(#_1578034896918clip-0)">1.700</text></g><line x1="650.85" y1="701" x2="650.85" y2="699" style="stroke-width: 0.5;stroke: rgb(128,128,128);stroke-opacity: 1.0;stroke-linecap: square;shape-rendering:crispEdges;" transform="matrix(1,0,0,1,0,0)" clip-path="url(#_1578034896918clip-0)"/><g transform="matrix(1,0,0,1,0,0)"><text x="704.75" y="715.52" style="fill: rgb(64,64,64); fill-opacity: 1.0; font-family: Tahoma; font-size: 12px;" clip-path="url(#_1578034896918clip-0)">1.800</text></g><line x1="719.75" y1="701" x2="719.75" y2="699" style="stroke-width: 0.5;stroke: rgb(128,128,128);stroke-opacity: 1.0;stroke-linecap: square;shape-rendering:crispEdges;" transform="matrix(1,0,0,1,0,0)" clip-path="url(#_1578034896918clip-0)"/><g transform="matrix(1,0,0,1,0,0)"><text x="773.65" y="715.52" style="fill: rgb(64,64,64); fill-opacity: 1.0; font-family: Tahoma; font-size: 12px;" clip-path="url(#_1578034896918clip-0)">1.900</text></g><line x1="788.65" y1="701" x2="788.65" y2="699" style="stroke-width: 0.5;stroke: rgb(128,128,128);stroke-opacity: 1.0;stroke-linecap: square;shape-rendering:crispEdges;" transform="matrix(1,0,0,1,0,0)" clip-path="url(#_1578034896918clip-0)"/><g transform="matrix(1,0,0,1,0,0)"><text x="842.56" y="715.52" style="fill: rgb(64,64,64); fill-opacity: 1.0; font-family: Tahoma; font-size: 12px;" clip-path="url(#_1578034896918clip-0)">2.000</text></g><line x1="857.56" y1="701" x2="857.56" y2="699" style="stroke-width: 0.5;stroke: rgb(128,128,128);stroke-opacity: 1.0;stroke-linecap: square;shape-rendering:crispEdges;" transform="matrix(1,0,0,1,0,0)" clip-path="url(#_1578034896918clip-0)"/><g transform="matrix(1,0,0,1,0,0)"><text x="911.46" y="715.52" style="fill: rgb(64,64,64); fill-opacity: 1.0; font-family: Tahoma; font-size: 12px;" clip-path="url(#_1578034896918clip-0)">2.100</text></g><line x1="926.46" y1="701" x2="926.46" y2="699" style="stroke-width: 0.5;stroke: rgb(128,128,128);stroke-opacity: 1.0;stroke-linecap: square;shape-rendering:crispEdges;" transform="matrix(1,0,0,1,0,0)" clip-path="url(#_1578034896918clip-0)"/><g transform="matrix(1,0,0,1,0,0)"><text x="980.36" y="715.52" style="fill: rgb(64,64,64); fill-opacity: 1.0; font-family: Tahoma; font-size: 12px;" clip-path="url(#_1578034896918clip-0)">2.200</text></g><line x1="995.36" y1="701" x2="995.36" y2="699" style="stroke-width: 0.5;stroke: rgb(128,128,128);stroke-opacity: 1.0;stroke-linecap: square;shape-rendering:crispEdges;" transform="matrix(1,0,0,1,0,0)" clip-path="url(#_1578034896918clip-0)"/><g transform="matrix(1,0,0,1,0,0)"><text x="1049.27" y="715.52" style="fill: rgb(64,64,64); fill-opacity: 1.0; font-family: Tahoma; font-size: 12px;" clip-path="url(#_1578034896918clip-0)">2.300</text></g><line x1="1064.27" y1="701" x2="1064.27" y2="699" style="stroke-width: 0.5;stroke: rgb(128,128,128);stroke-opacity: 1.0;stroke-linecap: square;shape-rendering:crispEdges;" transform="matrix(1,0,0,1,0,0)" clip-path="url(#_1578034896918clip-0)"/><g transform="matrix(1,0,0,1,0,0)"><text x="1118.17" y="715.52" style="fill: rgb(64,64,64); fill-opacity: 1.0; font-family: Tahoma; font-size: 12px;" clip-path="url(#_1578034896918clip-0)">2.400</text></g><line x1="1133.17" y1="701" x2="1133.17" y2="699" style="stroke-width: 0.5;stroke: rgb(128,128,128);stroke-opacity: 1.0;stroke-linecap: square;shape-rendering:crispEdges;" transform="matrix(1,0,0,1,0,0)" clip-path="url(#_1578034896918clip-0)"/><g transform="matrix(1,0,0,1,0,0)"><text x="518.5" y="734.59" style="fill: rgb(64,64,64); fill-opacity: 1.0; font-family: Tahoma; font-size: 14px; font-weight: bold;" clip-path="url(#_1578034896918clip-0)">Ground Roll distance (ft)</text></g><line x1="67" y1="35" x2="67" y2="695" style="stroke-width: 0.5;stroke: rgb(128,128,128);stroke-opacity: 1.0;stroke-linecap: square;shape-rendering:crispEdges;" transform="matrix(1,0,0,1,0,0)" clip-path="url(#_1578034896918clip-0)"/><g transform="matrix(1,0,0,1,0,0)"><text x="33" y="682.9" style="fill: rgb(64,64,64); fill-opacity: 1.0; font-family: Tahoma; font-size: 12px;" clip-path="url(#_1578034896918clip-0)">-0,05</text></g><line x1="65" y1="677.88" x2="67" y2="677.88" style="stroke-width: 0.5;stroke: rgb(128,128,128);stroke-opacity: 1.0;stroke-linecap: square;shape-rendering:crispEdges;" transform="matrix(1,0,0,1,0,0)" clip-path="url(#_1578034896918clip-0)"/><g transform="matrix(1,0,0,1,0,0)"><text x="38" y="645.02" style="fill: rgb(64,64,64); fill-opacity: 1.0; font-family: Tahoma; font-size: 12px;" clip-path="url(#_1578034896918clip-0)">0,00</text></g><line x1="65" y1="640" x2="67" y2="640" style="stroke-width: 0.5;stroke: rgb(128,128,128);stroke-opacity: 1.0;stroke-linecap: square;shape-rendering:crispEdges;" transform="matrix(1,0,0,1,0,0)" clip-path="url(#_1578034896918clip-0)"/><g transform="matrix(1,0,0,1,0,0)"><text x="38" y="607.14" style="fill: rgb(64,64,64); fill-opacity: 1.0; font-family: Tahoma; font-size: 12px;" clip-path="url(#_1578034896918clip-0)">0,05</text></g><line x1="65" y1="602.12" x2="67" y2="602.12" style="stroke-width: 0.5;stroke: rgb(128,128,128);stroke-opacity: 1.0;stroke-linecap: square;shape-rendering:crispEdges;" transform="matrix(1,0,0,1,0,0)" clip-path="url(#_1578034896918clip-0)"/><g transform="matrix(1,0,0,1,0,0)"><text x="38" y="569.26" style="fill: rgb(64,64,64); fill-opacity: 1.0; font-family: Tahoma; font-size: 12px;" clip-path="url(#_1578034896918clip-0)">0,10</text></g><line x1="65" y1="564.24" x2="67" y2="564.24" style="stroke-width: 0.5;stroke: rgb(128,128,128);stroke-opacity: 1.0;stroke-linecap: square;shape-rendering:crispEdges;" transform="matrix(1,0,0,1,0,0)" clip-path="url(#_1578034896918clip-0)"/><g transform="matrix(1,0,0,1,0,0)"><text x="38" y="531.38" style="fill: rgb(64,64,64); fill-opacity: 1.0; font-family: Tahoma; font-size: 12px;" clip-path="url(#_1578034896918clip-0)">0,15</text></g><line x1="65" y1="526.36" x2="67" y2="526.36" style="stroke-width: 0.5;stroke: rgb(128,128,128);stroke-opacity: 1.0;stroke-linecap: square;shape-rendering:crispEdges;" transform="matrix(1,0,0,1,0,0)" clip-path="url(#_1578034896918clip-0)"/><g transform="matrix(1,0,0,1,0,0)"><text x="38" y="493.5" style="fill: rgb(64,64,64); fill-opacity: 1.0; font-family: Tahoma; font-size: 12px;" clip-path="url(#_1578034896918clip-0)">0,20</text></g><line x1="65" y1="488.48" x2="67" y2="488.48" style="stroke-width: 0.5;stroke: rgb(128,128,128);stroke-opacity: 1.0;stroke-linecap: square;shape-rendering:crispEdges;" transform="matrix(1,0,0,1,0,0)" clip-path="url(#_1578034896918clip-0)"/><g transform="matrix(1,0,0,1,0,0)"><text x="38" y="455.63" style="fill: rgb(64,64,64); fill-opacity: 1.0; font-family: Tahoma; font-size: 12px;" clip-path="url(#_1578034896918clip-0)">0,25</text></g><line x1="65" y1="450.6" x2="67" y2="450.6" style="stroke-width: 0.5;stroke: rgb(128,128,128);stroke-opacity: 1.0;stroke-linecap: square;shape-rendering:crispEdges;" transform="matrix(1,0,0,1,0,0)" clip-path="url(#_1578034896918clip-0)"/><g transform="matrix(1,0,0,1,0,0)"><text x="38" y="417.75" style="fill: rgb(64,64,64); fill-opacity: 1.0; font-family: Tahoma; font-size: 12px;" clip-path="url(#_1578034896918clip-0)">0,30</text></g><line x1="65" y1="412.72" x2="67" y2="412.72" style="stroke-width: 0.5;stroke: rgb(128,128,128);stroke-opacity: 1.0;stroke-linecap: square;shape-rendering:crispEdges;" transform="matrix(1,0,0,1,0,0)" clip-path="url(#_1578034896918clip-0)"/><g transform="matrix(1,0,0,1,0,0)"><text x="38" y="379.87" style="fill: rgb(64,64,64); fill-opacity: 1.0; font-family: Tahoma; font-size: 12px;" clip-path="url(#_1578034896918clip-0)">0,35</text></g><line x1="65" y1="374.85" x2="67" y2="374.85" style="stroke-width: 0.5;stroke: rgb(128,128,128);stroke-opacity: 1.0;stroke-linecap: square;shape-rendering:crispEdges;" transform="matrix(1,0,0,1,0,0)" clip-path="url(#_1578034896918clip-0)"/><g transform="matrix(1,0,0,1,0,0)"><text x="38" y="341.99" style="fill: rgb(64,64,64); fill-opacity: 1.0; font-family: Tahoma; font-size: 12px;" clip-path="url(#_1578034896918clip-0)">0,40</text></g><line x1="65" y1="336.97" x2="67" y2="336.97" style="stroke-width: 0.5;stroke: rgb(128,128,128);stroke-opacity: 1.0;stroke-linecap: square;shape-rendering:crispEdges;" transform="matrix(1,0,0,1,0,0)" clip-path="url(#_1578034896918clip-0)"/><g transform="matrix(1,0,0,1,0,0)"><text x="38" y="304.11" style="fill: rgb(64,64,64); fill-opacity: 1.0; font-family: Tahoma; font-size: 12px;" clip-path="url(#_1578034896918clip-0)">0,45</text></g><line x1="65" y1="299.09" x2="67" y2="299.09" style="stroke-width: 0.5;stroke: rgb(128,128,128);stroke-opacity: 1.0;stroke-linecap: square;shape-rendering:crispEdges;" transform="matrix(1,0,0,1,0,0)" clip-path="url(#_1578034896918clip-0)"/><g transform="matrix(1,0,0,1,0,0)"><text x="38" y="266.23" style="fill: rgb(64,64,64); fill-opacity: 1.0; font-family: Tahoma; font-size: 12px;" clip-path="url(#_1578034896918clip-0)">0,50</text></g><line x1="65" y1="261.21" x2="67" y2="261.21" style="stroke-width: 0.5;stroke: rgb(128,128,128);stroke-opacity: 1.0;stroke-linecap: square;shape-rendering:crispEdges;" transform="matrix(1,0,0,1,0,0)" clip-path="url(#_1578034896918clip-0)"/><g transform="matrix(1,0,0,1,0,0)"><text x="38" y="228.35" style="fill: rgb(64,64,64); fill-opacity: 1.0; font-family: Tahoma; font-size: 12px;" clip-path="url(#_1578034896918clip-0)">0,55</text></g><line x1="65" y1="223.33" x2="67" y2="223.33" style="stroke-width: 0.5;stroke: rgb(128,128,128);stroke-opacity: 1.0;stroke-linecap: square;shape-rendering:crispEdges;" transform="matrix(1,0,0,1,0,0)" clip-path="url(#_1578034896918clip-0)"/><g transform="matrix(1,0,0,1,0,0)"><text x="38" y="190.47" style="fill: rgb(64,64,64); fill-opacity: 1.0; font-family: Tahoma; font-size: 12px;" clip-path="url(#_1578034896918clip-0)">0,60</text></g><line x1="65" y1="185.45" x2="67" y2="185.45" style="stroke-width: 0.5;stroke: rgb(128,128,128);stroke-opacity: 1.0;stroke-linecap: square;shape-rendering:crispEdges;" transform="matrix(1,0,0,1,0,0)" clip-path="url(#_1578034896918clip-0)"/><g transform="matrix(1,0,0,1,0,0)"><text x="38" y="152.59" style="fill: rgb(64,64,64); fill-opacity: 1.0; font-family: Tahoma; font-size: 12px;" clip-path="url(#_1578034896918clip-0)">0,65</text></g><line x1="65" y1="147.57" x2="67" y2="147.57" style="stroke-width: 0.5;stroke: rgb(128,128,128);stroke-opacity: 1.0;stroke-linecap: square;shape-rendering:crispEdges;" transform="matrix(1,0,0,1,0,0)" clip-path="url(#_1578034896918clip-0)"/><g transform="matrix(1,0,0,1,0,0)"><text x="38" y="114.71" style="fill: rgb(64,64,64); fill-opacity: 1.0; font-family: Tahoma; font-size: 12px;" clip-path="url(#_1578034896918clip-0)">0,70</text></g><line x1="65" y1="109.69" x2="67" y2="109.69" style="stroke-width: 0.5;stroke: rgb(128,128,128);stroke-opacity: 1.0;stroke-linecap: square;shape-rendering:crispEdges;" transform="matrix(1,0,0,1,0,0)" clip-path="url(#_1578034896918clip-0)"/><g transform="matrix(1,0,0,1,0,0)"><text x="38" y="76.83" style="fill: rgb(64,64,64); fill-opacity: 1.0; font-family: Tahoma; font-size: 12px;" clip-path="url(#_1578034896918clip-0)">0,75</text></g><line x1="65" y1="71.81" x2="67" y2="71.81" style="stroke-width: 0.5;stroke: rgb(128,128,128);stroke-opacity: 1.0;stroke-linecap: square;shape-rendering:crispEdges;" transform="matrix(1,0,0,1,0,0)" clip-path="url(#_1578034896918clip-0)"/><g style="fill: rgb(64,64,64); fill-opacity: 1.0; stroke: none" transform="matrix(0,-1,1,0,-345.5,384.5)" clip-path="url(#_1578034896918clip-1)"><path d="M -15.66 370.61 L -22.45 370.61 L -22.45 360.44 L -19.89 360.44 L -19.89 368.67 L -15.66 368.67 L -15.66 370.61 Z  M -7.21 366.78 Q -7.21 368.67 -8.24 369.76 Q -9.27 370.84 -11.16 370.84 Q -13.05 370.84 -14.09 369.76 Q -15.13 368.67 -15.13 366.78 Q -15.13 364.86 -14.09 363.77 Q -13.05 362.69 -11.16 362.69 Q -9.29 362.69 -8.25 363.78 Q -7.21 364.87 -7.21 366.78 Z  M -9.66 366.78 Q -9.66 366.11 -9.77 365.65 Q -9.88 365.19 -10.08 364.92 Q -10.29 364.64 -10.56 364.52 Q -10.83 364.41 -11.16 364.41 Q -11.49 364.41 -11.75 364.51 Q -12 364.61 -12.22 364.89 Q -12.43 365.16 -12.55 365.62 Q -12.68 366.08 -12.68 366.78 Q -12.68 367.48 -12.56 367.92 Q -12.44 368.36 -12.25 368.62 Q -12.07 368.89 -11.78 369.01 Q -11.49 369.12 -11.14 369.12 Q -10.86 369.12 -10.57 369.01 Q -10.27 368.89 -10.08 368.64 Q -9.88 368.34 -9.77 367.93 Q -9.66 367.51 -9.66 366.78 Z  M -1.71 368.61 L -1.71 367 Q -2.3 367.06 -2.68 367.11 Q -3.07 367.16 -3.43 367.28 Q -3.74 367.39 -3.91 367.62 Q -4.08 367.84 -4.08 368.2 Q -4.08 368.75 -3.79 368.95 Q -3.5 369.16 -2.94 369.16 Q -2.63 369.16 -2.3 369.01 Q -1.97 368.86 -1.71 368.61 Z  M -1.71 369.8 Q -1.94 370 -2.14 370.16 Q -2.33 370.33 -2.66 370.5 Q -2.99 370.66 -3.29 370.73 Q -3.6 370.81 -4.14 370.81 Q -5.16 370.81 -5.83 370.13 Q -6.5 369.45 -6.5 368.41 Q -6.5 367.55 -6.16 367.02 Q -5.82 366.5 -5.18 366.19 Q -4.54 365.87 -3.63 365.75 Q -2.72 365.62 -1.69 365.56 L -1.69 365.51 Q -1.69 364.89 -2.16 364.65 Q -2.63 364.41 -3.57 364.41 Q -3.99 364.41 -4.55 364.55 Q -5.11 364.7 -5.66 364.95 L -5.86 364.95 L -5.86 363.09 Q -5.5 363 -4.71 362.86 Q -3.93 362.72 -3.11 362.72 Q -1.13 362.72 -0.22 363.37 Q 0.68 364.03 0.68 365.39 L 0.68 370.61 L -1.71 370.61 L -1.71 369.8 Z  M 9.42 370.61 L 7.03 370.61 L 7.03 369.81 Q 6.8 370 6.5 370.22 Q 6.21 370.44 5.99 370.55 Q 5.69 370.69 5.42 370.76 Q 5.14 370.83 4.75 370.83 Q 3.44 370.83 2.67 369.73 Q 1.91 368.64 1.91 366.83 Q 1.91 365.83 2.17 365.08 Q 2.42 364.34 2.88 363.8 Q 3.3 363.3 3.89 363.01 Q 4.49 362.72 5.14 362.72 Q 5.75 362.72 6.13 362.84 Q 6.52 362.97 7.03 363.23 L 7.03 359.97 L 9.42 359.97 L 9.42 370.61 Z  M 7.03 368.48 L 7.03 364.72 Q 6.86 364.64 6.57 364.58 Q 6.28 364.51 6.08 364.51 Q 5.22 364.51 4.78 365.12 Q 4.35 365.72 4.35 366.8 Q 4.35 367.94 4.69 368.44 Q 5.03 368.95 5.81 368.95 Q 6.13 368.95 6.45 368.83 Q 6.77 368.7 7.03 368.48 Z  M 22.32 362.37 L 18.04 362.37 L 18.04 364.3 L 21.98 364.3 L 21.98 366.23 L 18.04 366.23 L 18.04 370.61 L 15.49 370.61 L 15.49 360.44 L 22.32 360.44 L 22.32 362.37 Z  M 27.72 368.61 L 27.72 367 Q 27.13 367.06 26.75 367.11 Q 26.36 367.16 26 367.28 Q 25.69 367.39 25.52 367.62 Q 25.35 367.84 25.35 368.2 Q 25.35 368.75 25.64 368.95 Q 25.92 369.16 26.49 369.16 Q 26.8 369.16 27.13 369.01 Q 27.46 368.86 27.72 368.61 Z  M 27.72 369.8 Q 27.49 370 27.29 370.16 Q 27.1 370.33 26.77 370.5 Q 26.44 370.66 26.14 370.73 Q 25.83 370.81 25.28 370.81 Q 24.27 370.81 23.6 370.13 Q 22.92 369.45 22.92 368.41 Q 22.92 367.55 23.27 367.02 Q 23.61 366.5 24.25 366.19 Q 24.89 365.87 25.8 365.75 Q 26.71 365.62 27.74 365.56 L 27.74 365.51 Q 27.74 364.89 27.27 364.65 Q 26.8 364.41 25.86 364.41 Q 25.44 364.41 24.88 364.55 Q 24.32 364.7 23.77 364.95 L 23.57 364.95 L 23.57 363.09 Q 23.92 363 24.71 362.86 Q 25.5 362.72 26.32 362.72 Q 28.3 362.72 29.21 363.37 Q 30.11 364.03 30.11 365.39 L 30.11 370.61 L 27.72 370.61 L 27.72 369.8 Z  M 35.65 370.81 Q 34.7 370.81 33.91 370.57 Q 33.12 370.33 32.54 369.84 Q 31.96 369.34 31.64 368.58 Q 31.32 367.83 31.32 366.8 Q 31.32 365.7 31.67 364.93 Q 32.01 364.16 32.6 363.66 Q 33.18 363.17 33.96 362.94 Q 34.74 362.72 35.57 362.72 Q 36.21 362.72 36.84 362.87 Q 37.48 363.01 38.13 363.33 L 38.13 365.39 L 37.82 365.39 Q 37.68 365.25 37.47 365.08 Q 37.26 364.92 37.01 364.78 Q 36.76 364.64 36.43 364.54 Q 36.1 364.44 35.7 364.44 Q 34.77 364.44 34.27 365.08 Q 33.77 365.72 33.77 366.8 Q 33.77 367.95 34.31 368.52 Q 34.85 369.09 35.73 369.09 Q 36.18 369.09 36.52 368.99 Q 36.87 368.89 37.12 368.75 Q 37.35 368.59 37.52 368.44 Q 37.7 368.3 37.82 368.17 L 38.13 368.17 L 38.13 370.22 Q 37.92 370.31 37.65 370.43 Q 37.38 370.55 37.1 370.61 Q 36.76 370.72 36.45 370.76 Q 36.15 370.81 35.65 370.81 Z  M 42.2 370.76 Q 40.74 370.76 40.07 370.16 Q 39.41 369.56 39.41 368.19 L 39.41 364.59 L 38.49 364.59 L 38.49 362.94 L 39.41 362.94 L 39.41 360.73 L 41.8 360.73 L 41.8 362.94 L 44.09 362.94 L 44.09 364.59 L 41.8 364.59 L 41.8 367.33 Q 41.8 367.72 41.81 368.02 Q 41.81 368.33 41.91 368.56 Q 42.02 368.8 42.26 368.94 Q 42.5 369.08 42.95 369.08 Q 43.16 369.08 43.46 369 Q 43.77 368.92 43.89 368.86 L 44.09 368.86 L 44.09 370.55 Q 43.7 370.64 43.27 370.7 Q 42.83 370.76 42.2 370.76 Z  M 52.44 366.78 Q 52.44 368.67 51.41 369.76 Q 50.38 370.84 48.49 370.84 Q 46.6 370.84 45.56 369.76 Q 44.52 368.67 44.52 366.78 Q 44.52 364.86 45.56 363.77 Q 46.6 362.69 48.49 362.69 Q 50.37 362.69 51.4 363.78 Q 52.44 364.87 52.44 366.78 Z  M 49.99 366.78 Q 49.99 366.11 49.88 365.65 Q 49.77 365.19 49.57 364.92 Q 49.37 364.64 49.09 364.52 Q 48.82 364.41 48.49 364.41 Q 48.16 364.41 47.9 364.51 Q 47.65 364.61 47.43 364.89 Q 47.22 365.16 47.1 365.62 Q 46.97 366.08 46.97 366.78 Q 46.97 367.48 47.09 367.92 Q 47.21 368.36 47.4 368.62 Q 47.58 368.89 47.87 369.01 Q 48.16 369.12 48.51 369.12 Q 48.79 369.12 49.08 369.01 Q 49.38 368.89 49.57 368.64 Q 49.77 368.34 49.88 367.93 Q 49.99 367.51 49.99 366.78 Z  M 58.88 365.19 L 58.68 365.19 Q 58.54 365.14 58.28 365.12 Q 58.02 365.09 57.71 365.09 Q 57.33 365.09 56.92 365.2 Q 56.51 365.31 56.12 365.47 L 56.12 370.61 L 53.72 370.61 L 53.72 362.94 L 56.12 362.94 L 56.12 364.03 Q 56.27 363.87 56.56 363.65 Q 56.85 363.42 57.1 363.28 Q 57.35 363.12 57.7 363.01 Q 58.05 362.91 58.35 362.91 Q 58.47 362.91 58.62 362.91 Q 58.76 362.92 58.88 362.94 L 58.88 365.19 Z "/></g><line x1="99.62" y1="35" x2="99.62" y2="695" style="stroke-width: 0.5;stroke: rgb(192,192,192);stroke-opacity: 1.0;stroke-linejoin: bevel;stroke-dasharray: 2.0, 2.0;shape-rendering:crispEdges;" transform="matrix(1,0,0,1,0,0)" clip-path="url(#_1578034896918clip-2)"/><line x1="168.52" y1="35" x2="168.52" y2="695" style="stroke-width: 0.5;stroke: rgb(192,192,192);stroke-opacity: 1.0;stroke-linejoin: bevel;stroke-dasharray: 2.0, 2.0;shape-rendering:crispEdges;" transform="matrix(1,0,0,1,0,0)" clip-path="url(#_1578034896918clip-2)"/><line x1="237.43" y1="35" x2="237.43" y2="695" style="stroke-width: 0.5;stroke: rgb(192,192,192);stroke-opacity: 1.0;stroke-linejoin: bevel;stroke-dasharray: 2.0, 2.0;shape-rendering:crispEdges;" transform="matrix(1,0,0,1,0,0)" clip-path="url(#_1578034896918clip-2)"/><line x1="306.33" y1="35" x2="306.33" y2="695" style="stroke-width: 0.5;stroke: rgb(192,192,192);stroke-opacity: 1.0;stroke-linejoin: bevel;stroke-dasharray: 2.0, 2.0;shape-rendering:crispEdges;" transform="matrix(1,0,0,1,0,0)" clip-path="url(#_1578034896918clip-2)"/><line x1="375.23" y1="35" x2="375.23" y2="695" style="stroke-width: 0.5;stroke: rgb(192,192,192);stroke-opacity: 1.0;stroke-linejoin: bevel;stroke-dasharray: 2.0, 2.0;shape-rendering:crispEdges;" transform="matrix(1,0,0,1,0,0)" clip-path="url(#_1578034896918clip-2)"/><line x1="444.14" y1="35" x2="444.14" y2="695" style="stroke-width: 0.5;stroke: rgb(192,192,192);stroke-opacity: 1.0;stroke-linejoin: bevel;stroke-dasharray: 2.0, 2.0;shape-rendering:crispEdges;" transform="matrix(1,0,0,1,0,0)" clip-path="url(#_1578034896918clip-2)"/><line x1="513.04" y1="35" x2="513.04" y2="695" style="stroke-width: 0.5;stroke: rgb(192,192,192);stroke-opacity: 1.0;stroke-linejoin: bevel;stroke-dasharray: 2.0, 2.0;shape-rendering:crispEdges;" transform="matrix(1,0,0,1,0,0)" clip-path="url(#_1578034896918clip-2)"/><line x1="581.94" y1="35" x2="581.94" y2="695" style="stroke-width: 0.5;stroke: rgb(192,192,192);stroke-opacity: 1.0;stroke-linejoin: bevel;stroke-dasharray: 2.0, 2.0;shape-rendering:crispEdges;" transform="matrix(1,0,0,1,0,0)" clip-path="url(#_1578034896918clip-2)"/><line x1="650.85" y1="35" x2="650.85" y2="695" style="stroke-width: 0.5;stroke: rgb(192,192,192);stroke-opacity: 1.0;stroke-linejoin: bevel;stroke-dasharray: 2.0, 2.0;shape-rendering:crispEdges;" transform="matrix(1,0,0,1,0,0)" clip-path="url(#_1578034896918clip-2)"/><line x1="719.75" y1="35" x2="719.75" y2="695" style="stroke-width: 0.5;stroke: rgb(192,192,192);stroke-opacity: 1.0;stroke-linejoin: bevel;stroke-dasharray: 2.0, 2.0;shape-rendering:crispEdges;" transform="matrix(1,0,0,1,0,0)" clip-path="url(#_1578034896918clip-2)"/><line x1="788.65" y1="35" x2="788.65" y2="695" style="stroke-width: 0.5;stroke: rgb(192,192,192);stroke-opacity: 1.0;stroke-linejoin: bevel;stroke-dasharray: 2.0, 2.0;shape-rendering:crispEdges;" transform="matrix(1,0,0,1,0,0)" clip-path="url(#_1578034896918clip-2)"/><line x1="857.56" y1="35" x2="857.56" y2="695" style="stroke-width: 0.5;stroke: rgb(192,192,192);stroke-opacity: 1.0;stroke-linejoin: bevel;stroke-dasharray: 2.0, 2.0;shape-rendering:crispEdges;" transform="matrix(1,0,0,1,0,0)" clip-path="url(#_1578034896918clip-2)"/><line x1="926.46" y1="35" x2="926.46" y2="695" style="stroke-width: 0.5;stroke: rgb(192,192,192);stroke-opacity: 1.0;stroke-linejoin: bevel;stroke-dasharray: 2.0, 2.0;shape-rendering:crispEdges;" transform="matrix(1,0,0,1,0,0)" clip-path="url(#_1578034896918clip-2)"/><line x1="995.36" y1="35" x2="995.36" y2="695" style="stroke-width: 0.5;stroke: rgb(192,192,192);stroke-opacity: 1.0;stroke-linejoin: bevel;stroke-dasharray: 2.0, 2.0;shape-rendering:crispEdges;" transform="matrix(1,0,0,1,0,0)" clip-path="url(#_1578034896918clip-2)"/><line x1="1064.26" y1="35" x2="1064.26" y2="695" style="stroke-width: 0.5;stroke: rgb(192,192,192);stroke-opacity: 1.0;stroke-linejoin: bevel;stroke-dasharray: 2.0, 2.0;shape-rendering:crispEdges;" transform="matrix(1,0,0,1,0,0)" clip-path="url(#_1578034896918clip-2)"/><line x1="1133.17" y1="35" x2="1133.17" y2="695" style="stroke-width: 0.5;stroke: rgb(192,192,192);stroke-opacity: 1.0;stroke-linejoin: bevel;stroke-dasharray: 2.0, 2.0;shape-rendering:crispEdges;" transform="matrix(1,0,0,1,0,0)" clip-path="url(#_1578034896918clip-2)"/><line x1="71" y1="677.88" x2="1140" y2="677.88" style="stroke-width: 0.5;stroke: rgb(192,192,192);stroke-opacity: 1.0;stroke-linejoin: bevel;stroke-dasharray: 2.0, 2.0;shape-rendering:crispEdges;" transform="matrix(1,0,0,1,0,0)" clip-path="url(#_1578034896918clip-2)"/><line x1="71" y1="640" x2="1140" y2="640" style="stroke-width: 0.5;stroke: rgb(192,192,192);stroke-opacity: 1.0;stroke-linejoin: bevel;stroke-dasharray: 2.0, 2.0;shape-rendering:crispEdges;" transform="matrix(1,0,0,1,0,0)" clip-path="url(#_1578034896918clip-2)"/><line x1="71" y1="602.12" x2="1140" y2="602.12" style="stroke-width: 0.5;stroke: rgb(192,192,192);stroke-opacity: 1.0;stroke-linejoin: bevel;stroke-dasharray: 2.0, 2.0;shape-rendering:crispEdges;" transform="matrix(1,0,0,1,0,0)" clip-path="url(#_1578034896918clip-2)"/><line x1="71" y1="564.24" x2="1140" y2="564.24" style="stroke-width: 0.5;stroke: rgb(192,192,192);stroke-opacity: 1.0;stroke-linejoin: bevel;stroke-dasharray: 2.0, 2.0;shape-rendering:crispEdges;" transform="matrix(1,0,0,1,0,0)" clip-path="url(#_1578034896918clip-2)"/><line x1="71" y1="526.36" x2="1140" y2="526.36" style="stroke-width: 0.5;stroke: rgb(192,192,192);stroke-opacity: 1.0;stroke-linejoin: bevel;stroke-dasharray: 2.0, 2.0;shape-rendering:crispEdges;" transform="matrix(1,0,0,1,0,0)" clip-path="url(#_1578034896918clip-2)"/><line x1="71" y1="488.48" x2="1140" y2="488.48" style="stroke-width: 0.5;stroke: rgb(192,192,192);stroke-opacity: 1.0;stroke-linejoin: bevel;stroke-dasharray: 2.0, 2.0;shape-rendering:crispEdges;" transform="matrix(1,0,0,1,0,0)" clip-path="url(#_1578034896918clip-2)"/><line x1="71" y1="450.6" x2="1140" y2="450.6" style="stroke-width: 0.5;stroke: rgb(192,192,192);stroke-opacity: 1.0;stroke-linejoin: bevel;stroke-dasharray: 2.0, 2.0;shape-rendering:crispEdges;" transform="matrix(1,0,0,1,0,0)" clip-path="url(#_1578034896918clip-2)"/><line x1="71" y1="412.72" x2="1140" y2="412.72" style="stroke-width: 0.5;stroke: rgb(192,192,192);stroke-opacity: 1.0;stroke-linejoin: bevel;stroke-dasharray: 2.0, 2.0;shape-rendering:crispEdges;" transform="matrix(1,0,0,1,0,0)" clip-path="url(#_1578034896918clip-2)"/><line x1="71" y1="374.85" x2="1140" y2="374.85" style="stroke-width: 0.5;stroke: rgb(192,192,192);stroke-opacity: 1.0;stroke-linejoin: bevel;stroke-dasharray: 2.0, 2.0;shape-rendering:crispEdges;" transform="matrix(1,0,0,1,0,0)" clip-path="url(#_1578034896918clip-2)"/><line x1="71" y1="336.97" x2="1140" y2="336.97" style="stroke-width: 0.5;stroke: rgb(192,192,192);stroke-opacity: 1.0;stroke-linejoin: bevel;stroke-dasharray: 2.0, 2.0;shape-rendering:crispEdges;" transform="matrix(1,0,0,1,0,0)" clip-path="url(#_1578034896918clip-2)"/><line x1="71" y1="299.09" x2="1140" y2="299.09" style="stroke-width: 0.5;stroke: rgb(192,192,192);stroke-opacity: 1.0;stroke-linejoin: bevel;stroke-dasharray: 2.0, 2.0;shape-rendering:crispEdges;" transform="matrix(1,0,0,1,0,0)" clip-path="url(#_1578034896918clip-2)"/><line x1="71" y1="261.21" x2="1140" y2="261.21" style="stroke-width: 0.5;stroke: rgb(192,192,192);stroke-opacity: 1.0;stroke-linejoin: bevel;stroke-dasharray: 2.0, 2.0;shape-rendering:crispEdges;" transform="matrix(1,0,0,1,0,0)" clip-path="url(#_1578034896918clip-2)"/><line x1="71" y1="223.33" x2="1140" y2="223.33" style="stroke-width: 0.5;stroke: rgb(192,192,192);stroke-opacity: 1.0;stroke-linejoin: bevel;stroke-dasharray: 2.0, 2.0;shape-rendering:crispEdges;" transform="matrix(1,0,0,1,0,0)" clip-path="url(#_1578034896918clip-2)"/><line x1="71" y1="185.45" x2="1140" y2="185.45" style="stroke-width: 0.5;stroke: rgb(192,192,192);stroke-opacity: 1.0;stroke-linejoin: bevel;stroke-dasharray: 2.0, 2.0;shape-rendering:crispEdges;" transform="matrix(1,0,0,1,0,0)" clip-path="url(#_1578034896918clip-2)"/><line x1="71" y1="147.57" x2="1140" y2="147.57" style="stroke-width: 0.5;stroke: rgb(192,192,192);stroke-opacity: 1.0;stroke-linejoin: bevel;stroke-dasharray: 2.0, 2.0;shape-rendering:crispEdges;" transform="matrix(1,0,0,1,0,0)" clip-path="url(#_1578034896918clip-2)"/><line x1="71" y1="109.69" x2="1140" y2="109.69" style="stroke-width: 0.5;stroke: rgb(192,192,192);stroke-opacity: 1.0;stroke-linejoin: bevel;stroke-dasharray: 2.0, 2.0;shape-rendering:crispEdges;" transform="matrix(1,0,0,1,0,0)" clip-path="url(#_1578034896918clip-2)"/><line x1="71" y1="71.81" x2="1140" y2="71.81" style="stroke-width: 0.5;stroke: rgb(192,192,192);stroke-opacity: 1.0;stroke-linejoin: bevel;stroke-dasharray: 2.0, 2.0;shape-rendering:crispEdges;" transform="matrix(1,0,0,1,0,0)" clip-path="url(#_1578034896918clip-2)"/><line x1="223.59" y1="90" x2="239.95" y2="92.13" style="stroke-width: 3.0;stroke: rgb(0,0,0);stroke-opacity: 1.0;stroke-linecap: square;shape-rendering:geometricPrecision;" transform="matrix(1,0,0,1,0,0)" clip-path="url(#_1578034896918clip-2)"/><line x1="239.95" y1="92.13" x2="351.19" y2="106.54" style="stroke-width: 3.0;stroke: rgb(0,0,0);stroke-opacity: 1.0;stroke-linecap: square;shape-rendering:geometricPrecision;" transform="matrix(1,0,0,1,0,0)" clip-path="url(#_1578034896918clip-2)"/><line x1="351.19" y1="106.54" x2="373.26" y2="109.37" style="stroke-width: 3.0;stroke: rgb(0,0,0);stroke-opacity: 1.0;stroke-linecap: square;shape-rendering:geometricPrecision;" transform="matrix(1,0,0,1,0,0)" clip-path="url(#_1578034896918clip-2)"/><line x1="373.26" y1="109.37" x2="395.27" y2="112.19" style="stroke-width: 3.0;stroke: rgb(0,0,0);stroke-opacity: 1.0;stroke-linecap: square;shape-rendering:geometricPrecision;" transform="matrix(1,0,0,1,0,0)" clip-path="url(#_1578034896918clip-2)"/><line x1="395.27" y1="112.19" x2="417.22" y2="115" style="stroke-width: 3.0;stroke: rgb(0,0,0);stroke-opacity: 1.0;stroke-linecap: square;shape-rendering:geometricPrecision;" transform="matrix(1,0,0,1,0,0)" clip-path="url(#_1578034896918clip-2)"/><line x1="417.22" y1="115" x2="439.12" y2="117.79" style="stroke-width: 3.0;stroke: rgb(0,0,0);stroke-opacity: 1.0;stroke-linecap: square;shape-rendering:geometricPrecision;" transform="matrix(1,0,0,1,0,0)" clip-path="url(#_1578034896918clip-2)"/><line x1="439.12" y1="117.79" x2="439.99" y2="117.9" style="stroke-width: 3.0;stroke: rgb(0,0,0);stroke-opacity: 1.0;stroke-linecap: square;shape-rendering:geometricPrecision;" transform="matrix(1,0,0,1,0,0)" clip-path="url(#_1578034896918clip-2)"/><line x1="439.99" y1="117.9" x2="441.74" y2="118.12" style="stroke-width: 3.0;stroke: rgb(0,0,0);stroke-opacity: 1.0;stroke-linecap: square;shape-rendering:geometricPrecision;" transform="matrix(1,0,0,1,0,0)" clip-path="url(#_1578034896918clip-2)"/><line x1="441.74" y1="118.12" x2="442.44" y2="118.21" style="stroke-width: 3.0;stroke: rgb(0,0,0);stroke-opacity: 1.0;stroke-linecap: square;shape-rendering:geometricPrecision;" transform="matrix(1,0,0,1,0,0)" clip-path="url(#_1578034896918clip-2)"/><line x1="442.44" y1="118.21" x2="442.74" y2="118.25" style="stroke-width: 3.0;stroke: rgb(0,0,0);stroke-opacity: 1.0;stroke-linecap: square;shape-rendering:geometricPrecision;" transform="matrix(1,0,0,1,0,0)" clip-path="url(#_1578034896918clip-2)"/><line x1="442.74" y1="118.25" x2="443.33" y2="118.32" style="stroke-width: 3.0;stroke: rgb(0,0,0);stroke-opacity: 1.0;stroke-linecap: square;shape-rendering:geometricPrecision;" transform="matrix(1,0,0,1,0,0)" clip-path="url(#_1578034896918clip-2)"/><line x1="443.33" y1="118.32" x2="443.38" y2="118.33" style="stroke-width: 3.0;stroke: rgb(0,0,0);stroke-opacity: 1.0;stroke-linecap: square;shape-rendering:geometricPrecision;" transform="matrix(1,0,0,1,0,0)" clip-path="url(#_1578034896918clip-2)"/><line x1="443.38" y1="118.33" x2="443.4" y2="118.33" style="stroke-width: 3.0;stroke: rgb(0,0,0);stroke-opacity: 1.0;stroke-linecap: square;shape-rendering:geometricPrecision;" transform="matrix(1,0,0,1,0,0)" clip-path="url(#_1578034896918clip-2)"/><line x1="443.4" y1="118.33" x2="443.42" y2="118.33" style="stroke-width: 3.0;stroke: rgb(0,0,0);stroke-opacity: 1.0;stroke-linecap: square;shape-rendering:geometricPrecision;" transform="matrix(1,0,0,1,0,0)" clip-path="url(#_1578034896918clip-2)"/><line x1="443.42" y1="118.33" x2="443.43" y2="118.34" style="stroke-width: 3.0;stroke: rgb(0,0,0);stroke-opacity: 1.0;stroke-linecap: square;shape-rendering:geometricPrecision;" transform="matrix(1,0,0,1,0,0)" clip-path="url(#_1578034896918clip-2)"/><line x1="443.43" y1="118.34" x2="443.44" y2="118.34" style="stroke-width: 3.0;stroke: rgb(0,0,0);stroke-opacity: 1.0;stroke-linecap: square;shape-rendering:geometricPrecision;" transform="matrix(1,0,0,1,0,0)" clip-path="url(#_1578034896918clip-2)"/><line x1="443.44" y1="118.34" x2="443.44" y2="118.34" style="stroke-width: 3.0;stroke: rgb(0,0,0);stroke-opacity: 1.0;stroke-linecap: square;shape-rendering:geometricPrecision;" transform="matrix(1,0,0,1,0,0)" clip-path="url(#_1578034896918clip-2)"/><line x1="443.44" y1="118.34" x2="443.44" y2="118.34" style="stroke-width: 3.0;stroke: rgb(0,0,0);stroke-opacity: 1.0;stroke-linecap: square;shape-rendering:geometricPrecision;" transform="matrix(1,0,0,1,0,0)" clip-path="url(#_1578034896918clip-2)"/><line x1="443.44" y1="118.34" x2="443.44" y2="118.34" style="stroke-width: 3.0;stroke: rgb(0,0,0);stroke-opacity: 1.0;stroke-linecap: square;shape-rendering:geometricPrecision;" transform="matrix(1,0,0,1,0,0)" clip-path="url(#_1578034896918clip-2)"/><line x1="443.44" y1="118.34" x2="443.44" y2="118.34" style="stroke-width: 3.0;stroke: rgb(0,0,0);stroke-opacity: 1.0;stroke-linecap: square;shape-rendering:geometricPrecision;" transform="matrix(1,0,0,1,0,0)" clip-path="url(#_1578034896918clip-2)"/><line x1="443.44" y1="118.34" x2="443.51" y2="118.37" style="stroke-width: 3.0;stroke: rgb(0,0,0);stroke-opacity: 1.0;stroke-linecap: square;shape-rendering:geometricPrecision;" transform="matrix(1,0,0,1,0,0)" clip-path="url(#_1578034896918clip-2)"/><line x1="443.51" y1="118.37" x2="444.16" y2="118.72" style="stroke-width: 3.0;stroke: rgb(0,0,0);stroke-opacity: 1.0;stroke-linecap: square;shape-rendering:geometricPrecision;" transform="matrix(1,0,0,1,0,0)" clip-path="url(#_1578034896918clip-2)"/><line x1="444.16" y1="118.72" x2="450.67" y2="122.16" style="stroke-width: 3.0;stroke: rgb(0,0,0);stroke-opacity: 1.0;stroke-linecap: square;shape-rendering:geometricPrecision;" transform="matrix(1,0,0,1,0,0)" clip-path="url(#_1578034896918clip-2)"/><line x1="450.67" y1="122.16" x2="514.5" y2="158.1" style="stroke-width: 3.0;stroke: rgb(0,0,0);stroke-opacity: 1.0;stroke-linecap: square;shape-rendering:geometricPrecision;" transform="matrix(1,0,0,1,0,0)" clip-path="url(#_1578034896918clip-2)"/><line x1="514.5" y1="158.1" x2="579.96" y2="199.5" style="stroke-width: 3.0;stroke: rgb(0,0,0);stroke-opacity: 1.0;stroke-linecap: square;shape-rendering:geometricPrecision;" transform="matrix(1,0,0,1,0,0)" clip-path="url(#_1578034896918clip-2)"/><line x1="579.96" y1="199.5" x2="639.99" y2="242.2" style="stroke-width: 3.0;stroke: rgb(0,0,0);stroke-opacity: 1.0;stroke-linecap: square;shape-rendering:geometricPrecision;" transform="matrix(1,0,0,1,0,0)" clip-path="url(#_1578034896918clip-2)"/><line x1="639.99" y1="242.2" x2="694.38" y2="285.44" style="stroke-width: 3.0;stroke: rgb(0,0,0);stroke-opacity: 1.0;stroke-linecap: square;shape-rendering:geometricPrecision;" transform="matrix(1,0,0,1,0,0)" clip-path="url(#_1578034896918clip-2)"/><line x1="694.38" y1="285.44" x2="743.26" y2="328.61" style="stroke-width: 3.0;stroke: rgb(0,0,0);stroke-opacity: 1.0;stroke-linecap: square;shape-rendering:geometricPrecision;" transform="matrix(1,0,0,1,0,0)" clip-path="url(#_1578034896918clip-2)"/><line x1="743.26" y1="328.61" x2="786.84" y2="371.09" style="stroke-width: 3.0;stroke: rgb(0,0,0);stroke-opacity: 1.0;stroke-linecap: square;shape-rendering:geometricPrecision;" transform="matrix(1,0,0,1,0,0)" clip-path="url(#_1578034896918clip-2)"/><line x1="786.84" y1="371.09" x2="825.37" y2="412.28" style="stroke-width: 3.0;stroke: rgb(0,0,0);stroke-opacity: 1.0;stroke-linecap: square;shape-rendering:geometricPrecision;" transform="matrix(1,0,0,1,0,0)" clip-path="url(#_1578034896918clip-2)"/><line x1="825.37" y1="412.28" x2="835.53" y2="423.76" style="stroke-width: 3.0;stroke: rgb(0,0,0);stroke-opacity: 1.0;stroke-linecap: square;shape-rendering:geometricPrecision;" transform="matrix(1,0,0,1,0,0)" clip-path="url(#_1578034896918clip-2)"/><line x1="835.53" y1="423.76" x2="844.83" y2="434.54" style="stroke-width: 3.0;stroke: rgb(0,0,0);stroke-opacity: 1.0;stroke-linecap: square;shape-rendering:geometricPrecision;" transform="matrix(1,0,0,1,0,0)" clip-path="url(#_1578034896918clip-2)"/><line x1="844.83" y1="434.54" x2="848.17" y2="438.46" style="stroke-width: 3.0;stroke: rgb(0,0,0);stroke-opacity: 1.0;stroke-linecap: square;shape-rendering:geometricPrecision;" transform="matrix(1,0,0,1,0,0)" clip-path="url(#_1578034896918clip-2)"/><line x1="848.17" y1="438.46" x2="849.87" y2="440.47" style="stroke-width: 3.0;stroke: rgb(0,0,0);stroke-opacity: 1.0;stroke-linecap: square;shape-rendering:geometricPrecision;" transform="matrix(1,0,0,1,0,0)" clip-path="url(#_1578034896918clip-2)"/><line x1="849.87" y1="440.47" x2="851.41" y2="442.31" style="stroke-width: 3.0;stroke: rgb(0,0,0);stroke-opacity: 1.0;stroke-linecap: square;shape-rendering:geometricPrecision;" transform="matrix(1,0,0,1,0,0)" clip-path="url(#_1578034896918clip-2)"/><line x1="851.41" y1="442.31" x2="866.49" y2="460.57" style="stroke-width: 3.0;stroke: rgb(0,0,0);stroke-opacity: 1.0;stroke-linecap: square;shape-rendering:geometricPrecision;" transform="matrix(1,0,0,1,0,0)" clip-path="url(#_1578034896918clip-2)"/><line x1="866.49" y1="460.57" x2="879.54" y2="476.93" style="stroke-width: 3.0;stroke: rgb(0,0,0);stroke-opacity: 1.0;stroke-linecap: square;shape-rendering:geometricPrecision;" transform="matrix(1,0,0,1,0,0)" clip-path="url(#_1578034896918clip-2)"/><line x1="879.54" y1="476.93" x2="888.5" y2="488.48" style="stroke-width: 3.0;stroke: rgb(0,0,0);stroke-opacity: 1.0;stroke-linecap: square;shape-rendering:geometricPrecision;" transform="matrix(1,0,0,1,0,0)" clip-path="url(#_1578034896918clip-2)"/><line x1="888.5" y1="488.48" x2="891.6" y2="492.53" style="stroke-width: 3.0;stroke: rgb(0,0,0);stroke-opacity: 1.0;stroke-linecap: square;shape-rendering:geometricPrecision;" transform="matrix(1,0,0,1,0,0)" clip-path="url(#_1578034896918clip-2)"/><line x1="891.6" y1="492.53" x2="895.35" y2="497.48" style="stroke-width: 3.0;stroke: rgb(0,0,0);stroke-opacity: 1.0;stroke-linecap: square;shape-rendering:geometricPrecision;" transform="matrix(1,0,0,1,0,0)" clip-path="url(#_1578034896918clip-2)"/><line x1="895.35" y1="497.48" x2="919.78" y2="530.96" style="stroke-width: 3.0;stroke: rgb(0,0,0);stroke-opacity: 1.0;stroke-linecap: square;shape-rendering:geometricPrecision;" transform="matrix(1,0,0,1,0,0)" clip-path="url(#_1578034896918clip-2)"/><line x1="919.78" y1="530.96" x2="925.38" y2="538.95" style="stroke-width: 3.0;stroke: rgb(0,0,0);stroke-opacity: 1.0;stroke-linecap: square;shape-rendering:geometricPrecision;" transform="matrix(1,0,0,1,0,0)" clip-path="url(#_1578034896918clip-2)"/><line x1="925.38" y1="538.95" x2="931.2" y2="547.39" style="stroke-width: 3.0;stroke: rgb(0,0,0);stroke-opacity: 1.0;stroke-linecap: square;shape-rendering:geometricPrecision;" transform="matrix(1,0,0,1,0,0)" clip-path="url(#_1578034896918clip-2)"/><line x1="931.2" y1="547.39" x2="932.82" y2="549.76" style="stroke-width: 3.0;stroke: rgb(0,0,0);stroke-opacity: 1.0;stroke-linecap: square;shape-rendering:geometricPrecision;" transform="matrix(1,0,0,1,0,0)" clip-path="url(#_1578034896918clip-2)"/><line x1="932.82" y1="549.76" x2="933.66" y2="551.01" style="stroke-width: 3.0;stroke: rgb(0,0,0);stroke-opacity: 1.0;stroke-linecap: square;shape-rendering:geometricPrecision;" transform="matrix(1,0,0,1,0,0)" clip-path="url(#_1578034896918clip-2)"/><line x1="933.66" y1="551.01" x2="934.47" y2="552.2" style="stroke-width: 3.0;stroke: rgb(0,0,0);stroke-opacity: 1.0;stroke-linecap: square;shape-rendering:geometricPrecision;" transform="matrix(1,0,0,1,0,0)" clip-path="url(#_1578034896918clip-2)"/><line x1="934.47" y1="552.2" x2="942.27" y2="563.84" style="stroke-width: 3.0;stroke: rgb(0,0,0);stroke-opacity: 1.0;stroke-linecap: square;shape-rendering:geometricPrecision;" transform="matrix(1,0,0,1,0,0)" clip-path="url(#_1578034896918clip-2)"/><line x1="942.27" y1="563.84" x2="960.17" y2="591.56" style="stroke-width: 3.0;stroke: rgb(0,0,0);stroke-opacity: 1.0;stroke-linecap: square;shape-rendering:geometricPrecision;" transform="matrix(1,0,0,1,0,0)" clip-path="url(#_1578034896918clip-2)"/><line x1="960.17" y1="591.56" x2="974.23" y2="614.45" style="stroke-width: 3.0;stroke: rgb(0,0,0);stroke-opacity: 1.0;stroke-linecap: square;shape-rendering:geometricPrecision;" transform="matrix(1,0,0,1,0,0)" clip-path="url(#_1578034896918clip-2)"/><line x1="974.23" y1="614.45" x2="975.29" y2="616.22" style="stroke-width: 3.0;stroke: rgb(0,0,0);stroke-opacity: 1.0;stroke-linecap: square;shape-rendering:geometricPrecision;" transform="matrix(1,0,0,1,0,0)" clip-path="url(#_1578034896918clip-2)"/><line x1="975.29" y1="616.22" x2="975.98" y2="617.37" style="stroke-width: 3.0;stroke: rgb(0,0,0);stroke-opacity: 1.0;stroke-linecap: square;shape-rendering:geometricPrecision;" transform="matrix(1,0,0,1,0,0)" clip-path="url(#_1578034896918clip-2)"/><line x1="975.98" y1="617.37" x2="976.23" y2="617.8" style="stroke-width: 3.0;stroke: rgb(0,0,0);stroke-opacity: 1.0;stroke-linecap: square;shape-rendering:geometricPrecision;" transform="matrix(1,0,0,1,0,0)" clip-path="url(#_1578034896918clip-2)"/><line x1="976.23" y1="617.8" x2="976.47" y2="618.21" style="stroke-width: 3.0;stroke: rgb(0,0,0);stroke-opacity: 1.0;stroke-linecap: square;shape-rendering:geometricPrecision;" transform="matrix(1,0,0,1,0,0)" clip-path="url(#_1578034896918clip-2)"/><line x1="976.47" y1="618.21" x2="978.78" y2="622.1" style="stroke-width: 3.0;stroke: rgb(0,0,0);stroke-opacity: 1.0;stroke-linecap: square;shape-rendering:geometricPrecision;" transform="matrix(1,0,0,1,0,0)" clip-path="url(#_1578034896918clip-2)"/><line x1="978.78" y1="622.1" x2="986.57" y2="635.59" style="stroke-width: 3.0;stroke: rgb(0,0,0);stroke-opacity: 1.0;stroke-linecap: square;shape-rendering:geometricPrecision;" transform="matrix(1,0,0,1,0,0)" clip-path="url(#_1578034896918clip-2)"/><line x1="986.57" y1="635.59" x2="987.83" y2="637.82" style="stroke-width: 3.0;stroke: rgb(0,0,0);stroke-opacity: 1.0;stroke-linecap: square;shape-rendering:geometricPrecision;" transform="matrix(1,0,0,1,0,0)" clip-path="url(#_1578034896918clip-2)"/><line x1="987.83" y1="637.82" x2="988.33" y2="638.7" style="stroke-width: 3.0;stroke: rgb(0,0,0);stroke-opacity: 1.0;stroke-linecap: square;shape-rendering:geometricPrecision;" transform="matrix(1,0,0,1,0,0)" clip-path="url(#_1578034896918clip-2)"/><line x1="988.33" y1="638.7" x2="988.66" y2="639.3" style="stroke-width: 3.0;stroke: rgb(0,0,0);stroke-opacity: 1.0;stroke-linecap: square;shape-rendering:geometricPrecision;" transform="matrix(1,0,0,1,0,0)" clip-path="url(#_1578034896918clip-2)"/><line x1="988.66" y1="639.3" x2="988.88" y2="639.7" style="stroke-width: 3.0;stroke: rgb(0,0,0);stroke-opacity: 1.0;stroke-linecap: square;shape-rendering:geometricPrecision;" transform="matrix(1,0,0,1,0,0)" clip-path="url(#_1578034896918clip-2)"/><line x1="988.88" y1="639.7" x2="989" y2="639.92" style="stroke-width: 3.0;stroke: rgb(0,0,0);stroke-opacity: 1.0;stroke-linecap: square;shape-rendering:geometricPrecision;" transform="matrix(1,0,0,1,0,0)" clip-path="url(#_1578034896918clip-2)"/><line x1="989" y1="639.92" x2="989.04" y2="640" style="stroke-width: 3.0;stroke: rgb(0,0,0);stroke-opacity: 1.0;stroke-linecap: square;shape-rendering:geometricPrecision;" transform="matrix(1,0,0,1,0,0)" clip-path="url(#_1578034896918clip-2)"/><line x1="989.04" y1="640" x2="989.04" y2="640" style="stroke-width: 3.0;stroke: rgb(0,0,0);stroke-opacity: 1.0;stroke-linecap: square;shape-rendering:geometricPrecision;" transform="matrix(1,0,0,1,0,0)" clip-path="url(#_1578034896918clip-2)"/><line x1="989.04" y1="640" x2="989.04" y2="640" style="stroke-width: 3.0;stroke: rgb(0,0,0);stroke-opacity: 1.0;stroke-linecap: square;shape-rendering:geometricPrecision;" transform="matrix(1,0,0,1,0,0)" clip-path="url(#_1578034896918clip-2)"/><line x1="989.04" y1="640" x2="989.04" y2="640" style="stroke-width: 3.0;stroke: rgb(0,0,0);stroke-opacity: 1.0;stroke-linecap: square;shape-rendering:geometricPrecision;" transform="matrix(1,0,0,1,0,0)" clip-path="url(#_1578034896918clip-2)"/><rect x="71" y="35" width="1069" height="660" style="stroke-width: 0.5;stroke: rgb(0,0,0);stroke-opacity: 1.0;stroke-linecap: round;stroke-linejoin: round;shape-rendering:crispEdges;; fill: none" transform="matrix(1,0,0,1,0,0)" clip-path="url(#_1578034896918clip-0)"/></svg>
