<!DOCTYPE svg PUBLIC "-//W3C//DTD SVG 1.1//EN" "http://www.w3.org/Graphics/SVG/1.1/DTD/svg11.dtd">
<svg xmlns="http://www.w3.org/2000/svg" xmlns:xlink="http://www.w3.org/1999/xlink" xmlns:jfreesvg="http://www.jfree.org/jfreesvg/svg" width="1152" height="768" text-rendering="auto" shape-rendering="auto">
<defs><clipPath id="_666869022978321clip-0"><path d="M 0 0 L 1152 0 L 1152 768 L 0 768 L 0 0 Z "/></clipPath>
<clipPath id="_666869022978321clip-1"><path d="M 384.5 345.5 L 384.5 1497.5 L -383.5 1497.5 L -383.5 345.5 L 384.5 345.5 Z "/></clipPath>
<clipPath id="_666869022978321clip-2"><path d="M 77 35 L 77 695 L 1140 695 L 1140 35 Z "/></clipPath>
</defs>
<rect x="0" y="0" width="1152" height="768" style="fill: rgb(255,255,255); fill-opacity: 1.0" transform="matrix(1,0,0,1,0,0)" clip-path="url(#_666869022978321clip-0)"/><g transform="matrix(1,0,0,1,0,0)"><text x="439" y="21.01" style="fill: rgb(0,0,0); fill-opacity: 1.0; font-family: Tahoma; font-size: 20px; font-weight: bold;" clip-path="url(#_666869022978321clip-0)">Moment_Coefficient_Curve</text></g><rect x="489" y="746" width="174" height="21" style="fill: rgb(255,255,255); fill-opacity: 1.0" transform="matrix(1,0,0,1,0,0)" clip-path="url(#_666869022978321clip-0)"/><g style="stroke-width: 3.0;stroke: rgb(0,0,0);stroke-opacity: 1.0;stroke-linecap: square;shape-rendering:geometricPrecision;; fill: none" transform="matrix(1,0,0,1,0,0)" clip-path="url(#_666869022978321clip-0)"><path d="M 492 756.5 L 506 756.5"/></g><g transform="matrix(1,0,0,1,0,0)"><text x="510" y="761.01" style="fill: rgb(64,64,64); fill-opacity: 1.0; font-family: Tahoma; font-size: 12px;" clip-path="url(#_666869022978321clip-0)"> Moment_Coefficient_Curve </text></g><rect x="77" y="35" width="1063" height="660" style="fill: rgb(255,255,255); fill-opacity: 0.0" transform="matrix(1,0,0,1,0,0)" clip-path="url(#_666869022978321clip-0)"/><line x1="77" y1="699" x2="1140" y2="699" style="stroke-width: 0.5;stroke: rgb(128,128,128);stroke-opacity: 1.0;stroke-linecap: square;shape-rendering:crispEdges;" transform="matrix(1,0,0,1,0,0)" clip-path="url(#_666869022978321clip-0)"/><g transform="matrix(1,0,0,1,0,0)"><text x="99.72" y="715.52" style="fill: rgb(64,64,64); fill-opacity: 1.0; font-family: Tahoma; font-size: 12px;" clip-path="url(#_666869022978321clip-0)">-4,5</text></g><line x1="110.22" y1="701" x2="110.22" y2="699" style="stroke-width: 0.5;stroke: rgb(128,128,128);stroke-opacity: 1.0;stroke-linecap: square;shape-rendering:crispEdges;" transform="matrix(1,0,0,1,0,0)" clip-path="url(#_666869022978321clip-0)"/><g transform="matrix(1,0,0,1,0,0)"><text x="132.94" y="715.52" style="fill: rgb(64,64,64); fill-opacity: 1.0; font-family: Tahoma; font-size: 12px;" clip-path="url(#_666869022978321clip-0)">-4,0</text></g><line x1="143.44" y1="701" x2="143.44" y2="699" style="stroke-width: 0.5;stroke: rgb(128,128,128);stroke-opacity: 1.0;stroke-linecap: square;shape-rendering:crispEdges;" transform="matrix(1,0,0,1,0,0)" clip-path="url(#_666869022978321clip-0)"/><g transform="matrix(1,0,0,1,0,0)"><text x="166.16" y="715.52" style="fill: rgb(64,64,64); fill-opacity: 1.0; font-family: Tahoma; font-size: 12px;" clip-path="url(#_666869022978321clip-0)">-3,5</text></g><line x1="176.66" y1="701" x2="176.66" y2="699" style="stroke-width: 0.5;stroke: rgb(128,128,128);stroke-opacity: 1.0;stroke-linecap: square;shape-rendering:crispEdges;" transform="matrix(1,0,0,1,0,0)" clip-path="url(#_666869022978321clip-0)"/><g transform="matrix(1,0,0,1,0,0)"><text x="199.38" y="715.52" style="fill: rgb(64,64,64); fill-opacity: 1.0; font-family: Tahoma; font-size: 12px;" clip-path="url(#_666869022978321clip-0)">-3,0</text></g><line x1="209.88" y1="701" x2="209.88" y2="699" style="stroke-width: 0.5;stroke: rgb(128,128,128);stroke-opacity: 1.0;stroke-linecap: square;shape-rendering:crispEdges;" transform="matrix(1,0,0,1,0,0)" clip-path="url(#_666869022978321clip-0)"/><g transform="matrix(1,0,0,1,0,0)"><text x="232.59" y="715.52" style="fill: rgb(64,64,64); fill-opacity: 1.0; font-family: Tahoma; font-size: 12px;" clip-path="url(#_666869022978321clip-0)">-2,5</text></g><line x1="243.09" y1="701" x2="243.09" y2="699" style="stroke-width: 0.5;stroke: rgb(128,128,128);stroke-opacity: 1.0;stroke-linecap: square;shape-rendering:crispEdges;" transform="matrix(1,0,0,1,0,0)" clip-path="url(#_666869022978321clip-0)"/><g transform="matrix(1,0,0,1,0,0)"><text x="265.81" y="715.52" style="fill: rgb(64,64,64); fill-opacity: 1.0; font-family: Tahoma; font-size: 12px;" clip-path="url(#_666869022978321clip-0)">-2,0</text></g><line x1="276.31" y1="701" x2="276.31" y2="699" style="stroke-width: 0.5;stroke: rgb(128,128,128);stroke-opacity: 1.0;stroke-linecap: square;shape-rendering:crispEdges;" transform="matrix(1,0,0,1,0,0)" clip-path="url(#_666869022978321clip-0)"/><g transform="matrix(1,0,0,1,0,0)"><text x="299.03" y="715.52" style="fill: rgb(64,64,64); fill-opacity: 1.0; font-family: Tahoma; font-size: 12px;" clip-path="url(#_666869022978321clip-0)">-1,5</text></g><line x1="309.53" y1="701" x2="309.53" y2="699" style="stroke-width: 0.5;stroke: rgb(128,128,128);stroke-opacity: 1.0;stroke-linecap: square;shape-rendering:crispEdges;" transform="matrix(1,0,0,1,0,0)" clip-path="url(#_666869022978321clip-0)"/><g transform="matrix(1,0,0,1,0,0)"><text x="332.25" y="715.52" style="fill: rgb(64,64,64); fill-opacity: 1.0; font-family: Tahoma; font-size: 12px;" clip-path="url(#_666869022978321clip-0)">-1,0</text></g><line x1="342.75" y1="701" x2="342.75" y2="699" style="stroke-width: 0.5;stroke: rgb(128,128,128);stroke-opacity: 1.0;stroke-linecap: square;shape-rendering:crispEdges;" transform="matrix(1,0,0,1,0,0)" clip-path="url(#_666869022978321clip-0)"/><g transform="matrix(1,0,0,1,0,0)"><text x="365.47" y="715.52" style="fill: rgb(64,64,64); fill-opacity: 1.0; font-family: Tahoma; font-size: 12px;" clip-path="url(#_666869022978321clip-0)">-0,5</text></g><line x1="375.97" y1="701" x2="375.97" y2="699" style="stroke-width: 0.5;stroke: rgb(128,128,128);stroke-opacity: 1.0;stroke-linecap: square;shape-rendering:crispEdges;" transform="matrix(1,0,0,1,0,0)" clip-path="url(#_666869022978321clip-0)"/><g transform="matrix(1,0,0,1,0,0)"><text x="400.69" y="715.52" style="fill: rgb(64,64,64); fill-opacity: 1.0; font-family: Tahoma; font-size: 12px;" clip-path="url(#_666869022978321clip-0)">0,0</text></g><line x1="409.19" y1="701" x2="409.19" y2="699" style="stroke-width: 0.5;stroke: rgb(128,128,128);stroke-opacity: 1.0;stroke-linecap: square;shape-rendering:crispEdges;" transform="matrix(1,0,0,1,0,0)" clip-path="url(#_666869022978321clip-0)"/><g transform="matrix(1,0,0,1,0,0)"><text x="433.91" y="715.52" style="fill: rgb(64,64,64); fill-opacity: 1.0; font-family: Tahoma; font-size: 12px;" clip-path="url(#_666869022978321clip-0)">0,5</text></g><line x1="442.41" y1="701" x2="442.41" y2="699" style="stroke-width: 0.5;stroke: rgb(128,128,128);stroke-opacity: 1.0;stroke-linecap: square;shape-rendering:crispEdges;" transform="matrix(1,0,0,1,0,0)" clip-path="url(#_666869022978321clip-0)"/><g transform="matrix(1,0,0,1,0,0)"><text x="467.12" y="715.52" style="fill: rgb(64,64,64); fill-opacity: 1.0; font-family: Tahoma; font-size: 12px;" clip-path="url(#_666869022978321clip-0)">1,0</text></g><line x1="475.62" y1="701" x2="475.62" y2="699" style="stroke-width: 0.5;stroke: rgb(128,128,128);stroke-opacity: 1.0;stroke-linecap: square;shape-rendering:crispEdges;" transform="matrix(1,0,0,1,0,0)" clip-path="url(#_666869022978321clip-0)"/><g transform="matrix(1,0,0,1,0,0)"><text x="500.34" y="715.52" style="fill: rgb(64,64,64); fill-opacity: 1.0; font-family: Tahoma; font-size: 12px;" clip-path="url(#_666869022978321clip-0)">1,5</text></g><line x1="508.84" y1="701" x2="508.84" y2="699" style="stroke-width: 0.5;stroke: rgb(128,128,128);stroke-opacity: 1.0;stroke-linecap: square;shape-rendering:crispEdges;" transform="matrix(1,0,0,1,0,0)" clip-path="url(#_666869022978321clip-0)"/><g transform="matrix(1,0,0,1,0,0)"><text x="533.56" y="715.52" style="fill: rgb(64,64,64); fill-opacity: 1.0; font-family: Tahoma; font-size: 12px;" clip-path="url(#_666869022978321clip-0)">2,0</text></g><line x1="542.06" y1="701" x2="542.06" y2="699" style="stroke-width: 0.5;stroke: rgb(128,128,128);stroke-opacity: 1.0;stroke-linecap: square;shape-rendering:crispEdges;" transform="matrix(1,0,0,1,0,0)" clip-path="url(#_666869022978321clip-0)"/><g transform="matrix(1,0,0,1,0,0)"><text x="566.78" y="715.52" style="fill: rgb(64,64,64); fill-opacity: 1.0; font-family: Tahoma; font-size: 12px;" clip-path="url(#_666869022978321clip-0)">2,5</text></g><line x1="575.28" y1="701" x2="575.28" y2="699" style="stroke-width: 0.5;stroke: rgb(128,128,128);stroke-opacity: 1.0;stroke-linecap: square;shape-rendering:crispEdges;" transform="matrix(1,0,0,1,0,0)" clip-path="url(#_666869022978321clip-0)"/><g transform="matrix(1,0,0,1,0,0)"><text x="600" y="715.52" style="fill: rgb(64,64,64); fill-opacity: 1.0; font-family: Tahoma; font-size: 12px;" clip-path="url(#_666869022978321clip-0)">3,0</text></g><line x1="608.5" y1="701" x2="608.5" y2="699" style="stroke-width: 0.5;stroke: rgb(128,128,128);stroke-opacity: 1.0;stroke-linecap: square;shape-rendering:crispEdges;" transform="matrix(1,0,0,1,0,0)" clip-path="url(#_666869022978321clip-0)"/><g transform="matrix(1,0,0,1,0,0)"><text x="633.22" y="715.52" style="fill: rgb(64,64,64); fill-opacity: 1.0; font-family: Tahoma; font-size: 12px;" clip-path="url(#_666869022978321clip-0)">3,5</text></g><line x1="641.72" y1="701" x2="641.72" y2="699" style="stroke-width: 0.5;stroke: rgb(128,128,128);stroke-opacity: 1.0;stroke-linecap: square;shape-rendering:crispEdges;" transform="matrix(1,0,0,1,0,0)" clip-path="url(#_666869022978321clip-0)"/><g transform="matrix(1,0,0,1,0,0)"><text x="666.44" y="715.52" style="fill: rgb(64,64,64); fill-opacity: 1.0; font-family: Tahoma; font-size: 12px;" clip-path="url(#_666869022978321clip-0)">4,0</text></g><line x1="674.94" y1="701" x2="674.94" y2="699" style="stroke-width: 0.5;stroke: rgb(128,128,128);stroke-opacity: 1.0;stroke-linecap: square;shape-rendering:crispEdges;" transform="matrix(1,0,0,1,0,0)" clip-path="url(#_666869022978321clip-0)"/><g transform="matrix(1,0,0,1,0,0)"><text x="699.66" y="715.52" style="fill: rgb(64,64,64); fill-opacity: 1.0; font-family: Tahoma; font-size: 12px;" clip-path="url(#_666869022978321clip-0)">4,5</text></g><line x1="708.16" y1="701" x2="708.16" y2="699" style="stroke-width: 0.5;stroke: rgb(128,128,128);stroke-opacity: 1.0;stroke-linecap: square;shape-rendering:crispEdges;" transform="matrix(1,0,0,1,0,0)" clip-path="url(#_666869022978321clip-0)"/><g transform="matrix(1,0,0,1,0,0)"><text x="732.88" y="715.52" style="fill: rgb(64,64,64); fill-opacity: 1.0; font-family: Tahoma; font-size: 12px;" clip-path="url(#_666869022978321clip-0)">5,0</text></g><line x1="741.38" y1="701" x2="741.38" y2="699" style="stroke-width: 0.5;stroke: rgb(128,128,128);stroke-opacity: 1.0;stroke-linecap: square;shape-rendering:crispEdges;" transform="matrix(1,0,0,1,0,0)" clip-path="url(#_666869022978321clip-0)"/><g transform="matrix(1,0,0,1,0,0)"><text x="766.09" y="715.52" style="fill: rgb(64,64,64); fill-opacity: 1.0; font-family: Tahoma; font-size: 12px;" clip-path="url(#_666869022978321clip-0)">5,5</text></g><line x1="774.59" y1="701" x2="774.59" y2="699" style="stroke-width: 0.5;stroke: rgb(128,128,128);stroke-opacity: 1.0;stroke-linecap: square;shape-rendering:crispEdges;" transform="matrix(1,0,0,1,0,0)" clip-path="url(#_666869022978321clip-0)"/><g transform="matrix(1,0,0,1,0,0)"><text x="799.31" y="715.52" style="fill: rgb(64,64,64); fill-opacity: 1.0; font-family: Tahoma; font-size: 12px;" clip-path="url(#_666869022978321clip-0)">6,0</text></g><line x1="807.81" y1="701" x2="807.81" y2="699" style="stroke-width: 0.5;stroke: rgb(128,128,128);stroke-opacity: 1.0;stroke-linecap: square;shape-rendering:crispEdges;" transform="matrix(1,0,0,1,0,0)" clip-path="url(#_666869022978321clip-0)"/><g transform="matrix(1,0,0,1,0,0)"><text x="832.53" y="715.52" style="fill: rgb(64,64,64); fill-opacity: 1.0; font-family: Tahoma; font-size: 12px;" clip-path="url(#_666869022978321clip-0)">6,5</text></g><line x1="841.03" y1="701" x2="841.03" y2="699" style="stroke-width: 0.5;stroke: rgb(128,128,128);stroke-opacity: 1.0;stroke-linecap: square;shape-rendering:crispEdges;" transform="matrix(1,0,0,1,0,0)" clip-path="url(#_666869022978321clip-0)"/><g transform="matrix(1,0,0,1,0,0)"><text x="865.75" y="715.52" style="fill: rgb(64,64,64); fill-opacity: 1.0; font-family: Tahoma; font-size: 12px;" clip-path="url(#_666869022978321clip-0)">7,0</text></g><line x1="874.25" y1="701" x2="874.25" y2="699" style="stroke-width: 0.5;stroke: rgb(128,128,128);stroke-opacity: 1.0;stroke-linecap: square;shape-rendering:crispEdges;" transform="matrix(1,0,0,1,0,0)" clip-path="url(#_666869022978321clip-0)"/><g transform="matrix(1,0,0,1,0,0)"><text x="898.97" y="715.52" style="fill: rgb(64,64,64); fill-opacity: 1.0; font-family: Tahoma; font-size: 12px;" clip-path="url(#_666869022978321clip-0)">7,5</text></g><line x1="907.47" y1="701" x2="907.47" y2="699" style="stroke-width: 0.5;stroke: rgb(128,128,128);stroke-opacity: 1.0;stroke-linecap: square;shape-rendering:crispEdges;" transform="matrix(1,0,0,1,0,0)" clip-path="url(#_666869022978321clip-0)"/><g transform="matrix(1,0,0,1,0,0)"><text x="932.19" y="715.52" style="fill: rgb(64,64,64); fill-opacity: 1.0; font-family: Tahoma; font-size: 12px;" clip-path="url(#_666869022978321clip-0)">8,0</text></g><line x1="940.69" y1="701" x2="940.69" y2="699" style="stroke-width: 0.5;stroke: rgb(128,128,128);stroke-opacity: 1.0;stroke-linecap: square;shape-rendering:crispEdges;" transform="matrix(1,0,0,1,0,0)" clip-path="url(#_666869022978321clip-0)"/><g transform="matrix(1,0,0,1,0,0)"><text x="965.41" y="715.52" style="fill: rgb(64,64,64); fill-opacity: 1.0; font-family: Tahoma; font-size: 12px;" clip-path="url(#_666869022978321clip-0)">8,5</text></g><line x1="973.91" y1="701" x2="973.91" y2="699" style="stroke-width: 0.5;stroke: rgb(128,128,128);stroke-opacity: 1.0;stroke-linecap: square;shape-rendering:crispEdges;" transform="matrix(1,0,0,1,0,0)" clip-path="url(#_666869022978321clip-0)"/><g transform="matrix(1,0,0,1,0,0)"><text x="998.62" y="715.52" style="fill: rgb(64,64,64); fill-opacity: 1.0; font-family: Tahoma; font-size: 12px;" clip-path="url(#_666869022978321clip-0)">9,0</text></g><line x1="1007.12" y1="701" x2="1007.12" y2="699" style="stroke-width: 0.5;stroke: rgb(128,128,128);stroke-opacity: 1.0;stroke-linecap: square;shape-rendering:crispEdges;" transform="matrix(1,0,0,1,0,0)" clip-path="url(#_666869022978321clip-0)"/><g transform="matrix(1,0,0,1,0,0)"><text x="1031.84" y="715.52" style="fill: rgb(64,64,64); fill-opacity: 1.0; font-family: Tahoma; font-size: 12px;" clip-path="url(#_666869022978321clip-0)">9,5</text></g><line x1="1040.34" y1="701" x2="1040.34" y2="699" style="stroke-width: 0.5;stroke: rgb(128,128,128);stroke-opacity: 1.0;stroke-linecap: square;shape-rendering:crispEdges;" transform="matrix(1,0,0,1,0,0)" clip-path="url(#_666869022978321clip-0)"/><g transform="matrix(1,0,0,1,0,0)"><text x="1062.06" y="715.52" style="fill: rgb(64,64,64); fill-opacity: 1.0; font-family: Tahoma; font-size: 12px;" clip-path="url(#_666869022978321clip-0)">10,0</text></g><line x1="1073.56" y1="701" x2="1073.56" y2="699" style="stroke-width: 0.5;stroke: rgb(128,128,128);stroke-opacity: 1.0;stroke-linecap: square;shape-rendering:crispEdges;" transform="matrix(1,0,0,1,0,0)" clip-path="url(#_666869022978321clip-0)"/><g transform="matrix(1,0,0,1,0,0)"><text x="1095.28" y="715.52" style="fill: rgb(64,64,64); fill-opacity: 1.0; font-family: Tahoma; font-size: 12px;" clip-path="url(#_666869022978321clip-0)">10,5</text></g><line x1="1106.78" y1="701" x2="1106.78" y2="699" style="stroke-width: 0.5;stroke: rgb(128,128,128);stroke-opacity: 1.0;stroke-linecap: square;shape-rendering:crispEdges;" transform="matrix(1,0,0,1,0,0)" clip-path="url(#_666869022978321clip-0)"/><g transform="matrix(1,0,0,1,0,0)"><text x="559" y="734.59" style="fill: rgb(64,64,64); fill-opacity: 1.0; font-family: Tahoma; font-size: 14px; font-weight: bold;" clip-path="url(#_666869022978321clip-0)">alpha_h (deg)</text></g><line x1="73" y1="35" x2="73" y2="695" style="stroke-width: 0.5;stroke: rgb(128,128,128);stroke-opacity: 1.0;stroke-linecap: square;shape-rendering:crispEdges;" transform="matrix(1,0,0,1,0,0)" clip-path="url(#_666869022978321clip-0)"/><g transform="matrix(1,0,0,1,0,0)"><text x="33" y="677.01" style="fill: rgb(64,64,64); fill-opacity: 1.0; font-family: Tahoma; font-size: 12px;" clip-path="url(#_666869022978321clip-0)">-0,150</text></g><line x1="71" y1="671.99" x2="73" y2="671.99" style="stroke-width: 0.5;stroke: rgb(128,128,128);stroke-opacity: 1.0;stroke-linecap: square;shape-rendering:crispEdges;" transform="matrix(1,0,0,1,0,0)" clip-path="url(#_666869022978321clip-0)"/><g transform="matrix(1,0,0,1,0,0)"><text x="33" y="644.22" style="fill: rgb(64,64,64); fill-opacity: 1.0; font-family: Tahoma; font-size: 12px;" clip-path="url(#_666869022978321clip-0)">-0,148</text></g><line x1="71" y1="639.2" x2="73" y2="639.2" style="stroke-width: 0.5;stroke: rgb(128,128,128);stroke-opacity: 1.0;stroke-linecap: square;shape-rendering:crispEdges;" transform="matrix(1,0,0,1,0,0)" clip-path="url(#_666869022978321clip-0)"/><g transform="matrix(1,0,0,1,0,0)"><text x="33" y="611.43" style="fill: rgb(64,64,64); fill-opacity: 1.0; font-family: Tahoma; font-size: 12px;" clip-path="url(#_666869022978321clip-0)">-0,146</text></g><line x1="71" y1="606.4" x2="73" y2="606.4" style="stroke-width: 0.5;stroke: rgb(128,128,128);stroke-opacity: 1.0;stroke-linecap: square;shape-rendering:crispEdges;" transform="matrix(1,0,0,1,0,0)" clip-path="url(#_666869022978321clip-0)"/><g transform="matrix(1,0,0,1,0,0)"><text x="33" y="578.63" style="fill: rgb(64,64,64); fill-opacity: 1.0; font-family: Tahoma; font-size: 12px;" clip-path="url(#_666869022978321clip-0)">-0,144</text></g><line x1="71" y1="573.61" x2="73" y2="573.61" style="stroke-width: 0.5;stroke: rgb(128,128,128);stroke-opacity: 1.0;stroke-linecap: square;shape-rendering:crispEdges;" transform="matrix(1,0,0,1,0,0)" clip-path="url(#_666869022978321clip-0)"/><g transform="matrix(1,0,0,1,0,0)"><text x="33" y="545.84" style="fill: rgb(64,64,64); fill-opacity: 1.0; font-family: Tahoma; font-size: 12px;" clip-path="url(#_666869022978321clip-0)">-0,142</text></g><line x1="71" y1="540.82" x2="73" y2="540.82" style="stroke-width: 0.5;stroke: rgb(128,128,128);stroke-opacity: 1.0;stroke-linecap: square;shape-rendering:crispEdges;" transform="matrix(1,0,0,1,0,0)" clip-path="url(#_666869022978321clip-0)"/><g transform="matrix(1,0,0,1,0,0)"><text x="33" y="513.04" style="fill: rgb(64,64,64); fill-opacity: 1.0; font-family: Tahoma; font-size: 12px;" clip-path="url(#_666869022978321clip-0)">-0,140</text></g><line x1="71" y1="508.02" x2="73" y2="508.02" style="stroke-width: 0.5;stroke: rgb(128,128,128);stroke-opacity: 1.0;stroke-linecap: square;shape-rendering:crispEdges;" transform="matrix(1,0,0,1,0,0)" clip-path="url(#_666869022978321clip-0)"/><g transform="matrix(1,0,0,1,0,0)"><text x="33" y="480.25" style="fill: rgb(64,64,64); fill-opacity: 1.0; font-family: Tahoma; font-size: 12px;" clip-path="url(#_666869022978321clip-0)">-0,138</text></g><line x1="71" y1="475.23" x2="73" y2="475.23" style="stroke-width: 0.5;stroke: rgb(128,128,128);stroke-opacity: 1.0;stroke-linecap: square;shape-rendering:crispEdges;" transform="matrix(1,0,0,1,0,0)" clip-path="url(#_666869022978321clip-0)"/><g transform="matrix(1,0,0,1,0,0)"><text x="33" y="447.45" style="fill: rgb(64,64,64); fill-opacity: 1.0; font-family: Tahoma; font-size: 12px;" clip-path="url(#_666869022978321clip-0)">-0,136</text></g><line x1="71" y1="442.43" x2="73" y2="442.43" style="stroke-width: 0.5;stroke: rgb(128,128,128);stroke-opacity: 1.0;stroke-linecap: square;shape-rendering:crispEdges;" transform="matrix(1,0,0,1,0,0)" clip-path="url(#_666869022978321clip-0)"/><g transform="matrix(1,0,0,1,0,0)"><text x="33" y="414.66" style="fill: rgb(64,64,64); fill-opacity: 1.0; font-family: Tahoma; font-size: 12px;" clip-path="url(#_666869022978321clip-0)">-0,134</text></g><line x1="71" y1="409.64" x2="73" y2="409.64" style="stroke-width: 0.5;stroke: rgb(128,128,128);stroke-opacity: 1.0;stroke-linecap: square;shape-rendering:crispEdges;" transform="matrix(1,0,0,1,0,0)" clip-path="url(#_666869022978321clip-0)"/><g transform="matrix(1,0,0,1,0,0)"><text x="33" y="381.86" style="fill: rgb(64,64,64); fill-opacity: 1.0; font-family: Tahoma; font-size: 12px;" clip-path="url(#_666869022978321clip-0)">-0,132</text></g><line x1="71" y1="376.84" x2="73" y2="376.84" style="stroke-width: 0.5;stroke: rgb(128,128,128);stroke-opacity: 1.0;stroke-linecap: square;shape-rendering:crispEdges;" transform="matrix(1,0,0,1,0,0)" clip-path="url(#_666869022978321clip-0)"/><g transform="matrix(1,0,0,1,0,0)"><text x="33" y="349.07" style="fill: rgb(64,64,64); fill-opacity: 1.0; font-family: Tahoma; font-size: 12px;" clip-path="url(#_666869022978321clip-0)">-0,130</text></g><line x1="71" y1="344.05" x2="73" y2="344.05" style="stroke-width: 0.5;stroke: rgb(128,128,128);stroke-opacity: 1.0;stroke-linecap: square;shape-rendering:crispEdges;" transform="matrix(1,0,0,1,0,0)" clip-path="url(#_666869022978321clip-0)"/><g transform="matrix(1,0,0,1,0,0)"><text x="33" y="316.28" style="fill: rgb(64,64,64); fill-opacity: 1.0; font-family: Tahoma; font-size: 12px;" clip-path="url(#_666869022978321clip-0)">-0,128</text></g><line x1="71" y1="311.25" x2="73" y2="311.25" style="stroke-width: 0.5;stroke: rgb(128,128,128);stroke-opacity: 1.0;stroke-linecap: square;shape-rendering:crispEdges;" transform="matrix(1,0,0,1,0,0)" clip-path="url(#_666869022978321clip-0)"/><g transform="matrix(1,0,0,1,0,0)"><text x="33" y="283.48" style="fill: rgb(64,64,64); fill-opacity: 1.0; font-family: Tahoma; font-size: 12px;" clip-path="url(#_666869022978321clip-0)">-0,126</text></g><line x1="71" y1="278.46" x2="73" y2="278.46" style="stroke-width: 0.5;stroke: rgb(128,128,128);stroke-opacity: 1.0;stroke-linecap: square;shape-rendering:crispEdges;" transform="matrix(1,0,0,1,0,0)" clip-path="url(#_666869022978321clip-0)"/><g transform="matrix(1,0,0,1,0,0)"><text x="33" y="250.69" style="fill: rgb(64,64,64); fill-opacity: 1.0; font-family: Tahoma; font-size: 12px;" clip-path="url(#_666869022978321clip-0)">-0,124</text></g><line x1="71" y1="245.67" x2="73" y2="245.67" style="stroke-width: 0.5;stroke: rgb(128,128,128);stroke-opacity: 1.0;stroke-linecap: square;shape-rendering:crispEdges;" transform="matrix(1,0,0,1,0,0)" clip-path="url(#_666869022978321clip-0)"/><g transform="matrix(1,0,0,1,0,0)"><text x="33" y="217.89" style="fill: rgb(64,64,64); fill-opacity: 1.0; font-family: Tahoma; font-size: 12px;" clip-path="url(#_666869022978321clip-0)">-0,122</text></g><line x1="71" y1="212.87" x2="73" y2="212.87" style="stroke-width: 0.5;stroke: rgb(128,128,128);stroke-opacity: 1.0;stroke-linecap: square;shape-rendering:crispEdges;" transform="matrix(1,0,0,1,0,0)" clip-path="url(#_666869022978321clip-0)"/><g transform="matrix(1,0,0,1,0,0)"><text x="33" y="185.1" style="fill: rgb(64,64,64); fill-opacity: 1.0; font-family: Tahoma; font-size: 12px;" clip-path="url(#_666869022978321clip-0)">-0,120</text></g><line x1="71" y1="180.08" x2="73" y2="180.08" style="stroke-width: 0.5;stroke: rgb(128,128,128);stroke-opacity: 1.0;stroke-linecap: square;shape-rendering:crispEdges;" transform="matrix(1,0,0,1,0,0)" clip-path="url(#_666869022978321clip-0)"/><g transform="matrix(1,0,0,1,0,0)"><text x="33" y="152.3" style="fill: rgb(64,64,64); fill-opacity: 1.0; font-family: Tahoma; font-size: 12px;" clip-path="url(#_666869022978321clip-0)">-0,118</text></g><line x1="71" y1="147.28" x2="73" y2="147.28" style="stroke-width: 0.5;stroke: rgb(128,128,128);stroke-opacity: 1.0;stroke-linecap: square;shape-rendering:crispEdges;" transform="matrix(1,0,0,1,0,0)" clip-path="url(#_666869022978321clip-0)"/><g transform="matrix(1,0,0,1,0,0)"><text x="33" y="119.51" style="fill: rgb(64,64,64); fill-opacity: 1.0; font-family: Tahoma; font-size: 12px;" clip-path="url(#_666869022978321clip-0)">-0,116</text></g><line x1="71" y1="114.49" x2="73" y2="114.49" style="stroke-width: 0.5;stroke: rgb(128,128,128);stroke-opacity: 1.0;stroke-linecap: square;shape-rendering:crispEdges;" transform="matrix(1,0,0,1,0,0)" clip-path="url(#_666869022978321clip-0)"/><g transform="matrix(1,0,0,1,0,0)"><text x="33" y="86.71" style="fill: rgb(64,64,64); fill-opacity: 1.0; font-family: Tahoma; font-size: 12px;" clip-path="url(#_666869022978321clip-0)">-0,114</text></g><line x1="71" y1="81.69" x2="73" y2="81.69" style="stroke-width: 0.5;stroke: rgb(128,128,128);stroke-opacity: 1.0;stroke-linecap: square;shape-rendering:crispEdges;" transform="matrix(1,0,0,1,0,0)" clip-path="url(#_666869022978321clip-0)"/><g transform="matrix(1,0,0,1,0,0)"><text x="33" y="53.92" style="fill: rgb(64,64,64); fill-opacity: 1.0; font-family: Tahoma; font-size: 12px;" clip-path="url(#_666869022978321clip-0)">-0,112</text></g><line x1="71" y1="48.9" x2="73" y2="48.9" style="stroke-width: 0.5;stroke: rgb(128,128,128);stroke-opacity: 1.0;stroke-linecap: square;shape-rendering:crispEdges;" transform="matrix(1,0,0,1,0,0)" clip-path="url(#_666869022978321clip-0)"/><g style="fill: rgb(64,64,64); fill-opacity: 1.0; stroke: none" transform="matrix(0,-1,1,0,-345.5,384.5)" clip-path="url(#_666869022978321clip-1)"><path d="M 11.94 370.81 Q 9.66 370.81 8.3 369.42 Q 6.95 368.03 6.95 365.53 Q 6.95 363.11 8.3 361.67 Q 9.66 360.23 11.95 360.23 Q 12.56 360.23 13.05 360.3 Q 13.53 360.37 13.97 360.48 Q 14.33 360.59 14.73 360.77 Q 15.14 360.95 15.39 361.08 L 15.39 363.5 L 15.14 363.5 Q 14.95 363.34 14.67 363.12 Q 14.39 362.89 14.03 362.67 Q 13.67 362.45 13.25 362.3 Q 12.83 362.14 12.36 362.14 Q 11.81 362.14 11.34 362.31 Q 10.88 362.48 10.47 362.92 Q 10.08 363.31 9.84 363.98 Q 9.59 364.64 9.59 365.53 Q 9.59 366.48 9.85 367.13 Q 10.11 367.78 10.52 368.17 Q 10.91 368.56 11.4 368.73 Q 11.89 368.91 12.38 368.91 Q 12.88 368.91 13.34 368.73 Q 13.8 368.56 14.11 368.36 Q 14.45 368.14 14.71 367.92 Q 14.97 367.7 15.16 367.55 L 15.39 367.55 L 15.39 369.94 Q 15.11 370.06 14.74 370.23 Q 14.38 370.39 13.98 370.51 Q 13.5 370.66 13.09 370.73 Q 12.67 370.81 11.94 370.81 Z  M 27.3 370.61 L 24.75 370.61 L 24.75 363.86 L 22.91 368.22 L 21.16 368.22 L 19.3 363.86 L 19.3 370.61 L 16.89 370.61 L 16.89 360.44 L 19.84 360.44 L 22.09 365.45 L 24.34 360.44 L 27.3 360.44 L 27.3 370.61 Z "/></g><line x1="110.22" y1="35" x2="110.22" y2="695" style="stroke-width: 0.5;stroke: rgb(192,192,192);stroke-opacity: 1.0;stroke-linejoin: bevel;stroke-dasharray: 2.0, 2.0;shape-rendering:crispEdges;" transform="matrix(1,0,0,1,0,0)" clip-path="url(#_666869022978321clip-2)"/><line x1="143.44" y1="35" x2="143.44" y2="695" style="stroke-width: 0.5;stroke: rgb(192,192,192);stroke-opacity: 1.0;stroke-linejoin: bevel;stroke-dasharray: 2.0, 2.0;shape-rendering:crispEdges;" transform="matrix(1,0,0,1,0,0)" clip-path="url(#_666869022978321clip-2)"/><line x1="176.66" y1="35" x2="176.66" y2="695" style="stroke-width: 0.5;stroke: rgb(192,192,192);stroke-opacity: 1.0;stroke-linejoin: bevel;stroke-dasharray: 2.0, 2.0;shape-rendering:crispEdges;" transform="matrix(1,0,0,1,0,0)" clip-path="url(#_666869022978321clip-2)"/><line x1="209.87" y1="35" x2="209.87" y2="695" style="stroke-width: 0.5;stroke: rgb(192,192,192);stroke-opacity: 1.0;stroke-linejoin: bevel;stroke-dasharray: 2.0, 2.0;shape-rendering:crispEdges;" transform="matrix(1,0,0,1,0,0)" clip-path="url(#_666869022978321clip-2)"/><line x1="243.09" y1="35" x2="243.09" y2="695" style="stroke-width: 0.5;stroke: rgb(192,192,192);stroke-opacity: 1.0;stroke-linejoin: bevel;stroke-dasharray: 2.0, 2.0;shape-rendering:crispEdges;" transform="matrix(1,0,0,1,0,0)" clip-path="url(#_666869022978321clip-2)"/><line x1="276.31" y1="35" x2="276.31" y2="695" style="stroke-width: 0.5;stroke: rgb(192,192,192);stroke-opacity: 1.0;stroke-linejoin: bevel;stroke-dasharray: 2.0, 2.0;shape-rendering:crispEdges;" transform="matrix(1,0,0,1,0,0)" clip-path="url(#_666869022978321clip-2)"/><line x1="309.53" y1="35" x2="309.53" y2="695" style="stroke-width: 0.5;stroke: rgb(192,192,192);stroke-opacity: 1.0;stroke-linejoin: bevel;stroke-dasharray: 2.0, 2.0;shape-rendering:crispEdges;" transform="matrix(1,0,0,1,0,0)" clip-path="url(#_666869022978321clip-2)"/><line x1="342.75" y1="35" x2="342.75" y2="695" style="stroke-width: 0.5;stroke: rgb(192,192,192);stroke-opacity: 1.0;stroke-linejoin: bevel;stroke-dasharray: 2.0, 2.0;shape-rendering:crispEdges;" transform="matrix(1,0,0,1,0,0)" clip-path="url(#_666869022978321clip-2)"/><line x1="375.97" y1="35" x2="375.97" y2="695" style="stroke-width: 0.5;stroke: rgb(192,192,192);stroke-opacity: 1.0;stroke-linejoin: bevel;stroke-dasharray: 2.0, 2.0;shape-rendering:crispEdges;" transform="matrix(1,0,0,1,0,0)" clip-path="url(#_666869022978321clip-2)"/><line x1="409.19" y1="35" x2="409.19" y2="695" style="stroke-width: 0.5;stroke: rgb(192,192,192);stroke-opacity: 1.0;stroke-linejoin: bevel;stroke-dasharray: 2.0, 2.0;shape-rendering:crispEdges;" transform="matrix(1,0,0,1,0,0)" clip-path="url(#_666869022978321clip-2)"/><line x1="442.41" y1="35" x2="442.41" y2="695" style="stroke-width: 0.5;stroke: rgb(192,192,192);stroke-opacity: 1.0;stroke-linejoin: bevel;stroke-dasharray: 2.0, 2.0;shape-rendering:crispEdges;" transform="matrix(1,0,0,1,0,0)" clip-path="url(#_666869022978321clip-2)"/><line x1="475.63" y1="35" x2="475.63" y2="695" style="stroke-width: 0.5;stroke: rgb(192,192,192);stroke-opacity: 1.0;stroke-linejoin: bevel;stroke-dasharray: 2.0, 2.0;shape-rendering:crispEdges;" transform="matrix(1,0,0,1,0,0)" clip-path="url(#_666869022978321clip-2)"/><line x1="508.84" y1="35" x2="508.84" y2="695" style="stroke-width: 0.5;stroke: rgb(192,192,192);stroke-opacity: 1.0;stroke-linejoin: bevel;stroke-dasharray: 2.0, 2.0;shape-rendering:crispEdges;" transform="matrix(1,0,0,1,0,0)" clip-path="url(#_666869022978321clip-2)"/><line x1="542.06" y1="35" x2="542.06" y2="695" style="stroke-width: 0.5;stroke: rgb(192,192,192);stroke-opacity: 1.0;stroke-linejoin: bevel;stroke-dasharray: 2.0, 2.0;shape-rendering:crispEdges;" transform="matrix(1,0,0,1,0,0)" clip-path="url(#_666869022978321clip-2)"/><line x1="575.28" y1="35" x2="575.28" y2="695" style="stroke-width: 0.5;stroke: rgb(192,192,192);stroke-opacity: 1.0;stroke-linejoin: bevel;stroke-dasharray: 2.0, 2.0;shape-rendering:crispEdges;" transform="matrix(1,0,0,1,0,0)" clip-path="url(#_666869022978321clip-2)"/><line x1="608.5" y1="35" x2="608.5" y2="695" style="stroke-width: 0.5;stroke: rgb(192,192,192);stroke-opacity: 1.0;stroke-linejoin: bevel;stroke-dasharray: 2.0, 2.0;shape-rendering:crispEdges;" transform="matrix(1,0,0,1,0,0)" clip-path="url(#_666869022978321clip-2)"/><line x1="641.72" y1="35" x2="641.72" y2="695" style="stroke-width: 0.5;stroke: rgb(192,192,192);stroke-opacity: 1.0;stroke-linejoin: bevel;stroke-dasharray: 2.0, 2.0;shape-rendering:crispEdges;" transform="matrix(1,0,0,1,0,0)" clip-path="url(#_666869022978321clip-2)"/><line x1="674.94" y1="35" x2="674.94" y2="695" style="stroke-width: 0.5;stroke: rgb(192,192,192);stroke-opacity: 1.0;stroke-linejoin: bevel;stroke-dasharray: 2.0, 2.0;shape-rendering:crispEdges;" transform="matrix(1,0,0,1,0,0)" clip-path="url(#_666869022978321clip-2)"/><line x1="708.16" y1="35" x2="708.16" y2="695" style="stroke-width: 0.5;stroke: rgb(192,192,192);stroke-opacity: 1.0;stroke-linejoin: bevel;stroke-dasharray: 2.0, 2.0;shape-rendering:crispEdges;" transform="matrix(1,0,0,1,0,0)" clip-path="url(#_666869022978321clip-2)"/><line x1="741.38" y1="35" x2="741.38" y2="695" style="stroke-width: 0.5;stroke: rgb(192,192,192);stroke-opacity: 1.0;stroke-linejoin: bevel;stroke-dasharray: 2.0, 2.0;shape-rendering:crispEdges;" transform="matrix(1,0,0,1,0,0)" clip-path="url(#_666869022978321clip-2)"/><line x1="774.59" y1="35" x2="774.59" y2="695" style="stroke-width: 0.5;stroke: rgb(192,192,192);stroke-opacity: 1.0;stroke-linejoin: bevel;stroke-dasharray: 2.0, 2.0;shape-rendering:crispEdges;" transform="matrix(1,0,0,1,0,0)" clip-path="url(#_666869022978321clip-2)"/><line x1="807.81" y1="35" x2="807.81" y2="695" style="stroke-width: 0.5;stroke: rgb(192,192,192);stroke-opacity: 1.0;stroke-linejoin: bevel;stroke-dasharray: 2.0, 2.0;shape-rendering:crispEdges;" transform="matrix(1,0,0,1,0,0)" clip-path="url(#_666869022978321clip-2)"/><line x1="841.03" y1="35" x2="841.03" y2="695" style="stroke-width: 0.5;stroke: rgb(192,192,192);stroke-opacity: 1.0;stroke-linejoin: bevel;stroke-dasharray: 2.0, 2.0;shape-rendering:crispEdges;" transform="matrix(1,0,0,1,0,0)" clip-path="url(#_666869022978321clip-2)"/><line x1="874.25" y1="35" x2="874.25" y2="695" style="stroke-width: 0.5;stroke: rgb(192,192,192);stroke-opacity: 1.0;stroke-linejoin: bevel;stroke-dasharray: 2.0, 2.0;shape-rendering:crispEdges;" transform="matrix(1,0,0,1,0,0)" clip-path="url(#_666869022978321clip-2)"/><line x1="907.47" y1="35" x2="907.47" y2="695" style="stroke-width: 0.5;stroke: rgb(192,192,192);stroke-opacity: 1.0;stroke-linejoin: bevel;stroke-dasharray: 2.0, 2.0;shape-rendering:crispEdges;" transform="matrix(1,0,0,1,0,0)" clip-path="url(#_666869022978321clip-2)"/><line x1="940.69" y1="35" x2="940.69" y2="695" style="stroke-width: 0.5;stroke: rgb(192,192,192);stroke-opacity: 1.0;stroke-linejoin: bevel;stroke-dasharray: 2.0, 2.0;shape-rendering:crispEdges;" transform="matrix(1,0,0,1,0,0)" clip-path="url(#_666869022978321clip-2)"/><line x1="973.91" y1="35" x2="973.91" y2="695" style="stroke-width: 0.5;stroke: rgb(192,192,192);stroke-opacity: 1.0;stroke-linejoin: bevel;stroke-dasharray: 2.0, 2.0;shape-rendering:crispEdges;" transform="matrix(1,0,0,1,0,0)" clip-path="url(#_666869022978321clip-2)"/><line x1="1007.13" y1="35" x2="1007.13" y2="695" style="stroke-width: 0.5;stroke: rgb(192,192,192);stroke-opacity: 1.0;stroke-linejoin: bevel;stroke-dasharray: 2.0, 2.0;shape-rendering:crispEdges;" transform="matrix(1,0,0,1,0,0)" clip-path="url(#_666869022978321clip-2)"/><line x1="1040.34" y1="35" x2="1040.34" y2="695" style="stroke-width: 0.5;stroke: rgb(192,192,192);stroke-opacity: 1.0;stroke-linejoin: bevel;stroke-dasharray: 2.0, 2.0;shape-rendering:crispEdges;" transform="matrix(1,0,0,1,0,0)" clip-path="url(#_666869022978321clip-2)"/><line x1="1073.56" y1="35" x2="1073.56" y2="695" style="stroke-width: 0.5;stroke: rgb(192,192,192);stroke-opacity: 1.0;stroke-linejoin: bevel;stroke-dasharray: 2.0, 2.0;shape-rendering:crispEdges;" transform="matrix(1,0,0,1,0,0)" clip-path="url(#_666869022978321clip-2)"/><line x1="1106.78" y1="35" x2="1106.78" y2="695" style="stroke-width: 0.5;stroke: rgb(192,192,192);stroke-opacity: 1.0;stroke-linejoin: bevel;stroke-dasharray: 2.0, 2.0;shape-rendering:crispEdges;" transform="matrix(1,0,0,1,0,0)" clip-path="url(#_666869022978321clip-2)"/><line x1="77" y1="671.99" x2="1140" y2="671.99" style="stroke-width: 0.5;stroke: rgb(192,192,192);stroke-opacity: 1.0;stroke-linejoin: bevel;stroke-dasharray: 2.0, 2.0;shape-rendering:crispEdges;" transform="matrix(1,0,0,1,0,0)" clip-path="url(#_666869022978321clip-2)"/><line x1="77" y1="639.2" x2="1140" y2="639.2" style="stroke-width: 0.5;stroke: rgb(192,192,192);stroke-opacity: 1.0;stroke-linejoin: bevel;stroke-dasharray: 2.0, 2.0;shape-rendering:crispEdges;" transform="matrix(1,0,0,1,0,0)" clip-path="url(#_666869022978321clip-2)"/><line x1="77" y1="606.4" x2="1140" y2="606.4" style="stroke-width: 0.5;stroke: rgb(192,192,192);stroke-opacity: 1.0;stroke-linejoin: bevel;stroke-dasharray: 2.0, 2.0;shape-rendering:crispEdges;" transform="matrix(1,0,0,1,0,0)" clip-path="url(#_666869022978321clip-2)"/><line x1="77" y1="573.61" x2="1140" y2="573.61" style="stroke-width: 0.5;stroke: rgb(192,192,192);stroke-opacity: 1.0;stroke-linejoin: bevel;stroke-dasharray: 2.0, 2.0;shape-rendering:crispEdges;" transform="matrix(1,0,0,1,0,0)" clip-path="url(#_666869022978321clip-2)"/><line x1="77" y1="540.82" x2="1140" y2="540.82" style="stroke-width: 0.5;stroke: rgb(192,192,192);stroke-opacity: 1.0;stroke-linejoin: bevel;stroke-dasharray: 2.0, 2.0;shape-rendering:crispEdges;" transform="matrix(1,0,0,1,0,0)" clip-path="url(#_666869022978321clip-2)"/><line x1="77" y1="508.02" x2="1140" y2="508.02" style="stroke-width: 0.5;stroke: rgb(192,192,192);stroke-opacity: 1.0;stroke-linejoin: bevel;stroke-dasharray: 2.0, 2.0;shape-rendering:crispEdges;" transform="matrix(1,0,0,1,0,0)" clip-path="url(#_666869022978321clip-2)"/><line x1="77" y1="475.23" x2="1140" y2="475.23" style="stroke-width: 0.5;stroke: rgb(192,192,192);stroke-opacity: 1.0;stroke-linejoin: bevel;stroke-dasharray: 2.0, 2.0;shape-rendering:crispEdges;" transform="matrix(1,0,0,1,0,0)" clip-path="url(#_666869022978321clip-2)"/><line x1="77" y1="442.43" x2="1140" y2="442.43" style="stroke-width: 0.5;stroke: rgb(192,192,192);stroke-opacity: 1.0;stroke-linejoin: bevel;stroke-dasharray: 2.0, 2.0;shape-rendering:crispEdges;" transform="matrix(1,0,0,1,0,0)" clip-path="url(#_666869022978321clip-2)"/><line x1="77" y1="409.64" x2="1140" y2="409.64" style="stroke-width: 0.5;stroke: rgb(192,192,192);stroke-opacity: 1.0;stroke-linejoin: bevel;stroke-dasharray: 2.0, 2.0;shape-rendering:crispEdges;" transform="matrix(1,0,0,1,0,0)" clip-path="url(#_666869022978321clip-2)"/><line x1="77" y1="376.84" x2="1140" y2="376.84" style="stroke-width: 0.5;stroke: rgb(192,192,192);stroke-opacity: 1.0;stroke-linejoin: bevel;stroke-dasharray: 2.0, 2.0;shape-rendering:crispEdges;" transform="matrix(1,0,0,1,0,0)" clip-path="url(#_666869022978321clip-2)"/><line x1="77" y1="344.05" x2="1140" y2="344.05" style="stroke-width: 0.5;stroke: rgb(192,192,192);stroke-opacity: 1.0;stroke-linejoin: bevel;stroke-dasharray: 2.0, 2.0;shape-rendering:crispEdges;" transform="matrix(1,0,0,1,0,0)" clip-path="url(#_666869022978321clip-2)"/><line x1="77" y1="311.25" x2="1140" y2="311.25" style="stroke-width: 0.5;stroke: rgb(192,192,192);stroke-opacity: 1.0;stroke-linejoin: bevel;stroke-dasharray: 2.0, 2.0;shape-rendering:crispEdges;" transform="matrix(1,0,0,1,0,0)" clip-path="url(#_666869022978321clip-2)"/><line x1="77" y1="278.46" x2="1140" y2="278.46" style="stroke-width: 0.5;stroke: rgb(192,192,192);stroke-opacity: 1.0;stroke-linejoin: bevel;stroke-dasharray: 2.0, 2.0;shape-rendering:crispEdges;" transform="matrix(1,0,0,1,0,0)" clip-path="url(#_666869022978321clip-2)"/><line x1="77" y1="245.67" x2="1140" y2="245.67" style="stroke-width: 0.5;stroke: rgb(192,192,192);stroke-opacity: 1.0;stroke-linejoin: bevel;stroke-dasharray: 2.0, 2.0;shape-rendering:crispEdges;" transform="matrix(1,0,0,1,0,0)" clip-path="url(#_666869022978321clip-2)"/><line x1="77" y1="212.87" x2="1140" y2="212.87" style="stroke-width: 0.5;stroke: rgb(192,192,192);stroke-opacity: 1.0;stroke-linejoin: bevel;stroke-dasharray: 2.0, 2.0;shape-rendering:crispEdges;" transform="matrix(1,0,0,1,0,0)" clip-path="url(#_666869022978321clip-2)"/><line x1="77" y1="180.08" x2="1140" y2="180.08" style="stroke-width: 0.5;stroke: rgb(192,192,192);stroke-opacity: 1.0;stroke-linejoin: bevel;stroke-dasharray: 2.0, 2.0;shape-rendering:crispEdges;" transform="matrix(1,0,0,1,0,0)" clip-path="url(#_666869022978321clip-2)"/><line x1="77" y1="147.28" x2="1140" y2="147.28" style="stroke-width: 0.5;stroke: rgb(192,192,192);stroke-opacity: 1.0;stroke-linejoin: bevel;stroke-dasharray: 2.0, 2.0;shape-rendering:crispEdges;" transform="matrix(1,0,0,1,0,0)" clip-path="url(#_666869022978321clip-2)"/><line x1="77" y1="114.49" x2="1140" y2="114.49" style="stroke-width: 0.5;stroke: rgb(192,192,192);stroke-opacity: 1.0;stroke-linejoin: bevel;stroke-dasharray: 2.0, 2.0;shape-rendering:crispEdges;" transform="matrix(1,0,0,1,0,0)" clip-path="url(#_666869022978321clip-2)"/><line x1="77" y1="81.69" x2="1140" y2="81.69" style="stroke-width: 0.5;stroke: rgb(192,192,192);stroke-opacity: 1.0;stroke-linejoin: bevel;stroke-dasharray: 2.0, 2.0;shape-rendering:crispEdges;" transform="matrix(1,0,0,1,0,0)" clip-path="url(#_666869022978321clip-2)"/><line x1="77" y1="48.9" x2="1140" y2="48.9" style="stroke-width: 0.5;stroke: rgb(192,192,192);stroke-opacity: 1.0;stroke-linejoin: bevel;stroke-dasharray: 2.0, 2.0;shape-rendering:crispEdges;" transform="matrix(1,0,0,1,0,0)" clip-path="url(#_666869022978321clip-2)"/><line x1="143.44" y1="469.31" x2="175.51" y2="462.12" style="stroke-width: 3.0;stroke: rgb(0,0,0);stroke-opacity: 1.0;stroke-linecap: square;shape-rendering:geometricPrecision;" transform="matrix(1,0,0,1,0,0)" clip-path="url(#_666869022978321clip-2)"/><line x1="175.51" y1="462.12" x2="207.58" y2="454.92" style="stroke-width: 3.0;stroke: rgb(0,0,0);stroke-opacity: 1.0;stroke-linecap: square;shape-rendering:geometricPrecision;" transform="matrix(1,0,0,1,0,0)" clip-path="url(#_666869022978321clip-2)"/><line x1="207.58" y1="454.92" x2="239.66" y2="447.73" style="stroke-width: 3.0;stroke: rgb(0,0,0);stroke-opacity: 1.0;stroke-linecap: square;shape-rendering:geometricPrecision;" transform="matrix(1,0,0,1,0,0)" clip-path="url(#_666869022978321clip-2)"/><line x1="239.66" y1="447.73" x2="271.73" y2="440.53" style="stroke-width: 3.0;stroke: rgb(0,0,0);stroke-opacity: 1.0;stroke-linecap: square;shape-rendering:geometricPrecision;" transform="matrix(1,0,0,1,0,0)" clip-path="url(#_666869022978321clip-2)"/><line x1="271.73" y1="440.53" x2="303.8" y2="433.34" style="stroke-width: 3.0;stroke: rgb(0,0,0);stroke-opacity: 1.0;stroke-linecap: square;shape-rendering:geometricPrecision;" transform="matrix(1,0,0,1,0,0)" clip-path="url(#_666869022978321clip-2)"/><line x1="303.8" y1="433.34" x2="335.88" y2="426.15" style="stroke-width: 3.0;stroke: rgb(0,0,0);stroke-opacity: 1.0;stroke-linecap: square;shape-rendering:geometricPrecision;" transform="matrix(1,0,0,1,0,0)" clip-path="url(#_666869022978321clip-2)"/><line x1="335.88" y1="426.15" x2="367.95" y2="418.95" style="stroke-width: 3.0;stroke: rgb(0,0,0);stroke-opacity: 1.0;stroke-linecap: square;shape-rendering:geometricPrecision;" transform="matrix(1,0,0,1,0,0)" clip-path="url(#_666869022978321clip-2)"/><line x1="367.95" y1="418.95" x2="400.02" y2="411.76" style="stroke-width: 3.0;stroke: rgb(0,0,0);stroke-opacity: 1.0;stroke-linecap: square;shape-rendering:geometricPrecision;" transform="matrix(1,0,0,1,0,0)" clip-path="url(#_666869022978321clip-2)"/><line x1="400.02" y1="411.76" x2="432.1" y2="404.57" style="stroke-width: 3.0;stroke: rgb(0,0,0);stroke-opacity: 1.0;stroke-linecap: square;shape-rendering:geometricPrecision;" transform="matrix(1,0,0,1,0,0)" clip-path="url(#_666869022978321clip-2)"/><line x1="432.1" y1="404.57" x2="464.17" y2="397.37" style="stroke-width: 3.0;stroke: rgb(0,0,0);stroke-opacity: 1.0;stroke-linecap: square;shape-rendering:geometricPrecision;" transform="matrix(1,0,0,1,0,0)" clip-path="url(#_666869022978321clip-2)"/><line x1="464.17" y1="397.37" x2="496.24" y2="390.18" style="stroke-width: 3.0;stroke: rgb(0,0,0);stroke-opacity: 1.0;stroke-linecap: square;shape-rendering:geometricPrecision;" transform="matrix(1,0,0,1,0,0)" clip-path="url(#_666869022978321clip-2)"/><line x1="496.24" y1="390.18" x2="528.32" y2="382.98" style="stroke-width: 3.0;stroke: rgb(0,0,0);stroke-opacity: 1.0;stroke-linecap: square;shape-rendering:geometricPrecision;" transform="matrix(1,0,0,1,0,0)" clip-path="url(#_666869022978321clip-2)"/><line x1="528.32" y1="382.98" x2="560.39" y2="375.79" style="stroke-width: 3.0;stroke: rgb(0,0,0);stroke-opacity: 1.0;stroke-linecap: square;shape-rendering:geometricPrecision;" transform="matrix(1,0,0,1,0,0)" clip-path="url(#_666869022978321clip-2)"/><line x1="560.39" y1="375.79" x2="592.46" y2="368.6" style="stroke-width: 3.0;stroke: rgb(0,0,0);stroke-opacity: 1.0;stroke-linecap: square;shape-rendering:geometricPrecision;" transform="matrix(1,0,0,1,0,0)" clip-path="url(#_666869022978321clip-2)"/><line x1="592.46" y1="368.6" x2="624.54" y2="361.4" style="stroke-width: 3.0;stroke: rgb(0,0,0);stroke-opacity: 1.0;stroke-linecap: square;shape-rendering:geometricPrecision;" transform="matrix(1,0,0,1,0,0)" clip-path="url(#_666869022978321clip-2)"/><line x1="624.54" y1="361.4" x2="656.61" y2="354.21" style="stroke-width: 3.0;stroke: rgb(0,0,0);stroke-opacity: 1.0;stroke-linecap: square;shape-rendering:geometricPrecision;" transform="matrix(1,0,0,1,0,0)" clip-path="url(#_666869022978321clip-2)"/><line x1="656.61" y1="354.21" x2="688.68" y2="347.02" style="stroke-width: 3.0;stroke: rgb(0,0,0);stroke-opacity: 1.0;stroke-linecap: square;shape-rendering:geometricPrecision;" transform="matrix(1,0,0,1,0,0)" clip-path="url(#_666869022978321clip-2)"/><line x1="688.68" y1="347.02" x2="720.76" y2="339.82" style="stroke-width: 3.0;stroke: rgb(0,0,0);stroke-opacity: 1.0;stroke-linecap: square;shape-rendering:geometricPrecision;" transform="matrix(1,0,0,1,0,0)" clip-path="url(#_666869022978321clip-2)"/><line x1="720.76" y1="339.82" x2="752.83" y2="332.63" style="stroke-width: 3.0;stroke: rgb(0,0,0);stroke-opacity: 1.0;stroke-linecap: square;shape-rendering:geometricPrecision;" transform="matrix(1,0,0,1,0,0)" clip-path="url(#_666869022978321clip-2)"/><line x1="752.83" y1="332.63" x2="784.9" y2="325.43" style="stroke-width: 3.0;stroke: rgb(0,0,0);stroke-opacity: 1.0;stroke-linecap: square;shape-rendering:geometricPrecision;" transform="matrix(1,0,0,1,0,0)" clip-path="url(#_666869022978321clip-2)"/><line x1="784.9" y1="325.43" x2="816.98" y2="318.24" style="stroke-width: 3.0;stroke: rgb(0,0,0);stroke-opacity: 1.0;stroke-linecap: square;shape-rendering:geometricPrecision;" transform="matrix(1,0,0,1,0,0)" clip-path="url(#_666869022978321clip-2)"/><line x1="816.98" y1="318.24" x2="849.05" y2="311.05" style="stroke-width: 3.0;stroke: rgb(0,0,0);stroke-opacity: 1.0;stroke-linecap: square;shape-rendering:geometricPrecision;" transform="matrix(1,0,0,1,0,0)" clip-path="url(#_666869022978321clip-2)"/><line x1="849.05" y1="311.05" x2="881.12" y2="303.85" style="stroke-width: 3.0;stroke: rgb(0,0,0);stroke-opacity: 1.0;stroke-linecap: square;shape-rendering:geometricPrecision;" transform="matrix(1,0,0,1,0,0)" clip-path="url(#_666869022978321clip-2)"/><line x1="881.12" y1="303.85" x2="913.2" y2="296.66" style="stroke-width: 3.0;stroke: rgb(0,0,0);stroke-opacity: 1.0;stroke-linecap: square;shape-rendering:geometricPrecision;" transform="matrix(1,0,0,1,0,0)" clip-path="url(#_666869022978321clip-2)"/><line x1="913.2" y1="296.66" x2="945.27" y2="289.47" style="stroke-width: 3.0;stroke: rgb(0,0,0);stroke-opacity: 1.0;stroke-linecap: square;shape-rendering:geometricPrecision;" transform="matrix(1,0,0,1,0,0)" clip-path="url(#_666869022978321clip-2)"/><line x1="945.27" y1="289.47" x2="977.34" y2="282.27" style="stroke-width: 3.0;stroke: rgb(0,0,0);stroke-opacity: 1.0;stroke-linecap: square;shape-rendering:geometricPrecision;" transform="matrix(1,0,0,1,0,0)" clip-path="url(#_666869022978321clip-2)"/><line x1="977.34" y1="282.27" x2="1009.42" y2="275.08" style="stroke-width: 3.0;stroke: rgb(0,0,0);stroke-opacity: 1.0;stroke-linecap: square;shape-rendering:geometricPrecision;" transform="matrix(1,0,0,1,0,0)" clip-path="url(#_666869022978321clip-2)"/><line x1="1009.42" y1="275.08" x2="1041.49" y2="267.88" style="stroke-width: 3.0;stroke: rgb(0,0,0);stroke-opacity: 1.0;stroke-linecap: square;shape-rendering:geometricPrecision;" transform="matrix(1,0,0,1,0,0)" clip-path="url(#_666869022978321clip-2)"/><line x1="1041.49" y1="267.88" x2="1073.56" y2="260.69" style="stroke-width: 3.0;stroke: rgb(0,0,0);stroke-opacity: 1.0;stroke-linecap: square;shape-rendering:geometricPrecision;" transform="matrix(1,0,0,1,0,0)" clip-path="url(#_666869022978321clip-2)"/><rect x="77" y="35" width="1063" height="660" style="stroke-width: 0.5;stroke: rgb(0,0,0);stroke-opacity: 1.0;stroke-linecap: round;stroke-linejoin: round;shape-rendering:crispEdges;; fill: none" transform="matrix(1,0,0,1,0,0)" clip-path="url(#_666869022978321clip-0)"/></svg>
