DBRep_DrawableShape

CASCADE Topology V1, (c) Matra-Datavision
Locations 0
Curve2ds 4
1 0 0 0 1 
1 0 0 1 0 
1 0.99999999999999989 0 0 1 
1 0 1 1 0 
Curves 4
7 0 0  1 2 2  4.0640335083007813 0 1.3255000114440918  20.906953811645508 0 1.3255000114440918 
 0 2 1 2
7 0 0  13 278 24  4.0640335083007813 0 1.325500011444092  4.0640335083005814 0.012991270971872224 1.3255724772763626  4.0640335083016144 0.025985152835168335 1.3255726336166789  4.0640335082986025 0.038980462666709244 1.3254996596875352  4.0640335083047612 0.051976487688788951 1.3253474893903989  4.0640335082958075 0.064972097251505739 1.325114718724423  4.0640335083047212 0.077966063519243095 1.3248010280322446  4.064033508299504 0.090957402487914382 1.3244033771939321  4.0640335082995476 0.10394535503104622 1.3239162172372902  4.0640335083030203 0.11692913265571651 1.3233343267739544  4.0640335082989232 0.12990775466120147 1.3226546288742342  4.0640335083018 0.14288020232690724 1.3218744707851307  4.0640335083003682 0.15584571168593864 1.3209883575007701  4.0640335083012822 0.17737724206882399 1.3193344133846487  4.0640335082977108 0.18594770926979834 1.3186279394008416  4.0640335083096435 0.1945143753033971 1.3178733920683965  4.0640335082830168 0.20307689453010558 1.3170705662800852  4.0640335083277508 0.21163492132154274 1.3162192569792242  4.0640335082687171 0.22018811002999056 1.3153192590231859  4.0640335083311339 0.22873611503494995 1.3143703673867055  4.064033508277805 0.23727859068425328 1.3133723769132999  4.0640335083145338 0.24581519135648458 1.3123250825679467  4.0640335082944938 0.25434557140524544 1.3112282792220409  4.0640335083027646 0.26286938520102837 1.3100817618069132  4.0640335083005157 0.27138628710497198 1.3088853252223642  4.0640335083009749 0.29928647808946307 1.3047982818637041  4.0640335083004846 0.31863909435064686 1.3016977916228261  4.0640335083015211 0.33795012897914783 1.2983329108266211  4.0640335082988406 0.35721314488519701 1.2947020836155447  4.0640335083044787 0.37642354246626075 1.2908018895166009  4.0640335082957666 0.39557775251590321 1.2866278623523459  4.0640335083056822 0.41467148735449455 1.2821762651518309  4.0640335082972454 0.43369904876948279 1.2774447921955241  4.0640335083026908 0.45265393382388391 1.2724319545229406  4.0640335083000316 0.4715299531580151 1.2671359448459796  4.0640335083009447 0.49032178269872501 1.2615540778749887  4.0640335083008106 0.50902430706115465 1.2556834565040103  4.0640335083006516 0.5478334885813082 1.2428329888548966  4.0640335083017503 0.5679233095708297 1.2358006137436848  4.0640335082974541 0.5878918610950854 1.2284263340189172  4.0640335083085342 0.60773246012589877 1.220700599352901  4.0640335082874124 0.6274347472596965 1.2126316952981773  4.0640335083184924 0.64699073126798146 1.2042164183938608  4.0640335082824386 0.66639397351594343 1.1954440323949236  4.0640335083158456 0.68563584119245102 1.1863144465610527  4.0640335082909624 0.70470563293285304 1.1768376053689493  4.0640335083057719 0.72359441415486203 1.1670148820508452  4.0640335082989116 0.74229558389453365 1.1568363280195066  4.0640335083012085 0.76079852656861668 1.1463114718150693  4.0640335083003292 0.79807860317330603 1.1241553388301655  4.0640335083029111 0.81684022688711266 1.1124985124442894  4.0640335082949122 0.83536726715022824 1.1004652523020066  4.0640335083124635 0.85366667088375969 1.0880839611568591  4.0640335082829893 0.87168662052890589 1.0752931844043567  4.0640335083222663 0.88948854984183612 1.0622046411715702  4.0640335082798353 0.90699951928793776 1.0487245790364423  4.0640335083172854 0.92421290065012429 1.0348606428367833  4.064033508290426 0.94118477882250606 1.0207163727596964  4.0640335083057817 0.9578346445953243 1.0061864414535926  4.0640335082990715 0.97420131890697614 0.99134799059007306  4.0640335083010797 0.99025978757976107 0.97618055087221378  4.0640335083005938 1.0221696590099296 0.94480582364726173  4.06403350830122 1.0380046277605768 0.92858108654114901  4.0640335082999313 1.0535012142683831 0.91203147231002346  4.0640335083021002 1.0686829706933745 0.89517307424122294  4.064033508299004 1.0834714505826601 0.87799891506651351  4.0640335083029573 1.0979842704232894 0.86054636401226425  4.0640335082982855 1.1121071047910518 0.84280032852819564  4.0640335083034422 1.1258394463306984 0.82477145999244017  4.0640335082982517 1.1392893801423898 0.80649497178708418  4.0640335083027868 1.1523298240813278 0.78795288596944568  4.0640335082994756 1.1650385874447686 0.76917356798418268  4.064033508301482 1.1773841165466279 0.75016064700047713  4.064033508299433 1.201548578731505 0.71139088973039522  4.0640335083084551 1.2133550717619692 0.6916271984018697  4.0640335082792962 1.2247964766033779 0.67164356358422173  4.0640335083426606 1.2358678679467714 0.65145596182648557  4.0640335082385075 1.2465795440134073 0.6310680162594412  4.0640335083739672 1.2569324704604052 0.61049092325231213  4.0640335082317982 1.2669210517245686 0.58974120300360133  4.0640335083529795 1.276548162878385 0.56882850251818295  4.0640335082695769 1.2858251133962209 0.54775562426027913  4.0640335083148136 1.2947565914275243 0.52653074392157351  4.0640335082967169 1.3033379619774343 0.50516960235555231  4.0640335083009385 1.3115799095967271 0.48367550932791525  4.0640335083017103 1.3272038904385262 0.44094521724435887  4.0640335082934742 1.3346017938581811 0.41971465545830766  4.0640335083227788 1.3416817132600054 0.39837227923015506  4.0640335082561636 1.3484475267200291 0.37693059276281737  4.0640335083687491 1.3549038776092381 0.35538952030522636  4.064033508219878 1.361054967400789 0.3337562475208703  4.0640335083773458 1.3669046602442609 0.31204351128670904  4.0640335082428587 1.372457210141655 0.29025763272045763  4.0640335083355836 1.3777172890198421 0.26839806803213179  4.0640335082846573 1.3826892774124093 0.24646905920612439  4.0640335083060739 1.3873771068814846 0.22448223302289461  4.0640335082999242 1.3917854005119152 0.20243784523723288  4.0640335083011649 1.3995973658983896 0.16067495247631008  4.0640335083001018 1.4030583686489233 0.14096656894673545  4.0640335083021464 1.4063035166323208 0.12122134645854112  4.0640335082980004 1.4093363363567413 0.10144140979655439  4.0640335083054664 1.4121597418419691 0.081629521501574154  4.0640335082945658 1.4147759917216827 0.061789126584004879  4.064033508307241 1.4171873802505255 0.041923632920749777  4.0640335082955366 1.4193968350396371 0.022035788937068635  4.0640335083040444 1.4214079892530864 0.0021276083307325824  4.0640335082993069 1.4232246921773648 -0.017799120202198204  4.0640335083011321 1.4248503168902829 -0.037742112130191498  4.0640335083008896 1.4262876198518029 -0.057698440830379609  4.064033508300505 1.4280506930195105 -0.085801777531295323  4.0640335083029528 1.4285304235591676 -0.093939270475052322  4.0640335082940933 1.4289797457427038 -0.10207850673132006  4.0640335083150596 1.4293989114545445 -0.11021935075813721  4.0640335082772934 1.4297881724932715 -0.11836166700767053  4.0640335083312245 1.4301477808126575 -0.12650531994286787  4.0640335082694321 1.4304779881379199 -0.13465017401057208  4.0640335083264967 1.4307790464730856 -0.14279609367751872  4.064033508284024 1.4310512075385429 -0.150942943389998  4.0640335083092749 1.4312947232955504 -0.15909058761179731  4.0640335082976025 1.4315098455354036 -0.16723889079429213  4.0640335083015158 1.4316968261478056 -0.17538771739606818  4.0640335083001666 1.4319783830152648 -0.18981009053246764  4.064033508303595 1.4320843223558577 -0.19608347903640061  4.0640335082934165 1.4321749276879254 -0.20235707668423916  4.0640335083144068 1.432251391735367 -0.20863086277864221  4.0640335082817556 1.4323149071481418 -0.21490481661682373  4.064033508321212 1.4323666667011952 -0.2211789175050636  4.0640335082837913 1.4324078629975943 -0.2274531447373892  4.0640335083115646 1.432439688835131 -0.23372747762143667  4.064033508295819 1.432463336828991 -0.24000189545237113  4.0640335083020949 1.4324799997357764 -0.24627637753473797  4.0640335083009482 1.4324908702227133 -0.25255090316741002  4.0640335083003594 1.4324971410017624 -0.25882545165186371  4.0640335083016739 1.432502580400582 -0.27074324611443923  4.0640335082952879 1.4325024001137527 -0.27638649168076501  4.0640335083164292 1.432498123587266 -0.28202971976493352  4.0640335082699606 1.4324884104522295 -0.28767291113668941  4.0640335083469559 1.4324719204474559 -0.29331604658190286  4.0640335082460828 1.4324473131243904 -0.29895910685904287  4.0640335083527743 1.43241324829895 -0.30460207276427992  4.0640335082610051 1.4323683854779843 -0.3102449250509246  4.0640335083250125 1.4323113844700115 -0.31588764451293183  4.0640335082894348 1.4322409048374167 -0.3215302119120394  4.0640335083044539 1.4321556063092713 -0.32717260803119952  4.0640335083002856 1.4320541485226652 -0.33281481364198462  4.0640335083011658 1.4316523098132792 -0.35187350983641752  4.0640335083003967 1.4312707209937894 -0.36528892976442129  4.0640335083007715 1.4307794967090512 -0.37870251804663718  4.0640335083016632 1.4301844615900692 -0.39210742836201273  4.0640335082990546 1.4294353216204094 -0.4055179018671542  4.0640335083026509 1.4286025692163227 -0.4189027922858336  4.0640335082995485 1.4275963189393364 -0.43229121788101577  4.0640335083011054 1.4264214900722183 -0.44567667254727505  4.0640335083011045 1.4251499578514333 -0.45902749036062451  4.0640335083002483 1.4236759917642392 -0.47237874365685967  4.0640335083012342 1.4220616435053202 -0.48570245787744593  4.064033508300497 1.4202737221556554 -0.49900644742379741  4.0640335083011516 1.4172410207269321 -0.51955208334892156  4.0640335082983388 1.4161166303100854 -0.52681126450811588  4.0640335083076167 1.4149397827335495 -0.53406246171214744  4.0640335082876122 1.4137098094809859 -0.54130506261731903  4.0640335083199979 1.4124260420928332 -0.5485384549041723  4.0640335082787535 1.4110878120119266 -0.55576202621246107  4.0640335083209047 1.4096944508171201 -0.56297516423684846  4.0640335082859851 1.4082452899306637 -0.57017725661181973  4.064033508309481 1.406739660924941 -0.57736769102590668  4.0640335082968448 1.4051768952525006 -0.58454585512786428  4.0640335083019732 1.4035563244448066 -0.59171113659026175  4.0640335083006907 1.4018772799914685 -0.59886292307432043  4.064033508300577 1.396511841859682 -0.62089552657132852  4.0640335083023453 1.3926275594432442 -0.63572885732213802  4.0640335082961903 1.3884772017309532 -0.65049501213852101  4.0640335083100503 1.3840788020886126 -0.66518005207145359  4.06403350828628 1.3793689651033645 -0.67979516826969155  4.0640335083188592 1.3744427524877645 -0.69430264971291522  4.0640335082829111 1.3692051548159743 -0.70872344407561627  4.0640335083145578 1.3636568783619796 -0.72304895986512463  4.0640335082928107 1.3578863199013869 -0.73724354284706772  4.0640335083038845 1.3517868515354801 -0.75133172644221113  4.0640335083003505 1.3454238594876315 -0.76528495785668549  4.0640335083003674 1.3387699936368198 -0.77910330416220108  4.0640335083015717 1.3282497020135553 -0.79983142353931624  4.0640335082951129 1.3245929594404864 -0.80684748522781313  4.0640335083173582 1.3208602427525002 -0.81382403788060265  4.0640335082679142 1.3170518784534377 -0.82076005163417143  4.0640335083498167 1.3131681931361496 -0.82765449669264568  4.0640335082435222 1.3092095132380555 -0.83450634314245997  4.0640335083539831 1.3051761654152323 -0.8413145612353452  4.0640335082612449 1.3010684760704212 -0.84807812103177171  4.064033508324135 1.2968867718506616 -0.85479599277631124  4.064033508290108 1.2926313792063555 -0.86146714656576973  4.064033508304278 1.2883026247194007 -0.86809055259533729  4.0640335083001871 1.283900834899717 -0.87466518100672619  4.064033508301705 1.2701187952604513 -0.8947624810376843  4.0640335082970589 1.260497248847386 -0.90812042290474693  4.064033508310823 1.2505630433181472 -0.92124788777028188  4.0640335082807324 1.2403493388582034 -0.93418060760755262  4.0640335083316259 1.2297911462683278 -0.94679490140920908  4.0640335082633072 1.2190257604810231 -0.95929563545265251  4.0640335083372356 1.2079112112935246 -0.97143409717169782  4.0640335082722006 1.1965428619157226 -0.98334704793536298  4.0640335083187225 1.1849325569272089 -0.99503559907740735  4.0640335082919989 1.1730485439641829 -1.0064300525281442  4.0640335083039174 1.1609337622543332 -1.0175820231838348  4.0640335083001213 1.1485833722648973 -1.0284655243820735  4.0640335083011028 1.1293935082687452 -1.044671681503917  4.0640335082994268 1.1227148531694129 -1.0501860716029738  4.0640335083041919 1.1159758580010215 -1.0556269263036604  4.0640335082944965 1.1091779376588049 -1.0609944015696249  4.0640335083098851 1.1023225070416849 -1.0662886533606757  4.0640335082899366 1.0954109810438935 -1.0715098376439331  4.0640335083114616 1.0884447745645396 -1.0766581103764516  4.0640335082922263 1.0814253024984508 -1.0817336275251623  4.0640335083061609 1.0743539797436679 -1.0867365450507176  4.0640335082982979 1.0672322211962808 -1.0916670189151734  4.0640335083014749 1.0600614417531073 -1.0965252050824874  4.0640335083007884 1.0528430563111673 -1.1013112595140835  4.0640335083004073 1.0301724380106521 -1.1160225200066896  4.0640335083029351 1.0145582147383672 -1.1256962209898205  4.0640335082949957 0.99875162498913705 -1.135049139188627  4.0640335083114136 0.98274440379340311 -1.1440961315229559  4.0640335082858545 0.96660226106438607 -1.1528147023832711  4.0640335083176593 0.9502438176248974 -1.161256626616648  4.0640335082850134 0.93376832112936925 -1.1693824742210557  4.0640335083129919 0.91718022363376073 -1.1772006808884903  4.0640335082931287 0.90040263824917466 -1.1847607530617976  4.0640335083044539 0.8835476150952043 -1.1920167964183572  4.0640335082996302 0.86655738454407361 -1.1990086644608862  4.0640335083008594 0.84946710531044989 -1.2057292879782096  4.0640335083009971 0.81398847826917498 -1.2190613796121601  4.0640335082988646 0.79558843647216149 -1.2256379110390139  4.0640335083069772 0.77708340305227075 -1.2319244661987288  4.0640335082874408 0.75848919110836244 -1.2379311531945123  4.0640335083224324 0.73980250984460261 -1.2436624922100818  4.0640335082732966 0.72103228660067997 -1.2491265772169631  4.0640335083284382 0.70219554096830583 -1.2543338692773152  4.0640335082787686 0.68329800469534319 -1.2592915276304857  4.0640335083144263 0.66433468625294312 -1.2640035750070626  4.0640335082944761 0.64530964779319266 -1.268476682302194  4.0640335083026944 0.62623901462738274 -1.2727210489696585  4.0640335083006436 0.60711828909517362 -1.2767408421513702  4.0640335083004935 0.56860153575010008 -1.2843853891431338  4.0640335083033801 0.54920383759153302 -1.2880055068271143  4.0640335082926748 0.52976746241565409 -1.2914110727638946  4.0640335083178289 0.51029429129453352 -1.2946077290291402  4.0640335082734218 0.49078755321262363 -1.2976016412867086  4.0640335083356511 0.47125176051167689 -1.3003994737675917  4.0640335082651244 0.45169119377872452 -1.3030078006252033  4.064033508330116 0.43210869116930101 -1.3054326357461827  4.0640335082814891 0.412505625292586 -1.3076794236566698  4.0640335083106862 0.39288307945572076 -1.3097534965453426  4.0640335082970314 0.37324336314849887 -1.3116606628931042  4.0640335083016819 0.35359013528911221 -1.3134072553943004  4.0640335083002812 0.32455927035469273 -1.3157564782921758  4.064033508303301 0.31519125738034359 -1.3164791486162792  4.0640335082935932 0.30582065176745948 -1.317167213858961  4.0640335083157479 0.29644761227221733 -1.3178212502141795  4.0640335082765739 0.28707229764556597 -1.3184418338385553  4.0640335083317689 0.27769486664794801 -1.3190295409561554  4.0640335082692349 0.26831547802563016 -1.3195849476919537  4.0640335083262764 0.25893429054241601 -1.3201086302909213  4.064033508284651 0.24955146294410985 -1.32060116487776  4.0640335083084524 0.24016715399179814 -1.3210631276767713  4.064033508298369 0.23078152243593425 -1.3214950948446718  4.0640335083009926 0.22139472703290583 -1.3218976425750146  4.0640335083010992 0.19570837703612032 -1.3229201508653869  4.0640335082980128 0.17940684164370943 -1.3234817701845611  4.0640335083089667 0.16310251804323353 -1.3239627814021067  4.0640335082847852 0.14679597868232078 -1.3243676527950423  4.0640335083241164 0.13048763942701799 -1.3247017334878834  4.0640335082741288 0.11417774020877001 -1.3249713621694732  4.0640335083251689 0.097866522143984669 -1.3251828709849913  4.0640335082827912 0.081554386238849641 -1.3253416925448511  4.0640335083113976 0.065241919746229227 -1.3254522119178258  4.0640335082958865 0.048929776812612284 -1.3255184377947833  4.0640335083024421 0.032618501015657796 -1.3255450008900427  4.0640335083004349 0.016308478010229291 -1.325537420223819  4.0640335083007813 3.0738127064500187e-07 -1.3255000114440916 
 0 14 0.037648977315907002 12 0.062560938787268039 12 0.11932671283918982 12 0.18095918143979164 12 0.24490508995837509 12 0.31053741448546618 12 0.37719687075717079 12 0.44230890758599056 12 0.5002689298210975 12 0.52388406022322143 12 0.54206267857009616 12 0.55841227580492347 12 0.59729171689238225 12 0.61856724531062879 12 0.66296506401252842 12 0.68587100833471693 12 0.73351836172180962 12 0.75859421355563605 12 0.81177275989828745 12 0.86836340080881103 12 0.92552164614005528 12 0.95274185949929813 12 0.99999999999999989 14
7 0 0  1 2 2  4.0640335083007777 3.0738127066581855e-07 -1.3255000114440918  20.906953811645511 3.0738127066581855e-07 -1.3255000114440918 
 0 2 1 2
7 0 0  13 278 24  20.906953811645508 0 1.325500011444092  20.90695381164279 0.012991270971872224 1.3255724772763626  20.906953811657434 0.025985152835168335 1.3255726336166789  20.906953811613544 0.038980462666709244 1.3254996596875352  20.906953811707137 0.051976487688788951 1.3253474893903989  20.90695381155605 0.064972097251505739 1.325114718724423  20.906953811745616 0.077966063519243095 1.3248010280322446  20.906953811557596 0.090957402487914382 1.3244033771939321  20.906953811706529 0.10394535503104622 1.3239162172372902  20.906953811612496 0.11692913265571651 1.3233343267739544  20.906953811658489 0.12990775466120147 1.3226546288742342  20.906953811642843 0.14288020232690724 1.3218744707851307  20.906953811644787 0.15584571168593864 1.3209883575007701  20.906953811647526 0.17737724206882399 1.3193344133846487  20.906953811631119 0.18594770926979834 1.3186279394008416  20.906953811687664 0.1945143753033971 1.3178733920683965  20.906953811561753 0.20307689453010558 1.3170705662800852  20.906953811770165 0.21163492132154274 1.3162192569792242  20.906953811501111 0.22018811002999056 1.3153192590231859  20.906953811778482 0.22873611503494995 1.3143703673867055  20.906953811547297 0.23727859068425328 1.3133723769132999  20.906953811703318 0.24581519135648458 1.3123250825679467  20.906953811619196 0.25434557140524544 1.3112282792220409  20.906953811653917 0.26286938520102837 1.3100817618069132  20.906953811644353 0.27138628710497198 1.3088853252223642  20.906953811646435 0.29928647808946307 1.3047982818637041  20.906953811643536 0.31863909435064686 1.3016977916228261  20.906953811651565 0.33795012897914783 1.2983329108266211  20.906953811629233 0.35721314488519701 1.2947020836155447  20.906953811677251 0.37642354246626075 1.2908018895166009  20.906953811599781 0.39557775251590321 1.2866278623523459  20.906953811695924 0.41467148735449455 1.2821762651518309  20.906953811601777 0.43369904876948279 1.2774447921955241  20.906953811675368 0.45265393382388391 1.2724319545229406  20.906953811630064 0.4715299531580151 1.2671359448459796  20.906953811650951 0.49032178269872501 1.2615540778749887  20.906953811644708 0.50902430706115465 1.2556834565040103  20.906953811645611 0.5478334885813082 1.2428329888548966  20.906953811647821 0.5679233095708297 1.2358006137436848  20.90695381163501 0.5878918610950854 1.2284263340189172  20.90695381167312 0.60773246012589877 1.220700599352901  20.906953811594079 0.6274347472596965 1.2126316952981773  20.906953811717518 0.64699073126798146 1.2042164183938608  20.906953811567902 0.66639397351594343 1.1954440323949236  20.906953811710753 0.68563584119245102 1.1863144465610527  20.906953811602783 0.70470563293285304 1.1768376053689493  20.906953811666831 0.72359441415486203 1.1670148820508452  20.906953811637944 0.74229558389453365 1.1568363280195066  20.906953811647007 0.76079852656861668 1.1463114718150693  20.906953811644197 0.79807860317330603 1.1241553388301655  20.906953811650926 0.81684022688711266 1.1124985124442894  20.906953811631126 0.83536726715022824 1.1004652523020066  20.906953811673844 0.85366667088375969 1.0880839611568591  20.906953811602559 0.87168662052890589 1.0752931844043567  20.906953811697715 0.88948854984183612 1.0622046411715702  20.906953811593294 0.90699951928793776 1.0487245790364423  20.90695381168856 0.92421290065012429 1.0348606428367833  20.906953811616578 0.94118477882250606 1.0207163727596964  20.906953811660799 0.9578346445953243 1.0061864414535926  20.906953811639713 0.97420131890697614 0.99134799059007306  20.906953811646712 0.99025978757976107 0.97618055087221378  20.906953811644502 1.0221696590099296 0.94480582364726173  20.906953811649171 1.0380046277605768 0.92858108654114901  20.906953811637031 1.0535012142683831 0.91203147231002346  20.906953811658859 1.0686829706933745 0.89517307424122294  20.906953811630792 1.0834714505826601 0.87799891506651351  20.906953811656599 1.0979842704232894 0.86054636401226425  20.906953811640367 1.1121071047910518 0.84280032852819564  20.906953811646602 1.1258394463306984 0.82477145999244017  20.906953811644872 1.1392893801423898 0.80649497178708418  20.906953811647416 1.1523298240813278 0.78795288596944568  20.906953811642737 1.1650385874447686 0.76917356798418268  20.906953811647956 1.1773841165466279 0.75016064700047713  20.906953811640093 1.201548578731505 0.71139088973039522  20.906953811677432 1.2133550717619692 0.6916271984018697  20.906953811555873 1.2247964766033779 0.67164356358422173  20.906953811820014 1.2358678679467714 0.65145596182648557  20.906953811386984 1.2465795440134073 0.6310680162594412  20.906953811947787 1.2569324704604052 0.61049092325231213  20.906953811362744 1.2669210517245686 0.58974120300360133  20.906953811857431 1.276548162878385 0.56882850251818295  20.906953811519976 1.2858251133962209 0.54775562426027913  20.906953811701669 1.2947565914275243 0.52653074392157351  20.906953811629172 1.3033379619774343 0.50516960235555231  20.906953811646328 1.3115799095967271 0.48367550932791525  20.906953811648759 1.3272038904385262 0.44094521724435887  20.906953811619037 1.3346017938581811 0.41971465545830766  20.906953811726083 1.3416817132600054 0.39837227923015506  20.906953811480477 1.3484475267200291 0.37693059276281737  20.906953811899758 1.3549038776092381 0.35538952030522636  20.906953811338511 1.361054967400789 0.3337562475208703  20.90695381194131 1.3669046602442609 0.31204351128670904  20.906953811416873 1.372457210141655 0.29025763272045763  20.906953811785947 1.3777172890198421 0.26839806803213179  20.906953811579257 1.3826892774124093 0.24646905920612439  20.906953811667304 1.3873771068814846 0.22448223302289461  20.906953811642232 1.3917854005119152 0.20243784523723288  20.906953811646336 1.3995973658983896 0.16067495247631008  20.906953811647806 1.4030583686489233 0.14096656894673545  20.906953811636178 1.4063035166323208 0.12122134645854112  20.906953811664291 1.4093363363567413 0.10144140979655439  20.906953811618461 1.4121597418419691 0.081629521501574154  20.906953811676015 1.4147759917216827 0.061789126584004879  20.906953811617676 1.4171873802505255 0.041923632920749777  20.906953811666313 1.4193968350396371 0.022035788937068635  20.906953811632683 1.4214079892530864 0.0021276083307325824  20.906953811652198 1.4232246921773648 -0.017799120202198204  20.906953811642353 1.4248503168902829 -0.037742112130191498  20.906953811646964 1.4262876198518029 -0.057698440830379609  20.906953811644005 1.4280506930195105 -0.085801777531295323  20.90695381165591 1.4285304235591676 -0.093939270475052322  20.906953811614958 1.4289797457427038 -0.10207850673132006  20.906953811708231 1.4293989114545445 -0.11021935075813721  20.906953811546554 1.4297881724932715 -0.11836166700767053  20.906953811768108 1.4301477808126575 -0.12650531994286787  20.906953811525369 1.4304779881379199 -0.13465017401057208  20.906953811739271 1.4307790464730856 -0.14279609367751872  20.906953811587137 1.4310512075385429 -0.150942943389998  20.906953811674175 1.4312947232955504 -0.15909058761179731  20.906953811634821 1.4315098455354036 -0.16723889079429213  20.90695381164819 1.4316968261478056 -0.17538771739606818  20.906953811642964 1.4319783830152648 -0.18981009053246764  20.906953811658212 1.4320843223558577 -0.19608347903640061  20.906953811611903 1.4321749276879254 -0.20235707668423916  20.906953811707901 1.432251391735367 -0.20863086277864221  20.906953811558267 1.4323149071481418 -0.21490481661682373  20.906953811739676 1.4323666667011952 -0.2211789175050636  20.906953811566577 1.4324078629975943 -0.2274531447373892  20.906953811696113 1.432439688835131 -0.23372747762143667  20.906953811622209 1.432463336828991 -0.24000189545237113  20.906953811651388 1.4324799997357764 -0.24627637753473797  20.906953811646741 1.4324908702227133 -0.25255090316741002  20.906953811643191 1.4324971410017624 -0.25882545165186371  20.906953811650368 1.432502580400582 -0.27074324611443923  20.906953811615789 1.4325024001137527 -0.27638649168076501  20.90695381173019 1.432498123587266 -0.28202971976493352  20.906953811478619 1.4324884104522295 -0.28767291113668941  20.906953811896049 1.4324719204474559 -0.29331604658190286  20.906953811348 1.4324473131243904 -0.29895910685904287  20.906953811928577 1.43241324829895 -0.30460207276427992  20.906953811429585 1.4323683854779843 -0.3102449250509246  20.906953811775971 1.4323113844700115 -0.31588764451293183  20.9069538115853 1.4322409048374167 -0.3215302119120394  20.906953811664575 1.4321556063092713 -0.32717260803119952  20.906953811643117 1.4320541485226652 -0.33281481364198462  20.906953811646709 1.4316523098132792 -0.35187350983641752  20.906953811647668 1.4312707209937894 -0.36528892976442129  20.906953811633926 1.4307794967090512 -0.37870251804663718  20.906953811672164 1.4301844615900692 -0.39210742836201273  20.906953811605131 1.4294353216204094 -0.4055179018671542  20.906953811688759 1.4286025692163227 -0.4189027922858336  20.906953811612482 1.4275963189393364 -0.43229121788101577  20.906953811662138 1.4264214900722183 -0.44567667254727505  20.906953811642271 1.4251499578514333 -0.45902749036062451  20.90695381164257 1.4236759917642392 -0.47237874365685967  20.906953811649196 1.4220616435053202 -0.48570245787744593  20.90695381164312 1.4202737221556554 -0.49900644742379741  20.90695381164857 1.4172410207269321 -0.51955208334892156  20.906953811625737 1.4161166303100854 -0.52681126450811588  20.906953811701371 1.4149397827335495 -0.53406246171214744  20.906953811537257 1.4137098094809859 -0.54130506261731903  20.906953811804648 1.4124260420928332 -0.5485384549041723  20.906953811461577 1.4110878120119266 -0.55576202621246107  20.90695381181466 1.4096944508171201 -0.56297516423684846  20.906953811521497 1.4082452899306637 -0.57017725661181973  20.906953811717017 1.406739660924941 -0.57736769102590668  20.906953811614628 1.4051768952525006 -0.58454585512786428  20.906953811653867 1.4035563244448066 -0.59171113659026175  20.906953811645561 1.4018772799914685 -0.59886292307432043  20.90695381164107 1.396511841859682 -0.62089552657132852  20.906953811673066 1.3926275594432442 -0.63572885732213802  20.906953811566218 1.3884772017309532 -0.65049501213852101  20.90695381180397 1.3840788020886126 -0.66518005207145359  20.906953811403152 1.3793689651033645 -0.67979516826969155  20.90695381193882 1.3744427524877645 -0.69430264971291522  20.906953811361603 1.3692051548159743 -0.70872344407561627  20.906953811864952 1.3636568783619796 -0.72304895986512463  20.90695381151221 1.3578863199013869 -0.73724354284706772  20.906953811706313 1.3517868515354801 -0.75133172644221113  20.906953811627524 1.3454238594876315 -0.76528495785668549  20.906953811646421 1.3387699936368198 -0.77910330416220108  20.906953811648513 1.3282497020135553 -0.79983142353931624  20.906953811619069 1.3245929594404864 -0.80684748522781313  20.906953811725369 1.3208602427525002 -0.81382403788060265  20.906953811484758 1.3170518784534377 -0.82076005163417143  20.906953811888197 1.3131681931361496 -0.82765449669264568  20.906953811358402 1.3092095132380555 -0.83450634314245997  20.906953811916647 1.3051761654152323 -0.8413145612353452  20.906953811440115 1.3010684760704212 -0.84807812103177171  20.906953811769203 1.2968867718506616 -0.85479599277631124  20.906953811588085 1.2926313792063555 -0.86146714656576973  20.906953811664366 1.2883026247194007 -0.86809055259533729  20.906953811642467 1.283900834899717 -0.87466518100672619  20.906953811649561 1.2701187952604513 -0.8947624810376843  20.906953811631212 1.260497248847386 -0.90812042290474693  20.906953811682826 1.2505630433181472 -0.92124788777028188  20.906953811571494 1.2403493388582034 -0.93418060760755262  20.906953811759088 1.2297911462683278 -0.94679490140920908  20.906953811508771 1.2190257604810231 -0.95929563545265251  20.90695381177574 1.2079112112935246 -0.97143409717169782  20.906953811547002 1.1965428619157226 -0.98334704793536298  20.906953811704259 1.1849325569272089 -0.99503559907740735  20.90695381161834 1.1730485439641829 -1.0064300525281442  20.90695381165488 1.1609337622543332 -1.0175820231838348  20.906953811643383 1.1485833722648973 -1.0284655243820735  20.90695381164684 1.1293935082687452 -1.044671681503917  20.906953811638868 1.1227148531694129 -1.0501860716029738  20.906953811663023 1.1159758580010215 -1.0556269263036604  20.906953811612798 1.1091779376588049 -1.0609944015696249  20.906953811693306 1.1023225070416849 -1.0662886533606757  20.906953811588 1.0954109810438935 -1.0715098376439331  20.906953811702778 1.0884447745645396 -1.0766581103764516  20.906953811599251 1.0814253024984508 -1.0817336275251623  20.906953811674644 1.0743539797436679 -1.0867365450507176  20.90695381163221 1.0672322211962808 -1.0916670189151734  20.906953811648972 1.0600614417531073 -1.0965252050824874  20.906953811645838 1.0528430563111673 -1.1013112595140835  20.90695381164225 1.0301724380106521 -1.1160225200066896  20.90695381166417 1.0145582147383672 -1.1256962209898205  20.906953811594132 0.99875162498913705 -1.135049139188627  20.906953811742682 0.98274440379340311 -1.1440961315229559  20.906953811506284 0.96660226106438607 -1.1528147023832711  20.906953811803387 0.9502438176248974 -1.161256626616648  20.906953811501005 0.93376832112936925 -1.1693824742210557  20.906953811752619 0.91718022363376073 -1.1772006808884903  20.906953811582234 0.90040263824917466 -1.1847607530617976  20.906953811673759 0.8835476150952043 -1.1920167964183572  20.906953811637369 0.86655738454407361 -1.1990086644608862  20.906953811645845 0.84946710531044989 -1.2057292879782096  20.906953811647387 0.81398847826917498 -1.2190613796121601  20.906953811630409 0.79558843647216149 -1.2256379110390139  20.906953811691231 0.77708340305227075 -1.2319244661987288  20.906953811553134 0.75848919110836244 -1.2379311531945123  20.906953811785076 0.73980250984460261 -1.2436624922100818  20.90695381148106 0.72103228660067997 -1.2491265772169631  20.906953811799308 0.70219554096830583 -1.2543338692773152  20.906953811530695 0.68329800469534319 -1.2592915276304857  20.906953811713336 0.66433468625294312 -1.2640035750070626  20.906953811614809 0.64530964779319266 -1.268476682302194  20.906953811655061 0.62623901462738274 -1.2727210489696585  20.906953811644378 0.60711828909517362 -1.2767408421513702  20.906953811645192 0.56860153575010008 -1.2843853891431338  20.90695381165127 0.54920383759153302 -1.2880055068271143  20.906953811626988 0.52976746241565409 -1.2914110727638946  20.90695381168371 0.51029429129453352 -1.2946077290291402  20.906953811585815 0.49078755321262363 -1.2976016412867086  20.906953811719472 0.47125176051167689 -1.3003994737675917  20.906953811572116 0.45169119377872452 -1.3030078006252033  20.906953811704369 0.43210869116930101 -1.3054326357461827  20.906953811607043 0.412505625292586 -1.3076794236566698  20.906953811665893 0.39288307945572076 -1.3097534965453426  20.906953811636935 0.37324336314849887 -1.3116606628931042  20.9069538116483 0.35359013528911221 -1.3134072553943004  20.906953811643149 0.32455927035469273 -1.3157564782921758  20.906953811660173 0.31519125738034359 -1.3164791486162792  20.906953811602001 0.30582065176745948 -1.317167213858961  20.906953811736457 0.29644761227221733 -1.3178212502141795  20.906953811499697 0.28707229764556597 -1.3184418338385553  20.906953811829833 0.27769486664794801 -1.3190295409561554  20.906953811460117 0.26831547802563016 -1.3195849476919537  20.906953811793692 0.25893429054241601 -1.3201086302909213  20.906953811552665 0.24955146294410985 -1.32060116487776  20.906953811689473 0.24016715399179814 -1.3210631276767713  20.906953811631336 0.23078152243593425 -1.3214950948446718  20.906953811647298 0.22139472703290583 -1.3218976425750146  20.906953811645156 0.19570837703612032 -1.3229201508653869  20.906953811641866 0.17940684164370943 -1.3234817701845611  20.906953811657559 0.16310251804323353 -1.3239627814021067  20.90695381162341 0.14679597868232078 -1.3243676527950423  20.906953811672992 0.13048763942701799 -1.3247017334878834  20.906953811621047 0.11417774020877001 -1.3249713621694732  20.906953811660944 0.097866522143984669 -1.3251828709849913  20.906953811639365 0.081554386238849641 -1.3253416925448511  20.90695381164609 0.065241919746229227 -1.3254522119178258  20.906953811646527 0.048929776812612284 -1.3255184377947833  20.906953811644826 0.032618501015657796 -1.3255450008900427  20.906953811645714 0.016308478010229291 -1.325537420223819  20.906953811645508 3.0738127064500187e-07 -1.3255000114440916 
 0 14 0.037648977315907002 12 0.062560938787268039 12 0.11932671283918982 12 0.18095918143979164 12 0.24490508995837509 12 0.31053741448546618 12 0.37719687075717079 12 0.44230890758599056 12 0.5002689298210975 12 0.52388406022322143 12 0.54206267857009616 12 0.55841227580492347 12 0.59729171689238225 12 0.61856724531062879 12 0.66296506401252842 12 0.68587100833471693 12 0.73351836172180962 12 0.75859421355563605 12 0.81177275989828745 12 0.86836340080881103 12 0.92552164614005528 12 0.95274185949929813 12 0.99999999999999989 14
Polygon3D 0
PolygonOnTriangulations 0
Surfaces 1
9 0 0 0 0 3 2 41 3 39 2 4.0640335083007813 0 1.3255000114440918  12.485493659973145 0 1.3255000114440918  20.906953811645508 0 1.3255000114440918  
4.0640335083007813 0.024480518706037728 1.3256365647627832  12.485493659973145 0.024480518706037725 1.325636564762783  20.906953811645508 0.024480518706037728 1.3256365647627832  
4.0640335083007821 0.080805169524871517 1.3251372285986751  12.485493659973145 0.080805169524871517 1.3251372285986753  20.906953811645508 0.080805169524871517 1.3251372285986751  
4.0640335083007813 0.17430117018288346 1.3206395742564052  12.485493659973145 0.17430117018288344 1.3206395742564054  20.906953811645508 0.17430117018288346 1.3206395742564052  
4.0640335083007813 0.28393460496997786 1.3085162629015088  12.485493659973137 0.28393460496997791 1.308516262901509  20.906953811645508 0.28393460496997786 1.3085162629015088  
4.0640335083007821 0.4041525007031147 1.2860890588132068  12.485493659973152 0.40415250070311465 1.2860890588132068  20.906953811645508 0.4041525007031147 1.2860890588132068  
4.0640335083007804 0.5299725181706304 1.2510627366914475  12.485493659973145 0.52997251817063051 1.2510627366914475  20.906953811645508 0.5299725181706304 1.2510627366914475  
4.0640335083007821 0.65695555204509193 1.2018239945036884  12.485493659973143 0.65695555204509204 1.2018239945036884  20.906953811645511 0.65695555204509193 1.2018239945036884  
4.0640335083007813 0.78119765753425496 1.1373831474659497  12.485493659973148 0.78119765753425485 1.1373831474659499  20.906953811645508 0.78119765753425496 1.1373831474659497  
4.0640335083007804 0.89932909691932716 1.0574320340724135  12.485493659973141 0.89932909691932728 1.0574320340724133  20.906953811645501 0.89932909691932716 1.0574320340724135  
4.0640335083007821 1.0085389950576635 0.96236765058632323  12.485493659973145 1.0085389950576635 0.96236765058632334  20.906953811645515 1.0085389950576635 0.96236765058632323  
4.0640335083007813 1.1066132004059099 0.85329936464590628  12.485493659973148 1.1066132004059099 0.85329936464590639  20.906953811645501 1.1066132004059099 0.85329936464590628  
4.0640335083007804 1.1919754394817295 0.73203035916699966  12.485493659973141 1.1919754394817295 0.73203035916699966  20.906953811645508 1.1919754394817295 0.73203035916699966  
4.0640335083007813 1.2636983590349977 0.60101477411012472  12.485493659973145 1.2636983590349975 0.60101477411012483  20.906953811645508 1.2636983590349977 0.60101477411012472  
4.0640335083007813 1.321487521126216 0.46332248027863099  12.485493659973145 1.3214875211262158 0.46332248027863104  20.906953811645508 1.321487521126216 0.46332248027863099  
4.0640335083007813 1.3656542784118688 0.32262451405259196  12.48549365997315 1.3656542784118688 0.32262451405259196  20.906953811645504 1.3656542784118688 0.32262451405259196  
4.0640335083007795 1.3970861600000057 0.18319617403789334  12.485493659973136 1.3970861600000055 0.18319617403789334  20.906953811645504 1.3970861600000057 0.18319617403789334  
4.064033508300783 1.4172398061980545 0.049929010132711463  12.485493659973145 1.4172398061980545 0.04992901013271147  20.906953811645515 1.4172398061980545 0.049929010132711463  
4.0640335083007804 1.4280985643784001 -0.07165486912741327  12.485493659973139 1.4280985643783999 -0.071654869127413284  20.906953811645504 1.4280985643784001 -0.07165486912741327  
4.064033508300783 1.4322554084372245 -0.17539959356552148  12.485493659973152 1.4322554084372243 -0.17539959356552148  20.906953811645515 1.4322554084372245 -0.17539959356552148  
4.0640335083007813 1.4325784258895171 -0.26236428910616233  12.485493659973139 1.4325784258895173 -0.26236428910616227  20.906953811645511 1.4325784258895171 -0.26236428910616233  
4.0640335083007804 1.4323816809679435 -0.34189811576016982  12.485493659973145 1.4323816809679433 -0.34189811576016976  20.906953811645501 1.4323816809679435 -0.34189811576016982  
4.0640335083007813 1.4288874781062915 -0.42446479076613347  12.485493659973145 1.4288874781062912 -0.42446479076613353  20.906953811645508 1.4288874781062915 -0.42446479076613347  
4.0640335083007821 1.4193663050791587 -0.5140112280731195  12.485493659973152 1.419366305079159 -0.5140112280731195  20.906953811645515 1.4193663050791587 -0.5140112280731195  
4.0640335083007813 1.4014856909483282 -0.60736510685188239  12.485493659973141 1.4014856909483284 -0.60736510685188239  20.906953811645501 1.4014856909483282 -0.60736510685188239  
4.0640335083007804 1.3733375802876249 -0.70167141951077994  12.485493659973141 1.3733375802876246 -0.70167141951077983  20.906953811645508 1.3733375802876249 -0.70167141951077994  
4.0640335083007813 1.3334610906103621 -0.79437360806203161  12.485493659973145 1.3334610906103623 -0.79437360806203161  20.906953811645508 1.3334610906103621 -0.79437360806203161  
4.0640335083007813 1.2808912410618292 -0.88320402890561811  12.485493659973145 1.2808912410618292 -0.88320402890561822  20.906953811645515 1.2808912410618292 -0.88320402890561811  
4.0640335083007804 1.2152047105097821 -0.96620658484511335  12.485493659973145 1.2152047105097821 -0.96620658484511335  20.906953811645501 1.2152047105097821 -0.96620658484511335  
4.0640335083007813 1.1365396252990545 -1.0417923054486404  12.485493659973145 1.1365396252990547 -1.0417923054486402  20.906953811645508 1.1365396252990545 -1.0417923054486404  
4.0640335083007804 1.0455652627460523 -1.1087909023510447  12.485493659973137 1.0455652627460523 -1.1087909023510449  20.906953811645508 1.0455652627460523 -1.1087909023510447  
4.0640335083007821 0.94342775484786678 -1.1664655146102518  12.485493659973148 0.9434277548478669 -1.1664655146102518  20.906953811645508 0.94342775484786678 -1.1664655146102518  
4.0640335083007821 0.83170733861043422 -1.2144847654150575  12.48549365997315 0.83170733861043433 -1.2144847654150577  20.906953811645511 0.83170733861043422 -1.2144847654150575  
4.0640335083007813 0.71240846838876937 -1.2528853333343242  12.485493659973141 0.71240846838876926 -1.2528853333343242  20.906953811645501 0.71240846838876937 -1.2528853333343242  
4.0640335083007804 0.58797156581058019 -1.2820456020358706  12.485493659973145 0.58797156581058019 -1.2820456020358706  20.906953811645508 0.58797156581058019 -1.2820456020358706  
4.0640335083007821 0.46128916096908329 -1.3026772113303222  12.485493659973146 0.46128916096908334 -1.3026772113303222  20.906953811645511 0.46128916096908329 -1.3026772113303222  
4.0640335083007804 0.33571990017827558 -1.3158128755528236  12.485493659973141 0.33571990017827558 -1.3158128755528238  20.906953811645508 0.33571990017827558 -1.3158128755528236  
4.0640335083007813 0.21509236940716719 -1.3228429769636085  12.485493659973146 0.21509236940716722 -1.3228429769636088  20.906953811645504 0.21509236940716719 -1.3228429769636085  
4.0640335083007813 0.1037187314002283 -1.3253763551950277  12.485493659973145 0.1037187314002283 -1.3253763551950279  20.906953811645515 0.1037187314002283 -1.3253763551950277  
4.0640335083007813 0.033027648086662774 -1.3255757717818191  12.485493659973146 0.033027648086662767 -1.3255757717818191  20.906953811645504 0.033027648086662774 -1.3255757717818191  
4.0640335083007813 3.0738127065887966e-07 -1.3255000114440918  12.485493659973145 3.0738127065887966e-07 -1.3255000114440918  20.906953811645508 3.0738127065887966e-07 -1.3255000114440918  

0 4
0.016371936831935 1
0.037648977315907002 1
0.062560938787268039 1
0.090060612343558444 1
0.11932671283918982 1
0.14975840954452307 1
0.18095918143979164 1
0.21270648600981623 1
0.24490508995837509 1
0.27752601806613131 1
0.31053741448546618 1
0.34383733656413024 1
0.37719687075717079 1
0.41021841309466683 1
0.44230890758599056 1
0.47266537963584176 1
0.5002689298210975 1
0.52388406022322143 1
0.54206267857009616 1
0.55841227580492347 1
0.57705902614477744 1
0.59729171689238225 1
0.61856724531062879 1
0.6405210203144317 1
0.66296506401252842 1
0.68587100833471693 1
0.70933395530002219 1
0.73351836172180962 1
0.75859421355563605 1
0.78467560975688166 1
0.81177275989828745 1
0.83976075706352449 1
0.86836340080881103 1
0.89714723669816865 1
0.92552164614005528 1
0.95274185949929813 1
0.9779137038407123 1
0.99999999999999989 4

0 3
1 3

Triangulations 0

TShapes 13
Ve
1e-07
4.06403350830078 0 1.32550001144409
0 0

0101101
*
Ve
1e-07
20.9069538116455 0 1.32550001144409
0 0

0101101
*
Ed
 1e-07 1 1 0
2  1 1 0 0 1
1  1 0 0 1
0

0101000
+13 0 -12 0 *
Ve
1e-07
4.06403350830078 3.0738127065888e-07 -1.32550001144409
0 0

0101101
*
Ed
 1e-07 1 1 0
2  2 1 0 0 1
1  2 0 0 1
0

0101000
+13 0 -10 0 *
Ve
1e-07
20.9069538116455 3.0738127065888e-07 -1.32550001144409
0 0

0101101
*
Ed
 1e-07 1 1 0
2  3 1 0 0 1
1  3 0 0 1
0

0101000
+10 0 -8 0 *
Ed
 1e-07 1 1 0
2  4 1 0 0 1
1  4 0 0 1
0

0101000
+12 0 -8 0 *
Wi

0101000
-11 0 +9 0 +7 0 -6 0 *
Fa
0  1e-07 1 0

0101000
+5 0 *
Sh

0101000
+4 0 *
So

0100000
+3 0 *
CS

1101000
+2 0 *

+1 0 