DBRep_DrawableShape

CASCADE Topology V1, (c) Matra-Datavision
Locations 0
Curve2ds 8
1 0 0 1 0 
1 1 0 0 1 
1 0 1 1 0 
1 0 0 0 1 
7 0 0  10 29 4  5.5511151231257827e-17 0  0.049999712823337851 0  0.099999935547536389 0  0.15000015078676085 0  0.20000017254856686 0  0.25000003678960092 0  0.29999989196968069 0  0.34999988960806694 0  0.40000007483734873 0  0.45000027695942002 0  0.52499986152029032 0  0.54999975651861888 0  0.57499970923350674 0  0.59999973079848823 0  0.62499981924201586 0  0.64999995948767886 0  0.6750001233538101 0  0.70000026955403338 0  0.72500034369667166 0  0.77500021287382914 0  0.79999380304902801 0  0.82502623668266117 0  0.84995241582802206 0  0.87503909132709334 0  0.89999107970514369 0  0.92499587596145705 0  0.95000279714564229 0  0.97499480244372327 0  1.0000000000000002 0 
 0 11 0.5 9 0.75 9 1 11
8 0 1
1 1 0 0 1 
8 0 1
1 0 1 1 0 
8 0 1
1 0 0 0 1 
Curves 7
7 0 0  2 3 2  0 0 0  0 10 10  0 20 0 
 0 3 22.360679774997898 3
7 0 0  2 3 2  15 0 0  15 10 10  15 20 0 
 0 3 22.360679774997898 3
7 0 0  2 3 2  45 0 0  45 10 10  45 20 0 
 0 3 22.360679774997898 3
7 0 0  2 3 2  0 0 0  0 10 10  0 20 0 
 0 3 1 3
7 0 0  2 3 2  0 20 0  22.500000000000004 19.999999999999996 0  45 20 0 
 0 3 1 3
7 0 0  2 3 2  45 0 0  45 10 10  45 20 0 
 0 3 1 3
7 0 0  2 3 2  0 0 0  22.500000000000004 0 0  45 0 0 
 0 3 1 3
Polygon3D 0
PolygonOnTriangulations 0
Surfaces 2
9 0 0 0 0 2 2 3 3 2 2 0 0 0  22.500000000000004 0 0  45 0 0  
0 10 10  22.500000000000004 9.9999999999999982 9.9999999999999982  45 10 10  
0 20 0  22.500000000000004 19.999999999999996 0  45 20 0  

0 3
1 3

0 3
1 3

9 0 0 0 0 8 8 23 23 4 4 1.7763568394002505e-15 1.4446319109287287e-15 -3.2629065364944525e-05  2.0624999999999867 1.4393575947496004e-15 0.00039408050006136769  4.1250000000000231 1.3067016165285488e-15 -0.0011149888866203259  6.1874999999999591 1.7339818577249878e-15 0.0016996052185232892  8.2500000000000604 5.5148470998320622e-16 -0.0015519684473890203  10.312499999999998 2.4310946968977202e-15 0.00082596146411557676  12.374999999999936 5.9627305536678084e-17 -0.00020850015089301648  14.437500000000092 2.1643119258087062e-15 1.6868903838709085e-06  18.562499999999812 -8.0211489794762437e-16 -2.2034623517074543e-06  20.625000000000913 1.7735839818688801e-15 -4.0590780033539774e-06  22.687499999998263 1.4718742408266841e-17 -4.537708859964977e-06  24.750000000002025 6.854919070070897e-16 -3.240343400392906e-06  26.812499999998508 2.13491248208286e-15 -6.5638268044907594e-07  28.875000000000703 -2.9104452602178906e-16 1.8363596909248873e-06  30.937499999999854 2.7824565252018629e-15 1.9716575257684606e-06  35.062500000000107 -8.3254235410257762e-16 -8.7819133626087945e-06  37.124999999999609 1.8580527318041414e-14 0.001507989326059429  39.187500000000846 -6.7740904001891523e-14 -0.003702049831499978  41.249999999998693 1.0944971570778119e-13 -0.00048397226740836026  43.312500000001322 -7.9683528146444962e-14 0.014745597679812421  45.374999999999218 -7.2596374627948721e-15 -0.024256270832421854  47.437500000000249 2.5985768970619349e-14 0.0068215641616790612  49.499999999999957 7.5102414797574307e-14 0.036901088555867149  
4.3629840927095043e-15 0.91666666666668684 0.9166445674425725  2.0624999999990847 0.91666666666691143 0.86126744125857524  4.1250000000033005 0.91666666666586483 0.79681476835123888  6.1874999999934248 0.91666666666810726 0.734790629791646  8.2500000000086082 0.91666666666517527 0.66161475275005011  10.31249999999241 0.91666666666774554 0.59613157498131764  12.375000000004155 0.91666666666626351 0.52857399214639855  14.43749999999914 0.91666666666676211 0.46825134298882154  18.562500000000206 0.91666666666670726 0.36440764742514442  20.625000000000515 0.91666666666646646 0.32115853397352812  22.687499999996597 0.91666666666738261 0.28972573708576776  24.750000000007258 0.91666666666585273 0.27318656074582753  26.812499999992379 0.91666666666724694 0.27465706258211797  28.875000000004505 0.91666666666654528 0.29622962843135725  30.937499999999226 0.91666666666656271 0.33781880085227328  35.062499999999901 0.91666666666706864 0.45616334496553501  37.125000000003901 0.91666666666480645 0.53634395151464753  39.187499999990663 0.9166666666706802 0.61384654981340625  41.250000000012214 0.91666666666126406 0.7396756961123534  43.312499999989811 0.91666666667152041 0.83818351642763789  45.375000000005535 0.916666666663838 0.91598682926849917  47.437499999998408 0.91666666666755237 1.0449951420805077  49.5 0.916666666666762 1.1662471319731227  
-5.235467657390509e-14 1.8333333333332618 1.7377225153407563  2.0625000000033173 1.8333333333323987 1.6257858490681747  4.1249999999875708 1.8333333333364381 1.4919712569628203  6.1875000000244782 1.8333333333278117 1.3551067882382182  8.2499999999683933 1.83333333333909 1.211699341715641  10.312500000027514 1.8333333333293449 1.0626514971362242  12.374999999985095 1.8333333333348134 0.9223951453933884  14.437500000003277 1.8333333333330828 0.79089018312273307  18.562499999998931 1.8333333333331994 0.56394304896264436  20.62500000000043 1.8333333333343838 0.46801767687407952  22.687500000008583 1.8333333333303095 0.39674537349545186  24.749999999978304 1.8333333333370354 0.35673711552164677  26.812500000024325 1.8333333333307267 0.35524281664746543  28.874999999985771 1.8333333333341599 0.39813438341998048  30.937500000002327 1.8333333333337101 0.4850988289129417  35.062500000001727 1.8333333333319486 0.73761870812269958  37.124999999978819 1.8333333333400372 0.89732007882108666  39.187500000051571 1.8333333333188233 1.122090521311911  41.249999999931546 1.8333333333529906 1.297439477319456  43.31250000005695 1.8333333333156852 1.5722713201622103  45.374999999971195 1.8333333333433923 1.7774506699018271  47.437500000007603 1.8333333333302335 2.0032203293471289  49.500000000000085 1.833333333333337 2.2182594866206364  
9.9528554155137993e-14 2.7500000000001226 2.460663957529607  2.0624999999933964 2.7500000000019842 2.2882978486635785  4.1250000000243867 2.7499999999933782 2.0982179991557857  6.1874999999527232 2.7500000000117164 1.8719936921828799  8.2500000000605667 2.7499999999880349 1.6520453175848462  10.312499999947654 2.7500000000079639 1.419213751413982  12.37500000002839 2.7499999999973652 1.1942326019054377  14.437499999994435 2.7500000000004139 0.98454335980696317  18.562500000000675 2.7500000000004894 0.61781576453145326  20.625000000007088 2.7499999999974158 0.46090475593908503  22.687499999968356 2.7500000000073275 0.34130743677572889  24.750000000059927 2.7499999999909504 0.27119791216210615  26.812499999939476 2.7500000000069744 0.26173437478847644  28.875000000034493 2.7499999999974567 0.32417015008608563  30.937499999993729 2.749999999999547 0.45957293157419704  35.062499999998735 2.750000000002764 0.8596411863787381  37.125000000036387 2.7499999999864584 1.1342710424488123  39.187499999903913 2.750000000029766 1.4088207257270067  41.25000000013177 2.74999999995948 1.8682375999187772  43.312499999890846 2.7500000000362004 2.1265456351581209  45.375000000052232 2.7499999999793503 2.5479560815884388  47.437499999987459 2.7500000000063971 2.8875960359147217  49.499999999999901 2.7500000000001799 3.1986333717049114  
-1.2673197376156904e-13 3.6666666666665368 3.09217880374585  2.0625000000083524 3.666666666663938 2.8636457929196846  4.1249999999693641 3.6666666666758672 2.5905906904374816  6.1875000000587548 3.6666666666508205 2.3098848773984719  8.2499999999254108 3.6666666666822789 1.9906760425140426  10.312500000064274 3.6666666666570573 1.6783541362633974  12.374999999965347 3.666666666669395 1.3655110723119506  14.437500000006581 3.6666666666664764 1.0732331199665923  18.562500000000437 3.6666666666656691 0.55799559801292742  20.624999999984677 3.6666666666717425 0.33515812227928271  22.687500000052715 3.6666666666538927 0.16251201319938563  24.749999999910237 3.6666666666828642 0.057188316986605155  26.812500000087969 3.6666666666537453 0.036132032746742059  28.874999999950074 3.666666666672207 0.11596300390065829  30.937500000010878 3.6666666666668228 0.29986810278353165  35.062499999997499 3.6666666666632648 0.85314496496869452  37.124999999970719 3.6666666666845367 1.2137725060609672  39.187500000093472 3.6666666666269063 1.7058602690097524  41.249999999864521 3.6666666667211723 2.1236900999458301  43.312500000112273 3.6666666666178949 2.7479411573018919  45.37499999995012 3.6666666666944141 3.189857158423175  47.437500000010459 3.6666666666581578 3.6646971077952855  49.500000000000199 3.6666666666666088 4.0790829964238853  
8.107154453026536e-14 4.5833333333334334 3.621836001116018  2.062499999993523 4.5833333333358945 3.3379441322290395  4.1250000000238289 4.5833333333245871 3.014595341710248  6.1874999999541238 4.583333333348226 2.6421021487260781  8.2500000000585505 4.5833333333191346 2.2589114578448108  10.312499999949837 4.583333333341634 1.8554203925498329  12.375000000026965 4.5833333333313746 1.4606150911582636  14.437499999995296 4.5833333333333535 1.0868061175512065  18.562499999998842 4.5833333333345934 0.42348294730908365  20.625000000017412 4.5833333333275981 0.13381921560313878  22.68749999994759 4.5833333333473494 -0.094004622302138824  24.750000000084306 4.5833333333154966 -0.2377966789463945  26.812499999919595 4.5833333333479818 -0.27545265042637113  28.875000000045716 4.5833333333267428 -0.18258785601245761  30.937499999989303 4.5833333333336439 0.046346602459392407  35.062500000004832 4.5833333333362463 0.74896200254414924  37.125000000011184 4.5833333333171487 1.227301165639832  39.187499999948933 4.5833333333695059 1.7866330984705603  41.250000000079119 4.5833333332835924 2.4929685531632026  43.312499999934523 4.5833333333777526 3.1085024492301478  45.375000000025977 4.5833333333080981 3.7799098829661792  47.437499999996099 4.5833333333410611 4.3551718632976177  49.499999999999972 4.5833333333334947 4.8613568071840465  
-4.1784676900646102e-14 5.4999999999999289 4.059881358957405  2.0625000000029825 5.4999999999984617 3.7285072966639259  4.1249999999889617 5.5000000000053486 3.3421979132922406  6.1875000000216094 5.4999999999908411 2.914204923116988  8.2499999999722498 5.5000000000087219 2.4517268283959313  10.312500000023917 5.4999999999949516 1.9772812109107125  12.374999999987271 5.5000000000011937 1.5047223277052417  14.43750000000226 5.5000000000000799 1.0565804982493079  18.562500000000796 5.4999999999991349 0.25557677674996349  20.624999999990884 5.500000000004162 -0.097166178258173197  22.687500000027626 5.4999999999903864 -0.37904206822984166  24.749999999956216 5.5000000000123759 -0.56210712093012161  26.812500000042078 5.4999999999898108 -0.62137628667042666  28.874999999976097 5.5000000000048246 -0.52310150967408164  30.937500000005755 5.4999999999995666 -0.2567945643528573  35.062499999997613 5.4999999999983942 0.58024823928153968  37.124999999994969 5.5000000000093987 1.1500127985729174  39.187500000023562 5.4999999999790319 1.8620188800691526  41.249999999963109 5.500000000028594 2.6531261904977548  43.312500000030909 5.4999999999744755 3.4874854963980209  45.374999999987637 5.5000000000143849 4.2436729387470571  47.437500000001663 5.4999999999956284 4.9319478122783007  49.499999999999957 5.4999999999999734 5.5240045145953172  
-8.5969090396742555e-16 6.4166666666666998 4.3999899912904521  2.0624999999993929 6.4166666666672159 4.0292232784061097  4.12500000000224 6.4166666666646561 3.5978448156432794  6.1874999999957998 6.4166666666704018 3.114255266280344  8.2500000000056968 6.4166666666627323 2.5945194214161531  10.312499999995085 6.4166666666693581 2.0566917939923308  12.375000000002764 6.4166666666657823 1.5207056620214456  14.437499999999755 6.4166666666667744 1.0100145806067837  18.562499999999584 6.4166666666669494 0.092336184091943968  20.625000000003645 6.4166666666653942 -0.31457709708846743  22.687499999991108 6.4166666666698493 -0.64348974564743011  24.750000000013184 6.4166666666624934 -0.86309810279723809  26.812499999988077 6.4166666666703716 -0.94397122073914463  28.875000000006796 6.4166666666648053 -0.84891771188355147  30.937499999998632 6.4166666666669805 -0.55688988560098707  35.062500000000227 6.416666666667191 0.3884047950628553  37.1250000000028 6.4166666666635042 1.0417228899623963  39.187499999992703 6.4166666666737111 1.8598727204401906  41.250000000009848 6.416666666657048 2.793163634241695  43.312499999992106 6.4166666666751278 3.7483320852203472  45.375000000003595 6.4166666666620173 4.6189699838404703  47.437499999999488 6.4166666666680756 5.3941918750401348  49.500000000000156 6.4166666666667584 6.0557613394392868  
-1.6075068413371299e-16 8.2499999999999378 4.8888484009610442  2.0625000000002078 8.2499999999992522 4.4599098104887975  4.124999999999317 8.2500000000029008 3.9596505718165513  6.1875000000014682 8.2499999999941647 3.3964428208731388  8.24999999999784 8.2500000000068745 2.7889495520407452  10.312500000002004 8.2499999999948219 2.1580939076460632  12.374999999999032 8.2500000000021085 1.526836128323958  14.437499999999977 8.2499999999997442 0.92238333499808178  18.562500000000554 8.249999999999682 -0.17146870840116649  20.624999999997229 8.2500000000020943 -0.66084802365644946  22.687500000006228 8.2499999999951825 -1.0618770372977049  24.749999999991026 8.2500000000064233 -1.3401860448727789  26.812500000008381 8.2499999999943974 -1.4565111313638093  28.874999999995371 8.2500000000030429 -1.3735398358289916  30.937500000000476 8.2499999999993658 -1.0518368069446953  35.062500000001229 8.2499999999993889 0.047416018244476839  37.124999999991175 8.2500000000040359 0.8239879847672098  39.187500000016826 8.2499999999908393 1.8239389552063421  41.249999999979046 8.250000000012264 2.963654214905497  43.312500000016989 8.2499999999892868 4.1269188988948278  45.3749999999905 8.2500000000056612 5.1599554523463418  47.437500000002167 8.2499999999983569 6.0674313473223682  49.499999999999773 8.2499999999999787 6.8324340794426925  
2.919308788477681e-15 9.1666666666669911 5.0376483842364053  2.0625000000002256 9.166666666670034 4.5898426395739103  4.124999999999484 9.1666666666541445 4.0662905590479363  6.1875000000014904 9.166666666692139 3.4777157679422159  8.2499999999998597 9.1666666666363348 2.8414487982756884  10.312500000000416 9.1666666666905439 2.179611753162336  12.374999999999735 9.1666666666564627 1.5171445520796052  14.437500000001599 9.1666666666684566 0.88135703683636912  18.562499999997403 9.1666666666672789 -0.27197460152980762  20.625000000013138 9.1666666666611984 -0.78979302535311924  22.687499999976424 9.1666666666806762 -1.2151248909847066  24.75000000003164 9.1666666666475702 -1.5174136840028556  26.812499999972285 9.1666666666842609 -1.6448198295701872  28.875000000015898 9.1666666666568339 -1.5733976015795121  30.937499999999325 9.1666666666689274 -1.2456290461633306  35.062499999993726 9.1666666666694798 -0.095034527812626224  37.125000000040401 9.1666666666493768 0.72820301055101422  39.187499999927617 9.1666666667049199 1.7709844387727247  41.250000000087383 9.1666666666161287 3.0116698238016024  43.312499999928953 9.1666666667097108 4.2349771139109142  45.375000000042114 9.1666666666446908 5.3284175830604497  47.437499999989825 9.1666666666727892 6.278676036690138  49.500000000001386 9.1666666666670071 7.0773652153622963  
-8.1948239936114022e-15 10.08333333333271 5.0887656193420812  2.0624999999991553 10.083333333326658 4.6339098406239545  4.125000000002955 10.083333333357993 4.1045498853042712  6.1874999999936655 10.08333333328352 3.5042786882874681  8.2500000000052651 10.083333333393242 2.8571966498007675  10.312499999995509 10.083333333285536 2.1848753164139092  12.375000000002274 10.083333333354382 1.5094969209562197  14.43749999999714 10.083333333329733 0.86194874118526432  18.562500000004654 10.083333333332286 -0.31464626587091105  20.624999999978805 10.083333333344694 -0.84314721433296602  22.687500000036145 10.08333333330528 -1.2820788573847197  24.74999999995174 10.083333333371524 -1.5858355264806392  26.812500000043826 10.083333333297956 -1.7339667608171065  28.87499999997382 10.083333333353556 -1.6551978343810023  30.937500000000433 10.083333333328564 -1.3445225763531841  35.062500000013458 10.083333333328177 -0.21141481470562318  37.124999999916987 10.083333333365397 0.59666556207327814  39.1875000001491 10.083333333263628 1.820370638714577  41.249999999819877 10.083333333423598 2.9593533877550788  43.312500000147999 10.08333333325791 4.2972270657358811  45.374999999910791 10.08333333337084 5.3844726316740195  47.437500000023093 10.083333333323361 6.356965438568853  49.49999999999747 10.083333333332806 7.168095908283286  
1.4463886707581035e-14 11.000000000000716 5.0469808411419947  2.0625000000014015 11.000000000008557 4.5977585912926342  4.1249999999954738 10.999999999968267 4.0712133399090229  6.187500000009555 11.000000000063709 3.4817211497817202  8.2499999999922569 10.999999999922863 2.8432771422270129  10.312500000005743 11.000000000062041 2.1785362955168286  12.374999999998112 10.99999999997222 1.514110600446785  14.437500000003153 11.000000000004727 0.87567398331476909  18.562499999994486 11.000000000001291 -0.28282117097175691  20.625000000026123 10.999999999985112 -0.80353387293394662  22.687499999955733 11.00000000003663 -1.2303334798018182  24.750000000059103 10.999999999949958 -1.5382397978765106  26.812499999945583 11.000000000046631 -1.6646280134125724  28.875000000033079 10.999999999973028 -1.5997456199611058  30.937499999999147 11.000000000006631 -1.2760313896382578  35.062499999983324 11.000000000005208 -0.12382484881330054  37.125000000103114 10.99999999996543 0.70507821475176757  39.187499999812722 11.000000000073735 1.7480405430018888  41.250000000225931 10.999999999906066 3.0126407018550903  43.312499999813568 11.000000000076724 4.2398759970935078  45.375000000111996 10.99999999996305 5.3401743198103082  47.437499999969994 11.000000000009226 6.2932366898315637  49.500000000003062 11.00000000000062 7.094177911987769  
-1.8687669028817484e-14 11.916666666666142 4.9057728607669837  2.0624999999987388 11.91666666665934 4.4746974250955009  4.1250000000042437 11.916666666694104 3.9732046470234175  6.1874999999921592 11.916666666611976 3.4062266277087447  8.2500000000060929 11.916666666733173 2.795726351553887  10.312499999996612 11.916666666613351 2.1622179810493294  12.375000000000528 11.9166666666907 1.5272079953623414  14.437499999998183 11.916666666662877 0.91970250146014632  18.562500000004405 11.916666666665174 -0.17985040854388615  20.624999999979316 11.916666666681923 -0.67173658482017085  22.687500000036838 11.916666666630368 -1.0748126009155838  24.749999999950052 11.916666666715606 -1.3538481352641158  26.812500000047134 11.916666666622355 -1.4702238970200556  28.874999999972001 11.916666666692024 -1.3851288943037476  30.937500000001155 11.916666666660321 -1.0537893477980944  35.062500000013713 11.916666666663891 0.059886042912162804  37.124999999915751 11.916666666688291 0.84402755491642145  39.187500000155545 11.916666666621538 1.8276487865171958  41.249999999811521 11.916666666722747 2.9788391321189804  43.312500000155531 11.916666666622277 4.1381503509440618  45.374999999908198 11.916666666686892 5.1784575856672266  47.437500000024883 11.916666666662026 6.0900789188138171  49.499999999997911 11.916666666666329 6.8585377896325816  
1.850827909394705e-14 12.833333333333588 4.6707699938370286  2.0625000000007678 12.833333333337352 4.2691241333889209  4.1249999999977707 12.833333333318251 3.8010127450581521  6.1875000000041354 12.833333333363235 3.2759609893978849  8.2499999999973195 12.833333333297 2.7102415562292315  10.312500000001171 12.833333333362354 2.1236309918049008  12.37500000000029 12.833333333320283 1.5382548089297168  14.437500000000924 12.833333333335279 0.97900633121312919  18.562499999997375 12.833333333334419 -0.028957885283174258  20.62500000001301 12.833333333323942 -0.47774597804382979  22.687499999975984 12.833333333355311 -0.84230049767744986  24.750000000032124 12.833333333304171 -1.0902338898258523  26.81249999997053 12.833333333359075 -1.1865172094910414  28.875000000016698 12.833333333318894 -1.0921079968778056  30.937499999998824 12.833333333337029 -0.78079038465971096  35.062499999993236 12.833333333333933 0.2466985231145655  37.125000000041808 12.83333333332598 0.96186893409760099  39.18749999992248 12.833333333347985 1.8753332602943109  41.250000000093188 12.833333333316094 2.9016049159762538  43.312499999924064 12.833333333345948 3.9629724316657637  45.375000000043542 12.833333333328547 4.9145491953683287  47.437499999988539 12.833333333334187 5.7582727335701342  49.500000000000973 12.833333333333517 6.4737644144833189  
-1.4190823959056125e-14 13.749999999999945 4.3388847154022177  2.0624999999999423 13.749999999998805 3.9759181955023455  4.1250000000003286 13.750000000004487 3.5539896523254679  6.1874999999996705 13.749999999991214 3.081434601416515  8.2500000000000302 13.750000000010747 2.5739762547304745  10.312500000000361 13.749999999991442 2.0492232340345544  12.374999999999737 13.750000000003952 1.5266467780629387  14.437499999999877 13.749999999999469 1.0292168791728422  18.56250000000075 13.749999999999527 0.1365366911407854  20.624999999996461 13.750000000003539 -0.25877035625969513  22.687500000006843 13.749999999992371 -0.57674704860541537  24.749999999991307 13.750000000009596 -0.78909518700811621  26.812500000007635 13.749999999992118 -0.86361386579732025  28.874999999996149 13.750000000004158 -0.76773061758044492  30.937500000000217 13.749999999998927 -0.48096552370145346  35.062500000001855 13.750000000000263 0.44130893529168963  37.124999999989271 13.749999999999565 1.0769068469309455  39.187500000019789 13.750000000001334 1.8719170400452128  41.249999999976758 13.749999999997565 2.776935028179127  43.312500000018254 13.750000000002492 3.7027397885661544  45.374999999990003 13.749999999998218 4.5508341080238273  47.437500000002537 13.750000000000499 5.3070069347897704  49.499999999999922 13.749999999999998 5.9535116446946894  
3.0786617873099698e-14 15.583333333333368 3.483313494940091  2.0624999999998579 15.583333333334695 3.2116124056209698  4.1250000000006928 15.583333333328325 2.897146324505532  6.1874999999989013 15.583333333343125 2.5478782968567  8.2500000000016094 15.583333333321127 2.1756126433351608  10.3124999999989 15.583333333343342 1.7931596442338726  12.37500000000033 15.583333333328389 1.4148625402579265  14.437500000000389 15.583333333334162 1.0577691465521419  18.562499999998966 15.583333333333695 0.42369160685465129  20.625000000004874 15.583333333330225 0.14663707383421604  22.687499999991545 15.583333333339985 -0.071082931470394378  24.750000000008974 15.583333333325285 -0.20975361876854565  26.812499999993687 15.583333333339654 -0.24597820954231372  28.875000000002704 15.583333333330378 -0.15890588180793522  30.937499999999822 15.583333333334236 0.05943367199219815  35.062499999998991 15.583333333332451 0.73082211695672772  37.125000000005414 15.583333333337745 1.1841191725075602  39.187499999991367 15.583333333323358 1.7407365449637273  41.250000000007887 15.583333333346927 2.3718939321747463  43.312499999995531 15.583333333321749 3.0159129968014087  45.375000000001947 15.583333333339755 3.6263032648560927  47.437500000000107 15.583333333331741 4.1826472412052  49.500000000000171 15.583333333333359 4.6682317396152424  
-1.0005721325483119e-13 16.499999999999943 2.9604176220260574  2.0625000000010378 16.499999999995779 2.7421266826995776  4.1249999999964357 16.50000000001512 2.4843845601164509  6.1875000000071898 16.499999999970619 2.212412947595551  8.2499999999909139 16.500000000037353 1.9108492815740661  10.312500000006604 16.499999999968896 1.6129002044591583  12.374999999997772 16.500000000015973 1.3144820113449298  14.437499999998931 16.499999999997428 1.036202744346288  18.562500000003006 16.49999999999843 0.54543137625740634  20.624999999985953 16.500000000011994 0.33308555166346632  22.687500000021739 16.499999999975774 0.16912261554315552  24.749999999980744 16.500000000027498 0.068391730747938834  26.812500000009226 16.49999999998013 0.048883050729663251  28.874999999998124 16.500000000007965 0.12535386744286636  30.937499999999115 16.499999999997097 0.30094926122940902  35.062500000003432 16.500000000004512 0.82869166571941155  37.124999999983977 16.499999999975305 1.1817282335140982  39.187500000023519 16.500000000055138 1.604628302289244  41.249999999980673 16.499999999925652 2.1078236797590342  43.312500000008669 16.500000000062624 2.5697979818770049  45.374999999996547 16.499999999966352 3.0774670676149793  47.437499999998678 16.500000000008253 3.5106964130854093  49.499999999999794 16.500000000000099 3.9035925836414158  
1.7650715580082934e-13 17.41666666666676 2.3365877654680283  2.0624999999980771 17.416666666673969 2.1714234379968849  4.1250000000070424 17.416666666640932 2.0028417753448151  6.1874999999861959 17.416666666717383 1.7748752730918462  8.2500000000180886 17.416666666600907 1.5853260426223112  10.312499999986183 17.416666666721984 1.3540473697704039  12.375000000005739 17.416666666638228 1.1485075116048522  14.43750000000183 17.416666666671173 0.95096775856936222  18.562499999994639 17.416666666669474 0.60811729407344395  20.625000000026365 17.416666666645554 0.46197094978506126  22.687499999961513 17.416666666707656 0.35082182080567226  24.750000000031214 17.416666666622241 0.28657745719399152  26.812499999988898 17.416666666697488 0.2800963924734261  28.875000000000064 17.416666666655498 0.33951395160471659  30.937500000002515 17.416666666671532 0.46753941136697752  35.062499999993506 17.416666666658244 0.8427242254415912  37.125000000029644 17.416666666714878 1.0879896990926299  39.187499999957716 17.416666666558392 1.4064865421627573  41.250000000030496 17.416666666813239 1.6788292482321159  43.312499999991175 17.416666666542934 2.1419729520552067  45.375000000000952 17.416666666733374 2.3602404618667276  47.437500000004754 17.416666666650286 2.7285149810777045  49.500000000000675 17.416666666666469 3.0271342120109637  
-1.7667759699366577e-13 18.333333333333147 1.6286995499594501  2.0625000000024922 18.333333333325328 1.5317403755237735  4.1249999999913953 18.333333333360258 1.3859138911026228  6.1875000000175504 18.333333333280716 1.297976087970796  8.2499999999763407 18.333333333402795 1.133322373617371  10.312500000018943 18.333333333273828 1.0236871106502186  12.374999999991095 18.333333333363768 0.88895960736040658  14.43749999999833 18.333333333328873 0.77378530529315681  18.562500000005429 18.333333333329072 0.57270767733516836  20.624999999971429 18.333333333360912 0.48780427717569397  22.687500000038717 18.333333333281882 0.42613753887411099  24.74999999997215 18.333333333387724 0.39116864608442592  26.812500000004732 18.33333333329567 0.39071260976830929  28.875000000004299 18.333333333347007 0.43064488435685  30.937499999995413 18.333333333327339 0.50847920994208884  35.062500000008981 18.3333333333429 0.73447115407795038  37.124999999958966 18.333333333277309 0.88550763097777119  39.187500000060759 18.333333333461052 1.0317817502898079  41.249999999952436 18.333333333158912 1.3414693901737924  43.312500000018304 18.33333333348072 1.3342543279428534  45.374999999994756 18.333333333253972 1.7514396661689389  47.437499999995126 18.333333333352744 1.8791560958307474  49.499999999999375 18.33333333333379 2.0654497773603446  
1.0984389867668185e-13 19.250000000000178 0.80863749871574075  2.0624999999979683 19.250000000005834 0.75978240232201344  4.1250000000072502 19.249999999981878 0.72749069341560024  6.1874999999849187 19.250000000033118 0.65228780872874048  8.2500000000208047 19.249999999956501 0.62594109314825919  10.31249999998262 19.250000000037744 0.55857198745734626  12.375000000008482 19.249999999980997 0.51728124234832606  14.437500000001259 19.250000000002252 0.47310717443771805  18.562499999995154 19.250000000004196 0.40149465603065726  20.625000000026454 19.249999999976836 0.37309373172947047  22.687499999961965 19.250000000041918 0.35330444670493139  24.750000000030617 19.249999999955751 0.3457516978560346  26.812499999989502 19.250000000031143 0.35118252604455452  28.874999999999854 19.249999999988212 0.36944282976474407  30.937500000003123 19.250000000004842 0.40150139037241939  35.062499999993442 19.249999999993211 0.48708932609505495  37.125000000031051 19.250000000040185 0.54212472815861756  39.187499999952749 19.249999999906802 0.61206588859929856  41.250000000037332 19.250000000127805 0.62908316151851884  43.312499999986557 19.249999999892452 0.84312959188563164  45.375000000003233 19.250000000057856 0.72217300370617421  47.437500000004405 19.249999999986002 0.88519149537678354  49.500000000000554 19.249999999999496 0.99340070116728929  
2.0403145112278528e-16 20.166666666666622 -0.097274150953483782  2.0625000000011848 20.166666666664415 -0.083898762354245718  4.1249999999956168 20.166666666672807 -0.070755953130612545  6.1875000000092175 20.166666666657878 -0.044309285997499864  8.249999999987482 20.166666666677642 -0.035039515587505808  10.312500000010441 20.166666666657235 -0.0081914741148156629  12.374999999995008 20.166666666670945 0.0088446827840751984  14.437499999999476 20.166666666667108 0.028332134307208053  18.562500000002615 20.166666666663161 0.062339222505401519  20.624999999985274 20.166666666682914 0.077307950099147663  22.687500000022105 20.166666666637411 0.089530020184077339  24.749999999981103 20.166666666699154 0.0973105338562541  26.812500000008207 20.166666666642566 0.099642941850977065  28.874999999998607 20.166666666677084 0.095737599061742062  30.937499999998803 20.166666666663527 0.08472582023260132  35.06250000000265 20.166666666669794 0.050989761802196595  37.124999999986969 20.16666666665008 0.026994051413658585  39.187500000020172 20.166666666705858 0.0059881737627986327  41.249999999984006 20.166666666612858 -0.046368296772479799  43.312500000005663 20.166666666711599 -0.038977111609628128  45.374999999998018 20.166666666642712 -0.1097426226452535  47.437499999998074 20.166666666672327 -0.11595033745215866  49.500000000000057 20.166666666667087 -0.11147982007873491  
-2.2960441112559382e-14 21.083333333333321 -1.0961476460683164  2.0624999999996767 21.083333333333567 -1.0296610753856379  4.1250000000012834 21.083333333332874 -0.95936895169220548  6.187499999997276 21.083333333332959 -0.87970893972315778  8.2500000000037108 21.083333333334192 -0.80110736859640974  10.312499999996854 21.083333333332195 -0.72071306307855409  12.375000000001499 21.083333333334448 -0.6440756295610065  14.437500000000163 21.083333333332465 -0.57421276631103535  18.562499999999027 21.083333333334942 -0.4551416507771785  20.62500000000529 21.083333333326742 -0.40599243680842123  22.687499999991562 21.083333333345298 -0.37063718965915687  24.750000000007553 21.083333333319292 -0.35290966551583086  26.812499999995914 21.083333333344381 -0.35604071922110453  28.87500000000124 21.083333333328067 -0.38197571113561679  30.937500000000039 21.083333333334632 -0.43069350219255803  35.062499999999666 21.08333333333249 -0.5676708657686973  37.125000000001918 21.083333333336316 -0.65531092087656717  39.187499999997492 21.083333333326578 -0.76307898268739971  41.250000000000504 21.083333333342306 -0.87856675230914849  43.312500000001727 21.083333333326014 -0.9930713628001836  45.374999999998693 21.083333333337258 -1.1348395325118246  47.437500000001137 21.083333333332472 -1.2295395054584324  49.500000000000078 21.083333333333201 -1.3114184132558466  
-3.3750779948604809e-14 22.000000000000004 -2.2018269371143337  2.0625000000000178 21.999999999999972 -2.0860788561179975  4.1249999999999991 22.000000000000114 -1.9655637918094813  6.1875000000000595 21.999999999999801 -1.8362179840602815  8.2500000000000089 22.00000000000022 -1.7047461469408958  10.312499999999995 21.999999999999826 -1.5755761512815625  12.374999999999995 22.000000000000057 -1.452369548703593  14.437500000000071 22.000000000000039 -1.3420956142033391  18.56249999999984 21.999999999999826 -1.1572575545185677  20.625000000000689 22.000000000000842 -1.0828265745413546  22.687499999998664 21.999999999998419 -1.0316992267185088  24.750000000001439 22.000000000001808 -1.0094304390000088  26.812499999998924 21.999999999998678 -1.0205238249104285  28.875000000000469 22.000000000000611 -1.0673329452170945  30.937499999999879 21.99999999999989 -1.1491544913496816  35.062500000000028 22.000000000000064 -1.3738722897977662  37.124999999999723 21.999999999999908 -1.5163239053256437  39.187500000000711 22.00000000000011 -1.6877359176584432  41.249999999998643 21.99999999999989 -1.8726527670029671  43.312500000001428 22.000000000000135 -2.0696164697568538  45.374999999999055 21.999999999999918 -2.2756165576328877  47.437500000000377 22.00000000000005 -2.4503274768881265  49.500000000000149 22.000000000000021 -2.6104278366584239  

0 9
0.3666666666666667 7
0.73333333333333339 7
1.1000000000000001 9

0 9
0.3666666666666667 7
0.73333333333333339 7
1.1000000000000001 9

Triangulations 0

TShapes 25
Ve
0.000388865752042333
0 0 0
0 0

0101101
*
Ve
0.000236068158122493
0 20 0
0 0

0101101
*
Ed
 1e-07 1 1 0
1  1 0 0 22.3606797749979
0

0101000
+25 0 -24 0 *
Ve
1e-07
15 0 0
0 0

0101101
*
Ve
1e-07
15 20 0
0 0

0101101
*
Ed
 1e-07 1 1 0
1  2 0 0 22.3606797749979
0

0101000
+22 0 -21 0 *
Ve
0.000388865752042333
45 0 0
0 0

0101101
*
Ve
0.000388865752042333
45 20 0
0 0

0101101
*
Ed
 1e-07 1 1 0
1  3 0 0 22.3606797749979
0

0101000
+19 0 -18 0 *
Ve
1e-07
10 15 0
0 0

0101101
*
Ed
 1e-07 1 1 0
1  4 0 0 1
2  1 1 0 0 1
0

0101000
+25 0 -24 0 *
Ed
 1e-07 1 1 0
1  5 0 0 1
2  2 1 0 0 1
0

0101000
+24 0 -18 0 *
Ed
 1e-07 1 1 0
1  6 0 0 1
2  3 1 0 0 1
0

0101000
+19 0 -18 0 *
Ed
 1e-07 1 1 0
1  7 0 0 1
2  4 1 0 0 1
0

0101000
+25 0 -19 0 *
Wi

0101000
+15 0 +14 0 -13 0 -12 0 *
Fa
0  1e-07 1 0

0101000
+11 0 *
Sh

0101000
+10 0 *
Ve
1e-07
35 10 0
0 0

0101101
*
Ed
 8.7215649942407e-05 1 1 0
1  4 0 0 1
2  1 1 0 0 1
2  5 2 0 0 1
0

0101000
+25 0 -24 0 *
Ed
 0.000236068158122493 1 1 0
1  5 0 0 1
2  2 1 0 0 1
2  6 2 0 0 1
0

0101000
+24 0 -18 0 *
Ed
 0.000388865752042333 1 1 0
1  6 0 0 1
2  3 1 0 0 1
2  7 2 0 0 1
0

0101000
-18 0 +19 0 *
Ed
 0.000388865752042333 1 1 0
1  7 0 0 1
2  4 1 0 0 1
2  8 2 0 0 1
0

0101000
-19 0 +25 0 *
Wi

0101100
+7 0 +6 0 -5 0 -4 0 *
Fa
0  1e-07 2 0

0111000
+3 0 *
Co

1100000
+23 0 +20 0 +17 0 +16 0 +9 0 +8 0 +2 0 *

+1 0 