<!DOCTYPE svg PUBLIC "-//W3C//DTD SVG 1.1//EN" "http://www.w3.org/Graphics/SVG/1.1/DTD/svg11.dtd">
<svg xmlns="http://www.w3.org/2000/svg" xmlns:xlink="http://www.w3.org/1999/xlink" xmlns:jfreesvg="http://www.jfree.org/jfreesvg/svg" width="1152" height="768" text-rendering="auto" shape-rendering="auto">
<defs><clipPath id="_88687820052503clip-0"><path d="M 0 0 L 1152 0 L 1152 768 L 0 768 L 0 0 Z "/></clipPath>
<clipPath id="_88687820052503clip-1"><path d="M 384.5 345.5 L 384.5 1497.5 L -383.5 1497.5 L -383.5 345.5 L 384.5 345.5 Z "/></clipPath>
<clipPath id="_88687820052503clip-2"><path d="M 64 35 L 64 695 L 1140 695 L 1140 35 Z "/></clipPath>
</defs>
<rect x="0" y="0" width="1152" height="768" style="fill: rgb(255,255,255); fill-opacity: 1.0" transform="matrix(1,0,0,1,0,0)" clip-path="url(#_88687820052503clip-0)"/><g transform="matrix(1,0,0,1,0,0)"><text x="466.5" y="21.01" style="fill: rgb(0,0,0); fill-opacity: 1.0; font-family: Tahoma; font-size: 20px; font-weight: bold;" clip-path="url(#_88687820052503clip-0)">Polar_Curve_Elevator</text></g><rect x="392.5" y="746" width="367" height="21" style="fill: rgb(255,255,255); fill-opacity: 1.0" transform="matrix(1,0,0,1,0,0)" clip-path="url(#_88687820052503clip-0)"/><g style="stroke-width: 3.0;stroke: rgb(0,0,0);stroke-opacity: 1.0;stroke-linecap: square;shape-rendering:geometricPrecision;; fill: none" transform="matrix(1,0,0,1,0,0)" clip-path="url(#_88687820052503clip-0)"><path d="M 395.5 756.5 L 409.5 756.5"/></g><g transform="matrix(1,0,0,1,0,0)"><text x="413.5" y="761.01" style="fill: rgb(64,64,64); fill-opacity: 1.0; font-family: Tahoma; font-size: 12px;" clip-path="url(#_88687820052503clip-0)"> Clean configuration </text></g><g style="stroke-width: 3.0;stroke: rgb(0,0,255);stroke-opacity: 1.0;stroke-linecap: round;stroke-linejoin: round;stroke-dasharray: 10.0, 5.0;shape-rendering:geometricPrecision;; fill: none" transform="matrix(1,0,0,1,0,0)" clip-path="url(#_88687820052503clip-0)"><path d="M 529.5 756.5 L 543.5 756.5"/></g><g transform="matrix(1,0,0,1,0,0)"><text x="547.5" y="761.01" style="fill: rgb(64,64,64); fill-opacity: 1.0; font-family: Tahoma; font-size: 12px;" clip-path="url(#_88687820052503clip-0)"> Configuration with elevator at 5.0 deg </text></g><rect x="64" y="35" width="1076" height="660" style="fill: rgb(255,255,255); fill-opacity: 0.0" transform="matrix(1,0,0,1,0,0)" clip-path="url(#_88687820052503clip-0)"/><line x1="64" y1="699" x2="1140" y2="699" style="stroke-width: 0.5;stroke: rgb(128,128,128);stroke-opacity: 1.0;stroke-linecap: square;shape-rendering:crispEdges;" transform="matrix(1,0,0,1,0,0)" clip-path="url(#_88687820052503clip-0)"/><g transform="matrix(1,0,0,1,0,0)"><text x="50.77" y="715.52" style="fill: rgb(64,64,64); fill-opacity: 1.0; font-family: Tahoma; font-size: 12px;" clip-path="url(#_88687820052503clip-0)">0,0045</text></g><line x1="68.77" y1="701" x2="68.77" y2="699" style="stroke-width: 0.5;stroke: rgb(128,128,128);stroke-opacity: 1.0;stroke-linecap: square;shape-rendering:crispEdges;" transform="matrix(1,0,0,1,0,0)" clip-path="url(#_88687820052503clip-0)"/><g transform="matrix(1,0,0,1,0,0)"><text x="124.37" y="715.52" style="fill: rgb(64,64,64); fill-opacity: 1.0; font-family: Tahoma; font-size: 12px;" clip-path="url(#_88687820052503clip-0)">0,0050</text></g><line x1="142.37" y1="701" x2="142.37" y2="699" style="stroke-width: 0.5;stroke: rgb(128,128,128);stroke-opacity: 1.0;stroke-linecap: square;shape-rendering:crispEdges;" transform="matrix(1,0,0,1,0,0)" clip-path="url(#_88687820052503clip-0)"/><g transform="matrix(1,0,0,1,0,0)"><text x="197.97" y="715.52" style="fill: rgb(64,64,64); fill-opacity: 1.0; font-family: Tahoma; font-size: 12px;" clip-path="url(#_88687820052503clip-0)">0,0055</text></g><line x1="215.97" y1="701" x2="215.97" y2="699" style="stroke-width: 0.5;stroke: rgb(128,128,128);stroke-opacity: 1.0;stroke-linecap: square;shape-rendering:crispEdges;" transform="matrix(1,0,0,1,0,0)" clip-path="url(#_88687820052503clip-0)"/><g transform="matrix(1,0,0,1,0,0)"><text x="271.57" y="715.52" style="fill: rgb(64,64,64); fill-opacity: 1.0; font-family: Tahoma; font-size: 12px;" clip-path="url(#_88687820052503clip-0)">0,0060</text></g><line x1="289.57" y1="701" x2="289.57" y2="699" style="stroke-width: 0.5;stroke: rgb(128,128,128);stroke-opacity: 1.0;stroke-linecap: square;shape-rendering:crispEdges;" transform="matrix(1,0,0,1,0,0)" clip-path="url(#_88687820052503clip-0)"/><g transform="matrix(1,0,0,1,0,0)"><text x="345.16" y="715.52" style="fill: rgb(64,64,64); fill-opacity: 1.0; font-family: Tahoma; font-size: 12px;" clip-path="url(#_88687820052503clip-0)">0,0065</text></g><line x1="363.16" y1="701" x2="363.16" y2="699" style="stroke-width: 0.5;stroke: rgb(128,128,128);stroke-opacity: 1.0;stroke-linecap: square;shape-rendering:crispEdges;" transform="matrix(1,0,0,1,0,0)" clip-path="url(#_88687820052503clip-0)"/><g transform="matrix(1,0,0,1,0,0)"><text x="418.76" y="715.52" style="fill: rgb(64,64,64); fill-opacity: 1.0; font-family: Tahoma; font-size: 12px;" clip-path="url(#_88687820052503clip-0)">0,0070</text></g><line x1="436.76" y1="701" x2="436.76" y2="699" style="stroke-width: 0.5;stroke: rgb(128,128,128);stroke-opacity: 1.0;stroke-linecap: square;shape-rendering:crispEdges;" transform="matrix(1,0,0,1,0,0)" clip-path="url(#_88687820052503clip-0)"/><g transform="matrix(1,0,0,1,0,0)"><text x="492.36" y="715.52" style="fill: rgb(64,64,64); fill-opacity: 1.0; font-family: Tahoma; font-size: 12px;" clip-path="url(#_88687820052503clip-0)">0,0075</text></g><line x1="510.36" y1="701" x2="510.36" y2="699" style="stroke-width: 0.5;stroke: rgb(128,128,128);stroke-opacity: 1.0;stroke-linecap: square;shape-rendering:crispEdges;" transform="matrix(1,0,0,1,0,0)" clip-path="url(#_88687820052503clip-0)"/><g transform="matrix(1,0,0,1,0,0)"><text x="565.96" y="715.52" style="fill: rgb(64,64,64); fill-opacity: 1.0; font-family: Tahoma; font-size: 12px;" clip-path="url(#_88687820052503clip-0)">0,0080</text></g><line x1="583.96" y1="701" x2="583.96" y2="699" style="stroke-width: 0.5;stroke: rgb(128,128,128);stroke-opacity: 1.0;stroke-linecap: square;shape-rendering:crispEdges;" transform="matrix(1,0,0,1,0,0)" clip-path="url(#_88687820052503clip-0)"/><g transform="matrix(1,0,0,1,0,0)"><text x="639.56" y="715.52" style="fill: rgb(64,64,64); fill-opacity: 1.0; font-family: Tahoma; font-size: 12px;" clip-path="url(#_88687820052503clip-0)">0,0085</text></g><line x1="657.56" y1="701" x2="657.56" y2="699" style="stroke-width: 0.5;stroke: rgb(128,128,128);stroke-opacity: 1.0;stroke-linecap: square;shape-rendering:crispEdges;" transform="matrix(1,0,0,1,0,0)" clip-path="url(#_88687820052503clip-0)"/><g transform="matrix(1,0,0,1,0,0)"><text x="713.15" y="715.52" style="fill: rgb(64,64,64); fill-opacity: 1.0; font-family: Tahoma; font-size: 12px;" clip-path="url(#_88687820052503clip-0)">0,0090</text></g><line x1="731.15" y1="701" x2="731.15" y2="699" style="stroke-width: 0.5;stroke: rgb(128,128,128);stroke-opacity: 1.0;stroke-linecap: square;shape-rendering:crispEdges;" transform="matrix(1,0,0,1,0,0)" clip-path="url(#_88687820052503clip-0)"/><g transform="matrix(1,0,0,1,0,0)"><text x="786.75" y="715.52" style="fill: rgb(64,64,64); fill-opacity: 1.0; font-family: Tahoma; font-size: 12px;" clip-path="url(#_88687820052503clip-0)">0,0095</text></g><line x1="804.75" y1="701" x2="804.75" y2="699" style="stroke-width: 0.5;stroke: rgb(128,128,128);stroke-opacity: 1.0;stroke-linecap: square;shape-rendering:crispEdges;" transform="matrix(1,0,0,1,0,0)" clip-path="url(#_88687820052503clip-0)"/><g transform="matrix(1,0,0,1,0,0)"><text x="860.35" y="715.52" style="fill: rgb(64,64,64); fill-opacity: 1.0; font-family: Tahoma; font-size: 12px;" clip-path="url(#_88687820052503clip-0)">0,0100</text></g><line x1="878.35" y1="701" x2="878.35" y2="699" style="stroke-width: 0.5;stroke: rgb(128,128,128);stroke-opacity: 1.0;stroke-linecap: square;shape-rendering:crispEdges;" transform="matrix(1,0,0,1,0,0)" clip-path="url(#_88687820052503clip-0)"/><g transform="matrix(1,0,0,1,0,0)"><text x="933.95" y="715.52" style="fill: rgb(64,64,64); fill-opacity: 1.0; font-family: Tahoma; font-size: 12px;" clip-path="url(#_88687820052503clip-0)">0,0105</text></g><line x1="951.95" y1="701" x2="951.95" y2="699" style="stroke-width: 0.5;stroke: rgb(128,128,128);stroke-opacity: 1.0;stroke-linecap: square;shape-rendering:crispEdges;" transform="matrix(1,0,0,1,0,0)" clip-path="url(#_88687820052503clip-0)"/><g transform="matrix(1,0,0,1,0,0)"><text x="1007.55" y="715.52" style="fill: rgb(64,64,64); fill-opacity: 1.0; font-family: Tahoma; font-size: 12px;" clip-path="url(#_88687820052503clip-0)">0,0110</text></g><line x1="1025.55" y1="701" x2="1025.55" y2="699" style="stroke-width: 0.5;stroke: rgb(128,128,128);stroke-opacity: 1.0;stroke-linecap: square;shape-rendering:crispEdges;" transform="matrix(1,0,0,1,0,0)" clip-path="url(#_88687820052503clip-0)"/><g transform="matrix(1,0,0,1,0,0)"><text x="1081.14" y="715.52" style="fill: rgb(64,64,64); fill-opacity: 1.0; font-family: Tahoma; font-size: 12px;" clip-path="url(#_88687820052503clip-0)">0,0115</text></g><line x1="1099.14" y1="701" x2="1099.14" y2="699" style="stroke-width: 0.5;stroke: rgb(128,128,128);stroke-opacity: 1.0;stroke-linecap: square;shape-rendering:crispEdges;" transform="matrix(1,0,0,1,0,0)" clip-path="url(#_88687820052503clip-0)"/><g transform="matrix(1,0,0,1,0,0)"><text x="570.5" y="734.59" style="fill: rgb(64,64,64); fill-opacity: 1.0; font-family: Tahoma; font-size: 14px; font-weight: bold;" clip-path="url(#_88687820052503clip-0)">CD (deg)</text></g><line x1="60" y1="35" x2="60" y2="695" style="stroke-width: 0.5;stroke: rgb(128,128,128);stroke-opacity: 1.0;stroke-linecap: square;shape-rendering:crispEdges;" transform="matrix(1,0,0,1,0,0)" clip-path="url(#_88687820052503clip-0)"/><g transform="matrix(1,0,0,1,0,0)"><text x="33" y="689.84" style="fill: rgb(64,64,64); fill-opacity: 1.0; font-family: Tahoma; font-size: 12px;" clip-path="url(#_88687820052503clip-0)">-0,6</text></g><line x1="58" y1="684.82" x2="60" y2="684.82" style="stroke-width: 0.5;stroke: rgb(128,128,128);stroke-opacity: 1.0;stroke-linecap: square;shape-rendering:crispEdges;" transform="matrix(1,0,0,1,0,0)" clip-path="url(#_88687820052503clip-0)"/><g transform="matrix(1,0,0,1,0,0)"><text x="33" y="658.91" style="fill: rgb(64,64,64); fill-opacity: 1.0; font-family: Tahoma; font-size: 12px;" clip-path="url(#_88687820052503clip-0)">-0,5</text></g><line x1="58" y1="653.89" x2="60" y2="653.89" style="stroke-width: 0.5;stroke: rgb(128,128,128);stroke-opacity: 1.0;stroke-linecap: square;shape-rendering:crispEdges;" transform="matrix(1,0,0,1,0,0)" clip-path="url(#_88687820052503clip-0)"/><g transform="matrix(1,0,0,1,0,0)"><text x="33" y="627.98" style="fill: rgb(64,64,64); fill-opacity: 1.0; font-family: Tahoma; font-size: 12px;" clip-path="url(#_88687820052503clip-0)">-0,4</text></g><line x1="58" y1="622.96" x2="60" y2="622.96" style="stroke-width: 0.5;stroke: rgb(128,128,128);stroke-opacity: 1.0;stroke-linecap: square;shape-rendering:crispEdges;" transform="matrix(1,0,0,1,0,0)" clip-path="url(#_88687820052503clip-0)"/><g transform="matrix(1,0,0,1,0,0)"><text x="33" y="597.06" style="fill: rgb(64,64,64); fill-opacity: 1.0; font-family: Tahoma; font-size: 12px;" clip-path="url(#_88687820052503clip-0)">-0,3</text></g><line x1="58" y1="592.04" x2="60" y2="592.04" style="stroke-width: 0.5;stroke: rgb(128,128,128);stroke-opacity: 1.0;stroke-linecap: square;shape-rendering:crispEdges;" transform="matrix(1,0,0,1,0,0)" clip-path="url(#_88687820052503clip-0)"/><g transform="matrix(1,0,0,1,0,0)"><text x="33" y="566.13" style="fill: rgb(64,64,64); fill-opacity: 1.0; font-family: Tahoma; font-size: 12px;" clip-path="url(#_88687820052503clip-0)">-0,2</text></g><line x1="58" y1="561.11" x2="60" y2="561.11" style="stroke-width: 0.5;stroke: rgb(128,128,128);stroke-opacity: 1.0;stroke-linecap: square;shape-rendering:crispEdges;" transform="matrix(1,0,0,1,0,0)" clip-path="url(#_88687820052503clip-0)"/><g transform="matrix(1,0,0,1,0,0)"><text x="33" y="535.21" style="fill: rgb(64,64,64); fill-opacity: 1.0; font-family: Tahoma; font-size: 12px;" clip-path="url(#_88687820052503clip-0)">-0,1</text></g><line x1="58" y1="530.19" x2="60" y2="530.19" style="stroke-width: 0.5;stroke: rgb(128,128,128);stroke-opacity: 1.0;stroke-linecap: square;shape-rendering:crispEdges;" transform="matrix(1,0,0,1,0,0)" clip-path="url(#_88687820052503clip-0)"/><g transform="matrix(1,0,0,1,0,0)"><text x="37" y="504.28" style="fill: rgb(64,64,64); fill-opacity: 1.0; font-family: Tahoma; font-size: 12px;" clip-path="url(#_88687820052503clip-0)">0,0</text></g><line x1="58" y1="499.26" x2="60" y2="499.26" style="stroke-width: 0.5;stroke: rgb(128,128,128);stroke-opacity: 1.0;stroke-linecap: square;shape-rendering:crispEdges;" transform="matrix(1,0,0,1,0,0)" clip-path="url(#_88687820052503clip-0)"/><g transform="matrix(1,0,0,1,0,0)"><text x="37" y="473.36" style="fill: rgb(64,64,64); fill-opacity: 1.0; font-family: Tahoma; font-size: 12px;" clip-path="url(#_88687820052503clip-0)">0,1</text></g><line x1="58" y1="468.33" x2="60" y2="468.33" style="stroke-width: 0.5;stroke: rgb(128,128,128);stroke-opacity: 1.0;stroke-linecap: square;shape-rendering:crispEdges;" transform="matrix(1,0,0,1,0,0)" clip-path="url(#_88687820052503clip-0)"/><g transform="matrix(1,0,0,1,0,0)"><text x="37" y="442.43" style="fill: rgb(64,64,64); fill-opacity: 1.0; font-family: Tahoma; font-size: 12px;" clip-path="url(#_88687820052503clip-0)">0,2</text></g><line x1="58" y1="437.41" x2="60" y2="437.41" style="stroke-width: 0.5;stroke: rgb(128,128,128);stroke-opacity: 1.0;stroke-linecap: square;shape-rendering:crispEdges;" transform="matrix(1,0,0,1,0,0)" clip-path="url(#_88687820052503clip-0)"/><g transform="matrix(1,0,0,1,0,0)"><text x="37" y="411.5" style="fill: rgb(64,64,64); fill-opacity: 1.0; font-family: Tahoma; font-size: 12px;" clip-path="url(#_88687820052503clip-0)">0,3</text></g><line x1="58" y1="406.48" x2="60" y2="406.48" style="stroke-width: 0.5;stroke: rgb(128,128,128);stroke-opacity: 1.0;stroke-linecap: square;shape-rendering:crispEdges;" transform="matrix(1,0,0,1,0,0)" clip-path="url(#_88687820052503clip-0)"/><g transform="matrix(1,0,0,1,0,0)"><text x="37" y="380.58" style="fill: rgb(64,64,64); fill-opacity: 1.0; font-family: Tahoma; font-size: 12px;" clip-path="url(#_88687820052503clip-0)">0,4</text></g><line x1="58" y1="375.56" x2="60" y2="375.56" style="stroke-width: 0.5;stroke: rgb(128,128,128);stroke-opacity: 1.0;stroke-linecap: square;shape-rendering:crispEdges;" transform="matrix(1,0,0,1,0,0)" clip-path="url(#_88687820052503clip-0)"/><g transform="matrix(1,0,0,1,0,0)"><text x="37" y="349.65" style="fill: rgb(64,64,64); fill-opacity: 1.0; font-family: Tahoma; font-size: 12px;" clip-path="url(#_88687820052503clip-0)">0,5</text></g><line x1="58" y1="344.63" x2="60" y2="344.63" style="stroke-width: 0.5;stroke: rgb(128,128,128);stroke-opacity: 1.0;stroke-linecap: square;shape-rendering:crispEdges;" transform="matrix(1,0,0,1,0,0)" clip-path="url(#_88687820052503clip-0)"/><g transform="matrix(1,0,0,1,0,0)"><text x="37" y="318.73" style="fill: rgb(64,64,64); fill-opacity: 1.0; font-family: Tahoma; font-size: 12px;" clip-path="url(#_88687820052503clip-0)">0,6</text></g><line x1="58" y1="313.7" x2="60" y2="313.7" style="stroke-width: 0.5;stroke: rgb(128,128,128);stroke-opacity: 1.0;stroke-linecap: square;shape-rendering:crispEdges;" transform="matrix(1,0,0,1,0,0)" clip-path="url(#_88687820052503clip-0)"/><g transform="matrix(1,0,0,1,0,0)"><text x="37" y="287.8" style="fill: rgb(64,64,64); fill-opacity: 1.0; font-family: Tahoma; font-size: 12px;" clip-path="url(#_88687820052503clip-0)">0,7</text></g><line x1="58" y1="282.78" x2="60" y2="282.78" style="stroke-width: 0.5;stroke: rgb(128,128,128);stroke-opacity: 1.0;stroke-linecap: square;shape-rendering:crispEdges;" transform="matrix(1,0,0,1,0,0)" clip-path="url(#_88687820052503clip-0)"/><g transform="matrix(1,0,0,1,0,0)"><text x="37" y="256.87" style="fill: rgb(64,64,64); fill-opacity: 1.0; font-family: Tahoma; font-size: 12px;" clip-path="url(#_88687820052503clip-0)">0,8</text></g><line x1="58" y1="251.85" x2="60" y2="251.85" style="stroke-width: 0.5;stroke: rgb(128,128,128);stroke-opacity: 1.0;stroke-linecap: square;shape-rendering:crispEdges;" transform="matrix(1,0,0,1,0,0)" clip-path="url(#_88687820052503clip-0)"/><g transform="matrix(1,0,0,1,0,0)"><text x="37" y="225.95" style="fill: rgb(64,64,64); fill-opacity: 1.0; font-family: Tahoma; font-size: 12px;" clip-path="url(#_88687820052503clip-0)">0,9</text></g><line x1="58" y1="220.93" x2="60" y2="220.93" style="stroke-width: 0.5;stroke: rgb(128,128,128);stroke-opacity: 1.0;stroke-linecap: square;shape-rendering:crispEdges;" transform="matrix(1,0,0,1,0,0)" clip-path="url(#_88687820052503clip-0)"/><g transform="matrix(1,0,0,1,0,0)"><text x="37" y="195.02" style="fill: rgb(64,64,64); fill-opacity: 1.0; font-family: Tahoma; font-size: 12px;" clip-path="url(#_88687820052503clip-0)">1,0</text></g><line x1="58" y1="190" x2="60" y2="190" style="stroke-width: 0.5;stroke: rgb(128,128,128);stroke-opacity: 1.0;stroke-linecap: square;shape-rendering:crispEdges;" transform="matrix(1,0,0,1,0,0)" clip-path="url(#_88687820052503clip-0)"/><g transform="matrix(1,0,0,1,0,0)"><text x="37" y="164.1" style="fill: rgb(64,64,64); fill-opacity: 1.0; font-family: Tahoma; font-size: 12px;" clip-path="url(#_88687820052503clip-0)">1,1</text></g><line x1="58" y1="159.07" x2="60" y2="159.07" style="stroke-width: 0.5;stroke: rgb(128,128,128);stroke-opacity: 1.0;stroke-linecap: square;shape-rendering:crispEdges;" transform="matrix(1,0,0,1,0,0)" clip-path="url(#_88687820052503clip-0)"/><g transform="matrix(1,0,0,1,0,0)"><text x="37" y="133.17" style="fill: rgb(64,64,64); fill-opacity: 1.0; font-family: Tahoma; font-size: 12px;" clip-path="url(#_88687820052503clip-0)">1,2</text></g><line x1="58" y1="128.15" x2="60" y2="128.15" style="stroke-width: 0.5;stroke: rgb(128,128,128);stroke-opacity: 1.0;stroke-linecap: square;shape-rendering:crispEdges;" transform="matrix(1,0,0,1,0,0)" clip-path="url(#_88687820052503clip-0)"/><g transform="matrix(1,0,0,1,0,0)"><text x="37" y="102.24" style="fill: rgb(64,64,64); fill-opacity: 1.0; font-family: Tahoma; font-size: 12px;" clip-path="url(#_88687820052503clip-0)">1,3</text></g><line x1="58" y1="97.22" x2="60" y2="97.22" style="stroke-width: 0.5;stroke: rgb(128,128,128);stroke-opacity: 1.0;stroke-linecap: square;shape-rendering:crispEdges;" transform="matrix(1,0,0,1,0,0)" clip-path="url(#_88687820052503clip-0)"/><g transform="matrix(1,0,0,1,0,0)"><text x="37" y="71.32" style="fill: rgb(64,64,64); fill-opacity: 1.0; font-family: Tahoma; font-size: 12px;" clip-path="url(#_88687820052503clip-0)">1,4</text></g><line x1="58" y1="66.3" x2="60" y2="66.3" style="stroke-width: 0.5;stroke: rgb(128,128,128);stroke-opacity: 1.0;stroke-linecap: square;shape-rendering:crispEdges;" transform="matrix(1,0,0,1,0,0)" clip-path="url(#_88687820052503clip-0)"/><g transform="matrix(1,0,0,1,0,0)"><text x="37" y="40.39" style="fill: rgb(64,64,64); fill-opacity: 1.0; font-family: Tahoma; font-size: 12px;" clip-path="url(#_88687820052503clip-0)">1,5</text></g><line x1="58" y1="35.37" x2="60" y2="35.37" style="stroke-width: 0.5;stroke: rgb(128,128,128);stroke-opacity: 1.0;stroke-linecap: square;shape-rendering:crispEdges;" transform="matrix(1,0,0,1,0,0)" clip-path="url(#_88687820052503clip-0)"/><g style="fill: rgb(64,64,64); fill-opacity: 1.0; stroke: none" transform="matrix(0,-1,1,0,-345.5,384.5)" clip-path="url(#_88687820052503clip-1)"><path d="M 14.44 370.81 Q 12.16 370.81 10.8 369.42 Q 9.45 368.03 9.45 365.53 Q 9.45 363.11 10.8 361.67 Q 12.16 360.23 14.45 360.23 Q 15.06 360.23 15.55 360.3 Q 16.03 360.37 16.47 360.48 Q 16.83 360.59 17.23 360.77 Q 17.64 360.95 17.89 361.08 L 17.89 363.5 L 17.64 363.5 Q 17.45 363.34 17.17 363.12 Q 16.89 362.89 16.53 362.67 Q 16.17 362.45 15.75 362.3 Q 15.33 362.14 14.86 362.14 Q 14.31 362.14 13.84 362.31 Q 13.38 362.48 12.97 362.92 Q 12.58 363.31 12.34 363.98 Q 12.09 364.64 12.09 365.53 Q 12.09 366.48 12.35 367.13 Q 12.61 367.78 13.02 368.17 Q 13.41 368.56 13.9 368.73 Q 14.39 368.91 14.88 368.91 Q 15.38 368.91 15.84 368.73 Q 16.3 368.56 16.61 368.36 Q 16.95 368.14 17.21 367.92 Q 17.47 367.7 17.66 367.55 L 17.89 367.55 L 17.89 369.94 Q 17.61 370.06 17.24 370.23 Q 16.88 370.39 16.48 370.51 Q 16 370.66 15.59 370.73 Q 15.17 370.81 14.44 370.81 Z  M 26.19 370.61 L 19.39 370.61 L 19.39 360.44 L 21.95 360.44 L 21.95 368.67 L 26.19 368.67 L 26.19 370.61 Z "/></g><line x1="68.77" y1="35" x2="68.77" y2="695" style="stroke-width: 0.5;stroke: rgb(192,192,192);stroke-opacity: 1.0;stroke-linejoin: bevel;stroke-dasharray: 2.0, 2.0;shape-rendering:crispEdges;" transform="matrix(1,0,0,1,0,0)" clip-path="url(#_88687820052503clip-2)"/><line x1="142.37" y1="35" x2="142.37" y2="695" style="stroke-width: 0.5;stroke: rgb(192,192,192);stroke-opacity: 1.0;stroke-linejoin: bevel;stroke-dasharray: 2.0, 2.0;shape-rendering:crispEdges;" transform="matrix(1,0,0,1,0,0)" clip-path="url(#_88687820052503clip-2)"/><line x1="215.97" y1="35" x2="215.97" y2="695" style="stroke-width: 0.5;stroke: rgb(192,192,192);stroke-opacity: 1.0;stroke-linejoin: bevel;stroke-dasharray: 2.0, 2.0;shape-rendering:crispEdges;" transform="matrix(1,0,0,1,0,0)" clip-path="url(#_88687820052503clip-2)"/><line x1="289.57" y1="35" x2="289.57" y2="695" style="stroke-width: 0.5;stroke: rgb(192,192,192);stroke-opacity: 1.0;stroke-linejoin: bevel;stroke-dasharray: 2.0, 2.0;shape-rendering:crispEdges;" transform="matrix(1,0,0,1,0,0)" clip-path="url(#_88687820052503clip-2)"/><line x1="363.16" y1="35" x2="363.16" y2="695" style="stroke-width: 0.5;stroke: rgb(192,192,192);stroke-opacity: 1.0;stroke-linejoin: bevel;stroke-dasharray: 2.0, 2.0;shape-rendering:crispEdges;" transform="matrix(1,0,0,1,0,0)" clip-path="url(#_88687820052503clip-2)"/><line x1="436.76" y1="35" x2="436.76" y2="695" style="stroke-width: 0.5;stroke: rgb(192,192,192);stroke-opacity: 1.0;stroke-linejoin: bevel;stroke-dasharray: 2.0, 2.0;shape-rendering:crispEdges;" transform="matrix(1,0,0,1,0,0)" clip-path="url(#_88687820052503clip-2)"/><line x1="510.36" y1="35" x2="510.36" y2="695" style="stroke-width: 0.5;stroke: rgb(192,192,192);stroke-opacity: 1.0;stroke-linejoin: bevel;stroke-dasharray: 2.0, 2.0;shape-rendering:crispEdges;" transform="matrix(1,0,0,1,0,0)" clip-path="url(#_88687820052503clip-2)"/><line x1="583.96" y1="35" x2="583.96" y2="695" style="stroke-width: 0.5;stroke: rgb(192,192,192);stroke-opacity: 1.0;stroke-linejoin: bevel;stroke-dasharray: 2.0, 2.0;shape-rendering:crispEdges;" transform="matrix(1,0,0,1,0,0)" clip-path="url(#_88687820052503clip-2)"/><line x1="657.56" y1="35" x2="657.56" y2="695" style="stroke-width: 0.5;stroke: rgb(192,192,192);stroke-opacity: 1.0;stroke-linejoin: bevel;stroke-dasharray: 2.0, 2.0;shape-rendering:crispEdges;" transform="matrix(1,0,0,1,0,0)" clip-path="url(#_88687820052503clip-2)"/><line x1="731.15" y1="35" x2="731.15" y2="695" style="stroke-width: 0.5;stroke: rgb(192,192,192);stroke-opacity: 1.0;stroke-linejoin: bevel;stroke-dasharray: 2.0, 2.0;shape-rendering:crispEdges;" transform="matrix(1,0,0,1,0,0)" clip-path="url(#_88687820052503clip-2)"/><line x1="804.75" y1="35" x2="804.75" y2="695" style="stroke-width: 0.5;stroke: rgb(192,192,192);stroke-opacity: 1.0;stroke-linejoin: bevel;stroke-dasharray: 2.0, 2.0;shape-rendering:crispEdges;" transform="matrix(1,0,0,1,0,0)" clip-path="url(#_88687820052503clip-2)"/><line x1="878.35" y1="35" x2="878.35" y2="695" style="stroke-width: 0.5;stroke: rgb(192,192,192);stroke-opacity: 1.0;stroke-linejoin: bevel;stroke-dasharray: 2.0, 2.0;shape-rendering:crispEdges;" transform="matrix(1,0,0,1,0,0)" clip-path="url(#_88687820052503clip-2)"/><line x1="951.95" y1="35" x2="951.95" y2="695" style="stroke-width: 0.5;stroke: rgb(192,192,192);stroke-opacity: 1.0;stroke-linejoin: bevel;stroke-dasharray: 2.0, 2.0;shape-rendering:crispEdges;" transform="matrix(1,0,0,1,0,0)" clip-path="url(#_88687820052503clip-2)"/><line x1="1025.55" y1="35" x2="1025.55" y2="695" style="stroke-width: 0.5;stroke: rgb(192,192,192);stroke-opacity: 1.0;stroke-linejoin: bevel;stroke-dasharray: 2.0, 2.0;shape-rendering:crispEdges;" transform="matrix(1,0,0,1,0,0)" clip-path="url(#_88687820052503clip-2)"/><line x1="1099.14" y1="35" x2="1099.14" y2="695" style="stroke-width: 0.5;stroke: rgb(192,192,192);stroke-opacity: 1.0;stroke-linejoin: bevel;stroke-dasharray: 2.0, 2.0;shape-rendering:crispEdges;" transform="matrix(1,0,0,1,0,0)" clip-path="url(#_88687820052503clip-2)"/><line x1="64" y1="684.82" x2="1140" y2="684.82" style="stroke-width: 0.5;stroke: rgb(192,192,192);stroke-opacity: 1.0;stroke-linejoin: bevel;stroke-dasharray: 2.0, 2.0;shape-rendering:crispEdges;" transform="matrix(1,0,0,1,0,0)" clip-path="url(#_88687820052503clip-2)"/><line x1="64" y1="653.89" x2="1140" y2="653.89" style="stroke-width: 0.5;stroke: rgb(192,192,192);stroke-opacity: 1.0;stroke-linejoin: bevel;stroke-dasharray: 2.0, 2.0;shape-rendering:crispEdges;" transform="matrix(1,0,0,1,0,0)" clip-path="url(#_88687820052503clip-2)"/><line x1="64" y1="622.96" x2="1140" y2="622.96" style="stroke-width: 0.5;stroke: rgb(192,192,192);stroke-opacity: 1.0;stroke-linejoin: bevel;stroke-dasharray: 2.0, 2.0;shape-rendering:crispEdges;" transform="matrix(1,0,0,1,0,0)" clip-path="url(#_88687820052503clip-2)"/><line x1="64" y1="592.04" x2="1140" y2="592.04" style="stroke-width: 0.5;stroke: rgb(192,192,192);stroke-opacity: 1.0;stroke-linejoin: bevel;stroke-dasharray: 2.0, 2.0;shape-rendering:crispEdges;" transform="matrix(1,0,0,1,0,0)" clip-path="url(#_88687820052503clip-2)"/><line x1="64" y1="561.11" x2="1140" y2="561.11" style="stroke-width: 0.5;stroke: rgb(192,192,192);stroke-opacity: 1.0;stroke-linejoin: bevel;stroke-dasharray: 2.0, 2.0;shape-rendering:crispEdges;" transform="matrix(1,0,0,1,0,0)" clip-path="url(#_88687820052503clip-2)"/><line x1="64" y1="530.19" x2="1140" y2="530.19" style="stroke-width: 0.5;stroke: rgb(192,192,192);stroke-opacity: 1.0;stroke-linejoin: bevel;stroke-dasharray: 2.0, 2.0;shape-rendering:crispEdges;" transform="matrix(1,0,0,1,0,0)" clip-path="url(#_88687820052503clip-2)"/><line x1="64" y1="499.26" x2="1140" y2="499.26" style="stroke-width: 0.5;stroke: rgb(192,192,192);stroke-opacity: 1.0;stroke-linejoin: bevel;stroke-dasharray: 2.0, 2.0;shape-rendering:crispEdges;" transform="matrix(1,0,0,1,0,0)" clip-path="url(#_88687820052503clip-2)"/><line x1="64" y1="468.33" x2="1140" y2="468.33" style="stroke-width: 0.5;stroke: rgb(192,192,192);stroke-opacity: 1.0;stroke-linejoin: bevel;stroke-dasharray: 2.0, 2.0;shape-rendering:crispEdges;" transform="matrix(1,0,0,1,0,0)" clip-path="url(#_88687820052503clip-2)"/><line x1="64" y1="437.41" x2="1140" y2="437.41" style="stroke-width: 0.5;stroke: rgb(192,192,192);stroke-opacity: 1.0;stroke-linejoin: bevel;stroke-dasharray: 2.0, 2.0;shape-rendering:crispEdges;" transform="matrix(1,0,0,1,0,0)" clip-path="url(#_88687820052503clip-2)"/><line x1="64" y1="406.48" x2="1140" y2="406.48" style="stroke-width: 0.5;stroke: rgb(192,192,192);stroke-opacity: 1.0;stroke-linejoin: bevel;stroke-dasharray: 2.0, 2.0;shape-rendering:crispEdges;" transform="matrix(1,0,0,1,0,0)" clip-path="url(#_88687820052503clip-2)"/><line x1="64" y1="375.56" x2="1140" y2="375.56" style="stroke-width: 0.5;stroke: rgb(192,192,192);stroke-opacity: 1.0;stroke-linejoin: bevel;stroke-dasharray: 2.0, 2.0;shape-rendering:crispEdges;" transform="matrix(1,0,0,1,0,0)" clip-path="url(#_88687820052503clip-2)"/><line x1="64" y1="344.63" x2="1140" y2="344.63" style="stroke-width: 0.5;stroke: rgb(192,192,192);stroke-opacity: 1.0;stroke-linejoin: bevel;stroke-dasharray: 2.0, 2.0;shape-rendering:crispEdges;" transform="matrix(1,0,0,1,0,0)" clip-path="url(#_88687820052503clip-2)"/><line x1="64" y1="313.7" x2="1140" y2="313.7" style="stroke-width: 0.5;stroke: rgb(192,192,192);stroke-opacity: 1.0;stroke-linejoin: bevel;stroke-dasharray: 2.0, 2.0;shape-rendering:crispEdges;" transform="matrix(1,0,0,1,0,0)" clip-path="url(#_88687820052503clip-2)"/><line x1="64" y1="282.78" x2="1140" y2="282.78" style="stroke-width: 0.5;stroke: rgb(192,192,192);stroke-opacity: 1.0;stroke-linejoin: bevel;stroke-dasharray: 2.0, 2.0;shape-rendering:crispEdges;" transform="matrix(1,0,0,1,0,0)" clip-path="url(#_88687820052503clip-2)"/><line x1="64" y1="251.85" x2="1140" y2="251.85" style="stroke-width: 0.5;stroke: rgb(192,192,192);stroke-opacity: 1.0;stroke-linejoin: bevel;stroke-dasharray: 2.0, 2.0;shape-rendering:crispEdges;" transform="matrix(1,0,0,1,0,0)" clip-path="url(#_88687820052503clip-2)"/><line x1="64" y1="220.93" x2="1140" y2="220.93" style="stroke-width: 0.5;stroke: rgb(192,192,192);stroke-opacity: 1.0;stroke-linejoin: bevel;stroke-dasharray: 2.0, 2.0;shape-rendering:crispEdges;" transform="matrix(1,0,0,1,0,0)" clip-path="url(#_88687820052503clip-2)"/><line x1="64" y1="190" x2="1140" y2="190" style="stroke-width: 0.5;stroke: rgb(192,192,192);stroke-opacity: 1.0;stroke-linejoin: bevel;stroke-dasharray: 2.0, 2.0;shape-rendering:crispEdges;" transform="matrix(1,0,0,1,0,0)" clip-path="url(#_88687820052503clip-2)"/><line x1="64" y1="159.07" x2="1140" y2="159.07" style="stroke-width: 0.5;stroke: rgb(192,192,192);stroke-opacity: 1.0;stroke-linejoin: bevel;stroke-dasharray: 2.0, 2.0;shape-rendering:crispEdges;" transform="matrix(1,0,0,1,0,0)" clip-path="url(#_88687820052503clip-2)"/><line x1="64" y1="128.15" x2="1140" y2="128.15" style="stroke-width: 0.5;stroke: rgb(192,192,192);stroke-opacity: 1.0;stroke-linejoin: bevel;stroke-dasharray: 2.0, 2.0;shape-rendering:crispEdges;" transform="matrix(1,0,0,1,0,0)" clip-path="url(#_88687820052503clip-2)"/><line x1="64" y1="97.22" x2="1140" y2="97.22" style="stroke-width: 0.5;stroke: rgb(192,192,192);stroke-opacity: 1.0;stroke-linejoin: bevel;stroke-dasharray: 2.0, 2.0;shape-rendering:crispEdges;" transform="matrix(1,0,0,1,0,0)" clip-path="url(#_88687820052503clip-2)"/><line x1="64" y1="66.3" x2="1140" y2="66.3" style="stroke-width: 0.5;stroke: rgb(192,192,192);stroke-opacity: 1.0;stroke-linejoin: bevel;stroke-dasharray: 2.0, 2.0;shape-rendering:crispEdges;" transform="matrix(1,0,0,1,0,0)" clip-path="url(#_88687820052503clip-2)"/><line x1="64" y1="35.37" x2="1140" y2="35.37" style="stroke-width: 0.5;stroke: rgb(192,192,192);stroke-opacity: 1.0;stroke-linejoin: bevel;stroke-dasharray: 2.0, 2.0;shape-rendering:crispEdges;" transform="matrix(1,0,0,1,0,0)" clip-path="url(#_88687820052503clip-2)"/><line x1="409.48" y1="596.73" x2="383.72" y2="580.65" style="stroke-width: 3.0;stroke: rgb(0,0,255);stroke-opacity: 1.0;stroke-linecap: round;stroke-linejoin: round;stroke-dasharray: 10.0, 5.0;shape-rendering:geometricPrecision;" transform="matrix(1,0,0,1,0,0)" clip-path="url(#_88687820052503clip-2)"/><line x1="383.72" y1="580.65" x2="360.34" y2="564.56" style="stroke-width: 3.0;stroke: rgb(0,0,255);stroke-opacity: 1.0;stroke-linecap: round;stroke-linejoin: round;stroke-dasharray: 10.0, 5.0;shape-rendering:geometricPrecision;" transform="matrix(1,0,0,1,0,0)" clip-path="url(#_88687820052503clip-2)"/><line x1="360.34" y1="564.56" x2="340.31" y2="548.47" style="stroke-width: 3.0;stroke: rgb(0,0,255);stroke-opacity: 1.0;stroke-linecap: round;stroke-linejoin: round;stroke-dasharray: 10.0, 5.0;shape-rendering:geometricPrecision;" transform="matrix(1,0,0,1,0,0)" clip-path="url(#_88687820052503clip-2)"/><line x1="340.31" y1="548.47" x2="322.14" y2="532.39" style="stroke-width: 3.0;stroke: rgb(0,0,255);stroke-opacity: 1.0;stroke-linecap: round;stroke-linejoin: round;stroke-dasharray: 10.0, 5.0;shape-rendering:geometricPrecision;" transform="matrix(1,0,0,1,0,0)" clip-path="url(#_88687820052503clip-2)"/><line x1="322.14" y1="532.39" x2="308.63" y2="516.3" style="stroke-width: 3.0;stroke: rgb(0,0,255);stroke-opacity: 1.0;stroke-linecap: round;stroke-linejoin: round;stroke-dasharray: 10.0, 5.0;shape-rendering:geometricPrecision;" transform="matrix(1,0,0,1,0,0)" clip-path="url(#_88687820052503clip-2)"/><line x1="308.63" y1="516.3" x2="296.69" y2="500.22" style="stroke-width: 3.0;stroke: rgb(0,0,255);stroke-opacity: 1.0;stroke-linecap: round;stroke-linejoin: round;stroke-dasharray: 10.0, 5.0;shape-rendering:geometricPrecision;" transform="matrix(1,0,0,1,0,0)" clip-path="url(#_88687820052503clip-2)"/><line x1="296.69" y1="500.22" x2="289.24" y2="484.31" style="stroke-width: 3.0;stroke: rgb(0,0,255);stroke-opacity: 1.0;stroke-linecap: round;stroke-linejoin: round;stroke-dasharray: 10.0, 5.0;shape-rendering:geometricPrecision;" transform="matrix(1,0,0,1,0,0)" clip-path="url(#_88687820052503clip-2)"/><line x1="289.24" y1="484.31" x2="283.27" y2="468.04" style="stroke-width: 3.0;stroke: rgb(0,0,255);stroke-opacity: 1.0;stroke-linecap: round;stroke-linejoin: round;stroke-dasharray: 10.0, 5.0;shape-rendering:geometricPrecision;" transform="matrix(1,0,0,1,0,0)" clip-path="url(#_88687820052503clip-2)"/><line x1="283.27" y1="468.04" x2="280.73" y2="451.96" style="stroke-width: 3.0;stroke: rgb(0,0,255);stroke-opacity: 1.0;stroke-linecap: round;stroke-linejoin: round;stroke-dasharray: 10.0, 5.0;shape-rendering:geometricPrecision;" transform="matrix(1,0,0,1,0,0)" clip-path="url(#_88687820052503clip-2)"/><line x1="280.73" y1="451.96" x2="280.48" y2="436.04" style="stroke-width: 3.0;stroke: rgb(0,0,255);stroke-opacity: 1.0;stroke-linecap: round;stroke-linejoin: round;stroke-dasharray: 10.0, 5.0;shape-rendering:geometricPrecision;" transform="matrix(1,0,0,1,0,0)" clip-path="url(#_88687820052503clip-2)"/><line x1="280.48" y1="436.04" x2="282.96" y2="420.3" style="stroke-width: 3.0;stroke: rgb(0,0,255);stroke-opacity: 1.0;stroke-linecap: round;stroke-linejoin: round;stroke-dasharray: 10.0, 5.0;shape-rendering:geometricPrecision;" transform="matrix(1,0,0,1,0,0)" clip-path="url(#_88687820052503clip-2)"/><line x1="282.96" y1="420.3" x2="288.02" y2="404.73" style="stroke-width: 3.0;stroke: rgb(0,0,255);stroke-opacity: 1.0;stroke-linecap: round;stroke-linejoin: round;stroke-dasharray: 10.0, 5.0;shape-rendering:geometricPrecision;" transform="matrix(1,0,0,1,0,0)" clip-path="url(#_88687820052503clip-2)"/><line x1="288.02" y1="404.73" x2="295.19" y2="389.33" style="stroke-width: 3.0;stroke: rgb(0,0,255);stroke-opacity: 1.0;stroke-linecap: round;stroke-linejoin: round;stroke-dasharray: 10.0, 5.0;shape-rendering:geometricPrecision;" transform="matrix(1,0,0,1,0,0)" clip-path="url(#_88687820052503clip-2)"/><line x1="295.19" y1="389.33" x2="305.48" y2="374.09" style="stroke-width: 3.0;stroke: rgb(0,0,255);stroke-opacity: 1.0;stroke-linecap: round;stroke-linejoin: round;stroke-dasharray: 10.0, 5.0;shape-rendering:geometricPrecision;" transform="matrix(1,0,0,1,0,0)" clip-path="url(#_88687820052503clip-2)"/><line x1="305.48" y1="374.09" x2="317.48" y2="359.01" style="stroke-width: 3.0;stroke: rgb(0,0,255);stroke-opacity: 1.0;stroke-linecap: round;stroke-linejoin: round;stroke-dasharray: 10.0, 5.0;shape-rendering:geometricPrecision;" transform="matrix(1,0,0,1,0,0)" clip-path="url(#_88687820052503clip-2)"/><line x1="317.48" y1="359.01" x2="333.16" y2="344.09" style="stroke-width: 3.0;stroke: rgb(0,0,255);stroke-opacity: 1.0;stroke-linecap: round;stroke-linejoin: round;stroke-dasharray: 10.0, 5.0;shape-rendering:geometricPrecision;" transform="matrix(1,0,0,1,0,0)" clip-path="url(#_88687820052503clip-2)"/><line x1="333.16" y1="344.09" x2="350.37" y2="329.32" style="stroke-width: 3.0;stroke: rgb(0,0,255);stroke-opacity: 1.0;stroke-linecap: round;stroke-linejoin: round;stroke-dasharray: 10.0, 5.0;shape-rendering:geometricPrecision;" transform="matrix(1,0,0,1,0,0)" clip-path="url(#_88687820052503clip-2)"/><line x1="350.37" y1="329.32" x2="370.57" y2="314.71" style="stroke-width: 3.0;stroke: rgb(0,0,255);stroke-opacity: 1.0;stroke-linecap: round;stroke-linejoin: round;stroke-dasharray: 10.0, 5.0;shape-rendering:geometricPrecision;" transform="matrix(1,0,0,1,0,0)" clip-path="url(#_88687820052503clip-2)"/><line x1="370.57" y1="314.71" x2="391.95" y2="300.23" style="stroke-width: 3.0;stroke: rgb(0,0,255);stroke-opacity: 1.0;stroke-linecap: round;stroke-linejoin: round;stroke-dasharray: 10.0, 5.0;shape-rendering:geometricPrecision;" transform="matrix(1,0,0,1,0,0)" clip-path="url(#_88687820052503clip-2)"/><line x1="391.95" y1="300.23" x2="416.04" y2="285.9" style="stroke-width: 3.0;stroke: rgb(0,0,255);stroke-opacity: 1.0;stroke-linecap: round;stroke-linejoin: round;stroke-dasharray: 10.0, 5.0;shape-rendering:geometricPrecision;" transform="matrix(1,0,0,1,0,0)" clip-path="url(#_88687820052503clip-2)"/><line x1="416.04" y1="285.9" x2="441.37" y2="271.69" style="stroke-width: 3.0;stroke: rgb(0,0,255);stroke-opacity: 1.0;stroke-linecap: round;stroke-linejoin: round;stroke-dasharray: 10.0, 5.0;shape-rendering:geometricPrecision;" transform="matrix(1,0,0,1,0,0)" clip-path="url(#_88687820052503clip-2)"/><line x1="441.37" y1="271.69" x2="469.59" y2="257.4" style="stroke-width: 3.0;stroke: rgb(0,0,255);stroke-opacity: 1.0;stroke-linecap: round;stroke-linejoin: round;stroke-dasharray: 10.0, 5.0;shape-rendering:geometricPrecision;" transform="matrix(1,0,0,1,0,0)" clip-path="url(#_88687820052503clip-2)"/><line x1="469.59" y1="257.4" x2="500.39" y2="242.63" style="stroke-width: 3.0;stroke: rgb(0,0,255);stroke-opacity: 1.0;stroke-linecap: round;stroke-linejoin: round;stroke-dasharray: 10.0, 5.0;shape-rendering:geometricPrecision;" transform="matrix(1,0,0,1,0,0)" clip-path="url(#_88687820052503clip-2)"/><line x1="500.39" y1="242.63" x2="536.93" y2="226.51" style="stroke-width: 3.0;stroke: rgb(0,0,255);stroke-opacity: 1.0;stroke-linecap: round;stroke-linejoin: round;stroke-dasharray: 10.0, 5.0;shape-rendering:geometricPrecision;" transform="matrix(1,0,0,1,0,0)" clip-path="url(#_88687820052503clip-2)"/><line x1="536.93" y1="226.51" x2="578.77" y2="209.06" style="stroke-width: 3.0;stroke: rgb(0,0,255);stroke-opacity: 1.0;stroke-linecap: round;stroke-linejoin: round;stroke-dasharray: 10.0, 5.0;shape-rendering:geometricPrecision;" transform="matrix(1,0,0,1,0,0)" clip-path="url(#_88687820052503clip-2)"/><line x1="578.77" y1="209.06" x2="637.26" y2="186.59" style="stroke-width: 3.0;stroke: rgb(0,0,255);stroke-opacity: 1.0;stroke-linecap: round;stroke-linejoin: round;stroke-dasharray: 10.0, 5.0;shape-rendering:geometricPrecision;" transform="matrix(1,0,0,1,0,0)" clip-path="url(#_88687820052503clip-2)"/><line x1="637.26" y1="186.59" x2="708.32" y2="161.29" style="stroke-width: 3.0;stroke: rgb(0,0,255);stroke-opacity: 1.0;stroke-linecap: round;stroke-linejoin: round;stroke-dasharray: 10.0, 5.0;shape-rendering:geometricPrecision;" transform="matrix(1,0,0,1,0,0)" clip-path="url(#_88687820052503clip-2)"/><line x1="708.32" y1="161.29" x2="790.99" y2="133.81" style="stroke-width: 3.0;stroke: rgb(0,0,255);stroke-opacity: 1.0;stroke-linecap: round;stroke-linejoin: round;stroke-dasharray: 10.0, 5.0;shape-rendering:geometricPrecision;" transform="matrix(1,0,0,1,0,0)" clip-path="url(#_88687820052503clip-2)"/><line x1="790.99" y1="133.81" x2="883.22" y2="105.32" style="stroke-width: 3.0;stroke: rgb(0,0,255);stroke-opacity: 1.0;stroke-linecap: round;stroke-linejoin: round;stroke-dasharray: 10.0, 5.0;shape-rendering:geometricPrecision;" transform="matrix(1,0,0,1,0,0)" clip-path="url(#_88687820052503clip-2)"/><line x1="883.22" y1="105.32" x2="982.4" y2="77.21" style="stroke-width: 3.0;stroke: rgb(0,0,255);stroke-opacity: 1.0;stroke-linecap: round;stroke-linejoin: round;stroke-dasharray: 10.0, 5.0;shape-rendering:geometricPrecision;" transform="matrix(1,0,0,1,0,0)" clip-path="url(#_88687820052503clip-2)"/><line x1="350.6" y1="652.79" x2="324.85" y2="636.71" style="stroke-width: 3.0;stroke: rgb(0,0,0);stroke-opacity: 1.0;stroke-linecap: square;shape-rendering:geometricPrecision;" transform="matrix(1,0,0,1,0,0)" clip-path="url(#_88687820052503clip-2)"/><line x1="324.85" y1="636.71" x2="301.47" y2="620.62" style="stroke-width: 3.0;stroke: rgb(0,0,0);stroke-opacity: 1.0;stroke-linecap: square;shape-rendering:geometricPrecision;" transform="matrix(1,0,0,1,0,0)" clip-path="url(#_88687820052503clip-2)"/><line x1="301.47" y1="620.62" x2="281.43" y2="604.54" style="stroke-width: 3.0;stroke: rgb(0,0,0);stroke-opacity: 1.0;stroke-linecap: square;shape-rendering:geometricPrecision;" transform="matrix(1,0,0,1,0,0)" clip-path="url(#_88687820052503clip-2)"/><line x1="281.43" y1="604.54" x2="263.26" y2="588.45" style="stroke-width: 3.0;stroke: rgb(0,0,0);stroke-opacity: 1.0;stroke-linecap: square;shape-rendering:geometricPrecision;" transform="matrix(1,0,0,1,0,0)" clip-path="url(#_88687820052503clip-2)"/><line x1="263.26" y1="588.45" x2="249.75" y2="572.36" style="stroke-width: 3.0;stroke: rgb(0,0,0);stroke-opacity: 1.0;stroke-linecap: square;shape-rendering:geometricPrecision;" transform="matrix(1,0,0,1,0,0)" clip-path="url(#_88687820052503clip-2)"/><line x1="249.75" y1="572.36" x2="237.81" y2="556.28" style="stroke-width: 3.0;stroke: rgb(0,0,0);stroke-opacity: 1.0;stroke-linecap: square;shape-rendering:geometricPrecision;" transform="matrix(1,0,0,1,0,0)" clip-path="url(#_88687820052503clip-2)"/><line x1="237.81" y1="556.28" x2="230.36" y2="540.38" style="stroke-width: 3.0;stroke: rgb(0,0,0);stroke-opacity: 1.0;stroke-linecap: square;shape-rendering:geometricPrecision;" transform="matrix(1,0,0,1,0,0)" clip-path="url(#_88687820052503clip-2)"/><line x1="230.36" y1="540.38" x2="224.39" y2="524.1" style="stroke-width: 3.0;stroke: rgb(0,0,0);stroke-opacity: 1.0;stroke-linecap: square;shape-rendering:geometricPrecision;" transform="matrix(1,0,0,1,0,0)" clip-path="url(#_88687820052503clip-2)"/><line x1="224.39" y1="524.1" x2="221.85" y2="508.02" style="stroke-width: 3.0;stroke: rgb(0,0,0);stroke-opacity: 1.0;stroke-linecap: square;shape-rendering:geometricPrecision;" transform="matrix(1,0,0,1,0,0)" clip-path="url(#_88687820052503clip-2)"/><line x1="221.85" y1="508.02" x2="221.6" y2="492.1" style="stroke-width: 3.0;stroke: rgb(0,0,0);stroke-opacity: 1.0;stroke-linecap: square;shape-rendering:geometricPrecision;" transform="matrix(1,0,0,1,0,0)" clip-path="url(#_88687820052503clip-2)"/><line x1="221.6" y1="492.1" x2="224.09" y2="476.36" style="stroke-width: 3.0;stroke: rgb(0,0,0);stroke-opacity: 1.0;stroke-linecap: square;shape-rendering:geometricPrecision;" transform="matrix(1,0,0,1,0,0)" clip-path="url(#_88687820052503clip-2)"/><line x1="224.09" y1="476.36" x2="229.14" y2="460.79" style="stroke-width: 3.0;stroke: rgb(0,0,0);stroke-opacity: 1.0;stroke-linecap: square;shape-rendering:geometricPrecision;" transform="matrix(1,0,0,1,0,0)" clip-path="url(#_88687820052503clip-2)"/><line x1="229.14" y1="460.79" x2="236.31" y2="445.39" style="stroke-width: 3.0;stroke: rgb(0,0,0);stroke-opacity: 1.0;stroke-linecap: square;shape-rendering:geometricPrecision;" transform="matrix(1,0,0,1,0,0)" clip-path="url(#_88687820052503clip-2)"/><line x1="236.31" y1="445.39" x2="246.6" y2="430.15" style="stroke-width: 3.0;stroke: rgb(0,0,0);stroke-opacity: 1.0;stroke-linecap: square;shape-rendering:geometricPrecision;" transform="matrix(1,0,0,1,0,0)" clip-path="url(#_88687820052503clip-2)"/><line x1="246.6" y1="430.15" x2="258.6" y2="415.07" style="stroke-width: 3.0;stroke: rgb(0,0,0);stroke-opacity: 1.0;stroke-linecap: square;shape-rendering:geometricPrecision;" transform="matrix(1,0,0,1,0,0)" clip-path="url(#_88687820052503clip-2)"/><line x1="258.6" y1="415.07" x2="274.28" y2="400.15" style="stroke-width: 3.0;stroke: rgb(0,0,0);stroke-opacity: 1.0;stroke-linecap: square;shape-rendering:geometricPrecision;" transform="matrix(1,0,0,1,0,0)" clip-path="url(#_88687820052503clip-2)"/><line x1="274.28" y1="400.15" x2="291.49" y2="385.39" style="stroke-width: 3.0;stroke: rgb(0,0,0);stroke-opacity: 1.0;stroke-linecap: square;shape-rendering:geometricPrecision;" transform="matrix(1,0,0,1,0,0)" clip-path="url(#_88687820052503clip-2)"/><line x1="291.49" y1="385.39" x2="311.69" y2="370.77" style="stroke-width: 3.0;stroke: rgb(0,0,0);stroke-opacity: 1.0;stroke-linecap: square;shape-rendering:geometricPrecision;" transform="matrix(1,0,0,1,0,0)" clip-path="url(#_88687820052503clip-2)"/><line x1="311.69" y1="370.77" x2="333.07" y2="356.29" style="stroke-width: 3.0;stroke: rgb(0,0,0);stroke-opacity: 1.0;stroke-linecap: square;shape-rendering:geometricPrecision;" transform="matrix(1,0,0,1,0,0)" clip-path="url(#_88687820052503clip-2)"/><line x1="333.07" y1="356.29" x2="357.16" y2="341.96" style="stroke-width: 3.0;stroke: rgb(0,0,0);stroke-opacity: 1.0;stroke-linecap: square;shape-rendering:geometricPrecision;" transform="matrix(1,0,0,1,0,0)" clip-path="url(#_88687820052503clip-2)"/><line x1="357.16" y1="341.96" x2="382.49" y2="327.75" style="stroke-width: 3.0;stroke: rgb(0,0,0);stroke-opacity: 1.0;stroke-linecap: square;shape-rendering:geometricPrecision;" transform="matrix(1,0,0,1,0,0)" clip-path="url(#_88687820052503clip-2)"/><line x1="382.49" y1="327.75" x2="410.71" y2="313.46" style="stroke-width: 3.0;stroke: rgb(0,0,0);stroke-opacity: 1.0;stroke-linecap: square;shape-rendering:geometricPrecision;" transform="matrix(1,0,0,1,0,0)" clip-path="url(#_88687820052503clip-2)"/><line x1="410.71" y1="313.46" x2="441.51" y2="298.71" style="stroke-width: 3.0;stroke: rgb(0,0,0);stroke-opacity: 1.0;stroke-linecap: square;shape-rendering:geometricPrecision;" transform="matrix(1,0,0,1,0,0)" clip-path="url(#_88687820052503clip-2)"/><line x1="441.51" y1="298.71" x2="478.05" y2="282.69" style="stroke-width: 3.0;stroke: rgb(0,0,0);stroke-opacity: 1.0;stroke-linecap: square;shape-rendering:geometricPrecision;" transform="matrix(1,0,0,1,0,0)" clip-path="url(#_88687820052503clip-2)"/><line x1="478.05" y1="282.69" x2="519.9" y2="265.54" style="stroke-width: 3.0;stroke: rgb(0,0,0);stroke-opacity: 1.0;stroke-linecap: square;shape-rendering:geometricPrecision;" transform="matrix(1,0,0,1,0,0)" clip-path="url(#_88687820052503clip-2)"/><line x1="519.9" y1="265.54" x2="578.38" y2="243.79" style="stroke-width: 3.0;stroke: rgb(0,0,0);stroke-opacity: 1.0;stroke-linecap: square;shape-rendering:geometricPrecision;" transform="matrix(1,0,0,1,0,0)" clip-path="url(#_88687820052503clip-2)"/><line x1="578.38" y1="243.79" x2="649.44" y2="219.54" style="stroke-width: 3.0;stroke: rgb(0,0,0);stroke-opacity: 1.0;stroke-linecap: square;shape-rendering:geometricPrecision;" transform="matrix(1,0,0,1,0,0)" clip-path="url(#_88687820052503clip-2)"/><line x1="649.44" y1="219.54" x2="732.11" y2="193.14" style="stroke-width: 3.0;stroke: rgb(0,0,0);stroke-opacity: 1.0;stroke-linecap: square;shape-rendering:geometricPrecision;" transform="matrix(1,0,0,1,0,0)" clip-path="url(#_88687820052503clip-2)"/><line x1="732.11" y1="193.14" x2="824.34" y2="165.35" style="stroke-width: 3.0;stroke: rgb(0,0,0);stroke-opacity: 1.0;stroke-linecap: square;shape-rendering:geometricPrecision;" transform="matrix(1,0,0,1,0,0)" clip-path="url(#_88687820052503clip-2)"/><line x1="824.34" y1="165.35" x2="923.52" y2="137.14" style="stroke-width: 3.0;stroke: rgb(0,0,0);stroke-opacity: 1.0;stroke-linecap: square;shape-rendering:geometricPrecision;" transform="matrix(1,0,0,1,0,0)" clip-path="url(#_88687820052503clip-2)"/><rect x="64" y="35" width="1076" height="660" style="stroke-width: 0.5;stroke: rgb(0,0,0);stroke-opacity: 1.0;stroke-linecap: round;stroke-linejoin: round;shape-rendering:crispEdges;; fill: none" transform="matrix(1,0,0,1,0,0)" clip-path="url(#_88687820052503clip-0)"/></svg>
