<!DOCTYPE svg PUBLIC "-//W3C//DTD SVG 1.1//EN" "http://www.w3.org/Graphics/SVG/1.1/DTD/svg11.dtd">
<svg xmlns="http://www.w3.org/2000/svg" xmlns:xlink="http://www.w3.org/1999/xlink" xmlns:jfreesvg="http://www.jfree.org/jfreesvg/svg" width="1920" height="1080" text-rendering="auto" shape-rendering="auto">
<defs><clipPath id="_334214187161200clip-0"><path d="M 0 0 L 1920 0 L 1920 1080 L 0 1080 L 0 0 Z "/></clipPath>
<clipPath id="_334214187161200clip-1"><path d="M 526.5 465.5 L 526.5 2385.5 L -553.5 2385.5 L -553.5 465.5 L 526.5 465.5 Z "/></clipPath>
<clipPath id="_334214187161200clip-2"><path d="M 155 35 L 155 957 L 1908 957 L 1908 35 Z "/></clipPath>
</defs>
<rect x="0" y="0" width="1920" height="1080" style="fill: rgb(255,255,255); fill-opacity: 1.0" transform="matrix(1,0,0,1,0,0)" clip-path="url(#_334214187161200clip-0)"/><g transform="matrix(1,0,0,1,0,0)"><text x="780" y="21.01" style="fill: rgb(0,0,0); fill-opacity: 1.0; font-family: Tahoma; font-size: 20px; font-weight: bold;" clip-path="url(#_334214187161200clip-0)">Thrust Interpolation during descent</text></g><rect x="684" y="1047" width="552" height="32" style="fill: rgb(255,255,255); fill-opacity: 1.0" transform="matrix(1,0,0,1,0,0)" clip-path="url(#_334214187161200clip-0)"/><g style="stroke-width: 3.0;stroke: rgb(0,192,0);stroke-opacity: 1.0;stroke-linecap: square;shape-rendering:geometricPrecision;; fill: none" transform="matrix(1,0,0,1,0,0)" clip-path="url(#_334214187161200clip-0)"><path d="M 687 1063 L 701 1063"/></g><g transform="matrix(1,0,0,1,0,0)"><text x="705" y="1070.11" style="fill: rgb(64,64,64); fill-opacity: 1.0; font-family: sans-serif; font-size: 20px;" clip-path="url(#_334214187161200clip-0)">Interpolated Thrust</text></g><g style="stroke-width: 3.0;stroke: rgb(192,192,0);stroke-opacity: 1.0;stroke-linecap: round;stroke-linejoin: round;stroke-dasharray: 10.0, 5.0;shape-rendering:geometricPrecision;; fill: none" transform="matrix(1,0,0,1,0,0)" clip-path="url(#_334214187161200clip-0)"><path d="M 879 1063 L 893 1063"/></g><g transform="matrix(1,0,0,1,0,0)"><text x="897" y="1070.11" style="fill: rgb(64,64,64); fill-opacity: 1.0; font-family: sans-serif; font-size: 20px;" clip-path="url(#_334214187161200clip-0)">Max Cruise Thrust</text></g><g style="stroke-width: 1.0;stroke: rgb(64,64,64);stroke-opacity: 1.0;stroke-linecap: square;stroke-linejoin: bevel;shape-rendering:geometricPrecision;; fill: none" transform="matrix(1,0,0,1,0,0)" clip-path="url(#_334214187161200clip-0)"><path d="M 1066 1063 L 1080 1063"/></g><g transform="matrix(1,0,0,1,0,0)"><text x="1084" y="1070.11" style="fill: rgb(64,64,64); fill-opacity: 1.0; font-family: sans-serif; font-size: 20px;" clip-path="url(#_334214187161200clip-0)">Flight Idle Thrust</text></g><rect x="155" y="35" width="1753" height="922" style="fill: rgb(255,255,255); fill-opacity: 0.0" transform="matrix(1,0,0,1,0,0)" clip-path="url(#_334214187161200clip-0)"/><line x1="155" y1="961" x2="1908" y2="961" style="stroke-width: 0.5;stroke: rgb(128,128,128);stroke-opacity: 1.0;stroke-linecap: square;shape-rendering:crispEdges;" transform="matrix(1,0,0,1,0,0)" clip-path="url(#_334214187161200clip-0)"/><g transform="matrix(1,0,0,1,0,0)"><text x="137.5" y="991.69" style="fill: rgb(64,64,64); fill-opacity: 1.0; font-family: sans-serif; font-size: 25px;" clip-path="url(#_334214187161200clip-0)">0,0</text></g><line x1="155" y1="963" x2="155" y2="961" style="stroke-width: 0.5;stroke: rgb(128,128,128);stroke-opacity: 1.0;stroke-linecap: square;shape-rendering:crispEdges;" transform="matrix(1,0,0,1,0,0)" clip-path="url(#_334214187161200clip-0)"/><g transform="matrix(1,0,0,1,0,0)"><text x="197.34" y="991.69" style="fill: rgb(64,64,64); fill-opacity: 1.0; font-family: sans-serif; font-size: 25px;" clip-path="url(#_334214187161200clip-0)">0,5</text></g><line x1="214.84" y1="963" x2="214.84" y2="961" style="stroke-width: 0.5;stroke: rgb(128,128,128);stroke-opacity: 1.0;stroke-linecap: square;shape-rendering:crispEdges;" transform="matrix(1,0,0,1,0,0)" clip-path="url(#_334214187161200clip-0)"/><g transform="matrix(1,0,0,1,0,0)"><text x="257.18" y="991.69" style="fill: rgb(64,64,64); fill-opacity: 1.0; font-family: sans-serif; font-size: 25px;" clip-path="url(#_334214187161200clip-0)">1,0</text></g><line x1="274.68" y1="963" x2="274.68" y2="961" style="stroke-width: 0.5;stroke: rgb(128,128,128);stroke-opacity: 1.0;stroke-linecap: square;shape-rendering:crispEdges;" transform="matrix(1,0,0,1,0,0)" clip-path="url(#_334214187161200clip-0)"/><g transform="matrix(1,0,0,1,0,0)"><text x="317.02" y="991.69" style="fill: rgb(64,64,64); fill-opacity: 1.0; font-family: sans-serif; font-size: 25px;" clip-path="url(#_334214187161200clip-0)">1,5</text></g><line x1="334.52" y1="963" x2="334.52" y2="961" style="stroke-width: 0.5;stroke: rgb(128,128,128);stroke-opacity: 1.0;stroke-linecap: square;shape-rendering:crispEdges;" transform="matrix(1,0,0,1,0,0)" clip-path="url(#_334214187161200clip-0)"/><g transform="matrix(1,0,0,1,0,0)"><text x="376.86" y="991.69" style="fill: rgb(64,64,64); fill-opacity: 1.0; font-family: sans-serif; font-size: 25px;" clip-path="url(#_334214187161200clip-0)">2,0</text></g><line x1="394.36" y1="963" x2="394.36" y2="961" style="stroke-width: 0.5;stroke: rgb(128,128,128);stroke-opacity: 1.0;stroke-linecap: square;shape-rendering:crispEdges;" transform="matrix(1,0,0,1,0,0)" clip-path="url(#_334214187161200clip-0)"/><g transform="matrix(1,0,0,1,0,0)"><text x="436.69" y="991.69" style="fill: rgb(64,64,64); fill-opacity: 1.0; font-family: sans-serif; font-size: 25px;" clip-path="url(#_334214187161200clip-0)">2,5</text></g><line x1="454.19" y1="963" x2="454.19" y2="961" style="stroke-width: 0.5;stroke: rgb(128,128,128);stroke-opacity: 1.0;stroke-linecap: square;shape-rendering:crispEdges;" transform="matrix(1,0,0,1,0,0)" clip-path="url(#_334214187161200clip-0)"/><g transform="matrix(1,0,0,1,0,0)"><text x="496.53" y="991.69" style="fill: rgb(64,64,64); fill-opacity: 1.0; font-family: sans-serif; font-size: 25px;" clip-path="url(#_334214187161200clip-0)">3,0</text></g><line x1="514.03" y1="963" x2="514.03" y2="961" style="stroke-width: 0.5;stroke: rgb(128,128,128);stroke-opacity: 1.0;stroke-linecap: square;shape-rendering:crispEdges;" transform="matrix(1,0,0,1,0,0)" clip-path="url(#_334214187161200clip-0)"/><g transform="matrix(1,0,0,1,0,0)"><text x="556.37" y="991.69" style="fill: rgb(64,64,64); fill-opacity: 1.0; font-family: sans-serif; font-size: 25px;" clip-path="url(#_334214187161200clip-0)">3,5</text></g><line x1="573.87" y1="963" x2="573.87" y2="961" style="stroke-width: 0.5;stroke: rgb(128,128,128);stroke-opacity: 1.0;stroke-linecap: square;shape-rendering:crispEdges;" transform="matrix(1,0,0,1,0,0)" clip-path="url(#_334214187161200clip-0)"/><g transform="matrix(1,0,0,1,0,0)"><text x="616.21" y="991.69" style="fill: rgb(64,64,64); fill-opacity: 1.0; font-family: sans-serif; font-size: 25px;" clip-path="url(#_334214187161200clip-0)">4,0</text></g><line x1="633.71" y1="963" x2="633.71" y2="961" style="stroke-width: 0.5;stroke: rgb(128,128,128);stroke-opacity: 1.0;stroke-linecap: square;shape-rendering:crispEdges;" transform="matrix(1,0,0,1,0,0)" clip-path="url(#_334214187161200clip-0)"/><g transform="matrix(1,0,0,1,0,0)"><text x="676.05" y="991.69" style="fill: rgb(64,64,64); fill-opacity: 1.0; font-family: sans-serif; font-size: 25px;" clip-path="url(#_334214187161200clip-0)">4,5</text></g><line x1="693.55" y1="963" x2="693.55" y2="961" style="stroke-width: 0.5;stroke: rgb(128,128,128);stroke-opacity: 1.0;stroke-linecap: square;shape-rendering:crispEdges;" transform="matrix(1,0,0,1,0,0)" clip-path="url(#_334214187161200clip-0)"/><g transform="matrix(1,0,0,1,0,0)"><text x="735.89" y="991.69" style="fill: rgb(64,64,64); fill-opacity: 1.0; font-family: sans-serif; font-size: 25px;" clip-path="url(#_334214187161200clip-0)">5,0</text></g><line x1="753.39" y1="963" x2="753.39" y2="961" style="stroke-width: 0.5;stroke: rgb(128,128,128);stroke-opacity: 1.0;stroke-linecap: square;shape-rendering:crispEdges;" transform="matrix(1,0,0,1,0,0)" clip-path="url(#_334214187161200clip-0)"/><g transform="matrix(1,0,0,1,0,0)"><text x="795.73" y="991.69" style="fill: rgb(64,64,64); fill-opacity: 1.0; font-family: sans-serif; font-size: 25px;" clip-path="url(#_334214187161200clip-0)">5,5</text></g><line x1="813.23" y1="963" x2="813.23" y2="961" style="stroke-width: 0.5;stroke: rgb(128,128,128);stroke-opacity: 1.0;stroke-linecap: square;shape-rendering:crispEdges;" transform="matrix(1,0,0,1,0,0)" clip-path="url(#_334214187161200clip-0)"/><g transform="matrix(1,0,0,1,0,0)"><text x="855.57" y="991.69" style="fill: rgb(64,64,64); fill-opacity: 1.0; font-family: sans-serif; font-size: 25px;" clip-path="url(#_334214187161200clip-0)">6,0</text></g><line x1="873.07" y1="963" x2="873.07" y2="961" style="stroke-width: 0.5;stroke: rgb(128,128,128);stroke-opacity: 1.0;stroke-linecap: square;shape-rendering:crispEdges;" transform="matrix(1,0,0,1,0,0)" clip-path="url(#_334214187161200clip-0)"/><g transform="matrix(1,0,0,1,0,0)"><text x="915.41" y="991.69" style="fill: rgb(64,64,64); fill-opacity: 1.0; font-family: sans-serif; font-size: 25px;" clip-path="url(#_334214187161200clip-0)">6,5</text></g><line x1="932.91" y1="963" x2="932.91" y2="961" style="stroke-width: 0.5;stroke: rgb(128,128,128);stroke-opacity: 1.0;stroke-linecap: square;shape-rendering:crispEdges;" transform="matrix(1,0,0,1,0,0)" clip-path="url(#_334214187161200clip-0)"/><g transform="matrix(1,0,0,1,0,0)"><text x="975.25" y="991.69" style="fill: rgb(64,64,64); fill-opacity: 1.0; font-family: sans-serif; font-size: 25px;" clip-path="url(#_334214187161200clip-0)">7,0</text></g><line x1="992.75" y1="963" x2="992.75" y2="961" style="stroke-width: 0.5;stroke: rgb(128,128,128);stroke-opacity: 1.0;stroke-linecap: square;shape-rendering:crispEdges;" transform="matrix(1,0,0,1,0,0)" clip-path="url(#_334214187161200clip-0)"/><g transform="matrix(1,0,0,1,0,0)"><text x="1035.08" y="991.69" style="fill: rgb(64,64,64); fill-opacity: 1.0; font-family: sans-serif; font-size: 25px;" clip-path="url(#_334214187161200clip-0)">7,5</text></g><line x1="1052.58" y1="963" x2="1052.58" y2="961" style="stroke-width: 0.5;stroke: rgb(128,128,128);stroke-opacity: 1.0;stroke-linecap: square;shape-rendering:crispEdges;" transform="matrix(1,0,0,1,0,0)" clip-path="url(#_334214187161200clip-0)"/><g transform="matrix(1,0,0,1,0,0)"><text x="1094.92" y="991.69" style="fill: rgb(64,64,64); fill-opacity: 1.0; font-family: sans-serif; font-size: 25px;" clip-path="url(#_334214187161200clip-0)">8,0</text></g><line x1="1112.42" y1="963" x2="1112.42" y2="961" style="stroke-width: 0.5;stroke: rgb(128,128,128);stroke-opacity: 1.0;stroke-linecap: square;shape-rendering:crispEdges;" transform="matrix(1,0,0,1,0,0)" clip-path="url(#_334214187161200clip-0)"/><g transform="matrix(1,0,0,1,0,0)"><text x="1154.76" y="991.69" style="fill: rgb(64,64,64); fill-opacity: 1.0; font-family: sans-serif; font-size: 25px;" clip-path="url(#_334214187161200clip-0)">8,5</text></g><line x1="1172.26" y1="963" x2="1172.26" y2="961" style="stroke-width: 0.5;stroke: rgb(128,128,128);stroke-opacity: 1.0;stroke-linecap: square;shape-rendering:crispEdges;" transform="matrix(1,0,0,1,0,0)" clip-path="url(#_334214187161200clip-0)"/><g transform="matrix(1,0,0,1,0,0)"><text x="1214.6" y="991.69" style="fill: rgb(64,64,64); fill-opacity: 1.0; font-family: sans-serif; font-size: 25px;" clip-path="url(#_334214187161200clip-0)">9,0</text></g><line x1="1232.1" y1="963" x2="1232.1" y2="961" style="stroke-width: 0.5;stroke: rgb(128,128,128);stroke-opacity: 1.0;stroke-linecap: square;shape-rendering:crispEdges;" transform="matrix(1,0,0,1,0,0)" clip-path="url(#_334214187161200clip-0)"/><g transform="matrix(1,0,0,1,0,0)"><text x="1274.44" y="991.69" style="fill: rgb(64,64,64); fill-opacity: 1.0; font-family: sans-serif; font-size: 25px;" clip-path="url(#_334214187161200clip-0)">9,5</text></g><line x1="1291.94" y1="963" x2="1291.94" y2="961" style="stroke-width: 0.5;stroke: rgb(128,128,128);stroke-opacity: 1.0;stroke-linecap: square;shape-rendering:crispEdges;" transform="matrix(1,0,0,1,0,0)" clip-path="url(#_334214187161200clip-0)"/><g transform="matrix(1,0,0,1,0,0)"><text x="1327.28" y="991.69" style="fill: rgb(64,64,64); fill-opacity: 1.0; font-family: sans-serif; font-size: 25px;" clip-path="url(#_334214187161200clip-0)">10,0</text></g><line x1="1351.78" y1="963" x2="1351.78" y2="961" style="stroke-width: 0.5;stroke: rgb(128,128,128);stroke-opacity: 1.0;stroke-linecap: square;shape-rendering:crispEdges;" transform="matrix(1,0,0,1,0,0)" clip-path="url(#_334214187161200clip-0)"/><g transform="matrix(1,0,0,1,0,0)"><text x="1387.12" y="991.69" style="fill: rgb(64,64,64); fill-opacity: 1.0; font-family: sans-serif; font-size: 25px;" clip-path="url(#_334214187161200clip-0)">10,5</text></g><line x1="1411.62" y1="963" x2="1411.62" y2="961" style="stroke-width: 0.5;stroke: rgb(128,128,128);stroke-opacity: 1.0;stroke-linecap: square;shape-rendering:crispEdges;" transform="matrix(1,0,0,1,0,0)" clip-path="url(#_334214187161200clip-0)"/><g transform="matrix(1,0,0,1,0,0)"><text x="1446.96" y="991.69" style="fill: rgb(64,64,64); fill-opacity: 1.0; font-family: sans-serif; font-size: 25px;" clip-path="url(#_334214187161200clip-0)">11,0</text></g><line x1="1471.46" y1="963" x2="1471.46" y2="961" style="stroke-width: 0.5;stroke: rgb(128,128,128);stroke-opacity: 1.0;stroke-linecap: square;shape-rendering:crispEdges;" transform="matrix(1,0,0,1,0,0)" clip-path="url(#_334214187161200clip-0)"/><g transform="matrix(1,0,0,1,0,0)"><text x="1506.8" y="991.69" style="fill: rgb(64,64,64); fill-opacity: 1.0; font-family: sans-serif; font-size: 25px;" clip-path="url(#_334214187161200clip-0)">11,5</text></g><line x1="1531.3" y1="963" x2="1531.3" y2="961" style="stroke-width: 0.5;stroke: rgb(128,128,128);stroke-opacity: 1.0;stroke-linecap: square;shape-rendering:crispEdges;" transform="matrix(1,0,0,1,0,0)" clip-path="url(#_334214187161200clip-0)"/><g transform="matrix(1,0,0,1,0,0)"><text x="1566.63" y="991.69" style="fill: rgb(64,64,64); fill-opacity: 1.0; font-family: sans-serif; font-size: 25px;" clip-path="url(#_334214187161200clip-0)">12,0</text></g><line x1="1591.13" y1="963" x2="1591.13" y2="961" style="stroke-width: 0.5;stroke: rgb(128,128,128);stroke-opacity: 1.0;stroke-linecap: square;shape-rendering:crispEdges;" transform="matrix(1,0,0,1,0,0)" clip-path="url(#_334214187161200clip-0)"/><g transform="matrix(1,0,0,1,0,0)"><text x="1626.47" y="991.69" style="fill: rgb(64,64,64); fill-opacity: 1.0; font-family: sans-serif; font-size: 25px;" clip-path="url(#_334214187161200clip-0)">12,5</text></g><line x1="1650.97" y1="963" x2="1650.97" y2="961" style="stroke-width: 0.5;stroke: rgb(128,128,128);stroke-opacity: 1.0;stroke-linecap: square;shape-rendering:crispEdges;" transform="matrix(1,0,0,1,0,0)" clip-path="url(#_334214187161200clip-0)"/><g transform="matrix(1,0,0,1,0,0)"><text x="1686.31" y="991.69" style="fill: rgb(64,64,64); fill-opacity: 1.0; font-family: sans-serif; font-size: 25px;" clip-path="url(#_334214187161200clip-0)">13,0</text></g><line x1="1710.81" y1="963" x2="1710.81" y2="961" style="stroke-width: 0.5;stroke: rgb(128,128,128);stroke-opacity: 1.0;stroke-linecap: square;shape-rendering:crispEdges;" transform="matrix(1,0,0,1,0,0)" clip-path="url(#_334214187161200clip-0)"/><g transform="matrix(1,0,0,1,0,0)"><text x="1746.15" y="991.69" style="fill: rgb(64,64,64); fill-opacity: 1.0; font-family: sans-serif; font-size: 25px;" clip-path="url(#_334214187161200clip-0)">13,5</text></g><line x1="1770.65" y1="963" x2="1770.65" y2="961" style="stroke-width: 0.5;stroke: rgb(128,128,128);stroke-opacity: 1.0;stroke-linecap: square;shape-rendering:crispEdges;" transform="matrix(1,0,0,1,0,0)" clip-path="url(#_334214187161200clip-0)"/><g transform="matrix(1,0,0,1,0,0)"><text x="1805.99" y="991.69" style="fill: rgb(64,64,64); fill-opacity: 1.0; font-family: sans-serif; font-size: 25px;" clip-path="url(#_334214187161200clip-0)">14,0</text></g><line x1="1830.49" y1="963" x2="1830.49" y2="961" style="stroke-width: 0.5;stroke: rgb(128,128,128);stroke-opacity: 1.0;stroke-linecap: square;shape-rendering:crispEdges;" transform="matrix(1,0,0,1,0,0)" clip-path="url(#_334214187161200clip-0)"/><g transform="matrix(1,0,0,1,0,0)"><text x="1865.83" y="991.69" style="fill: rgb(64,64,64); fill-opacity: 1.0; font-family: sans-serif; font-size: 25px;" clip-path="url(#_334214187161200clip-0)">14,5</text></g><line x1="1890.33" y1="963" x2="1890.33" y2="961" style="stroke-width: 0.5;stroke: rgb(128,128,128);stroke-opacity: 1.0;stroke-linecap: square;shape-rendering:crispEdges;" transform="matrix(1,0,0,1,0,0)" clip-path="url(#_334214187161200clip-0)"/><g transform="matrix(1,0,0,1,0,0)"><text x="960" y="1030.87" style="fill: rgb(64,64,64); fill-opacity: 1.0; font-family: sans-serif; font-size: 30px;" clip-path="url(#_334214187161200clip-0)">Time (min)</text></g><line x1="151" y1="35" x2="151" y2="957" style="stroke-width: 0.5;stroke: rgb(128,128,128);stroke-opacity: 1.0;stroke-linecap: square;shape-rendering:crispEdges;" transform="matrix(1,0,0,1,0,0)" clip-path="url(#_334214187161200clip-0)"/><g transform="matrix(1,0,0,1,0,0)"><text x="74" y="950.92" style="fill: rgb(64,64,64); fill-opacity: 1.0; font-family: sans-serif; font-size: 25px;" clip-path="url(#_334214187161200clip-0)">-5.000</text></g><line x1="149" y1="940.73" x2="151" y2="940.73" style="stroke-width: 0.5;stroke: rgb(128,128,128);stroke-opacity: 1.0;stroke-linecap: square;shape-rendering:crispEdges;" transform="matrix(1,0,0,1,0,0)" clip-path="url(#_334214187161200clip-0)"/><g transform="matrix(1,0,0,1,0,0)"><text x="131" y="908.4" style="fill: rgb(64,64,64); fill-opacity: 1.0; font-family: sans-serif; font-size: 25px;" clip-path="url(#_334214187161200clip-0)">0</text></g><line x1="149" y1="898.21" x2="151" y2="898.21" style="stroke-width: 0.5;stroke: rgb(128,128,128);stroke-opacity: 1.0;stroke-linecap: square;shape-rendering:crispEdges;" transform="matrix(1,0,0,1,0,0)" clip-path="url(#_334214187161200clip-0)"/><g transform="matrix(1,0,0,1,0,0)"><text x="82" y="865.88" style="fill: rgb(64,64,64); fill-opacity: 1.0; font-family: sans-serif; font-size: 25px;" clip-path="url(#_334214187161200clip-0)">5.000</text></g><line x1="149" y1="855.69" x2="151" y2="855.69" style="stroke-width: 0.5;stroke: rgb(128,128,128);stroke-opacity: 1.0;stroke-linecap: square;shape-rendering:crispEdges;" transform="matrix(1,0,0,1,0,0)" clip-path="url(#_334214187161200clip-0)"/><g transform="matrix(1,0,0,1,0,0)"><text x="69" y="823.35" style="fill: rgb(64,64,64); fill-opacity: 1.0; font-family: sans-serif; font-size: 25px;" clip-path="url(#_334214187161200clip-0)">10.000</text></g><line x1="149" y1="813.16" x2="151" y2="813.16" style="stroke-width: 0.5;stroke: rgb(128,128,128);stroke-opacity: 1.0;stroke-linecap: square;shape-rendering:crispEdges;" transform="matrix(1,0,0,1,0,0)" clip-path="url(#_334214187161200clip-0)"/><g transform="matrix(1,0,0,1,0,0)"><text x="69" y="780.83" style="fill: rgb(64,64,64); fill-opacity: 1.0; font-family: sans-serif; font-size: 25px;" clip-path="url(#_334214187161200clip-0)">15.000</text></g><line x1="149" y1="770.64" x2="151" y2="770.64" style="stroke-width: 0.5;stroke: rgb(128,128,128);stroke-opacity: 1.0;stroke-linecap: square;shape-rendering:crispEdges;" transform="matrix(1,0,0,1,0,0)" clip-path="url(#_334214187161200clip-0)"/><g transform="matrix(1,0,0,1,0,0)"><text x="69" y="738.3" style="fill: rgb(64,64,64); fill-opacity: 1.0; font-family: sans-serif; font-size: 25px;" clip-path="url(#_334214187161200clip-0)">20.000</text></g><line x1="149" y1="728.11" x2="151" y2="728.11" style="stroke-width: 0.5;stroke: rgb(128,128,128);stroke-opacity: 1.0;stroke-linecap: square;shape-rendering:crispEdges;" transform="matrix(1,0,0,1,0,0)" clip-path="url(#_334214187161200clip-0)"/><g transform="matrix(1,0,0,1,0,0)"><text x="69" y="695.78" style="fill: rgb(64,64,64); fill-opacity: 1.0; font-family: sans-serif; font-size: 25px;" clip-path="url(#_334214187161200clip-0)">25.000</text></g><line x1="149" y1="685.59" x2="151" y2="685.59" style="stroke-width: 0.5;stroke: rgb(128,128,128);stroke-opacity: 1.0;stroke-linecap: square;shape-rendering:crispEdges;" transform="matrix(1,0,0,1,0,0)" clip-path="url(#_334214187161200clip-0)"/><g transform="matrix(1,0,0,1,0,0)"><text x="69" y="653.26" style="fill: rgb(64,64,64); fill-opacity: 1.0; font-family: sans-serif; font-size: 25px;" clip-path="url(#_334214187161200clip-0)">30.000</text></g><line x1="149" y1="643.07" x2="151" y2="643.07" style="stroke-width: 0.5;stroke: rgb(128,128,128);stroke-opacity: 1.0;stroke-linecap: square;shape-rendering:crispEdges;" transform="matrix(1,0,0,1,0,0)" clip-path="url(#_334214187161200clip-0)"/><g transform="matrix(1,0,0,1,0,0)"><text x="69" y="610.73" style="fill: rgb(64,64,64); fill-opacity: 1.0; font-family: sans-serif; font-size: 25px;" clip-path="url(#_334214187161200clip-0)">35.000</text></g><line x1="149" y1="600.54" x2="151" y2="600.54" style="stroke-width: 0.5;stroke: rgb(128,128,128);stroke-opacity: 1.0;stroke-linecap: square;shape-rendering:crispEdges;" transform="matrix(1,0,0,1,0,0)" clip-path="url(#_334214187161200clip-0)"/><g transform="matrix(1,0,0,1,0,0)"><text x="69" y="568.21" style="fill: rgb(64,64,64); fill-opacity: 1.0; font-family: sans-serif; font-size: 25px;" clip-path="url(#_334214187161200clip-0)">40.000</text></g><line x1="149" y1="558.02" x2="151" y2="558.02" style="stroke-width: 0.5;stroke: rgb(128,128,128);stroke-opacity: 1.0;stroke-linecap: square;shape-rendering:crispEdges;" transform="matrix(1,0,0,1,0,0)" clip-path="url(#_334214187161200clip-0)"/><g transform="matrix(1,0,0,1,0,0)"><text x="69" y="525.68" style="fill: rgb(64,64,64); fill-opacity: 1.0; font-family: sans-serif; font-size: 25px;" clip-path="url(#_334214187161200clip-0)">45.000</text></g><line x1="149" y1="515.5" x2="151" y2="515.5" style="stroke-width: 0.5;stroke: rgb(128,128,128);stroke-opacity: 1.0;stroke-linecap: square;shape-rendering:crispEdges;" transform="matrix(1,0,0,1,0,0)" clip-path="url(#_334214187161200clip-0)"/><g transform="matrix(1,0,0,1,0,0)"><text x="69" y="483.16" style="fill: rgb(64,64,64); fill-opacity: 1.0; font-family: sans-serif; font-size: 25px;" clip-path="url(#_334214187161200clip-0)">50.000</text></g><line x1="149" y1="472.97" x2="151" y2="472.97" style="stroke-width: 0.5;stroke: rgb(128,128,128);stroke-opacity: 1.0;stroke-linecap: square;shape-rendering:crispEdges;" transform="matrix(1,0,0,1,0,0)" clip-path="url(#_334214187161200clip-0)"/><g transform="matrix(1,0,0,1,0,0)"><text x="69" y="440.64" style="fill: rgb(64,64,64); fill-opacity: 1.0; font-family: sans-serif; font-size: 25px;" clip-path="url(#_334214187161200clip-0)">55.000</text></g><line x1="149" y1="430.45" x2="151" y2="430.45" style="stroke-width: 0.5;stroke: rgb(128,128,128);stroke-opacity: 1.0;stroke-linecap: square;shape-rendering:crispEdges;" transform="matrix(1,0,0,1,0,0)" clip-path="url(#_334214187161200clip-0)"/><g transform="matrix(1,0,0,1,0,0)"><text x="69" y="398.11" style="fill: rgb(64,64,64); fill-opacity: 1.0; font-family: sans-serif; font-size: 25px;" clip-path="url(#_334214187161200clip-0)">60.000</text></g><line x1="149" y1="387.92" x2="151" y2="387.92" style="stroke-width: 0.5;stroke: rgb(128,128,128);stroke-opacity: 1.0;stroke-linecap: square;shape-rendering:crispEdges;" transform="matrix(1,0,0,1,0,0)" clip-path="url(#_334214187161200clip-0)"/><g transform="matrix(1,0,0,1,0,0)"><text x="69" y="355.59" style="fill: rgb(64,64,64); fill-opacity: 1.0; font-family: sans-serif; font-size: 25px;" clip-path="url(#_334214187161200clip-0)">65.000</text></g><line x1="149" y1="345.4" x2="151" y2="345.4" style="stroke-width: 0.5;stroke: rgb(128,128,128);stroke-opacity: 1.0;stroke-linecap: square;shape-rendering:crispEdges;" transform="matrix(1,0,0,1,0,0)" clip-path="url(#_334214187161200clip-0)"/><g transform="matrix(1,0,0,1,0,0)"><text x="69" y="313.07" style="fill: rgb(64,64,64); fill-opacity: 1.0; font-family: sans-serif; font-size: 25px;" clip-path="url(#_334214187161200clip-0)">70.000</text></g><line x1="149" y1="302.88" x2="151" y2="302.88" style="stroke-width: 0.5;stroke: rgb(128,128,128);stroke-opacity: 1.0;stroke-linecap: square;shape-rendering:crispEdges;" transform="matrix(1,0,0,1,0,0)" clip-path="url(#_334214187161200clip-0)"/><g transform="matrix(1,0,0,1,0,0)"><text x="69" y="270.54" style="fill: rgb(64,64,64); fill-opacity: 1.0; font-family: sans-serif; font-size: 25px;" clip-path="url(#_334214187161200clip-0)">75.000</text></g><line x1="149" y1="260.35" x2="151" y2="260.35" style="stroke-width: 0.5;stroke: rgb(128,128,128);stroke-opacity: 1.0;stroke-linecap: square;shape-rendering:crispEdges;" transform="matrix(1,0,0,1,0,0)" clip-path="url(#_334214187161200clip-0)"/><g transform="matrix(1,0,0,1,0,0)"><text x="69" y="228.02" style="fill: rgb(64,64,64); fill-opacity: 1.0; font-family: sans-serif; font-size: 25px;" clip-path="url(#_334214187161200clip-0)">80.000</text></g><line x1="149" y1="217.83" x2="151" y2="217.83" style="stroke-width: 0.5;stroke: rgb(128,128,128);stroke-opacity: 1.0;stroke-linecap: square;shape-rendering:crispEdges;" transform="matrix(1,0,0,1,0,0)" clip-path="url(#_334214187161200clip-0)"/><g transform="matrix(1,0,0,1,0,0)"><text x="69" y="185.49" style="fill: rgb(64,64,64); fill-opacity: 1.0; font-family: sans-serif; font-size: 25px;" clip-path="url(#_334214187161200clip-0)">85.000</text></g><line x1="149" y1="175.3" x2="151" y2="175.3" style="stroke-width: 0.5;stroke: rgb(128,128,128);stroke-opacity: 1.0;stroke-linecap: square;shape-rendering:crispEdges;" transform="matrix(1,0,0,1,0,0)" clip-path="url(#_334214187161200clip-0)"/><g transform="matrix(1,0,0,1,0,0)"><text x="69" y="142.97" style="fill: rgb(64,64,64); fill-opacity: 1.0; font-family: sans-serif; font-size: 25px;" clip-path="url(#_334214187161200clip-0)">90.000</text></g><line x1="149" y1="132.78" x2="151" y2="132.78" style="stroke-width: 0.5;stroke: rgb(128,128,128);stroke-opacity: 1.0;stroke-linecap: square;shape-rendering:crispEdges;" transform="matrix(1,0,0,1,0,0)" clip-path="url(#_334214187161200clip-0)"/><g transform="matrix(1,0,0,1,0,0)"><text x="69" y="100.45" style="fill: rgb(64,64,64); fill-opacity: 1.0; font-family: sans-serif; font-size: 25px;" clip-path="url(#_334214187161200clip-0)">95.000</text></g><line x1="149" y1="90.26" x2="151" y2="90.26" style="stroke-width: 0.5;stroke: rgb(128,128,128);stroke-opacity: 1.0;stroke-linecap: square;shape-rendering:crispEdges;" transform="matrix(1,0,0,1,0,0)" clip-path="url(#_334214187161200clip-0)"/><g transform="matrix(1,0,0,1,0,0)"><text x="55" y="57.92" style="fill: rgb(64,64,64); fill-opacity: 1.0; font-family: sans-serif; font-size: 25px;" clip-path="url(#_334214187161200clip-0)">100.000</text></g><line x1="149" y1="47.73" x2="151" y2="47.73" style="stroke-width: 0.5;stroke: rgb(128,128,128);stroke-opacity: 1.0;stroke-linecap: square;shape-rendering:crispEdges;" transform="matrix(1,0,0,1,0,0)" clip-path="url(#_334214187161200clip-0)"/><g style="fill: rgb(64,64,64); fill-opacity: 1.0; stroke: none" transform="matrix(0,-1,1,0,-465.5,526.5)" clip-path="url(#_334214187161200clip-1)"><path d="M -29.22 507.93 L -29.22 488.99 L -36.3 488.99 L -36.3 486.46 L -19.28 486.46 L -19.28 488.99 L -26.38 488.99 L -26.38 507.93 L -29.22 507.93 Z  M -16.69 507.93 L -16.69 486.46 L -14.07 486.46 L -14.07 494.16 Q -12.22 492.02 -9.41 492.02 Q -7.67 492.02 -6.4 492.7 Q -5.13 493.38 -4.57 494.58 Q -4.02 495.79 -4.02 498.07 L -4.02 507.93 L -6.66 507.93 L -6.66 498.07 Q -6.66 496.08 -7.52 495.18 Q -8.38 494.29 -9.94 494.29 Q -11.11 494.29 -12.14 494.9 Q -13.17 495.5 -13.62 496.54 Q -14.07 497.58 -14.07 499.41 L -14.07 507.93 L -16.69 507.93 Z  M -0.04 507.93 L -0.04 492.36 L 2.34 492.36 L 2.34 494.72 Q 3.24 493.07 4.01 492.54 Q 4.78 492.02 5.7 492.02 Q 7.04 492.02 8.42 492.86 L 7.51 495.32 Q 6.54 494.74 5.57 494.74 Q 4.7 494.74 4.01 495.26 Q 3.32 495.79 3.04 496.71 Q 2.59 498.11 2.59 499.79 L 2.59 507.93 L -0.04 507.93 Z  M 20.17 507.93 L 20.17 505.65 Q 18.36 508.29 15.23 508.29 Q 13.86 508.29 12.66 507.75 Q 11.47 507.22 10.89 506.43 Q 10.31 505.63 10.08 504.47 Q 9.92 503.69 9.92 502 L 9.92 492.36 L 12.56 492.36 L 12.56 501 Q 12.56 503.07 12.72 503.79 Q 12.97 504.82 13.77 505.41 Q 14.58 506 15.77 506 Q 16.95 506 17.99 505.4 Q 19.03 504.79 19.46 503.74 Q 19.89 502.69 19.89 500.71 L 19.89 492.36 L 22.53 492.36 L 22.53 507.93 L 20.17 507.93 Z  M 25.61 503.29 L 28.22 502.88 Q 28.43 504.44 29.43 505.28 Q 30.43 506.11 32.25 506.11 Q 34.06 506.11 34.94 505.37 Q 35.83 504.63 35.83 503.63 Q 35.83 502.74 35.04 502.22 Q 34.5 501.88 32.34 501.33 Q 29.45 500.6 28.33 500.07 Q 27.2 499.54 26.62 498.59 Q 26.04 497.65 26.04 496.5 Q 26.04 495.46 26.52 494.58 Q 27 493.69 27.83 493.1 Q 28.43 492.65 29.5 492.33 Q 30.56 492.02 31.78 492.02 Q 33.61 492.02 34.99 492.54 Q 36.37 493.07 37.04 493.97 Q 37.7 494.88 37.93 496.38 L 35.36 496.74 Q 35.18 495.54 34.34 494.86 Q 33.5 494.19 31.97 494.19 Q 30.15 494.19 29.37 494.79 Q 28.59 495.38 28.59 496.19 Q 28.59 496.71 28.92 497.11 Q 29.25 497.54 29.93 497.82 Q 30.33 497.96 32.26 498.49 Q 35.06 499.24 36.16 499.72 Q 37.26 500.19 37.9 501.1 Q 38.53 502 38.53 503.35 Q 38.53 504.68 37.76 505.84 Q 37 507 35.54 507.65 Q 34.09 508.29 32.26 508.29 Q 29.23 508.29 27.64 507.02 Q 26.04 505.75 25.61 503.29 Z  M 47.42 505.57 L 47.79 507.9 Q 46.68 508.13 45.81 508.13 Q 44.37 508.13 43.58 507.68 Q 42.79 507.22 42.47 506.48 Q 42.15 505.74 42.15 503.36 L 42.15 494.43 L 40.22 494.43 L 40.22 492.36 L 42.15 492.36 L 42.15 488.52 L 44.76 486.94 L 44.76 492.36 L 47.42 492.36 L 47.42 494.43 L 44.76 494.43 L 44.76 503.52 Q 44.76 504.65 44.9 504.97 Q 45.04 505.29 45.36 505.48 Q 45.67 505.68 46.26 505.68 Q 46.7 505.68 47.42 505.57 Z  M 63.37 514.24 Q 61.18 511.49 59.67 507.79 Q 58.17 504.1 58.17 500.15 Q 58.17 496.66 59.29 493.47 Q 60.62 489.75 63.37 486.08 L 65.26 486.08 Q 63.5 489.13 62.92 490.44 Q 62.03 492.46 61.51 494.66 Q 60.89 497.4 60.89 500.16 Q 60.89 507.21 65.26 514.24 L 63.37 514.24 Z  M 68.63 507.93 L 68.63 486.46 L 71.55 486.46 L 82.83 503.32 L 82.83 486.46 L 85.55 486.46 L 85.55 507.93 L 82.64 507.93 L 71.36 491.05 L 71.36 507.93 L 68.63 507.93 Z  M 91.71 514.24 L 89.82 514.24 Q 94.21 507.21 94.21 500.16 Q 94.21 497.41 93.57 494.69 Q 93.07 492.5 92.18 490.47 Q 91.62 489.16 89.82 486.08 L 91.71 486.08 Q 94.46 489.75 95.79 493.47 Q 96.92 496.66 96.92 500.15 Q 96.92 504.1 95.4 507.79 Q 93.88 511.49 91.71 514.24 Z "/></g><line x1="155" y1="35" x2="155" y2="957" style="stroke-width: 0.5;stroke: rgb(192,192,192);stroke-opacity: 1.0;stroke-linejoin: bevel;stroke-dasharray: 2.0, 2.0;shape-rendering:crispEdges;" transform="matrix(1,0,0,1,0,0)" clip-path="url(#_334214187161200clip-2)"/><line x1="214.84" y1="35" x2="214.84" y2="957" style="stroke-width: 0.5;stroke: rgb(192,192,192);stroke-opacity: 1.0;stroke-linejoin: bevel;stroke-dasharray: 2.0, 2.0;shape-rendering:crispEdges;" transform="matrix(1,0,0,1,0,0)" clip-path="url(#_334214187161200clip-2)"/><line x1="274.68" y1="35" x2="274.68" y2="957" style="stroke-width: 0.5;stroke: rgb(192,192,192);stroke-opacity: 1.0;stroke-linejoin: bevel;stroke-dasharray: 2.0, 2.0;shape-rendering:crispEdges;" transform="matrix(1,0,0,1,0,0)" clip-path="url(#_334214187161200clip-2)"/><line x1="334.52" y1="35" x2="334.52" y2="957" style="stroke-width: 0.5;stroke: rgb(192,192,192);stroke-opacity: 1.0;stroke-linejoin: bevel;stroke-dasharray: 2.0, 2.0;shape-rendering:crispEdges;" transform="matrix(1,0,0,1,0,0)" clip-path="url(#_334214187161200clip-2)"/><line x1="394.36" y1="35" x2="394.36" y2="957" style="stroke-width: 0.5;stroke: rgb(192,192,192);stroke-opacity: 1.0;stroke-linejoin: bevel;stroke-dasharray: 2.0, 2.0;shape-rendering:crispEdges;" transform="matrix(1,0,0,1,0,0)" clip-path="url(#_334214187161200clip-2)"/><line x1="454.19" y1="35" x2="454.19" y2="957" style="stroke-width: 0.5;stroke: rgb(192,192,192);stroke-opacity: 1.0;stroke-linejoin: bevel;stroke-dasharray: 2.0, 2.0;shape-rendering:crispEdges;" transform="matrix(1,0,0,1,0,0)" clip-path="url(#_334214187161200clip-2)"/><line x1="514.03" y1="35" x2="514.03" y2="957" style="stroke-width: 0.5;stroke: rgb(192,192,192);stroke-opacity: 1.0;stroke-linejoin: bevel;stroke-dasharray: 2.0, 2.0;shape-rendering:crispEdges;" transform="matrix(1,0,0,1,0,0)" clip-path="url(#_334214187161200clip-2)"/><line x1="573.87" y1="35" x2="573.87" y2="957" style="stroke-width: 0.5;stroke: rgb(192,192,192);stroke-opacity: 1.0;stroke-linejoin: bevel;stroke-dasharray: 2.0, 2.0;shape-rendering:crispEdges;" transform="matrix(1,0,0,1,0,0)" clip-path="url(#_334214187161200clip-2)"/><line x1="633.71" y1="35" x2="633.71" y2="957" style="stroke-width: 0.5;stroke: rgb(192,192,192);stroke-opacity: 1.0;stroke-linejoin: bevel;stroke-dasharray: 2.0, 2.0;shape-rendering:crispEdges;" transform="matrix(1,0,0,1,0,0)" clip-path="url(#_334214187161200clip-2)"/><line x1="693.55" y1="35" x2="693.55" y2="957" style="stroke-width: 0.5;stroke: rgb(192,192,192);stroke-opacity: 1.0;stroke-linejoin: bevel;stroke-dasharray: 2.0, 2.0;shape-rendering:crispEdges;" transform="matrix(1,0,0,1,0,0)" clip-path="url(#_334214187161200clip-2)"/><line x1="753.39" y1="35" x2="753.39" y2="957" style="stroke-width: 0.5;stroke: rgb(192,192,192);stroke-opacity: 1.0;stroke-linejoin: bevel;stroke-dasharray: 2.0, 2.0;shape-rendering:crispEdges;" transform="matrix(1,0,0,1,0,0)" clip-path="url(#_334214187161200clip-2)"/><line x1="813.23" y1="35" x2="813.23" y2="957" style="stroke-width: 0.5;stroke: rgb(192,192,192);stroke-opacity: 1.0;stroke-linejoin: bevel;stroke-dasharray: 2.0, 2.0;shape-rendering:crispEdges;" transform="matrix(1,0,0,1,0,0)" clip-path="url(#_334214187161200clip-2)"/><line x1="873.07" y1="35" x2="873.07" y2="957" style="stroke-width: 0.5;stroke: rgb(192,192,192);stroke-opacity: 1.0;stroke-linejoin: bevel;stroke-dasharray: 2.0, 2.0;shape-rendering:crispEdges;" transform="matrix(1,0,0,1,0,0)" clip-path="url(#_334214187161200clip-2)"/><line x1="932.91" y1="35" x2="932.91" y2="957" style="stroke-width: 0.5;stroke: rgb(192,192,192);stroke-opacity: 1.0;stroke-linejoin: bevel;stroke-dasharray: 2.0, 2.0;shape-rendering:crispEdges;" transform="matrix(1,0,0,1,0,0)" clip-path="url(#_334214187161200clip-2)"/><line x1="992.75" y1="35" x2="992.75" y2="957" style="stroke-width: 0.5;stroke: rgb(192,192,192);stroke-opacity: 1.0;stroke-linejoin: bevel;stroke-dasharray: 2.0, 2.0;shape-rendering:crispEdges;" transform="matrix(1,0,0,1,0,0)" clip-path="url(#_334214187161200clip-2)"/><line x1="1052.58" y1="35" x2="1052.58" y2="957" style="stroke-width: 0.5;stroke: rgb(192,192,192);stroke-opacity: 1.0;stroke-linejoin: bevel;stroke-dasharray: 2.0, 2.0;shape-rendering:crispEdges;" transform="matrix(1,0,0,1,0,0)" clip-path="url(#_334214187161200clip-2)"/><line x1="1112.42" y1="35" x2="1112.42" y2="957" style="stroke-width: 0.5;stroke: rgb(192,192,192);stroke-opacity: 1.0;stroke-linejoin: bevel;stroke-dasharray: 2.0, 2.0;shape-rendering:crispEdges;" transform="matrix(1,0,0,1,0,0)" clip-path="url(#_334214187161200clip-2)"/><line x1="1172.26" y1="35" x2="1172.26" y2="957" style="stroke-width: 0.5;stroke: rgb(192,192,192);stroke-opacity: 1.0;stroke-linejoin: bevel;stroke-dasharray: 2.0, 2.0;shape-rendering:crispEdges;" transform="matrix(1,0,0,1,0,0)" clip-path="url(#_334214187161200clip-2)"/><line x1="1232.1" y1="35" x2="1232.1" y2="957" style="stroke-width: 0.5;stroke: rgb(192,192,192);stroke-opacity: 1.0;stroke-linejoin: bevel;stroke-dasharray: 2.0, 2.0;shape-rendering:crispEdges;" transform="matrix(1,0,0,1,0,0)" clip-path="url(#_334214187161200clip-2)"/><line x1="1291.94" y1="35" x2="1291.94" y2="957" style="stroke-width: 0.5;stroke: rgb(192,192,192);stroke-opacity: 1.0;stroke-linejoin: bevel;stroke-dasharray: 2.0, 2.0;shape-rendering:crispEdges;" transform="matrix(1,0,0,1,0,0)" clip-path="url(#_334214187161200clip-2)"/><line x1="1351.78" y1="35" x2="1351.78" y2="957" style="stroke-width: 0.5;stroke: rgb(192,192,192);stroke-opacity: 1.0;stroke-linejoin: bevel;stroke-dasharray: 2.0, 2.0;shape-rendering:crispEdges;" transform="matrix(1,0,0,1,0,0)" clip-path="url(#_334214187161200clip-2)"/><line x1="1411.62" y1="35" x2="1411.62" y2="957" style="stroke-width: 0.5;stroke: rgb(192,192,192);stroke-opacity: 1.0;stroke-linejoin: bevel;stroke-dasharray: 2.0, 2.0;shape-rendering:crispEdges;" transform="matrix(1,0,0,1,0,0)" clip-path="url(#_334214187161200clip-2)"/><line x1="1471.46" y1="35" x2="1471.46" y2="957" style="stroke-width: 0.5;stroke: rgb(192,192,192);stroke-opacity: 1.0;stroke-linejoin: bevel;stroke-dasharray: 2.0, 2.0;shape-rendering:crispEdges;" transform="matrix(1,0,0,1,0,0)" clip-path="url(#_334214187161200clip-2)"/><line x1="1531.3" y1="35" x2="1531.3" y2="957" style="stroke-width: 0.5;stroke: rgb(192,192,192);stroke-opacity: 1.0;stroke-linejoin: bevel;stroke-dasharray: 2.0, 2.0;shape-rendering:crispEdges;" transform="matrix(1,0,0,1,0,0)" clip-path="url(#_334214187161200clip-2)"/><line x1="1591.13" y1="35" x2="1591.13" y2="957" style="stroke-width: 0.5;stroke: rgb(192,192,192);stroke-opacity: 1.0;stroke-linejoin: bevel;stroke-dasharray: 2.0, 2.0;shape-rendering:crispEdges;" transform="matrix(1,0,0,1,0,0)" clip-path="url(#_334214187161200clip-2)"/><line x1="1650.97" y1="35" x2="1650.97" y2="957" style="stroke-width: 0.5;stroke: rgb(192,192,192);stroke-opacity: 1.0;stroke-linejoin: bevel;stroke-dasharray: 2.0, 2.0;shape-rendering:crispEdges;" transform="matrix(1,0,0,1,0,0)" clip-path="url(#_334214187161200clip-2)"/><line x1="1710.81" y1="35" x2="1710.81" y2="957" style="stroke-width: 0.5;stroke: rgb(192,192,192);stroke-opacity: 1.0;stroke-linejoin: bevel;stroke-dasharray: 2.0, 2.0;shape-rendering:crispEdges;" transform="matrix(1,0,0,1,0,0)" clip-path="url(#_334214187161200clip-2)"/><line x1="1770.65" y1="35" x2="1770.65" y2="957" style="stroke-width: 0.5;stroke: rgb(192,192,192);stroke-opacity: 1.0;stroke-linejoin: bevel;stroke-dasharray: 2.0, 2.0;shape-rendering:crispEdges;" transform="matrix(1,0,0,1,0,0)" clip-path="url(#_334214187161200clip-2)"/><line x1="1830.49" y1="35" x2="1830.49" y2="957" style="stroke-width: 0.5;stroke: rgb(192,192,192);stroke-opacity: 1.0;stroke-linejoin: bevel;stroke-dasharray: 2.0, 2.0;shape-rendering:crispEdges;" transform="matrix(1,0,0,1,0,0)" clip-path="url(#_334214187161200clip-2)"/><line x1="1890.33" y1="35" x2="1890.33" y2="957" style="stroke-width: 0.5;stroke: rgb(192,192,192);stroke-opacity: 1.0;stroke-linejoin: bevel;stroke-dasharray: 2.0, 2.0;shape-rendering:crispEdges;" transform="matrix(1,0,0,1,0,0)" clip-path="url(#_334214187161200clip-2)"/><line x1="155" y1="940.73" x2="1908" y2="940.73" style="stroke-width: 0.5;stroke: rgb(192,192,192);stroke-opacity: 1.0;stroke-linejoin: bevel;stroke-dasharray: 2.0, 2.0;shape-rendering:crispEdges;" transform="matrix(1,0,0,1,0,0)" clip-path="url(#_334214187161200clip-2)"/><line x1="155" y1="898.21" x2="1908" y2="898.21" style="stroke-width: 0.5;stroke: rgb(192,192,192);stroke-opacity: 1.0;stroke-linejoin: bevel;stroke-dasharray: 2.0, 2.0;shape-rendering:crispEdges;" transform="matrix(1,0,0,1,0,0)" clip-path="url(#_334214187161200clip-2)"/><line x1="155" y1="855.69" x2="1908" y2="855.69" style="stroke-width: 0.5;stroke: rgb(192,192,192);stroke-opacity: 1.0;stroke-linejoin: bevel;stroke-dasharray: 2.0, 2.0;shape-rendering:crispEdges;" transform="matrix(1,0,0,1,0,0)" clip-path="url(#_334214187161200clip-2)"/><line x1="155" y1="813.16" x2="1908" y2="813.16" style="stroke-width: 0.5;stroke: rgb(192,192,192);stroke-opacity: 1.0;stroke-linejoin: bevel;stroke-dasharray: 2.0, 2.0;shape-rendering:crispEdges;" transform="matrix(1,0,0,1,0,0)" clip-path="url(#_334214187161200clip-2)"/><line x1="155" y1="770.64" x2="1908" y2="770.64" style="stroke-width: 0.5;stroke: rgb(192,192,192);stroke-opacity: 1.0;stroke-linejoin: bevel;stroke-dasharray: 2.0, 2.0;shape-rendering:crispEdges;" transform="matrix(1,0,0,1,0,0)" clip-path="url(#_334214187161200clip-2)"/><line x1="155" y1="728.11" x2="1908" y2="728.11" style="stroke-width: 0.5;stroke: rgb(192,192,192);stroke-opacity: 1.0;stroke-linejoin: bevel;stroke-dasharray: 2.0, 2.0;shape-rendering:crispEdges;" transform="matrix(1,0,0,1,0,0)" clip-path="url(#_334214187161200clip-2)"/><line x1="155" y1="685.59" x2="1908" y2="685.59" style="stroke-width: 0.5;stroke: rgb(192,192,192);stroke-opacity: 1.0;stroke-linejoin: bevel;stroke-dasharray: 2.0, 2.0;shape-rendering:crispEdges;" transform="matrix(1,0,0,1,0,0)" clip-path="url(#_334214187161200clip-2)"/><line x1="155" y1="643.07" x2="1908" y2="643.07" style="stroke-width: 0.5;stroke: rgb(192,192,192);stroke-opacity: 1.0;stroke-linejoin: bevel;stroke-dasharray: 2.0, 2.0;shape-rendering:crispEdges;" transform="matrix(1,0,0,1,0,0)" clip-path="url(#_334214187161200clip-2)"/><line x1="155" y1="600.54" x2="1908" y2="600.54" style="stroke-width: 0.5;stroke: rgb(192,192,192);stroke-opacity: 1.0;stroke-linejoin: bevel;stroke-dasharray: 2.0, 2.0;shape-rendering:crispEdges;" transform="matrix(1,0,0,1,0,0)" clip-path="url(#_334214187161200clip-2)"/><line x1="155" y1="558.02" x2="1908" y2="558.02" style="stroke-width: 0.5;stroke: rgb(192,192,192);stroke-opacity: 1.0;stroke-linejoin: bevel;stroke-dasharray: 2.0, 2.0;shape-rendering:crispEdges;" transform="matrix(1,0,0,1,0,0)" clip-path="url(#_334214187161200clip-2)"/><line x1="155" y1="515.5" x2="1908" y2="515.5" style="stroke-width: 0.5;stroke: rgb(192,192,192);stroke-opacity: 1.0;stroke-linejoin: bevel;stroke-dasharray: 2.0, 2.0;shape-rendering:crispEdges;" transform="matrix(1,0,0,1,0,0)" clip-path="url(#_334214187161200clip-2)"/><line x1="155" y1="472.97" x2="1908" y2="472.97" style="stroke-width: 0.5;stroke: rgb(192,192,192);stroke-opacity: 1.0;stroke-linejoin: bevel;stroke-dasharray: 2.0, 2.0;shape-rendering:crispEdges;" transform="matrix(1,0,0,1,0,0)" clip-path="url(#_334214187161200clip-2)"/><line x1="155" y1="430.45" x2="1908" y2="430.45" style="stroke-width: 0.5;stroke: rgb(192,192,192);stroke-opacity: 1.0;stroke-linejoin: bevel;stroke-dasharray: 2.0, 2.0;shape-rendering:crispEdges;" transform="matrix(1,0,0,1,0,0)" clip-path="url(#_334214187161200clip-2)"/><line x1="155" y1="387.92" x2="1908" y2="387.92" style="stroke-width: 0.5;stroke: rgb(192,192,192);stroke-opacity: 1.0;stroke-linejoin: bevel;stroke-dasharray: 2.0, 2.0;shape-rendering:crispEdges;" transform="matrix(1,0,0,1,0,0)" clip-path="url(#_334214187161200clip-2)"/><line x1="155" y1="345.4" x2="1908" y2="345.4" style="stroke-width: 0.5;stroke: rgb(192,192,192);stroke-opacity: 1.0;stroke-linejoin: bevel;stroke-dasharray: 2.0, 2.0;shape-rendering:crispEdges;" transform="matrix(1,0,0,1,0,0)" clip-path="url(#_334214187161200clip-2)"/><line x1="155" y1="302.88" x2="1908" y2="302.88" style="stroke-width: 0.5;stroke: rgb(192,192,192);stroke-opacity: 1.0;stroke-linejoin: bevel;stroke-dasharray: 2.0, 2.0;shape-rendering:crispEdges;" transform="matrix(1,0,0,1,0,0)" clip-path="url(#_334214187161200clip-2)"/><line x1="155" y1="260.35" x2="1908" y2="260.35" style="stroke-width: 0.5;stroke: rgb(192,192,192);stroke-opacity: 1.0;stroke-linejoin: bevel;stroke-dasharray: 2.0, 2.0;shape-rendering:crispEdges;" transform="matrix(1,0,0,1,0,0)" clip-path="url(#_334214187161200clip-2)"/><line x1="155" y1="217.83" x2="1908" y2="217.83" style="stroke-width: 0.5;stroke: rgb(192,192,192);stroke-opacity: 1.0;stroke-linejoin: bevel;stroke-dasharray: 2.0, 2.0;shape-rendering:crispEdges;" transform="matrix(1,0,0,1,0,0)" clip-path="url(#_334214187161200clip-2)"/><line x1="155" y1="175.3" x2="1908" y2="175.3" style="stroke-width: 0.5;stroke: rgb(192,192,192);stroke-opacity: 1.0;stroke-linejoin: bevel;stroke-dasharray: 2.0, 2.0;shape-rendering:crispEdges;" transform="matrix(1,0,0,1,0,0)" clip-path="url(#_334214187161200clip-2)"/><line x1="155" y1="132.78" x2="1908" y2="132.78" style="stroke-width: 0.5;stroke: rgb(192,192,192);stroke-opacity: 1.0;stroke-linejoin: bevel;stroke-dasharray: 2.0, 2.0;shape-rendering:crispEdges;" transform="matrix(1,0,0,1,0,0)" clip-path="url(#_334214187161200clip-2)"/><line x1="155" y1="90.26" x2="1908" y2="90.26" style="stroke-width: 0.5;stroke: rgb(192,192,192);stroke-opacity: 1.0;stroke-linejoin: bevel;stroke-dasharray: 2.0, 2.0;shape-rendering:crispEdges;" transform="matrix(1,0,0,1,0,0)" clip-path="url(#_334214187161200clip-2)"/><line x1="155" y1="47.73" x2="1908" y2="47.73" style="stroke-width: 0.5;stroke: rgb(192,192,192);stroke-opacity: 1.0;stroke-linejoin: bevel;stroke-dasharray: 2.0, 2.0;shape-rendering:crispEdges;" transform="matrix(1,0,0,1,0,0)" clip-path="url(#_334214187161200clip-2)"/><line x1="155" y1="925.33" x2="566.58" y2="931.38" style="stroke-width: 1.0;stroke: rgb(64,64,64);stroke-opacity: 1.0;stroke-linecap: square;stroke-linejoin: bevel;shape-rendering:geometricPrecision;" transform="matrix(1,0,0,1,0,0)" clip-path="url(#_334214187161200clip-2)"/><line x1="566.58" y1="931.38" x2="964.47" y2="938.18" style="stroke-width: 1.0;stroke: rgb(64,64,64);stroke-opacity: 1.0;stroke-linecap: square;stroke-linejoin: bevel;shape-rendering:geometricPrecision;" transform="matrix(1,0,0,1,0,0)" clip-path="url(#_334214187161200clip-2)"/><line x1="964.47" y1="938.18" x2="1350.25" y2="944.91" style="stroke-width: 1.0;stroke: rgb(64,64,64);stroke-opacity: 1.0;stroke-linecap: square;stroke-linejoin: bevel;shape-rendering:geometricPrecision;" transform="matrix(1,0,0,1,0,0)" clip-path="url(#_334214187161200clip-2)"/><line x1="1350.25" y1="944.91" x2="1748.64" y2="951.66" style="stroke-width: 1.0;stroke: rgb(64,64,64);stroke-opacity: 1.0;stroke-linecap: square;stroke-linejoin: bevel;shape-rendering:geometricPrecision;" transform="matrix(1,0,0,1,0,0)" clip-path="url(#_334214187161200clip-2)"/><line x1="155" y1="491.03" x2="566.58" y2="403.33" style="stroke-width: 3.0;stroke: rgb(192,192,0);stroke-opacity: 1.0;stroke-linecap: round;stroke-linejoin: round;stroke-dasharray: 10.0, 5.0;shape-rendering:geometricPrecision;" transform="matrix(1,0,0,1,0,0)" clip-path="url(#_334214187161200clip-2)"/><line x1="566.58" y1="403.33" x2="964.47" y2="306.27" style="stroke-width: 3.0;stroke: rgb(192,192,0);stroke-opacity: 1.0;stroke-linecap: round;stroke-linejoin: round;stroke-dasharray: 10.0, 5.0;shape-rendering:geometricPrecision;" transform="matrix(1,0,0,1,0,0)" clip-path="url(#_334214187161200clip-2)"/><line x1="964.47" y1="306.27" x2="1350.25" y2="210.92" style="stroke-width: 3.0;stroke: rgb(192,192,0);stroke-opacity: 1.0;stroke-linecap: round;stroke-linejoin: round;stroke-dasharray: 10.0, 5.0;shape-rendering:geometricPrecision;" transform="matrix(1,0,0,1,0,0)" clip-path="url(#_334214187161200clip-2)"/><line x1="1350.25" y1="210.92" x2="1748.64" y2="113.47" style="stroke-width: 3.0;stroke: rgb(192,192,0);stroke-opacity: 1.0;stroke-linecap: round;stroke-linejoin: round;stroke-dasharray: 10.0, 5.0;shape-rendering:geometricPrecision;" transform="matrix(1,0,0,1,0,0)" clip-path="url(#_334214187161200clip-2)"/><line x1="155" y1="910.38" x2="566.58" y2="871.04" style="stroke-width: 3.0;stroke: rgb(0,192,0);stroke-opacity: 1.0;stroke-linecap: square;shape-rendering:geometricPrecision;" transform="matrix(1,0,0,1,0,0)" clip-path="url(#_334214187161200clip-2)"/><line x1="566.58" y1="871.04" x2="964.47" y2="806.09" style="stroke-width: 3.0;stroke: rgb(0,192,0);stroke-opacity: 1.0;stroke-linecap: square;shape-rendering:geometricPrecision;" transform="matrix(1,0,0,1,0,0)" clip-path="url(#_334214187161200clip-2)"/><line x1="964.47" y1="806.09" x2="1350.25" y2="801.06" style="stroke-width: 3.0;stroke: rgb(0,192,0);stroke-opacity: 1.0;stroke-linecap: square;shape-rendering:geometricPrecision;" transform="matrix(1,0,0,1,0,0)" clip-path="url(#_334214187161200clip-2)"/><line x1="1350.25" y1="801.06" x2="1748.64" y2="835.73" style="stroke-width: 3.0;stroke: rgb(0,192,0);stroke-opacity: 1.0;stroke-linecap: square;shape-rendering:geometricPrecision;" transform="matrix(1,0,0,1,0,0)" clip-path="url(#_334214187161200clip-2)"/><rect x="155" y="35" width="1753" height="922" style="stroke-width: 0.5;stroke: rgb(0,0,0);stroke-opacity: 1.0;stroke-linecap: round;stroke-linejoin: round;shape-rendering:crispEdges;; fill: none" transform="matrix(1,0,0,1,0,0)" clip-path="url(#_334214187161200clip-0)"/></svg>
