<!DOCTYPE svg PUBLIC "-//W3C//DTD SVG 1.1//EN" "http://www.w3.org/Graphics/SVG/1.1/DTD/svg11.dtd">
<svg xmlns="http://www.w3.org/2000/svg" xmlns:xlink="http://www.w3.org/1999/xlink" xmlns:jfreesvg="http://www.jfree.org/jfreesvg/svg" width="1152" height="768" text-rendering="auto" shape-rendering="auto">
<defs><clipPath id="_1293039742495370clip-0"><path d="M 0 0 L 1152 0 L 1152 768 L 0 768 L 0 0 Z "/></clipPath>
<clipPath id="_1293039742495370clip-1"><path d="M 384.5 345.5 L 384.5 1497.5 L -383.5 1497.5 L -383.5 345.5 L 384.5 345.5 Z "/></clipPath>
<clipPath id="_1293039742495370clip-2"><path d="M 84 35 L 84 695 L 1140 695 L 1140 35 Z "/></clipPath>
</defs>
<rect x="0" y="0" width="1152" height="768" style="fill: rgb(255,255,255); fill-opacity: 1.0" transform="matrix(1,0,0,1,0,0)" clip-path="url(#_1293039742495370clip-0)"/><g transform="matrix(1,0,0,1,0,0)"><text x="439" y="21.01" style="fill: rgb(0,0,0); fill-opacity: 1.0; font-family: Tahoma; font-size: 20px; font-weight: bold;" clip-path="url(#_1293039742495370clip-0)">Moment_Coefficient_Curve</text></g><rect x="489" y="746" width="174" height="21" style="fill: rgb(255,255,255); fill-opacity: 1.0" transform="matrix(1,0,0,1,0,0)" clip-path="url(#_1293039742495370clip-0)"/><g style="stroke-width: 3.0;stroke: rgb(0,0,0);stroke-opacity: 1.0;stroke-linecap: square;shape-rendering:geometricPrecision;; fill: none" transform="matrix(1,0,0,1,0,0)" clip-path="url(#_1293039742495370clip-0)"><path d="M 492 756.5 L 506 756.5"/></g><g transform="matrix(1,0,0,1,0,0)"><text x="510" y="761.01" style="fill: rgb(64,64,64); fill-opacity: 1.0; font-family: Tahoma; font-size: 12px;" clip-path="url(#_1293039742495370clip-0)"> Moment_Coefficient_Curve </text></g><rect x="84" y="35" width="1056" height="660" style="fill: rgb(255,255,255); fill-opacity: 0.0" transform="matrix(1,0,0,1,0,0)" clip-path="url(#_1293039742495370clip-0)"/><line x1="84" y1="699" x2="1140" y2="699" style="stroke-width: 0.5;stroke: rgb(128,128,128);stroke-opacity: 1.0;stroke-linecap: square;shape-rendering:crispEdges;" transform="matrix(1,0,0,1,0,0)" clip-path="url(#_1293039742495370clip-0)"/><g transform="matrix(1,0,0,1,0,0)"><text x="108.67" y="715.52" style="fill: rgb(64,64,64); fill-opacity: 1.0; font-family: Tahoma; font-size: 12px;" clip-path="url(#_1293039742495370clip-0)">-5,0</text></g><line x1="119.17" y1="701" x2="119.17" y2="699" style="stroke-width: 0.5;stroke: rgb(128,128,128);stroke-opacity: 1.0;stroke-linecap: square;shape-rendering:crispEdges;" transform="matrix(1,0,0,1,0,0)" clip-path="url(#_1293039742495370clip-0)"/><g transform="matrix(1,0,0,1,0,0)"><text x="154.47" y="715.52" style="fill: rgb(64,64,64); fill-opacity: 1.0; font-family: Tahoma; font-size: 12px;" clip-path="url(#_1293039742495370clip-0)">-4,5</text></g><line x1="164.97" y1="701" x2="164.97" y2="699" style="stroke-width: 0.5;stroke: rgb(128,128,128);stroke-opacity: 1.0;stroke-linecap: square;shape-rendering:crispEdges;" transform="matrix(1,0,0,1,0,0)" clip-path="url(#_1293039742495370clip-0)"/><g transform="matrix(1,0,0,1,0,0)"><text x="200.26" y="715.52" style="fill: rgb(64,64,64); fill-opacity: 1.0; font-family: Tahoma; font-size: 12px;" clip-path="url(#_1293039742495370clip-0)">-4,0</text></g><line x1="210.76" y1="701" x2="210.76" y2="699" style="stroke-width: 0.5;stroke: rgb(128,128,128);stroke-opacity: 1.0;stroke-linecap: square;shape-rendering:crispEdges;" transform="matrix(1,0,0,1,0,0)" clip-path="url(#_1293039742495370clip-0)"/><g transform="matrix(1,0,0,1,0,0)"><text x="246.06" y="715.52" style="fill: rgb(64,64,64); fill-opacity: 1.0; font-family: Tahoma; font-size: 12px;" clip-path="url(#_1293039742495370clip-0)">-3,5</text></g><line x1="256.56" y1="701" x2="256.56" y2="699" style="stroke-width: 0.5;stroke: rgb(128,128,128);stroke-opacity: 1.0;stroke-linecap: square;shape-rendering:crispEdges;" transform="matrix(1,0,0,1,0,0)" clip-path="url(#_1293039742495370clip-0)"/><g transform="matrix(1,0,0,1,0,0)"><text x="291.85" y="715.52" style="fill: rgb(64,64,64); fill-opacity: 1.0; font-family: Tahoma; font-size: 12px;" clip-path="url(#_1293039742495370clip-0)">-3,0</text></g><line x1="302.35" y1="701" x2="302.35" y2="699" style="stroke-width: 0.5;stroke: rgb(128,128,128);stroke-opacity: 1.0;stroke-linecap: square;shape-rendering:crispEdges;" transform="matrix(1,0,0,1,0,0)" clip-path="url(#_1293039742495370clip-0)"/><g transform="matrix(1,0,0,1,0,0)"><text x="337.65" y="715.52" style="fill: rgb(64,64,64); fill-opacity: 1.0; font-family: Tahoma; font-size: 12px;" clip-path="url(#_1293039742495370clip-0)">-2,5</text></g><line x1="348.15" y1="701" x2="348.15" y2="699" style="stroke-width: 0.5;stroke: rgb(128,128,128);stroke-opacity: 1.0;stroke-linecap: square;shape-rendering:crispEdges;" transform="matrix(1,0,0,1,0,0)" clip-path="url(#_1293039742495370clip-0)"/><g transform="matrix(1,0,0,1,0,0)"><text x="383.44" y="715.52" style="fill: rgb(64,64,64); fill-opacity: 1.0; font-family: Tahoma; font-size: 12px;" clip-path="url(#_1293039742495370clip-0)">-2,0</text></g><line x1="393.94" y1="701" x2="393.94" y2="699" style="stroke-width: 0.5;stroke: rgb(128,128,128);stroke-opacity: 1.0;stroke-linecap: square;shape-rendering:crispEdges;" transform="matrix(1,0,0,1,0,0)" clip-path="url(#_1293039742495370clip-0)"/><g transform="matrix(1,0,0,1,0,0)"><text x="429.24" y="715.52" style="fill: rgb(64,64,64); fill-opacity: 1.0; font-family: Tahoma; font-size: 12px;" clip-path="url(#_1293039742495370clip-0)">-1,5</text></g><line x1="439.74" y1="701" x2="439.74" y2="699" style="stroke-width: 0.5;stroke: rgb(128,128,128);stroke-opacity: 1.0;stroke-linecap: square;shape-rendering:crispEdges;" transform="matrix(1,0,0,1,0,0)" clip-path="url(#_1293039742495370clip-0)"/><g transform="matrix(1,0,0,1,0,0)"><text x="475.03" y="715.52" style="fill: rgb(64,64,64); fill-opacity: 1.0; font-family: Tahoma; font-size: 12px;" clip-path="url(#_1293039742495370clip-0)">-1,0</text></g><line x1="485.53" y1="701" x2="485.53" y2="699" style="stroke-width: 0.5;stroke: rgb(128,128,128);stroke-opacity: 1.0;stroke-linecap: square;shape-rendering:crispEdges;" transform="matrix(1,0,0,1,0,0)" clip-path="url(#_1293039742495370clip-0)"/><g transform="matrix(1,0,0,1,0,0)"><text x="520.83" y="715.52" style="fill: rgb(64,64,64); fill-opacity: 1.0; font-family: Tahoma; font-size: 12px;" clip-path="url(#_1293039742495370clip-0)">-0,5</text></g><line x1="531.33" y1="701" x2="531.33" y2="699" style="stroke-width: 0.5;stroke: rgb(128,128,128);stroke-opacity: 1.0;stroke-linecap: square;shape-rendering:crispEdges;" transform="matrix(1,0,0,1,0,0)" clip-path="url(#_1293039742495370clip-0)"/><g transform="matrix(1,0,0,1,0,0)"><text x="568.62" y="715.52" style="fill: rgb(64,64,64); fill-opacity: 1.0; font-family: Tahoma; font-size: 12px;" clip-path="url(#_1293039742495370clip-0)">0,0</text></g><line x1="577.12" y1="701" x2="577.12" y2="699" style="stroke-width: 0.5;stroke: rgb(128,128,128);stroke-opacity: 1.0;stroke-linecap: square;shape-rendering:crispEdges;" transform="matrix(1,0,0,1,0,0)" clip-path="url(#_1293039742495370clip-0)"/><g transform="matrix(1,0,0,1,0,0)"><text x="614.42" y="715.52" style="fill: rgb(64,64,64); fill-opacity: 1.0; font-family: Tahoma; font-size: 12px;" clip-path="url(#_1293039742495370clip-0)">0,5</text></g><line x1="622.92" y1="701" x2="622.92" y2="699" style="stroke-width: 0.5;stroke: rgb(128,128,128);stroke-opacity: 1.0;stroke-linecap: square;shape-rendering:crispEdges;" transform="matrix(1,0,0,1,0,0)" clip-path="url(#_1293039742495370clip-0)"/><g transform="matrix(1,0,0,1,0,0)"><text x="660.21" y="715.52" style="fill: rgb(64,64,64); fill-opacity: 1.0; font-family: Tahoma; font-size: 12px;" clip-path="url(#_1293039742495370clip-0)">1,0</text></g><line x1="668.71" y1="701" x2="668.71" y2="699" style="stroke-width: 0.5;stroke: rgb(128,128,128);stroke-opacity: 1.0;stroke-linecap: square;shape-rendering:crispEdges;" transform="matrix(1,0,0,1,0,0)" clip-path="url(#_1293039742495370clip-0)"/><g transform="matrix(1,0,0,1,0,0)"><text x="706.01" y="715.52" style="fill: rgb(64,64,64); fill-opacity: 1.0; font-family: Tahoma; font-size: 12px;" clip-path="url(#_1293039742495370clip-0)">1,5</text></g><line x1="714.51" y1="701" x2="714.51" y2="699" style="stroke-width: 0.5;stroke: rgb(128,128,128);stroke-opacity: 1.0;stroke-linecap: square;shape-rendering:crispEdges;" transform="matrix(1,0,0,1,0,0)" clip-path="url(#_1293039742495370clip-0)"/><g transform="matrix(1,0,0,1,0,0)"><text x="751.8" y="715.52" style="fill: rgb(64,64,64); fill-opacity: 1.0; font-family: Tahoma; font-size: 12px;" clip-path="url(#_1293039742495370clip-0)">2,0</text></g><line x1="760.3" y1="701" x2="760.3" y2="699" style="stroke-width: 0.5;stroke: rgb(128,128,128);stroke-opacity: 1.0;stroke-linecap: square;shape-rendering:crispEdges;" transform="matrix(1,0,0,1,0,0)" clip-path="url(#_1293039742495370clip-0)"/><g transform="matrix(1,0,0,1,0,0)"><text x="797.6" y="715.52" style="fill: rgb(64,64,64); fill-opacity: 1.0; font-family: Tahoma; font-size: 12px;" clip-path="url(#_1293039742495370clip-0)">2,5</text></g><line x1="806.1" y1="701" x2="806.1" y2="699" style="stroke-width: 0.5;stroke: rgb(128,128,128);stroke-opacity: 1.0;stroke-linecap: square;shape-rendering:crispEdges;" transform="matrix(1,0,0,1,0,0)" clip-path="url(#_1293039742495370clip-0)"/><g transform="matrix(1,0,0,1,0,0)"><text x="843.39" y="715.52" style="fill: rgb(64,64,64); fill-opacity: 1.0; font-family: Tahoma; font-size: 12px;" clip-path="url(#_1293039742495370clip-0)">3,0</text></g><line x1="851.89" y1="701" x2="851.89" y2="699" style="stroke-width: 0.5;stroke: rgb(128,128,128);stroke-opacity: 1.0;stroke-linecap: square;shape-rendering:crispEdges;" transform="matrix(1,0,0,1,0,0)" clip-path="url(#_1293039742495370clip-0)"/><g transform="matrix(1,0,0,1,0,0)"><text x="889.19" y="715.52" style="fill: rgb(64,64,64); fill-opacity: 1.0; font-family: Tahoma; font-size: 12px;" clip-path="url(#_1293039742495370clip-0)">3,5</text></g><line x1="897.69" y1="701" x2="897.69" y2="699" style="stroke-width: 0.5;stroke: rgb(128,128,128);stroke-opacity: 1.0;stroke-linecap: square;shape-rendering:crispEdges;" transform="matrix(1,0,0,1,0,0)" clip-path="url(#_1293039742495370clip-0)"/><g transform="matrix(1,0,0,1,0,0)"><text x="934.98" y="715.52" style="fill: rgb(64,64,64); fill-opacity: 1.0; font-family: Tahoma; font-size: 12px;" clip-path="url(#_1293039742495370clip-0)">4,0</text></g><line x1="943.48" y1="701" x2="943.48" y2="699" style="stroke-width: 0.5;stroke: rgb(128,128,128);stroke-opacity: 1.0;stroke-linecap: square;shape-rendering:crispEdges;" transform="matrix(1,0,0,1,0,0)" clip-path="url(#_1293039742495370clip-0)"/><g transform="matrix(1,0,0,1,0,0)"><text x="980.78" y="715.52" style="fill: rgb(64,64,64); fill-opacity: 1.0; font-family: Tahoma; font-size: 12px;" clip-path="url(#_1293039742495370clip-0)">4,5</text></g><line x1="989.28" y1="701" x2="989.28" y2="699" style="stroke-width: 0.5;stroke: rgb(128,128,128);stroke-opacity: 1.0;stroke-linecap: square;shape-rendering:crispEdges;" transform="matrix(1,0,0,1,0,0)" clip-path="url(#_1293039742495370clip-0)"/><g transform="matrix(1,0,0,1,0,0)"><text x="1026.57" y="715.52" style="fill: rgb(64,64,64); fill-opacity: 1.0; font-family: Tahoma; font-size: 12px;" clip-path="url(#_1293039742495370clip-0)">5,0</text></g><line x1="1035.07" y1="701" x2="1035.07" y2="699" style="stroke-width: 0.5;stroke: rgb(128,128,128);stroke-opacity: 1.0;stroke-linecap: square;shape-rendering:crispEdges;" transform="matrix(1,0,0,1,0,0)" clip-path="url(#_1293039742495370clip-0)"/><g transform="matrix(1,0,0,1,0,0)"><text x="1072.37" y="715.52" style="fill: rgb(64,64,64); fill-opacity: 1.0; font-family: Tahoma; font-size: 12px;" clip-path="url(#_1293039742495370clip-0)">5,5</text></g><line x1="1080.87" y1="701" x2="1080.87" y2="699" style="stroke-width: 0.5;stroke: rgb(128,128,128);stroke-opacity: 1.0;stroke-linecap: square;shape-rendering:crispEdges;" transform="matrix(1,0,0,1,0,0)" clip-path="url(#_1293039742495370clip-0)"/><g transform="matrix(1,0,0,1,0,0)"><text x="1118.16" y="715.52" style="fill: rgb(64,64,64); fill-opacity: 1.0; font-family: Tahoma; font-size: 12px;" clip-path="url(#_1293039742495370clip-0)">6,0</text></g><line x1="1126.66" y1="701" x2="1126.66" y2="699" style="stroke-width: 0.5;stroke: rgb(128,128,128);stroke-opacity: 1.0;stroke-linecap: square;shape-rendering:crispEdges;" transform="matrix(1,0,0,1,0,0)" clip-path="url(#_1293039742495370clip-0)"/><g transform="matrix(1,0,0,1,0,0)"><text x="562.5" y="734.59" style="fill: rgb(64,64,64); fill-opacity: 1.0; font-family: Tahoma; font-size: 14px; font-weight: bold;" clip-path="url(#_1293039742495370clip-0)">alpha_h (deg)</text></g><line x1="80" y1="35" x2="80" y2="695" style="stroke-width: 0.5;stroke: rgb(128,128,128);stroke-opacity: 1.0;stroke-linecap: square;shape-rendering:crispEdges;" transform="matrix(1,0,0,1,0,0)" clip-path="url(#_1293039742495370clip-0)"/><g transform="matrix(1,0,0,1,0,0)"><text x="33" y="669.25" style="fill: rgb(64,64,64); fill-opacity: 1.0; font-family: Tahoma; font-size: 12px;" clip-path="url(#_1293039742495370clip-0)">-0,0065</text></g><line x1="78" y1="664.23" x2="80" y2="664.23" style="stroke-width: 0.5;stroke: rgb(128,128,128);stroke-opacity: 1.0;stroke-linecap: square;shape-rendering:crispEdges;" transform="matrix(1,0,0,1,0,0)" clip-path="url(#_1293039742495370clip-0)"/><g transform="matrix(1,0,0,1,0,0)"><text x="33" y="625.66" style="fill: rgb(64,64,64); fill-opacity: 1.0; font-family: Tahoma; font-size: 12px;" clip-path="url(#_1293039742495370clip-0)">-0,0060</text></g><line x1="78" y1="620.63" x2="80" y2="620.63" style="stroke-width: 0.5;stroke: rgb(128,128,128);stroke-opacity: 1.0;stroke-linecap: square;shape-rendering:crispEdges;" transform="matrix(1,0,0,1,0,0)" clip-path="url(#_1293039742495370clip-0)"/><g transform="matrix(1,0,0,1,0,0)"><text x="33" y="582.06" style="fill: rgb(64,64,64); fill-opacity: 1.0; font-family: Tahoma; font-size: 12px;" clip-path="url(#_1293039742495370clip-0)">-0,0055</text></g><line x1="78" y1="577.04" x2="80" y2="577.04" style="stroke-width: 0.5;stroke: rgb(128,128,128);stroke-opacity: 1.0;stroke-linecap: square;shape-rendering:crispEdges;" transform="matrix(1,0,0,1,0,0)" clip-path="url(#_1293039742495370clip-0)"/><g transform="matrix(1,0,0,1,0,0)"><text x="33" y="538.47" style="fill: rgb(64,64,64); fill-opacity: 1.0; font-family: Tahoma; font-size: 12px;" clip-path="url(#_1293039742495370clip-0)">-0,0050</text></g><line x1="78" y1="533.45" x2="80" y2="533.45" style="stroke-width: 0.5;stroke: rgb(128,128,128);stroke-opacity: 1.0;stroke-linecap: square;shape-rendering:crispEdges;" transform="matrix(1,0,0,1,0,0)" clip-path="url(#_1293039742495370clip-0)"/><g transform="matrix(1,0,0,1,0,0)"><text x="33" y="494.87" style="fill: rgb(64,64,64); fill-opacity: 1.0; font-family: Tahoma; font-size: 12px;" clip-path="url(#_1293039742495370clip-0)">-0,0045</text></g><line x1="78" y1="489.85" x2="80" y2="489.85" style="stroke-width: 0.5;stroke: rgb(128,128,128);stroke-opacity: 1.0;stroke-linecap: square;shape-rendering:crispEdges;" transform="matrix(1,0,0,1,0,0)" clip-path="url(#_1293039742495370clip-0)"/><g transform="matrix(1,0,0,1,0,0)"><text x="33" y="451.28" style="fill: rgb(64,64,64); fill-opacity: 1.0; font-family: Tahoma; font-size: 12px;" clip-path="url(#_1293039742495370clip-0)">-0,0040</text></g><line x1="78" y1="446.26" x2="80" y2="446.26" style="stroke-width: 0.5;stroke: rgb(128,128,128);stroke-opacity: 1.0;stroke-linecap: square;shape-rendering:crispEdges;" transform="matrix(1,0,0,1,0,0)" clip-path="url(#_1293039742495370clip-0)"/><g transform="matrix(1,0,0,1,0,0)"><text x="33" y="407.69" style="fill: rgb(64,64,64); fill-opacity: 1.0; font-family: Tahoma; font-size: 12px;" clip-path="url(#_1293039742495370clip-0)">-0,0035</text></g><line x1="78" y1="402.66" x2="80" y2="402.66" style="stroke-width: 0.5;stroke: rgb(128,128,128);stroke-opacity: 1.0;stroke-linecap: square;shape-rendering:crispEdges;" transform="matrix(1,0,0,1,0,0)" clip-path="url(#_1293039742495370clip-0)"/><g transform="matrix(1,0,0,1,0,0)"><text x="33" y="364.09" style="fill: rgb(64,64,64); fill-opacity: 1.0; font-family: Tahoma; font-size: 12px;" clip-path="url(#_1293039742495370clip-0)">-0,0030</text></g><line x1="78" y1="359.07" x2="80" y2="359.07" style="stroke-width: 0.5;stroke: rgb(128,128,128);stroke-opacity: 1.0;stroke-linecap: square;shape-rendering:crispEdges;" transform="matrix(1,0,0,1,0,0)" clip-path="url(#_1293039742495370clip-0)"/><g transform="matrix(1,0,0,1,0,0)"><text x="33" y="320.5" style="fill: rgb(64,64,64); fill-opacity: 1.0; font-family: Tahoma; font-size: 12px;" clip-path="url(#_1293039742495370clip-0)">-0,0025</text></g><line x1="78" y1="315.48" x2="80" y2="315.48" style="stroke-width: 0.5;stroke: rgb(128,128,128);stroke-opacity: 1.0;stroke-linecap: square;shape-rendering:crispEdges;" transform="matrix(1,0,0,1,0,0)" clip-path="url(#_1293039742495370clip-0)"/><g transform="matrix(1,0,0,1,0,0)"><text x="33" y="276.9" style="fill: rgb(64,64,64); fill-opacity: 1.0; font-family: Tahoma; font-size: 12px;" clip-path="url(#_1293039742495370clip-0)">-0,0020</text></g><line x1="78" y1="271.88" x2="80" y2="271.88" style="stroke-width: 0.5;stroke: rgb(128,128,128);stroke-opacity: 1.0;stroke-linecap: square;shape-rendering:crispEdges;" transform="matrix(1,0,0,1,0,0)" clip-path="url(#_1293039742495370clip-0)"/><g transform="matrix(1,0,0,1,0,0)"><text x="33" y="233.31" style="fill: rgb(64,64,64); fill-opacity: 1.0; font-family: Tahoma; font-size: 12px;" clip-path="url(#_1293039742495370clip-0)">-0,0015</text></g><line x1="78" y1="228.29" x2="80" y2="228.29" style="stroke-width: 0.5;stroke: rgb(128,128,128);stroke-opacity: 1.0;stroke-linecap: square;shape-rendering:crispEdges;" transform="matrix(1,0,0,1,0,0)" clip-path="url(#_1293039742495370clip-0)"/><g transform="matrix(1,0,0,1,0,0)"><text x="33" y="189.72" style="fill: rgb(64,64,64); fill-opacity: 1.0; font-family: Tahoma; font-size: 12px;" clip-path="url(#_1293039742495370clip-0)">-0,0010</text></g><line x1="78" y1="184.69" x2="80" y2="184.69" style="stroke-width: 0.5;stroke: rgb(128,128,128);stroke-opacity: 1.0;stroke-linecap: square;shape-rendering:crispEdges;" transform="matrix(1,0,0,1,0,0)" clip-path="url(#_1293039742495370clip-0)"/><g transform="matrix(1,0,0,1,0,0)"><text x="33" y="146.12" style="fill: rgb(64,64,64); fill-opacity: 1.0; font-family: Tahoma; font-size: 12px;" clip-path="url(#_1293039742495370clip-0)">-0,0005</text></g><line x1="78" y1="141.1" x2="80" y2="141.1" style="stroke-width: 0.5;stroke: rgb(128,128,128);stroke-opacity: 1.0;stroke-linecap: square;shape-rendering:crispEdges;" transform="matrix(1,0,0,1,0,0)" clip-path="url(#_1293039742495370clip-0)"/><g transform="matrix(1,0,0,1,0,0)"><text x="38" y="102.53" style="fill: rgb(64,64,64); fill-opacity: 1.0; font-family: Tahoma; font-size: 12px;" clip-path="url(#_1293039742495370clip-0)">0,0000</text></g><line x1="78" y1="97.51" x2="80" y2="97.51" style="stroke-width: 0.5;stroke: rgb(128,128,128);stroke-opacity: 1.0;stroke-linecap: square;shape-rendering:crispEdges;" transform="matrix(1,0,0,1,0,0)" clip-path="url(#_1293039742495370clip-0)"/><g transform="matrix(1,0,0,1,0,0)"><text x="38" y="58.93" style="fill: rgb(64,64,64); fill-opacity: 1.0; font-family: Tahoma; font-size: 12px;" clip-path="url(#_1293039742495370clip-0)">0,0005</text></g><line x1="78" y1="53.91" x2="80" y2="53.91" style="stroke-width: 0.5;stroke: rgb(128,128,128);stroke-opacity: 1.0;stroke-linecap: square;shape-rendering:crispEdges;" transform="matrix(1,0,0,1,0,0)" clip-path="url(#_1293039742495370clip-0)"/><g style="fill: rgb(64,64,64); fill-opacity: 1.0; stroke: none" transform="matrix(0,-1,1,0,-345.5,384.5)" clip-path="url(#_1293039742495370clip-1)"><path d="M 11.94 370.81 Q 9.66 370.81 8.3 369.42 Q 6.95 368.03 6.95 365.53 Q 6.95 363.11 8.3 361.67 Q 9.66 360.23 11.95 360.23 Q 12.56 360.23 13.05 360.3 Q 13.53 360.37 13.97 360.48 Q 14.33 360.59 14.73 360.77 Q 15.14 360.95 15.39 361.08 L 15.39 363.5 L 15.14 363.5 Q 14.95 363.34 14.67 363.12 Q 14.39 362.89 14.03 362.67 Q 13.67 362.45 13.25 362.3 Q 12.83 362.14 12.36 362.14 Q 11.81 362.14 11.34 362.31 Q 10.88 362.48 10.47 362.92 Q 10.08 363.31 9.84 363.98 Q 9.59 364.64 9.59 365.53 Q 9.59 366.48 9.85 367.13 Q 10.11 367.78 10.52 368.17 Q 10.91 368.56 11.4 368.73 Q 11.89 368.91 12.38 368.91 Q 12.88 368.91 13.34 368.73 Q 13.8 368.56 14.11 368.36 Q 14.45 368.14 14.71 367.92 Q 14.97 367.7 15.16 367.55 L 15.39 367.55 L 15.39 369.94 Q 15.11 370.06 14.74 370.23 Q 14.38 370.39 13.98 370.51 Q 13.5 370.66 13.09 370.73 Q 12.67 370.81 11.94 370.81 Z  M 27.3 370.61 L 24.75 370.61 L 24.75 363.86 L 22.91 368.22 L 21.16 368.22 L 19.3 363.86 L 19.3 370.61 L 16.89 370.61 L 16.89 360.44 L 19.84 360.44 L 22.09 365.45 L 24.34 360.44 L 27.3 360.44 L 27.3 370.61 Z "/></g><line x1="119.17" y1="35" x2="119.17" y2="695" style="stroke-width: 0.5;stroke: rgb(192,192,192);stroke-opacity: 1.0;stroke-linejoin: bevel;stroke-dasharray: 2.0, 2.0;shape-rendering:crispEdges;" transform="matrix(1,0,0,1,0,0)" clip-path="url(#_1293039742495370clip-2)"/><line x1="164.97" y1="35" x2="164.97" y2="695" style="stroke-width: 0.5;stroke: rgb(192,192,192);stroke-opacity: 1.0;stroke-linejoin: bevel;stroke-dasharray: 2.0, 2.0;shape-rendering:crispEdges;" transform="matrix(1,0,0,1,0,0)" clip-path="url(#_1293039742495370clip-2)"/><line x1="210.76" y1="35" x2="210.76" y2="695" style="stroke-width: 0.5;stroke: rgb(192,192,192);stroke-opacity: 1.0;stroke-linejoin: bevel;stroke-dasharray: 2.0, 2.0;shape-rendering:crispEdges;" transform="matrix(1,0,0,1,0,0)" clip-path="url(#_1293039742495370clip-2)"/><line x1="256.56" y1="35" x2="256.56" y2="695" style="stroke-width: 0.5;stroke: rgb(192,192,192);stroke-opacity: 1.0;stroke-linejoin: bevel;stroke-dasharray: 2.0, 2.0;shape-rendering:crispEdges;" transform="matrix(1,0,0,1,0,0)" clip-path="url(#_1293039742495370clip-2)"/><line x1="302.35" y1="35" x2="302.35" y2="695" style="stroke-width: 0.5;stroke: rgb(192,192,192);stroke-opacity: 1.0;stroke-linejoin: bevel;stroke-dasharray: 2.0, 2.0;shape-rendering:crispEdges;" transform="matrix(1,0,0,1,0,0)" clip-path="url(#_1293039742495370clip-2)"/><line x1="348.15" y1="35" x2="348.15" y2="695" style="stroke-width: 0.5;stroke: rgb(192,192,192);stroke-opacity: 1.0;stroke-linejoin: bevel;stroke-dasharray: 2.0, 2.0;shape-rendering:crispEdges;" transform="matrix(1,0,0,1,0,0)" clip-path="url(#_1293039742495370clip-2)"/><line x1="393.94" y1="35" x2="393.94" y2="695" style="stroke-width: 0.5;stroke: rgb(192,192,192);stroke-opacity: 1.0;stroke-linejoin: bevel;stroke-dasharray: 2.0, 2.0;shape-rendering:crispEdges;" transform="matrix(1,0,0,1,0,0)" clip-path="url(#_1293039742495370clip-2)"/><line x1="439.74" y1="35" x2="439.74" y2="695" style="stroke-width: 0.5;stroke: rgb(192,192,192);stroke-opacity: 1.0;stroke-linejoin: bevel;stroke-dasharray: 2.0, 2.0;shape-rendering:crispEdges;" transform="matrix(1,0,0,1,0,0)" clip-path="url(#_1293039742495370clip-2)"/><line x1="485.53" y1="35" x2="485.53" y2="695" style="stroke-width: 0.5;stroke: rgb(192,192,192);stroke-opacity: 1.0;stroke-linejoin: bevel;stroke-dasharray: 2.0, 2.0;shape-rendering:crispEdges;" transform="matrix(1,0,0,1,0,0)" clip-path="url(#_1293039742495370clip-2)"/><line x1="531.33" y1="35" x2="531.33" y2="695" style="stroke-width: 0.5;stroke: rgb(192,192,192);stroke-opacity: 1.0;stroke-linejoin: bevel;stroke-dasharray: 2.0, 2.0;shape-rendering:crispEdges;" transform="matrix(1,0,0,1,0,0)" clip-path="url(#_1293039742495370clip-2)"/><line x1="577.12" y1="35" x2="577.12" y2="695" style="stroke-width: 0.5;stroke: rgb(192,192,192);stroke-opacity: 1.0;stroke-linejoin: bevel;stroke-dasharray: 2.0, 2.0;shape-rendering:crispEdges;" transform="matrix(1,0,0,1,0,0)" clip-path="url(#_1293039742495370clip-2)"/><line x1="622.92" y1="35" x2="622.92" y2="695" style="stroke-width: 0.5;stroke: rgb(192,192,192);stroke-opacity: 1.0;stroke-linejoin: bevel;stroke-dasharray: 2.0, 2.0;shape-rendering:crispEdges;" transform="matrix(1,0,0,1,0,0)" clip-path="url(#_1293039742495370clip-2)"/><line x1="668.71" y1="35" x2="668.71" y2="695" style="stroke-width: 0.5;stroke: rgb(192,192,192);stroke-opacity: 1.0;stroke-linejoin: bevel;stroke-dasharray: 2.0, 2.0;shape-rendering:crispEdges;" transform="matrix(1,0,0,1,0,0)" clip-path="url(#_1293039742495370clip-2)"/><line x1="714.51" y1="35" x2="714.51" y2="695" style="stroke-width: 0.5;stroke: rgb(192,192,192);stroke-opacity: 1.0;stroke-linejoin: bevel;stroke-dasharray: 2.0, 2.0;shape-rendering:crispEdges;" transform="matrix(1,0,0,1,0,0)" clip-path="url(#_1293039742495370clip-2)"/><line x1="760.3" y1="35" x2="760.3" y2="695" style="stroke-width: 0.5;stroke: rgb(192,192,192);stroke-opacity: 1.0;stroke-linejoin: bevel;stroke-dasharray: 2.0, 2.0;shape-rendering:crispEdges;" transform="matrix(1,0,0,1,0,0)" clip-path="url(#_1293039742495370clip-2)"/><line x1="806.1" y1="35" x2="806.1" y2="695" style="stroke-width: 0.5;stroke: rgb(192,192,192);stroke-opacity: 1.0;stroke-linejoin: bevel;stroke-dasharray: 2.0, 2.0;shape-rendering:crispEdges;" transform="matrix(1,0,0,1,0,0)" clip-path="url(#_1293039742495370clip-2)"/><line x1="851.89" y1="35" x2="851.89" y2="695" style="stroke-width: 0.5;stroke: rgb(192,192,192);stroke-opacity: 1.0;stroke-linejoin: bevel;stroke-dasharray: 2.0, 2.0;shape-rendering:crispEdges;" transform="matrix(1,0,0,1,0,0)" clip-path="url(#_1293039742495370clip-2)"/><line x1="897.69" y1="35" x2="897.69" y2="695" style="stroke-width: 0.5;stroke: rgb(192,192,192);stroke-opacity: 1.0;stroke-linejoin: bevel;stroke-dasharray: 2.0, 2.0;shape-rendering:crispEdges;" transform="matrix(1,0,0,1,0,0)" clip-path="url(#_1293039742495370clip-2)"/><line x1="943.48" y1="35" x2="943.48" y2="695" style="stroke-width: 0.5;stroke: rgb(192,192,192);stroke-opacity: 1.0;stroke-linejoin: bevel;stroke-dasharray: 2.0, 2.0;shape-rendering:crispEdges;" transform="matrix(1,0,0,1,0,0)" clip-path="url(#_1293039742495370clip-2)"/><line x1="989.28" y1="35" x2="989.28" y2="695" style="stroke-width: 0.5;stroke: rgb(192,192,192);stroke-opacity: 1.0;stroke-linejoin: bevel;stroke-dasharray: 2.0, 2.0;shape-rendering:crispEdges;" transform="matrix(1,0,0,1,0,0)" clip-path="url(#_1293039742495370clip-2)"/><line x1="1035.07" y1="35" x2="1035.07" y2="695" style="stroke-width: 0.5;stroke: rgb(192,192,192);stroke-opacity: 1.0;stroke-linejoin: bevel;stroke-dasharray: 2.0, 2.0;shape-rendering:crispEdges;" transform="matrix(1,0,0,1,0,0)" clip-path="url(#_1293039742495370clip-2)"/><line x1="1080.87" y1="35" x2="1080.87" y2="695" style="stroke-width: 0.5;stroke: rgb(192,192,192);stroke-opacity: 1.0;stroke-linejoin: bevel;stroke-dasharray: 2.0, 2.0;shape-rendering:crispEdges;" transform="matrix(1,0,0,1,0,0)" clip-path="url(#_1293039742495370clip-2)"/><line x1="1126.66" y1="35" x2="1126.66" y2="695" style="stroke-width: 0.5;stroke: rgb(192,192,192);stroke-opacity: 1.0;stroke-linejoin: bevel;stroke-dasharray: 2.0, 2.0;shape-rendering:crispEdges;" transform="matrix(1,0,0,1,0,0)" clip-path="url(#_1293039742495370clip-2)"/><line x1="84" y1="664.23" x2="1140" y2="664.23" style="stroke-width: 0.5;stroke: rgb(192,192,192);stroke-opacity: 1.0;stroke-linejoin: bevel;stroke-dasharray: 2.0, 2.0;shape-rendering:crispEdges;" transform="matrix(1,0,0,1,0,0)" clip-path="url(#_1293039742495370clip-2)"/><line x1="84" y1="620.63" x2="1140" y2="620.63" style="stroke-width: 0.5;stroke: rgb(192,192,192);stroke-opacity: 1.0;stroke-linejoin: bevel;stroke-dasharray: 2.0, 2.0;shape-rendering:crispEdges;" transform="matrix(1,0,0,1,0,0)" clip-path="url(#_1293039742495370clip-2)"/><line x1="84" y1="577.04" x2="1140" y2="577.04" style="stroke-width: 0.5;stroke: rgb(192,192,192);stroke-opacity: 1.0;stroke-linejoin: bevel;stroke-dasharray: 2.0, 2.0;shape-rendering:crispEdges;" transform="matrix(1,0,0,1,0,0)" clip-path="url(#_1293039742495370clip-2)"/><line x1="84" y1="533.45" x2="1140" y2="533.45" style="stroke-width: 0.5;stroke: rgb(192,192,192);stroke-opacity: 1.0;stroke-linejoin: bevel;stroke-dasharray: 2.0, 2.0;shape-rendering:crispEdges;" transform="matrix(1,0,0,1,0,0)" clip-path="url(#_1293039742495370clip-2)"/><line x1="84" y1="489.85" x2="1140" y2="489.85" style="stroke-width: 0.5;stroke: rgb(192,192,192);stroke-opacity: 1.0;stroke-linejoin: bevel;stroke-dasharray: 2.0, 2.0;shape-rendering:crispEdges;" transform="matrix(1,0,0,1,0,0)" clip-path="url(#_1293039742495370clip-2)"/><line x1="84" y1="446.26" x2="1140" y2="446.26" style="stroke-width: 0.5;stroke: rgb(192,192,192);stroke-opacity: 1.0;stroke-linejoin: bevel;stroke-dasharray: 2.0, 2.0;shape-rendering:crispEdges;" transform="matrix(1,0,0,1,0,0)" clip-path="url(#_1293039742495370clip-2)"/><line x1="84" y1="402.66" x2="1140" y2="402.66" style="stroke-width: 0.5;stroke: rgb(192,192,192);stroke-opacity: 1.0;stroke-linejoin: bevel;stroke-dasharray: 2.0, 2.0;shape-rendering:crispEdges;" transform="matrix(1,0,0,1,0,0)" clip-path="url(#_1293039742495370clip-2)"/><line x1="84" y1="359.07" x2="1140" y2="359.07" style="stroke-width: 0.5;stroke: rgb(192,192,192);stroke-opacity: 1.0;stroke-linejoin: bevel;stroke-dasharray: 2.0, 2.0;shape-rendering:crispEdges;" transform="matrix(1,0,0,1,0,0)" clip-path="url(#_1293039742495370clip-2)"/><line x1="84" y1="315.48" x2="1140" y2="315.48" style="stroke-width: 0.5;stroke: rgb(192,192,192);stroke-opacity: 1.0;stroke-linejoin: bevel;stroke-dasharray: 2.0, 2.0;shape-rendering:crispEdges;" transform="matrix(1,0,0,1,0,0)" clip-path="url(#_1293039742495370clip-2)"/><line x1="84" y1="271.88" x2="1140" y2="271.88" style="stroke-width: 0.5;stroke: rgb(192,192,192);stroke-opacity: 1.0;stroke-linejoin: bevel;stroke-dasharray: 2.0, 2.0;shape-rendering:crispEdges;" transform="matrix(1,0,0,1,0,0)" clip-path="url(#_1293039742495370clip-2)"/><line x1="84" y1="228.29" x2="1140" y2="228.29" style="stroke-width: 0.5;stroke: rgb(192,192,192);stroke-opacity: 1.0;stroke-linejoin: bevel;stroke-dasharray: 2.0, 2.0;shape-rendering:crispEdges;" transform="matrix(1,0,0,1,0,0)" clip-path="url(#_1293039742495370clip-2)"/><line x1="84" y1="184.69" x2="1140" y2="184.69" style="stroke-width: 0.5;stroke: rgb(192,192,192);stroke-opacity: 1.0;stroke-linejoin: bevel;stroke-dasharray: 2.0, 2.0;shape-rendering:crispEdges;" transform="matrix(1,0,0,1,0,0)" clip-path="url(#_1293039742495370clip-2)"/><line x1="84" y1="141.1" x2="1140" y2="141.1" style="stroke-width: 0.5;stroke: rgb(192,192,192);stroke-opacity: 1.0;stroke-linejoin: bevel;stroke-dasharray: 2.0, 2.0;shape-rendering:crispEdges;" transform="matrix(1,0,0,1,0,0)" clip-path="url(#_1293039742495370clip-2)"/><line x1="84" y1="97.51" x2="1140" y2="97.51" style="stroke-width: 0.5;stroke: rgb(192,192,192);stroke-opacity: 1.0;stroke-linejoin: bevel;stroke-dasharray: 2.0, 2.0;shape-rendering:crispEdges;" transform="matrix(1,0,0,1,0,0)" clip-path="url(#_1293039742495370clip-2)"/><line x1="84" y1="53.91" x2="1140" y2="53.91" style="stroke-width: 0.5;stroke: rgb(192,192,192);stroke-opacity: 1.0;stroke-linejoin: bevel;stroke-dasharray: 2.0, 2.0;shape-rendering:crispEdges;" transform="matrix(1,0,0,1,0,0)" clip-path="url(#_1293039742495370clip-2)"/><line x1="135.17" y1="89.32" x2="162.82" y2="89.83" style="stroke-width: 3.0;stroke: rgb(0,0,0);stroke-opacity: 1.0;stroke-linecap: square;shape-rendering:geometricPrecision;" transform="matrix(1,0,0,1,0,0)" clip-path="url(#_1293039742495370clip-2)"/><line x1="162.82" y1="89.83" x2="190.66" y2="90.35" style="stroke-width: 3.0;stroke: rgb(0,0,0);stroke-opacity: 1.0;stroke-linecap: square;shape-rendering:geometricPrecision;" transform="matrix(1,0,0,1,0,0)" clip-path="url(#_1293039742495370clip-2)"/><line x1="190.66" y1="90.35" x2="218.69" y2="90.87" style="stroke-width: 3.0;stroke: rgb(0,0,0);stroke-opacity: 1.0;stroke-linecap: square;shape-rendering:geometricPrecision;" transform="matrix(1,0,0,1,0,0)" clip-path="url(#_1293039742495370clip-2)"/><line x1="218.69" y1="90.87" x2="246.92" y2="91.39" style="stroke-width: 3.0;stroke: rgb(0,0,0);stroke-opacity: 1.0;stroke-linecap: square;shape-rendering:geometricPrecision;" transform="matrix(1,0,0,1,0,0)" clip-path="url(#_1293039742495370clip-2)"/><line x1="246.92" y1="91.39" x2="275.37" y2="91.92" style="stroke-width: 3.0;stroke: rgb(0,0,0);stroke-opacity: 1.0;stroke-linecap: square;shape-rendering:geometricPrecision;" transform="matrix(1,0,0,1,0,0)" clip-path="url(#_1293039742495370clip-2)"/><line x1="275.37" y1="91.92" x2="304.02" y2="92.45" style="stroke-width: 3.0;stroke: rgb(0,0,0);stroke-opacity: 1.0;stroke-linecap: square;shape-rendering:geometricPrecision;" transform="matrix(1,0,0,1,0,0)" clip-path="url(#_1293039742495370clip-2)"/><line x1="304.02" y1="92.45" x2="332.86" y2="92.98" style="stroke-width: 3.0;stroke: rgb(0,0,0);stroke-opacity: 1.0;stroke-linecap: square;shape-rendering:geometricPrecision;" transform="matrix(1,0,0,1,0,0)" clip-path="url(#_1293039742495370clip-2)"/><line x1="332.86" y1="92.98" x2="361.91" y2="93.52" style="stroke-width: 3.0;stroke: rgb(0,0,0);stroke-opacity: 1.0;stroke-linecap: square;shape-rendering:geometricPrecision;" transform="matrix(1,0,0,1,0,0)" clip-path="url(#_1293039742495370clip-2)"/><line x1="361.91" y1="93.52" x2="391.18" y2="94.06" style="stroke-width: 3.0;stroke: rgb(0,0,0);stroke-opacity: 1.0;stroke-linecap: square;shape-rendering:geometricPrecision;" transform="matrix(1,0,0,1,0,0)" clip-path="url(#_1293039742495370clip-2)"/><line x1="391.18" y1="94.06" x2="420.67" y2="94.61" style="stroke-width: 3.0;stroke: rgb(0,0,0);stroke-opacity: 1.0;stroke-linecap: square;shape-rendering:geometricPrecision;" transform="matrix(1,0,0,1,0,0)" clip-path="url(#_1293039742495370clip-2)"/><line x1="420.67" y1="94.61" x2="450.37" y2="95.16" style="stroke-width: 3.0;stroke: rgb(0,0,0);stroke-opacity: 1.0;stroke-linecap: square;shape-rendering:geometricPrecision;" transform="matrix(1,0,0,1,0,0)" clip-path="url(#_1293039742495370clip-2)"/><line x1="450.37" y1="95.16" x2="480.29" y2="95.71" style="stroke-width: 3.0;stroke: rgb(0,0,0);stroke-opacity: 1.0;stroke-linecap: square;shape-rendering:geometricPrecision;" transform="matrix(1,0,0,1,0,0)" clip-path="url(#_1293039742495370clip-2)"/><line x1="480.29" y1="95.71" x2="510.43" y2="96.27" style="stroke-width: 3.0;stroke: rgb(0,0,0);stroke-opacity: 1.0;stroke-linecap: square;shape-rendering:geometricPrecision;" transform="matrix(1,0,0,1,0,0)" clip-path="url(#_1293039742495370clip-2)"/><line x1="510.43" y1="96.27" x2="540.78" y2="96.83" style="stroke-width: 3.0;stroke: rgb(0,0,0);stroke-opacity: 1.0;stroke-linecap: square;shape-rendering:geometricPrecision;" transform="matrix(1,0,0,1,0,0)" clip-path="url(#_1293039742495370clip-2)"/><line x1="540.78" y1="96.83" x2="571.39" y2="97.4" style="stroke-width: 3.0;stroke: rgb(0,0,0);stroke-opacity: 1.0;stroke-linecap: square;shape-rendering:geometricPrecision;" transform="matrix(1,0,0,1,0,0)" clip-path="url(#_1293039742495370clip-2)"/><line x1="571.39" y1="97.4" x2="602.21" y2="124.14" style="stroke-width: 3.0;stroke: rgb(0,0,0);stroke-opacity: 1.0;stroke-linecap: square;shape-rendering:geometricPrecision;" transform="matrix(1,0,0,1,0,0)" clip-path="url(#_1293039742495370clip-2)"/><line x1="602.21" y1="124.14" x2="633.26" y2="157.1" style="stroke-width: 3.0;stroke: rgb(0,0,0);stroke-opacity: 1.0;stroke-linecap: square;shape-rendering:geometricPrecision;" transform="matrix(1,0,0,1,0,0)" clip-path="url(#_1293039742495370clip-2)"/><line x1="633.26" y1="157.1" x2="664.54" y2="190.3" style="stroke-width: 3.0;stroke: rgb(0,0,0);stroke-opacity: 1.0;stroke-linecap: square;shape-rendering:geometricPrecision;" transform="matrix(1,0,0,1,0,0)" clip-path="url(#_1293039742495370clip-2)"/><line x1="664.54" y1="190.3" x2="696.04" y2="223.73" style="stroke-width: 3.0;stroke: rgb(0,0,0);stroke-opacity: 1.0;stroke-linecap: square;shape-rendering:geometricPrecision;" transform="matrix(1,0,0,1,0,0)" clip-path="url(#_1293039742495370clip-2)"/><line x1="696.04" y1="223.73" x2="727.8" y2="257.45" style="stroke-width: 3.0;stroke: rgb(0,0,0);stroke-opacity: 1.0;stroke-linecap: square;shape-rendering:geometricPrecision;" transform="matrix(1,0,0,1,0,0)" clip-path="url(#_1293039742495370clip-2)"/><line x1="727.8" y1="257.45" x2="759.79" y2="291.41" style="stroke-width: 3.0;stroke: rgb(0,0,0);stroke-opacity: 1.0;stroke-linecap: square;shape-rendering:geometricPrecision;" transform="matrix(1,0,0,1,0,0)" clip-path="url(#_1293039742495370clip-2)"/><line x1="759.79" y1="291.41" x2="792.02" y2="325.62" style="stroke-width: 3.0;stroke: rgb(0,0,0);stroke-opacity: 1.0;stroke-linecap: square;shape-rendering:geometricPrecision;" transform="matrix(1,0,0,1,0,0)" clip-path="url(#_1293039742495370clip-2)"/><line x1="792.02" y1="325.62" x2="824.47" y2="360.07" style="stroke-width: 3.0;stroke: rgb(0,0,0);stroke-opacity: 1.0;stroke-linecap: square;shape-rendering:geometricPrecision;" transform="matrix(1,0,0,1,0,0)" clip-path="url(#_1293039742495370clip-2)"/><line x1="824.47" y1="360.07" x2="857.18" y2="394.79" style="stroke-width: 3.0;stroke: rgb(0,0,0);stroke-opacity: 1.0;stroke-linecap: square;shape-rendering:geometricPrecision;" transform="matrix(1,0,0,1,0,0)" clip-path="url(#_1293039742495370clip-2)"/><line x1="857.18" y1="394.79" x2="892.51" y2="432.29" style="stroke-width: 3.0;stroke: rgb(0,0,0);stroke-opacity: 1.0;stroke-linecap: square;shape-rendering:geometricPrecision;" transform="matrix(1,0,0,1,0,0)" clip-path="url(#_1293039742495370clip-2)"/><line x1="892.51" y1="432.29" x2="941.63" y2="484.43" style="stroke-width: 3.0;stroke: rgb(0,0,0);stroke-opacity: 1.0;stroke-linecap: square;shape-rendering:geometricPrecision;" transform="matrix(1,0,0,1,0,0)" clip-path="url(#_1293039742495370clip-2)"/><line x1="941.63" y1="484.43" x2="990.72" y2="536.54" style="stroke-width: 3.0;stroke: rgb(0,0,0);stroke-opacity: 1.0;stroke-linecap: square;shape-rendering:geometricPrecision;" transform="matrix(1,0,0,1,0,0)" clip-path="url(#_1293039742495370clip-2)"/><line x1="990.72" y1="536.54" x2="1039.79" y2="588.63" style="stroke-width: 3.0;stroke: rgb(0,0,0);stroke-opacity: 1.0;stroke-linecap: square;shape-rendering:geometricPrecision;" transform="matrix(1,0,0,1,0,0)" clip-path="url(#_1293039742495370clip-2)"/><line x1="1039.79" y1="588.63" x2="1088.83" y2="640.68" style="stroke-width: 3.0;stroke: rgb(0,0,0);stroke-opacity: 1.0;stroke-linecap: square;shape-rendering:geometricPrecision;" transform="matrix(1,0,0,1,0,0)" clip-path="url(#_1293039742495370clip-2)"/><rect x="84" y="35" width="1056" height="660" style="stroke-width: 0.5;stroke: rgb(0,0,0);stroke-opacity: 1.0;stroke-linecap: round;stroke-linejoin: round;shape-rendering:crispEdges;; fill: none" transform="matrix(1,0,0,1,0,0)" clip-path="url(#_1293039742495370clip-0)"/></svg>
