<?xml version="1.0" encoding="UTF-8"?><svg id="svg" class="svg" width="700" height="600" xmlns="http://www.w3.org/2000/svg">
    <g id="page" width="700" height="600">
        <g id="graph" transform="translate(60,40)">
            <rect width="620" height="510" fill="blue" opacity="0.05"/>
            <rect width="620" height="510" fill="none" opacity="1.0" style="stroke: darkblue; stroke-width: 2px;"/>
            <g id="xAxis" class="axis" transform="translate(0,510)">
                <g class="tick" transform="translate(30.36202493615742,0)" style="opacity: 1;">
                    <line y2="-510" x2="0" style="fill: none; stroke: #808080; stroke-width: 0.8px; stroke-dasharray: 15px, 2px; font-style: normal; font-variant: normal; font-weight: normal; font-size: 10px; line-height: normal; font-family: sans-serif; shape-rendering: geometricprecision;"/>
                    <text dy=".71em" y="12" x="0" style="text-anchor: middle;">-5</text>
                </g>
                <g class="tick" transform="translate(88.57142857142858,0)" style="opacity: 1;">
                    <line y2="-510" x2="0" style="fill: none; stroke: #808080; stroke-width: 0.8px; stroke-dasharray: 15px, 2px; font-style: normal; font-variant: normal; font-weight: normal; font-size: 10px; line-height: normal; font-family: sans-serif; shape-rendering: geometricprecision;"/>
                    <text dy=".71em" y="12" x="0" style="text-anchor: middle;">0</text>
                </g>
                <g class="tick" transform="translate(146.78083220669973,0)" style="opacity: 1;">
                    <line y2="-510" x2="0" style="fill: none; stroke: #808080; stroke-width: 0.8px; stroke-dasharray: 15px, 2px; font-style: normal; font-variant: normal; font-weight: normal; font-size: 10px; line-height: normal; font-family: sans-serif; shape-rendering: geometricprecision;"/>
                    <text dy=".71em" y="12" x="0" style="text-anchor: middle;">5</text>
                </g>
                <g class="tick" transform="translate(204.99023584197087,0)" style="opacity: 1;">
                    <line y2="-510" x2="0" style="fill: none; stroke: #808080; stroke-width: 0.8px; stroke-dasharray: 15px, 2px; font-style: normal; font-variant: normal; font-weight: normal; font-size: 10px; line-height: normal; font-family: sans-serif; shape-rendering: geometricprecision;"/>
                    <text dy=".71em" y="12" x="0" style="text-anchor: middle;">10</text>
                </g>
                <g class="tick" transform="translate(263.19963947724204,0)" style="opacity: 1;">
                    <line y2="-510" x2="0" style="fill: none; stroke: #808080; stroke-width: 0.8px; stroke-dasharray: 15px, 2px; font-style: normal; font-variant: normal; font-weight: normal; font-size: 10px; line-height: normal; font-family: sans-serif; shape-rendering: geometricprecision;"/>
                    <text dy=".71em" y="12" x="0" style="text-anchor: middle;">15</text>
                </g>
                <g class="tick" transform="translate(321.4090431125132,0)" style="opacity: 1;">
                    <line y2="-510" x2="0" style="fill: none; stroke: #808080; stroke-width: 0.8px; stroke-dasharray: 15px, 2px; font-style: normal; font-variant: normal; font-weight: normal; font-size: 10px; line-height: normal; font-family: sans-serif; shape-rendering: geometricprecision;"/>
                    <text dy=".71em" y="12" x="0" style="text-anchor: middle;">20</text>
                </g>
                <g class="tick" transform="translate(379.61844674778433,0)" style="opacity: 1;">
                    <line y2="-510" x2="0" style="fill: none; stroke: #808080; stroke-width: 0.8px; stroke-dasharray: 15px, 2px; font-style: normal; font-variant: normal; font-weight: normal; font-size: 10px; line-height: normal; font-family: sans-serif; shape-rendering: geometricprecision;"/>
                    <text dy=".71em" y="12" x="0" style="text-anchor: middle;">25</text>
                </g>
                <g class="tick" transform="translate(437.8278503830555,0)" style="opacity: 1;">
                    <line y2="-510" x2="0" style="fill: none; stroke: #808080; stroke-width: 0.8px; stroke-dasharray: 15px, 2px; font-style: normal; font-variant: normal; font-weight: normal; font-size: 10px; line-height: normal; font-family: sans-serif; shape-rendering: geometricprecision;"/>
                    <text dy=".71em" y="12" x="0" style="text-anchor: middle;">30</text>
                </g>
                <g class="tick" transform="translate(496.0372540183267,0)" style="opacity: 1;">
                    <line y2="-510" x2="0" style="fill: none; stroke: #808080; stroke-width: 0.8px; stroke-dasharray: 15px, 2px; font-style: normal; font-variant: normal; font-weight: normal; font-size: 10px; line-height: normal; font-family: sans-serif; shape-rendering: geometricprecision;"/>
                    <text dy=".71em" y="12" x="0" style="text-anchor: middle;">35</text>
                </g>
                <g class="tick" transform="translate(554.2466576535978,0)" style="opacity: 1;">
                    <line y2="-510" x2="0" style="fill: none; stroke: #808080; stroke-width: 0.8px; stroke-dasharray: 15px, 2px; font-style: normal; font-variant: normal; font-weight: normal; font-size: 10px; line-height: normal; font-family: sans-serif; shape-rendering: geometricprecision;"/>
                    <text dy=".71em" y="12" x="0" style="text-anchor: middle;">40</text>
                </g>
                <g class="tick" transform="translate(612.4560612888689,0)" style="opacity: 1;">
                    <line y2="-510" x2="0" style="fill: none; stroke: #808080; stroke-width: 0.8px; stroke-dasharray: 15px, 2px; font-style: normal; font-variant: normal; font-weight: normal; font-size: 10px; line-height: normal; font-family: sans-serif; shape-rendering: geometricprecision;"/>
                    <text dy=".71em" y="12" x="0" style="text-anchor: middle;">45</text>
                </g>
                <path class="domain" d="M0,-510V0H620V-510" style="fill: none; stroke: #808080; stroke-width: 0.8px; stroke-dasharray: 15px, 2px; font-style: normal; font-variant: normal; font-weight: normal; font-size: 10px; line-height: normal; font-family: sans-serif; shape-rendering: geometricprecision;"/>
            </g>
            <g id="yAxis" class="axis">
                <g class="tick" transform="translate(0,494.40964398377656)" style="opacity: 1;">
                    <line x2="620" y2="0" style="fill: none; stroke: #808080; stroke-dasharray: 15px, 2px; stroke-width: 0.8px; shape-rendering: geometricprecision;"/>
                    <text dy=".32em" x="-8" y="0" style="text-anchor: end;">-25</text>
                </g>
                <g class="tick" transform="translate(0,446.5277151870212)" style="opacity: 1;">
                    <line x2="620" y2="0" style="fill: none; stroke: #808080; stroke-dasharray: 15px, 2px; stroke-width: 0.8px; shape-rendering: geometricprecision;"/>
                    <text dy=".32em" x="-8" y="0" style="text-anchor: end;">-20</text>
                </g>
                <g class="tick" transform="translate(0,398.6457863902659)" style="opacity: 1;">
                    <line x2="620" y2="0" style="fill: none; stroke: #808080; stroke-dasharray: 15px, 2px; stroke-width: 0.8px; shape-rendering: geometricprecision;"/>
                    <text dy=".32em" x="-8" y="0" style="text-anchor: end;">-15</text>
                </g>
                <g class="tick" transform="translate(0,350.7638575935106)" style="opacity: 1;">
                    <line x2="620" y2="0" style="fill: none; stroke: #808080; stroke-dasharray: 15px, 2px; stroke-width: 0.8px; shape-rendering: geometricprecision;"/>
                    <text dy=".32em" x="-8" y="0" style="text-anchor: end;">-10</text>
                </g>
                <g class="tick" transform="translate(0,302.8819287967553)" style="opacity: 1;">
                    <line x2="620" y2="0" style="fill: none; stroke: #808080; stroke-dasharray: 15px, 2px; stroke-width: 0.8px; shape-rendering: geometricprecision;"/>
                    <text dy=".32em" x="-8" y="0" style="text-anchor: end;">-5</text>
                </g>
                <g class="tick" transform="translate(0,255)" style="opacity: 1;">
                    <line x2="620" y2="0" style="fill: none; stroke: #808080; stroke-dasharray: 15px, 2px; stroke-width: 0.8px; shape-rendering: geometricprecision;"/>
                    <text dy=".32em" x="-8" y="0" style="text-anchor: end;">0</text>
                </g>
                <g class="tick" transform="translate(0,207.1180712032447)" style="opacity: 1;">
                    <line x2="620" y2="0" style="fill: none; stroke: #808080; stroke-dasharray: 15px, 2px; stroke-width: 0.8px; shape-rendering: geometricprecision;"/>
                    <text dy=".32em" x="-8" y="0" style="text-anchor: end;">5</text>
                </g>
                <g class="tick" transform="translate(0,159.23614240648936)" style="opacity: 1;">
                    <line x2="620" y2="0" style="fill: none; stroke: #808080; stroke-dasharray: 15px, 2px; stroke-width: 0.8px; shape-rendering: geometricprecision;"/>
                    <text dy=".32em" x="-8" y="0" style="text-anchor: end;">10</text>
                </g>
                <g class="tick" transform="translate(0,111.35421360973407)" style="opacity: 1;">
                    <line x2="620" y2="0" style="fill: none; stroke: #808080; stroke-dasharray: 15px, 2px; stroke-width: 0.8px; shape-rendering: geometricprecision;"/>
                    <text dy=".32em" x="-8" y="0" style="text-anchor: end;">15</text>
                </g>
                <g class="tick" transform="translate(0,63.47228481297879)" style="opacity: 1;">
                    <line x2="620" y2="0" style="fill: none; stroke: #808080; stroke-dasharray: 15px, 2px; stroke-width: 0.8px; shape-rendering: geometricprecision;"/>
                    <text dy=".32em" x="-8" y="0" style="text-anchor: end;">20</text>
                </g>
                <g class="tick" transform="translate(0,15.590356016223444)" style="opacity: 1;">
                    <line x2="620" y2="0" style="fill: none; stroke: #808080; stroke-dasharray: 15px, 2px; stroke-width: 0.8px; shape-rendering: geometricprecision;"/>
                    <text dy=".32em" x="-8" y="0" style="text-anchor: end;">25</text>
                </g>
                <path class="domain" d="M620,0H0V510H620" style="fill: none; stroke: #808080; stroke-dasharray: 15px, 2px; stroke-width: 0.8px; shape-rendering: geometricprecision;"/>
            </g>
            <g id="xy" class="xy">
                <path id="line" d="M455.75634670271904,240.63542136097337L460.56278031717426,236.68174209746988L465.3692139316295,232.7280628339664L470.1756475460847,228.7743835704629L474.98208116053996,224.82070430695939L479.7885147749952,220.86702504345584L484.59494838945045,216.91334577995235L489.4013820039057,212.95966651644886L494.207815618361,209.00598725294535L499.0142492328162,205.0523079894418L503.8206828472715,201.0986287259383L508.6271164617267,197.14494946243482L513.433550076182,193.1912701989313L518.2399836906371,189.23759093542782L523.0464173050924,185.28391167192427L561.581042511642,185.28391167192427L558.3213159080668,189.23759093542782L555.0615893044916,193.1912701989313L551.8018627009163,197.14494946243482L548.5421360973412,201.0986287259383L545.2824094937661,205.0523079894418L542.0226828901908,209.00598725294535L538.7629562866157,212.95966651644886L535.5032296830404,216.91334577995235L532.2435030794653,220.86702504345584L528.9837764758901,224.82070430695939L525.7240498723149,228.7743835704629L522.4643232687397,232.7280628339664L519.2045966651646,236.68174209746988L515.9448700615893,240.63542136097337" class="line" style="fill:none; stroke:black; stroke-width:2"/>
                <path id="area" d="M455.75634670271904,240.63542136097337L460.56278031717426,236.68174209746988L465.3692139316295,232.7280628339664L470.1756475460847,228.7743835704629L474.98208116053996,224.82070430695939L479.7885147749952,220.86702504345584L484.59494838945045,216.91334577995235L489.4013820039057,212.95966651644886L494.207815618361,209.00598725294535L499.0142492328162,205.0523079894418L503.8206828472715,201.0986287259383L508.6271164617267,197.14494946243482L513.433550076182,193.1912701989313L518.2399836906371,189.23759093542782L523.0464173050924,185.28391167192427L561.581042511642,185.28391167192427L558.3213159080668,189.23759093542782L555.0615893044916,193.1912701989313L551.8018627009163,197.14494946243482L548.5421360973412,201.0986287259383L545.2824094937661,205.0523079894418L542.0226828901908,209.00598725294535L538.7629562866157,212.95966651644886L535.5032296830404,216.91334577995235L532.2435030794653,220.86702504345584L528.9837764758901,224.82070430695939L525.7240498723149,228.7743835704629L522.4643232687397,232.7280628339664L519.2045966651646,236.68174209746988L515.9448700615893,240.63542136097337L515.9448700615893,255L519.2045966651646,255L522.4643232687397,255L525.7240498723149,255L528.9837764758901,255L532.2435030794653,255L535.5032296830404,255L538.7629562866157,255L542.0226828901908,255L545.2824094937661,255L548.5421360973412,255L551.8018627009163,255L555.0615893044916,255L558.3213159080668,255L561.581042511642,255L523.0464173050924,255L518.2399836906371,255L513.433550076182,255L508.6271164617267,255L503.8206828472715,255L499.0142492328162,255L494.207815618361,255L489.4013820039057,255L484.59494838945045,255L479.7885147749952,255L474.98208116053996,255L470.1756475460847,255L465.3692139316295,255L460.56278031717426,255L455.75634670271904,255Z" class="area" style="fill:yellow;" opacity="1"/>
            </g>
            <g id="xy" class="xy">
                <path id="line" d="M88.57142857142858,263.05374061996844L89.02804865277001,261.45725260505054L91.62554301477078,258.9457489155928L97.06007048194432,255.301005233561L104.86003986113384,250.8561048744336L113.8352488038847,246.26571858047419L122.52599621349151,242.27641156956437L129.65226486708036,239.49691294710502L134.56280064507615,238.1684204359858L137.68428613245266,237.93488109740335L137.68428613245266,237.93488109740335L213.7179270287758,237.9348822389975L300.66554799136486,237.93488109740335L398.5271323663759,237.93488109740335L398.5271323663759,237.93488109740335L412.73581455110957,237.93837551707455L432.2279842468968,237.986324754262L454.859781017421,238.17267744054448L477.9745392629616,238.61484767510686L498.8745361071406,239.42021722780686L515.2944712834404,240.65252586601554L525.873881175709,242.2983495842073L530.6295528586642,244.23355257688425L531.4285820870316,246.18972494157387" class="line" style="fill:none; stroke:black; stroke-width:2"/>
                <path id="area" d="M88.57142857142858,263.05374061996844L89.02804865277001,261.45725260505054L91.62554301477078,258.9457489155928L97.06007048194432,255.301005233561L104.86003986113384,250.8561048744336L113.8352488038847,246.26571858047419L122.52599621349151,242.27641156956437L129.65226486708036,239.49691294710502L134.56280064507615,238.1684204359858L137.68428613245266,237.93488109740335L137.68428613245266,237.93488109740335L213.7179270287758,237.9348822389975L300.66554799136486,237.93488109740335L398.5271323663759,237.93488109740335L398.5271323663759,237.93488109740335L412.73581455110957,237.93837551707455L432.2279842468968,237.986324754262L454.859781017421,238.17267744054448L477.9745392629616,238.61484767510686L498.8745361071406,239.42021722780686L515.2944712834404,240.65252586601554L525.873881175709,242.2983495842073L530.6295528586642,244.23355257688425L531.4285820870316,246.18972494157387L531.4285820870316,255L530.6295528586642,255L525.873881175709,255L515.2944712834404,255L498.8745361071406,255L477.9745392629616,255L454.859781017421,255L432.2279842468968,255L412.73581455110957,255L398.5271323663759,255L398.5271323663759,255L300.66554799136486,255L213.7179270287758,255L137.68428613245266,255L137.68428613245266,255L134.56280064507615,255L129.65226486708036,255L122.52599621349151,255L113.8352488038847,255L104.86003986113384,255L97.06007048194432,255L91.62554301477078,255L89.02804865277001,255L88.57142857142858,255Z" class="area" style="fill:white;" opacity="1"/>
            </g>
            <g id="xy" class="xy">
                <path id="line" d="M88.57142857142858,263.05374061996844L88.86336601079206,264.3297003934168L90.57756275901104,265.705236286771L94.33157858797358,267.17004655448636L100.06927228375064,268.6314308981791L107.28536830214172,269.9554597761998L115.25002060521021,271.0082287619704L123.23338488979493,271.6970267119629L130.73018491778518,272.0115530222265L137.68428613245266,272.0651189025967L137.68428613245266,272.0651189025967L213.7179270287758,272.0651177610025L300.66554799136486,272.0651189025967L398.5271323663759,272.0651189025967L398.5271323663759,272.0651189025967L409.47850031234566,271.8558624130265L426.08813387398186,270.6703522851092L447.0716441943694,268.18913166347846L470.1908878752182,264.5958202580387L492.60376431552686,260.3614712059632L511.38947795027286,256.05005962612154L524.244602312819,252.1449198541259L530.3530990488272,248.89626542395862L531.4285820870316,246.18972494157387" class="line" style="fill:none; stroke:black; stroke-width:2"/>
                <path id="area" d="M88.57142857142858,263.05374061996844L88.86336601079206,264.3297003934168L90.57756275901104,265.705236286771L94.33157858797358,267.17004655448636L100.06927228375064,268.6314308981791L107.28536830214172,269.9554597761998L115.25002060521021,271.0082287619704L123.23338488979493,271.6970267119629L130.73018491778518,272.0115530222265L137.68428613245266,272.0651189025967L137.68428613245266,272.0651189025967L213.7179270287758,272.0651177610025L300.66554799136486,272.0651189025967L398.5271323663759,272.0651189025967L398.5271323663759,272.0651189025967L409.47850031234566,271.8558624130265L426.08813387398186,270.6703522851092L447.0716441943694,268.18913166347846L470.1908878752182,264.5958202580387L492.60376431552686,260.3614712059632L511.38947795027286,256.05005962612154L524.244602312819,252.1449198541259L530.3530990488272,248.89626542395862L531.4285820870316,246.18972494157387L531.4285820870316,255L530.3530990488272,255L524.244602312819,255L511.38947795027286,255L492.60376431552686,255L470.1908878752182,255L447.0716441943694,255L426.08813387398186,255L409.47850031234566,255L398.5271323663759,255L398.5271323663759,255L300.66554799136486,255L213.7179270287758,255L137.68428613245266,255L137.68428613245266,255L130.73018491778518,255L123.23338488979493,255L115.25002060521021,255L107.28536830214172,255L100.06927228375064,255L94.33157858797358,255L90.57756275901104,255L88.86336601079206,255L88.57142857142858,255Z" class="area" style="fill:white;" opacity="1"/>
            </g>
            <g id="xy" class="xy">
                <path id="line" d="M360.7585999699565,267.79317494366836L360.42120522758,267.72255790896804L359.8519265735316,267.5975408742677L359.20196316659167,267.4497427670122L358.4750180561815,267.27933519603425L357.6838172149618,267.0890639026589L356.8440073306295,266.88210365029295L355.96674970707534,266.66150049571877L355.0657091182215,266.43201658404683L354.1490739972961,266.1964834610185L353.2263366681689,265.9572607480847L352.3022954484003,265.71739450202796L351.3873293074959,265.4799736818387L350.4876969205348,265.25010365029294L349.60386768814783,265.02928598467776L348.73568514345806,264.82022352410996L347.8770992338892,264.62235853988284L347.02790133693856,264.4360771518702L346.18308451254325,264.2615509689049L345.34228367132346,264.0977932401983L344.5043513895148,263.9460910319964L343.66626264082925,263.80528598467777L342.82968640528776,263.6758500225327L341.9907110109659,263.5582121676431L341.14876274598174,263.45095664713836L340.3039459215864,263.3550273095989L339.4525053327326,263.2695232086525L338.59657936007216,263.193757908968L337.7348119573382,263.12850365029294L336.86589923388925,263.0723017575484L335.9923446597567,263.0255383506084L335.1112275199039,262.9880418206399L334.2247905062341,262.958310590356L333.3351198437735,262.9374601171699L332.4405465525012,262.92446074808475L331.54571248310054,262.9191408742677L330.6490529668019,262.92261595313204L329.7509330929849,262.93334150518245L328.85474297731713,262.9523042812077L327.95672741475147,262.9795900856242L327.0604329878324,263.01408346101846L326.16549460718045,263.057328886886L325.27076484903114,263.10791059035597L324.3808855640679,263.1664292023434L323.4927274147514,263.2333566471384L322.6106193180112,263.3073629562866L321.73497851885236,263.3904216313655L320.8659614841521,263.48094529067146L320.0083143758451,263.5801351960343L319.1597423464023,263.688034249662L318.3265562265285,263.8037844073907L317.50854739372096,263.9289301487156L316.7114008111763,264.0610260477693L315.9394975514497,264.20170238846333L315.19800102148116,264.34787021180716L314.4952039657504,264.4997440288418L313.83527883430975,264.6546210004507L313.2259968153823,264.81099954934655L312.66845317710687,264.96716358720147L312.16551647889446,265.11976674177555L311.71593498572935,265.2687661108607L311.3160056481899,265.4115017575484L310.962703439988,265.54831689950424L310.6503955535527,265.6802411897251L310.3737621150669,265.8066739972961L310.1290479194833,265.92911689950427L309.9127063842572,266.04941469130233L309.72119092684403,266.1682967102298L309.551841610335,266.286277782785L309.4024678984528,266.40365822442544L309.2706706324171,266.51996611086076L309.1539463421962,266.634343397927L309.05093898152325,266.7465755745832L308.9609705272646,266.8567484452456L308.8829457112814,266.9647333032898L308.81566495418366,267.07027273546646L308.75850238846334,267.17332383956733L308.71109292474097,267.27388661559263L308.67301931801114,267.3720468679586L308.64381216764315,267.4675900856242L308.6230542286316,267.56055917079766L308.6111105903561,267.65061090581344L308.6083984978219,267.7380456061289L308.6159089079166,267.82565191527715L308.63682331380505,267.9136443442993L308.67755685744334,267.9993200540784L308.7429600120175,268.0777881928797L308.82979912873674,268.14759008562413L308.93004224124985,268.21370238846333L309.03941258825296,268.2809730509238L309.1579101697462,268.35008850833714L309.2886643232688,268.4185175304191L309.4348043863603,268.4841150067598L309.5978428721647,268.5480821991888L309.77871858194385,268.61329355565573L309.97951774072413,268.68137936007207L310.20409986480405,268.752125101397L310.4572111161184,268.8261314105453L310.7435455009765,268.9059295178008L311.0684228931952,268.99212005407844L311.4394058584949,269.08307273546643L311.86489145260634,269.17990301937806L312.350147393721,269.2836834610185L312.9003370887787,269.391325101397L313.5172338290521,269.50308535376297L314.1955177407241,269.61540333483555L314.9311206849933,269.72673456511944L315.7107429773171,269.83527715187023L316.5268742076011,269.93867147363676L317.36678840318467,270.0367888237945L318.2251656902509,270.1270550698512L319.0954866155927,270.21088598467776L319.97420459666523,270.28575033799007L320.86231059035606,270.3534071203245L321.7571968153824,270.4128695808923L322.6616796755295,270.4657680036052L323.56819660507745,270.5123168995043L324.47956400781135,270.55097178909415L325.3945823043414,270.58404939161784L326.3099135346253,270.6097478143307L327.2297823043413,270.6290538080217L328.1488165840469,270.6424821991888L329.06957199939916,270.6483598017125L329.99345675229085,270.6486172149617L330.9167677933004,270.64226768814785L331.8445642181163,270.6294399278955L332.7717347754244,270.61223614240646L333.6936376145411,270.5888544389365L334.612776205498,270.5591232086526L335.5266992338892,270.5229995493466L336.4380144809975,270.4794538080216L337.34604392368936,270.4296443442992L338.2492750488209,270.3718979720595L339.1541229983477,270.3059572780532L340.0582407691153,270.233667057233L340.96011584797964,270.15318251464623L341.866997866907,270.06386011716984L342.78081658404693,269.9670298332582L343.70188493315317,269.86354970707526L344.62608261979875,269.7549642181163L345.55262730959896,269.6393427670121L346.4899160582846,269.51689986480403L347.43429797205954,269.3905957638576L348.38274802463576,269.2599585398828L349.33505759351067,269.1261465525011L350.286532672375,268.9902752591257L351.23164476490916,268.8527736818387L352.16987231485666,268.71153961243806L353.1034058584949,268.56807462821087L354.02077115817946,268.42465254619196L354.90971164188073,268.284834249662L355.7531202643834,268.1557415051825L356.54348661559266,268.04385254619194L357.2861305693256,267.9520847228481L357.9862155325223,267.881296079315L358.6497394021332,267.8315295178008L359.2782146913024,267.8005970256873L359.86903361874727,267.785881568274L360.41739786690715,267.7854954484002L360.7585999699565,267.79317494366836" class="line" style="fill:none; stroke:black; stroke-width:2"/>
                <path id="area" d="M360.7585999699565,267.79317494366836L360.42120522758,267.72255790896804L359.8519265735316,267.5975408742677L359.20196316659167,267.4497427670122L358.4750180561815,267.27933519603425L357.6838172149618,267.0890639026589L356.8440073306295,266.88210365029295L355.96674970707534,266.66150049571877L355.0657091182215,266.43201658404683L354.1490739972961,266.1964834610185L353.2263366681689,265.9572607480847L352.3022954484003,265.71739450202796L351.3873293074959,265.4799736818387L350.4876969205348,265.25010365029294L349.60386768814783,265.02928598467776L348.73568514345806,264.82022352410996L347.8770992338892,264.62235853988284L347.02790133693856,264.4360771518702L346.18308451254325,264.2615509689049L345.34228367132346,264.0977932401983L344.5043513895148,263.9460910319964L343.66626264082925,263.80528598467777L342.82968640528776,263.6758500225327L341.9907110109659,263.5582121676431L341.14876274598174,263.45095664713836L340.3039459215864,263.3550273095989L339.4525053327326,263.2695232086525L338.59657936007216,263.193757908968L337.7348119573382,263.12850365029294L336.86589923388925,263.0723017575484L335.9923446597567,263.0255383506084L335.1112275199039,262.9880418206399L334.2247905062341,262.958310590356L333.3351198437735,262.9374601171699L332.4405465525012,262.92446074808475L331.54571248310054,262.9191408742677L330.6490529668019,262.92261595313204L329.7509330929849,262.93334150518245L328.85474297731713,262.9523042812077L327.95672741475147,262.9795900856242L327.0604329878324,263.01408346101846L326.16549460718045,263.057328886886L325.27076484903114,263.10791059035597L324.3808855640679,263.1664292023434L323.4927274147514,263.2333566471384L322.6106193180112,263.3073629562866L321.73497851885236,263.3904216313655L320.8659614841521,263.48094529067146L320.0083143758451,263.5801351960343L319.1597423464023,263.688034249662L318.3265562265285,263.8037844073907L317.50854739372096,263.9289301487156L316.7114008111763,264.0610260477693L315.9394975514497,264.20170238846333L315.19800102148116,264.34787021180716L314.4952039657504,264.4997440288418L313.83527883430975,264.6546210004507L313.2259968153823,264.81099954934655L312.66845317710687,264.96716358720147L312.16551647889446,265.11976674177555L311.71593498572935,265.2687661108607L311.3160056481899,265.4115017575484L310.962703439988,265.54831689950424L310.6503955535527,265.6802411897251L310.3737621150669,265.8066739972961L310.1290479194833,265.92911689950427L309.9127063842572,266.04941469130233L309.72119092684403,266.1682967102298L309.551841610335,266.286277782785L309.4024678984528,266.40365822442544L309.2706706324171,266.51996611086076L309.1539463421962,266.634343397927L309.05093898152325,266.7465755745832L308.9609705272646,266.8567484452456L308.8829457112814,266.9647333032898L308.81566495418366,267.07027273546646L308.75850238846334,267.17332383956733L308.71109292474097,267.27388661559263L308.67301931801114,267.3720468679586L308.64381216764315,267.4675900856242L308.6230542286316,267.56055917079766L308.6111105903561,267.65061090581344L308.6083984978219,267.7380456061289L308.6159089079166,267.82565191527715L308.63682331380505,267.9136443442993L308.67755685744334,267.9993200540784L308.7429600120175,268.0777881928797L308.82979912873674,268.14759008562413L308.93004224124985,268.21370238846333L309.03941258825296,268.2809730509238L309.1579101697462,268.35008850833714L309.2886643232688,268.4185175304191L309.4348043863603,268.4841150067598L309.5978428721647,268.5480821991888L309.77871858194385,268.61329355565573L309.97951774072413,268.68137936007207L310.20409986480405,268.752125101397L310.4572111161184,268.8261314105453L310.7435455009765,268.9059295178008L311.0684228931952,268.99212005407844L311.4394058584949,269.08307273546643L311.86489145260634,269.17990301937806L312.350147393721,269.2836834610185L312.9003370887787,269.391325101397L313.5172338290521,269.50308535376297L314.1955177407241,269.61540333483555L314.9311206849933,269.72673456511944L315.7107429773171,269.83527715187023L316.5268742076011,269.93867147363676L317.36678840318467,270.0367888237945L318.2251656902509,270.1270550698512L319.0954866155927,270.21088598467776L319.97420459666523,270.28575033799007L320.86231059035606,270.3534071203245L321.7571968153824,270.4128695808923L322.6616796755295,270.4657680036052L323.56819660507745,270.5123168995043L324.47956400781135,270.55097178909415L325.3945823043414,270.58404939161784L326.3099135346253,270.6097478143307L327.2297823043413,270.6290538080217L328.1488165840469,270.6424821991888L329.06957199939916,270.6483598017125L329.99345675229085,270.6486172149617L330.9167677933004,270.64226768814785L331.8445642181163,270.6294399278955L332.7717347754244,270.61223614240646L333.6936376145411,270.5888544389365L334.612776205498,270.5591232086526L335.5266992338892,270.5229995493466L336.4380144809975,270.4794538080216L337.34604392368936,270.4296443442992L338.2492750488209,270.3718979720595L339.1541229983477,270.3059572780532L340.0582407691153,270.233667057233L340.96011584797964,270.15318251464623L341.866997866907,270.06386011716984L342.78081658404693,269.9670298332582L343.70188493315317,269.86354970707526L344.62608261979875,269.7549642181163L345.55262730959896,269.6393427670121L346.4899160582846,269.51689986480403L347.43429797205954,269.3905957638576L348.38274802463576,269.2599585398828L349.33505759351067,269.1261465525011L350.286532672375,268.9902752591257L351.23164476490916,268.8527736818387L352.16987231485666,268.71153961243806L353.1034058584949,268.56807462821087L354.02077115817946,268.42465254619196L354.90971164188073,268.284834249662L355.7531202643834,268.1557415051825L356.54348661559266,268.04385254619194L357.2861305693256,267.9520847228481L357.9862155325223,267.881296079315L358.6497394021332,267.8315295178008L359.2782146913024,267.8005970256873L359.86903361874727,267.785881568274L360.41739786690715,267.7854954484002L360.7585999699565,267.79317494366836L360.7585999699565,255L360.41739786690715,255L359.86903361874727,255L359.2782146913024,255L358.6497394021332,255L357.9862155325223,255L357.2861305693256,255L356.54348661559266,255L355.7531202643834,255L354.90971164188073,255L354.02077115817946,255L353.1034058584949,255L352.16987231485666,255L351.23164476490916,255L350.286532672375,255L349.33505759351067,255L348.38274802463576,255L347.43429797205954,255L346.4899160582846,255L345.55262730959896,255L344.62608261979875,255L343.70188493315317,255L342.78081658404693,255L341.866997866907,255L340.96011584797964,255L340.0582407691153,255L339.1541229983477,255L338.2492750488209,255L337.34604392368936,255L336.4380144809975,255L335.5266992338892,255L334.612776205498,255L333.6936376145411,255L332.7717347754244,255L331.8445642181163,255L330.9167677933004,255L329.99345675229085,255L329.06957199939916,255L328.1488165840469,255L327.2297823043413,255L326.3099135346253,255L325.3945823043414,255L324.47956400781135,255L323.56819660507745,255L322.6616796755295,255L321.7571968153824,255L320.86231059035606,255L319.97420459666523,255L319.0954866155927,255L318.2251656902509,255L317.36678840318467,255L316.5268742076011,255L315.7107429773171,255L314.9311206849933,255L314.1955177407241,255L313.5172338290521,255L312.9003370887787,255L312.350147393721,255L311.86489145260634,255L311.4394058584949,255L311.0684228931952,255L310.7435455009765,255L310.4572111161184,255L310.20409986480405,255L309.97951774072413,255L309.77871858194385,255L309.5978428721647,255L309.4348043863603,255L309.2886643232688,255L309.1579101697462,255L309.03941258825296,255L308.93004224124985,255L308.82979912873674,255L308.7429600120175,255L308.67755685744334,255L308.63682331380505,255L308.6159089079166,255L308.6083984978219,255L308.6111105903561,255L308.6230542286316,255L308.64381216764315,255L308.67301931801114,255L308.71109292474097,255L308.75850238846334,255L308.81566495418366,255L308.8829457112814,255L308.9609705272646,255L309.05093898152325,255L309.1539463421962,255L309.2706706324171,255L309.4024678984528,255L309.551841610335,255L309.72119092684403,255L309.9127063842572,255L310.1290479194833,255L310.3737621150669,255L310.6503955535527,255L310.962703439988,255L311.3160056481899,255L311.71593498572935,255L312.16551647889446,255L312.66845317710687,255L313.2259968153823,255L313.83527883430975,255L314.4952039657504,255L315.19800102148116,255L315.9394975514497,255L316.7114008111763,255L317.50854739372096,255L318.3265562265285,255L319.1597423464023,255L320.0083143758451,255L320.8659614841521,255L321.73497851885236,255L322.6106193180112,255L323.4927274147514,255L324.3808855640679,255L325.27076484903114,255L326.16549460718045,255L327.0604329878324,255L327.95672741475147,255L328.85474297731713,255L329.7509330929849,255L330.6490529668019,255L331.54571248310054,255L332.4405465525012,255L333.3351198437735,255L334.2247905062341,255L335.1112275199039,255L335.9923446597567,255L336.86589923388925,255L337.7348119573382,255L338.59657936007216,255L339.4525053327326,255L340.3039459215864,255L341.14876274598174,255L341.9907110109659,255L342.82968640528776,255L343.66626264082925,255L344.5043513895148,255L345.34228367132346,255L346.18308451254325,255L347.02790133693856,255L347.8770992338892,255L348.73568514345806,255L349.60386768814783,255L350.4876969205348,255L351.3873293074959,255L352.3022954484003,255L353.2263366681689,255L354.1490739972961,255L355.0657091182215,255L355.96674970707534,255L356.8440073306295,255L357.6838172149618,255L358.4750180561815,255L359.20196316659167,255L359.8519265735316,255L360.42120522758,255L360.7585999699565,255Z" class="area" style="fill:lightblue;" opacity="1"/>
            </g>
            <g id="xy" class="xy">
                <path id="line" d="M361.68858040616175,267.69727874042366L361.5727432272524,267.675468330329L361.367506183539,267.6354878774223L361.1250095333963,267.5872569851285L360.8527322538409,267.5321904686796L360.5612067543667,267.47264105452905L360.25982523866884,267.410468668319L359.9532644830733,267.3466271180712L359.6440561309627,267.2818794502028L359.33449991945605,267.2167343623254L359.0251562886914,267.15101698963497L358.71505896256855,267.08482271293377L358.4065076782062,267.0188191978369L358.10085522214496,266.9537059035602L357.79786968812056,266.8901822893195L357.49886521162966,266.82897960793144L357.20287551657185,266.7706224538081L356.9082192825325,266.71498365254615L356.61537964756184,266.6622539657503L356.3230618016853,266.61264005182517L356.0308212578968,266.5658080779631L355.73927643290057,266.5221872577738L355.446997238068,266.4815073456512L355.15514320471965,266.44387961919784L354.8631732182393,266.40960611762057L354.56948326030033,266.3782417305092L354.27550341953116,266.34985004506535L353.9801901177435,266.32447875169L353.68323414658533,266.3017781207751L353.38589166498707,266.2818753267237L353.08657798014406,266.264690885534L352.78598881084855,266.24984327399727L352.484955154547,266.2375550473186L352.1817956908246,266.22766723749436L351.8777472530898,266.2197665277152L351.57356353670104,266.21417085398826L351.2679304061617,266.21060997070754L350.96258715845266,266.2089726002704L350.6575724446175,266.2096084722848L350.35106966558794,266.2122314443443L350.04545586057066,266.216714342046L349.7399580086854,266.22340689499777L349.4334165786118,266.23205475439386L349.12828591164475,266.2425625394322L348.8226914321494,266.255343566922L348.51701965056617,266.26990503605225L348.21285525969944,266.2865012956286L347.9083043583925,266.3053390040559L347.604816360796,266.3259094637224L347.30316428779014,266.348864443443L347.0014928892623,266.3739654912123L346.70248841277134,266.40122850383057L346.40470144416685,266.4310509013069L346.1088083767191,266.46316243803517L345.8165098563646,266.4978969468229L345.52579602881457,266.53541339567374L345.24051267294857,266.5755210229833L344.95853398134574,266.6187762167643L344.68391831362754,266.6646384858044L344.41666566979404,266.7135847341145L344.1606025032024,266.7649949864805L343.9181058530597,266.8188533461019L343.6929828472012,266.87380858494816L343.48929184524843,266.92908175980176L343.30939056088613,266.9827493578188L343.15443852543467,267.03428678458766L343.0221939783414,267.0831853424966L342.91031853144347,267.1296675867508L342.81570077569756,267.1746555317711L342.7354225572809,267.21861018476795L342.6672807666845,267.2618176881478L342.6091882475317,267.3040713835061L342.559463679408,267.34492616043264L342.51714078621285,267.38438201892745L342.48154317467606,267.42266151419557L342.4517238942194,267.4596533686346L342.42692924948454,267.49527809824247L342.40669542794336,267.52958339342047L342.3906745701996,267.5626169445696L342.3785961189453,267.59441054529066L342.37015086582824,267.6249482987833L342.3656480192007,267.65426199864805L342.36545476398055,267.6825583032898L342.3704987252244,267.71090229833254L342.38367873123315,267.73840376295624L342.40795158687376,267.76196282109055L342.4414040654678,267.78049849031095L342.4804802709657,267.7971742338891L342.52388539339324,267.81481968228934L342.5720252687124,267.8338799459216L342.626619868382,267.8530037967553L342.6896790466905,267.871380497972L342.7631160303168,267.8901228255971L342.8492112308576,267.9107409756647L342.95142391675216,267.9335528841821L343.07481737476627,267.9588764871563L343.22404905570363,267.9880153222173L343.40246227487137,268.02006327174405L343.6128592329606,268.05435267012166L343.85081438543176,268.0899456061289L344.111573653871,268.1251411221271L344.3870396445575,268.1589695132943L344.67352118278785,268.19081080441646L344.9665733985006,268.22076037629563L345.2642250884511,268.24837311852184L345.5648722343126,268.2742531095088L345.8666595859725,268.2976849932402L346.17074667475123,268.3194318161334L346.4741187192157,268.3388259125732L346.779790500799,268.3562805993691L347.08569418864636,268.37176408292027L347.39358840526046,268.3853717440289L347.7029513615471,268.3975963835061L348.01109680994733,268.4080723749437L348.3213680657682,268.41678382154123L348.6315040429351,268.4242553177107L348.9412728351839,268.42989868183867L349.25270362232516,268.4340954371338L349.5633227375423,268.43702044840023L349.87374859753925,268.43810143082464L350.1858364524289,268.4378788756197L350.4970353333061,268.4362732987832L350.80898790954166,268.43304624831006L351.12277641036786,268.4287064218117L351.4348256142134,268.4233333032898L351.74602449509064,268.4164499887337L352.0569334931379,268.40816775574586L352.36639307703456,268.3983594299234L352.6760265906292,268.38678655926094L352.9851576406517,268.3738465637675L353.2926073702597,268.35909433303294L353.60108135253404,268.3423391054529L353.9101544259906,268.3241531658404L354.2176234811205,268.3043298557909L354.5257109529546,268.28248765209554L354.8357116514675,268.2588650067598L355.1474709724829,268.2337639589905L355.460930939435,268.2075819287968L355.7734826068528,268.18052557458316L356.08640145918866,268.15199081793605L356.40241239504564,268.1222320076611L356.7196794898331,268.0920121901758L357.03706253775255,268.0611882942767L357.3555084893824,268.0298557007661L357.6737998368362,267.99830055205047L357.99054514252947,267.9666023321316L358.30446892200973,267.9343159305994L358.6185473056661,267.9009485466426L358.9322198533602,267.86692939387115L359.2440758019857,267.8324333370888L359.5511583466755,267.79830290671475L359.8482689220097,267.76642982199195L360.1327985825175,267.7387216989635L360.4055203490789,267.71638669445696L360.66684005765643,267.70006068048673L360.91724084629993,267.6901887674628L361.155118696683,267.6862145673727L361.37535234547374,267.68721606579544L361.5720668339821,267.69215997070756L361.68858040616175,267.69727874042366" class="line" style="fill:none; stroke:black; stroke-width:2"/>
                <path id="area" d="M361.68858040616175,267.69727874042366L361.5727432272524,267.675468330329L361.367506183539,267.6354878774223L361.1250095333963,267.5872569851285L360.8527322538409,267.5321904686796L360.5612067543667,267.47264105452905L360.25982523866884,267.410468668319L359.9532644830733,267.3466271180712L359.6440561309627,267.2818794502028L359.33449991945605,267.2167343623254L359.0251562886914,267.15101698963497L358.71505896256855,267.08482271293377L358.4065076782062,267.0188191978369L358.10085522214496,266.9537059035602L357.79786968812056,266.8901822893195L357.49886521162966,266.82897960793144L357.20287551657185,266.7706224538081L356.9082192825325,266.71498365254615L356.61537964756184,266.6622539657503L356.3230618016853,266.61264005182517L356.0308212578968,266.5658080779631L355.73927643290057,266.5221872577738L355.446997238068,266.4815073456512L355.15514320471965,266.44387961919784L354.8631732182393,266.40960611762057L354.56948326030033,266.3782417305092L354.27550341953116,266.34985004506535L353.9801901177435,266.32447875169L353.68323414658533,266.3017781207751L353.38589166498707,266.2818753267237L353.08657798014406,266.264690885534L352.78598881084855,266.24984327399727L352.484955154547,266.2375550473186L352.1817956908246,266.22766723749436L351.8777472530898,266.2197665277152L351.57356353670104,266.21417085398826L351.2679304061617,266.21060997070754L350.96258715845266,266.2089726002704L350.6575724446175,266.2096084722848L350.35106966558794,266.2122314443443L350.04545586057066,266.216714342046L349.7399580086854,266.22340689499777L349.4334165786118,266.23205475439386L349.12828591164475,266.2425625394322L348.8226914321494,266.255343566922L348.51701965056617,266.26990503605225L348.21285525969944,266.2865012956286L347.9083043583925,266.3053390040559L347.604816360796,266.3259094637224L347.30316428779014,266.348864443443L347.0014928892623,266.3739654912123L346.70248841277134,266.40122850383057L346.40470144416685,266.4310509013069L346.1088083767191,266.46316243803517L345.8165098563646,266.4978969468229L345.52579602881457,266.53541339567374L345.24051267294857,266.5755210229833L344.95853398134574,266.6187762167643L344.68391831362754,266.6646384858044L344.41666566979404,266.7135847341145L344.1606025032024,266.7649949864805L343.9181058530597,266.8188533461019L343.6929828472012,266.87380858494816L343.48929184524843,266.92908175980176L343.30939056088613,266.9827493578188L343.15443852543467,267.03428678458766L343.0221939783414,267.0831853424966L342.91031853144347,267.1296675867508L342.81570077569756,267.1746555317711L342.7354225572809,267.21861018476795L342.6672807666845,267.2618176881478L342.6091882475317,267.3040713835061L342.559463679408,267.34492616043264L342.51714078621285,267.38438201892745L342.48154317467606,267.42266151419557L342.4517238942194,267.4596533686346L342.42692924948454,267.49527809824247L342.40669542794336,267.52958339342047L342.3906745701996,267.5626169445696L342.3785961189453,267.59441054529066L342.37015086582824,267.6249482987833L342.3656480192007,267.65426199864805L342.36545476398055,267.6825583032898L342.3704987252244,267.71090229833254L342.38367873123315,267.73840376295624L342.40795158687376,267.76196282109055L342.4414040654678,267.78049849031095L342.4804802709657,267.7971742338891L342.52388539339324,267.81481968228934L342.5720252687124,267.8338799459216L342.626619868382,267.8530037967553L342.6896790466905,267.871380497972L342.7631160303168,267.8901228255971L342.8492112308576,267.9107409756647L342.95142391675216,267.9335528841821L343.07481737476627,267.9588764871563L343.22404905570363,267.9880153222173L343.40246227487137,268.02006327174405L343.6128592329606,268.05435267012166L343.85081438543176,268.0899456061289L344.111573653871,268.1251411221271L344.3870396445575,268.1589695132943L344.67352118278785,268.19081080441646L344.9665733985006,268.22076037629563L345.2642250884511,268.24837311852184L345.5648722343126,268.2742531095088L345.8666595859725,268.2976849932402L346.17074667475123,268.3194318161334L346.4741187192157,268.3388259125732L346.779790500799,268.3562805993691L347.08569418864636,268.37176408292027L347.39358840526046,268.3853717440289L347.7029513615471,268.3975963835061L348.01109680994733,268.4080723749437L348.3213680657682,268.41678382154123L348.6315040429351,268.4242553177107L348.9412728351839,268.42989868183867L349.25270362232516,268.4340954371338L349.5633227375423,268.43702044840023L349.87374859753925,268.43810143082464L350.1858364524289,268.4378788756197L350.4970353333061,268.4362732987832L350.80898790954166,268.43304624831006L351.12277641036786,268.4287064218117L351.4348256142134,268.4233333032898L351.74602449509064,268.4164499887337L352.0569334931379,268.40816775574586L352.36639307703456,268.3983594299234L352.6760265906292,268.38678655926094L352.9851576406517,268.3738465637675L353.2926073702597,268.35909433303294L353.60108135253404,268.3423391054529L353.9101544259906,268.3241531658404L354.2176234811205,268.3043298557909L354.5257109529546,268.28248765209554L354.8357116514675,268.2588650067598L355.1474709724829,268.2337639589905L355.460930939435,268.2075819287968L355.7734826068528,268.18052557458316L356.08640145918866,268.15199081793605L356.40241239504564,268.1222320076611L356.7196794898331,268.0920121901758L357.03706253775255,268.0611882942767L357.3555084893824,268.0298557007661L357.6737998368362,267.99830055205047L357.99054514252947,267.9666023321316L358.30446892200973,267.9343159305994L358.6185473056661,267.9009485466426L358.9322198533602,267.86692939387115L359.2440758019857,267.8324333370888L359.5511583466755,267.79830290671475L359.8482689220097,267.76642982199195L360.1327985825175,267.7387216989635L360.4055203490789,267.71638669445696L360.66684005765643,267.70006068048673L360.91724084629993,267.6901887674628L361.155118696683,267.6862145673727L361.37535234547374,267.68721606579544L361.5720668339821,267.69215997070756L361.68858040616175,267.69727874042366L361.68858040616175,255L361.5720668339821,255L361.37535234547374,255L361.155118696683,255L360.91724084629993,255L360.66684005765643,255L360.4055203490789,255L360.1327985825175,255L359.8482689220097,255L359.5511583466755,255L359.2440758019857,255L358.9322198533602,255L358.6185473056661,255L358.30446892200973,255L357.99054514252947,255L357.6737998368362,255L357.3555084893824,255L357.03706253775255,255L356.7196794898331,255L356.40241239504564,255L356.08640145918866,255L355.7734826068528,255L355.460930939435,255L355.1474709724829,255L354.8357116514675,255L354.5257109529546,255L354.2176234811205,255L353.9101544259906,255L353.60108135253404,255L353.2926073702597,255L352.9851576406517,255L352.6760265906292,255L352.36639307703456,255L352.0569334931379,255L351.74602449509064,255L351.4348256142134,255L351.12277641036786,255L350.80898790954166,255L350.4970353333061,255L350.1858364524289,255L349.87374859753925,255L349.5633227375423,255L349.25270362232516,255L348.9412728351839,255L348.6315040429351,255L348.3213680657682,255L348.01109680994733,255L347.7029513615471,255L347.39358840526046,255L347.08569418864636,255L346.779790500799,255L346.4741187192157,255L346.17074667475123,255L345.8666595859725,255L345.5648722343126,255L345.2642250884511,255L344.9665733985006,255L344.67352118278785,255L344.3870396445575,255L344.111573653871,255L343.85081438543176,255L343.6128592329606,255L343.40246227487137,255L343.22404905570363,255L343.07481737476627,255L342.95142391675216,255L342.8492112308576,255L342.7631160303168,255L342.6896790466905,255L342.626619868382,255L342.5720252687124,255L342.52388539339324,255L342.4804802709657,255L342.4414040654678,255L342.40795158687376,255L342.38367873123315,255L342.3704987252244,255L342.36545476398055,255L342.3656480192007,255L342.37015086582824,255L342.3785961189453,255L342.3906745701996,255L342.40669542794336,255L342.42692924948454,255L342.4517238942194,255L342.48154317467606,255L342.51714078621285,255L342.559463679408,255L342.6091882475317,255L342.6672807666845,255L342.7354225572809,255L342.81570077569756,255L342.91031853144347,255L343.0221939783414,255L343.15443852543467,255L343.30939056088613,255L343.48929184524843,255L343.6929828472012,255L343.9181058530597,255L344.1606025032024,255L344.41666566979404,255L344.68391831362754,255L344.95853398134574,255L345.24051267294857,255L345.52579602881457,255L345.8165098563646,255L346.1088083767191,255L346.40470144416685,255L346.70248841277134,255L347.0014928892623,255L347.30316428779014,255L347.604816360796,255L347.9083043583925,255L348.21285525969944,255L348.51701965056617,255L348.8226914321494,255L349.12828591164475,255L349.4334165786118,255L349.7399580086854,255L350.04545586057066,255L350.35106966558794,255L350.6575724446175,255L350.96258715845266,255L351.2679304061617,255L351.57356353670104,255L351.8777472530898,255L352.1817956908246,255L352.484955154547,255L352.78598881084855,255L353.08657798014406,255L353.38589166498707,255L353.68323414658533,255L353.9801901177435,255L354.27550341953116,255L354.56948326030033,255L354.8631732182393,255L355.15514320471965,255L355.446997238068,255L355.73927643290057,255L356.0308212578968,255L356.3230618016853,255L356.61537964756184,255L356.9082192825325,255L357.20287551657185,255L357.49886521162966,255L357.79786968812056,255L358.10085522214496,255L358.4065076782062,255L358.71505896256855,255L359.0251562886914,255L359.33449991945605,255L359.6440561309627,255L359.9532644830733,255L360.25982523866884,255L360.5612067543667,255L360.8527322538409,255L361.1250095333963,255L361.367506183539,255L361.5727432272524,255L361.68858040616175,255Z" class="area" style="fill:lightblue;" opacity="1"/>
            </g>
            <g id="xy" class="xy">
                <path id="line" d="M506.9806219017576,242.11455159981972L506.65893345350764,242.0775561063542L506.0978227429774,242.01371991888237L505.4427667117321,241.94027670121676L504.7087228481299,241.8593332582244L503.91992023433994,241.77383911671924L503.09843653297287,241.68649098693106L502.25948535376307,241.59893217665615L501.4115187021182,241.51213181613335L500.55899308998056,241.42651126633618L499.7040599369086,241.34228120775123L498.8477437284063,241.25956804867053L497.9906591557759,241.1783717890942L497.13301111611844,241.09873456511943L496.2750045065345,241.02061424064894L495.4167417755747,240.9440529517801L494.5583253717892,240.8690506985128L493.6997552951781,240.79560748084722L492.841185218567,240.72376543488056L491.98261514195593,240.6535245606129L491.1241987381704,240.5849269941415L490.26588478293536,240.5180570076611L489.4078269490762,240.4528724650744L488.55007646086835,240.38949977467325L487.6926333183116,240.32793893645788L486.8357024185069,240.26827422262278L485.979232537179,240.21058990536278L485.12337734715345,240.15497025687245L484.26813684843034,240.10145741324922L483.4137159381104,240.05017778278503L482.5600633919184,240.00125777377198L481.7073841069552,239.95473952230736L480.85572930749595,239.91079157278054L480.0051502178159,239.86954033348357L479.1558517350159,239.83107007661113L478.307885083371,239.79559148264983L477.46140393570687,239.76323095989184L476.61656196484904,239.73415705272646L475.7735128436234,239.708538305543L474.9323590205799,239.6865853988283L474.09340784137004,239.66850901306898L473.2567617545442,239.6544776926543L472.42272810575344,239.64474425416856L471.59156301637387,239.6395615141956L470.7636250563317,239.63918228931948L469.9392215712785,239.64394366831905L469.11886480396583,239.65405633168092L468.30301577287076,239.66994164037857L467.49234039357077,239.69185241099595L466.68765825446906,239.72021000450655L465.88994261679443,239.75543578188373L465.1004740874268,239.79786683190625L464.32109674027345,239.84788237945017L463.5540644434431,239.90594592158632L462.80280922337397,239.9723102748986L462.07173636773325,240.04701757548446L461.3670440138201,240.12994141505183L460.6965182514647,240.22028120775124L460.06912332882695,240.31668859846778L459.4934649241401,240.41722532672375L458.9757923989787,240.51944749887332L458.5182571729008,240.62120617395226L458.11896394772435,240.72073163587203L457.7726366231036,240.81713902658853L457.4728209403636,240.9100491212258L457.2127552951781,240.99958832807573L456.9862927745231,241.0860515998197L456.7883109508789,241.1699867057233L456.61455820940375,241.2518992789545L456.46165374793463,241.3323792248761L456.32708757698674,241.4118900405588L456.2088619498274,241.49097949526816L456.1056450353012,241.56994254168546L456.01636112362934,241.6492426768815L455.94060042060994,241.7290484452456L455.87805558059193,241.80940198287513L455.8286753793,241.89013474538083L455.79235736818396,241.9708675078864L455.7688966501428,242.05096822893194L455.7576785338742,242.12934136998646L455.7576785338742,242.20594479495267L455.7688966501428,242.2843179360072L455.79235736818396,242.36441865705274L455.8286753793,242.44515141955836L455.87805558059193,242.525884182064L455.94060042060994,242.60623771969352L456.01636112362934,242.6860434880577L456.1056450353012,242.76534362325373L456.2088619498274,242.84430666967103L456.32708757698674,242.92339612438033L456.46165374793463,243.0029069400631L456.61455820940375,243.08338688598468L456.7883109508789,243.16529945921587L456.9862927745231,243.24923456511942L457.2127552951781,243.33569783686346L457.4728209403636,243.4252370437134L457.77268784737885,243.5181471383506L458.11896394772435,243.61455452906716L458.518308397176,243.71407999098693L458.9757923989787,243.8158386660658L459.4934649241401,243.91806083821544L460.06912332882695,244.01859756647136L460.6965182514647,244.11500495718792L461.3670440138201,244.20534474988736L462.07173636773325,244.28826858945473L462.80280922337397,244.36297589004053L463.5541156677182,244.42934024335287L464.32109674027345,244.48740378548894L465.10052531170203,244.53741933303291L465.88994261679443,244.5798503830554L466.68765825446906,244.61507616043264L467.49234039357077,244.64343375394324L468.30301577287076,244.6653445245606L469.11886480396583,244.68122983325821L469.93927279555356,244.69134249662008L470.7636250563317,244.69610387561963L471.591614240649,244.69572465074359L472.42272810575344,244.69054191077063L473.2567617545442,244.6808084722848L474.09340784137004,244.6667771518702L474.93241024485513,244.6487007661109L475.7735128436234,244.62674785939612L476.61656196484904,244.60112911221273L477.4614551599821,244.57205520504732L478.307885083371,244.5396946822893L479.1558517350159,244.50421608832806L480.0052014420911,244.46574583145562L480.85572930749595,244.42449459215865L481.7073841069552,244.38054664263183L482.56011461619363,244.33402839116715L483.4137159381104,244.28510838215414L484.2681880727056,244.2338287516899L485.12337734715345,244.1803159080667L485.979232537179,244.1246962595764L486.8357024185069,244.06701194231633L487.69268454258685,244.0073472284813L488.55007646086835,243.9457863902659L489.4078269490762,243.8824136998648L490.26588478293536,243.81722915727804L491.1241987381704,243.75035917079765L491.9826663662311,243.68176160432628L492.841185218567,243.61152073005857L493.6997552951781,243.53967868409197L494.5583253717892,243.4662354664263L495.4167417755747,243.39123321315907L496.2750045065345,243.31467192429022L497.13301111611844,243.23655159981976L497.9906591557759,243.156914375845L498.8477437284063,243.07571811626858L499.7040599369086,242.99300495718794L500.55899308998056,242.90877489860293L501.4115187021182,242.82315434880576L502.25948535376307,242.73635398828299L503.0984877572481,242.64879517800807L503.91992023433994,242.56144704821992L504.70877407240505,242.47595290671472L505.4427667117321,242.39500946372243L506.0978227429774,242.32156624605682L506.65893345350764,242.25773005858494L506.9806219017576,242.22073456511941" class="line" style="fill:none; stroke:black; stroke-width:2"/>
                <path id="area" d="M506.9806219017576,242.11455159981972L506.65893345350764,242.0775561063542L506.0978227429774,242.01371991888237L505.4427667117321,241.94027670121676L504.7087228481299,241.8593332582244L503.91992023433994,241.77383911671924L503.09843653297287,241.68649098693106L502.25948535376307,241.59893217665615L501.4115187021182,241.51213181613335L500.55899308998056,241.42651126633618L499.7040599369086,241.34228120775123L498.8477437284063,241.25956804867053L497.9906591557759,241.1783717890942L497.13301111611844,241.09873456511943L496.2750045065345,241.02061424064894L495.4167417755747,240.9440529517801L494.5583253717892,240.8690506985128L493.6997552951781,240.79560748084722L492.841185218567,240.72376543488056L491.98261514195593,240.6535245606129L491.1241987381704,240.5849269941415L490.26588478293536,240.5180570076611L489.4078269490762,240.4528724650744L488.55007646086835,240.38949977467325L487.6926333183116,240.32793893645788L486.8357024185069,240.26827422262278L485.979232537179,240.21058990536278L485.12337734715345,240.15497025687245L484.26813684843034,240.10145741324922L483.4137159381104,240.05017778278503L482.5600633919184,240.00125777377198L481.7073841069552,239.95473952230736L480.85572930749595,239.91079157278054L480.0051502178159,239.86954033348357L479.1558517350159,239.83107007661113L478.307885083371,239.79559148264983L477.46140393570687,239.76323095989184L476.61656196484904,239.73415705272646L475.7735128436234,239.708538305543L474.9323590205799,239.6865853988283L474.09340784137004,239.66850901306898L473.2567617545442,239.6544776926543L472.42272810575344,239.64474425416856L471.59156301637387,239.6395615141956L470.7636250563317,239.63918228931948L469.9392215712785,239.64394366831905L469.11886480396583,239.65405633168092L468.30301577287076,239.66994164037857L467.49234039357077,239.69185241099595L466.68765825446906,239.72021000450655L465.88994261679443,239.75543578188373L465.1004740874268,239.79786683190625L464.32109674027345,239.84788237945017L463.5540644434431,239.90594592158632L462.80280922337397,239.9723102748986L462.07173636773325,240.04701757548446L461.3670440138201,240.12994141505183L460.6965182514647,240.22028120775124L460.06912332882695,240.31668859846778L459.4934649241401,240.41722532672375L458.9757923989787,240.51944749887332L458.5182571729008,240.62120617395226L458.11896394772435,240.72073163587203L457.7726366231036,240.81713902658853L457.4728209403636,240.9100491212258L457.2127552951781,240.99958832807573L456.9862927745231,241.0860515998197L456.7883109508789,241.1699867057233L456.61455820940375,241.2518992789545L456.46165374793463,241.3323792248761L456.32708757698674,241.4118900405588L456.2088619498274,241.49097949526816L456.1056450353012,241.56994254168546L456.01636112362934,241.6492426768815L455.94060042060994,241.7290484452456L455.87805558059193,241.80940198287513L455.8286753793,241.89013474538083L455.79235736818396,241.9708675078864L455.7688966501428,242.05096822893194L455.7576785338742,242.12934136998646L455.7576785338742,242.20594479495267L455.7688966501428,242.2843179360072L455.79235736818396,242.36441865705274L455.8286753793,242.44515141955836L455.87805558059193,242.525884182064L455.94060042060994,242.60623771969352L456.01636112362934,242.6860434880577L456.1056450353012,242.76534362325373L456.2088619498274,242.84430666967103L456.32708757698674,242.92339612438033L456.46165374793463,243.0029069400631L456.61455820940375,243.08338688598468L456.7883109508789,243.16529945921587L456.9862927745231,243.24923456511942L457.2127552951781,243.33569783686346L457.4728209403636,243.4252370437134L457.77268784737885,243.5181471383506L458.11896394772435,243.61455452906716L458.518308397176,243.71407999098693L458.9757923989787,243.8158386660658L459.4934649241401,243.91806083821544L460.06912332882695,244.01859756647136L460.6965182514647,244.11500495718792L461.3670440138201,244.20534474988736L462.07173636773325,244.28826858945473L462.80280922337397,244.36297589004053L463.5541156677182,244.42934024335287L464.32109674027345,244.48740378548894L465.10052531170203,244.53741933303291L465.88994261679443,244.5798503830554L466.68765825446906,244.61507616043264L467.49234039357077,244.64343375394324L468.30301577287076,244.6653445245606L469.11886480396583,244.68122983325821L469.93927279555356,244.69134249662008L470.7636250563317,244.69610387561963L471.591614240649,244.69572465074359L472.42272810575344,244.69054191077063L473.2567617545442,244.6808084722848L474.09340784137004,244.6667771518702L474.93241024485513,244.6487007661109L475.7735128436234,244.62674785939612L476.61656196484904,244.60112911221273L477.4614551599821,244.57205520504732L478.307885083371,244.5396946822893L479.1558517350159,244.50421608832806L480.0052014420911,244.46574583145562L480.85572930749595,244.42449459215865L481.7073841069552,244.38054664263183L482.56011461619363,244.33402839116715L483.4137159381104,244.28510838215414L484.2681880727056,244.2338287516899L485.12337734715345,244.1803159080667L485.979232537179,244.1246962595764L486.8357024185069,244.06701194231633L487.69268454258685,244.0073472284813L488.55007646086835,243.9457863902659L489.4078269490762,243.8824136998648L490.26588478293536,243.81722915727804L491.1241987381704,243.75035917079765L491.9826663662311,243.68176160432628L492.841185218567,243.61152073005857L493.6997552951781,243.53967868409197L494.5583253717892,243.4662354664263L495.4167417755747,243.39123321315907L496.2750045065345,243.31467192429022L497.13301111611844,243.23655159981976L497.9906591557759,243.156914375845L498.8477437284063,243.07571811626858L499.7040599369086,242.99300495718794L500.55899308998056,242.90877489860293L501.4115187021182,242.82315434880576L502.25948535376307,242.73635398828299L503.0984877572481,242.64879517800807L503.91992023433994,242.56144704821992L504.70877407240505,242.47595290671472L505.4427667117321,242.39500946372243L506.0978227429774,242.32156624605682L506.65893345350764,242.25773005858494L506.9806219017576,242.22073456511941L506.9806219017576,255L506.65893345350764,255L506.0978227429774,255L505.4427667117321,255L504.70877407240505,255L503.91992023433994,255L503.0984877572481,255L502.25948535376307,255L501.4115187021182,255L500.55899308998056,255L499.7040599369086,255L498.8477437284063,255L497.9906591557759,255L497.13301111611844,255L496.2750045065345,255L495.4167417755747,255L494.5583253717892,255L493.6997552951781,255L492.841185218567,255L491.9826663662311,255L491.1241987381704,255L490.26588478293536,255L489.4078269490762,255L488.55007646086835,255L487.69268454258685,255L486.8357024185069,255L485.979232537179,255L485.12337734715345,255L484.2681880727056,255L483.4137159381104,255L482.56011461619363,255L481.7073841069552,255L480.85572930749595,255L480.0052014420911,255L479.1558517350159,255L478.307885083371,255L477.4614551599821,255L476.61656196484904,255L475.7735128436234,255L474.93241024485513,255L474.09340784137004,255L473.2567617545442,255L472.42272810575344,255L471.591614240649,255L470.7636250563317,255L469.93927279555356,255L469.11886480396583,255L468.30301577287076,255L467.49234039357077,255L466.68765825446906,255L465.88994261679443,255L465.10052531170203,255L464.32109674027345,255L463.5541156677182,255L462.80280922337397,255L462.07173636773325,255L461.3670440138201,255L460.6965182514647,255L460.06912332882695,255L459.4934649241401,255L458.9757923989787,255L458.518308397176,255L458.11896394772435,255L457.77268784737885,255L457.4728209403636,255L457.2127552951781,255L456.9862927745231,255L456.7883109508789,255L456.61455820940375,255L456.46165374793463,255L456.32708757698674,255L456.2088619498274,255L456.1056450353012,255L456.01636112362934,255L455.94060042060994,255L455.87805558059193,255L455.8286753793,255L455.79235736818396,255L455.7688966501428,255L455.7576785338742,255L455.7576785338742,255L455.7688966501428,255L455.79235736818396,255L455.8286753793,255L455.87805558059193,255L455.94060042060994,255L456.01636112362934,255L456.1056450353012,255L456.2088619498274,255L456.32708757698674,255L456.46165374793463,255L456.61455820940375,255L456.7883109508789,255L456.9862927745231,255L457.2127552951781,255L457.4728209403636,255L457.7726366231036,255L458.11896394772435,255L458.5182571729008,255L458.9757923989787,255L459.4934649241401,255L460.06912332882695,255L460.6965182514647,255L461.3670440138201,255L462.07173636773325,255L462.80280922337397,255L463.5540644434431,255L464.32109674027345,255L465.1004740874268,255L465.88994261679443,255L466.68765825446906,255L467.49234039357077,255L468.30301577287076,255L469.11886480396583,255L469.9392215712785,255L470.7636250563317,255L471.59156301637387,255L472.42272810575344,255L473.2567617545442,255L474.09340784137004,255L474.9323590205799,255L475.7735128436234,255L476.61656196484904,255L477.46140393570687,255L478.307885083371,255L479.1558517350159,255L480.0051502178159,255L480.85572930749595,255L481.7073841069552,255L482.5600633919184,255L483.4137159381104,255L484.26813684843034,255L485.12337734715345,255L485.979232537179,255L486.8357024185069,255L487.6926333183116,255L488.55007646086835,255L489.4078269490762,255L490.26588478293536,255L491.1241987381704,255L491.98261514195593,255L492.841185218567,255L493.6997552951781,255L494.5583253717892,255L495.4167417755747,255L496.2750045065345,255L497.13301111611844,255L497.9906591557759,255L498.8477437284063,255L499.7040599369086,255L500.55899308998056,255L501.4115187021182,255L502.25948535376307,255L503.09843653297287,255L503.91992023433994,255L504.7087228481299,255L505.4427667117321,255L506.0978227429774,255L506.65893345350764,255L506.9806219017576,255Z" class="area" style="fill:blue;" opacity="1"/>
            </g>
            <g id="xy" class="xy">
                <path id="line" d="M498.7483781345279,242.13313361874717L498.53928064316545,242.10908654799462L498.1745586813208,242.06759302613787L497.7487722610114,242.01985493465526L497.27164374967,241.96724169671023L496.7589220507064,241.91167050473186L496.22495764481783,241.85489422036952L495.6796393783315,241.79798099369083L495.1284610547623,241.74156075935102L494.5743194068728,241.68590740198286L494.018612857376,241.63115786390264L493.4620073218495,241.57739431050027L492.9049023496398,241.52461674177556L492.34743112386246,241.47285254619197L491.789726827633,241.42207433528614L491.231856052509,241.37230949752143L490.67388539004844,241.3235580328977L490.1158148402513,241.27581994141505L489.557744290454,241.22912261153672L488.9996737406569,241.1834660432627L488.4417030781962,241.1388776250563L487.8837990072934,241.0954121338441L487.326061415285,241.05304218116268L486.76852359794987,241.011849932402L486.21118555528807,240.97183538756195L485.65418047041493,240.93305332356914L485.0974750475518,240.89555851735017L484.5411691740352,240.85940574583145L483.98526284986514,240.82462239747633L483.42988925815723,240.79129063767462L482.8750151031324,240.7594926318161L482.3207735679063,240.72925576836414L481.7671979482579,240.70068960117175L481.21432153996585,240.67387629562867L480.6622775261458,240.64887062866157L480.11109920257655,240.62580954258675L479.5608864565949,240.60477520279403L479.0117391755374,240.58587716313653L478.46375724674067,240.56922497746731L477.91700726176236,240.55495558810273L477.3716889952761,240.54320593735918L476.8278690388392,240.53408557908966L476.2857471671252,240.5277588440739L475.7454898590285,240.52439006309146L475.2073301850011,240.52414356692205L474.67146791971646,240.52723846327177L474.1382360209633,240.53381169445694L473.6079341507515,240.54413714511043L473.08099515420645,240.5583791460117L472.55795176379036,240.57681158179355L472.03943659930184,240.59970833708877L471.52628205521296,240.6272885196034L471.01968677956324,240.659798625507L470.52111578662345,240.69753992789543L470.03279989357856,240.74067675754844L469.5576025374121,240.78923650292924L469.0995525073685,240.84313699864805L468.6637107618375,240.90185786390268L468.2559040621229,240.9645226678684L467.8817260990765,241.02987154123477L467.54523895772155,241.09631595313203L467.247841060771,241.16245909193333L466.9883004644062,241.2271506421812L466.76318770340276,241.28981544614692L466.5683075096218,241.3502070076611L466.3992648402512,241.40840749211353L466.25206420182553,241.4646086187472L466.1233760164567,241.51916643758446L466.01043673449794,241.57240961018476L465.9110488345429,241.6247215750338L465.82358082342677,241.67640360522756L465.74673416577315,241.72781175078862L465.67964317133124,241.77913773095992L465.6216086287445,241.8306828188373L465.57236417178194,241.882556568274L465.53171002577017,241.93478636773318L465.4996128949305,241.9872626633619L465.476006187705,242.0397389589905L465.4607567209782,242.0918044276701L465.45346494540365,242.14274696935553L465.45346494540365,242.19253919558358L465.4607567209782,242.24348173726904L465.476006187705,242.2955472059486L465.4996128949305,242.3480235015773L465.53171002577017,242.40049979720595L465.57236417178194,242.45272959666514L465.6216086287445,242.50460334610182L465.67964317133124,242.55614843397927L465.74673416577315,242.60747441415052L465.82358082342677,242.65888255971157L465.9110488345429,242.71056458990535L466.01043673449794,242.76287655475443L466.1233760164567,242.81611972735467L466.25206420182553,242.87067754619196L466.3992648402512,242.92687867282558L466.5683075096218,242.98507915727808L466.76322099918167,243.04547071879222L466.9883004644062,243.108135522758L467.24787435654986,243.17282707300586L467.54523895772155,243.2389702118071L467.8817260990765,243.30541462370434L468.2559040621229,243.37076349707078L468.6637107618375,243.4334283010365L469.0995525073685,243.4921491662911L469.5576025374121,243.54604966200995L470.03279989357856,243.5946094073907L470.52114908240236,243.63774623704376L471.01968677956324,243.67548753943214L471.5263153509918,243.70799764533572L472.03943659930184,243.7355778278504L472.55795176379036,243.75847458314556L473.08099515420645,243.77690701892743L473.6079341507515,243.79114901982877L474.1382360209633,243.8014744704822L474.67150121549537,243.80804770166742L475.2073301850011,243.81114259801714L475.7455231548073,243.81089610184767L476.2857471671252,243.8075273208653L476.8278690388392,243.8012005858495L477.3716889952761,243.79208022757996L477.9170405575413,243.7803305768364L478.46375724674067,243.76606118747182L479.0117391755374,243.7494090018026L479.5609197523738,243.7305109621451L480.11109920257655,243.70947662235238L480.6622775261458,243.68641553627762L481.2143548357447,243.66140986931052L481.7671979482579,243.63459656376745L482.3207735679063,243.60603039657502L482.87504839891136,243.57579353312303L483.42988925815723,243.5439955272645L483.9852961456441,243.51066376746277L484.5411691740352,243.47588041910774L485.0974750475518,243.43972764758902L485.65418047041493,243.40223284137L486.21121885106686,243.3634507773772L486.76852359794987,243.3234362325372L487.326061415285,243.28224398377645L487.8837990072934,243.2398740310951L488.4417030781962,243.1964085398828L488.9997070364357,243.15182012167642L489.557744290454,243.1061635534024L490.1158148402513,243.05946622352414L490.67388539004844,243.01172813204147L491.231856052509,242.96297666741776L491.789726827633,242.913211829653L492.34743112386246,242.86243361874713L492.9049023496398,242.81066942316363L493.4620073218495,242.75789185443892L494.018612857376,242.7041283010365L494.5743194068728,242.64937876295627L495.1284610547623,242.59372540558812L495.6796393783315,242.53730517124828L496.22499094059674,242.48039194456965L496.7589220507064,242.4236156602073L497.27167704544877,242.36804446822896L497.7487722610114,242.3154312302839L498.1745586813208,242.26769313880126L498.53928064316545,242.22619961694457L498.7483781345279,242.202152546192" class="line" style="fill:none; stroke:black; stroke-width:2"/>
                <path id="area" d="M498.7483781345279,242.13313361874717L498.53928064316545,242.10908654799462L498.1745586813208,242.06759302613787L497.7487722610114,242.01985493465526L497.27164374967,241.96724169671023L496.7589220507064,241.91167050473186L496.22495764481783,241.85489422036952L495.6796393783315,241.79798099369083L495.1284610547623,241.74156075935102L494.5743194068728,241.68590740198286L494.018612857376,241.63115786390264L493.4620073218495,241.57739431050027L492.9049023496398,241.52461674177556L492.34743112386246,241.47285254619197L491.789726827633,241.42207433528614L491.231856052509,241.37230949752143L490.67388539004844,241.3235580328977L490.1158148402513,241.27581994141505L489.557744290454,241.22912261153672L488.9996737406569,241.1834660432627L488.4417030781962,241.1388776250563L487.8837990072934,241.0954121338441L487.326061415285,241.05304218116268L486.76852359794987,241.011849932402L486.21118555528807,240.97183538756195L485.65418047041493,240.93305332356914L485.0974750475518,240.89555851735017L484.5411691740352,240.85940574583145L483.98526284986514,240.82462239747633L483.42988925815723,240.79129063767462L482.8750151031324,240.7594926318161L482.3207735679063,240.72925576836414L481.7671979482579,240.70068960117175L481.21432153996585,240.67387629562867L480.6622775261458,240.64887062866157L480.11109920257655,240.62580954258675L479.5608864565949,240.60477520279403L479.0117391755374,240.58587716313653L478.46375724674067,240.56922497746731L477.91700726176236,240.55495558810273L477.3716889952761,240.54320593735918L476.8278690388392,240.53408557908966L476.2857471671252,240.5277588440739L475.7454898590285,240.52439006309146L475.2073301850011,240.52414356692205L474.67146791971646,240.52723846327177L474.1382360209633,240.53381169445694L473.6079341507515,240.54413714511043L473.08099515420645,240.5583791460117L472.55795176379036,240.57681158179355L472.03943659930184,240.59970833708877L471.52628205521296,240.6272885196034L471.01968677956324,240.659798625507L470.52111578662345,240.69753992789543L470.03279989357856,240.74067675754844L469.5576025374121,240.78923650292924L469.0995525073685,240.84313699864805L468.6637107618375,240.90185786390268L468.2559040621229,240.9645226678684L467.8817260990765,241.02987154123477L467.54523895772155,241.09631595313203L467.247841060771,241.16245909193333L466.9883004644062,241.2271506421812L466.76318770340276,241.28981544614692L466.5683075096218,241.3502070076611L466.3992648402512,241.40840749211353L466.25206420182553,241.4646086187472L466.1233760164567,241.51916643758446L466.01043673449794,241.57240961018476L465.9110488345429,241.6247215750338L465.82358082342677,241.67640360522756L465.74673416577315,241.72781175078862L465.67964317133124,241.77913773095992L465.6216086287445,241.8306828188373L465.57236417178194,241.882556568274L465.53171002577017,241.93478636773318L465.4996128949305,241.9872626633619L465.476006187705,242.0397389589905L465.4607567209782,242.0918044276701L465.45346494540365,242.14274696935553L465.45346494540365,242.19253919558358L465.4607567209782,242.24348173726904L465.476006187705,242.2955472059486L465.4996128949305,242.3480235015773L465.53171002577017,242.40049979720595L465.57236417178194,242.45272959666514L465.6216086287445,242.50460334610182L465.67964317133124,242.55614843397927L465.74673416577315,242.60747441415052L465.82358082342677,242.65888255971157L465.9110488345429,242.71056458990535L466.01043673449794,242.76287655475443L466.1233760164567,242.81611972735467L466.25206420182553,242.87067754619196L466.3992648402512,242.92687867282558L466.5683075096218,242.98507915727808L466.76322099918167,243.04547071879222L466.9883004644062,243.108135522758L467.24787435654986,243.17282707300586L467.54523895772155,243.2389702118071L467.8817260990765,243.30541462370434L468.2559040621229,243.37076349707078L468.6637107618375,243.4334283010365L469.0995525073685,243.4921491662911L469.5576025374121,243.54604966200995L470.03279989357856,243.5946094073907L470.52114908240236,243.63774623704376L471.01968677956324,243.67548753943214L471.5263153509918,243.70799764533572L472.03943659930184,243.7355778278504L472.55795176379036,243.75847458314556L473.08099515420645,243.77690701892743L473.6079341507515,243.79114901982877L474.1382360209633,243.8014744704822L474.67150121549537,243.80804770166742L475.2073301850011,243.81114259801714L475.7455231548073,243.81089610184767L476.2857471671252,243.8075273208653L476.8278690388392,243.8012005858495L477.3716889952761,243.79208022757996L477.9170405575413,243.7803305768364L478.46375724674067,243.76606118747182L479.0117391755374,243.7494090018026L479.5609197523738,243.7305109621451L480.11109920257655,243.70947662235238L480.6622775261458,243.68641553627762L481.2143548357447,243.66140986931052L481.7671979482579,243.63459656376745L482.3207735679063,243.60603039657502L482.87504839891136,243.57579353312303L483.42988925815723,243.5439955272645L483.9852961456441,243.51066376746277L484.5411691740352,243.47588041910774L485.0974750475518,243.43972764758902L485.65418047041493,243.40223284137L486.21121885106686,243.3634507773772L486.76852359794987,243.3234362325372L487.326061415285,243.28224398377645L487.8837990072934,243.2398740310951L488.4417030781962,243.1964085398828L488.9997070364357,243.15182012167642L489.557744290454,243.1061635534024L490.1158148402513,243.05946622352414L490.67388539004844,243.01172813204147L491.231856052509,242.96297666741776L491.789726827633,242.913211829653L492.34743112386246,242.86243361874713L492.9049023496398,242.81066942316363L493.4620073218495,242.75789185443892L494.018612857376,242.7041283010365L494.5743194068728,242.64937876295627L495.1284610547623,242.59372540558812L495.6796393783315,242.53730517124828L496.22499094059674,242.48039194456965L496.7589220507064,242.4236156602073L497.27167704544877,242.36804446822896L497.7487722610114,242.3154312302839L498.1745586813208,242.26769313880126L498.53928064316545,242.22619961694457L498.7483781345279,242.202152546192L498.7483781345279,255L498.53928064316545,255L498.1745586813208,255L497.7487722610114,255L497.27167704544877,255L496.7589220507064,255L496.22499094059674,255L495.6796393783315,255L495.1284610547623,255L494.5743194068728,255L494.018612857376,255L493.4620073218495,255L492.9049023496398,255L492.34743112386246,255L491.789726827633,255L491.231856052509,255L490.67388539004844,255L490.1158148402513,255L489.557744290454,255L488.9997070364357,255L488.4417030781962,255L487.8837990072934,255L487.326061415285,255L486.76852359794987,255L486.21121885106686,255L485.65418047041493,255L485.0974750475518,255L484.5411691740352,255L483.9852961456441,255L483.42988925815723,255L482.87504839891136,255L482.3207735679063,255L481.7671979482579,255L481.2143548357447,255L480.6622775261458,255L480.11109920257655,255L479.5609197523738,255L479.0117391755374,255L478.46375724674067,255L477.9170405575413,255L477.3716889952761,255L476.8278690388392,255L476.2857471671252,255L475.7455231548073,255L475.2073301850011,255L474.67150121549537,255L474.1382360209633,255L473.6079341507515,255L473.08099515420645,255L472.55795176379036,255L472.03943659930184,255L471.5263153509918,255L471.01968677956324,255L470.52114908240236,255L470.03279989357856,255L469.5576025374121,255L469.0995525073685,255L468.6637107618375,255L468.2559040621229,255L467.8817260990765,255L467.54523895772155,255L467.24787435654986,255L466.9883004644062,255L466.76322099918167,255L466.5683075096218,255L466.3992648402512,255L466.25206420182553,255L466.1233760164567,255L466.01043673449794,255L465.9110488345429,255L465.82358082342677,255L465.74673416577315,255L465.67964317133124,255L465.6216086287445,255L465.57236417178194,255L465.53171002577017,255L465.4996128949305,255L465.476006187705,255L465.4607567209782,255L465.45346494540365,255L465.45346494540365,255L465.4607567209782,255L465.476006187705,255L465.4996128949305,255L465.53171002577017,255L465.57236417178194,255L465.6216086287445,255L465.67964317133124,255L465.74673416577315,255L465.82358082342677,255L465.9110488345429,255L466.01043673449794,255L466.1233760164567,255L466.25206420182553,255L466.3992648402512,255L466.5683075096218,255L466.76318770340276,255L466.9883004644062,255L467.247841060771,255L467.54523895772155,255L467.8817260990765,255L468.2559040621229,255L468.6637107618375,255L469.0995525073685,255L469.5576025374121,255L470.03279989357856,255L470.52111578662345,255L471.01968677956324,255L471.52628205521296,255L472.03943659930184,255L472.55795176379036,255L473.08099515420645,255L473.6079341507515,255L474.1382360209633,255L474.67146791971646,255L475.2073301850011,255L475.7454898590285,255L476.2857471671252,255L476.8278690388392,255L477.3716889952761,255L477.91700726176236,255L478.46375724674067,255L479.0117391755374,255L479.5608864565949,255L480.11109920257655,255L480.6622775261458,255L481.21432153996585,255L481.7671979482579,255L482.3207735679063,255L482.8750151031324,255L483.42988925815723,255L483.98526284986514,255L484.5411691740352,255L485.0974750475518,255L485.65418047041493,255L486.21118555528807,255L486.76852359794987,255L487.326061415285,255L487.8837990072934,255L488.4417030781962,255L488.9996737406569,255L489.557744290454,255L490.1158148402513,255L490.67388539004844,255L491.231856052509,255L491.789726827633,255L492.34743112386246,255L492.9049023496398,255L493.4620073218495,255L494.018612857376,255L494.5743194068728,255L495.1284610547623,255L495.6796393783315,255L496.22495764481783,255L496.7589220507064,255L497.27164374967,255L497.7487722610114,255L498.1745586813208,255L498.53928064316545,255L498.7483781345279,255Z" class="area" style="fill:blue;" opacity="1"/>
            </g>
            <g id="xy" class="xy">
                <path id="line" d="M452.0309448700616,233.45408968003602L454.70919016784865,233.24748913195535L457.38743546563575,233.04889582407813L460.06568076342285,232.86631699660782L462.74392606120983,232.70775988974788L465.4221713589968,232.58123174370178L468.10041665678403,232.49473979867298L470.77866195457096,232.45629129486497L473.456907252358,232.47389347248108L476.13515255014516,232.55492885447026L478.81339784793215,232.69876708037975L481.49164314571925,232.89922793344226L484.16988844350635,233.15002001064084L486.8481337412933,233.44485190895844L489.5263790390804,233.7774322253781L492.2046243368675,234.14146955688273L494.88286963465447,234.53067250045538L497.56111493244157,234.93874965307907L500.23936023022867,235.35940961173677L502.91760552801566,235.78636097341146L502.91760552801566,237.70355340243353L500.23936023022867,238.71980149534224L497.56111493244157,239.72291292334106L494.88286963465447,240.69975102152014L492.2046243368675,241.6371791249698L489.5263790390804,242.52206056878003L486.8481337412933,243.34125868804105L484.16988844350635,244.08163681784296L481.49164314571925,244.73005829327602L478.81339784793215,245.27338644943023L476.13515255014516,245.69848462139595L473.456907252358,245.99244830495942L470.77866195457096,246.15396128591283L468.10041665678403,246.1984385249422L465.4221713589968,246.14259941375096L462.74392606120983,246.00316334404246L460.06568076342285,245.7968497075202L457.38743546563575,245.5403778958877L454.70919016784865,245.2504673008483L452.0309448700616,244.94383731410548L452.0309448700616,233.45408968003602" class="line" style="fill:none; stroke:black; stroke-width:2"/>
                <path id="area" d="M452.0309448700616,233.45408968003602L454.70919016784865,233.24748913195535L457.38743546563575,233.04889582407813L460.06568076342285,232.86631699660782L462.74392606120983,232.70775988974788L465.4221713589968,232.58123174370178L468.10041665678403,232.49473979867298L470.77866195457096,232.45629129486497L473.456907252358,232.47389347248108L476.13515255014516,232.55492885447026L478.81339784793215,232.69876708037975L481.49164314571925,232.89922793344226L484.16988844350635,233.15002001064084L486.8481337412933,233.44485190895844L489.5263790390804,233.7774322253781L492.2046243368675,234.14146955688273L494.88286963465447,234.53067250045538L497.56111493244157,234.93874965307907L500.23936023022867,235.35940961173677L502.91760552801566,235.78636097341146L502.91760552801566,237.70355340243353L500.23936023022867,238.71980149534224L497.56111493244157,239.72291292334106L494.88286963465447,240.69975102152014L492.2046243368675,241.6371791249698L489.5263790390804,242.52206056878003L486.8481337412933,243.34125868804105L484.16988844350635,244.08163681784296L481.49164314571925,244.73005829327602L478.81339784793215,245.27338644943023L476.13515255014516,245.69848462139595L473.456907252358,245.99244830495942L470.77866195457096,246.15396128591283L468.10041665678403,246.1984385249422L465.4221713589968,246.14259941375096L462.74392606120983,246.00316334404246L460.06568076342285,245.7968497075202L457.38743546563575,245.5403778958877L454.70919016784865,245.2504673008483L452.0309448700616,244.94383731410548L452.0309448700616,233.45408968003602L452.0309448700616,255L452.0309448700616,255L454.70919016784865,255L457.38743546563575,255L460.06568076342285,255L462.74392606120983,255L465.4221713589968,255L468.10041665678403,255L470.77866195457096,255L473.456907252358,255L476.13515255014516,255L478.81339784793215,255L481.49164314571925,255L484.16988844350635,255L486.8481337412933,255L489.5263790390804,255L492.2046243368675,255L494.88286963465447,255L497.56111493244157,255L500.23936023022867,255L502.91760552801566,255L502.91760552801566,255L500.23936023022867,255L497.56111493244157,255L494.88286963465447,255L492.2046243368675,255L489.5263790390804,255L486.8481337412933,255L484.16988844350635,255L481.49164314571925,255L478.81339784793215,255L476.13515255014516,255L473.456907252358,255L470.77866195457096,255L468.10041665678403,255L465.4221713589968,255L462.74392606120983,255L460.06568076342285,255L457.38743546563575,255L454.70919016784865,255L452.0309448700616,255Z" class="area" style="fill:orange;" opacity="1"/>
            </g>
            <g id="xy" class="xy">
                <path id="line" d="M452.0309448700616,233.45408968003602L454.70919016784865,233.24748913195535L457.38743546563575,233.04889582407813L460.06568076342285,232.86631699660782L462.74392606120983,232.70775988974788L465.4221713589968,232.58123174370178L468.10041665678403,232.49473979867298L470.77866195457096,232.45629129486497L473.456907252358,232.47389347248108L476.13515255014516,232.55492885447026L478.81339784793215,232.69876708037975L481.49164314571925,232.89922793344226L484.16988844350635,233.15002001064084L486.8481337412933,233.44485190895844L489.5263790390804,233.7774322253781L492.2046243368675,234.14146955688273L494.88286963465447,234.53067250045538L497.56111493244157,234.93874965307907L500.23936023022867,235.35940961173677L502.91760552801566,235.78636097341146L502.91760552801566,237.70355340243353L500.23936023022867,238.71980149534224L497.56111493244157,239.72291292334106L494.88286963465447,240.69975102152014L492.2046243368675,241.6371791249698L489.5263790390804,242.52206056878003L486.8481337412933,243.34125868804105L484.16988844350635,244.08163681784296L481.49164314571925,244.73005829327602L478.81339784793215,245.27338644943023L476.13515255014516,245.69848462139595L473.456907252358,245.99244830495942L470.77866195457096,246.15396128591283L468.10041665678403,246.1984385249422L465.4221713589968,246.14259941375096L462.74392606120983,246.00316334404246L460.06568076342285,245.7968497075202L457.38743546563575,245.5403778958877L454.70919016784865,245.2504673008483L452.0309448700616,244.94383731410548L452.0309448700616,233.45408968003602" class="line" style="fill:none; stroke:black; stroke-width:2"/>
                <path id="area" d="M452.0309448700616,233.45408968003602L454.70919016784865,233.24748913195535L457.38743546563575,233.04889582407813L460.06568076342285,232.86631699660782L462.74392606120983,232.70775988974788L465.4221713589968,232.58123174370178L468.10041665678403,232.49473979867298L470.77866195457096,232.45629129486497L473.456907252358,232.47389347248108L476.13515255014516,232.55492885447026L478.81339784793215,232.69876708037975L481.49164314571925,232.89922793344226L484.16988844350635,233.15002001064084L486.8481337412933,233.44485190895844L489.5263790390804,233.7774322253781L492.2046243368675,234.14146955688273L494.88286963465447,234.53067250045538L497.56111493244157,234.93874965307907L500.23936023022867,235.35940961173677L502.91760552801566,235.78636097341146L502.91760552801566,237.70355340243353L500.23936023022867,238.71980149534224L497.56111493244157,239.72291292334106L494.88286963465447,240.69975102152014L492.2046243368675,241.6371791249698L489.5263790390804,242.52206056878003L486.8481337412933,243.34125868804105L484.16988844350635,244.08163681784296L481.49164314571925,244.73005829327602L478.81339784793215,245.27338644943023L476.13515255014516,245.69848462139595L473.456907252358,245.99244830495942L470.77866195457096,246.15396128591283L468.10041665678403,246.1984385249422L465.4221713589968,246.14259941375096L462.74392606120983,246.00316334404246L460.06568076342285,245.7968497075202L457.38743546563575,245.5403778958877L454.70919016784865,245.2504673008483L452.0309448700616,244.94383731410548L452.0309448700616,233.45408968003602L452.0309448700616,255L452.0309448700616,255L454.70919016784865,255L457.38743546563575,255L460.06568076342285,255L462.74392606120983,255L465.4221713589968,255L468.10041665678403,255L470.77866195457096,255L473.456907252358,255L476.13515255014516,255L478.81339784793215,255L481.49164314571925,255L484.16988844350635,255L486.8481337412933,255L489.5263790390804,255L492.2046243368675,255L494.88286963465447,255L497.56111493244157,255L500.23936023022867,255L502.91760552801566,255L502.91760552801566,255L500.23936023022867,255L497.56111493244157,255L494.88286963465447,255L492.2046243368675,255L489.5263790390804,255L486.8481337412933,255L484.16988844350635,255L481.49164314571925,255L478.81339784793215,255L476.13515255014516,255L473.456907252358,255L470.77866195457096,255L468.10041665678403,255L465.4221713589968,255L462.74392606120983,255L460.06568076342285,255L457.38743546563575,255L454.70919016784865,255L452.0309448700616,255Z" class="area" style="fill:orange;" opacity="1"/>
            </g>
        </g>
    </g>
    <text class="x label" text-anchor="middle" x="370" y="595">x (m)</text>
    <text class="y label" text-anchor="middle" x="-295" y="5" dy=".75em" transform="rotate(-90)">z (m)</text>
    <text class="title" text-anchor="middle" x="370" y="20">Aircraft data representation - Side View</text>
</svg>
