<?xml version="1.0" encoding="UTF-8"?><svg id="svg" class="svg" width="700" height="600" xmlns="http://www.w3.org/2000/svg">
    <g id="page" width="700" height="600">
        <g id="graph" transform="translate(60,40)">
            <rect width="620" height="510" fill="blue" opacity="0.05"/>
            <rect width="620" height="510" fill="none" opacity="1.0" style="stroke: darkblue; stroke-width: 2px;"/>
            <g id="xAxis" class="axis" transform="translate(0,510)">
                <g class="tick" transform="translate(18.95298182364421,0)" style="opacity: 1;">
                    <line y2="-510" x2="0" style="fill: none; stroke: #808080; stroke-width: 0.8px; stroke-dasharray: 15px, 2px; font-style: normal; font-variant: normal; font-weight: normal; font-size: 10px; line-height: normal; font-family: sans-serif; shape-rendering: geometricprecision;"/>
                    <text dy=".71em" y="12" x="0" style="text-anchor: middle;">-25</text>
                </g>
                <g class="tick" transform="translate(77.16238545891537,0)" style="opacity: 1;">
                    <line y2="-510" x2="0" style="fill: none; stroke: #808080; stroke-width: 0.8px; stroke-dasharray: 15px, 2px; font-style: normal; font-variant: normal; font-weight: normal; font-size: 10px; line-height: normal; font-family: sans-serif; shape-rendering: geometricprecision;"/>
                    <text dy=".71em" y="12" x="0" style="text-anchor: middle;">-20</text>
                </g>
                <g class="tick" transform="translate(135.37178909418654,0)" style="opacity: 1;">
                    <line y2="-510" x2="0" style="fill: none; stroke: #808080; stroke-width: 0.8px; stroke-dasharray: 15px, 2px; font-style: normal; font-variant: normal; font-weight: normal; font-size: 10px; line-height: normal; font-family: sans-serif; shape-rendering: geometricprecision;"/>
                    <text dy=".71em" y="12" x="0" style="text-anchor: middle;">-15</text>
                </g>
                <g class="tick" transform="translate(193.58119272945768,0)" style="opacity: 1;">
                    <line y2="-510" x2="0" style="fill: none; stroke: #808080; stroke-width: 0.8px; stroke-dasharray: 15px, 2px; font-style: normal; font-variant: normal; font-weight: normal; font-size: 10px; line-height: normal; font-family: sans-serif; shape-rendering: geometricprecision;"/>
                    <text dy=".71em" y="12" x="0" style="text-anchor: middle;">-10</text>
                </g>
                <g class="tick" transform="translate(251.79059636472883,0)" style="opacity: 1;">
                    <line y2="-510" x2="0" style="fill: none; stroke: #808080; stroke-width: 0.8px; stroke-dasharray: 15px, 2px; font-style: normal; font-variant: normal; font-weight: normal; font-size: 10px; line-height: normal; font-family: sans-serif; shape-rendering: geometricprecision;"/>
                    <text dy=".71em" y="12" x="0" style="text-anchor: middle;">-5</text>
                </g>
                <g class="tick" transform="translate(310,0)" style="opacity: 1;">
                    <line y2="-510" x2="0" style="fill: none; stroke: #808080; stroke-width: 0.8px; stroke-dasharray: 15px, 2px; font-style: normal; font-variant: normal; font-weight: normal; font-size: 10px; line-height: normal; font-family: sans-serif; shape-rendering: geometricprecision;"/>
                    <text dy=".71em" y="12" x="0" style="text-anchor: middle;">0</text>
                </g>
                <g class="tick" transform="translate(368.20940363527114,0)" style="opacity: 1;">
                    <line y2="-510" x2="0" style="fill: none; stroke: #808080; stroke-width: 0.8px; stroke-dasharray: 15px, 2px; font-style: normal; font-variant: normal; font-weight: normal; font-size: 10px; line-height: normal; font-family: sans-serif; shape-rendering: geometricprecision;"/>
                    <text dy=".71em" y="12" x="0" style="text-anchor: middle;">5</text>
                </g>
                <g class="tick" transform="translate(426.41880727054235,0)" style="opacity: 1;">
                    <line y2="-510" x2="0" style="fill: none; stroke: #808080; stroke-width: 0.8px; stroke-dasharray: 15px, 2px; font-style: normal; font-variant: normal; font-weight: normal; font-size: 10px; line-height: normal; font-family: sans-serif; shape-rendering: geometricprecision;"/>
                    <text dy=".71em" y="12" x="0" style="text-anchor: middle;">10</text>
                </g>
                <g class="tick" transform="translate(484.6282109058135,0)" style="opacity: 1;">
                    <line y2="-510" x2="0" style="fill: none; stroke: #808080; stroke-width: 0.8px; stroke-dasharray: 15px, 2px; font-style: normal; font-variant: normal; font-weight: normal; font-size: 10px; line-height: normal; font-family: sans-serif; shape-rendering: geometricprecision;"/>
                    <text dy=".71em" y="12" x="0" style="text-anchor: middle;">15</text>
                </g>
                <g class="tick" transform="translate(542.8376145410846,0)" style="opacity: 1;">
                    <line y2="-510" x2="0" style="fill: none; stroke: #808080; stroke-width: 0.8px; stroke-dasharray: 15px, 2px; font-style: normal; font-variant: normal; font-weight: normal; font-size: 10px; line-height: normal; font-family: sans-serif; shape-rendering: geometricprecision;"/>
                    <text dy=".71em" y="12" x="0" style="text-anchor: middle;">20</text>
                </g>
                <g class="tick" transform="translate(601.0470181763558,0)" style="opacity: 1;">
                    <line y2="-510" x2="0" style="fill: none; stroke: #808080; stroke-width: 0.8px; stroke-dasharray: 15px, 2px; font-style: normal; font-variant: normal; font-weight: normal; font-size: 10px; line-height: normal; font-family: sans-serif; shape-rendering: geometricprecision;"/>
                    <text dy=".71em" y="12" x="0" style="text-anchor: middle;">25</text>
                </g>
                <path class="domain" d="M0,-510V0H620V-510" style="fill: none; stroke: #808080; stroke-width: 0.8px; stroke-dasharray: 15px, 2px; font-style: normal; font-variant: normal; font-weight: normal; font-size: 10px; line-height: normal; font-family: sans-serif; shape-rendering: geometricprecision;"/>
            </g>
            <g id="yAxis" class="axis">
                <g class="tick" transform="translate(0,24.975214060387536)" style="opacity: 1;">
                    <line x2="620" y2="0" style="fill: none; stroke: #808080; stroke-dasharray: 15px, 2px; stroke-width: 0.8px; shape-rendering: geometricprecision;"/>
                    <text dy=".32em" x="-8" y="0" style="text-anchor: end;">-5</text>
                </g>
                <g class="tick" transform="translate(0,72.85714285714282)" style="opacity: 1;">
                    <line x2="620" y2="0" style="fill: none; stroke: #808080; stroke-dasharray: 15px, 2px; stroke-width: 0.8px; shape-rendering: geometricprecision;"/>
                    <text dy=".32em" x="-8" y="0" style="text-anchor: end;">0</text>
                </g>
                <g class="tick" transform="translate(0,120.73907165389816)" style="opacity: 1;">
                    <line x2="620" y2="0" style="fill: none; stroke: #808080; stroke-dasharray: 15px, 2px; stroke-width: 0.8px; shape-rendering: geometricprecision;"/>
                    <text dy=".32em" x="-8" y="0" style="text-anchor: end;">5</text>
                </g>
                <g class="tick" transform="translate(0,168.62100045065347)" style="opacity: 1;">
                    <line x2="620" y2="0" style="fill: none; stroke: #808080; stroke-dasharray: 15px, 2px; stroke-width: 0.8px; shape-rendering: geometricprecision;"/>
                    <text dy=".32em" x="-8" y="0" style="text-anchor: end;">10</text>
                </g>
                <g class="tick" transform="translate(0,216.50292924740876)" style="opacity: 1;">
                    <line x2="620" y2="0" style="fill: none; stroke: #808080; stroke-dasharray: 15px, 2px; stroke-width: 0.8px; shape-rendering: geometricprecision;"/>
                    <text dy=".32em" x="-8" y="0" style="text-anchor: end;">15</text>
                </g>
                <g class="tick" transform="translate(0,264.3848580441641)" style="opacity: 1;">
                    <line x2="620" y2="0" style="fill: none; stroke: #808080; stroke-dasharray: 15px, 2px; stroke-width: 0.8px; shape-rendering: geometricprecision;"/>
                    <text dy=".32em" x="-8" y="0" style="text-anchor: end;">20</text>
                </g>
                <g class="tick" transform="translate(0,312.2667868409194)" style="opacity: 1;">
                    <line x2="620" y2="0" style="fill: none; stroke: #808080; stroke-dasharray: 15px, 2px; stroke-width: 0.8px; shape-rendering: geometricprecision;"/>
                    <text dy=".32em" x="-8" y="0" style="text-anchor: end;">25</text>
                </g>
                <g class="tick" transform="translate(0,360.1487156376747)" style="opacity: 1;">
                    <line x2="620" y2="0" style="fill: none; stroke: #808080; stroke-dasharray: 15px, 2px; stroke-width: 0.8px; shape-rendering: geometricprecision;"/>
                    <text dy=".32em" x="-8" y="0" style="text-anchor: end;">30</text>
                </g>
                <g class="tick" transform="translate(0,408.03064443443003)" style="opacity: 1;">
                    <line x2="620" y2="0" style="fill: none; stroke: #808080; stroke-dasharray: 15px, 2px; stroke-width: 0.8px; shape-rendering: geometricprecision;"/>
                    <text dy=".32em" x="-8" y="0" style="text-anchor: end;">35</text>
                </g>
                <g class="tick" transform="translate(0,455.9125732311853)" style="opacity: 1;">
                    <line x2="620" y2="0" style="fill: none; stroke: #808080; stroke-dasharray: 15px, 2px; stroke-width: 0.8px; shape-rendering: geometricprecision;"/>
                    <text dy=".32em" x="-8" y="0" style="text-anchor: end;">40</text>
                </g>
                <g class="tick" transform="translate(0,503.7945020279406)" style="opacity: 1;">
                    <line x2="620" y2="0" style="fill: none; stroke: #808080; stroke-dasharray: 15px, 2px; stroke-width: 0.8px; shape-rendering: geometricprecision;"/>
                    <text dy=".32em" x="-8" y="0" style="text-anchor: end;">45</text>
                </g>
                <path class="domain" d="M620,0H0V510H620" style="fill: none; stroke: #808080; stroke-dasharray: 15px, 2px; stroke-width: 0.8px; shape-rendering: geometricprecision;"/>
            </g>
            <g id="xy" class="xy">
                <path id="line" d="M310,255.67034700315457L324.69228841154154,257.9539433336756L339.38457682308314,260.23753966419673L354.0768652346247,262.5211359947178L368.7691536461663,264.8047323252389L371.7076113284745,265.261451591343L383.46144205770776,266.91411406046876L398.1537304692493,268.9799421468758L412.8460188807909,271.04577023328295L427.5383072923324,273.11159831969013L442.2305957038741,275.17742640609725L456.92288411541557,277.2432544925043L471.61517252695705,279.30908257891144L486.3074609384987,281.37491066531857L500.9997493500402,283.4407387517257L500.9997493500402,301.0965533706584L486.3074609384987,300.7134676825771L471.61517252695705,300.33038199449584L456.92288411541557,299.94729630641456L442.2305957038741,299.5642106183333L427.5383072923324,299.181124930252L412.8460188807909,298.7980392421707L398.1537304692493,298.41495355408944L383.46144205770776,298.03186786600816L371.7076113284745,297.77345499617417L368.7691536461663,297.81150738707294L354.0768652346247,298.0017693415665L339.38457682308314,298.1920312960601L324.69228841154154,298.3822932505537L310,298.57255520504725" class="line" style="fill:none; stroke:black; stroke-width:2"/>
                <path id="area" d="M310,255.67034700315457L324.69228841154154,257.9539433336756L339.38457682308314,260.23753966419673L354.0768652346247,262.5211359947178L368.7691536461663,264.8047323252389L371.7076113284745,265.261451591343L383.46144205770776,266.91411406046876L398.1537304692493,268.9799421468758L412.8460188807909,271.04577023328295L427.5383072923324,273.11159831969013L442.2305957038741,275.17742640609725L456.92288411541557,277.2432544925043L471.61517252695705,279.30908257891144L486.3074609384987,281.37491066531857L500.9997493500402,283.4407387517257L500.9997493500402,301.0965533706584L486.3074609384987,300.7134676825771L471.61517252695705,300.33038199449584L456.92288411541557,299.94729630641456L442.2305957038741,299.5642106183333L427.5383072923324,299.181124930252L412.8460188807909,298.7980392421707L398.1537304692493,298.41495355408944L383.46144205770776,298.03186786600816L371.7076113284745,297.77345499617417L368.7691536461663,297.81150738707294L354.0768652346247,298.0017693415665L339.38457682308314,298.1920312960601L324.69228841154154,298.3822932505537L310,298.57255520504725L310,72.85714285714282L324.69228841154154,72.85714285714282L339.38457682308314,72.85714285714282L354.0768652346247,72.85714285714282L368.7691536461663,72.85714285714282L371.7076113284745,72.85714285714282L383.46144205770776,72.85714285714282L398.1537304692493,72.85714285714282L412.8460188807909,72.85714285714282L427.5383072923324,72.85714285714282L442.2305957038741,72.85714285714282L456.92288411541557,72.85714285714282L471.61517252695705,72.85714285714282L486.3074609384987,72.85714285714282L500.9997493500402,72.85714285714282L500.9997493500402,72.85714285714282L486.3074609384987,72.85714285714282L471.61517252695705,72.85714285714282L456.92288411541557,72.85714285714282L442.2305957038741,72.85714285714282L427.5383072923324,72.85714285714282L412.8460188807909,72.85714285714282L398.1537304692493,72.85714285714282L383.46144205770776,72.85714285714282L371.7076113284745,72.85714285714282L368.7691536461663,72.85714285714282L354.0768652346247,72.85714285714282L339.38457682308314,72.85714285714282L324.69228841154154,72.85714285714282L310,72.85714285714282Z" class="area" style="fill:lightblue;" opacity="1"/>
            </g>
            <g id="xy" class="xy">
                <path id="line" d="M310,255.67034700315457L295.30771158845846,257.9539433336756L280.61542317691686,260.23753966419673L265.9231347653753,262.5211359947178L251.23084635383373,264.8047323252389L248.29238867152546,265.261451591343L236.53855794229221,266.91411406046876L221.84626953075067,268.9799421468758L207.15398111920908,271.04577023328295L192.46169270766754,273.11159831969013L177.76940429612597,275.17742640609725L163.07711588458443,277.2432544925043L148.3848274730429,279.30908257891144L133.6925390615013,281.37491066531857L119.00025064995975,283.4407387517257L119.00025064995975,301.0965533706584L133.6925390615013,300.7134676825771L148.3848274730429,300.33038199449584L163.07711588458443,299.94729630641456L177.76940429612597,299.5642106183333L192.46169270766754,299.181124930252L207.15398111920908,298.7980392421707L221.84626953075067,298.41495355408944L236.53855794229221,298.03186786600816L248.29238867152546,297.77345499617417L251.23084635383373,297.81150738707294L265.9231347653753,298.0017693415665L280.61542317691686,298.1920312960601L295.30771158845846,298.3822932505537L310,298.57255520504725" class="line" style="fill:none; stroke:black; stroke-width:2"/>
                <path id="area" d="M310,255.67034700315457L295.30771158845846,257.9539433336756L280.61542317691686,260.23753966419673L265.9231347653753,262.5211359947178L251.23084635383373,264.8047323252389L248.29238867152546,265.261451591343L236.53855794229221,266.91411406046876L221.84626953075067,268.9799421468758L207.15398111920908,271.04577023328295L192.46169270766754,273.11159831969013L177.76940429612597,275.17742640609725L163.07711588458443,277.2432544925043L148.3848274730429,279.30908257891144L133.6925390615013,281.37491066531857L119.00025064995975,283.4407387517257L119.00025064995975,301.0965533706584L133.6925390615013,300.7134676825771L148.3848274730429,300.33038199449584L163.07711588458443,299.94729630641456L177.76940429612597,299.5642106183333L192.46169270766754,299.181124930252L207.15398111920908,298.7980392421707L221.84626953075067,298.41495355408944L236.53855794229221,298.03186786600816L248.29238867152546,297.77345499617417L251.23084635383373,297.81150738707294L265.9231347653753,298.0017693415665L280.61542317691686,298.1920312960601L295.30771158845846,298.3822932505537L310,298.57255520504725L310,72.85714285714282L295.30771158845846,72.85714285714282L280.61542317691686,72.85714285714282L265.9231347653753,72.85714285714282L251.23084635383373,72.85714285714282L248.29238867152546,72.85714285714282L236.53855794229221,72.85714285714282L221.84626953075067,72.85714285714282L207.15398111920908,72.85714285714282L192.46169270766754,72.85714285714282L177.76940429612597,72.85714285714282L163.07711588458443,72.85714285714282L148.3848274730429,72.85714285714282L133.6925390615013,72.85714285714282L119.00025064995975,72.85714285714282L119.00025064995975,72.85714285714282L133.6925390615013,72.85714285714282L148.3848274730429,72.85714285714282L163.07711588458443,72.85714285714282L177.76940429612597,72.85714285714282L192.46169270766754,72.85714285714282L207.15398111920908,72.85714285714282L221.84626953075067,72.85714285714282L236.53855794229221,72.85714285714282L248.29238867152546,72.85714285714282L251.23084635383373,72.85714285714282L265.9231347653753,72.85714285714282L280.61542317691686,72.85714285714282L295.30771158845846,72.85714285714282L310,72.85714285714282Z" class="area" style="fill:lightblue;" opacity="1"/>
            </g>
            <g id="xy" class="xy">
                <path id="line" d="M310,374.89634970707533L313.78105622898573,375.8925386457841L317.56211245797147,376.8887275844929L321.3431686869572,377.8849165232017L325.12422491594293,378.8811054619105L328.90528114492867,379.8772944006193L332.6863373739144,380.8734833393281L336.4673936029002,381.86967227803694L340.2484498318859,382.86586121674566L344.0295060608716,383.8620501554544L347.81056228985733,384.85823909416325L351.5916185188431,385.854428032872L355.37267474782885,386.8506169715809L359.1537309768146,387.8468059102897L362.9347872058003,388.8429948489985L362.9347872058003,416.28984303936915L359.1537309768146,416.34288618285854L355.37267474782885,416.39592932634787L351.5916185188431,416.4489724698372L347.81056228985733,416.50201561332653L344.0295060608716,416.5550587568159L340.2484498318859,416.6081019003052L336.4673936029002,416.6611450437946L332.6863373739144,416.7141881872839L328.90528114492867,416.76723133077326L325.12422491594293,416.8202744742626L321.3431686869572,416.873317617752L317.56211245797147,416.92636076124126L313.78105622898573,416.97940390473065L310,417.03244704822" class="line" style="fill:none; stroke:black; stroke-width:2"/>
                <path id="area" d="M310,374.89634970707533L313.78105622898573,375.8925386457841L317.56211245797147,376.8887275844929L321.3431686869572,377.8849165232017L325.12422491594293,378.8811054619105L328.90528114492867,379.8772944006193L332.6863373739144,380.8734833393281L336.4673936029002,381.86967227803694L340.2484498318859,382.86586121674566L344.0295060608716,383.8620501554544L347.81056228985733,384.85823909416325L351.5916185188431,385.854428032872L355.37267474782885,386.8506169715809L359.1537309768146,387.8468059102897L362.9347872058003,388.8429948489985L362.9347872058003,416.28984303936915L359.1537309768146,416.34288618285854L355.37267474782885,416.39592932634787L351.5916185188431,416.4489724698372L347.81056228985733,416.50201561332653L344.0295060608716,416.5550587568159L340.2484498318859,416.6081019003052L336.4673936029002,416.6611450437946L332.6863373739144,416.7141881872839L328.90528114492867,416.76723133077326L325.12422491594293,416.8202744742626L321.3431686869572,416.873317617752L317.56211245797147,416.92636076124126L313.78105622898573,416.97940390473065L310,417.03244704822L310,72.85714285714282L313.78105622898573,72.85714285714282L317.56211245797147,72.85714285714282L321.3431686869572,72.85714285714282L325.12422491594293,72.85714285714282L328.90528114492867,72.85714285714282L332.6863373739144,72.85714285714282L336.4673936029002,72.85714285714282L340.2484498318859,72.85714285714282L344.0295060608716,72.85714285714282L347.81056228985733,72.85714285714282L351.5916185188431,72.85714285714282L355.37267474782885,72.85714285714282L359.1537309768146,72.85714285714282L362.9347872058003,72.85714285714282L362.9347872058003,72.85714285714282L359.1537309768146,72.85714285714282L355.37267474782885,72.85714285714282L351.5916185188431,72.85714285714282L347.81056228985733,72.85714285714282L344.0295060608716,72.85714285714282L340.2484498318859,72.85714285714282L336.4673936029002,72.85714285714282L332.6863373739144,72.85714285714282L328.90528114492867,72.85714285714282L325.12422491594293,72.85714285714282L321.3431686869572,72.85714285714282L317.56211245797147,72.85714285714282L313.78105622898573,72.85714285714282L310,72.85714285714282Z" class="area" style="fill:blue;" opacity="1"/>
            </g>
            <g id="xy" class="xy">
                <path id="line" d="M310,374.89634970707533L306.21894377101427,375.8925386457841L302.43788754202853,376.8887275844929L298.6568313130428,377.8849165232017L294.87577508405707,378.8811054619105L291.09471885507133,379.8772944006193L287.3136626260856,380.8734833393281L283.53260639709987,381.86967227803694L279.75155016811414,382.86586121674566L275.9704939391284,383.8620501554544L272.18943771014267,384.85823909416325L268.4083814811569,385.854428032872L264.62732525217115,386.8506169715809L260.84626902318547,387.8468059102897L257.0652127941997,388.8429948489985L257.0652127941997,416.28984303936915L260.84626902318547,416.34288618285854L264.62732525217115,416.39592932634787L268.4083814811569,416.4489724698372L272.18943771014267,416.50201561332653L275.9704939391284,416.5550587568159L279.75155016811414,416.6081019003052L283.53260639709987,416.6611450437946L287.3136626260856,416.7141881872839L291.09471885507133,416.76723133077326L294.87577508405707,416.8202744742626L298.6568313130428,416.873317617752L302.43788754202853,416.92636076124126L306.21894377101427,416.97940390473065L310,417.03244704822" class="line" style="fill:none; stroke:black; stroke-width:2"/>
                <path id="area" d="M310,374.89634970707533L306.21894377101427,375.8925386457841L302.43788754202853,376.8887275844929L298.6568313130428,377.8849165232017L294.87577508405707,378.8811054619105L291.09471885507133,379.8772944006193L287.3136626260856,380.8734833393281L283.53260639709987,381.86967227803694L279.75155016811414,382.86586121674566L275.9704939391284,383.8620501554544L272.18943771014267,384.85823909416325L268.4083814811569,385.854428032872L264.62732525217115,386.8506169715809L260.84626902318547,387.8468059102897L257.0652127941997,388.8429948489985L257.0652127941997,416.28984303936915L260.84626902318547,416.34288618285854L264.62732525217115,416.39592932634787L268.4083814811569,416.4489724698372L272.18943771014267,416.50201561332653L275.9704939391284,416.5550587568159L279.75155016811414,416.6081019003052L283.53260639709987,416.6611450437946L287.3136626260856,416.7141881872839L291.09471885507133,416.76723133077326L294.87577508405707,416.8202744742626L298.6568313130428,416.873317617752L302.43788754202853,416.92636076124126L306.21894377101427,416.97940390473065L310,417.03244704822L310,72.85714285714282L306.21894377101427,72.85714285714282L302.43788754202853,72.85714285714282L298.6568313130428,72.85714285714282L294.87577508405707,72.85714285714282L291.09471885507133,72.85714285714282L287.3136626260856,72.85714285714282L283.53260639709987,72.85714285714282L279.75155016811414,72.85714285714282L275.9704939391284,72.85714285714282L272.18943771014267,72.85714285714282L268.4083814811569,72.85714285714282L264.62732525217115,72.85714285714282L260.84626902318547,72.85714285714282L257.0652127941997,72.85714285714282L257.0652127941997,72.85714285714282L260.84626902318547,72.85714285714282L264.62732525217115,72.85714285714282L268.4083814811569,72.85714285714282L272.18943771014267,72.85714285714282L275.9704939391284,72.85714285714282L279.75155016811414,72.85714285714282L283.53260639709987,72.85714285714282L287.3136626260856,72.85714285714282L291.09471885507133,72.85714285714282L294.87577508405707,72.85714285714282L298.6568313130428,72.85714285714282L302.43788754202853,72.85714285714282L306.21894377101427,72.85714285714282L310,72.85714285714282Z" class="area" style="fill:blue;" opacity="1"/>
            </g>
            <g id="xy" class="xy">
                <path id="line" d="M310,72.85714285714282L308.1699567928908,73.18759476244715L305.7684796055606,75.08204890894375L302.6850190074196,79.09160080768332L299.17025507651454,84.9422422498666L295.6804059900929,91.84273590478556L292.7215078178963,98.79249048856211L290.6937205105622,104.88942972546816L289.7356220915526,109.6378768634667L289.5684993795326,113.25642891540456L289.5684993795326,113.25642891540456L289.5684993795326,175.80023029786392L289.5684993795326,247.3216604445098L289.5684993795326,327.82070565621245L289.5684993795326,327.82070565621245L289.7356207037323,337.4230832310076L290.6937177349215,351.6687351586101L292.72151198135725,369.48005136470107L295.6804032144522,388.77558608052976L299.1702578521552,407.0468642658992L302.6850190074196,421.93675886569343L305.7684802994707,431.81682693254527L308.16995731332344,436.3649014665932L310,437.1428659103002" class="line" style="fill:none; stroke:black; stroke-width:2"/>
                <path id="area" d="M310,72.85714285714282L308.1699567928908,73.18759476244715L305.7684796055606,75.08204890894375L302.6850190074196,79.09160080768332L299.17025507651454,84.9422422498666L295.6804059900929,91.84273590478556L292.7215078178963,98.79249048856211L290.6937205105622,104.88942972546816L289.7356220915526,109.6378768634667L289.5684993795326,113.25642891540456L289.5684993795326,113.25642891540456L289.5684993795326,175.80023029786392L289.5684993795326,247.3216604445098L289.5684993795326,327.82070565621245L289.5684993795326,327.82070565621245L289.7356207037323,337.4230832310076L290.6937177349215,351.6687351586101L292.72151198135725,369.48005136470107L295.6804032144522,388.77558608052976L299.1702578521552,407.0468642658992L302.6850190074196,421.93675886569343L305.7684802994707,431.81682693254527L308.16995731332344,436.3649014665932L310,437.1428659103002L310,72.85714285714282L308.16995731332344,72.85714285714282L305.7684802994707,72.85714285714282L302.6850190074196,72.85714285714282L299.1702578521552,72.85714285714282L295.6804032144522,72.85714285714282L292.72151198135725,72.85714285714282L290.6937177349215,72.85714285714282L289.7356207037323,72.85714285714282L289.5684993795326,72.85714285714282L289.5684993795326,72.85714285714282L289.5684993795326,72.85714285714282L289.5684993795326,72.85714285714282L289.5684993795326,72.85714285714282L289.5684993795326,72.85714285714282L289.7356220915526,72.85714285714282L290.6937205105622,72.85714285714282L292.7215078178963,72.85714285714282L295.6804059900929,72.85714285714282L299.17025507651454,72.85714285714282L302.6850190074196,72.85714285714282L305.7684796055606,72.85714285714282L308.1699567928908,72.85714285714282L310,72.85714285714282Z" class="area" style="fill:white;" opacity="1"/>
            </g>
            <g id="xy" class="xy">
                <path id="line" d="M310,72.85714285714282L311.8300432071092,73.18759476244715L314.2315203944394,75.08204890894375L317.3149809925804,79.09160080768332L320.82974492348546,84.9422422498666L324.3195940099071,91.84273590478556L327.2784921821037,98.79249048856211L329.3062794894379,104.88942972546816L330.26437790844733,109.6378768634667L330.4315006204673,113.25642891540456L330.4315006204673,113.25642891540456L330.4315006204673,175.80023029786392L330.4315006204673,247.3216604445098L330.4315006204673,327.82070565621245L330.4315006204673,327.82070565621245L330.2643792962677,337.4230832310076L329.3062822650785,351.6687351586101L327.2784880186427,369.48005136470107L324.3195967855478,388.77558608052976L320.8297421478448,407.0468642658992L317.3149809925804,421.93675886569343L314.2315197005293,431.81682693254527L311.83004268667656,436.3649014665932L310,437.1428659103002" class="line" style="fill:none; stroke:black; stroke-width:2"/>
                <path id="area" d="M310,72.85714285714282L311.8300432071092,73.18759476244715L314.2315203944394,75.08204890894375L317.3149809925804,79.09160080768332L320.82974492348546,84.9422422498666L324.3195940099071,91.84273590478556L327.2784921821037,98.79249048856211L329.3062794894379,104.88942972546816L330.26437790844733,109.6378768634667L330.4315006204673,113.25642891540456L330.4315006204673,113.25642891540456L330.4315006204673,175.80023029786392L330.4315006204673,247.3216604445098L330.4315006204673,327.82070565621245L330.4315006204673,327.82070565621245L330.2643792962677,337.4230832310076L329.3062822650785,351.6687351586101L327.2784880186427,369.48005136470107L324.3195967855478,388.77558608052976L320.8297421478448,407.0468642658992L317.3149809925804,421.93675886569343L314.2315197005293,431.81682693254527L311.83004268667656,436.3649014665932L310,437.1428659103002L310,72.85714285714282L311.83004268667656,72.85714285714282L314.2315197005293,72.85714285714282L317.3149809925804,72.85714285714282L320.8297421478448,72.85714285714282L324.3195967855478,72.85714285714282L327.2784880186427,72.85714285714282L329.3062822650785,72.85714285714282L330.2643792962677,72.85714285714282L330.4315006204673,72.85714285714282L330.4315006204673,72.85714285714282L330.4315006204673,72.85714285714282L330.4315006204673,72.85714285714282L330.4315006204673,72.85714285714282L330.4315006204673,72.85714285714282L330.26437790844733,72.85714285714282L329.3062794894379,72.85714285714282L327.2784921821037,72.85714285714282L324.3195940099071,72.85714285714282L320.82974492348546,72.85714285714282L317.3149809925804,72.85714285714282L314.2315203944394,72.85714285714282L311.8300432071092,72.85714285714282L310,72.85714285714282Z" class="area" style="fill:white;" opacity="1"/>
            </g>
            <g id="xy" class="xy">
                <path id="line" d="M310.0758375394322,424.40626408292036L310.12868306294126,424.09534182064L310.21986867582996,423.55301021856695L310.32477727204446,422.9198774335287L310.44039942541684,422.21040036052284L310.562521939312,421.44799718904915L310.68729274823494,420.6540066922038L310.8123644997747,419.84313331455616L310.93635285789395,419.0235461919784L311.05865593735916,418.19955268702125L311.1789727955536,417.3732322160884L311.297122866907,416.5455749774674L311.4131061514195,415.7171750901308L311.5268624605678,414.88823059373595L311.6384519828752,414.0589395279406L311.74781452981824,413.22940091257334L311.85495010139704,412.3997137674629L311.95985869761154,411.5698780926094L312.0624801299384,410.74004241775583L312.16281439837763,409.9102067429023L312.2608013144059,409.08051959779186L312.35632050097644,408.2509314725102L312.44943214661254,407.4215908968004L312.5399556857443,406.5925473805769L312.6278911183717,405.7638009238396L312.7131180674478,404.9355495662461L312.79551615592607,404.10774379788205L312.8749650067598,403.2805321484904L312.9514044314256,402.4539146180713L313.0246538643533,401.62808924628223L313.094532739973,400.80300652320875L313.16098086976115,399.9788644885084L313.2237574996244,399.1557126520956L313.28268206399275,398.3336005238847L313.3376341858194,397.51272614353326L313.3883129224876,396.6931390209554L313.43453770842723,395.8749876858946L313.4760677895449,395.0584206680938L313.5126624117471,394.2435864972962L313.544020632417,393.4305841933304L313.56984150893794,392.61971081568277L313.5898842872164,391.81106538418214L313.60378783611236,391.00494495831464L313.61119102448555,390.2015970876522L313.6117327211957,389.40136834159534L313.6049314180562,388.6045557796305L313.59048617245,387.81165450090134L313.5677950991438,387.0231100946372L313.53649706699713,386.2395661897251L313.4959901907766,385.461814944795L313.44567258524864,384.69079704821996L313.38506274222624,383.9277502478595L313.31361896499925,383.17445690063096L313.2306791798107,382.43309544276707L313.1358822555205,381.7069830385309L313.02916800360526,381.00037754055893L312.910716989635,380.3192696484904L312.78167279555356,379.6711848693106L312.6439614541084,379.06478743803524L312.50035163737425,378.50839502027947L312.3543342797056,378.0080478255972L312.2089789957939,377.5658252703921L312.06681370362026,377.17989548783237L311.9291023621752,376.84515895673735L311.79638666816885,376.55537742789545L311.66848605603127,376.30401559260935L311.5449792060989,376.0851322611538L311.42508366756795,375.89377644209105L311.3080771781583,375.7258388125282L311.19311709854287,375.5780517181163L311.0795413549647,375.4479891730509L310.96656749662014,375.3337202906715L310.8537742038456,375.2339578132042L310.74049940288415,375.1476620324471L310.6265023396425,375.0744368690852L310.51172282559713,375.0139852636324L310.3964016148415,374.966257706174L310.2810804040859,374.93115517688153L310.16666202118074,374.90847963609747L310.0547113677332,374.8976369648491L309.9452886322668,374.8976369648491L309.8333379788193,374.90847963609747L309.7189195959141,374.93115517688153L309.6035983851585,374.966257706174L309.48827717440287,375.0139852636324L309.3734976603575,375.0744368690852L309.2595005971158,375.1476620324471L309.1462257961544,375.2339578132042L309.03343250337986,375.3337202906715L308.9204586450353,375.4479891730509L308.80688290145713,375.5780517181163L308.6919228218417,375.7258388125282L308.57491633243205,375.89377644209105L308.45502079390116,376.0851322611538L308.33151394396873,376.30401559260935L308.20361333183115,376.55537742789545L308.0708976378249,376.8452084666517L307.93318629637974,377.17989548783237L307.7910210042061,377.5658747803065L307.64566572029446,378.0080478255972L307.4996483626258,378.50839502027947L307.3560385458916,379.06478743803524L307.21832720444644,379.6711848693106L307.089283010365,380.3192696484904L306.9708319963948,381.00037754055893L306.8641177444795,381.7069830385309L306.7693208201893,382.43314495268146L306.68638103500075,383.17445690063096L306.6149372577738,383.9277997577738L306.55432741475136,384.69079704821996L306.50400980922336,385.461814944795L306.46350293300287,386.2395661897251L306.4322049008562,387.0231100946372L306.40951382755,387.81165450090134L306.3950685819438,388.6046052895449L306.3882672788042,389.40136834159534L306.3888089755145,390.2016465975666L306.39621216388764,391.00494495831464L306.4101157127835,391.81106538418214L306.43015849106206,392.61971081568277L306.455979367583,393.4306337032448L306.48733758825296,394.2435864972962L306.52393221045514,395.0584206680938L306.56546229157277,395.875037195809L306.6116870775124,396.6931390209554L306.6623658141806,397.51272614353326L306.7173179360072,398.3336500337991L306.77624250037553,399.1557126520956L306.83901913023885,399.9788644885084L306.905467260027,400.80305603312314L306.97534613564665,401.62808924628223L307.04859556857446,402.4539641279856L307.1250349932402,403.2805321484904L307.20448384407393,404.10774379788205L307.2868819325522,404.9355495662461L307.3721088816283,405.76385043375404L307.4600443142557,406.5925473805769L307.5505678533874,407.4215908968004L307.64367949902356,408.2509314725102L307.7391986855941,409.08051959779186L307.83718560162237,409.9102562528167L307.9375198700616,410.74004241775583L308.04014130238846,411.5698780926094L308.14504989860296,412.3997137674629L308.25218547018176,413.22940091257334L308.36154801712485,414.0589395279406L308.4731375394322,414.88823059373595L308.5868938485805,415.7171750901308L308.702877133093,416.5455749774674L308.82102720444647,417.3732322160884L308.94134406264084,418.19955268702125L309.06364714210605,419.0235461919784L309.1876355002253,419.84313331455616L309.31270725176506,420.6540562021181L309.437478060688,421.44799718904915L309.55960057458316,422.21044987043723L309.6752227279555,422.9198774335287L309.78013132417004,423.55301021856695L309.87131693705874,424.09534182064L309.9241624605678,424.40626408292036" class="line" style="fill:none; stroke:black; stroke-width:2"/>
                <path id="area" d="M310.0758375394322,424.40626408292036L310.12868306294126,424.09534182064L310.21986867582996,423.55301021856695L310.32477727204446,422.9198774335287L310.44039942541684,422.21040036052284L310.562521939312,421.44799718904915L310.68729274823494,420.6540066922038L310.8123644997747,419.84313331455616L310.93635285789395,419.0235461919784L311.05865593735916,418.19955268702125L311.1789727955536,417.3732322160884L311.297122866907,416.5455749774674L311.4131061514195,415.7171750901308L311.5268624605678,414.88823059373595L311.6384519828752,414.0589395279406L311.74781452981824,413.22940091257334L311.85495010139704,412.3997137674629L311.95985869761154,411.5698780926094L312.0624801299384,410.74004241775583L312.16281439837763,409.9102067429023L312.2608013144059,409.08051959779186L312.35632050097644,408.2509314725102L312.44943214661254,407.4215908968004L312.5399556857443,406.5925473805769L312.6278911183717,405.7638009238396L312.7131180674478,404.9355495662461L312.79551615592607,404.10774379788205L312.8749650067598,403.2805321484904L312.9514044314256,402.4539146180713L313.0246538643533,401.62808924628223L313.094532739973,400.80300652320875L313.16098086976115,399.9788644885084L313.2237574996244,399.1557126520956L313.28268206399275,398.3336005238847L313.3376341858194,397.51272614353326L313.3883129224876,396.6931390209554L313.43453770842723,395.8749876858946L313.4760677895449,395.0584206680938L313.5126624117471,394.2435864972962L313.544020632417,393.4305841933304L313.56984150893794,392.61971081568277L313.5898842872164,391.81106538418214L313.60378783611236,391.00494495831464L313.61119102448555,390.2015970876522L313.6117327211957,389.40136834159534L313.6049314180562,388.6045557796305L313.59048617245,387.81165450090134L313.5677950991438,387.0231100946372L313.53649706699713,386.2395661897251L313.4959901907766,385.461814944795L313.44567258524864,384.69079704821996L313.38506274222624,383.9277502478595L313.31361896499925,383.17445690063096L313.2306791798107,382.43309544276707L313.1358822555205,381.7069830385309L313.02916800360526,381.00037754055893L312.910716989635,380.3192696484904L312.78167279555356,379.6711848693106L312.6439614541084,379.06478743803524L312.50035163737425,378.50839502027947L312.3543342797056,378.0080478255972L312.2089789957939,377.5658252703921L312.06681370362026,377.17989548783237L311.9291023621752,376.84515895673735L311.79638666816885,376.55537742789545L311.66848605603127,376.30401559260935L311.5449792060989,376.0851322611538L311.42508366756795,375.89377644209105L311.3080771781583,375.7258388125282L311.19311709854287,375.5780517181163L311.0795413549647,375.4479891730509L310.96656749662014,375.3337202906715L310.8537742038456,375.2339578132042L310.74049940288415,375.1476620324471L310.6265023396425,375.0744368690852L310.51172282559713,375.0139852636324L310.3964016148415,374.966257706174L310.2810804040859,374.93115517688153L310.16666202118074,374.90847963609747L310.0547113677332,374.8976369648491L309.9452886322668,374.8976369648491L309.8333379788193,374.90847963609747L309.7189195959141,374.93115517688153L309.6035983851585,374.966257706174L309.48827717440287,375.0139852636324L309.3734976603575,375.0744368690852L309.2595005971158,375.1476620324471L309.1462257961544,375.2339578132042L309.03343250337986,375.3337202906715L308.9204586450353,375.4479891730509L308.80688290145713,375.5780517181163L308.6919228218417,375.7258388125282L308.57491633243205,375.89377644209105L308.45502079390116,376.0851322611538L308.33151394396873,376.30401559260935L308.20361333183115,376.55537742789545L308.0708976378249,376.8452084666517L307.93318629637974,377.17989548783237L307.7910210042061,377.5658747803065L307.64566572029446,378.0080478255972L307.4996483626258,378.50839502027947L307.3560385458916,379.06478743803524L307.21832720444644,379.6711848693106L307.089283010365,380.3192696484904L306.9708319963948,381.00037754055893L306.8641177444795,381.7069830385309L306.7693208201893,382.43314495268146L306.68638103500075,383.17445690063096L306.6149372577738,383.9277997577738L306.55432741475136,384.69079704821996L306.50400980922336,385.461814944795L306.46350293300287,386.2395661897251L306.4322049008562,387.0231100946372L306.40951382755,387.81165450090134L306.3950685819438,388.6046052895449L306.3882672788042,389.40136834159534L306.3888089755145,390.2016465975666L306.39621216388764,391.00494495831464L306.4101157127835,391.81106538418214L306.43015849106206,392.61971081568277L306.455979367583,393.4306337032448L306.48733758825296,394.2435864972962L306.52393221045514,395.0584206680938L306.56546229157277,395.875037195809L306.6116870775124,396.6931390209554L306.6623658141806,397.51272614353326L306.7173179360072,398.3336500337991L306.77624250037553,399.1557126520956L306.83901913023885,399.9788644885084L306.905467260027,400.80305603312314L306.97534613564665,401.62808924628223L307.04859556857446,402.4539641279856L307.1250349932402,403.2805321484904L307.20448384407393,404.10774379788205L307.2868819325522,404.9355495662461L307.3721088816283,405.76385043375404L307.4600443142557,406.5925473805769L307.5505678533874,407.4215908968004L307.64367949902356,408.2509314725102L307.7391986855941,409.08051959779186L307.83718560162237,409.9102562528167L307.9375198700616,410.74004241775583L308.04014130238846,411.5698780926094L308.14504989860296,412.3997137674629L308.25218547018176,413.22940091257334L308.36154801712485,414.0589395279406L308.4731375394322,414.88823059373595L308.5868938485805,415.7171750901308L308.702877133093,416.5455749774674L308.82102720444647,417.3732322160884L308.94134406264084,418.19955268702125L309.06364714210605,419.0235461919784L309.1876355002253,419.84313331455616L309.31270725176506,420.6540562021181L309.437478060688,421.44799718904915L309.55960057458316,422.21044987043723L309.6752227279555,422.9198774335287L309.78013132417004,423.55301021856695L309.87131693705874,424.09534182064L309.9241624605678,424.40626408292036L309.9241624605678,72.85714285714282L309.87131693705874,72.85714285714282L309.78013132417004,72.85714285714282L309.6752227279555,72.85714285714282L309.55960057458316,72.85714285714282L309.437478060688,72.85714285714282L309.31270725176506,72.85714285714282L309.1876355002253,72.85714285714282L309.06364714210605,72.85714285714282L308.94134406264084,72.85714285714282L308.82102720444647,72.85714285714282L308.702877133093,72.85714285714282L308.5868938485805,72.85714285714282L308.4731375394322,72.85714285714282L308.36154801712485,72.85714285714282L308.25218547018176,72.85714285714282L308.14504989860296,72.85714285714282L308.04014130238846,72.85714285714282L307.9375198700616,72.85714285714282L307.83718560162237,72.85714285714282L307.7391986855941,72.85714285714282L307.64367949902356,72.85714285714282L307.5505678533874,72.85714285714282L307.4600443142557,72.85714285714282L307.3721088816283,72.85714285714282L307.2868819325522,72.85714285714282L307.20448384407393,72.85714285714282L307.1250349932402,72.85714285714282L307.04859556857446,72.85714285714282L306.97534613564665,72.85714285714282L306.905467260027,72.85714285714282L306.83901913023885,72.85714285714282L306.77624250037553,72.85714285714282L306.7173179360072,72.85714285714282L306.6623658141806,72.85714285714282L306.6116870775124,72.85714285714282L306.56546229157277,72.85714285714282L306.52393221045514,72.85714285714282L306.48733758825296,72.85714285714282L306.455979367583,72.85714285714282L306.43015849106206,72.85714285714282L306.4101157127835,72.85714285714282L306.39621216388764,72.85714285714282L306.3888089755145,72.85714285714282L306.3882672788042,72.85714285714282L306.3950685819438,72.85714285714282L306.40951382755,72.85714285714282L306.4322049008562,72.85714285714282L306.46350293300287,72.85714285714282L306.50400980922336,72.85714285714282L306.55432741475136,72.85714285714282L306.6149372577738,72.85714285714282L306.68638103500075,72.85714285714282L306.7693208201893,72.85714285714282L306.8641177444795,72.85714285714282L306.9708319963948,72.85714285714282L307.089283010365,72.85714285714282L307.21832720444644,72.85714285714282L307.3560385458916,72.85714285714282L307.4996483626258,72.85714285714282L307.64566572029446,72.85714285714282L307.7910210042061,72.85714285714282L307.93318629637974,72.85714285714282L308.0708976378249,72.85714285714282L308.20361333183115,72.85714285714282L308.33151394396873,72.85714285714282L308.45502079390116,72.85714285714282L308.57491633243205,72.85714285714282L308.6919228218417,72.85714285714282L308.80688290145713,72.85714285714282L308.9204586450353,72.85714285714282L309.03343250337986,72.85714285714282L309.1462257961544,72.85714285714282L309.2595005971158,72.85714285714282L309.3734976603575,72.85714285714282L309.48827717440287,72.85714285714282L309.6035983851585,72.85714285714282L309.7189195959141,72.85714285714282L309.8333379788193,72.85714285714282L309.9452886322668,72.85714285714282L310.0547113677332,72.85714285714282L310.16666202118074,72.85714285714282L310.2810804040859,72.85714285714282L310.3964016148415,72.85714285714282L310.51172282559713,72.85714285714282L310.6265023396425,72.85714285714282L310.74049940288415,72.85714285714282L310.8537742038456,72.85714285714282L310.96656749662014,72.85714285714282L311.0795413549647,72.85714285714282L311.19311709854287,72.85714285714282L311.3080771781583,72.85714285714282L311.42508366756795,72.85714285714282L311.5449792060989,72.85714285714282L311.66848605603127,72.85714285714282L311.79638666816885,72.85714285714282L311.9291023621752,72.85714285714282L312.06681370362026,72.85714285714282L312.2089789957939,72.85714285714282L312.3543342797056,72.85714285714282L312.50035163737425,72.85714285714282L312.6439614541084,72.85714285714282L312.78167279555356,72.85714285714282L312.910716989635,72.85714285714282L313.02916800360526,72.85714285714282L313.1358822555205,72.85714285714282L313.2306791798107,72.85714285714282L313.31361896499925,72.85714285714282L313.38506274222624,72.85714285714282L313.44567258524864,72.85714285714282L313.4959901907766,72.85714285714282L313.53649706699713,72.85714285714282L313.5677950991438,72.85714285714282L313.59048617245,72.85714285714282L313.6049314180562,72.85714285714282L313.6117327211957,72.85714285714282L313.61119102448555,72.85714285714282L313.60378783611236,72.85714285714282L313.5898842872164,72.85714285714282L313.56984150893794,72.85714285714282L313.544020632417,72.85714285714282L313.5126624117471,72.85714285714282L313.4760677895449,72.85714285714282L313.43453770842723,72.85714285714282L313.3883129224876,72.85714285714282L313.3376341858194,72.85714285714282L313.28268206399275,72.85714285714282L313.2237574996244,72.85714285714282L313.16098086976115,72.85714285714282L313.094532739973,72.85714285714282L313.0246538643533,72.85714285714282L312.9514044314256,72.85714285714282L312.8749650067598,72.85714285714282L312.79551615592607,72.85714285714282L312.7131180674478,72.85714285714282L312.6278911183717,72.85714285714282L312.5399556857443,72.85714285714282L312.44943214661254,72.85714285714282L312.35632050097644,72.85714285714282L312.2608013144059,72.85714285714282L312.16281439837763,72.85714285714282L312.0624801299384,72.85714285714282L311.95985869761154,72.85714285714282L311.85495010139704,72.85714285714282L311.74781452981824,72.85714285714282L311.6384519828752,72.85714285714282L311.5268624605678,72.85714285714282L311.4131061514195,72.85714285714282L311.297122866907,72.85714285714282L311.1789727955536,72.85714285714282L311.05865593735916,72.85714285714282L310.93635285789395,72.85714285714282L310.8123644997747,72.85714285714282L310.68729274823494,72.85714285714282L310.562521939312,72.85714285714282L310.44039942541684,72.85714285714282L310.32477727204446,72.85714285714282L310.21986867582996,72.85714285714282L310.12868306294126,72.85714285714282L310.0758375394322,72.85714285714282Z" class="area" style="fill:yellow;" opacity="1"/>
            </g>
            <g id="xy" class="xy">
                <path id="line" d="M310.0485536277602,461.94569625957644L310.0823870286916,461.7466338440739L310.14076698587957,461.39941573907174L310.2079328376146,460.9940638012618L310.28195785263637,460.53983379900853L310.36014460718036,460.05171880914827L310.4400268852336,459.54338059936913L310.5201018364128,459.0242334272195L310.5994831643383,458.49950743578194L310.677785522758,457.9719603368635L310.7548162385459,457.44292343961246L310.8304597078263,456.91303070076617L310.9047159305993,456.3826624943669L310.9775463722398,455.8519456117621L311.0489895673727,455.3210068442993L311.119006981373,454.7899095876521L311.18759861424064,454.25871723749435L311.25476446597565,453.7274297938261L311.3204660019528,453.1961423501578L311.3847032221722,452.66485490648944L311.4474375920084,452.13366255633167L311.5085920422112,451.6025336018477L311.56820510740573,451.0715631365481L311.62616118371636,450.54078285826955L311.68246027114316,450.01019276701214L311.7370253004356,449.47991965412353L311.78977920234337,448.9499318217666L311.8406449076161,448.420324363452L311.88958388162837,447.8910972791798L311.9364805205047,447.36237736029744L311.98121922036955,446.834132908968L312.0237614465976,446.30649071653903L312.063953060688,445.77948248084726L312.10167845876515,445.25313989972966L312.1368605715788,444.7275897645336L312.1693067260027,444.202863773096L312.1989013181613,443.6790570189275L312.22549020955387,443.1562645955385L312.2489192616794,442.63458159643983L312.268995801412,442.1140714173051L312.28552715562563,441.59492424515554L312.2983591858195,441.07720347566476L312.3072606842422,440.561099295854L312.31200044314255,440.0467701949076L312.31234725476946,439.53443805768364L312.3079928421211,439.02429307120326L312.2987445320715,438.5166522138351L312.28421697836865,438.0118007661109L312.2641789732612,437.51015079990987L312.2382451704972,437.01220948062195L312.20603022382454,436.51857906714736L312.16722585624154,436.03005200540787L312.1214852561214,435.5477694175304L312.0683845425867,435.0731260083371L312.0076925078864,434.60824553289774L311.93937061739524,434.15585400518256L311.86353447498874,433.71978686345204L311.78091623854596,433.30486217890945L311.6927490160733,432.9166270730059L311.6008054003305,432.56040678233444L311.5073203995794,432.2400684429923L311.41425927970556,431.956943364128L311.3232404949677,431.7098587257774L311.23507327249513,431.4955496507436L311.1501044239147,431.31002221158184L311.0682183453508,431.1490922938261L310.98914529442686,431.0089561570528L310.9123843210155,430.8864440175755L310.8374730096139,430.77892495493467L310.7638718754695,430.6843069118973L310.69115703770467,430.60103669445704L310.618827546192,430.5278780869762L310.5466136585549,430.46400694569627L310.4740914939162,430.4087576160433L310.4011069137749,430.3618765153223L310.3276213835061,430.323173456512L310.2537890416103,430.2926167417756L310.1799566997146,430.27014297543946L310.10670237719694,430.255625366156L310.03502797431275,430.2486835398829L309.96497202568725,430.2486835398829L309.89329762280306,430.255625366156L309.8200433002854,430.27014297543946L309.74621095838967,430.2926167417756L309.6723786164939,430.323173456512L309.598893086225,430.3618765153223L309.5259085060838,430.4087576160433L309.4533863414451,430.46400694569627L309.381172453808,430.5278780869762L309.3088429622954,430.60103669445704L309.2361281245306,430.6843069118973L309.1625269903861,430.77892495493467L309.08761567898455,430.8864440175755L309.0108547055731,431.0089561570528L308.9317816546492,431.1490922938261L308.8498955760853,431.31002221158184L308.76492672750487,431.4955813485805L308.6767595050323,431.7098587257774L308.58574072029444,431.9569750619649L308.4926796004206,432.2400684429923L308.3991945996695,432.56040678233444L308.3072509839267,432.9166270730059L308.2190837614541,433.30486217890945L308.13646552501126,433.71978686345204L308.06062938260476,434.15585400518256L307.9923074921136,434.60824553289774L307.9316154574133,435.073157706174L307.8785147438786,435.5477694175304L307.83277414375846,436.0300837032447L307.79396977617546,436.51857906714736L307.7617548295028,437.01220948062195L307.7358210267388,437.51015079990987L307.71578302163135,438.0118007661109L307.7012554679285,438.5166522138351L307.6920071578789,439.0243247690401L307.6876527452306,439.53443805768364L307.6879995568575,440.0468018927445L307.6927393157579,440.561099295854L307.70164081418056,441.07720347566476L307.7144728443743,441.59492424515554L307.731004198588,442.114103115142L307.7510807383206,442.63458159643983L307.7745097904462,443.1562645955385L307.80109868183865,443.67908871676434L307.83069327399727,444.202863773096L307.8631394284212,444.7275897645336L307.8983215412348,445.25317159756645L307.936046939312,445.77948248084726L307.9762385534024,446.30649071653903L308.01878077963045,446.8341646068049L308.0635194794953,447.36237736029744L308.11041611837163,447.8911289770167L308.1593550923839,448.420324363452L308.21022079765663,448.9499318217666L308.2629746995644,449.47991965412353L308.31753972885684,450.01022446484905L308.37383881628364,450.54078285826955L308.43179489259427,451.0715631365481L308.4914079577888,451.6025336018477L308.5525624079916,452.13366255633167L308.61529677782784,452.66488660432634L308.67953399804713,453.1961423501578L308.74523553402435,453.7274297938261L308.81240138575936,454.25871723749435L308.88099301862707,454.7899095876521L308.9510104326273,455.3210068442993L309.0224536277603,455.8519456117621L309.09528406940063,456.3826624943669L309.1695402921737,456.91303070076617L309.2451837614541,457.44292343961246L309.32221447724197,457.9719603368635L309.40051683566173,458.49950743578194L309.4798981635872,459.0242334272195L309.5599731147664,459.5434122972059L309.6398553928196,460.05171880914827L309.7180421473637,460.5398654968455L309.7920671623854,460.9940638012618L309.8592330141205,461.39941573907174L309.9176129713084,461.7466338440739L309.95144637223973,461.94569625957644" class="line" style="fill:none; stroke:black; stroke-width:2"/>
                <path id="area" d="M310.0485536277602,461.94569625957644L310.0823870286916,461.7466338440739L310.14076698587957,461.39941573907174L310.2079328376146,460.9940638012618L310.28195785263637,460.53983379900853L310.36014460718036,460.05171880914827L310.4400268852336,459.54338059936913L310.5201018364128,459.0242334272195L310.5994831643383,458.49950743578194L310.677785522758,457.9719603368635L310.7548162385459,457.44292343961246L310.8304597078263,456.91303070076617L310.9047159305993,456.3826624943669L310.9775463722398,455.8519456117621L311.0489895673727,455.3210068442993L311.119006981373,454.7899095876521L311.18759861424064,454.25871723749435L311.25476446597565,453.7274297938261L311.3204660019528,453.1961423501578L311.3847032221722,452.66485490648944L311.4474375920084,452.13366255633167L311.5085920422112,451.6025336018477L311.56820510740573,451.0715631365481L311.62616118371636,450.54078285826955L311.68246027114316,450.01019276701214L311.7370253004356,449.47991965412353L311.78977920234337,448.9499318217666L311.8406449076161,448.420324363452L311.88958388162837,447.8910972791798L311.9364805205047,447.36237736029744L311.98121922036955,446.834132908968L312.0237614465976,446.30649071653903L312.063953060688,445.77948248084726L312.10167845876515,445.25313989972966L312.1368605715788,444.7275897645336L312.1693067260027,444.202863773096L312.1989013181613,443.6790570189275L312.22549020955387,443.1562645955385L312.2489192616794,442.63458159643983L312.268995801412,442.1140714173051L312.28552715562563,441.59492424515554L312.2983591858195,441.07720347566476L312.3072606842422,440.561099295854L312.31200044314255,440.0467701949076L312.31234725476946,439.53443805768364L312.3079928421211,439.02429307120326L312.2987445320715,438.5166522138351L312.28421697836865,438.0118007661109L312.2641789732612,437.51015079990987L312.2382451704972,437.01220948062195L312.20603022382454,436.51857906714736L312.16722585624154,436.03005200540787L312.1214852561214,435.5477694175304L312.0683845425867,435.0731260083371L312.0076925078864,434.60824553289774L311.93937061739524,434.15585400518256L311.86353447498874,433.71978686345204L311.78091623854596,433.30486217890945L311.6927490160733,432.9166270730059L311.6008054003305,432.56040678233444L311.5073203995794,432.2400684429923L311.41425927970556,431.956943364128L311.3232404949677,431.7098587257774L311.23507327249513,431.4955496507436L311.1501044239147,431.31002221158184L311.0682183453508,431.1490922938261L310.98914529442686,431.0089561570528L310.9123843210155,430.8864440175755L310.8374730096139,430.77892495493467L310.7638718754695,430.6843069118973L310.69115703770467,430.60103669445704L310.618827546192,430.5278780869762L310.5466136585549,430.46400694569627L310.4740914939162,430.4087576160433L310.4011069137749,430.3618765153223L310.3276213835061,430.323173456512L310.2537890416103,430.2926167417756L310.1799566997146,430.27014297543946L310.10670237719694,430.255625366156L310.03502797431275,430.2486835398829L309.96497202568725,430.2486835398829L309.89329762280306,430.255625366156L309.8200433002854,430.27014297543946L309.74621095838967,430.2926167417756L309.6723786164939,430.323173456512L309.598893086225,430.3618765153223L309.5259085060838,430.4087576160433L309.4533863414451,430.46400694569627L309.381172453808,430.5278780869762L309.3088429622954,430.60103669445704L309.2361281245306,430.6843069118973L309.1625269903861,430.77892495493467L309.08761567898455,430.8864440175755L309.0108547055731,431.0089561570528L308.9317816546492,431.1490922938261L308.8498955760853,431.31002221158184L308.76492672750487,431.4955813485805L308.6767595050323,431.7098587257774L308.58574072029444,431.9569750619649L308.4926796004206,432.2400684429923L308.3991945996695,432.56040678233444L308.3072509839267,432.9166270730059L308.2190837614541,433.30486217890945L308.13646552501126,433.71978686345204L308.06062938260476,434.15585400518256L307.9923074921136,434.60824553289774L307.9316154574133,435.073157706174L307.8785147438786,435.5477694175304L307.83277414375846,436.0300837032447L307.79396977617546,436.51857906714736L307.7617548295028,437.01220948062195L307.7358210267388,437.51015079990987L307.71578302163135,438.0118007661109L307.7012554679285,438.5166522138351L307.6920071578789,439.0243247690401L307.6876527452306,439.53443805768364L307.6879995568575,440.0468018927445L307.6927393157579,440.561099295854L307.70164081418056,441.07720347566476L307.7144728443743,441.59492424515554L307.731004198588,442.114103115142L307.7510807383206,442.63458159643983L307.7745097904462,443.1562645955385L307.80109868183865,443.67908871676434L307.83069327399727,444.202863773096L307.8631394284212,444.7275897645336L307.8983215412348,445.25317159756645L307.936046939312,445.77948248084726L307.9762385534024,446.30649071653903L308.01878077963045,446.8341646068049L308.0635194794953,447.36237736029744L308.11041611837163,447.8911289770167L308.1593550923839,448.420324363452L308.21022079765663,448.9499318217666L308.2629746995644,449.47991965412353L308.31753972885684,450.01022446484905L308.37383881628364,450.54078285826955L308.43179489259427,451.0715631365481L308.4914079577888,451.6025336018477L308.5525624079916,452.13366255633167L308.61529677782784,452.66488660432634L308.67953399804713,453.1961423501578L308.74523553402435,453.7274297938261L308.81240138575936,454.25871723749435L308.88099301862707,454.7899095876521L308.9510104326273,455.3210068442993L309.0224536277603,455.8519456117621L309.09528406940063,456.3826624943669L309.1695402921737,456.91303070076617L309.2451837614541,457.44292343961246L309.32221447724197,457.9719603368635L309.40051683566173,458.49950743578194L309.4798981635872,459.0242334272195L309.5599731147664,459.5434122972059L309.6398553928196,460.05171880914827L309.7180421473637,460.5398654968455L309.7920671623854,460.9940638012618L309.8592330141205,461.39941573907174L309.9176129713084,461.7466338440739L309.95144637223973,461.94569625957644L309.95144637223973,72.85714285714282L309.9176129713084,72.85714285714282L309.8592330141205,72.85714285714282L309.7920671623854,72.85714285714282L309.7180421473637,72.85714285714282L309.6398553928196,72.85714285714282L309.5599731147664,72.85714285714282L309.4798981635872,72.85714285714282L309.40051683566173,72.85714285714282L309.32221447724197,72.85714285714282L309.2451837614541,72.85714285714282L309.1695402921737,72.85714285714282L309.09528406940063,72.85714285714282L309.0224536277603,72.85714285714282L308.9510104326273,72.85714285714282L308.88099301862707,72.85714285714282L308.81240138575936,72.85714285714282L308.74523553402435,72.85714285714282L308.67953399804713,72.85714285714282L308.61529677782784,72.85714285714282L308.5525624079916,72.85714285714282L308.4914079577888,72.85714285714282L308.43179489259427,72.85714285714282L308.37383881628364,72.85714285714282L308.31753972885684,72.85714285714282L308.2629746995644,72.85714285714282L308.21022079765663,72.85714285714282L308.1593550923839,72.85714285714282L308.11041611837163,72.85714285714282L308.0635194794953,72.85714285714282L308.01878077963045,72.85714285714282L307.9762385534024,72.85714285714282L307.936046939312,72.85714285714282L307.8983215412348,72.85714285714282L307.8631394284212,72.85714285714282L307.83069327399727,72.85714285714282L307.80109868183865,72.85714285714282L307.7745097904462,72.85714285714282L307.7510807383206,72.85714285714282L307.731004198588,72.85714285714282L307.7144728443743,72.85714285714282L307.70164081418056,72.85714285714282L307.6927393157579,72.85714285714282L307.6879995568575,72.85714285714282L307.6876527452306,72.85714285714282L307.6920071578789,72.85714285714282L307.7012554679285,72.85714285714282L307.71578302163135,72.85714285714282L307.7358210267388,72.85714285714282L307.7617548295028,72.85714285714282L307.79396977617546,72.85714285714282L307.83277414375846,72.85714285714282L307.8785147438786,72.85714285714282L307.9316154574133,72.85714285714282L307.9923074921136,72.85714285714282L308.06062938260476,72.85714285714282L308.13646552501126,72.85714285714282L308.2190837614541,72.85714285714282L308.3072509839267,72.85714285714282L308.3991945996695,72.85714285714282L308.4926796004206,72.85714285714282L308.58574072029444,72.85714285714282L308.6767595050323,72.85714285714282L308.76492672750487,72.85714285714282L308.8498955760853,72.85714285714282L308.9317816546492,72.85714285714282L309.0108547055731,72.85714285714282L309.08761567898455,72.85714285714282L309.1625269903861,72.85714285714282L309.2361281245306,72.85714285714282L309.3088429622954,72.85714285714282L309.381172453808,72.85714285714282L309.4533863414451,72.85714285714282L309.5259085060838,72.85714285714282L309.598893086225,72.85714285714282L309.6723786164939,72.85714285714282L309.74621095838967,72.85714285714282L309.8200433002854,72.85714285714282L309.89329762280306,72.85714285714282L309.96497202568725,72.85714285714282L310.03502797431275,72.85714285714282L310.10670237719694,72.85714285714282L310.1799566997146,72.85714285714282L310.2537890416103,72.85714285714282L310.3276213835061,72.85714285714282L310.4011069137749,72.85714285714282L310.4740914939162,72.85714285714282L310.5466136585549,72.85714285714282L310.618827546192,72.85714285714282L310.69115703770467,72.85714285714282L310.7638718754695,72.85714285714282L310.8374730096139,72.85714285714282L310.9123843210155,72.85714285714282L310.98914529442686,72.85714285714282L311.0682183453508,72.85714285714282L311.1501044239147,72.85714285714282L311.23507327249513,72.85714285714282L311.3232404949677,72.85714285714282L311.41425927970556,72.85714285714282L311.5073203995794,72.85714285714282L311.6008054003305,72.85714285714282L311.6927490160733,72.85714285714282L311.78091623854596,72.85714285714282L311.86353447498874,72.85714285714282L311.93937061739524,72.85714285714282L312.0076925078864,72.85714285714282L312.0683845425867,72.85714285714282L312.1214852561214,72.85714285714282L312.16722585624154,72.85714285714282L312.20603022382454,72.85714285714282L312.2382451704972,72.85714285714282L312.2641789732612,72.85714285714282L312.28421697836865,72.85714285714282L312.2987445320715,72.85714285714282L312.3079928421211,72.85714285714282L312.31234725476946,72.85714285714282L312.31200044314255,72.85714285714282L312.3072606842422,72.85714285714282L312.2983591858195,72.85714285714282L312.28552715562563,72.85714285714282L312.268995801412,72.85714285714282L312.2489192616794,72.85714285714282L312.22549020955387,72.85714285714282L312.1989013181613,72.85714285714282L312.1693067260027,72.85714285714282L312.1368605715788,72.85714285714282L312.10167845876515,72.85714285714282L312.063953060688,72.85714285714282L312.0237614465976,72.85714285714282L311.98121922036955,72.85714285714282L311.9364805205047,72.85714285714282L311.88958388162837,72.85714285714282L311.8406449076161,72.85714285714282L311.78977920234337,72.85714285714282L311.7370253004356,72.85714285714282L311.68246027114316,72.85714285714282L311.62616118371636,72.85714285714282L311.56820510740573,72.85714285714282L311.5085920422112,72.85714285714282L311.4474375920084,72.85714285714282L311.3847032221722,72.85714285714282L311.3204660019528,72.85714285714282L311.25476446597565,72.85714285714282L311.18759861424064,72.85714285714282L311.119006981373,72.85714285714282L311.0489895673727,72.85714285714282L310.9775463722398,72.85714285714282L310.9047159305993,72.85714285714282L310.8304597078263,72.85714285714282L310.7548162385459,72.85714285714282L310.677785522758,72.85714285714282L310.5994831643383,72.85714285714282L310.5201018364128,72.85714285714282L310.4400268852336,72.85714285714282L310.36014460718036,72.85714285714282L310.28195785263637,72.85714285714282L310.2079328376146,72.85714285714282L310.14076698587957,72.85714285714282L310.0823870286916,72.85714285714282L310.0485536277602,72.85714285714282Z" class="area" style="fill:yellow;" opacity="1"/>
            </g>
            <g id="xy" class="xy">
                <path id="line" d="M368.644809974463,371.83190626408293L368.95677363288513,374.0349790090368L369.25370737779525,376.2380517539907L369.5205812956813,378.4411244989446L369.74236547303127,380.6441972438984L369.904029996333,382.84726998885225L369.99054495207463,385.0503427338062L369.98688042674405,387.25341547875996L369.87800650682914,389.45648822371385L369.650065898356,391.6595609686678L369.30424181337304,393.8626337136216L368.852134768555,396.0657064585755L368.3055539816613,398.2687792035294L367.67630867045136,400.47185194848316L366.97620805268474,402.67492469343716L366.2170613461208,404.877997438391L365.410677768519,407.0810701833448L364.5688665376389,409.2841429282987L363.7034368712398,411.4872156732526L362.82619798708123,413.6902884182064L360.495493465525,413.6902884182064L359.6182545813665,411.4872156732526L358.75282491496745,409.2841429282987L357.91101368408727,407.0810701833448L357.1046301064855,404.877997438391L356.34548339992153,402.67492469343716L355.6453827821549,400.47185194848316L355.016137470945,398.2687792035294L354.46955668405127,396.0657064585755L354.01744963923323,393.8626337136216L353.6716255542503,391.6595609686678L353.4436849457771,389.45648822371385L353.3348110258622,387.25341547875996L353.33114650053164,385.0503427338062L353.41766145627327,382.84726998885225L353.5793259795751,380.6441972438984L353.80111015692495,378.4411244989446L354.0679840748111,376.2380517539907L354.3649178197212,374.0349790090368L354.6768814781433,371.83190626408293L368.644809974463,371.83190626408293" class="line" style="fill:none; stroke:black; stroke-width:2"/>
                <path id="area" d="M368.644809974463,371.83190626408293L368.95677363288513,374.0349790090368L369.25370737779525,376.2380517539907L369.5205812956813,378.4411244989446L369.74236547303127,380.6441972438984L369.904029996333,382.84726998885225L369.99054495207463,385.0503427338062L369.98688042674405,387.25341547875996L369.87800650682914,389.45648822371385L369.650065898356,391.6595609686678L369.30424181337304,393.8626337136216L368.852134768555,396.0657064585755L368.3055539816613,398.2687792035294L367.67630867045136,400.47185194848316L366.97620805268474,402.67492469343716L366.2170613461208,404.877997438391L365.410677768519,407.0810701833448L364.5688665376389,409.2841429282987L363.7034368712398,411.4872156732526L362.82619798708123,413.6902884182064L360.495493465525,413.6902884182064L359.6182545813665,411.4872156732526L358.75282491496745,409.2841429282987L357.91101368408727,407.0810701833448L357.1046301064855,404.877997438391L356.34548339992153,402.67492469343716L355.6453827821549,400.47185194848316L355.016137470945,398.2687792035294L354.46955668405127,396.0657064585755L354.01744963923323,393.8626337136216L353.6716255542503,391.6595609686678L353.4436849457771,389.45648822371385L353.3348110258622,387.25341547875996L353.33114650053164,385.0503427338062L353.41766145627327,382.84726998885225L353.5793259795751,380.6441972438984L353.80111015692495,378.4411244989446L354.0679840748111,376.2380517539907L354.3649178197212,374.0349790090368L354.6768814781433,371.83190626408293L368.644809974463,371.83190626408293L368.644809974463,72.85714285714282L354.6768814781433,72.85714285714282L354.3649178197212,72.85714285714282L354.0679840748111,72.85714285714282L353.80111015692495,72.85714285714282L353.5793259795751,72.85714285714282L353.41766145627327,72.85714285714282L353.33114650053164,72.85714285714282L353.3348110258622,72.85714285714282L353.4436849457771,72.85714285714282L353.6716255542503,72.85714285714282L354.01744963923323,72.85714285714282L354.46955668405127,72.85714285714282L355.016137470945,72.85714285714282L355.6453827821549,72.85714285714282L356.34548339992153,72.85714285714282L357.1046301064855,72.85714285714282L357.91101368408727,72.85714285714282L358.75282491496745,72.85714285714282L359.6182545813665,72.85714285714282L360.495493465525,72.85714285714282L362.82619798708123,72.85714285714282L363.7034368712398,72.85714285714282L364.5688665376389,72.85714285714282L365.410677768519,72.85714285714282L366.2170613461208,72.85714285714282L366.97620805268474,72.85714285714282L367.67630867045136,72.85714285714282L368.3055539816613,72.85714285714282L368.852134768555,72.85714285714282L369.30424181337304,72.85714285714282L369.650065898356,72.85714285714282L369.87800650682914,72.85714285714282L369.98688042674405,72.85714285714282L369.99054495207463,72.85714285714282L369.904029996333,72.85714285714282L369.74236547303127,72.85714285714282L369.5205812956813,72.85714285714282L369.25370737779525,72.85714285714282L368.95677363288513,72.85714285714282L368.644809974463,72.85714285714282Z" class="area" style="fill:orange;" opacity="1"/>
            </g>
            <g id="xy" class="xy">
                <path id="line" d="M265.3231185218567,371.83190626408293L265.63508218027886,374.0349790090368L265.9320159251889,376.2380517539907L266.19888984307505,378.4411244989446L266.42067402042494,380.6441972438984L266.58233854372673,382.84726998885225L266.66885349946836,385.0503427338062L266.6651889741377,387.25341547875996L266.55631505422286,389.45648822371385L266.3283744457497,391.6595609686678L265.98255036076677,393.8626337136216L265.53044331594873,396.0657064585755L264.983862529055,398.2687792035294L264.3546172178451,400.47185194848316L263.6545166000784,402.67492469343716L262.89536989351444,404.877997438391L262.0889863159127,407.0810701833448L261.24717508503255,409.2841429282987L260.3817454186335,411.4872156732526L259.504506534475,413.6902884182064L257.17380201291877,413.6902884182064L256.2965631287602,411.4872156732526L255.43113346236115,409.2841429282987L254.589322231481,407.0810701833448L253.78293865387923,404.877997438391L253.02379194731526,402.67492469343716L252.3236913295486,400.47185194848316L251.69444601833874,398.2687792035294L251.147865231445,396.0657064585755L250.6957581866269,393.8626337136216L250.34993410164395,391.6595609686678L250.12199349317083,389.45648822371385L250.01311957325595,387.25341547875996L250.00945504792537,385.0503427338062L250.09597000366696,382.84726998885225L250.25763452696876,380.6441972438984L250.4794187043187,378.4411244989446L250.74629262220472,376.2380517539907L251.04322636711487,374.0349790090368L251.35519002553704,371.83190626408293L265.3231185218567,371.83190626408293" class="line" style="fill:none; stroke:black; stroke-width:2"/>
                <path id="area" d="M265.3231185218567,371.83190626408293L265.63508218027886,374.0349790090368L265.9320159251889,376.2380517539907L266.19888984307505,378.4411244989446L266.42067402042494,380.6441972438984L266.58233854372673,382.84726998885225L266.66885349946836,385.0503427338062L266.6651889741377,387.25341547875996L266.55631505422286,389.45648822371385L266.3283744457497,391.6595609686678L265.98255036076677,393.8626337136216L265.53044331594873,396.0657064585755L264.983862529055,398.2687792035294L264.3546172178451,400.47185194848316L263.6545166000784,402.67492469343716L262.89536989351444,404.877997438391L262.0889863159127,407.0810701833448L261.24717508503255,409.2841429282987L260.3817454186335,411.4872156732526L259.504506534475,413.6902884182064L257.17380201291877,413.6902884182064L256.2965631287602,411.4872156732526L255.43113346236115,409.2841429282987L254.589322231481,407.0810701833448L253.78293865387923,404.877997438391L253.02379194731526,402.67492469343716L252.3236913295486,400.47185194848316L251.69444601833874,398.2687792035294L251.147865231445,396.0657064585755L250.6957581866269,393.8626337136216L250.34993410164395,391.6595609686678L250.12199349317083,389.45648822371385L250.01311957325595,387.25341547875996L250.00945504792537,385.0503427338062L250.09597000366696,382.84726998885225L250.25763452696876,380.6441972438984L250.4794187043187,378.4411244989446L250.74629262220472,376.2380517539907L251.04322636711487,374.0349790090368L251.35519002553704,371.83190626408293L265.3231185218567,371.83190626408293L265.3231185218567,72.85714285714282L251.35519002553704,72.85714285714282L251.04322636711487,72.85714285714282L250.74629262220472,72.85714285714282L250.4794187043187,72.85714285714282L250.25763452696876,72.85714285714282L250.09597000366696,72.85714285714282L250.00945504792537,72.85714285714282L250.01311957325595,72.85714285714282L250.12199349317083,72.85714285714282L250.34993410164395,72.85714285714282L250.6957581866269,72.85714285714282L251.147865231445,72.85714285714282L251.69444601833874,72.85714285714282L252.3236913295486,72.85714285714282L253.02379194731526,72.85714285714282L253.78293865387923,72.85714285714282L254.589322231481,72.85714285714282L255.43113346236115,72.85714285714282L256.2965631287602,72.85714285714282L257.17380201291877,72.85714285714282L259.504506534475,72.85714285714282L260.3817454186335,72.85714285714282L261.24717508503255,72.85714285714282L262.0889863159127,72.85714285714282L262.89536989351444,72.85714285714282L263.6545166000784,72.85714285714282L264.3546172178451,72.85714285714282L264.983862529055,72.85714285714282L265.53044331594873,72.85714285714282L265.98255036076677,72.85714285714282L266.3283744457497,72.85714285714282L266.55631505422286,72.85714285714282L266.6651889741377,72.85714285714282L266.66885349946836,72.85714285714282L266.58233854372673,72.85714285714282L266.42067402042494,72.85714285714282L266.19888984307505,72.85714285714282L265.9320159251889,72.85714285714282L265.63508218027886,72.85714285714282L265.3231185218567,72.85714285714282Z" class="area" style="fill:orange;" opacity="1"/>
            </g>
        </g>
    </g>
    <text class="x label" text-anchor="middle" x="370" y="595">y (m)</text>
    <text class="y label" text-anchor="middle" x="-295" y="5" dy=".75em" transform="rotate(-90)">x (m)</text>
    <text class="title" text-anchor="middle" x="370" y="20">Aircraft data representation - Top View</text>
</svg>
