<?xml version="1.0" encoding="UTF-8"?><svg id="svg" class="svg" width="700" height="600" xmlns="http://www.w3.org/2000/svg">
    <g id="page" width="700" height="600">
        <g id="graph" transform="translate(60,40)">
            <rect width="620" height="510" fill="blue" opacity="0.05"/>
            <rect width="620" height="510" fill="none" opacity="1.0" style="stroke: darkblue; stroke-width: 2px;"/>
            <g id="xAxis" class="axis" transform="translate(0,510)">
                <g class="tick" transform="translate(6.0486322188449275,0)" style="opacity: 1;">
                    <line y2="-510" x2="0" style="fill: none; stroke: rgb(128, 128, 128); stroke-width: 0.8px; stroke-dasharray: 15px, 2px; font-style: normal; font-variant-caps: normal; font-weight: normal; font-size: 10px; line-height: normal; font-family: sans-serif; shape-rendering: geometricprecision;"/>
                    <text dy=".71em" y="12" x="0" style="text-anchor: middle;">-20</text>
                </g>
                <g class="tick" transform="translate(82.0364741641337,0)" style="opacity: 1;">
                    <line y2="-510" x2="0" style="fill: none; stroke: rgb(128, 128, 128); stroke-width: 0.8px; stroke-dasharray: 15px, 2px; font-style: normal; font-variant-caps: normal; font-weight: normal; font-size: 10px; line-height: normal; font-family: sans-serif; shape-rendering: geometricprecision;"/>
                    <text dy=".71em" y="12" x="0" style="text-anchor: middle;">-15</text>
                </g>
                <g class="tick" transform="translate(158.02431610942247,0)" style="opacity: 1;">
                    <line y2="-510" x2="0" style="fill: none; stroke: rgb(128, 128, 128); stroke-width: 0.8px; stroke-dasharray: 15px, 2px; font-style: normal; font-variant-caps: normal; font-weight: normal; font-size: 10px; line-height: normal; font-family: sans-serif; shape-rendering: geometricprecision;"/>
                    <text dy=".71em" y="12" x="0" style="text-anchor: middle;">-10</text>
                </g>
                <g class="tick" transform="translate(234.01215805471122,0)" style="opacity: 1;">
                    <line y2="-510" x2="0" style="fill: none; stroke: rgb(128, 128, 128); stroke-width: 0.8px; stroke-dasharray: 15px, 2px; font-style: normal; font-variant-caps: normal; font-weight: normal; font-size: 10px; line-height: normal; font-family: sans-serif; shape-rendering: geometricprecision;"/>
                    <text dy=".71em" y="12" x="0" style="text-anchor: middle;">-5</text>
                </g>
                <g class="tick" transform="translate(310,0)" style="opacity: 1;">
                    <line y2="-510" x2="0" style="fill: none; stroke: rgb(128, 128, 128); stroke-width: 0.8px; stroke-dasharray: 15px, 2px; font-style: normal; font-variant-caps: normal; font-weight: normal; font-size: 10px; line-height: normal; font-family: sans-serif; shape-rendering: geometricprecision;"/>
                    <text dy=".71em" y="12" x="0" style="text-anchor: middle;">0</text>
                </g>
                <g class="tick" transform="translate(385.9878419452888,0)" style="opacity: 1;">
                    <line y2="-510" x2="0" style="fill: none; stroke: rgb(128, 128, 128); stroke-width: 0.8px; stroke-dasharray: 15px, 2px; font-style: normal; font-variant-caps: normal; font-weight: normal; font-size: 10px; line-height: normal; font-family: sans-serif; shape-rendering: geometricprecision;"/>
                    <text dy=".71em" y="12" x="0" style="text-anchor: middle;">5</text>
                </g>
                <g class="tick" transform="translate(461.97568389057756,0)" style="opacity: 1;">
                    <line y2="-510" x2="0" style="fill: none; stroke: rgb(128, 128, 128); stroke-width: 0.8px; stroke-dasharray: 15px, 2px; font-style: normal; font-variant-caps: normal; font-weight: normal; font-size: 10px; line-height: normal; font-family: sans-serif; shape-rendering: geometricprecision;"/>
                    <text dy=".71em" y="12" x="0" style="text-anchor: middle;">10</text>
                </g>
                <g class="tick" transform="translate(537.9635258358663,0)" style="opacity: 1;">
                    <line y2="-510" x2="0" style="fill: none; stroke: rgb(128, 128, 128); stroke-width: 0.8px; stroke-dasharray: 15px, 2px; font-style: normal; font-variant-caps: normal; font-weight: normal; font-size: 10px; line-height: normal; font-family: sans-serif; shape-rendering: geometricprecision;"/>
                    <text dy=".71em" y="12" x="0" style="text-anchor: middle;">15</text>
                </g>
                <g class="tick" transform="translate(613.9513677811551,0)" style="opacity: 1;">
                    <line y2="-510" x2="0" style="fill: none; stroke: rgb(128, 128, 128); stroke-width: 0.8px; stroke-dasharray: 15px, 2px; font-style: normal; font-variant-caps: normal; font-weight: normal; font-size: 10px; line-height: normal; font-family: sans-serif; shape-rendering: geometricprecision;"/>
                    <text dy=".71em" y="12" x="0" style="text-anchor: middle;">20</text>
                </g>
                <path class="domain" d="M0,-510V0H620V-510" style="fill: none; stroke: rgb(128, 128, 128); stroke-width: 0.8px; stroke-dasharray: 15px, 2px; font-style: normal; font-variant-caps: normal; font-weight: normal; font-size: 10px; line-height: normal; font-family: sans-serif; shape-rendering: geometricprecision;"/>
            </g>
            <g id="yAxis" class="axis">
                <g class="tick" transform="translate(0,10.351014805373103)" style="opacity: 1;">
                    <line x2="620" y2="0" style="fill: none; stroke: rgb(128, 128, 128); stroke-dasharray: 15px, 2px; stroke-width: 0.8px; shape-rendering: geometricprecision;"/>
                    <text dy=".32em" x="-8" y="0" style="text-anchor: end;">-5</text>
                </g>
                <g class="tick" transform="translate(0,72.85714285714288)" style="opacity: 1;">
                    <line x2="620" y2="0" style="fill: none; stroke: rgb(128, 128, 128); stroke-dasharray: 15px, 2px; stroke-width: 0.8px; shape-rendering: geometricprecision;"/>
                    <text dy=".32em" x="-8" y="0" style="text-anchor: end;">0</text>
                </g>
                <g class="tick" transform="translate(0,135.36327090891265)" style="opacity: 1;">
                    <line x2="620" y2="0" style="fill: none; stroke: rgb(128, 128, 128); stroke-dasharray: 15px, 2px; stroke-width: 0.8px; shape-rendering: geometricprecision;"/>
                    <text dy=".32em" x="-8" y="0" style="text-anchor: end;">5</text>
                </g>
                <g class="tick" transform="translate(0,197.86939896068245)" style="opacity: 1;">
                    <line x2="620" y2="0" style="fill: none; stroke: rgb(128, 128, 128); stroke-dasharray: 15px, 2px; stroke-width: 0.8px; shape-rendering: geometricprecision;"/>
                    <text dy=".32em" x="-8" y="0" style="text-anchor: end;">10</text>
                </g>
                <g class="tick" transform="translate(0,260.37552701245227)" style="opacity: 1;">
                    <line x2="620" y2="0" style="fill: none; stroke: rgb(128, 128, 128); stroke-dasharray: 15px, 2px; stroke-width: 0.8px; shape-rendering: geometricprecision;"/>
                    <text dy=".32em" x="-8" y="0" style="text-anchor: end;">15</text>
                </g>
                <g class="tick" transform="translate(0,322.88165506422206)" style="opacity: 1;">
                    <line x2="620" y2="0" style="fill: none; stroke: rgb(128, 128, 128); stroke-dasharray: 15px, 2px; stroke-width: 0.8px; shape-rendering: geometricprecision;"/>
                    <text dy=".32em" x="-8" y="0" style="text-anchor: end;">20</text>
                </g>
                <g class="tick" transform="translate(0,385.38778311599185)" style="opacity: 1;">
                    <line x2="620" y2="0" style="fill: none; stroke: rgb(128, 128, 128); stroke-dasharray: 15px, 2px; stroke-width: 0.8px; shape-rendering: geometricprecision;"/>
                    <text dy=".32em" x="-8" y="0" style="text-anchor: end;">25</text>
                </g>
                <g class="tick" transform="translate(0,447.8939111677616)" style="opacity: 1;">
                    <line x2="620" y2="0" style="fill: none; stroke: rgb(128, 128, 128); stroke-dasharray: 15px, 2px; stroke-width: 0.8px; shape-rendering: geometricprecision;"/>
                    <text dy=".32em" x="-8" y="0" style="text-anchor: end;">30</text>
                </g>
                <path class="domain" d="M620,0H0V510H620" style="fill: none; stroke: rgb(128, 128, 128); stroke-dasharray: 15px, 2px; stroke-width: 0.8px; shape-rendering: geometricprecision;"/>
            </g>
            <g id="xy" class="xy">
                <path id="line" d="M310,234.1229532307089L325.8566960269023,234.62403054741185L341.71339205380457,235.12510786411477L357.57008808070685,235.6261851808177L373.42678410760914,236.12726249752058L381.7724135954524,236.39098740104842L389.28348013451136,236.62833981422352L405.14017616141365,237.1294171309264L420.996872188316,237.63049444762933L436.85356821521816,238.13157176433228L452.71026424212045,238.6326490810352L468.56696026902273,239.1337263977381L484.423656295925,239.634803714441L500.2803523228273,240.13588103114395L516.1370483497296,240.6369583478469L531.9937443766319,241.13803566454976L531.9937443766319,257.42724921037967L516.1370483497296,259.4689783288804L500.2803523228273,261.51070744738115L484.423656295925,263.5524365658818L468.56696026902273,265.5941656843826L452.71026424212045,267.6358948028833L436.85356821521816,269.67762392138394L420.996872188316,271.7193530398847L405.14017616141365,273.76108215838536L389.28348013451136,275.80281127688613L381.7724135954524,276.78690447459627L373.42678410760914,277.7858665395455L357.57008808070685,279.6838944629492L341.71339205380457,281.5819223863528L325.8566960269023,283.4799503097565L310,285.3779782331601" class="line" style="fill:none; stroke:black; stroke-width:2"/>
                <path id="area" d="M310,234.1229532307089L325.8566960269023,234.62403054741185L341.71339205380457,235.12510786411477L357.57008808070685,235.6261851808177L373.42678410760914,236.12726249752058L381.7724135954524,236.39098740104842L389.28348013451136,236.62833981422352L405.14017616141365,237.1294171309264L420.996872188316,237.63049444762933L436.85356821521816,238.13157176433228L452.71026424212045,238.6326490810352L468.56696026902273,239.1337263977381L484.423656295925,239.634803714441L500.2803523228273,240.13588103114395L516.1370483497296,240.6369583478469L531.9937443766319,241.13803566454976L531.9937443766319,257.42724921037967L516.1370483497296,259.4689783288804L500.2803523228273,261.51070744738115L484.423656295925,263.5524365658818L468.56696026902273,265.5941656843826L452.71026424212045,267.6358948028833L436.85356821521816,269.67762392138394L420.996872188316,271.7193530398847L405.14017616141365,273.76108215838536L389.28348013451136,275.80281127688613L381.7724135954524,276.78690447459627L373.42678410760914,277.7858665395455L357.57008808070685,279.6838944629492L341.71339205380457,281.5819223863528L325.8566960269023,283.4799503097565L310,285.3779782331601L310,72.85714285714288L325.8566960269023,72.85714285714288L341.71339205380457,72.85714285714288L357.57008808070685,72.85714285714288L373.42678410760914,72.85714285714288L381.7724135954524,72.85714285714288L389.28348013451136,72.85714285714288L405.14017616141365,72.85714285714288L420.996872188316,72.85714285714288L436.85356821521816,72.85714285714288L452.71026424212045,72.85714285714288L468.56696026902273,72.85714285714288L484.423656295925,72.85714285714288L500.2803523228273,72.85714285714288L516.1370483497296,72.85714285714288L531.9937443766319,72.85714285714288L531.9937443766319,72.85714285714288L516.1370483497296,72.85714285714288L500.2803523228273,72.85714285714288L484.423656295925,72.85714285714288L468.56696026902273,72.85714285714288L452.71026424212045,72.85714285714288L436.85356821521816,72.85714285714288L420.996872188316,72.85714285714288L405.14017616141365,72.85714285714288L389.28348013451136,72.85714285714288L381.7724135954524,72.85714285714288L373.42678410760914,72.85714285714288L357.57008808070685,72.85714285714288L341.71339205380457,72.85714285714288L325.8566960269023,72.85714285714288L310,72.85714285714288Z" class="area" style="fill:lightblue;" opacity="1"/>
            </g>
            <g id="xy" class="xy">
                <path id="line" d="M310,234.1229532307089L294.1433039730977,234.62403054741185L278.2866079461954,235.12510786411477L262.4299119192932,235.6261851808177L246.57321589239086,236.12726249752058L238.22758640454757,236.39098740104842L230.71651986548864,236.62833981422352L214.85982383858632,237.1294171309264L199.00312781168407,237.63049444762933L183.1464317847818,238.13157176433228L167.28973575787953,238.6326490810352L151.43303973097724,239.1337263977381L135.576343704075,239.634803714441L119.7196476771727,240.13588103114395L103.8629516502704,240.6369583478469L88.00625562336806,241.13803566454976L88.00625562336806,257.42724921037967L103.8629516502704,259.4689783288804L119.7196476771727,261.51070744738115L135.576343704075,263.5524365658818L151.43303973097724,265.5941656843826L167.28973575787953,267.6358948028833L183.1464317847818,269.67762392138394L199.00312781168407,271.7193530398847L214.85982383858632,273.76108215838536L230.71651986548864,275.80281127688613L238.22758640454757,276.78690447459627L246.57321589239086,277.7858665395455L262.4299119192932,279.6838944629492L278.2866079461954,281.5819223863528L294.1433039730977,283.4799503097565L310,285.3779782331601" class="line" style="fill:none; stroke:black; stroke-width:2"/>
                <path id="area" d="M310,234.1229532307089L294.1433039730977,234.62403054741185L278.2866079461954,235.12510786411477L262.4299119192932,235.6261851808177L246.57321589239086,236.12726249752058L238.22758640454757,236.39098740104842L230.71651986548864,236.62833981422352L214.85982383858632,237.1294171309264L199.00312781168407,237.63049444762933L183.1464317847818,238.13157176433228L167.28973575787953,238.6326490810352L151.43303973097724,239.1337263977381L135.576343704075,239.634803714441L119.7196476771727,240.13588103114395L103.8629516502704,240.6369583478469L88.00625562336806,241.13803566454976L88.00625562336806,257.42724921037967L103.8629516502704,259.4689783288804L119.7196476771727,261.51070744738115L135.576343704075,263.5524365658818L151.43303973097724,265.5941656843826L167.28973575787953,267.6358948028833L183.1464317847818,269.67762392138394L199.00312781168407,271.7193530398847L214.85982383858632,273.76108215838536L230.71651986548864,275.80281127688613L238.22758640454757,276.78690447459627L246.57321589239086,277.7858665395455L262.4299119192932,279.6838944629492L278.2866079461954,281.5819223863528L294.1433039730977,283.4799503097565L310,285.3779782331601L310,72.85714285714288L294.1433039730977,72.85714285714288L278.2866079461954,72.85714285714288L262.4299119192932,72.85714285714288L246.57321589239086,72.85714285714288L238.22758640454757,72.85714285714288L230.71651986548864,72.85714285714288L214.85982383858632,72.85714285714288L199.00312781168407,72.85714285714288L183.1464317847818,72.85714285714288L167.28973575787953,72.85714285714288L151.43303973097724,72.85714285714288L135.576343704075,72.85714285714288L119.7196476771727,72.85714285714288L103.8629516502704,72.85714285714288L88.00625562336806,72.85714285714288L88.00625562336806,72.85714285714288L103.8629516502704,72.85714285714288L119.7196476771727,72.85714285714288L135.576343704075,72.85714285714288L151.43303973097724,72.85714285714288L167.28973575787953,72.85714285714288L183.1464317847818,72.85714285714288L199.00312781168407,72.85714285714288L214.85982383858632,72.85714285714288L230.71651986548864,72.85714285714288L238.22758640454757,72.85714285714288L246.57321589239086,72.85714285714288L262.4299119192932,72.85714285714288L278.2866079461954,72.85714285714288L294.1433039730977,72.85714285714288L310,72.85714285714288Z" class="area" style="fill:lightblue;" opacity="1"/>
            </g>
            <g id="xy" class="xy">
                <path id="line" d="M310,422.89145994705365L314.4762921798432,423.3435663673526L318.95258435968645,423.7956727876515L323.4288765395297,424.24777920795043L327.9051687193729,424.6998856282493L332.38146089921617,425.15199204854827L336.85775307905936,425.6040984688472L341.3340452589026,426.0562048891461L345.8103374387458,426.50831130944505L350.286629618589,426.960417729744L354.7629217984323,427.4125241500429L359.2392139782755,427.8646305703418L363.7155061581187,428.3167369906407L368.191798337962,428.76884341093967L372.6680905178052,429.22094983123856L372.6680905178052,446.3624431100665L368.191798337962,446.5879164948551L363.7155061581187,446.81338987964375L359.2392139782755,447.03886326443245L354.7629217984323,447.26433664922104L350.286629618589,447.48981003400974L345.8103374387458,447.7152834187984L341.3340452589026,447.940756803587L336.85775307905936,448.16623018837566L332.38146089921617,448.3917035731643L327.9051687193729,448.617176957953L323.4288765395297,448.84265034274165L318.95258435968645,449.0681237275303L314.4762921798432,449.29359711231893L310,449.51907049710763" class="line" style="fill:none; stroke:black; stroke-width:2"/>
                <path id="area" d="M310,422.89145994705365L314.4762921798432,423.3435663673526L318.95258435968645,423.7956727876515L323.4288765395297,424.24777920795043L327.9051687193729,424.6998856282493L332.38146089921617,425.15199204854827L336.85775307905936,425.6040984688472L341.3340452589026,426.0562048891461L345.8103374387458,426.50831130944505L350.286629618589,426.960417729744L354.7629217984323,427.4125241500429L359.2392139782755,427.8646305703418L363.7155061581187,428.3167369906407L368.191798337962,428.76884341093967L372.6680905178052,429.22094983123856L372.6680905178052,446.3624431100665L368.191798337962,446.5879164948551L363.7155061581187,446.81338987964375L359.2392139782755,447.03886326443245L354.7629217984323,447.26433664922104L350.286629618589,447.48981003400974L345.8103374387458,447.7152834187984L341.3340452589026,447.940756803587L336.85775307905936,448.16623018837566L332.38146089921617,448.3917035731643L327.9051687193729,448.617176957953L323.4288765395297,448.84265034274165L318.95258435968645,449.0681237275303L314.4762921798432,449.29359711231893L310,449.51907049710763L310,72.85714285714288L314.4762921798432,72.85714285714288L318.95258435968645,72.85714285714288L323.4288765395297,72.85714285714288L327.9051687193729,72.85714285714288L332.38146089921617,72.85714285714288L336.85775307905936,72.85714285714288L341.3340452589026,72.85714285714288L345.8103374387458,72.85714285714288L350.286629618589,72.85714285714288L354.7629217984323,72.85714285714288L359.2392139782755,72.85714285714288L363.7155061581187,72.85714285714288L368.191798337962,72.85714285714288L372.6680905178052,72.85714285714288L372.6680905178052,72.85714285714288L368.191798337962,72.85714285714288L363.7155061581187,72.85714285714288L359.2392139782755,72.85714285714288L354.7629217984323,72.85714285714288L350.286629618589,72.85714285714288L345.8103374387458,72.85714285714288L341.3340452589026,72.85714285714288L336.85775307905936,72.85714285714288L332.38146089921617,72.85714285714288L327.9051687193729,72.85714285714288L323.4288765395297,72.85714285714288L318.95258435968645,72.85714285714288L314.4762921798432,72.85714285714288L310,72.85714285714288Z" class="area" style="fill:blue;" opacity="1"/>
            </g>
            <g id="xy" class="xy">
                <path id="line" d="M310,422.89145994705365L305.5237078201568,423.3435663673526L301.0474156403135,423.7956727876515L296.57112346047035,424.24777920795043L292.0948312806271,424.6998856282493L287.61853910078383,425.15199204854827L283.14224692094064,425.6040984688472L278.66595474109744,426.0562048891461L274.1896625612542,426.50831130944505L269.713370381411,426.960417729744L265.2370782015677,427.4125241500429L260.7607860217245,427.8646305703418L256.28449384188133,428.3167369906407L251.80820166203804,428.76884341093967L247.33190948219485,429.22094983123856L247.33190948219485,446.3624431100665L251.80820166203804,446.5879164948551L256.28449384188133,446.81338987964375L260.7607860217245,447.03886326443245L265.2370782015677,447.26433664922104L269.713370381411,447.48981003400974L274.1896625612542,447.7152834187984L278.66595474109744,447.940756803587L283.14224692094064,448.16623018837566L287.61853910078383,448.3917035731643L292.0948312806271,448.617176957953L296.57112346047035,448.84265034274165L301.0474156403135,449.0681237275303L305.5237078201568,449.29359711231893L310,449.51907049710763" class="line" style="fill:none; stroke:black; stroke-width:2"/>
                <path id="area" d="M310,422.89145994705365L305.5237078201568,423.3435663673526L301.0474156403135,423.7956727876515L296.57112346047035,424.24777920795043L292.0948312806271,424.6998856282493L287.61853910078383,425.15199204854827L283.14224692094064,425.6040984688472L278.66595474109744,426.0562048891461L274.1896625612542,426.50831130944505L269.713370381411,426.960417729744L265.2370782015677,427.4125241500429L260.7607860217245,427.8646305703418L256.28449384188133,428.3167369906407L251.80820166203804,428.76884341093967L247.33190948219485,429.22094983123856L247.33190948219485,446.3624431100665L251.80820166203804,446.5879164948551L256.28449384188133,446.81338987964375L260.7607860217245,447.03886326443245L265.2370782015677,447.26433664922104L269.713370381411,447.48981003400974L274.1896625612542,447.7152834187984L278.66595474109744,447.940756803587L283.14224692094064,448.16623018837566L287.61853910078383,448.3917035731643L292.0948312806271,448.617176957953L296.57112346047035,448.84265034274165L301.0474156403135,449.0681237275303L305.5237078201568,449.29359711231893L310,449.51907049710763L310,72.85714285714288L305.5237078201568,72.85714285714288L301.0474156403135,72.85714285714288L296.57112346047035,72.85714285714288L292.0948312806271,72.85714285714288L287.61853910078383,72.85714285714288L283.14224692094064,72.85714285714288L278.66595474109744,72.85714285714288L274.1896625612542,72.85714285714288L269.713370381411,72.85714285714288L265.2370782015677,72.85714285714288L260.7607860217245,72.85714285714288L256.28449384188133,72.85714285714288L251.80820166203804,72.85714285714288L247.33190948219485,72.85714285714288L247.33190948219485,72.85714285714288L251.80820166203804,72.85714285714288L256.28449384188133,72.85714285714288L260.7607860217245,72.85714285714288L265.2370782015677,72.85714285714288L269.713370381411,72.85714285714288L274.1896625612542,72.85714285714288L278.66595474109744,72.85714285714288L283.14224692094064,72.85714285714288L287.61853910078383,72.85714285714288L292.0948312806271,72.85714285714288L296.57112346047035,72.85714285714288L301.0474156403135,72.85714285714288L305.5237078201568,72.85714285714288L310,72.85714285714288Z" class="area" style="fill:blue;" opacity="1"/>
            </g>
            <g id="xy" class="xy">
                <path id="line" d="M310,72.85714285714288L307.5906024859669,73.30410216351021L304.4288661777067,75.8664839459595L300.3692463611035,81.28968360494406L295.74177907230643,89.20308405586947L291.1471142667405,98.53648310187333L287.25149237276213,107.93650879136656L284.5817496059151,116.18304767565635L283.3203341533348,122.6056546245747L283.1003042412384,127.4999976632689L283.1003042412384,183.35714197331805L283.1003042412384,251.3571515173547L283.1003042412384,331.49999649013444L283.3203341533348,340.7791797964465L284.58174417084115,354.54541151471466L287.2514959961448,371.75727255894446L291.1471142667405,390.4034334996809L295.7417826956891,408.05972650525905L300.3692454552578,422.4485063258311L304.4288670835524,431.99603220915986L307.59060293888973,436.3910658703866L310,437.14284951271463" class="line" style="fill:none; stroke:black; stroke-width:2"/>
                <path id="area" d="M310,72.85714285714288L307.5906024859669,73.30410216351021L304.4288661777067,75.8664839459595L300.3692463611035,81.28968360494406L295.74177907230643,89.20308405586947L291.1471142667405,98.53648310187333L287.25149237276213,107.93650879136656L284.5817496059151,116.18304767565635L283.3203341533348,122.6056546245747L283.1003042412384,127.4999976632689L283.1003042412384,183.35714197331805L283.1003042412384,251.3571515173547L283.1003042412384,331.49999649013444L283.3203341533348,340.7791797964465L284.58174417084115,354.54541151471466L287.2514959961448,371.75727255894446L291.1471142667405,390.4034334996809L295.7417826956891,408.05972650525905L300.3692454552578,422.4485063258311L304.4288670835524,431.99603220915986L307.59060293888973,436.3910658703866L310,437.14284951271463L310,72.85714285714288L307.59060293888973,72.85714285714288L304.4288670835524,72.85714285714288L300.3692454552578,72.85714285714288L295.7417826956891,72.85714285714288L291.1471142667405,72.85714285714288L287.2514959961448,72.85714285714288L284.58174417084115,72.85714285714288L283.3203341533348,72.85714285714288L283.1003042412384,72.85714285714288L283.1003042412384,72.85714285714288L283.1003042412384,72.85714285714288L283.1003042412384,72.85714285714288L283.3203341533348,72.85714285714288L284.5817496059151,72.85714285714288L287.25149237276213,72.85714285714288L291.1471142667405,72.85714285714288L295.74177907230643,72.85714285714288L300.3692463611035,72.85714285714288L304.4288661777067,72.85714285714288L307.5906024859669,72.85714285714288L310,72.85714285714288Z" class="area" style="fill:white;" opacity="1"/>
            </g>
            <g id="xy" class="xy">
                <path id="line" d="M310,72.85714285714288L312.4093975140331,73.30410216351021L315.5711338222933,75.8664839459595L319.6307536388965,81.28968360494406L324.25822092769357,89.20308405586947L328.8528857332595,98.53648310187333L332.74850762723787,107.93650879136656L335.41825039408485,116.18304767565635L336.6796658466652,122.6056546245747L336.89969575876165,127.4999976632689L336.89969575876165,183.35714197331805L336.89969575876165,251.3571515173547L336.89969575876165,331.49999649013444L336.6796658466652,340.7791797964465L335.41825582915885,354.54541151471466L332.7485040038552,371.75727255894446L328.8528857332595,390.4034334996809L324.2582173043109,408.05972650525905L319.6307545447422,422.4485063258311L315.5711329164476,431.99603220915986L312.40939706111027,436.3910658703866L310,437.14284951271463" class="line" style="fill:none; stroke:black; stroke-width:2"/>
                <path id="area" d="M310,72.85714285714288L312.4093975140331,73.30410216351021L315.5711338222933,75.8664839459595L319.6307536388965,81.28968360494406L324.25822092769357,89.20308405586947L328.8528857332595,98.53648310187333L332.74850762723787,107.93650879136656L335.41825039408485,116.18304767565635L336.6796658466652,122.6056546245747L336.89969575876165,127.4999976632689L336.89969575876165,183.35714197331805L336.89969575876165,251.3571515173547L336.89969575876165,331.49999649013444L336.6796658466652,340.7791797964465L335.41825582915885,354.54541151471466L332.7485040038552,371.75727255894446L328.8528857332595,390.4034334996809L324.2582173043109,408.05972650525905L319.6307545447422,422.4485063258311L315.5711329164476,431.99603220915986L312.40939706111027,436.3910658703866L310,437.14284951271463L310,72.85714285714288L312.40939706111027,72.85714285714288L315.5711329164476,72.85714285714288L319.6307545447422,72.85714285714288L324.2582173043109,72.85714285714288L328.8528857332595,72.85714285714288L332.7485040038552,72.85714285714288L335.41825582915885,72.85714285714288L336.6796658466652,72.85714285714288L336.89969575876165,72.85714285714288L336.89969575876165,72.85714285714288L336.89969575876165,72.85714285714288L336.89969575876165,72.85714285714288L336.6796658466652,72.85714285714288L335.41825039408485,72.85714285714288L332.74850762723787,72.85714285714288L328.8528857332595,72.85714285714288L324.25822092769357,72.85714285714288L319.6307536388965,72.85714285714288L315.5711338222933,72.85714285714288L312.4093975140331,72.85714285714288L310,72.85714285714288Z" class="area" style="fill:white;" opacity="1"/>
            </g>
            <g id="xy" class="xy">
                <path id="line" d="M310.0817659574468,426.26679086184924L310.13874255319155,425.93156299637224L310.2370563829787,425.34683592018825L310.35016595744685,424.66420949602906L310.4748265957447,423.89927075203457L310.60649574468084,423.07726853858225L310.74102021276593,422.2212097362486L310.87586914893615,421.34694827434066L311.00954999999993,420.46329189136196L311.14141382978727,419.5748846676145L311.2711361702128,418.68396857289935L311.39852234042553,417.7916112118836L311.5235723404256,416.89845314736743L311.6462212765958,416.0047079002844L311.7665340425532,415.11058899156785L311.8844457446808,414.2162031816845L311.9999563829787,413.3216572311011L312.11306595744685,412.4269511398177L312.2237095744681,411.5322450485342L312.33188723404254,410.63753895725074L312.4375340425532,409.74299300666735L312.54052021276595,408.84855381655075L312.6409106382979,407.9543815276008L312.7385106382979,407.06052952005103L312.83332021276595,406.1669977939014L312.92520957446806,405.27399987008533L313.0140489361702,404.3814823683695L313.09970851063827,403.4896054294539L313.1821234042553,402.5983690533386L313.26109893617024,401.707986760957L313.3364404255319,400.81840517207576L313.40808297872337,399.92983780762825L313.4757670212766,399.04233804784786L313.5392978723404,398.155959272968L313.59854574468085,397.270915003922L313.6531861702128,396.38725862094327L313.7030244680851,395.5051502647318L313.74780106382974,394.6247500759879L313.78725638297874,393.74621819541136L313.82106595744676,392.86966138346907L313.84890531914897,391.99539992156093L313.87051489361704,391.123540570154L313.88550531914893,390.2544036106481L313.89348723404254,389.3882559442103L313.89407127659575,388.5254712324738L313.8867382978723,387.66636975683895L313.87116382978724,386.81148531963925L313.8466989361702,385.9612983429748L313.81295425531914,385.11650276987945L313.7692808510638,384.2779526840867L313.715029787234,383.44666231003043L313.6496819148937,382.62396615354453L313.5726531914894,381.8117859030298L313.483229787234,381.01247028875383L313.3810223404255,380.2295957863517L313.26596595744684,379.4677530958918L313.1382553191489,378.73340122561046L312.99912340425533,378.0346539709776L312.8506468085106,377.3808528728307L312.6958106382978,376.7809658103736L312.53837872340426,376.24150517207573L312.3816606382979,375.76471292773806L312.2283819148936,375.3486140087264L312.07990531914896,374.987710251005L311.93681489361705,374.6752757451712L311.7989159574468,374.40426430042163L311.66575425531914,374.16827028875383L311.5364861702128,373.9619556868321L311.4103329787234,373.78088993528786L311.2863861702128,373.6215499387195L311.1639319148937,373.4813200656927L311.04212659574466,373.35811848710665L310.9205159574468,373.2505573168939L310.7983861702128,373.157515570154L310.6754776595745,373.07856620502014L310.5517255319149,373.01338894009217L310.4273893617022,372.96193039513685L310.30305319148937,372.9240838096873L310.1796904255319,372.8996356628101L310.05898829787236,372.8879453917051L309.94101170212764,372.8879453917051L309.8203095744681,372.8996356628101L309.69694680851063,372.9240838096873L309.5726106382979,372.96193039513685L309.4482744680851,373.01338894009217L309.3245223404255,373.07856620502014L309.2016138297872,373.157515570154L309.0794840425532,373.2505573168939L308.95787340425534,373.35811848710665L308.8360680851064,373.4813200656927L308.7136138297872,373.6215499387195L308.58966702127657,373.78088993528786L308.46351382978725,373.9619556868321L308.3342457446809,374.16827028875383L308.20108404255325,374.40426430042163L308.06318510638295,374.6752757451712L307.92009468085104,374.9877636312384L307.77161808510635,375.3486140087264L307.6183393617021,375.7647663079714L307.46162127659574,376.24150517207573L307.30418936170213,376.7809658103736L307.14935319148935,377.3808528728307L307.00087659574467,378.0346539709776L306.861744680851,378.73340122561046L306.7340340425532,379.4677530958918L306.61897765957445,380.2295957863517L306.51677021276595,381.0125236689872L306.4273468085106,381.8117859030298L306.3503180851063,382.62401953377787L306.284970212766,383.44666231003043L306.23071914893615,384.2779526840867L306.18704574468086,385.11650276987945L306.1533010638298,385.9612983429748L306.12883617021276,386.81148531963925L306.11326170212766,387.6664231370723L306.10592872340425,388.5254712324738L306.10651276595746,389.3883093244436L306.114494680851,390.2544036106481L306.12948510638296,391.123540570154L306.1510946808511,391.99539992156093L306.1789340425532,392.86971476370235L306.2127436170213,393.74621819541136L306.25219893617026,394.6247500759879L306.29697553191494,395.5052036449652L306.3468138297872,396.38725862094327L306.40145425531915,397.270915003922L306.4607021276596,398.1560126532013L306.5242329787234,399.04233804784786L306.5919170212766,399.92983780762825L306.6635595744681,400.8184585523091L306.7389010638298,401.707986760957L306.8178765957447,402.598422433572L306.90029148936173,403.4896054294539L306.9859510638298,404.3814823683695L307.07479042553194,405.27399987008533L307.16667978723405,406.16705117413477L307.2614893617021,407.06052952005103L307.3590893617021,407.9543815276008L307.45947978723405,408.84855381655075L307.5624659574468,409.74299300666735L307.66811276595746,410.63759233748414L307.7762904255319,411.5322450485342L307.88693404255315,412.4269511398177L308.0000436170213,413.3216572311011L308.1155542553192,414.2162031816845L308.2334659574468,415.11058899156785L308.3537787234042,416.0047079002844L308.4764276595744,416.89845314736743L308.60147765957447,417.7916112118836L308.7288638297872,418.68396857289935L308.8585861702128,419.5748846676145L308.99045,420.46329189136196L309.12413085106385,421.34694827434066L309.258979787234,422.221263116482L309.39350425531916,423.07726853858225L309.5251734042553,423.8993241322679L309.6498340425532,424.66420949602906L309.7629436170212,425.34683592018825L309.8612574468085,425.93156299637224L309.9182340425532,426.26679086184924" class="line" style="fill:none; stroke:black; stroke-width:2"/>
                <path id="area" d="M310.0817659574468,426.26679086184924L310.13874255319155,425.93156299637224L310.2370563829787,425.34683592018825L310.35016595744685,424.66420949602906L310.4748265957447,423.89927075203457L310.60649574468084,423.07726853858225L310.74102021276593,422.2212097362486L310.87586914893615,421.34694827434066L311.00954999999993,420.46329189136196L311.14141382978727,419.5748846676145L311.2711361702128,418.68396857289935L311.39852234042553,417.7916112118836L311.5235723404256,416.89845314736743L311.6462212765958,416.0047079002844L311.7665340425532,415.11058899156785L311.8844457446808,414.2162031816845L311.9999563829787,413.3216572311011L312.11306595744685,412.4269511398177L312.2237095744681,411.5322450485342L312.33188723404254,410.63753895725074L312.4375340425532,409.74299300666735L312.54052021276595,408.84855381655075L312.6409106382979,407.9543815276008L312.7385106382979,407.06052952005103L312.83332021276595,406.1669977939014L312.92520957446806,405.27399987008533L313.0140489361702,404.3814823683695L313.09970851063827,403.4896054294539L313.1821234042553,402.5983690533386L313.26109893617024,401.707986760957L313.3364404255319,400.81840517207576L313.40808297872337,399.92983780762825L313.4757670212766,399.04233804784786L313.5392978723404,398.155959272968L313.59854574468085,397.270915003922L313.6531861702128,396.38725862094327L313.7030244680851,395.5051502647318L313.74780106382974,394.6247500759879L313.78725638297874,393.74621819541136L313.82106595744676,392.86966138346907L313.84890531914897,391.99539992156093L313.87051489361704,391.123540570154L313.88550531914893,390.2544036106481L313.89348723404254,389.3882559442103L313.89407127659575,388.5254712324738L313.8867382978723,387.66636975683895L313.87116382978724,386.81148531963925L313.8466989361702,385.9612983429748L313.81295425531914,385.11650276987945L313.7692808510638,384.2779526840867L313.715029787234,383.44666231003043L313.6496819148937,382.62396615354453L313.5726531914894,381.8117859030298L313.483229787234,381.01247028875383L313.3810223404255,380.2295957863517L313.26596595744684,379.4677530958918L313.1382553191489,378.73340122561046L312.99912340425533,378.0346539709776L312.8506468085106,377.3808528728307L312.6958106382978,376.7809658103736L312.53837872340426,376.24150517207573L312.3816606382979,375.76471292773806L312.2283819148936,375.3486140087264L312.07990531914896,374.987710251005L311.93681489361705,374.6752757451712L311.7989159574468,374.40426430042163L311.66575425531914,374.16827028875383L311.5364861702128,373.9619556868321L311.4103329787234,373.78088993528786L311.2863861702128,373.6215499387195L311.1639319148937,373.4813200656927L311.04212659574466,373.35811848710665L310.9205159574468,373.2505573168939L310.7983861702128,373.157515570154L310.6754776595745,373.07856620502014L310.5517255319149,373.01338894009217L310.4273893617022,372.96193039513685L310.30305319148937,372.9240838096873L310.1796904255319,372.8996356628101L310.05898829787236,372.8879453917051L309.94101170212764,372.8879453917051L309.8203095744681,372.8996356628101L309.69694680851063,372.9240838096873L309.5726106382979,372.96193039513685L309.4482744680851,373.01338894009217L309.3245223404255,373.07856620502014L309.2016138297872,373.157515570154L309.0794840425532,373.2505573168939L308.95787340425534,373.35811848710665L308.8360680851064,373.4813200656927L308.7136138297872,373.6215499387195L308.58966702127657,373.78088993528786L308.46351382978725,373.9619556868321L308.3342457446809,374.16827028875383L308.20108404255325,374.40426430042163L308.06318510638295,374.6752757451712L307.92009468085104,374.9877636312384L307.77161808510635,375.3486140087264L307.6183393617021,375.7647663079714L307.46162127659574,376.24150517207573L307.30418936170213,376.7809658103736L307.14935319148935,377.3808528728307L307.00087659574467,378.0346539709776L306.861744680851,378.73340122561046L306.7340340425532,379.4677530958918L306.61897765957445,380.2295957863517L306.51677021276595,381.0125236689872L306.4273468085106,381.8117859030298L306.3503180851063,382.62401953377787L306.284970212766,383.44666231003043L306.23071914893615,384.2779526840867L306.18704574468086,385.11650276987945L306.1533010638298,385.9612983429748L306.12883617021276,386.81148531963925L306.11326170212766,387.6664231370723L306.10592872340425,388.5254712324738L306.10651276595746,389.3883093244436L306.114494680851,390.2544036106481L306.12948510638296,391.123540570154L306.1510946808511,391.99539992156093L306.1789340425532,392.86971476370235L306.2127436170213,393.74621819541136L306.25219893617026,394.6247500759879L306.29697553191494,395.5052036449652L306.3468138297872,396.38725862094327L306.40145425531915,397.270915003922L306.4607021276596,398.1560126532013L306.5242329787234,399.04233804784786L306.5919170212766,399.92983780762825L306.6635595744681,400.8184585523091L306.7389010638298,401.707986760957L306.8178765957447,402.598422433572L306.90029148936173,403.4896054294539L306.9859510638298,404.3814823683695L307.07479042553194,405.27399987008533L307.16667978723405,406.16705117413477L307.2614893617021,407.06052952005103L307.3590893617021,407.9543815276008L307.45947978723405,408.84855381655075L307.5624659574468,409.74299300666735L307.66811276595746,410.63759233748414L307.7762904255319,411.5322450485342L307.88693404255315,412.4269511398177L308.0000436170213,413.3216572311011L308.1155542553192,414.2162031816845L308.2334659574468,415.11058899156785L308.3537787234042,416.0047079002844L308.4764276595744,416.89845314736743L308.60147765957447,417.7916112118836L308.7288638297872,418.68396857289935L308.8585861702128,419.5748846676145L308.99045,420.46329189136196L309.12413085106385,421.34694827434066L309.258979787234,422.221263116482L309.39350425531916,423.07726853858225L309.5251734042553,423.8993241322679L309.6498340425532,424.66420949602906L309.7629436170212,425.34683592018825L309.8612574468085,425.93156299637224L309.9182340425532,426.26679086184924L309.9182340425532,72.85714285714288L309.8612574468085,72.85714285714288L309.7629436170212,72.85714285714288L309.6498340425532,72.85714285714288L309.5251734042553,72.85714285714288L309.39350425531916,72.85714285714288L309.258979787234,72.85714285714288L309.12413085106385,72.85714285714288L308.99045,72.85714285714288L308.8585861702128,72.85714285714288L308.7288638297872,72.85714285714288L308.60147765957447,72.85714285714288L308.4764276595744,72.85714285714288L308.3537787234042,72.85714285714288L308.2334659574468,72.85714285714288L308.1155542553192,72.85714285714288L308.0000436170213,72.85714285714288L307.88693404255315,72.85714285714288L307.7762904255319,72.85714285714288L307.66811276595746,72.85714285714288L307.5624659574468,72.85714285714288L307.45947978723405,72.85714285714288L307.3590893617021,72.85714285714288L307.2614893617021,72.85714285714288L307.16667978723405,72.85714285714288L307.07479042553194,72.85714285714288L306.9859510638298,72.85714285714288L306.90029148936173,72.85714285714288L306.8178765957447,72.85714285714288L306.7389010638298,72.85714285714288L306.6635595744681,72.85714285714288L306.5919170212766,72.85714285714288L306.5242329787234,72.85714285714288L306.4607021276596,72.85714285714288L306.40145425531915,72.85714285714288L306.3468138297872,72.85714285714288L306.29697553191494,72.85714285714288L306.25219893617026,72.85714285714288L306.2127436170213,72.85714285714288L306.1789340425532,72.85714285714288L306.1510946808511,72.85714285714288L306.12948510638296,72.85714285714288L306.114494680851,72.85714285714288L306.10651276595746,72.85714285714288L306.10592872340425,72.85714285714288L306.11326170212766,72.85714285714288L306.12883617021276,72.85714285714288L306.1533010638298,72.85714285714288L306.18704574468086,72.85714285714288L306.23071914893615,72.85714285714288L306.284970212766,72.85714285714288L306.3503180851063,72.85714285714288L306.4273468085106,72.85714285714288L306.51677021276595,72.85714285714288L306.61897765957445,72.85714285714288L306.7340340425532,72.85714285714288L306.861744680851,72.85714285714288L307.00087659574467,72.85714285714288L307.14935319148935,72.85714285714288L307.30418936170213,72.85714285714288L307.46162127659574,72.85714285714288L307.6183393617021,72.85714285714288L307.77161808510635,72.85714285714288L307.92009468085104,72.85714285714288L308.06318510638295,72.85714285714288L308.20108404255325,72.85714285714288L308.3342457446809,72.85714285714288L308.46351382978725,72.85714285714288L308.58966702127657,72.85714285714288L308.7136138297872,72.85714285714288L308.8360680851064,72.85714285714288L308.95787340425534,72.85714285714288L309.0794840425532,72.85714285714288L309.2016138297872,72.85714285714288L309.3245223404255,72.85714285714288L309.4482744680851,72.85714285714288L309.5726106382979,72.85714285714288L309.69694680851063,72.85714285714288L309.8203095744681,72.85714285714288L309.94101170212764,72.85714285714288L310.05898829787236,72.85714285714288L310.1796904255319,72.85714285714288L310.30305319148937,72.85714285714288L310.4273893617022,72.85714285714288L310.5517255319149,72.85714285714288L310.6754776595745,72.85714285714288L310.7983861702128,72.85714285714288L310.9205159574468,72.85714285714288L311.04212659574466,72.85714285714288L311.1639319148937,72.85714285714288L311.2863861702128,72.85714285714288L311.4103329787234,72.85714285714288L311.5364861702128,72.85714285714288L311.66575425531914,72.85714285714288L311.7989159574468,72.85714285714288L311.93681489361705,72.85714285714288L312.07990531914896,72.85714285714288L312.2283819148936,72.85714285714288L312.3816606382979,72.85714285714288L312.53837872340426,72.85714285714288L312.6958106382978,72.85714285714288L312.8506468085106,72.85714285714288L312.99912340425533,72.85714285714288L313.1382553191489,72.85714285714288L313.26596595744684,72.85714285714288L313.3810223404255,72.85714285714288L313.483229787234,72.85714285714288L313.5726531914894,72.85714285714288L313.6496819148937,72.85714285714288L313.715029787234,72.85714285714288L313.7692808510638,72.85714285714288L313.81295425531914,72.85714285714288L313.8466989361702,72.85714285714288L313.87116382978724,72.85714285714288L313.8867382978723,72.85714285714288L313.89407127659575,72.85714285714288L313.89348723404254,72.85714285714288L313.88550531914893,72.85714285714288L313.87051489361704,72.85714285714288L313.84890531914897,72.85714285714288L313.82106595744676,72.85714285714288L313.78725638297874,72.85714285714288L313.74780106382974,72.85714285714288L313.7030244680851,72.85714285714288L313.6531861702128,72.85714285714288L313.59854574468085,72.85714285714288L313.5392978723404,72.85714285714288L313.4757670212766,72.85714285714288L313.40808297872337,72.85714285714288L313.3364404255319,72.85714285714288L313.26109893617024,72.85714285714288L313.1821234042553,72.85714285714288L313.09970851063827,72.85714285714288L313.0140489361702,72.85714285714288L312.92520957446806,72.85714285714288L312.83332021276595,72.85714285714288L312.7385106382979,72.85714285714288L312.6409106382979,72.85714285714288L312.54052021276595,72.85714285714288L312.4375340425532,72.85714285714288L312.33188723404254,72.85714285714288L312.2237095744681,72.85714285714288L312.11306595744685,72.85714285714288L311.9999563829787,72.85714285714288L311.8844457446808,72.85714285714288L311.7665340425532,72.85714285714288L311.6462212765958,72.85714285714288L311.5235723404256,72.85714285714288L311.39852234042553,72.85714285714288L311.2711361702128,72.85714285714288L311.14141382978727,72.85714285714288L311.00954999999993,72.85714285714288L310.87586914893615,72.85714285714288L310.74102021276593,72.85714285714288L310.60649574468084,72.85714285714288L310.4748265957447,72.85714285714288L310.35016595744685,72.85714285714288L310.2370563829787,72.85714285714288L310.13874255319155,72.85714285714288L310.0817659574468,72.85714285714288Z" class="area" style="fill:yellow;" opacity="1"/>
            </g>
            <g id="xy" class="xy">
                <path id="line" d="M310.04710638297865,453.0872077843142L310.07993130699083,452.89407885010496L310.13657112462005,452.55721032377886L310.20173495440736,452.16394076794006L310.27355349544075,451.723250062969L310.34940972644375,451.24968438496137L310.4269109422492,450.75649828338277L310.50459908814594,450.25282540368863L310.5816142857143,449.7437399933543L310.6575826747721,449.23191756468486L310.7323173252279,448.7186497443103L310.8057060790274,448.2045515925307L310.8777489361702,447.6899921455261L310.94840851063833,447.17509441535645L311.01772218844985,446.6599814140818L311.08565258358664,446.14471464773214L311.1521996960486,445.6293556223376L311.2173635258359,445.1139043378979L311.28110668693006,444.5984530534583L311.3434291793313,444.08300176901855L311.40429361702127,443.567642743624L311.4636252279636,443.0523452242593L311.52146139817626,442.53720146996966L311.5776899696049,442.02224223377004L311.6323109422492,441.50746751566044L311.685249544073,440.9930003277008L311.7364310030395,440.47880991687623L311.78578054711244,439.96498854223165L311.8332607902736,439.45153620376715L311.87875957446806,438.9385759135426L311.9221647416413,438.42607691854306L311.96343890577504,437.91416223082854L312.00243252279637,437.4028626034141L312.03903343465043,436.89220878931474L312.07316686930096,436.3823238005903L312.1046458966565,435.87323839025595L312.13335835866263,435.36504481735665L312.1591547112461,434.8578353409374L312.18188541033436,434.3517022200432L312.20136352583586,433.84670696070407L312.21740212765957,433.34303408101L312.22985167173255,432.8407450869909L312.23848784194524,432.340024496737L312.24308632218845,431.8410260753231L312.2434227963526,431.34396509385437L312.23919817629184,430.84902607042073L312.2302255319149,430.35651653517215L312.21613100303955,429.8667132652437L312.19669027355627,429.38001604983043L312.17152948328265,428.89691693717236L312.1402747720365,428.4180002345545L312.10262705167173,427.9440347673518L312.05824984802433,427.4761276441044L312.00673191489363,427.0156319974724L311.94784893617026,426.56460827946086L311.8815635258359,426.12570124935985L311.8079878419453,425.7026320219846L311.727832218845,425.30007505561537L311.64229300911853,424.92341212787727L311.55308996960486,424.5778097452908L311.46239148936166,424.26701977568587L311.37210425531913,423.99233384569277L311.28379848024315,423.75261409375634L311.19825927051676,423.5446929593314L311.1158231003039,423.3646955625278L311.03637781155015,423.2085625053653L310.9596617021277,423.07260342604377L310.8851887537994,422.95374302306317L310.81251033434654,422.84942879617813L310.7411030395137,422.75763104639867L310.67055562310037,422.6768428759899L310.6003820668693,422.60586491736643L310.53032066869304,422.5438975921385L310.4599601823708,422.49029508699095L310.3891510638298,422.4448113778038L310.31785592705165,422.407261946487L310.24622431610936,422.37761604002554L310.1745927051672,422.3558121523895L310.10352188449843,422.34172727151883L310.0339838905775,422.3349923612335L309.96601610942247,422.3349923612335L309.8964781155015,422.34172727151883L309.82540729483287,422.3558121523895L309.7537756838906,422.37761604002554L309.68214407294835,422.407261946487L309.6108489361702,422.4448113778038L309.5400398176292,422.49029508699095L309.469679331307,422.5438975921385L309.3996179331307,422.60586491736643L309.32944437689963,422.6768428759899L309.2588969604863,422.75763104639867L309.1874896656535,422.84942879617813L309.1148112462006,422.95374302306317L309.0403382978723,423.07260342604377L308.96362218844985,423.2085625053653L308.88417689969606,423.3646955625278L308.8017407294833,423.54472371234635L308.71620151975685,423.75261409375634L308.62789574468087,423.99236459870775L308.53760851063834,424.26701977568587L308.4469100303951,424.5778097452908L308.35770699088147,424.92341212787727L308.27216778115496,425.30007505561537L308.19201215805475,425.7026320219846L308.1184364741641,426.12570124935985L308.05215106382974,426.56460827946086L307.99326808510637,427.01566275048737L307.9417501519757,427.4761276441044L307.8973729483282,427.94406552036673L307.8597252279635,428.4180002345545L307.8284705167173,428.89691693717236L307.8033097264438,429.38001604983043L307.78386899696045,429.8667132652437L307.7697744680851,430.35651653517215L307.7608018237082,430.8490568234357L307.7565772036474,431.34396509385437L307.75691367781155,431.84105682833814L307.76151215805476,432.340024496737L307.77014832826745,432.8407450869909L307.78259787234043,433.34303408101L307.79863647416414,433.846737713719L307.81811458966564,434.3517022200432L307.8408452887538,434.8578353409374L307.86664164133737,435.3650755703717L307.89535410334344,435.87323839025595L307.92683313069904,436.3823238005903L307.96096656534957,436.89223954232966L307.99756747720363,437.4028626034141L308.0365610942249,437.91416223082854L308.0778352583587,438.42610767155804L308.1212404255319,438.9385759135426L308.1667392097264,439.4515669567821L308.2142194528875,439.96498854223165L308.2635689969605,440.47880991687623L308.314750455927,440.9930003277008L308.3676890577508,441.5074982686754L308.4223100303951,442.02224223377004L308.47853860182374,442.53720146996966L308.5363747720365,443.0523452242593L308.59570638297873,443.567642743624L308.6565708206687,444.0830325220336L308.71889331306994,444.5984530534583L308.7826364741641,445.1139043378979L308.8478003039514,445.6293556223376L308.91434741641336,446.14471464773214L308.98227781155015,446.6599814140818L309.0515914893617,447.17509441535645L309.1222510638298,447.6899921455261L309.1942939209726,448.2045515925307L309.26768267477206,448.7186497443103L309.3424173252279,449.23191756468486L309.4183857142857,449.7437399933543L309.4954009118541,450.25282540368863L309.5730890577508,450.75652903639775L309.65059027355625,451.24968438496137L309.72644650455925,451.72328081598397L309.7982650455927,452.16394076794006L309.86342887537995,452.55721032377886L309.9200686930091,452.89407885010496L309.9528936170213,453.0872077843142" class="line" style="fill:none; stroke:black; stroke-width:2"/>
                <path id="area" d="M310.04710638297865,453.0872077843142L310.07993130699083,452.89407885010496L310.13657112462005,452.55721032377886L310.20173495440736,452.16394076794006L310.27355349544075,451.723250062969L310.34940972644375,451.24968438496137L310.4269109422492,450.75649828338277L310.50459908814594,450.25282540368863L310.5816142857143,449.7437399933543L310.6575826747721,449.23191756468486L310.7323173252279,448.7186497443103L310.8057060790274,448.2045515925307L310.8777489361702,447.6899921455261L310.94840851063833,447.17509441535645L311.01772218844985,446.6599814140818L311.08565258358664,446.14471464773214L311.1521996960486,445.6293556223376L311.2173635258359,445.1139043378979L311.28110668693006,444.5984530534583L311.3434291793313,444.08300176901855L311.40429361702127,443.567642743624L311.4636252279636,443.0523452242593L311.52146139817626,442.53720146996966L311.5776899696049,442.02224223377004L311.6323109422492,441.50746751566044L311.685249544073,440.9930003277008L311.7364310030395,440.47880991687623L311.78578054711244,439.96498854223165L311.8332607902736,439.45153620376715L311.87875957446806,438.9385759135426L311.9221647416413,438.42607691854306L311.96343890577504,437.91416223082854L312.00243252279637,437.4028626034141L312.03903343465043,436.89220878931474L312.07316686930096,436.3823238005903L312.1046458966565,435.87323839025595L312.13335835866263,435.36504481735665L312.1591547112461,434.8578353409374L312.18188541033436,434.3517022200432L312.20136352583586,433.84670696070407L312.21740212765957,433.34303408101L312.22985167173255,432.8407450869909L312.23848784194524,432.340024496737L312.24308632218845,431.8410260753231L312.2434227963526,431.34396509385437L312.23919817629184,430.84902607042073L312.2302255319149,430.35651653517215L312.21613100303955,429.8667132652437L312.19669027355627,429.38001604983043L312.17152948328265,428.89691693717236L312.1402747720365,428.4180002345545L312.10262705167173,427.9440347673518L312.05824984802433,427.4761276441044L312.00673191489363,427.0156319974724L311.94784893617026,426.56460827946086L311.8815635258359,426.12570124935985L311.8079878419453,425.7026320219846L311.727832218845,425.30007505561537L311.64229300911853,424.92341212787727L311.55308996960486,424.5778097452908L311.46239148936166,424.26701977568587L311.37210425531913,423.99233384569277L311.28379848024315,423.75261409375634L311.19825927051676,423.5446929593314L311.1158231003039,423.3646955625278L311.03637781155015,423.2085625053653L310.9596617021277,423.07260342604377L310.8851887537994,422.95374302306317L310.81251033434654,422.84942879617813L310.7411030395137,422.75763104639867L310.67055562310037,422.6768428759899L310.6003820668693,422.60586491736643L310.53032066869304,422.5438975921385L310.4599601823708,422.49029508699095L310.3891510638298,422.4448113778038L310.31785592705165,422.407261946487L310.24622431610936,422.37761604002554L310.1745927051672,422.3558121523895L310.10352188449843,422.34172727151883L310.0339838905775,422.3349923612335L309.96601610942247,422.3349923612335L309.8964781155015,422.34172727151883L309.82540729483287,422.3558121523895L309.7537756838906,422.37761604002554L309.68214407294835,422.407261946487L309.6108489361702,422.4448113778038L309.5400398176292,422.49029508699095L309.469679331307,422.5438975921385L309.3996179331307,422.60586491736643L309.32944437689963,422.6768428759899L309.2588969604863,422.75763104639867L309.1874896656535,422.84942879617813L309.1148112462006,422.95374302306317L309.0403382978723,423.07260342604377L308.96362218844985,423.2085625053653L308.88417689969606,423.3646955625278L308.8017407294833,423.54472371234635L308.71620151975685,423.75261409375634L308.62789574468087,423.99236459870775L308.53760851063834,424.26701977568587L308.4469100303951,424.5778097452908L308.35770699088147,424.92341212787727L308.27216778115496,425.30007505561537L308.19201215805475,425.7026320219846L308.1184364741641,426.12570124935985L308.05215106382974,426.56460827946086L307.99326808510637,427.01566275048737L307.9417501519757,427.4761276441044L307.8973729483282,427.94406552036673L307.8597252279635,428.4180002345545L307.8284705167173,428.89691693717236L307.8033097264438,429.38001604983043L307.78386899696045,429.8667132652437L307.7697744680851,430.35651653517215L307.7608018237082,430.8490568234357L307.7565772036474,431.34396509385437L307.75691367781155,431.84105682833814L307.76151215805476,432.340024496737L307.77014832826745,432.8407450869909L307.78259787234043,433.34303408101L307.79863647416414,433.846737713719L307.81811458966564,434.3517022200432L307.8408452887538,434.8578353409374L307.86664164133737,435.3650755703717L307.89535410334344,435.87323839025595L307.92683313069904,436.3823238005903L307.96096656534957,436.89223954232966L307.99756747720363,437.4028626034141L308.0365610942249,437.91416223082854L308.0778352583587,438.42610767155804L308.1212404255319,438.9385759135426L308.1667392097264,439.4515669567821L308.2142194528875,439.96498854223165L308.2635689969605,440.47880991687623L308.314750455927,440.9930003277008L308.3676890577508,441.5074982686754L308.4223100303951,442.02224223377004L308.47853860182374,442.53720146996966L308.5363747720365,443.0523452242593L308.59570638297873,443.567642743624L308.6565708206687,444.0830325220336L308.71889331306994,444.5984530534583L308.7826364741641,445.1139043378979L308.8478003039514,445.6293556223376L308.91434741641336,446.14471464773214L308.98227781155015,446.6599814140818L309.0515914893617,447.17509441535645L309.1222510638298,447.6899921455261L309.1942939209726,448.2045515925307L309.26768267477206,448.7186497443103L309.3424173252279,449.23191756468486L309.4183857142857,449.7437399933543L309.4954009118541,450.25282540368863L309.5730890577508,450.75652903639775L309.65059027355625,451.24968438496137L309.72644650455925,451.72328081598397L309.7982650455927,452.16394076794006L309.86342887537995,452.55721032377886L309.9200686930091,452.89407885010496L309.9528936170213,453.0872077843142L309.9528936170213,72.85714285714288L309.9200686930091,72.85714285714288L309.86342887537995,72.85714285714288L309.7982650455927,72.85714285714288L309.72644650455925,72.85714285714288L309.65059027355625,72.85714285714288L309.5730890577508,72.85714285714288L309.4954009118541,72.85714285714288L309.4183857142857,72.85714285714288L309.3424173252279,72.85714285714288L309.26768267477206,72.85714285714288L309.1942939209726,72.85714285714288L309.1222510638298,72.85714285714288L309.0515914893617,72.85714285714288L308.98227781155015,72.85714285714288L308.91434741641336,72.85714285714288L308.8478003039514,72.85714285714288L308.7826364741641,72.85714285714288L308.71889331306994,72.85714285714288L308.6565708206687,72.85714285714288L308.59570638297873,72.85714285714288L308.5363747720365,72.85714285714288L308.47853860182374,72.85714285714288L308.4223100303951,72.85714285714288L308.3676890577508,72.85714285714288L308.314750455927,72.85714285714288L308.2635689969605,72.85714285714288L308.2142194528875,72.85714285714288L308.1667392097264,72.85714285714288L308.1212404255319,72.85714285714288L308.0778352583587,72.85714285714288L308.0365610942249,72.85714285714288L307.99756747720363,72.85714285714288L307.96096656534957,72.85714285714288L307.92683313069904,72.85714285714288L307.89535410334344,72.85714285714288L307.86664164133737,72.85714285714288L307.8408452887538,72.85714285714288L307.81811458966564,72.85714285714288L307.79863647416414,72.85714285714288L307.78259787234043,72.85714285714288L307.77014832826745,72.85714285714288L307.76151215805476,72.85714285714288L307.75691367781155,72.85714285714288L307.7565772036474,72.85714285714288L307.7608018237082,72.85714285714288L307.7697744680851,72.85714285714288L307.78386899696045,72.85714285714288L307.8033097264438,72.85714285714288L307.8284705167173,72.85714285714288L307.8597252279635,72.85714285714288L307.8973729483282,72.85714285714288L307.9417501519757,72.85714285714288L307.99326808510637,72.85714285714288L308.05215106382974,72.85714285714288L308.1184364741641,72.85714285714288L308.19201215805475,72.85714285714288L308.27216778115496,72.85714285714288L308.35770699088147,72.85714285714288L308.4469100303951,72.85714285714288L308.53760851063834,72.85714285714288L308.62789574468087,72.85714285714288L308.71620151975685,72.85714285714288L308.8017407294833,72.85714285714288L308.88417689969606,72.85714285714288L308.96362218844985,72.85714285714288L309.0403382978723,72.85714285714288L309.1148112462006,72.85714285714288L309.1874896656535,72.85714285714288L309.2588969604863,72.85714285714288L309.32944437689963,72.85714285714288L309.3996179331307,72.85714285714288L309.469679331307,72.85714285714288L309.5400398176292,72.85714285714288L309.6108489361702,72.85714285714288L309.68214407294835,72.85714285714288L309.7537756838906,72.85714285714288L309.82540729483287,72.85714285714288L309.8964781155015,72.85714285714288L309.96601610942247,72.85714285714288L310.0339838905775,72.85714285714288L310.10352188449843,72.85714285714288L310.1745927051672,72.85714285714288L310.24622431610936,72.85714285714288L310.31785592705165,72.85714285714288L310.3891510638298,72.85714285714288L310.4599601823708,72.85714285714288L310.53032066869304,72.85714285714288L310.6003820668693,72.85714285714288L310.67055562310037,72.85714285714288L310.7411030395137,72.85714285714288L310.81251033434654,72.85714285714288L310.8851887537994,72.85714285714288L310.9596617021277,72.85714285714288L311.03637781155015,72.85714285714288L311.1158231003039,72.85714285714288L311.19825927051676,72.85714285714288L311.28379848024315,72.85714285714288L311.37210425531913,72.85714285714288L311.46239148936166,72.85714285714288L311.55308996960486,72.85714285714288L311.64229300911853,72.85714285714288L311.727832218845,72.85714285714288L311.8079878419453,72.85714285714288L311.8815635258359,72.85714285714288L311.94784893617026,72.85714285714288L312.00673191489363,72.85714285714288L312.05824984802433,72.85714285714288L312.10262705167173,72.85714285714288L312.1402747720365,72.85714285714288L312.17152948328265,72.85714285714288L312.19669027355627,72.85714285714288L312.21613100303955,72.85714285714288L312.2302255319149,72.85714285714288L312.23919817629184,72.85714285714288L312.2434227963526,72.85714285714288L312.24308632218845,72.85714285714288L312.23848784194524,72.85714285714288L312.22985167173255,72.85714285714288L312.21740212765957,72.85714285714288L312.20136352583586,72.85714285714288L312.18188541033436,72.85714285714288L312.1591547112461,72.85714285714288L312.13335835866263,72.85714285714288L312.1046458966565,72.85714285714288L312.07316686930096,72.85714285714288L312.03903343465043,72.85714285714288L312.00243252279637,72.85714285714288L311.96343890577504,72.85714285714288L311.9221647416413,72.85714285714288L311.87875957446806,72.85714285714288L311.8332607902736,72.85714285714288L311.78578054711244,72.85714285714288L311.7364310030395,72.85714285714288L311.685249544073,72.85714285714288L311.6323109422492,72.85714285714288L311.5776899696049,72.85714285714288L311.52146139817626,72.85714285714288L311.4636252279636,72.85714285714288L311.40429361702127,72.85714285714288L311.3434291793313,72.85714285714288L311.28110668693006,72.85714285714288L311.2173635258359,72.85714285714288L311.1521996960486,72.85714285714288L311.08565258358664,72.85714285714288L311.01772218844985,72.85714285714288L310.94840851063833,72.85714285714288L310.8777489361702,72.85714285714288L310.8057060790274,72.85714285714288L310.7323173252279,72.85714285714288L310.6575826747721,72.85714285714288L310.5816142857143,72.85714285714288L310.50459908814594,72.85714285714288L310.4269109422492,72.85714285714288L310.34940972644375,72.85714285714288L310.27355349544075,72.85714285714288L310.20173495440736,72.85714285714288L310.13657112462005,72.85714285714288L310.07993130699083,72.85714285714288L310.04710638297865,72.85714285714288Z" class="area" style="fill:yellow;" opacity="1"/>
            </g>
            <g id="xy" class="xy">
                <path id="line" d="M413.90683890577503,204.12001176585943L414.1958537409638,207.73878760043553L414.4697334631445,211.3575634350117L414.7133429593094,214.9763392695878L414.9115471164503,218.59511510416397L415.04921082155937,222.21389093874012L415.11119896162876,225.8326667733163L415.0823764236503,229.4514426078924L414.947877163292,233.07021844246856L414.70329518098896,236.6889942770447L414.3578124452996,240.30777011162087L413.9215190315625,243.92654594619705L413.40450501511634,247.54532178077315L412.81686047129966,251.1640976153493L412.16867547545115,254.78287344992546L411.4700401029095,258.4016492845016L410.73104442901325,262.02042511907774L409.961778529101,265.6392009536538L409.1723324785117,269.25797678823005L408.3727963525836,272.8767526228062L406.15607902735564,272.8767526228062L405.3565429014276,269.25797678823005L404.56709685083814,265.6392009536538L403.79783095092597,262.02042511907774L403.05883527702974,258.4016492845016L402.360199904488,254.78287344992546L401.7120149086396,251.1640976153493L401.12437036482294,247.54532178077315L400.6073563483767,243.92654594619705L400.1710629346396,240.30777011162087L399.82558019895026,236.6889942770447L399.58099821664734,233.07021844246856L399.44649895628885,229.4514426078924L399.41767641831046,225.8326667733163L399.4796645583798,222.21389093874012L399.61732826348896,218.59511510416397L399.81553242062984,214.9763392695878L400.0591419167948,211.3575634350117L400.3330216389754,207.73878760043553L400.62203647416413,204.12001176585943L413.90683890577503,204.12001176585943" class="line" style="fill:none; stroke:black; stroke-width:2"/>
                <path id="area" d="M413.90683890577503,204.12001176585943L414.1958537409638,207.73878760043553L414.4697334631445,211.3575634350117L414.7133429593094,214.9763392695878L414.9115471164503,218.59511510416397L415.04921082155937,222.21389093874012L415.11119896162876,225.8326667733163L415.0823764236503,229.4514426078924L414.947877163292,233.07021844246856L414.70329518098896,236.6889942770447L414.3578124452996,240.30777011162087L413.9215190315625,243.92654594619705L413.40450501511634,247.54532178077315L412.81686047129966,251.1640976153493L412.16867547545115,254.78287344992546L411.4700401029095,258.4016492845016L410.73104442901325,262.02042511907774L409.961778529101,265.6392009536538L409.1723324785117,269.25797678823005L408.3727963525836,272.8767526228062L406.15607902735564,272.8767526228062L405.3565429014276,269.25797678823005L404.56709685083814,265.6392009536538L403.79783095092597,262.02042511907774L403.05883527702974,258.4016492845016L402.360199904488,254.78287344992546L401.7120149086396,251.1640976153493L401.12437036482294,247.54532178077315L400.6073563483767,243.92654594619705L400.1710629346396,240.30777011162087L399.82558019895026,236.6889942770447L399.58099821664734,233.07021844246856L399.44649895628885,229.4514426078924L399.41767641831046,225.8326667733163L399.4796645583798,222.21389093874012L399.61732826348896,218.59511510416397L399.81553242062984,214.9763392695878L400.0591419167948,211.3575634350117L400.3330216389754,207.73878760043553L400.62203647416413,204.12001176585943L413.90683890577503,204.12001176585943L413.90683890577503,72.85714285714288L400.62203647416413,72.85714285714288L400.3330216389754,72.85714285714288L400.0591419167948,72.85714285714288L399.81553242062984,72.85714285714288L399.61732826348896,72.85714285714288L399.4796645583798,72.85714285714288L399.41767641831046,72.85714285714288L399.44649895628885,72.85714285714288L399.58099821664734,72.85714285714288L399.82558019895026,72.85714285714288L400.1710629346396,72.85714285714288L400.6073563483767,72.85714285714288L401.12437036482294,72.85714285714288L401.7120149086396,72.85714285714288L402.360199904488,72.85714285714288L403.05883527702974,72.85714285714288L403.79783095092597,72.85714285714288L404.56709685083814,72.85714285714288L405.3565429014276,72.85714285714288L406.15607902735564,72.85714285714288L408.3727963525836,72.85714285714288L409.1723324785117,72.85714285714288L409.961778529101,72.85714285714288L410.73104442901325,72.85714285714288L411.4700401029095,72.85714285714288L412.16867547545115,72.85714285714288L412.81686047129966,72.85714285714288L413.40450501511634,72.85714285714288L413.9215190315625,72.85714285714288L414.3578124452996,72.85714285714288L414.70329518098896,72.85714285714288L414.947877163292,72.85714285714288L415.0823764236503,72.85714285714288L415.11119896162876,72.85714285714288L415.04921082155937,72.85714285714288L414.9115471164503,72.85714285714288L414.7133429593094,72.85714285714288L414.4697334631445,72.85714285714288L414.1958537409638,72.85714285714288L413.90683890577503,72.85714285714288Z" class="area" style="fill:orange;" opacity="1"/>
            </g>
            <g id="xy" class="xy">
                <path id="line" d="M219.37796352583584,204.12001176585943L219.66697836102455,207.73878760043553L219.94085808320526,211.3575634350117L220.1844675793701,214.9763392695878L220.38267173651107,218.59511510416397L220.5203354416202,222.21389093874012L220.5823235816895,225.8326667733163L220.5535010437111,229.4514426078924L220.41900178335268,233.07021844246856L220.17441980104974,236.6889942770447L219.82893706536035,240.30777011162087L219.39264365162333,243.92654594619705L218.8756296351771,247.54532178077315L218.2879850913604,251.1640976153493L217.63980009551196,254.78287344992546L216.94116472297026,258.4016492845016L216.20216904907406,262.02042511907774L215.43290314916186,265.6392009536538L214.6434570985724,269.25797678823005L213.84392097264438,272.8767526228062L211.62720364741642,272.8767526228062L210.82766752148834,269.25797678823005L210.03822147089892,265.6392009536538L209.26895557098675,262.02042511907774L208.5299598970905,258.4016492845016L207.83132452454882,254.78287344992546L207.1831395287003,251.1640976153493L206.5954949848837,247.54532178077315L206.07848096843745,243.92654594619705L205.64218755470037,240.30777011162087L205.29670481901104,236.6889942770447L205.05212283670807,233.07021844246856L204.91762357634965,229.4514426078924L204.88880103837124,225.8326667733163L204.95078917844057,222.21389093874012L205.0884528835497,218.59511510416397L205.28665704069067,214.9763392695878L205.53026653685546,211.3575634350117L205.8041462590362,207.73878760043553L206.09316109422494,204.12001176585943L219.37796352583584,204.12001176585943" class="line" style="fill:none; stroke:black; stroke-width:2"/>
                <path id="area" d="M219.37796352583584,204.12001176585943L219.66697836102455,207.73878760043553L219.94085808320526,211.3575634350117L220.1844675793701,214.9763392695878L220.38267173651107,218.59511510416397L220.5203354416202,222.21389093874012L220.5823235816895,225.8326667733163L220.5535010437111,229.4514426078924L220.41900178335268,233.07021844246856L220.17441980104974,236.6889942770447L219.82893706536035,240.30777011162087L219.39264365162333,243.92654594619705L218.8756296351771,247.54532178077315L218.2879850913604,251.1640976153493L217.63980009551196,254.78287344992546L216.94116472297026,258.4016492845016L216.20216904907406,262.02042511907774L215.43290314916186,265.6392009536538L214.6434570985724,269.25797678823005L213.84392097264438,272.8767526228062L211.62720364741642,272.8767526228062L210.82766752148834,269.25797678823005L210.03822147089892,265.6392009536538L209.26895557098675,262.02042511907774L208.5299598970905,258.4016492845016L207.83132452454882,254.78287344992546L207.1831395287003,251.1640976153493L206.5954949848837,247.54532178077315L206.07848096843745,243.92654594619705L205.64218755470037,240.30777011162087L205.29670481901104,236.6889942770447L205.05212283670807,233.07021844246856L204.91762357634965,229.4514426078924L204.88880103837124,225.8326667733163L204.95078917844057,222.21389093874012L205.0884528835497,218.59511510416397L205.28665704069067,214.9763392695878L205.53026653685546,211.3575634350117L205.8041462590362,207.73878760043553L206.09316109422494,204.12001176585943L219.37796352583584,204.12001176585943L219.37796352583584,72.85714285714288L206.09316109422494,72.85714285714288L205.8041462590362,72.85714285714288L205.53026653685546,72.85714285714288L205.28665704069067,72.85714285714288L205.0884528835497,72.85714285714288L204.95078917844057,72.85714285714288L204.88880103837124,72.85714285714288L204.91762357634965,72.85714285714288L205.05212283670807,72.85714285714288L205.29670481901104,72.85714285714288L205.64218755470037,72.85714285714288L206.07848096843745,72.85714285714288L206.5954949848837,72.85714285714288L207.1831395287003,72.85714285714288L207.83132452454882,72.85714285714288L208.5299598970905,72.85714285714288L209.26895557098675,72.85714285714288L210.03822147089892,72.85714285714288L210.82766752148834,72.85714285714288L211.62720364741642,72.85714285714288L213.84392097264438,72.85714285714288L214.6434570985724,72.85714285714288L215.43290314916186,72.85714285714288L216.20216904907406,72.85714285714288L216.94116472297026,72.85714285714288L217.63980009551196,72.85714285714288L218.2879850913604,72.85714285714288L218.8756296351771,72.85714285714288L219.39264365162333,72.85714285714288L219.82893706536035,72.85714285714288L220.17441980104974,72.85714285714288L220.41900178335268,72.85714285714288L220.5535010437111,72.85714285714288L220.5823235816895,72.85714285714288L220.5203354416202,72.85714285714288L220.38267173651107,72.85714285714288L220.1844675793701,72.85714285714288L219.94085808320526,72.85714285714288L219.66697836102455,72.85714285714288L219.37796352583584,72.85714285714288Z" class="area" style="fill:orange;" opacity="1"/>
            </g>
        </g>
    </g>
    <text class="x label" text-anchor="middle" x="370" y="595">y (m)</text>
    <text class="y label" text-anchor="middle" x="-295" y="5" dy=".75em" transform="rotate(-90)">x (m)</text>
    <text class="title" text-anchor="middle" x="370" y="20">Aircraft data representation - Top View</text>
</svg>
