<?xml version="1.0" encoding="UTF-8"?><svg id="svg" class="svg" width="700" height="600" xmlns="http://www.w3.org/2000/svg">
    <g id="page" width="700" height="600">
        <g id="graph" transform="translate(60,40)">
            <rect width="620" height="510" fill="blue" opacity="0.05"/>
            <rect width="620" height="510" fill="none" opacity="1.0" style="stroke: darkblue; stroke-width: 2px;"/>
            <g id="xAxis" class="axis" transform="translate(0,510)">
                <g class="tick" transform="translate(23.59940872135989,0)" style="opacity: 1;">
                    <line y2="-510" x2="0" style="fill: none; stroke: #808080; stroke-width: 0.8px; stroke-dasharray: 15px, 2px; font-style: normal; font-variant: normal; font-weight: normal; font-size: 10px; line-height: normal; font-family: sans-serif; shape-rendering: geometricprecision;"/>
                    <text dy=".71em" y="12" x="0" style="text-anchor: middle;">-15</text>
                </g>
                <g class="tick" transform="translate(119.06627248090659,0)" style="opacity: 1;">
                    <line y2="-510" x2="0" style="fill: none; stroke: #808080; stroke-width: 0.8px; stroke-dasharray: 15px, 2px; font-style: normal; font-variant: normal; font-weight: normal; font-size: 10px; line-height: normal; font-family: sans-serif; shape-rendering: geometricprecision;"/>
                    <text dy=".71em" y="12" x="0" style="text-anchor: middle;">-10</text>
                </g>
                <g class="tick" transform="translate(214.5331362404533,0)" style="opacity: 1;">
                    <line y2="-510" x2="0" style="fill: none; stroke: #808080; stroke-width: 0.8px; stroke-dasharray: 15px, 2px; font-style: normal; font-variant: normal; font-weight: normal; font-size: 10px; line-height: normal; font-family: sans-serif; shape-rendering: geometricprecision;"/>
                    <text dy=".71em" y="12" x="0" style="text-anchor: middle;">-5</text>
                </g>
                <g class="tick" transform="translate(310,0)" style="opacity: 1;">
                    <line y2="-510" x2="0" style="fill: none; stroke: #808080; stroke-width: 0.8px; stroke-dasharray: 15px, 2px; font-style: normal; font-variant: normal; font-weight: normal; font-size: 10px; line-height: normal; font-family: sans-serif; shape-rendering: geometricprecision;"/>
                    <text dy=".71em" y="12" x="0" style="text-anchor: middle;">0</text>
                </g>
                <g class="tick" transform="translate(405.4668637595467,0)" style="opacity: 1;">
                    <line y2="-510" x2="0" style="fill: none; stroke: #808080; stroke-width: 0.8px; stroke-dasharray: 15px, 2px; font-style: normal; font-variant: normal; font-weight: normal; font-size: 10px; line-height: normal; font-family: sans-serif; shape-rendering: geometricprecision;"/>
                    <text dy=".71em" y="12" x="0" style="text-anchor: middle;">5</text>
                </g>
                <g class="tick" transform="translate(500.9337275190934,0)" style="opacity: 1;">
                    <line y2="-510" x2="0" style="fill: none; stroke: #808080; stroke-width: 0.8px; stroke-dasharray: 15px, 2px; font-style: normal; font-variant: normal; font-weight: normal; font-size: 10px; line-height: normal; font-family: sans-serif; shape-rendering: geometricprecision;"/>
                    <text dy=".71em" y="12" x="0" style="text-anchor: middle;">10</text>
                </g>
                <g class="tick" transform="translate(596.4005912786401,0)" style="opacity: 1;">
                    <line y2="-510" x2="0" style="fill: none; stroke: #808080; stroke-width: 0.8px; stroke-dasharray: 15px, 2px; font-style: normal; font-variant: normal; font-weight: normal; font-size: 10px; line-height: normal; font-family: sans-serif; shape-rendering: geometricprecision;"/>
                    <text dy=".71em" y="12" x="0" style="text-anchor: middle;">15</text>
                </g>
                <path class="domain" d="M0,-510V0H620V-510" style="fill: none; stroke: #808080; stroke-width: 0.8px; stroke-dasharray: 15px, 2px; font-style: normal; font-variant: normal; font-weight: normal; font-size: 10px; line-height: normal; font-family: sans-serif; shape-rendering: geometricprecision;"/>
            </g>
            <g id="yAxis" class="axis">
                <g class="tick" transform="translate(0,490.5875831485588)" style="opacity: 1;">
                    <line x2="620" y2="0" style="fill: none; stroke: #808080; stroke-dasharray: 15px, 2px; stroke-width: 0.8px; shape-rendering: geometricprecision;"/>
                    <text dy=".32em" x="-8" y="0" style="text-anchor: end;">-15</text>
                </g>
                <g class="tick" transform="translate(0,412.05838876570584)" style="opacity: 1;">
                    <line x2="620" y2="0" style="fill: none; stroke: #808080; stroke-dasharray: 15px, 2px; stroke-width: 0.8px; shape-rendering: geometricprecision;"/>
                    <text dy=".32em" x="-8" y="0" style="text-anchor: end;">-10</text>
                </g>
                <g class="tick" transform="translate(0,333.52919438285295)" style="opacity: 1;">
                    <line x2="620" y2="0" style="fill: none; stroke: #808080; stroke-dasharray: 15px, 2px; stroke-width: 0.8px; shape-rendering: geometricprecision;"/>
                    <text dy=".32em" x="-8" y="0" style="text-anchor: end;">-5</text>
                </g>
                <g class="tick" transform="translate(0,255)" style="opacity: 1;">
                    <line x2="620" y2="0" style="fill: none; stroke: #808080; stroke-dasharray: 15px, 2px; stroke-width: 0.8px; shape-rendering: geometricprecision;"/>
                    <text dy=".32em" x="-8" y="0" style="text-anchor: end;">0</text>
                </g>
                <g class="tick" transform="translate(0,176.47080561714708)" style="opacity: 1;">
                    <line x2="620" y2="0" style="fill: none; stroke: #808080; stroke-dasharray: 15px, 2px; stroke-width: 0.8px; shape-rendering: geometricprecision;"/>
                    <text dy=".32em" x="-8" y="0" style="text-anchor: end;">5</text>
                </g>
                <g class="tick" transform="translate(0,97.94161123429413)" style="opacity: 1;">
                    <line x2="620" y2="0" style="fill: none; stroke: #808080; stroke-dasharray: 15px, 2px; stroke-width: 0.8px; shape-rendering: geometricprecision;"/>
                    <text dy=".32em" x="-8" y="0" style="text-anchor: end;">10</text>
                </g>
                <g class="tick" transform="translate(0,19.412416851441197)" style="opacity: 1;">
                    <line x2="620" y2="0" style="fill: none; stroke: #808080; stroke-dasharray: 15px, 2px; stroke-width: 0.8px; shape-rendering: geometricprecision;"/>
                    <text dy=".32em" x="-8" y="0" style="text-anchor: end;">15</text>
                </g>
                <path class="domain" d="M620,0H0V510H620" style="fill: none; stroke: #808080; stroke-dasharray: 15px, 2px; stroke-width: 0.8px; shape-rendering: geometricprecision;"/>
            </g>
            <g id="xy" class="xy">
                <path id="line" d="M310,162.96293123059866L379.7824587336782,163.79116531892092L379.7824587336782,165.98747474020692L310,166.81570882852918" class="line" style="fill:none; stroke:black; stroke-width:2"/>
                <path id="area" d="M310,162.96293123059866L379.7824587336782,163.79116531892092L379.7824587336782,165.98747474020692L310,166.81570882852918L310,255L379.7824587336782,255L379.7824587336782,255L310,255Z" class="area" style="fill:blue;" opacity="1"/>
            </g>
            <g id="xy" class="xy">
                <path id="line" d="M310,162.96293123059866L240.21754126632177,163.79116531892092L240.21754126632177,165.98747474020692L310,166.81570882852918" class="line" style="fill:none; stroke:black; stroke-width:2"/>
                <path id="area" d="M310,162.96293123059866L240.21754126632177,163.79116531892092L240.21754126632177,165.98747474020692L310,166.81570882852918L310,255L240.21754126632177,255L240.21754126632177,255L310,255Z" class="area" style="fill:blue;" opacity="1"/>
            </g>
            <g id="xy" class="xy">
                <path id="line" d="M314.52565727395915,234.58240946045822L312.6008207625031,158.88026607538802L307.3991792374969,158.88026607538802L305.4743427260409,234.58240946045822" class="line" style="fill:none; stroke:black; stroke-width:2"/>
                <path id="area" d="M314.52565727395915,234.58240946045822L312.6008207625031,158.88026607538802L307.3991792374969,158.88026607538802L305.4743427260409,234.58240946045822L305.4743427260409,255L307.3991792374969,255L312.6008207625031,255L314.52565727395915,255Z" class="area" style="fill:yellow;" opacity="1"/>
            </g>
            <g id="xy" class="xy">
                <path id="line" d="M310,225.59843340724316L399.7388519339739,225.59843340724316L568.3333333333333,227.60231877309678L568.3333333333333,231.3595675535846L399.7388519339739,232.89277107354025L310,232.89277107354025" class="line" style="fill:none; stroke:black; stroke-width:2"/>
                <path id="area" d="M310,225.59843340724316L399.7388519339739,225.59843340724316L568.3333333333333,227.60231877309678L568.3333333333333,231.3595675535846L399.7388519339739,232.89277107354025L310,232.89277107354025L310,255L399.7388519339739,255L568.3333333333333,255L568.3333333333333,255L399.7388519339739,255L310,255Z" class="area" style="fill:lightblue;" opacity="1"/>
            </g>
            <g id="xy" class="xy">
                <path id="line" d="M310,225.59843340724316L220.26114806602612,225.59843340724316L51.6666666666667,227.60231877309678L51.6666666666667,231.3595675535846L220.26114806602612,232.89277107354025L310,232.89277107354025" class="line" style="fill:none; stroke:black; stroke-width:2"/>
                <path id="area" d="M310,225.59843340724316L220.26114806602612,225.59843340724316L51.6666666666667,227.60231877309678L51.6666666666667,231.3595675535846L220.26114806602612,232.89277107354025L310,232.89277107354025L310,255L220.26114806602612,255L51.6666666666667,255L51.6666666666667,255L220.26114806602612,255L310,255Z" class="area" style="fill:lightblue;" opacity="1"/>
            </g>
            <g id="xy" class="xy">
                <path id="line" d="M282.64874344184557,259.16361792212666L282.6610389740252,257.8826061605923L282.7434431663667,256.2198168129081L282.955876822306,254.28244620875483L283.347214796062,252.16756654750483L283.955219985523,249.96213081296253L284.80660251103825,247.74296937985326L285.9169741932704,245.57679305628153L287.290869038162,243.52018875407887L288.9217295802911,241.6196222972271L290.7919341961601,239.9114421664215L292.8727709289606,238.4218668611686L295.1244465930029,237.16700362260482L297.4960867737161,236.15282783839584L299.9257358276483,235.37520363783713L302.3403591585735,234.8198679774581L304.65583752722364,234.46243438558588L306.7769704654493,234.26840232375457L308.5974774142738,234.19314408073228L309.99999608736846,234.18191038936664L310,234.18191038936664L311.402517748998,234.19314220845038L313.22302469782244,234.26840232375457L315.3441573515347,234.46243625786775L317.6596357201849,234.81986984974L320.07426075819063,235.37520363783713L322.5039132262839,236.15282596611394L324.8755545450508,237.16700175032292L327.1272290710394,238.42187060573238L329.2080680799472,239.9114421664215L331.0782726958163,241.619624169509L332.7091332379454,243.52018969021987L334.08302353062226,245.57679305628153L335.19339293674693,247.7429684437123L336.0447777383696,249.96212847261015L336.65278975615274,252.16756303697628L337.0441209015866,254.28244117699725L337.2565591097407,256.21981224922104L337.33895874986746,257.88260147988757L337.3512565581544,259.16361464563334" class="line" style="fill:none; stroke:black; stroke-width:2"/>
                <path id="area" d="M282.64874344184557,259.16361792212666L282.6610389740252,257.8826061605923L282.7434431663667,256.2198168129081L282.955876822306,254.28244620875483L283.347214796062,252.16756654750483L283.955219985523,249.96213081296253L284.80660251103825,247.74296937985326L285.9169741932704,245.57679305628153L287.290869038162,243.52018875407887L288.9217295802911,241.6196222972271L290.7919341961601,239.9114421664215L292.8727709289606,238.4218668611686L295.1244465930029,237.16700362260482L297.4960867737161,236.15282783839584L299.9257358276483,235.37520363783713L302.3403591585735,234.8198679774581L304.65583752722364,234.46243438558588L306.7769704654493,234.26840232375457L308.5974774142738,234.19314408073228L309.99999608736846,234.18191038936664L310,234.18191038936664L311.402517748998,234.19314220845038L313.22302469782244,234.26840232375457L315.3441573515347,234.46243625786775L317.6596357201849,234.81986984974L320.07426075819063,235.37520363783713L322.5039132262839,236.15282596611394L324.8755545450508,237.16700175032292L327.1272290710394,238.42187060573238L329.2080680799472,239.9114421664215L331.0782726958163,241.619624169509L332.7091332379454,243.52018969021987L334.08302353062226,245.57679305628153L335.19339293674693,247.7429684437123L336.0447777383696,249.96212847261015L336.65278975615274,252.16756303697628L337.0441209015866,254.28244117699725L337.2565591097407,256.21981224922104L337.33895874986746,257.88260147988757L337.3512565581544,259.16361464563334L337.3512565581544,255L337.33895874986746,255L337.2565591097407,255L337.0441209015866,255L336.65278975615274,255L336.0447777383696,255L335.19339293674693,255L334.08302353062226,255L332.7091332379454,255L331.0782726958163,255L329.2080680799472,255L327.1272290710394,255L324.8755545450508,255L322.5039132262839,255L320.07426075819063,255L317.6596357201849,255L315.3441573515347,255L313.22302469782244,255L311.402517748998,255L310,255L309.99999608736846,255L308.5974774142738,255L306.7769704654493,255L304.65583752722364,255L302.3403591585735,255L299.9257358276483,255L297.4960867737161,255L295.1244465930029,255L292.8727709289606,255L290.7919341961601,255L288.9217295802911,255L287.290869038162,255L285.9169741932704,255L284.80660251103825,255L283.955219985523,255L283.347214796062,255L282.955876822306,255L282.7434431663667,255L282.6610389740252,255L282.64874344184557,255Z" class="area" style="fill:white;" opacity="1"/>
            </g>
            <g id="xy" class="xy">
                <path id="line" d="M337.3512565581544,259.16361792212666L337.3404723612891,260.31574811701057L337.2679737883561,261.6284400583723L337.08039067301974,263.04587400188643L336.7333776147884,264.5177478179699L336.191691366667,265.9992863531916L335.4291293802564,267.45122598394676L334.42856394736515,268.83982819050044L333.18193992390127,270.13687768470595L331.69027017765836,271.3196796015819L329.9636196555631,272.3710557547482L328.0211326969642,273.27935025327224L325.8910171008809,274.03843137395L323.61054754016374,274.64768500832037L321.22606328538734,275.11201840722816L318.7929716190113,275.44185830854263L316.37574555927324,275.65315655400286L314.0479272743492,275.7673807278088L311.89212253434255,275.81152164574826L310.0000058689452,275.81808961063336L310,275.81808961063336L308.10788344043937,275.81152164574826L305.9520784159193,275.76737885552694L303.62426013099525,275.653154681721L301.2070340712571,275.4418545639788L298.77393899072007,275.11201653494624L296.38945245983626,274.6476868806023L294.1089828991191,274.03843137395L291.97886730303577,273.2793483809903L290.03637806832955,272.37105388246636L288.3097298223416,271.3196796015819L286.81805779999127,270.13687768470595L285.57143605263485,268.83982819050044L284.57087517195833,267.4512250478058L283.808308633333,265.9992872893326L283.26661783299676,264.51775249867467L282.91961160308773,263.04587774645023L282.7320216594291,261.6284442710066L282.65952991481834,260.31575186157437L282.64874344184557,259.16362166669046" class="line" style="fill:none; stroke:black; stroke-width:2"/>
                <path id="area" d="M337.3512565581544,259.16361792212666L337.3404723612891,260.31574811701057L337.2679737883561,261.6284400583723L337.08039067301974,263.04587400188643L336.7333776147884,264.5177478179699L336.191691366667,265.9992863531916L335.4291293802564,267.45122598394676L334.42856394736515,268.83982819050044L333.18193992390127,270.13687768470595L331.69027017765836,271.3196796015819L329.9636196555631,272.3710557547482L328.0211326969642,273.27935025327224L325.8910171008809,274.03843137395L323.61054754016374,274.64768500832037L321.22606328538734,275.11201840722816L318.7929716190113,275.44185830854263L316.37574555927324,275.65315655400286L314.0479272743492,275.7673807278088L311.89212253434255,275.81152164574826L310.0000058689452,275.81808961063336L310,275.81808961063336L308.10788344043937,275.81152164574826L305.9520784159193,275.76737885552694L303.62426013099525,275.653154681721L301.2070340712571,275.4418545639788L298.77393899072007,275.11201653494624L296.38945245983626,274.6476868806023L294.1089828991191,274.03843137395L291.97886730303577,273.2793483809903L290.03637806832955,272.37105388246636L288.3097298223416,271.3196796015819L286.81805779999127,270.13687768470595L285.57143605263485,268.83982819050044L284.57087517195833,267.4512250478058L283.808308633333,265.9992872893326L283.26661783299676,264.51775249867467L282.91961160308773,263.04587774645023L282.7320216594291,261.6284442710066L282.65952991481834,260.31575186157437L282.64874344184557,259.16362166669046L282.64874344184557,255L282.65952991481834,255L282.7320216594291,255L282.91961160308773,255L283.26661783299676,255L283.808308633333,255L284.57087517195833,255L285.57143605263485,255L286.81805779999127,255L288.3097298223416,255L290.03637806832955,255L291.97886730303577,255L294.1089828991191,255L296.38945245983626,255L298.77393899072007,255L301.2070340712571,255L303.62426013099525,255L305.9520784159193,255L308.10788344043937,255L310,255L310.0000058689452,255L311.89212253434255,255L314.0479272743492,255L316.37574555927324,255L318.7929716190113,255L321.22606328538734,255L323.61054754016374,255L325.8910171008809,255L328.0211326969642,255L329.9636196555631,255L331.69027017765836,255L333.18193992390127,255L334.42856394736515,255L335.4291293802564,255L336.191691366667,255L336.7333776147884,255L337.08039067301974,255L337.2679737883561,255L337.3404723612891,255L337.3512565581544,255Z" class="area" style="fill:white;" opacity="1"/>
            </g>
            <g id="xy" class="xy">
                <path id="line" d="M410.69462921901953,238.83947708795264L409.97045709836397,235.26970280530696L407.87641602235885,232.08676895694097L404.6394278339842,229.63559581363262L400.61027043049734,228.18180601932926L396.2255655353846,227.8829402561166L391.9604639597379,228.77138526681892L388.2771556391485,230.7508642488819L385.57478418256915,233.6068699398178L384.1461934689338,237.02990980751966L384.1461934689338,240.64904436838577L385.57478418256915,244.07208423608756L388.2771556391485,246.92808992702354L391.9604639597379,248.90756890908642L396.2255655353846,249.79601391978878L400.61027043049734,249.49714815657615L404.6394278339842,248.04335836227287L407.87641602235885,245.5921852189644L409.97045709836397,242.4092513705984L410.69462921901953,238.8394770879527" class="line" style="fill:none; stroke:black; stroke-width:2"/>
                <path id="area" d="M410.69462921901953,238.83947708795264L409.97045709836397,235.26970280530696L407.87641602235885,232.08676895694097L404.6394278339842,229.63559581363262L400.61027043049734,228.18180601932926L396.2255655353846,227.8829402561166L391.9604639597379,228.77138526681892L388.2771556391485,230.7508642488819L385.57478418256915,233.6068699398178L384.1461934689338,237.02990980751966L384.1461934689338,240.64904436838577L385.57478418256915,244.07208423608756L388.2771556391485,246.92808992702354L391.9604639597379,248.90756890908642L396.2255655353846,249.79601391978878L400.61027043049734,249.49714815657615L404.6394278339842,248.04335836227287L407.87641602235885,245.5921852189644L409.97045709836397,242.4092513705984L410.69462921901953,238.8394770879527L410.69462921901953,255L409.97045709836397,255L407.87641602235885,255L404.6394278339842,255L400.61027043049734,255L396.2255655353846,255L391.9604639597379,255L388.2771556391485,255L385.57478418256915,255L384.1461934689338,255L384.1461934689338,255L385.57478418256915,255L388.2771556391485,255L391.9604639597379,255L396.2255655353846,255L400.61027043049734,255L404.6394278339842,255L407.87641602235885,255L409.97045709836397,255L410.69462921901953,255Z" class="area" style="fill:orange;" opacity="1"/>
            </g>
            <g id="xy" class="xy">
                <path id="line" d="M236.0360926336536,238.83947708795264L235.3119205129981,235.26970280530696L233.21787943699292,232.08676895694097L229.9808912486183,229.63559581363262L225.9517338451314,228.18180601932926L221.56702895001868,227.8829402561166L217.3019273743721,228.77138526681892L213.61861905378257,230.7508642488819L210.91624759720324,233.6068699398178L209.48765688356792,237.02990980751966L209.48765688356792,240.64904436838577L210.91624759720324,244.07208423608756L213.61861905378257,246.92808992702354L217.30192737437207,248.90756890908642L221.56702895001868,249.79601391978878L225.9517338451314,249.49714815657615L229.9808912486183,248.04335836227287L233.21787943699292,245.5921852189644L235.3119205129981,242.4092513705984L236.0360926336536,238.8394770879527" class="line" style="fill:none; stroke:black; stroke-width:2"/>
                <path id="area" d="M236.0360926336536,238.83947708795264L235.3119205129981,235.26970280530696L233.21787943699292,232.08676895694097L229.9808912486183,229.63559581363262L225.9517338451314,228.18180601932926L221.56702895001868,227.8829402561166L217.3019273743721,228.77138526681892L213.61861905378257,230.7508642488819L210.91624759720324,233.6068699398178L209.48765688356792,237.02990980751966L209.48765688356792,240.64904436838577L210.91624759720324,244.07208423608756L213.61861905378257,246.92808992702354L217.30192737437207,248.90756890908642L221.56702895001868,249.79601391978878L225.9517338451314,249.49714815657615L229.9808912486183,248.04335836227287L233.21787943699292,245.5921852189644L235.3119205129981,242.4092513705984L236.0360926336536,238.8394770879527L236.0360926336536,255L235.3119205129981,255L233.21787943699292,255L229.9808912486183,255L225.9517338451314,255L221.56702895001868,255L217.30192737437207,255L213.61861905378257,255L210.91624759720324,255L209.48765688356792,255L209.48765688356792,255L210.91624759720324,255L213.61861905378257,255L217.3019273743721,255L221.56702895001868,255L225.9517338451314,255L229.9808912486183,255L233.21787943699292,255L235.3119205129981,255L236.0360926336536,255Z" class="area" style="fill:orange;" opacity="1"/>
            </g>
        </g>
    </g>
    <text class="x label" text-anchor="middle" x="370" y="595">y (m)</text>
    <text class="y label" text-anchor="middle" x="-295" y="5" dy=".75em" transform="rotate(-90)">z (m)</text>
    <text class="title" text-anchor="middle" x="370" y="20">Aircraft data representation - Front View</text>
</svg>
