<?xml version="1.0" encoding="UTF-8"?><svg id="svg" class="svg" width="700" height="600" xmlns="http://www.w3.org/2000/svg">
    <g id="page" width="700" height="600">
        <g id="graph" transform="translate(60,40)">
            <rect width="620" height="510" fill="blue" opacity="0.05"/>
            <rect width="620" height="510" fill="none" opacity="1.0" style="stroke: darkblue; stroke-width: 2px;"/>
            <g id="xAxis" class="axis" transform="translate(0,510)">
                <g class="tick" transform="translate(7.0619787339215945,0)" style="opacity: 1;">
                    <line y2="-510" x2="0" style="fill: none; stroke: rgb(128, 128, 128); stroke-width: 0.8px; stroke-dasharray: 15px, 2px; font-style: normal; font-variant-caps: normal; font-weight: normal; font-size: 10px; line-height: normal; font-family: sans-serif; shape-rendering: geometricprecision;"/>
                    <text dy=".71em" y="12" x="0" style="text-anchor: middle;">-5</text>
                </g>
                <g class="tick" transform="translate(88.57142857142857,0)" style="opacity: 1;">
                    <line y2="-510" x2="0" style="fill: none; stroke: rgb(128, 128, 128); stroke-width: 0.8px; stroke-dasharray: 15px, 2px; font-style: normal; font-variant-caps: normal; font-weight: normal; font-size: 10px; line-height: normal; font-family: sans-serif; shape-rendering: geometricprecision;"/>
                    <text dy=".71em" y="12" x="0" style="text-anchor: middle;">0</text>
                </g>
                <g class="tick" transform="translate(170.08087840893555,0)" style="opacity: 1;">
                    <line y2="-510" x2="0" style="fill: none; stroke: rgb(128, 128, 128); stroke-width: 0.8px; stroke-dasharray: 15px, 2px; font-style: normal; font-variant-caps: normal; font-weight: normal; font-size: 10px; line-height: normal; font-family: sans-serif; shape-rendering: geometricprecision;"/>
                    <text dy=".71em" y="12" x="0" style="text-anchor: middle;">5</text>
                </g>
                <g class="tick" transform="translate(251.5903282464425,0)" style="opacity: 1;">
                    <line y2="-510" x2="0" style="fill: none; stroke: rgb(128, 128, 128); stroke-width: 0.8px; stroke-dasharray: 15px, 2px; font-style: normal; font-variant-caps: normal; font-weight: normal; font-size: 10px; line-height: normal; font-family: sans-serif; shape-rendering: geometricprecision;"/>
                    <text dy=".71em" y="12" x="0" style="text-anchor: middle;">10</text>
                </g>
                <g class="tick" transform="translate(333.0997780839495,0)" style="opacity: 1;">
                    <line y2="-510" x2="0" style="fill: none; stroke: rgb(128, 128, 128); stroke-width: 0.8px; stroke-dasharray: 15px, 2px; font-style: normal; font-variant-caps: normal; font-weight: normal; font-size: 10px; line-height: normal; font-family: sans-serif; shape-rendering: geometricprecision;"/>
                    <text dy=".71em" y="12" x="0" style="text-anchor: middle;">15</text>
                </g>
                <g class="tick" transform="translate(414.60922792145647,0)" style="opacity: 1;">
                    <line y2="-510" x2="0" style="fill: none; stroke: rgb(128, 128, 128); stroke-width: 0.8px; stroke-dasharray: 15px, 2px; font-style: normal; font-variant-caps: normal; font-weight: normal; font-size: 10px; line-height: normal; font-family: sans-serif; shape-rendering: geometricprecision;"/>
                    <text dy=".71em" y="12" x="0" style="text-anchor: middle;">20</text>
                </g>
                <g class="tick" transform="translate(496.1186777589635,0)" style="opacity: 1;">
                    <line y2="-510" x2="0" style="fill: none; stroke: rgb(128, 128, 128); stroke-width: 0.8px; stroke-dasharray: 15px, 2px; font-style: normal; font-variant-caps: normal; font-weight: normal; font-size: 10px; line-height: normal; font-family: sans-serif; shape-rendering: geometricprecision;"/>
                    <text dy=".71em" y="12" x="0" style="text-anchor: middle;">25</text>
                </g>
                <g class="tick" transform="translate(577.6281275964704,0)" style="opacity: 1;">
                    <line y2="-510" x2="0" style="fill: none; stroke: rgb(128, 128, 128); stroke-width: 0.8px; stroke-dasharray: 15px, 2px; font-style: normal; font-variant-caps: normal; font-weight: normal; font-size: 10px; line-height: normal; font-family: sans-serif; shape-rendering: geometricprecision;"/>
                    <text dy=".71em" y="12" x="0" style="text-anchor: middle;">30</text>
                </g>
                <path class="domain" d="M0,-510V0H620V-510" style="fill: none; stroke: rgb(128, 128, 128); stroke-width: 0.8px; stroke-dasharray: 15px, 2px; font-style: normal; font-variant-caps: normal; font-weight: normal; font-size: 10px; line-height: normal; font-family: sans-serif; shape-rendering: geometricprecision;"/>
            </g>
            <g id="yAxis" class="axis">
                <g class="tick" transform="translate(0,456.14428750223493)" style="opacity: 1;">
                    <line x2="620" y2="0" style="fill: none; stroke: rgb(128, 128, 128); stroke-dasharray: 15px, 2px; stroke-width: 0.8px; shape-rendering: geometricprecision;"/>
                    <text dy=".32em" x="-8" y="0" style="text-anchor: end;">-15</text>
                </g>
                <g class="tick" transform="translate(0,389.0961916681566)" style="opacity: 1;">
                    <line x2="620" y2="0" style="fill: none; stroke: rgb(128, 128, 128); stroke-dasharray: 15px, 2px; stroke-width: 0.8px; shape-rendering: geometricprecision;"/>
                    <text dy=".32em" x="-8" y="0" style="text-anchor: end;">-10</text>
                </g>
                <g class="tick" transform="translate(0,322.04809583407837)" style="opacity: 1;">
                    <line x2="620" y2="0" style="fill: none; stroke: rgb(128, 128, 128); stroke-dasharray: 15px, 2px; stroke-width: 0.8px; shape-rendering: geometricprecision;"/>
                    <text dy=".32em" x="-8" y="0" style="text-anchor: end;">-5</text>
                </g>
                <g class="tick" transform="translate(0,255)" style="opacity: 1;">
                    <line x2="620" y2="0" style="fill: none; stroke: rgb(128, 128, 128); stroke-dasharray: 15px, 2px; stroke-width: 0.8px; shape-rendering: geometricprecision;"/>
                    <text dy=".32em" x="-8" y="0" style="text-anchor: end;">0</text>
                </g>
                <g class="tick" transform="translate(0,187.95190416592172)" style="opacity: 1;">
                    <line x2="620" y2="0" style="fill: none; stroke: rgb(128, 128, 128); stroke-dasharray: 15px, 2px; stroke-width: 0.8px; shape-rendering: geometricprecision;"/>
                    <text dy=".32em" x="-8" y="0" style="text-anchor: end;">5</text>
                </g>
                <g class="tick" transform="translate(0,120.90380833184335)" style="opacity: 1;">
                    <line x2="620" y2="0" style="fill: none; stroke: rgb(128, 128, 128); stroke-dasharray: 15px, 2px; stroke-width: 0.8px; shape-rendering: geometricprecision;"/>
                    <text dy=".32em" x="-8" y="0" style="text-anchor: end;">10</text>
                </g>
                <g class="tick" transform="translate(0,53.85571249776506)" style="opacity: 1;">
                    <line x2="620" y2="0" style="fill: none; stroke: rgb(128, 128, 128); stroke-dasharray: 15px, 2px; stroke-width: 0.8px; shape-rendering: geometricprecision;"/>
                    <text dy=".32em" x="-8" y="0" style="text-anchor: end;">15</text>
                </g>
                <path class="domain" d="M620,0H0V510H620" style="fill: none; stroke: rgb(128, 128, 128); stroke-dasharray: 15px, 2px; stroke-width: 0.8px; shape-rendering: geometricprecision;"/>
            </g>
            <g id="xy" class="xy">
                <path id="line" d="M440.6922518694587,237.56749508313965L442.824407529911,235.33872389748268L444.95656319036334,233.1099527118257L447.08871885081567,230.8811815261688L449.2208745112678,228.6524103405118L451.35303017172015,226.42363915485484L453.4851858321725,224.194867969198L455.61734149262475,221.96609678354096L457.7494971530771,219.73732559788405L459.8816528135294,217.50855441222708L462.0138084739816,215.27978322657017L464.14596413443394,213.0510120409132L466.2781197948862,210.8222408552563L468.41027545533854,208.59346966959933L470.54243111579075,206.36469848394236L472.6745867762431,204.1359272982854L474.8067424366954,201.90715611262848L476.93889809714756,199.67838492697152L479.0710537575999,197.44961374131455L481.2032094180522,195.22084255565764L483.3353650785045,192.99207137000067L485.4675207389568,190.7633001843437L487.599676399409,188.5345289986868L489.73183205986135,186.30575781302989L491.8639877203136,184.07698662737286L493.99614338076594,181.84821544171595L496.12829904121827,179.61944425605904L498.2604547016704,177.39067307040207L500.39261036212275,175.1619018847451L502.52476602257514,172.9331306990882L539.5300562488032,172.9331306990882L538.3422859381924,175.1619018847451L537.1545156275815,177.39067307040207L535.9667453169707,179.61944425605904L534.7789750063599,181.84821544171595L533.5912046957491,184.07698662737286L532.4034343851382,186.30575781302989L531.2156640745275,188.5345289986868L530.0278937639166,190.7633001843437L528.8401234533058,192.99207137000067L527.652353142695,195.22084255565764L526.4645828320841,197.44961374131455L525.2768125214734,199.67838492697152L524.0890422108625,201.90715611262848L522.9012719002517,204.1359272982854L521.7135015896408,206.36469848394236L520.52573127903,208.59346966959933L519.3379609684192,210.8222408552563L518.1501906578084,213.0510120409132L516.9624203471975,215.27978322657017L515.7746500365866,217.50855441222708L514.5868797259759,219.73732559788405L513.399109415365,221.96609678354096L512.2113391047542,224.194867969198L511.0235687941434,226.42363915485484L509.8357984835326,228.6524103405118L508.6480281729218,230.8811815261688L507.460257862311,233.1099527118257L506.27248755170007,235.33872389748268L505.0847172410892,237.56749508313965" class="line" style="fill:none; stroke:black; stroke-width:2"/>
                <path id="area" d="M440.6922518694587,237.56749508313965L442.824407529911,235.33872389748268L444.95656319036334,233.1099527118257L447.08871885081567,230.8811815261688L449.2208745112678,228.6524103405118L451.35303017172015,226.42363915485484L453.4851858321725,224.194867969198L455.61734149262475,221.96609678354096L457.7494971530771,219.73732559788405L459.8816528135294,217.50855441222708L462.0138084739816,215.27978322657017L464.14596413443394,213.0510120409132L466.2781197948862,210.8222408552563L468.41027545533854,208.59346966959933L470.54243111579075,206.36469848394236L472.6745867762431,204.1359272982854L474.8067424366954,201.90715611262848L476.93889809714756,199.67838492697152L479.0710537575999,197.44961374131455L481.2032094180522,195.22084255565764L483.3353650785045,192.99207137000067L485.4675207389568,190.7633001843437L487.599676399409,188.5345289986868L489.73183205986135,186.30575781302989L491.8639877203136,184.07698662737286L493.99614338076594,181.84821544171595L496.12829904121827,179.61944425605904L498.2604547016704,177.39067307040207L500.39261036212275,175.1619018847451L502.52476602257514,172.9331306990882L539.5300562488032,172.9331306990882L538.3422859381924,175.1619018847451L537.1545156275815,177.39067307040207L535.9667453169707,179.61944425605904L534.7789750063599,181.84821544171595L533.5912046957491,184.07698662737286L532.4034343851382,186.30575781302989L531.2156640745275,188.5345289986868L530.0278937639166,190.7633001843437L528.8401234533058,192.99207137000067L527.652353142695,195.22084255565764L526.4645828320841,197.44961374131455L525.2768125214734,199.67838492697152L524.0890422108625,201.90715611262848L522.9012719002517,204.1359272982854L521.7135015896408,206.36469848394236L520.52573127903,208.59346966959933L519.3379609684192,210.8222408552563L518.1501906578084,213.0510120409132L516.9624203471975,215.27978322657017L515.7746500365866,217.50855441222708L514.5868797259759,219.73732559788405L513.399109415365,221.96609678354096L512.2113391047542,224.194867969198L511.0235687941434,226.42363915485484L509.8357984835326,228.6524103405118L508.6480281729218,230.8811815261688L507.460257862311,233.1099527118257L506.27248755170007,235.33872389748268L505.0847172410892,237.56749508313965L505.0847172410892,255L506.27248755170007,255L507.460257862311,255L508.6480281729218,255L509.8357984835326,255L511.0235687941434,255L512.2113391047542,255L513.399109415365,255L514.5868797259759,255L515.7746500365866,255L516.9624203471975,255L518.1501906578084,255L519.3379609684192,255L520.52573127903,255L521.7135015896408,255L522.9012719002517,255L524.0890422108625,255L525.2768125214734,255L526.4645828320841,255L527.652353142695,255L528.8401234533058,255L530.0278937639166,255L531.2156640745275,255L532.4034343851382,255L533.5912046957491,255L534.7789750063599,255L535.9667453169707,255L537.1545156275815,255L538.3422859381924,255L539.5300562488032,255L502.52476602257514,255L500.39261036212275,255L498.2604547016704,255L496.12829904121827,255L493.99614338076594,255L491.8639877203136,255L489.73183205986135,255L487.599676399409,255L485.4675207389568,255L483.3353650785045,255L481.2032094180522,255L479.0710537575999,255L476.93889809714756,255L474.8067424366954,255L472.6745867762431,255L470.54243111579075,255L468.41027545533854,255L466.2781197948862,255L464.14596413443394,255L462.0138084739816,255L459.8816528135294,255L457.7494971530771,255L455.61734149262475,255L453.4851858321725,255L451.35303017172015,255L449.2208745112678,255L447.08871885081567,255L444.95656319036334,255L442.824407529911,255L440.6922518694587,255Z" class="area" style="fill:yellow;" opacity="1"/>
            </g>
            <g id="xy" class="xy">
                <path id="line" d="M88.57142857142857,260.3331395786008L89.1873921616582,258.8643116316257L92.69131602407062,256.5536363819578L100.02229339828376,253.20033909915148L110.54416553885962,249.11086713864898L122.65138651334428,244.88754369269196L134.37488787884934,241.21723422973457L143.98796054501753,238.65999355142242L150.6120880535701,237.43773173245765L154.8228556479866,237.2228672720549L231.62411365053066,237.22286887060608L323.1479351871668,237.2228672720549L429.39428916450754,237.2228672720549L440.30290668933816,237.22437150870965L455.267936459481,237.24502319132688L472.64332563186207,237.3252880443257L490.3895967308415,237.51573303699408L506.43533937177375,237.86261544465464L519.0417180431602,238.39337759531188L527.1639327368224,239.10224871922748L530.8151670490778,239.9357556810793L531.4285773985018,240.77829445706442" class="line" style="fill:none; stroke:black; stroke-width:2"/>
                <path id="area" d="M88.57142857142857,260.3331395786008L89.1873921616582,258.8643116316257L92.69131602407062,256.5536363819578L100.02229339828376,253.20033909915148L110.54416553885962,249.11086713864898L122.65138651334428,244.88754369269196L134.37488787884934,241.21723422973457L143.98796054501753,238.65999355142242L150.6120880535701,237.43773173245765L154.8228556479866,237.2228672720549L231.62411365053066,237.22286887060608L323.1479351871668,237.2228672720549L429.39428916450754,237.2228672720549L440.30290668933816,237.22437150870965L455.267936459481,237.24502319132688L472.64332563186207,237.3252880443257L490.3895967308415,237.51573303699408L506.43533937177375,237.86261544465464L519.0417180431602,238.39337759531188L527.1639327368224,239.10224871922748L530.8151670490778,239.9357556810793L531.4285773985018,240.77829445706442L531.4285773985018,255L530.8151670490778,255L527.1639327368224,255L519.0417180431602,255L506.43533937177375,255L490.3895967308415,255L472.64332563186207,255L455.267936459481,255L440.30290668933816,255L429.39428916450754,255L323.1479351871668,255L231.62411365053066,255L154.8228556479866,255L150.6120880535701,255L143.98796054501753,255L134.37488787884934,255L122.65138651334428,255L110.54416553885962,255L100.02229339828376,255L92.69131602407062,255L89.1873921616582,255L88.57142857142857,255Z" class="area" style="fill:white;" opacity="1"/>
            </g>
            <g id="xy" class="xy">
                <path id="line" d="M88.57142857142857,260.3331395786008L88.96524138550473,262.0951390134272L91.27762941027233,263.9946446213295L96.34165737310255,266.0174312950481L104.08159344196395,268.0354822609136L113.81583898271914,269.8638627321546L124.55985977392392,271.3176523089601L135.3291283958126,272.26882702418055L145.44203504006168,272.70316296946953L154.8228556479866,272.7771327279451L231.62411365053066,272.7771311293939L323.1479351871668,272.7771327279451L429.39428916450754,272.7771327279451L437.8020966227408,272.5183576653431L450.554054534598,271.05229281407225L466.6640361141915,267.9838874232209L484.4137274858005,263.5402156870586L501.62105689851836,258.3038014427144L516.0436936163825,252.97208937031198L525.913170129567,248.14279413896787L530.6028613989425,244.125340905233L531.4285773985018,240.77829445706442" class="line" style="fill:none; stroke:black; stroke-width:2"/>
                <path id="area" d="M88.57142857142857,260.3331395786008L88.96524138550473,262.0951390134272L91.27762941027233,263.9946446213295L96.34165737310255,266.0174312950481L104.08159344196395,268.0354822609136L113.81583898271914,269.8638627321546L124.55985977392392,271.3176523089601L135.3291283958126,272.26882702418055L145.44203504006168,272.70316296946953L154.8228556479866,272.7771327279451L231.62411365053066,272.7771311293939L323.1479351871668,272.7771327279451L429.39428916450754,272.7771327279451L437.8020966227408,272.5183576653431L450.554054534598,271.05229281407225L466.6640361141915,267.9838874232209L484.4137274858005,263.5402156870586L501.62105689851836,258.3038014427144L516.0436936163825,252.97208937031198L525.913170129567,248.14279413896787L530.6028613989425,244.125340905233L531.4285773985018,240.77829445706442L531.4285773985018,255L530.6028613989425,255L525.913170129567,255L516.0436936163825,255L501.62105689851836,255L484.4137274858005,255L466.6640361141915,255L450.554054534598,255L437.8020966227408,255L429.39428916450754,255L323.1479351871668,255L231.62411365053066,255L154.8228556479866,255L145.44203504006168,255L135.3291283958126,255L124.55985977392392,255L113.81583898271914,255L104.08159344196395,255L96.34165737310255,255L91.27762941027233,255L88.96524138550473,255L88.57142857142857,255Z" class="area" style="fill:white;" opacity="1"/>
            </g>
            <g id="xy" class="xy">
                <path id="line" d="M309.8842565812308,233.5446093330949L307.78465466286644,233.08865707133916L305.6850527445021,232.7190594046129L301.4858489077734,232.0247684605757L297.2866450710447,231.40992374396566L293.08744123431603,230.8676168871804L288.8882373975874,230.418572993027L284.68903356085866,230.07660879671016L280.48982972413,229.90044542284994L278.39022780576556,229.89699123904876L276.2906258874013,229.9660749150724L274.19102396903696,230.1387841051314L272.09142205067263,230.494565036653L271.04162109149047,230.7778081083497L269.99182013230825,231.15431414267834L268.9420191731261,231.71734610227065L268.417118693535,232.13184815841225L267.8922182139439,233.5446093330949L268.417118693535,234.1767249687109L268.9420191731261,234.48069314321475L269.99182013230825,234.85719917754338L271.04162109149047,235.1335338816377L272.09142205067263,235.34769327731095L274.19102396903696,235.67929492222416L276.2906258874013,235.91417942070444L278.39022780576556,236.05580095655282L280.48982972413,236.12488463257645L284.68903356085866,236.09034279456466L288.8882373975874,235.89690850169853L293.08744123431603,235.5963945109959L297.2866450710447,235.20952592526373L301.4858489077734,234.7466652959056L305.6850527445021,234.21472099052386L307.78465466286644,233.92111536742354L309.8842565812308,233.5446093330949" class="line" style="fill:none; stroke:black; stroke-width:2"/>
                <path id="area" d="M309.8842565812308,233.5446093330949L307.78465466286644,233.08865707133916L305.6850527445021,232.7190594046129L301.4858489077734,232.0247684605757L297.2866450710447,231.40992374396566L293.08744123431603,230.8676168871804L288.8882373975874,230.418572993027L284.68903356085866,230.07660879671016L280.48982972413,229.90044542284994L278.39022780576556,229.89699123904876L276.2906258874013,229.9660749150724L274.19102396903696,230.1387841051314L272.09142205067263,230.494565036653L271.04162109149047,230.7778081083497L269.99182013230825,231.15431414267834L268.9420191731261,231.71734610227065L268.417118693535,232.13184815841225L267.8922182139439,233.5446093330949L268.417118693535,234.1767249687109L268.9420191731261,234.48069314321475L269.99182013230825,234.85719917754338L271.04162109149047,235.1335338816377L272.09142205067263,235.34769327731095L274.19102396903696,235.67929492222416L276.2906258874013,235.91417942070444L278.39022780576556,236.05580095655282L280.48982972413,236.12488463257645L284.68903356085866,236.09034279456466L288.8882373975874,235.89690850169853L293.08744123431603,235.5963945109959L297.2866450710447,235.20952592526373L301.4858489077734,234.7466652959056L305.6850527445021,234.21472099052386L307.78465466286644,233.92111536742354L309.8842565812308,233.5446093330949L309.8842565812308,255L307.78465466286644,255L305.6850527445021,255L301.4858489077734,255L297.2866450710447,255L293.08744123431603,255L288.8882373975874,255L284.68903356085866,255L280.48982972413,255L278.39022780576556,255L276.2906258874013,255L274.19102396903696,255L272.09142205067263,255L271.04162109149047,255L269.99182013230825,255L268.9420191731261,255L268.417118693535,255L267.8922182139439,255L268.417118693535,255L268.9420191731261,255L269.99182013230825,255L271.04162109149047,255L272.09142205067263,255L274.19102396903696,255L276.2906258874013,255L278.39022780576556,255L280.48982972413,255L284.68903356085866,255L288.8882373975874,255L293.08744123431603,255L297.2866450710447,255L301.4858489077734,255L305.6850527445021,255L307.78465466286644,255L309.8842565812308,255Z" class="area" style="fill:lightblue;" opacity="1"/>
            </g>
            <g id="xy" class="xy">
                <path id="line" d="M304.64533507627823,233.5446093330949L303.34884576716286,233.30572072233153L302.0523564580474,233.10949079206154L299.4593778398167,232.74902494189166L296.8663992215859,232.42481897014125L294.2734206033552,232.13473994278561L291.68044198512433,231.8937183979975L289.08746336689364,231.71241900590022L286.49448474866284,231.61430404076523L285.1979954395474,231.60790523869122L283.9015061304321,231.642032183086L282.6050168213167,231.72734954407298L281.3085275122013,231.9150477382442L280.6602828576436,232.07288485607003L280.01203820308587,232.2883111925621L279.3637935485282,232.5975866261398L279.03967122124936,232.83220936885388L278.7155488939705,233.5446093330949L279.03967122124936,233.87308117289467L279.3637935485282,234.02451948864655L280.01203820308587,234.19302127659574L280.6602828576436,234.31459851600212L281.3085275122013,234.4169793491865L282.6050168213167,234.576949401037L283.9015061304321,234.6985266404434L285.1979954395474,234.77744519935635L286.49448474866284,234.81583801180048L289.08746336689364,234.8073062757018L291.68044198512433,234.7177230466655L294.2734206033552,234.57055059896294L296.8663992215859,234.37858653674238L299.4593778398167,234.1482296620776L302.0523564580474,233.88374584301803L303.34884576716286,233.73657339531556L304.64533507627823,233.5446093330949" class="line" style="fill:none; stroke:black; stroke-width:2"/>
                <path id="area" d="M304.64533507627823,233.5446093330949L303.34884576716286,233.30572072233153L302.0523564580474,233.10949079206154L299.4593778398167,232.74902494189166L296.8663992215859,232.42481897014125L294.2734206033552,232.13473994278561L291.68044198512433,231.8937183979975L289.08746336689364,231.71241900590022L286.49448474866284,231.61430404076523L285.1979954395474,231.60790523869122L283.9015061304321,231.642032183086L282.6050168213167,231.72734954407298L281.3085275122013,231.9150477382442L280.6602828576436,232.07288485607003L280.01203820308587,232.2883111925621L279.3637935485282,232.5975866261398L279.03967122124936,232.83220936885388L278.7155488939705,233.5446093330949L279.03967122124936,233.87308117289467L279.3637935485282,234.02451948864655L280.01203820308587,234.19302127659574L280.6602828576436,234.31459851600212L281.3085275122013,234.4169793491865L282.6050168213167,234.576949401037L283.9015061304321,234.6985266404434L285.1979954395474,234.77744519935635L286.49448474866284,234.81583801180048L289.08746336689364,234.8073062757018L291.68044198512433,234.7177230466655L294.2734206033552,234.57055059896294L296.8663992215859,234.37858653674238L299.4593778398167,234.1482296620776L302.0523564580474,233.88374584301803L303.34884576716286,233.73657339531556L304.64533507627823,233.5446093330949L304.64533507627823,255L303.34884576716286,255L302.0523564580474,255L299.4593778398167,255L296.8663992215859,255L294.2734206033552,255L291.68044198512433,255L289.08746336689364,255L286.49448474866284,255L285.1979954395474,255L283.9015061304321,255L282.6050168213167,255L281.3085275122013,255L280.6602828576436,255L280.01203820308587,255L279.3637935485282,255L279.03967122124936,255L278.7155488939705,255L279.03967122124936,255L279.3637935485282,255L280.01203820308587,255L280.6602828576436,255L281.3085275122013,255L282.6050168213167,255L283.9015061304321,255L285.1979954395474,255L286.49448474866284,255L289.08746336689364,255L291.68044198512433,255L294.2734206033552,255L296.8663992215859,255L299.4593778398167,255L302.0523564580474,255L303.34884576716286,255L304.64533507627823,255Z" class="area" style="fill:lightblue;" opacity="1"/>
            </g>
            <g id="xy" class="xy">
                <path id="line" d="M534.3303078427866,178.06365099231178L534.121051566559,178.00504999106022L533.7560526414321,177.96352495977112L533.3299428865915,177.91575061684247L532.8524520524605,177.86309742535315L532.3393410018825,177.8074840336134L531.8049711130509,177.7506646343644L531.2592387417045,177.69370818880742L530.7076418632535,177.63724510995888L530.153079410187,177.58154949043447L529.5969508671553,177.52675837654212L529.0399226554201,177.47295399606654L528.4823946277385,177.42013634900772L527.9245000683627,177.3683328446272L527.3663722615454,177.3175160736635L526.8080778494126,177.26771344537815L526.2496834740906,177.21892495977113L525.6911891355792,177.17115061684248L525.1326947970678,177.12441782585373L524.5742004585562,177.07872658680495L524.0158060832343,177.03410430895764L523.4574783500384,176.99060581083498L522.8993172221581,176.9482036831754L522.3413560206561,176.90698015376364L521.7835947455328,176.86693522259972L521.2261666810404,176.8281237082067L520.6690385061158,176.79060042910783L520.1123101839485,176.75442020382624L519.5559817145382,176.71961044162347L519.0001863821374,176.68625337028428L518.444890865683,176.6544312175934L517.8902284494274,176.62417139281246L517.3362324544336,176.59558353298766L516.7829362017648,176.5687498659038L516.2304729756734,176.54372521008406L515.6788760972224,176.52064661183624L515.1282455296011,176.4995962989451L514.5786812359988,176.48068390845702L514.0302831796048,176.46401907741821L513.4831180025452,176.44973885213656L512.9373856311986,176.4379802789201L512.3931527076913,176.42885299481497L511.8506191584018,176.42252145539067L511.30995158864545,176.4191501162167L510.77138324586406,176.41890343286252L510.23511405643603,176.4220006794207L509.7014772309925,176.4285789021992L509.1707726591012,176.4389121938137L508.64343351458234,176.45316500983367L508.1199929344454,176.47161144287506L507.6010840188892,176.4945255855534L507.087539794491,176.52212671196136L506.5805598195223,176.55466150545323L506.0816102207591,176.59243146790632L505.5929235094288,176.63560105489003L505.1173652969573,176.68419767566607L504.658967431979,176.73813910244948L504.2227947160842,176.79690455927053L503.8146783353141,176.85961694975867L503.4402162282685,176.9250154478813L503.10347356464484,176.99151031646704L502.8058498290931,177.05770368317542L502.5461121422787,177.1224443590202L502.320828434703,177.18515674950834L502.12580025241635,177.24559417128555L501.95662921509035,177.30383885213658L501.80931679515356,177.36008265689256L501.68053088629694,177.41468190595387L501.5675058402835,177.4679655104595L501.4680424669492,177.5203172000715L501.3805080342025,177.57203847666727L501.3036030205824,177.62348566064728L501.2364610784489,177.67485061684252L501.17838246547683,177.72643484713032L501.1291006131614,177.77834798855713L501.0884155951241,177.83061745038444L501.05629409030195,177.88313359556588L501.0326694565686,177.93564974074732L501.01740840967176,177.98775474700514L501.01011109685425,178.03873597353834L501.01011109685425,178.0885660110853L501.01740840967176,178.13954723761847L501.0326694565686,178.19165224387626L501.05629409030195,178.24416838905776L501.0884155951241,178.29668453423923L501.1291006131614,178.3489539960665L501.17838246547683,178.4008671374933L501.2364610784489,178.45245136778118L501.3036030205824,178.50381632397637L501.3805080342025,178.5552635079564L501.4680424669492,178.6069847845521L501.5675058402835,178.65933647416418L501.68053088629694,178.71262007866974L501.80931679515356,178.76721932773106L501.95662921509035,178.82346313248703L502.12580025241635,178.8817078133381L502.32086175576615,178.9421452351153L502.5461121422787,179.00485762560342L502.80588315015615,179.06959830144828L503.10347356464484,179.13579166815666L503.4402162282685,179.20228653674232L503.8146783353141,179.26768503486502L504.2227947160842,179.33039742535314L504.658967431979,179.38916288217416L505.1173652969573,179.44310430895763L505.5929235094288,179.4917009297336L506.08164354182225,179.5348705167173L506.5805598195223,179.57264047917042L507.0875731155541,179.60517527266222L507.6010840188892,179.63277639907025L508.1199929344454,179.65569054174864L508.64343351458234,179.6741369747899L509.1707726591012,179.68838979080994L509.7014772309925,179.69872308242444L510.2351473774992,179.70530130520294L510.77138324586406,179.7083985517611L511.30998490970853,179.70815186840693L511.8506191584018,179.70478052923298L512.3931527076913,179.69844898980867L512.9373856311986,179.68932170570355L513.4831513236082,179.67756313248705L514.0302831796048,179.66328290720543L514.5786812359988,179.64661807616662L515.1282788506642,179.62770568567848L515.6788760972224,179.60665537278737L516.2304729756734,179.5835767745396L516.7829695228279,179.5585521187198L517.3362324544336,179.53171845163598L517.8902284494274,179.50313059181116L518.444924186746,179.47287076703023L519.0001863821374,179.44104861433934L519.5560150356013,179.40769154300017L520.1123101839485,179.37288178079746L520.6690385061158,179.3367015555158L521.2261666810404,179.2991782764169L521.7836280665958,179.26036676202395L522.3413560206561,179.22032183086L522.8993172221581,179.17909830144822L523.4574783500384,179.13669617378866L524.0158060832343,179.093197675666L524.5742337796195,179.04857539781867L525.1326947970678,179.0028841587699L525.6911891355792,178.95615136778116L526.2496834740906,178.9083770248525L526.8080778494126,178.8595885392455L527.3663722615454,178.8097859109601L527.9245000683627,178.75896913999642L528.4823946277385,178.70716563561598L529.0399226554201,178.6543479885571L529.5969508671553,178.60054360808152L530.153079410187,178.54575249418917L530.7076418632535,178.49005687466476L531.2592387417045,178.4335937958162L531.805004434114,178.37663735025924L532.3393410018825,178.3198179510102L532.8524853735237,178.26420455927047L533.3299428865915,178.21155136778114L533.7560526414321,178.1637770248525L534.121051566559,178.12225199356337L534.3303078427866,178.06365099231178" class="line" style="fill:none; stroke:black; stroke-width:2"/>
                <path id="area" d="M534.3303078427866,178.06365099231178L534.121051566559,178.00504999106022L533.7560526414321,177.96352495977112L533.3299428865915,177.91575061684247L532.8524520524605,177.86309742535315L532.3393410018825,177.8074840336134L531.8049711130509,177.7506646343644L531.2592387417045,177.69370818880742L530.7076418632535,177.63724510995888L530.153079410187,177.58154949043447L529.5969508671553,177.52675837654212L529.0399226554201,177.47295399606654L528.4823946277385,177.42013634900772L527.9245000683627,177.3683328446272L527.3663722615454,177.3175160736635L526.8080778494126,177.26771344537815L526.2496834740906,177.21892495977113L525.6911891355792,177.17115061684248L525.1326947970678,177.12441782585373L524.5742004585562,177.07872658680495L524.0158060832343,177.03410430895764L523.4574783500384,176.99060581083498L522.8993172221581,176.9482036831754L522.3413560206561,176.90698015376364L521.7835947455328,176.86693522259972L521.2261666810404,176.8281237082067L520.6690385061158,176.79060042910783L520.1123101839485,176.75442020382624L519.5559817145382,176.71961044162347L519.0001863821374,176.68625337028428L518.444890865683,176.6544312175934L517.8902284494274,176.62417139281246L517.3362324544336,176.59558353298766L516.7829362017648,176.5687498659038L516.2304729756734,176.54372521008406L515.6788760972224,176.52064661183624L515.1282455296011,176.4995962989451L514.5786812359988,176.48068390845702L514.0302831796048,176.46401907741821L513.4831180025452,176.44973885213656L512.9373856311986,176.4379802789201L512.3931527076913,176.42885299481497L511.8506191584018,176.42252145539067L511.30995158864545,176.4191501162167L510.77138324586406,176.41890343286252L510.23511405643603,176.4220006794207L509.7014772309925,176.4285789021992L509.1707726591012,176.4389121938137L508.64343351458234,176.45316500983367L508.1199929344454,176.47161144287506L507.6010840188892,176.4945255855534L507.087539794491,176.52212671196136L506.5805598195223,176.55466150545323L506.0816102207591,176.59243146790632L505.5929235094288,176.63560105489003L505.1173652969573,176.68419767566607L504.658967431979,176.73813910244948L504.2227947160842,176.79690455927053L503.8146783353141,176.85961694975867L503.4402162282685,176.9250154478813L503.10347356464484,176.99151031646704L502.8058498290931,177.05770368317542L502.5461121422787,177.1224443590202L502.320828434703,177.18515674950834L502.12580025241635,177.24559417128555L501.95662921509035,177.30383885213658L501.80931679515356,177.36008265689256L501.68053088629694,177.41468190595387L501.5675058402835,177.4679655104595L501.4680424669492,177.5203172000715L501.3805080342025,177.57203847666727L501.3036030205824,177.62348566064728L501.2364610784489,177.67485061684252L501.17838246547683,177.72643484713032L501.1291006131614,177.77834798855713L501.0884155951241,177.83061745038444L501.05629409030195,177.88313359556588L501.0326694565686,177.93564974074732L501.01740840967176,177.98775474700514L501.01011109685425,178.03873597353834L501.01011109685425,178.0885660110853L501.01740840967176,178.13954723761847L501.0326694565686,178.19165224387626L501.05629409030195,178.24416838905776L501.0884155951241,178.29668453423923L501.1291006131614,178.3489539960665L501.17838246547683,178.4008671374933L501.2364610784489,178.45245136778118L501.3036030205824,178.50381632397637L501.3805080342025,178.5552635079564L501.4680424669492,178.6069847845521L501.5675058402835,178.65933647416418L501.68053088629694,178.71262007866974L501.80931679515356,178.76721932773106L501.95662921509035,178.82346313248703L502.12580025241635,178.8817078133381L502.32086175576615,178.9421452351153L502.5461121422787,179.00485762560342L502.80588315015615,179.06959830144828L503.10347356464484,179.13579166815666L503.4402162282685,179.20228653674232L503.8146783353141,179.26768503486502L504.2227947160842,179.33039742535314L504.658967431979,179.38916288217416L505.1173652969573,179.44310430895763L505.5929235094288,179.4917009297336L506.08164354182225,179.5348705167173L506.5805598195223,179.57264047917042L507.0875731155541,179.60517527266222L507.6010840188892,179.63277639907025L508.1199929344454,179.65569054174864L508.64343351458234,179.6741369747899L509.1707726591012,179.68838979080994L509.7014772309925,179.69872308242444L510.2351473774992,179.70530130520294L510.77138324586406,179.7083985517611L511.30998490970853,179.70815186840693L511.8506191584018,179.70478052923298L512.3931527076913,179.69844898980867L512.9373856311986,179.68932170570355L513.4831513236082,179.67756313248705L514.0302831796048,179.66328290720543L514.5786812359988,179.64661807616662L515.1282788506642,179.62770568567848L515.6788760972224,179.60665537278737L516.2304729756734,179.5835767745396L516.7829695228279,179.5585521187198L517.3362324544336,179.53171845163598L517.8902284494274,179.50313059181116L518.444924186746,179.47287076703023L519.0001863821374,179.44104861433934L519.5560150356013,179.40769154300017L520.1123101839485,179.37288178079746L520.6690385061158,179.3367015555158L521.2261666810404,179.2991782764169L521.7836280665958,179.26036676202395L522.3413560206561,179.22032183086L522.8993172221581,179.17909830144822L523.4574783500384,179.13669617378866L524.0158060832343,179.093197675666L524.5742337796195,179.04857539781867L525.1326947970678,179.0028841587699L525.6911891355792,178.95615136778116L526.2496834740906,178.9083770248525L526.8080778494126,178.8595885392455L527.3663722615454,178.8097859109601L527.9245000683627,178.75896913999642L528.4823946277385,178.70716563561598L529.0399226554201,178.6543479885571L529.5969508671553,178.60054360808152L530.153079410187,178.54575249418917L530.7076418632535,178.49005687466476L531.2592387417045,178.4335937958162L531.805004434114,178.37663735025924L532.3393410018825,178.3198179510102L532.8524853735237,178.26420455927047L533.3299428865915,178.21155136778114L533.7560526414321,178.1637770248525L534.121051566559,178.12225199356337L534.3303078427866,178.06365099231178L534.3303078427866,255L534.121051566559,255L533.7560526414321,255L533.3299428865915,255L532.8524853735237,255L532.3393410018825,255L531.805004434114,255L531.2592387417045,255L530.7076418632535,255L530.153079410187,255L529.5969508671553,255L529.0399226554201,255L528.4823946277385,255L527.9245000683627,255L527.3663722615454,255L526.8080778494126,255L526.2496834740906,255L525.6911891355792,255L525.1326947970678,255L524.5742337796195,255L524.0158060832343,255L523.4574783500384,255L522.8993172221581,255L522.3413560206561,255L521.7836280665958,255L521.2261666810404,255L520.6690385061158,255L520.1123101839485,255L519.5560150356013,255L519.0001863821374,255L518.444924186746,255L517.8902284494274,255L517.3362324544336,255L516.7829695228279,255L516.2304729756734,255L515.6788760972224,255L515.1282788506642,255L514.5786812359988,255L514.0302831796048,255L513.4831513236082,255L512.9373856311986,255L512.3931527076913,255L511.8506191584018,255L511.30998490970853,255L510.77138324586406,255L510.2351473774992,255L509.7014772309925,255L509.1707726591012,255L508.64343351458234,255L508.1199929344454,255L507.6010840188892,255L507.0875731155541,255L506.5805598195223,255L506.08164354182225,255L505.5929235094288,255L505.1173652969573,255L504.658967431979,255L504.2227947160842,255L503.8146783353141,255L503.4402162282685,255L503.10347356464484,255L502.80588315015615,255L502.5461121422787,255L502.32086175576615,255L502.12580025241635,255L501.95662921509035,255L501.80931679515356,255L501.68053088629694,255L501.5675058402835,255L501.4680424669492,255L501.3805080342025,255L501.3036030205824,255L501.2364610784489,255L501.17838246547683,255L501.1291006131614,255L501.0884155951241,255L501.05629409030195,255L501.0326694565686,255L501.01740840967176,255L501.01011109685425,255L501.01011109685425,255L501.01740840967176,255L501.0326694565686,255L501.05629409030195,255L501.0884155951241,255L501.1291006131614,255L501.17838246547683,255L501.2364610784489,255L501.3036030205824,255L501.3805080342025,255L501.4680424669492,255L501.5675058402835,255L501.68053088629694,255L501.80931679515356,255L501.95662921509035,255L502.12580025241635,255L502.320828434703,255L502.5461121422787,255L502.8058498290931,255L503.10347356464484,255L503.4402162282685,255L503.8146783353141,255L504.2227947160842,255L504.658967431979,255L505.1173652969573,255L505.5929235094288,255L506.0816102207591,255L506.5805598195223,255L507.087539794491,255L507.6010840188892,255L508.1199929344454,255L508.64343351458234,255L509.1707726591012,255L509.7014772309925,255L510.23511405643603,255L510.77138324586406,255L511.30995158864545,255L511.8506191584018,255L512.3931527076913,255L512.9373856311986,255L513.4831180025452,255L514.0302831796048,255L514.5786812359988,255L515.1282455296011,255L515.6788760972224,255L516.2304729756734,255L516.7829362017648,255L517.3362324544336,255L517.8902284494274,255L518.444890865683,255L519.0001863821374,255L519.5559817145382,255L520.1123101839485,255L520.6690385061158,255L521.2261666810404,255L521.7835947455328,255L522.3413560206561,255L522.8993172221581,255L523.4574783500384,255L524.0158060832343,255L524.5742004585562,255L525.1326947970678,255L525.6911891355792,255L526.2496834740906,255L526.8080778494126,255L527.3663722615454,255L527.9245000683627,255L528.4823946277385,255L529.0399226554201,255L529.5969508671553,255L530.153079410187,255L530.7076418632535,255L531.2592387417045,255L531.8049711130509,255L532.3393410018825,255L532.8524520524605,255L533.3299428865915,255L533.7560526414321,255L534.121051566559,255L534.3303078427866,255Z" class="area" style="fill:blue;" opacity="1"/>
            </g>
            <g id="xy" class="xy">
                <path id="line" d="M534.2421630341428,178.06365099231178L534.1228746715888,178.03024498122653L533.9148038557581,178.00657327552298L533.6718962792706,177.97933909529766L533.399698471086,177.94932368496336L533.1071950483201,177.91762078669763L532.802572839677,177.88523039334885L532.491473348927,177.8527618755587L532.1770307448315,177.8205746057572L531.8608975891011,177.78882483282675L531.5438716701477,177.75759068120865L531.2263328872153,177.72691902556764L530.9085091798502,177.6968098659038L530.5904765279007,177.66727882710532L530.272310911216,177.63831028428393L529.9540503197203,177.6099198623279L529.635732743338,177.58210756123728L529.3173581820693,177.55487338101196L528.9989836208006,177.52823294654033L528.6806090595317,177.50218625782227L528.3622914831493,177.47674893974613L528.0440118966915,177.45195224208834L527.7258272850446,177.42778053996068L527.4077566431708,177.4042807080279L527.0897999710702,177.38145274629002L526.7720332485915,177.35932790452355L526.4544374807725,177.33793743250493L526.1370696524998,177.31731258001074L525.8199297637733,177.2974689719292L525.5030937944418,177.27845348292507L525.1865427495434,177.26031298766316L524.8703526089263,177.24306311103166L524.5545423675533,177.2267663525836L524.2391310203861,177.21146958698372L523.9241945472736,177.1972040640086L523.6097519431783,177.18404790809944L523.2958601929863,177.17204799392093L522.9825762815844,177.1612668210263L522.6699571938592,177.15176688896838L522.358040919735,177.14362632218845L522.0469414289851,177.13692324512786L521.7366967115336,177.1317201573395L521.4274207371539,177.12811080815302L521.1192084806568,177.1261889468979L520.8121929067777,177.1260483229036L520.5064879852897,177.1278139352762L520.2022836658148,177.131563908457L519.8997509030125,177.1374544913284L519.5991366313915,177.14557943322006L519.3007447703467,177.1560949830145L519.0049362241597,177.16915738959415L518.7121858668854,177.18489165206506L518.4231775171626,177.2034383944216L518.1387469533274,177.22496949043443L517.8601668378469,177.24957868943324L517.5890707374695,177.27728161630606L517.3277570426197,177.30803139638837L517.079112987551,177.34153115680317L516.8464626906461,177.37728090112637L516.6329973055534,177.41456188449845L516.44103421766,177.4524678634007L516.2713712153777,177.4902019685321L516.1233054851057,177.52710795458609L515.9948805457382,177.56285769890937L515.8837030320393,177.5973105775076L515.787265609,177.6305134650456L515.7032888811574,177.66257573574111L515.6298733522925,177.6937005131414L515.5654424405436,177.72407529590555L515.5087424784061,177.75391883246917L515.4588427127326,177.78340299660292L515.4150023399978,177.81273091185415L515.3767274911847,177.84201195244057L515.3436192720873,177.87141799213305L515.315525723008,177.90101153048454L515.2923328741739,177.93080819238335L515.2740217306226,177.96074547827644L515.2605543024298,177.99068276416952L515.2518546097467,178.02038567673878L515.247694713027,178.04944796888967L515.247694713027,178.07785401573395L515.2518546097467,178.1069163078849L515.2605543024298,178.13661922045412L515.2740217306226,178.1665565063472L515.2923328741739,178.1964937922403L515.315525723008,178.2262904541391L515.3436192720873,178.2558839924906L515.3767274911847,178.28529003218313L515.4150023399978,178.31457107276952L515.4588427127326,178.34389898802073L515.5087424784061,178.37338315215447L515.5654424405436,178.40322668871806L515.6298733522925,178.43360147148223L515.7032888811574,178.46472624888258L515.787265609,178.49678851957805L515.8837030320393,178.529991407116L515.9948995407003,178.56444428571433L516.1233054851057,178.60019403003756L516.27139021034,178.63710001609152L516.44103421766,178.674834121223L516.6329973055534,178.71274010012516L516.8464626906461,178.75002108349724L517.079112987551,178.78577082782053L517.3277570426197,178.81927058823533L517.5890707374695,178.8500203683175L517.8601668378469,178.8777232951904L518.1387659482897,178.90233249418918L518.4231775171626,178.92386359020205L518.7122048618476,178.94241033255858L519.0049362241597,178.9581445950295L519.3007447703467,178.97120700160914L519.5991366313915,178.98172255140355L519.8997509030125,178.98984749329523L520.2022836658148,178.99573807616665L520.506506980252,178.99948804934738L520.8121929067777,179.00125366172003L521.119227475619,179.0011130377257L521.4274207371539,178.99919117647062L521.7366967115336,178.99558182728407L522.0469414289851,178.99037873949578L522.3580599146972,178.98367566243516L522.6699571938592,178.97553509565532L522.9825762815844,178.96603516359735L523.2958791879485,178.95525399070263L523.6097519431783,178.94325407652425L523.9241945472736,178.93009792061505L524.2391500153483,178.91583239763986L524.5545423675533,178.90053563204003L524.8703526089263,178.88423887359198L525.1865617445055,178.86698899696046L525.5030937944418,178.84884850169854L525.8199487587354,178.82983301269442L526.1370696524998,178.8099894046129L526.4544374807725,178.78936455211868L526.7720332485915,178.76797408010015L527.0898189660325,178.74584923833365L527.4077566431708,178.72302127659572L527.7258272850446,178.699521444663L528.0440118966915,178.6753497425353L528.3622914831493,178.65055304487754L528.6806280544939,178.6251157268014L528.9989836208006,178.59906903808337L529.3173581820693,178.57242860361168L529.635732743338,178.54519442338636L529.9540503197203,178.51738212229571L530.272310911216,178.4889917003397L530.5904765279007,178.46002315751838L530.9085091798502,178.43049211871985L531.2263328872153,178.40038295905595L531.5438716701477,178.369711303415L531.8608975891011,178.3384771517969L532.1770307448315,178.30672737886644L532.491473348927,178.27454010906493L532.8025918346392,178.2420715912748L533.1071950483201,178.20968119792593L533.3997174660482,178.1779782996603L533.6718962792706,178.14796288932595L533.9148038557581,178.12072870910063L534.1228746715888,178.09705700339708L534.2421630341428,178.06365099231178" class="line" style="fill:none; stroke:black; stroke-width:2"/>
                <path id="area" d="M534.2421630341428,178.06365099231178L534.1228746715888,178.03024498122653L533.9148038557581,178.00657327552298L533.6718962792706,177.97933909529766L533.399698471086,177.94932368496336L533.1071950483201,177.91762078669763L532.802572839677,177.88523039334885L532.491473348927,177.8527618755587L532.1770307448315,177.8205746057572L531.8608975891011,177.78882483282675L531.5438716701477,177.75759068120865L531.2263328872153,177.72691902556764L530.9085091798502,177.6968098659038L530.5904765279007,177.66727882710532L530.272310911216,177.63831028428393L529.9540503197203,177.6099198623279L529.635732743338,177.58210756123728L529.3173581820693,177.55487338101196L528.9989836208006,177.52823294654033L528.6806090595317,177.50218625782227L528.3622914831493,177.47674893974613L528.0440118966915,177.45195224208834L527.7258272850446,177.42778053996068L527.4077566431708,177.4042807080279L527.0897999710702,177.38145274629002L526.7720332485915,177.35932790452355L526.4544374807725,177.33793743250493L526.1370696524998,177.31731258001074L525.8199297637733,177.2974689719292L525.5030937944418,177.27845348292507L525.1865427495434,177.26031298766316L524.8703526089263,177.24306311103166L524.5545423675533,177.2267663525836L524.2391310203861,177.21146958698372L523.9241945472736,177.1972040640086L523.6097519431783,177.18404790809944L523.2958601929863,177.17204799392093L522.9825762815844,177.1612668210263L522.6699571938592,177.15176688896838L522.358040919735,177.14362632218845L522.0469414289851,177.13692324512786L521.7366967115336,177.1317201573395L521.4274207371539,177.12811080815302L521.1192084806568,177.1261889468979L520.8121929067777,177.1260483229036L520.5064879852897,177.1278139352762L520.2022836658148,177.131563908457L519.8997509030125,177.1374544913284L519.5991366313915,177.14557943322006L519.3007447703467,177.1560949830145L519.0049362241597,177.16915738959415L518.7121858668854,177.18489165206506L518.4231775171626,177.2034383944216L518.1387469533274,177.22496949043443L517.8601668378469,177.24957868943324L517.5890707374695,177.27728161630606L517.3277570426197,177.30803139638837L517.079112987551,177.34153115680317L516.8464626906461,177.37728090112637L516.6329973055534,177.41456188449845L516.44103421766,177.4524678634007L516.2713712153777,177.4902019685321L516.1233054851057,177.52710795458609L515.9948805457382,177.56285769890937L515.8837030320393,177.5973105775076L515.787265609,177.6305134650456L515.7032888811574,177.66257573574111L515.6298733522925,177.6937005131414L515.5654424405436,177.72407529590555L515.5087424784061,177.75391883246917L515.4588427127326,177.78340299660292L515.4150023399978,177.81273091185415L515.3767274911847,177.84201195244057L515.3436192720873,177.87141799213305L515.315525723008,177.90101153048454L515.2923328741739,177.93080819238335L515.2740217306226,177.96074547827644L515.2605543024298,177.99068276416952L515.2518546097467,178.02038567673878L515.247694713027,178.04944796888967L515.247694713027,178.07785401573395L515.2518546097467,178.1069163078849L515.2605543024298,178.13661922045412L515.2740217306226,178.1665565063472L515.2923328741739,178.1964937922403L515.315525723008,178.2262904541391L515.3436192720873,178.2558839924906L515.3767274911847,178.28529003218313L515.4150023399978,178.31457107276952L515.4588427127326,178.34389898802073L515.5087424784061,178.37338315215447L515.5654424405436,178.40322668871806L515.6298733522925,178.43360147148223L515.7032888811574,178.46472624888258L515.787265609,178.49678851957805L515.8837030320393,178.529991407116L515.9948995407003,178.56444428571433L516.1233054851057,178.60019403003756L516.27139021034,178.63710001609152L516.44103421766,178.674834121223L516.6329973055534,178.71274010012516L516.8464626906461,178.75002108349724L517.079112987551,178.78577082782053L517.3277570426197,178.81927058823533L517.5890707374695,178.8500203683175L517.8601668378469,178.8777232951904L518.1387659482897,178.90233249418918L518.4231775171626,178.92386359020205L518.7122048618476,178.94241033255858L519.0049362241597,178.9581445950295L519.3007447703467,178.97120700160914L519.5991366313915,178.98172255140355L519.8997509030125,178.98984749329523L520.2022836658148,178.99573807616665L520.506506980252,178.99948804934738L520.8121929067777,179.00125366172003L521.119227475619,179.0011130377257L521.4274207371539,178.99919117647062L521.7366967115336,178.99558182728407L522.0469414289851,178.99037873949578L522.3580599146972,178.98367566243516L522.6699571938592,178.97553509565532L522.9825762815844,178.96603516359735L523.2958791879485,178.95525399070263L523.6097519431783,178.94325407652425L523.9241945472736,178.93009792061505L524.2391500153483,178.91583239763986L524.5545423675533,178.90053563204003L524.8703526089263,178.88423887359198L525.1865617445055,178.86698899696046L525.5030937944418,178.84884850169854L525.8199487587354,178.82983301269442L526.1370696524998,178.8099894046129L526.4544374807725,178.78936455211868L526.7720332485915,178.76797408010015L527.0898189660325,178.74584923833365L527.4077566431708,178.72302127659572L527.7258272850446,178.699521444663L528.0440118966915,178.6753497425353L528.3622914831493,178.65055304487754L528.6806280544939,178.6251157268014L528.9989836208006,178.59906903808337L529.3173581820693,178.57242860361168L529.635732743338,178.54519442338636L529.9540503197203,178.51738212229571L530.272310911216,178.4889917003397L530.5904765279007,178.46002315751838L530.9085091798502,178.43049211871985L531.2263328872153,178.40038295905595L531.5438716701477,178.369711303415L531.8608975891011,178.3384771517969L532.1770307448315,178.30672737886644L532.491473348927,178.27454010906493L532.8025918346392,178.2420715912748L533.1071950483201,178.20968119792593L533.3997174660482,178.1779782996603L533.6718962792706,178.14796288932595L533.9148038557581,178.12072870910063L534.1228746715888,178.09705700339708L534.2421630341428,178.06365099231178L534.2421630341428,255L534.1228746715888,255L533.9148038557581,255L533.6718962792706,255L533.3997174660482,255L533.1071950483201,255L532.8025918346392,255L532.491473348927,255L532.1770307448315,255L531.8608975891011,255L531.5438716701477,255L531.2263328872153,255L530.9085091798502,255L530.5904765279007,255L530.272310911216,255L529.9540503197203,255L529.635732743338,255L529.3173581820693,255L528.9989836208006,255L528.6806280544939,255L528.3622914831493,255L528.0440118966915,255L527.7258272850446,255L527.4077566431708,255L527.0898189660325,255L526.7720332485915,255L526.4544374807725,255L526.1370696524998,255L525.8199487587354,255L525.5030937944418,255L525.1865617445055,255L524.8703526089263,255L524.5545423675533,255L524.2391500153483,255L523.9241945472736,255L523.6097519431783,255L523.2958791879485,255L522.9825762815844,255L522.6699571938592,255L522.3580599146972,255L522.0469414289851,255L521.7366967115336,255L521.4274207371539,255L521.119227475619,255L520.8121929067777,255L520.506506980252,255L520.2022836658148,255L519.8997509030125,255L519.5991366313915,255L519.3007447703467,255L519.0049362241597,255L518.7122048618476,255L518.4231775171626,255L518.1387659482897,255L517.8601668378469,255L517.5890707374695,255L517.3277570426197,255L517.079112987551,255L516.8464626906461,255L516.6329973055534,255L516.44103421766,255L516.27139021034,255L516.1233054851057,255L515.9948995407003,255L515.8837030320393,255L515.787265609,255L515.7032888811574,255L515.6298733522925,255L515.5654424405436,255L515.5087424784061,255L515.4588427127326,255L515.4150023399978,255L515.3767274911847,255L515.3436192720873,255L515.315525723008,255L515.2923328741739,255L515.2740217306226,255L515.2605543024298,255L515.2518546097467,255L515.247694713027,255L515.247694713027,255L515.2518546097467,255L515.2605543024298,255L515.2740217306226,255L515.2923328741739,255L515.315525723008,255L515.3436192720873,255L515.3767274911847,255L515.4150023399978,255L515.4588427127326,255L515.5087424784061,255L515.5654424405436,255L515.6298733522925,255L515.7032888811574,255L515.787265609,255L515.8837030320393,255L515.9948805457382,255L516.1233054851057,255L516.2713712153777,255L516.44103421766,255L516.6329973055534,255L516.8464626906461,255L517.079112987551,255L517.3277570426197,255L517.5890707374695,255L517.8601668378469,255L518.1387469533274,255L518.4231775171626,255L518.7121858668854,255L519.0049362241597,255L519.3007447703467,255L519.5991366313915,255L519.8997509030125,255L520.2022836658148,255L520.5064879852897,255L520.8121929067777,255L521.1192084806568,255L521.4274207371539,255L521.7366967115336,255L522.0469414289851,255L522.358040919735,255L522.6699571938592,255L522.9825762815844,255L523.2958601929863,255L523.6097519431783,255L523.9241945472736,255L524.2391310203861,255L524.5545423675533,255L524.8703526089263,255L525.1865427495434,255L525.5030937944418,255L525.8199297637733,255L526.1370696524998,255L526.4544374807725,255L526.7720332485915,255L527.0897999710702,255L527.4077566431708,255L527.7258272850446,255L528.0440118966915,255L528.3622914831493,255L528.6806090595317,255L528.9989836208006,255L529.3173581820693,255L529.635732743338,255L529.9540503197203,255L530.272310911216,255L530.5904765279007,255L530.9085091798502,255L531.2263328872153,255L531.5438716701477,255L531.8608975891011,255L532.1770307448315,255L532.491473348927,255L532.802572839677,255L533.1071950483201,255L533.399698471086,255L533.6718962792706,255L533.9148038557581,255L534.1228746715888,255L534.2421630341428,255Z" class="area" style="fill:blue;" opacity="1"/>
            </g>
            <g id="xy" class="xy">
                <path id="line" d="M299.38420925316314,279.9418916502771L299.3831311747417,279.84055598344975L299.37989726970284,279.7392513566489L299.3745085286206,279.63800880039315L299.3669666021148,279.53685932618845L299.3572738003455,279.4358339170288L299.34543309230503,279.3349635179059L299.3314481049089,279.2342790263307L299.31532312188443,279.1338112828687L299.29706308245915,279.0335910616938L299.27667357984717,278.9336490611613L299.2541608595369,278.8340158944053L299.22953181737694,278.73472207996116L299.2027939974646,278.6357980324175L299.1739555898345,278.5372740531003L299.14302542795065,278.4391803207908L299.1100129859996,278.3415468824817L299.0749283759896,278.2444036441737L299.0377823446522,278.1477803617147L298.9985862701511,278.05170663168536L298.95735215859656,277.9562118823337L298.914092640368,277.8613253645606L298.86882096624487,277.76707614296015L298.8215510033484,277.6734930869169L298.7722972308937,277.58060486176294L298.7210747357541,277.4884399199973L298.6678992078409,277.39702649257094L298.6127869352967,277.3063925802392L298.5557547995064,277.21656594498484L298.49682026992645,277.12757410151437L298.43600139873337,277.0394443088301L298.37331681529474,276.9522035618806L298.30878572046225,276.8658785832915L298.2424278806911,276.78049581518036L298.17426362198444,276.69608141105743L298.1043138236681,276.612661227814L298.0325999119946,276.53026081780285L297.95914385358043,276.448905421011L297.8839681486771,276.36861995732835L297.80709582427943,276.2894290189148L297.728550427072,276.2113568626674L297.6483560162166,276.13442740278987L297.5665371559829,276.05866420346797L297.4831189082239,275.98409047165137L297.3981268246995,275.910729049945L297.3115869392493,275.8386024096126L297.2235257598192,275.76773264369274L297.13397026034056,275.6981414602324L297.0429478724687,275.62985017563744L296.9504864771798,275.5628797081426L296.85661439623146,275.4972505714046L296.76136038348636,275.4329828682186L296.66475361610577,275.3700962843602L296.5668236856117,275.3086100825559L296.46760058882296,275.2485430965825L296.36711471866687,275.1899137254983L296.26539685486944,275.13273992800714L296.16247815452766,275.0770392169576L296.0583901425653,275.0228286539785L295.9531647020771,274.97012484425323L295.84683406456213,274.91894393143275L295.7394308000513,274.8693015926913L295.6309878071309,274.8212130339236L295.5215383028653,274.7746929850882L295.4111158126225,274.7297556956944L295.29975415980476,274.6864149304383L295.1874874554881,274.6446839649862L295.0743500879743,274.60457558190836L294.960376712257,274.56610206676334L294.8456022394065,274.529275204335L294.7300618258766,274.49410627502266L294.6137908627354,274.46060605138575L294.4968249648251,274.4287847948442L294.37919995985254,274.3986522525352L294.26095187741515,274.3702176543276L294.1421169379644,274.34348970999457L294.0227315417114,274.3184766065461L293.90283225747714,274.2951860057205L293.78245581149133,274.2736250416387L293.66163907614225,274.25380031861783L293.540419058683,274.23571790914895L293.41883288989567,274.2193833520368L293.29691781271754,274.20480165070313L293.17471117083375,274.19197727165425L293.0522503972382,274.1809141431129L292.9295730027676,274.17161565381485L292.8067165646118,274.1640846519711L292.683718714803,274.1583234443952L292.56061712868933,274.15433379579684L292.43744951339414,274.15211692824136L292.3142535962662,274.1516735207752L292.1910671133233,274.1530037092181L292.0679277976935,274.1561070861214L291.94487336805724,274.1609827008926L291.8219415170933,274.1676290600873L291.69916989993374,274.17604412786574L291.5765961226295,274.1862253266169L291.45425773063135,274.19816953774824L291.33219219728954,274.2118731026402L291.21043691237514,274.22733182376766L291.0890291706274,274.24454096598515L290.9680061603299,274.2634952579777L290.84740495191966,274.28418889387507L290.7272624866318,274.3066155350304L290.6076155651844,274.3307683119617L290.4885008365061,274.3566398264563L290.3699547865099,274.38422215383616L290.2520137269175,274.4135068453865L290.1347137841366,274.44448493094274L290.01809088819505,274.4771469216386L289.90218076173517,274.51148281281246L289.78701890907166,274.5474820870719L289.6726406053159,274.58513371751525L289.55908088557163,274.6244261711095L289.4463745342027,274.66534741222256L289.33455607417847,274.7078849063099L289.2236597564994,274.7520256237546L289.1137195497053,274.79775604385765L289.0047691294707,274.84506215897994L288.8968418682896,274.8939294788328L288.7899708252531,274.94434303491647L288.6841887359232,274.9962873851052L288.57952800230566,275.04974661837707L288.47602068292485,275.1047043596879L288.373698483004,275.1611437749873L288.27259274475347,275.2190475763743L288.17273443777054,275.2783980273938L288.0741541495532,275.3391769484685L287.97688207613066,275.40136572246803L287.88094801281414,275.46494530041144L287.7863813450705,275.529896207302L287.69321103952075,275.59619854809245L287.6014656350677,275.6638320137793L287.51117323415446,275.7327758876236L287.42236149415555,275.80300905149636L287.33505761890615,275.8745099923476L287.24928835036866,275.9472568087959L287.16507996044174,276.02122721783684L287.08245824291294,276.09639856166854L287.00144850555756,276.1727478146321L286.92207556238714,276.2502515902644L286.84436372604824,276.32888614846155L286.7683368003756,276.40862740275105L286.6940180731005,276.48945092766917L286.62143030871783,276.5713319662431L286.55059574151284,276.6542454375739L286.48153606875087,276.7381659445194L286.4142724440309,276.8230677814732L286.34882547080656,276.90892494223885L286.28521519607443,276.9957111279955L286.22346110423405,277.08339975535364L286.16358211111935,277.1719639644976L286.10559655820464,277.2613766274135L286.0495222069866,277.3516103561981L285.9953762335433,277.4426375114485L285.9431752232738,277.5344302107279L285.89293516581705,277.6269603371068L285.84467145015475,277.7201995477749L285.7983988598973,277.8141192827231L285.75413156875527,277.9086907734915L285.7118831361983,278.0038850519817L285.6716665033014,278.0996729593296L285.63349398878114,278.19602515483746L285.597377285222,278.2929121249608L285.5633274554954,278.39030419234905L285.53135492937054,278.4881715249356L285.5014695003197,278.5864841450761L285.47368032251865,278.6852119387303L285.4479959080428,278.7843246646868L285.4244241242592,278.8837919638259L285.40297219141735,278.98358336841886L285.3836466804374,279.08366831146077L285.366453510897,279.18401613603294L285.3513979492189,279.284596104694L285.338484607057,279.3853774088944L285.3277174398842,279.4863291784141L285.31909974578076,279.58742049081775L285.3126341644238,279.6886203809267L285.3083226762791,279.78989785030427L285.3061666019943,279.8912218767503L285.3061666019943,279.9925614238038L285.3083226762791,280.0938854502498L285.3126341644238,280.19516291962736L285.31909974578076,280.2963628097364L285.32771743988417,280.39745412214L285.338484607057,280.49840589165973L285.3513979492189,280.59918719586017L285.366453510897,280.6997671645211L285.3836466804374,280.80011498909334L285.4029721914173,280.9001999321352L285.4244241242592,280.9999913367283L285.44799590804274,281.09945863586734L285.47368032251865,281.19857136182384L285.5014695003196,281.2972991554781L285.5313549293705,281.3956117756185L285.5633274554954,281.49347910820507L285.597377285222,281.59087117559335L285.6334939887811,281.68775814571677L285.6716665033014,281.7841103412246L285.71188313619825,281.87989824857254L285.7541315687552,281.97509252706266L285.79839885989713,282.0696640178311L285.8446714501547,282.1635837527793L285.89293516581694,282.25682296344735L285.94317522327367,282.34935308982625L285.99537623354325,282.4411457891057L286.04952220698647,282.53217294435603L286.10559655820464,282.62240667314063L286.1635821111193,282.7118193360565L286.22346110423393,282.8003835452006L286.2852151960743,282.8880721725587L286.34882547080645,282.97485835831526L286.41427244403087,283.060715519081L286.48153606875076,283.1456173560348L286.5505957415128,283.22953786298024L286.6214303087177,283.3124513343111L286.69401807310044,283.39433237288495L286.7683368003755,283.475155897803L286.84436372604813,283.55489715209256L286.922075562387,283.6335317102898L287.00144850555745,283.7110354859221L287.0824582429128,283.78738473888563L287.16507996044163,283.8625560827174L287.2492883503686,283.93652649175823L287.33505761890603,284.0092733082065L287.42236149415544,284.0807742490578L287.51117323415434,284.1510074129306L287.60146563506765,284.21995128677486L287.6932110395206,284.2875847524618L287.78638134507037,284.3538870932522L287.88094801281403,284.4188380001427L287.97688207613055,284.48241757808614L288.07415414955307,284.54460635208574L288.1727344377704,284.6053852731604L288.2725927447533,284.6647357241798L288.37369848300386,284.7226395255669L288.47602068292474,284.7790789408662L288.5795280023055,284.83403668217716L288.68418873592304,284.887495915449L288.7899708252529,284.93944026563776L288.89684186828947,284.9898538217214L289.00476912947056,285.03872114157423L289.11371954970514,285.0860272566966L289.22365975649916,285.1317576767996L289.3345560741783,285.17589839424426L289.44637453420245,285.21843588833167L289.55908088557146,285.2593571294447L289.67264060531573,285.2986495830389L289.7870189090714,285.33630121348233L289.902180761735,285.37230048774177L290.0180908881948,285.40663637891555L290.1347137841364,285.43929836961144L290.25201372691726,285.4702764551678L290.3699547865097,285.49956114671807L290.48850083650586,285.52714347409807L290.60761556518423,285.5530149885925L290.7272624866316,285.57716776552377L290.84740495191943,285.59959440667916L290.9680061603297,285.62028804257653L291.0890291706272,285.6392423345691L291.2104369123749,285.6564514767866L291.3321921972893,285.67191019791403L291.4542577306311,285.68561376280604L291.5765961226293,285.69755797393725L291.69916989993357,285.7077391726885L291.8219415170931,285.716154240467L291.9448733680571,285.72280059966164L292.06792779769336,285.72767621443296L292.19106711332313,285.7307795913361L292.314253596266,285.732109779779L292.437449513394,285.7316663723129L292.56061712868905,285.72944950475744L292.6837187148028,285.7254598561591L292.8067165646116,285.71969864858323L292.9295730027674,285.7121676467393L293.05225039723797,285.70286915744134L293.1747111708336,285.69180602890003L293.2969178127173,285.67898164985115L293.41883288989544,285.66439994851754L293.54041905868286,285.64806539140534L293.6616390761421,285.62998298193645L293.7824558114911,285.61015825891565L293.902832257477,285.5885972948338L294.02273154171115,285.56530669400826L294.14211693796415,285.5402935905597L294.2609518774149,285.5135656462267L294.3791999598524,285.48513104801907L294.4968249648249,285.4549985057101L294.61379086273513,285.42317724916853L294.7300618258764,285.3896770255316L294.8456022394063,285.3545080962193L294.9603767122568,285.317681233791L295.07435008797415,285.279207718646L295.1874874554879,285.23909933556814L295.29975415980454,285.1973683701161L295.41111581262226,285.15402760486L295.5215383028651,285.10909031546623L295.6309878071307,285.06257026663076L295.7394308000511,285.0144817078631L295.84683406456196,284.96483936912165L295.9531647020769,284.91365845630116L296.05839014256514,284.86095464657586L296.1624781545275,284.80674408359687L296.2653968548692,284.7510433725472L296.3671147186666,284.69386957505606L296.4676005888228,284.6352402039719L296.5668236856115,284.5751732179985L296.6647536161056,284.5136870161942L296.76136038348614,284.4508004323358L296.8566143962313,284.3865327291498L296.95048647717965,284.32090359241175L297.0429478724685,284.2539331249169L297.13397026034033,284.1856418403219L297.22352575981904,284.1160506568617L297.3115869392492,284.0451808909419L297.3981268246992,283.9730542506094L297.48311890822373,283.899692828903L297.5665371559827,283.82511909708643L297.64835601621644,283.7493558977646L297.7285504270718,283.67242643788705L297.80709582427926,283.59435428163965L297.88396814867696,283.5151633432261L297.9591438535803,283.4348778795434L298.0325999119945,283.35352248275154L298.1043138236679,283.27112207274047L298.1742636219843,283.18770188949713L298.2424278806909,283.1032874853741L298.30878572046214,283.01790471726304L298.3733168152945,282.9315797386739L298.43600139873325,282.8443389917243L298.4968202699263,282.75620919904014L298.55575479950625,282.66721735556973L298.6127869352965,282.5773907203152L298.6678992078408,282.48675680798345L298.7210747357539,282.3953433805571L298.77229723089357,282.3031784387915L298.82155100334836,282.2102902136376L298.8688209662448,282.1167071575944L298.91409264036787,282.02245793599394L298.95735215859645,281.9275714182208L298.998586270151,281.83207666886915L299.0377823446521,281.7360029388398L299.0749283759895,281.63937965638075L299.11001298599956,281.5422364180728L299.14302542795053,281.4446029797638L299.17395558983446,281.3465092474542L299.2027939974645,281.247985268137L299.2295318173769,281.14906122059347L299.25416085953685,281.0497674061492L299.27667357984717,280.95013423939326L299.297063082459,280.8501922388607L299.3153231218844,280.7499720176858L299.3314481049089,280.6495042742239L299.34543309230503,280.54881978264865L299.35727380034547,280.4479493835257L299.3669666021148,280.3469239743661L299.3745085286206,280.24577450016136L299.37989726970284,280.1445319439057L299.3831311747417,280.0432273171048L299.38420925316314,279.9418916502771" class="line" style="fill:none; stroke:black; stroke-width:2"/>
            </g>
            <g id="xy" class="xy">
                <path id="line" d="M228.26264974074738,233.1577418201323L232.01294242748148,232.87714825168464L235.7632351142156,232.60754567357867L239.51352780094976,232.359925076156L243.2638204876839,232.14527744975828L247.01411317441801,231.9745937847272L250.76440586115217,231.85886507140444L254.51469854788633,231.80908230013162L258.2649912346204,231.8360410658666L262.0152839213546,231.9429409680199L265.7655766080887,232.12311413911758L269.5158692948229,232.36923325226522L273.266161981557,232.6739709805684L277.0164546682911,233.02999999713268L280.7667473550253,233.42999297506344L284.51704004175946,233.86662258746654L288.26733272849356,234.33256150744742L292.0176254152277,234.82048240811153L295.7679181019618,235.32305796256455L299.5182107886959,235.83296084391202L299.5182107886959,238.5175666011085L295.7679181019618,239.9442564123204L292.0176254152277,241.35383392157874L288.26733272849356,242.7291868269302L284.51704004175946,244.05320282642128L280.7667473550253,245.3087696180984L277.0164546682911,246.47877490000818L273.266161981557,247.5461063701971L269.5158692948229,248.4936517267117L265.7655766080887,249.30429866759854L262.0152839213546,249.96093489090413L258.2649912346204,250.4464480946749L254.51469854788633,250.74526608413336L250.76440586115217,250.86486123113244L247.01411317441801,250.83044566055025L243.2638204876839,250.66768782531702L239.51352780094976,250.40225617836293L235.7632351142156,250.0598191726182L232.01294242748148,249.6660452610131L228.26264974074738,249.24660289647773L228.26264974074738,233.1577418201323" class="line" style="fill:none; stroke:black; stroke-width:2"/>
                <path id="area" d="M228.26264974074738,233.1577418201323L232.01294242748148,232.87714825168464L235.7632351142156,232.60754567357867L239.51352780094976,232.359925076156L243.2638204876839,232.14527744975828L247.01411317441801,231.9745937847272L250.76440586115217,231.85886507140444L254.51469854788633,231.80908230013162L258.2649912346204,231.8360410658666L262.0152839213546,231.9429409680199L265.7655766080887,232.12311413911758L269.5158692948229,232.36923325226522L273.266161981557,232.6739709805684L277.0164546682911,233.02999999713268L280.7667473550253,233.42999297506344L284.51704004175946,233.86662258746654L288.26733272849356,234.33256150744742L292.0176254152277,234.82048240811153L295.7679181019618,235.32305796256455L299.5182107886959,235.83296084391202L299.5182107886959,238.5175666011085L295.7679181019618,239.9442564123204L292.0176254152277,241.35383392157874L288.26733272849356,242.7291868269302L284.51704004175946,244.05320282642128L280.7667473550253,245.3087696180984L277.0164546682911,246.47877490000818L273.266161981557,247.5461063701971L269.5158692948229,248.4936517267117L265.7655766080887,249.30429866759854L262.0152839213546,249.96093489090413L258.2649912346204,250.4464480946749L254.51469854788633,250.74526608413336L250.76440586115217,250.86486123113244L247.01411317441801,250.83044566055025L243.2638204876839,250.66768782531702L239.51352780094976,250.40225617836293L235.7632351142156,250.0598191726182L232.01294242748148,249.6660452610131L228.26264974074738,249.24660289647773L228.26264974074738,233.1577418201323L228.26264974074738,255L228.26264974074738,255L232.01294242748148,255L235.7632351142156,255L239.51352780094976,255L243.2638204876839,255L247.01411317441801,255L250.76440586115217,255L254.51469854788633,255L258.2649912346204,255L262.0152839213546,255L265.7655766080887,255L269.5158692948229,255L273.266161981557,255L277.0164546682911,255L280.7667473550253,255L284.51704004175946,255L288.26733272849356,255L292.0176254152277,255L295.7679181019618,255L299.5182107886959,255L299.5182107886959,255L295.7679181019618,255L292.0176254152277,255L288.26733272849356,255L284.51704004175946,255L280.7667473550253,255L277.0164546682911,255L273.266161981557,255L269.5158692948229,255L265.7655766080887,255L262.0152839213546,255L258.2649912346204,255L254.51469854788633,255L250.76440586115217,255L247.01411317441801,255L243.2638204876839,255L239.51352780094976,255L235.7632351142156,255L232.01294242748148,255L228.26264974074738,255Z" class="area" style="fill:orange;" opacity="1"/>
            </g>
            <g id="xy" class="xy">
                <path id="line" d="M228.26264974074738,233.1577418201323L232.01294242748148,232.87714825168464L235.7632351142156,232.60754567357867L239.51352780094976,232.359925076156L243.2638204876839,232.14527744975828L247.01411317441801,231.9745937847272L250.76440586115217,231.85886507140444L254.51469854788633,231.80908230013162L258.2649912346204,231.8360410658666L262.0152839213546,231.9429409680199L265.7655766080887,232.12311413911758L269.5158692948229,232.36923325226522L273.266161981557,232.6739709805684L277.0164546682911,233.02999999713268L280.7667473550253,233.42999297506344L284.51704004175946,233.86662258746654L288.26733272849356,234.33256150744742L292.0176254152277,234.82048240811153L295.7679181019618,235.32305796256455L299.5182107886959,235.83296084391202L299.5182107886959,238.5175666011085L295.7679181019618,239.9442564123204L292.0176254152277,241.35383392157874L288.26733272849356,242.7291868269302L284.51704004175946,244.05320282642128L280.7667473550253,245.3087696180984L277.0164546682911,246.47877490000818L273.266161981557,247.5461063701971L269.5158692948229,248.4936517267117L265.7655766080887,249.30429866759854L262.0152839213546,249.96093489090413L258.2649912346204,250.4464480946749L254.51469854788633,250.74526608413336L250.76440586115217,250.86486123113244L247.01411317441801,250.83044566055025L243.2638204876839,250.66768782531702L239.51352780094976,250.40225617836293L235.7632351142156,250.0598191726182L232.01294242748148,249.6660452610131L228.26264974074738,249.24660289647773L228.26264974074738,233.1577418201323" class="line" style="fill:none; stroke:black; stroke-width:2"/>
                <path id="area" d="M228.26264974074738,233.1577418201323L232.01294242748148,232.87714825168464L235.7632351142156,232.60754567357867L239.51352780094976,232.359925076156L243.2638204876839,232.14527744975828L247.01411317441801,231.9745937847272L250.76440586115217,231.85886507140444L254.51469854788633,231.80908230013162L258.2649912346204,231.8360410658666L262.0152839213546,231.9429409680199L265.7655766080887,232.12311413911758L269.5158692948229,232.36923325226522L273.266161981557,232.6739709805684L277.0164546682911,233.02999999713268L280.7667473550253,233.42999297506344L284.51704004175946,233.86662258746654L288.26733272849356,234.33256150744742L292.0176254152277,234.82048240811153L295.7679181019618,235.32305796256455L299.5182107886959,235.83296084391202L299.5182107886959,238.5175666011085L295.7679181019618,239.9442564123204L292.0176254152277,241.35383392157874L288.26733272849356,242.7291868269302L284.51704004175946,244.05320282642128L280.7667473550253,245.3087696180984L277.0164546682911,246.47877490000818L273.266161981557,247.5461063701971L269.5158692948229,248.4936517267117L265.7655766080887,249.30429866759854L262.0152839213546,249.96093489090413L258.2649912346204,250.4464480946749L254.51469854788633,250.74526608413336L250.76440586115217,250.86486123113244L247.01411317441801,250.83044566055025L243.2638204876839,250.66768782531702L239.51352780094976,250.40225617836293L235.7632351142156,250.0598191726182L232.01294242748148,249.6660452610131L228.26264974074738,249.24660289647773L228.26264974074738,233.1577418201323L228.26264974074738,255L228.26264974074738,255L232.01294242748148,255L235.7632351142156,255L239.51352780094976,255L243.2638204876839,255L247.01411317441801,255L250.76440586115217,255L254.51469854788633,255L258.2649912346204,255L262.0152839213546,255L265.7655766080887,255L269.5158692948229,255L273.266161981557,255L277.0164546682911,255L280.7667473550253,255L284.51704004175946,255L288.26733272849356,255L292.0176254152277,255L295.7679181019618,255L299.5182107886959,255L299.5182107886959,255L295.7679181019618,255L292.0176254152277,255L288.26733272849356,255L284.51704004175946,255L280.7667473550253,255L277.0164546682911,255L273.266161981557,255L269.5158692948229,255L265.7655766080887,255L262.0152839213546,255L258.2649912346204,255L254.51469854788633,255L250.76440586115217,255L247.01411317441801,255L243.2638204876839,255L239.51352780094976,255L235.7632351142156,255L232.01294242748148,255L228.26264974074738,255Z" class="area" style="fill:orange;" opacity="1"/>
            </g>
        </g>
    </g>
    <text class="x label" text-anchor="middle" x="370" y="595">x (m)</text>
    <text class="y label" text-anchor="middle" x="-295" y="5" dy=".75em" transform="rotate(-90)">z (m)</text>
    <text class="title" text-anchor="middle" x="370" y="20">Aircraft data representation - Side View</text>
</svg>
