<!DOCTYPE svg PUBLIC "-//W3C//DTD SVG 1.1//EN" "http://www.w3.org/Graphics/SVG/1.1/DTD/svg11.dtd">
<svg xmlns="http://www.w3.org/2000/svg" xmlns:xlink="http://www.w3.org/1999/xlink" xmlns:jfreesvg="http://www.jfree.org/jfreesvg/svg" width="350" height="600" text-rendering="auto" shape-rendering="auto">
<defs><clipPath id="_94063662146275clip-0"><path d="M 0 0 L 350 0 L 350 600 L 0 600 L 0 0 Z "/></clipPath>
<clipPath id="_94063662146275clip-1"><path d="M 312 273 L 312 623 L -288 623 L -288 273 L 312 273 Z "/></clipPath>
<clipPath id="_94063662146275clip-2"><path d="M 64 35 L 64 550 L 338 550 L 338 35 Z "/></clipPath>
</defs>
<rect x="0" y="0" width="350" height="600" style="fill: rgb(245,245,245); fill-opacity: 1.0" transform="matrix(1,0,0,1,0,0)" clip-path="url(#_94063662146275clip-0)"/><g transform="matrix(1,0,0,1,0,0)"><text x="133" y="21.01" style="fill: rgb(0,0,0); fill-opacity: 1.0; font-family: Tahoma; font-size: 20px; font-weight: bold;" clip-path="url(#_94063662146275clip-0)">Cl Curve</text></g><rect x="64" y="35" width="274" height="515" style="fill: rgb(240,248,255); fill-opacity: 0.0" transform="matrix(1,0,0,1,0,0)" clip-path="url(#_94063662146275clip-0)"/><line x1="64" y1="554" x2="338" y2="554" style="stroke-width: 0.5;stroke: rgb(128,128,128);stroke-opacity: 1.0;stroke-linecap: square;shape-rendering:crispEdges;" transform="matrix(1,0,0,1,0,0)" clip-path="url(#_94063662146275clip-0)"/><g transform="matrix(1,0,0,1,0,0)"><text x="67.95" y="570.52" style="fill: rgb(64,64,64); fill-opacity: 1.0; font-family: Tahoma; font-size: 12px;" clip-path="url(#_94063662146275clip-0)">-30</text></g><line x1="76.45" y1="556" x2="76.45" y2="554" style="stroke-width: 0.5;stroke: rgb(128,128,128);stroke-opacity: 1.0;stroke-linecap: square;shape-rendering:crispEdges;" transform="matrix(1,0,0,1,0,0)" clip-path="url(#_94063662146275clip-0)"/><g transform="matrix(1,0,0,1,0,0)"><text x="109.47" y="570.52" style="fill: rgb(64,64,64); fill-opacity: 1.0; font-family: Tahoma; font-size: 12px;" clip-path="url(#_94063662146275clip-0)">-20</text></g><line x1="117.97" y1="556" x2="117.97" y2="554" style="stroke-width: 0.5;stroke: rgb(128,128,128);stroke-opacity: 1.0;stroke-linecap: square;shape-rendering:crispEdges;" transform="matrix(1,0,0,1,0,0)" clip-path="url(#_94063662146275clip-0)"/><g transform="matrix(1,0,0,1,0,0)"><text x="150.98" y="570.52" style="fill: rgb(64,64,64); fill-opacity: 1.0; font-family: Tahoma; font-size: 12px;" clip-path="url(#_94063662146275clip-0)">-10</text></g><line x1="159.48" y1="556" x2="159.48" y2="554" style="stroke-width: 0.5;stroke: rgb(128,128,128);stroke-opacity: 1.0;stroke-linecap: square;shape-rendering:crispEdges;" transform="matrix(1,0,0,1,0,0)" clip-path="url(#_94063662146275clip-0)"/><g transform="matrix(1,0,0,1,0,0)"><text x="197.5" y="570.52" style="fill: rgb(64,64,64); fill-opacity: 1.0; font-family: Tahoma; font-size: 12px;" clip-path="url(#_94063662146275clip-0)">0</text></g><line x1="201" y1="556" x2="201" y2="554" style="stroke-width: 0.5;stroke: rgb(128,128,128);stroke-opacity: 1.0;stroke-linecap: square;shape-rendering:crispEdges;" transform="matrix(1,0,0,1,0,0)" clip-path="url(#_94063662146275clip-0)"/><g transform="matrix(1,0,0,1,0,0)"><text x="236.02" y="570.52" style="fill: rgb(64,64,64); fill-opacity: 1.0; font-family: Tahoma; font-size: 12px;" clip-path="url(#_94063662146275clip-0)">10</text></g><line x1="242.52" y1="556" x2="242.52" y2="554" style="stroke-width: 0.5;stroke: rgb(128,128,128);stroke-opacity: 1.0;stroke-linecap: square;shape-rendering:crispEdges;" transform="matrix(1,0,0,1,0,0)" clip-path="url(#_94063662146275clip-0)"/><g transform="matrix(1,0,0,1,0,0)"><text x="277.53" y="570.52" style="fill: rgb(64,64,64); fill-opacity: 1.0; font-family: Tahoma; font-size: 12px;" clip-path="url(#_94063662146275clip-0)">20</text></g><line x1="284.03" y1="556" x2="284.03" y2="554" style="stroke-width: 0.5;stroke: rgb(128,128,128);stroke-opacity: 1.0;stroke-linecap: square;shape-rendering:crispEdges;" transform="matrix(1,0,0,1,0,0)" clip-path="url(#_94063662146275clip-0)"/><g transform="matrix(1,0,0,1,0,0)"><text x="319.05" y="570.52" style="fill: rgb(64,64,64); fill-opacity: 1.0; font-family: Tahoma; font-size: 12px;" clip-path="url(#_94063662146275clip-0)">30</text></g><line x1="325.55" y1="556" x2="325.55" y2="554" style="stroke-width: 0.5;stroke: rgb(128,128,128);stroke-opacity: 1.0;stroke-linecap: square;shape-rendering:crispEdges;" transform="matrix(1,0,0,1,0,0)" clip-path="url(#_94063662146275clip-0)"/><g transform="matrix(1,0,0,1,0,0)"><text x="159.5" y="589.59" style="fill: rgb(64,64,64); fill-opacity: 1.0; font-family: Tahoma; font-size: 14px; font-weight: bold;" clip-path="url(#_94063662146275clip-0)">Alpha (deg)</text></g><line x1="60" y1="35" x2="60" y2="550" style="stroke-width: 0.5;stroke: rgb(128,128,128);stroke-opacity: 1.0;stroke-linecap: square;shape-rendering:crispEdges;" transform="matrix(1,0,0,1,0,0)" clip-path="url(#_94063662146275clip-0)"/><g transform="matrix(1,0,0,1,0,0)"><text x="33" y="513.56" style="fill: rgb(64,64,64); fill-opacity: 1.0; font-family: Tahoma; font-size: 12px;" clip-path="url(#_94063662146275clip-0)">-3,5</text></g><line x1="58" y1="508.53" x2="60" y2="508.53" style="stroke-width: 0.5;stroke: rgb(128,128,128);stroke-opacity: 1.0;stroke-linecap: square;shape-rendering:crispEdges;" transform="matrix(1,0,0,1,0,0)" clip-path="url(#_94063662146275clip-0)"/><g transform="matrix(1,0,0,1,0,0)"><text x="33" y="470.86" style="fill: rgb(64,64,64); fill-opacity: 1.0; font-family: Tahoma; font-size: 12px;" clip-path="url(#_94063662146275clip-0)">-3,0</text></g><line x1="58" y1="465.84" x2="60" y2="465.84" style="stroke-width: 0.5;stroke: rgb(128,128,128);stroke-opacity: 1.0;stroke-linecap: square;shape-rendering:crispEdges;" transform="matrix(1,0,0,1,0,0)" clip-path="url(#_94063662146275clip-0)"/><g transform="matrix(1,0,0,1,0,0)"><text x="33" y="428.17" style="fill: rgb(64,64,64); fill-opacity: 1.0; font-family: Tahoma; font-size: 12px;" clip-path="url(#_94063662146275clip-0)">-2,5</text></g><line x1="58" y1="423.15" x2="60" y2="423.15" style="stroke-width: 0.5;stroke: rgb(128,128,128);stroke-opacity: 1.0;stroke-linecap: square;shape-rendering:crispEdges;" transform="matrix(1,0,0,1,0,0)" clip-path="url(#_94063662146275clip-0)"/><g transform="matrix(1,0,0,1,0,0)"><text x="33" y="385.48" style="fill: rgb(64,64,64); fill-opacity: 1.0; font-family: Tahoma; font-size: 12px;" clip-path="url(#_94063662146275clip-0)">-2,0</text></g><line x1="58" y1="380.46" x2="60" y2="380.46" style="stroke-width: 0.5;stroke: rgb(128,128,128);stroke-opacity: 1.0;stroke-linecap: square;shape-rendering:crispEdges;" transform="matrix(1,0,0,1,0,0)" clip-path="url(#_94063662146275clip-0)"/><g transform="matrix(1,0,0,1,0,0)"><text x="33" y="342.79" style="fill: rgb(64,64,64); fill-opacity: 1.0; font-family: Tahoma; font-size: 12px;" clip-path="url(#_94063662146275clip-0)">-1,5</text></g><line x1="58" y1="337.77" x2="60" y2="337.77" style="stroke-width: 0.5;stroke: rgb(128,128,128);stroke-opacity: 1.0;stroke-linecap: square;shape-rendering:crispEdges;" transform="matrix(1,0,0,1,0,0)" clip-path="url(#_94063662146275clip-0)"/><g transform="matrix(1,0,0,1,0,0)"><text x="33" y="300.1" style="fill: rgb(64,64,64); fill-opacity: 1.0; font-family: Tahoma; font-size: 12px;" clip-path="url(#_94063662146275clip-0)">-1,0</text></g><line x1="58" y1="295.07" x2="60" y2="295.07" style="stroke-width: 0.5;stroke: rgb(128,128,128);stroke-opacity: 1.0;stroke-linecap: square;shape-rendering:crispEdges;" transform="matrix(1,0,0,1,0,0)" clip-path="url(#_94063662146275clip-0)"/><g transform="matrix(1,0,0,1,0,0)"><text x="33" y="257.4" style="fill: rgb(64,64,64); fill-opacity: 1.0; font-family: Tahoma; font-size: 12px;" clip-path="url(#_94063662146275clip-0)">-0,5</text></g><line x1="58" y1="252.38" x2="60" y2="252.38" style="stroke-width: 0.5;stroke: rgb(128,128,128);stroke-opacity: 1.0;stroke-linecap: square;shape-rendering:crispEdges;" transform="matrix(1,0,0,1,0,0)" clip-path="url(#_94063662146275clip-0)"/><g transform="matrix(1,0,0,1,0,0)"><text x="37" y="214.71" style="fill: rgb(64,64,64); fill-opacity: 1.0; font-family: Tahoma; font-size: 12px;" clip-path="url(#_94063662146275clip-0)">0,0</text></g><line x1="58" y1="209.69" x2="60" y2="209.69" style="stroke-width: 0.5;stroke: rgb(128,128,128);stroke-opacity: 1.0;stroke-linecap: square;shape-rendering:crispEdges;" transform="matrix(1,0,0,1,0,0)" clip-path="url(#_94063662146275clip-0)"/><g transform="matrix(1,0,0,1,0,0)"><text x="37" y="172.02" style="fill: rgb(64,64,64); fill-opacity: 1.0; font-family: Tahoma; font-size: 12px;" clip-path="url(#_94063662146275clip-0)">0,5</text></g><line x1="58" y1="167" x2="60" y2="167" style="stroke-width: 0.5;stroke: rgb(128,128,128);stroke-opacity: 1.0;stroke-linecap: square;shape-rendering:crispEdges;" transform="matrix(1,0,0,1,0,0)" clip-path="url(#_94063662146275clip-0)"/><g transform="matrix(1,0,0,1,0,0)"><text x="37" y="129.33" style="fill: rgb(64,64,64); fill-opacity: 1.0; font-family: Tahoma; font-size: 12px;" clip-path="url(#_94063662146275clip-0)">1,0</text></g><line x1="58" y1="124.31" x2="60" y2="124.31" style="stroke-width: 0.5;stroke: rgb(128,128,128);stroke-opacity: 1.0;stroke-linecap: square;shape-rendering:crispEdges;" transform="matrix(1,0,0,1,0,0)" clip-path="url(#_94063662146275clip-0)"/><g transform="matrix(1,0,0,1,0,0)"><text x="37" y="86.64" style="fill: rgb(64,64,64); fill-opacity: 1.0; font-family: Tahoma; font-size: 12px;" clip-path="url(#_94063662146275clip-0)">1,5</text></g><line x1="58" y1="81.61" x2="60" y2="81.61" style="stroke-width: 0.5;stroke: rgb(128,128,128);stroke-opacity: 1.0;stroke-linecap: square;shape-rendering:crispEdges;" transform="matrix(1,0,0,1,0,0)" clip-path="url(#_94063662146275clip-0)"/><g transform="matrix(1,0,0,1,0,0)"><text x="37" y="43.94" style="fill: rgb(64,64,64); fill-opacity: 1.0; font-family: Tahoma; font-size: 12px;" clip-path="url(#_94063662146275clip-0)">2,0</text></g><line x1="58" y1="38.92" x2="60" y2="38.92" style="stroke-width: 0.5;stroke: rgb(128,128,128);stroke-opacity: 1.0;stroke-linecap: square;shape-rendering:crispEdges;" transform="matrix(1,0,0,1,0,0)" clip-path="url(#_94063662146275clip-0)"/><g style="fill: rgb(64,64,64); fill-opacity: 1.0; stroke: none" transform="matrix(0,-1,1,0,-273,312)" clip-path="url(#_94063662146275clip-1)"><path d="M 17.94 298.31 Q 15.66 298.31 14.3 296.92 Q 12.95 295.53 12.95 293.03 Q 12.95 290.61 14.3 289.17 Q 15.66 287.73 17.95 287.73 Q 18.56 287.73 19.05 287.8 Q 19.53 287.87 19.97 287.98 Q 20.33 288.09 20.73 288.27 Q 21.14 288.45 21.39 288.58 L 21.39 291 L 21.14 291 Q 20.95 290.84 20.67 290.62 Q 20.39 290.39 20.03 290.17 Q 19.67 289.95 19.25 289.8 Q 18.83 289.64 18.36 289.64 Q 17.81 289.64 17.34 289.81 Q 16.88 289.98 16.47 290.42 Q 16.08 290.81 15.84 291.48 Q 15.59 292.14 15.59 293.03 Q 15.59 293.98 15.85 294.63 Q 16.11 295.28 16.52 295.67 Q 16.91 296.06 17.4 296.23 Q 17.89 296.41 18.38 296.41 Q 18.88 296.41 19.34 296.23 Q 19.8 296.06 20.11 295.86 Q 20.45 295.64 20.71 295.42 Q 20.97 295.2 21.16 295.05 L 21.39 295.05 L 21.39 297.44 Q 21.11 297.56 20.74 297.73 Q 20.38 297.89 19.98 298.01 Q 19.5 298.16 19.09 298.23 Q 18.67 298.31 17.94 298.31 Z  M 25.16 298.11 L 22.77 298.11 L 22.77 287.47 L 25.16 287.47 L 25.16 298.11 Z "/></g><line x1="76.45" y1="35" x2="76.45" y2="550" style="stroke-width: 0.5;stroke: rgb(128,128,128);stroke-opacity: 0.5;stroke-linejoin: bevel;stroke-dasharray: 2.0, 2.0;shape-rendering:crispEdges;" transform="matrix(1,0,0,1,0,0)" clip-path="url(#_94063662146275clip-2)"/><line x1="117.97" y1="35" x2="117.97" y2="550" style="stroke-width: 0.5;stroke: rgb(128,128,128);stroke-opacity: 0.5;stroke-linejoin: bevel;stroke-dasharray: 2.0, 2.0;shape-rendering:crispEdges;" transform="matrix(1,0,0,1,0,0)" clip-path="url(#_94063662146275clip-2)"/><line x1="159.48" y1="35" x2="159.48" y2="550" style="stroke-width: 0.5;stroke: rgb(128,128,128);stroke-opacity: 0.5;stroke-linejoin: bevel;stroke-dasharray: 2.0, 2.0;shape-rendering:crispEdges;" transform="matrix(1,0,0,1,0,0)" clip-path="url(#_94063662146275clip-2)"/><line x1="201" y1="35" x2="201" y2="550" style="stroke-width: 0.5;stroke: rgb(128,128,128);stroke-opacity: 0.5;stroke-linejoin: bevel;stroke-dasharray: 2.0, 2.0;shape-rendering:crispEdges;" transform="matrix(1,0,0,1,0,0)" clip-path="url(#_94063662146275clip-2)"/><line x1="242.52" y1="35" x2="242.52" y2="550" style="stroke-width: 0.5;stroke: rgb(128,128,128);stroke-opacity: 0.5;stroke-linejoin: bevel;stroke-dasharray: 2.0, 2.0;shape-rendering:crispEdges;" transform="matrix(1,0,0,1,0,0)" clip-path="url(#_94063662146275clip-2)"/><line x1="284.03" y1="35" x2="284.03" y2="550" style="stroke-width: 0.5;stroke: rgb(128,128,128);stroke-opacity: 0.5;stroke-linejoin: bevel;stroke-dasharray: 2.0, 2.0;shape-rendering:crispEdges;" transform="matrix(1,0,0,1,0,0)" clip-path="url(#_94063662146275clip-2)"/><line x1="325.55" y1="35" x2="325.55" y2="550" style="stroke-width: 0.5;stroke: rgb(128,128,128);stroke-opacity: 0.5;stroke-linejoin: bevel;stroke-dasharray: 2.0, 2.0;shape-rendering:crispEdges;" transform="matrix(1,0,0,1,0,0)" clip-path="url(#_94063662146275clip-2)"/><line x1="64" y1="508.53" x2="338" y2="508.53" style="stroke-width: 0.5;stroke: rgb(128,128,128);stroke-opacity: 0.5;stroke-linejoin: bevel;stroke-dasharray: 2.0, 2.0;shape-rendering:crispEdges;" transform="matrix(1,0,0,1,0,0)" clip-path="url(#_94063662146275clip-2)"/><line x1="64" y1="465.84" x2="338" y2="465.84" style="stroke-width: 0.5;stroke: rgb(128,128,128);stroke-opacity: 0.5;stroke-linejoin: bevel;stroke-dasharray: 2.0, 2.0;shape-rendering:crispEdges;" transform="matrix(1,0,0,1,0,0)" clip-path="url(#_94063662146275clip-2)"/><line x1="64" y1="423.15" x2="338" y2="423.15" style="stroke-width: 0.5;stroke: rgb(128,128,128);stroke-opacity: 0.5;stroke-linejoin: bevel;stroke-dasharray: 2.0, 2.0;shape-rendering:crispEdges;" transform="matrix(1,0,0,1,0,0)" clip-path="url(#_94063662146275clip-2)"/><line x1="64" y1="380.46" x2="338" y2="380.46" style="stroke-width: 0.5;stroke: rgb(128,128,128);stroke-opacity: 0.5;stroke-linejoin: bevel;stroke-dasharray: 2.0, 2.0;shape-rendering:crispEdges;" transform="matrix(1,0,0,1,0,0)" clip-path="url(#_94063662146275clip-2)"/><line x1="64" y1="337.77" x2="338" y2="337.77" style="stroke-width: 0.5;stroke: rgb(128,128,128);stroke-opacity: 0.5;stroke-linejoin: bevel;stroke-dasharray: 2.0, 2.0;shape-rendering:crispEdges;" transform="matrix(1,0,0,1,0,0)" clip-path="url(#_94063662146275clip-2)"/><line x1="64" y1="295.07" x2="338" y2="295.07" style="stroke-width: 0.5;stroke: rgb(128,128,128);stroke-opacity: 0.5;stroke-linejoin: bevel;stroke-dasharray: 2.0, 2.0;shape-rendering:crispEdges;" transform="matrix(1,0,0,1,0,0)" clip-path="url(#_94063662146275clip-2)"/><line x1="64" y1="252.38" x2="338" y2="252.38" style="stroke-width: 0.5;stroke: rgb(128,128,128);stroke-opacity: 0.5;stroke-linejoin: bevel;stroke-dasharray: 2.0, 2.0;shape-rendering:crispEdges;" transform="matrix(1,0,0,1,0,0)" clip-path="url(#_94063662146275clip-2)"/><line x1="64" y1="209.69" x2="338" y2="209.69" style="stroke-width: 0.5;stroke: rgb(128,128,128);stroke-opacity: 0.5;stroke-linejoin: bevel;stroke-dasharray: 2.0, 2.0;shape-rendering:crispEdges;" transform="matrix(1,0,0,1,0,0)" clip-path="url(#_94063662146275clip-2)"/><line x1="64" y1="167" x2="338" y2="167" style="stroke-width: 0.5;stroke: rgb(128,128,128);stroke-opacity: 0.5;stroke-linejoin: bevel;stroke-dasharray: 2.0, 2.0;shape-rendering:crispEdges;" transform="matrix(1,0,0,1,0,0)" clip-path="url(#_94063662146275clip-2)"/><line x1="64" y1="124.31" x2="338" y2="124.31" style="stroke-width: 0.5;stroke: rgb(128,128,128);stroke-opacity: 0.5;stroke-linejoin: bevel;stroke-dasharray: 2.0, 2.0;shape-rendering:crispEdges;" transform="matrix(1,0,0,1,0,0)" clip-path="url(#_94063662146275clip-2)"/><line x1="64" y1="81.61" x2="338" y2="81.61" style="stroke-width: 0.5;stroke: rgb(128,128,128);stroke-opacity: 0.5;stroke-linejoin: bevel;stroke-dasharray: 2.0, 2.0;shape-rendering:crispEdges;" transform="matrix(1,0,0,1,0,0)" clip-path="url(#_94063662146275clip-2)"/><line x1="64" y1="38.92" x2="338" y2="38.92" style="stroke-width: 0.5;stroke: rgb(128,128,128);stroke-opacity: 0.5;stroke-linejoin: bevel;stroke-dasharray: 2.0, 2.0;shape-rendering:crispEdges;" transform="matrix(1,0,0,1,0,0)" clip-path="url(#_94063662146275clip-2)"/><line x1="91.71" y1="481.18" x2="76.45" y2="519.06" style="stroke-width: 1.5;stroke: rgb(0,0,0);stroke-opacity: 0.5;stroke-linecap: round;stroke-linejoin: round;shape-rendering:geometricPrecision;" transform="matrix(1,0,0,1,0,0)" clip-path="url(#_94063662146275clip-2)"/><line x1="76.45" y1="519.06" x2="81.54" y2="506.44" style="stroke-width: 1.5;stroke: rgb(0,0,0);stroke-opacity: 0.5;stroke-linecap: round;stroke-linejoin: round;shape-rendering:geometricPrecision;" transform="matrix(1,0,0,1,0,0)" clip-path="url(#_94063662146275clip-2)"/><line x1="81.54" y1="506.44" x2="86.62" y2="493.81" style="stroke-width: 1.5;stroke: rgb(0,0,0);stroke-opacity: 0.5;stroke-linecap: round;stroke-linejoin: round;shape-rendering:geometricPrecision;" transform="matrix(1,0,0,1,0,0)" clip-path="url(#_94063662146275clip-2)"/><line x1="86.62" y1="493.81" x2="96.79" y2="468.55" style="stroke-width: 1.5;stroke: rgb(0,0,0);stroke-opacity: 0.5;stroke-linecap: round;stroke-linejoin: round;shape-rendering:geometricPrecision;" transform="matrix(1,0,0,1,0,0)" clip-path="url(#_94063662146275clip-2)"/><line x1="96.79" y1="468.55" x2="101.87" y2="455.93" style="stroke-width: 1.5;stroke: rgb(0,0,0);stroke-opacity: 0.5;stroke-linecap: round;stroke-linejoin: round;shape-rendering:geometricPrecision;" transform="matrix(1,0,0,1,0,0)" clip-path="url(#_94063662146275clip-2)"/><line x1="101.87" y1="455.93" x2="106.96" y2="443.3" style="stroke-width: 1.5;stroke: rgb(0,0,0);stroke-opacity: 0.5;stroke-linecap: round;stroke-linejoin: round;shape-rendering:geometricPrecision;" transform="matrix(1,0,0,1,0,0)" clip-path="url(#_94063662146275clip-2)"/><line x1="106.96" y1="443.3" x2="112.04" y2="430.67" style="stroke-width: 1.5;stroke: rgb(0,0,0);stroke-opacity: 0.5;stroke-linecap: round;stroke-linejoin: round;shape-rendering:geometricPrecision;" transform="matrix(1,0,0,1,0,0)" clip-path="url(#_94063662146275clip-2)"/><line x1="112.04" y1="430.67" x2="117.12" y2="418.04" style="stroke-width: 1.5;stroke: rgb(0,0,0);stroke-opacity: 0.5;stroke-linecap: round;stroke-linejoin: round;shape-rendering:geometricPrecision;" transform="matrix(1,0,0,1,0,0)" clip-path="url(#_94063662146275clip-2)"/><line x1="117.12" y1="418.04" x2="122.21" y2="405.42" style="stroke-width: 1.5;stroke: rgb(0,0,0);stroke-opacity: 0.5;stroke-linecap: round;stroke-linejoin: round;shape-rendering:geometricPrecision;" transform="matrix(1,0,0,1,0,0)" clip-path="url(#_94063662146275clip-2)"/><line x1="122.21" y1="405.42" x2="127.29" y2="392.79" style="stroke-width: 1.5;stroke: rgb(0,0,0);stroke-opacity: 0.5;stroke-linecap: round;stroke-linejoin: round;shape-rendering:geometricPrecision;" transform="matrix(1,0,0,1,0,0)" clip-path="url(#_94063662146275clip-2)"/><line x1="127.29" y1="392.79" x2="132.37" y2="380.16" style="stroke-width: 1.5;stroke: rgb(0,0,0);stroke-opacity: 0.5;stroke-linecap: round;stroke-linejoin: round;shape-rendering:geometricPrecision;" transform="matrix(1,0,0,1,0,0)" clip-path="url(#_94063662146275clip-2)"/><line x1="132.37" y1="380.16" x2="137.46" y2="367.53" style="stroke-width: 1.5;stroke: rgb(0,0,0);stroke-opacity: 0.5;stroke-linecap: round;stroke-linejoin: round;shape-rendering:geometricPrecision;" transform="matrix(1,0,0,1,0,0)" clip-path="url(#_94063662146275clip-2)"/><line x1="137.46" y1="367.53" x2="142.54" y2="354.91" style="stroke-width: 1.5;stroke: rgb(0,0,0);stroke-opacity: 0.5;stroke-linecap: round;stroke-linejoin: round;shape-rendering:geometricPrecision;" transform="matrix(1,0,0,1,0,0)" clip-path="url(#_94063662146275clip-2)"/><line x1="142.54" y1="354.91" x2="147.62" y2="342.28" style="stroke-width: 1.5;stroke: rgb(0,0,0);stroke-opacity: 0.5;stroke-linecap: round;stroke-linejoin: round;shape-rendering:geometricPrecision;" transform="matrix(1,0,0,1,0,0)" clip-path="url(#_94063662146275clip-2)"/><line x1="147.62" y1="342.28" x2="152.71" y2="329.65" style="stroke-width: 1.5;stroke: rgb(0,0,0);stroke-opacity: 0.5;stroke-linecap: round;stroke-linejoin: round;shape-rendering:geometricPrecision;" transform="matrix(1,0,0,1,0,0)" clip-path="url(#_94063662146275clip-2)"/><line x1="152.71" y1="329.65" x2="157.79" y2="317.02" style="stroke-width: 1.5;stroke: rgb(0,0,0);stroke-opacity: 0.5;stroke-linecap: round;stroke-linejoin: round;shape-rendering:geometricPrecision;" transform="matrix(1,0,0,1,0,0)" clip-path="url(#_94063662146275clip-2)"/><line x1="157.79" y1="317.02" x2="162.87" y2="304.4" style="stroke-width: 1.5;stroke: rgb(0,0,0);stroke-opacity: 0.5;stroke-linecap: round;stroke-linejoin: round;shape-rendering:geometricPrecision;" transform="matrix(1,0,0,1,0,0)" clip-path="url(#_94063662146275clip-2)"/><line x1="162.87" y1="304.4" x2="167.96" y2="291.77" style="stroke-width: 1.5;stroke: rgb(0,0,0);stroke-opacity: 0.5;stroke-linecap: round;stroke-linejoin: round;shape-rendering:geometricPrecision;" transform="matrix(1,0,0,1,0,0)" clip-path="url(#_94063662146275clip-2)"/><line x1="167.96" y1="291.77" x2="173.04" y2="279.14" style="stroke-width: 1.5;stroke: rgb(0,0,0);stroke-opacity: 0.5;stroke-linecap: round;stroke-linejoin: round;shape-rendering:geometricPrecision;" transform="matrix(1,0,0,1,0,0)" clip-path="url(#_94063662146275clip-2)"/><line x1="173.04" y1="279.14" x2="178.12" y2="266.51" style="stroke-width: 1.5;stroke: rgb(0,0,0);stroke-opacity: 0.5;stroke-linecap: round;stroke-linejoin: round;shape-rendering:geometricPrecision;" transform="matrix(1,0,0,1,0,0)" clip-path="url(#_94063662146275clip-2)"/><line x1="178.12" y1="266.51" x2="183.21" y2="253.89" style="stroke-width: 1.5;stroke: rgb(0,0,0);stroke-opacity: 0.5;stroke-linecap: round;stroke-linejoin: round;shape-rendering:geometricPrecision;" transform="matrix(1,0,0,1,0,0)" clip-path="url(#_94063662146275clip-2)"/><line x1="183.21" y1="253.89" x2="188.29" y2="241.26" style="stroke-width: 1.5;stroke: rgb(0,0,0);stroke-opacity: 0.5;stroke-linecap: round;stroke-linejoin: round;shape-rendering:geometricPrecision;" transform="matrix(1,0,0,1,0,0)" clip-path="url(#_94063662146275clip-2)"/><line x1="188.29" y1="241.26" x2="193.37" y2="228.63" style="stroke-width: 1.5;stroke: rgb(0,0,0);stroke-opacity: 0.5;stroke-linecap: round;stroke-linejoin: round;shape-rendering:geometricPrecision;" transform="matrix(1,0,0,1,0,0)" clip-path="url(#_94063662146275clip-2)"/><line x1="193.37" y1="228.63" x2="198.46" y2="216" style="stroke-width: 1.5;stroke: rgb(0,0,0);stroke-opacity: 0.5;stroke-linecap: round;stroke-linejoin: round;shape-rendering:geometricPrecision;" transform="matrix(1,0,0,1,0,0)" clip-path="url(#_94063662146275clip-2)"/><line x1="198.46" y1="216" x2="203.54" y2="203.38" style="stroke-width: 1.5;stroke: rgb(0,0,0);stroke-opacity: 0.5;stroke-linecap: round;stroke-linejoin: round;shape-rendering:geometricPrecision;" transform="matrix(1,0,0,1,0,0)" clip-path="url(#_94063662146275clip-2)"/><line x1="203.54" y1="203.38" x2="208.63" y2="190.75" style="stroke-width: 1.5;stroke: rgb(0,0,0);stroke-opacity: 0.5;stroke-linecap: round;stroke-linejoin: round;shape-rendering:geometricPrecision;" transform="matrix(1,0,0,1,0,0)" clip-path="url(#_94063662146275clip-2)"/><line x1="208.63" y1="190.75" x2="213.71" y2="178.12" style="stroke-width: 1.5;stroke: rgb(0,0,0);stroke-opacity: 0.5;stroke-linecap: round;stroke-linejoin: round;shape-rendering:geometricPrecision;" transform="matrix(1,0,0,1,0,0)" clip-path="url(#_94063662146275clip-2)"/><line x1="213.71" y1="178.12" x2="218.79" y2="165.49" style="stroke-width: 1.5;stroke: rgb(0,0,0);stroke-opacity: 0.5;stroke-linecap: round;stroke-linejoin: round;shape-rendering:geometricPrecision;" transform="matrix(1,0,0,1,0,0)" clip-path="url(#_94063662146275clip-2)"/><line x1="218.79" y1="165.49" x2="223.88" y2="152.87" style="stroke-width: 1.5;stroke: rgb(0,0,0);stroke-opacity: 0.5;stroke-linecap: round;stroke-linejoin: round;shape-rendering:geometricPrecision;" transform="matrix(1,0,0,1,0,0)" clip-path="url(#_94063662146275clip-2)"/><line x1="223.88" y1="152.87" x2="228.96" y2="140.24" style="stroke-width: 1.5;stroke: rgb(0,0,0);stroke-opacity: 0.5;stroke-linecap: round;stroke-linejoin: round;shape-rendering:geometricPrecision;" transform="matrix(1,0,0,1,0,0)" clip-path="url(#_94063662146275clip-2)"/><line x1="228.96" y1="140.24" x2="234.04" y2="127.61" style="stroke-width: 1.5;stroke: rgb(0,0,0);stroke-opacity: 0.5;stroke-linecap: round;stroke-linejoin: round;shape-rendering:geometricPrecision;" transform="matrix(1,0,0,1,0,0)" clip-path="url(#_94063662146275clip-2)"/><line x1="234.04" y1="127.61" x2="239.13" y2="114.98" style="stroke-width: 1.5;stroke: rgb(0,0,0);stroke-opacity: 0.5;stroke-linecap: round;stroke-linejoin: round;shape-rendering:geometricPrecision;" transform="matrix(1,0,0,1,0,0)" clip-path="url(#_94063662146275clip-2)"/><line x1="239.13" y1="114.98" x2="244.21" y2="102.36" style="stroke-width: 1.5;stroke: rgb(0,0,0);stroke-opacity: 0.5;stroke-linecap: round;stroke-linejoin: round;shape-rendering:geometricPrecision;" transform="matrix(1,0,0,1,0,0)" clip-path="url(#_94063662146275clip-2)"/><line x1="244.21" y1="102.36" x2="249.29" y2="89.98" style="stroke-width: 1.5;stroke: rgb(0,0,0);stroke-opacity: 0.5;stroke-linecap: round;stroke-linejoin: round;shape-rendering:geometricPrecision;" transform="matrix(1,0,0,1,0,0)" clip-path="url(#_94063662146275clip-2)"/><line x1="249.29" y1="89.98" x2="254.38" y2="79.22" style="stroke-width: 1.5;stroke: rgb(0,0,0);stroke-opacity: 0.5;stroke-linecap: round;stroke-linejoin: round;shape-rendering:geometricPrecision;" transform="matrix(1,0,0,1,0,0)" clip-path="url(#_94063662146275clip-2)"/><line x1="254.38" y1="79.22" x2="259.46" y2="70.27" style="stroke-width: 1.5;stroke: rgb(0,0,0);stroke-opacity: 0.5;stroke-linecap: round;stroke-linejoin: round;shape-rendering:geometricPrecision;" transform="matrix(1,0,0,1,0,0)" clip-path="url(#_94063662146275clip-2)"/><line x1="259.46" y1="70.27" x2="264.54" y2="63.06" style="stroke-width: 1.5;stroke: rgb(0,0,0);stroke-opacity: 0.5;stroke-linecap: round;stroke-linejoin: round;shape-rendering:geometricPrecision;" transform="matrix(1,0,0,1,0,0)" clip-path="url(#_94063662146275clip-2)"/><line x1="264.54" y1="63.06" x2="269.63" y2="57.57" style="stroke-width: 1.5;stroke: rgb(0,0,0);stroke-opacity: 0.5;stroke-linecap: round;stroke-linejoin: round;shape-rendering:geometricPrecision;" transform="matrix(1,0,0,1,0,0)" clip-path="url(#_94063662146275clip-2)"/><line x1="269.63" y1="57.57" x2="274.71" y2="53.74" style="stroke-width: 1.5;stroke: rgb(0,0,0);stroke-opacity: 0.5;stroke-linecap: round;stroke-linejoin: round;shape-rendering:geometricPrecision;" transform="matrix(1,0,0,1,0,0)" clip-path="url(#_94063662146275clip-2)"/><line x1="274.71" y1="53.74" x2="279.79" y2="51.52" style="stroke-width: 1.5;stroke: rgb(0,0,0);stroke-opacity: 0.5;stroke-linecap: round;stroke-linejoin: round;shape-rendering:geometricPrecision;" transform="matrix(1,0,0,1,0,0)" clip-path="url(#_94063662146275clip-2)"/><line x1="279.79" y1="51.52" x2="284.88" y2="50.88" style="stroke-width: 1.5;stroke: rgb(0,0,0);stroke-opacity: 0.5;stroke-linecap: round;stroke-linejoin: round;shape-rendering:geometricPrecision;" transform="matrix(1,0,0,1,0,0)" clip-path="url(#_94063662146275clip-2)"/><line x1="284.88" y1="50.88" x2="289.96" y2="51.77" style="stroke-width: 1.5;stroke: rgb(0,0,0);stroke-opacity: 0.5;stroke-linecap: round;stroke-linejoin: round;shape-rendering:geometricPrecision;" transform="matrix(1,0,0,1,0,0)" clip-path="url(#_94063662146275clip-2)"/><line x1="289.96" y1="51.77" x2="295.04" y2="54.14" style="stroke-width: 1.5;stroke: rgb(0,0,0);stroke-opacity: 0.5;stroke-linecap: round;stroke-linejoin: round;shape-rendering:geometricPrecision;" transform="matrix(1,0,0,1,0,0)" clip-path="url(#_94063662146275clip-2)"/><line x1="295.04" y1="54.14" x2="300.13" y2="57.94" style="stroke-width: 1.5;stroke: rgb(0,0,0);stroke-opacity: 0.5;stroke-linecap: round;stroke-linejoin: round;shape-rendering:geometricPrecision;" transform="matrix(1,0,0,1,0,0)" clip-path="url(#_94063662146275clip-2)"/><line x1="300.13" y1="57.94" x2="305.21" y2="63.14" style="stroke-width: 1.5;stroke: rgb(0,0,0);stroke-opacity: 0.5;stroke-linecap: round;stroke-linejoin: round;shape-rendering:geometricPrecision;" transform="matrix(1,0,0,1,0,0)" clip-path="url(#_94063662146275clip-2)"/><line x1="305.21" y1="63.14" x2="310.29" y2="69.69" style="stroke-width: 1.5;stroke: rgb(0,0,0);stroke-opacity: 0.5;stroke-linecap: round;stroke-linejoin: round;shape-rendering:geometricPrecision;" transform="matrix(1,0,0,1,0,0)" clip-path="url(#_94063662146275clip-2)"/><line x1="310.29" y1="69.69" x2="315.38" y2="77.53" style="stroke-width: 1.5;stroke: rgb(0,0,0);stroke-opacity: 0.5;stroke-linecap: round;stroke-linejoin: round;shape-rendering:geometricPrecision;" transform="matrix(1,0,0,1,0,0)" clip-path="url(#_94063662146275clip-2)"/><line x1="315.38" y1="77.53" x2="320.46" y2="86.64" style="stroke-width: 1.5;stroke: rgb(0,0,0);stroke-opacity: 0.5;stroke-linecap: round;stroke-linejoin: round;shape-rendering:geometricPrecision;" transform="matrix(1,0,0,1,0,0)" clip-path="url(#_94063662146275clip-2)"/><line x1="320.46" y1="86.64" x2="325.55" y2="96.95" style="stroke-width: 1.5;stroke: rgb(0,0,0);stroke-opacity: 0.5;stroke-linecap: round;stroke-linejoin: round;shape-rendering:geometricPrecision;" transform="matrix(1,0,0,1,0,0)" clip-path="url(#_94063662146275clip-2)"/><rect x="64" y="35" width="274" height="515" style="stroke-width: 0.5;stroke: rgb(0,0,0);stroke-opacity: 1.0;stroke-linecap: round;stroke-linejoin: round;shape-rendering:crispEdges;; fill: none" transform="matrix(1,0,0,1,0,0)" clip-path="url(#_94063662146275clip-0)"/></svg>
