<!DOCTYPE svg PUBLIC "-//W3C//DTD SVG 1.1//EN" "http://www.w3.org/Graphics/SVG/1.1/DTD/svg11.dtd">
<svg xmlns="http://www.w3.org/2000/svg" xmlns:xlink="http://www.w3.org/1999/xlink" xmlns:jfreesvg="http://www.jfree.org/jfreesvg/svg" width="350" height="600" text-rendering="auto" shape-rendering="auto">
<defs><clipPath id="_2780877415739733clip-0"><path d="M 0 0 L 350 0 L 350 600 L 0 600 L 0 0 Z "/></clipPath>
<clipPath id="_2780877415739733clip-1"><path d="M 312 273 L 312 623 L -288 623 L -288 273 L 312 273 Z "/></clipPath>
<clipPath id="_2780877415739733clip-2"><path d="M 71 35 L 71 550 L 338 550 L 338 35 Z "/></clipPath>
</defs>
<rect x="0" y="0" width="350" height="600" style="fill: rgb(245,245,245); fill-opacity: 1.0" transform="matrix(1,0,0,1,0,0)" clip-path="url(#_2780877415739733clip-0)"/><g transform="matrix(1,0,0,1,0,0)"><text x="126.5" y="21.01" style="fill: rgb(0,0,0); fill-opacity: 1.0; font-family: Tahoma; font-size: 20px; font-weight: bold;" clip-path="url(#_2780877415739733clip-0)">Cm Curve</text></g><rect x="71" y="35" width="267" height="515" style="fill: rgb(240,248,255); fill-opacity: 0.0" transform="matrix(1,0,0,1,0,0)" clip-path="url(#_2780877415739733clip-0)"/><line x1="71" y1="554" x2="338" y2="554" style="stroke-width: 0.5;stroke: rgb(128,128,128);stroke-opacity: 1.0;stroke-linecap: square;shape-rendering:crispEdges;" transform="matrix(1,0,0,1,0,0)" clip-path="url(#_2780877415739733clip-0)"/><g transform="matrix(1,0,0,1,0,0)"><text x="77.64" y="570.52" style="fill: rgb(64,64,64); fill-opacity: 1.0; font-family: Tahoma; font-size: 12px;" clip-path="url(#_2780877415739733clip-0)">-3</text></g><line x1="83.14" y1="556" x2="83.14" y2="554" style="stroke-width: 0.5;stroke: rgb(128,128,128);stroke-opacity: 1.0;stroke-linecap: square;shape-rendering:crispEdges;" transform="matrix(1,0,0,1,0,0)" clip-path="url(#_2780877415739733clip-0)"/><g transform="matrix(1,0,0,1,0,0)"><text x="118.09" y="570.52" style="fill: rgb(64,64,64); fill-opacity: 1.0; font-family: Tahoma; font-size: 12px;" clip-path="url(#_2780877415739733clip-0)">-2</text></g><line x1="123.59" y1="556" x2="123.59" y2="554" style="stroke-width: 0.5;stroke: rgb(128,128,128);stroke-opacity: 1.0;stroke-linecap: square;shape-rendering:crispEdges;" transform="matrix(1,0,0,1,0,0)" clip-path="url(#_2780877415739733clip-0)"/><g transform="matrix(1,0,0,1,0,0)"><text x="158.55" y="570.52" style="fill: rgb(64,64,64); fill-opacity: 1.0; font-family: Tahoma; font-size: 12px;" clip-path="url(#_2780877415739733clip-0)">-1</text></g><line x1="164.05" y1="556" x2="164.05" y2="554" style="stroke-width: 0.5;stroke: rgb(128,128,128);stroke-opacity: 1.0;stroke-linecap: square;shape-rendering:crispEdges;" transform="matrix(1,0,0,1,0,0)" clip-path="url(#_2780877415739733clip-0)"/><g transform="matrix(1,0,0,1,0,0)"><text x="201" y="570.52" style="fill: rgb(64,64,64); fill-opacity: 1.0; font-family: Tahoma; font-size: 12px;" clip-path="url(#_2780877415739733clip-0)">0</text></g><line x1="204.5" y1="556" x2="204.5" y2="554" style="stroke-width: 0.5;stroke: rgb(128,128,128);stroke-opacity: 1.0;stroke-linecap: square;shape-rendering:crispEdges;" transform="matrix(1,0,0,1,0,0)" clip-path="url(#_2780877415739733clip-0)"/><g transform="matrix(1,0,0,1,0,0)"><text x="241.45" y="570.52" style="fill: rgb(64,64,64); fill-opacity: 1.0; font-family: Tahoma; font-size: 12px;" clip-path="url(#_2780877415739733clip-0)">1</text></g><line x1="244.95" y1="556" x2="244.95" y2="554" style="stroke-width: 0.5;stroke: rgb(128,128,128);stroke-opacity: 1.0;stroke-linecap: square;shape-rendering:crispEdges;" transform="matrix(1,0,0,1,0,0)" clip-path="url(#_2780877415739733clip-0)"/><g transform="matrix(1,0,0,1,0,0)"><text x="281.91" y="570.52" style="fill: rgb(64,64,64); fill-opacity: 1.0; font-family: Tahoma; font-size: 12px;" clip-path="url(#_2780877415739733clip-0)">2</text></g><line x1="285.41" y1="556" x2="285.41" y2="554" style="stroke-width: 0.5;stroke: rgb(128,128,128);stroke-opacity: 1.0;stroke-linecap: square;shape-rendering:crispEdges;" transform="matrix(1,0,0,1,0,0)" clip-path="url(#_2780877415739733clip-0)"/><g transform="matrix(1,0,0,1,0,0)"><text x="322.36" y="570.52" style="fill: rgb(64,64,64); fill-opacity: 1.0; font-family: Tahoma; font-size: 12px;" clip-path="url(#_2780877415739733clip-0)">3</text></g><line x1="325.86" y1="556" x2="325.86" y2="554" style="stroke-width: 0.5;stroke: rgb(128,128,128);stroke-opacity: 1.0;stroke-linecap: square;shape-rendering:crispEdges;" transform="matrix(1,0,0,1,0,0)" clip-path="url(#_2780877415739733clip-0)"/><g transform="matrix(1,0,0,1,0,0)"><text x="197.5" y="589.59" style="fill: rgb(64,64,64); fill-opacity: 1.0; font-family: Tahoma; font-size: 14px; font-weight: bold;" clip-path="url(#_2780877415739733clip-0)">Cl</text></g><line x1="67" y1="35" x2="67" y2="550" style="stroke-width: 0.5;stroke: rgb(128,128,128);stroke-opacity: 1.0;stroke-linecap: square;shape-rendering:crispEdges;" transform="matrix(1,0,0,1,0,0)" clip-path="url(#_2780877415739733clip-0)"/><g transform="matrix(1,0,0,1,0,0)"><text x="33" y="534.21" style="fill: rgb(64,64,64); fill-opacity: 1.0; font-family: Tahoma; font-size: 12px;" clip-path="url(#_2780877415739733clip-0)">-0,19</text></g><line x1="65" y1="529.19" x2="67" y2="529.19" style="stroke-width: 0.5;stroke: rgb(128,128,128);stroke-opacity: 1.0;stroke-linecap: square;shape-rendering:crispEdges;" transform="matrix(1,0,0,1,0,0)" clip-path="url(#_2780877415739733clip-0)"/><g transform="matrix(1,0,0,1,0,0)"><text x="33" y="508.2" style="fill: rgb(64,64,64); fill-opacity: 1.0; font-family: Tahoma; font-size: 12px;" clip-path="url(#_2780877415739733clip-0)">-0,18</text></g><line x1="65" y1="503.18" x2="67" y2="503.18" style="stroke-width: 0.5;stroke: rgb(128,128,128);stroke-opacity: 1.0;stroke-linecap: square;shape-rendering:crispEdges;" transform="matrix(1,0,0,1,0,0)" clip-path="url(#_2780877415739733clip-0)"/><g transform="matrix(1,0,0,1,0,0)"><text x="33" y="482.19" style="fill: rgb(64,64,64); fill-opacity: 1.0; font-family: Tahoma; font-size: 12px;" clip-path="url(#_2780877415739733clip-0)">-0,17</text></g><line x1="65" y1="477.17" x2="67" y2="477.17" style="stroke-width: 0.5;stroke: rgb(128,128,128);stroke-opacity: 1.0;stroke-linecap: square;shape-rendering:crispEdges;" transform="matrix(1,0,0,1,0,0)" clip-path="url(#_2780877415739733clip-0)"/><g transform="matrix(1,0,0,1,0,0)"><text x="33" y="456.18" style="fill: rgb(64,64,64); fill-opacity: 1.0; font-family: Tahoma; font-size: 12px;" clip-path="url(#_2780877415739733clip-0)">-0,16</text></g><line x1="65" y1="451.16" x2="67" y2="451.16" style="stroke-width: 0.5;stroke: rgb(128,128,128);stroke-opacity: 1.0;stroke-linecap: square;shape-rendering:crispEdges;" transform="matrix(1,0,0,1,0,0)" clip-path="url(#_2780877415739733clip-0)"/><g transform="matrix(1,0,0,1,0,0)"><text x="33" y="430.17" style="fill: rgb(64,64,64); fill-opacity: 1.0; font-family: Tahoma; font-size: 12px;" clip-path="url(#_2780877415739733clip-0)">-0,15</text></g><line x1="65" y1="425.15" x2="67" y2="425.15" style="stroke-width: 0.5;stroke: rgb(128,128,128);stroke-opacity: 1.0;stroke-linecap: square;shape-rendering:crispEdges;" transform="matrix(1,0,0,1,0,0)" clip-path="url(#_2780877415739733clip-0)"/><g transform="matrix(1,0,0,1,0,0)"><text x="33" y="404.16" style="fill: rgb(64,64,64); fill-opacity: 1.0; font-family: Tahoma; font-size: 12px;" clip-path="url(#_2780877415739733clip-0)">-0,14</text></g><line x1="65" y1="399.14" x2="67" y2="399.14" style="stroke-width: 0.5;stroke: rgb(128,128,128);stroke-opacity: 1.0;stroke-linecap: square;shape-rendering:crispEdges;" transform="matrix(1,0,0,1,0,0)" clip-path="url(#_2780877415739733clip-0)"/><g transform="matrix(1,0,0,1,0,0)"><text x="33" y="378.15" style="fill: rgb(64,64,64); fill-opacity: 1.0; font-family: Tahoma; font-size: 12px;" clip-path="url(#_2780877415739733clip-0)">-0,13</text></g><line x1="65" y1="373.13" x2="67" y2="373.13" style="stroke-width: 0.5;stroke: rgb(128,128,128);stroke-opacity: 1.0;stroke-linecap: square;shape-rendering:crispEdges;" transform="matrix(1,0,0,1,0,0)" clip-path="url(#_2780877415739733clip-0)"/><g transform="matrix(1,0,0,1,0,0)"><text x="33" y="352.14" style="fill: rgb(64,64,64); fill-opacity: 1.0; font-family: Tahoma; font-size: 12px;" clip-path="url(#_2780877415739733clip-0)">-0,12</text></g><line x1="65" y1="347.12" x2="67" y2="347.12" style="stroke-width: 0.5;stroke: rgb(128,128,128);stroke-opacity: 1.0;stroke-linecap: square;shape-rendering:crispEdges;" transform="matrix(1,0,0,1,0,0)" clip-path="url(#_2780877415739733clip-0)"/><g transform="matrix(1,0,0,1,0,0)"><text x="33" y="326.13" style="fill: rgb(64,64,64); fill-opacity: 1.0; font-family: Tahoma; font-size: 12px;" clip-path="url(#_2780877415739733clip-0)">-0,11</text></g><line x1="65" y1="321.11" x2="67" y2="321.11" style="stroke-width: 0.5;stroke: rgb(128,128,128);stroke-opacity: 1.0;stroke-linecap: square;shape-rendering:crispEdges;" transform="matrix(1,0,0,1,0,0)" clip-path="url(#_2780877415739733clip-0)"/><g transform="matrix(1,0,0,1,0,0)"><text x="33" y="300.12" style="fill: rgb(64,64,64); fill-opacity: 1.0; font-family: Tahoma; font-size: 12px;" clip-path="url(#_2780877415739733clip-0)">-0,10</text></g><line x1="65" y1="295.1" x2="67" y2="295.1" style="stroke-width: 0.5;stroke: rgb(128,128,128);stroke-opacity: 1.0;stroke-linecap: square;shape-rendering:crispEdges;" transform="matrix(1,0,0,1,0,0)" clip-path="url(#_2780877415739733clip-0)"/><g transform="matrix(1,0,0,1,0,0)"><text x="33" y="274.11" style="fill: rgb(64,64,64); fill-opacity: 1.0; font-family: Tahoma; font-size: 12px;" clip-path="url(#_2780877415739733clip-0)">-0,09</text></g><line x1="65" y1="269.09" x2="67" y2="269.09" style="stroke-width: 0.5;stroke: rgb(128,128,128);stroke-opacity: 1.0;stroke-linecap: square;shape-rendering:crispEdges;" transform="matrix(1,0,0,1,0,0)" clip-path="url(#_2780877415739733clip-0)"/><g transform="matrix(1,0,0,1,0,0)"><text x="33" y="248.1" style="fill: rgb(64,64,64); fill-opacity: 1.0; font-family: Tahoma; font-size: 12px;" clip-path="url(#_2780877415739733clip-0)">-0,08</text></g><line x1="65" y1="243.08" x2="67" y2="243.08" style="stroke-width: 0.5;stroke: rgb(128,128,128);stroke-opacity: 1.0;stroke-linecap: square;shape-rendering:crispEdges;" transform="matrix(1,0,0,1,0,0)" clip-path="url(#_2780877415739733clip-0)"/><g transform="matrix(1,0,0,1,0,0)"><text x="33" y="222.09" style="fill: rgb(64,64,64); fill-opacity: 1.0; font-family: Tahoma; font-size: 12px;" clip-path="url(#_2780877415739733clip-0)">-0,07</text></g><line x1="65" y1="217.07" x2="67" y2="217.07" style="stroke-width: 0.5;stroke: rgb(128,128,128);stroke-opacity: 1.0;stroke-linecap: square;shape-rendering:crispEdges;" transform="matrix(1,0,0,1,0,0)" clip-path="url(#_2780877415739733clip-0)"/><g transform="matrix(1,0,0,1,0,0)"><text x="33" y="196.08" style="fill: rgb(64,64,64); fill-opacity: 1.0; font-family: Tahoma; font-size: 12px;" clip-path="url(#_2780877415739733clip-0)">-0,06</text></g><line x1="65" y1="191.06" x2="67" y2="191.06" style="stroke-width: 0.5;stroke: rgb(128,128,128);stroke-opacity: 1.0;stroke-linecap: square;shape-rendering:crispEdges;" transform="matrix(1,0,0,1,0,0)" clip-path="url(#_2780877415739733clip-0)"/><g transform="matrix(1,0,0,1,0,0)"><text x="33" y="170.07" style="fill: rgb(64,64,64); fill-opacity: 1.0; font-family: Tahoma; font-size: 12px;" clip-path="url(#_2780877415739733clip-0)">-0,05</text></g><line x1="65" y1="165.05" x2="67" y2="165.05" style="stroke-width: 0.5;stroke: rgb(128,128,128);stroke-opacity: 1.0;stroke-linecap: square;shape-rendering:crispEdges;" transform="matrix(1,0,0,1,0,0)" clip-path="url(#_2780877415739733clip-0)"/><g transform="matrix(1,0,0,1,0,0)"><text x="33" y="144.06" style="fill: rgb(64,64,64); fill-opacity: 1.0; font-family: Tahoma; font-size: 12px;" clip-path="url(#_2780877415739733clip-0)">-0,04</text></g><line x1="65" y1="139.04" x2="67" y2="139.04" style="stroke-width: 0.5;stroke: rgb(128,128,128);stroke-opacity: 1.0;stroke-linecap: square;shape-rendering:crispEdges;" transform="matrix(1,0,0,1,0,0)" clip-path="url(#_2780877415739733clip-0)"/><g transform="matrix(1,0,0,1,0,0)"><text x="33" y="118.05" style="fill: rgb(64,64,64); fill-opacity: 1.0; font-family: Tahoma; font-size: 12px;" clip-path="url(#_2780877415739733clip-0)">-0,03</text></g><line x1="65" y1="113.03" x2="67" y2="113.03" style="stroke-width: 0.5;stroke: rgb(128,128,128);stroke-opacity: 1.0;stroke-linecap: square;shape-rendering:crispEdges;" transform="matrix(1,0,0,1,0,0)" clip-path="url(#_2780877415739733clip-0)"/><g transform="matrix(1,0,0,1,0,0)"><text x="33" y="92.04" style="fill: rgb(64,64,64); fill-opacity: 1.0; font-family: Tahoma; font-size: 12px;" clip-path="url(#_2780877415739733clip-0)">-0,02</text></g><line x1="65" y1="87.02" x2="67" y2="87.02" style="stroke-width: 0.5;stroke: rgb(128,128,128);stroke-opacity: 1.0;stroke-linecap: square;shape-rendering:crispEdges;" transform="matrix(1,0,0,1,0,0)" clip-path="url(#_2780877415739733clip-0)"/><g transform="matrix(1,0,0,1,0,0)"><text x="33" y="66.03" style="fill: rgb(64,64,64); fill-opacity: 1.0; font-family: Tahoma; font-size: 12px;" clip-path="url(#_2780877415739733clip-0)">-0,01</text></g><line x1="65" y1="61.01" x2="67" y2="61.01" style="stroke-width: 0.5;stroke: rgb(128,128,128);stroke-opacity: 1.0;stroke-linecap: square;shape-rendering:crispEdges;" transform="matrix(1,0,0,1,0,0)" clip-path="url(#_2780877415739733clip-0)"/><g transform="matrix(1,0,0,1,0,0)"><text x="38" y="40.02" style="fill: rgb(64,64,64); fill-opacity: 1.0; font-family: Tahoma; font-size: 12px;" clip-path="url(#_2780877415739733clip-0)">0,00</text></g><line x1="65" y1="35" x2="67" y2="35" style="stroke-width: 0.5;stroke: rgb(128,128,128);stroke-opacity: 1.0;stroke-linecap: square;shape-rendering:crispEdges;" transform="matrix(1,0,0,1,0,0)" clip-path="url(#_2780877415739733clip-0)"/><g style="fill: rgb(64,64,64); fill-opacity: 1.0; stroke: none" transform="matrix(0,-1,1,0,-273,312)" clip-path="url(#_2780877415739733clip-1)"><path d="M 13.44 298.31 Q 11.16 298.31 9.8 296.92 Q 8.45 295.53 8.45 293.03 Q 8.45 290.61 9.8 289.17 Q 11.16 287.73 13.45 287.73 Q 14.06 287.73 14.55 287.8 Q 15.03 287.87 15.47 287.98 Q 15.83 288.09 16.23 288.27 Q 16.64 288.45 16.89 288.58 L 16.89 291 L 16.64 291 Q 16.45 290.84 16.17 290.62 Q 15.89 290.39 15.53 290.17 Q 15.17 289.95 14.75 289.8 Q 14.33 289.64 13.86 289.64 Q 13.31 289.64 12.84 289.81 Q 12.38 289.98 11.97 290.42 Q 11.58 290.81 11.34 291.48 Q 11.09 292.14 11.09 293.03 Q 11.09 293.98 11.35 294.63 Q 11.61 295.28 12.02 295.67 Q 12.41 296.06 12.9 296.23 Q 13.39 296.41 13.88 296.41 Q 14.38 296.41 14.84 296.23 Q 15.3 296.06 15.61 295.86 Q 15.95 295.64 16.21 295.42 Q 16.47 295.2 16.66 295.05 L 16.89 295.05 L 16.89 297.44 Q 16.61 297.56 16.24 297.73 Q 15.88 297.89 15.48 298.01 Q 15 298.16 14.59 298.23 Q 14.17 298.31 13.44 298.31 Z  M 27.44 298.11 L 27.44 294.28 Q 27.44 293.7 27.42 293.31 Q 27.39 292.92 27.3 292.69 Q 27.19 292.44 26.97 292.32 Q 26.75 292.2 26.38 292.2 Q 26.09 292.2 25.83 292.33 Q 25.56 292.45 25.25 292.67 L 25.25 298.11 L 22.84 298.11 L 22.84 294.28 Q 22.84 293.72 22.82 293.32 Q 22.8 292.92 22.69 292.69 Q 22.59 292.44 22.38 292.32 Q 22.16 292.2 21.78 292.2 Q 21.49 292.2 21.2 292.34 Q 20.92 292.48 20.66 292.67 L 20.66 298.11 L 18.27 298.11 L 18.27 290.44 L 20.66 290.44 L 20.66 291.28 Q 21.24 290.78 21.76 290.5 Q 22.28 290.22 22.92 290.22 Q 23.64 290.22 24.17 290.55 Q 24.7 290.89 24.99 291.55 Q 25.67 290.91 26.28 290.56 Q 26.89 290.22 27.52 290.22 Q 28.06 290.22 28.49 290.39 Q 28.91 290.56 29.2 290.91 Q 29.52 291.26 29.68 291.78 Q 29.84 292.3 29.84 293.11 L 29.84 298.11 L 27.44 298.11 Z "/></g><line x1="83.14" y1="35" x2="83.14" y2="550" style="stroke-width: 0.5;stroke: rgb(128,128,128);stroke-opacity: 0.5;stroke-linejoin: bevel;stroke-dasharray: 2.0, 2.0;shape-rendering:crispEdges;" transform="matrix(1,0,0,1,0,0)" clip-path="url(#_2780877415739733clip-2)"/><line x1="123.59" y1="35" x2="123.59" y2="550" style="stroke-width: 0.5;stroke: rgb(128,128,128);stroke-opacity: 0.5;stroke-linejoin: bevel;stroke-dasharray: 2.0, 2.0;shape-rendering:crispEdges;" transform="matrix(1,0,0,1,0,0)" clip-path="url(#_2780877415739733clip-2)"/><line x1="164.05" y1="35" x2="164.05" y2="550" style="stroke-width: 0.5;stroke: rgb(128,128,128);stroke-opacity: 0.5;stroke-linejoin: bevel;stroke-dasharray: 2.0, 2.0;shape-rendering:crispEdges;" transform="matrix(1,0,0,1,0,0)" clip-path="url(#_2780877415739733clip-2)"/><line x1="204.5" y1="35" x2="204.5" y2="550" style="stroke-width: 0.5;stroke: rgb(128,128,128);stroke-opacity: 0.5;stroke-linejoin: bevel;stroke-dasharray: 2.0, 2.0;shape-rendering:crispEdges;" transform="matrix(1,0,0,1,0,0)" clip-path="url(#_2780877415739733clip-2)"/><line x1="244.95" y1="35" x2="244.95" y2="550" style="stroke-width: 0.5;stroke: rgb(128,128,128);stroke-opacity: 0.5;stroke-linejoin: bevel;stroke-dasharray: 2.0, 2.0;shape-rendering:crispEdges;" transform="matrix(1,0,0,1,0,0)" clip-path="url(#_2780877415739733clip-2)"/><line x1="285.41" y1="35" x2="285.41" y2="550" style="stroke-width: 0.5;stroke: rgb(128,128,128);stroke-opacity: 0.5;stroke-linejoin: bevel;stroke-dasharray: 2.0, 2.0;shape-rendering:crispEdges;" transform="matrix(1,0,0,1,0,0)" clip-path="url(#_2780877415739733clip-2)"/><line x1="325.86" y1="35" x2="325.86" y2="550" style="stroke-width: 0.5;stroke: rgb(128,128,128);stroke-opacity: 0.5;stroke-linejoin: bevel;stroke-dasharray: 2.0, 2.0;shape-rendering:crispEdges;" transform="matrix(1,0,0,1,0,0)" clip-path="url(#_2780877415739733clip-2)"/><line x1="71" y1="529.19" x2="338" y2="529.19" style="stroke-width: 0.5;stroke: rgb(128,128,128);stroke-opacity: 0.5;stroke-linejoin: bevel;stroke-dasharray: 2.0, 2.0;shape-rendering:crispEdges;" transform="matrix(1,0,0,1,0,0)" clip-path="url(#_2780877415739733clip-2)"/><line x1="71" y1="503.18" x2="338" y2="503.18" style="stroke-width: 0.5;stroke: rgb(128,128,128);stroke-opacity: 0.5;stroke-linejoin: bevel;stroke-dasharray: 2.0, 2.0;shape-rendering:crispEdges;" transform="matrix(1,0,0,1,0,0)" clip-path="url(#_2780877415739733clip-2)"/><line x1="71" y1="477.17" x2="338" y2="477.17" style="stroke-width: 0.5;stroke: rgb(128,128,128);stroke-opacity: 0.5;stroke-linejoin: bevel;stroke-dasharray: 2.0, 2.0;shape-rendering:crispEdges;" transform="matrix(1,0,0,1,0,0)" clip-path="url(#_2780877415739733clip-2)"/><line x1="71" y1="451.16" x2="338" y2="451.16" style="stroke-width: 0.5;stroke: rgb(128,128,128);stroke-opacity: 0.5;stroke-linejoin: bevel;stroke-dasharray: 2.0, 2.0;shape-rendering:crispEdges;" transform="matrix(1,0,0,1,0,0)" clip-path="url(#_2780877415739733clip-2)"/><line x1="71" y1="425.15" x2="338" y2="425.15" style="stroke-width: 0.5;stroke: rgb(128,128,128);stroke-opacity: 0.5;stroke-linejoin: bevel;stroke-dasharray: 2.0, 2.0;shape-rendering:crispEdges;" transform="matrix(1,0,0,1,0,0)" clip-path="url(#_2780877415739733clip-2)"/><line x1="71" y1="399.14" x2="338" y2="399.14" style="stroke-width: 0.5;stroke: rgb(128,128,128);stroke-opacity: 0.5;stroke-linejoin: bevel;stroke-dasharray: 2.0, 2.0;shape-rendering:crispEdges;" transform="matrix(1,0,0,1,0,0)" clip-path="url(#_2780877415739733clip-2)"/><line x1="71" y1="373.13" x2="338" y2="373.13" style="stroke-width: 0.5;stroke: rgb(128,128,128);stroke-opacity: 0.5;stroke-linejoin: bevel;stroke-dasharray: 2.0, 2.0;shape-rendering:crispEdges;" transform="matrix(1,0,0,1,0,0)" clip-path="url(#_2780877415739733clip-2)"/><line x1="71" y1="347.12" x2="338" y2="347.12" style="stroke-width: 0.5;stroke: rgb(128,128,128);stroke-opacity: 0.5;stroke-linejoin: bevel;stroke-dasharray: 2.0, 2.0;shape-rendering:crispEdges;" transform="matrix(1,0,0,1,0,0)" clip-path="url(#_2780877415739733clip-2)"/><line x1="71" y1="321.11" x2="338" y2="321.11" style="stroke-width: 0.5;stroke: rgb(128,128,128);stroke-opacity: 0.5;stroke-linejoin: bevel;stroke-dasharray: 2.0, 2.0;shape-rendering:crispEdges;" transform="matrix(1,0,0,1,0,0)" clip-path="url(#_2780877415739733clip-2)"/><line x1="71" y1="295.1" x2="338" y2="295.1" style="stroke-width: 0.5;stroke: rgb(128,128,128);stroke-opacity: 0.5;stroke-linejoin: bevel;stroke-dasharray: 2.0, 2.0;shape-rendering:crispEdges;" transform="matrix(1,0,0,1,0,0)" clip-path="url(#_2780877415739733clip-2)"/><line x1="71" y1="269.09" x2="338" y2="269.09" style="stroke-width: 0.5;stroke: rgb(128,128,128);stroke-opacity: 0.5;stroke-linejoin: bevel;stroke-dasharray: 2.0, 2.0;shape-rendering:crispEdges;" transform="matrix(1,0,0,1,0,0)" clip-path="url(#_2780877415739733clip-2)"/><line x1="71" y1="243.08" x2="338" y2="243.08" style="stroke-width: 0.5;stroke: rgb(128,128,128);stroke-opacity: 0.5;stroke-linejoin: bevel;stroke-dasharray: 2.0, 2.0;shape-rendering:crispEdges;" transform="matrix(1,0,0,1,0,0)" clip-path="url(#_2780877415739733clip-2)"/><line x1="71" y1="217.07" x2="338" y2="217.07" style="stroke-width: 0.5;stroke: rgb(128,128,128);stroke-opacity: 0.5;stroke-linejoin: bevel;stroke-dasharray: 2.0, 2.0;shape-rendering:crispEdges;" transform="matrix(1,0,0,1,0,0)" clip-path="url(#_2780877415739733clip-2)"/><line x1="71" y1="191.06" x2="338" y2="191.06" style="stroke-width: 0.5;stroke: rgb(128,128,128);stroke-opacity: 0.5;stroke-linejoin: bevel;stroke-dasharray: 2.0, 2.0;shape-rendering:crispEdges;" transform="matrix(1,0,0,1,0,0)" clip-path="url(#_2780877415739733clip-2)"/><line x1="71" y1="165.05" x2="338" y2="165.05" style="stroke-width: 0.5;stroke: rgb(128,128,128);stroke-opacity: 0.5;stroke-linejoin: bevel;stroke-dasharray: 2.0, 2.0;shape-rendering:crispEdges;" transform="matrix(1,0,0,1,0,0)" clip-path="url(#_2780877415739733clip-2)"/><line x1="71" y1="139.04" x2="338" y2="139.04" style="stroke-width: 0.5;stroke: rgb(128,128,128);stroke-opacity: 0.5;stroke-linejoin: bevel;stroke-dasharray: 2.0, 2.0;shape-rendering:crispEdges;" transform="matrix(1,0,0,1,0,0)" clip-path="url(#_2780877415739733clip-2)"/><line x1="71" y1="113.03" x2="338" y2="113.03" style="stroke-width: 0.5;stroke: rgb(128,128,128);stroke-opacity: 0.5;stroke-linejoin: bevel;stroke-dasharray: 2.0, 2.0;shape-rendering:crispEdges;" transform="matrix(1,0,0,1,0,0)" clip-path="url(#_2780877415739733clip-2)"/><line x1="71" y1="87.02" x2="338" y2="87.02" style="stroke-width: 0.5;stroke: rgb(128,128,128);stroke-opacity: 0.5;stroke-linejoin: bevel;stroke-dasharray: 2.0, 2.0;shape-rendering:crispEdges;" transform="matrix(1,0,0,1,0,0)" clip-path="url(#_2780877415739733clip-2)"/><line x1="71" y1="61.01" x2="338" y2="61.01" style="stroke-width: 0.5;stroke: rgb(128,128,128);stroke-opacity: 0.5;stroke-linejoin: bevel;stroke-dasharray: 2.0, 2.0;shape-rendering:crispEdges;" transform="matrix(1,0,0,1,0,0)" clip-path="url(#_2780877415739733clip-2)"/><line x1="71" y1="35" x2="338" y2="35" style="stroke-width: 0.5;stroke: rgb(128,128,128);stroke-opacity: 0.5;stroke-linejoin: bevel;stroke-dasharray: 2.0, 2.0;shape-rendering:crispEdges;" transform="matrix(1,0,0,1,0,0)" clip-path="url(#_2780877415739733clip-2)"/><line x1="98" y1="503.18" x2="83.14" y2="503.18" style="stroke-width: 1.5;stroke: rgb(0,0,0);stroke-opacity: 0.5;stroke-linecap: round;stroke-linejoin: round;shape-rendering:geometricPrecision;" transform="matrix(1,0,0,1,0,0)" clip-path="url(#_2780877415739733clip-2)"/><line x1="83.14" y1="503.18" x2="88.09" y2="503.18" style="stroke-width: 1.5;stroke: rgb(0,0,0);stroke-opacity: 0.5;stroke-linecap: round;stroke-linejoin: round;shape-rendering:geometricPrecision;" transform="matrix(1,0,0,1,0,0)" clip-path="url(#_2780877415739733clip-2)"/><line x1="88.09" y1="503.18" x2="93.04" y2="503.18" style="stroke-width: 1.5;stroke: rgb(0,0,0);stroke-opacity: 0.5;stroke-linecap: round;stroke-linejoin: round;shape-rendering:geometricPrecision;" transform="matrix(1,0,0,1,0,0)" clip-path="url(#_2780877415739733clip-2)"/><line x1="93.04" y1="503.18" x2="102.95" y2="503.18" style="stroke-width: 1.5;stroke: rgb(0,0,0);stroke-opacity: 0.5;stroke-linecap: round;stroke-linejoin: round;shape-rendering:geometricPrecision;" transform="matrix(1,0,0,1,0,0)" clip-path="url(#_2780877415739733clip-2)"/><line x1="102.95" y1="503.18" x2="107.9" y2="503.18" style="stroke-width: 1.5;stroke: rgb(0,0,0);stroke-opacity: 0.5;stroke-linecap: round;stroke-linejoin: round;shape-rendering:geometricPrecision;" transform="matrix(1,0,0,1,0,0)" clip-path="url(#_2780877415739733clip-2)"/><line x1="107.9" y1="503.18" x2="112.86" y2="503.18" style="stroke-width: 1.5;stroke: rgb(0,0,0);stroke-opacity: 0.5;stroke-linecap: round;stroke-linejoin: round;shape-rendering:geometricPrecision;" transform="matrix(1,0,0,1,0,0)" clip-path="url(#_2780877415739733clip-2)"/><line x1="112.86" y1="503.18" x2="117.81" y2="503.18" style="stroke-width: 1.5;stroke: rgb(0,0,0);stroke-opacity: 0.5;stroke-linecap: round;stroke-linejoin: round;shape-rendering:geometricPrecision;" transform="matrix(1,0,0,1,0,0)" clip-path="url(#_2780877415739733clip-2)"/><line x1="117.81" y1="503.18" x2="122.77" y2="503.18" style="stroke-width: 1.5;stroke: rgb(0,0,0);stroke-opacity: 0.5;stroke-linecap: round;stroke-linejoin: round;shape-rendering:geometricPrecision;" transform="matrix(1,0,0,1,0,0)" clip-path="url(#_2780877415739733clip-2)"/><line x1="122.77" y1="503.18" x2="127.72" y2="503.18" style="stroke-width: 1.5;stroke: rgb(0,0,0);stroke-opacity: 0.5;stroke-linecap: round;stroke-linejoin: round;shape-rendering:geometricPrecision;" transform="matrix(1,0,0,1,0,0)" clip-path="url(#_2780877415739733clip-2)"/><line x1="127.72" y1="503.18" x2="132.67" y2="503.18" style="stroke-width: 1.5;stroke: rgb(0,0,0);stroke-opacity: 0.5;stroke-linecap: round;stroke-linejoin: round;shape-rendering:geometricPrecision;" transform="matrix(1,0,0,1,0,0)" clip-path="url(#_2780877415739733clip-2)"/><line x1="132.67" y1="503.18" x2="137.63" y2="503.18" style="stroke-width: 1.5;stroke: rgb(0,0,0);stroke-opacity: 0.5;stroke-linecap: round;stroke-linejoin: round;shape-rendering:geometricPrecision;" transform="matrix(1,0,0,1,0,0)" clip-path="url(#_2780877415739733clip-2)"/><line x1="137.63" y1="503.18" x2="142.58" y2="503.18" style="stroke-width: 1.5;stroke: rgb(0,0,0);stroke-opacity: 0.5;stroke-linecap: round;stroke-linejoin: round;shape-rendering:geometricPrecision;" transform="matrix(1,0,0,1,0,0)" clip-path="url(#_2780877415739733clip-2)"/><line x1="142.58" y1="503.18" x2="147.53" y2="503.18" style="stroke-width: 1.5;stroke: rgb(0,0,0);stroke-opacity: 0.5;stroke-linecap: round;stroke-linejoin: round;shape-rendering:geometricPrecision;" transform="matrix(1,0,0,1,0,0)" clip-path="url(#_2780877415739733clip-2)"/><line x1="147.53" y1="503.18" x2="152.49" y2="503.18" style="stroke-width: 1.5;stroke: rgb(0,0,0);stroke-opacity: 0.5;stroke-linecap: round;stroke-linejoin: round;shape-rendering:geometricPrecision;" transform="matrix(1,0,0,1,0,0)" clip-path="url(#_2780877415739733clip-2)"/><line x1="152.49" y1="503.18" x2="157.44" y2="503.18" style="stroke-width: 1.5;stroke: rgb(0,0,0);stroke-opacity: 0.5;stroke-linecap: round;stroke-linejoin: round;shape-rendering:geometricPrecision;" transform="matrix(1,0,0,1,0,0)" clip-path="url(#_2780877415739733clip-2)"/><line x1="157.44" y1="503.18" x2="162.39" y2="503.18" style="stroke-width: 1.5;stroke: rgb(0,0,0);stroke-opacity: 0.5;stroke-linecap: round;stroke-linejoin: round;shape-rendering:geometricPrecision;" transform="matrix(1,0,0,1,0,0)" clip-path="url(#_2780877415739733clip-2)"/><line x1="162.39" y1="503.18" x2="167.35" y2="503.18" style="stroke-width: 1.5;stroke: rgb(0,0,0);stroke-opacity: 0.5;stroke-linecap: round;stroke-linejoin: round;shape-rendering:geometricPrecision;" transform="matrix(1,0,0,1,0,0)" clip-path="url(#_2780877415739733clip-2)"/><line x1="167.35" y1="503.18" x2="172.3" y2="503.18" style="stroke-width: 1.5;stroke: rgb(0,0,0);stroke-opacity: 0.5;stroke-linecap: round;stroke-linejoin: round;shape-rendering:geometricPrecision;" transform="matrix(1,0,0,1,0,0)" clip-path="url(#_2780877415739733clip-2)"/><line x1="172.3" y1="503.18" x2="177.26" y2="503.18" style="stroke-width: 1.5;stroke: rgb(0,0,0);stroke-opacity: 0.5;stroke-linecap: round;stroke-linejoin: round;shape-rendering:geometricPrecision;" transform="matrix(1,0,0,1,0,0)" clip-path="url(#_2780877415739733clip-2)"/><line x1="177.26" y1="503.18" x2="182.21" y2="503.18" style="stroke-width: 1.5;stroke: rgb(0,0,0);stroke-opacity: 0.5;stroke-linecap: round;stroke-linejoin: round;shape-rendering:geometricPrecision;" transform="matrix(1,0,0,1,0,0)" clip-path="url(#_2780877415739733clip-2)"/><line x1="182.21" y1="503.18" x2="187.16" y2="503.18" style="stroke-width: 1.5;stroke: rgb(0,0,0);stroke-opacity: 0.5;stroke-linecap: round;stroke-linejoin: round;shape-rendering:geometricPrecision;" transform="matrix(1,0,0,1,0,0)" clip-path="url(#_2780877415739733clip-2)"/><line x1="187.16" y1="503.18" x2="192.12" y2="503.18" style="stroke-width: 1.5;stroke: rgb(0,0,0);stroke-opacity: 0.5;stroke-linecap: round;stroke-linejoin: round;shape-rendering:geometricPrecision;" transform="matrix(1,0,0,1,0,0)" clip-path="url(#_2780877415739733clip-2)"/><line x1="192.12" y1="503.18" x2="197.07" y2="503.18" style="stroke-width: 1.5;stroke: rgb(0,0,0);stroke-opacity: 0.5;stroke-linecap: round;stroke-linejoin: round;shape-rendering:geometricPrecision;" transform="matrix(1,0,0,1,0,0)" clip-path="url(#_2780877415739733clip-2)"/><line x1="197.07" y1="503.18" x2="202.02" y2="503.18" style="stroke-width: 1.5;stroke: rgb(0,0,0);stroke-opacity: 0.5;stroke-linecap: round;stroke-linejoin: round;shape-rendering:geometricPrecision;" transform="matrix(1,0,0,1,0,0)" clip-path="url(#_2780877415739733clip-2)"/><line x1="202.02" y1="503.18" x2="206.98" y2="503.18" style="stroke-width: 1.5;stroke: rgb(0,0,0);stroke-opacity: 0.5;stroke-linecap: round;stroke-linejoin: round;shape-rendering:geometricPrecision;" transform="matrix(1,0,0,1,0,0)" clip-path="url(#_2780877415739733clip-2)"/><line x1="206.98" y1="503.18" x2="211.93" y2="503.18" style="stroke-width: 1.5;stroke: rgb(0,0,0);stroke-opacity: 0.5;stroke-linecap: round;stroke-linejoin: round;shape-rendering:geometricPrecision;" transform="matrix(1,0,0,1,0,0)" clip-path="url(#_2780877415739733clip-2)"/><line x1="211.93" y1="503.18" x2="216.88" y2="503.18" style="stroke-width: 1.5;stroke: rgb(0,0,0);stroke-opacity: 0.5;stroke-linecap: round;stroke-linejoin: round;shape-rendering:geometricPrecision;" transform="matrix(1,0,0,1,0,0)" clip-path="url(#_2780877415739733clip-2)"/><line x1="216.88" y1="503.18" x2="221.84" y2="503.18" style="stroke-width: 1.5;stroke: rgb(0,0,0);stroke-opacity: 0.5;stroke-linecap: round;stroke-linejoin: round;shape-rendering:geometricPrecision;" transform="matrix(1,0,0,1,0,0)" clip-path="url(#_2780877415739733clip-2)"/><line x1="221.84" y1="503.18" x2="226.79" y2="503.18" style="stroke-width: 1.5;stroke: rgb(0,0,0);stroke-opacity: 0.5;stroke-linecap: round;stroke-linejoin: round;shape-rendering:geometricPrecision;" transform="matrix(1,0,0,1,0,0)" clip-path="url(#_2780877415739733clip-2)"/><line x1="226.79" y1="503.18" x2="231.74" y2="503.18" style="stroke-width: 1.5;stroke: rgb(0,0,0);stroke-opacity: 0.5;stroke-linecap: round;stroke-linejoin: round;shape-rendering:geometricPrecision;" transform="matrix(1,0,0,1,0,0)" clip-path="url(#_2780877415739733clip-2)"/><line x1="231.74" y1="503.18" x2="236.7" y2="503.18" style="stroke-width: 1.5;stroke: rgb(0,0,0);stroke-opacity: 0.5;stroke-linecap: round;stroke-linejoin: round;shape-rendering:geometricPrecision;" transform="matrix(1,0,0,1,0,0)" clip-path="url(#_2780877415739733clip-2)"/><line x1="236.7" y1="503.18" x2="241.65" y2="503.18" style="stroke-width: 1.5;stroke: rgb(0,0,0);stroke-opacity: 0.5;stroke-linecap: round;stroke-linejoin: round;shape-rendering:geometricPrecision;" transform="matrix(1,0,0,1,0,0)" clip-path="url(#_2780877415739733clip-2)"/><line x1="241.65" y1="503.18" x2="246.61" y2="503.18" style="stroke-width: 1.5;stroke: rgb(0,0,0);stroke-opacity: 0.5;stroke-linecap: round;stroke-linejoin: round;shape-rendering:geometricPrecision;" transform="matrix(1,0,0,1,0,0)" clip-path="url(#_2780877415739733clip-2)"/><line x1="246.61" y1="503.18" x2="251.56" y2="503.18" style="stroke-width: 1.5;stroke: rgb(0,0,0);stroke-opacity: 0.5;stroke-linecap: round;stroke-linejoin: round;shape-rendering:geometricPrecision;" transform="matrix(1,0,0,1,0,0)" clip-path="url(#_2780877415739733clip-2)"/><line x1="251.56" y1="503.18" x2="256.51" y2="502.58" style="stroke-width: 1.5;stroke: rgb(0,0,0);stroke-opacity: 0.5;stroke-linecap: round;stroke-linejoin: round;shape-rendering:geometricPrecision;" transform="matrix(1,0,0,1,0,0)" clip-path="url(#_2780877415739733clip-2)"/><line x1="256.51" y1="502.58" x2="261.47" y2="494.6" style="stroke-width: 1.5;stroke: rgb(0,0,0);stroke-opacity: 0.5;stroke-linecap: round;stroke-linejoin: round;shape-rendering:geometricPrecision;" transform="matrix(1,0,0,1,0,0)" clip-path="url(#_2780877415739733clip-2)"/><line x1="261.47" y1="494.6" x2="266.42" y2="468.8" style="stroke-width: 1.5;stroke: rgb(0,0,0);stroke-opacity: 0.5;stroke-linecap: round;stroke-linejoin: round;shape-rendering:geometricPrecision;" transform="matrix(1,0,0,1,0,0)" clip-path="url(#_2780877415739733clip-2)"/><line x1="266.42" y1="468.8" x2="271.37" y2="414.71" style="stroke-width: 1.5;stroke: rgb(0,0,0);stroke-opacity: 0.5;stroke-linecap: round;stroke-linejoin: round;shape-rendering:geometricPrecision;" transform="matrix(1,0,0,1,0,0)" clip-path="url(#_2780877415739733clip-2)"/><line x1="271.37" y1="414.71" x2="276.33" y2="321.85" style="stroke-width: 1.5;stroke: rgb(0,0,0);stroke-opacity: 0.5;stroke-linecap: round;stroke-linejoin: round;shape-rendering:geometricPrecision;" transform="matrix(1,0,0,1,0,0)" clip-path="url(#_2780877415739733clip-2)"/><line x1="276.33" y1="321.85" x2="281.28" y2="179.74" style="stroke-width: 1.5;stroke: rgb(0,0,0);stroke-opacity: 0.5;stroke-linecap: round;stroke-linejoin: round;shape-rendering:geometricPrecision;" transform="matrix(1,0,0,1,0,0)" clip-path="url(#_2780877415739733clip-2)"/><line x1="281.28" y1="179.74" x2="284.83" y2="35" style="stroke-width: 1.5;stroke: rgb(0,0,0);stroke-opacity: 0.5;stroke-linecap: round;stroke-linejoin: round;shape-rendering:geometricPrecision;" transform="matrix(1,0,0,1,0,0)" clip-path="url(#_2780877415739733clip-2)"/><rect x="71" y="35" width="267" height="515" style="stroke-width: 0.5;stroke: rgb(0,0,0);stroke-opacity: 1.0;stroke-linecap: round;stroke-linejoin: round;shape-rendering:crispEdges;; fill: none" transform="matrix(1,0,0,1,0,0)" clip-path="url(#_2780877415739733clip-0)"/></svg>
