<!DOCTYPE svg PUBLIC "-//W3C//DTD SVG 1.1//EN" "http://www.w3.org/Graphics/SVG/1.1/DTD/svg11.dtd">
<svg xmlns="http://www.w3.org/2000/svg" xmlns:xlink="http://www.w3.org/1999/xlink" xmlns:jfreesvg="http://www.jfree.org/jfreesvg/svg" width="700" height="600" text-rendering="auto" shape-rendering="auto">
<defs><clipPath id="_366314679884543clip-0"><path d="M 0 0 L 700 0 L 700 600 L 0 600 L 0 0 Z "/></clipPath>
<clipPath id="_366314679884543clip-1"><path d="M 312 273 L 312 973 L -288 973 L -288 273 L 312 273 Z "/></clipPath>
<clipPath id="_366314679884543clip-2"><path d="M 64 35 L 64 550 L 688 550 L 688 35 Z "/></clipPath>
</defs>
<rect x="0" y="0" width="700" height="600" style="fill: rgb(245,245,245); fill-opacity: 1.0" transform="matrix(1,0,0,1,0,0)" clip-path="url(#_366314679884543clip-0)"/><g transform="matrix(1,0,0,1,0,0)"><text x="188.5" y="21.01" style="fill: rgb(0,0,0); fill-opacity: 1.0; font-family: Tahoma; font-size: 20px; font-weight: bold;" clip-path="url(#_366314679884543clip-0)">Canard Planform representation</text></g><rect x="64" y="35" width="624" height="515" style="fill: rgb(240,248,255); fill-opacity: 0.0" transform="matrix(1,0,0,1,0,0)" clip-path="url(#_366314679884543clip-0)"/><line x1="64" y1="554" x2="688" y2="554" style="stroke-width: 0.5;stroke: rgb(128,128,128);stroke-opacity: 1.0;stroke-linecap: square;shape-rendering:crispEdges;" transform="matrix(1,0,0,1,0,0)" clip-path="url(#_366314679884543clip-0)"/><g transform="matrix(1,0,0,1,0,0)"><text x="83.86" y="570.52" style="fill: rgb(64,64,64); fill-opacity: 1.0; font-family: Tahoma; font-size: 12px;" clip-path="url(#_366314679884543clip-0)">0,0</text></g><line x1="92.36" y1="556" x2="92.36" y2="554" style="stroke-width: 0.5;stroke: rgb(128,128,128);stroke-opacity: 1.0;stroke-linecap: square;shape-rendering:crispEdges;" transform="matrix(1,0,0,1,0,0)" clip-path="url(#_366314679884543clip-0)"/><g transform="matrix(1,0,0,1,0,0)"><text x="154.77" y="570.52" style="fill: rgb(64,64,64); fill-opacity: 1.0; font-family: Tahoma; font-size: 12px;" clip-path="url(#_366314679884543clip-0)">0,5</text></g><line x1="163.27" y1="556" x2="163.27" y2="554" style="stroke-width: 0.5;stroke: rgb(128,128,128);stroke-opacity: 1.0;stroke-linecap: square;shape-rendering:crispEdges;" transform="matrix(1,0,0,1,0,0)" clip-path="url(#_366314679884543clip-0)"/><g transform="matrix(1,0,0,1,0,0)"><text x="225.68" y="570.52" style="fill: rgb(64,64,64); fill-opacity: 1.0; font-family: Tahoma; font-size: 12px;" clip-path="url(#_366314679884543clip-0)">1,0</text></g><line x1="234.18" y1="556" x2="234.18" y2="554" style="stroke-width: 0.5;stroke: rgb(128,128,128);stroke-opacity: 1.0;stroke-linecap: square;shape-rendering:crispEdges;" transform="matrix(1,0,0,1,0,0)" clip-path="url(#_366314679884543clip-0)"/><g transform="matrix(1,0,0,1,0,0)"><text x="296.59" y="570.52" style="fill: rgb(64,64,64); fill-opacity: 1.0; font-family: Tahoma; font-size: 12px;" clip-path="url(#_366314679884543clip-0)">1,5</text></g><line x1="305.09" y1="556" x2="305.09" y2="554" style="stroke-width: 0.5;stroke: rgb(128,128,128);stroke-opacity: 1.0;stroke-linecap: square;shape-rendering:crispEdges;" transform="matrix(1,0,0,1,0,0)" clip-path="url(#_366314679884543clip-0)"/><g transform="matrix(1,0,0,1,0,0)"><text x="367.5" y="570.52" style="fill: rgb(64,64,64); fill-opacity: 1.0; font-family: Tahoma; font-size: 12px;" clip-path="url(#_366314679884543clip-0)">2,0</text></g><line x1="376" y1="556" x2="376" y2="554" style="stroke-width: 0.5;stroke: rgb(128,128,128);stroke-opacity: 1.0;stroke-linecap: square;shape-rendering:crispEdges;" transform="matrix(1,0,0,1,0,0)" clip-path="url(#_366314679884543clip-0)"/><g transform="matrix(1,0,0,1,0,0)"><text x="438.41" y="570.52" style="fill: rgb(64,64,64); fill-opacity: 1.0; font-family: Tahoma; font-size: 12px;" clip-path="url(#_366314679884543clip-0)">2,5</text></g><line x1="446.91" y1="556" x2="446.91" y2="554" style="stroke-width: 0.5;stroke: rgb(128,128,128);stroke-opacity: 1.0;stroke-linecap: square;shape-rendering:crispEdges;" transform="matrix(1,0,0,1,0,0)" clip-path="url(#_366314679884543clip-0)"/><g transform="matrix(1,0,0,1,0,0)"><text x="509.32" y="570.52" style="fill: rgb(64,64,64); fill-opacity: 1.0; font-family: Tahoma; font-size: 12px;" clip-path="url(#_366314679884543clip-0)">3,0</text></g><line x1="517.82" y1="556" x2="517.82" y2="554" style="stroke-width: 0.5;stroke: rgb(128,128,128);stroke-opacity: 1.0;stroke-linecap: square;shape-rendering:crispEdges;" transform="matrix(1,0,0,1,0,0)" clip-path="url(#_366314679884543clip-0)"/><g transform="matrix(1,0,0,1,0,0)"><text x="580.23" y="570.52" style="fill: rgb(64,64,64); fill-opacity: 1.0; font-family: Tahoma; font-size: 12px;" clip-path="url(#_366314679884543clip-0)">3,5</text></g><line x1="588.73" y1="556" x2="588.73" y2="554" style="stroke-width: 0.5;stroke: rgb(128,128,128);stroke-opacity: 1.0;stroke-linecap: square;shape-rendering:crispEdges;" transform="matrix(1,0,0,1,0,0)" clip-path="url(#_366314679884543clip-0)"/><g transform="matrix(1,0,0,1,0,0)"><text x="651.14" y="570.52" style="fill: rgb(64,64,64); fill-opacity: 1.0; font-family: Tahoma; font-size: 12px;" clip-path="url(#_366314679884543clip-0)">4,0</text></g><line x1="659.64" y1="556" x2="659.64" y2="554" style="stroke-width: 0.5;stroke: rgb(128,128,128);stroke-opacity: 1.0;stroke-linecap: square;shape-rendering:crispEdges;" transform="matrix(1,0,0,1,0,0)" clip-path="url(#_366314679884543clip-0)"/><g transform="matrix(1,0,0,1,0,0)"><text x="356.5" y="589.59" style="fill: rgb(64,64,64); fill-opacity: 1.0; font-family: Tahoma; font-size: 14px; font-weight: bold;" clip-path="url(#_366314679884543clip-0)">x (m)</text></g><line x1="60" y1="35" x2="60" y2="550" style="stroke-width: 0.5;stroke: rgb(128,128,128);stroke-opacity: 1.0;stroke-linecap: square;shape-rendering:crispEdges;" transform="matrix(1,0,0,1,0,0)" clip-path="url(#_366314679884543clip-0)"/><g transform="matrix(1,0,0,1,0,0)"><text x="33" y="51.57" style="fill: rgb(64,64,64); fill-opacity: 1.0; font-family: Tahoma; font-size: 12px;" clip-path="url(#_366314679884543clip-0)">-1,0</text></g><line x1="58" y1="46.55" x2="60" y2="46.55" style="stroke-width: 0.5;stroke: rgb(128,128,128);stroke-opacity: 1.0;stroke-linecap: square;shape-rendering:crispEdges;" transform="matrix(1,0,0,1,0,0)" clip-path="url(#_366314679884543clip-0)"/><g transform="matrix(1,0,0,1,0,0)"><text x="33" y="74.98" style="fill: rgb(64,64,64); fill-opacity: 1.0; font-family: Tahoma; font-size: 12px;" clip-path="url(#_366314679884543clip-0)">-0,8</text></g><line x1="58" y1="69.96" x2="60" y2="69.96" style="stroke-width: 0.5;stroke: rgb(128,128,128);stroke-opacity: 1.0;stroke-linecap: square;shape-rendering:crispEdges;" transform="matrix(1,0,0,1,0,0)" clip-path="url(#_366314679884543clip-0)"/><g transform="matrix(1,0,0,1,0,0)"><text x="33" y="98.39" style="fill: rgb(64,64,64); fill-opacity: 1.0; font-family: Tahoma; font-size: 12px;" clip-path="url(#_366314679884543clip-0)">-0,6</text></g><line x1="58" y1="93.37" x2="60" y2="93.37" style="stroke-width: 0.5;stroke: rgb(128,128,128);stroke-opacity: 1.0;stroke-linecap: square;shape-rendering:crispEdges;" transform="matrix(1,0,0,1,0,0)" clip-path="url(#_366314679884543clip-0)"/><g transform="matrix(1,0,0,1,0,0)"><text x="33" y="121.8" style="fill: rgb(64,64,64); fill-opacity: 1.0; font-family: Tahoma; font-size: 12px;" clip-path="url(#_366314679884543clip-0)">-0,4</text></g><line x1="58" y1="116.78" x2="60" y2="116.78" style="stroke-width: 0.5;stroke: rgb(128,128,128);stroke-opacity: 1.0;stroke-linecap: square;shape-rendering:crispEdges;" transform="matrix(1,0,0,1,0,0)" clip-path="url(#_366314679884543clip-0)"/><g transform="matrix(1,0,0,1,0,0)"><text x="33" y="145.21" style="fill: rgb(64,64,64); fill-opacity: 1.0; font-family: Tahoma; font-size: 12px;" clip-path="url(#_366314679884543clip-0)">-0,2</text></g><line x1="58" y1="140.19" x2="60" y2="140.19" style="stroke-width: 0.5;stroke: rgb(128,128,128);stroke-opacity: 1.0;stroke-linecap: square;shape-rendering:crispEdges;" transform="matrix(1,0,0,1,0,0)" clip-path="url(#_366314679884543clip-0)"/><g transform="matrix(1,0,0,1,0,0)"><text x="37" y="168.62" style="fill: rgb(64,64,64); fill-opacity: 1.0; font-family: Tahoma; font-size: 12px;" clip-path="url(#_366314679884543clip-0)">0,0</text></g><line x1="58" y1="163.59" x2="60" y2="163.59" style="stroke-width: 0.5;stroke: rgb(128,128,128);stroke-opacity: 1.0;stroke-linecap: square;shape-rendering:crispEdges;" transform="matrix(1,0,0,1,0,0)" clip-path="url(#_366314679884543clip-0)"/><g transform="matrix(1,0,0,1,0,0)"><text x="37" y="192.03" style="fill: rgb(64,64,64); fill-opacity: 1.0; font-family: Tahoma; font-size: 12px;" clip-path="url(#_366314679884543clip-0)">0,2</text></g><line x1="58" y1="187" x2="60" y2="187" style="stroke-width: 0.5;stroke: rgb(128,128,128);stroke-opacity: 1.0;stroke-linecap: square;shape-rendering:crispEdges;" transform="matrix(1,0,0,1,0,0)" clip-path="url(#_366314679884543clip-0)"/><g transform="matrix(1,0,0,1,0,0)"><text x="37" y="215.43" style="fill: rgb(64,64,64); fill-opacity: 1.0; font-family: Tahoma; font-size: 12px;" clip-path="url(#_366314679884543clip-0)">0,4</text></g><line x1="58" y1="210.41" x2="60" y2="210.41" style="stroke-width: 0.5;stroke: rgb(128,128,128);stroke-opacity: 1.0;stroke-linecap: square;shape-rendering:crispEdges;" transform="matrix(1,0,0,1,0,0)" clip-path="url(#_366314679884543clip-0)"/><g transform="matrix(1,0,0,1,0,0)"><text x="37" y="238.84" style="fill: rgb(64,64,64); fill-opacity: 1.0; font-family: Tahoma; font-size: 12px;" clip-path="url(#_366314679884543clip-0)">0,6</text></g><line x1="58" y1="233.82" x2="60" y2="233.82" style="stroke-width: 0.5;stroke: rgb(128,128,128);stroke-opacity: 1.0;stroke-linecap: square;shape-rendering:crispEdges;" transform="matrix(1,0,0,1,0,0)" clip-path="url(#_366314679884543clip-0)"/><g transform="matrix(1,0,0,1,0,0)"><text x="37" y="262.25" style="fill: rgb(64,64,64); fill-opacity: 1.0; font-family: Tahoma; font-size: 12px;" clip-path="url(#_366314679884543clip-0)">0,8</text></g><line x1="58" y1="257.23" x2="60" y2="257.23" style="stroke-width: 0.5;stroke: rgb(128,128,128);stroke-opacity: 1.0;stroke-linecap: square;shape-rendering:crispEdges;" transform="matrix(1,0,0,1,0,0)" clip-path="url(#_366314679884543clip-0)"/><g transform="matrix(1,0,0,1,0,0)"><text x="37" y="285.66" style="fill: rgb(64,64,64); fill-opacity: 1.0; font-family: Tahoma; font-size: 12px;" clip-path="url(#_366314679884543clip-0)">1,0</text></g><line x1="58" y1="280.64" x2="60" y2="280.64" style="stroke-width: 0.5;stroke: rgb(128,128,128);stroke-opacity: 1.0;stroke-linecap: square;shape-rendering:crispEdges;" transform="matrix(1,0,0,1,0,0)" clip-path="url(#_366314679884543clip-0)"/><g transform="matrix(1,0,0,1,0,0)"><text x="37" y="309.07" style="fill: rgb(64,64,64); fill-opacity: 1.0; font-family: Tahoma; font-size: 12px;" clip-path="url(#_366314679884543clip-0)">1,2</text></g><line x1="58" y1="304.05" x2="60" y2="304.05" style="stroke-width: 0.5;stroke: rgb(128,128,128);stroke-opacity: 1.0;stroke-linecap: square;shape-rendering:crispEdges;" transform="matrix(1,0,0,1,0,0)" clip-path="url(#_366314679884543clip-0)"/><g transform="matrix(1,0,0,1,0,0)"><text x="37" y="332.48" style="fill: rgb(64,64,64); fill-opacity: 1.0; font-family: Tahoma; font-size: 12px;" clip-path="url(#_366314679884543clip-0)">1,4</text></g><line x1="58" y1="327.46" x2="60" y2="327.46" style="stroke-width: 0.5;stroke: rgb(128,128,128);stroke-opacity: 1.0;stroke-linecap: square;shape-rendering:crispEdges;" transform="matrix(1,0,0,1,0,0)" clip-path="url(#_366314679884543clip-0)"/><g transform="matrix(1,0,0,1,0,0)"><text x="37" y="355.89" style="fill: rgb(64,64,64); fill-opacity: 1.0; font-family: Tahoma; font-size: 12px;" clip-path="url(#_366314679884543clip-0)">1,6</text></g><line x1="58" y1="350.87" x2="60" y2="350.87" style="stroke-width: 0.5;stroke: rgb(128,128,128);stroke-opacity: 1.0;stroke-linecap: square;shape-rendering:crispEdges;" transform="matrix(1,0,0,1,0,0)" clip-path="url(#_366314679884543clip-0)"/><g transform="matrix(1,0,0,1,0,0)"><text x="37" y="379.3" style="fill: rgb(64,64,64); fill-opacity: 1.0; font-family: Tahoma; font-size: 12px;" clip-path="url(#_366314679884543clip-0)">1,8</text></g><line x1="58" y1="374.28" x2="60" y2="374.28" style="stroke-width: 0.5;stroke: rgb(128,128,128);stroke-opacity: 1.0;stroke-linecap: square;shape-rendering:crispEdges;" transform="matrix(1,0,0,1,0,0)" clip-path="url(#_366314679884543clip-0)"/><g transform="matrix(1,0,0,1,0,0)"><text x="37" y="402.71" style="fill: rgb(64,64,64); fill-opacity: 1.0; font-family: Tahoma; font-size: 12px;" clip-path="url(#_366314679884543clip-0)">2,0</text></g><line x1="58" y1="397.69" x2="60" y2="397.69" style="stroke-width: 0.5;stroke: rgb(128,128,128);stroke-opacity: 1.0;stroke-linecap: square;shape-rendering:crispEdges;" transform="matrix(1,0,0,1,0,0)" clip-path="url(#_366314679884543clip-0)"/><g transform="matrix(1,0,0,1,0,0)"><text x="37" y="426.12" style="fill: rgb(64,64,64); fill-opacity: 1.0; font-family: Tahoma; font-size: 12px;" clip-path="url(#_366314679884543clip-0)">2,2</text></g><line x1="58" y1="421.09" x2="60" y2="421.09" style="stroke-width: 0.5;stroke: rgb(128,128,128);stroke-opacity: 1.0;stroke-linecap: square;shape-rendering:crispEdges;" transform="matrix(1,0,0,1,0,0)" clip-path="url(#_366314679884543clip-0)"/><g transform="matrix(1,0,0,1,0,0)"><text x="37" y="449.53" style="fill: rgb(64,64,64); fill-opacity: 1.0; font-family: Tahoma; font-size: 12px;" clip-path="url(#_366314679884543clip-0)">2,4</text></g><line x1="58" y1="444.5" x2="60" y2="444.5" style="stroke-width: 0.5;stroke: rgb(128,128,128);stroke-opacity: 1.0;stroke-linecap: square;shape-rendering:crispEdges;" transform="matrix(1,0,0,1,0,0)" clip-path="url(#_366314679884543clip-0)"/><g transform="matrix(1,0,0,1,0,0)"><text x="37" y="472.93" style="fill: rgb(64,64,64); fill-opacity: 1.0; font-family: Tahoma; font-size: 12px;" clip-path="url(#_366314679884543clip-0)">2,6</text></g><line x1="58" y1="467.91" x2="60" y2="467.91" style="stroke-width: 0.5;stroke: rgb(128,128,128);stroke-opacity: 1.0;stroke-linecap: square;shape-rendering:crispEdges;" transform="matrix(1,0,0,1,0,0)" clip-path="url(#_366314679884543clip-0)"/><g transform="matrix(1,0,0,1,0,0)"><text x="37" y="496.34" style="fill: rgb(64,64,64); fill-opacity: 1.0; font-family: Tahoma; font-size: 12px;" clip-path="url(#_366314679884543clip-0)">2,8</text></g><line x1="58" y1="491.32" x2="60" y2="491.32" style="stroke-width: 0.5;stroke: rgb(128,128,128);stroke-opacity: 1.0;stroke-linecap: square;shape-rendering:crispEdges;" transform="matrix(1,0,0,1,0,0)" clip-path="url(#_366314679884543clip-0)"/><g transform="matrix(1,0,0,1,0,0)"><text x="37" y="519.75" style="fill: rgb(64,64,64); fill-opacity: 1.0; font-family: Tahoma; font-size: 12px;" clip-path="url(#_366314679884543clip-0)">3,0</text></g><line x1="58" y1="514.73" x2="60" y2="514.73" style="stroke-width: 0.5;stroke: rgb(128,128,128);stroke-opacity: 1.0;stroke-linecap: square;shape-rendering:crispEdges;" transform="matrix(1,0,0,1,0,0)" clip-path="url(#_366314679884543clip-0)"/><g transform="matrix(1,0,0,1,0,0)"><text x="37" y="543.16" style="fill: rgb(64,64,64); fill-opacity: 1.0; font-family: Tahoma; font-size: 12px;" clip-path="url(#_366314679884543clip-0)">3,2</text></g><line x1="58" y1="538.14" x2="60" y2="538.14" style="stroke-width: 0.5;stroke: rgb(128,128,128);stroke-opacity: 1.0;stroke-linecap: square;shape-rendering:crispEdges;" transform="matrix(1,0,0,1,0,0)" clip-path="url(#_366314679884543clip-0)"/><g style="fill: rgb(64,64,64); fill-opacity: 1.0; stroke: none" transform="matrix(0,-1,1,0,-273,312)" clip-path="url(#_366314679884543clip-1)"><path d="M 8.58 290.44 L 4.7 300.92 L 2.14 300.92 L 3.3 297.92 L 0.48 290.44 L 3 290.44 L 4.61 295.25 L 6.12 290.44 L 8.58 290.44 Z  M 18.47 300.92 L 15.96 300.92 Q 15.38 300.23 14.91 299.5 Q 14.44 298.76 14.1 297.94 Q 13.77 297.14 13.59 296.19 Q 13.41 295.23 13.41 294.2 Q 13.41 293.08 13.6 292.16 Q 13.79 291.23 14.08 290.48 Q 14.41 289.66 14.89 288.92 Q 15.36 288.19 15.96 287.47 L 18.47 287.47 L 18.47 287.67 Q 17.91 288.17 17.41 288.8 Q 16.91 289.44 16.49 290.28 Q 16.07 291.09 15.82 292.08 Q 15.57 293.08 15.57 294.2 Q 15.57 295.37 15.81 296.32 Q 16.05 297.26 16.49 298.11 Q 16.9 298.92 17.41 299.58 Q 17.93 300.25 18.47 300.73 L 18.47 300.92 Z  M 29.11 298.11 L 29.11 294.28 Q 29.11 293.7 29.09 293.31 Q 29.07 292.92 28.97 292.69 Q 28.86 292.44 28.64 292.32 Q 28.42 292.2 28.05 292.2 Q 27.77 292.2 27.5 292.33 Q 27.24 292.45 26.92 292.67 L 26.92 298.11 L 24.52 298.11 L 24.52 294.28 Q 24.52 293.72 24.5 293.32 Q 24.47 292.92 24.36 292.69 Q 24.27 292.44 24.05 292.32 Q 23.83 292.2 23.46 292.2 Q 23.16 292.2 22.88 292.34 Q 22.6 292.48 22.33 292.67 L 22.33 298.11 L 19.94 298.11 L 19.94 290.44 L 22.33 290.44 L 22.33 291.28 Q 22.91 290.78 23.43 290.5 Q 23.96 290.22 24.6 290.22 Q 25.32 290.22 25.85 290.55 Q 26.38 290.89 26.66 291.55 Q 27.35 290.91 27.96 290.56 Q 28.57 290.22 29.19 290.22 Q 29.74 290.22 30.16 290.39 Q 30.58 290.56 30.88 290.91 Q 31.19 291.26 31.35 291.78 Q 31.52 292.3 31.52 293.11 L 31.52 298.11 L 29.11 298.11 Z  M 37.96 294.2 Q 37.96 295.23 37.78 296.19 Q 37.6 297.14 37.29 297.94 Q 36.95 298.76 36.47 299.5 Q 35.99 300.23 35.42 300.92 L 32.92 300.92 L 32.92 300.73 Q 33.46 300.25 33.98 299.59 Q 34.49 298.94 34.9 298.11 Q 35.32 297.26 35.57 296.32 Q 35.82 295.37 35.82 294.2 Q 35.82 293.08 35.56 292.08 Q 35.31 291.09 34.9 290.28 Q 34.46 289.44 33.96 288.8 Q 33.46 288.17 32.92 287.67 L 32.92 287.47 L 35.42 287.47 Q 36.01 288.19 36.49 288.92 Q 36.96 289.66 37.29 290.48 Q 37.59 291.23 37.78 292.16 Q 37.96 293.08 37.96 294.2 Z "/></g><line x1="64" y1="46.55" x2="688" y2="46.55" style="stroke-width: 0.5;stroke: rgb(128,128,128);stroke-opacity: 0.5;stroke-linejoin: bevel;stroke-dasharray: 2.0, 2.0;shape-rendering:crispEdges;" transform="matrix(1,0,0,1,0,0)" clip-path="url(#_366314679884543clip-2)"/><line x1="64" y1="69.96" x2="688" y2="69.96" style="stroke-width: 0.5;stroke: rgb(128,128,128);stroke-opacity: 0.5;stroke-linejoin: bevel;stroke-dasharray: 2.0, 2.0;shape-rendering:crispEdges;" transform="matrix(1,0,0,1,0,0)" clip-path="url(#_366314679884543clip-2)"/><line x1="64" y1="93.37" x2="688" y2="93.37" style="stroke-width: 0.5;stroke: rgb(128,128,128);stroke-opacity: 0.5;stroke-linejoin: bevel;stroke-dasharray: 2.0, 2.0;shape-rendering:crispEdges;" transform="matrix(1,0,0,1,0,0)" clip-path="url(#_366314679884543clip-2)"/><line x1="64" y1="116.78" x2="688" y2="116.78" style="stroke-width: 0.5;stroke: rgb(128,128,128);stroke-opacity: 0.5;stroke-linejoin: bevel;stroke-dasharray: 2.0, 2.0;shape-rendering:crispEdges;" transform="matrix(1,0,0,1,0,0)" clip-path="url(#_366314679884543clip-2)"/><line x1="64" y1="140.19" x2="688" y2="140.19" style="stroke-width: 0.5;stroke: rgb(128,128,128);stroke-opacity: 0.5;stroke-linejoin: bevel;stroke-dasharray: 2.0, 2.0;shape-rendering:crispEdges;" transform="matrix(1,0,0,1,0,0)" clip-path="url(#_366314679884543clip-2)"/><line x1="64" y1="163.59" x2="688" y2="163.59" style="stroke-width: 0.5;stroke: rgb(128,128,128);stroke-opacity: 0.5;stroke-linejoin: bevel;stroke-dasharray: 2.0, 2.0;shape-rendering:crispEdges;" transform="matrix(1,0,0,1,0,0)" clip-path="url(#_366314679884543clip-2)"/><line x1="64" y1="187" x2="688" y2="187" style="stroke-width: 0.5;stroke: rgb(128,128,128);stroke-opacity: 0.5;stroke-linejoin: bevel;stroke-dasharray: 2.0, 2.0;shape-rendering:crispEdges;" transform="matrix(1,0,0,1,0,0)" clip-path="url(#_366314679884543clip-2)"/><line x1="64" y1="210.41" x2="688" y2="210.41" style="stroke-width: 0.5;stroke: rgb(128,128,128);stroke-opacity: 0.5;stroke-linejoin: bevel;stroke-dasharray: 2.0, 2.0;shape-rendering:crispEdges;" transform="matrix(1,0,0,1,0,0)" clip-path="url(#_366314679884543clip-2)"/><line x1="64" y1="233.82" x2="688" y2="233.82" style="stroke-width: 0.5;stroke: rgb(128,128,128);stroke-opacity: 0.5;stroke-linejoin: bevel;stroke-dasharray: 2.0, 2.0;shape-rendering:crispEdges;" transform="matrix(1,0,0,1,0,0)" clip-path="url(#_366314679884543clip-2)"/><line x1="64" y1="257.23" x2="688" y2="257.23" style="stroke-width: 0.5;stroke: rgb(128,128,128);stroke-opacity: 0.5;stroke-linejoin: bevel;stroke-dasharray: 2.0, 2.0;shape-rendering:crispEdges;" transform="matrix(1,0,0,1,0,0)" clip-path="url(#_366314679884543clip-2)"/><line x1="64" y1="280.64" x2="688" y2="280.64" style="stroke-width: 0.5;stroke: rgb(128,128,128);stroke-opacity: 0.5;stroke-linejoin: bevel;stroke-dasharray: 2.0, 2.0;shape-rendering:crispEdges;" transform="matrix(1,0,0,1,0,0)" clip-path="url(#_366314679884543clip-2)"/><line x1="64" y1="304.05" x2="688" y2="304.05" style="stroke-width: 0.5;stroke: rgb(128,128,128);stroke-opacity: 0.5;stroke-linejoin: bevel;stroke-dasharray: 2.0, 2.0;shape-rendering:crispEdges;" transform="matrix(1,0,0,1,0,0)" clip-path="url(#_366314679884543clip-2)"/><line x1="64" y1="327.46" x2="688" y2="327.46" style="stroke-width: 0.5;stroke: rgb(128,128,128);stroke-opacity: 0.5;stroke-linejoin: bevel;stroke-dasharray: 2.0, 2.0;shape-rendering:crispEdges;" transform="matrix(1,0,0,1,0,0)" clip-path="url(#_366314679884543clip-2)"/><line x1="64" y1="350.87" x2="688" y2="350.87" style="stroke-width: 0.5;stroke: rgb(128,128,128);stroke-opacity: 0.5;stroke-linejoin: bevel;stroke-dasharray: 2.0, 2.0;shape-rendering:crispEdges;" transform="matrix(1,0,0,1,0,0)" clip-path="url(#_366314679884543clip-2)"/><line x1="64" y1="374.28" x2="688" y2="374.28" style="stroke-width: 0.5;stroke: rgb(128,128,128);stroke-opacity: 0.5;stroke-linejoin: bevel;stroke-dasharray: 2.0, 2.0;shape-rendering:crispEdges;" transform="matrix(1,0,0,1,0,0)" clip-path="url(#_366314679884543clip-2)"/><line x1="64" y1="397.69" x2="688" y2="397.69" style="stroke-width: 0.5;stroke: rgb(128,128,128);stroke-opacity: 0.5;stroke-linejoin: bevel;stroke-dasharray: 2.0, 2.0;shape-rendering:crispEdges;" transform="matrix(1,0,0,1,0,0)" clip-path="url(#_366314679884543clip-2)"/><line x1="64" y1="421.09" x2="688" y2="421.09" style="stroke-width: 0.5;stroke: rgb(128,128,128);stroke-opacity: 0.5;stroke-linejoin: bevel;stroke-dasharray: 2.0, 2.0;shape-rendering:crispEdges;" transform="matrix(1,0,0,1,0,0)" clip-path="url(#_366314679884543clip-2)"/><line x1="64" y1="444.5" x2="688" y2="444.5" style="stroke-width: 0.5;stroke: rgb(128,128,128);stroke-opacity: 0.5;stroke-linejoin: bevel;stroke-dasharray: 2.0, 2.0;shape-rendering:crispEdges;" transform="matrix(1,0,0,1,0,0)" clip-path="url(#_366314679884543clip-2)"/><line x1="64" y1="467.91" x2="688" y2="467.91" style="stroke-width: 0.5;stroke: rgb(128,128,128);stroke-opacity: 0.5;stroke-linejoin: bevel;stroke-dasharray: 2.0, 2.0;shape-rendering:crispEdges;" transform="matrix(1,0,0,1,0,0)" clip-path="url(#_366314679884543clip-2)"/><line x1="64" y1="491.32" x2="688" y2="491.32" style="stroke-width: 0.5;stroke: rgb(128,128,128);stroke-opacity: 0.5;stroke-linejoin: bevel;stroke-dasharray: 2.0, 2.0;shape-rendering:crispEdges;" transform="matrix(1,0,0,1,0,0)" clip-path="url(#_366314679884543clip-2)"/><line x1="64" y1="514.73" x2="688" y2="514.73" style="stroke-width: 0.5;stroke: rgb(128,128,128);stroke-opacity: 0.5;stroke-linejoin: bevel;stroke-dasharray: 2.0, 2.0;shape-rendering:crispEdges;" transform="matrix(1,0,0,1,0,0)" clip-path="url(#_366314679884543clip-2)"/><line x1="64" y1="538.14" x2="688" y2="538.14" style="stroke-width: 0.5;stroke: rgb(128,128,128);stroke-opacity: 0.5;stroke-linejoin: bevel;stroke-dasharray: 2.0, 2.0;shape-rendering:crispEdges;" transform="matrix(1,0,0,1,0,0)" clip-path="url(#_366314679884543clip-2)"/><line x1="92.36" y1="35" x2="92.36" y2="550" style="stroke-width: 0.5;stroke: rgb(128,128,128);stroke-opacity: 0.5;stroke-linejoin: bevel;stroke-dasharray: 2.0, 2.0;shape-rendering:crispEdges;" transform="matrix(1,0,0,1,0,0)" clip-path="url(#_366314679884543clip-2)"/><line x1="163.27" y1="35" x2="163.27" y2="550" style="stroke-width: 0.5;stroke: rgb(128,128,128);stroke-opacity: 0.5;stroke-linejoin: bevel;stroke-dasharray: 2.0, 2.0;shape-rendering:crispEdges;" transform="matrix(1,0,0,1,0,0)" clip-path="url(#_366314679884543clip-2)"/><line x1="234.18" y1="35" x2="234.18" y2="550" style="stroke-width: 0.5;stroke: rgb(128,128,128);stroke-opacity: 0.5;stroke-linejoin: bevel;stroke-dasharray: 2.0, 2.0;shape-rendering:crispEdges;" transform="matrix(1,0,0,1,0,0)" clip-path="url(#_366314679884543clip-2)"/><line x1="305.09" y1="35" x2="305.09" y2="550" style="stroke-width: 0.5;stroke: rgb(128,128,128);stroke-opacity: 0.5;stroke-linejoin: bevel;stroke-dasharray: 2.0, 2.0;shape-rendering:crispEdges;" transform="matrix(1,0,0,1,0,0)" clip-path="url(#_366314679884543clip-2)"/><line x1="376" y1="35" x2="376" y2="550" style="stroke-width: 0.5;stroke: rgb(128,128,128);stroke-opacity: 0.5;stroke-linejoin: bevel;stroke-dasharray: 2.0, 2.0;shape-rendering:crispEdges;" transform="matrix(1,0,0,1,0,0)" clip-path="url(#_366314679884543clip-2)"/><line x1="446.91" y1="35" x2="446.91" y2="550" style="stroke-width: 0.5;stroke: rgb(128,128,128);stroke-opacity: 0.5;stroke-linejoin: bevel;stroke-dasharray: 2.0, 2.0;shape-rendering:crispEdges;" transform="matrix(1,0,0,1,0,0)" clip-path="url(#_366314679884543clip-2)"/><line x1="517.82" y1="35" x2="517.82" y2="550" style="stroke-width: 0.5;stroke: rgb(128,128,128);stroke-opacity: 0.5;stroke-linejoin: bevel;stroke-dasharray: 2.0, 2.0;shape-rendering:crispEdges;" transform="matrix(1,0,0,1,0,0)" clip-path="url(#_366314679884543clip-2)"/><line x1="588.73" y1="35" x2="588.73" y2="550" style="stroke-width: 0.5;stroke: rgb(128,128,128);stroke-opacity: 0.5;stroke-linejoin: bevel;stroke-dasharray: 2.0, 2.0;shape-rendering:crispEdges;" transform="matrix(1,0,0,1,0,0)" clip-path="url(#_366314679884543clip-2)"/><line x1="659.64" y1="35" x2="659.64" y2="550" style="stroke-width: 0.5;stroke: rgb(128,128,128);stroke-opacity: 0.5;stroke-linejoin: bevel;stroke-dasharray: 2.0, 2.0;shape-rendering:crispEdges;" transform="matrix(1,0,0,1,0,0)" clip-path="url(#_366314679884543clip-2)"/><g style="fill: rgb(34,139,34); fill-opacity: 0.5; stroke: none" transform="matrix(1,0,0,1,0,0)" clip-path="url(#_366314679884543clip-2)"><path d="M 92.36 163.59 L 92.36 163.59 L 132.88 169.49 L 173.4 175.39 L 213.92 181.28 L 254.44 187.18 L 294.96 193.08 L 335.48 198.97 L 376 204.87 L 416.52 210.77 L 457.04 216.66 L 497.56 222.56 L 538.08 228.46 L 578.6 234.35 L 619.12 240.25 L 659.64 246.15 L 659.64 337.91 L 619.12 340.93 L 578.6 343.94 L 538.08 346.96 L 497.56 349.97 L 457.04 352.99 L 416.52 356 L 376 359.02 L 335.48 362.04 L 294.96 365.05 L 254.44 368.07 L 213.92 371.08 L 173.4 374.1 L 132.88 377.11 L 92.36 380.13 L 92.36 163.59 L 92.36 163.59 Z "/></g><g style="fill: rgb(50,205,50); fill-opacity: 0.5; stroke: none" transform="matrix(1,0,0,1,0,0)" clip-path="url(#_366314679884543clip-2)"><path d="M 92.36 314.69 L 149.09 314.69 L 149.09 375.91 L 659.64 337.91 L 659.64 310.38 L 149.09 314.69 L 92.36 314.69 Z "/></g><line x1="92.36" y1="163.59" x2="132.88" y2="169.49" style="stroke-width: 1.5;stroke: rgb(0,0,0);stroke-opacity: 0.5;stroke-linecap: round;stroke-linejoin: round;shape-rendering:geometricPrecision;" transform="matrix(1,0,0,1,0,0)" clip-path="url(#_366314679884543clip-2)"/><line x1="132.88" y1="169.49" x2="173.4" y2="175.39" style="stroke-width: 1.5;stroke: rgb(0,0,0);stroke-opacity: 0.5;stroke-linecap: round;stroke-linejoin: round;shape-rendering:geometricPrecision;" transform="matrix(1,0,0,1,0,0)" clip-path="url(#_366314679884543clip-2)"/><line x1="173.4" y1="175.39" x2="213.92" y2="181.28" style="stroke-width: 1.5;stroke: rgb(0,0,0);stroke-opacity: 0.5;stroke-linecap: round;stroke-linejoin: round;shape-rendering:geometricPrecision;" transform="matrix(1,0,0,1,0,0)" clip-path="url(#_366314679884543clip-2)"/><line x1="213.92" y1="181.28" x2="254.44" y2="187.18" style="stroke-width: 1.5;stroke: rgb(0,0,0);stroke-opacity: 0.5;stroke-linecap: round;stroke-linejoin: round;shape-rendering:geometricPrecision;" transform="matrix(1,0,0,1,0,0)" clip-path="url(#_366314679884543clip-2)"/><line x1="254.44" y1="187.18" x2="294.96" y2="193.08" style="stroke-width: 1.5;stroke: rgb(0,0,0);stroke-opacity: 0.5;stroke-linecap: round;stroke-linejoin: round;shape-rendering:geometricPrecision;" transform="matrix(1,0,0,1,0,0)" clip-path="url(#_366314679884543clip-2)"/><line x1="294.96" y1="193.08" x2="335.48" y2="198.97" style="stroke-width: 1.5;stroke: rgb(0,0,0);stroke-opacity: 0.5;stroke-linecap: round;stroke-linejoin: round;shape-rendering:geometricPrecision;" transform="matrix(1,0,0,1,0,0)" clip-path="url(#_366314679884543clip-2)"/><line x1="335.48" y1="198.97" x2="376" y2="204.87" style="stroke-width: 1.5;stroke: rgb(0,0,0);stroke-opacity: 0.5;stroke-linecap: round;stroke-linejoin: round;shape-rendering:geometricPrecision;" transform="matrix(1,0,0,1,0,0)" clip-path="url(#_366314679884543clip-2)"/><line x1="376" y1="204.87" x2="416.52" y2="210.77" style="stroke-width: 1.5;stroke: rgb(0,0,0);stroke-opacity: 0.5;stroke-linecap: round;stroke-linejoin: round;shape-rendering:geometricPrecision;" transform="matrix(1,0,0,1,0,0)" clip-path="url(#_366314679884543clip-2)"/><line x1="416.52" y1="210.77" x2="457.04" y2="216.66" style="stroke-width: 1.5;stroke: rgb(0,0,0);stroke-opacity: 0.5;stroke-linecap: round;stroke-linejoin: round;shape-rendering:geometricPrecision;" transform="matrix(1,0,0,1,0,0)" clip-path="url(#_366314679884543clip-2)"/><line x1="457.04" y1="216.66" x2="497.56" y2="222.56" style="stroke-width: 1.5;stroke: rgb(0,0,0);stroke-opacity: 0.5;stroke-linecap: round;stroke-linejoin: round;shape-rendering:geometricPrecision;" transform="matrix(1,0,0,1,0,0)" clip-path="url(#_366314679884543clip-2)"/><line x1="497.56" y1="222.56" x2="538.08" y2="228.46" style="stroke-width: 1.5;stroke: rgb(0,0,0);stroke-opacity: 0.5;stroke-linecap: round;stroke-linejoin: round;shape-rendering:geometricPrecision;" transform="matrix(1,0,0,1,0,0)" clip-path="url(#_366314679884543clip-2)"/><line x1="538.08" y1="228.46" x2="578.6" y2="234.35" style="stroke-width: 1.5;stroke: rgb(0,0,0);stroke-opacity: 0.5;stroke-linecap: round;stroke-linejoin: round;shape-rendering:geometricPrecision;" transform="matrix(1,0,0,1,0,0)" clip-path="url(#_366314679884543clip-2)"/><line x1="578.6" y1="234.35" x2="619.12" y2="240.25" style="stroke-width: 1.5;stroke: rgb(0,0,0);stroke-opacity: 0.5;stroke-linecap: round;stroke-linejoin: round;shape-rendering:geometricPrecision;" transform="matrix(1,0,0,1,0,0)" clip-path="url(#_366314679884543clip-2)"/><line x1="619.12" y1="240.25" x2="659.64" y2="246.15" style="stroke-width: 1.5;stroke: rgb(0,0,0);stroke-opacity: 0.5;stroke-linecap: round;stroke-linejoin: round;shape-rendering:geometricPrecision;" transform="matrix(1,0,0,1,0,0)" clip-path="url(#_366314679884543clip-2)"/><line x1="659.64" y1="246.15" x2="659.64" y2="337.91" style="stroke-width: 1.5;stroke: rgb(0,0,0);stroke-opacity: 0.5;stroke-linecap: round;stroke-linejoin: round;shape-rendering:geometricPrecision;" transform="matrix(1,0,0,1,0,0)" clip-path="url(#_366314679884543clip-2)"/><line x1="659.64" y1="337.91" x2="619.12" y2="340.93" style="stroke-width: 1.5;stroke: rgb(0,0,0);stroke-opacity: 0.5;stroke-linecap: round;stroke-linejoin: round;shape-rendering:geometricPrecision;" transform="matrix(1,0,0,1,0,0)" clip-path="url(#_366314679884543clip-2)"/><line x1="619.12" y1="340.93" x2="578.6" y2="343.94" style="stroke-width: 1.5;stroke: rgb(0,0,0);stroke-opacity: 0.5;stroke-linecap: round;stroke-linejoin: round;shape-rendering:geometricPrecision;" transform="matrix(1,0,0,1,0,0)" clip-path="url(#_366314679884543clip-2)"/><line x1="578.6" y1="343.94" x2="538.08" y2="346.96" style="stroke-width: 1.5;stroke: rgb(0,0,0);stroke-opacity: 0.5;stroke-linecap: round;stroke-linejoin: round;shape-rendering:geometricPrecision;" transform="matrix(1,0,0,1,0,0)" clip-path="url(#_366314679884543clip-2)"/><line x1="538.08" y1="346.96" x2="497.56" y2="349.97" style="stroke-width: 1.5;stroke: rgb(0,0,0);stroke-opacity: 0.5;stroke-linecap: round;stroke-linejoin: round;shape-rendering:geometricPrecision;" transform="matrix(1,0,0,1,0,0)" clip-path="url(#_366314679884543clip-2)"/><line x1="497.56" y1="349.97" x2="457.04" y2="352.99" style="stroke-width: 1.5;stroke: rgb(0,0,0);stroke-opacity: 0.5;stroke-linecap: round;stroke-linejoin: round;shape-rendering:geometricPrecision;" transform="matrix(1,0,0,1,0,0)" clip-path="url(#_366314679884543clip-2)"/><line x1="457.04" y1="352.99" x2="416.52" y2="356" style="stroke-width: 1.5;stroke: rgb(0,0,0);stroke-opacity: 0.5;stroke-linecap: round;stroke-linejoin: round;shape-rendering:geometricPrecision;" transform="matrix(1,0,0,1,0,0)" clip-path="url(#_366314679884543clip-2)"/><line x1="416.52" y1="356" x2="376" y2="359.02" style="stroke-width: 1.5;stroke: rgb(0,0,0);stroke-opacity: 0.5;stroke-linecap: round;stroke-linejoin: round;shape-rendering:geometricPrecision;" transform="matrix(1,0,0,1,0,0)" clip-path="url(#_366314679884543clip-2)"/><line x1="376" y1="359.02" x2="335.48" y2="362.04" style="stroke-width: 1.5;stroke: rgb(0,0,0);stroke-opacity: 0.5;stroke-linecap: round;stroke-linejoin: round;shape-rendering:geometricPrecision;" transform="matrix(1,0,0,1,0,0)" clip-path="url(#_366314679884543clip-2)"/><line x1="335.48" y1="362.04" x2="294.96" y2="365.05" style="stroke-width: 1.5;stroke: rgb(0,0,0);stroke-opacity: 0.5;stroke-linecap: round;stroke-linejoin: round;shape-rendering:geometricPrecision;" transform="matrix(1,0,0,1,0,0)" clip-path="url(#_366314679884543clip-2)"/><line x1="294.96" y1="365.05" x2="254.44" y2="368.07" style="stroke-width: 1.5;stroke: rgb(0,0,0);stroke-opacity: 0.5;stroke-linecap: round;stroke-linejoin: round;shape-rendering:geometricPrecision;" transform="matrix(1,0,0,1,0,0)" clip-path="url(#_366314679884543clip-2)"/><line x1="254.44" y1="368.07" x2="213.92" y2="371.08" style="stroke-width: 1.5;stroke: rgb(0,0,0);stroke-opacity: 0.5;stroke-linecap: round;stroke-linejoin: round;shape-rendering:geometricPrecision;" transform="matrix(1,0,0,1,0,0)" clip-path="url(#_366314679884543clip-2)"/><line x1="213.92" y1="371.08" x2="173.4" y2="374.1" style="stroke-width: 1.5;stroke: rgb(0,0,0);stroke-opacity: 0.5;stroke-linecap: round;stroke-linejoin: round;shape-rendering:geometricPrecision;" transform="matrix(1,0,0,1,0,0)" clip-path="url(#_366314679884543clip-2)"/><line x1="173.4" y1="374.1" x2="132.88" y2="377.11" style="stroke-width: 1.5;stroke: rgb(0,0,0);stroke-opacity: 0.5;stroke-linecap: round;stroke-linejoin: round;shape-rendering:geometricPrecision;" transform="matrix(1,0,0,1,0,0)" clip-path="url(#_366314679884543clip-2)"/><line x1="132.88" y1="377.11" x2="92.36" y2="380.13" style="stroke-width: 1.5;stroke: rgb(0,0,0);stroke-opacity: 0.5;stroke-linecap: round;stroke-linejoin: round;shape-rendering:geometricPrecision;" transform="matrix(1,0,0,1,0,0)" clip-path="url(#_366314679884543clip-2)"/><line x1="92.36" y1="380.13" x2="92.36" y2="163.59" style="stroke-width: 1.5;stroke: rgb(0,0,0);stroke-opacity: 0.5;stroke-linecap: round;stroke-linejoin: round;shape-rendering:geometricPrecision;" transform="matrix(1,0,0,1,0,0)" clip-path="url(#_366314679884543clip-2)"/><line x1="149.09" y1="314.69" x2="149.09" y2="375.91" style="stroke-width: 1.5;stroke: rgb(0,0,0);stroke-opacity: 0.5;stroke-linecap: round;stroke-linejoin: round;shape-rendering:geometricPrecision;" transform="matrix(1,0,0,1,0,0)" clip-path="url(#_366314679884543clip-2)"/><line x1="149.09" y1="375.91" x2="659.64" y2="337.91" style="stroke-width: 1.5;stroke: rgb(0,0,0);stroke-opacity: 0.5;stroke-linecap: round;stroke-linejoin: round;shape-rendering:geometricPrecision;" transform="matrix(1,0,0,1,0,0)" clip-path="url(#_366314679884543clip-2)"/><line x1="659.64" y1="337.91" x2="659.64" y2="310.38" style="stroke-width: 1.5;stroke: rgb(0,0,0);stroke-opacity: 0.5;stroke-linecap: round;stroke-linejoin: round;shape-rendering:geometricPrecision;" transform="matrix(1,0,0,1,0,0)" clip-path="url(#_366314679884543clip-2)"/><line x1="659.64" y1="310.38" x2="149.09" y2="314.69" style="stroke-width: 1.5;stroke: rgb(0,0,0);stroke-opacity: 0.5;stroke-linecap: round;stroke-linejoin: round;shape-rendering:geometricPrecision;" transform="matrix(1,0,0,1,0,0)" clip-path="url(#_366314679884543clip-2)"/><line x1="337.72" y1="199.3" x2="337.72" y2="361.87" style="stroke-width: 2.5;stroke: rgb(255,85,85);stroke-opacity: 0.5;stroke-linecap: round;stroke-linejoin: round;stroke-dasharray: 5.0;shape-rendering:geometricPrecision;" transform="matrix(1,0,0,1,0,0)" clip-path="url(#_366314679884543clip-2)"/><rect x="64" y="35" width="624" height="515" style="stroke-width: 0.5;stroke: rgb(0,0,0);stroke-opacity: 1.0;stroke-linecap: round;stroke-linejoin: round;shape-rendering:crispEdges;; fill: none" transform="matrix(1,0,0,1,0,0)" clip-path="url(#_366314679884543clip-0)"/></svg>
