<!DOCTYPE svg PUBLIC "-//W3C//DTD SVG 1.1//EN" "http://www.w3.org/Graphics/SVG/1.1/DTD/svg11.dtd">
<svg xmlns="http://www.w3.org/2000/svg" xmlns:xlink="http://www.w3.org/1999/xlink" xmlns:jfreesvg="http://www.jfree.org/jfreesvg/svg" width="650" height="650" text-rendering="auto" shape-rendering="auto">
<defs><clipPath id="_412348105178483clip-0"><path d="M 0 0 L 650 0 L 650 650 L 0 650 L 0 0 Z "/></clipPath>
<clipPath id="_412348105178483clip-1"><path d="M 337 298 L 337 948 L -313 948 L -313 298 L 337 298 Z "/></clipPath>
<clipPath id="_412348105178483clip-2"><path d="M 54 35 L 54 600 L 638 600 L 638 35 Z "/></clipPath>
</defs>
<rect x="0" y="0" width="650" height="650" style="fill: rgb(245,245,245); fill-opacity: 1.0" transform="matrix(1,0,0,1,0,0)" clip-path="url(#_412348105178483clip-0)"/><g transform="matrix(1,0,0,1,0,0)"><text x="173" y="21.01" style="fill: rgb(0,0,0); fill-opacity: 1.0; font-family: Tahoma; font-size: 20px; font-weight: bold;" clip-path="url(#_412348105178483clip-0)">Wing Planform representation</text></g><rect x="54" y="35" width="584" height="565" style="fill: rgb(240,248,255); fill-opacity: 0.0" transform="matrix(1,0,0,1,0,0)" clip-path="url(#_412348105178483clip-0)"/><line x1="54" y1="604" x2="638" y2="604" style="stroke-width: 0.5;stroke: rgb(128,128,128);stroke-opacity: 1.0;stroke-linecap: square;shape-rendering:crispEdges;" transform="matrix(1,0,0,1,0,0)" clip-path="url(#_412348105178483clip-0)"/><g transform="matrix(1,0,0,1,0,0)"><text x="77.05" y="620.52" style="fill: rgb(64,64,64); fill-opacity: 1.0; font-family: Tahoma; font-size: 12px;" clip-path="url(#_412348105178483clip-0)">0</text></g><line x1="80.55" y1="606" x2="80.55" y2="604" style="stroke-width: 0.5;stroke: rgb(128,128,128);stroke-opacity: 1.0;stroke-linecap: square;shape-rendering:crispEdges;" transform="matrix(1,0,0,1,0,0)" clip-path="url(#_412348105178483clip-0)"/><g transform="matrix(1,0,0,1,0,0)"><text x="112.6" y="620.52" style="fill: rgb(64,64,64); fill-opacity: 1.0; font-family: Tahoma; font-size: 12px;" clip-path="url(#_412348105178483clip-0)">1</text></g><line x1="116.1" y1="606" x2="116.1" y2="604" style="stroke-width: 0.5;stroke: rgb(128,128,128);stroke-opacity: 1.0;stroke-linecap: square;shape-rendering:crispEdges;" transform="matrix(1,0,0,1,0,0)" clip-path="url(#_412348105178483clip-0)"/><g transform="matrix(1,0,0,1,0,0)"><text x="148.16" y="620.52" style="fill: rgb(64,64,64); fill-opacity: 1.0; font-family: Tahoma; font-size: 12px;" clip-path="url(#_412348105178483clip-0)">2</text></g><line x1="151.66" y1="606" x2="151.66" y2="604" style="stroke-width: 0.5;stroke: rgb(128,128,128);stroke-opacity: 1.0;stroke-linecap: square;shape-rendering:crispEdges;" transform="matrix(1,0,0,1,0,0)" clip-path="url(#_412348105178483clip-0)"/><g transform="matrix(1,0,0,1,0,0)"><text x="183.72" y="620.52" style="fill: rgb(64,64,64); fill-opacity: 1.0; font-family: Tahoma; font-size: 12px;" clip-path="url(#_412348105178483clip-0)">3</text></g><line x1="187.22" y1="606" x2="187.22" y2="604" style="stroke-width: 0.5;stroke: rgb(128,128,128);stroke-opacity: 1.0;stroke-linecap: square;shape-rendering:crispEdges;" transform="matrix(1,0,0,1,0,0)" clip-path="url(#_412348105178483clip-0)"/><g transform="matrix(1,0,0,1,0,0)"><text x="219.28" y="620.52" style="fill: rgb(64,64,64); fill-opacity: 1.0; font-family: Tahoma; font-size: 12px;" clip-path="url(#_412348105178483clip-0)">4</text></g><line x1="222.78" y1="606" x2="222.78" y2="604" style="stroke-width: 0.5;stroke: rgb(128,128,128);stroke-opacity: 1.0;stroke-linecap: square;shape-rendering:crispEdges;" transform="matrix(1,0,0,1,0,0)" clip-path="url(#_412348105178483clip-0)"/><g transform="matrix(1,0,0,1,0,0)"><text x="254.83" y="620.52" style="fill: rgb(64,64,64); fill-opacity: 1.0; font-family: Tahoma; font-size: 12px;" clip-path="url(#_412348105178483clip-0)">5</text></g><line x1="258.33" y1="606" x2="258.33" y2="604" style="stroke-width: 0.5;stroke: rgb(128,128,128);stroke-opacity: 1.0;stroke-linecap: square;shape-rendering:crispEdges;" transform="matrix(1,0,0,1,0,0)" clip-path="url(#_412348105178483clip-0)"/><g transform="matrix(1,0,0,1,0,0)"><text x="290.39" y="620.52" style="fill: rgb(64,64,64); fill-opacity: 1.0; font-family: Tahoma; font-size: 12px;" clip-path="url(#_412348105178483clip-0)">6</text></g><line x1="293.89" y1="606" x2="293.89" y2="604" style="stroke-width: 0.5;stroke: rgb(128,128,128);stroke-opacity: 1.0;stroke-linecap: square;shape-rendering:crispEdges;" transform="matrix(1,0,0,1,0,0)" clip-path="url(#_412348105178483clip-0)"/><g transform="matrix(1,0,0,1,0,0)"><text x="325.95" y="620.52" style="fill: rgb(64,64,64); fill-opacity: 1.0; font-family: Tahoma; font-size: 12px;" clip-path="url(#_412348105178483clip-0)">7</text></g><line x1="329.45" y1="606" x2="329.45" y2="604" style="stroke-width: 0.5;stroke: rgb(128,128,128);stroke-opacity: 1.0;stroke-linecap: square;shape-rendering:crispEdges;" transform="matrix(1,0,0,1,0,0)" clip-path="url(#_412348105178483clip-0)"/><g transform="matrix(1,0,0,1,0,0)"><text x="361.51" y="620.52" style="fill: rgb(64,64,64); fill-opacity: 1.0; font-family: Tahoma; font-size: 12px;" clip-path="url(#_412348105178483clip-0)">8</text></g><line x1="365.01" y1="606" x2="365.01" y2="604" style="stroke-width: 0.5;stroke: rgb(128,128,128);stroke-opacity: 1.0;stroke-linecap: square;shape-rendering:crispEdges;" transform="matrix(1,0,0,1,0,0)" clip-path="url(#_412348105178483clip-0)"/><g transform="matrix(1,0,0,1,0,0)"><text x="397.06" y="620.52" style="fill: rgb(64,64,64); fill-opacity: 1.0; font-family: Tahoma; font-size: 12px;" clip-path="url(#_412348105178483clip-0)">9</text></g><line x1="400.56" y1="606" x2="400.56" y2="604" style="stroke-width: 0.5;stroke: rgb(128,128,128);stroke-opacity: 1.0;stroke-linecap: square;shape-rendering:crispEdges;" transform="matrix(1,0,0,1,0,0)" clip-path="url(#_412348105178483clip-0)"/><g transform="matrix(1,0,0,1,0,0)"><text x="429.62" y="620.52" style="fill: rgb(64,64,64); fill-opacity: 1.0; font-family: Tahoma; font-size: 12px;" clip-path="url(#_412348105178483clip-0)">10</text></g><line x1="436.12" y1="606" x2="436.12" y2="604" style="stroke-width: 0.5;stroke: rgb(128,128,128);stroke-opacity: 1.0;stroke-linecap: square;shape-rendering:crispEdges;" transform="matrix(1,0,0,1,0,0)" clip-path="url(#_412348105178483clip-0)"/><g transform="matrix(1,0,0,1,0,0)"><text x="465.18" y="620.52" style="fill: rgb(64,64,64); fill-opacity: 1.0; font-family: Tahoma; font-size: 12px;" clip-path="url(#_412348105178483clip-0)">11</text></g><line x1="471.68" y1="606" x2="471.68" y2="604" style="stroke-width: 0.5;stroke: rgb(128,128,128);stroke-opacity: 1.0;stroke-linecap: square;shape-rendering:crispEdges;" transform="matrix(1,0,0,1,0,0)" clip-path="url(#_412348105178483clip-0)"/><g transform="matrix(1,0,0,1,0,0)"><text x="500.74" y="620.52" style="fill: rgb(64,64,64); fill-opacity: 1.0; font-family: Tahoma; font-size: 12px;" clip-path="url(#_412348105178483clip-0)">12</text></g><line x1="507.24" y1="606" x2="507.24" y2="604" style="stroke-width: 0.5;stroke: rgb(128,128,128);stroke-opacity: 1.0;stroke-linecap: square;shape-rendering:crispEdges;" transform="matrix(1,0,0,1,0,0)" clip-path="url(#_412348105178483clip-0)"/><g transform="matrix(1,0,0,1,0,0)"><text x="536.29" y="620.52" style="fill: rgb(64,64,64); fill-opacity: 1.0; font-family: Tahoma; font-size: 12px;" clip-path="url(#_412348105178483clip-0)">13</text></g><line x1="542.79" y1="606" x2="542.79" y2="604" style="stroke-width: 0.5;stroke: rgb(128,128,128);stroke-opacity: 1.0;stroke-linecap: square;shape-rendering:crispEdges;" transform="matrix(1,0,0,1,0,0)" clip-path="url(#_412348105178483clip-0)"/><g transform="matrix(1,0,0,1,0,0)"><text x="571.85" y="620.52" style="fill: rgb(64,64,64); fill-opacity: 1.0; font-family: Tahoma; font-size: 12px;" clip-path="url(#_412348105178483clip-0)">14</text></g><line x1="578.35" y1="606" x2="578.35" y2="604" style="stroke-width: 0.5;stroke: rgb(128,128,128);stroke-opacity: 1.0;stroke-linecap: square;shape-rendering:crispEdges;" transform="matrix(1,0,0,1,0,0)" clip-path="url(#_412348105178483clip-0)"/><g transform="matrix(1,0,0,1,0,0)"><text x="607.41" y="620.52" style="fill: rgb(64,64,64); fill-opacity: 1.0; font-family: Tahoma; font-size: 12px;" clip-path="url(#_412348105178483clip-0)">15</text></g><line x1="613.91" y1="606" x2="613.91" y2="604" style="stroke-width: 0.5;stroke: rgb(128,128,128);stroke-opacity: 1.0;stroke-linecap: square;shape-rendering:crispEdges;" transform="matrix(1,0,0,1,0,0)" clip-path="url(#_412348105178483clip-0)"/><g transform="matrix(1,0,0,1,0,0)"><text x="326.5" y="639.59" style="fill: rgb(64,64,64); fill-opacity: 1.0; font-family: Tahoma; font-size: 14px; font-weight: bold;" clip-path="url(#_412348105178483clip-0)">x (m)</text></g><line x1="50" y1="35" x2="50" y2="600" style="stroke-width: 0.5;stroke: rgb(128,128,128);stroke-opacity: 1.0;stroke-linecap: square;shape-rendering:crispEdges;" transform="matrix(1,0,0,1,0,0)" clip-path="url(#_412348105178483clip-0)"/><g transform="matrix(1,0,0,1,0,0)"><text x="33" y="56.41" style="fill: rgb(64,64,64); fill-opacity: 1.0; font-family: Tahoma; font-size: 12px;" clip-path="url(#_412348105178483clip-0)">-6</text></g><line x1="48" y1="51.39" x2="50" y2="51.39" style="stroke-width: 0.5;stroke: rgb(128,128,128);stroke-opacity: 1.0;stroke-linecap: square;shape-rendering:crispEdges;" transform="matrix(1,0,0,1,0,0)" clip-path="url(#_412348105178483clip-0)"/><g transform="matrix(1,0,0,1,0,0)"><text x="33" y="90.81" style="fill: rgb(64,64,64); fill-opacity: 1.0; font-family: Tahoma; font-size: 12px;" clip-path="url(#_412348105178483clip-0)">-5</text></g><line x1="48" y1="85.79" x2="50" y2="85.79" style="stroke-width: 0.5;stroke: rgb(128,128,128);stroke-opacity: 1.0;stroke-linecap: square;shape-rendering:crispEdges;" transform="matrix(1,0,0,1,0,0)" clip-path="url(#_412348105178483clip-0)"/><g transform="matrix(1,0,0,1,0,0)"><text x="33" y="125.22" style="fill: rgb(64,64,64); fill-opacity: 1.0; font-family: Tahoma; font-size: 12px;" clip-path="url(#_412348105178483clip-0)">-4</text></g><line x1="48" y1="120.19" x2="50" y2="120.19" style="stroke-width: 0.5;stroke: rgb(128,128,128);stroke-opacity: 1.0;stroke-linecap: square;shape-rendering:crispEdges;" transform="matrix(1,0,0,1,0,0)" clip-path="url(#_412348105178483clip-0)"/><g transform="matrix(1,0,0,1,0,0)"><text x="33" y="159.62" style="fill: rgb(64,64,64); fill-opacity: 1.0; font-family: Tahoma; font-size: 12px;" clip-path="url(#_412348105178483clip-0)">-3</text></g><line x1="48" y1="154.6" x2="50" y2="154.6" style="stroke-width: 0.5;stroke: rgb(128,128,128);stroke-opacity: 1.0;stroke-linecap: square;shape-rendering:crispEdges;" transform="matrix(1,0,0,1,0,0)" clip-path="url(#_412348105178483clip-0)"/><g transform="matrix(1,0,0,1,0,0)"><text x="33" y="194.02" style="fill: rgb(64,64,64); fill-opacity: 1.0; font-family: Tahoma; font-size: 12px;" clip-path="url(#_412348105178483clip-0)">-2</text></g><line x1="48" y1="189" x2="50" y2="189" style="stroke-width: 0.5;stroke: rgb(128,128,128);stroke-opacity: 1.0;stroke-linecap: square;shape-rendering:crispEdges;" transform="matrix(1,0,0,1,0,0)" clip-path="url(#_412348105178483clip-0)"/><g transform="matrix(1,0,0,1,0,0)"><text x="33" y="228.42" style="fill: rgb(64,64,64); fill-opacity: 1.0; font-family: Tahoma; font-size: 12px;" clip-path="url(#_412348105178483clip-0)">-1</text></g><line x1="48" y1="223.4" x2="50" y2="223.4" style="stroke-width: 0.5;stroke: rgb(128,128,128);stroke-opacity: 1.0;stroke-linecap: square;shape-rendering:crispEdges;" transform="matrix(1,0,0,1,0,0)" clip-path="url(#_412348105178483clip-0)"/><g transform="matrix(1,0,0,1,0,0)"><text x="37" y="262.82" style="fill: rgb(64,64,64); fill-opacity: 1.0; font-family: Tahoma; font-size: 12px;" clip-path="url(#_412348105178483clip-0)">0</text></g><line x1="48" y1="257.8" x2="50" y2="257.8" style="stroke-width: 0.5;stroke: rgb(128,128,128);stroke-opacity: 1.0;stroke-linecap: square;shape-rendering:crispEdges;" transform="matrix(1,0,0,1,0,0)" clip-path="url(#_412348105178483clip-0)"/><g transform="matrix(1,0,0,1,0,0)"><text x="37" y="297.22" style="fill: rgb(64,64,64); fill-opacity: 1.0; font-family: Tahoma; font-size: 12px;" clip-path="url(#_412348105178483clip-0)">1</text></g><line x1="48" y1="292.2" x2="50" y2="292.2" style="stroke-width: 0.5;stroke: rgb(128,128,128);stroke-opacity: 1.0;stroke-linecap: square;shape-rendering:crispEdges;" transform="matrix(1,0,0,1,0,0)" clip-path="url(#_412348105178483clip-0)"/><g transform="matrix(1,0,0,1,0,0)"><text x="37" y="331.62" style="fill: rgb(64,64,64); fill-opacity: 1.0; font-family: Tahoma; font-size: 12px;" clip-path="url(#_412348105178483clip-0)">2</text></g><line x1="48" y1="326.6" x2="50" y2="326.6" style="stroke-width: 0.5;stroke: rgb(128,128,128);stroke-opacity: 1.0;stroke-linecap: square;shape-rendering:crispEdges;" transform="matrix(1,0,0,1,0,0)" clip-path="url(#_412348105178483clip-0)"/><g transform="matrix(1,0,0,1,0,0)"><text x="37" y="366.02" style="fill: rgb(64,64,64); fill-opacity: 1.0; font-family: Tahoma; font-size: 12px;" clip-path="url(#_412348105178483clip-0)">3</text></g><line x1="48" y1="361" x2="50" y2="361" style="stroke-width: 0.5;stroke: rgb(128,128,128);stroke-opacity: 1.0;stroke-linecap: square;shape-rendering:crispEdges;" transform="matrix(1,0,0,1,0,0)" clip-path="url(#_412348105178483clip-0)"/><g transform="matrix(1,0,0,1,0,0)"><text x="37" y="400.42" style="fill: rgb(64,64,64); fill-opacity: 1.0; font-family: Tahoma; font-size: 12px;" clip-path="url(#_412348105178483clip-0)">4</text></g><line x1="48" y1="395.4" x2="50" y2="395.4" style="stroke-width: 0.5;stroke: rgb(128,128,128);stroke-opacity: 1.0;stroke-linecap: square;shape-rendering:crispEdges;" transform="matrix(1,0,0,1,0,0)" clip-path="url(#_412348105178483clip-0)"/><g transform="matrix(1,0,0,1,0,0)"><text x="37" y="434.82" style="fill: rgb(64,64,64); fill-opacity: 1.0; font-family: Tahoma; font-size: 12px;" clip-path="url(#_412348105178483clip-0)">5</text></g><line x1="48" y1="429.8" x2="50" y2="429.8" style="stroke-width: 0.5;stroke: rgb(128,128,128);stroke-opacity: 1.0;stroke-linecap: square;shape-rendering:crispEdges;" transform="matrix(1,0,0,1,0,0)" clip-path="url(#_412348105178483clip-0)"/><g transform="matrix(1,0,0,1,0,0)"><text x="37" y="469.22" style="fill: rgb(64,64,64); fill-opacity: 1.0; font-family: Tahoma; font-size: 12px;" clip-path="url(#_412348105178483clip-0)">6</text></g><line x1="48" y1="464.2" x2="50" y2="464.2" style="stroke-width: 0.5;stroke: rgb(128,128,128);stroke-opacity: 1.0;stroke-linecap: square;shape-rendering:crispEdges;" transform="matrix(1,0,0,1,0,0)" clip-path="url(#_412348105178483clip-0)"/><g transform="matrix(1,0,0,1,0,0)"><text x="37" y="503.62" style="fill: rgb(64,64,64); fill-opacity: 1.0; font-family: Tahoma; font-size: 12px;" clip-path="url(#_412348105178483clip-0)">7</text></g><line x1="48" y1="498.6" x2="50" y2="498.6" style="stroke-width: 0.5;stroke: rgb(128,128,128);stroke-opacity: 1.0;stroke-linecap: square;shape-rendering:crispEdges;" transform="matrix(1,0,0,1,0,0)" clip-path="url(#_412348105178483clip-0)"/><g transform="matrix(1,0,0,1,0,0)"><text x="37" y="538.03" style="fill: rgb(64,64,64); fill-opacity: 1.0; font-family: Tahoma; font-size: 12px;" clip-path="url(#_412348105178483clip-0)">8</text></g><line x1="48" y1="533" x2="50" y2="533" style="stroke-width: 0.5;stroke: rgb(128,128,128);stroke-opacity: 1.0;stroke-linecap: square;shape-rendering:crispEdges;" transform="matrix(1,0,0,1,0,0)" clip-path="url(#_412348105178483clip-0)"/><g transform="matrix(1,0,0,1,0,0)"><text x="37" y="572.43" style="fill: rgb(64,64,64); fill-opacity: 1.0; font-family: Tahoma; font-size: 12px;" clip-path="url(#_412348105178483clip-0)">9</text></g><line x1="48" y1="567.4" x2="50" y2="567.4" style="stroke-width: 0.5;stroke: rgb(128,128,128);stroke-opacity: 1.0;stroke-linecap: square;shape-rendering:crispEdges;" transform="matrix(1,0,0,1,0,0)" clip-path="url(#_412348105178483clip-0)"/><g style="fill: rgb(64,64,64); fill-opacity: 1.0; stroke: none" transform="matrix(0,-1,1,0,-298,337)" clip-path="url(#_412348105178483clip-1)"><path d="M 8.58 315.44 L 4.7 325.92 L 2.14 325.92 L 3.3 322.92 L 0.48 315.44 L 3 315.44 L 4.61 320.25 L 6.12 315.44 L 8.58 315.44 Z  M 18.47 325.92 L 15.96 325.92 Q 15.38 325.23 14.91 324.5 Q 14.44 323.76 14.1 322.94 Q 13.77 322.14 13.59 321.19 Q 13.41 320.23 13.41 319.2 Q 13.41 318.08 13.6 317.16 Q 13.79 316.23 14.08 315.48 Q 14.41 314.66 14.89 313.92 Q 15.36 313.19 15.96 312.47 L 18.47 312.47 L 18.47 312.67 Q 17.91 313.17 17.41 313.8 Q 16.91 314.44 16.49 315.28 Q 16.07 316.09 15.82 317.08 Q 15.57 318.08 15.57 319.2 Q 15.57 320.37 15.81 321.32 Q 16.05 322.26 16.49 323.11 Q 16.9 323.92 17.41 324.58 Q 17.93 325.25 18.47 325.73 L 18.47 325.92 Z  M 29.11 323.11 L 29.11 319.28 Q 29.11 318.7 29.09 318.31 Q 29.07 317.92 28.97 317.69 Q 28.86 317.44 28.64 317.32 Q 28.42 317.2 28.05 317.2 Q 27.77 317.2 27.5 317.33 Q 27.24 317.45 26.92 317.67 L 26.92 323.11 L 24.52 323.11 L 24.52 319.28 Q 24.52 318.72 24.5 318.32 Q 24.47 317.92 24.36 317.69 Q 24.27 317.44 24.05 317.32 Q 23.83 317.2 23.46 317.2 Q 23.16 317.2 22.88 317.34 Q 22.6 317.48 22.33 317.67 L 22.33 323.11 L 19.94 323.11 L 19.94 315.44 L 22.33 315.44 L 22.33 316.28 Q 22.91 315.78 23.43 315.5 Q 23.96 315.22 24.6 315.22 Q 25.32 315.22 25.85 315.55 Q 26.38 315.89 26.66 316.55 Q 27.35 315.91 27.96 315.56 Q 28.57 315.22 29.19 315.22 Q 29.74 315.22 30.16 315.39 Q 30.58 315.56 30.88 315.91 Q 31.19 316.26 31.35 316.78 Q 31.52 317.3 31.52 318.11 L 31.52 323.11 L 29.11 323.11 Z  M 37.96 319.2 Q 37.96 320.23 37.78 321.19 Q 37.6 322.14 37.29 322.94 Q 36.95 323.76 36.47 324.5 Q 35.99 325.23 35.42 325.92 L 32.92 325.92 L 32.92 325.73 Q 33.46 325.25 33.98 324.59 Q 34.49 323.94 34.9 323.11 Q 35.32 322.26 35.57 321.32 Q 35.82 320.37 35.82 319.2 Q 35.82 318.08 35.56 317.08 Q 35.31 316.09 34.9 315.28 Q 34.46 314.44 33.96 313.8 Q 33.46 313.17 32.92 312.67 L 32.92 312.47 L 35.42 312.47 Q 36.01 313.19 36.49 313.92 Q 36.96 314.66 37.29 315.48 Q 37.59 316.23 37.78 317.16 Q 37.96 318.08 37.96 319.2 Z "/></g><line x1="54" y1="51.39" x2="638" y2="51.39" style="stroke-width: 0.5;stroke: rgb(128,128,128);stroke-opacity: 0.5;stroke-linejoin: bevel;stroke-dasharray: 2.0, 2.0;shape-rendering:crispEdges;" transform="matrix(1,0,0,1,0,0)" clip-path="url(#_412348105178483clip-2)"/><line x1="54" y1="85.79" x2="638" y2="85.79" style="stroke-width: 0.5;stroke: rgb(128,128,128);stroke-opacity: 0.5;stroke-linejoin: bevel;stroke-dasharray: 2.0, 2.0;shape-rendering:crispEdges;" transform="matrix(1,0,0,1,0,0)" clip-path="url(#_412348105178483clip-2)"/><line x1="54" y1="120.19" x2="638" y2="120.19" style="stroke-width: 0.5;stroke: rgb(128,128,128);stroke-opacity: 0.5;stroke-linejoin: bevel;stroke-dasharray: 2.0, 2.0;shape-rendering:crispEdges;" transform="matrix(1,0,0,1,0,0)" clip-path="url(#_412348105178483clip-2)"/><line x1="54" y1="154.6" x2="638" y2="154.6" style="stroke-width: 0.5;stroke: rgb(128,128,128);stroke-opacity: 0.5;stroke-linejoin: bevel;stroke-dasharray: 2.0, 2.0;shape-rendering:crispEdges;" transform="matrix(1,0,0,1,0,0)" clip-path="url(#_412348105178483clip-2)"/><line x1="54" y1="189" x2="638" y2="189" style="stroke-width: 0.5;stroke: rgb(128,128,128);stroke-opacity: 0.5;stroke-linejoin: bevel;stroke-dasharray: 2.0, 2.0;shape-rendering:crispEdges;" transform="matrix(1,0,0,1,0,0)" clip-path="url(#_412348105178483clip-2)"/><line x1="54" y1="223.4" x2="638" y2="223.4" style="stroke-width: 0.5;stroke: rgb(128,128,128);stroke-opacity: 0.5;stroke-linejoin: bevel;stroke-dasharray: 2.0, 2.0;shape-rendering:crispEdges;" transform="matrix(1,0,0,1,0,0)" clip-path="url(#_412348105178483clip-2)"/><line x1="54" y1="257.8" x2="638" y2="257.8" style="stroke-width: 0.5;stroke: rgb(128,128,128);stroke-opacity: 0.5;stroke-linejoin: bevel;stroke-dasharray: 2.0, 2.0;shape-rendering:crispEdges;" transform="matrix(1,0,0,1,0,0)" clip-path="url(#_412348105178483clip-2)"/><line x1="54" y1="292.2" x2="638" y2="292.2" style="stroke-width: 0.5;stroke: rgb(128,128,128);stroke-opacity: 0.5;stroke-linejoin: bevel;stroke-dasharray: 2.0, 2.0;shape-rendering:crispEdges;" transform="matrix(1,0,0,1,0,0)" clip-path="url(#_412348105178483clip-2)"/><line x1="54" y1="326.6" x2="638" y2="326.6" style="stroke-width: 0.5;stroke: rgb(128,128,128);stroke-opacity: 0.5;stroke-linejoin: bevel;stroke-dasharray: 2.0, 2.0;shape-rendering:crispEdges;" transform="matrix(1,0,0,1,0,0)" clip-path="url(#_412348105178483clip-2)"/><line x1="54" y1="361" x2="638" y2="361" style="stroke-width: 0.5;stroke: rgb(128,128,128);stroke-opacity: 0.5;stroke-linejoin: bevel;stroke-dasharray: 2.0, 2.0;shape-rendering:crispEdges;" transform="matrix(1,0,0,1,0,0)" clip-path="url(#_412348105178483clip-2)"/><line x1="54" y1="395.4" x2="638" y2="395.4" style="stroke-width: 0.5;stroke: rgb(128,128,128);stroke-opacity: 0.5;stroke-linejoin: bevel;stroke-dasharray: 2.0, 2.0;shape-rendering:crispEdges;" transform="matrix(1,0,0,1,0,0)" clip-path="url(#_412348105178483clip-2)"/><line x1="54" y1="429.8" x2="638" y2="429.8" style="stroke-width: 0.5;stroke: rgb(128,128,128);stroke-opacity: 0.5;stroke-linejoin: bevel;stroke-dasharray: 2.0, 2.0;shape-rendering:crispEdges;" transform="matrix(1,0,0,1,0,0)" clip-path="url(#_412348105178483clip-2)"/><line x1="54" y1="464.2" x2="638" y2="464.2" style="stroke-width: 0.5;stroke: rgb(128,128,128);stroke-opacity: 0.5;stroke-linejoin: bevel;stroke-dasharray: 2.0, 2.0;shape-rendering:crispEdges;" transform="matrix(1,0,0,1,0,0)" clip-path="url(#_412348105178483clip-2)"/><line x1="54" y1="498.6" x2="638" y2="498.6" style="stroke-width: 0.5;stroke: rgb(128,128,128);stroke-opacity: 0.5;stroke-linejoin: bevel;stroke-dasharray: 2.0, 2.0;shape-rendering:crispEdges;" transform="matrix(1,0,0,1,0,0)" clip-path="url(#_412348105178483clip-2)"/><line x1="54" y1="533" x2="638" y2="533" style="stroke-width: 0.5;stroke: rgb(128,128,128);stroke-opacity: 0.5;stroke-linejoin: bevel;stroke-dasharray: 2.0, 2.0;shape-rendering:crispEdges;" transform="matrix(1,0,0,1,0,0)" clip-path="url(#_412348105178483clip-2)"/><line x1="54" y1="567.4" x2="638" y2="567.4" style="stroke-width: 0.5;stroke: rgb(128,128,128);stroke-opacity: 0.5;stroke-linejoin: bevel;stroke-dasharray: 2.0, 2.0;shape-rendering:crispEdges;" transform="matrix(1,0,0,1,0,0)" clip-path="url(#_412348105178483clip-2)"/><line x1="80.55" y1="35" x2="80.55" y2="600" style="stroke-width: 0.5;stroke: rgb(128,128,128);stroke-opacity: 0.5;stroke-linejoin: bevel;stroke-dasharray: 2.0, 2.0;shape-rendering:crispEdges;" transform="matrix(1,0,0,1,0,0)" clip-path="url(#_412348105178483clip-2)"/><line x1="116.1" y1="35" x2="116.1" y2="600" style="stroke-width: 0.5;stroke: rgb(128,128,128);stroke-opacity: 0.5;stroke-linejoin: bevel;stroke-dasharray: 2.0, 2.0;shape-rendering:crispEdges;" transform="matrix(1,0,0,1,0,0)" clip-path="url(#_412348105178483clip-2)"/><line x1="151.66" y1="35" x2="151.66" y2="600" style="stroke-width: 0.5;stroke: rgb(128,128,128);stroke-opacity: 0.5;stroke-linejoin: bevel;stroke-dasharray: 2.0, 2.0;shape-rendering:crispEdges;" transform="matrix(1,0,0,1,0,0)" clip-path="url(#_412348105178483clip-2)"/><line x1="187.22" y1="35" x2="187.22" y2="600" style="stroke-width: 0.5;stroke: rgb(128,128,128);stroke-opacity: 0.5;stroke-linejoin: bevel;stroke-dasharray: 2.0, 2.0;shape-rendering:crispEdges;" transform="matrix(1,0,0,1,0,0)" clip-path="url(#_412348105178483clip-2)"/><line x1="222.78" y1="35" x2="222.78" y2="600" style="stroke-width: 0.5;stroke: rgb(128,128,128);stroke-opacity: 0.5;stroke-linejoin: bevel;stroke-dasharray: 2.0, 2.0;shape-rendering:crispEdges;" transform="matrix(1,0,0,1,0,0)" clip-path="url(#_412348105178483clip-2)"/><line x1="258.33" y1="35" x2="258.33" y2="600" style="stroke-width: 0.5;stroke: rgb(128,128,128);stroke-opacity: 0.5;stroke-linejoin: bevel;stroke-dasharray: 2.0, 2.0;shape-rendering:crispEdges;" transform="matrix(1,0,0,1,0,0)" clip-path="url(#_412348105178483clip-2)"/><line x1="293.89" y1="35" x2="293.89" y2="600" style="stroke-width: 0.5;stroke: rgb(128,128,128);stroke-opacity: 0.5;stroke-linejoin: bevel;stroke-dasharray: 2.0, 2.0;shape-rendering:crispEdges;" transform="matrix(1,0,0,1,0,0)" clip-path="url(#_412348105178483clip-2)"/><line x1="329.45" y1="35" x2="329.45" y2="600" style="stroke-width: 0.5;stroke: rgb(128,128,128);stroke-opacity: 0.5;stroke-linejoin: bevel;stroke-dasharray: 2.0, 2.0;shape-rendering:crispEdges;" transform="matrix(1,0,0,1,0,0)" clip-path="url(#_412348105178483clip-2)"/><line x1="365.01" y1="35" x2="365.01" y2="600" style="stroke-width: 0.5;stroke: rgb(128,128,128);stroke-opacity: 0.5;stroke-linejoin: bevel;stroke-dasharray: 2.0, 2.0;shape-rendering:crispEdges;" transform="matrix(1,0,0,1,0,0)" clip-path="url(#_412348105178483clip-2)"/><line x1="400.56" y1="35" x2="400.56" y2="600" style="stroke-width: 0.5;stroke: rgb(128,128,128);stroke-opacity: 0.5;stroke-linejoin: bevel;stroke-dasharray: 2.0, 2.0;shape-rendering:crispEdges;" transform="matrix(1,0,0,1,0,0)" clip-path="url(#_412348105178483clip-2)"/><line x1="436.12" y1="35" x2="436.12" y2="600" style="stroke-width: 0.5;stroke: rgb(128,128,128);stroke-opacity: 0.5;stroke-linejoin: bevel;stroke-dasharray: 2.0, 2.0;shape-rendering:crispEdges;" transform="matrix(1,0,0,1,0,0)" clip-path="url(#_412348105178483clip-2)"/><line x1="471.68" y1="35" x2="471.68" y2="600" style="stroke-width: 0.5;stroke: rgb(128,128,128);stroke-opacity: 0.5;stroke-linejoin: bevel;stroke-dasharray: 2.0, 2.0;shape-rendering:crispEdges;" transform="matrix(1,0,0,1,0,0)" clip-path="url(#_412348105178483clip-2)"/><line x1="507.24" y1="35" x2="507.24" y2="600" style="stroke-width: 0.5;stroke: rgb(128,128,128);stroke-opacity: 0.5;stroke-linejoin: bevel;stroke-dasharray: 2.0, 2.0;shape-rendering:crispEdges;" transform="matrix(1,0,0,1,0,0)" clip-path="url(#_412348105178483clip-2)"/><line x1="542.79" y1="35" x2="542.79" y2="600" style="stroke-width: 0.5;stroke: rgb(128,128,128);stroke-opacity: 0.5;stroke-linejoin: bevel;stroke-dasharray: 2.0, 2.0;shape-rendering:crispEdges;" transform="matrix(1,0,0,1,0,0)" clip-path="url(#_412348105178483clip-2)"/><line x1="578.35" y1="35" x2="578.35" y2="600" style="stroke-width: 0.5;stroke: rgb(128,128,128);stroke-opacity: 0.5;stroke-linejoin: bevel;stroke-dasharray: 2.0, 2.0;shape-rendering:crispEdges;" transform="matrix(1,0,0,1,0,0)" clip-path="url(#_412348105178483clip-2)"/><line x1="613.91" y1="35" x2="613.91" y2="600" style="stroke-width: 0.5;stroke: rgb(128,128,128);stroke-opacity: 0.5;stroke-linejoin: bevel;stroke-dasharray: 2.0, 2.0;shape-rendering:crispEdges;" transform="matrix(1,0,0,1,0,0)" clip-path="url(#_412348105178483clip-2)"/><g style="fill: rgb(135,206,250); fill-opacity: 0.5; stroke: none" transform="matrix(1,0,0,1,0,0)" clip-path="url(#_412348105178483clip-2)"><path d="M 80.55 257.8 L 80.55 257.8 L 611.45 348.37 L 611.45 485.97 L 80.55 327.99 L 80.55 257.8 L 80.55 257.8 Z "/></g><g style="stroke-width: 2.5;stroke: rgb(255,85,85);stroke-opacity: 0.5;stroke-linecap: round;stroke-linejoin: round;stroke-dasharray: 5.0;shape-rendering:geometricPrecision;; fill: none" transform="matrix(1,0,0,1,0,0)" clip-path="url(#_412348105178483clip-2)"><path d="M 372.44 307.59 L 372.44 413.58"/></g><g style="stroke-width: 2.5;stroke: rgb(85,85,255);stroke-opacity: 0.5;stroke-linecap: round;stroke-linejoin: round;stroke-dasharray: 5.0;shape-rendering:geometricPrecision;; fill: none" transform="matrix(1,0,0,1,0,0)" clip-path="url(#_412348105178483clip-2)"><path d="M 80.55 257.8 L 97.67 260.72 L 114.8 263.64 L 131.92 266.56 L 149.05 269.48 L 166.18 272.41 L 183.3 275.33 L 200.43 278.25 L 217.55 281.17 L 234.68 284.09 L 239.82 284.97 L 268.93 289.93 L 286.06 292.86 L 303.18 295.78 L 320.31 298.7 L 337.44 301.62 L 354.56 304.54 L 371.69 307.46 L 388.82 310.39 L 405.94 313.31 L 423.07 316.23 L 440.19 319.15 L 457.32 322.07 L 474.45 324.99 L 491.57 327.91 L 508.7 330.84 L 525.82 333.76 L 542.95 336.68 L 560.08 339.6 L 577.2 342.52 L 594.33 345.44 L 611.45 348.37 L 611.45 485.74 L 594.33 480.54 L 577.2 475.33 L 560.08 470.13 L 542.95 464.92 L 525.82 459.72 L 508.7 454.52 L 491.57 449.31 L 474.45 444.11 L 457.32 438.9 L 440.19 433.7 L 423.07 428.5 L 405.94 423.29 L 388.82 418.09 L 371.69 412.88 L 354.56 407.68 L 337.44 402.48 L 320.31 397.27 L 303.18 392.07 L 286.06 386.86 L 268.93 381.66 L 239.82 372.75 L 234.68 371.43 L 217.55 367.04 L 200.43 362.65 L 183.3 358.26 L 166.18 353.87 L 149.05 349.48 L 131.92 345.09 L 114.8 340.7 L 97.67 336.31 L 80.55 331.92 L 80.55 257.8"/></g><g style="stroke-width: 1.0;stroke: rgb(0,0,0);stroke-opacity: 0.5;stroke-linecap: round;stroke-linejoin: round;shape-rendering:geometricPrecision;; fill: none" transform="matrix(1,0,0,1,0,0)" clip-path="url(#_412348105178483clip-2)"><path d="M 80.55 257.8 L 611.45 348.37 L 611.45 485.97 L 80.55 327.99 L 80.55 257.8"/></g><rect x="54" y="35" width="584" height="565" style="stroke-width: 0.5;stroke: rgb(0,0,0);stroke-opacity: 1.0;stroke-linecap: round;stroke-linejoin: round;shape-rendering:crispEdges;; fill: none" transform="matrix(1,0,0,1,0,0)" clip-path="url(#_412348105178483clip-0)"/></svg>
