<!DOCTYPE svg PUBLIC "-//W3C//DTD SVG 1.1//EN" "http://www.w3.org/Graphics/SVG/1.1/DTD/svg11.dtd">
<svg xmlns="http://www.w3.org/2000/svg" xmlns:xlink="http://www.w3.org/1999/xlink" xmlns:jfreesvg="http://www.jfree.org/jfreesvg/svg" width="700" height="600" text-rendering="auto" shape-rendering="auto">
<defs><clipPath id="_67664232558037clip-0"><path d="M 0 0 L 700 0 L 700 600 L 0 600 L 0 0 Z "/></clipPath>
<clipPath id="_67664232558037clip-1"><path d="M 312 273 L 312 973 L -288 973 L -288 273 L 312 273 Z "/></clipPath>
<clipPath id="_67664232558037clip-2"><path d="M 56 35 L 56 550 L 688 550 L 688 35 Z "/></clipPath>
</defs>
<rect x="0" y="0" width="700" height="600" style="fill: rgb(245,245,245); fill-opacity: 1.0" transform="matrix(1,0,0,1,0,0)" clip-path="url(#_67664232558037clip-0)"/><g transform="matrix(1,0,0,1,0,0)"><text x="198" y="21.01" style="fill: rgb(0,0,0); fill-opacity: 1.0; font-family: Tahoma; font-size: 20px; font-weight: bold;" clip-path="url(#_67664232558037clip-0)">Wing Planform representation</text></g><rect x="56" y="35" width="632" height="515" style="fill: rgb(240,248,255); fill-opacity: 0.0" transform="matrix(1,0,0,1,0,0)" clip-path="url(#_67664232558037clip-0)"/><line x1="56" y1="554" x2="688" y2="554" style="stroke-width: 0.5;stroke: rgb(128,128,128);stroke-opacity: 1.0;stroke-linecap: square;shape-rendering:crispEdges;" transform="matrix(1,0,0,1,0,0)" clip-path="url(#_67664232558037clip-0)"/><g transform="matrix(1,0,0,1,0,0)"><text x="81.23" y="570.52" style="fill: rgb(64,64,64); fill-opacity: 1.0; font-family: Tahoma; font-size: 12px;" clip-path="url(#_67664232558037clip-0)">0</text></g><line x1="84.73" y1="556" x2="84.73" y2="554" style="stroke-width: 0.5;stroke: rgb(128,128,128);stroke-opacity: 1.0;stroke-linecap: square;shape-rendering:crispEdges;" transform="matrix(1,0,0,1,0,0)" clip-path="url(#_67664232558037clip-0)"/><g transform="matrix(1,0,0,1,0,0)"><text x="113.75" y="570.52" style="fill: rgb(64,64,64); fill-opacity: 1.0; font-family: Tahoma; font-size: 12px;" clip-path="url(#_67664232558037clip-0)">1</text></g><line x1="117.25" y1="556" x2="117.25" y2="554" style="stroke-width: 0.5;stroke: rgb(128,128,128);stroke-opacity: 1.0;stroke-linecap: square;shape-rendering:crispEdges;" transform="matrix(1,0,0,1,0,0)" clip-path="url(#_67664232558037clip-0)"/><g transform="matrix(1,0,0,1,0,0)"><text x="146.26" y="570.52" style="fill: rgb(64,64,64); fill-opacity: 1.0; font-family: Tahoma; font-size: 12px;" clip-path="url(#_67664232558037clip-0)">2</text></g><line x1="149.76" y1="556" x2="149.76" y2="554" style="stroke-width: 0.5;stroke: rgb(128,128,128);stroke-opacity: 1.0;stroke-linecap: square;shape-rendering:crispEdges;" transform="matrix(1,0,0,1,0,0)" clip-path="url(#_67664232558037clip-0)"/><g transform="matrix(1,0,0,1,0,0)"><text x="178.78" y="570.52" style="fill: rgb(64,64,64); fill-opacity: 1.0; font-family: Tahoma; font-size: 12px;" clip-path="url(#_67664232558037clip-0)">3</text></g><line x1="182.28" y1="556" x2="182.28" y2="554" style="stroke-width: 0.5;stroke: rgb(128,128,128);stroke-opacity: 1.0;stroke-linecap: square;shape-rendering:crispEdges;" transform="matrix(1,0,0,1,0,0)" clip-path="url(#_67664232558037clip-0)"/><g transform="matrix(1,0,0,1,0,0)"><text x="211.3" y="570.52" style="fill: rgb(64,64,64); fill-opacity: 1.0; font-family: Tahoma; font-size: 12px;" clip-path="url(#_67664232558037clip-0)">4</text></g><line x1="214.8" y1="556" x2="214.8" y2="554" style="stroke-width: 0.5;stroke: rgb(128,128,128);stroke-opacity: 1.0;stroke-linecap: square;shape-rendering:crispEdges;" transform="matrix(1,0,0,1,0,0)" clip-path="url(#_67664232558037clip-0)"/><g transform="matrix(1,0,0,1,0,0)"><text x="243.82" y="570.52" style="fill: rgb(64,64,64); fill-opacity: 1.0; font-family: Tahoma; font-size: 12px;" clip-path="url(#_67664232558037clip-0)">5</text></g><line x1="247.32" y1="556" x2="247.32" y2="554" style="stroke-width: 0.5;stroke: rgb(128,128,128);stroke-opacity: 1.0;stroke-linecap: square;shape-rendering:crispEdges;" transform="matrix(1,0,0,1,0,0)" clip-path="url(#_67664232558037clip-0)"/><g transform="matrix(1,0,0,1,0,0)"><text x="276.34" y="570.52" style="fill: rgb(64,64,64); fill-opacity: 1.0; font-family: Tahoma; font-size: 12px;" clip-path="url(#_67664232558037clip-0)">6</text></g><line x1="279.84" y1="556" x2="279.84" y2="554" style="stroke-width: 0.5;stroke: rgb(128,128,128);stroke-opacity: 1.0;stroke-linecap: square;shape-rendering:crispEdges;" transform="matrix(1,0,0,1,0,0)" clip-path="url(#_67664232558037clip-0)"/><g transform="matrix(1,0,0,1,0,0)"><text x="308.86" y="570.52" style="fill: rgb(64,64,64); fill-opacity: 1.0; font-family: Tahoma; font-size: 12px;" clip-path="url(#_67664232558037clip-0)">7</text></g><line x1="312.36" y1="556" x2="312.36" y2="554" style="stroke-width: 0.5;stroke: rgb(128,128,128);stroke-opacity: 1.0;stroke-linecap: square;shape-rendering:crispEdges;" transform="matrix(1,0,0,1,0,0)" clip-path="url(#_67664232558037clip-0)"/><g transform="matrix(1,0,0,1,0,0)"><text x="341.38" y="570.52" style="fill: rgb(64,64,64); fill-opacity: 1.0; font-family: Tahoma; font-size: 12px;" clip-path="url(#_67664232558037clip-0)">8</text></g><line x1="344.88" y1="556" x2="344.88" y2="554" style="stroke-width: 0.5;stroke: rgb(128,128,128);stroke-opacity: 1.0;stroke-linecap: square;shape-rendering:crispEdges;" transform="matrix(1,0,0,1,0,0)" clip-path="url(#_67664232558037clip-0)"/><g transform="matrix(1,0,0,1,0,0)"><text x="373.89" y="570.52" style="fill: rgb(64,64,64); fill-opacity: 1.0; font-family: Tahoma; font-size: 12px;" clip-path="url(#_67664232558037clip-0)">9</text></g><line x1="377.39" y1="556" x2="377.39" y2="554" style="stroke-width: 0.5;stroke: rgb(128,128,128);stroke-opacity: 1.0;stroke-linecap: square;shape-rendering:crispEdges;" transform="matrix(1,0,0,1,0,0)" clip-path="url(#_67664232558037clip-0)"/><g transform="matrix(1,0,0,1,0,0)"><text x="403.41" y="570.52" style="fill: rgb(64,64,64); fill-opacity: 1.0; font-family: Tahoma; font-size: 12px;" clip-path="url(#_67664232558037clip-0)">10</text></g><line x1="409.91" y1="556" x2="409.91" y2="554" style="stroke-width: 0.5;stroke: rgb(128,128,128);stroke-opacity: 1.0;stroke-linecap: square;shape-rendering:crispEdges;" transform="matrix(1,0,0,1,0,0)" clip-path="url(#_67664232558037clip-0)"/><g transform="matrix(1,0,0,1,0,0)"><text x="435.93" y="570.52" style="fill: rgb(64,64,64); fill-opacity: 1.0; font-family: Tahoma; font-size: 12px;" clip-path="url(#_67664232558037clip-0)">11</text></g><line x1="442.43" y1="556" x2="442.43" y2="554" style="stroke-width: 0.5;stroke: rgb(128,128,128);stroke-opacity: 1.0;stroke-linecap: square;shape-rendering:crispEdges;" transform="matrix(1,0,0,1,0,0)" clip-path="url(#_67664232558037clip-0)"/><g transform="matrix(1,0,0,1,0,0)"><text x="468.45" y="570.52" style="fill: rgb(64,64,64); fill-opacity: 1.0; font-family: Tahoma; font-size: 12px;" clip-path="url(#_67664232558037clip-0)">12</text></g><line x1="474.95" y1="556" x2="474.95" y2="554" style="stroke-width: 0.5;stroke: rgb(128,128,128);stroke-opacity: 1.0;stroke-linecap: square;shape-rendering:crispEdges;" transform="matrix(1,0,0,1,0,0)" clip-path="url(#_67664232558037clip-0)"/><g transform="matrix(1,0,0,1,0,0)"><text x="500.97" y="570.52" style="fill: rgb(64,64,64); fill-opacity: 1.0; font-family: Tahoma; font-size: 12px;" clip-path="url(#_67664232558037clip-0)">13</text></g><line x1="507.47" y1="556" x2="507.47" y2="554" style="stroke-width: 0.5;stroke: rgb(128,128,128);stroke-opacity: 1.0;stroke-linecap: square;shape-rendering:crispEdges;" transform="matrix(1,0,0,1,0,0)" clip-path="url(#_67664232558037clip-0)"/><g transform="matrix(1,0,0,1,0,0)"><text x="533.49" y="570.52" style="fill: rgb(64,64,64); fill-opacity: 1.0; font-family: Tahoma; font-size: 12px;" clip-path="url(#_67664232558037clip-0)">14</text></g><line x1="539.99" y1="556" x2="539.99" y2="554" style="stroke-width: 0.5;stroke: rgb(128,128,128);stroke-opacity: 1.0;stroke-linecap: square;shape-rendering:crispEdges;" transform="matrix(1,0,0,1,0,0)" clip-path="url(#_67664232558037clip-0)"/><g transform="matrix(1,0,0,1,0,0)"><text x="566" y="570.52" style="fill: rgb(64,64,64); fill-opacity: 1.0; font-family: Tahoma; font-size: 12px;" clip-path="url(#_67664232558037clip-0)">15</text></g><line x1="572.5" y1="556" x2="572.5" y2="554" style="stroke-width: 0.5;stroke: rgb(128,128,128);stroke-opacity: 1.0;stroke-linecap: square;shape-rendering:crispEdges;" transform="matrix(1,0,0,1,0,0)" clip-path="url(#_67664232558037clip-0)"/><g transform="matrix(1,0,0,1,0,0)"><text x="598.52" y="570.52" style="fill: rgb(64,64,64); fill-opacity: 1.0; font-family: Tahoma; font-size: 12px;" clip-path="url(#_67664232558037clip-0)">16</text></g><line x1="605.02" y1="556" x2="605.02" y2="554" style="stroke-width: 0.5;stroke: rgb(128,128,128);stroke-opacity: 1.0;stroke-linecap: square;shape-rendering:crispEdges;" transform="matrix(1,0,0,1,0,0)" clip-path="url(#_67664232558037clip-0)"/><g transform="matrix(1,0,0,1,0,0)"><text x="631.04" y="570.52" style="fill: rgb(64,64,64); fill-opacity: 1.0; font-family: Tahoma; font-size: 12px;" clip-path="url(#_67664232558037clip-0)">17</text></g><line x1="637.54" y1="556" x2="637.54" y2="554" style="stroke-width: 0.5;stroke: rgb(128,128,128);stroke-opacity: 1.0;stroke-linecap: square;shape-rendering:crispEdges;" transform="matrix(1,0,0,1,0,0)" clip-path="url(#_67664232558037clip-0)"/><g transform="matrix(1,0,0,1,0,0)"><text x="663.56" y="570.52" style="fill: rgb(64,64,64); fill-opacity: 1.0; font-family: Tahoma; font-size: 12px;" clip-path="url(#_67664232558037clip-0)">18</text></g><line x1="670.06" y1="556" x2="670.06" y2="554" style="stroke-width: 0.5;stroke: rgb(128,128,128);stroke-opacity: 1.0;stroke-linecap: square;shape-rendering:crispEdges;" transform="matrix(1,0,0,1,0,0)" clip-path="url(#_67664232558037clip-0)"/><g transform="matrix(1,0,0,1,0,0)"><text x="352.5" y="589.59" style="fill: rgb(64,64,64); fill-opacity: 1.0; font-family: Tahoma; font-size: 14px; font-weight: bold;" clip-path="url(#_67664232558037clip-0)">x (m)</text></g><line x1="52" y1="35" x2="52" y2="550" style="stroke-width: 0.5;stroke: rgb(128,128,128);stroke-opacity: 1.0;stroke-linecap: square;shape-rendering:crispEdges;" transform="matrix(1,0,0,1,0,0)" clip-path="url(#_67664232558037clip-0)"/><g transform="matrix(1,0,0,1,0,0)"><text x="35" y="58.54" style="fill: rgb(64,64,64); fill-opacity: 1.0; font-family: Tahoma; font-size: 12px;" clip-path="url(#_67664232558037clip-0)">-6</text></g><line x1="50" y1="53.51" x2="52" y2="53.51" style="stroke-width: 0.5;stroke: rgb(128,128,128);stroke-opacity: 1.0;stroke-linecap: square;shape-rendering:crispEdges;" transform="matrix(1,0,0,1,0,0)" clip-path="url(#_67664232558037clip-0)"/><g transform="matrix(1,0,0,1,0,0)"><text x="35" y="85.03" style="fill: rgb(64,64,64); fill-opacity: 1.0; font-family: Tahoma; font-size: 12px;" clip-path="url(#_67664232558037clip-0)">-5</text></g><line x1="50" y1="80.01" x2="52" y2="80.01" style="stroke-width: 0.5;stroke: rgb(128,128,128);stroke-opacity: 1.0;stroke-linecap: square;shape-rendering:crispEdges;" transform="matrix(1,0,0,1,0,0)" clip-path="url(#_67664232558037clip-0)"/><g transform="matrix(1,0,0,1,0,0)"><text x="35" y="111.53" style="fill: rgb(64,64,64); fill-opacity: 1.0; font-family: Tahoma; font-size: 12px;" clip-path="url(#_67664232558037clip-0)">-4</text></g><line x1="50" y1="106.51" x2="52" y2="106.51" style="stroke-width: 0.5;stroke: rgb(128,128,128);stroke-opacity: 1.0;stroke-linecap: square;shape-rendering:crispEdges;" transform="matrix(1,0,0,1,0,0)" clip-path="url(#_67664232558037clip-0)"/><g transform="matrix(1,0,0,1,0,0)"><text x="35" y="138.03" style="fill: rgb(64,64,64); fill-opacity: 1.0; font-family: Tahoma; font-size: 12px;" clip-path="url(#_67664232558037clip-0)">-3</text></g><line x1="50" y1="133.01" x2="52" y2="133.01" style="stroke-width: 0.5;stroke: rgb(128,128,128);stroke-opacity: 1.0;stroke-linecap: square;shape-rendering:crispEdges;" transform="matrix(1,0,0,1,0,0)" clip-path="url(#_67664232558037clip-0)"/><g transform="matrix(1,0,0,1,0,0)"><text x="35" y="164.53" style="fill: rgb(64,64,64); fill-opacity: 1.0; font-family: Tahoma; font-size: 12px;" clip-path="url(#_67664232558037clip-0)">-2</text></g><line x1="50" y1="159.51" x2="52" y2="159.51" style="stroke-width: 0.5;stroke: rgb(128,128,128);stroke-opacity: 1.0;stroke-linecap: square;shape-rendering:crispEdges;" transform="matrix(1,0,0,1,0,0)" clip-path="url(#_67664232558037clip-0)"/><g transform="matrix(1,0,0,1,0,0)"><text x="35" y="191.03" style="fill: rgb(64,64,64); fill-opacity: 1.0; font-family: Tahoma; font-size: 12px;" clip-path="url(#_67664232558037clip-0)">-1</text></g><line x1="50" y1="186.01" x2="52" y2="186.01" style="stroke-width: 0.5;stroke: rgb(128,128,128);stroke-opacity: 1.0;stroke-linecap: square;shape-rendering:crispEdges;" transform="matrix(1,0,0,1,0,0)" clip-path="url(#_67664232558037clip-0)"/><g transform="matrix(1,0,0,1,0,0)"><text x="39" y="217.53" style="fill: rgb(64,64,64); fill-opacity: 1.0; font-family: Tahoma; font-size: 12px;" clip-path="url(#_67664232558037clip-0)">0</text></g><line x1="50" y1="212.51" x2="52" y2="212.51" style="stroke-width: 0.5;stroke: rgb(128,128,128);stroke-opacity: 1.0;stroke-linecap: square;shape-rendering:crispEdges;" transform="matrix(1,0,0,1,0,0)" clip-path="url(#_67664232558037clip-0)"/><g transform="matrix(1,0,0,1,0,0)"><text x="39" y="244.03" style="fill: rgb(64,64,64); fill-opacity: 1.0; font-family: Tahoma; font-size: 12px;" clip-path="url(#_67664232558037clip-0)">1</text></g><line x1="50" y1="239" x2="52" y2="239" style="stroke-width: 0.5;stroke: rgb(128,128,128);stroke-opacity: 1.0;stroke-linecap: square;shape-rendering:crispEdges;" transform="matrix(1,0,0,1,0,0)" clip-path="url(#_67664232558037clip-0)"/><g transform="matrix(1,0,0,1,0,0)"><text x="39" y="270.52" style="fill: rgb(64,64,64); fill-opacity: 1.0; font-family: Tahoma; font-size: 12px;" clip-path="url(#_67664232558037clip-0)">2</text></g><line x1="50" y1="265.5" x2="52" y2="265.5" style="stroke-width: 0.5;stroke: rgb(128,128,128);stroke-opacity: 1.0;stroke-linecap: square;shape-rendering:crispEdges;" transform="matrix(1,0,0,1,0,0)" clip-path="url(#_67664232558037clip-0)"/><g transform="matrix(1,0,0,1,0,0)"><text x="39" y="297.02" style="fill: rgb(64,64,64); fill-opacity: 1.0; font-family: Tahoma; font-size: 12px;" clip-path="url(#_67664232558037clip-0)">3</text></g><line x1="50" y1="292" x2="52" y2="292" style="stroke-width: 0.5;stroke: rgb(128,128,128);stroke-opacity: 1.0;stroke-linecap: square;shape-rendering:crispEdges;" transform="matrix(1,0,0,1,0,0)" clip-path="url(#_67664232558037clip-0)"/><g transform="matrix(1,0,0,1,0,0)"><text x="39" y="323.52" style="fill: rgb(64,64,64); fill-opacity: 1.0; font-family: Tahoma; font-size: 12px;" clip-path="url(#_67664232558037clip-0)">4</text></g><line x1="50" y1="318.5" x2="52" y2="318.5" style="stroke-width: 0.5;stroke: rgb(128,128,128);stroke-opacity: 1.0;stroke-linecap: square;shape-rendering:crispEdges;" transform="matrix(1,0,0,1,0,0)" clip-path="url(#_67664232558037clip-0)"/><g transform="matrix(1,0,0,1,0,0)"><text x="39" y="350.02" style="fill: rgb(64,64,64); fill-opacity: 1.0; font-family: Tahoma; font-size: 12px;" clip-path="url(#_67664232558037clip-0)">5</text></g><line x1="50" y1="345" x2="52" y2="345" style="stroke-width: 0.5;stroke: rgb(128,128,128);stroke-opacity: 1.0;stroke-linecap: square;shape-rendering:crispEdges;" transform="matrix(1,0,0,1,0,0)" clip-path="url(#_67664232558037clip-0)"/><g transform="matrix(1,0,0,1,0,0)"><text x="39" y="376.52" style="fill: rgb(64,64,64); fill-opacity: 1.0; font-family: Tahoma; font-size: 12px;" clip-path="url(#_67664232558037clip-0)">6</text></g><line x1="50" y1="371.5" x2="52" y2="371.5" style="stroke-width: 0.5;stroke: rgb(128,128,128);stroke-opacity: 1.0;stroke-linecap: square;shape-rendering:crispEdges;" transform="matrix(1,0,0,1,0,0)" clip-path="url(#_67664232558037clip-0)"/><g transform="matrix(1,0,0,1,0,0)"><text x="39" y="403.02" style="fill: rgb(64,64,64); fill-opacity: 1.0; font-family: Tahoma; font-size: 12px;" clip-path="url(#_67664232558037clip-0)">7</text></g><line x1="50" y1="397.99" x2="52" y2="397.99" style="stroke-width: 0.5;stroke: rgb(128,128,128);stroke-opacity: 1.0;stroke-linecap: square;shape-rendering:crispEdges;" transform="matrix(1,0,0,1,0,0)" clip-path="url(#_67664232558037clip-0)"/><g transform="matrix(1,0,0,1,0,0)"><text x="39" y="429.51" style="fill: rgb(64,64,64); fill-opacity: 1.0; font-family: Tahoma; font-size: 12px;" clip-path="url(#_67664232558037clip-0)">8</text></g><line x1="50" y1="424.49" x2="52" y2="424.49" style="stroke-width: 0.5;stroke: rgb(128,128,128);stroke-opacity: 1.0;stroke-linecap: square;shape-rendering:crispEdges;" transform="matrix(1,0,0,1,0,0)" clip-path="url(#_67664232558037clip-0)"/><g transform="matrix(1,0,0,1,0,0)"><text x="39" y="456.01" style="fill: rgb(64,64,64); fill-opacity: 1.0; font-family: Tahoma; font-size: 12px;" clip-path="url(#_67664232558037clip-0)">9</text></g><line x1="50" y1="450.99" x2="52" y2="450.99" style="stroke-width: 0.5;stroke: rgb(128,128,128);stroke-opacity: 1.0;stroke-linecap: square;shape-rendering:crispEdges;" transform="matrix(1,0,0,1,0,0)" clip-path="url(#_67664232558037clip-0)"/><g transform="matrix(1,0,0,1,0,0)"><text x="33" y="482.51" style="fill: rgb(64,64,64); fill-opacity: 1.0; font-family: Tahoma; font-size: 12px;" clip-path="url(#_67664232558037clip-0)">10</text></g><line x1="50" y1="477.49" x2="52" y2="477.49" style="stroke-width: 0.5;stroke: rgb(128,128,128);stroke-opacity: 1.0;stroke-linecap: square;shape-rendering:crispEdges;" transform="matrix(1,0,0,1,0,0)" clip-path="url(#_67664232558037clip-0)"/><g transform="matrix(1,0,0,1,0,0)"><text x="33" y="509.01" style="fill: rgb(64,64,64); fill-opacity: 1.0; font-family: Tahoma; font-size: 12px;" clip-path="url(#_67664232558037clip-0)">11</text></g><line x1="50" y1="503.99" x2="52" y2="503.99" style="stroke-width: 0.5;stroke: rgb(128,128,128);stroke-opacity: 1.0;stroke-linecap: square;shape-rendering:crispEdges;" transform="matrix(1,0,0,1,0,0)" clip-path="url(#_67664232558037clip-0)"/><g transform="matrix(1,0,0,1,0,0)"><text x="33" y="535.51" style="fill: rgb(64,64,64); fill-opacity: 1.0; font-family: Tahoma; font-size: 12px;" clip-path="url(#_67664232558037clip-0)">12</text></g><line x1="50" y1="530.49" x2="52" y2="530.49" style="stroke-width: 0.5;stroke: rgb(128,128,128);stroke-opacity: 1.0;stroke-linecap: square;shape-rendering:crispEdges;" transform="matrix(1,0,0,1,0,0)" clip-path="url(#_67664232558037clip-0)"/><g style="fill: rgb(64,64,64); fill-opacity: 1.0; stroke: none" transform="matrix(0,-1,1,0,-273,312)" clip-path="url(#_67664232558037clip-1)"><path d="M 8.58 290.44 L 4.7 300.92 L 2.14 300.92 L 3.3 297.92 L 0.48 290.44 L 3 290.44 L 4.61 295.25 L 6.12 290.44 L 8.58 290.44 Z  M 18.47 300.92 L 15.96 300.92 Q 15.38 300.23 14.91 299.5 Q 14.44 298.76 14.1 297.94 Q 13.77 297.14 13.59 296.19 Q 13.41 295.23 13.41 294.2 Q 13.41 293.08 13.6 292.16 Q 13.79 291.23 14.08 290.48 Q 14.41 289.66 14.89 288.92 Q 15.36 288.19 15.96 287.47 L 18.47 287.47 L 18.47 287.67 Q 17.91 288.17 17.41 288.8 Q 16.91 289.44 16.49 290.28 Q 16.07 291.09 15.82 292.08 Q 15.57 293.08 15.57 294.2 Q 15.57 295.37 15.81 296.32 Q 16.05 297.26 16.49 298.11 Q 16.9 298.92 17.41 299.58 Q 17.93 300.25 18.47 300.73 L 18.47 300.92 Z  M 29.11 298.11 L 29.11 294.28 Q 29.11 293.7 29.09 293.31 Q 29.07 292.92 28.97 292.69 Q 28.86 292.44 28.64 292.32 Q 28.42 292.2 28.05 292.2 Q 27.77 292.2 27.5 292.33 Q 27.24 292.45 26.92 292.67 L 26.92 298.11 L 24.52 298.11 L 24.52 294.28 Q 24.52 293.72 24.5 293.32 Q 24.47 292.92 24.36 292.69 Q 24.27 292.44 24.05 292.32 Q 23.83 292.2 23.46 292.2 Q 23.16 292.2 22.88 292.34 Q 22.6 292.48 22.33 292.67 L 22.33 298.11 L 19.94 298.11 L 19.94 290.44 L 22.33 290.44 L 22.33 291.28 Q 22.91 290.78 23.43 290.5 Q 23.96 290.22 24.6 290.22 Q 25.32 290.22 25.85 290.55 Q 26.38 290.89 26.66 291.55 Q 27.35 290.91 27.96 290.56 Q 28.57 290.22 29.19 290.22 Q 29.74 290.22 30.16 290.39 Q 30.58 290.56 30.88 290.91 Q 31.19 291.26 31.35 291.78 Q 31.52 292.3 31.52 293.11 L 31.52 298.11 L 29.11 298.11 Z  M 37.96 294.2 Q 37.96 295.23 37.78 296.19 Q 37.6 297.14 37.29 297.94 Q 36.95 298.76 36.47 299.5 Q 35.99 300.23 35.42 300.92 L 32.92 300.92 L 32.92 300.73 Q 33.46 300.25 33.98 299.59 Q 34.49 298.94 34.9 298.11 Q 35.32 297.26 35.57 296.32 Q 35.82 295.37 35.82 294.2 Q 35.82 293.08 35.56 292.08 Q 35.31 291.09 34.9 290.28 Q 34.46 289.44 33.96 288.8 Q 33.46 288.17 32.92 287.67 L 32.92 287.47 L 35.42 287.47 Q 36.01 288.19 36.49 288.92 Q 36.96 289.66 37.29 290.48 Q 37.59 291.23 37.78 292.16 Q 37.96 293.08 37.96 294.2 Z "/></g><line x1="56" y1="53.51" x2="688" y2="53.51" style="stroke-width: 0.5;stroke: rgb(128,128,128);stroke-opacity: 0.5;stroke-linejoin: bevel;stroke-dasharray: 2.0, 2.0;shape-rendering:crispEdges;" transform="matrix(1,0,0,1,0,0)" clip-path="url(#_67664232558037clip-2)"/><line x1="56" y1="80.01" x2="688" y2="80.01" style="stroke-width: 0.5;stroke: rgb(128,128,128);stroke-opacity: 0.5;stroke-linejoin: bevel;stroke-dasharray: 2.0, 2.0;shape-rendering:crispEdges;" transform="matrix(1,0,0,1,0,0)" clip-path="url(#_67664232558037clip-2)"/><line x1="56" y1="106.51" x2="688" y2="106.51" style="stroke-width: 0.5;stroke: rgb(128,128,128);stroke-opacity: 0.5;stroke-linejoin: bevel;stroke-dasharray: 2.0, 2.0;shape-rendering:crispEdges;" transform="matrix(1,0,0,1,0,0)" clip-path="url(#_67664232558037clip-2)"/><line x1="56" y1="133.01" x2="688" y2="133.01" style="stroke-width: 0.5;stroke: rgb(128,128,128);stroke-opacity: 0.5;stroke-linejoin: bevel;stroke-dasharray: 2.0, 2.0;shape-rendering:crispEdges;" transform="matrix(1,0,0,1,0,0)" clip-path="url(#_67664232558037clip-2)"/><line x1="56" y1="159.51" x2="688" y2="159.51" style="stroke-width: 0.5;stroke: rgb(128,128,128);stroke-opacity: 0.5;stroke-linejoin: bevel;stroke-dasharray: 2.0, 2.0;shape-rendering:crispEdges;" transform="matrix(1,0,0,1,0,0)" clip-path="url(#_67664232558037clip-2)"/><line x1="56" y1="186.01" x2="688" y2="186.01" style="stroke-width: 0.5;stroke: rgb(128,128,128);stroke-opacity: 0.5;stroke-linejoin: bevel;stroke-dasharray: 2.0, 2.0;shape-rendering:crispEdges;" transform="matrix(1,0,0,1,0,0)" clip-path="url(#_67664232558037clip-2)"/><line x1="56" y1="212.51" x2="688" y2="212.51" style="stroke-width: 0.5;stroke: rgb(128,128,128);stroke-opacity: 0.5;stroke-linejoin: bevel;stroke-dasharray: 2.0, 2.0;shape-rendering:crispEdges;" transform="matrix(1,0,0,1,0,0)" clip-path="url(#_67664232558037clip-2)"/><line x1="56" y1="239" x2="688" y2="239" style="stroke-width: 0.5;stroke: rgb(128,128,128);stroke-opacity: 0.5;stroke-linejoin: bevel;stroke-dasharray: 2.0, 2.0;shape-rendering:crispEdges;" transform="matrix(1,0,0,1,0,0)" clip-path="url(#_67664232558037clip-2)"/><line x1="56" y1="265.5" x2="688" y2="265.5" style="stroke-width: 0.5;stroke: rgb(128,128,128);stroke-opacity: 0.5;stroke-linejoin: bevel;stroke-dasharray: 2.0, 2.0;shape-rendering:crispEdges;" transform="matrix(1,0,0,1,0,0)" clip-path="url(#_67664232558037clip-2)"/><line x1="56" y1="292" x2="688" y2="292" style="stroke-width: 0.5;stroke: rgb(128,128,128);stroke-opacity: 0.5;stroke-linejoin: bevel;stroke-dasharray: 2.0, 2.0;shape-rendering:crispEdges;" transform="matrix(1,0,0,1,0,0)" clip-path="url(#_67664232558037clip-2)"/><line x1="56" y1="318.5" x2="688" y2="318.5" style="stroke-width: 0.5;stroke: rgb(128,128,128);stroke-opacity: 0.5;stroke-linejoin: bevel;stroke-dasharray: 2.0, 2.0;shape-rendering:crispEdges;" transform="matrix(1,0,0,1,0,0)" clip-path="url(#_67664232558037clip-2)"/><line x1="56" y1="345" x2="688" y2="345" style="stroke-width: 0.5;stroke: rgb(128,128,128);stroke-opacity: 0.5;stroke-linejoin: bevel;stroke-dasharray: 2.0, 2.0;shape-rendering:crispEdges;" transform="matrix(1,0,0,1,0,0)" clip-path="url(#_67664232558037clip-2)"/><line x1="56" y1="371.5" x2="688" y2="371.5" style="stroke-width: 0.5;stroke: rgb(128,128,128);stroke-opacity: 0.5;stroke-linejoin: bevel;stroke-dasharray: 2.0, 2.0;shape-rendering:crispEdges;" transform="matrix(1,0,0,1,0,0)" clip-path="url(#_67664232558037clip-2)"/><line x1="56" y1="397.99" x2="688" y2="397.99" style="stroke-width: 0.5;stroke: rgb(128,128,128);stroke-opacity: 0.5;stroke-linejoin: bevel;stroke-dasharray: 2.0, 2.0;shape-rendering:crispEdges;" transform="matrix(1,0,0,1,0,0)" clip-path="url(#_67664232558037clip-2)"/><line x1="56" y1="424.49" x2="688" y2="424.49" style="stroke-width: 0.5;stroke: rgb(128,128,128);stroke-opacity: 0.5;stroke-linejoin: bevel;stroke-dasharray: 2.0, 2.0;shape-rendering:crispEdges;" transform="matrix(1,0,0,1,0,0)" clip-path="url(#_67664232558037clip-2)"/><line x1="56" y1="450.99" x2="688" y2="450.99" style="stroke-width: 0.5;stroke: rgb(128,128,128);stroke-opacity: 0.5;stroke-linejoin: bevel;stroke-dasharray: 2.0, 2.0;shape-rendering:crispEdges;" transform="matrix(1,0,0,1,0,0)" clip-path="url(#_67664232558037clip-2)"/><line x1="56" y1="477.49" x2="688" y2="477.49" style="stroke-width: 0.5;stroke: rgb(128,128,128);stroke-opacity: 0.5;stroke-linejoin: bevel;stroke-dasharray: 2.0, 2.0;shape-rendering:crispEdges;" transform="matrix(1,0,0,1,0,0)" clip-path="url(#_67664232558037clip-2)"/><line x1="56" y1="503.99" x2="688" y2="503.99" style="stroke-width: 0.5;stroke: rgb(128,128,128);stroke-opacity: 0.5;stroke-linejoin: bevel;stroke-dasharray: 2.0, 2.0;shape-rendering:crispEdges;" transform="matrix(1,0,0,1,0,0)" clip-path="url(#_67664232558037clip-2)"/><line x1="56" y1="530.49" x2="688" y2="530.49" style="stroke-width: 0.5;stroke: rgb(128,128,128);stroke-opacity: 0.5;stroke-linejoin: bevel;stroke-dasharray: 2.0, 2.0;shape-rendering:crispEdges;" transform="matrix(1,0,0,1,0,0)" clip-path="url(#_67664232558037clip-2)"/><line x1="84.73" y1="35" x2="84.73" y2="550" style="stroke-width: 0.5;stroke: rgb(128,128,128);stroke-opacity: 0.5;stroke-linejoin: bevel;stroke-dasharray: 2.0, 2.0;shape-rendering:crispEdges;" transform="matrix(1,0,0,1,0,0)" clip-path="url(#_67664232558037clip-2)"/><line x1="117.25" y1="35" x2="117.25" y2="550" style="stroke-width: 0.5;stroke: rgb(128,128,128);stroke-opacity: 0.5;stroke-linejoin: bevel;stroke-dasharray: 2.0, 2.0;shape-rendering:crispEdges;" transform="matrix(1,0,0,1,0,0)" clip-path="url(#_67664232558037clip-2)"/><line x1="149.76" y1="35" x2="149.76" y2="550" style="stroke-width: 0.5;stroke: rgb(128,128,128);stroke-opacity: 0.5;stroke-linejoin: bevel;stroke-dasharray: 2.0, 2.0;shape-rendering:crispEdges;" transform="matrix(1,0,0,1,0,0)" clip-path="url(#_67664232558037clip-2)"/><line x1="182.28" y1="35" x2="182.28" y2="550" style="stroke-width: 0.5;stroke: rgb(128,128,128);stroke-opacity: 0.5;stroke-linejoin: bevel;stroke-dasharray: 2.0, 2.0;shape-rendering:crispEdges;" transform="matrix(1,0,0,1,0,0)" clip-path="url(#_67664232558037clip-2)"/><line x1="214.8" y1="35" x2="214.8" y2="550" style="stroke-width: 0.5;stroke: rgb(128,128,128);stroke-opacity: 0.5;stroke-linejoin: bevel;stroke-dasharray: 2.0, 2.0;shape-rendering:crispEdges;" transform="matrix(1,0,0,1,0,0)" clip-path="url(#_67664232558037clip-2)"/><line x1="247.32" y1="35" x2="247.32" y2="550" style="stroke-width: 0.5;stroke: rgb(128,128,128);stroke-opacity: 0.5;stroke-linejoin: bevel;stroke-dasharray: 2.0, 2.0;shape-rendering:crispEdges;" transform="matrix(1,0,0,1,0,0)" clip-path="url(#_67664232558037clip-2)"/><line x1="279.84" y1="35" x2="279.84" y2="550" style="stroke-width: 0.5;stroke: rgb(128,128,128);stroke-opacity: 0.5;stroke-linejoin: bevel;stroke-dasharray: 2.0, 2.0;shape-rendering:crispEdges;" transform="matrix(1,0,0,1,0,0)" clip-path="url(#_67664232558037clip-2)"/><line x1="312.36" y1="35" x2="312.36" y2="550" style="stroke-width: 0.5;stroke: rgb(128,128,128);stroke-opacity: 0.5;stroke-linejoin: bevel;stroke-dasharray: 2.0, 2.0;shape-rendering:crispEdges;" transform="matrix(1,0,0,1,0,0)" clip-path="url(#_67664232558037clip-2)"/><line x1="344.88" y1="35" x2="344.88" y2="550" style="stroke-width: 0.5;stroke: rgb(128,128,128);stroke-opacity: 0.5;stroke-linejoin: bevel;stroke-dasharray: 2.0, 2.0;shape-rendering:crispEdges;" transform="matrix(1,0,0,1,0,0)" clip-path="url(#_67664232558037clip-2)"/><line x1="377.39" y1="35" x2="377.39" y2="550" style="stroke-width: 0.5;stroke: rgb(128,128,128);stroke-opacity: 0.5;stroke-linejoin: bevel;stroke-dasharray: 2.0, 2.0;shape-rendering:crispEdges;" transform="matrix(1,0,0,1,0,0)" clip-path="url(#_67664232558037clip-2)"/><line x1="409.91" y1="35" x2="409.91" y2="550" style="stroke-width: 0.5;stroke: rgb(128,128,128);stroke-opacity: 0.5;stroke-linejoin: bevel;stroke-dasharray: 2.0, 2.0;shape-rendering:crispEdges;" transform="matrix(1,0,0,1,0,0)" clip-path="url(#_67664232558037clip-2)"/><line x1="442.43" y1="35" x2="442.43" y2="550" style="stroke-width: 0.5;stroke: rgb(128,128,128);stroke-opacity: 0.5;stroke-linejoin: bevel;stroke-dasharray: 2.0, 2.0;shape-rendering:crispEdges;" transform="matrix(1,0,0,1,0,0)" clip-path="url(#_67664232558037clip-2)"/><line x1="474.95" y1="35" x2="474.95" y2="550" style="stroke-width: 0.5;stroke: rgb(128,128,128);stroke-opacity: 0.5;stroke-linejoin: bevel;stroke-dasharray: 2.0, 2.0;shape-rendering:crispEdges;" transform="matrix(1,0,0,1,0,0)" clip-path="url(#_67664232558037clip-2)"/><line x1="507.47" y1="35" x2="507.47" y2="550" style="stroke-width: 0.5;stroke: rgb(128,128,128);stroke-opacity: 0.5;stroke-linejoin: bevel;stroke-dasharray: 2.0, 2.0;shape-rendering:crispEdges;" transform="matrix(1,0,0,1,0,0)" clip-path="url(#_67664232558037clip-2)"/><line x1="539.99" y1="35" x2="539.99" y2="550" style="stroke-width: 0.5;stroke: rgb(128,128,128);stroke-opacity: 0.5;stroke-linejoin: bevel;stroke-dasharray: 2.0, 2.0;shape-rendering:crispEdges;" transform="matrix(1,0,0,1,0,0)" clip-path="url(#_67664232558037clip-2)"/><line x1="572.5" y1="35" x2="572.5" y2="550" style="stroke-width: 0.5;stroke: rgb(128,128,128);stroke-opacity: 0.5;stroke-linejoin: bevel;stroke-dasharray: 2.0, 2.0;shape-rendering:crispEdges;" transform="matrix(1,0,0,1,0,0)" clip-path="url(#_67664232558037clip-2)"/><line x1="605.02" y1="35" x2="605.02" y2="550" style="stroke-width: 0.5;stroke: rgb(128,128,128);stroke-opacity: 0.5;stroke-linejoin: bevel;stroke-dasharray: 2.0, 2.0;shape-rendering:crispEdges;" transform="matrix(1,0,0,1,0,0)" clip-path="url(#_67664232558037clip-2)"/><line x1="637.54" y1="35" x2="637.54" y2="550" style="stroke-width: 0.5;stroke: rgb(128,128,128);stroke-opacity: 0.5;stroke-linejoin: bevel;stroke-dasharray: 2.0, 2.0;shape-rendering:crispEdges;" transform="matrix(1,0,0,1,0,0)" clip-path="url(#_67664232558037clip-2)"/><line x1="670.06" y1="35" x2="670.06" y2="550" style="stroke-width: 0.5;stroke: rgb(128,128,128);stroke-opacity: 0.5;stroke-linejoin: bevel;stroke-dasharray: 2.0, 2.0;shape-rendering:crispEdges;" transform="matrix(1,0,0,1,0,0)" clip-path="url(#_67664232558037clip-2)"/><g style="fill: rgb(135,206,250); fill-opacity: 0.5; stroke: none" transform="matrix(1,0,0,1,0,0)" clip-path="url(#_67664232558037clip-2)"><path d="M 84.73 212.51 L 84.73 212.51 L 659.27 295.06 L 659.27 338.78 L 84.73 327.14 L 84.73 212.51 L 84.73 212.51 Z "/></g><g style="stroke-width: 2.5;stroke: rgb(255,85,85);stroke-opacity: 0.5;stroke-linecap: round;stroke-linejoin: round;stroke-dasharray: 5.0;shape-rendering:geometricPrecision;; fill: none" transform="matrix(1,0,0,1,0,0)" clip-path="url(#_67664232558037clip-2)"><path d="M 326.95 247.31 L 326.95 331.85"/></g><g style="stroke-width: 2.5;stroke: rgb(85,85,255);stroke-opacity: 0.5;stroke-linecap: round;stroke-linejoin: round;stroke-dasharray: 5.0;shape-rendering:geometricPrecision;; fill: none" transform="matrix(1,0,0,1,0,0)" clip-path="url(#_67664232558037clip-2)"><path d="M 84.73 212.51 L 125.77 218.4 L 166.81 224.3 L 207.84 230.2 L 248.88 236.09 L 257.09 237.27 L 289.92 241.99 L 330.96 247.89 L 372 253.78 L 413.04 259.68 L 454.08 265.58 L 495.12 271.47 L 536.16 277.37 L 577.19 283.27 L 618.23 289.16 L 659.27 295.06 L 659.27 339 L 618.23 338 L 577.19 337.01 L 536.16 336.01 L 495.12 335.01 L 454.08 334.01 L 413.04 333.01 L 372 332.02 L 330.96 331.02 L 289.92 330.02 L 257.09 329.34 L 248.88 329.43 L 207.84 329.88 L 166.81 330.33 L 125.77 330.77 L 84.73 331.22 L 84.73 212.51"/></g><g style="stroke-width: 1.0;stroke: rgb(0,0,0);stroke-opacity: 0.5;stroke-linecap: round;stroke-linejoin: round;shape-rendering:geometricPrecision;; fill: none" transform="matrix(1,0,0,1,0,0)" clip-path="url(#_67664232558037clip-2)"><path d="M 84.73 212.51 L 659.27 295.06 L 659.27 338.78 L 84.73 327.14 L 84.73 212.51"/></g><rect x="56" y="35" width="632" height="515" style="stroke-width: 0.5;stroke: rgb(0,0,0);stroke-opacity: 1.0;stroke-linecap: round;stroke-linejoin: round;shape-rendering:crispEdges;; fill: none" transform="matrix(1,0,0,1,0,0)" clip-path="url(#_67664232558037clip-0)"/></svg>
