<!DOCTYPE svg PUBLIC "-//W3C//DTD SVG 1.1//EN" "http://www.w3.org/Graphics/SVG/1.1/DTD/svg11.dtd">
<svg xmlns="http://www.w3.org/2000/svg" xmlns:xlink="http://www.w3.org/1999/xlink" xmlns:jfreesvg="http://www.jfree.org/jfreesvg/svg" width="650" height="650" text-rendering="auto" shape-rendering="auto">
<defs><clipPath id="_1231161790775810clip-0"><path d="M 0 0 L 650 0 L 650 650 L 0 650 L 0 0 Z "/></clipPath>
<clipPath id="_1231161790775810clip-1"><path d="M 337 298 L 337 948 L -313 948 L -313 298 L 337 298 Z "/></clipPath>
<clipPath id="_1231161790775810clip-2"><path d="M 64 35 L 64 600 L 638 600 L 638 35 Z "/></clipPath>
</defs>
<rect x="0" y="0" width="650" height="650" style="fill: rgb(245,245,245); fill-opacity: 1.0" transform="matrix(1,0,0,1,0,0)" clip-path="url(#_1231161790775810clip-0)"/><g transform="matrix(1,0,0,1,0,0)"><text x="173" y="21.01" style="fill: rgb(0,0,0); fill-opacity: 1.0; font-family: Tahoma; font-size: 20px; font-weight: bold;" clip-path="url(#_1231161790775810clip-0)">Wing Planform representation</text></g><rect x="64" y="35" width="574" height="565" style="fill: rgb(240,248,255); fill-opacity: 0.0" transform="matrix(1,0,0,1,0,0)" clip-path="url(#_1231161790775810clip-0)"/><line x1="64" y1="604" x2="638" y2="604" style="stroke-width: 0.5;stroke: rgb(128,128,128);stroke-opacity: 1.0;stroke-linecap: square;shape-rendering:crispEdges;" transform="matrix(1,0,0,1,0,0)" clip-path="url(#_1231161790775810clip-0)"/><g transform="matrix(1,0,0,1,0,0)"><text x="86.59" y="620.52" style="fill: rgb(64,64,64); fill-opacity: 1.0; font-family: Tahoma; font-size: 12px;" clip-path="url(#_1231161790775810clip-0)">0</text></g><line x1="90.09" y1="606" x2="90.09" y2="604" style="stroke-width: 0.5;stroke: rgb(128,128,128);stroke-opacity: 1.0;stroke-linecap: square;shape-rendering:crispEdges;" transform="matrix(1,0,0,1,0,0)" clip-path="url(#_1231161790775810clip-0)"/><g transform="matrix(1,0,0,1,0,0)"><text x="127.1" y="620.52" style="fill: rgb(64,64,64); fill-opacity: 1.0; font-family: Tahoma; font-size: 12px;" clip-path="url(#_1231161790775810clip-0)">1</text></g><line x1="130.6" y1="606" x2="130.6" y2="604" style="stroke-width: 0.5;stroke: rgb(128,128,128);stroke-opacity: 1.0;stroke-linecap: square;shape-rendering:crispEdges;" transform="matrix(1,0,0,1,0,0)" clip-path="url(#_1231161790775810clip-0)"/><g transform="matrix(1,0,0,1,0,0)"><text x="167.62" y="620.52" style="fill: rgb(64,64,64); fill-opacity: 1.0; font-family: Tahoma; font-size: 12px;" clip-path="url(#_1231161790775810clip-0)">2</text></g><line x1="171.12" y1="606" x2="171.12" y2="604" style="stroke-width: 0.5;stroke: rgb(128,128,128);stroke-opacity: 1.0;stroke-linecap: square;shape-rendering:crispEdges;" transform="matrix(1,0,0,1,0,0)" clip-path="url(#_1231161790775810clip-0)"/><g transform="matrix(1,0,0,1,0,0)"><text x="208.13" y="620.52" style="fill: rgb(64,64,64); fill-opacity: 1.0; font-family: Tahoma; font-size: 12px;" clip-path="url(#_1231161790775810clip-0)">3</text></g><line x1="211.63" y1="606" x2="211.63" y2="604" style="stroke-width: 0.5;stroke: rgb(128,128,128);stroke-opacity: 1.0;stroke-linecap: square;shape-rendering:crispEdges;" transform="matrix(1,0,0,1,0,0)" clip-path="url(#_1231161790775810clip-0)"/><g transform="matrix(1,0,0,1,0,0)"><text x="248.65" y="620.52" style="fill: rgb(64,64,64); fill-opacity: 1.0; font-family: Tahoma; font-size: 12px;" clip-path="url(#_1231161790775810clip-0)">4</text></g><line x1="252.15" y1="606" x2="252.15" y2="604" style="stroke-width: 0.5;stroke: rgb(128,128,128);stroke-opacity: 1.0;stroke-linecap: square;shape-rendering:crispEdges;" transform="matrix(1,0,0,1,0,0)" clip-path="url(#_1231161790775810clip-0)"/><g transform="matrix(1,0,0,1,0,0)"><text x="289.16" y="620.52" style="fill: rgb(64,64,64); fill-opacity: 1.0; font-family: Tahoma; font-size: 12px;" clip-path="url(#_1231161790775810clip-0)">5</text></g><line x1="292.66" y1="606" x2="292.66" y2="604" style="stroke-width: 0.5;stroke: rgb(128,128,128);stroke-opacity: 1.0;stroke-linecap: square;shape-rendering:crispEdges;" transform="matrix(1,0,0,1,0,0)" clip-path="url(#_1231161790775810clip-0)"/><g transform="matrix(1,0,0,1,0,0)"><text x="329.67" y="620.52" style="fill: rgb(64,64,64); fill-opacity: 1.0; font-family: Tahoma; font-size: 12px;" clip-path="url(#_1231161790775810clip-0)">6</text></g><line x1="333.17" y1="606" x2="333.17" y2="604" style="stroke-width: 0.5;stroke: rgb(128,128,128);stroke-opacity: 1.0;stroke-linecap: square;shape-rendering:crispEdges;" transform="matrix(1,0,0,1,0,0)" clip-path="url(#_1231161790775810clip-0)"/><g transform="matrix(1,0,0,1,0,0)"><text x="370.19" y="620.52" style="fill: rgb(64,64,64); fill-opacity: 1.0; font-family: Tahoma; font-size: 12px;" clip-path="url(#_1231161790775810clip-0)">7</text></g><line x1="373.69" y1="606" x2="373.69" y2="604" style="stroke-width: 0.5;stroke: rgb(128,128,128);stroke-opacity: 1.0;stroke-linecap: square;shape-rendering:crispEdges;" transform="matrix(1,0,0,1,0,0)" clip-path="url(#_1231161790775810clip-0)"/><g transform="matrix(1,0,0,1,0,0)"><text x="410.7" y="620.52" style="fill: rgb(64,64,64); fill-opacity: 1.0; font-family: Tahoma; font-size: 12px;" clip-path="url(#_1231161790775810clip-0)">8</text></g><line x1="414.2" y1="606" x2="414.2" y2="604" style="stroke-width: 0.5;stroke: rgb(128,128,128);stroke-opacity: 1.0;stroke-linecap: square;shape-rendering:crispEdges;" transform="matrix(1,0,0,1,0,0)" clip-path="url(#_1231161790775810clip-0)"/><g transform="matrix(1,0,0,1,0,0)"><text x="451.22" y="620.52" style="fill: rgb(64,64,64); fill-opacity: 1.0; font-family: Tahoma; font-size: 12px;" clip-path="url(#_1231161790775810clip-0)">9</text></g><line x1="454.72" y1="606" x2="454.72" y2="604" style="stroke-width: 0.5;stroke: rgb(128,128,128);stroke-opacity: 1.0;stroke-linecap: square;shape-rendering:crispEdges;" transform="matrix(1,0,0,1,0,0)" clip-path="url(#_1231161790775810clip-0)"/><g transform="matrix(1,0,0,1,0,0)"><text x="488.73" y="620.52" style="fill: rgb(64,64,64); fill-opacity: 1.0; font-family: Tahoma; font-size: 12px;" clip-path="url(#_1231161790775810clip-0)">10</text></g><line x1="495.23" y1="606" x2="495.23" y2="604" style="stroke-width: 0.5;stroke: rgb(128,128,128);stroke-opacity: 1.0;stroke-linecap: square;shape-rendering:crispEdges;" transform="matrix(1,0,0,1,0,0)" clip-path="url(#_1231161790775810clip-0)"/><g transform="matrix(1,0,0,1,0,0)"><text x="529.24" y="620.52" style="fill: rgb(64,64,64); fill-opacity: 1.0; font-family: Tahoma; font-size: 12px;" clip-path="url(#_1231161790775810clip-0)">11</text></g><line x1="535.74" y1="606" x2="535.74" y2="604" style="stroke-width: 0.5;stroke: rgb(128,128,128);stroke-opacity: 1.0;stroke-linecap: square;shape-rendering:crispEdges;" transform="matrix(1,0,0,1,0,0)" clip-path="url(#_1231161790775810clip-0)"/><g transform="matrix(1,0,0,1,0,0)"><text x="569.76" y="620.52" style="fill: rgb(64,64,64); fill-opacity: 1.0; font-family: Tahoma; font-size: 12px;" clip-path="url(#_1231161790775810clip-0)">12</text></g><line x1="576.26" y1="606" x2="576.26" y2="604" style="stroke-width: 0.5;stroke: rgb(128,128,128);stroke-opacity: 1.0;stroke-linecap: square;shape-rendering:crispEdges;" transform="matrix(1,0,0,1,0,0)" clip-path="url(#_1231161790775810clip-0)"/><g transform="matrix(1,0,0,1,0,0)"><text x="610.27" y="620.52" style="fill: rgb(64,64,64); fill-opacity: 1.0; font-family: Tahoma; font-size: 12px;" clip-path="url(#_1231161790775810clip-0)">13</text></g><line x1="616.77" y1="606" x2="616.77" y2="604" style="stroke-width: 0.5;stroke: rgb(128,128,128);stroke-opacity: 1.0;stroke-linecap: square;shape-rendering:crispEdges;" transform="matrix(1,0,0,1,0,0)" clip-path="url(#_1231161790775810clip-0)"/><g transform="matrix(1,0,0,1,0,0)"><text x="331.5" y="639.59" style="fill: rgb(64,64,64); fill-opacity: 1.0; font-family: Tahoma; font-size: 14px; font-weight: bold;" clip-path="url(#_1231161790775810clip-0)">x (m)</text></g><line x1="60" y1="35" x2="60" y2="600" style="stroke-width: 0.5;stroke: rgb(128,128,128);stroke-opacity: 1.0;stroke-linecap: square;shape-rendering:crispEdges;" transform="matrix(1,0,0,1,0,0)" clip-path="url(#_1231161790775810clip-0)"/><g transform="matrix(1,0,0,1,0,0)"><text x="33" y="41.88" style="fill: rgb(64,64,64); fill-opacity: 1.0; font-family: Tahoma; font-size: 12px;" clip-path="url(#_1231161790775810clip-0)">-5,5</text></g><line x1="58" y1="36.86" x2="60" y2="36.86" style="stroke-width: 0.5;stroke: rgb(128,128,128);stroke-opacity: 1.0;stroke-linecap: square;shape-rendering:crispEdges;" transform="matrix(1,0,0,1,0,0)" clip-path="url(#_1231161790775810clip-0)"/><g transform="matrix(1,0,0,1,0,0)"><text x="33" y="61.82" style="fill: rgb(64,64,64); fill-opacity: 1.0; font-family: Tahoma; font-size: 12px;" clip-path="url(#_1231161790775810clip-0)">-5,0</text></g><line x1="58" y1="56.8" x2="60" y2="56.8" style="stroke-width: 0.5;stroke: rgb(128,128,128);stroke-opacity: 1.0;stroke-linecap: square;shape-rendering:crispEdges;" transform="matrix(1,0,0,1,0,0)" clip-path="url(#_1231161790775810clip-0)"/><g transform="matrix(1,0,0,1,0,0)"><text x="33" y="81.76" style="fill: rgb(64,64,64); fill-opacity: 1.0; font-family: Tahoma; font-size: 12px;" clip-path="url(#_1231161790775810clip-0)">-4,5</text></g><line x1="58" y1="76.74" x2="60" y2="76.74" style="stroke-width: 0.5;stroke: rgb(128,128,128);stroke-opacity: 1.0;stroke-linecap: square;shape-rendering:crispEdges;" transform="matrix(1,0,0,1,0,0)" clip-path="url(#_1231161790775810clip-0)"/><g transform="matrix(1,0,0,1,0,0)"><text x="33" y="101.7" style="fill: rgb(64,64,64); fill-opacity: 1.0; font-family: Tahoma; font-size: 12px;" clip-path="url(#_1231161790775810clip-0)">-4,0</text></g><line x1="58" y1="96.68" x2="60" y2="96.68" style="stroke-width: 0.5;stroke: rgb(128,128,128);stroke-opacity: 1.0;stroke-linecap: square;shape-rendering:crispEdges;" transform="matrix(1,0,0,1,0,0)" clip-path="url(#_1231161790775810clip-0)"/><g transform="matrix(1,0,0,1,0,0)"><text x="33" y="121.64" style="fill: rgb(64,64,64); fill-opacity: 1.0; font-family: Tahoma; font-size: 12px;" clip-path="url(#_1231161790775810clip-0)">-3,5</text></g><line x1="58" y1="116.62" x2="60" y2="116.62" style="stroke-width: 0.5;stroke: rgb(128,128,128);stroke-opacity: 1.0;stroke-linecap: square;shape-rendering:crispEdges;" transform="matrix(1,0,0,1,0,0)" clip-path="url(#_1231161790775810clip-0)"/><g transform="matrix(1,0,0,1,0,0)"><text x="33" y="141.58" style="fill: rgb(64,64,64); fill-opacity: 1.0; font-family: Tahoma; font-size: 12px;" clip-path="url(#_1231161790775810clip-0)">-3,0</text></g><line x1="58" y1="136.56" x2="60" y2="136.56" style="stroke-width: 0.5;stroke: rgb(128,128,128);stroke-opacity: 1.0;stroke-linecap: square;shape-rendering:crispEdges;" transform="matrix(1,0,0,1,0,0)" clip-path="url(#_1231161790775810clip-0)"/><g transform="matrix(1,0,0,1,0,0)"><text x="33" y="161.52" style="fill: rgb(64,64,64); fill-opacity: 1.0; font-family: Tahoma; font-size: 12px;" clip-path="url(#_1231161790775810clip-0)">-2,5</text></g><line x1="58" y1="156.5" x2="60" y2="156.5" style="stroke-width: 0.5;stroke: rgb(128,128,128);stroke-opacity: 1.0;stroke-linecap: square;shape-rendering:crispEdges;" transform="matrix(1,0,0,1,0,0)" clip-path="url(#_1231161790775810clip-0)"/><g transform="matrix(1,0,0,1,0,0)"><text x="33" y="181.46" style="fill: rgb(64,64,64); fill-opacity: 1.0; font-family: Tahoma; font-size: 12px;" clip-path="url(#_1231161790775810clip-0)">-2,0</text></g><line x1="58" y1="176.44" x2="60" y2="176.44" style="stroke-width: 0.5;stroke: rgb(128,128,128);stroke-opacity: 1.0;stroke-linecap: square;shape-rendering:crispEdges;" transform="matrix(1,0,0,1,0,0)" clip-path="url(#_1231161790775810clip-0)"/><g transform="matrix(1,0,0,1,0,0)"><text x="33" y="201.4" style="fill: rgb(64,64,64); fill-opacity: 1.0; font-family: Tahoma; font-size: 12px;" clip-path="url(#_1231161790775810clip-0)">-1,5</text></g><line x1="58" y1="196.38" x2="60" y2="196.38" style="stroke-width: 0.5;stroke: rgb(128,128,128);stroke-opacity: 1.0;stroke-linecap: square;shape-rendering:crispEdges;" transform="matrix(1,0,0,1,0,0)" clip-path="url(#_1231161790775810clip-0)"/><g transform="matrix(1,0,0,1,0,0)"><text x="33" y="221.34" style="fill: rgb(64,64,64); fill-opacity: 1.0; font-family: Tahoma; font-size: 12px;" clip-path="url(#_1231161790775810clip-0)">-1,0</text></g><line x1="58" y1="216.31" x2="60" y2="216.31" style="stroke-width: 0.5;stroke: rgb(128,128,128);stroke-opacity: 1.0;stroke-linecap: square;shape-rendering:crispEdges;" transform="matrix(1,0,0,1,0,0)" clip-path="url(#_1231161790775810clip-0)"/><g transform="matrix(1,0,0,1,0,0)"><text x="33" y="241.28" style="fill: rgb(64,64,64); fill-opacity: 1.0; font-family: Tahoma; font-size: 12px;" clip-path="url(#_1231161790775810clip-0)">-0,5</text></g><line x1="58" y1="236.25" x2="60" y2="236.25" style="stroke-width: 0.5;stroke: rgb(128,128,128);stroke-opacity: 1.0;stroke-linecap: square;shape-rendering:crispEdges;" transform="matrix(1,0,0,1,0,0)" clip-path="url(#_1231161790775810clip-0)"/><g transform="matrix(1,0,0,1,0,0)"><text x="37" y="261.21" style="fill: rgb(64,64,64); fill-opacity: 1.0; font-family: Tahoma; font-size: 12px;" clip-path="url(#_1231161790775810clip-0)">0,0</text></g><line x1="58" y1="256.19" x2="60" y2="256.19" style="stroke-width: 0.5;stroke: rgb(128,128,128);stroke-opacity: 1.0;stroke-linecap: square;shape-rendering:crispEdges;" transform="matrix(1,0,0,1,0,0)" clip-path="url(#_1231161790775810clip-0)"/><g transform="matrix(1,0,0,1,0,0)"><text x="37" y="281.15" style="fill: rgb(64,64,64); fill-opacity: 1.0; font-family: Tahoma; font-size: 12px;" clip-path="url(#_1231161790775810clip-0)">0,5</text></g><line x1="58" y1="276.13" x2="60" y2="276.13" style="stroke-width: 0.5;stroke: rgb(128,128,128);stroke-opacity: 1.0;stroke-linecap: square;shape-rendering:crispEdges;" transform="matrix(1,0,0,1,0,0)" clip-path="url(#_1231161790775810clip-0)"/><g transform="matrix(1,0,0,1,0,0)"><text x="37" y="301.09" style="fill: rgb(64,64,64); fill-opacity: 1.0; font-family: Tahoma; font-size: 12px;" clip-path="url(#_1231161790775810clip-0)">1,0</text></g><line x1="58" y1="296.07" x2="60" y2="296.07" style="stroke-width: 0.5;stroke: rgb(128,128,128);stroke-opacity: 1.0;stroke-linecap: square;shape-rendering:crispEdges;" transform="matrix(1,0,0,1,0,0)" clip-path="url(#_1231161790775810clip-0)"/><g transform="matrix(1,0,0,1,0,0)"><text x="37" y="321.03" style="fill: rgb(64,64,64); fill-opacity: 1.0; font-family: Tahoma; font-size: 12px;" clip-path="url(#_1231161790775810clip-0)">1,5</text></g><line x1="58" y1="316.01" x2="60" y2="316.01" style="stroke-width: 0.5;stroke: rgb(128,128,128);stroke-opacity: 1.0;stroke-linecap: square;shape-rendering:crispEdges;" transform="matrix(1,0,0,1,0,0)" clip-path="url(#_1231161790775810clip-0)"/><g transform="matrix(1,0,0,1,0,0)"><text x="37" y="340.97" style="fill: rgb(64,64,64); fill-opacity: 1.0; font-family: Tahoma; font-size: 12px;" clip-path="url(#_1231161790775810clip-0)">2,0</text></g><line x1="58" y1="335.95" x2="60" y2="335.95" style="stroke-width: 0.5;stroke: rgb(128,128,128);stroke-opacity: 1.0;stroke-linecap: square;shape-rendering:crispEdges;" transform="matrix(1,0,0,1,0,0)" clip-path="url(#_1231161790775810clip-0)"/><g transform="matrix(1,0,0,1,0,0)"><text x="37" y="360.91" style="fill: rgb(64,64,64); fill-opacity: 1.0; font-family: Tahoma; font-size: 12px;" clip-path="url(#_1231161790775810clip-0)">2,5</text></g><line x1="58" y1="355.89" x2="60" y2="355.89" style="stroke-width: 0.5;stroke: rgb(128,128,128);stroke-opacity: 1.0;stroke-linecap: square;shape-rendering:crispEdges;" transform="matrix(1,0,0,1,0,0)" clip-path="url(#_1231161790775810clip-0)"/><g transform="matrix(1,0,0,1,0,0)"><text x="37" y="380.85" style="fill: rgb(64,64,64); fill-opacity: 1.0; font-family: Tahoma; font-size: 12px;" clip-path="url(#_1231161790775810clip-0)">3,0</text></g><line x1="58" y1="375.83" x2="60" y2="375.83" style="stroke-width: 0.5;stroke: rgb(128,128,128);stroke-opacity: 1.0;stroke-linecap: square;shape-rendering:crispEdges;" transform="matrix(1,0,0,1,0,0)" clip-path="url(#_1231161790775810clip-0)"/><g transform="matrix(1,0,0,1,0,0)"><text x="37" y="400.79" style="fill: rgb(64,64,64); fill-opacity: 1.0; font-family: Tahoma; font-size: 12px;" clip-path="url(#_1231161790775810clip-0)">3,5</text></g><line x1="58" y1="395.77" x2="60" y2="395.77" style="stroke-width: 0.5;stroke: rgb(128,128,128);stroke-opacity: 1.0;stroke-linecap: square;shape-rendering:crispEdges;" transform="matrix(1,0,0,1,0,0)" clip-path="url(#_1231161790775810clip-0)"/><g transform="matrix(1,0,0,1,0,0)"><text x="37" y="420.73" style="fill: rgb(64,64,64); fill-opacity: 1.0; font-family: Tahoma; font-size: 12px;" clip-path="url(#_1231161790775810clip-0)">4,0</text></g><line x1="58" y1="415.71" x2="60" y2="415.71" style="stroke-width: 0.5;stroke: rgb(128,128,128);stroke-opacity: 1.0;stroke-linecap: square;shape-rendering:crispEdges;" transform="matrix(1,0,0,1,0,0)" clip-path="url(#_1231161790775810clip-0)"/><g transform="matrix(1,0,0,1,0,0)"><text x="37" y="440.67" style="fill: rgb(64,64,64); fill-opacity: 1.0; font-family: Tahoma; font-size: 12px;" clip-path="url(#_1231161790775810clip-0)">4,5</text></g><line x1="58" y1="435.65" x2="60" y2="435.65" style="stroke-width: 0.5;stroke: rgb(128,128,128);stroke-opacity: 1.0;stroke-linecap: square;shape-rendering:crispEdges;" transform="matrix(1,0,0,1,0,0)" clip-path="url(#_1231161790775810clip-0)"/><g transform="matrix(1,0,0,1,0,0)"><text x="37" y="460.61" style="fill: rgb(64,64,64); fill-opacity: 1.0; font-family: Tahoma; font-size: 12px;" clip-path="url(#_1231161790775810clip-0)">5,0</text></g><line x1="58" y1="455.59" x2="60" y2="455.59" style="stroke-width: 0.5;stroke: rgb(128,128,128);stroke-opacity: 1.0;stroke-linecap: square;shape-rendering:crispEdges;" transform="matrix(1,0,0,1,0,0)" clip-path="url(#_1231161790775810clip-0)"/><g transform="matrix(1,0,0,1,0,0)"><text x="37" y="480.55" style="fill: rgb(64,64,64); fill-opacity: 1.0; font-family: Tahoma; font-size: 12px;" clip-path="url(#_1231161790775810clip-0)">5,5</text></g><line x1="58" y1="475.53" x2="60" y2="475.53" style="stroke-width: 0.5;stroke: rgb(128,128,128);stroke-opacity: 1.0;stroke-linecap: square;shape-rendering:crispEdges;" transform="matrix(1,0,0,1,0,0)" clip-path="url(#_1231161790775810clip-0)"/><g transform="matrix(1,0,0,1,0,0)"><text x="37" y="500.49" style="fill: rgb(64,64,64); fill-opacity: 1.0; font-family: Tahoma; font-size: 12px;" clip-path="url(#_1231161790775810clip-0)">6,0</text></g><line x1="58" y1="495.46" x2="60" y2="495.46" style="stroke-width: 0.5;stroke: rgb(128,128,128);stroke-opacity: 1.0;stroke-linecap: square;shape-rendering:crispEdges;" transform="matrix(1,0,0,1,0,0)" clip-path="url(#_1231161790775810clip-0)"/><g transform="matrix(1,0,0,1,0,0)"><text x="37" y="520.43" style="fill: rgb(64,64,64); fill-opacity: 1.0; font-family: Tahoma; font-size: 12px;" clip-path="url(#_1231161790775810clip-0)">6,5</text></g><line x1="58" y1="515.4" x2="60" y2="515.4" style="stroke-width: 0.5;stroke: rgb(128,128,128);stroke-opacity: 1.0;stroke-linecap: square;shape-rendering:crispEdges;" transform="matrix(1,0,0,1,0,0)" clip-path="url(#_1231161790775810clip-0)"/><g transform="matrix(1,0,0,1,0,0)"><text x="37" y="540.36" style="fill: rgb(64,64,64); fill-opacity: 1.0; font-family: Tahoma; font-size: 12px;" clip-path="url(#_1231161790775810clip-0)">7,0</text></g><line x1="58" y1="535.34" x2="60" y2="535.34" style="stroke-width: 0.5;stroke: rgb(128,128,128);stroke-opacity: 1.0;stroke-linecap: square;shape-rendering:crispEdges;" transform="matrix(1,0,0,1,0,0)" clip-path="url(#_1231161790775810clip-0)"/><g transform="matrix(1,0,0,1,0,0)"><text x="37" y="560.3" style="fill: rgb(64,64,64); fill-opacity: 1.0; font-family: Tahoma; font-size: 12px;" clip-path="url(#_1231161790775810clip-0)">7,5</text></g><line x1="58" y1="555.28" x2="60" y2="555.28" style="stroke-width: 0.5;stroke: rgb(128,128,128);stroke-opacity: 1.0;stroke-linecap: square;shape-rendering:crispEdges;" transform="matrix(1,0,0,1,0,0)" clip-path="url(#_1231161790775810clip-0)"/><g transform="matrix(1,0,0,1,0,0)"><text x="37" y="580.24" style="fill: rgb(64,64,64); fill-opacity: 1.0; font-family: Tahoma; font-size: 12px;" clip-path="url(#_1231161790775810clip-0)">8,0</text></g><line x1="58" y1="575.22" x2="60" y2="575.22" style="stroke-width: 0.5;stroke: rgb(128,128,128);stroke-opacity: 1.0;stroke-linecap: square;shape-rendering:crispEdges;" transform="matrix(1,0,0,1,0,0)" clip-path="url(#_1231161790775810clip-0)"/><g transform="matrix(1,0,0,1,0,0)"><text x="37" y="600.18" style="fill: rgb(64,64,64); fill-opacity: 1.0; font-family: Tahoma; font-size: 12px;" clip-path="url(#_1231161790775810clip-0)">8,5</text></g><line x1="58" y1="595.16" x2="60" y2="595.16" style="stroke-width: 0.5;stroke: rgb(128,128,128);stroke-opacity: 1.0;stroke-linecap: square;shape-rendering:crispEdges;" transform="matrix(1,0,0,1,0,0)" clip-path="url(#_1231161790775810clip-0)"/><g style="fill: rgb(64,64,64); fill-opacity: 1.0; stroke: none" transform="matrix(0,-1,1,0,-298,337)" clip-path="url(#_1231161790775810clip-1)"><path d="M 8.58 315.44 L 4.7 325.92 L 2.14 325.92 L 3.3 322.92 L 0.48 315.44 L 3 315.44 L 4.61 320.25 L 6.12 315.44 L 8.58 315.44 Z  M 18.47 325.92 L 15.96 325.92 Q 15.38 325.23 14.91 324.5 Q 14.44 323.76 14.1 322.94 Q 13.77 322.14 13.59 321.19 Q 13.41 320.23 13.41 319.2 Q 13.41 318.08 13.6 317.16 Q 13.79 316.23 14.08 315.48 Q 14.41 314.66 14.89 313.92 Q 15.36 313.19 15.96 312.47 L 18.47 312.47 L 18.47 312.67 Q 17.91 313.17 17.41 313.8 Q 16.91 314.44 16.49 315.28 Q 16.07 316.09 15.82 317.08 Q 15.57 318.08 15.57 319.2 Q 15.57 320.37 15.81 321.32 Q 16.05 322.26 16.49 323.11 Q 16.9 323.92 17.41 324.58 Q 17.93 325.25 18.47 325.73 L 18.47 325.92 Z  M 29.11 323.11 L 29.11 319.28 Q 29.11 318.7 29.09 318.31 Q 29.07 317.92 28.97 317.69 Q 28.86 317.44 28.64 317.32 Q 28.42 317.2 28.05 317.2 Q 27.77 317.2 27.5 317.33 Q 27.24 317.45 26.92 317.67 L 26.92 323.11 L 24.52 323.11 L 24.52 319.28 Q 24.52 318.72 24.5 318.32 Q 24.47 317.92 24.36 317.69 Q 24.27 317.44 24.05 317.32 Q 23.83 317.2 23.46 317.2 Q 23.16 317.2 22.88 317.34 Q 22.6 317.48 22.33 317.67 L 22.33 323.11 L 19.94 323.11 L 19.94 315.44 L 22.33 315.44 L 22.33 316.28 Q 22.91 315.78 23.43 315.5 Q 23.96 315.22 24.6 315.22 Q 25.32 315.22 25.85 315.55 Q 26.38 315.89 26.66 316.55 Q 27.35 315.91 27.96 315.56 Q 28.57 315.22 29.19 315.22 Q 29.74 315.22 30.16 315.39 Q 30.58 315.56 30.88 315.91 Q 31.19 316.26 31.35 316.78 Q 31.52 317.3 31.52 318.11 L 31.52 323.11 L 29.11 323.11 Z  M 37.96 319.2 Q 37.96 320.23 37.78 321.19 Q 37.6 322.14 37.29 322.94 Q 36.95 323.76 36.47 324.5 Q 35.99 325.23 35.42 325.92 L 32.92 325.92 L 32.92 325.73 Q 33.46 325.25 33.98 324.59 Q 34.49 323.94 34.9 323.11 Q 35.32 322.26 35.57 321.32 Q 35.82 320.37 35.82 319.2 Q 35.82 318.08 35.56 317.08 Q 35.31 316.09 34.9 315.28 Q 34.46 314.44 33.96 313.8 Q 33.46 313.17 32.92 312.67 L 32.92 312.47 L 35.42 312.47 Q 36.01 313.19 36.49 313.92 Q 36.96 314.66 37.29 315.48 Q 37.59 316.23 37.78 317.16 Q 37.96 318.08 37.96 319.2 Z "/></g><line x1="64" y1="36.86" x2="638" y2="36.86" style="stroke-width: 0.5;stroke: rgb(128,128,128);stroke-opacity: 0.5;stroke-linejoin: bevel;stroke-dasharray: 2.0, 2.0;shape-rendering:crispEdges;" transform="matrix(1,0,0,1,0,0)" clip-path="url(#_1231161790775810clip-2)"/><line x1="64" y1="56.8" x2="638" y2="56.8" style="stroke-width: 0.5;stroke: rgb(128,128,128);stroke-opacity: 0.5;stroke-linejoin: bevel;stroke-dasharray: 2.0, 2.0;shape-rendering:crispEdges;" transform="matrix(1,0,0,1,0,0)" clip-path="url(#_1231161790775810clip-2)"/><line x1="64" y1="76.74" x2="638" y2="76.74" style="stroke-width: 0.5;stroke: rgb(128,128,128);stroke-opacity: 0.5;stroke-linejoin: bevel;stroke-dasharray: 2.0, 2.0;shape-rendering:crispEdges;" transform="matrix(1,0,0,1,0,0)" clip-path="url(#_1231161790775810clip-2)"/><line x1="64" y1="96.68" x2="638" y2="96.68" style="stroke-width: 0.5;stroke: rgb(128,128,128);stroke-opacity: 0.5;stroke-linejoin: bevel;stroke-dasharray: 2.0, 2.0;shape-rendering:crispEdges;" transform="matrix(1,0,0,1,0,0)" clip-path="url(#_1231161790775810clip-2)"/><line x1="64" y1="116.62" x2="638" y2="116.62" style="stroke-width: 0.5;stroke: rgb(128,128,128);stroke-opacity: 0.5;stroke-linejoin: bevel;stroke-dasharray: 2.0, 2.0;shape-rendering:crispEdges;" transform="matrix(1,0,0,1,0,0)" clip-path="url(#_1231161790775810clip-2)"/><line x1="64" y1="136.56" x2="638" y2="136.56" style="stroke-width: 0.5;stroke: rgb(128,128,128);stroke-opacity: 0.5;stroke-linejoin: bevel;stroke-dasharray: 2.0, 2.0;shape-rendering:crispEdges;" transform="matrix(1,0,0,1,0,0)" clip-path="url(#_1231161790775810clip-2)"/><line x1="64" y1="156.5" x2="638" y2="156.5" style="stroke-width: 0.5;stroke: rgb(128,128,128);stroke-opacity: 0.5;stroke-linejoin: bevel;stroke-dasharray: 2.0, 2.0;shape-rendering:crispEdges;" transform="matrix(1,0,0,1,0,0)" clip-path="url(#_1231161790775810clip-2)"/><line x1="64" y1="176.44" x2="638" y2="176.44" style="stroke-width: 0.5;stroke: rgb(128,128,128);stroke-opacity: 0.5;stroke-linejoin: bevel;stroke-dasharray: 2.0, 2.0;shape-rendering:crispEdges;" transform="matrix(1,0,0,1,0,0)" clip-path="url(#_1231161790775810clip-2)"/><line x1="64" y1="196.38" x2="638" y2="196.38" style="stroke-width: 0.5;stroke: rgb(128,128,128);stroke-opacity: 0.5;stroke-linejoin: bevel;stroke-dasharray: 2.0, 2.0;shape-rendering:crispEdges;" transform="matrix(1,0,0,1,0,0)" clip-path="url(#_1231161790775810clip-2)"/><line x1="64" y1="216.31" x2="638" y2="216.31" style="stroke-width: 0.5;stroke: rgb(128,128,128);stroke-opacity: 0.5;stroke-linejoin: bevel;stroke-dasharray: 2.0, 2.0;shape-rendering:crispEdges;" transform="matrix(1,0,0,1,0,0)" clip-path="url(#_1231161790775810clip-2)"/><line x1="64" y1="236.25" x2="638" y2="236.25" style="stroke-width: 0.5;stroke: rgb(128,128,128);stroke-opacity: 0.5;stroke-linejoin: bevel;stroke-dasharray: 2.0, 2.0;shape-rendering:crispEdges;" transform="matrix(1,0,0,1,0,0)" clip-path="url(#_1231161790775810clip-2)"/><line x1="64" y1="256.19" x2="638" y2="256.19" style="stroke-width: 0.5;stroke: rgb(128,128,128);stroke-opacity: 0.5;stroke-linejoin: bevel;stroke-dasharray: 2.0, 2.0;shape-rendering:crispEdges;" transform="matrix(1,0,0,1,0,0)" clip-path="url(#_1231161790775810clip-2)"/><line x1="64" y1="276.13" x2="638" y2="276.13" style="stroke-width: 0.5;stroke: rgb(128,128,128);stroke-opacity: 0.5;stroke-linejoin: bevel;stroke-dasharray: 2.0, 2.0;shape-rendering:crispEdges;" transform="matrix(1,0,0,1,0,0)" clip-path="url(#_1231161790775810clip-2)"/><line x1="64" y1="296.07" x2="638" y2="296.07" style="stroke-width: 0.5;stroke: rgb(128,128,128);stroke-opacity: 0.5;stroke-linejoin: bevel;stroke-dasharray: 2.0, 2.0;shape-rendering:crispEdges;" transform="matrix(1,0,0,1,0,0)" clip-path="url(#_1231161790775810clip-2)"/><line x1="64" y1="316.01" x2="638" y2="316.01" style="stroke-width: 0.5;stroke: rgb(128,128,128);stroke-opacity: 0.5;stroke-linejoin: bevel;stroke-dasharray: 2.0, 2.0;shape-rendering:crispEdges;" transform="matrix(1,0,0,1,0,0)" clip-path="url(#_1231161790775810clip-2)"/><line x1="64" y1="335.95" x2="638" y2="335.95" style="stroke-width: 0.5;stroke: rgb(128,128,128);stroke-opacity: 0.5;stroke-linejoin: bevel;stroke-dasharray: 2.0, 2.0;shape-rendering:crispEdges;" transform="matrix(1,0,0,1,0,0)" clip-path="url(#_1231161790775810clip-2)"/><line x1="64" y1="355.89" x2="638" y2="355.89" style="stroke-width: 0.5;stroke: rgb(128,128,128);stroke-opacity: 0.5;stroke-linejoin: bevel;stroke-dasharray: 2.0, 2.0;shape-rendering:crispEdges;" transform="matrix(1,0,0,1,0,0)" clip-path="url(#_1231161790775810clip-2)"/><line x1="64" y1="375.83" x2="638" y2="375.83" style="stroke-width: 0.5;stroke: rgb(128,128,128);stroke-opacity: 0.5;stroke-linejoin: bevel;stroke-dasharray: 2.0, 2.0;shape-rendering:crispEdges;" transform="matrix(1,0,0,1,0,0)" clip-path="url(#_1231161790775810clip-2)"/><line x1="64" y1="395.77" x2="638" y2="395.77" style="stroke-width: 0.5;stroke: rgb(128,128,128);stroke-opacity: 0.5;stroke-linejoin: bevel;stroke-dasharray: 2.0, 2.0;shape-rendering:crispEdges;" transform="matrix(1,0,0,1,0,0)" clip-path="url(#_1231161790775810clip-2)"/><line x1="64" y1="415.71" x2="638" y2="415.71" style="stroke-width: 0.5;stroke: rgb(128,128,128);stroke-opacity: 0.5;stroke-linejoin: bevel;stroke-dasharray: 2.0, 2.0;shape-rendering:crispEdges;" transform="matrix(1,0,0,1,0,0)" clip-path="url(#_1231161790775810clip-2)"/><line x1="64" y1="435.65" x2="638" y2="435.65" style="stroke-width: 0.5;stroke: rgb(128,128,128);stroke-opacity: 0.5;stroke-linejoin: bevel;stroke-dasharray: 2.0, 2.0;shape-rendering:crispEdges;" transform="matrix(1,0,0,1,0,0)" clip-path="url(#_1231161790775810clip-2)"/><line x1="64" y1="455.59" x2="638" y2="455.59" style="stroke-width: 0.5;stroke: rgb(128,128,128);stroke-opacity: 0.5;stroke-linejoin: bevel;stroke-dasharray: 2.0, 2.0;shape-rendering:crispEdges;" transform="matrix(1,0,0,1,0,0)" clip-path="url(#_1231161790775810clip-2)"/><line x1="64" y1="475.53" x2="638" y2="475.53" style="stroke-width: 0.5;stroke: rgb(128,128,128);stroke-opacity: 0.5;stroke-linejoin: bevel;stroke-dasharray: 2.0, 2.0;shape-rendering:crispEdges;" transform="matrix(1,0,0,1,0,0)" clip-path="url(#_1231161790775810clip-2)"/><line x1="64" y1="495.46" x2="638" y2="495.46" style="stroke-width: 0.5;stroke: rgb(128,128,128);stroke-opacity: 0.5;stroke-linejoin: bevel;stroke-dasharray: 2.0, 2.0;shape-rendering:crispEdges;" transform="matrix(1,0,0,1,0,0)" clip-path="url(#_1231161790775810clip-2)"/><line x1="64" y1="515.4" x2="638" y2="515.4" style="stroke-width: 0.5;stroke: rgb(128,128,128);stroke-opacity: 0.5;stroke-linejoin: bevel;stroke-dasharray: 2.0, 2.0;shape-rendering:crispEdges;" transform="matrix(1,0,0,1,0,0)" clip-path="url(#_1231161790775810clip-2)"/><line x1="64" y1="535.34" x2="638" y2="535.34" style="stroke-width: 0.5;stroke: rgb(128,128,128);stroke-opacity: 0.5;stroke-linejoin: bevel;stroke-dasharray: 2.0, 2.0;shape-rendering:crispEdges;" transform="matrix(1,0,0,1,0,0)" clip-path="url(#_1231161790775810clip-2)"/><line x1="64" y1="555.28" x2="638" y2="555.28" style="stroke-width: 0.5;stroke: rgb(128,128,128);stroke-opacity: 0.5;stroke-linejoin: bevel;stroke-dasharray: 2.0, 2.0;shape-rendering:crispEdges;" transform="matrix(1,0,0,1,0,0)" clip-path="url(#_1231161790775810clip-2)"/><line x1="64" y1="575.22" x2="638" y2="575.22" style="stroke-width: 0.5;stroke: rgb(128,128,128);stroke-opacity: 0.5;stroke-linejoin: bevel;stroke-dasharray: 2.0, 2.0;shape-rendering:crispEdges;" transform="matrix(1,0,0,1,0,0)" clip-path="url(#_1231161790775810clip-2)"/><line x1="64" y1="595.16" x2="638" y2="595.16" style="stroke-width: 0.5;stroke: rgb(128,128,128);stroke-opacity: 0.5;stroke-linejoin: bevel;stroke-dasharray: 2.0, 2.0;shape-rendering:crispEdges;" transform="matrix(1,0,0,1,0,0)" clip-path="url(#_1231161790775810clip-2)"/><line x1="90.09" y1="35" x2="90.09" y2="600" style="stroke-width: 0.5;stroke: rgb(128,128,128);stroke-opacity: 0.5;stroke-linejoin: bevel;stroke-dasharray: 2.0, 2.0;shape-rendering:crispEdges;" transform="matrix(1,0,0,1,0,0)" clip-path="url(#_1231161790775810clip-2)"/><line x1="130.6" y1="35" x2="130.6" y2="600" style="stroke-width: 0.5;stroke: rgb(128,128,128);stroke-opacity: 0.5;stroke-linejoin: bevel;stroke-dasharray: 2.0, 2.0;shape-rendering:crispEdges;" transform="matrix(1,0,0,1,0,0)" clip-path="url(#_1231161790775810clip-2)"/><line x1="171.12" y1="35" x2="171.12" y2="600" style="stroke-width: 0.5;stroke: rgb(128,128,128);stroke-opacity: 0.5;stroke-linejoin: bevel;stroke-dasharray: 2.0, 2.0;shape-rendering:crispEdges;" transform="matrix(1,0,0,1,0,0)" clip-path="url(#_1231161790775810clip-2)"/><line x1="211.63" y1="35" x2="211.63" y2="600" style="stroke-width: 0.5;stroke: rgb(128,128,128);stroke-opacity: 0.5;stroke-linejoin: bevel;stroke-dasharray: 2.0, 2.0;shape-rendering:crispEdges;" transform="matrix(1,0,0,1,0,0)" clip-path="url(#_1231161790775810clip-2)"/><line x1="252.15" y1="35" x2="252.15" y2="600" style="stroke-width: 0.5;stroke: rgb(128,128,128);stroke-opacity: 0.5;stroke-linejoin: bevel;stroke-dasharray: 2.0, 2.0;shape-rendering:crispEdges;" transform="matrix(1,0,0,1,0,0)" clip-path="url(#_1231161790775810clip-2)"/><line x1="292.66" y1="35" x2="292.66" y2="600" style="stroke-width: 0.5;stroke: rgb(128,128,128);stroke-opacity: 0.5;stroke-linejoin: bevel;stroke-dasharray: 2.0, 2.0;shape-rendering:crispEdges;" transform="matrix(1,0,0,1,0,0)" clip-path="url(#_1231161790775810clip-2)"/><line x1="333.17" y1="35" x2="333.17" y2="600" style="stroke-width: 0.5;stroke: rgb(128,128,128);stroke-opacity: 0.5;stroke-linejoin: bevel;stroke-dasharray: 2.0, 2.0;shape-rendering:crispEdges;" transform="matrix(1,0,0,1,0,0)" clip-path="url(#_1231161790775810clip-2)"/><line x1="373.69" y1="35" x2="373.69" y2="600" style="stroke-width: 0.5;stroke: rgb(128,128,128);stroke-opacity: 0.5;stroke-linejoin: bevel;stroke-dasharray: 2.0, 2.0;shape-rendering:crispEdges;" transform="matrix(1,0,0,1,0,0)" clip-path="url(#_1231161790775810clip-2)"/><line x1="414.2" y1="35" x2="414.2" y2="600" style="stroke-width: 0.5;stroke: rgb(128,128,128);stroke-opacity: 0.5;stroke-linejoin: bevel;stroke-dasharray: 2.0, 2.0;shape-rendering:crispEdges;" transform="matrix(1,0,0,1,0,0)" clip-path="url(#_1231161790775810clip-2)"/><line x1="454.72" y1="35" x2="454.72" y2="600" style="stroke-width: 0.5;stroke: rgb(128,128,128);stroke-opacity: 0.5;stroke-linejoin: bevel;stroke-dasharray: 2.0, 2.0;shape-rendering:crispEdges;" transform="matrix(1,0,0,1,0,0)" clip-path="url(#_1231161790775810clip-2)"/><line x1="495.23" y1="35" x2="495.23" y2="600" style="stroke-width: 0.5;stroke: rgb(128,128,128);stroke-opacity: 0.5;stroke-linejoin: bevel;stroke-dasharray: 2.0, 2.0;shape-rendering:crispEdges;" transform="matrix(1,0,0,1,0,0)" clip-path="url(#_1231161790775810clip-2)"/><line x1="535.74" y1="35" x2="535.74" y2="600" style="stroke-width: 0.5;stroke: rgb(128,128,128);stroke-opacity: 0.5;stroke-linejoin: bevel;stroke-dasharray: 2.0, 2.0;shape-rendering:crispEdges;" transform="matrix(1,0,0,1,0,0)" clip-path="url(#_1231161790775810clip-2)"/><line x1="576.26" y1="35" x2="576.26" y2="600" style="stroke-width: 0.5;stroke: rgb(128,128,128);stroke-opacity: 0.5;stroke-linejoin: bevel;stroke-dasharray: 2.0, 2.0;shape-rendering:crispEdges;" transform="matrix(1,0,0,1,0,0)" clip-path="url(#_1231161790775810clip-2)"/><line x1="616.77" y1="35" x2="616.77" y2="600" style="stroke-width: 0.5;stroke: rgb(128,128,128);stroke-opacity: 0.5;stroke-linejoin: bevel;stroke-dasharray: 2.0, 2.0;shape-rendering:crispEdges;" transform="matrix(1,0,0,1,0,0)" clip-path="url(#_1231161790775810clip-2)"/><g style="fill: rgb(135,206,250); fill-opacity: 0.5; stroke: none" transform="matrix(1,0,0,1,0,0)" clip-path="url(#_1231161790775810clip-2)"><path d="M 90.09 247.62 L 90.09 247.62 L 611.91 282.09 L 611.91 345.53 L 90.09 372.59 L 90.09 247.62 L 90.09 247.62 Z "/></g><g style="stroke-width: 2.5;stroke: rgb(255,85,85);stroke-opacity: 0.5;stroke-linecap: round;stroke-linejoin: round;stroke-dasharray: 5.0;shape-rendering:geometricPrecision;; fill: none" transform="matrix(1,0,0,1,0,0)" clip-path="url(#_1231161790775810clip-2)"><path d="M 327.32 263.44 L 327.32 360.22"/></g><g style="stroke-width: 2.5;stroke: rgb(85,85,255);stroke-opacity: 0.5;stroke-linecap: round;stroke-linejoin: round;stroke-dasharray: 5.0;shape-rendering:geometricPrecision;; fill: none" transform="matrix(1,0,0,1,0,0)" clip-path="url(#_1231161790775810clip-2)"><path d="M 90.09 256.19 L 108.08 256.19 L 126.08 256.19 L 144.07 256.19 L 162.07 256.19 L 180.06 256.19 L 198.05 256.19 L 216.05 256.19 L 234.04 256.19 L 252.03 256.19 L 262.03 256.19 L 306.02 259.45 L 324.01 260.78 L 342 262.11 L 360 263.44 L 377.99 264.78 L 395.98 266.11 L 413.98 267.44 L 431.97 268.77 L 449.97 270.1 L 467.96 271.43 L 485.95 272.77 L 503.95 274.1 L 521.94 275.43 L 539.93 276.76 L 557.93 278.09 L 575.92 279.42 L 593.92 280.76 L 611.91 282.09 L 611.91 345.53 L 593.92 346.58 L 575.92 347.63 L 557.93 348.67 L 539.93 349.72 L 521.94 350.76 L 503.95 351.81 L 485.95 352.85 L 467.96 353.9 L 449.97 354.94 L 431.97 355.99 L 413.98 357.03 L 395.98 358.08 L 377.99 359.12 L 360 360.17 L 342 361.21 L 324.01 362.26 L 306.02 363.3 L 262.03 365.86 L 252.03 365.86 L 234.04 365.86 L 216.05 365.86 L 198.05 365.86 L 180.06 365.86 L 162.07 365.86 L 144.07 365.86 L 126.08 365.86 L 108.08 365.86 L 90.09 365.86 L 90.09 256.19"/></g><g style="stroke-width: 1.0;stroke: rgb(0,0,0);stroke-opacity: 0.5;stroke-linecap: round;stroke-linejoin: round;shape-rendering:geometricPrecision;; fill: none" transform="matrix(1,0,0,1,0,0)" clip-path="url(#_1231161790775810clip-2)"><path d="M 90.09 247.62 L 611.91 282.09 L 611.91 345.53 L 90.09 372.59 L 90.09 247.62"/></g><rect x="64" y="35" width="574" height="565" style="stroke-width: 0.5;stroke: rgb(0,0,0);stroke-opacity: 1.0;stroke-linecap: round;stroke-linejoin: round;shape-rendering:crispEdges;; fill: none" transform="matrix(1,0,0,1,0,0)" clip-path="url(#_1231161790775810clip-0)"/></svg>
