<?xml version="1.0" encoding="UTF-8"?><svg id="svg" class="svg" width="700" height="600" xmlns="http://www.w3.org/2000/svg">
    <g id="page" width="700" height="600">
        <g id="graph" transform="translate(60,40)">
            <rect width="620" height="510" fill="blue" opacity="0.05"/>
            <rect width="620" height="510" fill="none" opacity="1.0" style="stroke: darkblue; stroke-width: 2px;"/>
            <g id="xAxis" class="axis" transform="translate(0,510)">
                <g class="tick" transform="translate(37.04492223730719,0)" style="opacity: 1;">
                    <line y2="-510" x2="0" style="fill: none; stroke: rgb(128, 128, 128); stroke-width: 0.8px; stroke-dasharray: 15px, 2px; font-style: normal; font-variant-caps: normal; font-weight: normal; font-size: 10px; line-height: normal; font-family: sans-serif; shape-rendering: geometricprecision;"/>
                    <text dy=".71em" y="12" x="0" style="text-anchor: middle;">-15</text>
                </g>
                <g class="tick" transform="translate(128.0299481582048,0)" style="opacity: 1;">
                    <line y2="-510" x2="0" style="fill: none; stroke: rgb(128, 128, 128); stroke-width: 0.8px; stroke-dasharray: 15px, 2px; font-style: normal; font-variant-caps: normal; font-weight: normal; font-size: 10px; line-height: normal; font-family: sans-serif; shape-rendering: geometricprecision;"/>
                    <text dy=".71em" y="12" x="0" style="text-anchor: middle;">-10</text>
                </g>
                <g class="tick" transform="translate(219.0149740791024,0)" style="opacity: 1;">
                    <line y2="-510" x2="0" style="fill: none; stroke: rgb(128, 128, 128); stroke-width: 0.8px; stroke-dasharray: 15px, 2px; font-style: normal; font-variant-caps: normal; font-weight: normal; font-size: 10px; line-height: normal; font-family: sans-serif; shape-rendering: geometricprecision;"/>
                    <text dy=".71em" y="12" x="0" style="text-anchor: middle;">-5</text>
                </g>
                <g class="tick" transform="translate(310,0)" style="opacity: 1;">
                    <line y2="-510" x2="0" style="fill: none; stroke: rgb(128, 128, 128); stroke-width: 0.8px; stroke-dasharray: 15px, 2px; font-style: normal; font-variant-caps: normal; font-weight: normal; font-size: 10px; line-height: normal; font-family: sans-serif; shape-rendering: geometricprecision;"/>
                    <text dy=".71em" y="12" x="0" style="text-anchor: middle;">0</text>
                </g>
                <g class="tick" transform="translate(400.9850259208976,0)" style="opacity: 1;">
                    <line y2="-510" x2="0" style="fill: none; stroke: rgb(128, 128, 128); stroke-width: 0.8px; stroke-dasharray: 15px, 2px; font-style: normal; font-variant-caps: normal; font-weight: normal; font-size: 10px; line-height: normal; font-family: sans-serif; shape-rendering: geometricprecision;"/>
                    <text dy=".71em" y="12" x="0" style="text-anchor: middle;">5</text>
                </g>
                <g class="tick" transform="translate(491.9700518417952,0)" style="opacity: 1;">
                    <line y2="-510" x2="0" style="fill: none; stroke: rgb(128, 128, 128); stroke-width: 0.8px; stroke-dasharray: 15px, 2px; font-style: normal; font-variant-caps: normal; font-weight: normal; font-size: 10px; line-height: normal; font-family: sans-serif; shape-rendering: geometricprecision;"/>
                    <text dy=".71em" y="12" x="0" style="text-anchor: middle;">10</text>
                </g>
                <g class="tick" transform="translate(582.9550777626928,0)" style="opacity: 1;">
                    <line y2="-510" x2="0" style="fill: none; stroke: rgb(128, 128, 128); stroke-width: 0.8px; stroke-dasharray: 15px, 2px; font-style: normal; font-variant-caps: normal; font-weight: normal; font-size: 10px; line-height: normal; font-family: sans-serif; shape-rendering: geometricprecision;"/>
                    <text dy=".71em" y="12" x="0" style="text-anchor: middle;">15</text>
                </g>
                <path class="domain" d="M0,-510V0H620V-510" style="fill: none; stroke: rgb(128, 128, 128); stroke-width: 0.8px; stroke-dasharray: 15px, 2px; font-style: normal; font-variant-caps: normal; font-weight: normal; font-size: 10px; line-height: normal; font-family: sans-serif; shape-rendering: geometricprecision;"/>
            </g>
            <g id="yAxis" class="axis">
                <g class="tick" transform="translate(0,479.52756396608606)" style="opacity: 1;">
                    <line x2="620" y2="0" style="fill: none; stroke: rgb(128, 128, 128); stroke-dasharray: 15px, 2px; stroke-width: 0.8px; shape-rendering: geometricprecision;"/>
                    <text dy=".32em" x="-8" y="0" style="text-anchor: end;">-15</text>
                </g>
                <g class="tick" transform="translate(0,404.6850426440573)" style="opacity: 1;">
                    <line x2="620" y2="0" style="fill: none; stroke: rgb(128, 128, 128); stroke-dasharray: 15px, 2px; stroke-width: 0.8px; shape-rendering: geometricprecision;"/>
                    <text dy=".32em" x="-8" y="0" style="text-anchor: end;">-10</text>
                </g>
                <g class="tick" transform="translate(0,329.84252132202863)" style="opacity: 1;">
                    <line x2="620" y2="0" style="fill: none; stroke: rgb(128, 128, 128); stroke-dasharray: 15px, 2px; stroke-width: 0.8px; shape-rendering: geometricprecision;"/>
                    <text dy=".32em" x="-8" y="0" style="text-anchor: end;">-5</text>
                </g>
                <g class="tick" transform="translate(0,255)" style="opacity: 1;">
                    <line x2="620" y2="0" style="fill: none; stroke: rgb(128, 128, 128); stroke-dasharray: 15px, 2px; stroke-width: 0.8px; shape-rendering: geometricprecision;"/>
                    <text dy=".32em" x="-8" y="0" style="text-anchor: end;">0</text>
                </g>
                <g class="tick" transform="translate(0,180.1574786779713)" style="opacity: 1;">
                    <line x2="620" y2="0" style="fill: none; stroke: rgb(128, 128, 128); stroke-dasharray: 15px, 2px; stroke-width: 0.8px; shape-rendering: geometricprecision;"/>
                    <text dy=".32em" x="-8" y="0" style="text-anchor: end;">5</text>
                </g>
                <g class="tick" transform="translate(0,105.31495735594265)" style="opacity: 1;">
                    <line x2="620" y2="0" style="fill: none; stroke: rgb(128, 128, 128); stroke-dasharray: 15px, 2px; stroke-width: 0.8px; shape-rendering: geometricprecision;"/>
                    <text dy=".32em" x="-8" y="0" style="text-anchor: end;">10</text>
                </g>
                <g class="tick" transform="translate(0,30.472436033914015)" style="opacity: 1;">
                    <line x2="620" y2="0" style="fill: none; stroke: rgb(128, 128, 128); stroke-dasharray: 15px, 2px; stroke-width: 0.8px; shape-rendering: geometricprecision;"/>
                    <text dy=".32em" x="-8" y="0" style="text-anchor: end;">15</text>
                </g>
                <path class="domain" d="M620,0H0V510H620" style="fill: none; stroke: rgb(128, 128, 128); stroke-dasharray: 15px, 2px; stroke-width: 0.8px; shape-rendering: geometricprecision;"/>
            </g>
            <g id="xy" class="xy">
                <path id="line" d="M285.52502750665803,255L285.53738356639155,254.3480056603427L285.6199843463307,253.28728985038157L285.8323172457155,251.92001740796888L286.22216437967086,250.339000987387L286.82557871743313,248.62769882886747L287.6669079441234,246.86021843888415L288.7587727682265,245.10131201766785L290.1020690908431,243.40637846663878L291.6859810212022,241.8214647266952L293.4879721996531,240.3832639938288L295.4737868822908,239.11911661131688L297.5974510255827,238.0470100697226L299.8012701171161,237.17557722251L302.0158302602243,236.50409539385154L304.160003054804,236.02249708493716L306.14093556452434,235.7113539145107L307.8540577736306,235.5418873251792L309.18308136674045,235.47596501464278L309.99999824941,235.4661027200798L310,235.4661027200798L310.8169154471706,235.47596323025806L312.14593815902174,235.54188910956393L313.8590600969716,235.7113556988955L315.83999260669185,236.0225006537067L317.9841664858976,236.50409539385154L320.198729882884,237.17557365374049L322.40254897441724,238.0470100697226L324.5262131177092,239.1191201800864L326.5120288849729,240.3832657782135L328.31402114804985,241.82146651107996L329.89793307840904,243.40637846663878L331.2412272317735,245.1013111254755L332.3330898866245,246.86021754669176L333.1744191133148,248.62769659838648L333.7778399588333,250.3389978647137L334.16768492353657,251.92001406224742L334.38001999217346,253.2872865046601L334.46261643360845,254.34800309528964L334.47497249334197,254.99999860282375" class="line" style="fill:none; stroke:black; stroke-width:2"/>
                <path id="area" d="M285.52502750665803,255L285.53738356639155,254.3480056603427L285.6199843463307,253.28728985038157L285.8323172457155,251.92001740796888L286.22216437967086,250.339000987387L286.82557871743313,248.62769882886747L287.6669079441234,246.86021843888415L288.7587727682265,245.10131201766785L290.1020690908431,243.40637846663878L291.6859810212022,241.8214647266952L293.4879721996531,240.3832639938288L295.4737868822908,239.11911661131688L297.5974510255827,238.0470100697226L299.8012701171161,237.17557722251L302.0158302602243,236.50409539385154L304.160003054804,236.02249708493716L306.14093556452434,235.7113539145107L307.8540577736306,235.5418873251792L309.18308136674045,235.47596501464278L309.99999824941,235.4661027200798L310,235.4661027200798L310.8169154471706,235.47596323025806L312.14593815902174,235.54188910956393L313.8590600969716,235.7113556988955L315.83999260669185,236.0225006537067L317.9841664858976,236.50409539385154L320.198729882884,237.17557365374049L322.40254897441724,238.0470100697226L324.5262131177092,239.1191201800864L326.5120288849729,240.3832657782135L328.31402114804985,241.82146651107996L329.89793307840904,243.40637846663878L331.2412272317735,245.1013111254755L332.3330898866245,246.86021754669176L333.1744191133148,248.62769659838648L333.7778399588333,250.3389978647137L334.16768492353657,251.92001406224742L334.38001999217346,253.2872865046601L334.46261643360845,254.34800309528964L334.47497249334197,254.99999860282375L334.47497249334197,255L334.46261643360845,255L334.38001999217346,255L334.16768492353657,255L333.7778399588333,255L333.1744191133148,255L332.3330898866245,255L331.2412272317735,255L329.89793307840904,255L328.31402114804985,255L326.5120288849729,255L324.5262131177092,255L322.40254897441724,255L320.198729882884,255L317.9841664858976,255L315.83999260669185,255L313.8590600969716,255L312.14593815902174,255L310.8169154471706,255L310,255L309.99999824941,255L309.18308136674045,255L307.8540577736306,255L306.14093556452434,255L304.160003054804,255L302.0158302602243,255L299.8012701171161,255L297.5974510255827,255L295.4737868822908,255L293.4879721996531,255L291.6859810212022,255L290.1020690908431,255L288.7587727682265,255L287.6669079441234,255L286.82557871743313,255L286.22216437967086,255L285.8323172457155,255L285.6199843463307,255L285.53738356639155,255L285.52502750665803,255Z" class="area" style="fill:white;" opacity="1"/>
            </g>
            <g id="xy" class="xy">
                <path id="line" d="M334.47497249334197,255L334.46261643360845,255.6519943396573L334.3800156536693,256.7127101496185L334.1676827542845,258.0799825920312L333.7778356203292,259.660999012613L333.1744212825668,261.37230117113256L332.33309205587653,263.13978156111585L331.2412272317735,264.89868798233215L329.8979309091569,266.5936215333612L328.3140189787978,268.1785352733048L326.5120278003469,269.6167360061712L324.5262131177092,270.8808833886831L322.40254897441724,271.95298993027734L320.198729882884,272.82442277749L317.9841697397757,273.4959046061484L315.839996945196,273.97750291506287L313.8590644354757,274.2886460854893L312.1459422263694,274.45811267482077L310.81691863325955,274.5240349853572L310.00000175059,274.5338972799202L310,274.5338972799202L309.18308455282937,274.52403676974194L307.8540618409782,274.458110890436L306.1409399030284,274.2886443011045L304.16000739330815,273.9774993462933L302.0158335141024,273.4959046061484L299.8012701171161,272.8244263462596L297.5974510255827,271.95298993027734L295.4737868822908,270.88087981991356L293.48797111502705,269.6167342217865L291.68597885195015,268.17853348892004L290.102066921591,266.5936215333612L288.7587727682265,264.89868887452457L287.6669101133755,263.1397824533082L286.8255808866852,261.37230340161346L286.2221600411667,259.6610021352863L285.83231507646343,258.07998593775255L285.61998000782654,256.71271349533987L285.53738356639155,255.65199690471042L285.52502750665803,255.00000139717625" class="line" style="fill:none; stroke:black; stroke-width:2"/>
                <path id="area" d="M334.47497249334197,255L334.46261643360845,255.6519943396573L334.3800156536693,256.7127101496185L334.1676827542845,258.0799825920312L333.7778356203292,259.660999012613L333.1744212825668,261.37230117113256L332.33309205587653,263.13978156111585L331.2412272317735,264.89868798233215L329.8979309091569,266.5936215333612L328.3140189787978,268.1785352733048L326.5120278003469,269.6167360061712L324.5262131177092,270.8808833886831L322.40254897441724,271.95298993027734L320.198729882884,272.82442277749L317.9841697397757,273.4959046061484L315.839996945196,273.97750291506287L313.8590644354757,274.2886460854893L312.1459422263694,274.45811267482077L310.81691863325955,274.5240349853572L310.00000175059,274.5338972799202L310,274.5338972799202L309.18308455282937,274.52403676974194L307.8540618409782,274.458110890436L306.1409399030284,274.2886443011045L304.16000739330815,273.9774993462933L302.0158335141024,273.4959046061484L299.8012701171161,272.8244263462596L297.5974510255827,271.95298993027734L295.4737868822908,270.88087981991356L293.48797111502705,269.6167342217865L291.68597885195015,268.17853348892004L290.102066921591,266.5936215333612L288.7587727682265,264.89868887452457L287.6669101133755,263.1397824533082L286.8255808866852,261.37230340161346L286.2221600411667,259.6610021352863L285.83231507646343,258.07998593775255L285.61998000782654,256.71271349533987L285.53738356639155,255.65199690471042L285.52502750665803,255.00000139717625L285.52502750665803,255L285.53738356639155,255L285.61998000782654,255L285.83231507646343,255L286.2221600411667,255L286.8255808866852,255L287.6669101133755,255L288.7587727682265,255L290.102066921591,255L291.68597885195015,255L293.48797111502705,255L295.4737868822908,255L297.5974510255827,255L299.8012701171161,255L302.0158335141024,255L304.16000739330815,255L306.1409399030284,255L307.8540618409782,255L309.18308455282937,255L310,255L310.00000175059,255L310.81691863325955,255L312.1459422263694,255L313.8590644354757,255L315.839996945196,255L317.9841697397757,255L320.198729882884,255L322.40254897441724,255L324.5262131177092,255L326.5120278003469,255L328.3140189787978,255L329.8979309091569,255L331.2412272317735,255L332.33309205587653,255L333.1744212825668,255L333.7778356203292,255L334.1676827542845,255L334.3800156536693,255L334.46261643360845,255L334.47497249334197,255Z" class="area" style="fill:white;" opacity="1"/>
            </g>
        </g>
    </g>
    <text class="x label" text-anchor="middle" x="370" y="595">y (m)</text>
    <text class="y label" text-anchor="middle" x="-295" y="5" dy=".75em" transform="rotate(-90)">z (m)</text>
    <text class="title" text-anchor="middle" x="370" y="20">Fuselage data representation - Front View</text>
</svg>
