<!DOCTYPE svg PUBLIC "-//W3C//DTD SVG 1.1//EN" "http://www.w3.org/Graphics/SVG/1.1/DTD/svg11.dtd">
<svg xmlns="http://www.w3.org/2000/svg" xmlns:xlink="http://www.w3.org/1999/xlink" xmlns:jfreesvg="http://www.jfree.org/jfreesvg/svg" width="700" height="600" text-rendering="auto" shape-rendering="auto">
<defs><clipPath id="_798078564787892clip-0"><path d="M 0 0 L 700 0 L 700 600 L 0 600 L 0 0 Z "/></clipPath>
<clipPath id="_798078564787892clip-1"><path d="M 312 273 L 312 973 L -288 973 L -288 273 L 312 273 Z "/></clipPath>
<clipPath id="_798078564787892clip-2"><path d="M 56 35 L 56 550 L 688 550 L 688 35 Z "/></clipPath>
</defs>
<rect x="0" y="0" width="700" height="600" style="fill: rgb(245,245,245); fill-opacity: 1.0" transform="matrix(1,0,0,1,0,0)" clip-path="url(#_798078564787892clip-0)"/><g transform="matrix(1,0,0,1,0,0)"><text x="146.5" y="21.01" style="fill: rgb(0,0,0); fill-opacity: 1.0; font-family: Tahoma; font-size: 20px; font-weight: bold;" clip-path="url(#_798078564787892clip-0)">Fuselage data representation - Top View</text></g><rect x="56" y="35" width="632" height="515" style="fill: rgb(240,248,255); fill-opacity: 0.0" transform="matrix(1,0,0,1,0,0)" clip-path="url(#_798078564787892clip-0)"/><line x1="56" y1="554" x2="688" y2="554" style="stroke-width: 0.5;stroke: rgb(128,128,128);stroke-opacity: 1.0;stroke-linecap: square;shape-rendering:crispEdges;" transform="matrix(1,0,0,1,0,0)" clip-path="url(#_798078564787892clip-0)"/><g transform="matrix(1,0,0,1,0,0)"><text x="63.11" y="570.52" style="fill: rgb(64,64,64); fill-opacity: 1.0; font-family: Tahoma; font-size: 12px;" clip-path="url(#_798078564787892clip-0)">-25</text></g><line x1="71.61" y1="556" x2="71.61" y2="554" style="stroke-width: 0.5;stroke: rgb(128,128,128);stroke-opacity: 1.0;stroke-linecap: square;shape-rendering:crispEdges;" transform="matrix(1,0,0,1,0,0)" clip-path="url(#_798078564787892clip-0)"/><g transform="matrix(1,0,0,1,0,0)"><text x="123.19" y="570.52" style="fill: rgb(64,64,64); fill-opacity: 1.0; font-family: Tahoma; font-size: 12px;" clip-path="url(#_798078564787892clip-0)">-20</text></g><line x1="131.69" y1="556" x2="131.69" y2="554" style="stroke-width: 0.5;stroke: rgb(128,128,128);stroke-opacity: 1.0;stroke-linecap: square;shape-rendering:crispEdges;" transform="matrix(1,0,0,1,0,0)" clip-path="url(#_798078564787892clip-0)"/><g transform="matrix(1,0,0,1,0,0)"><text x="183.27" y="570.52" style="fill: rgb(64,64,64); fill-opacity: 1.0; font-family: Tahoma; font-size: 12px;" clip-path="url(#_798078564787892clip-0)">-15</text></g><line x1="191.77" y1="556" x2="191.77" y2="554" style="stroke-width: 0.5;stroke: rgb(128,128,128);stroke-opacity: 1.0;stroke-linecap: square;shape-rendering:crispEdges;" transform="matrix(1,0,0,1,0,0)" clip-path="url(#_798078564787892clip-0)"/><g transform="matrix(1,0,0,1,0,0)"><text x="243.34" y="570.52" style="fill: rgb(64,64,64); fill-opacity: 1.0; font-family: Tahoma; font-size: 12px;" clip-path="url(#_798078564787892clip-0)">-10</text></g><line x1="251.84" y1="556" x2="251.84" y2="554" style="stroke-width: 0.5;stroke: rgb(128,128,128);stroke-opacity: 1.0;stroke-linecap: square;shape-rendering:crispEdges;" transform="matrix(1,0,0,1,0,0)" clip-path="url(#_798078564787892clip-0)"/><g transform="matrix(1,0,0,1,0,0)"><text x="306.42" y="570.52" style="fill: rgb(64,64,64); fill-opacity: 1.0; font-family: Tahoma; font-size: 12px;" clip-path="url(#_798078564787892clip-0)">-5</text></g><line x1="311.92" y1="556" x2="311.92" y2="554" style="stroke-width: 0.5;stroke: rgb(128,128,128);stroke-opacity: 1.0;stroke-linecap: square;shape-rendering:crispEdges;" transform="matrix(1,0,0,1,0,0)" clip-path="url(#_798078564787892clip-0)"/><g transform="matrix(1,0,0,1,0,0)"><text x="368.5" y="570.52" style="fill: rgb(64,64,64); fill-opacity: 1.0; font-family: Tahoma; font-size: 12px;" clip-path="url(#_798078564787892clip-0)">0</text></g><line x1="372" y1="556" x2="372" y2="554" style="stroke-width: 0.5;stroke: rgb(128,128,128);stroke-opacity: 1.0;stroke-linecap: square;shape-rendering:crispEdges;" transform="matrix(1,0,0,1,0,0)" clip-path="url(#_798078564787892clip-0)"/><g transform="matrix(1,0,0,1,0,0)"><text x="428.58" y="570.52" style="fill: rgb(64,64,64); fill-opacity: 1.0; font-family: Tahoma; font-size: 12px;" clip-path="url(#_798078564787892clip-0)">5</text></g><line x1="432.08" y1="556" x2="432.08" y2="554" style="stroke-width: 0.5;stroke: rgb(128,128,128);stroke-opacity: 1.0;stroke-linecap: square;shape-rendering:crispEdges;" transform="matrix(1,0,0,1,0,0)" clip-path="url(#_798078564787892clip-0)"/><g transform="matrix(1,0,0,1,0,0)"><text x="485.66" y="570.52" style="fill: rgb(64,64,64); fill-opacity: 1.0; font-family: Tahoma; font-size: 12px;" clip-path="url(#_798078564787892clip-0)">10</text></g><line x1="492.16" y1="556" x2="492.16" y2="554" style="stroke-width: 0.5;stroke: rgb(128,128,128);stroke-opacity: 1.0;stroke-linecap: square;shape-rendering:crispEdges;" transform="matrix(1,0,0,1,0,0)" clip-path="url(#_798078564787892clip-0)"/><g transform="matrix(1,0,0,1,0,0)"><text x="545.73" y="570.52" style="fill: rgb(64,64,64); fill-opacity: 1.0; font-family: Tahoma; font-size: 12px;" clip-path="url(#_798078564787892clip-0)">15</text></g><line x1="552.23" y1="556" x2="552.23" y2="554" style="stroke-width: 0.5;stroke: rgb(128,128,128);stroke-opacity: 1.0;stroke-linecap: square;shape-rendering:crispEdges;" transform="matrix(1,0,0,1,0,0)" clip-path="url(#_798078564787892clip-0)"/><g transform="matrix(1,0,0,1,0,0)"><text x="605.81" y="570.52" style="fill: rgb(64,64,64); fill-opacity: 1.0; font-family: Tahoma; font-size: 12px;" clip-path="url(#_798078564787892clip-0)">20</text></g><line x1="612.31" y1="556" x2="612.31" y2="554" style="stroke-width: 0.5;stroke: rgb(128,128,128);stroke-opacity: 1.0;stroke-linecap: square;shape-rendering:crispEdges;" transform="matrix(1,0,0,1,0,0)" clip-path="url(#_798078564787892clip-0)"/><g transform="matrix(1,0,0,1,0,0)"><text x="665.89" y="570.52" style="fill: rgb(64,64,64); fill-opacity: 1.0; font-family: Tahoma; font-size: 12px;" clip-path="url(#_798078564787892clip-0)">25</text></g><line x1="672.39" y1="556" x2="672.39" y2="554" style="stroke-width: 0.5;stroke: rgb(128,128,128);stroke-opacity: 1.0;stroke-linecap: square;shape-rendering:crispEdges;" transform="matrix(1,0,0,1,0,0)" clip-path="url(#_798078564787892clip-0)"/><g transform="matrix(1,0,0,1,0,0)"><text x="352.5" y="589.59" style="fill: rgb(64,64,64); fill-opacity: 1.0; font-family: Tahoma; font-size: 14px; font-weight: bold;" clip-path="url(#_798078564787892clip-0)">x (m)</text></g><line x1="52" y1="35" x2="52" y2="550" style="stroke-width: 0.5;stroke: rgb(128,128,128);stroke-opacity: 1.0;stroke-linecap: square;shape-rendering:crispEdges;" transform="matrix(1,0,0,1,0,0)" clip-path="url(#_798078564787892clip-0)"/><g transform="matrix(1,0,0,1,0,0)"><text x="35" y="54.85" style="fill: rgb(64,64,64); fill-opacity: 1.0; font-family: Tahoma; font-size: 12px;" clip-path="url(#_798078564787892clip-0)">-6</text></g><line x1="50" y1="49.82" x2="52" y2="49.82" style="stroke-width: 0.5;stroke: rgb(128,128,128);stroke-opacity: 1.0;stroke-linecap: square;shape-rendering:crispEdges;" transform="matrix(1,0,0,1,0,0)" clip-path="url(#_798078564787892clip-0)"/><g transform="matrix(1,0,0,1,0,0)"><text x="35" y="74.43" style="fill: rgb(64,64,64); fill-opacity: 1.0; font-family: Tahoma; font-size: 12px;" clip-path="url(#_798078564787892clip-0)">-4</text></g><line x1="50" y1="69.41" x2="52" y2="69.41" style="stroke-width: 0.5;stroke: rgb(128,128,128);stroke-opacity: 1.0;stroke-linecap: square;shape-rendering:crispEdges;" transform="matrix(1,0,0,1,0,0)" clip-path="url(#_798078564787892clip-0)"/><g transform="matrix(1,0,0,1,0,0)"><text x="35" y="94.01" style="fill: rgb(64,64,64); fill-opacity: 1.0; font-family: Tahoma; font-size: 12px;" clip-path="url(#_798078564787892clip-0)">-2</text></g><line x1="50" y1="88.99" x2="52" y2="88.99" style="stroke-width: 0.5;stroke: rgb(128,128,128);stroke-opacity: 1.0;stroke-linecap: square;shape-rendering:crispEdges;" transform="matrix(1,0,0,1,0,0)" clip-path="url(#_798078564787892clip-0)"/><g transform="matrix(1,0,0,1,0,0)"><text x="39" y="113.59" style="fill: rgb(64,64,64); fill-opacity: 1.0; font-family: Tahoma; font-size: 12px;" clip-path="url(#_798078564787892clip-0)">0</text></g><line x1="50" y1="108.57" x2="52" y2="108.57" style="stroke-width: 0.5;stroke: rgb(128,128,128);stroke-opacity: 1.0;stroke-linecap: square;shape-rendering:crispEdges;" transform="matrix(1,0,0,1,0,0)" clip-path="url(#_798078564787892clip-0)"/><g transform="matrix(1,0,0,1,0,0)"><text x="39" y="133.18" style="fill: rgb(64,64,64); fill-opacity: 1.0; font-family: Tahoma; font-size: 12px;" clip-path="url(#_798078564787892clip-0)">2</text></g><line x1="50" y1="128.15" x2="52" y2="128.15" style="stroke-width: 0.5;stroke: rgb(128,128,128);stroke-opacity: 1.0;stroke-linecap: square;shape-rendering:crispEdges;" transform="matrix(1,0,0,1,0,0)" clip-path="url(#_798078564787892clip-0)"/><g transform="matrix(1,0,0,1,0,0)"><text x="39" y="152.76" style="fill: rgb(64,64,64); fill-opacity: 1.0; font-family: Tahoma; font-size: 12px;" clip-path="url(#_798078564787892clip-0)">4</text></g><line x1="50" y1="147.74" x2="52" y2="147.74" style="stroke-width: 0.5;stroke: rgb(128,128,128);stroke-opacity: 1.0;stroke-linecap: square;shape-rendering:crispEdges;" transform="matrix(1,0,0,1,0,0)" clip-path="url(#_798078564787892clip-0)"/><g transform="matrix(1,0,0,1,0,0)"><text x="39" y="172.34" style="fill: rgb(64,64,64); fill-opacity: 1.0; font-family: Tahoma; font-size: 12px;" clip-path="url(#_798078564787892clip-0)">6</text></g><line x1="50" y1="167.32" x2="52" y2="167.32" style="stroke-width: 0.5;stroke: rgb(128,128,128);stroke-opacity: 1.0;stroke-linecap: square;shape-rendering:crispEdges;" transform="matrix(1,0,0,1,0,0)" clip-path="url(#_798078564787892clip-0)"/><g transform="matrix(1,0,0,1,0,0)"><text x="39" y="191.92" style="fill: rgb(64,64,64); fill-opacity: 1.0; font-family: Tahoma; font-size: 12px;" clip-path="url(#_798078564787892clip-0)">8</text></g><line x1="50" y1="186.9" x2="52" y2="186.9" style="stroke-width: 0.5;stroke: rgb(128,128,128);stroke-opacity: 1.0;stroke-linecap: square;shape-rendering:crispEdges;" transform="matrix(1,0,0,1,0,0)" clip-path="url(#_798078564787892clip-0)"/><g transform="matrix(1,0,0,1,0,0)"><text x="33" y="211.51" style="fill: rgb(64,64,64); fill-opacity: 1.0; font-family: Tahoma; font-size: 12px;" clip-path="url(#_798078564787892clip-0)">10</text></g><line x1="50" y1="206.48" x2="52" y2="206.48" style="stroke-width: 0.5;stroke: rgb(128,128,128);stroke-opacity: 1.0;stroke-linecap: square;shape-rendering:crispEdges;" transform="matrix(1,0,0,1,0,0)" clip-path="url(#_798078564787892clip-0)"/><g transform="matrix(1,0,0,1,0,0)"><text x="33" y="231.09" style="fill: rgb(64,64,64); fill-opacity: 1.0; font-family: Tahoma; font-size: 12px;" clip-path="url(#_798078564787892clip-0)">12</text></g><line x1="50" y1="226.07" x2="52" y2="226.07" style="stroke-width: 0.5;stroke: rgb(128,128,128);stroke-opacity: 1.0;stroke-linecap: square;shape-rendering:crispEdges;" transform="matrix(1,0,0,1,0,0)" clip-path="url(#_798078564787892clip-0)"/><g transform="matrix(1,0,0,1,0,0)"><text x="33" y="250.67" style="fill: rgb(64,64,64); fill-opacity: 1.0; font-family: Tahoma; font-size: 12px;" clip-path="url(#_798078564787892clip-0)">14</text></g><line x1="50" y1="245.65" x2="52" y2="245.65" style="stroke-width: 0.5;stroke: rgb(128,128,128);stroke-opacity: 1.0;stroke-linecap: square;shape-rendering:crispEdges;" transform="matrix(1,0,0,1,0,0)" clip-path="url(#_798078564787892clip-0)"/><g transform="matrix(1,0,0,1,0,0)"><text x="33" y="270.25" style="fill: rgb(64,64,64); fill-opacity: 1.0; font-family: Tahoma; font-size: 12px;" clip-path="url(#_798078564787892clip-0)">16</text></g><line x1="50" y1="265.23" x2="52" y2="265.23" style="stroke-width: 0.5;stroke: rgb(128,128,128);stroke-opacity: 1.0;stroke-linecap: square;shape-rendering:crispEdges;" transform="matrix(1,0,0,1,0,0)" clip-path="url(#_798078564787892clip-0)"/><g transform="matrix(1,0,0,1,0,0)"><text x="33" y="289.84" style="fill: rgb(64,64,64); fill-opacity: 1.0; font-family: Tahoma; font-size: 12px;" clip-path="url(#_798078564787892clip-0)">18</text></g><line x1="50" y1="284.81" x2="52" y2="284.81" style="stroke-width: 0.5;stroke: rgb(128,128,128);stroke-opacity: 1.0;stroke-linecap: square;shape-rendering:crispEdges;" transform="matrix(1,0,0,1,0,0)" clip-path="url(#_798078564787892clip-0)"/><g transform="matrix(1,0,0,1,0,0)"><text x="33" y="309.42" style="fill: rgb(64,64,64); fill-opacity: 1.0; font-family: Tahoma; font-size: 12px;" clip-path="url(#_798078564787892clip-0)">20</text></g><line x1="50" y1="304.4" x2="52" y2="304.4" style="stroke-width: 0.5;stroke: rgb(128,128,128);stroke-opacity: 1.0;stroke-linecap: square;shape-rendering:crispEdges;" transform="matrix(1,0,0,1,0,0)" clip-path="url(#_798078564787892clip-0)"/><g transform="matrix(1,0,0,1,0,0)"><text x="33" y="329" style="fill: rgb(64,64,64); fill-opacity: 1.0; font-family: Tahoma; font-size: 12px;" clip-path="url(#_798078564787892clip-0)">22</text></g><line x1="50" y1="323.98" x2="52" y2="323.98" style="stroke-width: 0.5;stroke: rgb(128,128,128);stroke-opacity: 1.0;stroke-linecap: square;shape-rendering:crispEdges;" transform="matrix(1,0,0,1,0,0)" clip-path="url(#_798078564787892clip-0)"/><g transform="matrix(1,0,0,1,0,0)"><text x="33" y="348.58" style="fill: rgb(64,64,64); fill-opacity: 1.0; font-family: Tahoma; font-size: 12px;" clip-path="url(#_798078564787892clip-0)">24</text></g><line x1="50" y1="343.56" x2="52" y2="343.56" style="stroke-width: 0.5;stroke: rgb(128,128,128);stroke-opacity: 1.0;stroke-linecap: square;shape-rendering:crispEdges;" transform="matrix(1,0,0,1,0,0)" clip-path="url(#_798078564787892clip-0)"/><g transform="matrix(1,0,0,1,0,0)"><text x="33" y="368.17" style="fill: rgb(64,64,64); fill-opacity: 1.0; font-family: Tahoma; font-size: 12px;" clip-path="url(#_798078564787892clip-0)">26</text></g><line x1="50" y1="363.14" x2="52" y2="363.14" style="stroke-width: 0.5;stroke: rgb(128,128,128);stroke-opacity: 1.0;stroke-linecap: square;shape-rendering:crispEdges;" transform="matrix(1,0,0,1,0,0)" clip-path="url(#_798078564787892clip-0)"/><g transform="matrix(1,0,0,1,0,0)"><text x="33" y="387.75" style="fill: rgb(64,64,64); fill-opacity: 1.0; font-family: Tahoma; font-size: 12px;" clip-path="url(#_798078564787892clip-0)">28</text></g><line x1="50" y1="382.73" x2="52" y2="382.73" style="stroke-width: 0.5;stroke: rgb(128,128,128);stroke-opacity: 1.0;stroke-linecap: square;shape-rendering:crispEdges;" transform="matrix(1,0,0,1,0,0)" clip-path="url(#_798078564787892clip-0)"/><g transform="matrix(1,0,0,1,0,0)"><text x="33" y="407.33" style="fill: rgb(64,64,64); fill-opacity: 1.0; font-family: Tahoma; font-size: 12px;" clip-path="url(#_798078564787892clip-0)">30</text></g><line x1="50" y1="402.31" x2="52" y2="402.31" style="stroke-width: 0.5;stroke: rgb(128,128,128);stroke-opacity: 1.0;stroke-linecap: square;shape-rendering:crispEdges;" transform="matrix(1,0,0,1,0,0)" clip-path="url(#_798078564787892clip-0)"/><g transform="matrix(1,0,0,1,0,0)"><text x="33" y="426.91" style="fill: rgb(64,64,64); fill-opacity: 1.0; font-family: Tahoma; font-size: 12px;" clip-path="url(#_798078564787892clip-0)">32</text></g><line x1="50" y1="421.89" x2="52" y2="421.89" style="stroke-width: 0.5;stroke: rgb(128,128,128);stroke-opacity: 1.0;stroke-linecap: square;shape-rendering:crispEdges;" transform="matrix(1,0,0,1,0,0)" clip-path="url(#_798078564787892clip-0)"/><g transform="matrix(1,0,0,1,0,0)"><text x="33" y="446.5" style="fill: rgb(64,64,64); fill-opacity: 1.0; font-family: Tahoma; font-size: 12px;" clip-path="url(#_798078564787892clip-0)">34</text></g><line x1="50" y1="441.47" x2="52" y2="441.47" style="stroke-width: 0.5;stroke: rgb(128,128,128);stroke-opacity: 1.0;stroke-linecap: square;shape-rendering:crispEdges;" transform="matrix(1,0,0,1,0,0)" clip-path="url(#_798078564787892clip-0)"/><g transform="matrix(1,0,0,1,0,0)"><text x="33" y="466.08" style="fill: rgb(64,64,64); fill-opacity: 1.0; font-family: Tahoma; font-size: 12px;" clip-path="url(#_798078564787892clip-0)">36</text></g><line x1="50" y1="461.06" x2="52" y2="461.06" style="stroke-width: 0.5;stroke: rgb(128,128,128);stroke-opacity: 1.0;stroke-linecap: square;shape-rendering:crispEdges;" transform="matrix(1,0,0,1,0,0)" clip-path="url(#_798078564787892clip-0)"/><g transform="matrix(1,0,0,1,0,0)"><text x="33" y="485.66" style="fill: rgb(64,64,64); fill-opacity: 1.0; font-family: Tahoma; font-size: 12px;" clip-path="url(#_798078564787892clip-0)">38</text></g><line x1="50" y1="480.64" x2="52" y2="480.64" style="stroke-width: 0.5;stroke: rgb(128,128,128);stroke-opacity: 1.0;stroke-linecap: square;shape-rendering:crispEdges;" transform="matrix(1,0,0,1,0,0)" clip-path="url(#_798078564787892clip-0)"/><g transform="matrix(1,0,0,1,0,0)"><text x="33" y="505.24" style="fill: rgb(64,64,64); fill-opacity: 1.0; font-family: Tahoma; font-size: 12px;" clip-path="url(#_798078564787892clip-0)">40</text></g><line x1="50" y1="500.22" x2="52" y2="500.22" style="stroke-width: 0.5;stroke: rgb(128,128,128);stroke-opacity: 1.0;stroke-linecap: square;shape-rendering:crispEdges;" transform="matrix(1,0,0,1,0,0)" clip-path="url(#_798078564787892clip-0)"/><g transform="matrix(1,0,0,1,0,0)"><text x="33" y="524.83" style="fill: rgb(64,64,64); fill-opacity: 1.0; font-family: Tahoma; font-size: 12px;" clip-path="url(#_798078564787892clip-0)">42</text></g><line x1="50" y1="519.8" x2="52" y2="519.8" style="stroke-width: 0.5;stroke: rgb(128,128,128);stroke-opacity: 1.0;stroke-linecap: square;shape-rendering:crispEdges;" transform="matrix(1,0,0,1,0,0)" clip-path="url(#_798078564787892clip-0)"/><g transform="matrix(1,0,0,1,0,0)"><text x="33" y="544.41" style="fill: rgb(64,64,64); fill-opacity: 1.0; font-family: Tahoma; font-size: 12px;" clip-path="url(#_798078564787892clip-0)">44</text></g><line x1="50" y1="539.39" x2="52" y2="539.39" style="stroke-width: 0.5;stroke: rgb(128,128,128);stroke-opacity: 1.0;stroke-linecap: square;shape-rendering:crispEdges;" transform="matrix(1,0,0,1,0,0)" clip-path="url(#_798078564787892clip-0)"/><g style="fill: rgb(64,64,64); fill-opacity: 1.0; stroke: none" transform="matrix(0,-1,1,0,-273,312)" clip-path="url(#_798078564787892clip-1)"><path d="M 8.58 290.44 L 4.7 300.92 L 2.14 300.92 L 3.3 297.92 L 0.48 290.44 L 3 290.44 L 4.61 295.25 L 6.12 290.44 L 8.58 290.44 Z  M 18.47 300.92 L 15.96 300.92 Q 15.38 300.23 14.91 299.5 Q 14.44 298.76 14.1 297.94 Q 13.77 297.14 13.59 296.19 Q 13.41 295.23 13.41 294.2 Q 13.41 293.08 13.6 292.16 Q 13.79 291.23 14.08 290.48 Q 14.41 289.66 14.89 288.92 Q 15.36 288.19 15.96 287.47 L 18.47 287.47 L 18.47 287.67 Q 17.91 288.17 17.41 288.8 Q 16.91 289.44 16.49 290.28 Q 16.07 291.09 15.82 292.08 Q 15.57 293.08 15.57 294.2 Q 15.57 295.37 15.81 296.32 Q 16.05 297.26 16.49 298.11 Q 16.9 298.92 17.41 299.58 Q 17.93 300.25 18.47 300.73 L 18.47 300.92 Z  M 29.11 298.11 L 29.11 294.28 Q 29.11 293.7 29.09 293.31 Q 29.07 292.92 28.97 292.69 Q 28.86 292.44 28.64 292.32 Q 28.42 292.2 28.05 292.2 Q 27.77 292.2 27.5 292.33 Q 27.24 292.45 26.92 292.67 L 26.92 298.11 L 24.52 298.11 L 24.52 294.28 Q 24.52 293.72 24.5 293.32 Q 24.47 292.92 24.36 292.69 Q 24.27 292.44 24.05 292.32 Q 23.83 292.2 23.46 292.2 Q 23.16 292.2 22.88 292.34 Q 22.6 292.48 22.33 292.67 L 22.33 298.11 L 19.94 298.11 L 19.94 290.44 L 22.33 290.44 L 22.33 291.28 Q 22.91 290.78 23.43 290.5 Q 23.96 290.22 24.6 290.22 Q 25.32 290.22 25.85 290.55 Q 26.38 290.89 26.66 291.55 Q 27.35 290.91 27.96 290.56 Q 28.57 290.22 29.19 290.22 Q 29.74 290.22 30.16 290.39 Q 30.58 290.56 30.88 290.91 Q 31.19 291.26 31.35 291.78 Q 31.52 292.3 31.52 293.11 L 31.52 298.11 L 29.11 298.11 Z  M 37.96 294.2 Q 37.96 295.23 37.78 296.19 Q 37.6 297.14 37.29 297.94 Q 36.95 298.76 36.47 299.5 Q 35.99 300.23 35.42 300.92 L 32.92 300.92 L 32.92 300.73 Q 33.46 300.25 33.98 299.59 Q 34.49 298.94 34.9 298.11 Q 35.32 297.26 35.57 296.32 Q 35.82 295.37 35.82 294.2 Q 35.82 293.08 35.56 292.08 Q 35.31 291.09 34.9 290.28 Q 34.46 289.44 33.96 288.8 Q 33.46 288.17 32.92 287.67 L 32.92 287.47 L 35.42 287.47 Q 36.01 288.19 36.49 288.92 Q 36.96 289.66 37.29 290.48 Q 37.59 291.23 37.78 292.16 Q 37.96 293.08 37.96 294.2 Z "/></g><line x1="56" y1="49.82" x2="688" y2="49.82" style="stroke-width: 0.5;stroke: rgb(128,128,128);stroke-opacity: 0.5;stroke-linejoin: bevel;stroke-dasharray: 2.0, 2.0;shape-rendering:crispEdges;" transform="matrix(1,0,0,1,0,0)" clip-path="url(#_798078564787892clip-2)"/><line x1="56" y1="69.41" x2="688" y2="69.41" style="stroke-width: 0.5;stroke: rgb(128,128,128);stroke-opacity: 0.5;stroke-linejoin: bevel;stroke-dasharray: 2.0, 2.0;shape-rendering:crispEdges;" transform="matrix(1,0,0,1,0,0)" clip-path="url(#_798078564787892clip-2)"/><line x1="56" y1="88.99" x2="688" y2="88.99" style="stroke-width: 0.5;stroke: rgb(128,128,128);stroke-opacity: 0.5;stroke-linejoin: bevel;stroke-dasharray: 2.0, 2.0;shape-rendering:crispEdges;" transform="matrix(1,0,0,1,0,0)" clip-path="url(#_798078564787892clip-2)"/><line x1="56" y1="108.57" x2="688" y2="108.57" style="stroke-width: 0.5;stroke: rgb(128,128,128);stroke-opacity: 0.5;stroke-linejoin: bevel;stroke-dasharray: 2.0, 2.0;shape-rendering:crispEdges;" transform="matrix(1,0,0,1,0,0)" clip-path="url(#_798078564787892clip-2)"/><line x1="56" y1="128.15" x2="688" y2="128.15" style="stroke-width: 0.5;stroke: rgb(128,128,128);stroke-opacity: 0.5;stroke-linejoin: bevel;stroke-dasharray: 2.0, 2.0;shape-rendering:crispEdges;" transform="matrix(1,0,0,1,0,0)" clip-path="url(#_798078564787892clip-2)"/><line x1="56" y1="147.74" x2="688" y2="147.74" style="stroke-width: 0.5;stroke: rgb(128,128,128);stroke-opacity: 0.5;stroke-linejoin: bevel;stroke-dasharray: 2.0, 2.0;shape-rendering:crispEdges;" transform="matrix(1,0,0,1,0,0)" clip-path="url(#_798078564787892clip-2)"/><line x1="56" y1="167.32" x2="688" y2="167.32" style="stroke-width: 0.5;stroke: rgb(128,128,128);stroke-opacity: 0.5;stroke-linejoin: bevel;stroke-dasharray: 2.0, 2.0;shape-rendering:crispEdges;" transform="matrix(1,0,0,1,0,0)" clip-path="url(#_798078564787892clip-2)"/><line x1="56" y1="186.9" x2="688" y2="186.9" style="stroke-width: 0.5;stroke: rgb(128,128,128);stroke-opacity: 0.5;stroke-linejoin: bevel;stroke-dasharray: 2.0, 2.0;shape-rendering:crispEdges;" transform="matrix(1,0,0,1,0,0)" clip-path="url(#_798078564787892clip-2)"/><line x1="56" y1="206.48" x2="688" y2="206.48" style="stroke-width: 0.5;stroke: rgb(128,128,128);stroke-opacity: 0.5;stroke-linejoin: bevel;stroke-dasharray: 2.0, 2.0;shape-rendering:crispEdges;" transform="matrix(1,0,0,1,0,0)" clip-path="url(#_798078564787892clip-2)"/><line x1="56" y1="226.07" x2="688" y2="226.07" style="stroke-width: 0.5;stroke: rgb(128,128,128);stroke-opacity: 0.5;stroke-linejoin: bevel;stroke-dasharray: 2.0, 2.0;shape-rendering:crispEdges;" transform="matrix(1,0,0,1,0,0)" clip-path="url(#_798078564787892clip-2)"/><line x1="56" y1="245.65" x2="688" y2="245.65" style="stroke-width: 0.5;stroke: rgb(128,128,128);stroke-opacity: 0.5;stroke-linejoin: bevel;stroke-dasharray: 2.0, 2.0;shape-rendering:crispEdges;" transform="matrix(1,0,0,1,0,0)" clip-path="url(#_798078564787892clip-2)"/><line x1="56" y1="265.23" x2="688" y2="265.23" style="stroke-width: 0.5;stroke: rgb(128,128,128);stroke-opacity: 0.5;stroke-linejoin: bevel;stroke-dasharray: 2.0, 2.0;shape-rendering:crispEdges;" transform="matrix(1,0,0,1,0,0)" clip-path="url(#_798078564787892clip-2)"/><line x1="56" y1="284.81" x2="688" y2="284.81" style="stroke-width: 0.5;stroke: rgb(128,128,128);stroke-opacity: 0.5;stroke-linejoin: bevel;stroke-dasharray: 2.0, 2.0;shape-rendering:crispEdges;" transform="matrix(1,0,0,1,0,0)" clip-path="url(#_798078564787892clip-2)"/><line x1="56" y1="304.4" x2="688" y2="304.4" style="stroke-width: 0.5;stroke: rgb(128,128,128);stroke-opacity: 0.5;stroke-linejoin: bevel;stroke-dasharray: 2.0, 2.0;shape-rendering:crispEdges;" transform="matrix(1,0,0,1,0,0)" clip-path="url(#_798078564787892clip-2)"/><line x1="56" y1="323.98" x2="688" y2="323.98" style="stroke-width: 0.5;stroke: rgb(128,128,128);stroke-opacity: 0.5;stroke-linejoin: bevel;stroke-dasharray: 2.0, 2.0;shape-rendering:crispEdges;" transform="matrix(1,0,0,1,0,0)" clip-path="url(#_798078564787892clip-2)"/><line x1="56" y1="343.56" x2="688" y2="343.56" style="stroke-width: 0.5;stroke: rgb(128,128,128);stroke-opacity: 0.5;stroke-linejoin: bevel;stroke-dasharray: 2.0, 2.0;shape-rendering:crispEdges;" transform="matrix(1,0,0,1,0,0)" clip-path="url(#_798078564787892clip-2)"/><line x1="56" y1="363.14" x2="688" y2="363.14" style="stroke-width: 0.5;stroke: rgb(128,128,128);stroke-opacity: 0.5;stroke-linejoin: bevel;stroke-dasharray: 2.0, 2.0;shape-rendering:crispEdges;" transform="matrix(1,0,0,1,0,0)" clip-path="url(#_798078564787892clip-2)"/><line x1="56" y1="382.73" x2="688" y2="382.73" style="stroke-width: 0.5;stroke: rgb(128,128,128);stroke-opacity: 0.5;stroke-linejoin: bevel;stroke-dasharray: 2.0, 2.0;shape-rendering:crispEdges;" transform="matrix(1,0,0,1,0,0)" clip-path="url(#_798078564787892clip-2)"/><line x1="56" y1="402.31" x2="688" y2="402.31" style="stroke-width: 0.5;stroke: rgb(128,128,128);stroke-opacity: 0.5;stroke-linejoin: bevel;stroke-dasharray: 2.0, 2.0;shape-rendering:crispEdges;" transform="matrix(1,0,0,1,0,0)" clip-path="url(#_798078564787892clip-2)"/><line x1="56" y1="421.89" x2="688" y2="421.89" style="stroke-width: 0.5;stroke: rgb(128,128,128);stroke-opacity: 0.5;stroke-linejoin: bevel;stroke-dasharray: 2.0, 2.0;shape-rendering:crispEdges;" transform="matrix(1,0,0,1,0,0)" clip-path="url(#_798078564787892clip-2)"/><line x1="56" y1="441.47" x2="688" y2="441.47" style="stroke-width: 0.5;stroke: rgb(128,128,128);stroke-opacity: 0.5;stroke-linejoin: bevel;stroke-dasharray: 2.0, 2.0;shape-rendering:crispEdges;" transform="matrix(1,0,0,1,0,0)" clip-path="url(#_798078564787892clip-2)"/><line x1="56" y1="461.06" x2="688" y2="461.06" style="stroke-width: 0.5;stroke: rgb(128,128,128);stroke-opacity: 0.5;stroke-linejoin: bevel;stroke-dasharray: 2.0, 2.0;shape-rendering:crispEdges;" transform="matrix(1,0,0,1,0,0)" clip-path="url(#_798078564787892clip-2)"/><line x1="56" y1="480.64" x2="688" y2="480.64" style="stroke-width: 0.5;stroke: rgb(128,128,128);stroke-opacity: 0.5;stroke-linejoin: bevel;stroke-dasharray: 2.0, 2.0;shape-rendering:crispEdges;" transform="matrix(1,0,0,1,0,0)" clip-path="url(#_798078564787892clip-2)"/><line x1="56" y1="500.22" x2="688" y2="500.22" style="stroke-width: 0.5;stroke: rgb(128,128,128);stroke-opacity: 0.5;stroke-linejoin: bevel;stroke-dasharray: 2.0, 2.0;shape-rendering:crispEdges;" transform="matrix(1,0,0,1,0,0)" clip-path="url(#_798078564787892clip-2)"/><line x1="56" y1="519.8" x2="688" y2="519.8" style="stroke-width: 0.5;stroke: rgb(128,128,128);stroke-opacity: 0.5;stroke-linejoin: bevel;stroke-dasharray: 2.0, 2.0;shape-rendering:crispEdges;" transform="matrix(1,0,0,1,0,0)" clip-path="url(#_798078564787892clip-2)"/><line x1="56" y1="539.39" x2="688" y2="539.39" style="stroke-width: 0.5;stroke: rgb(128,128,128);stroke-opacity: 0.5;stroke-linejoin: bevel;stroke-dasharray: 2.0, 2.0;shape-rendering:crispEdges;" transform="matrix(1,0,0,1,0,0)" clip-path="url(#_798078564787892clip-2)"/><line x1="71.61" y1="35" x2="71.61" y2="550" style="stroke-width: 0.5;stroke: rgb(128,128,128);stroke-opacity: 0.5;stroke-linejoin: bevel;stroke-dasharray: 2.0, 2.0;shape-rendering:crispEdges;" transform="matrix(1,0,0,1,0,0)" clip-path="url(#_798078564787892clip-2)"/><line x1="131.69" y1="35" x2="131.69" y2="550" style="stroke-width: 0.5;stroke: rgb(128,128,128);stroke-opacity: 0.5;stroke-linejoin: bevel;stroke-dasharray: 2.0, 2.0;shape-rendering:crispEdges;" transform="matrix(1,0,0,1,0,0)" clip-path="url(#_798078564787892clip-2)"/><line x1="191.77" y1="35" x2="191.77" y2="550" style="stroke-width: 0.5;stroke: rgb(128,128,128);stroke-opacity: 0.5;stroke-linejoin: bevel;stroke-dasharray: 2.0, 2.0;shape-rendering:crispEdges;" transform="matrix(1,0,0,1,0,0)" clip-path="url(#_798078564787892clip-2)"/><line x1="251.84" y1="35" x2="251.84" y2="550" style="stroke-width: 0.5;stroke: rgb(128,128,128);stroke-opacity: 0.5;stroke-linejoin: bevel;stroke-dasharray: 2.0, 2.0;shape-rendering:crispEdges;" transform="matrix(1,0,0,1,0,0)" clip-path="url(#_798078564787892clip-2)"/><line x1="311.92" y1="35" x2="311.92" y2="550" style="stroke-width: 0.5;stroke: rgb(128,128,128);stroke-opacity: 0.5;stroke-linejoin: bevel;stroke-dasharray: 2.0, 2.0;shape-rendering:crispEdges;" transform="matrix(1,0,0,1,0,0)" clip-path="url(#_798078564787892clip-2)"/><line x1="372" y1="35" x2="372" y2="550" style="stroke-width: 0.5;stroke: rgb(128,128,128);stroke-opacity: 0.5;stroke-linejoin: bevel;stroke-dasharray: 2.0, 2.0;shape-rendering:crispEdges;" transform="matrix(1,0,0,1,0,0)" clip-path="url(#_798078564787892clip-2)"/><line x1="432.08" y1="35" x2="432.08" y2="550" style="stroke-width: 0.5;stroke: rgb(128,128,128);stroke-opacity: 0.5;stroke-linejoin: bevel;stroke-dasharray: 2.0, 2.0;shape-rendering:crispEdges;" transform="matrix(1,0,0,1,0,0)" clip-path="url(#_798078564787892clip-2)"/><line x1="492.16" y1="35" x2="492.16" y2="550" style="stroke-width: 0.5;stroke: rgb(128,128,128);stroke-opacity: 0.5;stroke-linejoin: bevel;stroke-dasharray: 2.0, 2.0;shape-rendering:crispEdges;" transform="matrix(1,0,0,1,0,0)" clip-path="url(#_798078564787892clip-2)"/><line x1="552.23" y1="35" x2="552.23" y2="550" style="stroke-width: 0.5;stroke: rgb(128,128,128);stroke-opacity: 0.5;stroke-linejoin: bevel;stroke-dasharray: 2.0, 2.0;shape-rendering:crispEdges;" transform="matrix(1,0,0,1,0,0)" clip-path="url(#_798078564787892clip-2)"/><line x1="612.31" y1="35" x2="612.31" y2="550" style="stroke-width: 0.5;stroke: rgb(128,128,128);stroke-opacity: 0.5;stroke-linejoin: bevel;stroke-dasharray: 2.0, 2.0;shape-rendering:crispEdges;" transform="matrix(1,0,0,1,0,0)" clip-path="url(#_798078564787892clip-2)"/><line x1="672.39" y1="35" x2="672.39" y2="550" style="stroke-width: 0.5;stroke: rgb(128,128,128);stroke-opacity: 0.5;stroke-linejoin: bevel;stroke-dasharray: 2.0, 2.0;shape-rendering:crispEdges;" transform="matrix(1,0,0,1,0,0)" clip-path="url(#_798078564787892clip-2)"/><line x1="372" y1="108.57" x2="369.88" y2="108.98" style="stroke-width: 1.5;stroke: rgb(0,0,0);stroke-opacity: 0.5;stroke-linecap: round;stroke-linejoin: round;shape-rendering:geometricPrecision;" transform="matrix(1,0,0,1,0,0)" clip-path="url(#_798078564787892clip-2)"/><line x1="369.88" y1="108.98" x2="367.1" y2="111.31" style="stroke-width: 1.5;stroke: rgb(0,0,0);stroke-opacity: 0.5;stroke-linecap: round;stroke-linejoin: round;shape-rendering:geometricPrecision;" transform="matrix(1,0,0,1,0,0)" clip-path="url(#_798078564787892clip-2)"/><line x1="367.1" y1="111.31" x2="363.53" y2="116.24" style="stroke-width: 1.5;stroke: rgb(0,0,0);stroke-opacity: 0.5;stroke-linecap: round;stroke-linejoin: round;shape-rendering:geometricPrecision;" transform="matrix(1,0,0,1,0,0)" clip-path="url(#_798078564787892clip-2)"/><line x1="363.53" y1="116.24" x2="359.45" y2="123.43" style="stroke-width: 1.5;stroke: rgb(0,0,0);stroke-opacity: 0.5;stroke-linecap: round;stroke-linejoin: round;shape-rendering:geometricPrecision;" transform="matrix(1,0,0,1,0,0)" clip-path="url(#_798078564787892clip-2)"/><line x1="359.45" y1="123.43" x2="355.41" y2="131.91" style="stroke-width: 1.5;stroke: rgb(0,0,0);stroke-opacity: 0.5;stroke-linecap: round;stroke-linejoin: round;shape-rendering:geometricPrecision;" transform="matrix(1,0,0,1,0,0)" clip-path="url(#_798078564787892clip-2)"/><line x1="355.41" y1="131.91" x2="351.98" y2="140.45" style="stroke-width: 1.5;stroke: rgb(0,0,0);stroke-opacity: 0.5;stroke-linecap: round;stroke-linejoin: round;shape-rendering:geometricPrecision;" transform="matrix(1,0,0,1,0,0)" clip-path="url(#_798078564787892clip-2)"/><line x1="351.98" y1="140.45" x2="349.63" y2="147.95" style="stroke-width: 1.5;stroke: rgb(0,0,0);stroke-opacity: 0.5;stroke-linecap: round;stroke-linejoin: round;shape-rendering:geometricPrecision;" transform="matrix(1,0,0,1,0,0)" clip-path="url(#_798078564787892clip-2)"/><line x1="349.63" y1="147.95" x2="348.52" y2="153.78" style="stroke-width: 1.5;stroke: rgb(0,0,0);stroke-opacity: 0.5;stroke-linecap: round;stroke-linejoin: round;shape-rendering:geometricPrecision;" transform="matrix(1,0,0,1,0,0)" clip-path="url(#_798078564787892clip-2)"/><line x1="348.52" y1="153.78" x2="348.33" y2="158.23" style="stroke-width: 1.5;stroke: rgb(0,0,0);stroke-opacity: 0.5;stroke-linecap: round;stroke-linejoin: round;shape-rendering:geometricPrecision;" transform="matrix(1,0,0,1,0,0)" clip-path="url(#_798078564787892clip-2)"/><line x1="348.33" y1="158.23" x2="348.33" y2="212.67" style="stroke-width: 1.5;stroke: rgb(0,0,0);stroke-opacity: 0.5;stroke-linecap: round;stroke-linejoin: round;shape-rendering:geometricPrecision;" transform="matrix(1,0,0,1,0,0)" clip-path="url(#_798078564787892clip-2)"/><line x1="348.33" y1="212.67" x2="348.33" y2="278.15" style="stroke-width: 1.5;stroke: rgb(0,0,0);stroke-opacity: 0.5;stroke-linecap: round;stroke-linejoin: round;shape-rendering:geometricPrecision;" transform="matrix(1,0,0,1,0,0)" clip-path="url(#_798078564787892clip-2)"/><line x1="348.33" y1="278.15" x2="348.33" y2="354.67" style="stroke-width: 1.5;stroke: rgb(0,0,0);stroke-opacity: 0.5;stroke-linecap: round;stroke-linejoin: round;shape-rendering:geometricPrecision;" transform="matrix(1,0,0,1,0,0)" clip-path="url(#_798078564787892clip-2)"/><line x1="348.33" y1="354.67" x2="348.52" y2="365.36" style="stroke-width: 1.5;stroke: rgb(0,0,0);stroke-opacity: 0.5;stroke-linecap: round;stroke-linejoin: round;shape-rendering:geometricPrecision;" transform="matrix(1,0,0,1,0,0)" clip-path="url(#_798078564787892clip-2)"/><line x1="348.52" y1="365.36" x2="349.63" y2="381.23" style="stroke-width: 1.5;stroke: rgb(0,0,0);stroke-opacity: 0.5;stroke-linecap: round;stroke-linejoin: round;shape-rendering:geometricPrecision;" transform="matrix(1,0,0,1,0,0)" clip-path="url(#_798078564787892clip-2)"/><line x1="349.63" y1="381.23" x2="351.98" y2="401.07" style="stroke-width: 1.5;stroke: rgb(0,0,0);stroke-opacity: 0.5;stroke-linecap: round;stroke-linejoin: round;shape-rendering:geometricPrecision;" transform="matrix(1,0,0,1,0,0)" clip-path="url(#_798078564787892clip-2)"/><line x1="351.98" y1="401.07" x2="355.41" y2="422.56" style="stroke-width: 1.5;stroke: rgb(0,0,0);stroke-opacity: 0.5;stroke-linecap: round;stroke-linejoin: round;shape-rendering:geometricPrecision;" transform="matrix(1,0,0,1,0,0)" clip-path="url(#_798078564787892clip-2)"/><line x1="355.41" y1="422.56" x2="359.45" y2="442.91" style="stroke-width: 1.5;stroke: rgb(0,0,0);stroke-opacity: 0.5;stroke-linecap: round;stroke-linejoin: round;shape-rendering:geometricPrecision;" transform="matrix(1,0,0,1,0,0)" clip-path="url(#_798078564787892clip-2)"/><line x1="359.45" y1="442.91" x2="363.53" y2="459.49" style="stroke-width: 1.5;stroke: rgb(0,0,0);stroke-opacity: 0.5;stroke-linecap: round;stroke-linejoin: round;shape-rendering:geometricPrecision;" transform="matrix(1,0,0,1,0,0)" clip-path="url(#_798078564787892clip-2)"/><line x1="363.53" y1="459.49" x2="367.1" y2="470.5" style="stroke-width: 1.5;stroke: rgb(0,0,0);stroke-opacity: 0.5;stroke-linecap: round;stroke-linejoin: round;shape-rendering:geometricPrecision;" transform="matrix(1,0,0,1,0,0)" clip-path="url(#_798078564787892clip-2)"/><line x1="367.1" y1="470.5" x2="369.88" y2="475.56" style="stroke-width: 1.5;stroke: rgb(0,0,0);stroke-opacity: 0.5;stroke-linecap: round;stroke-linejoin: round;shape-rendering:geometricPrecision;" transform="matrix(1,0,0,1,0,0)" clip-path="url(#_798078564787892clip-2)"/><line x1="369.88" y1="475.56" x2="372" y2="476.43" style="stroke-width: 1.5;stroke: rgb(0,0,0);stroke-opacity: 0.5;stroke-linecap: round;stroke-linejoin: round;shape-rendering:geometricPrecision;" transform="matrix(1,0,0,1,0,0)" clip-path="url(#_798078564787892clip-2)"/><line x1="372" y1="476.43" x2="372" y2="476.43" style="stroke-width: 1.5;stroke: rgb(0,0,0);stroke-opacity: 0.5;stroke-linecap: round;stroke-linejoin: round;shape-rendering:geometricPrecision;" transform="matrix(1,0,0,1,0,0)" clip-path="url(#_798078564787892clip-2)"/><line x1="372" y1="476.43" x2="374.12" y2="475.56" style="stroke-width: 1.5;stroke: rgb(0,0,0);stroke-opacity: 0.5;stroke-linecap: round;stroke-linejoin: round;shape-rendering:geometricPrecision;" transform="matrix(1,0,0,1,0,0)" clip-path="url(#_798078564787892clip-2)"/><line x1="374.12" y1="475.56" x2="376.9" y2="470.5" style="stroke-width: 1.5;stroke: rgb(0,0,0);stroke-opacity: 0.5;stroke-linecap: round;stroke-linejoin: round;shape-rendering:geometricPrecision;" transform="matrix(1,0,0,1,0,0)" clip-path="url(#_798078564787892clip-2)"/><line x1="376.9" y1="470.5" x2="380.47" y2="459.49" style="stroke-width: 1.5;stroke: rgb(0,0,0);stroke-opacity: 0.5;stroke-linecap: round;stroke-linejoin: round;shape-rendering:geometricPrecision;" transform="matrix(1,0,0,1,0,0)" clip-path="url(#_798078564787892clip-2)"/><line x1="380.47" y1="459.49" x2="384.55" y2="442.91" style="stroke-width: 1.5;stroke: rgb(0,0,0);stroke-opacity: 0.5;stroke-linecap: round;stroke-linejoin: round;shape-rendering:geometricPrecision;" transform="matrix(1,0,0,1,0,0)" clip-path="url(#_798078564787892clip-2)"/><line x1="384.55" y1="442.91" x2="388.59" y2="422.56" style="stroke-width: 1.5;stroke: rgb(0,0,0);stroke-opacity: 0.5;stroke-linecap: round;stroke-linejoin: round;shape-rendering:geometricPrecision;" transform="matrix(1,0,0,1,0,0)" clip-path="url(#_798078564787892clip-2)"/><line x1="388.59" y1="422.56" x2="392.02" y2="401.07" style="stroke-width: 1.5;stroke: rgb(0,0,0);stroke-opacity: 0.5;stroke-linecap: round;stroke-linejoin: round;shape-rendering:geometricPrecision;" transform="matrix(1,0,0,1,0,0)" clip-path="url(#_798078564787892clip-2)"/><line x1="392.02" y1="401.07" x2="394.37" y2="381.23" style="stroke-width: 1.5;stroke: rgb(0,0,0);stroke-opacity: 0.5;stroke-linecap: round;stroke-linejoin: round;shape-rendering:geometricPrecision;" transform="matrix(1,0,0,1,0,0)" clip-path="url(#_798078564787892clip-2)"/><line x1="394.37" y1="381.23" x2="395.48" y2="365.36" style="stroke-width: 1.5;stroke: rgb(0,0,0);stroke-opacity: 0.5;stroke-linecap: round;stroke-linejoin: round;shape-rendering:geometricPrecision;" transform="matrix(1,0,0,1,0,0)" clip-path="url(#_798078564787892clip-2)"/><line x1="395.48" y1="365.36" x2="395.67" y2="354.67" style="stroke-width: 1.5;stroke: rgb(0,0,0);stroke-opacity: 0.5;stroke-linecap: round;stroke-linejoin: round;shape-rendering:geometricPrecision;" transform="matrix(1,0,0,1,0,0)" clip-path="url(#_798078564787892clip-2)"/><line x1="395.67" y1="354.67" x2="395.67" y2="278.15" style="stroke-width: 1.5;stroke: rgb(0,0,0);stroke-opacity: 0.5;stroke-linecap: round;stroke-linejoin: round;shape-rendering:geometricPrecision;" transform="matrix(1,0,0,1,0,0)" clip-path="url(#_798078564787892clip-2)"/><line x1="395.67" y1="278.15" x2="395.67" y2="212.67" style="stroke-width: 1.5;stroke: rgb(0,0,0);stroke-opacity: 0.5;stroke-linecap: round;stroke-linejoin: round;shape-rendering:geometricPrecision;" transform="matrix(1,0,0,1,0,0)" clip-path="url(#_798078564787892clip-2)"/><line x1="395.67" y1="212.67" x2="395.67" y2="158.23" style="stroke-width: 1.5;stroke: rgb(0,0,0);stroke-opacity: 0.5;stroke-linecap: round;stroke-linejoin: round;shape-rendering:geometricPrecision;" transform="matrix(1,0,0,1,0,0)" clip-path="url(#_798078564787892clip-2)"/><line x1="395.67" y1="158.23" x2="395.48" y2="153.78" style="stroke-width: 1.5;stroke: rgb(0,0,0);stroke-opacity: 0.5;stroke-linecap: round;stroke-linejoin: round;shape-rendering:geometricPrecision;" transform="matrix(1,0,0,1,0,0)" clip-path="url(#_798078564787892clip-2)"/><line x1="395.48" y1="153.78" x2="394.37" y2="147.95" style="stroke-width: 1.5;stroke: rgb(0,0,0);stroke-opacity: 0.5;stroke-linecap: round;stroke-linejoin: round;shape-rendering:geometricPrecision;" transform="matrix(1,0,0,1,0,0)" clip-path="url(#_798078564787892clip-2)"/><line x1="394.37" y1="147.95" x2="392.02" y2="140.45" style="stroke-width: 1.5;stroke: rgb(0,0,0);stroke-opacity: 0.5;stroke-linecap: round;stroke-linejoin: round;shape-rendering:geometricPrecision;" transform="matrix(1,0,0,1,0,0)" clip-path="url(#_798078564787892clip-2)"/><line x1="392.02" y1="140.45" x2="388.59" y2="131.91" style="stroke-width: 1.5;stroke: rgb(0,0,0);stroke-opacity: 0.5;stroke-linecap: round;stroke-linejoin: round;shape-rendering:geometricPrecision;" transform="matrix(1,0,0,1,0,0)" clip-path="url(#_798078564787892clip-2)"/><line x1="388.59" y1="131.91" x2="384.55" y2="123.43" style="stroke-width: 1.5;stroke: rgb(0,0,0);stroke-opacity: 0.5;stroke-linecap: round;stroke-linejoin: round;shape-rendering:geometricPrecision;" transform="matrix(1,0,0,1,0,0)" clip-path="url(#_798078564787892clip-2)"/><line x1="384.55" y1="123.43" x2="380.47" y2="116.24" style="stroke-width: 1.5;stroke: rgb(0,0,0);stroke-opacity: 0.5;stroke-linecap: round;stroke-linejoin: round;shape-rendering:geometricPrecision;" transform="matrix(1,0,0,1,0,0)" clip-path="url(#_798078564787892clip-2)"/><line x1="380.47" y1="116.24" x2="376.9" y2="111.31" style="stroke-width: 1.5;stroke: rgb(0,0,0);stroke-opacity: 0.5;stroke-linecap: round;stroke-linejoin: round;shape-rendering:geometricPrecision;" transform="matrix(1,0,0,1,0,0)" clip-path="url(#_798078564787892clip-2)"/><line x1="376.9" y1="111.31" x2="374.12" y2="108.98" style="stroke-width: 1.5;stroke: rgb(0,0,0);stroke-opacity: 0.5;stroke-linecap: round;stroke-linejoin: round;shape-rendering:geometricPrecision;" transform="matrix(1,0,0,1,0,0)" clip-path="url(#_798078564787892clip-2)"/><line x1="374.12" y1="108.98" x2="372" y2="108.57" style="stroke-width: 1.5;stroke: rgb(0,0,0);stroke-opacity: 0.5;stroke-linecap: round;stroke-linejoin: round;shape-rendering:geometricPrecision;" transform="matrix(1,0,0,1,0,0)" clip-path="url(#_798078564787892clip-2)"/><g style="fill: rgb(255,255,255); fill-opacity: 0.5; stroke: none" transform="matrix(1,0,0,1,0,0)" clip-path="url(#_798078564787892clip-2)"><path d="M 372 108.57 L 372 108.57 L 369.88 108.98 L 367.1 111.31 L 363.53 116.24 L 359.45 123.43 L 355.41 131.91 L 351.98 140.45 L 349.63 147.95 L 348.52 153.78 L 348.33 158.23 L 348.33 212.68 L 348.33 278.15 L 348.33 354.67 L 348.52 365.36 L 349.63 381.23 L 351.98 401.07 L 355.41 422.56 L 359.45 442.91 L 363.53 459.49 L 367.1 470.5 L 369.88 475.56 L 372 476.43 L 372 476.43 L 374.12 475.56 L 376.9 470.5 L 380.47 459.49 L 384.55 442.91 L 388.59 422.56 L 392.02 401.07 L 394.37 381.23 L 395.48 365.36 L 395.67 354.67 L 395.67 278.15 L 395.67 212.68 L 395.67 158.23 L 395.48 153.78 L 394.37 147.95 L 392.02 140.45 L 388.59 131.91 L 384.55 123.43 L 380.47 116.24 L 376.9 111.31 L 374.12 108.98 L 372 108.57 L 372 108.57 Z "/></g><rect x="56" y="35" width="632" height="515" style="stroke-width: 0.5;stroke: rgb(0,0,0);stroke-opacity: 1.0;stroke-linecap: round;stroke-linejoin: round;shape-rendering:crispEdges;; fill: none" transform="matrix(1,0,0,1,0,0)" clip-path="url(#_798078564787892clip-0)"/></svg>
