<!DOCTYPE svg PUBLIC "-//W3C//DTD SVG 1.1//EN" "http://www.w3.org/Graphics/SVG/1.1/DTD/svg11.dtd">
<svg xmlns="http://www.w3.org/2000/svg" xmlns:xlink="http://www.w3.org/1999/xlink" xmlns:jfreesvg="http://www.jfree.org/jfreesvg/svg" width="650" height="650" text-rendering="auto" shape-rendering="auto">
<defs><clipPath id="_412348071003042clip-0"><path d="M 0 0 L 650 0 L 650 650 L 0 650 L 0 0 Z "/></clipPath>
<clipPath id="_412348071003042clip-1"><path d="M 337 298 L 337 948 L -313 948 L -313 298 L 337 298 Z "/></clipPath>
<clipPath id="_412348071003042clip-2"><path d="M 60 35 L 60 600 L 638 600 L 638 35 Z "/></clipPath>
</defs>
<rect x="0" y="0" width="650" height="650" style="fill: rgb(245,245,245); fill-opacity: 1.0" transform="matrix(1,0,0,1,0,0)" clip-path="url(#_412348071003042clip-0)"/><g transform="matrix(1,0,0,1,0,0)"><text x="118.5" y="21.01" style="fill: rgb(0,0,0); fill-opacity: 1.0; font-family: Tahoma; font-size: 20px; font-weight: bold;" clip-path="url(#_412348071003042clip-0)">Fuselage data representation - Side View</text></g><rect x="60" y="35" width="578" height="565" style="fill: rgb(240,248,255); fill-opacity: 0.0" transform="matrix(1,0,0,1,0,0)" clip-path="url(#_412348071003042clip-0)"/><line x1="60" y1="604" x2="638" y2="604" style="stroke-width: 0.5;stroke: rgb(128,128,128);stroke-opacity: 1.0;stroke-linecap: square;shape-rendering:crispEdges;" transform="matrix(1,0,0,1,0,0)" clip-path="url(#_412348071003042clip-0)"/><g transform="matrix(1,0,0,1,0,0)"><text x="77.31" y="620.52" style="fill: rgb(64,64,64); fill-opacity: 1.0; font-family: Tahoma; font-size: 12px;" clip-path="url(#_412348071003042clip-0)">-4</text></g><line x1="82.81" y1="606" x2="82.81" y2="604" style="stroke-width: 0.5;stroke: rgb(128,128,128);stroke-opacity: 1.0;stroke-linecap: square;shape-rendering:crispEdges;" transform="matrix(1,0,0,1,0,0)" clip-path="url(#_412348071003042clip-0)"/><g transform="matrix(1,0,0,1,0,0)"><text x="107.19" y="620.52" style="fill: rgb(64,64,64); fill-opacity: 1.0; font-family: Tahoma; font-size: 12px;" clip-path="url(#_412348071003042clip-0)">-2</text></g><line x1="112.69" y1="606" x2="112.69" y2="604" style="stroke-width: 0.5;stroke: rgb(128,128,128);stroke-opacity: 1.0;stroke-linecap: square;shape-rendering:crispEdges;" transform="matrix(1,0,0,1,0,0)" clip-path="url(#_412348071003042clip-0)"/><g transform="matrix(1,0,0,1,0,0)"><text x="139.07" y="620.52" style="fill: rgb(64,64,64); fill-opacity: 1.0; font-family: Tahoma; font-size: 12px;" clip-path="url(#_412348071003042clip-0)">0</text></g><line x1="142.57" y1="606" x2="142.57" y2="604" style="stroke-width: 0.5;stroke: rgb(128,128,128);stroke-opacity: 1.0;stroke-linecap: square;shape-rendering:crispEdges;" transform="matrix(1,0,0,1,0,0)" clip-path="url(#_412348071003042clip-0)"/><g transform="matrix(1,0,0,1,0,0)"><text x="168.95" y="620.52" style="fill: rgb(64,64,64); fill-opacity: 1.0; font-family: Tahoma; font-size: 12px;" clip-path="url(#_412348071003042clip-0)">2</text></g><line x1="172.45" y1="606" x2="172.45" y2="604" style="stroke-width: 0.5;stroke: rgb(128,128,128);stroke-opacity: 1.0;stroke-linecap: square;shape-rendering:crispEdges;" transform="matrix(1,0,0,1,0,0)" clip-path="url(#_412348071003042clip-0)"/><g transform="matrix(1,0,0,1,0,0)"><text x="198.83" y="620.52" style="fill: rgb(64,64,64); fill-opacity: 1.0; font-family: Tahoma; font-size: 12px;" clip-path="url(#_412348071003042clip-0)">4</text></g><line x1="202.33" y1="606" x2="202.33" y2="604" style="stroke-width: 0.5;stroke: rgb(128,128,128);stroke-opacity: 1.0;stroke-linecap: square;shape-rendering:crispEdges;" transform="matrix(1,0,0,1,0,0)" clip-path="url(#_412348071003042clip-0)"/><g transform="matrix(1,0,0,1,0,0)"><text x="228.71" y="620.52" style="fill: rgb(64,64,64); fill-opacity: 1.0; font-family: Tahoma; font-size: 12px;" clip-path="url(#_412348071003042clip-0)">6</text></g><line x1="232.21" y1="606" x2="232.21" y2="604" style="stroke-width: 0.5;stroke: rgb(128,128,128);stroke-opacity: 1.0;stroke-linecap: square;shape-rendering:crispEdges;" transform="matrix(1,0,0,1,0,0)" clip-path="url(#_412348071003042clip-0)"/><g transform="matrix(1,0,0,1,0,0)"><text x="258.59" y="620.52" style="fill: rgb(64,64,64); fill-opacity: 1.0; font-family: Tahoma; font-size: 12px;" clip-path="url(#_412348071003042clip-0)">8</text></g><line x1="262.09" y1="606" x2="262.09" y2="604" style="stroke-width: 0.5;stroke: rgb(128,128,128);stroke-opacity: 1.0;stroke-linecap: square;shape-rendering:crispEdges;" transform="matrix(1,0,0,1,0,0)" clip-path="url(#_412348071003042clip-0)"/><g transform="matrix(1,0,0,1,0,0)"><text x="285.47" y="620.52" style="fill: rgb(64,64,64); fill-opacity: 1.0; font-family: Tahoma; font-size: 12px;" clip-path="url(#_412348071003042clip-0)">10</text></g><line x1="291.97" y1="606" x2="291.97" y2="604" style="stroke-width: 0.5;stroke: rgb(128,128,128);stroke-opacity: 1.0;stroke-linecap: square;shape-rendering:crispEdges;" transform="matrix(1,0,0,1,0,0)" clip-path="url(#_412348071003042clip-0)"/><g transform="matrix(1,0,0,1,0,0)"><text x="315.35" y="620.52" style="fill: rgb(64,64,64); fill-opacity: 1.0; font-family: Tahoma; font-size: 12px;" clip-path="url(#_412348071003042clip-0)">12</text></g><line x1="321.85" y1="606" x2="321.85" y2="604" style="stroke-width: 0.5;stroke: rgb(128,128,128);stroke-opacity: 1.0;stroke-linecap: square;shape-rendering:crispEdges;" transform="matrix(1,0,0,1,0,0)" clip-path="url(#_412348071003042clip-0)"/><g transform="matrix(1,0,0,1,0,0)"><text x="345.23" y="620.52" style="fill: rgb(64,64,64); fill-opacity: 1.0; font-family: Tahoma; font-size: 12px;" clip-path="url(#_412348071003042clip-0)">14</text></g><line x1="351.73" y1="606" x2="351.73" y2="604" style="stroke-width: 0.5;stroke: rgb(128,128,128);stroke-opacity: 1.0;stroke-linecap: square;shape-rendering:crispEdges;" transform="matrix(1,0,0,1,0,0)" clip-path="url(#_412348071003042clip-0)"/><g transform="matrix(1,0,0,1,0,0)"><text x="375.11" y="620.52" style="fill: rgb(64,64,64); fill-opacity: 1.0; font-family: Tahoma; font-size: 12px;" clip-path="url(#_412348071003042clip-0)">16</text></g><line x1="381.61" y1="606" x2="381.61" y2="604" style="stroke-width: 0.5;stroke: rgb(128,128,128);stroke-opacity: 1.0;stroke-linecap: square;shape-rendering:crispEdges;" transform="matrix(1,0,0,1,0,0)" clip-path="url(#_412348071003042clip-0)"/><g transform="matrix(1,0,0,1,0,0)"><text x="404.99" y="620.52" style="fill: rgb(64,64,64); fill-opacity: 1.0; font-family: Tahoma; font-size: 12px;" clip-path="url(#_412348071003042clip-0)">18</text></g><line x1="411.49" y1="606" x2="411.49" y2="604" style="stroke-width: 0.5;stroke: rgb(128,128,128);stroke-opacity: 1.0;stroke-linecap: square;shape-rendering:crispEdges;" transform="matrix(1,0,0,1,0,0)" clip-path="url(#_412348071003042clip-0)"/><g transform="matrix(1,0,0,1,0,0)"><text x="434.87" y="620.52" style="fill: rgb(64,64,64); fill-opacity: 1.0; font-family: Tahoma; font-size: 12px;" clip-path="url(#_412348071003042clip-0)">20</text></g><line x1="441.37" y1="606" x2="441.37" y2="604" style="stroke-width: 0.5;stroke: rgb(128,128,128);stroke-opacity: 1.0;stroke-linecap: square;shape-rendering:crispEdges;" transform="matrix(1,0,0,1,0,0)" clip-path="url(#_412348071003042clip-0)"/><g transform="matrix(1,0,0,1,0,0)"><text x="464.75" y="620.52" style="fill: rgb(64,64,64); fill-opacity: 1.0; font-family: Tahoma; font-size: 12px;" clip-path="url(#_412348071003042clip-0)">22</text></g><line x1="471.25" y1="606" x2="471.25" y2="604" style="stroke-width: 0.5;stroke: rgb(128,128,128);stroke-opacity: 1.0;stroke-linecap: square;shape-rendering:crispEdges;" transform="matrix(1,0,0,1,0,0)" clip-path="url(#_412348071003042clip-0)"/><g transform="matrix(1,0,0,1,0,0)"><text x="494.63" y="620.52" style="fill: rgb(64,64,64); fill-opacity: 1.0; font-family: Tahoma; font-size: 12px;" clip-path="url(#_412348071003042clip-0)">24</text></g><line x1="501.13" y1="606" x2="501.13" y2="604" style="stroke-width: 0.5;stroke: rgb(128,128,128);stroke-opacity: 1.0;stroke-linecap: square;shape-rendering:crispEdges;" transform="matrix(1,0,0,1,0,0)" clip-path="url(#_412348071003042clip-0)"/><g transform="matrix(1,0,0,1,0,0)"><text x="524.51" y="620.52" style="fill: rgb(64,64,64); fill-opacity: 1.0; font-family: Tahoma; font-size: 12px;" clip-path="url(#_412348071003042clip-0)">26</text></g><line x1="531.01" y1="606" x2="531.01" y2="604" style="stroke-width: 0.5;stroke: rgb(128,128,128);stroke-opacity: 1.0;stroke-linecap: square;shape-rendering:crispEdges;" transform="matrix(1,0,0,1,0,0)" clip-path="url(#_412348071003042clip-0)"/><g transform="matrix(1,0,0,1,0,0)"><text x="554.39" y="620.52" style="fill: rgb(64,64,64); fill-opacity: 1.0; font-family: Tahoma; font-size: 12px;" clip-path="url(#_412348071003042clip-0)">28</text></g><line x1="560.89" y1="606" x2="560.89" y2="604" style="stroke-width: 0.5;stroke: rgb(128,128,128);stroke-opacity: 1.0;stroke-linecap: square;shape-rendering:crispEdges;" transform="matrix(1,0,0,1,0,0)" clip-path="url(#_412348071003042clip-0)"/><g transform="matrix(1,0,0,1,0,0)"><text x="584.27" y="620.52" style="fill: rgb(64,64,64); fill-opacity: 1.0; font-family: Tahoma; font-size: 12px;" clip-path="url(#_412348071003042clip-0)">30</text></g><line x1="590.77" y1="606" x2="590.77" y2="604" style="stroke-width: 0.5;stroke: rgb(128,128,128);stroke-opacity: 1.0;stroke-linecap: square;shape-rendering:crispEdges;" transform="matrix(1,0,0,1,0,0)" clip-path="url(#_412348071003042clip-0)"/><g transform="matrix(1,0,0,1,0,0)"><text x="614.15" y="620.52" style="fill: rgb(64,64,64); fill-opacity: 1.0; font-family: Tahoma; font-size: 12px;" clip-path="url(#_412348071003042clip-0)">32</text></g><line x1="620.65" y1="606" x2="620.65" y2="604" style="stroke-width: 0.5;stroke: rgb(128,128,128);stroke-opacity: 1.0;stroke-linecap: square;shape-rendering:crispEdges;" transform="matrix(1,0,0,1,0,0)" clip-path="url(#_412348071003042clip-0)"/><g transform="matrix(1,0,0,1,0,0)"><text x="329.5" y="639.59" style="fill: rgb(64,64,64); fill-opacity: 1.0; font-family: Tahoma; font-size: 14px; font-weight: bold;" clip-path="url(#_412348071003042clip-0)">x (m)</text></g><line x1="56" y1="35" x2="56" y2="600" style="stroke-width: 0.5;stroke: rgb(128,128,128);stroke-opacity: 1.0;stroke-linecap: square;shape-rendering:crispEdges;" transform="matrix(1,0,0,1,0,0)" clip-path="url(#_412348071003042clip-0)"/><g transform="matrix(1,0,0,1,0,0)"><text x="33" y="585.39" style="fill: rgb(64,64,64); fill-opacity: 1.0; font-family: Tahoma; font-size: 12px;" clip-path="url(#_412348071003042clip-0)">-18</text></g><line x1="54" y1="580.37" x2="56" y2="580.37" style="stroke-width: 0.5;stroke: rgb(128,128,128);stroke-opacity: 1.0;stroke-linecap: square;shape-rendering:crispEdges;" transform="matrix(1,0,0,1,0,0)" clip-path="url(#_412348071003042clip-0)"/><g transform="matrix(1,0,0,1,0,0)"><text x="33" y="556.18" style="fill: rgb(64,64,64); fill-opacity: 1.0; font-family: Tahoma; font-size: 12px;" clip-path="url(#_412348071003042clip-0)">-16</text></g><line x1="54" y1="551.16" x2="56" y2="551.16" style="stroke-width: 0.5;stroke: rgb(128,128,128);stroke-opacity: 1.0;stroke-linecap: square;shape-rendering:crispEdges;" transform="matrix(1,0,0,1,0,0)" clip-path="url(#_412348071003042clip-0)"/><g transform="matrix(1,0,0,1,0,0)"><text x="33" y="526.98" style="fill: rgb(64,64,64); fill-opacity: 1.0; font-family: Tahoma; font-size: 12px;" clip-path="url(#_412348071003042clip-0)">-14</text></g><line x1="54" y1="521.96" x2="56" y2="521.96" style="stroke-width: 0.5;stroke: rgb(128,128,128);stroke-opacity: 1.0;stroke-linecap: square;shape-rendering:crispEdges;" transform="matrix(1,0,0,1,0,0)" clip-path="url(#_412348071003042clip-0)"/><g transform="matrix(1,0,0,1,0,0)"><text x="33" y="497.77" style="fill: rgb(64,64,64); fill-opacity: 1.0; font-family: Tahoma; font-size: 12px;" clip-path="url(#_412348071003042clip-0)">-12</text></g><line x1="54" y1="492.75" x2="56" y2="492.75" style="stroke-width: 0.5;stroke: rgb(128,128,128);stroke-opacity: 1.0;stroke-linecap: square;shape-rendering:crispEdges;" transform="matrix(1,0,0,1,0,0)" clip-path="url(#_412348071003042clip-0)"/><g transform="matrix(1,0,0,1,0,0)"><text x="33" y="468.56" style="fill: rgb(64,64,64); fill-opacity: 1.0; font-family: Tahoma; font-size: 12px;" clip-path="url(#_412348071003042clip-0)">-10</text></g><line x1="54" y1="463.54" x2="56" y2="463.54" style="stroke-width: 0.5;stroke: rgb(128,128,128);stroke-opacity: 1.0;stroke-linecap: square;shape-rendering:crispEdges;" transform="matrix(1,0,0,1,0,0)" clip-path="url(#_412348071003042clip-0)"/><g transform="matrix(1,0,0,1,0,0)"><text x="39" y="439.35" style="fill: rgb(64,64,64); fill-opacity: 1.0; font-family: Tahoma; font-size: 12px;" clip-path="url(#_412348071003042clip-0)">-8</text></g><line x1="54" y1="434.33" x2="56" y2="434.33" style="stroke-width: 0.5;stroke: rgb(128,128,128);stroke-opacity: 1.0;stroke-linecap: square;shape-rendering:crispEdges;" transform="matrix(1,0,0,1,0,0)" clip-path="url(#_412348071003042clip-0)"/><g transform="matrix(1,0,0,1,0,0)"><text x="39" y="410.15" style="fill: rgb(64,64,64); fill-opacity: 1.0; font-family: Tahoma; font-size: 12px;" clip-path="url(#_412348071003042clip-0)">-6</text></g><line x1="54" y1="405.12" x2="56" y2="405.12" style="stroke-width: 0.5;stroke: rgb(128,128,128);stroke-opacity: 1.0;stroke-linecap: square;shape-rendering:crispEdges;" transform="matrix(1,0,0,1,0,0)" clip-path="url(#_412348071003042clip-0)"/><g transform="matrix(1,0,0,1,0,0)"><text x="39" y="380.94" style="fill: rgb(64,64,64); fill-opacity: 1.0; font-family: Tahoma; font-size: 12px;" clip-path="url(#_412348071003042clip-0)">-4</text></g><line x1="54" y1="375.92" x2="56" y2="375.92" style="stroke-width: 0.5;stroke: rgb(128,128,128);stroke-opacity: 1.0;stroke-linecap: square;shape-rendering:crispEdges;" transform="matrix(1,0,0,1,0,0)" clip-path="url(#_412348071003042clip-0)"/><g transform="matrix(1,0,0,1,0,0)"><text x="39" y="351.73" style="fill: rgb(64,64,64); fill-opacity: 1.0; font-family: Tahoma; font-size: 12px;" clip-path="url(#_412348071003042clip-0)">-2</text></g><line x1="54" y1="346.71" x2="56" y2="346.71" style="stroke-width: 0.5;stroke: rgb(128,128,128);stroke-opacity: 1.0;stroke-linecap: square;shape-rendering:crispEdges;" transform="matrix(1,0,0,1,0,0)" clip-path="url(#_412348071003042clip-0)"/><g transform="matrix(1,0,0,1,0,0)"><text x="43" y="322.52" style="fill: rgb(64,64,64); fill-opacity: 1.0; font-family: Tahoma; font-size: 12px;" clip-path="url(#_412348071003042clip-0)">0</text></g><line x1="54" y1="317.5" x2="56" y2="317.5" style="stroke-width: 0.5;stroke: rgb(128,128,128);stroke-opacity: 1.0;stroke-linecap: square;shape-rendering:crispEdges;" transform="matrix(1,0,0,1,0,0)" clip-path="url(#_412348071003042clip-0)"/><g transform="matrix(1,0,0,1,0,0)"><text x="43" y="293.31" style="fill: rgb(64,64,64); fill-opacity: 1.0; font-family: Tahoma; font-size: 12px;" clip-path="url(#_412348071003042clip-0)">2</text></g><line x1="54" y1="288.29" x2="56" y2="288.29" style="stroke-width: 0.5;stroke: rgb(128,128,128);stroke-opacity: 1.0;stroke-linecap: square;shape-rendering:crispEdges;" transform="matrix(1,0,0,1,0,0)" clip-path="url(#_412348071003042clip-0)"/><g transform="matrix(1,0,0,1,0,0)"><text x="43" y="264.11" style="fill: rgb(64,64,64); fill-opacity: 1.0; font-family: Tahoma; font-size: 12px;" clip-path="url(#_412348071003042clip-0)">4</text></g><line x1="54" y1="259.08" x2="56" y2="259.08" style="stroke-width: 0.5;stroke: rgb(128,128,128);stroke-opacity: 1.0;stroke-linecap: square;shape-rendering:crispEdges;" transform="matrix(1,0,0,1,0,0)" clip-path="url(#_412348071003042clip-0)"/><g transform="matrix(1,0,0,1,0,0)"><text x="43" y="234.9" style="fill: rgb(64,64,64); fill-opacity: 1.0; font-family: Tahoma; font-size: 12px;" clip-path="url(#_412348071003042clip-0)">6</text></g><line x1="54" y1="229.88" x2="56" y2="229.88" style="stroke-width: 0.5;stroke: rgb(128,128,128);stroke-opacity: 1.0;stroke-linecap: square;shape-rendering:crispEdges;" transform="matrix(1,0,0,1,0,0)" clip-path="url(#_412348071003042clip-0)"/><g transform="matrix(1,0,0,1,0,0)"><text x="43" y="205.69" style="fill: rgb(64,64,64); fill-opacity: 1.0; font-family: Tahoma; font-size: 12px;" clip-path="url(#_412348071003042clip-0)">8</text></g><line x1="54" y1="200.67" x2="56" y2="200.67" style="stroke-width: 0.5;stroke: rgb(128,128,128);stroke-opacity: 1.0;stroke-linecap: square;shape-rendering:crispEdges;" transform="matrix(1,0,0,1,0,0)" clip-path="url(#_412348071003042clip-0)"/><g transform="matrix(1,0,0,1,0,0)"><text x="37" y="176.48" style="fill: rgb(64,64,64); fill-opacity: 1.0; font-family: Tahoma; font-size: 12px;" clip-path="url(#_412348071003042clip-0)">10</text></g><line x1="54" y1="171.46" x2="56" y2="171.46" style="stroke-width: 0.5;stroke: rgb(128,128,128);stroke-opacity: 1.0;stroke-linecap: square;shape-rendering:crispEdges;" transform="matrix(1,0,0,1,0,0)" clip-path="url(#_412348071003042clip-0)"/><g transform="matrix(1,0,0,1,0,0)"><text x="37" y="147.27" style="fill: rgb(64,64,64); fill-opacity: 1.0; font-family: Tahoma; font-size: 12px;" clip-path="url(#_412348071003042clip-0)">12</text></g><line x1="54" y1="142.25" x2="56" y2="142.25" style="stroke-width: 0.5;stroke: rgb(128,128,128);stroke-opacity: 1.0;stroke-linecap: square;shape-rendering:crispEdges;" transform="matrix(1,0,0,1,0,0)" clip-path="url(#_412348071003042clip-0)"/><g transform="matrix(1,0,0,1,0,0)"><text x="37" y="118.07" style="fill: rgb(64,64,64); fill-opacity: 1.0; font-family: Tahoma; font-size: 12px;" clip-path="url(#_412348071003042clip-0)">14</text></g><line x1="54" y1="113.04" x2="56" y2="113.04" style="stroke-width: 0.5;stroke: rgb(128,128,128);stroke-opacity: 1.0;stroke-linecap: square;shape-rendering:crispEdges;" transform="matrix(1,0,0,1,0,0)" clip-path="url(#_412348071003042clip-0)"/><g transform="matrix(1,0,0,1,0,0)"><text x="37" y="88.86" style="fill: rgb(64,64,64); fill-opacity: 1.0; font-family: Tahoma; font-size: 12px;" clip-path="url(#_412348071003042clip-0)">16</text></g><line x1="54" y1="83.84" x2="56" y2="83.84" style="stroke-width: 0.5;stroke: rgb(128,128,128);stroke-opacity: 1.0;stroke-linecap: square;shape-rendering:crispEdges;" transform="matrix(1,0,0,1,0,0)" clip-path="url(#_412348071003042clip-0)"/><g transform="matrix(1,0,0,1,0,0)"><text x="37" y="59.65" style="fill: rgb(64,64,64); fill-opacity: 1.0; font-family: Tahoma; font-size: 12px;" clip-path="url(#_412348071003042clip-0)">18</text></g><line x1="54" y1="54.63" x2="56" y2="54.63" style="stroke-width: 0.5;stroke: rgb(128,128,128);stroke-opacity: 1.0;stroke-linecap: square;shape-rendering:crispEdges;" transform="matrix(1,0,0,1,0,0)" clip-path="url(#_412348071003042clip-0)"/><g style="fill: rgb(64,64,64); fill-opacity: 1.0; stroke: none" transform="matrix(0,-1,1,0,-298,337)" clip-path="url(#_412348071003042clip-1)"><path d="M 7.55 323.11 L 0.83 323.11 L 0.83 321.53 L 4.5 317.23 L 1 317.23 L 1 315.44 L 7.47 315.44 L 7.47 316.98 L 3.8 321.28 L 7.55 321.28 L 7.55 323.11 Z  M 17.78 325.92 L 15.26 325.92 Q 14.68 325.23 14.21 324.5 Q 13.75 323.76 13.4 322.94 Q 13.07 322.14 12.89 321.19 Q 12.71 320.23 12.71 319.2 Q 12.71 318.08 12.9 317.16 Q 13.09 316.23 13.39 315.48 Q 13.71 314.66 14.19 313.92 Q 14.67 313.19 15.26 312.47 L 17.78 312.47 L 17.78 312.67 Q 17.21 313.17 16.71 313.8 Q 16.21 314.44 15.79 315.28 Q 15.37 316.09 15.12 317.08 Q 14.87 318.08 14.87 319.2 Q 14.87 320.37 15.11 321.32 Q 15.35 322.26 15.79 323.11 Q 16.2 323.92 16.71 324.58 Q 17.23 325.25 17.78 325.73 L 17.78 325.92 Z  M 28.42 323.11 L 28.42 319.28 Q 28.42 318.7 28.39 318.31 Q 28.37 317.92 28.27 317.69 Q 28.17 317.44 27.95 317.32 Q 27.73 317.2 27.35 317.2 Q 27.07 317.2 26.81 317.33 Q 26.54 317.45 26.23 317.67 L 26.23 323.11 L 23.82 323.11 L 23.82 319.28 Q 23.82 318.72 23.8 318.32 Q 23.77 317.92 23.67 317.69 Q 23.57 317.44 23.35 317.32 Q 23.13 317.2 22.76 317.2 Q 22.46 317.2 22.18 317.34 Q 21.9 317.48 21.63 317.67 L 21.63 323.11 L 19.24 323.11 L 19.24 315.44 L 21.63 315.44 L 21.63 316.28 Q 22.21 315.78 22.74 315.5 Q 23.26 315.22 23.9 315.22 Q 24.62 315.22 25.15 315.55 Q 25.68 315.89 25.96 316.55 Q 26.65 315.91 27.26 315.56 Q 27.87 315.22 28.49 315.22 Q 29.04 315.22 29.46 315.39 Q 29.88 315.56 30.18 315.91 Q 30.49 316.26 30.66 316.78 Q 30.82 317.3 30.82 318.11 L 30.82 323.11 L 28.42 323.11 Z  M 37.27 319.2 Q 37.27 320.23 37.09 321.19 Q 36.91 322.14 36.59 322.94 Q 36.25 323.76 35.77 324.5 Q 35.3 325.23 34.72 325.92 L 32.22 325.92 L 32.22 325.73 Q 32.77 325.25 33.28 324.59 Q 33.8 323.94 34.2 323.11 Q 34.62 322.26 34.88 321.32 Q 35.12 320.37 35.12 319.2 Q 35.12 318.08 34.87 317.08 Q 34.61 316.09 34.2 315.28 Q 33.77 314.44 33.27 313.8 Q 32.77 313.17 32.22 312.67 L 32.22 312.47 L 34.72 312.47 Q 35.31 313.19 35.79 313.92 Q 36.27 314.66 36.59 315.48 Q 36.89 316.23 37.08 317.16 Q 37.27 318.08 37.27 319.2 Z "/></g><line x1="82.81" y1="35" x2="82.81" y2="600" style="stroke-width: 0.5;stroke: rgb(128,128,128);stroke-opacity: 0.5;stroke-linejoin: bevel;stroke-dasharray: 2.0, 2.0;shape-rendering:crispEdges;" transform="matrix(1,0,0,1,0,0)" clip-path="url(#_412348071003042clip-2)"/><line x1="112.69" y1="35" x2="112.69" y2="600" style="stroke-width: 0.5;stroke: rgb(128,128,128);stroke-opacity: 0.5;stroke-linejoin: bevel;stroke-dasharray: 2.0, 2.0;shape-rendering:crispEdges;" transform="matrix(1,0,0,1,0,0)" clip-path="url(#_412348071003042clip-2)"/><line x1="142.57" y1="35" x2="142.57" y2="600" style="stroke-width: 0.5;stroke: rgb(128,128,128);stroke-opacity: 0.5;stroke-linejoin: bevel;stroke-dasharray: 2.0, 2.0;shape-rendering:crispEdges;" transform="matrix(1,0,0,1,0,0)" clip-path="url(#_412348071003042clip-2)"/><line x1="172.45" y1="35" x2="172.45" y2="600" style="stroke-width: 0.5;stroke: rgb(128,128,128);stroke-opacity: 0.5;stroke-linejoin: bevel;stroke-dasharray: 2.0, 2.0;shape-rendering:crispEdges;" transform="matrix(1,0,0,1,0,0)" clip-path="url(#_412348071003042clip-2)"/><line x1="202.33" y1="35" x2="202.33" y2="600" style="stroke-width: 0.5;stroke: rgb(128,128,128);stroke-opacity: 0.5;stroke-linejoin: bevel;stroke-dasharray: 2.0, 2.0;shape-rendering:crispEdges;" transform="matrix(1,0,0,1,0,0)" clip-path="url(#_412348071003042clip-2)"/><line x1="232.21" y1="35" x2="232.21" y2="600" style="stroke-width: 0.5;stroke: rgb(128,128,128);stroke-opacity: 0.5;stroke-linejoin: bevel;stroke-dasharray: 2.0, 2.0;shape-rendering:crispEdges;" transform="matrix(1,0,0,1,0,0)" clip-path="url(#_412348071003042clip-2)"/><line x1="262.09" y1="35" x2="262.09" y2="600" style="stroke-width: 0.5;stroke: rgb(128,128,128);stroke-opacity: 0.5;stroke-linejoin: bevel;stroke-dasharray: 2.0, 2.0;shape-rendering:crispEdges;" transform="matrix(1,0,0,1,0,0)" clip-path="url(#_412348071003042clip-2)"/><line x1="291.97" y1="35" x2="291.97" y2="600" style="stroke-width: 0.5;stroke: rgb(128,128,128);stroke-opacity: 0.5;stroke-linejoin: bevel;stroke-dasharray: 2.0, 2.0;shape-rendering:crispEdges;" transform="matrix(1,0,0,1,0,0)" clip-path="url(#_412348071003042clip-2)"/><line x1="321.85" y1="35" x2="321.85" y2="600" style="stroke-width: 0.5;stroke: rgb(128,128,128);stroke-opacity: 0.5;stroke-linejoin: bevel;stroke-dasharray: 2.0, 2.0;shape-rendering:crispEdges;" transform="matrix(1,0,0,1,0,0)" clip-path="url(#_412348071003042clip-2)"/><line x1="351.73" y1="35" x2="351.73" y2="600" style="stroke-width: 0.5;stroke: rgb(128,128,128);stroke-opacity: 0.5;stroke-linejoin: bevel;stroke-dasharray: 2.0, 2.0;shape-rendering:crispEdges;" transform="matrix(1,0,0,1,0,0)" clip-path="url(#_412348071003042clip-2)"/><line x1="381.61" y1="35" x2="381.61" y2="600" style="stroke-width: 0.5;stroke: rgb(128,128,128);stroke-opacity: 0.5;stroke-linejoin: bevel;stroke-dasharray: 2.0, 2.0;shape-rendering:crispEdges;" transform="matrix(1,0,0,1,0,0)" clip-path="url(#_412348071003042clip-2)"/><line x1="411.49" y1="35" x2="411.49" y2="600" style="stroke-width: 0.5;stroke: rgb(128,128,128);stroke-opacity: 0.5;stroke-linejoin: bevel;stroke-dasharray: 2.0, 2.0;shape-rendering:crispEdges;" transform="matrix(1,0,0,1,0,0)" clip-path="url(#_412348071003042clip-2)"/><line x1="441.37" y1="35" x2="441.37" y2="600" style="stroke-width: 0.5;stroke: rgb(128,128,128);stroke-opacity: 0.5;stroke-linejoin: bevel;stroke-dasharray: 2.0, 2.0;shape-rendering:crispEdges;" transform="matrix(1,0,0,1,0,0)" clip-path="url(#_412348071003042clip-2)"/><line x1="471.25" y1="35" x2="471.25" y2="600" style="stroke-width: 0.5;stroke: rgb(128,128,128);stroke-opacity: 0.5;stroke-linejoin: bevel;stroke-dasharray: 2.0, 2.0;shape-rendering:crispEdges;" transform="matrix(1,0,0,1,0,0)" clip-path="url(#_412348071003042clip-2)"/><line x1="501.13" y1="35" x2="501.13" y2="600" style="stroke-width: 0.5;stroke: rgb(128,128,128);stroke-opacity: 0.5;stroke-linejoin: bevel;stroke-dasharray: 2.0, 2.0;shape-rendering:crispEdges;" transform="matrix(1,0,0,1,0,0)" clip-path="url(#_412348071003042clip-2)"/><line x1="531.01" y1="35" x2="531.01" y2="600" style="stroke-width: 0.5;stroke: rgb(128,128,128);stroke-opacity: 0.5;stroke-linejoin: bevel;stroke-dasharray: 2.0, 2.0;shape-rendering:crispEdges;" transform="matrix(1,0,0,1,0,0)" clip-path="url(#_412348071003042clip-2)"/><line x1="560.89" y1="35" x2="560.89" y2="600" style="stroke-width: 0.5;stroke: rgb(128,128,128);stroke-opacity: 0.5;stroke-linejoin: bevel;stroke-dasharray: 2.0, 2.0;shape-rendering:crispEdges;" transform="matrix(1,0,0,1,0,0)" clip-path="url(#_412348071003042clip-2)"/><line x1="590.77" y1="35" x2="590.77" y2="600" style="stroke-width: 0.5;stroke: rgb(128,128,128);stroke-opacity: 0.5;stroke-linejoin: bevel;stroke-dasharray: 2.0, 2.0;shape-rendering:crispEdges;" transform="matrix(1,0,0,1,0,0)" clip-path="url(#_412348071003042clip-2)"/><line x1="620.65" y1="35" x2="620.65" y2="600" style="stroke-width: 0.5;stroke: rgb(128,128,128);stroke-opacity: 0.5;stroke-linejoin: bevel;stroke-dasharray: 2.0, 2.0;shape-rendering:crispEdges;" transform="matrix(1,0,0,1,0,0)" clip-path="url(#_412348071003042clip-2)"/><line x1="60" y1="580.37" x2="638" y2="580.37" style="stroke-width: 0.5;stroke: rgb(128,128,128);stroke-opacity: 0.5;stroke-linejoin: bevel;stroke-dasharray: 2.0, 2.0;shape-rendering:crispEdges;" transform="matrix(1,0,0,1,0,0)" clip-path="url(#_412348071003042clip-2)"/><line x1="60" y1="551.16" x2="638" y2="551.16" style="stroke-width: 0.5;stroke: rgb(128,128,128);stroke-opacity: 0.5;stroke-linejoin: bevel;stroke-dasharray: 2.0, 2.0;shape-rendering:crispEdges;" transform="matrix(1,0,0,1,0,0)" clip-path="url(#_412348071003042clip-2)"/><line x1="60" y1="521.96" x2="638" y2="521.96" style="stroke-width: 0.5;stroke: rgb(128,128,128);stroke-opacity: 0.5;stroke-linejoin: bevel;stroke-dasharray: 2.0, 2.0;shape-rendering:crispEdges;" transform="matrix(1,0,0,1,0,0)" clip-path="url(#_412348071003042clip-2)"/><line x1="60" y1="492.75" x2="638" y2="492.75" style="stroke-width: 0.5;stroke: rgb(128,128,128);stroke-opacity: 0.5;stroke-linejoin: bevel;stroke-dasharray: 2.0, 2.0;shape-rendering:crispEdges;" transform="matrix(1,0,0,1,0,0)" clip-path="url(#_412348071003042clip-2)"/><line x1="60" y1="463.54" x2="638" y2="463.54" style="stroke-width: 0.5;stroke: rgb(128,128,128);stroke-opacity: 0.5;stroke-linejoin: bevel;stroke-dasharray: 2.0, 2.0;shape-rendering:crispEdges;" transform="matrix(1,0,0,1,0,0)" clip-path="url(#_412348071003042clip-2)"/><line x1="60" y1="434.33" x2="638" y2="434.33" style="stroke-width: 0.5;stroke: rgb(128,128,128);stroke-opacity: 0.5;stroke-linejoin: bevel;stroke-dasharray: 2.0, 2.0;shape-rendering:crispEdges;" transform="matrix(1,0,0,1,0,0)" clip-path="url(#_412348071003042clip-2)"/><line x1="60" y1="405.12" x2="638" y2="405.12" style="stroke-width: 0.5;stroke: rgb(128,128,128);stroke-opacity: 0.5;stroke-linejoin: bevel;stroke-dasharray: 2.0, 2.0;shape-rendering:crispEdges;" transform="matrix(1,0,0,1,0,0)" clip-path="url(#_412348071003042clip-2)"/><line x1="60" y1="375.92" x2="638" y2="375.92" style="stroke-width: 0.5;stroke: rgb(128,128,128);stroke-opacity: 0.5;stroke-linejoin: bevel;stroke-dasharray: 2.0, 2.0;shape-rendering:crispEdges;" transform="matrix(1,0,0,1,0,0)" clip-path="url(#_412348071003042clip-2)"/><line x1="60" y1="346.71" x2="638" y2="346.71" style="stroke-width: 0.5;stroke: rgb(128,128,128);stroke-opacity: 0.5;stroke-linejoin: bevel;stroke-dasharray: 2.0, 2.0;shape-rendering:crispEdges;" transform="matrix(1,0,0,1,0,0)" clip-path="url(#_412348071003042clip-2)"/><line x1="60" y1="317.5" x2="638" y2="317.5" style="stroke-width: 0.5;stroke: rgb(128,128,128);stroke-opacity: 0.5;stroke-linejoin: bevel;stroke-dasharray: 2.0, 2.0;shape-rendering:crispEdges;" transform="matrix(1,0,0,1,0,0)" clip-path="url(#_412348071003042clip-2)"/><line x1="60" y1="288.29" x2="638" y2="288.29" style="stroke-width: 0.5;stroke: rgb(128,128,128);stroke-opacity: 0.5;stroke-linejoin: bevel;stroke-dasharray: 2.0, 2.0;shape-rendering:crispEdges;" transform="matrix(1,0,0,1,0,0)" clip-path="url(#_412348071003042clip-2)"/><line x1="60" y1="259.08" x2="638" y2="259.08" style="stroke-width: 0.5;stroke: rgb(128,128,128);stroke-opacity: 0.5;stroke-linejoin: bevel;stroke-dasharray: 2.0, 2.0;shape-rendering:crispEdges;" transform="matrix(1,0,0,1,0,0)" clip-path="url(#_412348071003042clip-2)"/><line x1="60" y1="229.88" x2="638" y2="229.88" style="stroke-width: 0.5;stroke: rgb(128,128,128);stroke-opacity: 0.5;stroke-linejoin: bevel;stroke-dasharray: 2.0, 2.0;shape-rendering:crispEdges;" transform="matrix(1,0,0,1,0,0)" clip-path="url(#_412348071003042clip-2)"/><line x1="60" y1="200.67" x2="638" y2="200.67" style="stroke-width: 0.5;stroke: rgb(128,128,128);stroke-opacity: 0.5;stroke-linejoin: bevel;stroke-dasharray: 2.0, 2.0;shape-rendering:crispEdges;" transform="matrix(1,0,0,1,0,0)" clip-path="url(#_412348071003042clip-2)"/><line x1="60" y1="171.46" x2="638" y2="171.46" style="stroke-width: 0.5;stroke: rgb(128,128,128);stroke-opacity: 0.5;stroke-linejoin: bevel;stroke-dasharray: 2.0, 2.0;shape-rendering:crispEdges;" transform="matrix(1,0,0,1,0,0)" clip-path="url(#_412348071003042clip-2)"/><line x1="60" y1="142.25" x2="638" y2="142.25" style="stroke-width: 0.5;stroke: rgb(128,128,128);stroke-opacity: 0.5;stroke-linejoin: bevel;stroke-dasharray: 2.0, 2.0;shape-rendering:crispEdges;" transform="matrix(1,0,0,1,0,0)" clip-path="url(#_412348071003042clip-2)"/><line x1="60" y1="113.04" x2="638" y2="113.04" style="stroke-width: 0.5;stroke: rgb(128,128,128);stroke-opacity: 0.5;stroke-linejoin: bevel;stroke-dasharray: 2.0, 2.0;shape-rendering:crispEdges;" transform="matrix(1,0,0,1,0,0)" clip-path="url(#_412348071003042clip-2)"/><line x1="60" y1="83.84" x2="638" y2="83.84" style="stroke-width: 0.5;stroke: rgb(128,128,128);stroke-opacity: 0.5;stroke-linejoin: bevel;stroke-dasharray: 2.0, 2.0;shape-rendering:crispEdges;" transform="matrix(1,0,0,1,0,0)" clip-path="url(#_412348071003042clip-2)"/><line x1="60" y1="54.63" x2="638" y2="54.63" style="stroke-width: 0.5;stroke: rgb(128,128,128);stroke-opacity: 0.5;stroke-linejoin: bevel;stroke-dasharray: 2.0, 2.0;shape-rendering:crispEdges;" transform="matrix(1,0,0,1,0,0)" clip-path="url(#_412348071003042clip-2)"/><line x1="142.57" y1="329.78" x2="143.16" y2="327.35" style="stroke-width: 1.5;stroke: rgb(0,0,0);stroke-opacity: 0.5;stroke-linecap: round;stroke-linejoin: round;shape-rendering:geometricPrecision;" transform="matrix(1,0,0,1,0,0)" clip-path="url(#_412348071003042clip-2)"/><line x1="143.16" y1="327.35" x2="146.49" y2="323.52" style="stroke-width: 1.5;stroke: rgb(0,0,0);stroke-opacity: 0.5;stroke-linecap: round;stroke-linejoin: round;shape-rendering:geometricPrecision;" transform="matrix(1,0,0,1,0,0)" clip-path="url(#_412348071003042clip-2)"/><line x1="146.49" y1="323.52" x2="153.46" y2="317.96" style="stroke-width: 1.5;stroke: rgb(0,0,0);stroke-opacity: 0.5;stroke-linecap: round;stroke-linejoin: round;shape-rendering:geometricPrecision;" transform="matrix(1,0,0,1,0,0)" clip-path="url(#_412348071003042clip-2)"/><line x1="153.46" y1="317.96" x2="163.47" y2="311.18" style="stroke-width: 1.5;stroke: rgb(0,0,0);stroke-opacity: 0.5;stroke-linecap: round;stroke-linejoin: round;shape-rendering:geometricPrecision;" transform="matrix(1,0,0,1,0,0)" clip-path="url(#_412348071003042clip-2)"/><line x1="163.47" y1="311.18" x2="174.99" y2="304.18" style="stroke-width: 1.5;stroke: rgb(0,0,0);stroke-opacity: 0.5;stroke-linecap: round;stroke-linejoin: round;shape-rendering:geometricPrecision;" transform="matrix(1,0,0,1,0,0)" clip-path="url(#_412348071003042clip-2)"/><line x1="174.99" y1="304.18" x2="186.15" y2="298.1" style="stroke-width: 1.5;stroke: rgb(0,0,0);stroke-opacity: 0.5;stroke-linecap: round;stroke-linejoin: round;shape-rendering:geometricPrecision;" transform="matrix(1,0,0,1,0,0)" clip-path="url(#_412348071003042clip-2)"/><line x1="186.15" y1="298.1" x2="195.29" y2="293.86" style="stroke-width: 1.5;stroke: rgb(0,0,0);stroke-opacity: 0.5;stroke-linecap: round;stroke-linejoin: round;shape-rendering:geometricPrecision;" transform="matrix(1,0,0,1,0,0)" clip-path="url(#_412348071003042clip-2)"/><line x1="195.29" y1="293.86" x2="201.59" y2="291.83" style="stroke-width: 1.5;stroke: rgb(0,0,0);stroke-opacity: 0.5;stroke-linecap: round;stroke-linejoin: round;shape-rendering:geometricPrecision;" transform="matrix(1,0,0,1,0,0)" clip-path="url(#_412348071003042clip-2)"/><line x1="201.59" y1="291.83" x2="205.6" y2="291.48" style="stroke-width: 1.5;stroke: rgb(0,0,0);stroke-opacity: 0.5;stroke-linecap: round;stroke-linejoin: round;shape-rendering:geometricPrecision;" transform="matrix(1,0,0,1,0,0)" clip-path="url(#_412348071003042clip-2)"/><line x1="205.6" y1="291.48" x2="251.35" y2="291.48" style="stroke-width: 1.5;stroke: rgb(0,0,0);stroke-opacity: 0.5;stroke-linecap: round;stroke-linejoin: round;shape-rendering:geometricPrecision;" transform="matrix(1,0,0,1,0,0)" clip-path="url(#_412348071003042clip-2)"/><line x1="251.35" y1="291.48" x2="311.11" y2="291.48" style="stroke-width: 1.5;stroke: rgb(0,0,0);stroke-opacity: 0.5;stroke-linecap: round;stroke-linejoin: round;shape-rendering:geometricPrecision;" transform="matrix(1,0,0,1,0,0)" clip-path="url(#_412348071003042clip-2)"/><line x1="311.11" y1="291.48" x2="384.88" y2="291.48" style="stroke-width: 1.5;stroke: rgb(0,0,0);stroke-opacity: 0.5;stroke-linecap: round;stroke-linejoin: round;shape-rendering:geometricPrecision;" transform="matrix(1,0,0,1,0,0)" clip-path="url(#_412348071003042clip-2)"/><line x1="384.88" y1="291.48" x2="403.11" y2="291.48" style="stroke-width: 1.5;stroke: rgb(0,0,0);stroke-opacity: 0.5;stroke-linecap: round;stroke-linejoin: round;shape-rendering:geometricPrecision;" transform="matrix(1,0,0,1,0,0)" clip-path="url(#_412348071003042clip-2)"/><line x1="403.11" y1="291.48" x2="428.13" y2="291.55" style="stroke-width: 1.5;stroke: rgb(0,0,0);stroke-opacity: 0.5;stroke-linecap: round;stroke-linejoin: round;shape-rendering:geometricPrecision;" transform="matrix(1,0,0,1,0,0)" clip-path="url(#_412348071003042clip-2)"/><line x1="428.13" y1="291.55" x2="457.17" y2="291.84" style="stroke-width: 1.5;stroke: rgb(0,0,0);stroke-opacity: 0.5;stroke-linecap: round;stroke-linejoin: round;shape-rendering:geometricPrecision;" transform="matrix(1,0,0,1,0,0)" clip-path="url(#_412348071003042clip-2)"/><line x1="457.17" y1="291.84" x2="486.83" y2="292.51" style="stroke-width: 1.5;stroke: rgb(0,0,0);stroke-opacity: 0.5;stroke-linecap: round;stroke-linejoin: round;shape-rendering:geometricPrecision;" transform="matrix(1,0,0,1,0,0)" clip-path="url(#_412348071003042clip-2)"/><line x1="486.83" y1="292.51" x2="513.65" y2="293.74" style="stroke-width: 1.5;stroke: rgb(0,0,0);stroke-opacity: 0.5;stroke-linecap: round;stroke-linejoin: round;shape-rendering:geometricPrecision;" transform="matrix(1,0,0,1,0,0)" clip-path="url(#_412348071003042clip-2)"/><line x1="513.65" y1="293.74" x2="534.72" y2="295.62" style="stroke-width: 1.5;stroke: rgb(0,0,0);stroke-opacity: 0.5;stroke-linecap: round;stroke-linejoin: round;shape-rendering:geometricPrecision;" transform="matrix(1,0,0,1,0,0)" clip-path="url(#_412348071003042clip-2)"/><line x1="534.72" y1="295.62" x2="548.3" y2="298.13" style="stroke-width: 1.5;stroke: rgb(0,0,0);stroke-opacity: 0.5;stroke-linecap: round;stroke-linejoin: round;shape-rendering:geometricPrecision;" transform="matrix(1,0,0,1,0,0)" clip-path="url(#_412348071003042clip-2)"/><line x1="548.3" y1="298.13" x2="554.4" y2="301.08" style="stroke-width: 1.5;stroke: rgb(0,0,0);stroke-opacity: 0.5;stroke-linecap: round;stroke-linejoin: round;shape-rendering:geometricPrecision;" transform="matrix(1,0,0,1,0,0)" clip-path="url(#_412348071003042clip-2)"/><line x1="554.4" y1="301.08" x2="555.43" y2="304.06" style="stroke-width: 1.5;stroke: rgb(0,0,0);stroke-opacity: 0.5;stroke-linecap: round;stroke-linejoin: round;shape-rendering:geometricPrecision;" transform="matrix(1,0,0,1,0,0)" clip-path="url(#_412348071003042clip-2)"/><line x1="555.43" y1="304.06" x2="555.43" y2="304.06" style="stroke-width: 1.5;stroke: rgb(0,0,0);stroke-opacity: 0.5;stroke-linecap: round;stroke-linejoin: round;shape-rendering:geometricPrecision;" transform="matrix(1,0,0,1,0,0)" clip-path="url(#_412348071003042clip-2)"/><line x1="555.43" y1="304.06" x2="554.05" y2="308.19" style="stroke-width: 1.5;stroke: rgb(0,0,0);stroke-opacity: 0.5;stroke-linecap: round;stroke-linejoin: round;shape-rendering:geometricPrecision;" transform="matrix(1,0,0,1,0,0)" clip-path="url(#_412348071003042clip-2)"/><line x1="554.05" y1="308.19" x2="546.21" y2="313.15" style="stroke-width: 1.5;stroke: rgb(0,0,0);stroke-opacity: 0.5;stroke-linecap: round;stroke-linejoin: round;shape-rendering:geometricPrecision;" transform="matrix(1,0,0,1,0,0)" clip-path="url(#_412348071003042clip-2)"/><line x1="546.21" y1="313.15" x2="529.71" y2="319.1" style="stroke-width: 1.5;stroke: rgb(0,0,0);stroke-opacity: 0.5;stroke-linecap: round;stroke-linejoin: round;shape-rendering:geometricPrecision;" transform="matrix(1,0,0,1,0,0)" clip-path="url(#_412348071003042clip-2)"/><line x1="529.71" y1="319.1" x2="505.6" y2="325.68" style="stroke-width: 1.5;stroke: rgb(0,0,0);stroke-opacity: 0.5;stroke-linecap: round;stroke-linejoin: round;shape-rendering:geometricPrecision;" transform="matrix(1,0,0,1,0,0)" clip-path="url(#_412348071003042clip-2)"/><line x1="505.6" y1="325.68" x2="476.84" y2="332.13" style="stroke-width: 1.5;stroke: rgb(0,0,0);stroke-opacity: 0.5;stroke-linecap: round;stroke-linejoin: round;shape-rendering:geometricPrecision;" transform="matrix(1,0,0,1,0,0)" clip-path="url(#_412348071003042clip-2)"/><line x1="476.84" y1="332.13" x2="447.17" y2="337.61" style="stroke-width: 1.5;stroke: rgb(0,0,0);stroke-opacity: 0.5;stroke-linecap: round;stroke-linejoin: round;shape-rendering:geometricPrecision;" transform="matrix(1,0,0,1,0,0)" clip-path="url(#_412348071003042clip-2)"/><line x1="447.17" y1="337.61" x2="420.25" y2="341.4" style="stroke-width: 1.5;stroke: rgb(0,0,0);stroke-opacity: 0.5;stroke-linecap: round;stroke-linejoin: round;shape-rendering:geometricPrecision;" transform="matrix(1,0,0,1,0,0)" clip-path="url(#_412348071003042clip-2)"/><line x1="420.25" y1="341.4" x2="398.93" y2="343.21" style="stroke-width: 1.5;stroke: rgb(0,0,0);stroke-opacity: 0.5;stroke-linecap: round;stroke-linejoin: round;shape-rendering:geometricPrecision;" transform="matrix(1,0,0,1,0,0)" clip-path="url(#_412348071003042clip-2)"/><line x1="398.93" y1="343.21" x2="384.88" y2="343.52" style="stroke-width: 1.5;stroke: rgb(0,0,0);stroke-opacity: 0.5;stroke-linecap: round;stroke-linejoin: round;shape-rendering:geometricPrecision;" transform="matrix(1,0,0,1,0,0)" clip-path="url(#_412348071003042clip-2)"/><line x1="384.88" y1="343.52" x2="311.11" y2="343.52" style="stroke-width: 1.5;stroke: rgb(0,0,0);stroke-opacity: 0.5;stroke-linecap: round;stroke-linejoin: round;shape-rendering:geometricPrecision;" transform="matrix(1,0,0,1,0,0)" clip-path="url(#_412348071003042clip-2)"/><line x1="311.11" y1="343.52" x2="251.35" y2="343.52" style="stroke-width: 1.5;stroke: rgb(0,0,0);stroke-opacity: 0.5;stroke-linecap: round;stroke-linejoin: round;shape-rendering:geometricPrecision;" transform="matrix(1,0,0,1,0,0)" clip-path="url(#_412348071003042clip-2)"/><line x1="251.35" y1="343.52" x2="205.6" y2="343.52" style="stroke-width: 1.5;stroke: rgb(0,0,0);stroke-opacity: 0.5;stroke-linecap: round;stroke-linejoin: round;shape-rendering:geometricPrecision;" transform="matrix(1,0,0,1,0,0)" clip-path="url(#_412348071003042clip-2)"/><line x1="205.6" y1="343.52" x2="196.67" y2="343.44" style="stroke-width: 1.5;stroke: rgb(0,0,0);stroke-opacity: 0.5;stroke-linecap: round;stroke-linejoin: round;shape-rendering:geometricPrecision;" transform="matrix(1,0,0,1,0,0)" clip-path="url(#_412348071003042clip-2)"/><line x1="196.67" y1="343.44" x2="187.05" y2="342.96" style="stroke-width: 1.5;stroke: rgb(0,0,0);stroke-opacity: 0.5;stroke-linecap: round;stroke-linejoin: round;shape-rendering:geometricPrecision;" transform="matrix(1,0,0,1,0,0)" clip-path="url(#_412348071003042clip-2)"/><line x1="187.05" y1="342.96" x2="176.81" y2="341.91" style="stroke-width: 1.5;stroke: rgb(0,0,0);stroke-opacity: 0.5;stroke-linecap: round;stroke-linejoin: round;shape-rendering:geometricPrecision;" transform="matrix(1,0,0,1,0,0)" clip-path="url(#_412348071003042clip-2)"/><line x1="176.81" y1="341.91" x2="166.59" y2="340.31" style="stroke-width: 1.5;stroke: rgb(0,0,0);stroke-opacity: 0.5;stroke-linecap: round;stroke-linejoin: round;shape-rendering:geometricPrecision;" transform="matrix(1,0,0,1,0,0)" clip-path="url(#_412348071003042clip-2)"/><line x1="166.59" y1="340.31" x2="157.33" y2="338.29" style="stroke-width: 1.5;stroke: rgb(0,0,0);stroke-opacity: 0.5;stroke-linecap: round;stroke-linejoin: round;shape-rendering:geometricPrecision;" transform="matrix(1,0,0,1,0,0)" clip-path="url(#_412348071003042clip-2)"/><line x1="157.33" y1="338.29" x2="149.96" y2="336.06" style="stroke-width: 1.5;stroke: rgb(0,0,0);stroke-opacity: 0.5;stroke-linecap: round;stroke-linejoin: round;shape-rendering:geometricPrecision;" transform="matrix(1,0,0,1,0,0)" clip-path="url(#_412348071003042clip-2)"/><line x1="149.96" y1="336.06" x2="145.15" y2="333.83" style="stroke-width: 1.5;stroke: rgb(0,0,0);stroke-opacity: 0.5;stroke-linecap: round;stroke-linejoin: round;shape-rendering:geometricPrecision;" transform="matrix(1,0,0,1,0,0)" clip-path="url(#_412348071003042clip-2)"/><line x1="145.15" y1="333.83" x2="142.95" y2="331.73" style="stroke-width: 1.5;stroke: rgb(0,0,0);stroke-opacity: 0.5;stroke-linecap: round;stroke-linejoin: round;shape-rendering:geometricPrecision;" transform="matrix(1,0,0,1,0,0)" clip-path="url(#_412348071003042clip-2)"/><line x1="142.95" y1="331.73" x2="142.57" y2="329.78" style="stroke-width: 1.5;stroke: rgb(0,0,0);stroke-opacity: 0.5;stroke-linecap: round;stroke-linejoin: round;shape-rendering:geometricPrecision;" transform="matrix(1,0,0,1,0,0)" clip-path="url(#_412348071003042clip-2)"/><g style="fill: rgb(255,255,255); fill-opacity: 0.5; stroke: none" transform="matrix(1,0,0,1,0,0)" clip-path="url(#_412348071003042clip-2)"><path d="M 142.57 317.5 L 142.57 329.78 L 143.16 327.35 L 146.49 323.52 L 153.46 317.96 L 163.47 311.18 L 174.99 304.18 L 186.15 298.1 L 195.29 293.86 L 201.59 291.83 L 205.6 291.48 L 251.35 291.48 L 311.11 291.48 L 384.88 291.48 L 403.11 291.48 L 428.13 291.55 L 457.17 291.84 L 486.83 292.51 L 513.65 293.74 L 534.72 295.62 L 548.3 298.13 L 554.4 301.08 L 555.43 304.06 L 555.43 304.06 L 554.05 308.19 L 546.21 313.15 L 529.71 319.1 L 505.6 325.68 L 476.84 332.13 L 447.17 337.61 L 420.25 341.4 L 398.93 343.21 L 384.88 343.52 L 311.11 343.52 L 251.35 343.52 L 205.6 343.52 L 196.67 343.44 L 187.05 342.96 L 176.81 341.91 L 166.59 340.31 L 157.33 338.29 L 149.96 336.06 L 145.15 333.83 L 142.95 331.73 L 142.57 329.78 L 142.57 317.5 Z "/></g><rect x="60" y="35" width="578" height="565" style="stroke-width: 0.5;stroke: rgb(0,0,0);stroke-opacity: 1.0;stroke-linecap: round;stroke-linejoin: round;shape-rendering:crispEdges;; fill: none" transform="matrix(1,0,0,1,0,0)" clip-path="url(#_412348071003042clip-0)"/></svg>
