<?xml version="1.0" encoding="UTF-8"?><svg id="svg" class="svg" width="700" height="600" xmlns="http://www.w3.org/2000/svg">
    <g id="page" width="700" height="600">
        <g id="graph" transform="translate(60,40)">
            <rect width="620" height="510" fill="blue" opacity="0.05"/>
            <rect width="620" height="510" fill="none" opacity="1.0" style="stroke: darkblue; stroke-width: 2px;"/>
            <g id="xAxis" class="axis" transform="translate(0,510)">
                <g class="tick" transform="translate(23.59940872135989,0)" style="opacity: 1;">
                    <line y2="-510" x2="0" style="fill: none; stroke: #808080; stroke-width: 0.8px; stroke-dasharray: 15px, 2px; font-style: normal; font-variant: normal; font-weight: normal; font-size: 10px; line-height: normal; font-family: sans-serif; shape-rendering: geometricprecision;"/>
                    <text dy=".71em" y="12" x="0" style="text-anchor: middle;">-15</text>
                </g>
                <g class="tick" transform="translate(119.06627248090659,0)" style="opacity: 1;">
                    <line y2="-510" x2="0" style="fill: none; stroke: #808080; stroke-width: 0.8px; stroke-dasharray: 15px, 2px; font-style: normal; font-variant: normal; font-weight: normal; font-size: 10px; line-height: normal; font-family: sans-serif; shape-rendering: geometricprecision;"/>
                    <text dy=".71em" y="12" x="0" style="text-anchor: middle;">-10</text>
                </g>
                <g class="tick" transform="translate(214.5331362404533,0)" style="opacity: 1;">
                    <line y2="-510" x2="0" style="fill: none; stroke: #808080; stroke-width: 0.8px; stroke-dasharray: 15px, 2px; font-style: normal; font-variant: normal; font-weight: normal; font-size: 10px; line-height: normal; font-family: sans-serif; shape-rendering: geometricprecision;"/>
                    <text dy=".71em" y="12" x="0" style="text-anchor: middle;">-5</text>
                </g>
                <g class="tick" transform="translate(310,0)" style="opacity: 1;">
                    <line y2="-510" x2="0" style="fill: none; stroke: #808080; stroke-width: 0.8px; stroke-dasharray: 15px, 2px; font-style: normal; font-variant: normal; font-weight: normal; font-size: 10px; line-height: normal; font-family: sans-serif; shape-rendering: geometricprecision;"/>
                    <text dy=".71em" y="12" x="0" style="text-anchor: middle;">0</text>
                </g>
                <g class="tick" transform="translate(405.4668637595467,0)" style="opacity: 1;">
                    <line y2="-510" x2="0" style="fill: none; stroke: #808080; stroke-width: 0.8px; stroke-dasharray: 15px, 2px; font-style: normal; font-variant: normal; font-weight: normal; font-size: 10px; line-height: normal; font-family: sans-serif; shape-rendering: geometricprecision;"/>
                    <text dy=".71em" y="12" x="0" style="text-anchor: middle;">5</text>
                </g>
                <g class="tick" transform="translate(500.9337275190934,0)" style="opacity: 1;">
                    <line y2="-510" x2="0" style="fill: none; stroke: #808080; stroke-width: 0.8px; stroke-dasharray: 15px, 2px; font-style: normal; font-variant: normal; font-weight: normal; font-size: 10px; line-height: normal; font-family: sans-serif; shape-rendering: geometricprecision;"/>
                    <text dy=".71em" y="12" x="0" style="text-anchor: middle;">10</text>
                </g>
                <g class="tick" transform="translate(596.4005912786401,0)" style="opacity: 1;">
                    <line y2="-510" x2="0" style="fill: none; stroke: #808080; stroke-width: 0.8px; stroke-dasharray: 15px, 2px; font-style: normal; font-variant: normal; font-weight: normal; font-size: 10px; line-height: normal; font-family: sans-serif; shape-rendering: geometricprecision;"/>
                    <text dy=".71em" y="12" x="0" style="text-anchor: middle;">15</text>
                </g>
                <path class="domain" d="M0,-510V0H620V-510" style="fill: none; stroke: #808080; stroke-width: 0.8px; stroke-dasharray: 15px, 2px; font-style: normal; font-variant: normal; font-weight: normal; font-size: 10px; line-height: normal; font-family: sans-serif; shape-rendering: geometricprecision;"/>
            </g>
            <g id="yAxis" class="axis">
                <g class="tick" transform="translate(0,490.5875831485588)" style="opacity: 1;">
                    <line x2="620" y2="0" style="fill: none; stroke: #808080; stroke-dasharray: 15px, 2px; stroke-width: 0.8px; shape-rendering: geometricprecision;"/>
                    <text dy=".32em" x="-8" y="0" style="text-anchor: end;">-15</text>
                </g>
                <g class="tick" transform="translate(0,412.05838876570584)" style="opacity: 1;">
                    <line x2="620" y2="0" style="fill: none; stroke: #808080; stroke-dasharray: 15px, 2px; stroke-width: 0.8px; shape-rendering: geometricprecision;"/>
                    <text dy=".32em" x="-8" y="0" style="text-anchor: end;">-10</text>
                </g>
                <g class="tick" transform="translate(0,333.52919438285295)" style="opacity: 1;">
                    <line x2="620" y2="0" style="fill: none; stroke: #808080; stroke-dasharray: 15px, 2px; stroke-width: 0.8px; shape-rendering: geometricprecision;"/>
                    <text dy=".32em" x="-8" y="0" style="text-anchor: end;">-5</text>
                </g>
                <g class="tick" transform="translate(0,255)" style="opacity: 1;">
                    <line x2="620" y2="0" style="fill: none; stroke: #808080; stroke-dasharray: 15px, 2px; stroke-width: 0.8px; shape-rendering: geometricprecision;"/>
                    <text dy=".32em" x="-8" y="0" style="text-anchor: end;">0</text>
                </g>
                <g class="tick" transform="translate(0,176.47080561714708)" style="opacity: 1;">
                    <line x2="620" y2="0" style="fill: none; stroke: #808080; stroke-dasharray: 15px, 2px; stroke-width: 0.8px; shape-rendering: geometricprecision;"/>
                    <text dy=".32em" x="-8" y="0" style="text-anchor: end;">5</text>
                </g>
                <g class="tick" transform="translate(0,97.94161123429413)" style="opacity: 1;">
                    <line x2="620" y2="0" style="fill: none; stroke: #808080; stroke-dasharray: 15px, 2px; stroke-width: 0.8px; shape-rendering: geometricprecision;"/>
                    <text dy=".32em" x="-8" y="0" style="text-anchor: end;">10</text>
                </g>
                <g class="tick" transform="translate(0,19.412416851441197)" style="opacity: 1;">
                    <line x2="620" y2="0" style="fill: none; stroke: #808080; stroke-dasharray: 15px, 2px; stroke-width: 0.8px; shape-rendering: geometricprecision;"/>
                    <text dy=".32em" x="-8" y="0" style="text-anchor: end;">15</text>
                </g>
                <path class="domain" d="M620,0H0V510H620" style="fill: none; stroke: #808080; stroke-dasharray: 15px, 2px; stroke-width: 0.8px; shape-rendering: geometricprecision;"/>
            </g>
            <g id="xy" class="xy">
                <path id="line" d="M282.64874344184557,259.16361792212666L282.6610389740252,257.8826061605923L282.7434431663667,256.2198168129081L282.955876822306,254.28244620875483L283.347214796062,252.16756654750483L283.955219985523,249.96213081296253L284.80660251103825,247.74296937985326L285.9169741932704,245.57679305628153L287.290869038162,243.52018875407887L288.9217295802911,241.6196222972271L290.7919341961601,239.9114421664215L292.8727709289606,238.4218668611686L295.1244465930029,237.16700362260482L297.4960867737161,236.15282783839584L299.9257358276483,235.37520363783713L302.3403591585735,234.8198679774581L304.65583752722364,234.46243438558588L306.7769704654493,234.26840232375457L308.5974774142738,234.19314408073228L309.99999608736846,234.18191038936664L310,234.18191038936664L311.402517748998,234.19314220845038L313.22302469782244,234.26840232375457L315.3441573515347,234.46243625786775L317.6596357201849,234.81986984974L320.07426075819063,235.37520363783713L322.5039132262839,236.15282596611394L324.8755545450508,237.16700175032292L327.1272290710394,238.42187060573238L329.2080680799472,239.9114421664215L331.0782726958163,241.619624169509L332.7091332379454,243.52018969021987L334.08302353062226,245.57679305628153L335.19339293674693,247.7429684437123L336.0447777383696,249.96212847261015L336.65278975615274,252.16756303697628L337.0441209015866,254.28244117699725L337.2565591097407,256.21981224922104L337.33895874986746,257.88260147988757L337.3512565581544,259.16361464563334" class="line" style="fill:none; stroke:black; stroke-width:2"/>
                <path id="area" d="M282.64874344184557,259.16361792212666L282.6610389740252,257.8826061605923L282.7434431663667,256.2198168129081L282.955876822306,254.28244620875483L283.347214796062,252.16756654750483L283.955219985523,249.96213081296253L284.80660251103825,247.74296937985326L285.9169741932704,245.57679305628153L287.290869038162,243.52018875407887L288.9217295802911,241.6196222972271L290.7919341961601,239.9114421664215L292.8727709289606,238.4218668611686L295.1244465930029,237.16700362260482L297.4960867737161,236.15282783839584L299.9257358276483,235.37520363783713L302.3403591585735,234.8198679774581L304.65583752722364,234.46243438558588L306.7769704654493,234.26840232375457L308.5974774142738,234.19314408073228L309.99999608736846,234.18191038936664L310,234.18191038936664L311.402517748998,234.19314220845038L313.22302469782244,234.26840232375457L315.3441573515347,234.46243625786775L317.6596357201849,234.81986984974L320.07426075819063,235.37520363783713L322.5039132262839,236.15282596611394L324.8755545450508,237.16700175032292L327.1272290710394,238.42187060573238L329.2080680799472,239.9114421664215L331.0782726958163,241.619624169509L332.7091332379454,243.52018969021987L334.08302353062226,245.57679305628153L335.19339293674693,247.7429684437123L336.0447777383696,249.96212847261015L336.65278975615274,252.16756303697628L337.0441209015866,254.28244117699725L337.2565591097407,256.21981224922104L337.33895874986746,257.88260147988757L337.3512565581544,259.16361464563334L337.3512565581544,255L337.33895874986746,255L337.2565591097407,255L337.0441209015866,255L336.65278975615274,255L336.0447777383696,255L335.19339293674693,255L334.08302353062226,255L332.7091332379454,255L331.0782726958163,255L329.2080680799472,255L327.1272290710394,255L324.8755545450508,255L322.5039132262839,255L320.07426075819063,255L317.6596357201849,255L315.3441573515347,255L313.22302469782244,255L311.402517748998,255L310,255L309.99999608736846,255L308.5974774142738,255L306.7769704654493,255L304.65583752722364,255L302.3403591585735,255L299.9257358276483,255L297.4960867737161,255L295.1244465930029,255L292.8727709289606,255L290.7919341961601,255L288.9217295802911,255L287.290869038162,255L285.9169741932704,255L284.80660251103825,255L283.955219985523,255L283.347214796062,255L282.955876822306,255L282.7434431663667,255L282.6610389740252,255L282.64874344184557,255Z" class="area" style="fill:white;" opacity="1"/>
            </g>
            <g id="xy" class="xy">
                <path id="line" d="M337.3512565581544,259.16361792212666L337.3404723612891,260.31574811701057L337.2679737883561,261.6284400583723L337.08039067301974,263.04587400188643L336.7333776147884,264.5177478179699L336.191691366667,265.9992863531916L335.4291293802564,267.45122598394676L334.42856394736515,268.83982819050044L333.18193992390127,270.13687768470595L331.69027017765836,271.3196796015819L329.9636196555631,272.3710557547482L328.0211326969642,273.27935025327224L325.8910171008809,274.03843137395L323.61054754016374,274.64768500832037L321.22606328538734,275.11201840722816L318.7929716190113,275.44185830854263L316.37574555927324,275.65315655400286L314.0479272743492,275.7673807278088L311.89212253434255,275.81152164574826L310.0000058689452,275.81808961063336L310,275.81808961063336L308.10788344043937,275.81152164574826L305.9520784159193,275.76737885552694L303.62426013099525,275.653154681721L301.2070340712571,275.4418545639788L298.77393899072007,275.11201653494624L296.38945245983626,274.6476868806023L294.1089828991191,274.03843137395L291.97886730303577,273.2793483809903L290.03637806832955,272.37105388246636L288.3097298223416,271.3196796015819L286.81805779999127,270.13687768470595L285.57143605263485,268.83982819050044L284.57087517195833,267.4512250478058L283.808308633333,265.9992872893326L283.26661783299676,264.51775249867467L282.91961160308773,263.04587774645023L282.7320216594291,261.6284442710066L282.65952991481834,260.31575186157437L282.64874344184557,259.16362166669046" class="line" style="fill:none; stroke:black; stroke-width:2"/>
                <path id="area" d="M337.3512565581544,259.16361792212666L337.3404723612891,260.31574811701057L337.2679737883561,261.6284400583723L337.08039067301974,263.04587400188643L336.7333776147884,264.5177478179699L336.191691366667,265.9992863531916L335.4291293802564,267.45122598394676L334.42856394736515,268.83982819050044L333.18193992390127,270.13687768470595L331.69027017765836,271.3196796015819L329.9636196555631,272.3710557547482L328.0211326969642,273.27935025327224L325.8910171008809,274.03843137395L323.61054754016374,274.64768500832037L321.22606328538734,275.11201840722816L318.7929716190113,275.44185830854263L316.37574555927324,275.65315655400286L314.0479272743492,275.7673807278088L311.89212253434255,275.81152164574826L310.0000058689452,275.81808961063336L310,275.81808961063336L308.10788344043937,275.81152164574826L305.9520784159193,275.76737885552694L303.62426013099525,275.653154681721L301.2070340712571,275.4418545639788L298.77393899072007,275.11201653494624L296.38945245983626,274.6476868806023L294.1089828991191,274.03843137395L291.97886730303577,273.2793483809903L290.03637806832955,272.37105388246636L288.3097298223416,271.3196796015819L286.81805779999127,270.13687768470595L285.57143605263485,268.83982819050044L284.57087517195833,267.4512250478058L283.808308633333,265.9992872893326L283.26661783299676,264.51775249867467L282.91961160308773,263.04587774645023L282.7320216594291,261.6284442710066L282.65952991481834,260.31575186157437L282.64874344184557,259.16362166669046L282.64874344184557,255L282.65952991481834,255L282.7320216594291,255L282.91961160308773,255L283.26661783299676,255L283.808308633333,255L284.57087517195833,255L285.57143605263485,255L286.81805779999127,255L288.3097298223416,255L290.03637806832955,255L291.97886730303577,255L294.1089828991191,255L296.38945245983626,255L298.77393899072007,255L301.2070340712571,255L303.62426013099525,255L305.9520784159193,255L308.10788344043937,255L310,255L310.0000058689452,255L311.89212253434255,255L314.0479272743492,255L316.37574555927324,255L318.7929716190113,255L321.22606328538734,255L323.61054754016374,255L325.8910171008809,255L328.0211326969642,255L329.9636196555631,255L331.69027017765836,255L333.18193992390127,255L334.42856394736515,255L335.4291293802564,255L336.191691366667,255L336.7333776147884,255L337.08039067301974,255L337.2679737883561,255L337.3404723612891,255L337.3512565581544,255Z" class="area" style="fill:white;" opacity="1"/>
            </g>
        </g>
    </g>
    <text class="x label" text-anchor="middle" x="370" y="595">y (m)</text>
    <text class="y label" text-anchor="middle" x="-295" y="5" dy=".75em" transform="rotate(-90)">z (m)</text>
    <text class="title" text-anchor="middle" x="370" y="20">Fuselage data representation - Front View</text>
</svg>
