<!DOCTYPE svg PUBLIC "-//W3C//DTD SVG 1.1//EN" "http://www.w3.org/Graphics/SVG/1.1/DTD/svg11.dtd">
<svg xmlns="http://www.w3.org/2000/svg" xmlns:xlink="http://www.w3.org/1999/xlink" xmlns:jfreesvg="http://www.jfree.org/jfreesvg/svg" width="650" height="650" text-rendering="auto" shape-rendering="auto">
<defs><clipPath id="_34531821118191clip-0"><path d="M 0 0 L 650 0 L 650 650 L 0 650 L 0 0 Z "/></clipPath>
<clipPath id="_34531821118191clip-1"><path d="M 337 298 L 337 948 L -313 948 L -313 298 L 337 298 Z "/></clipPath>
<clipPath id="_34531821118191clip-2"><path d="M 64 35 L 64 600 L 638 600 L 638 35 Z "/></clipPath>
</defs>
<rect x="0" y="0" width="650" height="650" style="fill: rgb(245,245,245); fill-opacity: 1.0" transform="matrix(1,0,0,1,0,0)" clip-path="url(#_34531821118191clip-0)"/><g transform="matrix(1,0,0,1,0,0)"><text x="126" y="21.01" style="fill: rgb(0,0,0); fill-opacity: 1.0; font-family: Tahoma; font-size: 20px; font-weight: bold;" clip-path="url(#_34531821118191clip-0)">Horizontal Tail Planform representation</text></g><rect x="64" y="35" width="574" height="565" style="fill: rgb(240,248,255); fill-opacity: 0.0" transform="matrix(1,0,0,1,0,0)" clip-path="url(#_34531821118191clip-0)"/><line x1="64" y1="604" x2="638" y2="604" style="stroke-width: 0.5;stroke: rgb(128,128,128);stroke-opacity: 1.0;stroke-linecap: square;shape-rendering:crispEdges;" transform="matrix(1,0,0,1,0,0)" clip-path="url(#_34531821118191clip-0)"/><g transform="matrix(1,0,0,1,0,0)"><text x="81.59" y="620.52" style="fill: rgb(64,64,64); fill-opacity: 1.0; font-family: Tahoma; font-size: 12px;" clip-path="url(#_34531821118191clip-0)">0,0</text></g><line x1="90.09" y1="606" x2="90.09" y2="604" style="stroke-width: 0.5;stroke: rgb(128,128,128);stroke-opacity: 1.0;stroke-linecap: square;shape-rendering:crispEdges;" transform="matrix(1,0,0,1,0,0)" clip-path="url(#_34531821118191clip-0)"/><g transform="matrix(1,0,0,1,0,0)"><text x="123.34" y="620.52" style="fill: rgb(64,64,64); fill-opacity: 1.0; font-family: Tahoma; font-size: 12px;" clip-path="url(#_34531821118191clip-0)">0,5</text></g><line x1="131.84" y1="606" x2="131.84" y2="604" style="stroke-width: 0.5;stroke: rgb(128,128,128);stroke-opacity: 1.0;stroke-linecap: square;shape-rendering:crispEdges;" transform="matrix(1,0,0,1,0,0)" clip-path="url(#_34531821118191clip-0)"/><g transform="matrix(1,0,0,1,0,0)"><text x="165.08" y="620.52" style="fill: rgb(64,64,64); fill-opacity: 1.0; font-family: Tahoma; font-size: 12px;" clip-path="url(#_34531821118191clip-0)">1,0</text></g><line x1="173.58" y1="606" x2="173.58" y2="604" style="stroke-width: 0.5;stroke: rgb(128,128,128);stroke-opacity: 1.0;stroke-linecap: square;shape-rendering:crispEdges;" transform="matrix(1,0,0,1,0,0)" clip-path="url(#_34531821118191clip-0)"/><g transform="matrix(1,0,0,1,0,0)"><text x="206.83" y="620.52" style="fill: rgb(64,64,64); fill-opacity: 1.0; font-family: Tahoma; font-size: 12px;" clip-path="url(#_34531821118191clip-0)">1,5</text></g><line x1="215.33" y1="606" x2="215.33" y2="604" style="stroke-width: 0.5;stroke: rgb(128,128,128);stroke-opacity: 1.0;stroke-linecap: square;shape-rendering:crispEdges;" transform="matrix(1,0,0,1,0,0)" clip-path="url(#_34531821118191clip-0)"/><g transform="matrix(1,0,0,1,0,0)"><text x="248.57" y="620.52" style="fill: rgb(64,64,64); fill-opacity: 1.0; font-family: Tahoma; font-size: 12px;" clip-path="url(#_34531821118191clip-0)">2,0</text></g><line x1="257.07" y1="606" x2="257.07" y2="604" style="stroke-width: 0.5;stroke: rgb(128,128,128);stroke-opacity: 1.0;stroke-linecap: square;shape-rendering:crispEdges;" transform="matrix(1,0,0,1,0,0)" clip-path="url(#_34531821118191clip-0)"/><g transform="matrix(1,0,0,1,0,0)"><text x="290.32" y="620.52" style="fill: rgb(64,64,64); fill-opacity: 1.0; font-family: Tahoma; font-size: 12px;" clip-path="url(#_34531821118191clip-0)">2,5</text></g><line x1="298.82" y1="606" x2="298.82" y2="604" style="stroke-width: 0.5;stroke: rgb(128,128,128);stroke-opacity: 1.0;stroke-linecap: square;shape-rendering:crispEdges;" transform="matrix(1,0,0,1,0,0)" clip-path="url(#_34531821118191clip-0)"/><g transform="matrix(1,0,0,1,0,0)"><text x="332.06" y="620.52" style="fill: rgb(64,64,64); fill-opacity: 1.0; font-family: Tahoma; font-size: 12px;" clip-path="url(#_34531821118191clip-0)">3,0</text></g><line x1="340.56" y1="606" x2="340.56" y2="604" style="stroke-width: 0.5;stroke: rgb(128,128,128);stroke-opacity: 1.0;stroke-linecap: square;shape-rendering:crispEdges;" transform="matrix(1,0,0,1,0,0)" clip-path="url(#_34531821118191clip-0)"/><g transform="matrix(1,0,0,1,0,0)"><text x="373.81" y="620.52" style="fill: rgb(64,64,64); fill-opacity: 1.0; font-family: Tahoma; font-size: 12px;" clip-path="url(#_34531821118191clip-0)">3,5</text></g><line x1="382.31" y1="606" x2="382.31" y2="604" style="stroke-width: 0.5;stroke: rgb(128,128,128);stroke-opacity: 1.0;stroke-linecap: square;shape-rendering:crispEdges;" transform="matrix(1,0,0,1,0,0)" clip-path="url(#_34531821118191clip-0)"/><g transform="matrix(1,0,0,1,0,0)"><text x="415.55" y="620.52" style="fill: rgb(64,64,64); fill-opacity: 1.0; font-family: Tahoma; font-size: 12px;" clip-path="url(#_34531821118191clip-0)">4,0</text></g><line x1="424.05" y1="606" x2="424.05" y2="604" style="stroke-width: 0.5;stroke: rgb(128,128,128);stroke-opacity: 1.0;stroke-linecap: square;shape-rendering:crispEdges;" transform="matrix(1,0,0,1,0,0)" clip-path="url(#_34531821118191clip-0)"/><g transform="matrix(1,0,0,1,0,0)"><text x="457.3" y="620.52" style="fill: rgb(64,64,64); fill-opacity: 1.0; font-family: Tahoma; font-size: 12px;" clip-path="url(#_34531821118191clip-0)">4,5</text></g><line x1="465.8" y1="606" x2="465.8" y2="604" style="stroke-width: 0.5;stroke: rgb(128,128,128);stroke-opacity: 1.0;stroke-linecap: square;shape-rendering:crispEdges;" transform="matrix(1,0,0,1,0,0)" clip-path="url(#_34531821118191clip-0)"/><g transform="matrix(1,0,0,1,0,0)"><text x="499.05" y="620.52" style="fill: rgb(64,64,64); fill-opacity: 1.0; font-family: Tahoma; font-size: 12px;" clip-path="url(#_34531821118191clip-0)">5,0</text></g><line x1="507.55" y1="606" x2="507.55" y2="604" style="stroke-width: 0.5;stroke: rgb(128,128,128);stroke-opacity: 1.0;stroke-linecap: square;shape-rendering:crispEdges;" transform="matrix(1,0,0,1,0,0)" clip-path="url(#_34531821118191clip-0)"/><g transform="matrix(1,0,0,1,0,0)"><text x="540.79" y="620.52" style="fill: rgb(64,64,64); fill-opacity: 1.0; font-family: Tahoma; font-size: 12px;" clip-path="url(#_34531821118191clip-0)">5,5</text></g><line x1="549.29" y1="606" x2="549.29" y2="604" style="stroke-width: 0.5;stroke: rgb(128,128,128);stroke-opacity: 1.0;stroke-linecap: square;shape-rendering:crispEdges;" transform="matrix(1,0,0,1,0,0)" clip-path="url(#_34531821118191clip-0)"/><g transform="matrix(1,0,0,1,0,0)"><text x="582.54" y="620.52" style="fill: rgb(64,64,64); fill-opacity: 1.0; font-family: Tahoma; font-size: 12px;" clip-path="url(#_34531821118191clip-0)">6,0</text></g><line x1="591.04" y1="606" x2="591.04" y2="604" style="stroke-width: 0.5;stroke: rgb(128,128,128);stroke-opacity: 1.0;stroke-linecap: square;shape-rendering:crispEdges;" transform="matrix(1,0,0,1,0,0)" clip-path="url(#_34531821118191clip-0)"/><g transform="matrix(1,0,0,1,0,0)"><text x="624.28" y="620.52" style="fill: rgb(64,64,64); fill-opacity: 1.0; font-family: Tahoma; font-size: 12px;" clip-path="url(#_34531821118191clip-0)">6,5</text></g><line x1="632.78" y1="606" x2="632.78" y2="604" style="stroke-width: 0.5;stroke: rgb(128,128,128);stroke-opacity: 1.0;stroke-linecap: square;shape-rendering:crispEdges;" transform="matrix(1,0,0,1,0,0)" clip-path="url(#_34531821118191clip-0)"/><g transform="matrix(1,0,0,1,0,0)"><text x="331.5" y="639.59" style="fill: rgb(64,64,64); fill-opacity: 1.0; font-family: Tahoma; font-size: 14px; font-weight: bold;" clip-path="url(#_34531821118191clip-0)">x (m)</text></g><line x1="60" y1="35" x2="60" y2="600" style="stroke-width: 0.5;stroke: rgb(128,128,128);stroke-opacity: 1.0;stroke-linecap: square;shape-rendering:crispEdges;" transform="matrix(1,0,0,1,0,0)" clip-path="url(#_34531821118191clip-0)"/><g transform="matrix(1,0,0,1,0,0)"><text x="33" y="73.88" style="fill: rgb(64,64,64); fill-opacity: 1.0; font-family: Tahoma; font-size: 12px;" clip-path="url(#_34531821118191clip-0)">-1,5</text></g><line x1="58" y1="68.86" x2="60" y2="68.86" style="stroke-width: 0.5;stroke: rgb(128,128,128);stroke-opacity: 1.0;stroke-linecap: square;shape-rendering:crispEdges;" transform="matrix(1,0,0,1,0,0)" clip-path="url(#_34531821118191clip-0)"/><g transform="matrix(1,0,0,1,0,0)"><text x="33" y="114.97" style="fill: rgb(64,64,64); fill-opacity: 1.0; font-family: Tahoma; font-size: 12px;" clip-path="url(#_34531821118191clip-0)">-1,0</text></g><line x1="58" y1="109.95" x2="60" y2="109.95" style="stroke-width: 0.5;stroke: rgb(128,128,128);stroke-opacity: 1.0;stroke-linecap: square;shape-rendering:crispEdges;" transform="matrix(1,0,0,1,0,0)" clip-path="url(#_34531821118191clip-0)"/><g transform="matrix(1,0,0,1,0,0)"><text x="33" y="156.06" style="fill: rgb(64,64,64); fill-opacity: 1.0; font-family: Tahoma; font-size: 12px;" clip-path="url(#_34531821118191clip-0)">-0,5</text></g><line x1="58" y1="151.04" x2="60" y2="151.04" style="stroke-width: 0.5;stroke: rgb(128,128,128);stroke-opacity: 1.0;stroke-linecap: square;shape-rendering:crispEdges;" transform="matrix(1,0,0,1,0,0)" clip-path="url(#_34531821118191clip-0)"/><g transform="matrix(1,0,0,1,0,0)"><text x="37" y="197.15" style="fill: rgb(64,64,64); fill-opacity: 1.0; font-family: Tahoma; font-size: 12px;" clip-path="url(#_34531821118191clip-0)">0,0</text></g><line x1="58" y1="192.13" x2="60" y2="192.13" style="stroke-width: 0.5;stroke: rgb(128,128,128);stroke-opacity: 1.0;stroke-linecap: square;shape-rendering:crispEdges;" transform="matrix(1,0,0,1,0,0)" clip-path="url(#_34531821118191clip-0)"/><g transform="matrix(1,0,0,1,0,0)"><text x="37" y="238.24" style="fill: rgb(64,64,64); fill-opacity: 1.0; font-family: Tahoma; font-size: 12px;" clip-path="url(#_34531821118191clip-0)">0,5</text></g><line x1="58" y1="233.22" x2="60" y2="233.22" style="stroke-width: 0.5;stroke: rgb(128,128,128);stroke-opacity: 1.0;stroke-linecap: square;shape-rendering:crispEdges;" transform="matrix(1,0,0,1,0,0)" clip-path="url(#_34531821118191clip-0)"/><g transform="matrix(1,0,0,1,0,0)"><text x="37" y="279.33" style="fill: rgb(64,64,64); fill-opacity: 1.0; font-family: Tahoma; font-size: 12px;" clip-path="url(#_34531821118191clip-0)">1,0</text></g><line x1="58" y1="274.31" x2="60" y2="274.31" style="stroke-width: 0.5;stroke: rgb(128,128,128);stroke-opacity: 1.0;stroke-linecap: square;shape-rendering:crispEdges;" transform="matrix(1,0,0,1,0,0)" clip-path="url(#_34531821118191clip-0)"/><g transform="matrix(1,0,0,1,0,0)"><text x="37" y="320.42" style="fill: rgb(64,64,64); fill-opacity: 1.0; font-family: Tahoma; font-size: 12px;" clip-path="url(#_34531821118191clip-0)">1,5</text></g><line x1="58" y1="315.4" x2="60" y2="315.4" style="stroke-width: 0.5;stroke: rgb(128,128,128);stroke-opacity: 1.0;stroke-linecap: square;shape-rendering:crispEdges;" transform="matrix(1,0,0,1,0,0)" clip-path="url(#_34531821118191clip-0)"/><g transform="matrix(1,0,0,1,0,0)"><text x="37" y="361.52" style="fill: rgb(64,64,64); fill-opacity: 1.0; font-family: Tahoma; font-size: 12px;" clip-path="url(#_34531821118191clip-0)">2,0</text></g><line x1="58" y1="356.49" x2="60" y2="356.49" style="stroke-width: 0.5;stroke: rgb(128,128,128);stroke-opacity: 1.0;stroke-linecap: square;shape-rendering:crispEdges;" transform="matrix(1,0,0,1,0,0)" clip-path="url(#_34531821118191clip-0)"/><g transform="matrix(1,0,0,1,0,0)"><text x="37" y="402.61" style="fill: rgb(64,64,64); fill-opacity: 1.0; font-family: Tahoma; font-size: 12px;" clip-path="url(#_34531821118191clip-0)">2,5</text></g><line x1="58" y1="397.59" x2="60" y2="397.59" style="stroke-width: 0.5;stroke: rgb(128,128,128);stroke-opacity: 1.0;stroke-linecap: square;shape-rendering:crispEdges;" transform="matrix(1,0,0,1,0,0)" clip-path="url(#_34531821118191clip-0)"/><g transform="matrix(1,0,0,1,0,0)"><text x="37" y="443.7" style="fill: rgb(64,64,64); fill-opacity: 1.0; font-family: Tahoma; font-size: 12px;" clip-path="url(#_34531821118191clip-0)">3,0</text></g><line x1="58" y1="438.68" x2="60" y2="438.68" style="stroke-width: 0.5;stroke: rgb(128,128,128);stroke-opacity: 1.0;stroke-linecap: square;shape-rendering:crispEdges;" transform="matrix(1,0,0,1,0,0)" clip-path="url(#_34531821118191clip-0)"/><g transform="matrix(1,0,0,1,0,0)"><text x="37" y="484.79" style="fill: rgb(64,64,64); fill-opacity: 1.0; font-family: Tahoma; font-size: 12px;" clip-path="url(#_34531821118191clip-0)">3,5</text></g><line x1="58" y1="479.77" x2="60" y2="479.77" style="stroke-width: 0.5;stroke: rgb(128,128,128);stroke-opacity: 1.0;stroke-linecap: square;shape-rendering:crispEdges;" transform="matrix(1,0,0,1,0,0)" clip-path="url(#_34531821118191clip-0)"/><g transform="matrix(1,0,0,1,0,0)"><text x="37" y="525.88" style="fill: rgb(64,64,64); fill-opacity: 1.0; font-family: Tahoma; font-size: 12px;" clip-path="url(#_34531821118191clip-0)">4,0</text></g><line x1="58" y1="520.86" x2="60" y2="520.86" style="stroke-width: 0.5;stroke: rgb(128,128,128);stroke-opacity: 1.0;stroke-linecap: square;shape-rendering:crispEdges;" transform="matrix(1,0,0,1,0,0)" clip-path="url(#_34531821118191clip-0)"/><g transform="matrix(1,0,0,1,0,0)"><text x="37" y="566.97" style="fill: rgb(64,64,64); fill-opacity: 1.0; font-family: Tahoma; font-size: 12px;" clip-path="url(#_34531821118191clip-0)">4,5</text></g><line x1="58" y1="561.95" x2="60" y2="561.95" style="stroke-width: 0.5;stroke: rgb(128,128,128);stroke-opacity: 1.0;stroke-linecap: square;shape-rendering:crispEdges;" transform="matrix(1,0,0,1,0,0)" clip-path="url(#_34531821118191clip-0)"/><g style="fill: rgb(64,64,64); fill-opacity: 1.0; stroke: none" transform="matrix(0,-1,1,0,-298,337)" clip-path="url(#_34531821118191clip-1)"><path d="M 8.58 315.44 L 4.7 325.92 L 2.14 325.92 L 3.3 322.92 L 0.48 315.44 L 3 315.44 L 4.61 320.25 L 6.12 315.44 L 8.58 315.44 Z  M 18.47 325.92 L 15.96 325.92 Q 15.38 325.23 14.91 324.5 Q 14.44 323.76 14.1 322.94 Q 13.77 322.14 13.59 321.19 Q 13.41 320.23 13.41 319.2 Q 13.41 318.08 13.6 317.16 Q 13.79 316.23 14.08 315.48 Q 14.41 314.66 14.89 313.92 Q 15.36 313.19 15.96 312.47 L 18.47 312.47 L 18.47 312.67 Q 17.91 313.17 17.41 313.8 Q 16.91 314.44 16.49 315.28 Q 16.07 316.09 15.82 317.08 Q 15.57 318.08 15.57 319.2 Q 15.57 320.37 15.81 321.32 Q 16.05 322.26 16.49 323.11 Q 16.9 323.92 17.41 324.58 Q 17.93 325.25 18.47 325.73 L 18.47 325.92 Z  M 29.11 323.11 L 29.11 319.28 Q 29.11 318.7 29.09 318.31 Q 29.07 317.92 28.97 317.69 Q 28.86 317.44 28.64 317.32 Q 28.42 317.2 28.05 317.2 Q 27.77 317.2 27.5 317.33 Q 27.24 317.45 26.92 317.67 L 26.92 323.11 L 24.52 323.11 L 24.52 319.28 Q 24.52 318.72 24.5 318.32 Q 24.47 317.92 24.36 317.69 Q 24.27 317.44 24.05 317.32 Q 23.83 317.2 23.46 317.2 Q 23.16 317.2 22.88 317.34 Q 22.6 317.48 22.33 317.67 L 22.33 323.11 L 19.94 323.11 L 19.94 315.44 L 22.33 315.44 L 22.33 316.28 Q 22.91 315.78 23.43 315.5 Q 23.96 315.22 24.6 315.22 Q 25.32 315.22 25.85 315.55 Q 26.38 315.89 26.66 316.55 Q 27.35 315.91 27.96 315.56 Q 28.57 315.22 29.19 315.22 Q 29.74 315.22 30.16 315.39 Q 30.58 315.56 30.88 315.91 Q 31.19 316.26 31.35 316.78 Q 31.52 317.3 31.52 318.11 L 31.52 323.11 L 29.11 323.11 Z  M 37.96 319.2 Q 37.96 320.23 37.78 321.19 Q 37.6 322.14 37.29 322.94 Q 36.95 323.76 36.47 324.5 Q 35.99 325.23 35.42 325.92 L 32.92 325.92 L 32.92 325.73 Q 33.46 325.25 33.98 324.59 Q 34.49 323.94 34.9 323.11 Q 35.32 322.26 35.57 321.32 Q 35.82 320.37 35.82 319.2 Q 35.82 318.08 35.56 317.08 Q 35.31 316.09 34.9 315.28 Q 34.46 314.44 33.96 313.8 Q 33.46 313.17 32.92 312.67 L 32.92 312.47 L 35.42 312.47 Q 36.01 313.19 36.49 313.92 Q 36.96 314.66 37.29 315.48 Q 37.59 316.23 37.78 317.16 Q 37.96 318.08 37.96 319.2 Z "/></g><line x1="64" y1="68.86" x2="638" y2="68.86" style="stroke-width: 0.5;stroke: rgb(128,128,128);stroke-opacity: 0.5;stroke-linejoin: bevel;stroke-dasharray: 2.0, 2.0;shape-rendering:crispEdges;" transform="matrix(1,0,0,1,0,0)" clip-path="url(#_34531821118191clip-2)"/><line x1="64" y1="109.95" x2="638" y2="109.95" style="stroke-width: 0.5;stroke: rgb(128,128,128);stroke-opacity: 0.5;stroke-linejoin: bevel;stroke-dasharray: 2.0, 2.0;shape-rendering:crispEdges;" transform="matrix(1,0,0,1,0,0)" clip-path="url(#_34531821118191clip-2)"/><line x1="64" y1="151.04" x2="638" y2="151.04" style="stroke-width: 0.5;stroke: rgb(128,128,128);stroke-opacity: 0.5;stroke-linejoin: bevel;stroke-dasharray: 2.0, 2.0;shape-rendering:crispEdges;" transform="matrix(1,0,0,1,0,0)" clip-path="url(#_34531821118191clip-2)"/><line x1="64" y1="192.13" x2="638" y2="192.13" style="stroke-width: 0.5;stroke: rgb(128,128,128);stroke-opacity: 0.5;stroke-linejoin: bevel;stroke-dasharray: 2.0, 2.0;shape-rendering:crispEdges;" transform="matrix(1,0,0,1,0,0)" clip-path="url(#_34531821118191clip-2)"/><line x1="64" y1="233.22" x2="638" y2="233.22" style="stroke-width: 0.5;stroke: rgb(128,128,128);stroke-opacity: 0.5;stroke-linejoin: bevel;stroke-dasharray: 2.0, 2.0;shape-rendering:crispEdges;" transform="matrix(1,0,0,1,0,0)" clip-path="url(#_34531821118191clip-2)"/><line x1="64" y1="274.31" x2="638" y2="274.31" style="stroke-width: 0.5;stroke: rgb(128,128,128);stroke-opacity: 0.5;stroke-linejoin: bevel;stroke-dasharray: 2.0, 2.0;shape-rendering:crispEdges;" transform="matrix(1,0,0,1,0,0)" clip-path="url(#_34531821118191clip-2)"/><line x1="64" y1="315.4" x2="638" y2="315.4" style="stroke-width: 0.5;stroke: rgb(128,128,128);stroke-opacity: 0.5;stroke-linejoin: bevel;stroke-dasharray: 2.0, 2.0;shape-rendering:crispEdges;" transform="matrix(1,0,0,1,0,0)" clip-path="url(#_34531821118191clip-2)"/><line x1="64" y1="356.49" x2="638" y2="356.49" style="stroke-width: 0.5;stroke: rgb(128,128,128);stroke-opacity: 0.5;stroke-linejoin: bevel;stroke-dasharray: 2.0, 2.0;shape-rendering:crispEdges;" transform="matrix(1,0,0,1,0,0)" clip-path="url(#_34531821118191clip-2)"/><line x1="64" y1="397.59" x2="638" y2="397.59" style="stroke-width: 0.5;stroke: rgb(128,128,128);stroke-opacity: 0.5;stroke-linejoin: bevel;stroke-dasharray: 2.0, 2.0;shape-rendering:crispEdges;" transform="matrix(1,0,0,1,0,0)" clip-path="url(#_34531821118191clip-2)"/><line x1="64" y1="438.68" x2="638" y2="438.68" style="stroke-width: 0.5;stroke: rgb(128,128,128);stroke-opacity: 0.5;stroke-linejoin: bevel;stroke-dasharray: 2.0, 2.0;shape-rendering:crispEdges;" transform="matrix(1,0,0,1,0,0)" clip-path="url(#_34531821118191clip-2)"/><line x1="64" y1="479.77" x2="638" y2="479.77" style="stroke-width: 0.5;stroke: rgb(128,128,128);stroke-opacity: 0.5;stroke-linejoin: bevel;stroke-dasharray: 2.0, 2.0;shape-rendering:crispEdges;" transform="matrix(1,0,0,1,0,0)" clip-path="url(#_34531821118191clip-2)"/><line x1="64" y1="520.86" x2="638" y2="520.86" style="stroke-width: 0.5;stroke: rgb(128,128,128);stroke-opacity: 0.5;stroke-linejoin: bevel;stroke-dasharray: 2.0, 2.0;shape-rendering:crispEdges;" transform="matrix(1,0,0,1,0,0)" clip-path="url(#_34531821118191clip-2)"/><line x1="64" y1="561.95" x2="638" y2="561.95" style="stroke-width: 0.5;stroke: rgb(128,128,128);stroke-opacity: 0.5;stroke-linejoin: bevel;stroke-dasharray: 2.0, 2.0;shape-rendering:crispEdges;" transform="matrix(1,0,0,1,0,0)" clip-path="url(#_34531821118191clip-2)"/><line x1="90.09" y1="35" x2="90.09" y2="600" style="stroke-width: 0.5;stroke: rgb(128,128,128);stroke-opacity: 0.5;stroke-linejoin: bevel;stroke-dasharray: 2.0, 2.0;shape-rendering:crispEdges;" transform="matrix(1,0,0,1,0,0)" clip-path="url(#_34531821118191clip-2)"/><line x1="131.84" y1="35" x2="131.84" y2="600" style="stroke-width: 0.5;stroke: rgb(128,128,128);stroke-opacity: 0.5;stroke-linejoin: bevel;stroke-dasharray: 2.0, 2.0;shape-rendering:crispEdges;" transform="matrix(1,0,0,1,0,0)" clip-path="url(#_34531821118191clip-2)"/><line x1="173.58" y1="35" x2="173.58" y2="600" style="stroke-width: 0.5;stroke: rgb(128,128,128);stroke-opacity: 0.5;stroke-linejoin: bevel;stroke-dasharray: 2.0, 2.0;shape-rendering:crispEdges;" transform="matrix(1,0,0,1,0,0)" clip-path="url(#_34531821118191clip-2)"/><line x1="215.33" y1="35" x2="215.33" y2="600" style="stroke-width: 0.5;stroke: rgb(128,128,128);stroke-opacity: 0.5;stroke-linejoin: bevel;stroke-dasharray: 2.0, 2.0;shape-rendering:crispEdges;" transform="matrix(1,0,0,1,0,0)" clip-path="url(#_34531821118191clip-2)"/><line x1="257.07" y1="35" x2="257.07" y2="600" style="stroke-width: 0.5;stroke: rgb(128,128,128);stroke-opacity: 0.5;stroke-linejoin: bevel;stroke-dasharray: 2.0, 2.0;shape-rendering:crispEdges;" transform="matrix(1,0,0,1,0,0)" clip-path="url(#_34531821118191clip-2)"/><line x1="298.82" y1="35" x2="298.82" y2="600" style="stroke-width: 0.5;stroke: rgb(128,128,128);stroke-opacity: 0.5;stroke-linejoin: bevel;stroke-dasharray: 2.0, 2.0;shape-rendering:crispEdges;" transform="matrix(1,0,0,1,0,0)" clip-path="url(#_34531821118191clip-2)"/><line x1="340.56" y1="35" x2="340.56" y2="600" style="stroke-width: 0.5;stroke: rgb(128,128,128);stroke-opacity: 0.5;stroke-linejoin: bevel;stroke-dasharray: 2.0, 2.0;shape-rendering:crispEdges;" transform="matrix(1,0,0,1,0,0)" clip-path="url(#_34531821118191clip-2)"/><line x1="382.31" y1="35" x2="382.31" y2="600" style="stroke-width: 0.5;stroke: rgb(128,128,128);stroke-opacity: 0.5;stroke-linejoin: bevel;stroke-dasharray: 2.0, 2.0;shape-rendering:crispEdges;" transform="matrix(1,0,0,1,0,0)" clip-path="url(#_34531821118191clip-2)"/><line x1="424.05" y1="35" x2="424.05" y2="600" style="stroke-width: 0.5;stroke: rgb(128,128,128);stroke-opacity: 0.5;stroke-linejoin: bevel;stroke-dasharray: 2.0, 2.0;shape-rendering:crispEdges;" transform="matrix(1,0,0,1,0,0)" clip-path="url(#_34531821118191clip-2)"/><line x1="465.8" y1="35" x2="465.8" y2="600" style="stroke-width: 0.5;stroke: rgb(128,128,128);stroke-opacity: 0.5;stroke-linejoin: bevel;stroke-dasharray: 2.0, 2.0;shape-rendering:crispEdges;" transform="matrix(1,0,0,1,0,0)" clip-path="url(#_34531821118191clip-2)"/><line x1="507.55" y1="35" x2="507.55" y2="600" style="stroke-width: 0.5;stroke: rgb(128,128,128);stroke-opacity: 0.5;stroke-linejoin: bevel;stroke-dasharray: 2.0, 2.0;shape-rendering:crispEdges;" transform="matrix(1,0,0,1,0,0)" clip-path="url(#_34531821118191clip-2)"/><line x1="549.29" y1="35" x2="549.29" y2="600" style="stroke-width: 0.5;stroke: rgb(128,128,128);stroke-opacity: 0.5;stroke-linejoin: bevel;stroke-dasharray: 2.0, 2.0;shape-rendering:crispEdges;" transform="matrix(1,0,0,1,0,0)" clip-path="url(#_34531821118191clip-2)"/><line x1="591.04" y1="35" x2="591.04" y2="600" style="stroke-width: 0.5;stroke: rgb(128,128,128);stroke-opacity: 0.5;stroke-linejoin: bevel;stroke-dasharray: 2.0, 2.0;shape-rendering:crispEdges;" transform="matrix(1,0,0,1,0,0)" clip-path="url(#_34531821118191clip-2)"/><line x1="632.78" y1="35" x2="632.78" y2="600" style="stroke-width: 0.5;stroke: rgb(128,128,128);stroke-opacity: 0.5;stroke-linejoin: bevel;stroke-dasharray: 2.0, 2.0;shape-rendering:crispEdges;" transform="matrix(1,0,0,1,0,0)" clip-path="url(#_34531821118191clip-2)"/><g style="fill: rgb(0,0,139); fill-opacity: 0.5; stroke: none" transform="matrix(1,0,0,1,0,0)" clip-path="url(#_34531821118191clip-2)"><path d="M 90.09 192.13 L 90.09 192.13 L 108.08 195.25 L 126.08 198.38 L 144.07 201.5 L 162.07 204.62 L 180.06 207.75 L 198.05 210.87 L 216.05 213.99 L 234.04 217.12 L 252.03 220.24 L 270.03 223.36 L 288.02 226.48 L 306.02 229.61 L 324.01 232.73 L 342 235.85 L 360 238.98 L 377.99 242.1 L 395.98 245.22 L 413.98 248.35 L 431.97 251.47 L 449.97 254.59 L 467.96 257.71 L 485.95 260.84 L 503.95 263.96 L 521.94 267.08 L 539.93 270.21 L 557.93 273.33 L 575.92 276.45 L 593.92 279.58 L 611.91 282.7 L 611.91 410.9 L 593.92 410.44 L 575.92 409.98 L 557.93 409.52 L 539.93 409.07 L 521.94 408.61 L 503.95 408.15 L 485.95 407.69 L 467.96 407.23 L 449.97 406.77 L 431.97 406.31 L 413.98 405.85 L 395.98 405.39 L 377.99 404.93 L 360 404.47 L 342 404.01 L 324.01 403.55 L 306.02 403.1 L 288.02 402.64 L 270.03 402.18 L 252.03 401.72 L 234.04 401.26 L 216.05 400.8 L 198.05 400.34 L 180.06 399.88 L 162.07 399.42 L 144.07 398.96 L 126.08 398.5 L 108.08 398.04 L 90.09 397.59 L 90.09 192.13 L 90.09 192.13 Z "/></g><g style="fill: rgb(0,102,204); fill-opacity: 0.5; stroke: none" transform="matrix(1,0,0,1,0,0)" clip-path="url(#_34531821118191clip-2)"><path d="M 90.09 335.95 L 90.09 335.95 L 90.09 397.59 L 611.91 410.9 L 611.91 372.44 L 90.09 335.95 L 90.09 335.95 Z "/></g><line x1="90.09" y1="192.13" x2="108.08" y2="195.25" style="stroke-width: 1.5;stroke: rgb(0,0,0);stroke-opacity: 0.5;stroke-linecap: round;stroke-linejoin: round;shape-rendering:geometricPrecision;" transform="matrix(1,0,0,1,0,0)" clip-path="url(#_34531821118191clip-2)"/><line x1="108.08" y1="195.25" x2="126.08" y2="198.38" style="stroke-width: 1.5;stroke: rgb(0,0,0);stroke-opacity: 0.5;stroke-linecap: round;stroke-linejoin: round;shape-rendering:geometricPrecision;" transform="matrix(1,0,0,1,0,0)" clip-path="url(#_34531821118191clip-2)"/><line x1="126.08" y1="198.38" x2="144.07" y2="201.5" style="stroke-width: 1.5;stroke: rgb(0,0,0);stroke-opacity: 0.5;stroke-linecap: round;stroke-linejoin: round;shape-rendering:geometricPrecision;" transform="matrix(1,0,0,1,0,0)" clip-path="url(#_34531821118191clip-2)"/><line x1="144.07" y1="201.5" x2="162.07" y2="204.62" style="stroke-width: 1.5;stroke: rgb(0,0,0);stroke-opacity: 0.5;stroke-linecap: round;stroke-linejoin: round;shape-rendering:geometricPrecision;" transform="matrix(1,0,0,1,0,0)" clip-path="url(#_34531821118191clip-2)"/><line x1="162.07" y1="204.62" x2="180.06" y2="207.75" style="stroke-width: 1.5;stroke: rgb(0,0,0);stroke-opacity: 0.5;stroke-linecap: round;stroke-linejoin: round;shape-rendering:geometricPrecision;" transform="matrix(1,0,0,1,0,0)" clip-path="url(#_34531821118191clip-2)"/><line x1="180.06" y1="207.75" x2="198.05" y2="210.87" style="stroke-width: 1.5;stroke: rgb(0,0,0);stroke-opacity: 0.5;stroke-linecap: round;stroke-linejoin: round;shape-rendering:geometricPrecision;" transform="matrix(1,0,0,1,0,0)" clip-path="url(#_34531821118191clip-2)"/><line x1="198.05" y1="210.87" x2="216.05" y2="213.99" style="stroke-width: 1.5;stroke: rgb(0,0,0);stroke-opacity: 0.5;stroke-linecap: round;stroke-linejoin: round;shape-rendering:geometricPrecision;" transform="matrix(1,0,0,1,0,0)" clip-path="url(#_34531821118191clip-2)"/><line x1="216.05" y1="213.99" x2="234.04" y2="217.12" style="stroke-width: 1.5;stroke: rgb(0,0,0);stroke-opacity: 0.5;stroke-linecap: round;stroke-linejoin: round;shape-rendering:geometricPrecision;" transform="matrix(1,0,0,1,0,0)" clip-path="url(#_34531821118191clip-2)"/><line x1="234.04" y1="217.12" x2="252.03" y2="220.24" style="stroke-width: 1.5;stroke: rgb(0,0,0);stroke-opacity: 0.5;stroke-linecap: round;stroke-linejoin: round;shape-rendering:geometricPrecision;" transform="matrix(1,0,0,1,0,0)" clip-path="url(#_34531821118191clip-2)"/><line x1="252.03" y1="220.24" x2="270.03" y2="223.36" style="stroke-width: 1.5;stroke: rgb(0,0,0);stroke-opacity: 0.5;stroke-linecap: round;stroke-linejoin: round;shape-rendering:geometricPrecision;" transform="matrix(1,0,0,1,0,0)" clip-path="url(#_34531821118191clip-2)"/><line x1="270.03" y1="223.36" x2="288.02" y2="226.48" style="stroke-width: 1.5;stroke: rgb(0,0,0);stroke-opacity: 0.5;stroke-linecap: round;stroke-linejoin: round;shape-rendering:geometricPrecision;" transform="matrix(1,0,0,1,0,0)" clip-path="url(#_34531821118191clip-2)"/><line x1="288.02" y1="226.48" x2="306.02" y2="229.61" style="stroke-width: 1.5;stroke: rgb(0,0,0);stroke-opacity: 0.5;stroke-linecap: round;stroke-linejoin: round;shape-rendering:geometricPrecision;" transform="matrix(1,0,0,1,0,0)" clip-path="url(#_34531821118191clip-2)"/><line x1="306.02" y1="229.61" x2="324.01" y2="232.73" style="stroke-width: 1.5;stroke: rgb(0,0,0);stroke-opacity: 0.5;stroke-linecap: round;stroke-linejoin: round;shape-rendering:geometricPrecision;" transform="matrix(1,0,0,1,0,0)" clip-path="url(#_34531821118191clip-2)"/><line x1="324.01" y1="232.73" x2="342" y2="235.85" style="stroke-width: 1.5;stroke: rgb(0,0,0);stroke-opacity: 0.5;stroke-linecap: round;stroke-linejoin: round;shape-rendering:geometricPrecision;" transform="matrix(1,0,0,1,0,0)" clip-path="url(#_34531821118191clip-2)"/><line x1="342" y1="235.85" x2="360" y2="238.98" style="stroke-width: 1.5;stroke: rgb(0,0,0);stroke-opacity: 0.5;stroke-linecap: round;stroke-linejoin: round;shape-rendering:geometricPrecision;" transform="matrix(1,0,0,1,0,0)" clip-path="url(#_34531821118191clip-2)"/><line x1="360" y1="238.98" x2="377.99" y2="242.1" style="stroke-width: 1.5;stroke: rgb(0,0,0);stroke-opacity: 0.5;stroke-linecap: round;stroke-linejoin: round;shape-rendering:geometricPrecision;" transform="matrix(1,0,0,1,0,0)" clip-path="url(#_34531821118191clip-2)"/><line x1="377.99" y1="242.1" x2="395.98" y2="245.22" style="stroke-width: 1.5;stroke: rgb(0,0,0);stroke-opacity: 0.5;stroke-linecap: round;stroke-linejoin: round;shape-rendering:geometricPrecision;" transform="matrix(1,0,0,1,0,0)" clip-path="url(#_34531821118191clip-2)"/><line x1="395.98" y1="245.22" x2="413.98" y2="248.35" style="stroke-width: 1.5;stroke: rgb(0,0,0);stroke-opacity: 0.5;stroke-linecap: round;stroke-linejoin: round;shape-rendering:geometricPrecision;" transform="matrix(1,0,0,1,0,0)" clip-path="url(#_34531821118191clip-2)"/><line x1="413.98" y1="248.35" x2="431.97" y2="251.47" style="stroke-width: 1.5;stroke: rgb(0,0,0);stroke-opacity: 0.5;stroke-linecap: round;stroke-linejoin: round;shape-rendering:geometricPrecision;" transform="matrix(1,0,0,1,0,0)" clip-path="url(#_34531821118191clip-2)"/><line x1="431.97" y1="251.47" x2="449.97" y2="254.59" style="stroke-width: 1.5;stroke: rgb(0,0,0);stroke-opacity: 0.5;stroke-linecap: round;stroke-linejoin: round;shape-rendering:geometricPrecision;" transform="matrix(1,0,0,1,0,0)" clip-path="url(#_34531821118191clip-2)"/><line x1="449.97" y1="254.59" x2="467.96" y2="257.71" style="stroke-width: 1.5;stroke: rgb(0,0,0);stroke-opacity: 0.5;stroke-linecap: round;stroke-linejoin: round;shape-rendering:geometricPrecision;" transform="matrix(1,0,0,1,0,0)" clip-path="url(#_34531821118191clip-2)"/><line x1="467.96" y1="257.71" x2="485.95" y2="260.84" style="stroke-width: 1.5;stroke: rgb(0,0,0);stroke-opacity: 0.5;stroke-linecap: round;stroke-linejoin: round;shape-rendering:geometricPrecision;" transform="matrix(1,0,0,1,0,0)" clip-path="url(#_34531821118191clip-2)"/><line x1="485.95" y1="260.84" x2="503.95" y2="263.96" style="stroke-width: 1.5;stroke: rgb(0,0,0);stroke-opacity: 0.5;stroke-linecap: round;stroke-linejoin: round;shape-rendering:geometricPrecision;" transform="matrix(1,0,0,1,0,0)" clip-path="url(#_34531821118191clip-2)"/><line x1="503.95" y1="263.96" x2="521.94" y2="267.08" style="stroke-width: 1.5;stroke: rgb(0,0,0);stroke-opacity: 0.5;stroke-linecap: round;stroke-linejoin: round;shape-rendering:geometricPrecision;" transform="matrix(1,0,0,1,0,0)" clip-path="url(#_34531821118191clip-2)"/><line x1="521.94" y1="267.08" x2="539.93" y2="270.21" style="stroke-width: 1.5;stroke: rgb(0,0,0);stroke-opacity: 0.5;stroke-linecap: round;stroke-linejoin: round;shape-rendering:geometricPrecision;" transform="matrix(1,0,0,1,0,0)" clip-path="url(#_34531821118191clip-2)"/><line x1="539.93" y1="270.21" x2="557.93" y2="273.33" style="stroke-width: 1.5;stroke: rgb(0,0,0);stroke-opacity: 0.5;stroke-linecap: round;stroke-linejoin: round;shape-rendering:geometricPrecision;" transform="matrix(1,0,0,1,0,0)" clip-path="url(#_34531821118191clip-2)"/><line x1="557.93" y1="273.33" x2="575.92" y2="276.45" style="stroke-width: 1.5;stroke: rgb(0,0,0);stroke-opacity: 0.5;stroke-linecap: round;stroke-linejoin: round;shape-rendering:geometricPrecision;" transform="matrix(1,0,0,1,0,0)" clip-path="url(#_34531821118191clip-2)"/><line x1="575.92" y1="276.45" x2="593.92" y2="279.58" style="stroke-width: 1.5;stroke: rgb(0,0,0);stroke-opacity: 0.5;stroke-linecap: round;stroke-linejoin: round;shape-rendering:geometricPrecision;" transform="matrix(1,0,0,1,0,0)" clip-path="url(#_34531821118191clip-2)"/><line x1="593.92" y1="279.58" x2="611.91" y2="282.7" style="stroke-width: 1.5;stroke: rgb(0,0,0);stroke-opacity: 0.5;stroke-linecap: round;stroke-linejoin: round;shape-rendering:geometricPrecision;" transform="matrix(1,0,0,1,0,0)" clip-path="url(#_34531821118191clip-2)"/><line x1="611.91" y1="282.7" x2="611.91" y2="410.9" style="stroke-width: 1.5;stroke: rgb(0,0,0);stroke-opacity: 0.5;stroke-linecap: round;stroke-linejoin: round;shape-rendering:geometricPrecision;" transform="matrix(1,0,0,1,0,0)" clip-path="url(#_34531821118191clip-2)"/><line x1="611.91" y1="410.9" x2="593.92" y2="410.44" style="stroke-width: 1.5;stroke: rgb(0,0,0);stroke-opacity: 0.5;stroke-linecap: round;stroke-linejoin: round;shape-rendering:geometricPrecision;" transform="matrix(1,0,0,1,0,0)" clip-path="url(#_34531821118191clip-2)"/><line x1="593.92" y1="410.44" x2="575.92" y2="409.98" style="stroke-width: 1.5;stroke: rgb(0,0,0);stroke-opacity: 0.5;stroke-linecap: round;stroke-linejoin: round;shape-rendering:geometricPrecision;" transform="matrix(1,0,0,1,0,0)" clip-path="url(#_34531821118191clip-2)"/><line x1="575.92" y1="409.98" x2="557.93" y2="409.52" style="stroke-width: 1.5;stroke: rgb(0,0,0);stroke-opacity: 0.5;stroke-linecap: round;stroke-linejoin: round;shape-rendering:geometricPrecision;" transform="matrix(1,0,0,1,0,0)" clip-path="url(#_34531821118191clip-2)"/><line x1="557.93" y1="409.52" x2="539.93" y2="409.07" style="stroke-width: 1.5;stroke: rgb(0,0,0);stroke-opacity: 0.5;stroke-linecap: round;stroke-linejoin: round;shape-rendering:geometricPrecision;" transform="matrix(1,0,0,1,0,0)" clip-path="url(#_34531821118191clip-2)"/><line x1="539.93" y1="409.07" x2="521.94" y2="408.61" style="stroke-width: 1.5;stroke: rgb(0,0,0);stroke-opacity: 0.5;stroke-linecap: round;stroke-linejoin: round;shape-rendering:geometricPrecision;" transform="matrix(1,0,0,1,0,0)" clip-path="url(#_34531821118191clip-2)"/><line x1="521.94" y1="408.61" x2="503.95" y2="408.15" style="stroke-width: 1.5;stroke: rgb(0,0,0);stroke-opacity: 0.5;stroke-linecap: round;stroke-linejoin: round;shape-rendering:geometricPrecision;" transform="matrix(1,0,0,1,0,0)" clip-path="url(#_34531821118191clip-2)"/><line x1="503.95" y1="408.15" x2="485.95" y2="407.69" style="stroke-width: 1.5;stroke: rgb(0,0,0);stroke-opacity: 0.5;stroke-linecap: round;stroke-linejoin: round;shape-rendering:geometricPrecision;" transform="matrix(1,0,0,1,0,0)" clip-path="url(#_34531821118191clip-2)"/><line x1="485.95" y1="407.69" x2="467.96" y2="407.23" style="stroke-width: 1.5;stroke: rgb(0,0,0);stroke-opacity: 0.5;stroke-linecap: round;stroke-linejoin: round;shape-rendering:geometricPrecision;" transform="matrix(1,0,0,1,0,0)" clip-path="url(#_34531821118191clip-2)"/><line x1="467.96" y1="407.23" x2="449.97" y2="406.77" style="stroke-width: 1.5;stroke: rgb(0,0,0);stroke-opacity: 0.5;stroke-linecap: round;stroke-linejoin: round;shape-rendering:geometricPrecision;" transform="matrix(1,0,0,1,0,0)" clip-path="url(#_34531821118191clip-2)"/><line x1="449.97" y1="406.77" x2="431.97" y2="406.31" style="stroke-width: 1.5;stroke: rgb(0,0,0);stroke-opacity: 0.5;stroke-linecap: round;stroke-linejoin: round;shape-rendering:geometricPrecision;" transform="matrix(1,0,0,1,0,0)" clip-path="url(#_34531821118191clip-2)"/><line x1="431.97" y1="406.31" x2="413.98" y2="405.85" style="stroke-width: 1.5;stroke: rgb(0,0,0);stroke-opacity: 0.5;stroke-linecap: round;stroke-linejoin: round;shape-rendering:geometricPrecision;" transform="matrix(1,0,0,1,0,0)" clip-path="url(#_34531821118191clip-2)"/><line x1="413.98" y1="405.85" x2="395.98" y2="405.39" style="stroke-width: 1.5;stroke: rgb(0,0,0);stroke-opacity: 0.5;stroke-linecap: round;stroke-linejoin: round;shape-rendering:geometricPrecision;" transform="matrix(1,0,0,1,0,0)" clip-path="url(#_34531821118191clip-2)"/><line x1="395.98" y1="405.39" x2="377.99" y2="404.93" style="stroke-width: 1.5;stroke: rgb(0,0,0);stroke-opacity: 0.5;stroke-linecap: round;stroke-linejoin: round;shape-rendering:geometricPrecision;" transform="matrix(1,0,0,1,0,0)" clip-path="url(#_34531821118191clip-2)"/><line x1="377.99" y1="404.93" x2="360" y2="404.47" style="stroke-width: 1.5;stroke: rgb(0,0,0);stroke-opacity: 0.5;stroke-linecap: round;stroke-linejoin: round;shape-rendering:geometricPrecision;" transform="matrix(1,0,0,1,0,0)" clip-path="url(#_34531821118191clip-2)"/><line x1="360" y1="404.47" x2="342" y2="404.01" style="stroke-width: 1.5;stroke: rgb(0,0,0);stroke-opacity: 0.5;stroke-linecap: round;stroke-linejoin: round;shape-rendering:geometricPrecision;" transform="matrix(1,0,0,1,0,0)" clip-path="url(#_34531821118191clip-2)"/><line x1="342" y1="404.01" x2="324.01" y2="403.55" style="stroke-width: 1.5;stroke: rgb(0,0,0);stroke-opacity: 0.5;stroke-linecap: round;stroke-linejoin: round;shape-rendering:geometricPrecision;" transform="matrix(1,0,0,1,0,0)" clip-path="url(#_34531821118191clip-2)"/><line x1="324.01" y1="403.55" x2="306.02" y2="403.1" style="stroke-width: 1.5;stroke: rgb(0,0,0);stroke-opacity: 0.5;stroke-linecap: round;stroke-linejoin: round;shape-rendering:geometricPrecision;" transform="matrix(1,0,0,1,0,0)" clip-path="url(#_34531821118191clip-2)"/><line x1="306.02" y1="403.1" x2="288.02" y2="402.64" style="stroke-width: 1.5;stroke: rgb(0,0,0);stroke-opacity: 0.5;stroke-linecap: round;stroke-linejoin: round;shape-rendering:geometricPrecision;" transform="matrix(1,0,0,1,0,0)" clip-path="url(#_34531821118191clip-2)"/><line x1="288.02" y1="402.64" x2="270.03" y2="402.18" style="stroke-width: 1.5;stroke: rgb(0,0,0);stroke-opacity: 0.5;stroke-linecap: round;stroke-linejoin: round;shape-rendering:geometricPrecision;" transform="matrix(1,0,0,1,0,0)" clip-path="url(#_34531821118191clip-2)"/><line x1="270.03" y1="402.18" x2="252.03" y2="401.72" style="stroke-width: 1.5;stroke: rgb(0,0,0);stroke-opacity: 0.5;stroke-linecap: round;stroke-linejoin: round;shape-rendering:geometricPrecision;" transform="matrix(1,0,0,1,0,0)" clip-path="url(#_34531821118191clip-2)"/><line x1="252.03" y1="401.72" x2="234.04" y2="401.26" style="stroke-width: 1.5;stroke: rgb(0,0,0);stroke-opacity: 0.5;stroke-linecap: round;stroke-linejoin: round;shape-rendering:geometricPrecision;" transform="matrix(1,0,0,1,0,0)" clip-path="url(#_34531821118191clip-2)"/><line x1="234.04" y1="401.26" x2="216.05" y2="400.8" style="stroke-width: 1.5;stroke: rgb(0,0,0);stroke-opacity: 0.5;stroke-linecap: round;stroke-linejoin: round;shape-rendering:geometricPrecision;" transform="matrix(1,0,0,1,0,0)" clip-path="url(#_34531821118191clip-2)"/><line x1="216.05" y1="400.8" x2="198.05" y2="400.34" style="stroke-width: 1.5;stroke: rgb(0,0,0);stroke-opacity: 0.5;stroke-linecap: round;stroke-linejoin: round;shape-rendering:geometricPrecision;" transform="matrix(1,0,0,1,0,0)" clip-path="url(#_34531821118191clip-2)"/><line x1="198.05" y1="400.34" x2="180.06" y2="399.88" style="stroke-width: 1.5;stroke: rgb(0,0,0);stroke-opacity: 0.5;stroke-linecap: round;stroke-linejoin: round;shape-rendering:geometricPrecision;" transform="matrix(1,0,0,1,0,0)" clip-path="url(#_34531821118191clip-2)"/><line x1="180.06" y1="399.88" x2="162.07" y2="399.42" style="stroke-width: 1.5;stroke: rgb(0,0,0);stroke-opacity: 0.5;stroke-linecap: round;stroke-linejoin: round;shape-rendering:geometricPrecision;" transform="matrix(1,0,0,1,0,0)" clip-path="url(#_34531821118191clip-2)"/><line x1="162.07" y1="399.42" x2="144.07" y2="398.96" style="stroke-width: 1.5;stroke: rgb(0,0,0);stroke-opacity: 0.5;stroke-linecap: round;stroke-linejoin: round;shape-rendering:geometricPrecision;" transform="matrix(1,0,0,1,0,0)" clip-path="url(#_34531821118191clip-2)"/><line x1="144.07" y1="398.96" x2="126.08" y2="398.5" style="stroke-width: 1.5;stroke: rgb(0,0,0);stroke-opacity: 0.5;stroke-linecap: round;stroke-linejoin: round;shape-rendering:geometricPrecision;" transform="matrix(1,0,0,1,0,0)" clip-path="url(#_34531821118191clip-2)"/><line x1="126.08" y1="398.5" x2="108.08" y2="398.04" style="stroke-width: 1.5;stroke: rgb(0,0,0);stroke-opacity: 0.5;stroke-linecap: round;stroke-linejoin: round;shape-rendering:geometricPrecision;" transform="matrix(1,0,0,1,0,0)" clip-path="url(#_34531821118191clip-2)"/><line x1="108.08" y1="398.04" x2="90.09" y2="397.59" style="stroke-width: 1.5;stroke: rgb(0,0,0);stroke-opacity: 0.5;stroke-linecap: round;stroke-linejoin: round;shape-rendering:geometricPrecision;" transform="matrix(1,0,0,1,0,0)" clip-path="url(#_34531821118191clip-2)"/><line x1="90.09" y1="397.59" x2="90.09" y2="192.13" style="stroke-width: 1.5;stroke: rgb(0,0,0);stroke-opacity: 0.5;stroke-linecap: round;stroke-linejoin: round;shape-rendering:geometricPrecision;" transform="matrix(1,0,0,1,0,0)" clip-path="url(#_34531821118191clip-2)"/><line x1="90.09" y1="335.95" x2="90.09" y2="397.59" style="stroke-width: 1.5;stroke: rgb(0,0,0);stroke-opacity: 0.5;stroke-linecap: round;stroke-linejoin: round;shape-rendering:geometricPrecision;" transform="matrix(1,0,0,1,0,0)" clip-path="url(#_34531821118191clip-2)"/><line x1="90.09" y1="397.59" x2="611.91" y2="410.9" style="stroke-width: 1.5;stroke: rgb(0,0,0);stroke-opacity: 0.5;stroke-linecap: round;stroke-linejoin: round;shape-rendering:geometricPrecision;" transform="matrix(1,0,0,1,0,0)" clip-path="url(#_34531821118191clip-2)"/><line x1="611.91" y1="410.9" x2="611.91" y2="372.44" style="stroke-width: 1.5;stroke: rgb(0,0,0);stroke-opacity: 0.5;stroke-linecap: round;stroke-linejoin: round;shape-rendering:geometricPrecision;" transform="matrix(1,0,0,1,0,0)" clip-path="url(#_34531821118191clip-2)"/><line x1="611.91" y1="372.44" x2="90.09" y2="335.95" style="stroke-width: 1.5;stroke: rgb(0,0,0);stroke-opacity: 0.5;stroke-linecap: round;stroke-linejoin: round;shape-rendering:geometricPrecision;" transform="matrix(1,0,0,1,0,0)" clip-path="url(#_34531821118191clip-2)"/><line x1="330.86" y1="233.92" x2="330.86" y2="403.73" style="stroke-width: 2.5;stroke: rgb(255,85,85);stroke-opacity: 0.5;stroke-linecap: round;stroke-linejoin: round;stroke-dasharray: 5.0;shape-rendering:geometricPrecision;" transform="matrix(1,0,0,1,0,0)" clip-path="url(#_34531821118191clip-2)"/><rect x="64" y="35" width="574" height="565" style="stroke-width: 0.5;stroke: rgb(0,0,0);stroke-opacity: 1.0;stroke-linecap: round;stroke-linejoin: round;shape-rendering:crispEdges;; fill: none" transform="matrix(1,0,0,1,0,0)" clip-path="url(#_34531821118191clip-0)"/></svg>
