<!DOCTYPE svg PUBLIC "-//W3C//DTD SVG 1.1//EN" "http://www.w3.org/Graphics/SVG/1.1/DTD/svg11.dtd">
<svg xmlns="http://www.w3.org/2000/svg" xmlns:xlink="http://www.w3.org/1999/xlink" xmlns:jfreesvg="http://www.jfree.org/jfreesvg/svg" width="700" height="600" text-rendering="auto" shape-rendering="auto">
<defs><clipPath id="_94092898544355clip-0"><path d="M 0 0 L 700 0 L 700 600 L 0 600 L 0 0 Z "/></clipPath>
<clipPath id="_94092898544355clip-1"><path d="M 312 273 L 312 973 L -288 973 L -288 273 L 312 273 Z "/></clipPath>
<clipPath id="_94092898544355clip-2"><path d="M 60 35 L 60 550 L 688 550 L 688 35 Z "/></clipPath>
</defs>
<rect x="0" y="0" width="700" height="600" style="fill: rgb(245,245,245); fill-opacity: 1.0" transform="matrix(1,0,0,1,0,0)" clip-path="url(#_94092898544355clip-0)"/><g transform="matrix(1,0,0,1,0,0)"><text x="151" y="21.01" style="fill: rgb(0,0,0); fill-opacity: 1.0; font-family: Tahoma; font-size: 20px; font-weight: bold;" clip-path="url(#_94092898544355clip-0)">Horizontal Tail Planform representation</text></g><rect x="60" y="35" width="628" height="515" style="fill: rgb(240,248,255); fill-opacity: 0.0" transform="matrix(1,0,0,1,0,0)" clip-path="url(#_94092898544355clip-0)"/><line x1="60" y1="554" x2="688" y2="554" style="stroke-width: 0.5;stroke: rgb(128,128,128);stroke-opacity: 1.0;stroke-linecap: square;shape-rendering:crispEdges;" transform="matrix(1,0,0,1,0,0)" clip-path="url(#_94092898544355clip-0)"/><g transform="matrix(1,0,0,1,0,0)"><text x="80.05" y="570.52" style="fill: rgb(64,64,64); fill-opacity: 1.0; font-family: Tahoma; font-size: 12px;" clip-path="url(#_94092898544355clip-0)">0,0</text></g><line x1="88.55" y1="556" x2="88.55" y2="554" style="stroke-width: 0.5;stroke: rgb(128,128,128);stroke-opacity: 1.0;stroke-linecap: square;shape-rendering:crispEdges;" transform="matrix(1,0,0,1,0,0)" clip-path="url(#_94092898544355clip-0)"/><g transform="matrix(1,0,0,1,0,0)"><text x="142.83" y="570.52" style="fill: rgb(64,64,64); fill-opacity: 1.0; font-family: Tahoma; font-size: 12px;" clip-path="url(#_94092898544355clip-0)">0,5</text></g><line x1="151.33" y1="556" x2="151.33" y2="554" style="stroke-width: 0.5;stroke: rgb(128,128,128);stroke-opacity: 1.0;stroke-linecap: square;shape-rendering:crispEdges;" transform="matrix(1,0,0,1,0,0)" clip-path="url(#_94092898544355clip-0)"/><g transform="matrix(1,0,0,1,0,0)"><text x="205.6" y="570.52" style="fill: rgb(64,64,64); fill-opacity: 1.0; font-family: Tahoma; font-size: 12px;" clip-path="url(#_94092898544355clip-0)">1,0</text></g><line x1="214.1" y1="556" x2="214.1" y2="554" style="stroke-width: 0.5;stroke: rgb(128,128,128);stroke-opacity: 1.0;stroke-linecap: square;shape-rendering:crispEdges;" transform="matrix(1,0,0,1,0,0)" clip-path="url(#_94092898544355clip-0)"/><g transform="matrix(1,0,0,1,0,0)"><text x="268.38" y="570.52" style="fill: rgb(64,64,64); fill-opacity: 1.0; font-family: Tahoma; font-size: 12px;" clip-path="url(#_94092898544355clip-0)">1,5</text></g><line x1="276.88" y1="556" x2="276.88" y2="554" style="stroke-width: 0.5;stroke: rgb(128,128,128);stroke-opacity: 1.0;stroke-linecap: square;shape-rendering:crispEdges;" transform="matrix(1,0,0,1,0,0)" clip-path="url(#_94092898544355clip-0)"/><g transform="matrix(1,0,0,1,0,0)"><text x="331.16" y="570.52" style="fill: rgb(64,64,64); fill-opacity: 1.0; font-family: Tahoma; font-size: 12px;" clip-path="url(#_94092898544355clip-0)">2,0</text></g><line x1="339.66" y1="556" x2="339.66" y2="554" style="stroke-width: 0.5;stroke: rgb(128,128,128);stroke-opacity: 1.0;stroke-linecap: square;shape-rendering:crispEdges;" transform="matrix(1,0,0,1,0,0)" clip-path="url(#_94092898544355clip-0)"/><g transform="matrix(1,0,0,1,0,0)"><text x="393.94" y="570.52" style="fill: rgb(64,64,64); fill-opacity: 1.0; font-family: Tahoma; font-size: 12px;" clip-path="url(#_94092898544355clip-0)">2,5</text></g><line x1="402.44" y1="556" x2="402.44" y2="554" style="stroke-width: 0.5;stroke: rgb(128,128,128);stroke-opacity: 1.0;stroke-linecap: square;shape-rendering:crispEdges;" transform="matrix(1,0,0,1,0,0)" clip-path="url(#_94092898544355clip-0)"/><g transform="matrix(1,0,0,1,0,0)"><text x="456.72" y="570.52" style="fill: rgb(64,64,64); fill-opacity: 1.0; font-family: Tahoma; font-size: 12px;" clip-path="url(#_94092898544355clip-0)">3,0</text></g><line x1="465.22" y1="556" x2="465.22" y2="554" style="stroke-width: 0.5;stroke: rgb(128,128,128);stroke-opacity: 1.0;stroke-linecap: square;shape-rendering:crispEdges;" transform="matrix(1,0,0,1,0,0)" clip-path="url(#_94092898544355clip-0)"/><g transform="matrix(1,0,0,1,0,0)"><text x="519.5" y="570.52" style="fill: rgb(64,64,64); fill-opacity: 1.0; font-family: Tahoma; font-size: 12px;" clip-path="url(#_94092898544355clip-0)">3,5</text></g><line x1="528" y1="556" x2="528" y2="554" style="stroke-width: 0.5;stroke: rgb(128,128,128);stroke-opacity: 1.0;stroke-linecap: square;shape-rendering:crispEdges;" transform="matrix(1,0,0,1,0,0)" clip-path="url(#_94092898544355clip-0)"/><g transform="matrix(1,0,0,1,0,0)"><text x="582.28" y="570.52" style="fill: rgb(64,64,64); fill-opacity: 1.0; font-family: Tahoma; font-size: 12px;" clip-path="url(#_94092898544355clip-0)">4,0</text></g><line x1="590.78" y1="556" x2="590.78" y2="554" style="stroke-width: 0.5;stroke: rgb(128,128,128);stroke-opacity: 1.0;stroke-linecap: square;shape-rendering:crispEdges;" transform="matrix(1,0,0,1,0,0)" clip-path="url(#_94092898544355clip-0)"/><g transform="matrix(1,0,0,1,0,0)"><text x="645.06" y="570.52" style="fill: rgb(64,64,64); fill-opacity: 1.0; font-family: Tahoma; font-size: 12px;" clip-path="url(#_94092898544355clip-0)">4,5</text></g><line x1="653.56" y1="556" x2="653.56" y2="554" style="stroke-width: 0.5;stroke: rgb(128,128,128);stroke-opacity: 1.0;stroke-linecap: square;shape-rendering:crispEdges;" transform="matrix(1,0,0,1,0,0)" clip-path="url(#_94092898544355clip-0)"/><g transform="matrix(1,0,0,1,0,0)"><text x="354.5" y="589.59" style="fill: rgb(64,64,64); fill-opacity: 1.0; font-family: Tahoma; font-size: 14px; font-weight: bold;" clip-path="url(#_94092898544355clip-0)">x (m)</text></g><line x1="56" y1="35" x2="56" y2="550" style="stroke-width: 0.5;stroke: rgb(128,128,128);stroke-opacity: 1.0;stroke-linecap: square;shape-rendering:crispEdges;" transform="matrix(1,0,0,1,0,0)" clip-path="url(#_94092898544355clip-0)"/><g transform="matrix(1,0,0,1,0,0)"><text x="33" y="54.1" style="fill: rgb(64,64,64); fill-opacity: 1.0; font-family: Tahoma; font-size: 12px;" clip-path="url(#_94092898544355clip-0)">0,2</text></g><line x1="54" y1="49.08" x2="56" y2="49.08" style="stroke-width: 0.5;stroke: rgb(128,128,128);stroke-opacity: 1.0;stroke-linecap: square;shape-rendering:crispEdges;" transform="matrix(1,0,0,1,0,0)" clip-path="url(#_94092898544355clip-0)"/><g transform="matrix(1,0,0,1,0,0)"><text x="33" y="74.69" style="fill: rgb(64,64,64); fill-opacity: 1.0; font-family: Tahoma; font-size: 12px;" clip-path="url(#_94092898544355clip-0)">0,4</text></g><line x1="54" y1="69.67" x2="56" y2="69.67" style="stroke-width: 0.5;stroke: rgb(128,128,128);stroke-opacity: 1.0;stroke-linecap: square;shape-rendering:crispEdges;" transform="matrix(1,0,0,1,0,0)" clip-path="url(#_94092898544355clip-0)"/><g transform="matrix(1,0,0,1,0,0)"><text x="33" y="95.29" style="fill: rgb(64,64,64); fill-opacity: 1.0; font-family: Tahoma; font-size: 12px;" clip-path="url(#_94092898544355clip-0)">0,6</text></g><line x1="54" y1="90.26" x2="56" y2="90.26" style="stroke-width: 0.5;stroke: rgb(128,128,128);stroke-opacity: 1.0;stroke-linecap: square;shape-rendering:crispEdges;" transform="matrix(1,0,0,1,0,0)" clip-path="url(#_94092898544355clip-0)"/><g transform="matrix(1,0,0,1,0,0)"><text x="33" y="115.88" style="fill: rgb(64,64,64); fill-opacity: 1.0; font-family: Tahoma; font-size: 12px;" clip-path="url(#_94092898544355clip-0)">0,8</text></g><line x1="54" y1="110.86" x2="56" y2="110.86" style="stroke-width: 0.5;stroke: rgb(128,128,128);stroke-opacity: 1.0;stroke-linecap: square;shape-rendering:crispEdges;" transform="matrix(1,0,0,1,0,0)" clip-path="url(#_94092898544355clip-0)"/><g transform="matrix(1,0,0,1,0,0)"><text x="33" y="136.47" style="fill: rgb(64,64,64); fill-opacity: 1.0; font-family: Tahoma; font-size: 12px;" clip-path="url(#_94092898544355clip-0)">1,0</text></g><line x1="54" y1="131.45" x2="56" y2="131.45" style="stroke-width: 0.5;stroke: rgb(128,128,128);stroke-opacity: 1.0;stroke-linecap: square;shape-rendering:crispEdges;" transform="matrix(1,0,0,1,0,0)" clip-path="url(#_94092898544355clip-0)"/><g transform="matrix(1,0,0,1,0,0)"><text x="33" y="157.07" style="fill: rgb(64,64,64); fill-opacity: 1.0; font-family: Tahoma; font-size: 12px;" clip-path="url(#_94092898544355clip-0)">1,2</text></g><line x1="54" y1="152.04" x2="56" y2="152.04" style="stroke-width: 0.5;stroke: rgb(128,128,128);stroke-opacity: 1.0;stroke-linecap: square;shape-rendering:crispEdges;" transform="matrix(1,0,0,1,0,0)" clip-path="url(#_94092898544355clip-0)"/><g transform="matrix(1,0,0,1,0,0)"><text x="33" y="177.66" style="fill: rgb(64,64,64); fill-opacity: 1.0; font-family: Tahoma; font-size: 12px;" clip-path="url(#_94092898544355clip-0)">1,4</text></g><line x1="54" y1="172.64" x2="56" y2="172.64" style="stroke-width: 0.5;stroke: rgb(128,128,128);stroke-opacity: 1.0;stroke-linecap: square;shape-rendering:crispEdges;" transform="matrix(1,0,0,1,0,0)" clip-path="url(#_94092898544355clip-0)"/><g transform="matrix(1,0,0,1,0,0)"><text x="33" y="198.25" style="fill: rgb(64,64,64); fill-opacity: 1.0; font-family: Tahoma; font-size: 12px;" clip-path="url(#_94092898544355clip-0)">1,6</text></g><line x1="54" y1="193.23" x2="56" y2="193.23" style="stroke-width: 0.5;stroke: rgb(128,128,128);stroke-opacity: 1.0;stroke-linecap: square;shape-rendering:crispEdges;" transform="matrix(1,0,0,1,0,0)" clip-path="url(#_94092898544355clip-0)"/><g transform="matrix(1,0,0,1,0,0)"><text x="33" y="218.85" style="fill: rgb(64,64,64); fill-opacity: 1.0; font-family: Tahoma; font-size: 12px;" clip-path="url(#_94092898544355clip-0)">1,8</text></g><line x1="54" y1="213.82" x2="56" y2="213.82" style="stroke-width: 0.5;stroke: rgb(128,128,128);stroke-opacity: 1.0;stroke-linecap: square;shape-rendering:crispEdges;" transform="matrix(1,0,0,1,0,0)" clip-path="url(#_94092898544355clip-0)"/><g transform="matrix(1,0,0,1,0,0)"><text x="33" y="239.44" style="fill: rgb(64,64,64); fill-opacity: 1.0; font-family: Tahoma; font-size: 12px;" clip-path="url(#_94092898544355clip-0)">2,0</text></g><line x1="54" y1="234.42" x2="56" y2="234.42" style="stroke-width: 0.5;stroke: rgb(128,128,128);stroke-opacity: 1.0;stroke-linecap: square;shape-rendering:crispEdges;" transform="matrix(1,0,0,1,0,0)" clip-path="url(#_94092898544355clip-0)"/><g transform="matrix(1,0,0,1,0,0)"><text x="33" y="260.03" style="fill: rgb(64,64,64); fill-opacity: 1.0; font-family: Tahoma; font-size: 12px;" clip-path="url(#_94092898544355clip-0)">2,2</text></g><line x1="54" y1="255.01" x2="56" y2="255.01" style="stroke-width: 0.5;stroke: rgb(128,128,128);stroke-opacity: 1.0;stroke-linecap: square;shape-rendering:crispEdges;" transform="matrix(1,0,0,1,0,0)" clip-path="url(#_94092898544355clip-0)"/><g transform="matrix(1,0,0,1,0,0)"><text x="33" y="280.63" style="fill: rgb(64,64,64); fill-opacity: 1.0; font-family: Tahoma; font-size: 12px;" clip-path="url(#_94092898544355clip-0)">2,4</text></g><line x1="54" y1="275.6" x2="56" y2="275.6" style="stroke-width: 0.5;stroke: rgb(128,128,128);stroke-opacity: 1.0;stroke-linecap: square;shape-rendering:crispEdges;" transform="matrix(1,0,0,1,0,0)" clip-path="url(#_94092898544355clip-0)"/><g transform="matrix(1,0,0,1,0,0)"><text x="33" y="301.22" style="fill: rgb(64,64,64); fill-opacity: 1.0; font-family: Tahoma; font-size: 12px;" clip-path="url(#_94092898544355clip-0)">2,6</text></g><line x1="54" y1="296.2" x2="56" y2="296.2" style="stroke-width: 0.5;stroke: rgb(128,128,128);stroke-opacity: 1.0;stroke-linecap: square;shape-rendering:crispEdges;" transform="matrix(1,0,0,1,0,0)" clip-path="url(#_94092898544355clip-0)"/><g transform="matrix(1,0,0,1,0,0)"><text x="33" y="321.81" style="fill: rgb(64,64,64); fill-opacity: 1.0; font-family: Tahoma; font-size: 12px;" clip-path="url(#_94092898544355clip-0)">2,8</text></g><line x1="54" y1="316.79" x2="56" y2="316.79" style="stroke-width: 0.5;stroke: rgb(128,128,128);stroke-opacity: 1.0;stroke-linecap: square;shape-rendering:crispEdges;" transform="matrix(1,0,0,1,0,0)" clip-path="url(#_94092898544355clip-0)"/><g transform="matrix(1,0,0,1,0,0)"><text x="33" y="342.41" style="fill: rgb(64,64,64); fill-opacity: 1.0; font-family: Tahoma; font-size: 12px;" clip-path="url(#_94092898544355clip-0)">3,0</text></g><line x1="54" y1="337.38" x2="56" y2="337.38" style="stroke-width: 0.5;stroke: rgb(128,128,128);stroke-opacity: 1.0;stroke-linecap: square;shape-rendering:crispEdges;" transform="matrix(1,0,0,1,0,0)" clip-path="url(#_94092898544355clip-0)"/><g transform="matrix(1,0,0,1,0,0)"><text x="33" y="363" style="fill: rgb(64,64,64); fill-opacity: 1.0; font-family: Tahoma; font-size: 12px;" clip-path="url(#_94092898544355clip-0)">3,2</text></g><line x1="54" y1="357.98" x2="56" y2="357.98" style="stroke-width: 0.5;stroke: rgb(128,128,128);stroke-opacity: 1.0;stroke-linecap: square;shape-rendering:crispEdges;" transform="matrix(1,0,0,1,0,0)" clip-path="url(#_94092898544355clip-0)"/><g transform="matrix(1,0,0,1,0,0)"><text x="33" y="383.59" style="fill: rgb(64,64,64); fill-opacity: 1.0; font-family: Tahoma; font-size: 12px;" clip-path="url(#_94092898544355clip-0)">3,4</text></g><line x1="54" y1="378.57" x2="56" y2="378.57" style="stroke-width: 0.5;stroke: rgb(128,128,128);stroke-opacity: 1.0;stroke-linecap: square;shape-rendering:crispEdges;" transform="matrix(1,0,0,1,0,0)" clip-path="url(#_94092898544355clip-0)"/><g transform="matrix(1,0,0,1,0,0)"><text x="33" y="404.19" style="fill: rgb(64,64,64); fill-opacity: 1.0; font-family: Tahoma; font-size: 12px;" clip-path="url(#_94092898544355clip-0)">3,6</text></g><line x1="54" y1="399.16" x2="56" y2="399.16" style="stroke-width: 0.5;stroke: rgb(128,128,128);stroke-opacity: 1.0;stroke-linecap: square;shape-rendering:crispEdges;" transform="matrix(1,0,0,1,0,0)" clip-path="url(#_94092898544355clip-0)"/><g transform="matrix(1,0,0,1,0,0)"><text x="33" y="424.78" style="fill: rgb(64,64,64); fill-opacity: 1.0; font-family: Tahoma; font-size: 12px;" clip-path="url(#_94092898544355clip-0)">3,8</text></g><line x1="54" y1="419.76" x2="56" y2="419.76" style="stroke-width: 0.5;stroke: rgb(128,128,128);stroke-opacity: 1.0;stroke-linecap: square;shape-rendering:crispEdges;" transform="matrix(1,0,0,1,0,0)" clip-path="url(#_94092898544355clip-0)"/><g transform="matrix(1,0,0,1,0,0)"><text x="33" y="445.37" style="fill: rgb(64,64,64); fill-opacity: 1.0; font-family: Tahoma; font-size: 12px;" clip-path="url(#_94092898544355clip-0)">4,0</text></g><line x1="54" y1="440.35" x2="56" y2="440.35" style="stroke-width: 0.5;stroke: rgb(128,128,128);stroke-opacity: 1.0;stroke-linecap: square;shape-rendering:crispEdges;" transform="matrix(1,0,0,1,0,0)" clip-path="url(#_94092898544355clip-0)"/><g transform="matrix(1,0,0,1,0,0)"><text x="33" y="465.97" style="fill: rgb(64,64,64); fill-opacity: 1.0; font-family: Tahoma; font-size: 12px;" clip-path="url(#_94092898544355clip-0)">4,2</text></g><line x1="54" y1="460.94" x2="56" y2="460.94" style="stroke-width: 0.5;stroke: rgb(128,128,128);stroke-opacity: 1.0;stroke-linecap: square;shape-rendering:crispEdges;" transform="matrix(1,0,0,1,0,0)" clip-path="url(#_94092898544355clip-0)"/><g transform="matrix(1,0,0,1,0,0)"><text x="33" y="486.56" style="fill: rgb(64,64,64); fill-opacity: 1.0; font-family: Tahoma; font-size: 12px;" clip-path="url(#_94092898544355clip-0)">4,4</text></g><line x1="54" y1="481.54" x2="56" y2="481.54" style="stroke-width: 0.5;stroke: rgb(128,128,128);stroke-opacity: 1.0;stroke-linecap: square;shape-rendering:crispEdges;" transform="matrix(1,0,0,1,0,0)" clip-path="url(#_94092898544355clip-0)"/><g transform="matrix(1,0,0,1,0,0)"><text x="33" y="507.15" style="fill: rgb(64,64,64); fill-opacity: 1.0; font-family: Tahoma; font-size: 12px;" clip-path="url(#_94092898544355clip-0)">4,6</text></g><line x1="54" y1="502.13" x2="56" y2="502.13" style="stroke-width: 0.5;stroke: rgb(128,128,128);stroke-opacity: 1.0;stroke-linecap: square;shape-rendering:crispEdges;" transform="matrix(1,0,0,1,0,0)" clip-path="url(#_94092898544355clip-0)"/><g transform="matrix(1,0,0,1,0,0)"><text x="33" y="527.75" style="fill: rgb(64,64,64); fill-opacity: 1.0; font-family: Tahoma; font-size: 12px;" clip-path="url(#_94092898544355clip-0)">4,8</text></g><line x1="54" y1="522.72" x2="56" y2="522.72" style="stroke-width: 0.5;stroke: rgb(128,128,128);stroke-opacity: 1.0;stroke-linecap: square;shape-rendering:crispEdges;" transform="matrix(1,0,0,1,0,0)" clip-path="url(#_94092898544355clip-0)"/><g transform="matrix(1,0,0,1,0,0)"><text x="33" y="548.34" style="fill: rgb(64,64,64); fill-opacity: 1.0; font-family: Tahoma; font-size: 12px;" clip-path="url(#_94092898544355clip-0)">5,0</text></g><line x1="54" y1="543.32" x2="56" y2="543.32" style="stroke-width: 0.5;stroke: rgb(128,128,128);stroke-opacity: 1.0;stroke-linecap: square;shape-rendering:crispEdges;" transform="matrix(1,0,0,1,0,0)" clip-path="url(#_94092898544355clip-0)"/><g style="fill: rgb(64,64,64); fill-opacity: 1.0; stroke: none" transform="matrix(0,-1,1,0,-273,312)" clip-path="url(#_94092898544355clip-1)"><path d="M 8.58 290.44 L 4.7 300.92 L 2.14 300.92 L 3.3 297.92 L 0.48 290.44 L 3 290.44 L 4.61 295.25 L 6.12 290.44 L 8.58 290.44 Z  M 18.47 300.92 L 15.96 300.92 Q 15.38 300.23 14.91 299.5 Q 14.44 298.76 14.1 297.94 Q 13.77 297.14 13.59 296.19 Q 13.41 295.23 13.41 294.2 Q 13.41 293.08 13.6 292.16 Q 13.79 291.23 14.08 290.48 Q 14.41 289.66 14.89 288.92 Q 15.36 288.19 15.96 287.47 L 18.47 287.47 L 18.47 287.67 Q 17.91 288.17 17.41 288.8 Q 16.91 289.44 16.49 290.28 Q 16.07 291.09 15.82 292.08 Q 15.57 293.08 15.57 294.2 Q 15.57 295.37 15.81 296.32 Q 16.05 297.26 16.49 298.11 Q 16.9 298.92 17.41 299.58 Q 17.93 300.25 18.47 300.73 L 18.47 300.92 Z  M 29.11 298.11 L 29.11 294.28 Q 29.11 293.7 29.09 293.31 Q 29.07 292.92 28.97 292.69 Q 28.86 292.44 28.64 292.32 Q 28.42 292.2 28.05 292.2 Q 27.77 292.2 27.5 292.33 Q 27.24 292.45 26.92 292.67 L 26.92 298.11 L 24.52 298.11 L 24.52 294.28 Q 24.52 293.72 24.5 293.32 Q 24.47 292.92 24.36 292.69 Q 24.27 292.44 24.05 292.32 Q 23.83 292.2 23.46 292.2 Q 23.16 292.2 22.88 292.34 Q 22.6 292.48 22.33 292.67 L 22.33 298.11 L 19.94 298.11 L 19.94 290.44 L 22.33 290.44 L 22.33 291.28 Q 22.91 290.78 23.43 290.5 Q 23.96 290.22 24.6 290.22 Q 25.32 290.22 25.85 290.55 Q 26.38 290.89 26.66 291.55 Q 27.35 290.91 27.96 290.56 Q 28.57 290.22 29.19 290.22 Q 29.74 290.22 30.16 290.39 Q 30.58 290.56 30.88 290.91 Q 31.19 291.26 31.35 291.78 Q 31.52 292.3 31.52 293.11 L 31.52 298.11 L 29.11 298.11 Z  M 37.96 294.2 Q 37.96 295.23 37.78 296.19 Q 37.6 297.14 37.29 297.94 Q 36.95 298.76 36.47 299.5 Q 35.99 300.23 35.42 300.92 L 32.92 300.92 L 32.92 300.73 Q 33.46 300.25 33.98 299.59 Q 34.49 298.94 34.9 298.11 Q 35.32 297.26 35.57 296.32 Q 35.82 295.37 35.82 294.2 Q 35.82 293.08 35.56 292.08 Q 35.31 291.09 34.9 290.28 Q 34.46 289.44 33.96 288.8 Q 33.46 288.17 32.92 287.67 L 32.92 287.47 L 35.42 287.47 Q 36.01 288.19 36.49 288.92 Q 36.96 289.66 37.29 290.48 Q 37.59 291.23 37.78 292.16 Q 37.96 293.08 37.96 294.2 Z "/></g><line x1="60" y1="49.08" x2="688" y2="49.08" style="stroke-width: 0.5;stroke: rgb(128,128,128);stroke-opacity: 0.5;stroke-linejoin: bevel;stroke-dasharray: 2.0, 2.0;shape-rendering:crispEdges;" transform="matrix(1,0,0,1,0,0)" clip-path="url(#_94092898544355clip-2)"/><line x1="60" y1="69.67" x2="688" y2="69.67" style="stroke-width: 0.5;stroke: rgb(128,128,128);stroke-opacity: 0.5;stroke-linejoin: bevel;stroke-dasharray: 2.0, 2.0;shape-rendering:crispEdges;" transform="matrix(1,0,0,1,0,0)" clip-path="url(#_94092898544355clip-2)"/><line x1="60" y1="90.26" x2="688" y2="90.26" style="stroke-width: 0.5;stroke: rgb(128,128,128);stroke-opacity: 0.5;stroke-linejoin: bevel;stroke-dasharray: 2.0, 2.0;shape-rendering:crispEdges;" transform="matrix(1,0,0,1,0,0)" clip-path="url(#_94092898544355clip-2)"/><line x1="60" y1="110.86" x2="688" y2="110.86" style="stroke-width: 0.5;stroke: rgb(128,128,128);stroke-opacity: 0.5;stroke-linejoin: bevel;stroke-dasharray: 2.0, 2.0;shape-rendering:crispEdges;" transform="matrix(1,0,0,1,0,0)" clip-path="url(#_94092898544355clip-2)"/><line x1="60" y1="131.45" x2="688" y2="131.45" style="stroke-width: 0.5;stroke: rgb(128,128,128);stroke-opacity: 0.5;stroke-linejoin: bevel;stroke-dasharray: 2.0, 2.0;shape-rendering:crispEdges;" transform="matrix(1,0,0,1,0,0)" clip-path="url(#_94092898544355clip-2)"/><line x1="60" y1="152.04" x2="688" y2="152.04" style="stroke-width: 0.5;stroke: rgb(128,128,128);stroke-opacity: 0.5;stroke-linejoin: bevel;stroke-dasharray: 2.0, 2.0;shape-rendering:crispEdges;" transform="matrix(1,0,0,1,0,0)" clip-path="url(#_94092898544355clip-2)"/><line x1="60" y1="172.64" x2="688" y2="172.64" style="stroke-width: 0.5;stroke: rgb(128,128,128);stroke-opacity: 0.5;stroke-linejoin: bevel;stroke-dasharray: 2.0, 2.0;shape-rendering:crispEdges;" transform="matrix(1,0,0,1,0,0)" clip-path="url(#_94092898544355clip-2)"/><line x1="60" y1="193.23" x2="688" y2="193.23" style="stroke-width: 0.5;stroke: rgb(128,128,128);stroke-opacity: 0.5;stroke-linejoin: bevel;stroke-dasharray: 2.0, 2.0;shape-rendering:crispEdges;" transform="matrix(1,0,0,1,0,0)" clip-path="url(#_94092898544355clip-2)"/><line x1="60" y1="213.82" x2="688" y2="213.82" style="stroke-width: 0.5;stroke: rgb(128,128,128);stroke-opacity: 0.5;stroke-linejoin: bevel;stroke-dasharray: 2.0, 2.0;shape-rendering:crispEdges;" transform="matrix(1,0,0,1,0,0)" clip-path="url(#_94092898544355clip-2)"/><line x1="60" y1="234.42" x2="688" y2="234.42" style="stroke-width: 0.5;stroke: rgb(128,128,128);stroke-opacity: 0.5;stroke-linejoin: bevel;stroke-dasharray: 2.0, 2.0;shape-rendering:crispEdges;" transform="matrix(1,0,0,1,0,0)" clip-path="url(#_94092898544355clip-2)"/><line x1="60" y1="255.01" x2="688" y2="255.01" style="stroke-width: 0.5;stroke: rgb(128,128,128);stroke-opacity: 0.5;stroke-linejoin: bevel;stroke-dasharray: 2.0, 2.0;shape-rendering:crispEdges;" transform="matrix(1,0,0,1,0,0)" clip-path="url(#_94092898544355clip-2)"/><line x1="60" y1="275.6" x2="688" y2="275.6" style="stroke-width: 0.5;stroke: rgb(128,128,128);stroke-opacity: 0.5;stroke-linejoin: bevel;stroke-dasharray: 2.0, 2.0;shape-rendering:crispEdges;" transform="matrix(1,0,0,1,0,0)" clip-path="url(#_94092898544355clip-2)"/><line x1="60" y1="296.2" x2="688" y2="296.2" style="stroke-width: 0.5;stroke: rgb(128,128,128);stroke-opacity: 0.5;stroke-linejoin: bevel;stroke-dasharray: 2.0, 2.0;shape-rendering:crispEdges;" transform="matrix(1,0,0,1,0,0)" clip-path="url(#_94092898544355clip-2)"/><line x1="60" y1="316.79" x2="688" y2="316.79" style="stroke-width: 0.5;stroke: rgb(128,128,128);stroke-opacity: 0.5;stroke-linejoin: bevel;stroke-dasharray: 2.0, 2.0;shape-rendering:crispEdges;" transform="matrix(1,0,0,1,0,0)" clip-path="url(#_94092898544355clip-2)"/><line x1="60" y1="337.38" x2="688" y2="337.38" style="stroke-width: 0.5;stroke: rgb(128,128,128);stroke-opacity: 0.5;stroke-linejoin: bevel;stroke-dasharray: 2.0, 2.0;shape-rendering:crispEdges;" transform="matrix(1,0,0,1,0,0)" clip-path="url(#_94092898544355clip-2)"/><line x1="60" y1="357.98" x2="688" y2="357.98" style="stroke-width: 0.5;stroke: rgb(128,128,128);stroke-opacity: 0.5;stroke-linejoin: bevel;stroke-dasharray: 2.0, 2.0;shape-rendering:crispEdges;" transform="matrix(1,0,0,1,0,0)" clip-path="url(#_94092898544355clip-2)"/><line x1="60" y1="378.57" x2="688" y2="378.57" style="stroke-width: 0.5;stroke: rgb(128,128,128);stroke-opacity: 0.5;stroke-linejoin: bevel;stroke-dasharray: 2.0, 2.0;shape-rendering:crispEdges;" transform="matrix(1,0,0,1,0,0)" clip-path="url(#_94092898544355clip-2)"/><line x1="60" y1="399.16" x2="688" y2="399.16" style="stroke-width: 0.5;stroke: rgb(128,128,128);stroke-opacity: 0.5;stroke-linejoin: bevel;stroke-dasharray: 2.0, 2.0;shape-rendering:crispEdges;" transform="matrix(1,0,0,1,0,0)" clip-path="url(#_94092898544355clip-2)"/><line x1="60" y1="419.76" x2="688" y2="419.76" style="stroke-width: 0.5;stroke: rgb(128,128,128);stroke-opacity: 0.5;stroke-linejoin: bevel;stroke-dasharray: 2.0, 2.0;shape-rendering:crispEdges;" transform="matrix(1,0,0,1,0,0)" clip-path="url(#_94092898544355clip-2)"/><line x1="60" y1="440.35" x2="688" y2="440.35" style="stroke-width: 0.5;stroke: rgb(128,128,128);stroke-opacity: 0.5;stroke-linejoin: bevel;stroke-dasharray: 2.0, 2.0;shape-rendering:crispEdges;" transform="matrix(1,0,0,1,0,0)" clip-path="url(#_94092898544355clip-2)"/><line x1="60" y1="460.94" x2="688" y2="460.94" style="stroke-width: 0.5;stroke: rgb(128,128,128);stroke-opacity: 0.5;stroke-linejoin: bevel;stroke-dasharray: 2.0, 2.0;shape-rendering:crispEdges;" transform="matrix(1,0,0,1,0,0)" clip-path="url(#_94092898544355clip-2)"/><line x1="60" y1="481.54" x2="688" y2="481.54" style="stroke-width: 0.5;stroke: rgb(128,128,128);stroke-opacity: 0.5;stroke-linejoin: bevel;stroke-dasharray: 2.0, 2.0;shape-rendering:crispEdges;" transform="matrix(1,0,0,1,0,0)" clip-path="url(#_94092898544355clip-2)"/><line x1="60" y1="502.13" x2="688" y2="502.13" style="stroke-width: 0.5;stroke: rgb(128,128,128);stroke-opacity: 0.5;stroke-linejoin: bevel;stroke-dasharray: 2.0, 2.0;shape-rendering:crispEdges;" transform="matrix(1,0,0,1,0,0)" clip-path="url(#_94092898544355clip-2)"/><line x1="60" y1="522.72" x2="688" y2="522.72" style="stroke-width: 0.5;stroke: rgb(128,128,128);stroke-opacity: 0.5;stroke-linejoin: bevel;stroke-dasharray: 2.0, 2.0;shape-rendering:crispEdges;" transform="matrix(1,0,0,1,0,0)" clip-path="url(#_94092898544355clip-2)"/><line x1="60" y1="543.32" x2="688" y2="543.32" style="stroke-width: 0.5;stroke: rgb(128,128,128);stroke-opacity: 0.5;stroke-linejoin: bevel;stroke-dasharray: 2.0, 2.0;shape-rendering:crispEdges;" transform="matrix(1,0,0,1,0,0)" clip-path="url(#_94092898544355clip-2)"/><line x1="88.55" y1="35" x2="88.55" y2="550" style="stroke-width: 0.5;stroke: rgb(128,128,128);stroke-opacity: 0.5;stroke-linejoin: bevel;stroke-dasharray: 2.0, 2.0;shape-rendering:crispEdges;" transform="matrix(1,0,0,1,0,0)" clip-path="url(#_94092898544355clip-2)"/><line x1="151.33" y1="35" x2="151.33" y2="550" style="stroke-width: 0.5;stroke: rgb(128,128,128);stroke-opacity: 0.5;stroke-linejoin: bevel;stroke-dasharray: 2.0, 2.0;shape-rendering:crispEdges;" transform="matrix(1,0,0,1,0,0)" clip-path="url(#_94092898544355clip-2)"/><line x1="214.1" y1="35" x2="214.1" y2="550" style="stroke-width: 0.5;stroke: rgb(128,128,128);stroke-opacity: 0.5;stroke-linejoin: bevel;stroke-dasharray: 2.0, 2.0;shape-rendering:crispEdges;" transform="matrix(1,0,0,1,0,0)" clip-path="url(#_94092898544355clip-2)"/><line x1="276.88" y1="35" x2="276.88" y2="550" style="stroke-width: 0.5;stroke: rgb(128,128,128);stroke-opacity: 0.5;stroke-linejoin: bevel;stroke-dasharray: 2.0, 2.0;shape-rendering:crispEdges;" transform="matrix(1,0,0,1,0,0)" clip-path="url(#_94092898544355clip-2)"/><line x1="339.66" y1="35" x2="339.66" y2="550" style="stroke-width: 0.5;stroke: rgb(128,128,128);stroke-opacity: 0.5;stroke-linejoin: bevel;stroke-dasharray: 2.0, 2.0;shape-rendering:crispEdges;" transform="matrix(1,0,0,1,0,0)" clip-path="url(#_94092898544355clip-2)"/><line x1="402.44" y1="35" x2="402.44" y2="550" style="stroke-width: 0.5;stroke: rgb(128,128,128);stroke-opacity: 0.5;stroke-linejoin: bevel;stroke-dasharray: 2.0, 2.0;shape-rendering:crispEdges;" transform="matrix(1,0,0,1,0,0)" clip-path="url(#_94092898544355clip-2)"/><line x1="465.22" y1="35" x2="465.22" y2="550" style="stroke-width: 0.5;stroke: rgb(128,128,128);stroke-opacity: 0.5;stroke-linejoin: bevel;stroke-dasharray: 2.0, 2.0;shape-rendering:crispEdges;" transform="matrix(1,0,0,1,0,0)" clip-path="url(#_94092898544355clip-2)"/><line x1="528" y1="35" x2="528" y2="550" style="stroke-width: 0.5;stroke: rgb(128,128,128);stroke-opacity: 0.5;stroke-linejoin: bevel;stroke-dasharray: 2.0, 2.0;shape-rendering:crispEdges;" transform="matrix(1,0,0,1,0,0)" clip-path="url(#_94092898544355clip-2)"/><line x1="590.78" y1="35" x2="590.78" y2="550" style="stroke-width: 0.5;stroke: rgb(128,128,128);stroke-opacity: 0.5;stroke-linejoin: bevel;stroke-dasharray: 2.0, 2.0;shape-rendering:crispEdges;" transform="matrix(1,0,0,1,0,0)" clip-path="url(#_94092898544355clip-2)"/><line x1="653.56" y1="35" x2="653.56" y2="550" style="stroke-width: 0.5;stroke: rgb(128,128,128);stroke-opacity: 0.5;stroke-linejoin: bevel;stroke-dasharray: 2.0, 2.0;shape-rendering:crispEdges;" transform="matrix(1,0,0,1,0,0)" clip-path="url(#_94092898544355clip-2)"/><g style="fill: rgb(0,0,139); fill-opacity: 0.5; stroke: none" transform="matrix(1,0,0,1,0,0)" clip-path="url(#_94092898544355clip-2)"><path d="M 88.55 28.48 L 88.55 28.48 L 129.32 39.2 L 170.1 49.91 L 210.88 60.62 L 251.66 71.33 L 292.44 82.04 L 333.22 92.75 L 374 103.46 L 414.78 114.17 L 455.56 124.88 L 496.34 135.6 L 537.12 146.31 L 577.9 157.02 L 618.68 167.73 L 659.45 178.44 L 659.45 473.55 L 618.68 474.12 L 577.9 474.69 L 537.12 475.26 L 496.34 475.83 L 455.56 476.4 L 414.78 476.97 L 374 477.55 L 333.22 478.12 L 292.44 478.69 L 251.66 479.26 L 210.88 479.83 L 170.1 480.4 L 129.32 480.97 L 88.55 481.54 L 88.55 28.48 L 88.55 28.48 Z "/></g><g style="fill: rgb(0,102,204); fill-opacity: 0.5; stroke: none" transform="matrix(1,0,0,1,0,0)" clip-path="url(#_94092898544355clip-2)"><path d="M 88.55 345.62 L 88.55 345.62 L 88.55 481.54 L 659.45 473.55 L 659.45 385.02 L 88.55 345.62 L 88.55 345.62 Z "/></g><line x1="113.35" y1="35" x2="129.32" y2="39.2" style="stroke-width: 1.5;stroke: rgb(0,0,0);stroke-opacity: 0.5;stroke-linecap: round;stroke-linejoin: round;shape-rendering:geometricPrecision;" transform="matrix(1,0,0,1,0,0)" clip-path="url(#_94092898544355clip-2)"/><line x1="129.32" y1="39.2" x2="170.1" y2="49.91" style="stroke-width: 1.5;stroke: rgb(0,0,0);stroke-opacity: 0.5;stroke-linecap: round;stroke-linejoin: round;shape-rendering:geometricPrecision;" transform="matrix(1,0,0,1,0,0)" clip-path="url(#_94092898544355clip-2)"/><line x1="170.1" y1="49.91" x2="210.88" y2="60.62" style="stroke-width: 1.5;stroke: rgb(0,0,0);stroke-opacity: 0.5;stroke-linecap: round;stroke-linejoin: round;shape-rendering:geometricPrecision;" transform="matrix(1,0,0,1,0,0)" clip-path="url(#_94092898544355clip-2)"/><line x1="210.88" y1="60.62" x2="251.66" y2="71.33" style="stroke-width: 1.5;stroke: rgb(0,0,0);stroke-opacity: 0.5;stroke-linecap: round;stroke-linejoin: round;shape-rendering:geometricPrecision;" transform="matrix(1,0,0,1,0,0)" clip-path="url(#_94092898544355clip-2)"/><line x1="251.66" y1="71.33" x2="292.44" y2="82.04" style="stroke-width: 1.5;stroke: rgb(0,0,0);stroke-opacity: 0.5;stroke-linecap: round;stroke-linejoin: round;shape-rendering:geometricPrecision;" transform="matrix(1,0,0,1,0,0)" clip-path="url(#_94092898544355clip-2)"/><line x1="292.44" y1="82.04" x2="333.22" y2="92.75" style="stroke-width: 1.5;stroke: rgb(0,0,0);stroke-opacity: 0.5;stroke-linecap: round;stroke-linejoin: round;shape-rendering:geometricPrecision;" transform="matrix(1,0,0,1,0,0)" clip-path="url(#_94092898544355clip-2)"/><line x1="333.22" y1="92.75" x2="374" y2="103.46" style="stroke-width: 1.5;stroke: rgb(0,0,0);stroke-opacity: 0.5;stroke-linecap: round;stroke-linejoin: round;shape-rendering:geometricPrecision;" transform="matrix(1,0,0,1,0,0)" clip-path="url(#_94092898544355clip-2)"/><line x1="374" y1="103.46" x2="414.78" y2="114.17" style="stroke-width: 1.5;stroke: rgb(0,0,0);stroke-opacity: 0.5;stroke-linecap: round;stroke-linejoin: round;shape-rendering:geometricPrecision;" transform="matrix(1,0,0,1,0,0)" clip-path="url(#_94092898544355clip-2)"/><line x1="414.78" y1="114.17" x2="455.56" y2="124.88" style="stroke-width: 1.5;stroke: rgb(0,0,0);stroke-opacity: 0.5;stroke-linecap: round;stroke-linejoin: round;shape-rendering:geometricPrecision;" transform="matrix(1,0,0,1,0,0)" clip-path="url(#_94092898544355clip-2)"/><line x1="455.56" y1="124.88" x2="496.34" y2="135.6" style="stroke-width: 1.5;stroke: rgb(0,0,0);stroke-opacity: 0.5;stroke-linecap: round;stroke-linejoin: round;shape-rendering:geometricPrecision;" transform="matrix(1,0,0,1,0,0)" clip-path="url(#_94092898544355clip-2)"/><line x1="496.34" y1="135.6" x2="537.12" y2="146.31" style="stroke-width: 1.5;stroke: rgb(0,0,0);stroke-opacity: 0.5;stroke-linecap: round;stroke-linejoin: round;shape-rendering:geometricPrecision;" transform="matrix(1,0,0,1,0,0)" clip-path="url(#_94092898544355clip-2)"/><line x1="537.12" y1="146.31" x2="577.9" y2="157.02" style="stroke-width: 1.5;stroke: rgb(0,0,0);stroke-opacity: 0.5;stroke-linecap: round;stroke-linejoin: round;shape-rendering:geometricPrecision;" transform="matrix(1,0,0,1,0,0)" clip-path="url(#_94092898544355clip-2)"/><line x1="577.9" y1="157.02" x2="618.68" y2="167.73" style="stroke-width: 1.5;stroke: rgb(0,0,0);stroke-opacity: 0.5;stroke-linecap: round;stroke-linejoin: round;shape-rendering:geometricPrecision;" transform="matrix(1,0,0,1,0,0)" clip-path="url(#_94092898544355clip-2)"/><line x1="618.68" y1="167.73" x2="659.45" y2="178.44" style="stroke-width: 1.5;stroke: rgb(0,0,0);stroke-opacity: 0.5;stroke-linecap: round;stroke-linejoin: round;shape-rendering:geometricPrecision;" transform="matrix(1,0,0,1,0,0)" clip-path="url(#_94092898544355clip-2)"/><line x1="659.45" y1="178.44" x2="659.45" y2="473.55" style="stroke-width: 1.5;stroke: rgb(0,0,0);stroke-opacity: 0.5;stroke-linecap: round;stroke-linejoin: round;shape-rendering:geometricPrecision;" transform="matrix(1,0,0,1,0,0)" clip-path="url(#_94092898544355clip-2)"/><line x1="659.45" y1="473.55" x2="618.68" y2="474.12" style="stroke-width: 1.5;stroke: rgb(0,0,0);stroke-opacity: 0.5;stroke-linecap: round;stroke-linejoin: round;shape-rendering:geometricPrecision;" transform="matrix(1,0,0,1,0,0)" clip-path="url(#_94092898544355clip-2)"/><line x1="618.68" y1="474.12" x2="577.9" y2="474.69" style="stroke-width: 1.5;stroke: rgb(0,0,0);stroke-opacity: 0.5;stroke-linecap: round;stroke-linejoin: round;shape-rendering:geometricPrecision;" transform="matrix(1,0,0,1,0,0)" clip-path="url(#_94092898544355clip-2)"/><line x1="577.9" y1="474.69" x2="537.12" y2="475.26" style="stroke-width: 1.5;stroke: rgb(0,0,0);stroke-opacity: 0.5;stroke-linecap: round;stroke-linejoin: round;shape-rendering:geometricPrecision;" transform="matrix(1,0,0,1,0,0)" clip-path="url(#_94092898544355clip-2)"/><line x1="537.12" y1="475.26" x2="496.34" y2="475.83" style="stroke-width: 1.5;stroke: rgb(0,0,0);stroke-opacity: 0.5;stroke-linecap: round;stroke-linejoin: round;shape-rendering:geometricPrecision;" transform="matrix(1,0,0,1,0,0)" clip-path="url(#_94092898544355clip-2)"/><line x1="496.34" y1="475.83" x2="455.56" y2="476.4" style="stroke-width: 1.5;stroke: rgb(0,0,0);stroke-opacity: 0.5;stroke-linecap: round;stroke-linejoin: round;shape-rendering:geometricPrecision;" transform="matrix(1,0,0,1,0,0)" clip-path="url(#_94092898544355clip-2)"/><line x1="455.56" y1="476.4" x2="414.78" y2="476.97" style="stroke-width: 1.5;stroke: rgb(0,0,0);stroke-opacity: 0.5;stroke-linecap: round;stroke-linejoin: round;shape-rendering:geometricPrecision;" transform="matrix(1,0,0,1,0,0)" clip-path="url(#_94092898544355clip-2)"/><line x1="414.78" y1="476.97" x2="374" y2="477.55" style="stroke-width: 1.5;stroke: rgb(0,0,0);stroke-opacity: 0.5;stroke-linecap: round;stroke-linejoin: round;shape-rendering:geometricPrecision;" transform="matrix(1,0,0,1,0,0)" clip-path="url(#_94092898544355clip-2)"/><line x1="374" y1="477.55" x2="333.22" y2="478.12" style="stroke-width: 1.5;stroke: rgb(0,0,0);stroke-opacity: 0.5;stroke-linecap: round;stroke-linejoin: round;shape-rendering:geometricPrecision;" transform="matrix(1,0,0,1,0,0)" clip-path="url(#_94092898544355clip-2)"/><line x1="333.22" y1="478.12" x2="292.44" y2="478.69" style="stroke-width: 1.5;stroke: rgb(0,0,0);stroke-opacity: 0.5;stroke-linecap: round;stroke-linejoin: round;shape-rendering:geometricPrecision;" transform="matrix(1,0,0,1,0,0)" clip-path="url(#_94092898544355clip-2)"/><line x1="292.44" y1="478.69" x2="251.66" y2="479.26" style="stroke-width: 1.5;stroke: rgb(0,0,0);stroke-opacity: 0.5;stroke-linecap: round;stroke-linejoin: round;shape-rendering:geometricPrecision;" transform="matrix(1,0,0,1,0,0)" clip-path="url(#_94092898544355clip-2)"/><line x1="251.66" y1="479.26" x2="210.88" y2="479.83" style="stroke-width: 1.5;stroke: rgb(0,0,0);stroke-opacity: 0.5;stroke-linecap: round;stroke-linejoin: round;shape-rendering:geometricPrecision;" transform="matrix(1,0,0,1,0,0)" clip-path="url(#_94092898544355clip-2)"/><line x1="210.88" y1="479.83" x2="170.1" y2="480.4" style="stroke-width: 1.5;stroke: rgb(0,0,0);stroke-opacity: 0.5;stroke-linecap: round;stroke-linejoin: round;shape-rendering:geometricPrecision;" transform="matrix(1,0,0,1,0,0)" clip-path="url(#_94092898544355clip-2)"/><line x1="170.1" y1="480.4" x2="129.32" y2="480.97" style="stroke-width: 1.5;stroke: rgb(0,0,0);stroke-opacity: 0.5;stroke-linecap: round;stroke-linejoin: round;shape-rendering:geometricPrecision;" transform="matrix(1,0,0,1,0,0)" clip-path="url(#_94092898544355clip-2)"/><line x1="129.32" y1="480.97" x2="88.55" y2="481.54" style="stroke-width: 1.5;stroke: rgb(0,0,0);stroke-opacity: 0.5;stroke-linecap: round;stroke-linejoin: round;shape-rendering:geometricPrecision;" transform="matrix(1,0,0,1,0,0)" clip-path="url(#_94092898544355clip-2)"/><line x1="88.55" y1="481.54" x2="88.55" y2="35" style="stroke-width: 1.5;stroke: rgb(0,0,0);stroke-opacity: 0.5;stroke-linecap: round;stroke-linejoin: round;shape-rendering:geometricPrecision;" transform="matrix(1,0,0,1,0,0)" clip-path="url(#_94092898544355clip-2)"/><line x1="88.55" y1="345.62" x2="88.55" y2="481.54" style="stroke-width: 1.5;stroke: rgb(0,0,0);stroke-opacity: 0.5;stroke-linecap: round;stroke-linejoin: round;shape-rendering:geometricPrecision;" transform="matrix(1,0,0,1,0,0)" clip-path="url(#_94092898544355clip-2)"/><line x1="88.55" y1="481.54" x2="659.45" y2="473.55" style="stroke-width: 1.5;stroke: rgb(0,0,0);stroke-opacity: 0.5;stroke-linecap: round;stroke-linejoin: round;shape-rendering:geometricPrecision;" transform="matrix(1,0,0,1,0,0)" clip-path="url(#_94092898544355clip-2)"/><line x1="659.45" y1="473.55" x2="659.45" y2="385.02" style="stroke-width: 1.5;stroke: rgb(0,0,0);stroke-opacity: 0.5;stroke-linecap: round;stroke-linejoin: round;shape-rendering:geometricPrecision;" transform="matrix(1,0,0,1,0,0)" clip-path="url(#_94092898544355clip-2)"/><line x1="659.45" y1="385.02" x2="88.55" y2="345.62" style="stroke-width: 1.5;stroke: rgb(0,0,0);stroke-opacity: 0.5;stroke-linecap: round;stroke-linejoin: round;shape-rendering:geometricPrecision;" transform="matrix(1,0,0,1,0,0)" clip-path="url(#_94092898544355clip-2)"/><line x1="353.08" y1="97.97" x2="353.08" y2="476.42" style="stroke-width: 1.5;stroke: rgb(0,0,0);stroke-opacity: 0.5;stroke-linecap: round;stroke-linejoin: round;shape-rendering:geometricPrecision;" transform="matrix(1,0,0,1,0,0)" clip-path="url(#_94092898544355clip-2)"/><rect x="60" y="35" width="628" height="515" style="stroke-width: 0.5;stroke: rgb(0,0,0);stroke-opacity: 1.0;stroke-linecap: round;stroke-linejoin: round;shape-rendering:crispEdges;; fill: none" transform="matrix(1,0,0,1,0,0)" clip-path="url(#_94092898544355clip-0)"/></svg>
