<!DOCTYPE svg PUBLIC "-//W3C//DTD SVG 1.1//EN" "http://www.w3.org/Graphics/SVG/1.1/DTD/svg11.dtd">
<svg xmlns="http://www.w3.org/2000/svg" xmlns:xlink="http://www.w3.org/1999/xlink" xmlns:jfreesvg="http://www.jfree.org/jfreesvg/svg" width="700" height="600" text-rendering="auto" shape-rendering="auto">
<defs><clipPath id="_798078691491074clip-0"><path d="M 0 0 L 700 0 L 700 600 L 0 600 L 0 0 Z "/></clipPath>
<clipPath id="_798078691491074clip-1"><path d="M 312 273 L 312 973 L -288 973 L -288 273 L 312 273 Z "/></clipPath>
<clipPath id="_798078691491074clip-2"><path d="M 64 35 L 64 550 L 688 550 L 688 35 Z "/></clipPath>
</defs>
<rect x="0" y="0" width="700" height="600" style="fill: rgb(245,245,245); fill-opacity: 1.0" transform="matrix(1,0,0,1,0,0)" clip-path="url(#_798078691491074clip-0)"/><g transform="matrix(1,0,0,1,0,0)"><text x="151.5" y="21.01" style="fill: rgb(0,0,0); fill-opacity: 1.0; font-family: Tahoma; font-size: 20px; font-weight: bold;" clip-path="url(#_798078691491074clip-0)">Nacelle data representation - Side View</text></g><rect x="64" y="35" width="624" height="515" style="fill: rgb(240,248,255); fill-opacity: 0.0" transform="matrix(1,0,0,1,0,0)" clip-path="url(#_798078691491074clip-0)"/><line x1="64" y1="554" x2="688" y2="554" style="stroke-width: 0.5;stroke: rgb(128,128,128);stroke-opacity: 1.0;stroke-linecap: square;shape-rendering:crispEdges;" transform="matrix(1,0,0,1,0,0)" clip-path="url(#_798078691491074clip-0)"/><g transform="matrix(1,0,0,1,0,0)"><text x="79.06" y="570.52" style="fill: rgb(64,64,64); fill-opacity: 1.0; font-family: Tahoma; font-size: 12px;" clip-path="url(#_798078691491074clip-0)">-0,5</text></g><line x1="89.56" y1="556" x2="89.56" y2="554" style="stroke-width: 0.5;stroke: rgb(128,128,128);stroke-opacity: 1.0;stroke-linecap: square;shape-rendering:crispEdges;" transform="matrix(1,0,0,1,0,0)" clip-path="url(#_798078691491074clip-0)"/><g transform="matrix(1,0,0,1,0,0)"><text x="144.64" y="570.52" style="fill: rgb(64,64,64); fill-opacity: 1.0; font-family: Tahoma; font-size: 12px;" clip-path="url(#_798078691491074clip-0)">0,0</text></g><line x1="153.14" y1="556" x2="153.14" y2="554" style="stroke-width: 0.5;stroke: rgb(128,128,128);stroke-opacity: 1.0;stroke-linecap: square;shape-rendering:crispEdges;" transform="matrix(1,0,0,1,0,0)" clip-path="url(#_798078691491074clip-0)"/><g transform="matrix(1,0,0,1,0,0)"><text x="208.23" y="570.52" style="fill: rgb(64,64,64); fill-opacity: 1.0; font-family: Tahoma; font-size: 12px;" clip-path="url(#_798078691491074clip-0)">0,5</text></g><line x1="216.73" y1="556" x2="216.73" y2="554" style="stroke-width: 0.5;stroke: rgb(128,128,128);stroke-opacity: 1.0;stroke-linecap: square;shape-rendering:crispEdges;" transform="matrix(1,0,0,1,0,0)" clip-path="url(#_798078691491074clip-0)"/><g transform="matrix(1,0,0,1,0,0)"><text x="271.81" y="570.52" style="fill: rgb(64,64,64); fill-opacity: 1.0; font-family: Tahoma; font-size: 12px;" clip-path="url(#_798078691491074clip-0)">1,0</text></g><line x1="280.31" y1="556" x2="280.31" y2="554" style="stroke-width: 0.5;stroke: rgb(128,128,128);stroke-opacity: 1.0;stroke-linecap: square;shape-rendering:crispEdges;" transform="matrix(1,0,0,1,0,0)" clip-path="url(#_798078691491074clip-0)"/><g transform="matrix(1,0,0,1,0,0)"><text x="335.39" y="570.52" style="fill: rgb(64,64,64); fill-opacity: 1.0; font-family: Tahoma; font-size: 12px;" clip-path="url(#_798078691491074clip-0)">1,5</text></g><line x1="343.89" y1="556" x2="343.89" y2="554" style="stroke-width: 0.5;stroke: rgb(128,128,128);stroke-opacity: 1.0;stroke-linecap: square;shape-rendering:crispEdges;" transform="matrix(1,0,0,1,0,0)" clip-path="url(#_798078691491074clip-0)"/><g transform="matrix(1,0,0,1,0,0)"><text x="398.97" y="570.52" style="fill: rgb(64,64,64); fill-opacity: 1.0; font-family: Tahoma; font-size: 12px;" clip-path="url(#_798078691491074clip-0)">2,0</text></g><line x1="407.47" y1="556" x2="407.47" y2="554" style="stroke-width: 0.5;stroke: rgb(128,128,128);stroke-opacity: 1.0;stroke-linecap: square;shape-rendering:crispEdges;" transform="matrix(1,0,0,1,0,0)" clip-path="url(#_798078691491074clip-0)"/><g transform="matrix(1,0,0,1,0,0)"><text x="462.56" y="570.52" style="fill: rgb(64,64,64); fill-opacity: 1.0; font-family: Tahoma; font-size: 12px;" clip-path="url(#_798078691491074clip-0)">2,5</text></g><line x1="471.06" y1="556" x2="471.06" y2="554" style="stroke-width: 0.5;stroke: rgb(128,128,128);stroke-opacity: 1.0;stroke-linecap: square;shape-rendering:crispEdges;" transform="matrix(1,0,0,1,0,0)" clip-path="url(#_798078691491074clip-0)"/><g transform="matrix(1,0,0,1,0,0)"><text x="526.14" y="570.52" style="fill: rgb(64,64,64); fill-opacity: 1.0; font-family: Tahoma; font-size: 12px;" clip-path="url(#_798078691491074clip-0)">3,0</text></g><line x1="534.64" y1="556" x2="534.64" y2="554" style="stroke-width: 0.5;stroke: rgb(128,128,128);stroke-opacity: 1.0;stroke-linecap: square;shape-rendering:crispEdges;" transform="matrix(1,0,0,1,0,0)" clip-path="url(#_798078691491074clip-0)"/><g transform="matrix(1,0,0,1,0,0)"><text x="589.72" y="570.52" style="fill: rgb(64,64,64); fill-opacity: 1.0; font-family: Tahoma; font-size: 12px;" clip-path="url(#_798078691491074clip-0)">3,5</text></g><line x1="598.22" y1="556" x2="598.22" y2="554" style="stroke-width: 0.5;stroke: rgb(128,128,128);stroke-opacity: 1.0;stroke-linecap: square;shape-rendering:crispEdges;" transform="matrix(1,0,0,1,0,0)" clip-path="url(#_798078691491074clip-0)"/><g transform="matrix(1,0,0,1,0,0)"><text x="653.3" y="570.52" style="fill: rgb(64,64,64); fill-opacity: 1.0; font-family: Tahoma; font-size: 12px;" clip-path="url(#_798078691491074clip-0)">4,0</text></g><line x1="661.8" y1="556" x2="661.8" y2="554" style="stroke-width: 0.5;stroke: rgb(128,128,128);stroke-opacity: 1.0;stroke-linecap: square;shape-rendering:crispEdges;" transform="matrix(1,0,0,1,0,0)" clip-path="url(#_798078691491074clip-0)"/><g transform="matrix(1,0,0,1,0,0)"><text x="356.5" y="589.59" style="fill: rgb(64,64,64); fill-opacity: 1.0; font-family: Tahoma; font-size: 14px; font-weight: bold;" clip-path="url(#_798078691491074clip-0)">x (m)</text></g><line x1="60" y1="35" x2="60" y2="550" style="stroke-width: 0.5;stroke: rgb(128,128,128);stroke-opacity: 1.0;stroke-linecap: square;shape-rendering:crispEdges;" transform="matrix(1,0,0,1,0,0)" clip-path="url(#_798078691491074clip-0)"/><g transform="matrix(1,0,0,1,0,0)"><text x="33" y="549.41" style="fill: rgb(64,64,64); fill-opacity: 1.0; font-family: Tahoma; font-size: 12px;" clip-path="url(#_798078691491074clip-0)">-2,4</text></g><line x1="58" y1="544.39" x2="60" y2="544.39" style="stroke-width: 0.5;stroke: rgb(128,128,128);stroke-opacity: 1.0;stroke-linecap: square;shape-rendering:crispEdges;" transform="matrix(1,0,0,1,0,0)" clip-path="url(#_798078691491074clip-0)"/><g transform="matrix(1,0,0,1,0,0)"><text x="33" y="528.42" style="fill: rgb(64,64,64); fill-opacity: 1.0; font-family: Tahoma; font-size: 12px;" clip-path="url(#_798078691491074clip-0)">-2,2</text></g><line x1="58" y1="523.39" x2="60" y2="523.39" style="stroke-width: 0.5;stroke: rgb(128,128,128);stroke-opacity: 1.0;stroke-linecap: square;shape-rendering:crispEdges;" transform="matrix(1,0,0,1,0,0)" clip-path="url(#_798078691491074clip-0)"/><g transform="matrix(1,0,0,1,0,0)"><text x="33" y="507.43" style="fill: rgb(64,64,64); fill-opacity: 1.0; font-family: Tahoma; font-size: 12px;" clip-path="url(#_798078691491074clip-0)">-2,0</text></g><line x1="58" y1="502.4" x2="60" y2="502.4" style="stroke-width: 0.5;stroke: rgb(128,128,128);stroke-opacity: 1.0;stroke-linecap: square;shape-rendering:crispEdges;" transform="matrix(1,0,0,1,0,0)" clip-path="url(#_798078691491074clip-0)"/><g transform="matrix(1,0,0,1,0,0)"><text x="33" y="486.44" style="fill: rgb(64,64,64); fill-opacity: 1.0; font-family: Tahoma; font-size: 12px;" clip-path="url(#_798078691491074clip-0)">-1,8</text></g><line x1="58" y1="481.41" x2="60" y2="481.41" style="stroke-width: 0.5;stroke: rgb(128,128,128);stroke-opacity: 1.0;stroke-linecap: square;shape-rendering:crispEdges;" transform="matrix(1,0,0,1,0,0)" clip-path="url(#_798078691491074clip-0)"/><g transform="matrix(1,0,0,1,0,0)"><text x="33" y="465.44" style="fill: rgb(64,64,64); fill-opacity: 1.0; font-family: Tahoma; font-size: 12px;" clip-path="url(#_798078691491074clip-0)">-1,6</text></g><line x1="58" y1="460.42" x2="60" y2="460.42" style="stroke-width: 0.5;stroke: rgb(128,128,128);stroke-opacity: 1.0;stroke-linecap: square;shape-rendering:crispEdges;" transform="matrix(1,0,0,1,0,0)" clip-path="url(#_798078691491074clip-0)"/><g transform="matrix(1,0,0,1,0,0)"><text x="33" y="444.45" style="fill: rgb(64,64,64); fill-opacity: 1.0; font-family: Tahoma; font-size: 12px;" clip-path="url(#_798078691491074clip-0)">-1,4</text></g><line x1="58" y1="439.43" x2="60" y2="439.43" style="stroke-width: 0.5;stroke: rgb(128,128,128);stroke-opacity: 1.0;stroke-linecap: square;shape-rendering:crispEdges;" transform="matrix(1,0,0,1,0,0)" clip-path="url(#_798078691491074clip-0)"/><g transform="matrix(1,0,0,1,0,0)"><text x="33" y="423.46" style="fill: rgb(64,64,64); fill-opacity: 1.0; font-family: Tahoma; font-size: 12px;" clip-path="url(#_798078691491074clip-0)">-1,2</text></g><line x1="58" y1="418.44" x2="60" y2="418.44" style="stroke-width: 0.5;stroke: rgb(128,128,128);stroke-opacity: 1.0;stroke-linecap: square;shape-rendering:crispEdges;" transform="matrix(1,0,0,1,0,0)" clip-path="url(#_798078691491074clip-0)"/><g transform="matrix(1,0,0,1,0,0)"><text x="33" y="402.47" style="fill: rgb(64,64,64); fill-opacity: 1.0; font-family: Tahoma; font-size: 12px;" clip-path="url(#_798078691491074clip-0)">-1,0</text></g><line x1="58" y1="397.45" x2="60" y2="397.45" style="stroke-width: 0.5;stroke: rgb(128,128,128);stroke-opacity: 1.0;stroke-linecap: square;shape-rendering:crispEdges;" transform="matrix(1,0,0,1,0,0)" clip-path="url(#_798078691491074clip-0)"/><g transform="matrix(1,0,0,1,0,0)"><text x="33" y="381.48" style="fill: rgb(64,64,64); fill-opacity: 1.0; font-family: Tahoma; font-size: 12px;" clip-path="url(#_798078691491074clip-0)">-0,8</text></g><line x1="58" y1="376.46" x2="60" y2="376.46" style="stroke-width: 0.5;stroke: rgb(128,128,128);stroke-opacity: 1.0;stroke-linecap: square;shape-rendering:crispEdges;" transform="matrix(1,0,0,1,0,0)" clip-path="url(#_798078691491074clip-0)"/><g transform="matrix(1,0,0,1,0,0)"><text x="33" y="360.49" style="fill: rgb(64,64,64); fill-opacity: 1.0; font-family: Tahoma; font-size: 12px;" clip-path="url(#_798078691491074clip-0)">-0,6</text></g><line x1="58" y1="355.47" x2="60" y2="355.47" style="stroke-width: 0.5;stroke: rgb(128,128,128);stroke-opacity: 1.0;stroke-linecap: square;shape-rendering:crispEdges;" transform="matrix(1,0,0,1,0,0)" clip-path="url(#_798078691491074clip-0)"/><g transform="matrix(1,0,0,1,0,0)"><text x="33" y="339.5" style="fill: rgb(64,64,64); fill-opacity: 1.0; font-family: Tahoma; font-size: 12px;" clip-path="url(#_798078691491074clip-0)">-0,4</text></g><line x1="58" y1="334.48" x2="60" y2="334.48" style="stroke-width: 0.5;stroke: rgb(128,128,128);stroke-opacity: 1.0;stroke-linecap: square;shape-rendering:crispEdges;" transform="matrix(1,0,0,1,0,0)" clip-path="url(#_798078691491074clip-0)"/><g transform="matrix(1,0,0,1,0,0)"><text x="33" y="318.51" style="fill: rgb(64,64,64); fill-opacity: 1.0; font-family: Tahoma; font-size: 12px;" clip-path="url(#_798078691491074clip-0)">-0,2</text></g><line x1="58" y1="313.49" x2="60" y2="313.49" style="stroke-width: 0.5;stroke: rgb(128,128,128);stroke-opacity: 1.0;stroke-linecap: square;shape-rendering:crispEdges;" transform="matrix(1,0,0,1,0,0)" clip-path="url(#_798078691491074clip-0)"/><g transform="matrix(1,0,0,1,0,0)"><text x="37" y="297.52" style="fill: rgb(64,64,64); fill-opacity: 1.0; font-family: Tahoma; font-size: 12px;" clip-path="url(#_798078691491074clip-0)">0,0</text></g><line x1="58" y1="292.5" x2="60" y2="292.5" style="stroke-width: 0.5;stroke: rgb(128,128,128);stroke-opacity: 1.0;stroke-linecap: square;shape-rendering:crispEdges;" transform="matrix(1,0,0,1,0,0)" clip-path="url(#_798078691491074clip-0)"/><g transform="matrix(1,0,0,1,0,0)"><text x="37" y="276.53" style="fill: rgb(64,64,64); fill-opacity: 1.0; font-family: Tahoma; font-size: 12px;" clip-path="url(#_798078691491074clip-0)">0,2</text></g><line x1="58" y1="271.51" x2="60" y2="271.51" style="stroke-width: 0.5;stroke: rgb(128,128,128);stroke-opacity: 1.0;stroke-linecap: square;shape-rendering:crispEdges;" transform="matrix(1,0,0,1,0,0)" clip-path="url(#_798078691491074clip-0)"/><g transform="matrix(1,0,0,1,0,0)"><text x="37" y="255.54" style="fill: rgb(64,64,64); fill-opacity: 1.0; font-family: Tahoma; font-size: 12px;" clip-path="url(#_798078691491074clip-0)">0,4</text></g><line x1="58" y1="250.52" x2="60" y2="250.52" style="stroke-width: 0.5;stroke: rgb(128,128,128);stroke-opacity: 1.0;stroke-linecap: square;shape-rendering:crispEdges;" transform="matrix(1,0,0,1,0,0)" clip-path="url(#_798078691491074clip-0)"/><g transform="matrix(1,0,0,1,0,0)"><text x="37" y="234.55" style="fill: rgb(64,64,64); fill-opacity: 1.0; font-family: Tahoma; font-size: 12px;" clip-path="url(#_798078691491074clip-0)">0,6</text></g><line x1="58" y1="229.53" x2="60" y2="229.53" style="stroke-width: 0.5;stroke: rgb(128,128,128);stroke-opacity: 1.0;stroke-linecap: square;shape-rendering:crispEdges;" transform="matrix(1,0,0,1,0,0)" clip-path="url(#_798078691491074clip-0)"/><g transform="matrix(1,0,0,1,0,0)"><text x="37" y="213.56" style="fill: rgb(64,64,64); fill-opacity: 1.0; font-family: Tahoma; font-size: 12px;" clip-path="url(#_798078691491074clip-0)">0,8</text></g><line x1="58" y1="208.54" x2="60" y2="208.54" style="stroke-width: 0.5;stroke: rgb(128,128,128);stroke-opacity: 1.0;stroke-linecap: square;shape-rendering:crispEdges;" transform="matrix(1,0,0,1,0,0)" clip-path="url(#_798078691491074clip-0)"/><g transform="matrix(1,0,0,1,0,0)"><text x="37" y="192.57" style="fill: rgb(64,64,64); fill-opacity: 1.0; font-family: Tahoma; font-size: 12px;" clip-path="url(#_798078691491074clip-0)">1,0</text></g><line x1="58" y1="187.55" x2="60" y2="187.55" style="stroke-width: 0.5;stroke: rgb(128,128,128);stroke-opacity: 1.0;stroke-linecap: square;shape-rendering:crispEdges;" transform="matrix(1,0,0,1,0,0)" clip-path="url(#_798078691491074clip-0)"/><g transform="matrix(1,0,0,1,0,0)"><text x="37" y="171.58" style="fill: rgb(64,64,64); fill-opacity: 1.0; font-family: Tahoma; font-size: 12px;" clip-path="url(#_798078691491074clip-0)">1,2</text></g><line x1="58" y1="166.56" x2="60" y2="166.56" style="stroke-width: 0.5;stroke: rgb(128,128,128);stroke-opacity: 1.0;stroke-linecap: square;shape-rendering:crispEdges;" transform="matrix(1,0,0,1,0,0)" clip-path="url(#_798078691491074clip-0)"/><g transform="matrix(1,0,0,1,0,0)"><text x="37" y="150.59" style="fill: rgb(64,64,64); fill-opacity: 1.0; font-family: Tahoma; font-size: 12px;" clip-path="url(#_798078691491074clip-0)">1,4</text></g><line x1="58" y1="145.57" x2="60" y2="145.57" style="stroke-width: 0.5;stroke: rgb(128,128,128);stroke-opacity: 1.0;stroke-linecap: square;shape-rendering:crispEdges;" transform="matrix(1,0,0,1,0,0)" clip-path="url(#_798078691491074clip-0)"/><g transform="matrix(1,0,0,1,0,0)"><text x="37" y="129.6" style="fill: rgb(64,64,64); fill-opacity: 1.0; font-family: Tahoma; font-size: 12px;" clip-path="url(#_798078691491074clip-0)">1,6</text></g><line x1="58" y1="124.58" x2="60" y2="124.58" style="stroke-width: 0.5;stroke: rgb(128,128,128);stroke-opacity: 1.0;stroke-linecap: square;shape-rendering:crispEdges;" transform="matrix(1,0,0,1,0,0)" clip-path="url(#_798078691491074clip-0)"/><g transform="matrix(1,0,0,1,0,0)"><text x="37" y="108.61" style="fill: rgb(64,64,64); fill-opacity: 1.0; font-family: Tahoma; font-size: 12px;" clip-path="url(#_798078691491074clip-0)">1,8</text></g><line x1="58" y1="103.59" x2="60" y2="103.59" style="stroke-width: 0.5;stroke: rgb(128,128,128);stroke-opacity: 1.0;stroke-linecap: square;shape-rendering:crispEdges;" transform="matrix(1,0,0,1,0,0)" clip-path="url(#_798078691491074clip-0)"/><g transform="matrix(1,0,0,1,0,0)"><text x="37" y="87.62" style="fill: rgb(64,64,64); fill-opacity: 1.0; font-family: Tahoma; font-size: 12px;" clip-path="url(#_798078691491074clip-0)">2,0</text></g><line x1="58" y1="82.6" x2="60" y2="82.6" style="stroke-width: 0.5;stroke: rgb(128,128,128);stroke-opacity: 1.0;stroke-linecap: square;shape-rendering:crispEdges;" transform="matrix(1,0,0,1,0,0)" clip-path="url(#_798078691491074clip-0)"/><g transform="matrix(1,0,0,1,0,0)"><text x="37" y="66.63" style="fill: rgb(64,64,64); fill-opacity: 1.0; font-family: Tahoma; font-size: 12px;" clip-path="url(#_798078691491074clip-0)">2,2</text></g><line x1="58" y1="61.61" x2="60" y2="61.61" style="stroke-width: 0.5;stroke: rgb(128,128,128);stroke-opacity: 1.0;stroke-linecap: square;shape-rendering:crispEdges;" transform="matrix(1,0,0,1,0,0)" clip-path="url(#_798078691491074clip-0)"/><g transform="matrix(1,0,0,1,0,0)"><text x="37" y="45.64" style="fill: rgb(64,64,64); fill-opacity: 1.0; font-family: Tahoma; font-size: 12px;" clip-path="url(#_798078691491074clip-0)">2,4</text></g><line x1="58" y1="40.61" x2="60" y2="40.61" style="stroke-width: 0.5;stroke: rgb(128,128,128);stroke-opacity: 1.0;stroke-linecap: square;shape-rendering:crispEdges;" transform="matrix(1,0,0,1,0,0)" clip-path="url(#_798078691491074clip-0)"/><g style="fill: rgb(64,64,64); fill-opacity: 1.0; stroke: none" transform="matrix(0,-1,1,0,-273,312)" clip-path="url(#_798078691491074clip-1)"><path d="M 7.55 298.11 L 0.83 298.11 L 0.83 296.53 L 4.5 292.23 L 1 292.23 L 1 290.44 L 7.47 290.44 L 7.47 291.98 L 3.8 296.28 L 7.55 296.28 L 7.55 298.11 Z  M 17.78 300.92 L 15.26 300.92 Q 14.68 300.23 14.21 299.5 Q 13.75 298.76 13.4 297.94 Q 13.07 297.14 12.89 296.19 Q 12.71 295.23 12.71 294.2 Q 12.71 293.08 12.9 292.16 Q 13.09 291.23 13.39 290.48 Q 13.71 289.66 14.19 288.92 Q 14.67 288.19 15.26 287.47 L 17.78 287.47 L 17.78 287.67 Q 17.21 288.17 16.71 288.8 Q 16.21 289.44 15.79 290.28 Q 15.37 291.09 15.12 292.08 Q 14.87 293.08 14.87 294.2 Q 14.87 295.37 15.11 296.32 Q 15.35 297.26 15.79 298.11 Q 16.2 298.92 16.71 299.58 Q 17.23 300.25 17.78 300.73 L 17.78 300.92 Z  M 28.42 298.11 L 28.42 294.28 Q 28.42 293.7 28.39 293.31 Q 28.37 292.92 28.27 292.69 Q 28.17 292.44 27.95 292.32 Q 27.73 292.2 27.35 292.2 Q 27.07 292.2 26.81 292.33 Q 26.54 292.45 26.23 292.67 L 26.23 298.11 L 23.82 298.11 L 23.82 294.28 Q 23.82 293.72 23.8 293.32 Q 23.77 292.92 23.67 292.69 Q 23.57 292.44 23.35 292.32 Q 23.13 292.2 22.76 292.2 Q 22.46 292.2 22.18 292.34 Q 21.9 292.48 21.63 292.67 L 21.63 298.11 L 19.24 298.11 L 19.24 290.44 L 21.63 290.44 L 21.63 291.28 Q 22.21 290.78 22.74 290.5 Q 23.26 290.22 23.9 290.22 Q 24.62 290.22 25.15 290.55 Q 25.68 290.89 25.96 291.55 Q 26.65 290.91 27.26 290.56 Q 27.87 290.22 28.49 290.22 Q 29.04 290.22 29.46 290.39 Q 29.88 290.56 30.18 290.91 Q 30.49 291.26 30.66 291.78 Q 30.82 292.3 30.82 293.11 L 30.82 298.11 L 28.42 298.11 Z  M 37.27 294.2 Q 37.27 295.23 37.09 296.19 Q 36.91 297.14 36.59 297.94 Q 36.25 298.76 35.77 299.5 Q 35.3 300.23 34.72 300.92 L 32.22 300.92 L 32.22 300.73 Q 32.77 300.25 33.28 299.59 Q 33.8 298.94 34.2 298.11 Q 34.62 297.26 34.88 296.32 Q 35.12 295.37 35.12 294.2 Q 35.12 293.08 34.87 292.08 Q 34.61 291.09 34.2 290.28 Q 33.77 289.44 33.27 288.8 Q 32.77 288.17 32.22 287.67 L 32.22 287.47 L 34.72 287.47 Q 35.31 288.19 35.79 288.92 Q 36.27 289.66 36.59 290.48 Q 36.89 291.23 37.08 292.16 Q 37.27 293.08 37.27 294.2 Z "/></g><line x1="64" y1="544.39" x2="688" y2="544.39" style="stroke-width: 0.5;stroke: rgb(128,128,128);stroke-opacity: 0.5;stroke-linejoin: bevel;stroke-dasharray: 2.0, 2.0;shape-rendering:crispEdges;" transform="matrix(1,0,0,1,0,0)" clip-path="url(#_798078691491074clip-2)"/><line x1="64" y1="523.39" x2="688" y2="523.39" style="stroke-width: 0.5;stroke: rgb(128,128,128);stroke-opacity: 0.5;stroke-linejoin: bevel;stroke-dasharray: 2.0, 2.0;shape-rendering:crispEdges;" transform="matrix(1,0,0,1,0,0)" clip-path="url(#_798078691491074clip-2)"/><line x1="64" y1="502.4" x2="688" y2="502.4" style="stroke-width: 0.5;stroke: rgb(128,128,128);stroke-opacity: 0.5;stroke-linejoin: bevel;stroke-dasharray: 2.0, 2.0;shape-rendering:crispEdges;" transform="matrix(1,0,0,1,0,0)" clip-path="url(#_798078691491074clip-2)"/><line x1="64" y1="481.41" x2="688" y2="481.41" style="stroke-width: 0.5;stroke: rgb(128,128,128);stroke-opacity: 0.5;stroke-linejoin: bevel;stroke-dasharray: 2.0, 2.0;shape-rendering:crispEdges;" transform="matrix(1,0,0,1,0,0)" clip-path="url(#_798078691491074clip-2)"/><line x1="64" y1="460.42" x2="688" y2="460.42" style="stroke-width: 0.5;stroke: rgb(128,128,128);stroke-opacity: 0.5;stroke-linejoin: bevel;stroke-dasharray: 2.0, 2.0;shape-rendering:crispEdges;" transform="matrix(1,0,0,1,0,0)" clip-path="url(#_798078691491074clip-2)"/><line x1="64" y1="439.43" x2="688" y2="439.43" style="stroke-width: 0.5;stroke: rgb(128,128,128);stroke-opacity: 0.5;stroke-linejoin: bevel;stroke-dasharray: 2.0, 2.0;shape-rendering:crispEdges;" transform="matrix(1,0,0,1,0,0)" clip-path="url(#_798078691491074clip-2)"/><line x1="64" y1="418.44" x2="688" y2="418.44" style="stroke-width: 0.5;stroke: rgb(128,128,128);stroke-opacity: 0.5;stroke-linejoin: bevel;stroke-dasharray: 2.0, 2.0;shape-rendering:crispEdges;" transform="matrix(1,0,0,1,0,0)" clip-path="url(#_798078691491074clip-2)"/><line x1="64" y1="397.45" x2="688" y2="397.45" style="stroke-width: 0.5;stroke: rgb(128,128,128);stroke-opacity: 0.5;stroke-linejoin: bevel;stroke-dasharray: 2.0, 2.0;shape-rendering:crispEdges;" transform="matrix(1,0,0,1,0,0)" clip-path="url(#_798078691491074clip-2)"/><line x1="64" y1="376.46" x2="688" y2="376.46" style="stroke-width: 0.5;stroke: rgb(128,128,128);stroke-opacity: 0.5;stroke-linejoin: bevel;stroke-dasharray: 2.0, 2.0;shape-rendering:crispEdges;" transform="matrix(1,0,0,1,0,0)" clip-path="url(#_798078691491074clip-2)"/><line x1="64" y1="355.47" x2="688" y2="355.47" style="stroke-width: 0.5;stroke: rgb(128,128,128);stroke-opacity: 0.5;stroke-linejoin: bevel;stroke-dasharray: 2.0, 2.0;shape-rendering:crispEdges;" transform="matrix(1,0,0,1,0,0)" clip-path="url(#_798078691491074clip-2)"/><line x1="64" y1="334.48" x2="688" y2="334.48" style="stroke-width: 0.5;stroke: rgb(128,128,128);stroke-opacity: 0.5;stroke-linejoin: bevel;stroke-dasharray: 2.0, 2.0;shape-rendering:crispEdges;" transform="matrix(1,0,0,1,0,0)" clip-path="url(#_798078691491074clip-2)"/><line x1="64" y1="313.49" x2="688" y2="313.49" style="stroke-width: 0.5;stroke: rgb(128,128,128);stroke-opacity: 0.5;stroke-linejoin: bevel;stroke-dasharray: 2.0, 2.0;shape-rendering:crispEdges;" transform="matrix(1,0,0,1,0,0)" clip-path="url(#_798078691491074clip-2)"/><line x1="64" y1="292.5" x2="688" y2="292.5" style="stroke-width: 0.5;stroke: rgb(128,128,128);stroke-opacity: 0.5;stroke-linejoin: bevel;stroke-dasharray: 2.0, 2.0;shape-rendering:crispEdges;" transform="matrix(1,0,0,1,0,0)" clip-path="url(#_798078691491074clip-2)"/><line x1="64" y1="271.51" x2="688" y2="271.51" style="stroke-width: 0.5;stroke: rgb(128,128,128);stroke-opacity: 0.5;stroke-linejoin: bevel;stroke-dasharray: 2.0, 2.0;shape-rendering:crispEdges;" transform="matrix(1,0,0,1,0,0)" clip-path="url(#_798078691491074clip-2)"/><line x1="64" y1="250.52" x2="688" y2="250.52" style="stroke-width: 0.5;stroke: rgb(128,128,128);stroke-opacity: 0.5;stroke-linejoin: bevel;stroke-dasharray: 2.0, 2.0;shape-rendering:crispEdges;" transform="matrix(1,0,0,1,0,0)" clip-path="url(#_798078691491074clip-2)"/><line x1="64" y1="229.53" x2="688" y2="229.53" style="stroke-width: 0.5;stroke: rgb(128,128,128);stroke-opacity: 0.5;stroke-linejoin: bevel;stroke-dasharray: 2.0, 2.0;shape-rendering:crispEdges;" transform="matrix(1,0,0,1,0,0)" clip-path="url(#_798078691491074clip-2)"/><line x1="64" y1="208.54" x2="688" y2="208.54" style="stroke-width: 0.5;stroke: rgb(128,128,128);stroke-opacity: 0.5;stroke-linejoin: bevel;stroke-dasharray: 2.0, 2.0;shape-rendering:crispEdges;" transform="matrix(1,0,0,1,0,0)" clip-path="url(#_798078691491074clip-2)"/><line x1="64" y1="187.55" x2="688" y2="187.55" style="stroke-width: 0.5;stroke: rgb(128,128,128);stroke-opacity: 0.5;stroke-linejoin: bevel;stroke-dasharray: 2.0, 2.0;shape-rendering:crispEdges;" transform="matrix(1,0,0,1,0,0)" clip-path="url(#_798078691491074clip-2)"/><line x1="64" y1="166.56" x2="688" y2="166.56" style="stroke-width: 0.5;stroke: rgb(128,128,128);stroke-opacity: 0.5;stroke-linejoin: bevel;stroke-dasharray: 2.0, 2.0;shape-rendering:crispEdges;" transform="matrix(1,0,0,1,0,0)" clip-path="url(#_798078691491074clip-2)"/><line x1="64" y1="145.57" x2="688" y2="145.57" style="stroke-width: 0.5;stroke: rgb(128,128,128);stroke-opacity: 0.5;stroke-linejoin: bevel;stroke-dasharray: 2.0, 2.0;shape-rendering:crispEdges;" transform="matrix(1,0,0,1,0,0)" clip-path="url(#_798078691491074clip-2)"/><line x1="64" y1="124.58" x2="688" y2="124.58" style="stroke-width: 0.5;stroke: rgb(128,128,128);stroke-opacity: 0.5;stroke-linejoin: bevel;stroke-dasharray: 2.0, 2.0;shape-rendering:crispEdges;" transform="matrix(1,0,0,1,0,0)" clip-path="url(#_798078691491074clip-2)"/><line x1="64" y1="103.59" x2="688" y2="103.59" style="stroke-width: 0.5;stroke: rgb(128,128,128);stroke-opacity: 0.5;stroke-linejoin: bevel;stroke-dasharray: 2.0, 2.0;shape-rendering:crispEdges;" transform="matrix(1,0,0,1,0,0)" clip-path="url(#_798078691491074clip-2)"/><line x1="64" y1="82.6" x2="688" y2="82.6" style="stroke-width: 0.5;stroke: rgb(128,128,128);stroke-opacity: 0.5;stroke-linejoin: bevel;stroke-dasharray: 2.0, 2.0;shape-rendering:crispEdges;" transform="matrix(1,0,0,1,0,0)" clip-path="url(#_798078691491074clip-2)"/><line x1="64" y1="61.61" x2="688" y2="61.61" style="stroke-width: 0.5;stroke: rgb(128,128,128);stroke-opacity: 0.5;stroke-linejoin: bevel;stroke-dasharray: 2.0, 2.0;shape-rendering:crispEdges;" transform="matrix(1,0,0,1,0,0)" clip-path="url(#_798078691491074clip-2)"/><line x1="64" y1="40.61" x2="688" y2="40.61" style="stroke-width: 0.5;stroke: rgb(128,128,128);stroke-opacity: 0.5;stroke-linejoin: bevel;stroke-dasharray: 2.0, 2.0;shape-rendering:crispEdges;" transform="matrix(1,0,0,1,0,0)" clip-path="url(#_798078691491074clip-2)"/><line x1="89.56" y1="35" x2="89.56" y2="550" style="stroke-width: 0.5;stroke: rgb(128,128,128);stroke-opacity: 0.5;stroke-linejoin: bevel;stroke-dasharray: 2.0, 2.0;shape-rendering:crispEdges;" transform="matrix(1,0,0,1,0,0)" clip-path="url(#_798078691491074clip-2)"/><line x1="153.14" y1="35" x2="153.14" y2="550" style="stroke-width: 0.5;stroke: rgb(128,128,128);stroke-opacity: 0.5;stroke-linejoin: bevel;stroke-dasharray: 2.0, 2.0;shape-rendering:crispEdges;" transform="matrix(1,0,0,1,0,0)" clip-path="url(#_798078691491074clip-2)"/><line x1="216.73" y1="35" x2="216.73" y2="550" style="stroke-width: 0.5;stroke: rgb(128,128,128);stroke-opacity: 0.5;stroke-linejoin: bevel;stroke-dasharray: 2.0, 2.0;shape-rendering:crispEdges;" transform="matrix(1,0,0,1,0,0)" clip-path="url(#_798078691491074clip-2)"/><line x1="280.31" y1="35" x2="280.31" y2="550" style="stroke-width: 0.5;stroke: rgb(128,128,128);stroke-opacity: 0.5;stroke-linejoin: bevel;stroke-dasharray: 2.0, 2.0;shape-rendering:crispEdges;" transform="matrix(1,0,0,1,0,0)" clip-path="url(#_798078691491074clip-2)"/><line x1="343.89" y1="35" x2="343.89" y2="550" style="stroke-width: 0.5;stroke: rgb(128,128,128);stroke-opacity: 0.5;stroke-linejoin: bevel;stroke-dasharray: 2.0, 2.0;shape-rendering:crispEdges;" transform="matrix(1,0,0,1,0,0)" clip-path="url(#_798078691491074clip-2)"/><line x1="407.47" y1="35" x2="407.47" y2="550" style="stroke-width: 0.5;stroke: rgb(128,128,128);stroke-opacity: 0.5;stroke-linejoin: bevel;stroke-dasharray: 2.0, 2.0;shape-rendering:crispEdges;" transform="matrix(1,0,0,1,0,0)" clip-path="url(#_798078691491074clip-2)"/><line x1="471.06" y1="35" x2="471.06" y2="550" style="stroke-width: 0.5;stroke: rgb(128,128,128);stroke-opacity: 0.5;stroke-linejoin: bevel;stroke-dasharray: 2.0, 2.0;shape-rendering:crispEdges;" transform="matrix(1,0,0,1,0,0)" clip-path="url(#_798078691491074clip-2)"/><line x1="534.64" y1="35" x2="534.64" y2="550" style="stroke-width: 0.5;stroke: rgb(128,128,128);stroke-opacity: 0.5;stroke-linejoin: bevel;stroke-dasharray: 2.0, 2.0;shape-rendering:crispEdges;" transform="matrix(1,0,0,1,0,0)" clip-path="url(#_798078691491074clip-2)"/><line x1="598.22" y1="35" x2="598.22" y2="550" style="stroke-width: 0.5;stroke: rgb(128,128,128);stroke-opacity: 0.5;stroke-linejoin: bevel;stroke-dasharray: 2.0, 2.0;shape-rendering:crispEdges;" transform="matrix(1,0,0,1,0,0)" clip-path="url(#_798078691491074clip-2)"/><line x1="661.8" y1="35" x2="661.8" y2="550" style="stroke-width: 0.5;stroke: rgb(128,128,128);stroke-opacity: 0.5;stroke-linejoin: bevel;stroke-dasharray: 2.0, 2.0;shape-rendering:crispEdges;" transform="matrix(1,0,0,1,0,0)" clip-path="url(#_798078691491074clip-2)"/><line x1="153.14" y1="201.69" x2="176.6" y2="196.93" style="stroke-width: 1.5;stroke: rgb(0,0,0);stroke-opacity: 0.5;stroke-linecap: round;stroke-linejoin: round;shape-rendering:geometricPrecision;" transform="matrix(1,0,0,1,0,0)" clip-path="url(#_798078691491074clip-2)"/><line x1="176.6" y1="196.93" x2="200.06" y2="192.37" style="stroke-width: 1.5;stroke: rgb(0,0,0);stroke-opacity: 0.5;stroke-linecap: round;stroke-linejoin: round;shape-rendering:geometricPrecision;" transform="matrix(1,0,0,1,0,0)" clip-path="url(#_798078691491074clip-2)"/><line x1="200.06" y1="192.37" x2="223.52" y2="188.24" style="stroke-width: 1.5;stroke: rgb(0,0,0);stroke-opacity: 0.5;stroke-linecap: round;stroke-linejoin: round;shape-rendering:geometricPrecision;" transform="matrix(1,0,0,1,0,0)" clip-path="url(#_798078691491074clip-2)"/><line x1="223.52" y1="188.24" x2="246.98" y2="184.73" style="stroke-width: 1.5;stroke: rgb(0,0,0);stroke-opacity: 0.5;stroke-linecap: round;stroke-linejoin: round;shape-rendering:geometricPrecision;" transform="matrix(1,0,0,1,0,0)" clip-path="url(#_798078691491074clip-2)"/><line x1="246.98" y1="184.73" x2="270.44" y2="182.06" style="stroke-width: 1.5;stroke: rgb(0,0,0);stroke-opacity: 0.5;stroke-linecap: round;stroke-linejoin: round;shape-rendering:geometricPrecision;" transform="matrix(1,0,0,1,0,0)" clip-path="url(#_798078691491074clip-2)"/><line x1="270.44" y1="182.06" x2="293.89" y2="180.32" style="stroke-width: 1.5;stroke: rgb(0,0,0);stroke-opacity: 0.5;stroke-linecap: round;stroke-linejoin: round;shape-rendering:geometricPrecision;" transform="matrix(1,0,0,1,0,0)" clip-path="url(#_798078691491074clip-2)"/><line x1="293.89" y1="180.32" x2="317.35" y2="179.48" style="stroke-width: 1.5;stroke: rgb(0,0,0);stroke-opacity: 0.5;stroke-linecap: round;stroke-linejoin: round;shape-rendering:geometricPrecision;" transform="matrix(1,0,0,1,0,0)" clip-path="url(#_798078691491074clip-2)"/><line x1="317.35" y1="179.48" x2="340.81" y2="179.45" style="stroke-width: 1.5;stroke: rgb(0,0,0);stroke-opacity: 0.5;stroke-linecap: round;stroke-linejoin: round;shape-rendering:geometricPrecision;" transform="matrix(1,0,0,1,0,0)" clip-path="url(#_798078691491074clip-2)"/><line x1="340.81" y1="179.45" x2="364.27" y2="180.17" style="stroke-width: 1.5;stroke: rgb(0,0,0);stroke-opacity: 0.5;stroke-linecap: round;stroke-linejoin: round;shape-rendering:geometricPrecision;" transform="matrix(1,0,0,1,0,0)" clip-path="url(#_798078691491074clip-2)"/><line x1="364.27" y1="180.17" x2="387.73" y2="181.57" style="stroke-width: 1.5;stroke: rgb(0,0,0);stroke-opacity: 0.5;stroke-linecap: round;stroke-linejoin: round;shape-rendering:geometricPrecision;" transform="matrix(1,0,0,1,0,0)" clip-path="url(#_798078691491074clip-2)"/><line x1="387.73" y1="181.57" x2="411.19" y2="183.59" style="stroke-width: 1.5;stroke: rgb(0,0,0);stroke-opacity: 0.5;stroke-linecap: round;stroke-linejoin: round;shape-rendering:geometricPrecision;" transform="matrix(1,0,0,1,0,0)" clip-path="url(#_798078691491074clip-2)"/><line x1="411.19" y1="183.59" x2="434.65" y2="186.16" style="stroke-width: 1.5;stroke: rgb(0,0,0);stroke-opacity: 0.5;stroke-linecap: round;stroke-linejoin: round;shape-rendering:geometricPrecision;" transform="matrix(1,0,0,1,0,0)" clip-path="url(#_798078691491074clip-2)"/><line x1="434.65" y1="186.16" x2="458.11" y2="189.2" style="stroke-width: 1.5;stroke: rgb(0,0,0);stroke-opacity: 0.5;stroke-linecap: round;stroke-linejoin: round;shape-rendering:geometricPrecision;" transform="matrix(1,0,0,1,0,0)" clip-path="url(#_798078691491074clip-2)"/><line x1="458.11" y1="189.2" x2="481.56" y2="192.65" style="stroke-width: 1.5;stroke: rgb(0,0,0);stroke-opacity: 0.5;stroke-linecap: round;stroke-linejoin: round;shape-rendering:geometricPrecision;" transform="matrix(1,0,0,1,0,0)" clip-path="url(#_798078691491074clip-2)"/><line x1="481.56" y1="192.65" x2="505.02" y2="196.44" style="stroke-width: 1.5;stroke: rgb(0,0,0);stroke-opacity: 0.5;stroke-linecap: round;stroke-linejoin: round;shape-rendering:geometricPrecision;" transform="matrix(1,0,0,1,0,0)" clip-path="url(#_798078691491074clip-2)"/><line x1="505.02" y1="196.44" x2="528.48" y2="200.5" style="stroke-width: 1.5;stroke: rgb(0,0,0);stroke-opacity: 0.5;stroke-linecap: round;stroke-linejoin: round;shape-rendering:geometricPrecision;" transform="matrix(1,0,0,1,0,0)" clip-path="url(#_798078691491074clip-2)"/><line x1="528.48" y1="200.5" x2="551.94" y2="204.77" style="stroke-width: 1.5;stroke: rgb(0,0,0);stroke-opacity: 0.5;stroke-linecap: round;stroke-linejoin: round;shape-rendering:geometricPrecision;" transform="matrix(1,0,0,1,0,0)" clip-path="url(#_798078691491074clip-2)"/><line x1="551.94" y1="204.77" x2="575.4" y2="209.17" style="stroke-width: 1.5;stroke: rgb(0,0,0);stroke-opacity: 0.5;stroke-linecap: round;stroke-linejoin: round;shape-rendering:geometricPrecision;" transform="matrix(1,0,0,1,0,0)" clip-path="url(#_798078691491074clip-2)"/><line x1="575.4" y1="209.17" x2="598.86" y2="213.64" style="stroke-width: 1.5;stroke: rgb(0,0,0);stroke-opacity: 0.5;stroke-linecap: round;stroke-linejoin: round;shape-rendering:geometricPrecision;" transform="matrix(1,0,0,1,0,0)" clip-path="url(#_798078691491074clip-2)"/><line x1="598.86" y1="213.64" x2="598.86" y2="371.36" style="stroke-width: 1.5;stroke: rgb(0,0,0);stroke-opacity: 0.5;stroke-linecap: round;stroke-linejoin: round;shape-rendering:geometricPrecision;" transform="matrix(1,0,0,1,0,0)" clip-path="url(#_798078691491074clip-2)"/><line x1="598.86" y1="371.36" x2="575.4" y2="375.83" style="stroke-width: 1.5;stroke: rgb(0,0,0);stroke-opacity: 0.5;stroke-linecap: round;stroke-linejoin: round;shape-rendering:geometricPrecision;" transform="matrix(1,0,0,1,0,0)" clip-path="url(#_798078691491074clip-2)"/><line x1="575.4" y1="375.83" x2="551.94" y2="380.23" style="stroke-width: 1.5;stroke: rgb(0,0,0);stroke-opacity: 0.5;stroke-linecap: round;stroke-linejoin: round;shape-rendering:geometricPrecision;" transform="matrix(1,0,0,1,0,0)" clip-path="url(#_798078691491074clip-2)"/><line x1="551.94" y1="380.23" x2="528.48" y2="384.5" style="stroke-width: 1.5;stroke: rgb(0,0,0);stroke-opacity: 0.5;stroke-linecap: round;stroke-linejoin: round;shape-rendering:geometricPrecision;" transform="matrix(1,0,0,1,0,0)" clip-path="url(#_798078691491074clip-2)"/><line x1="528.48" y1="384.5" x2="505.02" y2="388.56" style="stroke-width: 1.5;stroke: rgb(0,0,0);stroke-opacity: 0.5;stroke-linecap: round;stroke-linejoin: round;shape-rendering:geometricPrecision;" transform="matrix(1,0,0,1,0,0)" clip-path="url(#_798078691491074clip-2)"/><line x1="505.02" y1="388.56" x2="481.56" y2="392.35" style="stroke-width: 1.5;stroke: rgb(0,0,0);stroke-opacity: 0.5;stroke-linecap: round;stroke-linejoin: round;shape-rendering:geometricPrecision;" transform="matrix(1,0,0,1,0,0)" clip-path="url(#_798078691491074clip-2)"/><line x1="481.56" y1="392.35" x2="458.11" y2="395.8" style="stroke-width: 1.5;stroke: rgb(0,0,0);stroke-opacity: 0.5;stroke-linecap: round;stroke-linejoin: round;shape-rendering:geometricPrecision;" transform="matrix(1,0,0,1,0,0)" clip-path="url(#_798078691491074clip-2)"/><line x1="458.11" y1="395.8" x2="434.65" y2="398.84" style="stroke-width: 1.5;stroke: rgb(0,0,0);stroke-opacity: 0.5;stroke-linecap: round;stroke-linejoin: round;shape-rendering:geometricPrecision;" transform="matrix(1,0,0,1,0,0)" clip-path="url(#_798078691491074clip-2)"/><line x1="434.65" y1="398.84" x2="411.19" y2="401.41" style="stroke-width: 1.5;stroke: rgb(0,0,0);stroke-opacity: 0.5;stroke-linecap: round;stroke-linejoin: round;shape-rendering:geometricPrecision;" transform="matrix(1,0,0,1,0,0)" clip-path="url(#_798078691491074clip-2)"/><line x1="411.19" y1="401.41" x2="387.73" y2="403.43" style="stroke-width: 1.5;stroke: rgb(0,0,0);stroke-opacity: 0.5;stroke-linecap: round;stroke-linejoin: round;shape-rendering:geometricPrecision;" transform="matrix(1,0,0,1,0,0)" clip-path="url(#_798078691491074clip-2)"/><line x1="387.73" y1="403.43" x2="364.27" y2="404.83" style="stroke-width: 1.5;stroke: rgb(0,0,0);stroke-opacity: 0.5;stroke-linecap: round;stroke-linejoin: round;shape-rendering:geometricPrecision;" transform="matrix(1,0,0,1,0,0)" clip-path="url(#_798078691491074clip-2)"/><line x1="364.27" y1="404.83" x2="340.81" y2="405.55" style="stroke-width: 1.5;stroke: rgb(0,0,0);stroke-opacity: 0.5;stroke-linecap: round;stroke-linejoin: round;shape-rendering:geometricPrecision;" transform="matrix(1,0,0,1,0,0)" clip-path="url(#_798078691491074clip-2)"/><line x1="340.81" y1="405.55" x2="317.35" y2="405.52" style="stroke-width: 1.5;stroke: rgb(0,0,0);stroke-opacity: 0.5;stroke-linecap: round;stroke-linejoin: round;shape-rendering:geometricPrecision;" transform="matrix(1,0,0,1,0,0)" clip-path="url(#_798078691491074clip-2)"/><line x1="317.35" y1="405.52" x2="293.89" y2="404.68" style="stroke-width: 1.5;stroke: rgb(0,0,0);stroke-opacity: 0.5;stroke-linecap: round;stroke-linejoin: round;shape-rendering:geometricPrecision;" transform="matrix(1,0,0,1,0,0)" clip-path="url(#_798078691491074clip-2)"/><line x1="293.89" y1="404.68" x2="270.44" y2="402.94" style="stroke-width: 1.5;stroke: rgb(0,0,0);stroke-opacity: 0.5;stroke-linecap: round;stroke-linejoin: round;shape-rendering:geometricPrecision;" transform="matrix(1,0,0,1,0,0)" clip-path="url(#_798078691491074clip-2)"/><line x1="270.44" y1="402.94" x2="246.98" y2="400.27" style="stroke-width: 1.5;stroke: rgb(0,0,0);stroke-opacity: 0.5;stroke-linecap: round;stroke-linejoin: round;shape-rendering:geometricPrecision;" transform="matrix(1,0,0,1,0,0)" clip-path="url(#_798078691491074clip-2)"/><line x1="246.98" y1="400.27" x2="223.52" y2="396.76" style="stroke-width: 1.5;stroke: rgb(0,0,0);stroke-opacity: 0.5;stroke-linecap: round;stroke-linejoin: round;shape-rendering:geometricPrecision;" transform="matrix(1,0,0,1,0,0)" clip-path="url(#_798078691491074clip-2)"/><line x1="223.52" y1="396.76" x2="200.06" y2="392.63" style="stroke-width: 1.5;stroke: rgb(0,0,0);stroke-opacity: 0.5;stroke-linecap: round;stroke-linejoin: round;shape-rendering:geometricPrecision;" transform="matrix(1,0,0,1,0,0)" clip-path="url(#_798078691491074clip-2)"/><line x1="200.06" y1="392.63" x2="176.6" y2="388.07" style="stroke-width: 1.5;stroke: rgb(0,0,0);stroke-opacity: 0.5;stroke-linecap: round;stroke-linejoin: round;shape-rendering:geometricPrecision;" transform="matrix(1,0,0,1,0,0)" clip-path="url(#_798078691491074clip-2)"/><line x1="176.6" y1="388.07" x2="153.14" y2="383.31" style="stroke-width: 1.5;stroke: rgb(0,0,0);stroke-opacity: 0.5;stroke-linecap: round;stroke-linejoin: round;shape-rendering:geometricPrecision;" transform="matrix(1,0,0,1,0,0)" clip-path="url(#_798078691491074clip-2)"/><line x1="153.14" y1="383.31" x2="153.14" y2="201.69" style="stroke-width: 1.5;stroke: rgb(0,0,0);stroke-opacity: 0.5;stroke-linecap: round;stroke-linejoin: round;shape-rendering:geometricPrecision;" transform="matrix(1,0,0,1,0,0)" clip-path="url(#_798078691491074clip-2)"/><g style="fill: rgb(255,127,80); fill-opacity: 0.5; stroke: none" transform="matrix(1,0,0,1,0,0)" clip-path="url(#_798078691491074clip-2)"><path d="M 153.14 201.69 L 153.14 201.69 L 176.6 196.93 L 200.06 192.37 L 223.52 188.24 L 246.98 184.73 L 270.44 182.06 L 293.89 180.32 L 317.35 179.48 L 340.81 179.45 L 364.27 180.17 L 387.73 181.57 L 411.19 183.59 L 434.65 186.16 L 458.11 189.2 L 481.56 192.65 L 505.02 196.44 L 528.48 200.5 L 551.94 204.77 L 575.4 209.17 L 598.86 213.64 L 598.86 371.36 L 575.4 375.83 L 551.94 380.23 L 528.48 384.5 L 505.02 388.56 L 481.56 392.35 L 458.11 395.8 L 434.65 398.84 L 411.19 401.41 L 387.73 403.43 L 364.27 404.83 L 340.81 405.55 L 317.35 405.52 L 293.89 404.68 L 270.44 402.94 L 246.98 400.27 L 223.52 396.76 L 200.06 392.63 L 176.6 388.07 L 153.14 383.31 L 153.14 201.69 L 153.14 201.69 Z "/></g><rect x="64" y="35" width="624" height="515" style="stroke-width: 0.5;stroke: rgb(0,0,0);stroke-opacity: 1.0;stroke-linecap: round;stroke-linejoin: round;shape-rendering:crispEdges;; fill: none" transform="matrix(1,0,0,1,0,0)" clip-path="url(#_798078691491074clip-0)"/></svg>
