<!DOCTYPE svg PUBLIC "-//W3C//DTD SVG 1.1//EN" "http://www.w3.org/Graphics/SVG/1.1/DTD/svg11.dtd">
<svg xmlns="http://www.w3.org/2000/svg" xmlns:xlink="http://www.w3.org/1999/xlink" xmlns:jfreesvg="http://www.jfree.org/jfreesvg/svg" width="650" height="650" text-rendering="auto" shape-rendering="auto">
<defs><clipPath id="_412348116957046clip-0"><path d="M 0 0 L 650 0 L 650 650 L 0 650 L 0 0 Z "/></clipPath>
<clipPath id="_412348116957046clip-1"><path d="M 337 298 L 337 948 L -313 948 L -313 298 L 337 298 Z "/></clipPath>
<clipPath id="_412348116957046clip-2"><path d="M 64 35 L 64 600 L 638 600 L 638 35 Z "/></clipPath>
</defs>
<rect x="0" y="0" width="650" height="650" style="fill: rgb(245,245,245); fill-opacity: 1.0" transform="matrix(1,0,0,1,0,0)" clip-path="url(#_412348116957046clip-0)"/><g transform="matrix(1,0,0,1,0,0)"><text x="139.5" y="21.01" style="fill: rgb(0,0,0); fill-opacity: 1.0; font-family: Tahoma; font-size: 20px; font-weight: bold;" clip-path="url(#_412348116957046clip-0)">Vertical Tail Planform representation</text></g><rect x="64" y="35" width="574" height="565" style="fill: rgb(240,248,255); fill-opacity: 0.0" transform="matrix(1,0,0,1,0,0)" clip-path="url(#_412348116957046clip-0)"/><line x1="64" y1="604" x2="638" y2="604" style="stroke-width: 0.5;stroke: rgb(128,128,128);stroke-opacity: 1.0;stroke-linecap: square;shape-rendering:crispEdges;" transform="matrix(1,0,0,1,0,0)" clip-path="url(#_412348116957046clip-0)"/><g transform="matrix(1,0,0,1,0,0)"><text x="100.11" y="620.52" style="fill: rgb(64,64,64); fill-opacity: 1.0; font-family: Tahoma; font-size: 12px;" clip-path="url(#_412348116957046clip-0)">0</text></g><line x1="103.61" y1="606" x2="103.61" y2="604" style="stroke-width: 0.5;stroke: rgb(128,128,128);stroke-opacity: 1.0;stroke-linecap: square;shape-rendering:crispEdges;" transform="matrix(1,0,0,1,0,0)" clip-path="url(#_412348116957046clip-0)"/><g transform="matrix(1,0,0,1,0,0)"><text x="151.29" y="620.52" style="fill: rgb(64,64,64); fill-opacity: 1.0; font-family: Tahoma; font-size: 12px;" clip-path="url(#_412348116957046clip-0)">1</text></g><line x1="154.79" y1="606" x2="154.79" y2="604" style="stroke-width: 0.5;stroke: rgb(128,128,128);stroke-opacity: 1.0;stroke-linecap: square;shape-rendering:crispEdges;" transform="matrix(1,0,0,1,0,0)" clip-path="url(#_412348116957046clip-0)"/><g transform="matrix(1,0,0,1,0,0)"><text x="202.46" y="620.52" style="fill: rgb(64,64,64); fill-opacity: 1.0; font-family: Tahoma; font-size: 12px;" clip-path="url(#_412348116957046clip-0)">2</text></g><line x1="205.96" y1="606" x2="205.96" y2="604" style="stroke-width: 0.5;stroke: rgb(128,128,128);stroke-opacity: 1.0;stroke-linecap: square;shape-rendering:crispEdges;" transform="matrix(1,0,0,1,0,0)" clip-path="url(#_412348116957046clip-0)"/><g transform="matrix(1,0,0,1,0,0)"><text x="253.64" y="620.52" style="fill: rgb(64,64,64); fill-opacity: 1.0; font-family: Tahoma; font-size: 12px;" clip-path="url(#_412348116957046clip-0)">3</text></g><line x1="257.14" y1="606" x2="257.14" y2="604" style="stroke-width: 0.5;stroke: rgb(128,128,128);stroke-opacity: 1.0;stroke-linecap: square;shape-rendering:crispEdges;" transform="matrix(1,0,0,1,0,0)" clip-path="url(#_412348116957046clip-0)"/><g transform="matrix(1,0,0,1,0,0)"><text x="304.82" y="620.52" style="fill: rgb(64,64,64); fill-opacity: 1.0; font-family: Tahoma; font-size: 12px;" clip-path="url(#_412348116957046clip-0)">4</text></g><line x1="308.32" y1="606" x2="308.32" y2="604" style="stroke-width: 0.5;stroke: rgb(128,128,128);stroke-opacity: 1.0;stroke-linecap: square;shape-rendering:crispEdges;" transform="matrix(1,0,0,1,0,0)" clip-path="url(#_412348116957046clip-0)"/><g transform="matrix(1,0,0,1,0,0)"><text x="356" y="620.52" style="fill: rgb(64,64,64); fill-opacity: 1.0; font-family: Tahoma; font-size: 12px;" clip-path="url(#_412348116957046clip-0)">5</text></g><line x1="359.5" y1="606" x2="359.5" y2="604" style="stroke-width: 0.5;stroke: rgb(128,128,128);stroke-opacity: 1.0;stroke-linecap: square;shape-rendering:crispEdges;" transform="matrix(1,0,0,1,0,0)" clip-path="url(#_412348116957046clip-0)"/><g transform="matrix(1,0,0,1,0,0)"><text x="407.17" y="620.52" style="fill: rgb(64,64,64); fill-opacity: 1.0; font-family: Tahoma; font-size: 12px;" clip-path="url(#_412348116957046clip-0)">6</text></g><line x1="410.67" y1="606" x2="410.67" y2="604" style="stroke-width: 0.5;stroke: rgb(128,128,128);stroke-opacity: 1.0;stroke-linecap: square;shape-rendering:crispEdges;" transform="matrix(1,0,0,1,0,0)" clip-path="url(#_412348116957046clip-0)"/><g transform="matrix(1,0,0,1,0,0)"><text x="458.35" y="620.52" style="fill: rgb(64,64,64); fill-opacity: 1.0; font-family: Tahoma; font-size: 12px;" clip-path="url(#_412348116957046clip-0)">7</text></g><line x1="461.85" y1="606" x2="461.85" y2="604" style="stroke-width: 0.5;stroke: rgb(128,128,128);stroke-opacity: 1.0;stroke-linecap: square;shape-rendering:crispEdges;" transform="matrix(1,0,0,1,0,0)" clip-path="url(#_412348116957046clip-0)"/><g transform="matrix(1,0,0,1,0,0)"><text x="509.53" y="620.52" style="fill: rgb(64,64,64); fill-opacity: 1.0; font-family: Tahoma; font-size: 12px;" clip-path="url(#_412348116957046clip-0)">8</text></g><line x1="513.03" y1="606" x2="513.03" y2="604" style="stroke-width: 0.5;stroke: rgb(128,128,128);stroke-opacity: 1.0;stroke-linecap: square;shape-rendering:crispEdges;" transform="matrix(1,0,0,1,0,0)" clip-path="url(#_412348116957046clip-0)"/><g transform="matrix(1,0,0,1,0,0)"><text x="560.7" y="620.52" style="fill: rgb(64,64,64); fill-opacity: 1.0; font-family: Tahoma; font-size: 12px;" clip-path="url(#_412348116957046clip-0)">9</text></g><line x1="564.2" y1="606" x2="564.2" y2="604" style="stroke-width: 0.5;stroke: rgb(128,128,128);stroke-opacity: 1.0;stroke-linecap: square;shape-rendering:crispEdges;" transform="matrix(1,0,0,1,0,0)" clip-path="url(#_412348116957046clip-0)"/><g transform="matrix(1,0,0,1,0,0)"><text x="608.88" y="620.52" style="fill: rgb(64,64,64); fill-opacity: 1.0; font-family: Tahoma; font-size: 12px;" clip-path="url(#_412348116957046clip-0)">10</text></g><line x1="615.38" y1="606" x2="615.38" y2="604" style="stroke-width: 0.5;stroke: rgb(128,128,128);stroke-opacity: 1.0;stroke-linecap: square;shape-rendering:crispEdges;" transform="matrix(1,0,0,1,0,0)" clip-path="url(#_412348116957046clip-0)"/><g transform="matrix(1,0,0,1,0,0)"><text x="331.5" y="639.59" style="fill: rgb(64,64,64); fill-opacity: 1.0; font-family: Tahoma; font-size: 14px; font-weight: bold;" clip-path="url(#_412348116957046clip-0)">x (m)</text></g><line x1="60" y1="35" x2="60" y2="600" style="stroke-width: 0.5;stroke: rgb(128,128,128);stroke-opacity: 1.0;stroke-linecap: square;shape-rendering:crispEdges;" transform="matrix(1,0,0,1,0,0)" clip-path="url(#_412348116957046clip-0)"/><g transform="matrix(1,0,0,1,0,0)"><text x="33" y="594.04" style="fill: rgb(64,64,64); fill-opacity: 1.0; font-family: Tahoma; font-size: 12px;" clip-path="url(#_412348116957046clip-0)">-2,5</text></g><line x1="58" y1="589.02" x2="60" y2="589.02" style="stroke-width: 0.5;stroke: rgb(128,128,128);stroke-opacity: 1.0;stroke-linecap: square;shape-rendering:crispEdges;" transform="matrix(1,0,0,1,0,0)" clip-path="url(#_412348116957046clip-0)"/><g transform="matrix(1,0,0,1,0,0)"><text x="33" y="568.85" style="fill: rgb(64,64,64); fill-opacity: 1.0; font-family: Tahoma; font-size: 12px;" clip-path="url(#_412348116957046clip-0)">-2,0</text></g><line x1="58" y1="563.83" x2="60" y2="563.83" style="stroke-width: 0.5;stroke: rgb(128,128,128);stroke-opacity: 1.0;stroke-linecap: square;shape-rendering:crispEdges;" transform="matrix(1,0,0,1,0,0)" clip-path="url(#_412348116957046clip-0)"/><g transform="matrix(1,0,0,1,0,0)"><text x="33" y="543.67" style="fill: rgb(64,64,64); fill-opacity: 1.0; font-family: Tahoma; font-size: 12px;" clip-path="url(#_412348116957046clip-0)">-1,5</text></g><line x1="58" y1="538.64" x2="60" y2="538.64" style="stroke-width: 0.5;stroke: rgb(128,128,128);stroke-opacity: 1.0;stroke-linecap: square;shape-rendering:crispEdges;" transform="matrix(1,0,0,1,0,0)" clip-path="url(#_412348116957046clip-0)"/><g transform="matrix(1,0,0,1,0,0)"><text x="33" y="518.48" style="fill: rgb(64,64,64); fill-opacity: 1.0; font-family: Tahoma; font-size: 12px;" clip-path="url(#_412348116957046clip-0)">-1,0</text></g><line x1="58" y1="513.46" x2="60" y2="513.46" style="stroke-width: 0.5;stroke: rgb(128,128,128);stroke-opacity: 1.0;stroke-linecap: square;shape-rendering:crispEdges;" transform="matrix(1,0,0,1,0,0)" clip-path="url(#_412348116957046clip-0)"/><g transform="matrix(1,0,0,1,0,0)"><text x="33" y="493.29" style="fill: rgb(64,64,64); fill-opacity: 1.0; font-family: Tahoma; font-size: 12px;" clip-path="url(#_412348116957046clip-0)">-0,5</text></g><line x1="58" y1="488.27" x2="60" y2="488.27" style="stroke-width: 0.5;stroke: rgb(128,128,128);stroke-opacity: 1.0;stroke-linecap: square;shape-rendering:crispEdges;" transform="matrix(1,0,0,1,0,0)" clip-path="url(#_412348116957046clip-0)"/><g transform="matrix(1,0,0,1,0,0)"><text x="37" y="468.1" style="fill: rgb(64,64,64); fill-opacity: 1.0; font-family: Tahoma; font-size: 12px;" clip-path="url(#_412348116957046clip-0)">0,0</text></g><line x1="58" y1="463.08" x2="60" y2="463.08" style="stroke-width: 0.5;stroke: rgb(128,128,128);stroke-opacity: 1.0;stroke-linecap: square;shape-rendering:crispEdges;" transform="matrix(1,0,0,1,0,0)" clip-path="url(#_412348116957046clip-0)"/><g transform="matrix(1,0,0,1,0,0)"><text x="37" y="442.92" style="fill: rgb(64,64,64); fill-opacity: 1.0; font-family: Tahoma; font-size: 12px;" clip-path="url(#_412348116957046clip-0)">0,5</text></g><line x1="58" y1="437.89" x2="60" y2="437.89" style="stroke-width: 0.5;stroke: rgb(128,128,128);stroke-opacity: 1.0;stroke-linecap: square;shape-rendering:crispEdges;" transform="matrix(1,0,0,1,0,0)" clip-path="url(#_412348116957046clip-0)"/><g transform="matrix(1,0,0,1,0,0)"><text x="37" y="417.73" style="fill: rgb(64,64,64); fill-opacity: 1.0; font-family: Tahoma; font-size: 12px;" clip-path="url(#_412348116957046clip-0)">1,0</text></g><line x1="58" y1="412.71" x2="60" y2="412.71" style="stroke-width: 0.5;stroke: rgb(128,128,128);stroke-opacity: 1.0;stroke-linecap: square;shape-rendering:crispEdges;" transform="matrix(1,0,0,1,0,0)" clip-path="url(#_412348116957046clip-0)"/><g transform="matrix(1,0,0,1,0,0)"><text x="37" y="392.54" style="fill: rgb(64,64,64); fill-opacity: 1.0; font-family: Tahoma; font-size: 12px;" clip-path="url(#_412348116957046clip-0)">1,5</text></g><line x1="58" y1="387.52" x2="60" y2="387.52" style="stroke-width: 0.5;stroke: rgb(128,128,128);stroke-opacity: 1.0;stroke-linecap: square;shape-rendering:crispEdges;" transform="matrix(1,0,0,1,0,0)" clip-path="url(#_412348116957046clip-0)"/><g transform="matrix(1,0,0,1,0,0)"><text x="37" y="367.35" style="fill: rgb(64,64,64); fill-opacity: 1.0; font-family: Tahoma; font-size: 12px;" clip-path="url(#_412348116957046clip-0)">2,0</text></g><line x1="58" y1="362.33" x2="60" y2="362.33" style="stroke-width: 0.5;stroke: rgb(128,128,128);stroke-opacity: 1.0;stroke-linecap: square;shape-rendering:crispEdges;" transform="matrix(1,0,0,1,0,0)" clip-path="url(#_412348116957046clip-0)"/><g transform="matrix(1,0,0,1,0,0)"><text x="37" y="342.17" style="fill: rgb(64,64,64); fill-opacity: 1.0; font-family: Tahoma; font-size: 12px;" clip-path="url(#_412348116957046clip-0)">2,5</text></g><line x1="58" y1="337.15" x2="60" y2="337.15" style="stroke-width: 0.5;stroke: rgb(128,128,128);stroke-opacity: 1.0;stroke-linecap: square;shape-rendering:crispEdges;" transform="matrix(1,0,0,1,0,0)" clip-path="url(#_412348116957046clip-0)"/><g transform="matrix(1,0,0,1,0,0)"><text x="37" y="316.98" style="fill: rgb(64,64,64); fill-opacity: 1.0; font-family: Tahoma; font-size: 12px;" clip-path="url(#_412348116957046clip-0)">3,0</text></g><line x1="58" y1="311.96" x2="60" y2="311.96" style="stroke-width: 0.5;stroke: rgb(128,128,128);stroke-opacity: 1.0;stroke-linecap: square;shape-rendering:crispEdges;" transform="matrix(1,0,0,1,0,0)" clip-path="url(#_412348116957046clip-0)"/><g transform="matrix(1,0,0,1,0,0)"><text x="37" y="291.79" style="fill: rgb(64,64,64); fill-opacity: 1.0; font-family: Tahoma; font-size: 12px;" clip-path="url(#_412348116957046clip-0)">3,5</text></g><line x1="58" y1="286.77" x2="60" y2="286.77" style="stroke-width: 0.5;stroke: rgb(128,128,128);stroke-opacity: 1.0;stroke-linecap: square;shape-rendering:crispEdges;" transform="matrix(1,0,0,1,0,0)" clip-path="url(#_412348116957046clip-0)"/><g transform="matrix(1,0,0,1,0,0)"><text x="37" y="266.61" style="fill: rgb(64,64,64); fill-opacity: 1.0; font-family: Tahoma; font-size: 12px;" clip-path="url(#_412348116957046clip-0)">4,0</text></g><line x1="58" y1="261.58" x2="60" y2="261.58" style="stroke-width: 0.5;stroke: rgb(128,128,128);stroke-opacity: 1.0;stroke-linecap: square;shape-rendering:crispEdges;" transform="matrix(1,0,0,1,0,0)" clip-path="url(#_412348116957046clip-0)"/><g transform="matrix(1,0,0,1,0,0)"><text x="37" y="241.42" style="fill: rgb(64,64,64); fill-opacity: 1.0; font-family: Tahoma; font-size: 12px;" clip-path="url(#_412348116957046clip-0)">4,5</text></g><line x1="58" y1="236.4" x2="60" y2="236.4" style="stroke-width: 0.5;stroke: rgb(128,128,128);stroke-opacity: 1.0;stroke-linecap: square;shape-rendering:crispEdges;" transform="matrix(1,0,0,1,0,0)" clip-path="url(#_412348116957046clip-0)"/><g transform="matrix(1,0,0,1,0,0)"><text x="37" y="216.23" style="fill: rgb(64,64,64); fill-opacity: 1.0; font-family: Tahoma; font-size: 12px;" clip-path="url(#_412348116957046clip-0)">5,0</text></g><line x1="58" y1="211.21" x2="60" y2="211.21" style="stroke-width: 0.5;stroke: rgb(128,128,128);stroke-opacity: 1.0;stroke-linecap: square;shape-rendering:crispEdges;" transform="matrix(1,0,0,1,0,0)" clip-path="url(#_412348116957046clip-0)"/><g transform="matrix(1,0,0,1,0,0)"><text x="37" y="191.04" style="fill: rgb(64,64,64); fill-opacity: 1.0; font-family: Tahoma; font-size: 12px;" clip-path="url(#_412348116957046clip-0)">5,5</text></g><line x1="58" y1="186.02" x2="60" y2="186.02" style="stroke-width: 0.5;stroke: rgb(128,128,128);stroke-opacity: 1.0;stroke-linecap: square;shape-rendering:crispEdges;" transform="matrix(1,0,0,1,0,0)" clip-path="url(#_412348116957046clip-0)"/><g transform="matrix(1,0,0,1,0,0)"><text x="37" y="165.86" style="fill: rgb(64,64,64); fill-opacity: 1.0; font-family: Tahoma; font-size: 12px;" clip-path="url(#_412348116957046clip-0)">6,0</text></g><line x1="58" y1="160.84" x2="60" y2="160.84" style="stroke-width: 0.5;stroke: rgb(128,128,128);stroke-opacity: 1.0;stroke-linecap: square;shape-rendering:crispEdges;" transform="matrix(1,0,0,1,0,0)" clip-path="url(#_412348116957046clip-0)"/><g transform="matrix(1,0,0,1,0,0)"><text x="37" y="140.67" style="fill: rgb(64,64,64); fill-opacity: 1.0; font-family: Tahoma; font-size: 12px;" clip-path="url(#_412348116957046clip-0)">6,5</text></g><line x1="58" y1="135.65" x2="60" y2="135.65" style="stroke-width: 0.5;stroke: rgb(128,128,128);stroke-opacity: 1.0;stroke-linecap: square;shape-rendering:crispEdges;" transform="matrix(1,0,0,1,0,0)" clip-path="url(#_412348116957046clip-0)"/><g transform="matrix(1,0,0,1,0,0)"><text x="37" y="115.48" style="fill: rgb(64,64,64); fill-opacity: 1.0; font-family: Tahoma; font-size: 12px;" clip-path="url(#_412348116957046clip-0)">7,0</text></g><line x1="58" y1="110.46" x2="60" y2="110.46" style="stroke-width: 0.5;stroke: rgb(128,128,128);stroke-opacity: 1.0;stroke-linecap: square;shape-rendering:crispEdges;" transform="matrix(1,0,0,1,0,0)" clip-path="url(#_412348116957046clip-0)"/><g transform="matrix(1,0,0,1,0,0)"><text x="37" y="90.3" style="fill: rgb(64,64,64); fill-opacity: 1.0; font-family: Tahoma; font-size: 12px;" clip-path="url(#_412348116957046clip-0)">7,5</text></g><line x1="58" y1="85.27" x2="60" y2="85.27" style="stroke-width: 0.5;stroke: rgb(128,128,128);stroke-opacity: 1.0;stroke-linecap: square;shape-rendering:crispEdges;" transform="matrix(1,0,0,1,0,0)" clip-path="url(#_412348116957046clip-0)"/><g transform="matrix(1,0,0,1,0,0)"><text x="37" y="65.11" style="fill: rgb(64,64,64); fill-opacity: 1.0; font-family: Tahoma; font-size: 12px;" clip-path="url(#_412348116957046clip-0)">8,0</text></g><line x1="58" y1="60.09" x2="60" y2="60.09" style="stroke-width: 0.5;stroke: rgb(128,128,128);stroke-opacity: 1.0;stroke-linecap: square;shape-rendering:crispEdges;" transform="matrix(1,0,0,1,0,0)" clip-path="url(#_412348116957046clip-0)"/><g style="fill: rgb(64,64,64); fill-opacity: 1.0; stroke: none" transform="matrix(0,-1,1,0,-298,337)" clip-path="url(#_412348116957046clip-1)"><path d="M 7.55 323.11 L 0.83 323.11 L 0.83 321.53 L 4.5 317.23 L 1 317.23 L 1 315.44 L 7.47 315.44 L 7.47 316.98 L 3.8 321.28 L 7.55 321.28 L 7.55 323.11 Z  M 17.78 325.92 L 15.26 325.92 Q 14.68 325.23 14.21 324.5 Q 13.75 323.76 13.4 322.94 Q 13.07 322.14 12.89 321.19 Q 12.71 320.23 12.71 319.2 Q 12.71 318.08 12.9 317.16 Q 13.09 316.23 13.39 315.48 Q 13.71 314.66 14.19 313.92 Q 14.67 313.19 15.26 312.47 L 17.78 312.47 L 17.78 312.67 Q 17.21 313.17 16.71 313.8 Q 16.21 314.44 15.79 315.28 Q 15.37 316.09 15.12 317.08 Q 14.87 318.08 14.87 319.2 Q 14.87 320.37 15.11 321.32 Q 15.35 322.26 15.79 323.11 Q 16.2 323.92 16.71 324.58 Q 17.23 325.25 17.78 325.73 L 17.78 325.92 Z  M 28.42 323.11 L 28.42 319.28 Q 28.42 318.7 28.39 318.31 Q 28.37 317.92 28.27 317.69 Q 28.17 317.44 27.95 317.32 Q 27.73 317.2 27.35 317.2 Q 27.07 317.2 26.81 317.33 Q 26.54 317.45 26.23 317.67 L 26.23 323.11 L 23.82 323.11 L 23.82 319.28 Q 23.82 318.72 23.8 318.32 Q 23.77 317.92 23.67 317.69 Q 23.57 317.44 23.35 317.32 Q 23.13 317.2 22.76 317.2 Q 22.46 317.2 22.18 317.34 Q 21.9 317.48 21.63 317.67 L 21.63 323.11 L 19.24 323.11 L 19.24 315.44 L 21.63 315.44 L 21.63 316.28 Q 22.21 315.78 22.74 315.5 Q 23.26 315.22 23.9 315.22 Q 24.62 315.22 25.15 315.55 Q 25.68 315.89 25.96 316.55 Q 26.65 315.91 27.26 315.56 Q 27.87 315.22 28.49 315.22 Q 29.04 315.22 29.46 315.39 Q 29.88 315.56 30.18 315.91 Q 30.49 316.26 30.66 316.78 Q 30.82 317.3 30.82 318.11 L 30.82 323.11 L 28.42 323.11 Z  M 37.27 319.2 Q 37.27 320.23 37.09 321.19 Q 36.91 322.14 36.59 322.94 Q 36.25 323.76 35.77 324.5 Q 35.3 325.23 34.72 325.92 L 32.22 325.92 L 32.22 325.73 Q 32.77 325.25 33.28 324.59 Q 33.8 323.94 34.2 323.11 Q 34.62 322.26 34.88 321.32 Q 35.12 320.37 35.12 319.2 Q 35.12 318.08 34.87 317.08 Q 34.61 316.09 34.2 315.28 Q 33.77 314.44 33.27 313.8 Q 32.77 313.17 32.22 312.67 L 32.22 312.47 L 34.72 312.47 Q 35.31 313.19 35.79 313.92 Q 36.27 314.66 36.59 315.48 Q 36.89 316.23 37.08 317.16 Q 37.27 318.08 37.27 319.2 Z "/></g><line x1="64" y1="589.02" x2="638" y2="589.02" style="stroke-width: 0.5;stroke: rgb(128,128,128);stroke-opacity: 0.5;stroke-linejoin: bevel;stroke-dasharray: 2.0, 2.0;shape-rendering:crispEdges;" transform="matrix(1,0,0,1,0,0)" clip-path="url(#_412348116957046clip-2)"/><line x1="64" y1="563.83" x2="638" y2="563.83" style="stroke-width: 0.5;stroke: rgb(128,128,128);stroke-opacity: 0.5;stroke-linejoin: bevel;stroke-dasharray: 2.0, 2.0;shape-rendering:crispEdges;" transform="matrix(1,0,0,1,0,0)" clip-path="url(#_412348116957046clip-2)"/><line x1="64" y1="538.64" x2="638" y2="538.64" style="stroke-width: 0.5;stroke: rgb(128,128,128);stroke-opacity: 0.5;stroke-linejoin: bevel;stroke-dasharray: 2.0, 2.0;shape-rendering:crispEdges;" transform="matrix(1,0,0,1,0,0)" clip-path="url(#_412348116957046clip-2)"/><line x1="64" y1="513.46" x2="638" y2="513.46" style="stroke-width: 0.5;stroke: rgb(128,128,128);stroke-opacity: 0.5;stroke-linejoin: bevel;stroke-dasharray: 2.0, 2.0;shape-rendering:crispEdges;" transform="matrix(1,0,0,1,0,0)" clip-path="url(#_412348116957046clip-2)"/><line x1="64" y1="488.27" x2="638" y2="488.27" style="stroke-width: 0.5;stroke: rgb(128,128,128);stroke-opacity: 0.5;stroke-linejoin: bevel;stroke-dasharray: 2.0, 2.0;shape-rendering:crispEdges;" transform="matrix(1,0,0,1,0,0)" clip-path="url(#_412348116957046clip-2)"/><line x1="64" y1="463.08" x2="638" y2="463.08" style="stroke-width: 0.5;stroke: rgb(128,128,128);stroke-opacity: 0.5;stroke-linejoin: bevel;stroke-dasharray: 2.0, 2.0;shape-rendering:crispEdges;" transform="matrix(1,0,0,1,0,0)" clip-path="url(#_412348116957046clip-2)"/><line x1="64" y1="437.89" x2="638" y2="437.89" style="stroke-width: 0.5;stroke: rgb(128,128,128);stroke-opacity: 0.5;stroke-linejoin: bevel;stroke-dasharray: 2.0, 2.0;shape-rendering:crispEdges;" transform="matrix(1,0,0,1,0,0)" clip-path="url(#_412348116957046clip-2)"/><line x1="64" y1="412.71" x2="638" y2="412.71" style="stroke-width: 0.5;stroke: rgb(128,128,128);stroke-opacity: 0.5;stroke-linejoin: bevel;stroke-dasharray: 2.0, 2.0;shape-rendering:crispEdges;" transform="matrix(1,0,0,1,0,0)" clip-path="url(#_412348116957046clip-2)"/><line x1="64" y1="387.52" x2="638" y2="387.52" style="stroke-width: 0.5;stroke: rgb(128,128,128);stroke-opacity: 0.5;stroke-linejoin: bevel;stroke-dasharray: 2.0, 2.0;shape-rendering:crispEdges;" transform="matrix(1,0,0,1,0,0)" clip-path="url(#_412348116957046clip-2)"/><line x1="64" y1="362.33" x2="638" y2="362.33" style="stroke-width: 0.5;stroke: rgb(128,128,128);stroke-opacity: 0.5;stroke-linejoin: bevel;stroke-dasharray: 2.0, 2.0;shape-rendering:crispEdges;" transform="matrix(1,0,0,1,0,0)" clip-path="url(#_412348116957046clip-2)"/><line x1="64" y1="337.15" x2="638" y2="337.15" style="stroke-width: 0.5;stroke: rgb(128,128,128);stroke-opacity: 0.5;stroke-linejoin: bevel;stroke-dasharray: 2.0, 2.0;shape-rendering:crispEdges;" transform="matrix(1,0,0,1,0,0)" clip-path="url(#_412348116957046clip-2)"/><line x1="64" y1="311.96" x2="638" y2="311.96" style="stroke-width: 0.5;stroke: rgb(128,128,128);stroke-opacity: 0.5;stroke-linejoin: bevel;stroke-dasharray: 2.0, 2.0;shape-rendering:crispEdges;" transform="matrix(1,0,0,1,0,0)" clip-path="url(#_412348116957046clip-2)"/><line x1="64" y1="286.77" x2="638" y2="286.77" style="stroke-width: 0.5;stroke: rgb(128,128,128);stroke-opacity: 0.5;stroke-linejoin: bevel;stroke-dasharray: 2.0, 2.0;shape-rendering:crispEdges;" transform="matrix(1,0,0,1,0,0)" clip-path="url(#_412348116957046clip-2)"/><line x1="64" y1="261.58" x2="638" y2="261.58" style="stroke-width: 0.5;stroke: rgb(128,128,128);stroke-opacity: 0.5;stroke-linejoin: bevel;stroke-dasharray: 2.0, 2.0;shape-rendering:crispEdges;" transform="matrix(1,0,0,1,0,0)" clip-path="url(#_412348116957046clip-2)"/><line x1="64" y1="236.4" x2="638" y2="236.4" style="stroke-width: 0.5;stroke: rgb(128,128,128);stroke-opacity: 0.5;stroke-linejoin: bevel;stroke-dasharray: 2.0, 2.0;shape-rendering:crispEdges;" transform="matrix(1,0,0,1,0,0)" clip-path="url(#_412348116957046clip-2)"/><line x1="64" y1="211.21" x2="638" y2="211.21" style="stroke-width: 0.5;stroke: rgb(128,128,128);stroke-opacity: 0.5;stroke-linejoin: bevel;stroke-dasharray: 2.0, 2.0;shape-rendering:crispEdges;" transform="matrix(1,0,0,1,0,0)" clip-path="url(#_412348116957046clip-2)"/><line x1="64" y1="186.02" x2="638" y2="186.02" style="stroke-width: 0.5;stroke: rgb(128,128,128);stroke-opacity: 0.5;stroke-linejoin: bevel;stroke-dasharray: 2.0, 2.0;shape-rendering:crispEdges;" transform="matrix(1,0,0,1,0,0)" clip-path="url(#_412348116957046clip-2)"/><line x1="64" y1="160.84" x2="638" y2="160.84" style="stroke-width: 0.5;stroke: rgb(128,128,128);stroke-opacity: 0.5;stroke-linejoin: bevel;stroke-dasharray: 2.0, 2.0;shape-rendering:crispEdges;" transform="matrix(1,0,0,1,0,0)" clip-path="url(#_412348116957046clip-2)"/><line x1="64" y1="135.65" x2="638" y2="135.65" style="stroke-width: 0.5;stroke: rgb(128,128,128);stroke-opacity: 0.5;stroke-linejoin: bevel;stroke-dasharray: 2.0, 2.0;shape-rendering:crispEdges;" transform="matrix(1,0,0,1,0,0)" clip-path="url(#_412348116957046clip-2)"/><line x1="64" y1="110.46" x2="638" y2="110.46" style="stroke-width: 0.5;stroke: rgb(128,128,128);stroke-opacity: 0.5;stroke-linejoin: bevel;stroke-dasharray: 2.0, 2.0;shape-rendering:crispEdges;" transform="matrix(1,0,0,1,0,0)" clip-path="url(#_412348116957046clip-2)"/><line x1="64" y1="85.27" x2="638" y2="85.27" style="stroke-width: 0.5;stroke: rgb(128,128,128);stroke-opacity: 0.5;stroke-linejoin: bevel;stroke-dasharray: 2.0, 2.0;shape-rendering:crispEdges;" transform="matrix(1,0,0,1,0,0)" clip-path="url(#_412348116957046clip-2)"/><line x1="64" y1="60.09" x2="638" y2="60.09" style="stroke-width: 0.5;stroke: rgb(128,128,128);stroke-opacity: 0.5;stroke-linejoin: bevel;stroke-dasharray: 2.0, 2.0;shape-rendering:crispEdges;" transform="matrix(1,0,0,1,0,0)" clip-path="url(#_412348116957046clip-2)"/><line x1="103.61" y1="35" x2="103.61" y2="600" style="stroke-width: 0.5;stroke: rgb(128,128,128);stroke-opacity: 0.5;stroke-linejoin: bevel;stroke-dasharray: 2.0, 2.0;shape-rendering:crispEdges;" transform="matrix(1,0,0,1,0,0)" clip-path="url(#_412348116957046clip-2)"/><line x1="154.79" y1="35" x2="154.79" y2="600" style="stroke-width: 0.5;stroke: rgb(128,128,128);stroke-opacity: 0.5;stroke-linejoin: bevel;stroke-dasharray: 2.0, 2.0;shape-rendering:crispEdges;" transform="matrix(1,0,0,1,0,0)" clip-path="url(#_412348116957046clip-2)"/><line x1="205.96" y1="35" x2="205.96" y2="600" style="stroke-width: 0.5;stroke: rgb(128,128,128);stroke-opacity: 0.5;stroke-linejoin: bevel;stroke-dasharray: 2.0, 2.0;shape-rendering:crispEdges;" transform="matrix(1,0,0,1,0,0)" clip-path="url(#_412348116957046clip-2)"/><line x1="257.14" y1="35" x2="257.14" y2="600" style="stroke-width: 0.5;stroke: rgb(128,128,128);stroke-opacity: 0.5;stroke-linejoin: bevel;stroke-dasharray: 2.0, 2.0;shape-rendering:crispEdges;" transform="matrix(1,0,0,1,0,0)" clip-path="url(#_412348116957046clip-2)"/><line x1="308.32" y1="35" x2="308.32" y2="600" style="stroke-width: 0.5;stroke: rgb(128,128,128);stroke-opacity: 0.5;stroke-linejoin: bevel;stroke-dasharray: 2.0, 2.0;shape-rendering:crispEdges;" transform="matrix(1,0,0,1,0,0)" clip-path="url(#_412348116957046clip-2)"/><line x1="359.5" y1="35" x2="359.5" y2="600" style="stroke-width: 0.5;stroke: rgb(128,128,128);stroke-opacity: 0.5;stroke-linejoin: bevel;stroke-dasharray: 2.0, 2.0;shape-rendering:crispEdges;" transform="matrix(1,0,0,1,0,0)" clip-path="url(#_412348116957046clip-2)"/><line x1="410.67" y1="35" x2="410.67" y2="600" style="stroke-width: 0.5;stroke: rgb(128,128,128);stroke-opacity: 0.5;stroke-linejoin: bevel;stroke-dasharray: 2.0, 2.0;shape-rendering:crispEdges;" transform="matrix(1,0,0,1,0,0)" clip-path="url(#_412348116957046clip-2)"/><line x1="461.85" y1="35" x2="461.85" y2="600" style="stroke-width: 0.5;stroke: rgb(128,128,128);stroke-opacity: 0.5;stroke-linejoin: bevel;stroke-dasharray: 2.0, 2.0;shape-rendering:crispEdges;" transform="matrix(1,0,0,1,0,0)" clip-path="url(#_412348116957046clip-2)"/><line x1="513.03" y1="35" x2="513.03" y2="600" style="stroke-width: 0.5;stroke: rgb(128,128,128);stroke-opacity: 0.5;stroke-linejoin: bevel;stroke-dasharray: 2.0, 2.0;shape-rendering:crispEdges;" transform="matrix(1,0,0,1,0,0)" clip-path="url(#_412348116957046clip-2)"/><line x1="564.2" y1="35" x2="564.2" y2="600" style="stroke-width: 0.5;stroke: rgb(128,128,128);stroke-opacity: 0.5;stroke-linejoin: bevel;stroke-dasharray: 2.0, 2.0;shape-rendering:crispEdges;" transform="matrix(1,0,0,1,0,0)" clip-path="url(#_412348116957046clip-2)"/><line x1="615.38" y1="35" x2="615.38" y2="600" style="stroke-width: 0.5;stroke: rgb(128,128,128);stroke-opacity: 0.5;stroke-linejoin: bevel;stroke-dasharray: 2.0, 2.0;shape-rendering:crispEdges;" transform="matrix(1,0,0,1,0,0)" clip-path="url(#_412348116957046clip-2)"/><g style="fill: rgb(255,215,0); fill-opacity: 0.5; stroke: none" transform="matrix(1,0,0,1,0,0)" clip-path="url(#_412348116957046clip-2)"><path d="M 103.61 463.08 L 103.61 463.08 L 113.81 453.04 L 124.01 443 L 134.21 432.96 L 144.41 422.92 L 154.61 412.88 L 164.81 402.84 L 175.01 392.8 L 185.21 382.76 L 195.41 372.72 L 205.61 362.68 L 215.81 352.64 L 226.01 342.6 L 236.21 332.56 L 246.41 322.52 L 256.61 312.48 L 266.81 302.44 L 277.01 292.4 L 287.21 282.36 L 297.41 272.32 L 307.61 262.28 L 317.81 252.24 L 328.01 242.2 L 338.21 232.16 L 348.41 222.12 L 358.61 212.08 L 368.81 202.04 L 379.01 192 L 389.21 181.96 L 399.41 171.92 L 568.3 171.92 L 561.38 181.96 L 554.46 192 L 547.54 202.04 L 540.63 212.08 L 533.71 222.12 L 526.79 232.16 L 519.87 242.2 L 512.96 252.24 L 506.04 262.28 L 499.12 272.32 L 492.2 282.36 L 485.28 292.4 L 478.37 302.44 L 471.45 312.48 L 464.53 322.52 L 457.61 332.56 L 450.7 342.6 L 443.78 352.64 L 436.86 362.68 L 429.94 372.72 L 423.03 382.76 L 416.11 392.8 L 409.19 402.84 L 402.27 412.88 L 395.35 422.92 L 388.44 432.96 L 381.52 443 L 374.6 453.04 L 367.68 463.08 L 103.61 463.08 L 103.61 463.08 Z "/></g><g style="fill: rgb(255,140,0); fill-opacity: 0.5; stroke: none" transform="matrix(1,0,0,1,0,0)" clip-path="url(#_412348116957046clip-2)"><path d="M 103.61 463.08 L 275.26 463.08 L 367.68 463.08 L 548.24 201.03 L 485.79 201.03 L 275.26 463.08 L 103.61 463.08 Z "/></g><line x1="103.61" y1="463.08" x2="113.81" y2="453.04" style="stroke-width: 1.5;stroke: rgb(0,0,0);stroke-opacity: 0.5;stroke-linecap: round;stroke-linejoin: round;shape-rendering:geometricPrecision;" transform="matrix(1,0,0,1,0,0)" clip-path="url(#_412348116957046clip-2)"/><line x1="113.81" y1="453.04" x2="124.01" y2="443" style="stroke-width: 1.5;stroke: rgb(0,0,0);stroke-opacity: 0.5;stroke-linecap: round;stroke-linejoin: round;shape-rendering:geometricPrecision;" transform="matrix(1,0,0,1,0,0)" clip-path="url(#_412348116957046clip-2)"/><line x1="124.01" y1="443" x2="134.21" y2="432.96" style="stroke-width: 1.5;stroke: rgb(0,0,0);stroke-opacity: 0.5;stroke-linecap: round;stroke-linejoin: round;shape-rendering:geometricPrecision;" transform="matrix(1,0,0,1,0,0)" clip-path="url(#_412348116957046clip-2)"/><line x1="134.21" y1="432.96" x2="144.41" y2="422.92" style="stroke-width: 1.5;stroke: rgb(0,0,0);stroke-opacity: 0.5;stroke-linecap: round;stroke-linejoin: round;shape-rendering:geometricPrecision;" transform="matrix(1,0,0,1,0,0)" clip-path="url(#_412348116957046clip-2)"/><line x1="144.41" y1="422.92" x2="154.61" y2="412.88" style="stroke-width: 1.5;stroke: rgb(0,0,0);stroke-opacity: 0.5;stroke-linecap: round;stroke-linejoin: round;shape-rendering:geometricPrecision;" transform="matrix(1,0,0,1,0,0)" clip-path="url(#_412348116957046clip-2)"/><line x1="154.61" y1="412.88" x2="164.81" y2="402.84" style="stroke-width: 1.5;stroke: rgb(0,0,0);stroke-opacity: 0.5;stroke-linecap: round;stroke-linejoin: round;shape-rendering:geometricPrecision;" transform="matrix(1,0,0,1,0,0)" clip-path="url(#_412348116957046clip-2)"/><line x1="164.81" y1="402.84" x2="175.01" y2="392.8" style="stroke-width: 1.5;stroke: rgb(0,0,0);stroke-opacity: 0.5;stroke-linecap: round;stroke-linejoin: round;shape-rendering:geometricPrecision;" transform="matrix(1,0,0,1,0,0)" clip-path="url(#_412348116957046clip-2)"/><line x1="175.01" y1="392.8" x2="185.21" y2="382.76" style="stroke-width: 1.5;stroke: rgb(0,0,0);stroke-opacity: 0.5;stroke-linecap: round;stroke-linejoin: round;shape-rendering:geometricPrecision;" transform="matrix(1,0,0,1,0,0)" clip-path="url(#_412348116957046clip-2)"/><line x1="185.21" y1="382.76" x2="195.41" y2="372.72" style="stroke-width: 1.5;stroke: rgb(0,0,0);stroke-opacity: 0.5;stroke-linecap: round;stroke-linejoin: round;shape-rendering:geometricPrecision;" transform="matrix(1,0,0,1,0,0)" clip-path="url(#_412348116957046clip-2)"/><line x1="195.41" y1="372.72" x2="205.61" y2="362.68" style="stroke-width: 1.5;stroke: rgb(0,0,0);stroke-opacity: 0.5;stroke-linecap: round;stroke-linejoin: round;shape-rendering:geometricPrecision;" transform="matrix(1,0,0,1,0,0)" clip-path="url(#_412348116957046clip-2)"/><line x1="205.61" y1="362.68" x2="215.81" y2="352.64" style="stroke-width: 1.5;stroke: rgb(0,0,0);stroke-opacity: 0.5;stroke-linecap: round;stroke-linejoin: round;shape-rendering:geometricPrecision;" transform="matrix(1,0,0,1,0,0)" clip-path="url(#_412348116957046clip-2)"/><line x1="215.81" y1="352.64" x2="226.01" y2="342.6" style="stroke-width: 1.5;stroke: rgb(0,0,0);stroke-opacity: 0.5;stroke-linecap: round;stroke-linejoin: round;shape-rendering:geometricPrecision;" transform="matrix(1,0,0,1,0,0)" clip-path="url(#_412348116957046clip-2)"/><line x1="226.01" y1="342.6" x2="236.21" y2="332.56" style="stroke-width: 1.5;stroke: rgb(0,0,0);stroke-opacity: 0.5;stroke-linecap: round;stroke-linejoin: round;shape-rendering:geometricPrecision;" transform="matrix(1,0,0,1,0,0)" clip-path="url(#_412348116957046clip-2)"/><line x1="236.21" y1="332.56" x2="246.41" y2="322.52" style="stroke-width: 1.5;stroke: rgb(0,0,0);stroke-opacity: 0.5;stroke-linecap: round;stroke-linejoin: round;shape-rendering:geometricPrecision;" transform="matrix(1,0,0,1,0,0)" clip-path="url(#_412348116957046clip-2)"/><line x1="246.41" y1="322.52" x2="256.61" y2="312.48" style="stroke-width: 1.5;stroke: rgb(0,0,0);stroke-opacity: 0.5;stroke-linecap: round;stroke-linejoin: round;shape-rendering:geometricPrecision;" transform="matrix(1,0,0,1,0,0)" clip-path="url(#_412348116957046clip-2)"/><line x1="256.61" y1="312.48" x2="266.81" y2="302.44" style="stroke-width: 1.5;stroke: rgb(0,0,0);stroke-opacity: 0.5;stroke-linecap: round;stroke-linejoin: round;shape-rendering:geometricPrecision;" transform="matrix(1,0,0,1,0,0)" clip-path="url(#_412348116957046clip-2)"/><line x1="266.81" y1="302.44" x2="277.01" y2="292.4" style="stroke-width: 1.5;stroke: rgb(0,0,0);stroke-opacity: 0.5;stroke-linecap: round;stroke-linejoin: round;shape-rendering:geometricPrecision;" transform="matrix(1,0,0,1,0,0)" clip-path="url(#_412348116957046clip-2)"/><line x1="277.01" y1="292.4" x2="287.21" y2="282.36" style="stroke-width: 1.5;stroke: rgb(0,0,0);stroke-opacity: 0.5;stroke-linecap: round;stroke-linejoin: round;shape-rendering:geometricPrecision;" transform="matrix(1,0,0,1,0,0)" clip-path="url(#_412348116957046clip-2)"/><line x1="287.21" y1="282.36" x2="297.41" y2="272.32" style="stroke-width: 1.5;stroke: rgb(0,0,0);stroke-opacity: 0.5;stroke-linecap: round;stroke-linejoin: round;shape-rendering:geometricPrecision;" transform="matrix(1,0,0,1,0,0)" clip-path="url(#_412348116957046clip-2)"/><line x1="297.41" y1="272.32" x2="307.61" y2="262.28" style="stroke-width: 1.5;stroke: rgb(0,0,0);stroke-opacity: 0.5;stroke-linecap: round;stroke-linejoin: round;shape-rendering:geometricPrecision;" transform="matrix(1,0,0,1,0,0)" clip-path="url(#_412348116957046clip-2)"/><line x1="307.61" y1="262.28" x2="317.81" y2="252.24" style="stroke-width: 1.5;stroke: rgb(0,0,0);stroke-opacity: 0.5;stroke-linecap: round;stroke-linejoin: round;shape-rendering:geometricPrecision;" transform="matrix(1,0,0,1,0,0)" clip-path="url(#_412348116957046clip-2)"/><line x1="317.81" y1="252.24" x2="328.01" y2="242.2" style="stroke-width: 1.5;stroke: rgb(0,0,0);stroke-opacity: 0.5;stroke-linecap: round;stroke-linejoin: round;shape-rendering:geometricPrecision;" transform="matrix(1,0,0,1,0,0)" clip-path="url(#_412348116957046clip-2)"/><line x1="328.01" y1="242.2" x2="338.21" y2="232.16" style="stroke-width: 1.5;stroke: rgb(0,0,0);stroke-opacity: 0.5;stroke-linecap: round;stroke-linejoin: round;shape-rendering:geometricPrecision;" transform="matrix(1,0,0,1,0,0)" clip-path="url(#_412348116957046clip-2)"/><line x1="338.21" y1="232.16" x2="348.41" y2="222.12" style="stroke-width: 1.5;stroke: rgb(0,0,0);stroke-opacity: 0.5;stroke-linecap: round;stroke-linejoin: round;shape-rendering:geometricPrecision;" transform="matrix(1,0,0,1,0,0)" clip-path="url(#_412348116957046clip-2)"/><line x1="348.41" y1="222.12" x2="358.61" y2="212.08" style="stroke-width: 1.5;stroke: rgb(0,0,0);stroke-opacity: 0.5;stroke-linecap: round;stroke-linejoin: round;shape-rendering:geometricPrecision;" transform="matrix(1,0,0,1,0,0)" clip-path="url(#_412348116957046clip-2)"/><line x1="358.61" y1="212.08" x2="368.81" y2="202.04" style="stroke-width: 1.5;stroke: rgb(0,0,0);stroke-opacity: 0.5;stroke-linecap: round;stroke-linejoin: round;shape-rendering:geometricPrecision;" transform="matrix(1,0,0,1,0,0)" clip-path="url(#_412348116957046clip-2)"/><line x1="368.81" y1="202.04" x2="379.01" y2="192" style="stroke-width: 1.5;stroke: rgb(0,0,0);stroke-opacity: 0.5;stroke-linecap: round;stroke-linejoin: round;shape-rendering:geometricPrecision;" transform="matrix(1,0,0,1,0,0)" clip-path="url(#_412348116957046clip-2)"/><line x1="379.01" y1="192" x2="389.21" y2="181.96" style="stroke-width: 1.5;stroke: rgb(0,0,0);stroke-opacity: 0.5;stroke-linecap: round;stroke-linejoin: round;shape-rendering:geometricPrecision;" transform="matrix(1,0,0,1,0,0)" clip-path="url(#_412348116957046clip-2)"/><line x1="389.21" y1="181.96" x2="399.41" y2="171.92" style="stroke-width: 1.5;stroke: rgb(0,0,0);stroke-opacity: 0.5;stroke-linecap: round;stroke-linejoin: round;shape-rendering:geometricPrecision;" transform="matrix(1,0,0,1,0,0)" clip-path="url(#_412348116957046clip-2)"/><line x1="399.41" y1="171.92" x2="568.3" y2="171.92" style="stroke-width: 1.5;stroke: rgb(0,0,0);stroke-opacity: 0.5;stroke-linecap: round;stroke-linejoin: round;shape-rendering:geometricPrecision;" transform="matrix(1,0,0,1,0,0)" clip-path="url(#_412348116957046clip-2)"/><line x1="568.3" y1="171.92" x2="561.38" y2="181.96" style="stroke-width: 1.5;stroke: rgb(0,0,0);stroke-opacity: 0.5;stroke-linecap: round;stroke-linejoin: round;shape-rendering:geometricPrecision;" transform="matrix(1,0,0,1,0,0)" clip-path="url(#_412348116957046clip-2)"/><line x1="561.38" y1="181.96" x2="554.46" y2="192" style="stroke-width: 1.5;stroke: rgb(0,0,0);stroke-opacity: 0.5;stroke-linecap: round;stroke-linejoin: round;shape-rendering:geometricPrecision;" transform="matrix(1,0,0,1,0,0)" clip-path="url(#_412348116957046clip-2)"/><line x1="554.46" y1="192" x2="547.54" y2="202.04" style="stroke-width: 1.5;stroke: rgb(0,0,0);stroke-opacity: 0.5;stroke-linecap: round;stroke-linejoin: round;shape-rendering:geometricPrecision;" transform="matrix(1,0,0,1,0,0)" clip-path="url(#_412348116957046clip-2)"/><line x1="547.54" y1="202.04" x2="540.63" y2="212.08" style="stroke-width: 1.5;stroke: rgb(0,0,0);stroke-opacity: 0.5;stroke-linecap: round;stroke-linejoin: round;shape-rendering:geometricPrecision;" transform="matrix(1,0,0,1,0,0)" clip-path="url(#_412348116957046clip-2)"/><line x1="540.63" y1="212.08" x2="533.71" y2="222.12" style="stroke-width: 1.5;stroke: rgb(0,0,0);stroke-opacity: 0.5;stroke-linecap: round;stroke-linejoin: round;shape-rendering:geometricPrecision;" transform="matrix(1,0,0,1,0,0)" clip-path="url(#_412348116957046clip-2)"/><line x1="533.71" y1="222.12" x2="526.79" y2="232.16" style="stroke-width: 1.5;stroke: rgb(0,0,0);stroke-opacity: 0.5;stroke-linecap: round;stroke-linejoin: round;shape-rendering:geometricPrecision;" transform="matrix(1,0,0,1,0,0)" clip-path="url(#_412348116957046clip-2)"/><line x1="526.79" y1="232.16" x2="519.87" y2="242.2" style="stroke-width: 1.5;stroke: rgb(0,0,0);stroke-opacity: 0.5;stroke-linecap: round;stroke-linejoin: round;shape-rendering:geometricPrecision;" transform="matrix(1,0,0,1,0,0)" clip-path="url(#_412348116957046clip-2)"/><line x1="519.87" y1="242.2" x2="512.96" y2="252.24" style="stroke-width: 1.5;stroke: rgb(0,0,0);stroke-opacity: 0.5;stroke-linecap: round;stroke-linejoin: round;shape-rendering:geometricPrecision;" transform="matrix(1,0,0,1,0,0)" clip-path="url(#_412348116957046clip-2)"/><line x1="512.96" y1="252.24" x2="506.04" y2="262.28" style="stroke-width: 1.5;stroke: rgb(0,0,0);stroke-opacity: 0.5;stroke-linecap: round;stroke-linejoin: round;shape-rendering:geometricPrecision;" transform="matrix(1,0,0,1,0,0)" clip-path="url(#_412348116957046clip-2)"/><line x1="506.04" y1="262.28" x2="499.12" y2="272.32" style="stroke-width: 1.5;stroke: rgb(0,0,0);stroke-opacity: 0.5;stroke-linecap: round;stroke-linejoin: round;shape-rendering:geometricPrecision;" transform="matrix(1,0,0,1,0,0)" clip-path="url(#_412348116957046clip-2)"/><line x1="499.12" y1="272.32" x2="492.2" y2="282.36" style="stroke-width: 1.5;stroke: rgb(0,0,0);stroke-opacity: 0.5;stroke-linecap: round;stroke-linejoin: round;shape-rendering:geometricPrecision;" transform="matrix(1,0,0,1,0,0)" clip-path="url(#_412348116957046clip-2)"/><line x1="492.2" y1="282.36" x2="485.28" y2="292.4" style="stroke-width: 1.5;stroke: rgb(0,0,0);stroke-opacity: 0.5;stroke-linecap: round;stroke-linejoin: round;shape-rendering:geometricPrecision;" transform="matrix(1,0,0,1,0,0)" clip-path="url(#_412348116957046clip-2)"/><line x1="485.28" y1="292.4" x2="478.37" y2="302.44" style="stroke-width: 1.5;stroke: rgb(0,0,0);stroke-opacity: 0.5;stroke-linecap: round;stroke-linejoin: round;shape-rendering:geometricPrecision;" transform="matrix(1,0,0,1,0,0)" clip-path="url(#_412348116957046clip-2)"/><line x1="478.37" y1="302.44" x2="471.45" y2="312.48" style="stroke-width: 1.5;stroke: rgb(0,0,0);stroke-opacity: 0.5;stroke-linecap: round;stroke-linejoin: round;shape-rendering:geometricPrecision;" transform="matrix(1,0,0,1,0,0)" clip-path="url(#_412348116957046clip-2)"/><line x1="471.45" y1="312.48" x2="464.53" y2="322.52" style="stroke-width: 1.5;stroke: rgb(0,0,0);stroke-opacity: 0.5;stroke-linecap: round;stroke-linejoin: round;shape-rendering:geometricPrecision;" transform="matrix(1,0,0,1,0,0)" clip-path="url(#_412348116957046clip-2)"/><line x1="464.53" y1="322.52" x2="457.61" y2="332.56" style="stroke-width: 1.5;stroke: rgb(0,0,0);stroke-opacity: 0.5;stroke-linecap: round;stroke-linejoin: round;shape-rendering:geometricPrecision;" transform="matrix(1,0,0,1,0,0)" clip-path="url(#_412348116957046clip-2)"/><line x1="457.61" y1="332.56" x2="450.7" y2="342.6" style="stroke-width: 1.5;stroke: rgb(0,0,0);stroke-opacity: 0.5;stroke-linecap: round;stroke-linejoin: round;shape-rendering:geometricPrecision;" transform="matrix(1,0,0,1,0,0)" clip-path="url(#_412348116957046clip-2)"/><line x1="450.7" y1="342.6" x2="443.78" y2="352.64" style="stroke-width: 1.5;stroke: rgb(0,0,0);stroke-opacity: 0.5;stroke-linecap: round;stroke-linejoin: round;shape-rendering:geometricPrecision;" transform="matrix(1,0,0,1,0,0)" clip-path="url(#_412348116957046clip-2)"/><line x1="443.78" y1="352.64" x2="436.86" y2="362.68" style="stroke-width: 1.5;stroke: rgb(0,0,0);stroke-opacity: 0.5;stroke-linecap: round;stroke-linejoin: round;shape-rendering:geometricPrecision;" transform="matrix(1,0,0,1,0,0)" clip-path="url(#_412348116957046clip-2)"/><line x1="436.86" y1="362.68" x2="429.94" y2="372.72" style="stroke-width: 1.5;stroke: rgb(0,0,0);stroke-opacity: 0.5;stroke-linecap: round;stroke-linejoin: round;shape-rendering:geometricPrecision;" transform="matrix(1,0,0,1,0,0)" clip-path="url(#_412348116957046clip-2)"/><line x1="429.94" y1="372.72" x2="423.03" y2="382.76" style="stroke-width: 1.5;stroke: rgb(0,0,0);stroke-opacity: 0.5;stroke-linecap: round;stroke-linejoin: round;shape-rendering:geometricPrecision;" transform="matrix(1,0,0,1,0,0)" clip-path="url(#_412348116957046clip-2)"/><line x1="423.03" y1="382.76" x2="416.11" y2="392.8" style="stroke-width: 1.5;stroke: rgb(0,0,0);stroke-opacity: 0.5;stroke-linecap: round;stroke-linejoin: round;shape-rendering:geometricPrecision;" transform="matrix(1,0,0,1,0,0)" clip-path="url(#_412348116957046clip-2)"/><line x1="416.11" y1="392.8" x2="409.19" y2="402.84" style="stroke-width: 1.5;stroke: rgb(0,0,0);stroke-opacity: 0.5;stroke-linecap: round;stroke-linejoin: round;shape-rendering:geometricPrecision;" transform="matrix(1,0,0,1,0,0)" clip-path="url(#_412348116957046clip-2)"/><line x1="409.19" y1="402.84" x2="402.27" y2="412.88" style="stroke-width: 1.5;stroke: rgb(0,0,0);stroke-opacity: 0.5;stroke-linecap: round;stroke-linejoin: round;shape-rendering:geometricPrecision;" transform="matrix(1,0,0,1,0,0)" clip-path="url(#_412348116957046clip-2)"/><line x1="402.27" y1="412.88" x2="395.35" y2="422.92" style="stroke-width: 1.5;stroke: rgb(0,0,0);stroke-opacity: 0.5;stroke-linecap: round;stroke-linejoin: round;shape-rendering:geometricPrecision;" transform="matrix(1,0,0,1,0,0)" clip-path="url(#_412348116957046clip-2)"/><line x1="395.35" y1="422.92" x2="388.44" y2="432.96" style="stroke-width: 1.5;stroke: rgb(0,0,0);stroke-opacity: 0.5;stroke-linecap: round;stroke-linejoin: round;shape-rendering:geometricPrecision;" transform="matrix(1,0,0,1,0,0)" clip-path="url(#_412348116957046clip-2)"/><line x1="388.44" y1="432.96" x2="381.52" y2="443" style="stroke-width: 1.5;stroke: rgb(0,0,0);stroke-opacity: 0.5;stroke-linecap: round;stroke-linejoin: round;shape-rendering:geometricPrecision;" transform="matrix(1,0,0,1,0,0)" clip-path="url(#_412348116957046clip-2)"/><line x1="381.52" y1="443" x2="374.6" y2="453.04" style="stroke-width: 1.5;stroke: rgb(0,0,0);stroke-opacity: 0.5;stroke-linecap: round;stroke-linejoin: round;shape-rendering:geometricPrecision;" transform="matrix(1,0,0,1,0,0)" clip-path="url(#_412348116957046clip-2)"/><line x1="374.6" y1="453.04" x2="367.68" y2="463.08" style="stroke-width: 1.5;stroke: rgb(0,0,0);stroke-opacity: 0.5;stroke-linecap: round;stroke-linejoin: round;shape-rendering:geometricPrecision;" transform="matrix(1,0,0,1,0,0)" clip-path="url(#_412348116957046clip-2)"/><line x1="367.68" y1="463.08" x2="103.61" y2="463.08" style="stroke-width: 1.5;stroke: rgb(0,0,0);stroke-opacity: 0.5;stroke-linecap: round;stroke-linejoin: round;shape-rendering:geometricPrecision;" transform="matrix(1,0,0,1,0,0)" clip-path="url(#_412348116957046clip-2)"/><line x1="275.26" y1="463.08" x2="367.68" y2="463.08" style="stroke-width: 1.5;stroke: rgb(0,0,0);stroke-opacity: 0.5;stroke-linecap: round;stroke-linejoin: round;shape-rendering:geometricPrecision;" transform="matrix(1,0,0,1,0,0)" clip-path="url(#_412348116957046clip-2)"/><line x1="367.68" y1="463.08" x2="548.24" y2="201.03" style="stroke-width: 1.5;stroke: rgb(0,0,0);stroke-opacity: 0.5;stroke-linecap: round;stroke-linejoin: round;shape-rendering:geometricPrecision;" transform="matrix(1,0,0,1,0,0)" clip-path="url(#_412348116957046clip-2)"/><line x1="548.24" y1="201.03" x2="485.79" y2="201.03" style="stroke-width: 1.5;stroke: rgb(0,0,0);stroke-opacity: 0.5;stroke-linecap: round;stroke-linejoin: round;shape-rendering:geometricPrecision;" transform="matrix(1,0,0,1,0,0)" clip-path="url(#_412348116957046clip-2)"/><line x1="485.79" y1="201.03" x2="275.26" y2="463.08" style="stroke-width: 1.5;stroke: rgb(0,0,0);stroke-opacity: 0.5;stroke-linecap: round;stroke-linejoin: round;shape-rendering:geometricPrecision;" transform="matrix(1,0,0,1,0,0)" clip-path="url(#_412348116957046clip-2)"/><line x1="240.67" y1="328.17" x2="460.64" y2="328.17" style="stroke-width: 2.5;stroke: rgb(255,85,85);stroke-opacity: 0.5;stroke-linecap: round;stroke-linejoin: round;stroke-dasharray: 5.0;shape-rendering:geometricPrecision;" transform="matrix(1,0,0,1,0,0)" clip-path="url(#_412348116957046clip-2)"/><rect x="64" y="35" width="574" height="565" style="stroke-width: 0.5;stroke: rgb(0,0,0);stroke-opacity: 1.0;stroke-linecap: round;stroke-linejoin: round;shape-rendering:crispEdges;; fill: none" transform="matrix(1,0,0,1,0,0)" clip-path="url(#_412348116957046clip-0)"/></svg>
