<!DOCTYPE svg PUBLIC "-//W3C//DTD SVG 1.1//EN" "http://www.w3.org/Graphics/SVG/1.1/DTD/svg11.dtd">
<svg xmlns="http://www.w3.org/2000/svg" xmlns:xlink="http://www.w3.org/1999/xlink" xmlns:jfreesvg="http://www.jfree.org/jfreesvg/svg" width="700" height="600" text-rendering="auto" shape-rendering="auto">
<defs><clipPath id="_329279670702389clip-0"><path d="M 0 0 L 700 0 L 700 600 L 0 600 L 0 0 Z "/></clipPath>
<clipPath id="_329279670702389clip-1"><path d="M 312 273 L 312 973 L -288 973 L -288 273 L 312 273 Z "/></clipPath>
<clipPath id="_329279670702389clip-2"><path d="M 56 35 L 56 550 L 688 550 L 688 35 Z "/></clipPath>
</defs>
<rect x="0" y="0" width="700" height="600" style="fill: rgb(245,245,245); fill-opacity: 1.0" transform="matrix(1,0,0,1,0,0)" clip-path="url(#_329279670702389clip-0)"/><g transform="matrix(1,0,0,1,0,0)"><text x="198" y="21.01" style="fill: rgb(0,0,0); fill-opacity: 1.0; font-family: Tahoma; font-size: 20px; font-weight: bold;" clip-path="url(#_329279670702389clip-0)">Wing Planform representation</text></g><rect x="56" y="35" width="632" height="515" style="fill: rgb(240,248,255); fill-opacity: 0.0" transform="matrix(1,0,0,1,0,0)" clip-path="url(#_329279670702389clip-0)"/><line x1="56" y1="554" x2="688" y2="554" style="stroke-width: 0.5;stroke: rgb(128,128,128);stroke-opacity: 1.0;stroke-linecap: square;shape-rendering:crispEdges;" transform="matrix(1,0,0,1,0,0)" clip-path="url(#_329279670702389clip-0)"/><g transform="matrix(1,0,0,1,0,0)"><text x="81.23" y="570.52" style="fill: rgb(64,64,64); fill-opacity: 1.0; font-family: Tahoma; font-size: 12px;" clip-path="url(#_329279670702389clip-0)">0</text></g><line x1="84.73" y1="556" x2="84.73" y2="554" style="stroke-width: 0.5;stroke: rgb(128,128,128);stroke-opacity: 1.0;stroke-linecap: square;shape-rendering:crispEdges;" transform="matrix(1,0,0,1,0,0)" clip-path="url(#_329279670702389clip-0)"/><g transform="matrix(1,0,0,1,0,0)"><text x="114.12" y="570.52" style="fill: rgb(64,64,64); fill-opacity: 1.0; font-family: Tahoma; font-size: 12px;" clip-path="url(#_329279670702389clip-0)">1</text></g><line x1="117.62" y1="556" x2="117.62" y2="554" style="stroke-width: 0.5;stroke: rgb(128,128,128);stroke-opacity: 1.0;stroke-linecap: square;shape-rendering:crispEdges;" transform="matrix(1,0,0,1,0,0)" clip-path="url(#_329279670702389clip-0)"/><g transform="matrix(1,0,0,1,0,0)"><text x="147.01" y="570.52" style="fill: rgb(64,64,64); fill-opacity: 1.0; font-family: Tahoma; font-size: 12px;" clip-path="url(#_329279670702389clip-0)">2</text></g><line x1="150.51" y1="556" x2="150.51" y2="554" style="stroke-width: 0.5;stroke: rgb(128,128,128);stroke-opacity: 1.0;stroke-linecap: square;shape-rendering:crispEdges;" transform="matrix(1,0,0,1,0,0)" clip-path="url(#_329279670702389clip-0)"/><g transform="matrix(1,0,0,1,0,0)"><text x="179.89" y="570.52" style="fill: rgb(64,64,64); fill-opacity: 1.0; font-family: Tahoma; font-size: 12px;" clip-path="url(#_329279670702389clip-0)">3</text></g><line x1="183.39" y1="556" x2="183.39" y2="554" style="stroke-width: 0.5;stroke: rgb(128,128,128);stroke-opacity: 1.0;stroke-linecap: square;shape-rendering:crispEdges;" transform="matrix(1,0,0,1,0,0)" clip-path="url(#_329279670702389clip-0)"/><g transform="matrix(1,0,0,1,0,0)"><text x="212.78" y="570.52" style="fill: rgb(64,64,64); fill-opacity: 1.0; font-family: Tahoma; font-size: 12px;" clip-path="url(#_329279670702389clip-0)">4</text></g><line x1="216.28" y1="556" x2="216.28" y2="554" style="stroke-width: 0.5;stroke: rgb(128,128,128);stroke-opacity: 1.0;stroke-linecap: square;shape-rendering:crispEdges;" transform="matrix(1,0,0,1,0,0)" clip-path="url(#_329279670702389clip-0)"/><g transform="matrix(1,0,0,1,0,0)"><text x="245.67" y="570.52" style="fill: rgb(64,64,64); fill-opacity: 1.0; font-family: Tahoma; font-size: 12px;" clip-path="url(#_329279670702389clip-0)">5</text></g><line x1="249.17" y1="556" x2="249.17" y2="554" style="stroke-width: 0.5;stroke: rgb(128,128,128);stroke-opacity: 1.0;stroke-linecap: square;shape-rendering:crispEdges;" transform="matrix(1,0,0,1,0,0)" clip-path="url(#_329279670702389clip-0)"/><g transform="matrix(1,0,0,1,0,0)"><text x="278.56" y="570.52" style="fill: rgb(64,64,64); fill-opacity: 1.0; font-family: Tahoma; font-size: 12px;" clip-path="url(#_329279670702389clip-0)">6</text></g><line x1="282.06" y1="556" x2="282.06" y2="554" style="stroke-width: 0.5;stroke: rgb(128,128,128);stroke-opacity: 1.0;stroke-linecap: square;shape-rendering:crispEdges;" transform="matrix(1,0,0,1,0,0)" clip-path="url(#_329279670702389clip-0)"/><g transform="matrix(1,0,0,1,0,0)"><text x="311.45" y="570.52" style="fill: rgb(64,64,64); fill-opacity: 1.0; font-family: Tahoma; font-size: 12px;" clip-path="url(#_329279670702389clip-0)">7</text></g><line x1="314.95" y1="556" x2="314.95" y2="554" style="stroke-width: 0.5;stroke: rgb(128,128,128);stroke-opacity: 1.0;stroke-linecap: square;shape-rendering:crispEdges;" transform="matrix(1,0,0,1,0,0)" clip-path="url(#_329279670702389clip-0)"/><g transform="matrix(1,0,0,1,0,0)"><text x="344.34" y="570.52" style="fill: rgb(64,64,64); fill-opacity: 1.0; font-family: Tahoma; font-size: 12px;" clip-path="url(#_329279670702389clip-0)">8</text></g><line x1="347.84" y1="556" x2="347.84" y2="554" style="stroke-width: 0.5;stroke: rgb(128,128,128);stroke-opacity: 1.0;stroke-linecap: square;shape-rendering:crispEdges;" transform="matrix(1,0,0,1,0,0)" clip-path="url(#_329279670702389clip-0)"/><g transform="matrix(1,0,0,1,0,0)"><text x="377.23" y="570.52" style="fill: rgb(64,64,64); fill-opacity: 1.0; font-family: Tahoma; font-size: 12px;" clip-path="url(#_329279670702389clip-0)">9</text></g><line x1="380.73" y1="556" x2="380.73" y2="554" style="stroke-width: 0.5;stroke: rgb(128,128,128);stroke-opacity: 1.0;stroke-linecap: square;shape-rendering:crispEdges;" transform="matrix(1,0,0,1,0,0)" clip-path="url(#_329279670702389clip-0)"/><g transform="matrix(1,0,0,1,0,0)"><text x="407.12" y="570.52" style="fill: rgb(64,64,64); fill-opacity: 1.0; font-family: Tahoma; font-size: 12px;" clip-path="url(#_329279670702389clip-0)">10</text></g><line x1="413.62" y1="556" x2="413.62" y2="554" style="stroke-width: 0.5;stroke: rgb(128,128,128);stroke-opacity: 1.0;stroke-linecap: square;shape-rendering:crispEdges;" transform="matrix(1,0,0,1,0,0)" clip-path="url(#_329279670702389clip-0)"/><g transform="matrix(1,0,0,1,0,0)"><text x="440.01" y="570.52" style="fill: rgb(64,64,64); fill-opacity: 1.0; font-family: Tahoma; font-size: 12px;" clip-path="url(#_329279670702389clip-0)">11</text></g><line x1="446.51" y1="556" x2="446.51" y2="554" style="stroke-width: 0.5;stroke: rgb(128,128,128);stroke-opacity: 1.0;stroke-linecap: square;shape-rendering:crispEdges;" transform="matrix(1,0,0,1,0,0)" clip-path="url(#_329279670702389clip-0)"/><g transform="matrix(1,0,0,1,0,0)"><text x="472.9" y="570.52" style="fill: rgb(64,64,64); fill-opacity: 1.0; font-family: Tahoma; font-size: 12px;" clip-path="url(#_329279670702389clip-0)">12</text></g><line x1="479.4" y1="556" x2="479.4" y2="554" style="stroke-width: 0.5;stroke: rgb(128,128,128);stroke-opacity: 1.0;stroke-linecap: square;shape-rendering:crispEdges;" transform="matrix(1,0,0,1,0,0)" clip-path="url(#_329279670702389clip-0)"/><g transform="matrix(1,0,0,1,0,0)"><text x="505.78" y="570.52" style="fill: rgb(64,64,64); fill-opacity: 1.0; font-family: Tahoma; font-size: 12px;" clip-path="url(#_329279670702389clip-0)">13</text></g><line x1="512.28" y1="556" x2="512.28" y2="554" style="stroke-width: 0.5;stroke: rgb(128,128,128);stroke-opacity: 1.0;stroke-linecap: square;shape-rendering:crispEdges;" transform="matrix(1,0,0,1,0,0)" clip-path="url(#_329279670702389clip-0)"/><g transform="matrix(1,0,0,1,0,0)"><text x="538.67" y="570.52" style="fill: rgb(64,64,64); fill-opacity: 1.0; font-family: Tahoma; font-size: 12px;" clip-path="url(#_329279670702389clip-0)">14</text></g><line x1="545.17" y1="556" x2="545.17" y2="554" style="stroke-width: 0.5;stroke: rgb(128,128,128);stroke-opacity: 1.0;stroke-linecap: square;shape-rendering:crispEdges;" transform="matrix(1,0,0,1,0,0)" clip-path="url(#_329279670702389clip-0)"/><g transform="matrix(1,0,0,1,0,0)"><text x="571.56" y="570.52" style="fill: rgb(64,64,64); fill-opacity: 1.0; font-family: Tahoma; font-size: 12px;" clip-path="url(#_329279670702389clip-0)">15</text></g><line x1="578.06" y1="556" x2="578.06" y2="554" style="stroke-width: 0.5;stroke: rgb(128,128,128);stroke-opacity: 1.0;stroke-linecap: square;shape-rendering:crispEdges;" transform="matrix(1,0,0,1,0,0)" clip-path="url(#_329279670702389clip-0)"/><g transform="matrix(1,0,0,1,0,0)"><text x="604.45" y="570.52" style="fill: rgb(64,64,64); fill-opacity: 1.0; font-family: Tahoma; font-size: 12px;" clip-path="url(#_329279670702389clip-0)">16</text></g><line x1="610.95" y1="556" x2="610.95" y2="554" style="stroke-width: 0.5;stroke: rgb(128,128,128);stroke-opacity: 1.0;stroke-linecap: square;shape-rendering:crispEdges;" transform="matrix(1,0,0,1,0,0)" clip-path="url(#_329279670702389clip-0)"/><g transform="matrix(1,0,0,1,0,0)"><text x="637.34" y="570.52" style="fill: rgb(64,64,64); fill-opacity: 1.0; font-family: Tahoma; font-size: 12px;" clip-path="url(#_329279670702389clip-0)">17</text></g><line x1="643.84" y1="556" x2="643.84" y2="554" style="stroke-width: 0.5;stroke: rgb(128,128,128);stroke-opacity: 1.0;stroke-linecap: square;shape-rendering:crispEdges;" transform="matrix(1,0,0,1,0,0)" clip-path="url(#_329279670702389clip-0)"/><g transform="matrix(1,0,0,1,0,0)"><text x="670.23" y="570.52" style="fill: rgb(64,64,64); fill-opacity: 1.0; font-family: Tahoma; font-size: 12px;" clip-path="url(#_329279670702389clip-0)">18</text></g><line x1="676.73" y1="556" x2="676.73" y2="554" style="stroke-width: 0.5;stroke: rgb(128,128,128);stroke-opacity: 1.0;stroke-linecap: square;shape-rendering:crispEdges;" transform="matrix(1,0,0,1,0,0)" clip-path="url(#_329279670702389clip-0)"/><g transform="matrix(1,0,0,1,0,0)"><text x="352.5" y="589.59" style="fill: rgb(64,64,64); fill-opacity: 1.0; font-family: Tahoma; font-size: 14px; font-weight: bold;" clip-path="url(#_329279670702389clip-0)">x (m)</text></g><line x1="52" y1="35" x2="52" y2="550" style="stroke-width: 0.5;stroke: rgb(128,128,128);stroke-opacity: 1.0;stroke-linecap: square;shape-rendering:crispEdges;" transform="matrix(1,0,0,1,0,0)" clip-path="url(#_329279670702389clip-0)"/><g transform="matrix(1,0,0,1,0,0)"><text x="35" y="59.19" style="fill: rgb(64,64,64); fill-opacity: 1.0; font-family: Tahoma; font-size: 12px;" clip-path="url(#_329279670702389clip-0)">-3</text></g><line x1="50" y1="54.16" x2="52" y2="54.16" style="stroke-width: 0.5;stroke: rgb(128,128,128);stroke-opacity: 1.0;stroke-linecap: square;shape-rendering:crispEdges;" transform="matrix(1,0,0,1,0,0)" clip-path="url(#_329279670702389clip-0)"/><g transform="matrix(1,0,0,1,0,0)"><text x="35" y="85.99" style="fill: rgb(64,64,64); fill-opacity: 1.0; font-family: Tahoma; font-size: 12px;" clip-path="url(#_329279670702389clip-0)">-2</text></g><line x1="50" y1="80.97" x2="52" y2="80.97" style="stroke-width: 0.5;stroke: rgb(128,128,128);stroke-opacity: 1.0;stroke-linecap: square;shape-rendering:crispEdges;" transform="matrix(1,0,0,1,0,0)" clip-path="url(#_329279670702389clip-0)"/><g transform="matrix(1,0,0,1,0,0)"><text x="35" y="112.79" style="fill: rgb(64,64,64); fill-opacity: 1.0; font-family: Tahoma; font-size: 12px;" clip-path="url(#_329279670702389clip-0)">-1</text></g><line x1="50" y1="107.77" x2="52" y2="107.77" style="stroke-width: 0.5;stroke: rgb(128,128,128);stroke-opacity: 1.0;stroke-linecap: square;shape-rendering:crispEdges;" transform="matrix(1,0,0,1,0,0)" clip-path="url(#_329279670702389clip-0)"/><g transform="matrix(1,0,0,1,0,0)"><text x="39" y="139.59" style="fill: rgb(64,64,64); fill-opacity: 1.0; font-family: Tahoma; font-size: 12px;" clip-path="url(#_329279670702389clip-0)">0</text></g><line x1="50" y1="134.57" x2="52" y2="134.57" style="stroke-width: 0.5;stroke: rgb(128,128,128);stroke-opacity: 1.0;stroke-linecap: square;shape-rendering:crispEdges;" transform="matrix(1,0,0,1,0,0)" clip-path="url(#_329279670702389clip-0)"/><g transform="matrix(1,0,0,1,0,0)"><text x="39" y="166.39" style="fill: rgb(64,64,64); fill-opacity: 1.0; font-family: Tahoma; font-size: 12px;" clip-path="url(#_329279670702389clip-0)">1</text></g><line x1="50" y1="161.37" x2="52" y2="161.37" style="stroke-width: 0.5;stroke: rgb(128,128,128);stroke-opacity: 1.0;stroke-linecap: square;shape-rendering:crispEdges;" transform="matrix(1,0,0,1,0,0)" clip-path="url(#_329279670702389clip-0)"/><g transform="matrix(1,0,0,1,0,0)"><text x="39" y="193.19" style="fill: rgb(64,64,64); fill-opacity: 1.0; font-family: Tahoma; font-size: 12px;" clip-path="url(#_329279670702389clip-0)">2</text></g><line x1="50" y1="188.17" x2="52" y2="188.17" style="stroke-width: 0.5;stroke: rgb(128,128,128);stroke-opacity: 1.0;stroke-linecap: square;shape-rendering:crispEdges;" transform="matrix(1,0,0,1,0,0)" clip-path="url(#_329279670702389clip-0)"/><g transform="matrix(1,0,0,1,0,0)"><text x="39" y="219.99" style="fill: rgb(64,64,64); fill-opacity: 1.0; font-family: Tahoma; font-size: 12px;" clip-path="url(#_329279670702389clip-0)">3</text></g><line x1="50" y1="214.97" x2="52" y2="214.97" style="stroke-width: 0.5;stroke: rgb(128,128,128);stroke-opacity: 1.0;stroke-linecap: square;shape-rendering:crispEdges;" transform="matrix(1,0,0,1,0,0)" clip-path="url(#_329279670702389clip-0)"/><g transform="matrix(1,0,0,1,0,0)"><text x="39" y="246.79" style="fill: rgb(64,64,64); fill-opacity: 1.0; font-family: Tahoma; font-size: 12px;" clip-path="url(#_329279670702389clip-0)">4</text></g><line x1="50" y1="241.77" x2="52" y2="241.77" style="stroke-width: 0.5;stroke: rgb(128,128,128);stroke-opacity: 1.0;stroke-linecap: square;shape-rendering:crispEdges;" transform="matrix(1,0,0,1,0,0)" clip-path="url(#_329279670702389clip-0)"/><g transform="matrix(1,0,0,1,0,0)"><text x="39" y="273.59" style="fill: rgb(64,64,64); fill-opacity: 1.0; font-family: Tahoma; font-size: 12px;" clip-path="url(#_329279670702389clip-0)">5</text></g><line x1="50" y1="268.57" x2="52" y2="268.57" style="stroke-width: 0.5;stroke: rgb(128,128,128);stroke-opacity: 1.0;stroke-linecap: square;shape-rendering:crispEdges;" transform="matrix(1,0,0,1,0,0)" clip-path="url(#_329279670702389clip-0)"/><g transform="matrix(1,0,0,1,0,0)"><text x="39" y="300.39" style="fill: rgb(64,64,64); fill-opacity: 1.0; font-family: Tahoma; font-size: 12px;" clip-path="url(#_329279670702389clip-0)">6</text></g><line x1="50" y1="295.37" x2="52" y2="295.37" style="stroke-width: 0.5;stroke: rgb(128,128,128);stroke-opacity: 1.0;stroke-linecap: square;shape-rendering:crispEdges;" transform="matrix(1,0,0,1,0,0)" clip-path="url(#_329279670702389clip-0)"/><g transform="matrix(1,0,0,1,0,0)"><text x="39" y="327.19" style="fill: rgb(64,64,64); fill-opacity: 1.0; font-family: Tahoma; font-size: 12px;" clip-path="url(#_329279670702389clip-0)">7</text></g><line x1="50" y1="322.17" x2="52" y2="322.17" style="stroke-width: 0.5;stroke: rgb(128,128,128);stroke-opacity: 1.0;stroke-linecap: square;shape-rendering:crispEdges;" transform="matrix(1,0,0,1,0,0)" clip-path="url(#_329279670702389clip-0)"/><g transform="matrix(1,0,0,1,0,0)"><text x="39" y="353.99" style="fill: rgb(64,64,64); fill-opacity: 1.0; font-family: Tahoma; font-size: 12px;" clip-path="url(#_329279670702389clip-0)">8</text></g><line x1="50" y1="348.97" x2="52" y2="348.97" style="stroke-width: 0.5;stroke: rgb(128,128,128);stroke-opacity: 1.0;stroke-linecap: square;shape-rendering:crispEdges;" transform="matrix(1,0,0,1,0,0)" clip-path="url(#_329279670702389clip-0)"/><g transform="matrix(1,0,0,1,0,0)"><text x="39" y="380.79" style="fill: rgb(64,64,64); fill-opacity: 1.0; font-family: Tahoma; font-size: 12px;" clip-path="url(#_329279670702389clip-0)">9</text></g><line x1="50" y1="375.77" x2="52" y2="375.77" style="stroke-width: 0.5;stroke: rgb(128,128,128);stroke-opacity: 1.0;stroke-linecap: square;shape-rendering:crispEdges;" transform="matrix(1,0,0,1,0,0)" clip-path="url(#_329279670702389clip-0)"/><g transform="matrix(1,0,0,1,0,0)"><text x="33" y="407.59" style="fill: rgb(64,64,64); fill-opacity: 1.0; font-family: Tahoma; font-size: 12px;" clip-path="url(#_329279670702389clip-0)">10</text></g><line x1="50" y1="402.57" x2="52" y2="402.57" style="stroke-width: 0.5;stroke: rgb(128,128,128);stroke-opacity: 1.0;stroke-linecap: square;shape-rendering:crispEdges;" transform="matrix(1,0,0,1,0,0)" clip-path="url(#_329279670702389clip-0)"/><g transform="matrix(1,0,0,1,0,0)"><text x="33" y="434.39" style="fill: rgb(64,64,64); fill-opacity: 1.0; font-family: Tahoma; font-size: 12px;" clip-path="url(#_329279670702389clip-0)">11</text></g><line x1="50" y1="429.37" x2="52" y2="429.37" style="stroke-width: 0.5;stroke: rgb(128,128,128);stroke-opacity: 1.0;stroke-linecap: square;shape-rendering:crispEdges;" transform="matrix(1,0,0,1,0,0)" clip-path="url(#_329279670702389clip-0)"/><g transform="matrix(1,0,0,1,0,0)"><text x="33" y="461.19" style="fill: rgb(64,64,64); fill-opacity: 1.0; font-family: Tahoma; font-size: 12px;" clip-path="url(#_329279670702389clip-0)">12</text></g><line x1="50" y1="456.17" x2="52" y2="456.17" style="stroke-width: 0.5;stroke: rgb(128,128,128);stroke-opacity: 1.0;stroke-linecap: square;shape-rendering:crispEdges;" transform="matrix(1,0,0,1,0,0)" clip-path="url(#_329279670702389clip-0)"/><g transform="matrix(1,0,0,1,0,0)"><text x="33" y="487.99" style="fill: rgb(64,64,64); fill-opacity: 1.0; font-family: Tahoma; font-size: 12px;" clip-path="url(#_329279670702389clip-0)">13</text></g><line x1="50" y1="482.97" x2="52" y2="482.97" style="stroke-width: 0.5;stroke: rgb(128,128,128);stroke-opacity: 1.0;stroke-linecap: square;shape-rendering:crispEdges;" transform="matrix(1,0,0,1,0,0)" clip-path="url(#_329279670702389clip-0)"/><g transform="matrix(1,0,0,1,0,0)"><text x="33" y="514.79" style="fill: rgb(64,64,64); fill-opacity: 1.0; font-family: Tahoma; font-size: 12px;" clip-path="url(#_329279670702389clip-0)">14</text></g><line x1="50" y1="509.77" x2="52" y2="509.77" style="stroke-width: 0.5;stroke: rgb(128,128,128);stroke-opacity: 1.0;stroke-linecap: square;shape-rendering:crispEdges;" transform="matrix(1,0,0,1,0,0)" clip-path="url(#_329279670702389clip-0)"/><g transform="matrix(1,0,0,1,0,0)"><text x="33" y="541.59" style="fill: rgb(64,64,64); fill-opacity: 1.0; font-family: Tahoma; font-size: 12px;" clip-path="url(#_329279670702389clip-0)">15</text></g><line x1="50" y1="536.57" x2="52" y2="536.57" style="stroke-width: 0.5;stroke: rgb(128,128,128);stroke-opacity: 1.0;stroke-linecap: square;shape-rendering:crispEdges;" transform="matrix(1,0,0,1,0,0)" clip-path="url(#_329279670702389clip-0)"/><g style="fill: rgb(64,64,64); fill-opacity: 1.0; stroke: none" transform="matrix(0,-1,1,0,-273,312)" clip-path="url(#_329279670702389clip-1)"><path d="M 8.58 290.44 L 4.7 300.92 L 2.14 300.92 L 3.3 297.92 L 0.48 290.44 L 3 290.44 L 4.61 295.25 L 6.12 290.44 L 8.58 290.44 Z  M 18.47 300.92 L 15.96 300.92 Q 15.38 300.23 14.91 299.5 Q 14.44 298.76 14.1 297.94 Q 13.77 297.14 13.59 296.19 Q 13.41 295.23 13.41 294.2 Q 13.41 293.08 13.6 292.16 Q 13.79 291.23 14.08 290.48 Q 14.41 289.66 14.89 288.92 Q 15.36 288.19 15.96 287.47 L 18.47 287.47 L 18.47 287.67 Q 17.91 288.17 17.41 288.8 Q 16.91 289.44 16.49 290.28 Q 16.07 291.09 15.82 292.08 Q 15.57 293.08 15.57 294.2 Q 15.57 295.37 15.81 296.32 Q 16.05 297.26 16.49 298.11 Q 16.9 298.92 17.41 299.58 Q 17.93 300.25 18.47 300.73 L 18.47 300.92 Z  M 29.11 298.11 L 29.11 294.28 Q 29.11 293.7 29.09 293.31 Q 29.07 292.92 28.97 292.69 Q 28.86 292.44 28.64 292.32 Q 28.42 292.2 28.05 292.2 Q 27.77 292.2 27.5 292.33 Q 27.24 292.45 26.92 292.67 L 26.92 298.11 L 24.52 298.11 L 24.52 294.28 Q 24.52 293.72 24.5 293.32 Q 24.47 292.92 24.36 292.69 Q 24.27 292.44 24.05 292.32 Q 23.83 292.2 23.46 292.2 Q 23.16 292.2 22.88 292.34 Q 22.6 292.48 22.33 292.67 L 22.33 298.11 L 19.94 298.11 L 19.94 290.44 L 22.33 290.44 L 22.33 291.28 Q 22.91 290.78 23.43 290.5 Q 23.96 290.22 24.6 290.22 Q 25.32 290.22 25.85 290.55 Q 26.38 290.89 26.66 291.55 Q 27.35 290.91 27.96 290.56 Q 28.57 290.22 29.19 290.22 Q 29.74 290.22 30.16 290.39 Q 30.58 290.56 30.88 290.91 Q 31.19 291.26 31.35 291.78 Q 31.52 292.3 31.52 293.11 L 31.52 298.11 L 29.11 298.11 Z  M 37.96 294.2 Q 37.96 295.23 37.78 296.19 Q 37.6 297.14 37.29 297.94 Q 36.95 298.76 36.47 299.5 Q 35.99 300.23 35.42 300.92 L 32.92 300.92 L 32.92 300.73 Q 33.46 300.25 33.98 299.59 Q 34.49 298.94 34.9 298.11 Q 35.32 297.26 35.57 296.32 Q 35.82 295.37 35.82 294.2 Q 35.82 293.08 35.56 292.08 Q 35.31 291.09 34.9 290.28 Q 34.46 289.44 33.96 288.8 Q 33.46 288.17 32.92 287.67 L 32.92 287.47 L 35.42 287.47 Q 36.01 288.19 36.49 288.92 Q 36.96 289.66 37.29 290.48 Q 37.59 291.23 37.78 292.16 Q 37.96 293.08 37.96 294.2 Z "/></g><line x1="56" y1="54.16" x2="688" y2="54.16" style="stroke-width: 0.5;stroke: rgb(128,128,128);stroke-opacity: 0.5;stroke-linejoin: bevel;stroke-dasharray: 2.0, 2.0;shape-rendering:crispEdges;" transform="matrix(1,0,0,1,0,0)" clip-path="url(#_329279670702389clip-2)"/><line x1="56" y1="80.97" x2="688" y2="80.97" style="stroke-width: 0.5;stroke: rgb(128,128,128);stroke-opacity: 0.5;stroke-linejoin: bevel;stroke-dasharray: 2.0, 2.0;shape-rendering:crispEdges;" transform="matrix(1,0,0,1,0,0)" clip-path="url(#_329279670702389clip-2)"/><line x1="56" y1="107.77" x2="688" y2="107.77" style="stroke-width: 0.5;stroke: rgb(128,128,128);stroke-opacity: 0.5;stroke-linejoin: bevel;stroke-dasharray: 2.0, 2.0;shape-rendering:crispEdges;" transform="matrix(1,0,0,1,0,0)" clip-path="url(#_329279670702389clip-2)"/><line x1="56" y1="134.57" x2="688" y2="134.57" style="stroke-width: 0.5;stroke: rgb(128,128,128);stroke-opacity: 0.5;stroke-linejoin: bevel;stroke-dasharray: 2.0, 2.0;shape-rendering:crispEdges;" transform="matrix(1,0,0,1,0,0)" clip-path="url(#_329279670702389clip-2)"/><line x1="56" y1="161.37" x2="688" y2="161.37" style="stroke-width: 0.5;stroke: rgb(128,128,128);stroke-opacity: 0.5;stroke-linejoin: bevel;stroke-dasharray: 2.0, 2.0;shape-rendering:crispEdges;" transform="matrix(1,0,0,1,0,0)" clip-path="url(#_329279670702389clip-2)"/><line x1="56" y1="188.17" x2="688" y2="188.17" style="stroke-width: 0.5;stroke: rgb(128,128,128);stroke-opacity: 0.5;stroke-linejoin: bevel;stroke-dasharray: 2.0, 2.0;shape-rendering:crispEdges;" transform="matrix(1,0,0,1,0,0)" clip-path="url(#_329279670702389clip-2)"/><line x1="56" y1="214.97" x2="688" y2="214.97" style="stroke-width: 0.5;stroke: rgb(128,128,128);stroke-opacity: 0.5;stroke-linejoin: bevel;stroke-dasharray: 2.0, 2.0;shape-rendering:crispEdges;" transform="matrix(1,0,0,1,0,0)" clip-path="url(#_329279670702389clip-2)"/><line x1="56" y1="241.77" x2="688" y2="241.77" style="stroke-width: 0.5;stroke: rgb(128,128,128);stroke-opacity: 0.5;stroke-linejoin: bevel;stroke-dasharray: 2.0, 2.0;shape-rendering:crispEdges;" transform="matrix(1,0,0,1,0,0)" clip-path="url(#_329279670702389clip-2)"/><line x1="56" y1="268.57" x2="688" y2="268.57" style="stroke-width: 0.5;stroke: rgb(128,128,128);stroke-opacity: 0.5;stroke-linejoin: bevel;stroke-dasharray: 2.0, 2.0;shape-rendering:crispEdges;" transform="matrix(1,0,0,1,0,0)" clip-path="url(#_329279670702389clip-2)"/><line x1="56" y1="295.37" x2="688" y2="295.37" style="stroke-width: 0.5;stroke: rgb(128,128,128);stroke-opacity: 0.5;stroke-linejoin: bevel;stroke-dasharray: 2.0, 2.0;shape-rendering:crispEdges;" transform="matrix(1,0,0,1,0,0)" clip-path="url(#_329279670702389clip-2)"/><line x1="56" y1="322.17" x2="688" y2="322.17" style="stroke-width: 0.5;stroke: rgb(128,128,128);stroke-opacity: 0.5;stroke-linejoin: bevel;stroke-dasharray: 2.0, 2.0;shape-rendering:crispEdges;" transform="matrix(1,0,0,1,0,0)" clip-path="url(#_329279670702389clip-2)"/><line x1="56" y1="348.97" x2="688" y2="348.97" style="stroke-width: 0.5;stroke: rgb(128,128,128);stroke-opacity: 0.5;stroke-linejoin: bevel;stroke-dasharray: 2.0, 2.0;shape-rendering:crispEdges;" transform="matrix(1,0,0,1,0,0)" clip-path="url(#_329279670702389clip-2)"/><line x1="56" y1="375.77" x2="688" y2="375.77" style="stroke-width: 0.5;stroke: rgb(128,128,128);stroke-opacity: 0.5;stroke-linejoin: bevel;stroke-dasharray: 2.0, 2.0;shape-rendering:crispEdges;" transform="matrix(1,0,0,1,0,0)" clip-path="url(#_329279670702389clip-2)"/><line x1="56" y1="402.57" x2="688" y2="402.57" style="stroke-width: 0.5;stroke: rgb(128,128,128);stroke-opacity: 0.5;stroke-linejoin: bevel;stroke-dasharray: 2.0, 2.0;shape-rendering:crispEdges;" transform="matrix(1,0,0,1,0,0)" clip-path="url(#_329279670702389clip-2)"/><line x1="56" y1="429.37" x2="688" y2="429.37" style="stroke-width: 0.5;stroke: rgb(128,128,128);stroke-opacity: 0.5;stroke-linejoin: bevel;stroke-dasharray: 2.0, 2.0;shape-rendering:crispEdges;" transform="matrix(1,0,0,1,0,0)" clip-path="url(#_329279670702389clip-2)"/><line x1="56" y1="456.17" x2="688" y2="456.17" style="stroke-width: 0.5;stroke: rgb(128,128,128);stroke-opacity: 0.5;stroke-linejoin: bevel;stroke-dasharray: 2.0, 2.0;shape-rendering:crispEdges;" transform="matrix(1,0,0,1,0,0)" clip-path="url(#_329279670702389clip-2)"/><line x1="56" y1="482.97" x2="688" y2="482.97" style="stroke-width: 0.5;stroke: rgb(128,128,128);stroke-opacity: 0.5;stroke-linejoin: bevel;stroke-dasharray: 2.0, 2.0;shape-rendering:crispEdges;" transform="matrix(1,0,0,1,0,0)" clip-path="url(#_329279670702389clip-2)"/><line x1="56" y1="509.77" x2="688" y2="509.77" style="stroke-width: 0.5;stroke: rgb(128,128,128);stroke-opacity: 0.5;stroke-linejoin: bevel;stroke-dasharray: 2.0, 2.0;shape-rendering:crispEdges;" transform="matrix(1,0,0,1,0,0)" clip-path="url(#_329279670702389clip-2)"/><line x1="56" y1="536.57" x2="688" y2="536.57" style="stroke-width: 0.5;stroke: rgb(128,128,128);stroke-opacity: 0.5;stroke-linejoin: bevel;stroke-dasharray: 2.0, 2.0;shape-rendering:crispEdges;" transform="matrix(1,0,0,1,0,0)" clip-path="url(#_329279670702389clip-2)"/><line x1="84.73" y1="35" x2="84.73" y2="550" style="stroke-width: 0.5;stroke: rgb(128,128,128);stroke-opacity: 0.5;stroke-linejoin: bevel;stroke-dasharray: 2.0, 2.0;shape-rendering:crispEdges;" transform="matrix(1,0,0,1,0,0)" clip-path="url(#_329279670702389clip-2)"/><line x1="117.62" y1="35" x2="117.62" y2="550" style="stroke-width: 0.5;stroke: rgb(128,128,128);stroke-opacity: 0.5;stroke-linejoin: bevel;stroke-dasharray: 2.0, 2.0;shape-rendering:crispEdges;" transform="matrix(1,0,0,1,0,0)" clip-path="url(#_329279670702389clip-2)"/><line x1="150.51" y1="35" x2="150.51" y2="550" style="stroke-width: 0.5;stroke: rgb(128,128,128);stroke-opacity: 0.5;stroke-linejoin: bevel;stroke-dasharray: 2.0, 2.0;shape-rendering:crispEdges;" transform="matrix(1,0,0,1,0,0)" clip-path="url(#_329279670702389clip-2)"/><line x1="183.39" y1="35" x2="183.39" y2="550" style="stroke-width: 0.5;stroke: rgb(128,128,128);stroke-opacity: 0.5;stroke-linejoin: bevel;stroke-dasharray: 2.0, 2.0;shape-rendering:crispEdges;" transform="matrix(1,0,0,1,0,0)" clip-path="url(#_329279670702389clip-2)"/><line x1="216.28" y1="35" x2="216.28" y2="550" style="stroke-width: 0.5;stroke: rgb(128,128,128);stroke-opacity: 0.5;stroke-linejoin: bevel;stroke-dasharray: 2.0, 2.0;shape-rendering:crispEdges;" transform="matrix(1,0,0,1,0,0)" clip-path="url(#_329279670702389clip-2)"/><line x1="249.17" y1="35" x2="249.17" y2="550" style="stroke-width: 0.5;stroke: rgb(128,128,128);stroke-opacity: 0.5;stroke-linejoin: bevel;stroke-dasharray: 2.0, 2.0;shape-rendering:crispEdges;" transform="matrix(1,0,0,1,0,0)" clip-path="url(#_329279670702389clip-2)"/><line x1="282.06" y1="35" x2="282.06" y2="550" style="stroke-width: 0.5;stroke: rgb(128,128,128);stroke-opacity: 0.5;stroke-linejoin: bevel;stroke-dasharray: 2.0, 2.0;shape-rendering:crispEdges;" transform="matrix(1,0,0,1,0,0)" clip-path="url(#_329279670702389clip-2)"/><line x1="314.95" y1="35" x2="314.95" y2="550" style="stroke-width: 0.5;stroke: rgb(128,128,128);stroke-opacity: 0.5;stroke-linejoin: bevel;stroke-dasharray: 2.0, 2.0;shape-rendering:crispEdges;" transform="matrix(1,0,0,1,0,0)" clip-path="url(#_329279670702389clip-2)"/><line x1="347.84" y1="35" x2="347.84" y2="550" style="stroke-width: 0.5;stroke: rgb(128,128,128);stroke-opacity: 0.5;stroke-linejoin: bevel;stroke-dasharray: 2.0, 2.0;shape-rendering:crispEdges;" transform="matrix(1,0,0,1,0,0)" clip-path="url(#_329279670702389clip-2)"/><line x1="380.73" y1="35" x2="380.73" y2="550" style="stroke-width: 0.5;stroke: rgb(128,128,128);stroke-opacity: 0.5;stroke-linejoin: bevel;stroke-dasharray: 2.0, 2.0;shape-rendering:crispEdges;" transform="matrix(1,0,0,1,0,0)" clip-path="url(#_329279670702389clip-2)"/><line x1="413.62" y1="35" x2="413.62" y2="550" style="stroke-width: 0.5;stroke: rgb(128,128,128);stroke-opacity: 0.5;stroke-linejoin: bevel;stroke-dasharray: 2.0, 2.0;shape-rendering:crispEdges;" transform="matrix(1,0,0,1,0,0)" clip-path="url(#_329279670702389clip-2)"/><line x1="446.51" y1="35" x2="446.51" y2="550" style="stroke-width: 0.5;stroke: rgb(128,128,128);stroke-opacity: 0.5;stroke-linejoin: bevel;stroke-dasharray: 2.0, 2.0;shape-rendering:crispEdges;" transform="matrix(1,0,0,1,0,0)" clip-path="url(#_329279670702389clip-2)"/><line x1="479.4" y1="35" x2="479.4" y2="550" style="stroke-width: 0.5;stroke: rgb(128,128,128);stroke-opacity: 0.5;stroke-linejoin: bevel;stroke-dasharray: 2.0, 2.0;shape-rendering:crispEdges;" transform="matrix(1,0,0,1,0,0)" clip-path="url(#_329279670702389clip-2)"/><line x1="512.28" y1="35" x2="512.28" y2="550" style="stroke-width: 0.5;stroke: rgb(128,128,128);stroke-opacity: 0.5;stroke-linejoin: bevel;stroke-dasharray: 2.0, 2.0;shape-rendering:crispEdges;" transform="matrix(1,0,0,1,0,0)" clip-path="url(#_329279670702389clip-2)"/><line x1="545.17" y1="35" x2="545.17" y2="550" style="stroke-width: 0.5;stroke: rgb(128,128,128);stroke-opacity: 0.5;stroke-linejoin: bevel;stroke-dasharray: 2.0, 2.0;shape-rendering:crispEdges;" transform="matrix(1,0,0,1,0,0)" clip-path="url(#_329279670702389clip-2)"/><line x1="578.06" y1="35" x2="578.06" y2="550" style="stroke-width: 0.5;stroke: rgb(128,128,128);stroke-opacity: 0.5;stroke-linejoin: bevel;stroke-dasharray: 2.0, 2.0;shape-rendering:crispEdges;" transform="matrix(1,0,0,1,0,0)" clip-path="url(#_329279670702389clip-2)"/><line x1="610.95" y1="35" x2="610.95" y2="550" style="stroke-width: 0.5;stroke: rgb(128,128,128);stroke-opacity: 0.5;stroke-linejoin: bevel;stroke-dasharray: 2.0, 2.0;shape-rendering:crispEdges;" transform="matrix(1,0,0,1,0,0)" clip-path="url(#_329279670702389clip-2)"/><line x1="643.84" y1="35" x2="643.84" y2="550" style="stroke-width: 0.5;stroke: rgb(128,128,128);stroke-opacity: 0.5;stroke-linejoin: bevel;stroke-dasharray: 2.0, 2.0;shape-rendering:crispEdges;" transform="matrix(1,0,0,1,0,0)" clip-path="url(#_329279670702389clip-2)"/><line x1="676.73" y1="35" x2="676.73" y2="550" style="stroke-width: 0.5;stroke: rgb(128,128,128);stroke-opacity: 0.5;stroke-linejoin: bevel;stroke-dasharray: 2.0, 2.0;shape-rendering:crispEdges;" transform="matrix(1,0,0,1,0,0)" clip-path="url(#_329279670702389clip-2)"/><g style="fill: rgb(135,206,250); fill-opacity: 0.5; stroke: none" transform="matrix(1,0,0,1,0,0)" clip-path="url(#_329279670702389clip-2)"><path d="M 84.73 134.57 L 84.73 134.57 L 125.77 153.87 L 166.81 173.18 L 207.84 192.49 L 248.88 211.8 L 282.95 227.82 L 330.96 250.41 L 372 269.72 L 413.04 289.03 L 454.08 308.33 L 495.12 327.64 L 536.16 346.95 L 577.19 366.26 L 618.23 385.56 L 659.27 404.87 L 659.27 439.95 L 618.23 426.35 L 577.19 412.75 L 536.16 399.15 L 495.12 385.54 L 454.08 371.94 L 413.04 358.34 L 372 344.74 L 330.96 331.13 L 282.95 315.65 L 248.88 315.58 L 207.84 315.51 L 166.81 315.43 L 125.77 315.36 L 84.73 315.28 L 84.73 134.57 L 84.73 134.57 Z "/></g><g style="fill: rgb(30,144,255); fill-opacity: 0.5; stroke: none" transform="matrix(1,0,0,1,0,0)" clip-path="url(#_329279670702389clip-2)"><path d="M 84.73 363.93 L 486.91 363.93 L 486.91 382.82 L 590.33 417.1 L 590.33 402.81 L 486.91 363.93 L 84.73 363.93 Z "/></g><g style="fill: rgb(100,149,237); fill-opacity: 0.5; stroke: none" transform="matrix(1,0,0,1,0,0)" clip-path="url(#_329279670702389clip-2)"><path d="M 84.73 318.37 L 475.42 318.37 L 475.42 329.29 L 567.35 370.24 L 567.35 361.62 L 475.42 318.37 L 84.73 318.37 Z "/></g><g style="fill: rgb(100,149,237); fill-opacity: 0.5; stroke: none" transform="matrix(1,0,0,1,0,0)" clip-path="url(#_329279670702389clip-2)"><path d="M 84.73 275.12 L 383.49 275.12 L 383.49 288.34 L 475.42 329.29 L 475.42 318.37 L 383.49 275.12 L 84.73 275.12 Z "/></g><g style="fill: rgb(100,149,237); fill-opacity: 0.5; stroke: none" transform="matrix(1,0,0,1,0,0)" clip-path="url(#_329279670702389clip-2)"><path d="M 84.73 231.88 L 291.56 231.88 L 291.56 247.46 L 383.49 288.34 L 383.49 275.12 L 291.56 231.88 L 84.73 231.88 Z "/></g><g style="fill: rgb(100,149,237); fill-opacity: 0.5; stroke: none" transform="matrix(1,0,0,1,0,0)" clip-path="url(#_329279670702389clip-2)"><path d="M 84.73 164.3 L 147.93 164.3 L 147.93 186.96 L 262.84 235.87 L 262.84 218.36 L 147.93 164.3 L 84.73 164.3 Z "/></g><g style="fill: rgb(119,136,153); fill-opacity: 0.5; stroke: none" transform="matrix(1,0,0,1,0,0)" clip-path="url(#_329279670702389clip-2)"><path d="M 84.73 287.76 L 283.52 287.76 L 283.52 315.83 L 486.91 382.82 L 486.91 363.93 L 283.52 287.76 L 84.73 287.76 Z "/></g><g style="fill: rgb(119,136,153); fill-opacity: 0.5; stroke: none" transform="matrix(1,0,0,1,0,0)" clip-path="url(#_329279670702389clip-2)"><path d="M 84.73 287.71 L 142.18 287.71 L 142.18 315.39 L 282.95 315.65 L 282.95 287.54 L 142.18 287.71 L 84.73 287.71 Z "/></g><line x1="84.73" y1="134.57" x2="125.77" y2="153.87" style="stroke-width: 1.5;stroke: rgb(0,0,0);stroke-opacity: 0.5;stroke-linecap: round;stroke-linejoin: round;shape-rendering:geometricPrecision;" transform="matrix(1,0,0,1,0,0)" clip-path="url(#_329279670702389clip-2)"/><line x1="125.77" y1="153.87" x2="166.81" y2="173.18" style="stroke-width: 1.5;stroke: rgb(0,0,0);stroke-opacity: 0.5;stroke-linecap: round;stroke-linejoin: round;shape-rendering:geometricPrecision;" transform="matrix(1,0,0,1,0,0)" clip-path="url(#_329279670702389clip-2)"/><line x1="166.81" y1="173.18" x2="207.84" y2="192.49" style="stroke-width: 1.5;stroke: rgb(0,0,0);stroke-opacity: 0.5;stroke-linecap: round;stroke-linejoin: round;shape-rendering:geometricPrecision;" transform="matrix(1,0,0,1,0,0)" clip-path="url(#_329279670702389clip-2)"/><line x1="207.84" y1="192.49" x2="248.88" y2="211.8" style="stroke-width: 1.5;stroke: rgb(0,0,0);stroke-opacity: 0.5;stroke-linecap: round;stroke-linejoin: round;shape-rendering:geometricPrecision;" transform="matrix(1,0,0,1,0,0)" clip-path="url(#_329279670702389clip-2)"/><line x1="248.88" y1="211.8" x2="282.95" y2="227.82" style="stroke-width: 1.5;stroke: rgb(0,0,0);stroke-opacity: 0.5;stroke-linecap: round;stroke-linejoin: round;shape-rendering:geometricPrecision;" transform="matrix(1,0,0,1,0,0)" clip-path="url(#_329279670702389clip-2)"/><line x1="282.95" y1="227.82" x2="330.96" y2="250.41" style="stroke-width: 1.5;stroke: rgb(0,0,0);stroke-opacity: 0.5;stroke-linecap: round;stroke-linejoin: round;shape-rendering:geometricPrecision;" transform="matrix(1,0,0,1,0,0)" clip-path="url(#_329279670702389clip-2)"/><line x1="330.96" y1="250.41" x2="372" y2="269.72" style="stroke-width: 1.5;stroke: rgb(0,0,0);stroke-opacity: 0.5;stroke-linecap: round;stroke-linejoin: round;shape-rendering:geometricPrecision;" transform="matrix(1,0,0,1,0,0)" clip-path="url(#_329279670702389clip-2)"/><line x1="372" y1="269.72" x2="413.04" y2="289.03" style="stroke-width: 1.5;stroke: rgb(0,0,0);stroke-opacity: 0.5;stroke-linecap: round;stroke-linejoin: round;shape-rendering:geometricPrecision;" transform="matrix(1,0,0,1,0,0)" clip-path="url(#_329279670702389clip-2)"/><line x1="413.04" y1="289.03" x2="454.08" y2="308.33" style="stroke-width: 1.5;stroke: rgb(0,0,0);stroke-opacity: 0.5;stroke-linecap: round;stroke-linejoin: round;shape-rendering:geometricPrecision;" transform="matrix(1,0,0,1,0,0)" clip-path="url(#_329279670702389clip-2)"/><line x1="454.08" y1="308.33" x2="495.12" y2="327.64" style="stroke-width: 1.5;stroke: rgb(0,0,0);stroke-opacity: 0.5;stroke-linecap: round;stroke-linejoin: round;shape-rendering:geometricPrecision;" transform="matrix(1,0,0,1,0,0)" clip-path="url(#_329279670702389clip-2)"/><line x1="495.12" y1="327.64" x2="536.16" y2="346.95" style="stroke-width: 1.5;stroke: rgb(0,0,0);stroke-opacity: 0.5;stroke-linecap: round;stroke-linejoin: round;shape-rendering:geometricPrecision;" transform="matrix(1,0,0,1,0,0)" clip-path="url(#_329279670702389clip-2)"/><line x1="536.16" y1="346.95" x2="577.19" y2="366.26" style="stroke-width: 1.5;stroke: rgb(0,0,0);stroke-opacity: 0.5;stroke-linecap: round;stroke-linejoin: round;shape-rendering:geometricPrecision;" transform="matrix(1,0,0,1,0,0)" clip-path="url(#_329279670702389clip-2)"/><line x1="577.19" y1="366.26" x2="618.23" y2="385.56" style="stroke-width: 1.5;stroke: rgb(0,0,0);stroke-opacity: 0.5;stroke-linecap: round;stroke-linejoin: round;shape-rendering:geometricPrecision;" transform="matrix(1,0,0,1,0,0)" clip-path="url(#_329279670702389clip-2)"/><line x1="618.23" y1="385.56" x2="659.27" y2="404.87" style="stroke-width: 1.5;stroke: rgb(0,0,0);stroke-opacity: 0.5;stroke-linecap: round;stroke-linejoin: round;shape-rendering:geometricPrecision;" transform="matrix(1,0,0,1,0,0)" clip-path="url(#_329279670702389clip-2)"/><line x1="659.27" y1="404.87" x2="659.27" y2="439.95" style="stroke-width: 1.5;stroke: rgb(0,0,0);stroke-opacity: 0.5;stroke-linecap: round;stroke-linejoin: round;shape-rendering:geometricPrecision;" transform="matrix(1,0,0,1,0,0)" clip-path="url(#_329279670702389clip-2)"/><line x1="659.27" y1="439.95" x2="618.23" y2="426.35" style="stroke-width: 1.5;stroke: rgb(0,0,0);stroke-opacity: 0.5;stroke-linecap: round;stroke-linejoin: round;shape-rendering:geometricPrecision;" transform="matrix(1,0,0,1,0,0)" clip-path="url(#_329279670702389clip-2)"/><line x1="618.23" y1="426.35" x2="577.19" y2="412.75" style="stroke-width: 1.5;stroke: rgb(0,0,0);stroke-opacity: 0.5;stroke-linecap: round;stroke-linejoin: round;shape-rendering:geometricPrecision;" transform="matrix(1,0,0,1,0,0)" clip-path="url(#_329279670702389clip-2)"/><line x1="577.19" y1="412.75" x2="536.16" y2="399.15" style="stroke-width: 1.5;stroke: rgb(0,0,0);stroke-opacity: 0.5;stroke-linecap: round;stroke-linejoin: round;shape-rendering:geometricPrecision;" transform="matrix(1,0,0,1,0,0)" clip-path="url(#_329279670702389clip-2)"/><line x1="536.16" y1="399.15" x2="495.12" y2="385.54" style="stroke-width: 1.5;stroke: rgb(0,0,0);stroke-opacity: 0.5;stroke-linecap: round;stroke-linejoin: round;shape-rendering:geometricPrecision;" transform="matrix(1,0,0,1,0,0)" clip-path="url(#_329279670702389clip-2)"/><line x1="495.12" y1="385.54" x2="454.08" y2="371.94" style="stroke-width: 1.5;stroke: rgb(0,0,0);stroke-opacity: 0.5;stroke-linecap: round;stroke-linejoin: round;shape-rendering:geometricPrecision;" transform="matrix(1,0,0,1,0,0)" clip-path="url(#_329279670702389clip-2)"/><line x1="454.08" y1="371.94" x2="413.04" y2="358.34" style="stroke-width: 1.5;stroke: rgb(0,0,0);stroke-opacity: 0.5;stroke-linecap: round;stroke-linejoin: round;shape-rendering:geometricPrecision;" transform="matrix(1,0,0,1,0,0)" clip-path="url(#_329279670702389clip-2)"/><line x1="413.04" y1="358.34" x2="372" y2="344.74" style="stroke-width: 1.5;stroke: rgb(0,0,0);stroke-opacity: 0.5;stroke-linecap: round;stroke-linejoin: round;shape-rendering:geometricPrecision;" transform="matrix(1,0,0,1,0,0)" clip-path="url(#_329279670702389clip-2)"/><line x1="372" y1="344.74" x2="330.96" y2="331.13" style="stroke-width: 1.5;stroke: rgb(0,0,0);stroke-opacity: 0.5;stroke-linecap: round;stroke-linejoin: round;shape-rendering:geometricPrecision;" transform="matrix(1,0,0,1,0,0)" clip-path="url(#_329279670702389clip-2)"/><line x1="330.96" y1="331.13" x2="282.95" y2="315.65" style="stroke-width: 1.5;stroke: rgb(0,0,0);stroke-opacity: 0.5;stroke-linecap: round;stroke-linejoin: round;shape-rendering:geometricPrecision;" transform="matrix(1,0,0,1,0,0)" clip-path="url(#_329279670702389clip-2)"/><line x1="282.95" y1="315.65" x2="248.88" y2="315.58" style="stroke-width: 1.5;stroke: rgb(0,0,0);stroke-opacity: 0.5;stroke-linecap: round;stroke-linejoin: round;shape-rendering:geometricPrecision;" transform="matrix(1,0,0,1,0,0)" clip-path="url(#_329279670702389clip-2)"/><line x1="248.88" y1="315.58" x2="207.84" y2="315.51" style="stroke-width: 1.5;stroke: rgb(0,0,0);stroke-opacity: 0.5;stroke-linecap: round;stroke-linejoin: round;shape-rendering:geometricPrecision;" transform="matrix(1,0,0,1,0,0)" clip-path="url(#_329279670702389clip-2)"/><line x1="207.84" y1="315.51" x2="166.81" y2="315.43" style="stroke-width: 1.5;stroke: rgb(0,0,0);stroke-opacity: 0.5;stroke-linecap: round;stroke-linejoin: round;shape-rendering:geometricPrecision;" transform="matrix(1,0,0,1,0,0)" clip-path="url(#_329279670702389clip-2)"/><line x1="166.81" y1="315.43" x2="125.77" y2="315.36" style="stroke-width: 1.5;stroke: rgb(0,0,0);stroke-opacity: 0.5;stroke-linecap: round;stroke-linejoin: round;shape-rendering:geometricPrecision;" transform="matrix(1,0,0,1,0,0)" clip-path="url(#_329279670702389clip-2)"/><line x1="125.77" y1="315.36" x2="84.73" y2="315.28" style="stroke-width: 1.5;stroke: rgb(0,0,0);stroke-opacity: 0.5;stroke-linecap: round;stroke-linejoin: round;shape-rendering:geometricPrecision;" transform="matrix(1,0,0,1,0,0)" clip-path="url(#_329279670702389clip-2)"/><line x1="84.73" y1="315.28" x2="84.73" y2="134.57" style="stroke-width: 1.5;stroke: rgb(0,0,0);stroke-opacity: 0.5;stroke-linecap: round;stroke-linejoin: round;shape-rendering:geometricPrecision;" transform="matrix(1,0,0,1,0,0)" clip-path="url(#_329279670702389clip-2)"/><line x1="486.91" y1="363.93" x2="486.91" y2="382.82" style="stroke-width: 1.5;stroke: rgb(0,0,0);stroke-opacity: 0.5;stroke-linecap: round;stroke-linejoin: round;shape-rendering:geometricPrecision;" transform="matrix(1,0,0,1,0,0)" clip-path="url(#_329279670702389clip-2)"/><line x1="486.91" y1="382.82" x2="590.33" y2="417.1" style="stroke-width: 1.5;stroke: rgb(0,0,0);stroke-opacity: 0.5;stroke-linecap: round;stroke-linejoin: round;shape-rendering:geometricPrecision;" transform="matrix(1,0,0,1,0,0)" clip-path="url(#_329279670702389clip-2)"/><line x1="590.33" y1="417.1" x2="590.33" y2="402.81" style="stroke-width: 1.5;stroke: rgb(0,0,0);stroke-opacity: 0.5;stroke-linecap: round;stroke-linejoin: round;shape-rendering:geometricPrecision;" transform="matrix(1,0,0,1,0,0)" clip-path="url(#_329279670702389clip-2)"/><line x1="590.33" y1="402.81" x2="486.91" y2="363.93" style="stroke-width: 1.5;stroke: rgb(0,0,0);stroke-opacity: 0.5;stroke-linecap: round;stroke-linejoin: round;shape-rendering:geometricPrecision;" transform="matrix(1,0,0,1,0,0)" clip-path="url(#_329279670702389clip-2)"/><line x1="475.42" y1="318.37" x2="475.42" y2="329.29" style="stroke-width: 1.5;stroke: rgb(0,0,0);stroke-opacity: 0.5;stroke-linecap: round;stroke-linejoin: round;shape-rendering:geometricPrecision;" transform="matrix(1,0,0,1,0,0)" clip-path="url(#_329279670702389clip-2)"/><line x1="475.42" y1="329.29" x2="567.35" y2="370.24" style="stroke-width: 1.5;stroke: rgb(0,0,0);stroke-opacity: 0.5;stroke-linecap: round;stroke-linejoin: round;shape-rendering:geometricPrecision;" transform="matrix(1,0,0,1,0,0)" clip-path="url(#_329279670702389clip-2)"/><line x1="567.35" y1="370.24" x2="567.35" y2="361.62" style="stroke-width: 1.5;stroke: rgb(0,0,0);stroke-opacity: 0.5;stroke-linecap: round;stroke-linejoin: round;shape-rendering:geometricPrecision;" transform="matrix(1,0,0,1,0,0)" clip-path="url(#_329279670702389clip-2)"/><line x1="567.35" y1="361.62" x2="475.42" y2="318.37" style="stroke-width: 1.5;stroke: rgb(0,0,0);stroke-opacity: 0.5;stroke-linecap: round;stroke-linejoin: round;shape-rendering:geometricPrecision;" transform="matrix(1,0,0,1,0,0)" clip-path="url(#_329279670702389clip-2)"/><line x1="383.49" y1="275.12" x2="383.49" y2="288.34" style="stroke-width: 1.5;stroke: rgb(0,0,0);stroke-opacity: 0.5;stroke-linecap: round;stroke-linejoin: round;shape-rendering:geometricPrecision;" transform="matrix(1,0,0,1,0,0)" clip-path="url(#_329279670702389clip-2)"/><line x1="383.49" y1="288.34" x2="475.42" y2="329.29" style="stroke-width: 1.5;stroke: rgb(0,0,0);stroke-opacity: 0.5;stroke-linecap: round;stroke-linejoin: round;shape-rendering:geometricPrecision;" transform="matrix(1,0,0,1,0,0)" clip-path="url(#_329279670702389clip-2)"/><line x1="475.42" y1="329.29" x2="475.42" y2="318.37" style="stroke-width: 1.5;stroke: rgb(0,0,0);stroke-opacity: 0.5;stroke-linecap: round;stroke-linejoin: round;shape-rendering:geometricPrecision;" transform="matrix(1,0,0,1,0,0)" clip-path="url(#_329279670702389clip-2)"/><line x1="475.42" y1="318.37" x2="383.49" y2="275.12" style="stroke-width: 1.5;stroke: rgb(0,0,0);stroke-opacity: 0.5;stroke-linecap: round;stroke-linejoin: round;shape-rendering:geometricPrecision;" transform="matrix(1,0,0,1,0,0)" clip-path="url(#_329279670702389clip-2)"/><line x1="291.56" y1="231.88" x2="291.56" y2="247.46" style="stroke-width: 1.5;stroke: rgb(0,0,0);stroke-opacity: 0.5;stroke-linecap: round;stroke-linejoin: round;shape-rendering:geometricPrecision;" transform="matrix(1,0,0,1,0,0)" clip-path="url(#_329279670702389clip-2)"/><line x1="291.56" y1="247.46" x2="383.49" y2="288.34" style="stroke-width: 1.5;stroke: rgb(0,0,0);stroke-opacity: 0.5;stroke-linecap: round;stroke-linejoin: round;shape-rendering:geometricPrecision;" transform="matrix(1,0,0,1,0,0)" clip-path="url(#_329279670702389clip-2)"/><line x1="383.49" y1="288.34" x2="383.49" y2="275.12" style="stroke-width: 1.5;stroke: rgb(0,0,0);stroke-opacity: 0.5;stroke-linecap: round;stroke-linejoin: round;shape-rendering:geometricPrecision;" transform="matrix(1,0,0,1,0,0)" clip-path="url(#_329279670702389clip-2)"/><line x1="383.49" y1="275.12" x2="291.56" y2="231.88" style="stroke-width: 1.5;stroke: rgb(0,0,0);stroke-opacity: 0.5;stroke-linecap: round;stroke-linejoin: round;shape-rendering:geometricPrecision;" transform="matrix(1,0,0,1,0,0)" clip-path="url(#_329279670702389clip-2)"/><line x1="147.93" y1="164.3" x2="147.93" y2="186.96" style="stroke-width: 1.5;stroke: rgb(0,0,0);stroke-opacity: 0.5;stroke-linecap: round;stroke-linejoin: round;shape-rendering:geometricPrecision;" transform="matrix(1,0,0,1,0,0)" clip-path="url(#_329279670702389clip-2)"/><line x1="147.93" y1="186.96" x2="262.84" y2="235.87" style="stroke-width: 1.5;stroke: rgb(0,0,0);stroke-opacity: 0.5;stroke-linecap: round;stroke-linejoin: round;shape-rendering:geometricPrecision;" transform="matrix(1,0,0,1,0,0)" clip-path="url(#_329279670702389clip-2)"/><line x1="262.84" y1="235.87" x2="262.84" y2="218.36" style="stroke-width: 1.5;stroke: rgb(0,0,0);stroke-opacity: 0.5;stroke-linecap: round;stroke-linejoin: round;shape-rendering:geometricPrecision;" transform="matrix(1,0,0,1,0,0)" clip-path="url(#_329279670702389clip-2)"/><line x1="262.84" y1="218.36" x2="147.93" y2="164.3" style="stroke-width: 1.5;stroke: rgb(0,0,0);stroke-opacity: 0.5;stroke-linecap: round;stroke-linejoin: round;shape-rendering:geometricPrecision;" transform="matrix(1,0,0,1,0,0)" clip-path="url(#_329279670702389clip-2)"/><line x1="283.52" y1="287.76" x2="283.52" y2="315.83" style="stroke-width: 1.5;stroke: rgb(0,0,0);stroke-opacity: 0.5;stroke-linecap: round;stroke-linejoin: round;shape-rendering:geometricPrecision;" transform="matrix(1,0,0,1,0,0)" clip-path="url(#_329279670702389clip-2)"/><line x1="283.52" y1="315.83" x2="486.91" y2="382.82" style="stroke-width: 1.5;stroke: rgb(0,0,0);stroke-opacity: 0.5;stroke-linecap: round;stroke-linejoin: round;shape-rendering:geometricPrecision;" transform="matrix(1,0,0,1,0,0)" clip-path="url(#_329279670702389clip-2)"/><line x1="486.91" y1="382.82" x2="486.91" y2="363.93" style="stroke-width: 1.5;stroke: rgb(0,0,0);stroke-opacity: 0.5;stroke-linecap: round;stroke-linejoin: round;shape-rendering:geometricPrecision;" transform="matrix(1,0,0,1,0,0)" clip-path="url(#_329279670702389clip-2)"/><line x1="486.91" y1="363.93" x2="283.52" y2="287.76" style="stroke-width: 1.5;stroke: rgb(0,0,0);stroke-opacity: 0.5;stroke-linecap: round;stroke-linejoin: round;shape-rendering:geometricPrecision;" transform="matrix(1,0,0,1,0,0)" clip-path="url(#_329279670702389clip-2)"/><line x1="142.18" y1="287.71" x2="142.18" y2="315.39" style="stroke-width: 1.5;stroke: rgb(0,0,0);stroke-opacity: 0.5;stroke-linecap: round;stroke-linejoin: round;shape-rendering:geometricPrecision;" transform="matrix(1,0,0,1,0,0)" clip-path="url(#_329279670702389clip-2)"/><line x1="142.18" y1="315.39" x2="282.95" y2="315.65" style="stroke-width: 1.5;stroke: rgb(0,0,0);stroke-opacity: 0.5;stroke-linecap: round;stroke-linejoin: round;shape-rendering:geometricPrecision;" transform="matrix(1,0,0,1,0,0)" clip-path="url(#_329279670702389clip-2)"/><line x1="282.95" y1="315.65" x2="282.95" y2="287.54" style="stroke-width: 1.5;stroke: rgb(0,0,0);stroke-opacity: 0.5;stroke-linecap: round;stroke-linejoin: round;shape-rendering:geometricPrecision;" transform="matrix(1,0,0,1,0,0)" clip-path="url(#_329279670702389clip-2)"/><line x1="282.95" y1="287.54" x2="142.18" y2="287.71" style="stroke-width: 1.5;stroke: rgb(0,0,0);stroke-opacity: 0.5;stroke-linecap: round;stroke-linejoin: round;shape-rendering:geometricPrecision;" transform="matrix(1,0,0,1,0,0)" clip-path="url(#_329279670702389clip-2)"/><rect x="56" y="35" width="632" height="515" style="stroke-width: 0.5;stroke: rgb(0,0,0);stroke-opacity: 1.0;stroke-linecap: round;stroke-linejoin: round;shape-rendering:crispEdges;; fill: none" transform="matrix(1,0,0,1,0,0)" clip-path="url(#_329279670702389clip-0)"/></svg>
