<!DOCTYPE svg PUBLIC "-//W3C//DTD SVG 1.1//EN" "http://www.w3.org/Graphics/SVG/1.1/DTD/svg11.dtd">
<svg xmlns="http://www.w3.org/2000/svg" xmlns:xlink="http://www.w3.org/1999/xlink" xmlns:jfreesvg="http://www.jfree.org/jfreesvg/svg" width="1000" height="1000" text-rendering="auto" shape-rendering="auto">
<defs><clipPath id="_107836519228500clip-0"><path d="M 0 0 L 1000 0 L 1000 1000 L 0 1000 L 0 0 Z "/></clipPath>
<clipPath id="_107836519228500clip-1"><path d="M 503.5 442.5 L 503.5 1442.5 L -496.5 1442.5 L -496.5 442.5 L 503.5 442.5 Z "/></clipPath>
<clipPath id="_107836519228500clip-2"><path d="M 108 35 L 108 911 L 988 911 L 988 35 Z "/></clipPath>
</defs>
<rect x="0" y="0" width="1000" height="1000" style="fill: rgb(245,245,245); fill-opacity: 1.0" transform="matrix(1,0,0,1,0,0)" clip-path="url(#_107836519228500clip-0)"/><g transform="matrix(1,0,0,1,0,0)"><text x="314.5" y="21.01" style="fill: rgb(0,0,0); fill-opacity: 1.0; font-family: Tahoma; font-size: 20px; font-weight: bold;" clip-path="url(#_107836519228500clip-0)">Vertical Tail Planform representation</text></g><rect x="108" y="35" width="880" height="876" style="fill: rgb(240,248,255); fill-opacity: 0.0" transform="matrix(1,0,0,1,0,0)" clip-path="url(#_107836519228500clip-0)"/><line x1="108" y1="915" x2="988" y2="915" style="stroke-width: 0.5;stroke: rgb(128,128,128);stroke-opacity: 1.0;stroke-linecap: square;shape-rendering:crispEdges;" transform="matrix(1,0,0,1,0,0)" clip-path="url(#_107836519228500clip-0)"/><g transform="matrix(1,0,0,1,0,0)"><text x="97.26" y="945.69" style="fill: rgb(64,64,64); fill-opacity: 1.0; font-family: sans-serif; font-size: 25px;" clip-path="url(#_107836519228500clip-0)">-0,5</text></g><line x1="118.76" y1="917" x2="118.76" y2="915" style="stroke-width: 0.5;stroke: rgb(128,128,128);stroke-opacity: 1.0;stroke-linecap: square;shape-rendering:crispEdges;" transform="matrix(1,0,0,1,0,0)" clip-path="url(#_107836519228500clip-0)"/><g transform="matrix(1,0,0,1,0,0)"><text x="159.42" y="945.69" style="fill: rgb(64,64,64); fill-opacity: 1.0; font-family: sans-serif; font-size: 25px;" clip-path="url(#_107836519228500clip-0)">0,0</text></g><line x1="176.92" y1="917" x2="176.92" y2="915" style="stroke-width: 0.5;stroke: rgb(128,128,128);stroke-opacity: 1.0;stroke-linecap: square;shape-rendering:crispEdges;" transform="matrix(1,0,0,1,0,0)" clip-path="url(#_107836519228500clip-0)"/><g transform="matrix(1,0,0,1,0,0)"><text x="217.59" y="945.69" style="fill: rgb(64,64,64); fill-opacity: 1.0; font-family: sans-serif; font-size: 25px;" clip-path="url(#_107836519228500clip-0)">0,5</text></g><line x1="235.09" y1="917" x2="235.09" y2="915" style="stroke-width: 0.5;stroke: rgb(128,128,128);stroke-opacity: 1.0;stroke-linecap: square;shape-rendering:crispEdges;" transform="matrix(1,0,0,1,0,0)" clip-path="url(#_107836519228500clip-0)"/><g transform="matrix(1,0,0,1,0,0)"><text x="275.75" y="945.69" style="fill: rgb(64,64,64); fill-opacity: 1.0; font-family: sans-serif; font-size: 25px;" clip-path="url(#_107836519228500clip-0)">1,0</text></g><line x1="293.25" y1="917" x2="293.25" y2="915" style="stroke-width: 0.5;stroke: rgb(128,128,128);stroke-opacity: 1.0;stroke-linecap: square;shape-rendering:crispEdges;" transform="matrix(1,0,0,1,0,0)" clip-path="url(#_107836519228500clip-0)"/><g transform="matrix(1,0,0,1,0,0)"><text x="333.91" y="945.69" style="fill: rgb(64,64,64); fill-opacity: 1.0; font-family: sans-serif; font-size: 25px;" clip-path="url(#_107836519228500clip-0)">1,5</text></g><line x1="351.41" y1="917" x2="351.41" y2="915" style="stroke-width: 0.5;stroke: rgb(128,128,128);stroke-opacity: 1.0;stroke-linecap: square;shape-rendering:crispEdges;" transform="matrix(1,0,0,1,0,0)" clip-path="url(#_107836519228500clip-0)"/><g transform="matrix(1,0,0,1,0,0)"><text x="392.08" y="945.69" style="fill: rgb(64,64,64); fill-opacity: 1.0; font-family: sans-serif; font-size: 25px;" clip-path="url(#_107836519228500clip-0)">2,0</text></g><line x1="409.58" y1="917" x2="409.58" y2="915" style="stroke-width: 0.5;stroke: rgb(128,128,128);stroke-opacity: 1.0;stroke-linecap: square;shape-rendering:crispEdges;" transform="matrix(1,0,0,1,0,0)" clip-path="url(#_107836519228500clip-0)"/><g transform="matrix(1,0,0,1,0,0)"><text x="450.24" y="945.69" style="fill: rgb(64,64,64); fill-opacity: 1.0; font-family: sans-serif; font-size: 25px;" clip-path="url(#_107836519228500clip-0)">2,5</text></g><line x1="467.74" y1="917" x2="467.74" y2="915" style="stroke-width: 0.5;stroke: rgb(128,128,128);stroke-opacity: 1.0;stroke-linecap: square;shape-rendering:crispEdges;" transform="matrix(1,0,0,1,0,0)" clip-path="url(#_107836519228500clip-0)"/><g transform="matrix(1,0,0,1,0,0)"><text x="508.4" y="945.69" style="fill: rgb(64,64,64); fill-opacity: 1.0; font-family: sans-serif; font-size: 25px;" clip-path="url(#_107836519228500clip-0)">3,0</text></g><line x1="525.9" y1="917" x2="525.9" y2="915" style="stroke-width: 0.5;stroke: rgb(128,128,128);stroke-opacity: 1.0;stroke-linecap: square;shape-rendering:crispEdges;" transform="matrix(1,0,0,1,0,0)" clip-path="url(#_107836519228500clip-0)"/><g transform="matrix(1,0,0,1,0,0)"><text x="566.57" y="945.69" style="fill: rgb(64,64,64); fill-opacity: 1.0; font-family: sans-serif; font-size: 25px;" clip-path="url(#_107836519228500clip-0)">3,5</text></g><line x1="584.07" y1="917" x2="584.07" y2="915" style="stroke-width: 0.5;stroke: rgb(128,128,128);stroke-opacity: 1.0;stroke-linecap: square;shape-rendering:crispEdges;" transform="matrix(1,0,0,1,0,0)" clip-path="url(#_107836519228500clip-0)"/><g transform="matrix(1,0,0,1,0,0)"><text x="624.73" y="945.69" style="fill: rgb(64,64,64); fill-opacity: 1.0; font-family: sans-serif; font-size: 25px;" clip-path="url(#_107836519228500clip-0)">4,0</text></g><line x1="642.23" y1="917" x2="642.23" y2="915" style="stroke-width: 0.5;stroke: rgb(128,128,128);stroke-opacity: 1.0;stroke-linecap: square;shape-rendering:crispEdges;" transform="matrix(1,0,0,1,0,0)" clip-path="url(#_107836519228500clip-0)"/><g transform="matrix(1,0,0,1,0,0)"><text x="682.89" y="945.69" style="fill: rgb(64,64,64); fill-opacity: 1.0; font-family: sans-serif; font-size: 25px;" clip-path="url(#_107836519228500clip-0)">4,5</text></g><line x1="700.39" y1="917" x2="700.39" y2="915" style="stroke-width: 0.5;stroke: rgb(128,128,128);stroke-opacity: 1.0;stroke-linecap: square;shape-rendering:crispEdges;" transform="matrix(1,0,0,1,0,0)" clip-path="url(#_107836519228500clip-0)"/><g transform="matrix(1,0,0,1,0,0)"><text x="741.06" y="945.69" style="fill: rgb(64,64,64); fill-opacity: 1.0; font-family: sans-serif; font-size: 25px;" clip-path="url(#_107836519228500clip-0)">5,0</text></g><line x1="758.56" y1="917" x2="758.56" y2="915" style="stroke-width: 0.5;stroke: rgb(128,128,128);stroke-opacity: 1.0;stroke-linecap: square;shape-rendering:crispEdges;" transform="matrix(1,0,0,1,0,0)" clip-path="url(#_107836519228500clip-0)"/><g transform="matrix(1,0,0,1,0,0)"><text x="799.22" y="945.69" style="fill: rgb(64,64,64); fill-opacity: 1.0; font-family: sans-serif; font-size: 25px;" clip-path="url(#_107836519228500clip-0)">5,5</text></g><line x1="816.72" y1="917" x2="816.72" y2="915" style="stroke-width: 0.5;stroke: rgb(128,128,128);stroke-opacity: 1.0;stroke-linecap: square;shape-rendering:crispEdges;" transform="matrix(1,0,0,1,0,0)" clip-path="url(#_107836519228500clip-0)"/><g transform="matrix(1,0,0,1,0,0)"><text x="857.38" y="945.69" style="fill: rgb(64,64,64); fill-opacity: 1.0; font-family: sans-serif; font-size: 25px;" clip-path="url(#_107836519228500clip-0)">6,0</text></g><line x1="874.88" y1="917" x2="874.88" y2="915" style="stroke-width: 0.5;stroke: rgb(128,128,128);stroke-opacity: 1.0;stroke-linecap: square;shape-rendering:crispEdges;" transform="matrix(1,0,0,1,0,0)" clip-path="url(#_107836519228500clip-0)"/><g transform="matrix(1,0,0,1,0,0)"><text x="915.55" y="945.69" style="fill: rgb(64,64,64); fill-opacity: 1.0; font-family: sans-serif; font-size: 25px;" clip-path="url(#_107836519228500clip-0)">6,5</text></g><line x1="933.05" y1="917" x2="933.05" y2="915" style="stroke-width: 0.5;stroke: rgb(128,128,128);stroke-opacity: 1.0;stroke-linecap: square;shape-rendering:crispEdges;" transform="matrix(1,0,0,1,0,0)" clip-path="url(#_107836519228500clip-0)"/><g transform="matrix(1,0,0,1,0,0)"><text x="514" y="984.87" style="fill: rgb(64,64,64); fill-opacity: 1.0; font-family: sans-serif; font-size: 30px;" clip-path="url(#_107836519228500clip-0)">x (m)</text></g><line x1="104" y1="35" x2="104" y2="911" style="stroke-width: 0.5;stroke: rgb(128,128,128);stroke-opacity: 1.0;stroke-linecap: square;shape-rendering:crispEdges;" transform="matrix(1,0,0,1,0,0)" clip-path="url(#_107836519228500clip-0)"/><g transform="matrix(1,0,0,1,0,0)"><text x="55" y="878.06" style="fill: rgb(64,64,64); fill-opacity: 1.0; font-family: sans-serif; font-size: 25px;" clip-path="url(#_107836519228500clip-0)">-1,0</text></g><line x1="102" y1="867.87" x2="104" y2="867.87" style="stroke-width: 0.5;stroke: rgb(128,128,128);stroke-opacity: 1.0;stroke-linecap: square;shape-rendering:crispEdges;" transform="matrix(1,0,0,1,0,0)" clip-path="url(#_107836519228500clip-0)"/><g transform="matrix(1,0,0,1,0,0)"><text x="55" y="820.16" style="fill: rgb(64,64,64); fill-opacity: 1.0; font-family: sans-serif; font-size: 25px;" clip-path="url(#_107836519228500clip-0)">-0,5</text></g><line x1="102" y1="809.97" x2="104" y2="809.97" style="stroke-width: 0.5;stroke: rgb(128,128,128);stroke-opacity: 1.0;stroke-linecap: square;shape-rendering:crispEdges;" transform="matrix(1,0,0,1,0,0)" clip-path="url(#_107836519228500clip-0)"/><g transform="matrix(1,0,0,1,0,0)"><text x="63" y="762.26" style="fill: rgb(64,64,64); fill-opacity: 1.0; font-family: sans-serif; font-size: 25px;" clip-path="url(#_107836519228500clip-0)">0,0</text></g><line x1="102" y1="752.07" x2="104" y2="752.07" style="stroke-width: 0.5;stroke: rgb(128,128,128);stroke-opacity: 1.0;stroke-linecap: square;shape-rendering:crispEdges;" transform="matrix(1,0,0,1,0,0)" clip-path="url(#_107836519228500clip-0)"/><g transform="matrix(1,0,0,1,0,0)"><text x="63" y="704.36" style="fill: rgb(64,64,64); fill-opacity: 1.0; font-family: sans-serif; font-size: 25px;" clip-path="url(#_107836519228500clip-0)">0,5</text></g><line x1="102" y1="694.17" x2="104" y2="694.17" style="stroke-width: 0.5;stroke: rgb(128,128,128);stroke-opacity: 1.0;stroke-linecap: square;shape-rendering:crispEdges;" transform="matrix(1,0,0,1,0,0)" clip-path="url(#_107836519228500clip-0)"/><g transform="matrix(1,0,0,1,0,0)"><text x="63" y="646.46" style="fill: rgb(64,64,64); fill-opacity: 1.0; font-family: sans-serif; font-size: 25px;" clip-path="url(#_107836519228500clip-0)">1,0</text></g><line x1="102" y1="636.27" x2="104" y2="636.27" style="stroke-width: 0.5;stroke: rgb(128,128,128);stroke-opacity: 1.0;stroke-linecap: square;shape-rendering:crispEdges;" transform="matrix(1,0,0,1,0,0)" clip-path="url(#_107836519228500clip-0)"/><g transform="matrix(1,0,0,1,0,0)"><text x="63" y="588.56" style="fill: rgb(64,64,64); fill-opacity: 1.0; font-family: sans-serif; font-size: 25px;" clip-path="url(#_107836519228500clip-0)">1,5</text></g><line x1="102" y1="578.38" x2="104" y2="578.38" style="stroke-width: 0.5;stroke: rgb(128,128,128);stroke-opacity: 1.0;stroke-linecap: square;shape-rendering:crispEdges;" transform="matrix(1,0,0,1,0,0)" clip-path="url(#_107836519228500clip-0)"/><g transform="matrix(1,0,0,1,0,0)"><text x="63" y="530.67" style="fill: rgb(64,64,64); fill-opacity: 1.0; font-family: sans-serif; font-size: 25px;" clip-path="url(#_107836519228500clip-0)">2,0</text></g><line x1="102" y1="520.48" x2="104" y2="520.48" style="stroke-width: 0.5;stroke: rgb(128,128,128);stroke-opacity: 1.0;stroke-linecap: square;shape-rendering:crispEdges;" transform="matrix(1,0,0,1,0,0)" clip-path="url(#_107836519228500clip-0)"/><g transform="matrix(1,0,0,1,0,0)"><text x="63" y="472.77" style="fill: rgb(64,64,64); fill-opacity: 1.0; font-family: sans-serif; font-size: 25px;" clip-path="url(#_107836519228500clip-0)">2,5</text></g><line x1="102" y1="462.58" x2="104" y2="462.58" style="stroke-width: 0.5;stroke: rgb(128,128,128);stroke-opacity: 1.0;stroke-linecap: square;shape-rendering:crispEdges;" transform="matrix(1,0,0,1,0,0)" clip-path="url(#_107836519228500clip-0)"/><g transform="matrix(1,0,0,1,0,0)"><text x="63" y="414.87" style="fill: rgb(64,64,64); fill-opacity: 1.0; font-family: sans-serif; font-size: 25px;" clip-path="url(#_107836519228500clip-0)">3,0</text></g><line x1="102" y1="404.68" x2="104" y2="404.68" style="stroke-width: 0.5;stroke: rgb(128,128,128);stroke-opacity: 1.0;stroke-linecap: square;shape-rendering:crispEdges;" transform="matrix(1,0,0,1,0,0)" clip-path="url(#_107836519228500clip-0)"/><g transform="matrix(1,0,0,1,0,0)"><text x="63" y="356.97" style="fill: rgb(64,64,64); fill-opacity: 1.0; font-family: sans-serif; font-size: 25px;" clip-path="url(#_107836519228500clip-0)">3,5</text></g><line x1="102" y1="346.78" x2="104" y2="346.78" style="stroke-width: 0.5;stroke: rgb(128,128,128);stroke-opacity: 1.0;stroke-linecap: square;shape-rendering:crispEdges;" transform="matrix(1,0,0,1,0,0)" clip-path="url(#_107836519228500clip-0)"/><g transform="matrix(1,0,0,1,0,0)"><text x="63" y="299.07" style="fill: rgb(64,64,64); fill-opacity: 1.0; font-family: sans-serif; font-size: 25px;" clip-path="url(#_107836519228500clip-0)">4,0</text></g><line x1="102" y1="288.88" x2="104" y2="288.88" style="stroke-width: 0.5;stroke: rgb(128,128,128);stroke-opacity: 1.0;stroke-linecap: square;shape-rendering:crispEdges;" transform="matrix(1,0,0,1,0,0)" clip-path="url(#_107836519228500clip-0)"/><g transform="matrix(1,0,0,1,0,0)"><text x="63" y="241.17" style="fill: rgb(64,64,64); fill-opacity: 1.0; font-family: sans-serif; font-size: 25px;" clip-path="url(#_107836519228500clip-0)">4,5</text></g><line x1="102" y1="230.98" x2="104" y2="230.98" style="stroke-width: 0.5;stroke: rgb(128,128,128);stroke-opacity: 1.0;stroke-linecap: square;shape-rendering:crispEdges;" transform="matrix(1,0,0,1,0,0)" clip-path="url(#_107836519228500clip-0)"/><g transform="matrix(1,0,0,1,0,0)"><text x="63" y="183.27" style="fill: rgb(64,64,64); fill-opacity: 1.0; font-family: sans-serif; font-size: 25px;" clip-path="url(#_107836519228500clip-0)">5,0</text></g><line x1="102" y1="173.08" x2="104" y2="173.08" style="stroke-width: 0.5;stroke: rgb(128,128,128);stroke-opacity: 1.0;stroke-linecap: square;shape-rendering:crispEdges;" transform="matrix(1,0,0,1,0,0)" clip-path="url(#_107836519228500clip-0)"/><g transform="matrix(1,0,0,1,0,0)"><text x="63" y="125.37" style="fill: rgb(64,64,64); fill-opacity: 1.0; font-family: sans-serif; font-size: 25px;" clip-path="url(#_107836519228500clip-0)">5,5</text></g><line x1="102" y1="115.18" x2="104" y2="115.18" style="stroke-width: 0.5;stroke: rgb(128,128,128);stroke-opacity: 1.0;stroke-linecap: square;shape-rendering:crispEdges;" transform="matrix(1,0,0,1,0,0)" clip-path="url(#_107836519228500clip-0)"/><g transform="matrix(1,0,0,1,0,0)"><text x="63" y="67.47" style="fill: rgb(64,64,64); fill-opacity: 1.0; font-family: sans-serif; font-size: 25px;" clip-path="url(#_107836519228500clip-0)">6,0</text></g><line x1="102" y1="57.29" x2="104" y2="57.29" style="stroke-width: 0.5;stroke: rgb(128,128,128);stroke-opacity: 1.0;stroke-linecap: square;shape-rendering:crispEdges;" transform="matrix(1,0,0,1,0,0)" clip-path="url(#_107836519228500clip-0)"/><g style="fill: rgb(64,64,64); fill-opacity: 1.0; stroke: none" transform="matrix(0,-1,1,0,-442.5,503.5)" clip-path="url(#_107836519228500clip-1)"><path d="M -2.91 484.93 L -2.91 482.79 L 6.98 471.43 Q 5.3 471.5 4.02 471.5 L -2.33 471.5 L -2.33 469.36 L 10.39 469.36 L 10.39 471.11 L 1.97 480.99 L 0.34 482.79 Q 2.11 482.66 3.66 482.66 L 10.86 482.66 L 10.86 484.93 L -2.91 484.93 Z  M 26.85 491.24 Q 24.66 488.49 23.16 484.79 Q 21.65 481.1 21.65 477.15 Q 21.65 473.66 22.77 470.47 Q 24.1 466.75 26.85 463.08 L 28.74 463.08 Q 26.98 466.13 26.4 467.44 Q 25.51 469.46 24.99 471.66 Q 24.37 474.4 24.37 477.16 Q 24.37 484.21 28.74 491.24 L 26.85 491.24 Z  M 31.81 484.93 L 31.81 469.36 L 34.17 469.36 L 34.17 471.55 Q 34.89 470.41 36.11 469.72 Q 37.33 469.02 38.87 469.02 Q 40.61 469.02 41.72 469.74 Q 42.83 470.46 43.28 471.74 Q 45.12 469.02 48.08 469.02 Q 50.39 469.02 51.64 470.3 Q 52.89 471.58 52.89 474.25 L 52.89 484.93 L 50.26 484.93 L 50.26 475.13 Q 50.26 473.55 50 472.85 Q 49.75 472.15 49.08 471.72 Q 48.4 471.3 47.5 471.3 Q 45.86 471.3 44.77 472.4 Q 43.68 473.49 43.68 475.9 L 43.68 484.93 L 41.04 484.93 L 41.04 474.82 Q 41.04 473.07 40.4 472.18 Q 39.76 471.3 38.29 471.3 Q 37.18 471.3 36.24 471.89 Q 35.29 472.47 34.86 473.6 Q 34.43 474.72 34.43 476.85 L 34.43 484.93 L 31.81 484.93 Z  M 58.52 491.24 L 56.63 491.24 Q 61.02 484.21 61.02 477.16 Q 61.02 474.41 60.38 471.69 Q 59.88 469.5 58.99 467.47 Q 58.42 466.16 56.63 463.08 L 58.52 463.08 Q 61.27 466.75 62.6 470.47 Q 63.72 473.66 63.72 477.15 Q 63.72 481.1 62.21 484.79 Q 60.69 488.49 58.52 491.24 Z "/></g><line x1="108" y1="867.87" x2="988" y2="867.87" style="stroke-width: 0.5;stroke: rgb(128,128,128);stroke-opacity: 0.5;stroke-linejoin: bevel;stroke-dasharray: 2.0, 2.0;shape-rendering:crispEdges;" transform="matrix(1,0,0,1,0,0)" clip-path="url(#_107836519228500clip-2)"/><line x1="108" y1="809.97" x2="988" y2="809.97" style="stroke-width: 0.5;stroke: rgb(128,128,128);stroke-opacity: 0.5;stroke-linejoin: bevel;stroke-dasharray: 2.0, 2.0;shape-rendering:crispEdges;" transform="matrix(1,0,0,1,0,0)" clip-path="url(#_107836519228500clip-2)"/><line x1="108" y1="752.07" x2="988" y2="752.07" style="stroke-width: 0.5;stroke: rgb(128,128,128);stroke-opacity: 0.5;stroke-linejoin: bevel;stroke-dasharray: 2.0, 2.0;shape-rendering:crispEdges;" transform="matrix(1,0,0,1,0,0)" clip-path="url(#_107836519228500clip-2)"/><line x1="108" y1="694.17" x2="988" y2="694.17" style="stroke-width: 0.5;stroke: rgb(128,128,128);stroke-opacity: 0.5;stroke-linejoin: bevel;stroke-dasharray: 2.0, 2.0;shape-rendering:crispEdges;" transform="matrix(1,0,0,1,0,0)" clip-path="url(#_107836519228500clip-2)"/><line x1="108" y1="636.27" x2="988" y2="636.27" style="stroke-width: 0.5;stroke: rgb(128,128,128);stroke-opacity: 0.5;stroke-linejoin: bevel;stroke-dasharray: 2.0, 2.0;shape-rendering:crispEdges;" transform="matrix(1,0,0,1,0,0)" clip-path="url(#_107836519228500clip-2)"/><line x1="108" y1="578.38" x2="988" y2="578.38" style="stroke-width: 0.5;stroke: rgb(128,128,128);stroke-opacity: 0.5;stroke-linejoin: bevel;stroke-dasharray: 2.0, 2.0;shape-rendering:crispEdges;" transform="matrix(1,0,0,1,0,0)" clip-path="url(#_107836519228500clip-2)"/><line x1="108" y1="520.48" x2="988" y2="520.48" style="stroke-width: 0.5;stroke: rgb(128,128,128);stroke-opacity: 0.5;stroke-linejoin: bevel;stroke-dasharray: 2.0, 2.0;shape-rendering:crispEdges;" transform="matrix(1,0,0,1,0,0)" clip-path="url(#_107836519228500clip-2)"/><line x1="108" y1="462.58" x2="988" y2="462.58" style="stroke-width: 0.5;stroke: rgb(128,128,128);stroke-opacity: 0.5;stroke-linejoin: bevel;stroke-dasharray: 2.0, 2.0;shape-rendering:crispEdges;" transform="matrix(1,0,0,1,0,0)" clip-path="url(#_107836519228500clip-2)"/><line x1="108" y1="404.68" x2="988" y2="404.68" style="stroke-width: 0.5;stroke: rgb(128,128,128);stroke-opacity: 0.5;stroke-linejoin: bevel;stroke-dasharray: 2.0, 2.0;shape-rendering:crispEdges;" transform="matrix(1,0,0,1,0,0)" clip-path="url(#_107836519228500clip-2)"/><line x1="108" y1="346.78" x2="988" y2="346.78" style="stroke-width: 0.5;stroke: rgb(128,128,128);stroke-opacity: 0.5;stroke-linejoin: bevel;stroke-dasharray: 2.0, 2.0;shape-rendering:crispEdges;" transform="matrix(1,0,0,1,0,0)" clip-path="url(#_107836519228500clip-2)"/><line x1="108" y1="288.88" x2="988" y2="288.88" style="stroke-width: 0.5;stroke: rgb(128,128,128);stroke-opacity: 0.5;stroke-linejoin: bevel;stroke-dasharray: 2.0, 2.0;shape-rendering:crispEdges;" transform="matrix(1,0,0,1,0,0)" clip-path="url(#_107836519228500clip-2)"/><line x1="108" y1="230.98" x2="988" y2="230.98" style="stroke-width: 0.5;stroke: rgb(128,128,128);stroke-opacity: 0.5;stroke-linejoin: bevel;stroke-dasharray: 2.0, 2.0;shape-rendering:crispEdges;" transform="matrix(1,0,0,1,0,0)" clip-path="url(#_107836519228500clip-2)"/><line x1="108" y1="173.08" x2="988" y2="173.08" style="stroke-width: 0.5;stroke: rgb(128,128,128);stroke-opacity: 0.5;stroke-linejoin: bevel;stroke-dasharray: 2.0, 2.0;shape-rendering:crispEdges;" transform="matrix(1,0,0,1,0,0)" clip-path="url(#_107836519228500clip-2)"/><line x1="108" y1="115.18" x2="988" y2="115.18" style="stroke-width: 0.5;stroke: rgb(128,128,128);stroke-opacity: 0.5;stroke-linejoin: bevel;stroke-dasharray: 2.0, 2.0;shape-rendering:crispEdges;" transform="matrix(1,0,0,1,0,0)" clip-path="url(#_107836519228500clip-2)"/><line x1="108" y1="57.29" x2="988" y2="57.29" style="stroke-width: 0.5;stroke: rgb(128,128,128);stroke-opacity: 0.5;stroke-linejoin: bevel;stroke-dasharray: 2.0, 2.0;shape-rendering:crispEdges;" transform="matrix(1,0,0,1,0,0)" clip-path="url(#_107836519228500clip-2)"/><line x1="118.76" y1="35" x2="118.76" y2="911" style="stroke-width: 0.5;stroke: rgb(128,128,128);stroke-opacity: 0.5;stroke-linejoin: bevel;stroke-dasharray: 2.0, 2.0;shape-rendering:crispEdges;" transform="matrix(1,0,0,1,0,0)" clip-path="url(#_107836519228500clip-2)"/><line x1="176.92" y1="35" x2="176.92" y2="911" style="stroke-width: 0.5;stroke: rgb(128,128,128);stroke-opacity: 0.5;stroke-linejoin: bevel;stroke-dasharray: 2.0, 2.0;shape-rendering:crispEdges;" transform="matrix(1,0,0,1,0,0)" clip-path="url(#_107836519228500clip-2)"/><line x1="235.09" y1="35" x2="235.09" y2="911" style="stroke-width: 0.5;stroke: rgb(128,128,128);stroke-opacity: 0.5;stroke-linejoin: bevel;stroke-dasharray: 2.0, 2.0;shape-rendering:crispEdges;" transform="matrix(1,0,0,1,0,0)" clip-path="url(#_107836519228500clip-2)"/><line x1="293.25" y1="35" x2="293.25" y2="911" style="stroke-width: 0.5;stroke: rgb(128,128,128);stroke-opacity: 0.5;stroke-linejoin: bevel;stroke-dasharray: 2.0, 2.0;shape-rendering:crispEdges;" transform="matrix(1,0,0,1,0,0)" clip-path="url(#_107836519228500clip-2)"/><line x1="351.41" y1="35" x2="351.41" y2="911" style="stroke-width: 0.5;stroke: rgb(128,128,128);stroke-opacity: 0.5;stroke-linejoin: bevel;stroke-dasharray: 2.0, 2.0;shape-rendering:crispEdges;" transform="matrix(1,0,0,1,0,0)" clip-path="url(#_107836519228500clip-2)"/><line x1="409.58" y1="35" x2="409.58" y2="911" style="stroke-width: 0.5;stroke: rgb(128,128,128);stroke-opacity: 0.5;stroke-linejoin: bevel;stroke-dasharray: 2.0, 2.0;shape-rendering:crispEdges;" transform="matrix(1,0,0,1,0,0)" clip-path="url(#_107836519228500clip-2)"/><line x1="467.74" y1="35" x2="467.74" y2="911" style="stroke-width: 0.5;stroke: rgb(128,128,128);stroke-opacity: 0.5;stroke-linejoin: bevel;stroke-dasharray: 2.0, 2.0;shape-rendering:crispEdges;" transform="matrix(1,0,0,1,0,0)" clip-path="url(#_107836519228500clip-2)"/><line x1="525.9" y1="35" x2="525.9" y2="911" style="stroke-width: 0.5;stroke: rgb(128,128,128);stroke-opacity: 0.5;stroke-linejoin: bevel;stroke-dasharray: 2.0, 2.0;shape-rendering:crispEdges;" transform="matrix(1,0,0,1,0,0)" clip-path="url(#_107836519228500clip-2)"/><line x1="584.07" y1="35" x2="584.07" y2="911" style="stroke-width: 0.5;stroke: rgb(128,128,128);stroke-opacity: 0.5;stroke-linejoin: bevel;stroke-dasharray: 2.0, 2.0;shape-rendering:crispEdges;" transform="matrix(1,0,0,1,0,0)" clip-path="url(#_107836519228500clip-2)"/><line x1="642.23" y1="35" x2="642.23" y2="911" style="stroke-width: 0.5;stroke: rgb(128,128,128);stroke-opacity: 0.5;stroke-linejoin: bevel;stroke-dasharray: 2.0, 2.0;shape-rendering:crispEdges;" transform="matrix(1,0,0,1,0,0)" clip-path="url(#_107836519228500clip-2)"/><line x1="700.39" y1="35" x2="700.39" y2="911" style="stroke-width: 0.5;stroke: rgb(128,128,128);stroke-opacity: 0.5;stroke-linejoin: bevel;stroke-dasharray: 2.0, 2.0;shape-rendering:crispEdges;" transform="matrix(1,0,0,1,0,0)" clip-path="url(#_107836519228500clip-2)"/><line x1="758.56" y1="35" x2="758.56" y2="911" style="stroke-width: 0.5;stroke: rgb(128,128,128);stroke-opacity: 0.5;stroke-linejoin: bevel;stroke-dasharray: 2.0, 2.0;shape-rendering:crispEdges;" transform="matrix(1,0,0,1,0,0)" clip-path="url(#_107836519228500clip-2)"/><line x1="816.72" y1="35" x2="816.72" y2="911" style="stroke-width: 0.5;stroke: rgb(128,128,128);stroke-opacity: 0.5;stroke-linejoin: bevel;stroke-dasharray: 2.0, 2.0;shape-rendering:crispEdges;" transform="matrix(1,0,0,1,0,0)" clip-path="url(#_107836519228500clip-2)"/><line x1="874.88" y1="35" x2="874.88" y2="911" style="stroke-width: 0.5;stroke: rgb(128,128,128);stroke-opacity: 0.5;stroke-linejoin: bevel;stroke-dasharray: 2.0, 2.0;shape-rendering:crispEdges;" transform="matrix(1,0,0,1,0,0)" clip-path="url(#_107836519228500clip-2)"/><line x1="933.05" y1="35" x2="933.05" y2="911" style="stroke-width: 0.5;stroke: rgb(128,128,128);stroke-opacity: 0.5;stroke-linejoin: bevel;stroke-dasharray: 2.0, 2.0;shape-rendering:crispEdges;" transform="matrix(1,0,0,1,0,0)" clip-path="url(#_107836519228500clip-2)"/><g style="fill: rgb(255,215,0); fill-opacity: 0.5; stroke: none" transform="matrix(1,0,0,1,0,0)" clip-path="url(#_107836519228500clip-2)"><path d="M 176.92 752.07 L 176.92 752.07 L 192.14 732.83 L 207.35 713.58 L 222.57 694.33 L 237.78 675.09 L 253 655.84 L 268.21 636.59 L 283.43 617.35 L 298.64 598.1 L 313.85 578.86 L 329.07 559.61 L 344.28 540.36 L 359.5 521.12 L 374.71 501.87 L 389.93 482.62 L 405.14 463.38 L 420.36 444.13 L 435.57 424.88 L 450.79 405.64 L 466 386.39 L 481.21 367.14 L 496.43 347.9 L 511.64 328.65 L 526.86 309.41 L 542.07 290.16 L 557.29 270.91 L 572.5 251.67 L 587.72 232.42 L 602.93 213.17 L 618.15 193.93 L 882.21 193.93 L 873.73 213.17 L 865.26 232.42 L 856.78 251.67 L 848.3 270.91 L 839.83 290.16 L 831.35 309.41 L 822.88 328.65 L 814.4 347.9 L 805.93 367.14 L 797.45 386.39 L 788.98 405.64 L 780.5 424.88 L 772.02 444.13 L 763.55 463.38 L 755.07 482.62 L 746.6 501.87 L 738.12 521.12 L 729.65 540.36 L 721.17 559.61 L 712.69 578.86 L 704.22 598.1 L 695.74 617.35 L 687.27 636.59 L 678.79 655.84 L 670.32 675.09 L 661.84 694.33 L 653.36 713.58 L 644.89 732.83 L 636.41 752.07 L 176.92 752.07 L 176.92 752.07 Z "/></g><g style="fill: rgb(255,140,0); fill-opacity: 0.5; stroke: none" transform="matrix(1,0,0,1,0,0)" clip-path="url(#_107836519228500clip-2)"><path d="M 176.92 752.07 L 475.59 752.07 L 636.41 752.07 L 857.63 249.74 L 758.37 249.74 L 475.59 752.07 L 176.92 752.07 Z "/></g><line x1="176.92" y1="752.07" x2="192.14" y2="732.83" style="stroke-width: 1.5;stroke: rgb(0,0,0);stroke-opacity: 0.5;stroke-linecap: round;stroke-linejoin: round;shape-rendering:geometricPrecision;" transform="matrix(1,0,0,1,0,0)" clip-path="url(#_107836519228500clip-2)"/><line x1="192.14" y1="732.83" x2="207.35" y2="713.58" style="stroke-width: 1.5;stroke: rgb(0,0,0);stroke-opacity: 0.5;stroke-linecap: round;stroke-linejoin: round;shape-rendering:geometricPrecision;" transform="matrix(1,0,0,1,0,0)" clip-path="url(#_107836519228500clip-2)"/><line x1="207.35" y1="713.58" x2="222.57" y2="694.33" style="stroke-width: 1.5;stroke: rgb(0,0,0);stroke-opacity: 0.5;stroke-linecap: round;stroke-linejoin: round;shape-rendering:geometricPrecision;" transform="matrix(1,0,0,1,0,0)" clip-path="url(#_107836519228500clip-2)"/><line x1="222.57" y1="694.33" x2="237.78" y2="675.09" style="stroke-width: 1.5;stroke: rgb(0,0,0);stroke-opacity: 0.5;stroke-linecap: round;stroke-linejoin: round;shape-rendering:geometricPrecision;" transform="matrix(1,0,0,1,0,0)" clip-path="url(#_107836519228500clip-2)"/><line x1="237.78" y1="675.09" x2="253" y2="655.84" style="stroke-width: 1.5;stroke: rgb(0,0,0);stroke-opacity: 0.5;stroke-linecap: round;stroke-linejoin: round;shape-rendering:geometricPrecision;" transform="matrix(1,0,0,1,0,0)" clip-path="url(#_107836519228500clip-2)"/><line x1="253" y1="655.84" x2="268.21" y2="636.59" style="stroke-width: 1.5;stroke: rgb(0,0,0);stroke-opacity: 0.5;stroke-linecap: round;stroke-linejoin: round;shape-rendering:geometricPrecision;" transform="matrix(1,0,0,1,0,0)" clip-path="url(#_107836519228500clip-2)"/><line x1="268.21" y1="636.59" x2="283.43" y2="617.35" style="stroke-width: 1.5;stroke: rgb(0,0,0);stroke-opacity: 0.5;stroke-linecap: round;stroke-linejoin: round;shape-rendering:geometricPrecision;" transform="matrix(1,0,0,1,0,0)" clip-path="url(#_107836519228500clip-2)"/><line x1="283.43" y1="617.35" x2="298.64" y2="598.1" style="stroke-width: 1.5;stroke: rgb(0,0,0);stroke-opacity: 0.5;stroke-linecap: round;stroke-linejoin: round;shape-rendering:geometricPrecision;" transform="matrix(1,0,0,1,0,0)" clip-path="url(#_107836519228500clip-2)"/><line x1="298.64" y1="598.1" x2="313.85" y2="578.86" style="stroke-width: 1.5;stroke: rgb(0,0,0);stroke-opacity: 0.5;stroke-linecap: round;stroke-linejoin: round;shape-rendering:geometricPrecision;" transform="matrix(1,0,0,1,0,0)" clip-path="url(#_107836519228500clip-2)"/><line x1="313.85" y1="578.86" x2="329.07" y2="559.61" style="stroke-width: 1.5;stroke: rgb(0,0,0);stroke-opacity: 0.5;stroke-linecap: round;stroke-linejoin: round;shape-rendering:geometricPrecision;" transform="matrix(1,0,0,1,0,0)" clip-path="url(#_107836519228500clip-2)"/><line x1="329.07" y1="559.61" x2="344.28" y2="540.36" style="stroke-width: 1.5;stroke: rgb(0,0,0);stroke-opacity: 0.5;stroke-linecap: round;stroke-linejoin: round;shape-rendering:geometricPrecision;" transform="matrix(1,0,0,1,0,0)" clip-path="url(#_107836519228500clip-2)"/><line x1="344.28" y1="540.36" x2="359.5" y2="521.12" style="stroke-width: 1.5;stroke: rgb(0,0,0);stroke-opacity: 0.5;stroke-linecap: round;stroke-linejoin: round;shape-rendering:geometricPrecision;" transform="matrix(1,0,0,1,0,0)" clip-path="url(#_107836519228500clip-2)"/><line x1="359.5" y1="521.12" x2="374.71" y2="501.87" style="stroke-width: 1.5;stroke: rgb(0,0,0);stroke-opacity: 0.5;stroke-linecap: round;stroke-linejoin: round;shape-rendering:geometricPrecision;" transform="matrix(1,0,0,1,0,0)" clip-path="url(#_107836519228500clip-2)"/><line x1="374.71" y1="501.87" x2="389.93" y2="482.62" style="stroke-width: 1.5;stroke: rgb(0,0,0);stroke-opacity: 0.5;stroke-linecap: round;stroke-linejoin: round;shape-rendering:geometricPrecision;" transform="matrix(1,0,0,1,0,0)" clip-path="url(#_107836519228500clip-2)"/><line x1="389.93" y1="482.62" x2="405.14" y2="463.38" style="stroke-width: 1.5;stroke: rgb(0,0,0);stroke-opacity: 0.5;stroke-linecap: round;stroke-linejoin: round;shape-rendering:geometricPrecision;" transform="matrix(1,0,0,1,0,0)" clip-path="url(#_107836519228500clip-2)"/><line x1="405.14" y1="463.38" x2="420.36" y2="444.13" style="stroke-width: 1.5;stroke: rgb(0,0,0);stroke-opacity: 0.5;stroke-linecap: round;stroke-linejoin: round;shape-rendering:geometricPrecision;" transform="matrix(1,0,0,1,0,0)" clip-path="url(#_107836519228500clip-2)"/><line x1="420.36" y1="444.13" x2="435.57" y2="424.88" style="stroke-width: 1.5;stroke: rgb(0,0,0);stroke-opacity: 0.5;stroke-linecap: round;stroke-linejoin: round;shape-rendering:geometricPrecision;" transform="matrix(1,0,0,1,0,0)" clip-path="url(#_107836519228500clip-2)"/><line x1="435.57" y1="424.88" x2="450.79" y2="405.64" style="stroke-width: 1.5;stroke: rgb(0,0,0);stroke-opacity: 0.5;stroke-linecap: round;stroke-linejoin: round;shape-rendering:geometricPrecision;" transform="matrix(1,0,0,1,0,0)" clip-path="url(#_107836519228500clip-2)"/><line x1="450.79" y1="405.64" x2="466" y2="386.39" style="stroke-width: 1.5;stroke: rgb(0,0,0);stroke-opacity: 0.5;stroke-linecap: round;stroke-linejoin: round;shape-rendering:geometricPrecision;" transform="matrix(1,0,0,1,0,0)" clip-path="url(#_107836519228500clip-2)"/><line x1="466" y1="386.39" x2="481.21" y2="367.14" style="stroke-width: 1.5;stroke: rgb(0,0,0);stroke-opacity: 0.5;stroke-linecap: round;stroke-linejoin: round;shape-rendering:geometricPrecision;" transform="matrix(1,0,0,1,0,0)" clip-path="url(#_107836519228500clip-2)"/><line x1="481.21" y1="367.14" x2="496.43" y2="347.9" style="stroke-width: 1.5;stroke: rgb(0,0,0);stroke-opacity: 0.5;stroke-linecap: round;stroke-linejoin: round;shape-rendering:geometricPrecision;" transform="matrix(1,0,0,1,0,0)" clip-path="url(#_107836519228500clip-2)"/><line x1="496.43" y1="347.9" x2="511.64" y2="328.65" style="stroke-width: 1.5;stroke: rgb(0,0,0);stroke-opacity: 0.5;stroke-linecap: round;stroke-linejoin: round;shape-rendering:geometricPrecision;" transform="matrix(1,0,0,1,0,0)" clip-path="url(#_107836519228500clip-2)"/><line x1="511.64" y1="328.65" x2="526.86" y2="309.41" style="stroke-width: 1.5;stroke: rgb(0,0,0);stroke-opacity: 0.5;stroke-linecap: round;stroke-linejoin: round;shape-rendering:geometricPrecision;" transform="matrix(1,0,0,1,0,0)" clip-path="url(#_107836519228500clip-2)"/><line x1="526.86" y1="309.41" x2="542.07" y2="290.16" style="stroke-width: 1.5;stroke: rgb(0,0,0);stroke-opacity: 0.5;stroke-linecap: round;stroke-linejoin: round;shape-rendering:geometricPrecision;" transform="matrix(1,0,0,1,0,0)" clip-path="url(#_107836519228500clip-2)"/><line x1="542.07" y1="290.16" x2="557.29" y2="270.91" style="stroke-width: 1.5;stroke: rgb(0,0,0);stroke-opacity: 0.5;stroke-linecap: round;stroke-linejoin: round;shape-rendering:geometricPrecision;" transform="matrix(1,0,0,1,0,0)" clip-path="url(#_107836519228500clip-2)"/><line x1="557.29" y1="270.91" x2="572.5" y2="251.67" style="stroke-width: 1.5;stroke: rgb(0,0,0);stroke-opacity: 0.5;stroke-linecap: round;stroke-linejoin: round;shape-rendering:geometricPrecision;" transform="matrix(1,0,0,1,0,0)" clip-path="url(#_107836519228500clip-2)"/><line x1="572.5" y1="251.67" x2="587.72" y2="232.42" style="stroke-width: 1.5;stroke: rgb(0,0,0);stroke-opacity: 0.5;stroke-linecap: round;stroke-linejoin: round;shape-rendering:geometricPrecision;" transform="matrix(1,0,0,1,0,0)" clip-path="url(#_107836519228500clip-2)"/><line x1="587.72" y1="232.42" x2="602.93" y2="213.17" style="stroke-width: 1.5;stroke: rgb(0,0,0);stroke-opacity: 0.5;stroke-linecap: round;stroke-linejoin: round;shape-rendering:geometricPrecision;" transform="matrix(1,0,0,1,0,0)" clip-path="url(#_107836519228500clip-2)"/><line x1="602.93" y1="213.17" x2="618.15" y2="193.93" style="stroke-width: 1.5;stroke: rgb(0,0,0);stroke-opacity: 0.5;stroke-linecap: round;stroke-linejoin: round;shape-rendering:geometricPrecision;" transform="matrix(1,0,0,1,0,0)" clip-path="url(#_107836519228500clip-2)"/><line x1="618.15" y1="193.93" x2="882.21" y2="193.93" style="stroke-width: 1.5;stroke: rgb(0,0,0);stroke-opacity: 0.5;stroke-linecap: round;stroke-linejoin: round;shape-rendering:geometricPrecision;" transform="matrix(1,0,0,1,0,0)" clip-path="url(#_107836519228500clip-2)"/><line x1="882.21" y1="193.93" x2="873.73" y2="213.17" style="stroke-width: 1.5;stroke: rgb(0,0,0);stroke-opacity: 0.5;stroke-linecap: round;stroke-linejoin: round;shape-rendering:geometricPrecision;" transform="matrix(1,0,0,1,0,0)" clip-path="url(#_107836519228500clip-2)"/><line x1="873.73" y1="213.17" x2="865.26" y2="232.42" style="stroke-width: 1.5;stroke: rgb(0,0,0);stroke-opacity: 0.5;stroke-linecap: round;stroke-linejoin: round;shape-rendering:geometricPrecision;" transform="matrix(1,0,0,1,0,0)" clip-path="url(#_107836519228500clip-2)"/><line x1="865.26" y1="232.42" x2="856.78" y2="251.67" style="stroke-width: 1.5;stroke: rgb(0,0,0);stroke-opacity: 0.5;stroke-linecap: round;stroke-linejoin: round;shape-rendering:geometricPrecision;" transform="matrix(1,0,0,1,0,0)" clip-path="url(#_107836519228500clip-2)"/><line x1="856.78" y1="251.67" x2="848.3" y2="270.91" style="stroke-width: 1.5;stroke: rgb(0,0,0);stroke-opacity: 0.5;stroke-linecap: round;stroke-linejoin: round;shape-rendering:geometricPrecision;" transform="matrix(1,0,0,1,0,0)" clip-path="url(#_107836519228500clip-2)"/><line x1="848.3" y1="270.91" x2="839.83" y2="290.16" style="stroke-width: 1.5;stroke: rgb(0,0,0);stroke-opacity: 0.5;stroke-linecap: round;stroke-linejoin: round;shape-rendering:geometricPrecision;" transform="matrix(1,0,0,1,0,0)" clip-path="url(#_107836519228500clip-2)"/><line x1="839.83" y1="290.16" x2="831.35" y2="309.41" style="stroke-width: 1.5;stroke: rgb(0,0,0);stroke-opacity: 0.5;stroke-linecap: round;stroke-linejoin: round;shape-rendering:geometricPrecision;" transform="matrix(1,0,0,1,0,0)" clip-path="url(#_107836519228500clip-2)"/><line x1="831.35" y1="309.41" x2="822.88" y2="328.65" style="stroke-width: 1.5;stroke: rgb(0,0,0);stroke-opacity: 0.5;stroke-linecap: round;stroke-linejoin: round;shape-rendering:geometricPrecision;" transform="matrix(1,0,0,1,0,0)" clip-path="url(#_107836519228500clip-2)"/><line x1="822.88" y1="328.65" x2="814.4" y2="347.9" style="stroke-width: 1.5;stroke: rgb(0,0,0);stroke-opacity: 0.5;stroke-linecap: round;stroke-linejoin: round;shape-rendering:geometricPrecision;" transform="matrix(1,0,0,1,0,0)" clip-path="url(#_107836519228500clip-2)"/><line x1="814.4" y1="347.9" x2="805.93" y2="367.14" style="stroke-width: 1.5;stroke: rgb(0,0,0);stroke-opacity: 0.5;stroke-linecap: round;stroke-linejoin: round;shape-rendering:geometricPrecision;" transform="matrix(1,0,0,1,0,0)" clip-path="url(#_107836519228500clip-2)"/><line x1="805.93" y1="367.14" x2="797.45" y2="386.39" style="stroke-width: 1.5;stroke: rgb(0,0,0);stroke-opacity: 0.5;stroke-linecap: round;stroke-linejoin: round;shape-rendering:geometricPrecision;" transform="matrix(1,0,0,1,0,0)" clip-path="url(#_107836519228500clip-2)"/><line x1="797.45" y1="386.39" x2="788.98" y2="405.64" style="stroke-width: 1.5;stroke: rgb(0,0,0);stroke-opacity: 0.5;stroke-linecap: round;stroke-linejoin: round;shape-rendering:geometricPrecision;" transform="matrix(1,0,0,1,0,0)" clip-path="url(#_107836519228500clip-2)"/><line x1="788.98" y1="405.64" x2="780.5" y2="424.88" style="stroke-width: 1.5;stroke: rgb(0,0,0);stroke-opacity: 0.5;stroke-linecap: round;stroke-linejoin: round;shape-rendering:geometricPrecision;" transform="matrix(1,0,0,1,0,0)" clip-path="url(#_107836519228500clip-2)"/><line x1="780.5" y1="424.88" x2="772.02" y2="444.13" style="stroke-width: 1.5;stroke: rgb(0,0,0);stroke-opacity: 0.5;stroke-linecap: round;stroke-linejoin: round;shape-rendering:geometricPrecision;" transform="matrix(1,0,0,1,0,0)" clip-path="url(#_107836519228500clip-2)"/><line x1="772.02" y1="444.13" x2="763.55" y2="463.38" style="stroke-width: 1.5;stroke: rgb(0,0,0);stroke-opacity: 0.5;stroke-linecap: round;stroke-linejoin: round;shape-rendering:geometricPrecision;" transform="matrix(1,0,0,1,0,0)" clip-path="url(#_107836519228500clip-2)"/><line x1="763.55" y1="463.38" x2="755.07" y2="482.62" style="stroke-width: 1.5;stroke: rgb(0,0,0);stroke-opacity: 0.5;stroke-linecap: round;stroke-linejoin: round;shape-rendering:geometricPrecision;" transform="matrix(1,0,0,1,0,0)" clip-path="url(#_107836519228500clip-2)"/><line x1="755.07" y1="482.62" x2="746.6" y2="501.87" style="stroke-width: 1.5;stroke: rgb(0,0,0);stroke-opacity: 0.5;stroke-linecap: round;stroke-linejoin: round;shape-rendering:geometricPrecision;" transform="matrix(1,0,0,1,0,0)" clip-path="url(#_107836519228500clip-2)"/><line x1="746.6" y1="501.87" x2="738.12" y2="521.12" style="stroke-width: 1.5;stroke: rgb(0,0,0);stroke-opacity: 0.5;stroke-linecap: round;stroke-linejoin: round;shape-rendering:geometricPrecision;" transform="matrix(1,0,0,1,0,0)" clip-path="url(#_107836519228500clip-2)"/><line x1="738.12" y1="521.12" x2="729.65" y2="540.36" style="stroke-width: 1.5;stroke: rgb(0,0,0);stroke-opacity: 0.5;stroke-linecap: round;stroke-linejoin: round;shape-rendering:geometricPrecision;" transform="matrix(1,0,0,1,0,0)" clip-path="url(#_107836519228500clip-2)"/><line x1="729.65" y1="540.36" x2="721.17" y2="559.61" style="stroke-width: 1.5;stroke: rgb(0,0,0);stroke-opacity: 0.5;stroke-linecap: round;stroke-linejoin: round;shape-rendering:geometricPrecision;" transform="matrix(1,0,0,1,0,0)" clip-path="url(#_107836519228500clip-2)"/><line x1="721.17" y1="559.61" x2="712.69" y2="578.86" style="stroke-width: 1.5;stroke: rgb(0,0,0);stroke-opacity: 0.5;stroke-linecap: round;stroke-linejoin: round;shape-rendering:geometricPrecision;" transform="matrix(1,0,0,1,0,0)" clip-path="url(#_107836519228500clip-2)"/><line x1="712.69" y1="578.86" x2="704.22" y2="598.1" style="stroke-width: 1.5;stroke: rgb(0,0,0);stroke-opacity: 0.5;stroke-linecap: round;stroke-linejoin: round;shape-rendering:geometricPrecision;" transform="matrix(1,0,0,1,0,0)" clip-path="url(#_107836519228500clip-2)"/><line x1="704.22" y1="598.1" x2="695.74" y2="617.35" style="stroke-width: 1.5;stroke: rgb(0,0,0);stroke-opacity: 0.5;stroke-linecap: round;stroke-linejoin: round;shape-rendering:geometricPrecision;" transform="matrix(1,0,0,1,0,0)" clip-path="url(#_107836519228500clip-2)"/><line x1="695.74" y1="617.35" x2="687.27" y2="636.59" style="stroke-width: 1.5;stroke: rgb(0,0,0);stroke-opacity: 0.5;stroke-linecap: round;stroke-linejoin: round;shape-rendering:geometricPrecision;" transform="matrix(1,0,0,1,0,0)" clip-path="url(#_107836519228500clip-2)"/><line x1="687.27" y1="636.59" x2="678.79" y2="655.84" style="stroke-width: 1.5;stroke: rgb(0,0,0);stroke-opacity: 0.5;stroke-linecap: round;stroke-linejoin: round;shape-rendering:geometricPrecision;" transform="matrix(1,0,0,1,0,0)" clip-path="url(#_107836519228500clip-2)"/><line x1="678.79" y1="655.84" x2="670.32" y2="675.09" style="stroke-width: 1.5;stroke: rgb(0,0,0);stroke-opacity: 0.5;stroke-linecap: round;stroke-linejoin: round;shape-rendering:geometricPrecision;" transform="matrix(1,0,0,1,0,0)" clip-path="url(#_107836519228500clip-2)"/><line x1="670.32" y1="675.09" x2="661.84" y2="694.33" style="stroke-width: 1.5;stroke: rgb(0,0,0);stroke-opacity: 0.5;stroke-linecap: round;stroke-linejoin: round;shape-rendering:geometricPrecision;" transform="matrix(1,0,0,1,0,0)" clip-path="url(#_107836519228500clip-2)"/><line x1="661.84" y1="694.33" x2="653.36" y2="713.58" style="stroke-width: 1.5;stroke: rgb(0,0,0);stroke-opacity: 0.5;stroke-linecap: round;stroke-linejoin: round;shape-rendering:geometricPrecision;" transform="matrix(1,0,0,1,0,0)" clip-path="url(#_107836519228500clip-2)"/><line x1="653.36" y1="713.58" x2="644.89" y2="732.83" style="stroke-width: 1.5;stroke: rgb(0,0,0);stroke-opacity: 0.5;stroke-linecap: round;stroke-linejoin: round;shape-rendering:geometricPrecision;" transform="matrix(1,0,0,1,0,0)" clip-path="url(#_107836519228500clip-2)"/><line x1="644.89" y1="732.83" x2="636.41" y2="752.07" style="stroke-width: 1.5;stroke: rgb(0,0,0);stroke-opacity: 0.5;stroke-linecap: round;stroke-linejoin: round;shape-rendering:geometricPrecision;" transform="matrix(1,0,0,1,0,0)" clip-path="url(#_107836519228500clip-2)"/><line x1="636.41" y1="752.07" x2="176.92" y2="752.07" style="stroke-width: 1.5;stroke: rgb(0,0,0);stroke-opacity: 0.5;stroke-linecap: round;stroke-linejoin: round;shape-rendering:geometricPrecision;" transform="matrix(1,0,0,1,0,0)" clip-path="url(#_107836519228500clip-2)"/><line x1="475.59" y1="752.07" x2="636.41" y2="752.07" style="stroke-width: 1.5;stroke: rgb(0,0,0);stroke-opacity: 0.5;stroke-linecap: round;stroke-linejoin: round;shape-rendering:geometricPrecision;" transform="matrix(1,0,0,1,0,0)" clip-path="url(#_107836519228500clip-2)"/><line x1="636.41" y1="752.07" x2="857.63" y2="249.74" style="stroke-width: 1.5;stroke: rgb(0,0,0);stroke-opacity: 0.5;stroke-linecap: round;stroke-linejoin: round;shape-rendering:geometricPrecision;" transform="matrix(1,0,0,1,0,0)" clip-path="url(#_107836519228500clip-2)"/><line x1="857.63" y1="249.74" x2="758.37" y2="249.74" style="stroke-width: 1.5;stroke: rgb(0,0,0);stroke-opacity: 0.5;stroke-linecap: round;stroke-linejoin: round;shape-rendering:geometricPrecision;" transform="matrix(1,0,0,1,0,0)" clip-path="url(#_107836519228500clip-2)"/><line x1="758.37" y1="249.74" x2="475.59" y2="752.07" style="stroke-width: 1.5;stroke: rgb(0,0,0);stroke-opacity: 0.5;stroke-linecap: round;stroke-linejoin: round;shape-rendering:geometricPrecision;" transform="matrix(1,0,0,1,0,0)" clip-path="url(#_107836519228500clip-2)"/><line x1="377.67" y1="498.13" x2="748.25" y2="498.13" style="stroke-width: 2.5;stroke: rgb(255,85,85);stroke-opacity: 0.5;stroke-linecap: round;stroke-linejoin: round;stroke-dasharray: 5.0;shape-rendering:geometricPrecision;" transform="matrix(1,0,0,1,0,0)" clip-path="url(#_107836519228500clip-2)"/><rect x="108" y="35" width="880" height="876" style="stroke-width: 0.5;stroke: rgb(0,0,0);stroke-opacity: 1.0;stroke-linecap: round;stroke-linejoin: round;shape-rendering:crispEdges;; fill: none" transform="matrix(1,0,0,1,0,0)" clip-path="url(#_107836519228500clip-0)"/></svg>
