<!DOCTYPE svg PUBLIC "-//W3C//DTD SVG 1.1//EN" "http://www.w3.org/Graphics/SVG/1.1/DTD/svg11.dtd">
<svg xmlns="http://www.w3.org/2000/svg" xmlns:xlink="http://www.w3.org/1999/xlink" xmlns:jfreesvg="http://www.jfree.org/jfreesvg/svg" width="1152" height="768" text-rendering="auto" shape-rendering="auto">
<defs><clipPath id="_439112048263680clip-0"><path d="M 0 0 L 1152 0 L 1152 768 L 0 768 L 0 0 Z "/></clipPath>
<clipPath id="_439112048263680clip-1"><path d="M 370.5 309.5 L 370.5 1461.5 L -397.5 1461.5 L -397.5 309.5 L 370.5 309.5 Z "/></clipPath>
<clipPath id="_439112048263680clip-2"><path d="M 108 35 L 108 645 L 1140 645 L 1140 35 Z "/></clipPath>
</defs>
<rect x="0" y="0" width="1152" height="768" style="fill: rgb(255,255,255); fill-opacity: 1.0" transform="matrix(1,0,0,1,0,0)" clip-path="url(#_439112048263680clip-0)"/><g transform="matrix(1,0,0,1,0,0)"><text x="463" y="21.01" style="fill: rgb(0,0,0); fill-opacity: 1.0; font-family: Tahoma; font-size: 20px; font-weight: bold;" clip-path="url(#_439112048263680clip-0)">Lift_Coefficient_Curve</text></g><rect x="460" y="735" width="232" height="32" style="fill: rgb(255,255,255); fill-opacity: 1.0" transform="matrix(1,0,0,1,0,0)" clip-path="url(#_439112048263680clip-0)"/><g style="stroke-width: 3.0;stroke: rgb(0,0,0);stroke-opacity: 1.0;stroke-linecap: square;shape-rendering:geometricPrecision;; fill: none" transform="matrix(1,0,0,1,0,0)" clip-path="url(#_439112048263680clip-0)"><path d="M 463 751 L 477 751"/></g><g transform="matrix(1,0,0,1,0,0)"><text x="481" y="758.11" style="fill: rgb(64,64,64); fill-opacity: 1.0; font-family: sans-serif; font-size: 20px;" clip-path="url(#_439112048263680clip-0)"> Lift_Coefficient_Curve </text></g><rect x="108" y="35" width="1032" height="610" style="fill: rgb(255,255,255); fill-opacity: 0.0" transform="matrix(1,0,0,1,0,0)" clip-path="url(#_439112048263680clip-0)"/><line x1="108" y1="649" x2="1140" y2="649" style="stroke-width: 0.5;stroke: rgb(128,128,128);stroke-opacity: 1.0;stroke-linecap: square;shape-rendering:crispEdges;" transform="matrix(1,0,0,1,0,0)" clip-path="url(#_439112048263680clip-0)"/><g transform="matrix(1,0,0,1,0,0)"><text x="110.4" y="679.69" style="fill: rgb(64,64,64); fill-opacity: 1.0; font-family: sans-serif; font-size: 25px;" clip-path="url(#_439112048263680clip-0)">-4</text></g><line x1="121.4" y1="651" x2="121.4" y2="649" style="stroke-width: 0.5;stroke: rgb(128,128,128);stroke-opacity: 1.0;stroke-linecap: square;shape-rendering:crispEdges;" transform="matrix(1,0,0,1,0,0)" clip-path="url(#_439112048263680clip-0)"/><g transform="matrix(1,0,0,1,0,0)"><text x="177.42" y="679.69" style="fill: rgb(64,64,64); fill-opacity: 1.0; font-family: sans-serif; font-size: 25px;" clip-path="url(#_439112048263680clip-0)">-2</text></g><line x1="188.42" y1="651" x2="188.42" y2="649" style="stroke-width: 0.5;stroke: rgb(128,128,128);stroke-opacity: 1.0;stroke-linecap: square;shape-rendering:crispEdges;" transform="matrix(1,0,0,1,0,0)" clip-path="url(#_439112048263680clip-0)"/><g transform="matrix(1,0,0,1,0,0)"><text x="248.43" y="679.69" style="fill: rgb(64,64,64); fill-opacity: 1.0; font-family: sans-serif; font-size: 25px;" clip-path="url(#_439112048263680clip-0)">0</text></g><line x1="255.43" y1="651" x2="255.43" y2="649" style="stroke-width: 0.5;stroke: rgb(128,128,128);stroke-opacity: 1.0;stroke-linecap: square;shape-rendering:crispEdges;" transform="matrix(1,0,0,1,0,0)" clip-path="url(#_439112048263680clip-0)"/><g transform="matrix(1,0,0,1,0,0)"><text x="315.44" y="679.69" style="fill: rgb(64,64,64); fill-opacity: 1.0; font-family: sans-serif; font-size: 25px;" clip-path="url(#_439112048263680clip-0)">2</text></g><line x1="322.44" y1="651" x2="322.44" y2="649" style="stroke-width: 0.5;stroke: rgb(128,128,128);stroke-opacity: 1.0;stroke-linecap: square;shape-rendering:crispEdges;" transform="matrix(1,0,0,1,0,0)" clip-path="url(#_439112048263680clip-0)"/><g transform="matrix(1,0,0,1,0,0)"><text x="382.45" y="679.69" style="fill: rgb(64,64,64); fill-opacity: 1.0; font-family: sans-serif; font-size: 25px;" clip-path="url(#_439112048263680clip-0)">4</text></g><line x1="389.45" y1="651" x2="389.45" y2="649" style="stroke-width: 0.5;stroke: rgb(128,128,128);stroke-opacity: 1.0;stroke-linecap: square;shape-rendering:crispEdges;" transform="matrix(1,0,0,1,0,0)" clip-path="url(#_439112048263680clip-0)"/><g transform="matrix(1,0,0,1,0,0)"><text x="449.47" y="679.69" style="fill: rgb(64,64,64); fill-opacity: 1.0; font-family: sans-serif; font-size: 25px;" clip-path="url(#_439112048263680clip-0)">6</text></g><line x1="456.47" y1="651" x2="456.47" y2="649" style="stroke-width: 0.5;stroke: rgb(128,128,128);stroke-opacity: 1.0;stroke-linecap: square;shape-rendering:crispEdges;" transform="matrix(1,0,0,1,0,0)" clip-path="url(#_439112048263680clip-0)"/><g transform="matrix(1,0,0,1,0,0)"><text x="516.48" y="679.69" style="fill: rgb(64,64,64); fill-opacity: 1.0; font-family: sans-serif; font-size: 25px;" clip-path="url(#_439112048263680clip-0)">8</text></g><line x1="523.48" y1="651" x2="523.48" y2="649" style="stroke-width: 0.5;stroke: rgb(128,128,128);stroke-opacity: 1.0;stroke-linecap: square;shape-rendering:crispEdges;" transform="matrix(1,0,0,1,0,0)" clip-path="url(#_439112048263680clip-0)"/><g transform="matrix(1,0,0,1,0,0)"><text x="576.49" y="679.69" style="fill: rgb(64,64,64); fill-opacity: 1.0; font-family: sans-serif; font-size: 25px;" clip-path="url(#_439112048263680clip-0)">10</text></g><line x1="590.49" y1="651" x2="590.49" y2="649" style="stroke-width: 0.5;stroke: rgb(128,128,128);stroke-opacity: 1.0;stroke-linecap: square;shape-rendering:crispEdges;" transform="matrix(1,0,0,1,0,0)" clip-path="url(#_439112048263680clip-0)"/><g transform="matrix(1,0,0,1,0,0)"><text x="643.51" y="679.69" style="fill: rgb(64,64,64); fill-opacity: 1.0; font-family: sans-serif; font-size: 25px;" clip-path="url(#_439112048263680clip-0)">12</text></g><line x1="657.51" y1="651" x2="657.51" y2="649" style="stroke-width: 0.5;stroke: rgb(128,128,128);stroke-opacity: 1.0;stroke-linecap: square;shape-rendering:crispEdges;" transform="matrix(1,0,0,1,0,0)" clip-path="url(#_439112048263680clip-0)"/><g transform="matrix(1,0,0,1,0,0)"><text x="710.52" y="679.69" style="fill: rgb(64,64,64); fill-opacity: 1.0; font-family: sans-serif; font-size: 25px;" clip-path="url(#_439112048263680clip-0)">14</text></g><line x1="724.52" y1="651" x2="724.52" y2="649" style="stroke-width: 0.5;stroke: rgb(128,128,128);stroke-opacity: 1.0;stroke-linecap: square;shape-rendering:crispEdges;" transform="matrix(1,0,0,1,0,0)" clip-path="url(#_439112048263680clip-0)"/><g transform="matrix(1,0,0,1,0,0)"><text x="777.53" y="679.69" style="fill: rgb(64,64,64); fill-opacity: 1.0; font-family: sans-serif; font-size: 25px;" clip-path="url(#_439112048263680clip-0)">16</text></g><line x1="791.53" y1="651" x2="791.53" y2="649" style="stroke-width: 0.5;stroke: rgb(128,128,128);stroke-opacity: 1.0;stroke-linecap: square;shape-rendering:crispEdges;" transform="matrix(1,0,0,1,0,0)" clip-path="url(#_439112048263680clip-0)"/><g transform="matrix(1,0,0,1,0,0)"><text x="844.55" y="679.69" style="fill: rgb(64,64,64); fill-opacity: 1.0; font-family: sans-serif; font-size: 25px;" clip-path="url(#_439112048263680clip-0)">18</text></g><line x1="858.55" y1="651" x2="858.55" y2="649" style="stroke-width: 0.5;stroke: rgb(128,128,128);stroke-opacity: 1.0;stroke-linecap: square;shape-rendering:crispEdges;" transform="matrix(1,0,0,1,0,0)" clip-path="url(#_439112048263680clip-0)"/><g transform="matrix(1,0,0,1,0,0)"><text x="911.56" y="679.69" style="fill: rgb(64,64,64); fill-opacity: 1.0; font-family: sans-serif; font-size: 25px;" clip-path="url(#_439112048263680clip-0)">20</text></g><line x1="925.56" y1="651" x2="925.56" y2="649" style="stroke-width: 0.5;stroke: rgb(128,128,128);stroke-opacity: 1.0;stroke-linecap: square;shape-rendering:crispEdges;" transform="matrix(1,0,0,1,0,0)" clip-path="url(#_439112048263680clip-0)"/><g transform="matrix(1,0,0,1,0,0)"><text x="978.57" y="679.69" style="fill: rgb(64,64,64); fill-opacity: 1.0; font-family: sans-serif; font-size: 25px;" clip-path="url(#_439112048263680clip-0)">22</text></g><line x1="992.57" y1="651" x2="992.57" y2="649" style="stroke-width: 0.5;stroke: rgb(128,128,128);stroke-opacity: 1.0;stroke-linecap: square;shape-rendering:crispEdges;" transform="matrix(1,0,0,1,0,0)" clip-path="url(#_439112048263680clip-0)"/><g transform="matrix(1,0,0,1,0,0)"><text x="1045.58" y="679.69" style="fill: rgb(64,64,64); fill-opacity: 1.0; font-family: sans-serif; font-size: 25px;" clip-path="url(#_439112048263680clip-0)">24</text></g><line x1="1059.58" y1="651" x2="1059.58" y2="649" style="stroke-width: 0.5;stroke: rgb(128,128,128);stroke-opacity: 1.0;stroke-linecap: square;shape-rendering:crispEdges;" transform="matrix(1,0,0,1,0,0)" clip-path="url(#_439112048263680clip-0)"/><g transform="matrix(1,0,0,1,0,0)"><text x="1112.6" y="679.69" style="fill: rgb(64,64,64); fill-opacity: 1.0; font-family: sans-serif; font-size: 25px;" clip-path="url(#_439112048263680clip-0)">26</text></g><line x1="1126.6" y1="651" x2="1126.6" y2="649" style="stroke-width: 0.5;stroke: rgb(128,128,128);stroke-opacity: 1.0;stroke-linecap: square;shape-rendering:crispEdges;" transform="matrix(1,0,0,1,0,0)" clip-path="url(#_439112048263680clip-0)"/><g transform="matrix(1,0,0,1,0,0)"><text x="548" y="718.87" style="fill: rgb(64,64,64); fill-opacity: 1.0; font-family: sans-serif; font-size: 30px;" clip-path="url(#_439112048263680clip-0)">alpha (deg)</text></g><line x1="104" y1="35" x2="104" y2="645" style="stroke-width: 0.5;stroke: rgb(128,128,128);stroke-opacity: 1.0;stroke-linecap: square;shape-rendering:crispEdges;" transform="matrix(1,0,0,1,0,0)" clip-path="url(#_439112048263680clip-0)"/><g transform="matrix(1,0,0,1,0,0)"><text x="55" y="635.31" style="fill: rgb(64,64,64); fill-opacity: 1.0; font-family: sans-serif; font-size: 25px;" clip-path="url(#_439112048263680clip-0)">-0,1</text></g><line x1="102" y1="625.13" x2="104" y2="625.13" style="stroke-width: 0.5;stroke: rgb(128,128,128);stroke-opacity: 1.0;stroke-linecap: square;shape-rendering:crispEdges;" transform="matrix(1,0,0,1,0,0)" clip-path="url(#_439112048263680clip-0)"/><g transform="matrix(1,0,0,1,0,0)"><text x="63" y="599.19" style="fill: rgb(64,64,64); fill-opacity: 1.0; font-family: sans-serif; font-size: 25px;" clip-path="url(#_439112048263680clip-0)">0,0</text></g><line x1="102" y1="589" x2="104" y2="589" style="stroke-width: 0.5;stroke: rgb(128,128,128);stroke-opacity: 1.0;stroke-linecap: square;shape-rendering:crispEdges;" transform="matrix(1,0,0,1,0,0)" clip-path="url(#_439112048263680clip-0)"/><g transform="matrix(1,0,0,1,0,0)"><text x="63" y="563.07" style="fill: rgb(64,64,64); fill-opacity: 1.0; font-family: sans-serif; font-size: 25px;" clip-path="url(#_439112048263680clip-0)">0,1</text></g><line x1="102" y1="552.88" x2="104" y2="552.88" style="stroke-width: 0.5;stroke: rgb(128,128,128);stroke-opacity: 1.0;stroke-linecap: square;shape-rendering:crispEdges;" transform="matrix(1,0,0,1,0,0)" clip-path="url(#_439112048263680clip-0)"/><g transform="matrix(1,0,0,1,0,0)"><text x="63" y="526.95" style="fill: rgb(64,64,64); fill-opacity: 1.0; font-family: sans-serif; font-size: 25px;" clip-path="url(#_439112048263680clip-0)">0,2</text></g><line x1="102" y1="516.76" x2="104" y2="516.76" style="stroke-width: 0.5;stroke: rgb(128,128,128);stroke-opacity: 1.0;stroke-linecap: square;shape-rendering:crispEdges;" transform="matrix(1,0,0,1,0,0)" clip-path="url(#_439112048263680clip-0)"/><g transform="matrix(1,0,0,1,0,0)"><text x="63" y="490.83" style="fill: rgb(64,64,64); fill-opacity: 1.0; font-family: sans-serif; font-size: 25px;" clip-path="url(#_439112048263680clip-0)">0,3</text></g><line x1="102" y1="480.64" x2="104" y2="480.64" style="stroke-width: 0.5;stroke: rgb(128,128,128);stroke-opacity: 1.0;stroke-linecap: square;shape-rendering:crispEdges;" transform="matrix(1,0,0,1,0,0)" clip-path="url(#_439112048263680clip-0)"/><g transform="matrix(1,0,0,1,0,0)"><text x="63" y="454.71" style="fill: rgb(64,64,64); fill-opacity: 1.0; font-family: sans-serif; font-size: 25px;" clip-path="url(#_439112048263680clip-0)">0,4</text></g><line x1="102" y1="444.52" x2="104" y2="444.52" style="stroke-width: 0.5;stroke: rgb(128,128,128);stroke-opacity: 1.0;stroke-linecap: square;shape-rendering:crispEdges;" transform="matrix(1,0,0,1,0,0)" clip-path="url(#_439112048263680clip-0)"/><g transform="matrix(1,0,0,1,0,0)"><text x="63" y="418.59" style="fill: rgb(64,64,64); fill-opacity: 1.0; font-family: sans-serif; font-size: 25px;" clip-path="url(#_439112048263680clip-0)">0,5</text></g><line x1="102" y1="408.4" x2="104" y2="408.4" style="stroke-width: 0.5;stroke: rgb(128,128,128);stroke-opacity: 1.0;stroke-linecap: square;shape-rendering:crispEdges;" transform="matrix(1,0,0,1,0,0)" clip-path="url(#_439112048263680clip-0)"/><g transform="matrix(1,0,0,1,0,0)"><text x="63" y="382.47" style="fill: rgb(64,64,64); fill-opacity: 1.0; font-family: sans-serif; font-size: 25px;" clip-path="url(#_439112048263680clip-0)">0,6</text></g><line x1="102" y1="372.28" x2="104" y2="372.28" style="stroke-width: 0.5;stroke: rgb(128,128,128);stroke-opacity: 1.0;stroke-linecap: square;shape-rendering:crispEdges;" transform="matrix(1,0,0,1,0,0)" clip-path="url(#_439112048263680clip-0)"/><g transform="matrix(1,0,0,1,0,0)"><text x="63" y="346.35" style="fill: rgb(64,64,64); fill-opacity: 1.0; font-family: sans-serif; font-size: 25px;" clip-path="url(#_439112048263680clip-0)">0,7</text></g><line x1="102" y1="336.16" x2="104" y2="336.16" style="stroke-width: 0.5;stroke: rgb(128,128,128);stroke-opacity: 1.0;stroke-linecap: square;shape-rendering:crispEdges;" transform="matrix(1,0,0,1,0,0)" clip-path="url(#_439112048263680clip-0)"/><g transform="matrix(1,0,0,1,0,0)"><text x="63" y="310.23" style="fill: rgb(64,64,64); fill-opacity: 1.0; font-family: sans-serif; font-size: 25px;" clip-path="url(#_439112048263680clip-0)">0,8</text></g><line x1="102" y1="300.04" x2="104" y2="300.04" style="stroke-width: 0.5;stroke: rgb(128,128,128);stroke-opacity: 1.0;stroke-linecap: square;shape-rendering:crispEdges;" transform="matrix(1,0,0,1,0,0)" clip-path="url(#_439112048263680clip-0)"/><g transform="matrix(1,0,0,1,0,0)"><text x="63" y="274.11" style="fill: rgb(64,64,64); fill-opacity: 1.0; font-family: sans-serif; font-size: 25px;" clip-path="url(#_439112048263680clip-0)">0,9</text></g><line x1="102" y1="263.92" x2="104" y2="263.92" style="stroke-width: 0.5;stroke: rgb(128,128,128);stroke-opacity: 1.0;stroke-linecap: square;shape-rendering:crispEdges;" transform="matrix(1,0,0,1,0,0)" clip-path="url(#_439112048263680clip-0)"/><g transform="matrix(1,0,0,1,0,0)"><text x="63" y="237.99" style="fill: rgb(64,64,64); fill-opacity: 1.0; font-family: sans-serif; font-size: 25px;" clip-path="url(#_439112048263680clip-0)">1,0</text></g><line x1="102" y1="227.8" x2="104" y2="227.8" style="stroke-width: 0.5;stroke: rgb(128,128,128);stroke-opacity: 1.0;stroke-linecap: square;shape-rendering:crispEdges;" transform="matrix(1,0,0,1,0,0)" clip-path="url(#_439112048263680clip-0)"/><g transform="matrix(1,0,0,1,0,0)"><text x="63" y="201.87" style="fill: rgb(64,64,64); fill-opacity: 1.0; font-family: sans-serif; font-size: 25px;" clip-path="url(#_439112048263680clip-0)">1,1</text></g><line x1="102" y1="191.68" x2="104" y2="191.68" style="stroke-width: 0.5;stroke: rgb(128,128,128);stroke-opacity: 1.0;stroke-linecap: square;shape-rendering:crispEdges;" transform="matrix(1,0,0,1,0,0)" clip-path="url(#_439112048263680clip-0)"/><g transform="matrix(1,0,0,1,0,0)"><text x="63" y="165.75" style="fill: rgb(64,64,64); fill-opacity: 1.0; font-family: sans-serif; font-size: 25px;" clip-path="url(#_439112048263680clip-0)">1,2</text></g><line x1="102" y1="155.56" x2="104" y2="155.56" style="stroke-width: 0.5;stroke: rgb(128,128,128);stroke-opacity: 1.0;stroke-linecap: square;shape-rendering:crispEdges;" transform="matrix(1,0,0,1,0,0)" clip-path="url(#_439112048263680clip-0)"/><g transform="matrix(1,0,0,1,0,0)"><text x="63" y="129.63" style="fill: rgb(64,64,64); fill-opacity: 1.0; font-family: sans-serif; font-size: 25px;" clip-path="url(#_439112048263680clip-0)">1,3</text></g><line x1="102" y1="119.44" x2="104" y2="119.44" style="stroke-width: 0.5;stroke: rgb(128,128,128);stroke-opacity: 1.0;stroke-linecap: square;shape-rendering:crispEdges;" transform="matrix(1,0,0,1,0,0)" clip-path="url(#_439112048263680clip-0)"/><g transform="matrix(1,0,0,1,0,0)"><text x="63" y="93.51" style="fill: rgb(64,64,64); fill-opacity: 1.0; font-family: sans-serif; font-size: 25px;" clip-path="url(#_439112048263680clip-0)">1,4</text></g><line x1="102" y1="83.32" x2="104" y2="83.32" style="stroke-width: 0.5;stroke: rgb(128,128,128);stroke-opacity: 1.0;stroke-linecap: square;shape-rendering:crispEdges;" transform="matrix(1,0,0,1,0,0)" clip-path="url(#_439112048263680clip-0)"/><g transform="matrix(1,0,0,1,0,0)"><text x="63" y="57.39" style="fill: rgb(64,64,64); fill-opacity: 1.0; font-family: sans-serif; font-size: 25px;" clip-path="url(#_439112048263680clip-0)">1,5</text></g><line x1="102" y1="47.2" x2="104" y2="47.2" style="stroke-width: 0.5;stroke: rgb(128,128,128);stroke-opacity: 1.0;stroke-linecap: square;shape-rendering:crispEdges;" transform="matrix(1,0,0,1,0,0)" clip-path="url(#_439112048263680clip-0)"/><g style="fill: rgb(64,64,64); fill-opacity: 1.0; stroke: none" transform="matrix(0,-1,1,0,-309.5,370.5)" clip-path="url(#_439112048263680clip-1)"><path d="M 24.64 344.4 L 27.48 345.11 Q 26.58 348.61 24.26 350.45 Q 21.94 352.29 18.59 352.29 Q 15.11 352.29 12.94 350.87 Q 10.77 349.46 9.63 346.78 Q 8.5 344.1 8.5 341.02 Q 8.5 337.68 9.78 335.18 Q 11.06 332.68 13.43 331.38 Q 15.8 330.08 18.62 330.08 Q 21.86 330.08 24.05 331.72 Q 26.25 333.36 27.11 336.33 L 24.31 337 Q 23.56 334.66 22.14 333.59 Q 20.72 332.52 18.58 332.52 Q 16.09 332.52 14.43 333.71 Q 12.77 334.9 12.09 336.9 Q 11.42 338.9 11.42 341.02 Q 11.42 343.75 12.22 345.79 Q 13.02 347.83 14.7 348.85 Q 16.39 349.86 18.36 349.86 Q 20.73 349.86 22.39 348.49 Q 24.05 347.11 24.64 344.4 Z  M 30.87 351.93 L 30.87 330.46 L 33.71 330.46 L 33.71 349.4 L 44.27 349.4 L 44.27 351.93 L 30.87 351.93 Z "/></g><line x1="121.4" y1="35" x2="121.4" y2="645" style="stroke-width: 0.5;stroke: rgb(192,192,192);stroke-opacity: 1.0;stroke-linejoin: bevel;stroke-dasharray: 2.0, 2.0;shape-rendering:crispEdges;" transform="matrix(1,0,0,1,0,0)" clip-path="url(#_439112048263680clip-2)"/><line x1="188.42" y1="35" x2="188.42" y2="645" style="stroke-width: 0.5;stroke: rgb(192,192,192);stroke-opacity: 1.0;stroke-linejoin: bevel;stroke-dasharray: 2.0, 2.0;shape-rendering:crispEdges;" transform="matrix(1,0,0,1,0,0)" clip-path="url(#_439112048263680clip-2)"/><line x1="255.43" y1="35" x2="255.43" y2="645" style="stroke-width: 0.5;stroke: rgb(192,192,192);stroke-opacity: 1.0;stroke-linejoin: bevel;stroke-dasharray: 2.0, 2.0;shape-rendering:crispEdges;" transform="matrix(1,0,0,1,0,0)" clip-path="url(#_439112048263680clip-2)"/><line x1="322.44" y1="35" x2="322.44" y2="645" style="stroke-width: 0.5;stroke: rgb(192,192,192);stroke-opacity: 1.0;stroke-linejoin: bevel;stroke-dasharray: 2.0, 2.0;shape-rendering:crispEdges;" transform="matrix(1,0,0,1,0,0)" clip-path="url(#_439112048263680clip-2)"/><line x1="389.45" y1="35" x2="389.45" y2="645" style="stroke-width: 0.5;stroke: rgb(192,192,192);stroke-opacity: 1.0;stroke-linejoin: bevel;stroke-dasharray: 2.0, 2.0;shape-rendering:crispEdges;" transform="matrix(1,0,0,1,0,0)" clip-path="url(#_439112048263680clip-2)"/><line x1="456.47" y1="35" x2="456.47" y2="645" style="stroke-width: 0.5;stroke: rgb(192,192,192);stroke-opacity: 1.0;stroke-linejoin: bevel;stroke-dasharray: 2.0, 2.0;shape-rendering:crispEdges;" transform="matrix(1,0,0,1,0,0)" clip-path="url(#_439112048263680clip-2)"/><line x1="523.48" y1="35" x2="523.48" y2="645" style="stroke-width: 0.5;stroke: rgb(192,192,192);stroke-opacity: 1.0;stroke-linejoin: bevel;stroke-dasharray: 2.0, 2.0;shape-rendering:crispEdges;" transform="matrix(1,0,0,1,0,0)" clip-path="url(#_439112048263680clip-2)"/><line x1="590.49" y1="35" x2="590.49" y2="645" style="stroke-width: 0.5;stroke: rgb(192,192,192);stroke-opacity: 1.0;stroke-linejoin: bevel;stroke-dasharray: 2.0, 2.0;shape-rendering:crispEdges;" transform="matrix(1,0,0,1,0,0)" clip-path="url(#_439112048263680clip-2)"/><line x1="657.51" y1="35" x2="657.51" y2="645" style="stroke-width: 0.5;stroke: rgb(192,192,192);stroke-opacity: 1.0;stroke-linejoin: bevel;stroke-dasharray: 2.0, 2.0;shape-rendering:crispEdges;" transform="matrix(1,0,0,1,0,0)" clip-path="url(#_439112048263680clip-2)"/><line x1="724.52" y1="35" x2="724.52" y2="645" style="stroke-width: 0.5;stroke: rgb(192,192,192);stroke-opacity: 1.0;stroke-linejoin: bevel;stroke-dasharray: 2.0, 2.0;shape-rendering:crispEdges;" transform="matrix(1,0,0,1,0,0)" clip-path="url(#_439112048263680clip-2)"/><line x1="791.53" y1="35" x2="791.53" y2="645" style="stroke-width: 0.5;stroke: rgb(192,192,192);stroke-opacity: 1.0;stroke-linejoin: bevel;stroke-dasharray: 2.0, 2.0;shape-rendering:crispEdges;" transform="matrix(1,0,0,1,0,0)" clip-path="url(#_439112048263680clip-2)"/><line x1="858.55" y1="35" x2="858.55" y2="645" style="stroke-width: 0.5;stroke: rgb(192,192,192);stroke-opacity: 1.0;stroke-linejoin: bevel;stroke-dasharray: 2.0, 2.0;shape-rendering:crispEdges;" transform="matrix(1,0,0,1,0,0)" clip-path="url(#_439112048263680clip-2)"/><line x1="925.56" y1="35" x2="925.56" y2="645" style="stroke-width: 0.5;stroke: rgb(192,192,192);stroke-opacity: 1.0;stroke-linejoin: bevel;stroke-dasharray: 2.0, 2.0;shape-rendering:crispEdges;" transform="matrix(1,0,0,1,0,0)" clip-path="url(#_439112048263680clip-2)"/><line x1="992.57" y1="35" x2="992.57" y2="645" style="stroke-width: 0.5;stroke: rgb(192,192,192);stroke-opacity: 1.0;stroke-linejoin: bevel;stroke-dasharray: 2.0, 2.0;shape-rendering:crispEdges;" transform="matrix(1,0,0,1,0,0)" clip-path="url(#_439112048263680clip-2)"/><line x1="1059.58" y1="35" x2="1059.58" y2="645" style="stroke-width: 0.5;stroke: rgb(192,192,192);stroke-opacity: 1.0;stroke-linejoin: bevel;stroke-dasharray: 2.0, 2.0;shape-rendering:crispEdges;" transform="matrix(1,0,0,1,0,0)" clip-path="url(#_439112048263680clip-2)"/><line x1="1126.6" y1="35" x2="1126.6" y2="645" style="stroke-width: 0.5;stroke: rgb(192,192,192);stroke-opacity: 1.0;stroke-linejoin: bevel;stroke-dasharray: 2.0, 2.0;shape-rendering:crispEdges;" transform="matrix(1,0,0,1,0,0)" clip-path="url(#_439112048263680clip-2)"/><line x1="108" y1="625.13" x2="1140" y2="625.13" style="stroke-width: 0.5;stroke: rgb(192,192,192);stroke-opacity: 1.0;stroke-linejoin: bevel;stroke-dasharray: 2.0, 2.0;shape-rendering:crispEdges;" transform="matrix(1,0,0,1,0,0)" clip-path="url(#_439112048263680clip-2)"/><line x1="108" y1="589" x2="1140" y2="589" style="stroke-width: 0.5;stroke: rgb(192,192,192);stroke-opacity: 1.0;stroke-linejoin: bevel;stroke-dasharray: 2.0, 2.0;shape-rendering:crispEdges;" transform="matrix(1,0,0,1,0,0)" clip-path="url(#_439112048263680clip-2)"/><line x1="108" y1="552.88" x2="1140" y2="552.88" style="stroke-width: 0.5;stroke: rgb(192,192,192);stroke-opacity: 1.0;stroke-linejoin: bevel;stroke-dasharray: 2.0, 2.0;shape-rendering:crispEdges;" transform="matrix(1,0,0,1,0,0)" clip-path="url(#_439112048263680clip-2)"/><line x1="108" y1="516.76" x2="1140" y2="516.76" style="stroke-width: 0.5;stroke: rgb(192,192,192);stroke-opacity: 1.0;stroke-linejoin: bevel;stroke-dasharray: 2.0, 2.0;shape-rendering:crispEdges;" transform="matrix(1,0,0,1,0,0)" clip-path="url(#_439112048263680clip-2)"/><line x1="108" y1="480.64" x2="1140" y2="480.64" style="stroke-width: 0.5;stroke: rgb(192,192,192);stroke-opacity: 1.0;stroke-linejoin: bevel;stroke-dasharray: 2.0, 2.0;shape-rendering:crispEdges;" transform="matrix(1,0,0,1,0,0)" clip-path="url(#_439112048263680clip-2)"/><line x1="108" y1="444.52" x2="1140" y2="444.52" style="stroke-width: 0.5;stroke: rgb(192,192,192);stroke-opacity: 1.0;stroke-linejoin: bevel;stroke-dasharray: 2.0, 2.0;shape-rendering:crispEdges;" transform="matrix(1,0,0,1,0,0)" clip-path="url(#_439112048263680clip-2)"/><line x1="108" y1="408.4" x2="1140" y2="408.4" style="stroke-width: 0.5;stroke: rgb(192,192,192);stroke-opacity: 1.0;stroke-linejoin: bevel;stroke-dasharray: 2.0, 2.0;shape-rendering:crispEdges;" transform="matrix(1,0,0,1,0,0)" clip-path="url(#_439112048263680clip-2)"/><line x1="108" y1="372.28" x2="1140" y2="372.28" style="stroke-width: 0.5;stroke: rgb(192,192,192);stroke-opacity: 1.0;stroke-linejoin: bevel;stroke-dasharray: 2.0, 2.0;shape-rendering:crispEdges;" transform="matrix(1,0,0,1,0,0)" clip-path="url(#_439112048263680clip-2)"/><line x1="108" y1="336.16" x2="1140" y2="336.16" style="stroke-width: 0.5;stroke: rgb(192,192,192);stroke-opacity: 1.0;stroke-linejoin: bevel;stroke-dasharray: 2.0, 2.0;shape-rendering:crispEdges;" transform="matrix(1,0,0,1,0,0)" clip-path="url(#_439112048263680clip-2)"/><line x1="108" y1="300.04" x2="1140" y2="300.04" style="stroke-width: 0.5;stroke: rgb(192,192,192);stroke-opacity: 1.0;stroke-linejoin: bevel;stroke-dasharray: 2.0, 2.0;shape-rendering:crispEdges;" transform="matrix(1,0,0,1,0,0)" clip-path="url(#_439112048263680clip-2)"/><line x1="108" y1="263.92" x2="1140" y2="263.92" style="stroke-width: 0.5;stroke: rgb(192,192,192);stroke-opacity: 1.0;stroke-linejoin: bevel;stroke-dasharray: 2.0, 2.0;shape-rendering:crispEdges;" transform="matrix(1,0,0,1,0,0)" clip-path="url(#_439112048263680clip-2)"/><line x1="108" y1="227.8" x2="1140" y2="227.8" style="stroke-width: 0.5;stroke: rgb(192,192,192);stroke-opacity: 1.0;stroke-linejoin: bevel;stroke-dasharray: 2.0, 2.0;shape-rendering:crispEdges;" transform="matrix(1,0,0,1,0,0)" clip-path="url(#_439112048263680clip-2)"/><line x1="108" y1="191.68" x2="1140" y2="191.68" style="stroke-width: 0.5;stroke: rgb(192,192,192);stroke-opacity: 1.0;stroke-linejoin: bevel;stroke-dasharray: 2.0, 2.0;shape-rendering:crispEdges;" transform="matrix(1,0,0,1,0,0)" clip-path="url(#_439112048263680clip-2)"/><line x1="108" y1="155.56" x2="1140" y2="155.56" style="stroke-width: 0.5;stroke: rgb(192,192,192);stroke-opacity: 1.0;stroke-linejoin: bevel;stroke-dasharray: 2.0, 2.0;shape-rendering:crispEdges;" transform="matrix(1,0,0,1,0,0)" clip-path="url(#_439112048263680clip-2)"/><line x1="108" y1="119.44" x2="1140" y2="119.44" style="stroke-width: 0.5;stroke: rgb(192,192,192);stroke-opacity: 1.0;stroke-linejoin: bevel;stroke-dasharray: 2.0, 2.0;shape-rendering:crispEdges;" transform="matrix(1,0,0,1,0,0)" clip-path="url(#_439112048263680clip-2)"/><line x1="108" y1="83.32" x2="1140" y2="83.32" style="stroke-width: 0.5;stroke: rgb(192,192,192);stroke-opacity: 1.0;stroke-linejoin: bevel;stroke-dasharray: 2.0, 2.0;shape-rendering:crispEdges;" transform="matrix(1,0,0,1,0,0)" clip-path="url(#_439112048263680clip-2)"/><line x1="108" y1="47.2" x2="1140" y2="47.2" style="stroke-width: 0.5;stroke: rgb(192,192,192);stroke-opacity: 1.0;stroke-linejoin: bevel;stroke-dasharray: 2.0, 2.0;shape-rendering:crispEdges;" transform="matrix(1,0,0,1,0,0)" clip-path="url(#_439112048263680clip-2)"/><line x1="188.42" y1="594.64" x2="234.27" y2="553.14" style="stroke-width: 3.0;stroke: rgb(0,0,0);stroke-opacity: 1.0;stroke-linecap: square;shape-rendering:geometricPrecision;" transform="matrix(1,0,0,1,0,0)" clip-path="url(#_439112048263680clip-2)"/><line x1="234.27" y1="553.14" x2="280.12" y2="511.65" style="stroke-width: 3.0;stroke: rgb(0,0,0);stroke-opacity: 1.0;stroke-linecap: square;shape-rendering:geometricPrecision;" transform="matrix(1,0,0,1,0,0)" clip-path="url(#_439112048263680clip-2)"/><line x1="280.12" y1="511.65" x2="325.97" y2="470.16" style="stroke-width: 3.0;stroke: rgb(0,0,0);stroke-opacity: 1.0;stroke-linecap: square;shape-rendering:geometricPrecision;" transform="matrix(1,0,0,1,0,0)" clip-path="url(#_439112048263680clip-2)"/><line x1="325.97" y1="470.16" x2="371.82" y2="428.67" style="stroke-width: 3.0;stroke: rgb(0,0,0);stroke-opacity: 1.0;stroke-linecap: square;shape-rendering:geometricPrecision;" transform="matrix(1,0,0,1,0,0)" clip-path="url(#_439112048263680clip-2)"/><line x1="371.82" y1="428.67" x2="417.67" y2="387.18" style="stroke-width: 3.0;stroke: rgb(0,0,0);stroke-opacity: 1.0;stroke-linecap: square;shape-rendering:geometricPrecision;" transform="matrix(1,0,0,1,0,0)" clip-path="url(#_439112048263680clip-2)"/><line x1="417.67" y1="387.18" x2="463.52" y2="345.69" style="stroke-width: 3.0;stroke: rgb(0,0,0);stroke-opacity: 1.0;stroke-linecap: square;shape-rendering:geometricPrecision;" transform="matrix(1,0,0,1,0,0)" clip-path="url(#_439112048263680clip-2)"/><line x1="463.52" y1="345.69" x2="509.37" y2="304.2" style="stroke-width: 3.0;stroke: rgb(0,0,0);stroke-opacity: 1.0;stroke-linecap: square;shape-rendering:geometricPrecision;" transform="matrix(1,0,0,1,0,0)" clip-path="url(#_439112048263680clip-2)"/><line x1="509.37" y1="304.2" x2="555.22" y2="263.02" style="stroke-width: 3.0;stroke: rgb(0,0,0);stroke-opacity: 1.0;stroke-linecap: square;shape-rendering:geometricPrecision;" transform="matrix(1,0,0,1,0,0)" clip-path="url(#_439112048263680clip-2)"/><line x1="555.22" y1="263.02" x2="601.07" y2="223.11" style="stroke-width: 3.0;stroke: rgb(0,0,0);stroke-opacity: 1.0;stroke-linecap: square;shape-rendering:geometricPrecision;" transform="matrix(1,0,0,1,0,0)" clip-path="url(#_439112048263680clip-2)"/><line x1="601.07" y1="223.11" x2="646.93" y2="185.63" style="stroke-width: 3.0;stroke: rgb(0,0,0);stroke-opacity: 1.0;stroke-linecap: square;shape-rendering:geometricPrecision;" transform="matrix(1,0,0,1,0,0)" clip-path="url(#_439112048263680clip-2)"/><line x1="646.93" y1="185.63" x2="692.78" y2="151.9" style="stroke-width: 3.0;stroke: rgb(0,0,0);stroke-opacity: 1.0;stroke-linecap: square;shape-rendering:geometricPrecision;" transform="matrix(1,0,0,1,0,0)" clip-path="url(#_439112048263680clip-2)"/><line x1="692.78" y1="151.9" x2="738.63" y2="123.34" style="stroke-width: 3.0;stroke: rgb(0,0,0);stroke-opacity: 1.0;stroke-linecap: square;shape-rendering:geometricPrecision;" transform="matrix(1,0,0,1,0,0)" clip-path="url(#_439112048263680clip-2)"/><line x1="738.63" y1="123.34" x2="784.48" y2="101.56" style="stroke-width: 3.0;stroke: rgb(0,0,0);stroke-opacity: 1.0;stroke-linecap: square;shape-rendering:geometricPrecision;" transform="matrix(1,0,0,1,0,0)" clip-path="url(#_439112048263680clip-2)"/><line x1="784.48" y1="101.56" x2="830.33" y2="88.28" style="stroke-width: 3.0;stroke: rgb(0,0,0);stroke-opacity: 1.0;stroke-linecap: square;shape-rendering:geometricPrecision;" transform="matrix(1,0,0,1,0,0)" clip-path="url(#_439112048263680clip-2)"/><line x1="830.33" y1="88.28" x2="876.18" y2="85.36" style="stroke-width: 3.0;stroke: rgb(0,0,0);stroke-opacity: 1.0;stroke-linecap: square;shape-rendering:geometricPrecision;" transform="matrix(1,0,0,1,0,0)" clip-path="url(#_439112048263680clip-2)"/><line x1="876.18" y1="85.36" x2="922.03" y2="94.82" style="stroke-width: 3.0;stroke: rgb(0,0,0);stroke-opacity: 1.0;stroke-linecap: square;shape-rendering:geometricPrecision;" transform="matrix(1,0,0,1,0,0)" clip-path="url(#_439112048263680clip-2)"/><line x1="922.03" y1="94.82" x2="967.88" y2="118.81" style="stroke-width: 3.0;stroke: rgb(0,0,0);stroke-opacity: 1.0;stroke-linecap: square;shape-rendering:geometricPrecision;" transform="matrix(1,0,0,1,0,0)" clip-path="url(#_439112048263680clip-2)"/><line x1="967.88" y1="118.81" x2="1013.73" y2="159.61" style="stroke-width: 3.0;stroke: rgb(0,0,0);stroke-opacity: 1.0;stroke-linecap: square;shape-rendering:geometricPrecision;" transform="matrix(1,0,0,1,0,0)" clip-path="url(#_439112048263680clip-2)"/><line x1="1013.73" y1="159.61" x2="1059.58" y2="219.65" style="stroke-width: 3.0;stroke: rgb(0,0,0);stroke-opacity: 1.0;stroke-linecap: square;shape-rendering:geometricPrecision;" transform="matrix(1,0,0,1,0,0)" clip-path="url(#_439112048263680clip-2)"/><rect x="108" y="35" width="1032" height="610" style="stroke-width: 0.5;stroke: rgb(0,0,0);stroke-opacity: 1.0;stroke-linecap: round;stroke-linejoin: round;shape-rendering:crispEdges;; fill: none" transform="matrix(1,0,0,1,0,0)" clip-path="url(#_439112048263680clip-0)"/></svg>
