<!DOCTYPE svg PUBLIC "-//W3C//DTD SVG 1.1//EN" "http://www.w3.org/Graphics/SVG/1.1/DTD/svg11.dtd">
<svg xmlns="http://www.w3.org/2000/svg" xmlns:xlink="http://www.w3.org/1999/xlink" xmlns:jfreesvg="http://www.jfree.org/jfreesvg/svg" width="1000" height="1000" text-rendering="auto" shape-rendering="auto">
<defs><clipPath id="_254787109475600clip-0"><path d="M 0 0 L 1000 0 L 1000 1000 L 0 1000 L 0 0 Z "/></clipPath>
<clipPath id="_254787109475600clip-1"><path d="M 503.5 442.5 L 503.5 1442.5 L -496.5 1442.5 L -496.5 442.5 L 503.5 442.5 Z "/></clipPath>
<clipPath id="_254787109475600clip-2"><path d="M 87 35 L 87 911 L 988 911 L 988 35 Z "/></clipPath>
</defs>
<rect x="0" y="0" width="1000" height="1000" style="fill: rgb(245,245,245); fill-opacity: 1.0" transform="matrix(1,0,0,1,0,0)" clip-path="url(#_254787109475600clip-0)"/><g transform="matrix(1,0,0,1,0,0)"><text x="348" y="21.01" style="fill: rgb(0,0,0); fill-opacity: 1.0; font-family: Tahoma; font-size: 20px; font-weight: bold;" clip-path="url(#_254787109475600clip-0)">Wing Planform representation</text></g><rect x="87" y="35" width="901" height="876" style="fill: rgb(240,248,255); fill-opacity: 0.0" transform="matrix(1,0,0,1,0,0)" clip-path="url(#_254787109475600clip-0)"/><line x1="87" y1="915" x2="988" y2="915" style="stroke-width: 0.5;stroke: rgb(128,128,128);stroke-opacity: 1.0;stroke-linecap: square;shape-rendering:crispEdges;" transform="matrix(1,0,0,1,0,0)" clip-path="url(#_254787109475600clip-0)"/><g transform="matrix(1,0,0,1,0,0)"><text x="120.95" y="945.69" style="fill: rgb(64,64,64); fill-opacity: 1.0; font-family: sans-serif; font-size: 25px;" clip-path="url(#_254787109475600clip-0)">0</text></g><line x1="127.95" y1="917" x2="127.95" y2="915" style="stroke-width: 0.5;stroke: rgb(128,128,128);stroke-opacity: 1.0;stroke-linecap: square;shape-rendering:crispEdges;" transform="matrix(1,0,0,1,0,0)" clip-path="url(#_254787109475600clip-0)"/><g transform="matrix(1,0,0,1,0,0)"><text x="185.35" y="945.69" style="fill: rgb(64,64,64); fill-opacity: 1.0; font-family: sans-serif; font-size: 25px;" clip-path="url(#_254787109475600clip-0)">1</text></g><line x1="192.35" y1="917" x2="192.35" y2="915" style="stroke-width: 0.5;stroke: rgb(128,128,128);stroke-opacity: 1.0;stroke-linecap: square;shape-rendering:crispEdges;" transform="matrix(1,0,0,1,0,0)" clip-path="url(#_254787109475600clip-0)"/><g transform="matrix(1,0,0,1,0,0)"><text x="249.74" y="945.69" style="fill: rgb(64,64,64); fill-opacity: 1.0; font-family: sans-serif; font-size: 25px;" clip-path="url(#_254787109475600clip-0)">2</text></g><line x1="256.74" y1="917" x2="256.74" y2="915" style="stroke-width: 0.5;stroke: rgb(128,128,128);stroke-opacity: 1.0;stroke-linecap: square;shape-rendering:crispEdges;" transform="matrix(1,0,0,1,0,0)" clip-path="url(#_254787109475600clip-0)"/><g transform="matrix(1,0,0,1,0,0)"><text x="314.14" y="945.69" style="fill: rgb(64,64,64); fill-opacity: 1.0; font-family: sans-serif; font-size: 25px;" clip-path="url(#_254787109475600clip-0)">3</text></g><line x1="321.14" y1="917" x2="321.14" y2="915" style="stroke-width: 0.5;stroke: rgb(128,128,128);stroke-opacity: 1.0;stroke-linecap: square;shape-rendering:crispEdges;" transform="matrix(1,0,0,1,0,0)" clip-path="url(#_254787109475600clip-0)"/><g transform="matrix(1,0,0,1,0,0)"><text x="378.53" y="945.69" style="fill: rgb(64,64,64); fill-opacity: 1.0; font-family: sans-serif; font-size: 25px;" clip-path="url(#_254787109475600clip-0)">4</text></g><line x1="385.53" y1="917" x2="385.53" y2="915" style="stroke-width: 0.5;stroke: rgb(128,128,128);stroke-opacity: 1.0;stroke-linecap: square;shape-rendering:crispEdges;" transform="matrix(1,0,0,1,0,0)" clip-path="url(#_254787109475600clip-0)"/><g transform="matrix(1,0,0,1,0,0)"><text x="442.93" y="945.69" style="fill: rgb(64,64,64); fill-opacity: 1.0; font-family: sans-serif; font-size: 25px;" clip-path="url(#_254787109475600clip-0)">5</text></g><line x1="449.93" y1="917" x2="449.93" y2="915" style="stroke-width: 0.5;stroke: rgb(128,128,128);stroke-opacity: 1.0;stroke-linecap: square;shape-rendering:crispEdges;" transform="matrix(1,0,0,1,0,0)" clip-path="url(#_254787109475600clip-0)"/><g transform="matrix(1,0,0,1,0,0)"><text x="507.32" y="945.69" style="fill: rgb(64,64,64); fill-opacity: 1.0; font-family: sans-serif; font-size: 25px;" clip-path="url(#_254787109475600clip-0)">6</text></g><line x1="514.32" y1="917" x2="514.32" y2="915" style="stroke-width: 0.5;stroke: rgb(128,128,128);stroke-opacity: 1.0;stroke-linecap: square;shape-rendering:crispEdges;" transform="matrix(1,0,0,1,0,0)" clip-path="url(#_254787109475600clip-0)"/><g transform="matrix(1,0,0,1,0,0)"><text x="571.72" y="945.69" style="fill: rgb(64,64,64); fill-opacity: 1.0; font-family: sans-serif; font-size: 25px;" clip-path="url(#_254787109475600clip-0)">7</text></g><line x1="578.72" y1="917" x2="578.72" y2="915" style="stroke-width: 0.5;stroke: rgb(128,128,128);stroke-opacity: 1.0;stroke-linecap: square;shape-rendering:crispEdges;" transform="matrix(1,0,0,1,0,0)" clip-path="url(#_254787109475600clip-0)"/><g transform="matrix(1,0,0,1,0,0)"><text x="636.11" y="945.69" style="fill: rgb(64,64,64); fill-opacity: 1.0; font-family: sans-serif; font-size: 25px;" clip-path="url(#_254787109475600clip-0)">8</text></g><line x1="643.11" y1="917" x2="643.11" y2="915" style="stroke-width: 0.5;stroke: rgb(128,128,128);stroke-opacity: 1.0;stroke-linecap: square;shape-rendering:crispEdges;" transform="matrix(1,0,0,1,0,0)" clip-path="url(#_254787109475600clip-0)"/><g transform="matrix(1,0,0,1,0,0)"><text x="700.5" y="945.69" style="fill: rgb(64,64,64); fill-opacity: 1.0; font-family: sans-serif; font-size: 25px;" clip-path="url(#_254787109475600clip-0)">9</text></g><line x1="707.5" y1="917" x2="707.5" y2="915" style="stroke-width: 0.5;stroke: rgb(128,128,128);stroke-opacity: 1.0;stroke-linecap: square;shape-rendering:crispEdges;" transform="matrix(1,0,0,1,0,0)" clip-path="url(#_254787109475600clip-0)"/><g transform="matrix(1,0,0,1,0,0)"><text x="757.9" y="945.69" style="fill: rgb(64,64,64); fill-opacity: 1.0; font-family: sans-serif; font-size: 25px;" clip-path="url(#_254787109475600clip-0)">10</text></g><line x1="771.9" y1="917" x2="771.9" y2="915" style="stroke-width: 0.5;stroke: rgb(128,128,128);stroke-opacity: 1.0;stroke-linecap: square;shape-rendering:crispEdges;" transform="matrix(1,0,0,1,0,0)" clip-path="url(#_254787109475600clip-0)"/><g transform="matrix(1,0,0,1,0,0)"><text x="822.29" y="945.69" style="fill: rgb(64,64,64); fill-opacity: 1.0; font-family: sans-serif; font-size: 25px;" clip-path="url(#_254787109475600clip-0)">11</text></g><line x1="836.29" y1="917" x2="836.29" y2="915" style="stroke-width: 0.5;stroke: rgb(128,128,128);stroke-opacity: 1.0;stroke-linecap: square;shape-rendering:crispEdges;" transform="matrix(1,0,0,1,0,0)" clip-path="url(#_254787109475600clip-0)"/><g transform="matrix(1,0,0,1,0,0)"><text x="886.69" y="945.69" style="fill: rgb(64,64,64); fill-opacity: 1.0; font-family: sans-serif; font-size: 25px;" clip-path="url(#_254787109475600clip-0)">12</text></g><line x1="900.69" y1="917" x2="900.69" y2="915" style="stroke-width: 0.5;stroke: rgb(128,128,128);stroke-opacity: 1.0;stroke-linecap: square;shape-rendering:crispEdges;" transform="matrix(1,0,0,1,0,0)" clip-path="url(#_254787109475600clip-0)"/><g transform="matrix(1,0,0,1,0,0)"><text x="951.08" y="945.69" style="fill: rgb(64,64,64); fill-opacity: 1.0; font-family: sans-serif; font-size: 25px;" clip-path="url(#_254787109475600clip-0)">13</text></g><line x1="965.08" y1="917" x2="965.08" y2="915" style="stroke-width: 0.5;stroke: rgb(128,128,128);stroke-opacity: 1.0;stroke-linecap: square;shape-rendering:crispEdges;" transform="matrix(1,0,0,1,0,0)" clip-path="url(#_254787109475600clip-0)"/><g transform="matrix(1,0,0,1,0,0)"><text x="503.5" y="984.87" style="fill: rgb(64,64,64); fill-opacity: 1.0; font-family: sans-serif; font-size: 30px;" clip-path="url(#_254787109475600clip-0)">x (m)</text></g><line x1="83" y1="35" x2="83" y2="911" style="stroke-width: 0.5;stroke: rgb(128,128,128);stroke-opacity: 1.0;stroke-linecap: square;shape-rendering:crispEdges;" transform="matrix(1,0,0,1,0,0)" clip-path="url(#_254787109475600clip-0)"/><g transform="matrix(1,0,0,1,0,0)"><text x="55" y="73.9" style="fill: rgb(64,64,64); fill-opacity: 1.0; font-family: sans-serif; font-size: 25px;" clip-path="url(#_254787109475600clip-0)">-5</text></g><line x1="81" y1="63.71" x2="83" y2="63.71" style="stroke-width: 0.5;stroke: rgb(128,128,128);stroke-opacity: 1.0;stroke-linecap: square;shape-rendering:crispEdges;" transform="matrix(1,0,0,1,0,0)" clip-path="url(#_254787109475600clip-0)"/><g transform="matrix(1,0,0,1,0,0)"><text x="55" y="136.51" style="fill: rgb(64,64,64); fill-opacity: 1.0; font-family: sans-serif; font-size: 25px;" clip-path="url(#_254787109475600clip-0)">-4</text></g><line x1="81" y1="126.32" x2="83" y2="126.32" style="stroke-width: 0.5;stroke: rgb(128,128,128);stroke-opacity: 1.0;stroke-linecap: square;shape-rendering:crispEdges;" transform="matrix(1,0,0,1,0,0)" clip-path="url(#_254787109475600clip-0)"/><g transform="matrix(1,0,0,1,0,0)"><text x="55" y="199.11" style="fill: rgb(64,64,64); fill-opacity: 1.0; font-family: sans-serif; font-size: 25px;" clip-path="url(#_254787109475600clip-0)">-3</text></g><line x1="81" y1="188.92" x2="83" y2="188.92" style="stroke-width: 0.5;stroke: rgb(128,128,128);stroke-opacity: 1.0;stroke-linecap: square;shape-rendering:crispEdges;" transform="matrix(1,0,0,1,0,0)" clip-path="url(#_254787109475600clip-0)"/><g transform="matrix(1,0,0,1,0,0)"><text x="55" y="261.72" style="fill: rgb(64,64,64); fill-opacity: 1.0; font-family: sans-serif; font-size: 25px;" clip-path="url(#_254787109475600clip-0)">-2</text></g><line x1="81" y1="251.53" x2="83" y2="251.53" style="stroke-width: 0.5;stroke: rgb(128,128,128);stroke-opacity: 1.0;stroke-linecap: square;shape-rendering:crispEdges;" transform="matrix(1,0,0,1,0,0)" clip-path="url(#_254787109475600clip-0)"/><g transform="matrix(1,0,0,1,0,0)"><text x="55" y="324.33" style="fill: rgb(64,64,64); fill-opacity: 1.0; font-family: sans-serif; font-size: 25px;" clip-path="url(#_254787109475600clip-0)">-1</text></g><line x1="81" y1="314.14" x2="83" y2="314.14" style="stroke-width: 0.5;stroke: rgb(128,128,128);stroke-opacity: 1.0;stroke-linecap: square;shape-rendering:crispEdges;" transform="matrix(1,0,0,1,0,0)" clip-path="url(#_254787109475600clip-0)"/><g transform="matrix(1,0,0,1,0,0)"><text x="63" y="386.94" style="fill: rgb(64,64,64); fill-opacity: 1.0; font-family: sans-serif; font-size: 25px;" clip-path="url(#_254787109475600clip-0)">0</text></g><line x1="81" y1="376.75" x2="83" y2="376.75" style="stroke-width: 0.5;stroke: rgb(128,128,128);stroke-opacity: 1.0;stroke-linecap: square;shape-rendering:crispEdges;" transform="matrix(1,0,0,1,0,0)" clip-path="url(#_254787109475600clip-0)"/><g transform="matrix(1,0,0,1,0,0)"><text x="63" y="449.54" style="fill: rgb(64,64,64); fill-opacity: 1.0; font-family: sans-serif; font-size: 25px;" clip-path="url(#_254787109475600clip-0)">1</text></g><line x1="81" y1="439.35" x2="83" y2="439.35" style="stroke-width: 0.5;stroke: rgb(128,128,128);stroke-opacity: 1.0;stroke-linecap: square;shape-rendering:crispEdges;" transform="matrix(1,0,0,1,0,0)" clip-path="url(#_254787109475600clip-0)"/><g transform="matrix(1,0,0,1,0,0)"><text x="63" y="512.15" style="fill: rgb(64,64,64); fill-opacity: 1.0; font-family: sans-serif; font-size: 25px;" clip-path="url(#_254787109475600clip-0)">2</text></g><line x1="81" y1="501.96" x2="83" y2="501.96" style="stroke-width: 0.5;stroke: rgb(128,128,128);stroke-opacity: 1.0;stroke-linecap: square;shape-rendering:crispEdges;" transform="matrix(1,0,0,1,0,0)" clip-path="url(#_254787109475600clip-0)"/><g transform="matrix(1,0,0,1,0,0)"><text x="63" y="574.76" style="fill: rgb(64,64,64); fill-opacity: 1.0; font-family: sans-serif; font-size: 25px;" clip-path="url(#_254787109475600clip-0)">3</text></g><line x1="81" y1="564.57" x2="83" y2="564.57" style="stroke-width: 0.5;stroke: rgb(128,128,128);stroke-opacity: 1.0;stroke-linecap: square;shape-rendering:crispEdges;" transform="matrix(1,0,0,1,0,0)" clip-path="url(#_254787109475600clip-0)"/><g transform="matrix(1,0,0,1,0,0)"><text x="63" y="637.37" style="fill: rgb(64,64,64); fill-opacity: 1.0; font-family: sans-serif; font-size: 25px;" clip-path="url(#_254787109475600clip-0)">4</text></g><line x1="81" y1="627.18" x2="83" y2="627.18" style="stroke-width: 0.5;stroke: rgb(128,128,128);stroke-opacity: 1.0;stroke-linecap: square;shape-rendering:crispEdges;" transform="matrix(1,0,0,1,0,0)" clip-path="url(#_254787109475600clip-0)"/><g transform="matrix(1,0,0,1,0,0)"><text x="63" y="699.97" style="fill: rgb(64,64,64); fill-opacity: 1.0; font-family: sans-serif; font-size: 25px;" clip-path="url(#_254787109475600clip-0)">5</text></g><line x1="81" y1="689.79" x2="83" y2="689.79" style="stroke-width: 0.5;stroke: rgb(128,128,128);stroke-opacity: 1.0;stroke-linecap: square;shape-rendering:crispEdges;" transform="matrix(1,0,0,1,0,0)" clip-path="url(#_254787109475600clip-0)"/><g transform="matrix(1,0,0,1,0,0)"><text x="63" y="762.58" style="fill: rgb(64,64,64); fill-opacity: 1.0; font-family: sans-serif; font-size: 25px;" clip-path="url(#_254787109475600clip-0)">6</text></g><line x1="81" y1="752.39" x2="83" y2="752.39" style="stroke-width: 0.5;stroke: rgb(128,128,128);stroke-opacity: 1.0;stroke-linecap: square;shape-rendering:crispEdges;" transform="matrix(1,0,0,1,0,0)" clip-path="url(#_254787109475600clip-0)"/><g transform="matrix(1,0,0,1,0,0)"><text x="63" y="825.19" style="fill: rgb(64,64,64); fill-opacity: 1.0; font-family: sans-serif; font-size: 25px;" clip-path="url(#_254787109475600clip-0)">7</text></g><line x1="81" y1="815" x2="83" y2="815" style="stroke-width: 0.5;stroke: rgb(128,128,128);stroke-opacity: 1.0;stroke-linecap: square;shape-rendering:crispEdges;" transform="matrix(1,0,0,1,0,0)" clip-path="url(#_254787109475600clip-0)"/><g transform="matrix(1,0,0,1,0,0)"><text x="63" y="887.8" style="fill: rgb(64,64,64); fill-opacity: 1.0; font-family: sans-serif; font-size: 25px;" clip-path="url(#_254787109475600clip-0)">8</text></g><line x1="81" y1="877.61" x2="83" y2="877.61" style="stroke-width: 0.5;stroke: rgb(128,128,128);stroke-opacity: 1.0;stroke-linecap: square;shape-rendering:crispEdges;" transform="matrix(1,0,0,1,0,0)" clip-path="url(#_254787109475600clip-0)"/><g style="fill: rgb(64,64,64); fill-opacity: 1.0; stroke: none" transform="matrix(0,-1,1,0,-442.5,503.5)" clip-path="url(#_254787109475600clip-1)"><path d="M -1.64 490.91 L -1.94 488.44 Q -1.06 488.68 -0.42 488.68 Q 0.45 488.68 0.98 488.39 Q 1.52 488.1 1.84 487.57 Q 2.09 487.16 2.66 485.6 Q 2.72 485.38 2.89 484.96 L -3.02 469.36 L -0.17 469.36 L 3.06 478.38 Q 3.69 480.1 4.19 481.99 Q 4.64 480.16 5.28 478.44 L 8.59 469.36 L 11.23 469.36 L 5.31 485.19 Q 4.36 487.75 3.84 488.72 Q 3.14 490.02 2.23 490.63 Q 1.31 491.24 0.06 491.24 Q -0.7 491.24 -1.64 490.91 Z  M 26.85 491.24 Q 24.66 488.49 23.16 484.79 Q 21.65 481.1 21.65 477.15 Q 21.65 473.66 22.77 470.47 Q 24.1 466.75 26.85 463.08 L 28.74 463.08 Q 26.98 466.13 26.4 467.44 Q 25.51 469.46 24.99 471.66 Q 24.37 474.4 24.37 477.16 Q 24.37 484.21 28.74 491.24 L 26.85 491.24 Z  M 31.81 484.93 L 31.81 469.36 L 34.17 469.36 L 34.17 471.55 Q 34.89 470.41 36.11 469.72 Q 37.33 469.02 38.87 469.02 Q 40.61 469.02 41.72 469.74 Q 42.83 470.46 43.28 471.74 Q 45.12 469.02 48.08 469.02 Q 50.39 469.02 51.64 470.3 Q 52.89 471.58 52.89 474.25 L 52.89 484.93 L 50.26 484.93 L 50.26 475.13 Q 50.26 473.55 50 472.85 Q 49.75 472.15 49.08 471.72 Q 48.4 471.3 47.5 471.3 Q 45.86 471.3 44.77 472.4 Q 43.68 473.49 43.68 475.9 L 43.68 484.93 L 41.04 484.93 L 41.04 474.82 Q 41.04 473.07 40.4 472.18 Q 39.76 471.3 38.29 471.3 Q 37.18 471.3 36.24 471.89 Q 35.29 472.47 34.86 473.6 Q 34.43 474.72 34.43 476.85 L 34.43 484.93 L 31.81 484.93 Z  M 58.52 491.24 L 56.63 491.24 Q 61.02 484.21 61.02 477.16 Q 61.02 474.41 60.38 471.69 Q 59.88 469.5 58.99 467.47 Q 58.42 466.16 56.63 463.08 L 58.52 463.08 Q 61.27 466.75 62.6 470.47 Q 63.72 473.66 63.72 477.15 Q 63.72 481.1 62.21 484.79 Q 60.69 488.49 58.52 491.24 Z "/></g><line x1="87" y1="63.71" x2="988" y2="63.71" style="stroke-width: 0.5;stroke: rgb(128,128,128);stroke-opacity: 0.5;stroke-linejoin: bevel;stroke-dasharray: 2.0, 2.0;shape-rendering:crispEdges;" transform="matrix(1,0,0,1,0,0)" clip-path="url(#_254787109475600clip-2)"/><line x1="87" y1="126.32" x2="988" y2="126.32" style="stroke-width: 0.5;stroke: rgb(128,128,128);stroke-opacity: 0.5;stroke-linejoin: bevel;stroke-dasharray: 2.0, 2.0;shape-rendering:crispEdges;" transform="matrix(1,0,0,1,0,0)" clip-path="url(#_254787109475600clip-2)"/><line x1="87" y1="188.92" x2="988" y2="188.92" style="stroke-width: 0.5;stroke: rgb(128,128,128);stroke-opacity: 0.5;stroke-linejoin: bevel;stroke-dasharray: 2.0, 2.0;shape-rendering:crispEdges;" transform="matrix(1,0,0,1,0,0)" clip-path="url(#_254787109475600clip-2)"/><line x1="87" y1="251.53" x2="988" y2="251.53" style="stroke-width: 0.5;stroke: rgb(128,128,128);stroke-opacity: 0.5;stroke-linejoin: bevel;stroke-dasharray: 2.0, 2.0;shape-rendering:crispEdges;" transform="matrix(1,0,0,1,0,0)" clip-path="url(#_254787109475600clip-2)"/><line x1="87" y1="314.14" x2="988" y2="314.14" style="stroke-width: 0.5;stroke: rgb(128,128,128);stroke-opacity: 0.5;stroke-linejoin: bevel;stroke-dasharray: 2.0, 2.0;shape-rendering:crispEdges;" transform="matrix(1,0,0,1,0,0)" clip-path="url(#_254787109475600clip-2)"/><line x1="87" y1="376.75" x2="988" y2="376.75" style="stroke-width: 0.5;stroke: rgb(128,128,128);stroke-opacity: 0.5;stroke-linejoin: bevel;stroke-dasharray: 2.0, 2.0;shape-rendering:crispEdges;" transform="matrix(1,0,0,1,0,0)" clip-path="url(#_254787109475600clip-2)"/><line x1="87" y1="439.35" x2="988" y2="439.35" style="stroke-width: 0.5;stroke: rgb(128,128,128);stroke-opacity: 0.5;stroke-linejoin: bevel;stroke-dasharray: 2.0, 2.0;shape-rendering:crispEdges;" transform="matrix(1,0,0,1,0,0)" clip-path="url(#_254787109475600clip-2)"/><line x1="87" y1="501.96" x2="988" y2="501.96" style="stroke-width: 0.5;stroke: rgb(128,128,128);stroke-opacity: 0.5;stroke-linejoin: bevel;stroke-dasharray: 2.0, 2.0;shape-rendering:crispEdges;" transform="matrix(1,0,0,1,0,0)" clip-path="url(#_254787109475600clip-2)"/><line x1="87" y1="564.57" x2="988" y2="564.57" style="stroke-width: 0.5;stroke: rgb(128,128,128);stroke-opacity: 0.5;stroke-linejoin: bevel;stroke-dasharray: 2.0, 2.0;shape-rendering:crispEdges;" transform="matrix(1,0,0,1,0,0)" clip-path="url(#_254787109475600clip-2)"/><line x1="87" y1="627.18" x2="988" y2="627.18" style="stroke-width: 0.5;stroke: rgb(128,128,128);stroke-opacity: 0.5;stroke-linejoin: bevel;stroke-dasharray: 2.0, 2.0;shape-rendering:crispEdges;" transform="matrix(1,0,0,1,0,0)" clip-path="url(#_254787109475600clip-2)"/><line x1="87" y1="689.79" x2="988" y2="689.79" style="stroke-width: 0.5;stroke: rgb(128,128,128);stroke-opacity: 0.5;stroke-linejoin: bevel;stroke-dasharray: 2.0, 2.0;shape-rendering:crispEdges;" transform="matrix(1,0,0,1,0,0)" clip-path="url(#_254787109475600clip-2)"/><line x1="87" y1="752.39" x2="988" y2="752.39" style="stroke-width: 0.5;stroke: rgb(128,128,128);stroke-opacity: 0.5;stroke-linejoin: bevel;stroke-dasharray: 2.0, 2.0;shape-rendering:crispEdges;" transform="matrix(1,0,0,1,0,0)" clip-path="url(#_254787109475600clip-2)"/><line x1="87" y1="815" x2="988" y2="815" style="stroke-width: 0.5;stroke: rgb(128,128,128);stroke-opacity: 0.5;stroke-linejoin: bevel;stroke-dasharray: 2.0, 2.0;shape-rendering:crispEdges;" transform="matrix(1,0,0,1,0,0)" clip-path="url(#_254787109475600clip-2)"/><line x1="87" y1="877.61" x2="988" y2="877.61" style="stroke-width: 0.5;stroke: rgb(128,128,128);stroke-opacity: 0.5;stroke-linejoin: bevel;stroke-dasharray: 2.0, 2.0;shape-rendering:crispEdges;" transform="matrix(1,0,0,1,0,0)" clip-path="url(#_254787109475600clip-2)"/><line x1="127.95" y1="35" x2="127.95" y2="911" style="stroke-width: 0.5;stroke: rgb(128,128,128);stroke-opacity: 0.5;stroke-linejoin: bevel;stroke-dasharray: 2.0, 2.0;shape-rendering:crispEdges;" transform="matrix(1,0,0,1,0,0)" clip-path="url(#_254787109475600clip-2)"/><line x1="192.35" y1="35" x2="192.35" y2="911" style="stroke-width: 0.5;stroke: rgb(128,128,128);stroke-opacity: 0.5;stroke-linejoin: bevel;stroke-dasharray: 2.0, 2.0;shape-rendering:crispEdges;" transform="matrix(1,0,0,1,0,0)" clip-path="url(#_254787109475600clip-2)"/><line x1="256.74" y1="35" x2="256.74" y2="911" style="stroke-width: 0.5;stroke: rgb(128,128,128);stroke-opacity: 0.5;stroke-linejoin: bevel;stroke-dasharray: 2.0, 2.0;shape-rendering:crispEdges;" transform="matrix(1,0,0,1,0,0)" clip-path="url(#_254787109475600clip-2)"/><line x1="321.14" y1="35" x2="321.14" y2="911" style="stroke-width: 0.5;stroke: rgb(128,128,128);stroke-opacity: 0.5;stroke-linejoin: bevel;stroke-dasharray: 2.0, 2.0;shape-rendering:crispEdges;" transform="matrix(1,0,0,1,0,0)" clip-path="url(#_254787109475600clip-2)"/><line x1="385.53" y1="35" x2="385.53" y2="911" style="stroke-width: 0.5;stroke: rgb(128,128,128);stroke-opacity: 0.5;stroke-linejoin: bevel;stroke-dasharray: 2.0, 2.0;shape-rendering:crispEdges;" transform="matrix(1,0,0,1,0,0)" clip-path="url(#_254787109475600clip-2)"/><line x1="449.93" y1="35" x2="449.93" y2="911" style="stroke-width: 0.5;stroke: rgb(128,128,128);stroke-opacity: 0.5;stroke-linejoin: bevel;stroke-dasharray: 2.0, 2.0;shape-rendering:crispEdges;" transform="matrix(1,0,0,1,0,0)" clip-path="url(#_254787109475600clip-2)"/><line x1="514.32" y1="35" x2="514.32" y2="911" style="stroke-width: 0.5;stroke: rgb(128,128,128);stroke-opacity: 0.5;stroke-linejoin: bevel;stroke-dasharray: 2.0, 2.0;shape-rendering:crispEdges;" transform="matrix(1,0,0,1,0,0)" clip-path="url(#_254787109475600clip-2)"/><line x1="578.72" y1="35" x2="578.72" y2="911" style="stroke-width: 0.5;stroke: rgb(128,128,128);stroke-opacity: 0.5;stroke-linejoin: bevel;stroke-dasharray: 2.0, 2.0;shape-rendering:crispEdges;" transform="matrix(1,0,0,1,0,0)" clip-path="url(#_254787109475600clip-2)"/><line x1="643.11" y1="35" x2="643.11" y2="911" style="stroke-width: 0.5;stroke: rgb(128,128,128);stroke-opacity: 0.5;stroke-linejoin: bevel;stroke-dasharray: 2.0, 2.0;shape-rendering:crispEdges;" transform="matrix(1,0,0,1,0,0)" clip-path="url(#_254787109475600clip-2)"/><line x1="707.5" y1="35" x2="707.5" y2="911" style="stroke-width: 0.5;stroke: rgb(128,128,128);stroke-opacity: 0.5;stroke-linejoin: bevel;stroke-dasharray: 2.0, 2.0;shape-rendering:crispEdges;" transform="matrix(1,0,0,1,0,0)" clip-path="url(#_254787109475600clip-2)"/><line x1="771.9" y1="35" x2="771.9" y2="911" style="stroke-width: 0.5;stroke: rgb(128,128,128);stroke-opacity: 0.5;stroke-linejoin: bevel;stroke-dasharray: 2.0, 2.0;shape-rendering:crispEdges;" transform="matrix(1,0,0,1,0,0)" clip-path="url(#_254787109475600clip-2)"/><line x1="836.29" y1="35" x2="836.29" y2="911" style="stroke-width: 0.5;stroke: rgb(128,128,128);stroke-opacity: 0.5;stroke-linejoin: bevel;stroke-dasharray: 2.0, 2.0;shape-rendering:crispEdges;" transform="matrix(1,0,0,1,0,0)" clip-path="url(#_254787109475600clip-2)"/><line x1="900.69" y1="35" x2="900.69" y2="911" style="stroke-width: 0.5;stroke: rgb(128,128,128);stroke-opacity: 0.5;stroke-linejoin: bevel;stroke-dasharray: 2.0, 2.0;shape-rendering:crispEdges;" transform="matrix(1,0,0,1,0,0)" clip-path="url(#_254787109475600clip-2)"/><line x1="965.08" y1="35" x2="965.08" y2="911" style="stroke-width: 0.5;stroke: rgb(128,128,128);stroke-opacity: 0.5;stroke-linejoin: bevel;stroke-dasharray: 2.0, 2.0;shape-rendering:crispEdges;" transform="matrix(1,0,0,1,0,0)" clip-path="url(#_254787109475600clip-2)"/><g style="fill: rgb(135,206,250); fill-opacity: 0.5; stroke: none" transform="matrix(1,0,0,1,0,0)" clip-path="url(#_254787109475600clip-2)"><path d="M 127.95 370.92 L 127.95 370.92 L 947.05 417.42 L 947.05 517.03 L 127.95 553.49 L 127.95 370.92 L 127.95 370.92 Z "/></g><g style="stroke-width: 2.5;stroke: rgb(255,85,85);stroke-opacity: 0.5;stroke-linecap: round;stroke-linejoin: round;stroke-dasharray: 5.0;shape-rendering:geometricPrecision;; fill: none" transform="matrix(1,0,0,1,0,0)" clip-path="url(#_254787109475600clip-2)"><path d="M 500.1 388.32 L 500.1 539.88"/></g><g style="stroke-width: 2.5;stroke: rgb(85,85,255);stroke-opacity: 0.5;stroke-linecap: round;stroke-linejoin: round;stroke-dasharray: 5.0;shape-rendering:geometricPrecision;; fill: none" transform="matrix(1,0,0,1,0,0)" clip-path="url(#_254787109475600clip-2)"><path d="M 127.95 376.75 L 156.2 376.75 L 184.44 376.75 L 212.69 376.75 L 240.93 376.75 L 269.18 376.75 L 297.42 376.75 L 325.67 376.75 L 353.91 376.75 L 382.16 376.75 L 466.89 382.32 L 495.13 384.38 L 523.38 386.45 L 551.62 388.51 L 579.87 390.57 L 608.11 392.64 L 636.36 394.7 L 664.6 396.77 L 692.84 398.83 L 721.09 400.9 L 749.33 402.96 L 777.58 405.03 L 805.82 407.09 L 834.07 409.16 L 862.31 411.22 L 890.56 413.29 L 918.8 415.35 L 947.05 417.42 L 947.05 517.03 L 918.8 518.64 L 890.56 520.26 L 862.31 521.88 L 834.07 523.5 L 805.82 525.12 L 777.58 526.74 L 749.33 528.36 L 721.09 529.98 L 692.84 531.6 L 664.6 533.22 L 636.36 534.84 L 608.11 536.46 L 579.87 538.07 L 551.62 539.69 L 523.38 541.31 L 495.13 542.93 L 466.89 544.55 L 382.16 548.92 L 353.91 548.92 L 325.67 548.92 L 297.42 548.92 L 269.18 548.92 L 240.93 548.92 L 212.69 548.92 L 184.44 548.92 L 156.2 548.92 L 127.95 548.92 L 127.95 376.75"/></g><g style="stroke-width: 1.0;stroke: rgb(0,0,0);stroke-opacity: 0.5;stroke-linecap: round;stroke-linejoin: round;shape-rendering:geometricPrecision;; fill: none" transform="matrix(1,0,0,1,0,0)" clip-path="url(#_254787109475600clip-2)"><path d="M 127.95 370.92 L 947.05 417.42 L 947.05 517.03 L 127.95 553.49 L 127.95 370.92"/></g><rect x="87" y="35" width="901" height="876" style="stroke-width: 0.5;stroke: rgb(0,0,0);stroke-opacity: 1.0;stroke-linecap: round;stroke-linejoin: round;shape-rendering:crispEdges;; fill: none" transform="matrix(1,0,0,1,0,0)" clip-path="url(#_254787109475600clip-0)"/></svg>
