<!DOCTYPE svg PUBLIC "-//W3C//DTD SVG 1.1//EN" "http://www.w3.org/Graphics/SVG/1.1/DTD/svg11.dtd">
<svg xmlns="http://www.w3.org/2000/svg" xmlns:xlink="http://www.w3.org/1999/xlink" xmlns:jfreesvg="http://www.jfree.org/jfreesvg/svg" width="1000" height="1000" text-rendering="auto" shape-rendering="auto">
<defs><clipPath id="_656836185380042clip-0"><path d="M 0 0 L 1000 0 L 1000 1000 L 0 1000 L 0 0 Z "/></clipPath>
<clipPath id="_656836185380042clip-1"><path d="M 503.5 442.5 L 503.5 1442.5 L -496.5 1442.5 L -496.5 442.5 L 503.5 442.5 Z "/></clipPath>
<clipPath id="_656836185380042clip-2"><path d="M 101 35 L 101 911 L 988 911 L 988 35 Z "/></clipPath>
</defs>
<rect x="0" y="0" width="1000" height="1000" style="fill: rgb(245,245,245); fill-opacity: 1.0" transform="matrix(1,0,0,1,0,0)" clip-path="url(#_656836185380042clip-0)"/><g transform="matrix(1,0,0,1,0,0)"><text x="288.5" y="21.01" style="fill: rgb(0,0,0); fill-opacity: 1.0; font-family: Tahoma; font-size: 20px; font-weight: bold;" clip-path="url(#_656836185380042clip-0)">Fuselage data representation - Front View</text></g><rect x="101" y="35" width="887" height="876" style="fill: rgb(240,248,255); fill-opacity: 0.0" transform="matrix(1,0,0,1,0,0)" clip-path="url(#_656836185380042clip-0)"/><line x1="101" y1="915" x2="988" y2="915" style="stroke-width: 0.5;stroke: rgb(128,128,128);stroke-opacity: 1.0;stroke-linecap: square;shape-rendering:crispEdges;" transform="matrix(1,0,0,1,0,0)" clip-path="url(#_656836185380042clip-0)"/><g transform="matrix(1,0,0,1,0,0)"><text x="111.92" y="945.69" style="fill: rgb(64,64,64); fill-opacity: 1.0; font-family: sans-serif; font-size: 25px;" clip-path="url(#_656836185380042clip-0)">-20</text></g><line x1="129.92" y1="917" x2="129.92" y2="915" style="stroke-width: 0.5;stroke: rgb(128,128,128);stroke-opacity: 1.0;stroke-linecap: square;shape-rendering:crispEdges;" transform="matrix(1,0,0,1,0,0)" clip-path="url(#_656836185380042clip-0)"/><g transform="matrix(1,0,0,1,0,0)"><text x="215.56" y="945.69" style="fill: rgb(64,64,64); fill-opacity: 1.0; font-family: sans-serif; font-size: 25px;" clip-path="url(#_656836185380042clip-0)">-15</text></g><line x1="233.56" y1="917" x2="233.56" y2="915" style="stroke-width: 0.5;stroke: rgb(128,128,128);stroke-opacity: 1.0;stroke-linecap: square;shape-rendering:crispEdges;" transform="matrix(1,0,0,1,0,0)" clip-path="url(#_656836185380042clip-0)"/><g transform="matrix(1,0,0,1,0,0)"><text x="319.21" y="945.69" style="fill: rgb(64,64,64); fill-opacity: 1.0; font-family: sans-serif; font-size: 25px;" clip-path="url(#_656836185380042clip-0)">-10</text></g><line x1="337.21" y1="917" x2="337.21" y2="915" style="stroke-width: 0.5;stroke: rgb(128,128,128);stroke-opacity: 1.0;stroke-linecap: square;shape-rendering:crispEdges;" transform="matrix(1,0,0,1,0,0)" clip-path="url(#_656836185380042clip-0)"/><g transform="matrix(1,0,0,1,0,0)"><text x="429.85" y="945.69" style="fill: rgb(64,64,64); fill-opacity: 1.0; font-family: sans-serif; font-size: 25px;" clip-path="url(#_656836185380042clip-0)">-5</text></g><line x1="440.85" y1="917" x2="440.85" y2="915" style="stroke-width: 0.5;stroke: rgb(128,128,128);stroke-opacity: 1.0;stroke-linecap: square;shape-rendering:crispEdges;" transform="matrix(1,0,0,1,0,0)" clip-path="url(#_656836185380042clip-0)"/><g transform="matrix(1,0,0,1,0,0)"><text x="537.5" y="945.69" style="fill: rgb(64,64,64); fill-opacity: 1.0; font-family: sans-serif; font-size: 25px;" clip-path="url(#_656836185380042clip-0)">0</text></g><line x1="544.5" y1="917" x2="544.5" y2="915" style="stroke-width: 0.5;stroke: rgb(128,128,128);stroke-opacity: 1.0;stroke-linecap: square;shape-rendering:crispEdges;" transform="matrix(1,0,0,1,0,0)" clip-path="url(#_656836185380042clip-0)"/><g transform="matrix(1,0,0,1,0,0)"><text x="641.15" y="945.69" style="fill: rgb(64,64,64); fill-opacity: 1.0; font-family: sans-serif; font-size: 25px;" clip-path="url(#_656836185380042clip-0)">5</text></g><line x1="648.15" y1="917" x2="648.15" y2="915" style="stroke-width: 0.5;stroke: rgb(128,128,128);stroke-opacity: 1.0;stroke-linecap: square;shape-rendering:crispEdges;" transform="matrix(1,0,0,1,0,0)" clip-path="url(#_656836185380042clip-0)"/><g transform="matrix(1,0,0,1,0,0)"><text x="737.79" y="945.69" style="fill: rgb(64,64,64); fill-opacity: 1.0; font-family: sans-serif; font-size: 25px;" clip-path="url(#_656836185380042clip-0)">10</text></g><line x1="751.79" y1="917" x2="751.79" y2="915" style="stroke-width: 0.5;stroke: rgb(128,128,128);stroke-opacity: 1.0;stroke-linecap: square;shape-rendering:crispEdges;" transform="matrix(1,0,0,1,0,0)" clip-path="url(#_656836185380042clip-0)"/><g transform="matrix(1,0,0,1,0,0)"><text x="841.44" y="945.69" style="fill: rgb(64,64,64); fill-opacity: 1.0; font-family: sans-serif; font-size: 25px;" clip-path="url(#_656836185380042clip-0)">15</text></g><line x1="855.44" y1="917" x2="855.44" y2="915" style="stroke-width: 0.5;stroke: rgb(128,128,128);stroke-opacity: 1.0;stroke-linecap: square;shape-rendering:crispEdges;" transform="matrix(1,0,0,1,0,0)" clip-path="url(#_656836185380042clip-0)"/><g transform="matrix(1,0,0,1,0,0)"><text x="945.08" y="945.69" style="fill: rgb(64,64,64); fill-opacity: 1.0; font-family: sans-serif; font-size: 25px;" clip-path="url(#_656836185380042clip-0)">20</text></g><line x1="959.08" y1="917" x2="959.08" y2="915" style="stroke-width: 0.5;stroke: rgb(128,128,128);stroke-opacity: 1.0;stroke-linecap: square;shape-rendering:crispEdges;" transform="matrix(1,0,0,1,0,0)" clip-path="url(#_656836185380042clip-0)"/><g transform="matrix(1,0,0,1,0,0)"><text x="510.5" y="984.87" style="fill: rgb(64,64,64); fill-opacity: 1.0; font-family: sans-serif; font-size: 30px;" clip-path="url(#_656836185380042clip-0)">y (m)</text></g><line x1="97" y1="35" x2="97" y2="911" style="stroke-width: 0.5;stroke: rgb(128,128,128);stroke-opacity: 1.0;stroke-linecap: square;shape-rendering:crispEdges;" transform="matrix(1,0,0,1,0,0)" clip-path="url(#_656836185380042clip-0)"/><g transform="matrix(1,0,0,1,0,0)"><text x="55" y="892.63" style="fill: rgb(64,64,64); fill-opacity: 1.0; font-family: sans-serif; font-size: 25px;" clip-path="url(#_656836185380042clip-0)">-20</text></g><line x1="95" y1="882.44" x2="97" y2="882.44" style="stroke-width: 0.5;stroke: rgb(128,128,128);stroke-opacity: 1.0;stroke-linecap: square;shape-rendering:crispEdges;" transform="matrix(1,0,0,1,0,0)" clip-path="url(#_656836185380042clip-0)"/><g transform="matrix(1,0,0,1,0,0)"><text x="55" y="851.69" style="fill: rgb(64,64,64); fill-opacity: 1.0; font-family: sans-serif; font-size: 25px;" clip-path="url(#_656836185380042clip-0)">-18</text></g><line x1="95" y1="841.5" x2="97" y2="841.5" style="stroke-width: 0.5;stroke: rgb(128,128,128);stroke-opacity: 1.0;stroke-linecap: square;shape-rendering:crispEdges;" transform="matrix(1,0,0,1,0,0)" clip-path="url(#_656836185380042clip-0)"/><g transform="matrix(1,0,0,1,0,0)"><text x="55" y="810.74" style="fill: rgb(64,64,64); fill-opacity: 1.0; font-family: sans-serif; font-size: 25px;" clip-path="url(#_656836185380042clip-0)">-16</text></g><line x1="95" y1="800.55" x2="97" y2="800.55" style="stroke-width: 0.5;stroke: rgb(128,128,128);stroke-opacity: 1.0;stroke-linecap: square;shape-rendering:crispEdges;" transform="matrix(1,0,0,1,0,0)" clip-path="url(#_656836185380042clip-0)"/><g transform="matrix(1,0,0,1,0,0)"><text x="55" y="769.8" style="fill: rgb(64,64,64); fill-opacity: 1.0; font-family: sans-serif; font-size: 25px;" clip-path="url(#_656836185380042clip-0)">-14</text></g><line x1="95" y1="759.61" x2="97" y2="759.61" style="stroke-width: 0.5;stroke: rgb(128,128,128);stroke-opacity: 1.0;stroke-linecap: square;shape-rendering:crispEdges;" transform="matrix(1,0,0,1,0,0)" clip-path="url(#_656836185380042clip-0)"/><g transform="matrix(1,0,0,1,0,0)"><text x="55" y="728.85" style="fill: rgb(64,64,64); fill-opacity: 1.0; font-family: sans-serif; font-size: 25px;" clip-path="url(#_656836185380042clip-0)">-12</text></g><line x1="95" y1="718.67" x2="97" y2="718.67" style="stroke-width: 0.5;stroke: rgb(128,128,128);stroke-opacity: 1.0;stroke-linecap: square;shape-rendering:crispEdges;" transform="matrix(1,0,0,1,0,0)" clip-path="url(#_656836185380042clip-0)"/><g transform="matrix(1,0,0,1,0,0)"><text x="55" y="687.91" style="fill: rgb(64,64,64); fill-opacity: 1.0; font-family: sans-serif; font-size: 25px;" clip-path="url(#_656836185380042clip-0)">-10</text></g><line x1="95" y1="677.72" x2="97" y2="677.72" style="stroke-width: 0.5;stroke: rgb(128,128,128);stroke-opacity: 1.0;stroke-linecap: square;shape-rendering:crispEdges;" transform="matrix(1,0,0,1,0,0)" clip-path="url(#_656836185380042clip-0)"/><g transform="matrix(1,0,0,1,0,0)"><text x="69" y="646.97" style="fill: rgb(64,64,64); fill-opacity: 1.0; font-family: sans-serif; font-size: 25px;" clip-path="url(#_656836185380042clip-0)">-8</text></g><line x1="95" y1="636.78" x2="97" y2="636.78" style="stroke-width: 0.5;stroke: rgb(128,128,128);stroke-opacity: 1.0;stroke-linecap: square;shape-rendering:crispEdges;" transform="matrix(1,0,0,1,0,0)" clip-path="url(#_656836185380042clip-0)"/><g transform="matrix(1,0,0,1,0,0)"><text x="69" y="606.02" style="fill: rgb(64,64,64); fill-opacity: 1.0; font-family: sans-serif; font-size: 25px;" clip-path="url(#_656836185380042clip-0)">-6</text></g><line x1="95" y1="595.83" x2="97" y2="595.83" style="stroke-width: 0.5;stroke: rgb(128,128,128);stroke-opacity: 1.0;stroke-linecap: square;shape-rendering:crispEdges;" transform="matrix(1,0,0,1,0,0)" clip-path="url(#_656836185380042clip-0)"/><g transform="matrix(1,0,0,1,0,0)"><text x="69" y="565.08" style="fill: rgb(64,64,64); fill-opacity: 1.0; font-family: sans-serif; font-size: 25px;" clip-path="url(#_656836185380042clip-0)">-4</text></g><line x1="95" y1="554.89" x2="97" y2="554.89" style="stroke-width: 0.5;stroke: rgb(128,128,128);stroke-opacity: 1.0;stroke-linecap: square;shape-rendering:crispEdges;" transform="matrix(1,0,0,1,0,0)" clip-path="url(#_656836185380042clip-0)"/><g transform="matrix(1,0,0,1,0,0)"><text x="69" y="524.13" style="fill: rgb(64,64,64); fill-opacity: 1.0; font-family: sans-serif; font-size: 25px;" clip-path="url(#_656836185380042clip-0)">-2</text></g><line x1="95" y1="513.94" x2="97" y2="513.94" style="stroke-width: 0.5;stroke: rgb(128,128,128);stroke-opacity: 1.0;stroke-linecap: square;shape-rendering:crispEdges;" transform="matrix(1,0,0,1,0,0)" clip-path="url(#_656836185380042clip-0)"/><g transform="matrix(1,0,0,1,0,0)"><text x="77" y="483.19" style="fill: rgb(64,64,64); fill-opacity: 1.0; font-family: sans-serif; font-size: 25px;" clip-path="url(#_656836185380042clip-0)">0</text></g><line x1="95" y1="473" x2="97" y2="473" style="stroke-width: 0.5;stroke: rgb(128,128,128);stroke-opacity: 1.0;stroke-linecap: square;shape-rendering:crispEdges;" transform="matrix(1,0,0,1,0,0)" clip-path="url(#_656836185380042clip-0)"/><g transform="matrix(1,0,0,1,0,0)"><text x="77" y="442.24" style="fill: rgb(64,64,64); fill-opacity: 1.0; font-family: sans-serif; font-size: 25px;" clip-path="url(#_656836185380042clip-0)">2</text></g><line x1="95" y1="432.06" x2="97" y2="432.06" style="stroke-width: 0.5;stroke: rgb(128,128,128);stroke-opacity: 1.0;stroke-linecap: square;shape-rendering:crispEdges;" transform="matrix(1,0,0,1,0,0)" clip-path="url(#_656836185380042clip-0)"/><g transform="matrix(1,0,0,1,0,0)"><text x="77" y="401.3" style="fill: rgb(64,64,64); fill-opacity: 1.0; font-family: sans-serif; font-size: 25px;" clip-path="url(#_656836185380042clip-0)">4</text></g><line x1="95" y1="391.11" x2="97" y2="391.11" style="stroke-width: 0.5;stroke: rgb(128,128,128);stroke-opacity: 1.0;stroke-linecap: square;shape-rendering:crispEdges;" transform="matrix(1,0,0,1,0,0)" clip-path="url(#_656836185380042clip-0)"/><g transform="matrix(1,0,0,1,0,0)"><text x="77" y="360.36" style="fill: rgb(64,64,64); fill-opacity: 1.0; font-family: sans-serif; font-size: 25px;" clip-path="url(#_656836185380042clip-0)">6</text></g><line x1="95" y1="350.17" x2="97" y2="350.17" style="stroke-width: 0.5;stroke: rgb(128,128,128);stroke-opacity: 1.0;stroke-linecap: square;shape-rendering:crispEdges;" transform="matrix(1,0,0,1,0,0)" clip-path="url(#_656836185380042clip-0)"/><g transform="matrix(1,0,0,1,0,0)"><text x="77" y="319.41" style="fill: rgb(64,64,64); fill-opacity: 1.0; font-family: sans-serif; font-size: 25px;" clip-path="url(#_656836185380042clip-0)">8</text></g><line x1="95" y1="309.22" x2="97" y2="309.22" style="stroke-width: 0.5;stroke: rgb(128,128,128);stroke-opacity: 1.0;stroke-linecap: square;shape-rendering:crispEdges;" transform="matrix(1,0,0,1,0,0)" clip-path="url(#_656836185380042clip-0)"/><g transform="matrix(1,0,0,1,0,0)"><text x="63" y="278.47" style="fill: rgb(64,64,64); fill-opacity: 1.0; font-family: sans-serif; font-size: 25px;" clip-path="url(#_656836185380042clip-0)">10</text></g><line x1="95" y1="268.28" x2="97" y2="268.28" style="stroke-width: 0.5;stroke: rgb(128,128,128);stroke-opacity: 1.0;stroke-linecap: square;shape-rendering:crispEdges;" transform="matrix(1,0,0,1,0,0)" clip-path="url(#_656836185380042clip-0)"/><g transform="matrix(1,0,0,1,0,0)"><text x="63" y="237.52" style="fill: rgb(64,64,64); fill-opacity: 1.0; font-family: sans-serif; font-size: 25px;" clip-path="url(#_656836185380042clip-0)">12</text></g><line x1="95" y1="227.33" x2="97" y2="227.33" style="stroke-width: 0.5;stroke: rgb(128,128,128);stroke-opacity: 1.0;stroke-linecap: square;shape-rendering:crispEdges;" transform="matrix(1,0,0,1,0,0)" clip-path="url(#_656836185380042clip-0)"/><g transform="matrix(1,0,0,1,0,0)"><text x="63" y="196.58" style="fill: rgb(64,64,64); fill-opacity: 1.0; font-family: sans-serif; font-size: 25px;" clip-path="url(#_656836185380042clip-0)">14</text></g><line x1="95" y1="186.39" x2="97" y2="186.39" style="stroke-width: 0.5;stroke: rgb(128,128,128);stroke-opacity: 1.0;stroke-linecap: square;shape-rendering:crispEdges;" transform="matrix(1,0,0,1,0,0)" clip-path="url(#_656836185380042clip-0)"/><g transform="matrix(1,0,0,1,0,0)"><text x="63" y="155.64" style="fill: rgb(64,64,64); fill-opacity: 1.0; font-family: sans-serif; font-size: 25px;" clip-path="url(#_656836185380042clip-0)">16</text></g><line x1="95" y1="145.45" x2="97" y2="145.45" style="stroke-width: 0.5;stroke: rgb(128,128,128);stroke-opacity: 1.0;stroke-linecap: square;shape-rendering:crispEdges;" transform="matrix(1,0,0,1,0,0)" clip-path="url(#_656836185380042clip-0)"/><g transform="matrix(1,0,0,1,0,0)"><text x="63" y="114.69" style="fill: rgb(64,64,64); fill-opacity: 1.0; font-family: sans-serif; font-size: 25px;" clip-path="url(#_656836185380042clip-0)">18</text></g><line x1="95" y1="104.5" x2="97" y2="104.5" style="stroke-width: 0.5;stroke: rgb(128,128,128);stroke-opacity: 1.0;stroke-linecap: square;shape-rendering:crispEdges;" transform="matrix(1,0,0,1,0,0)" clip-path="url(#_656836185380042clip-0)"/><g transform="matrix(1,0,0,1,0,0)"><text x="63" y="73.75" style="fill: rgb(64,64,64); fill-opacity: 1.0; font-family: sans-serif; font-size: 25px;" clip-path="url(#_656836185380042clip-0)">20</text></g><line x1="95" y1="63.56" x2="97" y2="63.56" style="stroke-width: 0.5;stroke: rgb(128,128,128);stroke-opacity: 1.0;stroke-linecap: square;shape-rendering:crispEdges;" transform="matrix(1,0,0,1,0,0)" clip-path="url(#_656836185380042clip-0)"/><g style="fill: rgb(64,64,64); fill-opacity: 1.0; stroke: none" transform="matrix(0,-1,1,0,-442.5,503.5)" clip-path="url(#_656836185380042clip-1)"><path d="M -2.91 484.93 L -2.91 482.79 L 6.98 471.43 Q 5.3 471.5 4.02 471.5 L -2.33 471.5 L -2.33 469.36 L 10.39 469.36 L 10.39 471.11 L 1.97 480.99 L 0.34 482.79 Q 2.11 482.66 3.66 482.66 L 10.86 482.66 L 10.86 484.93 L -2.91 484.93 Z  M 26.85 491.24 Q 24.66 488.49 23.16 484.79 Q 21.65 481.1 21.65 477.15 Q 21.65 473.66 22.77 470.47 Q 24.1 466.75 26.85 463.08 L 28.74 463.08 Q 26.98 466.13 26.4 467.44 Q 25.51 469.46 24.99 471.66 Q 24.37 474.4 24.37 477.16 Q 24.37 484.21 28.74 491.24 L 26.85 491.24 Z  M 31.81 484.93 L 31.81 469.36 L 34.17 469.36 L 34.17 471.55 Q 34.89 470.41 36.11 469.72 Q 37.33 469.02 38.87 469.02 Q 40.61 469.02 41.72 469.74 Q 42.83 470.46 43.28 471.74 Q 45.12 469.02 48.08 469.02 Q 50.39 469.02 51.64 470.3 Q 52.89 471.58 52.89 474.25 L 52.89 484.93 L 50.26 484.93 L 50.26 475.13 Q 50.26 473.55 50 472.85 Q 49.75 472.15 49.08 471.72 Q 48.4 471.3 47.5 471.3 Q 45.86 471.3 44.77 472.4 Q 43.68 473.49 43.68 475.9 L 43.68 484.93 L 41.04 484.93 L 41.04 474.82 Q 41.04 473.07 40.4 472.18 Q 39.76 471.3 38.29 471.3 Q 37.18 471.3 36.24 471.89 Q 35.29 472.47 34.86 473.6 Q 34.43 474.72 34.43 476.85 L 34.43 484.93 L 31.81 484.93 Z  M 58.52 491.24 L 56.63 491.24 Q 61.02 484.21 61.02 477.16 Q 61.02 474.41 60.38 471.69 Q 59.88 469.5 58.99 467.47 Q 58.42 466.16 56.63 463.08 L 58.52 463.08 Q 61.27 466.75 62.6 470.47 Q 63.72 473.66 63.72 477.15 Q 63.72 481.1 62.21 484.79 Q 60.69 488.49 58.52 491.24 Z "/></g><line x1="129.92" y1="35" x2="129.92" y2="911" style="stroke-width: 0.5;stroke: rgb(128,128,128);stroke-opacity: 0.5;stroke-linejoin: bevel;stroke-dasharray: 2.0, 2.0;shape-rendering:crispEdges;" transform="matrix(1,0,0,1,0,0)" clip-path="url(#_656836185380042clip-2)"/><line x1="233.56" y1="35" x2="233.56" y2="911" style="stroke-width: 0.5;stroke: rgb(128,128,128);stroke-opacity: 0.5;stroke-linejoin: bevel;stroke-dasharray: 2.0, 2.0;shape-rendering:crispEdges;" transform="matrix(1,0,0,1,0,0)" clip-path="url(#_656836185380042clip-2)"/><line x1="337.21" y1="35" x2="337.21" y2="911" style="stroke-width: 0.5;stroke: rgb(128,128,128);stroke-opacity: 0.5;stroke-linejoin: bevel;stroke-dasharray: 2.0, 2.0;shape-rendering:crispEdges;" transform="matrix(1,0,0,1,0,0)" clip-path="url(#_656836185380042clip-2)"/><line x1="440.85" y1="35" x2="440.85" y2="911" style="stroke-width: 0.5;stroke: rgb(128,128,128);stroke-opacity: 0.5;stroke-linejoin: bevel;stroke-dasharray: 2.0, 2.0;shape-rendering:crispEdges;" transform="matrix(1,0,0,1,0,0)" clip-path="url(#_656836185380042clip-2)"/><line x1="544.5" y1="35" x2="544.5" y2="911" style="stroke-width: 0.5;stroke: rgb(128,128,128);stroke-opacity: 0.5;stroke-linejoin: bevel;stroke-dasharray: 2.0, 2.0;shape-rendering:crispEdges;" transform="matrix(1,0,0,1,0,0)" clip-path="url(#_656836185380042clip-2)"/><line x1="648.15" y1="35" x2="648.15" y2="911" style="stroke-width: 0.5;stroke: rgb(128,128,128);stroke-opacity: 0.5;stroke-linejoin: bevel;stroke-dasharray: 2.0, 2.0;shape-rendering:crispEdges;" transform="matrix(1,0,0,1,0,0)" clip-path="url(#_656836185380042clip-2)"/><line x1="751.79" y1="35" x2="751.79" y2="911" style="stroke-width: 0.5;stroke: rgb(128,128,128);stroke-opacity: 0.5;stroke-linejoin: bevel;stroke-dasharray: 2.0, 2.0;shape-rendering:crispEdges;" transform="matrix(1,0,0,1,0,0)" clip-path="url(#_656836185380042clip-2)"/><line x1="855.44" y1="35" x2="855.44" y2="911" style="stroke-width: 0.5;stroke: rgb(128,128,128);stroke-opacity: 0.5;stroke-linejoin: bevel;stroke-dasharray: 2.0, 2.0;shape-rendering:crispEdges;" transform="matrix(1,0,0,1,0,0)" clip-path="url(#_656836185380042clip-2)"/><line x1="959.08" y1="35" x2="959.08" y2="911" style="stroke-width: 0.5;stroke: rgb(128,128,128);stroke-opacity: 0.5;stroke-linejoin: bevel;stroke-dasharray: 2.0, 2.0;shape-rendering:crispEdges;" transform="matrix(1,0,0,1,0,0)" clip-path="url(#_656836185380042clip-2)"/><line x1="101" y1="882.44" x2="988" y2="882.44" style="stroke-width: 0.5;stroke: rgb(128,128,128);stroke-opacity: 0.5;stroke-linejoin: bevel;stroke-dasharray: 2.0, 2.0;shape-rendering:crispEdges;" transform="matrix(1,0,0,1,0,0)" clip-path="url(#_656836185380042clip-2)"/><line x1="101" y1="841.5" x2="988" y2="841.5" style="stroke-width: 0.5;stroke: rgb(128,128,128);stroke-opacity: 0.5;stroke-linejoin: bevel;stroke-dasharray: 2.0, 2.0;shape-rendering:crispEdges;" transform="matrix(1,0,0,1,0,0)" clip-path="url(#_656836185380042clip-2)"/><line x1="101" y1="800.55" x2="988" y2="800.55" style="stroke-width: 0.5;stroke: rgb(128,128,128);stroke-opacity: 0.5;stroke-linejoin: bevel;stroke-dasharray: 2.0, 2.0;shape-rendering:crispEdges;" transform="matrix(1,0,0,1,0,0)" clip-path="url(#_656836185380042clip-2)"/><line x1="101" y1="759.61" x2="988" y2="759.61" style="stroke-width: 0.5;stroke: rgb(128,128,128);stroke-opacity: 0.5;stroke-linejoin: bevel;stroke-dasharray: 2.0, 2.0;shape-rendering:crispEdges;" transform="matrix(1,0,0,1,0,0)" clip-path="url(#_656836185380042clip-2)"/><line x1="101" y1="718.67" x2="988" y2="718.67" style="stroke-width: 0.5;stroke: rgb(128,128,128);stroke-opacity: 0.5;stroke-linejoin: bevel;stroke-dasharray: 2.0, 2.0;shape-rendering:crispEdges;" transform="matrix(1,0,0,1,0,0)" clip-path="url(#_656836185380042clip-2)"/><line x1="101" y1="677.72" x2="988" y2="677.72" style="stroke-width: 0.5;stroke: rgb(128,128,128);stroke-opacity: 0.5;stroke-linejoin: bevel;stroke-dasharray: 2.0, 2.0;shape-rendering:crispEdges;" transform="matrix(1,0,0,1,0,0)" clip-path="url(#_656836185380042clip-2)"/><line x1="101" y1="636.78" x2="988" y2="636.78" style="stroke-width: 0.5;stroke: rgb(128,128,128);stroke-opacity: 0.5;stroke-linejoin: bevel;stroke-dasharray: 2.0, 2.0;shape-rendering:crispEdges;" transform="matrix(1,0,0,1,0,0)" clip-path="url(#_656836185380042clip-2)"/><line x1="101" y1="595.83" x2="988" y2="595.83" style="stroke-width: 0.5;stroke: rgb(128,128,128);stroke-opacity: 0.5;stroke-linejoin: bevel;stroke-dasharray: 2.0, 2.0;shape-rendering:crispEdges;" transform="matrix(1,0,0,1,0,0)" clip-path="url(#_656836185380042clip-2)"/><line x1="101" y1="554.89" x2="988" y2="554.89" style="stroke-width: 0.5;stroke: rgb(128,128,128);stroke-opacity: 0.5;stroke-linejoin: bevel;stroke-dasharray: 2.0, 2.0;shape-rendering:crispEdges;" transform="matrix(1,0,0,1,0,0)" clip-path="url(#_656836185380042clip-2)"/><line x1="101" y1="513.94" x2="988" y2="513.94" style="stroke-width: 0.5;stroke: rgb(128,128,128);stroke-opacity: 0.5;stroke-linejoin: bevel;stroke-dasharray: 2.0, 2.0;shape-rendering:crispEdges;" transform="matrix(1,0,0,1,0,0)" clip-path="url(#_656836185380042clip-2)"/><line x1="101" y1="473" x2="988" y2="473" style="stroke-width: 0.5;stroke: rgb(128,128,128);stroke-opacity: 0.5;stroke-linejoin: bevel;stroke-dasharray: 2.0, 2.0;shape-rendering:crispEdges;" transform="matrix(1,0,0,1,0,0)" clip-path="url(#_656836185380042clip-2)"/><line x1="101" y1="432.06" x2="988" y2="432.06" style="stroke-width: 0.5;stroke: rgb(128,128,128);stroke-opacity: 0.5;stroke-linejoin: bevel;stroke-dasharray: 2.0, 2.0;shape-rendering:crispEdges;" transform="matrix(1,0,0,1,0,0)" clip-path="url(#_656836185380042clip-2)"/><line x1="101" y1="391.11" x2="988" y2="391.11" style="stroke-width: 0.5;stroke: rgb(128,128,128);stroke-opacity: 0.5;stroke-linejoin: bevel;stroke-dasharray: 2.0, 2.0;shape-rendering:crispEdges;" transform="matrix(1,0,0,1,0,0)" clip-path="url(#_656836185380042clip-2)"/><line x1="101" y1="350.17" x2="988" y2="350.17" style="stroke-width: 0.5;stroke: rgb(128,128,128);stroke-opacity: 0.5;stroke-linejoin: bevel;stroke-dasharray: 2.0, 2.0;shape-rendering:crispEdges;" transform="matrix(1,0,0,1,0,0)" clip-path="url(#_656836185380042clip-2)"/><line x1="101" y1="309.22" x2="988" y2="309.22" style="stroke-width: 0.5;stroke: rgb(128,128,128);stroke-opacity: 0.5;stroke-linejoin: bevel;stroke-dasharray: 2.0, 2.0;shape-rendering:crispEdges;" transform="matrix(1,0,0,1,0,0)" clip-path="url(#_656836185380042clip-2)"/><line x1="101" y1="268.28" x2="988" y2="268.28" style="stroke-width: 0.5;stroke: rgb(128,128,128);stroke-opacity: 0.5;stroke-linejoin: bevel;stroke-dasharray: 2.0, 2.0;shape-rendering:crispEdges;" transform="matrix(1,0,0,1,0,0)" clip-path="url(#_656836185380042clip-2)"/><line x1="101" y1="227.33" x2="988" y2="227.33" style="stroke-width: 0.5;stroke: rgb(128,128,128);stroke-opacity: 0.5;stroke-linejoin: bevel;stroke-dasharray: 2.0, 2.0;shape-rendering:crispEdges;" transform="matrix(1,0,0,1,0,0)" clip-path="url(#_656836185380042clip-2)"/><line x1="101" y1="186.39" x2="988" y2="186.39" style="stroke-width: 0.5;stroke: rgb(128,128,128);stroke-opacity: 0.5;stroke-linejoin: bevel;stroke-dasharray: 2.0, 2.0;shape-rendering:crispEdges;" transform="matrix(1,0,0,1,0,0)" clip-path="url(#_656836185380042clip-2)"/><line x1="101" y1="145.45" x2="988" y2="145.45" style="stroke-width: 0.5;stroke: rgb(128,128,128);stroke-opacity: 0.5;stroke-linejoin: bevel;stroke-dasharray: 2.0, 2.0;shape-rendering:crispEdges;" transform="matrix(1,0,0,1,0,0)" clip-path="url(#_656836185380042clip-2)"/><line x1="101" y1="104.5" x2="988" y2="104.5" style="stroke-width: 0.5;stroke: rgb(128,128,128);stroke-opacity: 0.5;stroke-linejoin: bevel;stroke-dasharray: 2.0, 2.0;shape-rendering:crispEdges;" transform="matrix(1,0,0,1,0,0)" clip-path="url(#_656836185380042clip-2)"/><line x1="101" y1="63.56" x2="988" y2="63.56" style="stroke-width: 0.5;stroke: rgb(128,128,128);stroke-opacity: 0.5;stroke-linejoin: bevel;stroke-dasharray: 2.0, 2.0;shape-rendering:crispEdges;" transform="matrix(1,0,0,1,0,0)" clip-path="url(#_656836185380042clip-2)"/><line x1="503.56" y1="473" x2="503.58" y2="471.59" style="stroke-width: 1.5;stroke: rgb(0,0,0);stroke-opacity: 0.5;stroke-linecap: round;stroke-linejoin: round;shape-rendering:geometricPrecision;" transform="matrix(1,0,0,1,0,0)" clip-path="url(#_656836185380042clip-2)"/><line x1="503.58" y1="471.59" x2="503.72" y2="469.28" style="stroke-width: 1.5;stroke: rgb(0,0,0);stroke-opacity: 0.5;stroke-linecap: round;stroke-linejoin: round;shape-rendering:geometricPrecision;" transform="matrix(1,0,0,1,0,0)" clip-path="url(#_656836185380042clip-2)"/><line x1="503.72" y1="469.28" x2="504.07" y2="466.32" style="stroke-width: 1.5;stroke: rgb(0,0,0);stroke-opacity: 0.5;stroke-linecap: round;stroke-linejoin: round;shape-rendering:geometricPrecision;" transform="matrix(1,0,0,1,0,0)" clip-path="url(#_656836185380042clip-2)"/><line x1="504.07" y1="466.32" x2="504.73" y2="462.89" style="stroke-width: 1.5;stroke: rgb(0,0,0);stroke-opacity: 0.5;stroke-linecap: round;stroke-linejoin: round;shape-rendering:geometricPrecision;" transform="matrix(1,0,0,1,0,0)" clip-path="url(#_656836185380042clip-2)"/><line x1="504.73" y1="462.89" x2="505.74" y2="459.18" style="stroke-width: 1.5;stroke: rgb(0,0,0);stroke-opacity: 0.5;stroke-linecap: round;stroke-linejoin: round;shape-rendering:geometricPrecision;" transform="matrix(1,0,0,1,0,0)" clip-path="url(#_656836185380042clip-2)"/><line x1="505.74" y1="459.18" x2="507.14" y2="455.34" style="stroke-width: 1.5;stroke: rgb(0,0,0);stroke-opacity: 0.5;stroke-linecap: round;stroke-linejoin: round;shape-rendering:geometricPrecision;" transform="matrix(1,0,0,1,0,0)" clip-path="url(#_656836185380042clip-2)"/><line x1="507.14" y1="455.34" x2="508.97" y2="451.53" style="stroke-width: 1.5;stroke: rgb(0,0,0);stroke-opacity: 0.5;stroke-linecap: round;stroke-linejoin: round;shape-rendering:geometricPrecision;" transform="matrix(1,0,0,1,0,0)" clip-path="url(#_656836185380042clip-2)"/><line x1="508.97" y1="451.53" x2="511.22" y2="447.85" style="stroke-width: 1.5;stroke: rgb(0,0,0);stroke-opacity: 0.5;stroke-linecap: round;stroke-linejoin: round;shape-rendering:geometricPrecision;" transform="matrix(1,0,0,1,0,0)" clip-path="url(#_656836185380042clip-2)"/><line x1="511.22" y1="447.85" x2="513.87" y2="444.41" style="stroke-width: 1.5;stroke: rgb(0,0,0);stroke-opacity: 0.5;stroke-linecap: round;stroke-linejoin: round;shape-rendering:geometricPrecision;" transform="matrix(1,0,0,1,0,0)" clip-path="url(#_656836185380042clip-2)"/><line x1="513.87" y1="444.41" x2="516.88" y2="441.29" style="stroke-width: 1.5;stroke: rgb(0,0,0);stroke-opacity: 0.5;stroke-linecap: round;stroke-linejoin: round;shape-rendering:geometricPrecision;" transform="matrix(1,0,0,1,0,0)" clip-path="url(#_656836185380042clip-2)"/><line x1="516.88" y1="441.29" x2="520.2" y2="438.55" style="stroke-width: 1.5;stroke: rgb(0,0,0);stroke-opacity: 0.5;stroke-linecap: round;stroke-linejoin: round;shape-rendering:geometricPrecision;" transform="matrix(1,0,0,1,0,0)" clip-path="url(#_656836185380042clip-2)"/><line x1="520.2" y1="438.55" x2="523.75" y2="436.22" style="stroke-width: 1.5;stroke: rgb(0,0,0);stroke-opacity: 0.5;stroke-linecap: round;stroke-linejoin: round;shape-rendering:geometricPrecision;" transform="matrix(1,0,0,1,0,0)" clip-path="url(#_656836185380042clip-2)"/><line x1="523.75" y1="436.22" x2="527.44" y2="434.33" style="stroke-width: 1.5;stroke: rgb(0,0,0);stroke-opacity: 0.5;stroke-linecap: round;stroke-linejoin: round;shape-rendering:geometricPrecision;" transform="matrix(1,0,0,1,0,0)" clip-path="url(#_656836185380042clip-2)"/><line x1="527.44" y1="434.33" x2="531.14" y2="432.87" style="stroke-width: 1.5;stroke: rgb(0,0,0);stroke-opacity: 0.5;stroke-linecap: round;stroke-linejoin: round;shape-rendering:geometricPrecision;" transform="matrix(1,0,0,1,0,0)" clip-path="url(#_656836185380042clip-2)"/><line x1="531.14" y1="432.87" x2="534.73" y2="431.83" style="stroke-width: 1.5;stroke: rgb(0,0,0);stroke-opacity: 0.5;stroke-linecap: round;stroke-linejoin: round;shape-rendering:geometricPrecision;" transform="matrix(1,0,0,1,0,0)" clip-path="url(#_656836185380042clip-2)"/><line x1="534.73" y1="431.83" x2="538.04" y2="431.15" style="stroke-width: 1.5;stroke: rgb(0,0,0);stroke-opacity: 0.5;stroke-linecap: round;stroke-linejoin: round;shape-rendering:geometricPrecision;" transform="matrix(1,0,0,1,0,0)" clip-path="url(#_656836185380042clip-2)"/><line x1="538.04" y1="431.15" x2="540.91" y2="430.79" style="stroke-width: 1.5;stroke: rgb(0,0,0);stroke-opacity: 0.5;stroke-linecap: round;stroke-linejoin: round;shape-rendering:geometricPrecision;" transform="matrix(1,0,0,1,0,0)" clip-path="url(#_656836185380042clip-2)"/><line x1="540.91" y1="430.79" x2="543.13" y2="430.64" style="stroke-width: 1.5;stroke: rgb(0,0,0);stroke-opacity: 0.5;stroke-linecap: round;stroke-linejoin: round;shape-rendering:geometricPrecision;" transform="matrix(1,0,0,1,0,0)" clip-path="url(#_656836185380042clip-2)"/><line x1="543.13" y1="430.64" x2="544.5" y2="430.62" style="stroke-width: 1.5;stroke: rgb(0,0,0);stroke-opacity: 0.5;stroke-linecap: round;stroke-linejoin: round;shape-rendering:geometricPrecision;" transform="matrix(1,0,0,1,0,0)" clip-path="url(#_656836185380042clip-2)"/><line x1="544.5" y1="430.62" x2="544.5" y2="430.62" style="stroke-width: 1.5;stroke: rgb(0,0,0);stroke-opacity: 0.5;stroke-linecap: round;stroke-linejoin: round;shape-rendering:geometricPrecision;" transform="matrix(1,0,0,1,0,0)" clip-path="url(#_656836185380042clip-2)"/><line x1="544.5" y1="430.62" x2="545.87" y2="430.64" style="stroke-width: 1.5;stroke: rgb(0,0,0);stroke-opacity: 0.5;stroke-linecap: round;stroke-linejoin: round;shape-rendering:geometricPrecision;" transform="matrix(1,0,0,1,0,0)" clip-path="url(#_656836185380042clip-2)"/><line x1="545.87" y1="430.64" x2="548.09" y2="430.79" style="stroke-width: 1.5;stroke: rgb(0,0,0);stroke-opacity: 0.5;stroke-linecap: round;stroke-linejoin: round;shape-rendering:geometricPrecision;" transform="matrix(1,0,0,1,0,0)" clip-path="url(#_656836185380042clip-2)"/><line x1="548.09" y1="430.79" x2="550.96" y2="431.15" style="stroke-width: 1.5;stroke: rgb(0,0,0);stroke-opacity: 0.5;stroke-linecap: round;stroke-linejoin: round;shape-rendering:geometricPrecision;" transform="matrix(1,0,0,1,0,0)" clip-path="url(#_656836185380042clip-2)"/><line x1="550.96" y1="431.15" x2="554.27" y2="431.83" style="stroke-width: 1.5;stroke: rgb(0,0,0);stroke-opacity: 0.5;stroke-linecap: round;stroke-linejoin: round;shape-rendering:geometricPrecision;" transform="matrix(1,0,0,1,0,0)" clip-path="url(#_656836185380042clip-2)"/><line x1="554.27" y1="431.83" x2="557.86" y2="432.87" style="stroke-width: 1.5;stroke: rgb(0,0,0);stroke-opacity: 0.5;stroke-linecap: round;stroke-linejoin: round;shape-rendering:geometricPrecision;" transform="matrix(1,0,0,1,0,0)" clip-path="url(#_656836185380042clip-2)"/><line x1="557.86" y1="432.87" x2="561.56" y2="434.33" style="stroke-width: 1.5;stroke: rgb(0,0,0);stroke-opacity: 0.5;stroke-linecap: round;stroke-linejoin: round;shape-rendering:geometricPrecision;" transform="matrix(1,0,0,1,0,0)" clip-path="url(#_656836185380042clip-2)"/><line x1="561.56" y1="434.33" x2="565.25" y2="436.22" style="stroke-width: 1.5;stroke: rgb(0,0,0);stroke-opacity: 0.5;stroke-linecap: round;stroke-linejoin: round;shape-rendering:geometricPrecision;" transform="matrix(1,0,0,1,0,0)" clip-path="url(#_656836185380042clip-2)"/><line x1="565.25" y1="436.22" x2="568.8" y2="438.55" style="stroke-width: 1.5;stroke: rgb(0,0,0);stroke-opacity: 0.5;stroke-linecap: round;stroke-linejoin: round;shape-rendering:geometricPrecision;" transform="matrix(1,0,0,1,0,0)" clip-path="url(#_656836185380042clip-2)"/><line x1="568.8" y1="438.55" x2="572.12" y2="441.29" style="stroke-width: 1.5;stroke: rgb(0,0,0);stroke-opacity: 0.5;stroke-linecap: round;stroke-linejoin: round;shape-rendering:geometricPrecision;" transform="matrix(1,0,0,1,0,0)" clip-path="url(#_656836185380042clip-2)"/><line x1="572.12" y1="441.29" x2="575.13" y2="444.41" style="stroke-width: 1.5;stroke: rgb(0,0,0);stroke-opacity: 0.5;stroke-linecap: round;stroke-linejoin: round;shape-rendering:geometricPrecision;" transform="matrix(1,0,0,1,0,0)" clip-path="url(#_656836185380042clip-2)"/><line x1="575.13" y1="444.41" x2="577.78" y2="447.85" style="stroke-width: 1.5;stroke: rgb(0,0,0);stroke-opacity: 0.5;stroke-linecap: round;stroke-linejoin: round;shape-rendering:geometricPrecision;" transform="matrix(1,0,0,1,0,0)" clip-path="url(#_656836185380042clip-2)"/><line x1="577.78" y1="447.85" x2="580.03" y2="451.53" style="stroke-width: 1.5;stroke: rgb(0,0,0);stroke-opacity: 0.5;stroke-linecap: round;stroke-linejoin: round;shape-rendering:geometricPrecision;" transform="matrix(1,0,0,1,0,0)" clip-path="url(#_656836185380042clip-2)"/><line x1="580.03" y1="451.53" x2="581.86" y2="455.34" style="stroke-width: 1.5;stroke: rgb(0,0,0);stroke-opacity: 0.5;stroke-linecap: round;stroke-linejoin: round;shape-rendering:geometricPrecision;" transform="matrix(1,0,0,1,0,0)" clip-path="url(#_656836185380042clip-2)"/><line x1="581.86" y1="455.34" x2="583.26" y2="459.18" style="stroke-width: 1.5;stroke: rgb(0,0,0);stroke-opacity: 0.5;stroke-linecap: round;stroke-linejoin: round;shape-rendering:geometricPrecision;" transform="matrix(1,0,0,1,0,0)" clip-path="url(#_656836185380042clip-2)"/><line x1="583.26" y1="459.18" x2="584.27" y2="462.89" style="stroke-width: 1.5;stroke: rgb(0,0,0);stroke-opacity: 0.5;stroke-linecap: round;stroke-linejoin: round;shape-rendering:geometricPrecision;" transform="matrix(1,0,0,1,0,0)" clip-path="url(#_656836185380042clip-2)"/><line x1="584.27" y1="462.89" x2="584.93" y2="466.32" style="stroke-width: 1.5;stroke: rgb(0,0,0);stroke-opacity: 0.5;stroke-linecap: round;stroke-linejoin: round;shape-rendering:geometricPrecision;" transform="matrix(1,0,0,1,0,0)" clip-path="url(#_656836185380042clip-2)"/><line x1="584.93" y1="466.32" x2="585.28" y2="469.28" style="stroke-width: 1.5;stroke: rgb(0,0,0);stroke-opacity: 0.5;stroke-linecap: round;stroke-linejoin: round;shape-rendering:geometricPrecision;" transform="matrix(1,0,0,1,0,0)" clip-path="url(#_656836185380042clip-2)"/><line x1="585.28" y1="469.28" x2="585.42" y2="471.59" style="stroke-width: 1.5;stroke: rgb(0,0,0);stroke-opacity: 0.5;stroke-linecap: round;stroke-linejoin: round;shape-rendering:geometricPrecision;" transform="matrix(1,0,0,1,0,0)" clip-path="url(#_656836185380042clip-2)"/><line x1="585.42" y1="471.59" x2="585.44" y2="473" style="stroke-width: 1.5;stroke: rgb(0,0,0);stroke-opacity: 0.5;stroke-linecap: round;stroke-linejoin: round;shape-rendering:geometricPrecision;" transform="matrix(1,0,0,1,0,0)" clip-path="url(#_656836185380042clip-2)"/><line x1="585.44" y1="473" x2="503.56" y2="473" style="stroke-width: 1.5;stroke: rgb(0,0,0);stroke-opacity: 0.5;stroke-linecap: round;stroke-linejoin: round;shape-rendering:geometricPrecision;" transform="matrix(1,0,0,1,0,0)" clip-path="url(#_656836185380042clip-2)"/><line x1="503.56" y1="473" x2="503.58" y2="474.41" style="stroke-width: 1.5;stroke: rgb(0,0,0);stroke-opacity: 0.5;stroke-linecap: round;stroke-linejoin: round;shape-rendering:geometricPrecision;" transform="matrix(1,0,0,1,0,0)" clip-path="url(#_656836185380042clip-2)"/><line x1="503.58" y1="474.41" x2="503.72" y2="476.72" style="stroke-width: 1.5;stroke: rgb(0,0,0);stroke-opacity: 0.5;stroke-linecap: round;stroke-linejoin: round;shape-rendering:geometricPrecision;" transform="matrix(1,0,0,1,0,0)" clip-path="url(#_656836185380042clip-2)"/><line x1="503.72" y1="476.72" x2="504.07" y2="479.68" style="stroke-width: 1.5;stroke: rgb(0,0,0);stroke-opacity: 0.5;stroke-linecap: round;stroke-linejoin: round;shape-rendering:geometricPrecision;" transform="matrix(1,0,0,1,0,0)" clip-path="url(#_656836185380042clip-2)"/><line x1="504.07" y1="479.68" x2="504.73" y2="483.11" style="stroke-width: 1.5;stroke: rgb(0,0,0);stroke-opacity: 0.5;stroke-linecap: round;stroke-linejoin: round;shape-rendering:geometricPrecision;" transform="matrix(1,0,0,1,0,0)" clip-path="url(#_656836185380042clip-2)"/><line x1="504.73" y1="483.11" x2="505.74" y2="486.82" style="stroke-width: 1.5;stroke: rgb(0,0,0);stroke-opacity: 0.5;stroke-linecap: round;stroke-linejoin: round;shape-rendering:geometricPrecision;" transform="matrix(1,0,0,1,0,0)" clip-path="url(#_656836185380042clip-2)"/><line x1="505.74" y1="486.82" x2="507.14" y2="490.66" style="stroke-width: 1.5;stroke: rgb(0,0,0);stroke-opacity: 0.5;stroke-linecap: round;stroke-linejoin: round;shape-rendering:geometricPrecision;" transform="matrix(1,0,0,1,0,0)" clip-path="url(#_656836185380042clip-2)"/><line x1="507.14" y1="490.66" x2="508.97" y2="494.47" style="stroke-width: 1.5;stroke: rgb(0,0,0);stroke-opacity: 0.5;stroke-linecap: round;stroke-linejoin: round;shape-rendering:geometricPrecision;" transform="matrix(1,0,0,1,0,0)" clip-path="url(#_656836185380042clip-2)"/><line x1="508.97" y1="494.47" x2="511.22" y2="498.15" style="stroke-width: 1.5;stroke: rgb(0,0,0);stroke-opacity: 0.5;stroke-linecap: round;stroke-linejoin: round;shape-rendering:geometricPrecision;" transform="matrix(1,0,0,1,0,0)" clip-path="url(#_656836185380042clip-2)"/><line x1="511.22" y1="498.15" x2="513.87" y2="501.59" style="stroke-width: 1.5;stroke: rgb(0,0,0);stroke-opacity: 0.5;stroke-linecap: round;stroke-linejoin: round;shape-rendering:geometricPrecision;" transform="matrix(1,0,0,1,0,0)" clip-path="url(#_656836185380042clip-2)"/><line x1="513.87" y1="501.59" x2="516.88" y2="504.71" style="stroke-width: 1.5;stroke: rgb(0,0,0);stroke-opacity: 0.5;stroke-linecap: round;stroke-linejoin: round;shape-rendering:geometricPrecision;" transform="matrix(1,0,0,1,0,0)" clip-path="url(#_656836185380042clip-2)"/><line x1="516.88" y1="504.71" x2="520.2" y2="507.45" style="stroke-width: 1.5;stroke: rgb(0,0,0);stroke-opacity: 0.5;stroke-linecap: round;stroke-linejoin: round;shape-rendering:geometricPrecision;" transform="matrix(1,0,0,1,0,0)" clip-path="url(#_656836185380042clip-2)"/><line x1="520.2" y1="507.45" x2="523.75" y2="509.78" style="stroke-width: 1.5;stroke: rgb(0,0,0);stroke-opacity: 0.5;stroke-linecap: round;stroke-linejoin: round;shape-rendering:geometricPrecision;" transform="matrix(1,0,0,1,0,0)" clip-path="url(#_656836185380042clip-2)"/><line x1="523.75" y1="509.78" x2="527.44" y2="511.67" style="stroke-width: 1.5;stroke: rgb(0,0,0);stroke-opacity: 0.5;stroke-linecap: round;stroke-linejoin: round;shape-rendering:geometricPrecision;" transform="matrix(1,0,0,1,0,0)" clip-path="url(#_656836185380042clip-2)"/><line x1="527.44" y1="511.67" x2="531.14" y2="513.13" style="stroke-width: 1.5;stroke: rgb(0,0,0);stroke-opacity: 0.5;stroke-linecap: round;stroke-linejoin: round;shape-rendering:geometricPrecision;" transform="matrix(1,0,0,1,0,0)" clip-path="url(#_656836185380042clip-2)"/><line x1="531.14" y1="513.13" x2="534.73" y2="514.17" style="stroke-width: 1.5;stroke: rgb(0,0,0);stroke-opacity: 0.5;stroke-linecap: round;stroke-linejoin: round;shape-rendering:geometricPrecision;" transform="matrix(1,0,0,1,0,0)" clip-path="url(#_656836185380042clip-2)"/><line x1="534.73" y1="514.17" x2="538.04" y2="514.85" style="stroke-width: 1.5;stroke: rgb(0,0,0);stroke-opacity: 0.5;stroke-linecap: round;stroke-linejoin: round;shape-rendering:geometricPrecision;" transform="matrix(1,0,0,1,0,0)" clip-path="url(#_656836185380042clip-2)"/><line x1="538.04" y1="514.85" x2="540.91" y2="515.21" style="stroke-width: 1.5;stroke: rgb(0,0,0);stroke-opacity: 0.5;stroke-linecap: round;stroke-linejoin: round;shape-rendering:geometricPrecision;" transform="matrix(1,0,0,1,0,0)" clip-path="url(#_656836185380042clip-2)"/><line x1="540.91" y1="515.21" x2="543.13" y2="515.36" style="stroke-width: 1.5;stroke: rgb(0,0,0);stroke-opacity: 0.5;stroke-linecap: round;stroke-linejoin: round;shape-rendering:geometricPrecision;" transform="matrix(1,0,0,1,0,0)" clip-path="url(#_656836185380042clip-2)"/><line x1="543.13" y1="515.36" x2="544.5" y2="515.38" style="stroke-width: 1.5;stroke: rgb(0,0,0);stroke-opacity: 0.5;stroke-linecap: round;stroke-linejoin: round;shape-rendering:geometricPrecision;" transform="matrix(1,0,0,1,0,0)" clip-path="url(#_656836185380042clip-2)"/><line x1="544.5" y1="515.38" x2="544.5" y2="515.38" style="stroke-width: 1.5;stroke: rgb(0,0,0);stroke-opacity: 0.5;stroke-linecap: round;stroke-linejoin: round;shape-rendering:geometricPrecision;" transform="matrix(1,0,0,1,0,0)" clip-path="url(#_656836185380042clip-2)"/><line x1="544.5" y1="515.38" x2="545.87" y2="515.36" style="stroke-width: 1.5;stroke: rgb(0,0,0);stroke-opacity: 0.5;stroke-linecap: round;stroke-linejoin: round;shape-rendering:geometricPrecision;" transform="matrix(1,0,0,1,0,0)" clip-path="url(#_656836185380042clip-2)"/><line x1="545.87" y1="515.36" x2="548.09" y2="515.21" style="stroke-width: 1.5;stroke: rgb(0,0,0);stroke-opacity: 0.5;stroke-linecap: round;stroke-linejoin: round;shape-rendering:geometricPrecision;" transform="matrix(1,0,0,1,0,0)" clip-path="url(#_656836185380042clip-2)"/><line x1="548.09" y1="515.21" x2="550.96" y2="514.85" style="stroke-width: 1.5;stroke: rgb(0,0,0);stroke-opacity: 0.5;stroke-linecap: round;stroke-linejoin: round;shape-rendering:geometricPrecision;" transform="matrix(1,0,0,1,0,0)" clip-path="url(#_656836185380042clip-2)"/><line x1="550.96" y1="514.85" x2="554.27" y2="514.17" style="stroke-width: 1.5;stroke: rgb(0,0,0);stroke-opacity: 0.5;stroke-linecap: round;stroke-linejoin: round;shape-rendering:geometricPrecision;" transform="matrix(1,0,0,1,0,0)" clip-path="url(#_656836185380042clip-2)"/><line x1="554.27" y1="514.17" x2="557.86" y2="513.13" style="stroke-width: 1.5;stroke: rgb(0,0,0);stroke-opacity: 0.5;stroke-linecap: round;stroke-linejoin: round;shape-rendering:geometricPrecision;" transform="matrix(1,0,0,1,0,0)" clip-path="url(#_656836185380042clip-2)"/><line x1="557.86" y1="513.13" x2="561.56" y2="511.67" style="stroke-width: 1.5;stroke: rgb(0,0,0);stroke-opacity: 0.5;stroke-linecap: round;stroke-linejoin: round;shape-rendering:geometricPrecision;" transform="matrix(1,0,0,1,0,0)" clip-path="url(#_656836185380042clip-2)"/><line x1="561.56" y1="511.67" x2="565.25" y2="509.78" style="stroke-width: 1.5;stroke: rgb(0,0,0);stroke-opacity: 0.5;stroke-linecap: round;stroke-linejoin: round;shape-rendering:geometricPrecision;" transform="matrix(1,0,0,1,0,0)" clip-path="url(#_656836185380042clip-2)"/><line x1="565.25" y1="509.78" x2="568.8" y2="507.45" style="stroke-width: 1.5;stroke: rgb(0,0,0);stroke-opacity: 0.5;stroke-linecap: round;stroke-linejoin: round;shape-rendering:geometricPrecision;" transform="matrix(1,0,0,1,0,0)" clip-path="url(#_656836185380042clip-2)"/><line x1="568.8" y1="507.45" x2="572.12" y2="504.71" style="stroke-width: 1.5;stroke: rgb(0,0,0);stroke-opacity: 0.5;stroke-linecap: round;stroke-linejoin: round;shape-rendering:geometricPrecision;" transform="matrix(1,0,0,1,0,0)" clip-path="url(#_656836185380042clip-2)"/><line x1="572.12" y1="504.71" x2="575.13" y2="501.59" style="stroke-width: 1.5;stroke: rgb(0,0,0);stroke-opacity: 0.5;stroke-linecap: round;stroke-linejoin: round;shape-rendering:geometricPrecision;" transform="matrix(1,0,0,1,0,0)" clip-path="url(#_656836185380042clip-2)"/><line x1="575.13" y1="501.59" x2="577.78" y2="498.15" style="stroke-width: 1.5;stroke: rgb(0,0,0);stroke-opacity: 0.5;stroke-linecap: round;stroke-linejoin: round;shape-rendering:geometricPrecision;" transform="matrix(1,0,0,1,0,0)" clip-path="url(#_656836185380042clip-2)"/><line x1="577.78" y1="498.15" x2="580.03" y2="494.47" style="stroke-width: 1.5;stroke: rgb(0,0,0);stroke-opacity: 0.5;stroke-linecap: round;stroke-linejoin: round;shape-rendering:geometricPrecision;" transform="matrix(1,0,0,1,0,0)" clip-path="url(#_656836185380042clip-2)"/><line x1="580.03" y1="494.47" x2="581.86" y2="490.66" style="stroke-width: 1.5;stroke: rgb(0,0,0);stroke-opacity: 0.5;stroke-linecap: round;stroke-linejoin: round;shape-rendering:geometricPrecision;" transform="matrix(1,0,0,1,0,0)" clip-path="url(#_656836185380042clip-2)"/><line x1="581.86" y1="490.66" x2="583.26" y2="486.82" style="stroke-width: 1.5;stroke: rgb(0,0,0);stroke-opacity: 0.5;stroke-linecap: round;stroke-linejoin: round;shape-rendering:geometricPrecision;" transform="matrix(1,0,0,1,0,0)" clip-path="url(#_656836185380042clip-2)"/><line x1="583.26" y1="486.82" x2="584.27" y2="483.11" style="stroke-width: 1.5;stroke: rgb(0,0,0);stroke-opacity: 0.5;stroke-linecap: round;stroke-linejoin: round;shape-rendering:geometricPrecision;" transform="matrix(1,0,0,1,0,0)" clip-path="url(#_656836185380042clip-2)"/><line x1="584.27" y1="483.11" x2="584.93" y2="479.68" style="stroke-width: 1.5;stroke: rgb(0,0,0);stroke-opacity: 0.5;stroke-linecap: round;stroke-linejoin: round;shape-rendering:geometricPrecision;" transform="matrix(1,0,0,1,0,0)" clip-path="url(#_656836185380042clip-2)"/><line x1="584.93" y1="479.68" x2="585.28" y2="476.72" style="stroke-width: 1.5;stroke: rgb(0,0,0);stroke-opacity: 0.5;stroke-linecap: round;stroke-linejoin: round;shape-rendering:geometricPrecision;" transform="matrix(1,0,0,1,0,0)" clip-path="url(#_656836185380042clip-2)"/><line x1="585.28" y1="476.72" x2="585.42" y2="474.41" style="stroke-width: 1.5;stroke: rgb(0,0,0);stroke-opacity: 0.5;stroke-linecap: round;stroke-linejoin: round;shape-rendering:geometricPrecision;" transform="matrix(1,0,0,1,0,0)" clip-path="url(#_656836185380042clip-2)"/><line x1="585.42" y1="474.41" x2="585.44" y2="473" style="stroke-width: 1.5;stroke: rgb(0,0,0);stroke-opacity: 0.5;stroke-linecap: round;stroke-linejoin: round;shape-rendering:geometricPrecision;" transform="matrix(1,0,0,1,0,0)" clip-path="url(#_656836185380042clip-2)"/><g style="fill: rgb(255,255,255); fill-opacity: 0.5; stroke: none" transform="matrix(1,0,0,1,0,0)" clip-path="url(#_656836185380042clip-2)"><path d="M 503.56 473 L 503.56 473 L 503.58 471.59 L 503.72 469.28 L 504.07 466.32 L 504.73 462.89 L 505.74 459.18 L 507.14 455.34 L 508.97 451.53 L 511.22 447.85 L 513.87 444.41 L 516.88 441.29 L 520.2 438.55 L 523.75 436.22 L 527.44 434.33 L 531.14 432.87 L 534.73 431.83 L 538.04 431.15 L 540.91 430.79 L 543.13 430.64 L 544.5 430.62 L 544.5 430.62 L 545.87 430.64 L 548.09 430.79 L 550.96 431.15 L 554.27 431.83 L 557.86 432.87 L 561.56 434.33 L 565.25 436.22 L 568.8 438.55 L 572.12 441.29 L 575.13 444.41 L 577.78 447.85 L 580.03 451.53 L 581.86 455.34 L 583.26 459.18 L 584.27 462.89 L 584.93 466.32 L 585.28 469.28 L 585.42 471.59 L 585.44 473 L 503.56 473 L 503.58 474.41 L 503.72 476.72 L 504.07 479.68 L 504.73 483.11 L 505.74 486.82 L 507.14 490.66 L 508.97 494.47 L 511.22 498.15 L 513.87 501.59 L 516.88 504.71 L 520.2 507.45 L 523.75 509.78 L 527.44 511.67 L 531.14 513.13 L 534.73 514.17 L 538.04 514.85 L 540.91 515.21 L 543.13 515.36 L 544.5 515.38 L 544.5 515.38 L 545.87 515.36 L 548.09 515.21 L 550.96 514.85 L 554.27 514.17 L 557.86 513.13 L 561.56 511.67 L 565.25 509.78 L 568.8 507.45 L 572.12 504.71 L 575.13 501.59 L 577.78 498.15 L 580.03 494.47 L 581.86 490.66 L 583.26 486.82 L 584.27 483.11 L 584.93 479.68 L 585.28 476.72 L 585.42 474.41 L 585.44 473 L 585.44 473 Z "/></g><rect x="101" y="35" width="887" height="876" style="stroke-width: 0.5;stroke: rgb(0,0,0);stroke-opacity: 1.0;stroke-linecap: round;stroke-linejoin: round;shape-rendering:crispEdges;; fill: none" transform="matrix(1,0,0,1,0,0)" clip-path="url(#_656836185380042clip-0)"/></svg>
