<?xml version="1.0" encoding="UTF-8" standalone="no"?>
<!-- Created with Inkscape (http://www.inkscape.org/) -->

<svg
   xmlns:dc="http://purl.org/dc/elements/1.1/"
   xmlns:cc="http://creativecommons.org/ns#"
   xmlns:rdf="http://www.w3.org/1999/02/22-rdf-syntax-ns#"
   xmlns:svg="http://www.w3.org/2000/svg"
   xmlns="http://www.w3.org/2000/svg"
   xmlns:sodipodi="http://sodipodi.sourceforge.net/DTD/sodipodi-0.dtd"
   xmlns:inkscape="http://www.inkscape.org/namespaces/inkscape"
   width="210mm"
   height="297mm"
   viewBox="0 0 744.09448819 1052.3622047"
   id="svg2"
   version="1.1"
   inkscape:version="0.91 r13725"
   sodipodi:docname="DragDelta_SpecificRange.svg">
  <sodipodi:namedview
     id="base"
     pagecolor="#ffffff"
     bordercolor="#666666"
     borderopacity="1.0"
     inkscape:pageopacity="0.0"
     inkscape:pageshadow="2"
     inkscape:zoom="0.7"
     inkscape:cx="104.173"
     inkscape:cy="779.10508"
     inkscape:document-units="px"
     inkscape:current-layer="layer1"
     showgrid="false"
     inkscape:window-width="1536"
     inkscape:window-height="801"
     inkscape:window-x="-8"
     inkscape:window-y="-8"
     inkscape:window-maximized="1" />
  <defs
     id="defs4">
    <inkscape:path-effect
       effect="spiro"
       id="path-effect8953"
       is_visible="true" />
    <inkscape:path-effect
       effect="spiro"
       id="path-effect8949"
       is_visible="true" />
    <inkscape:path-effect
       effect="spiro"
       id="path-effect4722"
       is_visible="true" />
    <inkscape:path-effect
       effect="spiro"
       id="path-effect4718"
       is_visible="true" />
    <inkscape:path-effect
       is_visible="true"
       id="path-effect4169"
       effect="spiro" />
    <inkscape:path-effect
       is_visible="true"
       id="path-effect4165"
       effect="spiro" />
    <inkscape:path-effect
       is_visible="true"
       id="path-effect4169-6"
       effect="spiro" />
    <inkscape:path-effect
       is_visible="true"
       id="path-effect4169-6-7"
       effect="spiro" />
    <inkscape:path-effect
       effect="spiro"
       id="path-effect4722-7"
       is_visible="true" />
    <inkscape:path-effect
       effect="spiro"
       id="path-effect4722-5"
       is_visible="true" />
    <inkscape:path-effect
       effect="spiro"
       id="path-effect4722-5-7"
       is_visible="true" />
    <inkscape:path-effect
       effect="spiro"
       id="path-effect4169-9"
       is_visible="true" />
    <inkscape:path-effect
       effect="spiro"
       id="path-effect4169-6-3"
       is_visible="true" />
    <inkscape:path-effect
       effect="spiro"
       id="path-effect4169-6-7-4"
       is_visible="true" />
  </defs>
  <metadata
     id="metadata7">
    <rdf:RDF>
      <cc:Work
         rdf:about="">
        <dc:format>image/svg+xml</dc:format>
        <dc:type
           rdf:resource="http://purl.org/dc/dcmitype/StillImage" />
        <dc:title />
      </cc:Work>
    </rdf:RDF>
  </metadata>
  <g
     id="layer1"
     inkscape:groupmode="layer"
     inkscape:label="Livello 1">
    <g
       id="g9791"
       inkscape:export-xdpi="90"
       inkscape:export-ydpi="90">
      <g
         transform="translate(1.608662,-37.72482)"
         id="g9532">
        <ellipse
           style="opacity:1;fill:#000000;fill-opacity:1;stroke:#000000;stroke-width:0;stroke-linecap:round;stroke-linejoin:miter;stroke-miterlimit:4;stroke-dasharray:none;stroke-dashoffset:0;stroke-opacity:1"
           id="path8888"
           cx="404.82141"
           cy="404.23718"
           rx="2.1656251"
           ry="2.0671875" />
        <ellipse
           style="opacity:1;fill:#000000;fill-opacity:1;stroke:#000000;stroke-width:0;stroke-linecap:round;stroke-linejoin:miter;stroke-miterlimit:4;stroke-dasharray:none;stroke-dashoffset:0;stroke-opacity:1"
           id="path8888-5"
           cx="414.46429"
           cy="450.75504"
           rx="2.2739062"
           ry="2.170547" />
        <ellipse
           style="opacity:1;fill:#000000;fill-opacity:1;stroke:#000000;stroke-width:0;stroke-linecap:round;stroke-linejoin:miter;stroke-miterlimit:4;stroke-dasharray:none;stroke-dashoffset:0;stroke-opacity:1"
           id="path8888-5-6"
           cx="429.1684"
           cy="499.65298"
           rx="2.2739062"
           ry="2.170547" />
        <path
           style="fill:none;fill-rule:evenodd;stroke:#000000;stroke-width:0.60000002;stroke-linecap:butt;stroke-linejoin:miter;stroke-miterlimit:4;stroke-dasharray:2.4, 2.4;stroke-dashoffset:0;stroke-opacity:1"
           d="m 402.17722,387.39782 c 3.8944,27.43213 9.62536,54.60339 17.14179,81.27157 5.44002,19.3011 11.8146,38.33877 19.09394,57.02399"
           id="path8951"
           inkscape:path-effect="#path-effect8953"
           inkscape:original-d="m 402.17722,387.39782 c 7.18729,43.92278 10.51969,60.07581 17.14179,81.27157 6.62208,21.19576 14.00044,40.87496 19.09394,57.02399"
           inkscape:connector-curvature="0"
           sodipodi:nodetypes="csc" />
        <g
           word-spacing="normal"
           letter-spacing="normal"
           font-size-adjust="none"
           font-stretch="normal"
           font-weight="normal"
           font-variant="normal"
           font-style="normal"
           stroke-miterlimit="10.433"
           xml:space="preserve"
           transform="matrix(0.278657,0,0,-0.278657,286.37801,643.38357)"
           id="g9016"
           style="font-style:normal;font-variant:normal;font-weight:normal;font-stretch:normal;letter-spacing:normal;word-spacing:normal;text-anchor:start;fill:none;fill-opacity:1;fill-rule:evenodd;stroke:#000000;stroke-linecap:butt;stroke-linejoin:miter;stroke-miterlimit:10.43299961;stroke-dasharray:none;stroke-dashoffset:0;stroke-opacity:1"><path
             id="path9018"
             d="m 501.66,436.39 0.04,0.16 0.04,0.16 0.04,0.15 0.04,0.14 0.04,0.14 0.04,0.13 0.04,0.12 0.05,0.11 0.05,0.11 0.05,0.11 0.07,0.09 0.06,0.09 0.08,0.09 0.08,0.08 0.09,0.07 0.09,0.07 0.11,0.06 0.12,0.06 0.13,0.05 0.14,0.05 0.15,0.04 0.09,0.02 0.08,0.02 0.09,0.02 0.09,0.02 0.1,0.01 0.1,0.02 0.1,0.01 0.11,0.01 0.11,0.02 0.12,0.01 0.12,0.01 0.12,0 0.13,0.01 0.13,0.01 0.14,0.01 0.14,0 0.15,0 0.15,0.01 0.16,0 0.16,0 0.17,0 0.17,0 c 1.14,0 1.6,0 1.6,1 0,0.55 -0.5,0.55 -1.35,0.55 l -6.58,0 c -1.29,0 -1.34,0 -1.93,-0.95 l -18.19,-28.39 -3.89,28.18 c -0.16,1.16 -0.25,1.16 -1.55,1.16 l -6.83,0 c -0.93,0 -1.48,0 -1.48,-0.95 0,-0.6 0.44,-0.6 1.44,-0.6 0.65,0 1.54,-0.04 2.14,-0.09 0.79,-0.11 1.09,-0.25 1.09,-0.8 0,-0.2 -0.05,-0.36 -0.19,-0.95 l -6.33,-25.36 c -0.5,-2 -1.34,-3.59 -5.39,-3.73 -0.25,0 -0.89,-0.05 -0.89,-0.96 0,-0.43 0.3,-0.59 0.71,-0.59 1.59,0 3.32,0.16 4.97,0.16 1.7,0 3.5,-0.16 5.14,-0.16 0.25,0 0.89,0 0.89,1 0,0.55 -0.55,0.55 -0.89,0.55 -2.85,0.04 -3.39,1.04 -3.39,2.18 0,0.35 0.04,0.6 0.2,1.14 l 6.76,27.16 0.07,0 4.28,-30.89 c 0.09,-0.59 0.14,-1.14 0.75,-1.14 0.54,0 0.84,0.55 1.09,0.89 l 20.13,31.55 0.04,0 -7.12,-28.55 c -0.5,-1.95 -0.6,-2.34 -4.53,-2.34 -0.85,0 -1.39,0 -1.39,-0.96 0,-0.59 0.59,-0.59 0.75,-0.59 1.39,0 4.78,0.16 6.17,0.16 2.05,0 4.19,-0.16 6.23,-0.16 0.3,0 0.94,0 0.94,1 0,0.55 -0.45,0.55 -1.39,0.55 -1.84,0 -3.23,0 -3.23,0.89 0,0.2 0,0.29 0.25,1.2 z"
             inkscape:connector-curvature="0"
             style="fill:#000000;stroke-width:0" /><path
             id="path9020"
             d="m 522.38,408.03 -0.01,0.36 -0.02,0.34 -0.05,0.34 -0.05,0.33 -0.07,0.32 -0.09,0.31 -0.1,0.3 -0.12,0.28 -0.12,0.28 -0.15,0.27 -0.15,0.25 -0.17,0.25 -0.17,0.23 -0.19,0.22 -0.2,0.22 -0.21,0.2 -0.22,0.19 -0.23,0.17 -0.24,0.17 -0.25,0.15 -0.25,0.15 -0.27,0.13 -0.27,0.12 -0.28,0.1 -0.28,0.1 -0.29,0.08 -0.3,0.07 -0.3,0.06 -0.31,0.04 -0.31,0.04 -0.31,0.01 -0.32,0.01 c -5.17,0 -10.04,-4.84 -10.04,-9.61 0,-3.48 2.54,-6.09 6.34,-6.09 l 0.03,0.97 c -1.73,0 -3.48,1.12 -3.48,3.87 0,1.42 0.67,4.85 2.03,6.83 1.5,2.16 3.51,3.06 5.07,3.06 1.9,0 3.49,-1.29 3.49,-3.87 0,-0.83 -0.41,-4.28 -1.95,-6.72 -1.32,-2.05 -3.41,-3.17 -5.16,-3.17 l 0,0 -0.03,-0.97 c 4.98,0 10,4.59 10,9.61 z"
             inkscape:connector-curvature="0"
             style="fill:#000000;stroke-width:0" /><path
             id="path9022"
             d="m 526.17,394.51 -0.02,-0.09 -0.02,-0.08 -0.02,-0.09 -0.03,-0.07 -0.02,-0.08 -0.02,-0.07 -0.02,-0.07 -0.02,-0.06 -0.03,-0.06 -0.02,-0.05 -0.03,-0.06 -0.03,-0.05 -0.03,-0.04 -0.03,-0.05 -0.04,-0.04 -0.04,-0.03 -0.04,-0.04 -0.05,-0.03 -0.05,-0.03 -0.06,-0.02 -0.06,-0.03 -0.06,-0.02 -0.07,-0.01 -0.08,-0.02 -0.08,-0.02 -0.04,0 -0.04,-0.01 -0.05,0 -0.04,-0.01 -0.05,0 -0.05,0 -0.05,-0.01 -0.06,0 -0.05,0 -0.06,0 -0.06,-0.01 -0.06,0 -0.06,0 -0.06,0 c -0.46,0 -0.94,0 -0.94,-0.73 0,-0.39 0.31,-0.53 0.48,-0.53 0.91,0 2.06,0.14 3,0.14 1.19,0 2.5,-0.14 3.66,-0.14 0.31,0 0.7,0.11 0.7,0.76 0,0.5 -0.5,0.5 -0.9,0.5 -0.79,0 -1.72,0 -1.72,0.41 0,0.19 0.25,1.09 0.39,1.61 0.42,1.84 0.9,3.73 1.28,5.18 0.42,-0.68 1.5,-2.04 3.59,-2.04 l 0,0.97 c -2.47,0 -3.09,2.68 -3.09,3.03 0,0.14 0.06,0.39 0.09,0.53 l 1.75,7 c 2.02,2.69 3.77,3.2 4.88,3.2 1.36,0 2.54,-1.01 2.54,-3.37 0,-1.44 -0.76,-4.99 -1.81,-7.02 -0.87,-1.7 -2.58,-3.37 -4.36,-3.37 l 0,-0.97 c 4.25,0 8.96,4.7 8.96,9.89 0,4.08 -2.83,5.81 -5.22,5.81 -2.18,0 -4.02,-1.45 -4.96,-2.44 -0.59,1.99 -2.54,2.44 -3.59,2.44 -1.36,0 -2.19,-0.91 -2.75,-1.84 -0.7,-1.19 -1.25,-3.27 -1.25,-3.49 0,-0.45 0.48,-0.45 0.59,-0.45 0.49,0 0.52,0.11 0.77,1.05 0.51,2.03 1.19,3.76 2.54,3.76 0.91,0 1.15,-0.76 1.15,-1.7 0,-0.39 -0.07,-0.84 -0.11,-1.05 z"
             inkscape:connector-curvature="0"
             style="fill:#000000;stroke-width:0" /><path
             id="path9024"
             d="m 552.66,412.53 3.54,0 c 0.66,0 1.11,0 1.11,0.76 0,0.49 -0.45,0.49 -1.03,0.49 l -3.31,0 1.28,5.15 c 0.03,0.18 0.11,0.35 0.11,0.49 0,0.64 -0.48,1.12 -1.19,1.12 -0.87,0 -1.39,-0.59 -1.64,-1.5 -0.23,-0.87 0.22,0.8 -1.33,-5.26 l -3.54,0 c -0.66,0 -1.11,0 -1.11,-0.77 0,-0.48 0.4,-0.48 1.04,-0.48 l 3.3,0 -2.05,-8.22 c -0.21,-0.88 -0.53,-2.13 -0.53,-2.58 0,-2.06 1.75,-3.31 3.74,-3.31 3.87,0 6.06,4.87 6.06,5.33 0,0.45 -0.45,0.45 -0.56,0.45 -0.41,0 -0.46,-0.08 -0.72,-0.66 -0.99,-2.2 -2.77,-4.15 -4.67,-4.15 -0.74,0 -1.22,0.45 -1.22,1.7 0,0.36 0.14,1.09 0.2,1.44 z"
             inkscape:connector-curvature="0"
             style="fill:#000000;stroke-width:0" /><path
             id="path9026"
             d="m 570.38,420.54 -0.01,0.05 0,0.06 -0.01,0.05 -0.01,0.06 -0.01,0.05 -0.01,0.06 -0.02,0.05 -0.02,0.06 -0.02,0.06 -0.02,0.05 -0.03,0.06 -0.03,0.05 -0.03,0.06 -0.04,0.05 -0.04,0.05 -0.04,0.05 -0.04,0.05 -0.05,0.05 -0.05,0.04 -0.05,0.05 -0.06,0.04 -0.06,0.03 -0.06,0.04 -0.07,0.03 -0.06,0.03 -0.08,0.03 -0.07,0.02 -0.08,0.02 -0.08,0.01 -0.08,0.01 -0.09,0.01 -0.09,0 c -0.94,0 -1.95,-0.91 -1.95,-1.92 0,-0.59 0.45,-1.33 1.4,-1.33 1,0 1.96,0.99 1.96,1.92 z"
             inkscape:connector-curvature="0"
             style="fill:#000000;stroke-width:0" /><path
             id="path9028"
             d="m 563.27,402.84 -0.06,-0.17 -0.05,-0.17 -0.03,-0.08 -0.02,-0.09 -0.03,-0.08 -0.02,-0.09 -0.03,-0.09 -0.02,-0.09 -0.01,-0.1 -0.02,-0.09 -0.01,-0.1 -0.01,-0.05 0,-0.05 0,-0.06 -0.01,-0.05 0,-0.05 0,-0.06 c 0,-1.64 1.39,-2.95 3.3,-2.95 3.48,0 5.03,4.79 5.03,5.33 0,0.45 -0.45,0.45 -0.56,0.45 -0.49,0 -0.53,-0.2 -0.67,-0.59 -0.8,-2.79 -2.33,-4.22 -3.69,-4.22 -0.7,0 -0.88,0.45 -0.88,1.22 0,0.79 0.25,1.46 0.57,2.23 0.34,0.94 0.73,1.87 1.11,2.78 0.31,0.84 1.57,4.02 1.72,4.44 0.09,0.34 0.2,0.76 0.2,1.11 0,1.64 -1.39,2.95 -3.31,2.95 -3.46,0 -5.05,-4.73 -5.05,-5.33 0,-0.45 0.48,-0.45 0.59,-0.45 0.49,0 0.52,0.17 0.63,0.56 0.9,3 2.44,4.25 3.72,4.25 0.56,0 0.87,-0.28 0.87,-1.22 0,-0.79 -0.2,-1.32 -1.08,-3.48 z"
             inkscape:connector-curvature="0"
             style="fill:#000000;stroke-width:0" /><path
             id="path9030"
             d="m 588.24,401.59 -0.01,-0.07 -0.02,-0.07 -0.02,-0.07 -0.02,-0.07 -0.02,-0.08 -0.02,-0.08 -0.04,-0.15 -0.04,-0.17 -0.04,-0.16 -0.04,-0.16 -0.02,-0.07 -0.01,-0.08 -0.02,-0.08 -0.02,-0.07 -0.02,-0.07 -0.01,-0.07 -0.02,-0.07 -0.01,-0.06 -0.02,-0.06 -0.01,-0.06 -0.01,-0.05 -0.01,-0.05 -0.01,-0.04 -0.01,-0.04 0,-0.04 -0.01,-0.03 0,-0.02 0,-0.02 c 0,-0.77 0.62,-1.11 1.17,-1.11 0.64,0 1.19,0.45 1.36,0.76 0.19,0.32 0.45,1.43 0.64,2.16 0.17,0.66 0.55,2.27 0.77,3.14 0.2,0.77 0.4,1.53 0.59,2.33 0.37,1.5 0.37,1.56 1.08,2.65 1.11,1.71 2.86,3.69 5.56,3.69 1.95,0 2.06,-1.61 2.06,-2.44 0,-2.09 -1.5,-5.95 -2.06,-7.42 -0.38,-0.98 -0.52,-1.29 -0.52,-1.89 0,-1.84 1.54,-2.98 3.32,-2.98 3.48,0 5.01,4.79 5.01,5.33 0,0.45 -0.45,0.45 -0.56,0.45 -0.48,0 -0.52,-0.2 -0.66,-0.59 -0.79,-2.79 -2.29,-4.22 -3.68,-4.22 -0.74,0 -0.88,0.48 -0.88,1.22 0,0.79 0.17,1.25 0.8,2.82 0.42,1.08 1.84,4.77 1.84,6.72 0,0.56 0,2.03 -1.28,3.03 -0.59,0.46 -1.61,0.94 -3.25,0.94 -3.12,0 -5.05,-2.05 -6.16,-3.51 -0.28,2.96 -2.76,3.51 -4.53,3.51 -2.89,0 -4.84,-1.76 -5.89,-3.16 -0.25,2.4 -2.29,3.16 -3.73,3.16 -1.5,0 -2.3,-1.08 -2.75,-1.87 -0.77,-1.29 -1.25,-3.29 -1.25,-3.46 0,-0.45 0.48,-0.45 0.59,-0.45 0.49,0 0.52,0.11 0.77,1.05 0.51,2.06 1.18,3.76 2.54,3.76 0.91,0 1.14,-0.76 1.14,-1.7 0,-0.67 -0.31,-1.95 -0.56,-2.89 -0.23,-0.95 -0.58,-2.38 -0.76,-3.14 l -1.11,-4.47 c -0.14,-0.44 -0.35,-1.31 -0.35,-1.42 0,-0.77 0.63,-1.11 1.19,-1.11 0.63,0 1.17,0.45 1.36,0.76 0.17,0.32 0.45,1.43 0.63,2.16 0.17,0.66 0.54,2.27 0.76,3.14 0.2,0.77 0.42,1.53 0.59,2.33 0.38,1.44 0.46,1.7 1.46,3.14 0.98,1.39 2.62,3.2 5.23,3.2 2.02,0 2.05,-1.78 2.05,-2.44 0,-0.87 -0.09,-1.32 -0.59,-3.28 z"
             inkscape:connector-curvature="0"
             style="fill:#000000;stroke-width:0" /><path
             id="path9032"
             d="m 623.25,404.4 -0.02,-0.06 -0.01,-0.07 -0.02,-0.08 -0.02,-0.07 -0.02,-0.08 -0.02,-0.08 -0.02,-0.08 -0.02,-0.08 -0.04,-0.17 -0.04,-0.17 -0.04,-0.17 -0.02,-0.08 -0.02,-0.08 -0.02,-0.08 -0.02,-0.07 -0.02,-0.07 -0.02,-0.07 -0.02,-0.07 -0.02,-0.06 -0.01,-0.06 -0.02,-0.06 -0.01,-0.05 -0.02,-0.04 -0.01,-0.04 -0.01,-0.04 -0.01,-0.01 0,-0.01 -0.01,-0.01 0,-0.01 -0.01,-0.01 0,-0.01 0,0 -0.01,0 c -0.67,-1.08 -2.06,-2.97 -4.22,-2.97 -2.4,0 -2.4,2.26 -2.4,2.89 0,2.06 0.97,4.53 1.95,7.08 0.28,0.7 0.49,1.21 0.49,1.78 0,1.81 -1.54,2.98 -3.32,2.98 -3.48,0 -5.04,-4.76 -5.04,-5.33 0,-0.45 0.48,-0.45 0.59,-0.45 0.48,0 0.52,0.17 0.63,0.56 0.82,2.86 2.37,4.25 3.71,4.25 0.6,0 0.88,-0.39 0.88,-1.22 0,-0.79 -0.28,-1.53 -0.63,-2.32 -1.87,-4.82 -1.87,-5.83 -1.87,-6.77 0,-0.59 0,-2.2 1.28,-3.31 1.02,-0.83 2.38,-1.11 3.59,-1.11 2.19,0 3.38,1.19 4.54,2.29 0.76,-2.23 3.09,-2.29 3.51,-2.29 1.19,0 2.09,0.69 2.75,1.84 0.77,1.36 1.25,3.38 1.25,3.49 0,0.45 -0.48,0.45 -0.58,0.45 -0.5,0 -0.53,-0.14 -0.78,-1.08 -0.4,-1.64 -1.08,-3.73 -2.53,-3.73 -0.91,0 -1.16,0.79 -1.16,1.7 0,0.59 0.29,1.86 0.54,2.77 0.23,0.93 0.57,2.35 0.76,3.12 l 0.8,3.11 c 0.2,0.87 0.59,2.41 0.59,2.58 0,0.69 -0.56,1.11 -1.15,1.11 -1.29,0 -1.54,-1.02 -1.82,-2.13 z"
             inkscape:connector-curvature="0"
             style="fill:#000000;stroke-width:0" /><path
             id="path9034"
             d="m 647.16,401.59 -0.02,-0.07 -0.01,-0.07 -0.02,-0.07 -0.02,-0.07 -0.02,-0.08 -0.02,-0.08 -0.04,-0.15 -0.04,-0.17 -0.04,-0.16 -0.04,-0.16 -0.02,-0.07 -0.02,-0.08 -0.01,-0.08 -0.02,-0.07 -0.02,-0.07 -0.02,-0.07 -0.01,-0.07 -0.02,-0.06 -0.01,-0.06 -0.01,-0.06 -0.01,-0.05 -0.01,-0.05 -0.01,-0.04 -0.01,-0.04 -0.01,-0.04 0,-0.03 0,-0.02 0,-0.02 c 0,-0.77 0.62,-1.11 1.17,-1.11 0.64,0 1.18,0.45 1.36,0.76 0.19,0.32 0.45,1.43 0.64,2.16 0.17,0.66 0.55,2.27 0.76,3.14 0.21,0.77 0.41,1.53 0.6,2.33 0.37,1.5 0.37,1.56 1.07,2.65 1.12,1.71 2.87,3.69 5.57,3.69 1.95,0 2.06,-1.61 2.06,-2.44 0,-2.09 -1.5,-5.95 -2.06,-7.42 -0.38,-0.98 -0.52,-1.29 -0.52,-1.89 0,-1.84 1.53,-2.98 3.32,-2.98 3.48,0 5.01,4.79 5.01,5.33 0,0.45 -0.45,0.45 -0.56,0.45 -0.49,0 -0.52,-0.2 -0.66,-0.59 -0.79,-2.79 -2.29,-4.22 -3.69,-4.22 -0.73,0 -0.87,0.48 -0.87,1.22 0,0.79 0.17,1.25 0.8,2.82 0.42,1.08 1.84,4.77 1.84,6.72 0,0.56 0,2.03 -1.28,3.03 -0.59,0.46 -1.61,0.94 -3.25,0.94 -3.13,0 -5.05,-2.05 -6.16,-3.51 -0.28,2.96 -2.76,3.51 -4.53,3.51 -2.89,0 -4.84,-1.76 -5.89,-3.16 -0.25,2.4 -2.3,3.16 -3.73,3.16 -1.5,0 -2.3,-1.08 -2.75,-1.87 -0.77,-1.29 -1.25,-3.29 -1.25,-3.46 0,-0.45 0.48,-0.45 0.59,-0.45 0.48,0 0.51,0.11 0.76,1.05 0.52,2.06 1.19,3.76 2.55,3.76 0.91,0 1.14,-0.76 1.14,-1.7 0,-0.67 -0.31,-1.95 -0.56,-2.89 -0.23,-0.95 -0.58,-2.38 -0.76,-3.14 l -1.12,-4.47 c -0.13,-0.44 -0.34,-1.31 -0.34,-1.42 0,-0.77 0.63,-1.11 1.19,-1.11 0.62,0 1.17,0.45 1.36,0.76 0.17,0.32 0.45,1.43 0.62,2.16 0.17,0.66 0.55,2.27 0.77,3.14 0.2,0.77 0.42,1.53 0.59,2.33 0.38,1.44 0.46,1.7 1.46,3.14 0.98,1.39 2.62,3.2 5.23,3.2 2.02,0 2.05,-1.78 2.05,-2.44 0,-0.87 -0.1,-1.32 -0.6,-3.28 z"
             inkscape:connector-curvature="0"
             style="fill:#000000;stroke-width:0" /></g>      </g>
      <g
         transform="translate(-1.6063702,-31.134821)"
         id="g9582">
        <path
           id="path4666"
           d="m 509.52989,200.94847 0.33743,-0.49527 c 0.39731,-0.50616 0.85992,-0.9851 1.78515,-1.06129 0.21226,-0.0163 0.4354,-0.0327 0.4354,-0.41363 0,-0.13607 -0.10885,-0.26669 -0.26668,-0.26669 -0.42996,0 -0.9851,0.0762 -1.43683,0.0762 -0.66399,0 -1.48036,-0.0762 -2.10626,-0.0762 -0.0925,0 -0.40274,0 -0.40274,0.41908 0,0.24491 0.27213,0.26124 0.34288,0.26124 0.42452,0.0163 1.04496,0.13606 1.04496,0.66399 0,0.21225 -0.20681,0.55513 -0.27757,0.68031 l -5.34999,8.78423 -1.04496,-9.5734 c 0,-0.5388 1.09394,-0.55513 1.32253,-0.55513 0.24491,0 0.51159,0 0.51159,-0.41363 0,-0.0218 -0.0163,-0.26669 -0.31566,-0.26669 -0.36465,0 -0.81638,0.0327 -1.18103,0.0599 -0.37553,0.0163 -0.86536,0.0163 -1.25178,0.0163 -0.42996,0 -1.55656,-0.0762 -1.98652,-0.0762 -0.0925,0 -0.38642,0 -0.38642,0.41908 0,0.26123 0.25036,0.26123 0.49527,0.26123 0.81638,0 0.9089,0.13607 0.96877,0.32656 0.0163,0.10885 0.0599,0.64221 0.13606,1.23 l -5.21937,8.57197 -1.00687,-9.29582 c 0,-0.0762 -0.0327,-0.26124 -0.0327,-0.27757 0,-0.55514 1.17559,-0.55514 1.32798,-0.55514 0.24491,0 0.5116,0 0.5116,-0.41363 0,-0.0762 -0.0599,-0.26668 -0.31023,-0.26668 -0.54425,0 -1.89399,0.0762 -2.43824,0.0762 -0.63134,0 -1.43139,-0.0762 -1.99197,-0.0762 -0.19593,0 -0.38097,0.0762 -0.38097,0.40275 0,0.27756 0.22858,0.27756 0.52792,0.27756 0.89257,0 0.89257,0.11974 0.95244,0.58779 l 1.26811,11.54903 c 0.0435,0.38098 0.0599,0.51704 0.3973,0.51704 0.32655,0 0.46262,-0.16872 0.57147,-0.38098 l 5.91602,-9.74755 1.03952,9.63871 c 0.0435,0.38641 0.13606,0.48982 0.42451,0.48982 0.31567,0 0.4354,-0.16872 0.56058,-0.3973 z"
           inkscape:connector-curvature="0"
           style="font-style:normal;font-variant:normal;font-weight:normal;font-stretch:normal;letter-spacing:normal;word-spacing:normal;text-anchor:start;fill:#000000;fill-opacity:1;fill-rule:evenodd;stroke:#000000;stroke-width:0;stroke-linecap:butt;stroke-linejoin:miter;stroke-miterlimit:10.43299961;stroke-dasharray:none;stroke-dashoffset:0;stroke-opacity:1" />
        <polyline
           id="polyline4668"
           points="524,418 566.84,418 566.84,420.04 524,420.04 "
           style="font-style:normal;font-variant:normal;font-weight:normal;font-stretch:normal;letter-spacing:normal;word-spacing:normal;text-anchor:start;fill:#000000;fill-opacity:1;fill-rule:nonzero;stroke:#000000;stroke-width:0;stroke-linecap:butt;stroke-linejoin:miter;stroke-miterlimit:10.43299961;stroke-dasharray:none;stroke-dashoffset:0;stroke-opacity:1"
           transform="matrix(0.54425196,0,0,-0.54425196,204.80322,443.3855)" />
        <path
           id="path4670"
           d="m 501.81239,223.39886 -0.26124,0.0762 -0.25579,0.0816 -0.25036,0.0925 -0.23947,0.098 -0.23403,0.10886 -0.22314,0.11973 -0.21771,0.12518 -0.21225,0.13062 -0.20138,0.1415 -0.19593,0.14151 -0.18505,0.15239 -0.17959,0.15783 -0.16872,0.16328 -0.16328,0.16872 -0.15239,0.16872 -0.14695,0.1796 -0.13606,0.1796 -0.13062,0.18505 -0.11974,0.18504 -0.10885,0.18505 -0.1034,0.19593 -0.098,0.19049 -0.0816,0.19593 -0.0816,0.19049 -0.0653,0.19593 -0.0599,0.19593 -0.049,0.19593 -0.0435,0.19593 -0.0327,0.19593 -0.0218,0.19049 -0.0163,0.19048 0,0.19049 c 0,2.00829 1.54023,3.3145 3.40702,3.3145 l 0.0435,-0.53337 c -1.04497,0 -2.06816,-0.68031 -2.06816,-2.2532 0,-1.25178 0.72385,-4.53362 3.3798,-5.18128 l 0,0 c 0.52249,0.84903 1.2028,1.95931 1.2028,3.31994 0,1.55655 -0.92523,4.11454 -2.51444,4.11454 l -0.0435,0.53337 c 2.29674,0 4.08188,-2.69405 4.08188,-5.45885 0,-1.84501 -0.98509,-2.92263 -1.57288,-3.57029 -0.70208,-0.78917 -2.12803,-2.34573 -2.12803,-3.22197 0,-0.25036 0.26668,-0.80005 1.05041,-0.80005 0.64766,0 1.17014,0.30478 1.58922,0.53336 0.16872,0.0925 0.84903,0.49527 1.13748,0.49527 0.45173,0 0.79461,-0.41907 0.79461,-0.80005 0,-0.46806 -0.25035,-0.5116 -1.26811,-0.71297 -0.22858,-0.0435 -1.09938,-0.22858 -1.70895,-0.22858 -1.42049,0 -2.22054,0.8327 -2.22054,1.98652 0,1.00686 0.60956,2.16068 1.27354,3.29816 z"
           inkscape:connector-curvature="0"
           style="font-style:normal;font-variant:normal;font-weight:normal;font-stretch:normal;letter-spacing:normal;word-spacing:normal;text-anchor:start;fill:#000000;fill-opacity:1;fill-rule:evenodd;stroke:#000000;stroke-width:0;stroke-linecap:butt;stroke-linejoin:miter;stroke-miterlimit:10.43299961;stroke-dasharray:none;stroke-dashoffset:0;stroke-opacity:1" />
      </g>
      <path
         sodipodi:nodetypes="cssc"
         inkscape:connector-curvature="0"
         inkscape:original-d="m 287.52348,321.68921 c 38.78986,43.96184 56.89179,54.3058 72.40773,54.3058 15.51595,0 75.64023,-33.61788 104.08612,-60.77078 28.4459,-27.1529 51.07332,-91.80266 56.24529,-109.9046"
         inkscape:path-effect="#path-effect4722-5-7"
         id="path4720-1-6"
         d="m 287.52348,321.68921 c 5.26668,15.11184 15.12152,28.59053 27.92416,38.19251 12.80263,9.60198 28.50154,15.28859 44.48357,16.11329 20.87595,1.07723 41.63464,-6.05473 59.17007,-17.43341 17.53544,-11.37868 32.0972,-26.82547 44.91605,-43.33737 25.38463,-32.6978 44.57178,-70.18993 56.24529,-109.9046"
         style="fill:none;fill-rule:evenodd;stroke:#000000;stroke-width:1.29999995;stroke-linecap:round;stroke-linejoin:miter;stroke-miterlimit:4;stroke-dasharray:none;stroke-opacity:1" />
      <g
         transform="translate(89.107916,-168.27767)"
         id="g9577">
        <g
           transform="matrix(-0.98469341,0.1742954,-0.1742954,-0.98469341,1004.9178,782.07252)"
           id="g8941">
          <path
             sodipodi:nodetypes="cc"
             inkscape:connector-curvature="0"
             id="path4207-3"
             d="m 403.0605,402.86333 93.32702,117.75081"
             style="fill:none;fill-rule:evenodd;stroke:#000000;stroke-width:0.53576434;stroke-linecap:butt;stroke-linejoin:miter;stroke-miterlimit:4;stroke-dasharray:none;stroke-opacity:1" />
          <path
             style="fill:#000000;fill-opacity:1;fill-rule:evenodd;stroke:#000000;stroke-width:0;stroke-linecap:round;stroke-linejoin:round;stroke-miterlimit:4;stroke-dasharray:none;stroke-opacity:1"
             d="m 492.42373,512.49567 5.2249,9.78304 -8.962,-6.38198 z"
             id="path4218-0"
             inkscape:connector-curvature="0"
             sodipodi:nodetypes="cccc"
             inkscape:transform-center-x="-0.35714234"
             inkscape:transform-center-y="2.191974e-005" />
        </g>
      </g>
      <path
         sodipodi:nodetypes="cssc"
         inkscape:connector-curvature="0"
         inkscape:original-d="m 259.45243,387.24896 c 60.60916,68.69038 88.89343,84.85282 113.13709,84.85282 24.24366,0 118.18785,-52.52794 162.63456,-94.95435 44.44671,-42.4264 56.56854,-79.80204 64.64976,-108.08632"
         inkscape:path-effect="#path-effect4722"
         id="path4720"
         d="m 259.45243,387.24896 c 8.22677,23.61367 23.62439,44.67577 43.62896,59.6792 20.00456,15.00342 44.53551,23.88774 69.50813,25.17362 32.61778,1.67954 65.05025,-9.46879 92.44753,-27.24883 27.39727,-17.78003 50.14996,-41.91296 70.18703,-67.70552 25.81866,-33.23486 47.58061,-69.61811 64.64976,-108.08632"
         style="fill:none;fill-rule:evenodd;stroke:#000000;stroke-width:1.29999995;stroke-linecap:round;stroke-linejoin:miter;stroke-miterlimit:4;stroke-dasharray:none;stroke-opacity:1" />
      <path
         sodipodi:nodetypes="cssc"
         inkscape:connector-curvature="0"
         inkscape:original-d="m 276.622,353.60233 c 48.48733,54.95231 71.11474,67.88226 90.50967,67.88226 19.39493,0 94.55028,-42.02235 130.10765,-75.96348 35.55737,-33.94112 55.76042,-88.48935 62.22539,-111.11678"
         inkscape:path-effect="#path-effect4722-5"
         id="path4720-1"
         d="m 276.622,353.60233 c 6.57188,18.89659 18.88768,35.75273 34.89309,47.75679 16.00541,12.00406 35.63573,19.10751 55.61658,20.12547 26.09069,1.32924 52.02484,-7.60778 73.93539,-21.83517 21.91056,-14.22739 40.11247,-33.52312 56.17226,-54.12831 26.19664,-33.61107 47.25659,-71.21812 62.22539,-111.11678"
         style="fill:none;fill-rule:evenodd;stroke:#000000;stroke-width:1.29999995;stroke-linecap:round;stroke-linejoin:miter;stroke-miterlimit:4;stroke-dasharray:none;stroke-opacity:1" />
      <g
         transform="translate(-1.3431557,-5.7040858)"
         id="g9567">
        <path
           style="font-style:normal;font-variant:normal;font-weight:normal;font-stretch:normal;letter-spacing:normal;word-spacing:normal;text-anchor:start;fill:#000000;fill-opacity:1;fill-rule:evenodd;stroke:#000000;stroke-width:0;stroke-linecap:butt;stroke-linejoin:miter;stroke-miterlimit:10.43299961;stroke-dasharray:none;stroke-dashoffset:0;stroke-opacity:1"
           inkscape:connector-curvature="0"
           d="m 79.345332,130.19567 0.0074,-0.0372 0.0074,-0.0298 0.0074,-0.0372 0.0074,-0.0298 0.0074,-0.0297 0.0074,-0.0298 0.0074,-0.0298 0.0074,-0.0298 0.01491,-0.0521 0.01491,-0.0521 0.01491,-0.0521 0.01491,-0.0372 0.01491,-0.0447 0.01491,-0.0372 0.01491,-0.0372 0.01491,-0.0372 0.01491,-0.0298 0.02233,-0.0223 0.01491,-0.0298 0.02233,-0.0223 0.01491,-0.0223 0.02233,-0.0223 0.02975,-0.0149 0.02233,-0.0149 0.02975,-0.0149 0.02233,-0.0149 0.02975,-0.007 0.03724,-0.0149 0.02975,-0.007 0.03717,-0.007 0.03717,-0.007 0.04466,-0.007 0.04466,-0.007 0.04466,0 0.05208,-0.007 0.05208,-0.007 c 0.126497,-0.0223 1.034292,-0.0223 1.555162,-0.0223 1.577478,0 2.254602,0 2.894521,0.20834 1.175671,0.36461 1.220317,1.11615 1.220317,2.04627 0,0.40924 0,0.74409 -0.171143,2.09834 l -0.0595,0.2902 c 0,0.25299 0.186025,0.37949 0.439019,0.37949 0.394373,0 0.446453,-0.23067 0.49854,-0.63993 l 0.699454,-4.94822 c 0,-0.37205 -0.312522,-0.37205 -0.781305,-0.37205 l -15.945944,0 c -0.639919,0 -0.699447,0 -0.878031,0.54318 l -1.637006,4.59107 c -0.02233,0.10417 -0.126497,0.34228 -0.126497,0.46878 0,0.10417 0.04466,0.35717 0.439019,0.35717 0.342279,0 0.386925,-0.1265 0.550627,-0.61761 1.495634,-4.1446 2.358783,-4.40503 6.302478,-4.40503 l 1.078938,0 c 0.781298,0 0.803621,0.0223 0.803621,0.26043 0,0.0223 0,0.14882 -0.104167,0.54319 l -3.422839,13.63925 c -0.230671,0.95244 -0.312515,1.22031 -3.028466,1.22031 -0.930118,0 -1.168223,0 -1.168223,0.56552 0,0.0744 0.05208,0.3646 0.446453,0.3646 0.72177,0 1.495634,-0.0819 2.217404,-0.0819 0.736652,0 1.510509,-0.0223 2.232279,-0.0223 0.736659,0 1.61469,0 2.33646,0.0223 0.699447,0.0372 1.480745,0.0819 2.172758,0.0819 0.208341,0 0.610155,0 0.610155,-0.57295 0,-0.35717 -0.267876,-0.35717 -1.071497,-0.35717 -0.491099,0 -1.011969,-0.0372 -1.503068,-0.0595 -0.878031,-0.067 -0.930118,-0.17113 -0.930118,-0.4911 0,-0.18602 0,-0.23067 0.09673,-0.58783 z"
           id="path4391" />
        <polyline
           transform="matrix(0.74409447,0,0,-0.74409447,-276.67411,462.68684)"
           style="font-style:normal;font-variant:normal;font-weight:normal;font-stretch:normal;letter-spacing:normal;word-spacing:normal;text-anchor:start;fill:#000000;fill-opacity:1;fill-rule:nonzero;stroke:#000000;stroke-width:0;stroke-linecap:butt;stroke-linejoin:miter;stroke-miterlimit:10.43299961;stroke-dasharray:none;stroke-dashoffset:0;stroke-opacity:1"
           points="462,418 490.92,418 490.92,420.04 462,420.04 "
           id="polyline4393" />
        <path
           style="font-style:normal;font-variant:normal;font-weight:normal;font-stretch:normal;letter-spacing:normal;word-spacing:normal;text-anchor:start;fill:#000000;fill-opacity:1;fill-rule:evenodd;stroke:#000000;stroke-width:0;stroke-linecap:butt;stroke-linejoin:miter;stroke-miterlimit:10.43299961;stroke-dasharray:none;stroke-dashoffset:0;stroke-opacity:1"
           inkscape:connector-curvature="0"
           d="m 77.961313,161.92385 -0.357161,0.10418 -0.349727,0.11161 -0.342279,0.1265 -0.327404,0.13394 -0.319963,0.14882 -0.305074,0.16369 -0.305081,0.17114 -0.282758,0.17859 -0.27531,0.19346 -0.267876,0.19347 -0.252994,0.20834 -0.245553,0.21579 -0.230664,0.22323 -0.22323,0.23067 -0.208348,0.23067 -0.200907,0.24555 -0.186025,0.24555 -0.178577,0.253 -0.163702,0.25298 -0.14882,0.253 -0.141379,0.26787 -0.133938,0.26044 -0.119056,0.26787 -0.104167,0.26043 -0.08929,0.26788 -0.08185,0.26787 -0.06699,0.26787 -0.0595,0.26788 -0.04466,0.26787 -0.02975,0.26043 -0.02233,0.26044 0,0.26043 c 0,2.74571 2.098348,4.53154 4.658031,4.53154 l 0.0595,-0.72921 c -1.428665,0 -2.827559,-0.93012 -2.827559,-3.08056 0,-1.71141 0.989646,-6.1983 4.620826,-7.08377 l 0,0 c 0.714329,1.16078 1.644447,2.67874 1.644447,4.53897 0,2.12811 -1.264956,5.62536 -3.437714,5.62536 l -0.0595,0.72921 c 3.140081,0 5.580708,-3.68327 5.580708,-7.46327 0,-2.52248 -1.346814,-3.99579 -2.150435,-4.88126 -0.967323,-1.07894 -2.90941,-3.20704 -2.90941,-4.40504 0,-0.34228 0.364609,-1.09382 1.436106,-1.09382 0.878031,0 1.599801,0.4167 2.172758,0.72921 0.230664,0.1265 1.160782,0.67713 1.555155,0.67713 0.617596,0 1.078938,-0.57295 1.078938,-1.09382 0,-0.63992 -0.334845,-0.69945 -1.726298,-0.97476 -0.319963,-0.0595 -1.503075,-0.31252 -2.33646,-0.31252 -1.942087,0 -3.035907,1.13846 -3.035907,2.71594 0,1.37658 0.833385,2.95406 1.74118,4.50921 z"
           id="path4395" />
      </g>
      <path
         sodipodi:nodetypes="ccc"
         inkscape:connector-curvature="0"
         inkscape:original-d="m 192.84479,443.28147 c 155.17264,-12.44355 102.92926,34.61098 223.43147,-81.68056 32.1949,-32.22583 96.3071,-77.97219 167.3348,-102.34034"
         inkscape:path-effect="#path-effect4169-9"
         id="path4167"
         d="m 192.84479,443.28147 c 77.14493,-19.01764 152.21009,-46.45945 223.43147,-81.68056 58.6866,-29.02228 114.7638,-63.31855 167.3348,-102.34034"
         style="fill:none;fill-rule:evenodd;stroke:#000000;stroke-width:1.29999995;stroke-linecap:butt;stroke-linejoin:miter;stroke-miterlimit:4;stroke-dasharray:none;stroke-opacity:1" />
      <path
         sodipodi:nodetypes="ccc"
         inkscape:connector-curvature="0"
         inkscape:original-d="m 211.89395,476.32582 c 155.18617,-12.2738 145.32988,23.65829 265.95924,-92.50134 32.23011,-32.1906 73.15884,-66.75511 144.21319,-91.04555"
         inkscape:path-effect="#path-effect4169-6-3"
         id="path4167-5"
         d="m 211.89395,476.32582 c 92.44317,-18.00334 182.29588,-49.25435 265.95924,-92.50134 50.56374,-26.13724 98.8722,-56.63563 144.21319,-91.04555"
         style="fill:none;fill-rule:evenodd;stroke:#000000;stroke-width:1.29999995;stroke-linecap:butt;stroke-linejoin:miter;stroke-miterlimit:4;stroke-dasharray:none;stroke-opacity:1" />
      <path
         sodipodi:nodetypes="ccc"
         inkscape:connector-curvature="0"
         inkscape:original-d="m 235.56409,521.128 c 155.3015,-10.71624 145.0852,25.11515 266.8739,-89.82837 32.55145,-31.86563 97.16871,-76.89579 168.4632,-100.47211"
         inkscape:path-effect="#path-effect4169-6-7-4"
         id="path4167-5-8"
         d="m 235.56409,521.128 c 92.25204,-18.60581 182.14757,-48.86418 266.8739,-89.82837 58.93903,-28.49633 115.37967,-62.15775 168.4632,-100.47211"
         style="fill:none;fill-rule:evenodd;stroke:#000000;stroke-width:1.29999995;stroke-linecap:butt;stroke-linejoin:miter;stroke-miterlimit:4;stroke-dasharray:none;stroke-opacity:1" />
      <g
         transform="translate(2.6005913,-47.037729)"
         id="g9559">
        <path
           sodipodi:nodetypes="cc"
           style="fill:none;fill-rule:evenodd;stroke:#000000;stroke-width:0.53576434;stroke-linecap:butt;stroke-linejoin:miter;stroke-miterlimit:4;stroke-dasharray:none;stroke-opacity:1"
           d="m 222.02473,464.08941 70.16245,103.63786"
           id="path4207"
           inkscape:connector-curvature="0" />
        <path
           inkscape:transform-center-y="0.27819192"
           inkscape:transform-center-x="-0.14180734"
           sodipodi:nodetypes="cccc"
           inkscape:connector-curvature="0"
           id="path4218"
           d="m 293.02631,564.57561 3.96125,10.35934 -8.09411,-7.45201 z"
           style="fill:#000000;fill-opacity:1;fill-rule:evenodd;stroke:#000000;stroke-width:0;stroke-linecap:round;stroke-linejoin:round;stroke-miterlimit:4;stroke-dasharray:none;stroke-opacity:1" />
        <g
           style="font-style:normal;font-variant:normal;font-weight:normal;font-stretch:normal;letter-spacing:normal;word-spacing:normal;text-anchor:start;fill:none;fill-opacity:1;fill-rule:evenodd;stroke:#000000;stroke-linecap:butt;stroke-linejoin:miter;stroke-miterlimit:10.43299961;stroke-dasharray:none;stroke-dashoffset:0;stroke-opacity:1"
           id="content"
           transform="matrix(0.54425196,0,0,-0.54425196,51.758944,815.61556)"
           xml:space="preserve"
           stroke-miterlimit="10.433"
           font-style="normal"
           font-variant="normal"
           font-weight="normal"
           font-stretch="normal"
           font-size-adjust="none"
           letter-spacing="normal"
           word-spacing="normal"><path
             style="fill:#000000;stroke-width:0"
             inkscape:connector-curvature="0"
             d="m 468.68,427.96 -0.58,-0.15 -0.58,-0.18 -0.56,-0.21 -0.55,-0.24 -0.54,-0.26 -0.53,-0.28 -0.52,-0.31 -0.5,-0.33 -0.49,-0.35 -0.48,-0.38 -0.47,-0.39 -0.44,-0.41 -0.44,-0.42 -0.41,-0.45 -0.4,-0.46 -0.38,-0.47 -0.37,-0.49 -0.34,-0.5 -0.33,-0.51 -0.3,-0.52 -0.28,-0.53 -0.27,-0.53 -0.24,-0.55 -0.22,-0.55 -0.19,-0.56 -0.17,-0.56 -0.15,-0.57 -0.12,-0.56 -0.09,-0.57 -0.07,-0.57 -0.04,-0.57 -0.02,-0.57 c 0,-4.78 3.19,-8.35 7.88,-8.35 l 0,1.09 c -2.75,0 -4.78,2.09 -4.78,5.87 0,3.14 1.84,12.5 8.56,14.3 l 0,0 c 1.25,-2.28 2.73,-4.98 2.73,-8.56 0,-3.3 -1.89,-11.61 -6.51,-11.61 l 0,-1.09 c 5.83,0 9.95,7.81 9.95,14.68 0,4.55 -1.98,7.03 -3.69,9.27 -1.78,2.25 -4.71,5.98 -4.71,8.17 0,1.11 0.98,2.3 2.73,2.3 1.5,0 2.48,-0.64 3.53,-1.35 1,-0.59 2,-1.25 2.75,-1.25 1.24,0 1.99,1.21 1.99,2 0,1.1 -0.8,1.24 -2.6,1.64 -2.58,0.55 -3.28,0.55 -4.08,0.55 -3.89,0 -5.68,-2.14 -5.68,-5.12 0,-2.71 1.45,-5.49 3,-8.54 z"
             id="path4575" /><polygon
             style="fill:#000000;stroke-width:0"
             points="502.86,435.59 484.88,435.59 484.88,434.04 502.86,434.04 "
             id="polygon4577" /><path
             style="fill:#000000;stroke-width:0"
             inkscape:connector-curvature="0"
             d="m 499,424.84 -0.13,-0.01 -0.13,-0.01 -0.12,-0.02 -0.13,-0.03 -0.12,-0.03 -0.11,-0.04 -0.12,-0.04 -0.11,-0.04 -0.1,-0.05 -0.11,-0.06 -0.1,-0.06 -0.09,-0.06 -0.1,-0.07 -0.09,-0.07 -0.08,-0.07 -0.08,-0.08 -0.08,-0.08 -0.07,-0.08 -0.07,-0.09 -0.07,-0.08 -0.05,-0.09 -0.06,-0.1 -0.05,-0.09 -0.05,-0.1 -0.04,-0.09 -0.03,-0.1 -0.03,-0.1 -0.03,-0.1 -0.02,-0.1 -0.01,-0.11 -0.01,-0.1 0,-0.1 c 0,-0.7 0.44,-1.44 1.55,-1.44 1.09,0 2.28,0.85 2.28,2.78 0,2.25 -2.14,4.28 -5.92,4.28 -6.58,0 -8.43,-5.07 -8.43,-7.26 0,-3.89 3.69,-4.64 5.13,-4.94 2.59,-0.5 5.19,-1.05 5.19,-3.78 0,-1.3 -1.14,-5.48 -7.13,-5.48 -0.7,0 -4.53,0 -5.69,2.64 1.91,-0.25 3.14,1.25 3.14,2.64 0,1.14 -0.79,1.75 -1.84,1.75 -1.3,0 -2.78,-1.05 -2.78,-3.3 0,-2.84 2.84,-4.83 7.12,-4.83 8.07,0 10.02,6.03 10.02,8.27 0,1.79 -0.95,3.04 -1.55,3.64 -1.34,1.39 -2.79,1.64 -4.98,2.09 -1.8,0.39 -3.78,0.75 -3.78,2.99 0,1.45 1.19,4.48 5.58,4.48 1.23,0 3.73,-0.34 4.48,-2.28 z"
             id="path4579" /></g>      </g>
      <path
         style="fill:none;fill-opacity:1;fill-rule:evenodd;stroke:#000000;stroke-width:2.4000001;stroke-linecap:round;stroke-linejoin:miter;stroke-miterlimit:4;stroke-dasharray:none;stroke-opacity:1"
         d="m 140,152.3622 0,491.42858 525.71429,0"
         id="path3336"
         inkscape:connector-curvature="0" />
      <path
         style="fill:#000000;fill-opacity:1;fill-rule:evenodd;stroke:#000000;stroke-width:1px;stroke-linecap:round;stroke-linejoin:round;stroke-opacity:1"
         d="M 135.78571,159.50507 140,140.50506 l 4.57143,19.00001 z"
         id="path4138"
         inkscape:connector-curvature="0"
         sodipodi:nodetypes="cccc" />
      <path
         style="font-style:normal;font-variant:normal;font-weight:normal;font-stretch:normal;letter-spacing:normal;word-spacing:normal;text-anchor:start;fill:#000000;fill-opacity:1;fill-rule:evenodd;stroke:#000000;stroke-width:0;stroke-linecap:butt;stroke-linejoin:miter;stroke-miterlimit:10.43299961;stroke-dasharray:none;stroke-dashoffset:0;stroke-opacity:1"
         inkscape:connector-curvature="0"
         d="m 681.31673,665.91592 0.0239,-0.0953 0.0238,-0.0952 0.0178,-0.0893 0.0238,-0.0833 0.0238,-0.0833 0.0238,-0.0774 0.0298,-0.0714 0.0298,-0.0654 0.0298,-0.0655 0.0298,-0.0655 0.0358,-0.0536 0.0417,-0.0536 0.0417,-0.0536 0.0476,-0.0476 0.0536,-0.0417 0.0595,-0.0417 0.0655,-0.0358 0.0715,-0.0358 0.0774,-0.0298 0.0833,-0.0298 0.0893,-0.0238 0.0476,-0.0119 0.0536,-0.0119 0.0536,-0.0119 0.0536,-0.0119 0.0595,-0.006 0.0595,-0.0119 0.0595,-0.006 0.0654,-0.006 0.0655,-0.0119 0.0655,-0.006 0.0714,-0.006 0.0774,0 0.0774,-0.006 0.0774,-0.006 0.0833,-0.006 0.0833,0 0.0893,0 0.0893,-0.006 0.0952,0 0.0953,0 0.1012,0 0.10119,0 c 0.67862,0 0.94649,0 0.94649,-0.59528 0,-0.3274 -0.29764,-0.3274 -0.79766,-0.3274 l -3.91692,0 c -0.77386,0 -0.79767,0 -1.15483,0.56551 l -10.82212,16.89988 -2.32156,-16.77487 c -0.0893,-0.69052 -0.14883,-0.69052 -0.91673,-0.69052 l -4.06574,0 c -0.55956,0 -0.881,0 -0.881,0.56551 0,0.35717 0.25596,0.35717 0.85124,0.35717 0.39288,0 0.92267,0.0238 1.27389,0.0536 0.47622,0.0654 0.65481,0.14883 0.65481,0.47623 0,0.11905 -0.0298,0.2143 -0.11311,0.56551 l -3.76809,15.09618 c -0.29764,1.19055 -0.79768,2.13704 -3.20854,2.22039 -0.14882,0 -0.52979,0.0298 -0.52979,0.57146 0,0.25597 0.17858,0.35121 0.41669,0.35121 0.95244,0 1.98227,-0.0952 2.95852,-0.0952 1.01792,0 2.08346,0.0952 3.05971,0.0952 0.14882,0 0.5298,0 0.5298,-0.59527 0,-0.3274 -0.32145,-0.3274 -0.5298,-0.3274 -1.69058,-0.0238 -2.01798,-0.61909 -2.01798,-1.29771 0,-0.20834 0.0298,-0.35717 0.12501,-0.67861 l 4.02406,-16.16768 0.0358,0 2.54778,18.38806 c 0.0595,0.35121 0.0893,0.67861 0.44646,0.67861 0.3274,0 0.50598,-0.3274 0.6548,-0.52979 l 11.97695,-18.78095 0.0298,0 -4.23837,16.99512 c -0.29763,1.16079 -0.35716,1.39295 -2.70255,1.39295 -0.50003,0 -0.82743,0 -0.82743,0.57146 0,0.35121 0.35716,0.35121 0.44646,0.35121 0.82742,0 2.84542,-0.0952 3.6788,-0.0952 1.21436,0 2.48825,0.0952 3.70857,0.0952 0.17857,0 0.55955,0 0.55955,-0.59527 0,-0.3274 -0.27382,-0.3274 -0.82743,-0.3274 -1.10126,0 -1.92869,0 -1.92869,-0.5298 0,-0.11906 0,-0.17263 0.14882,-0.71433 z"
         id="path4401" />
      <path
         style="fill:#000000;fill-opacity:1;fill-rule:evenodd;stroke:#000000;stroke-width:1px;stroke-linecap:round;stroke-linejoin:round;stroke-opacity:1"
         d="m 660.46412,639.056 19.00001,4.21429 -19.00001,4.57143 z"
         id="path4138-6"
         inkscape:connector-curvature="0"
         sodipodi:nodetypes="cccc" />
      <g
         transform="translate(2.6455683,-5.9963368)"
         id="g9669">
        <g
           id="g9572">
          <path
             style="font-style:normal;font-variant:normal;font-weight:normal;font-stretch:normal;letter-spacing:normal;word-spacing:normal;text-anchor:start;fill:#000000;fill-opacity:1;fill-rule:evenodd;stroke:#000000;stroke-width:0;stroke-linecap:butt;stroke-linejoin:miter;stroke-miterlimit:10.43299961;stroke-dasharray:none;stroke-dashoffset:0;stroke-opacity:1"
             inkscape:connector-curvature="0"
             d="m 98.350306,144.03901 -0.02143,0.0786 -0.01429,0.0714 -0.01429,0.0714 -0.02143,0.0643 -0.01429,0.0643 -0.02143,0.0643 -0.02143,0.0571 -0.02143,0.05 -0.02143,0.05 -0.02857,0.05 -0.02857,0.0429 -0.03572,0.0429 -0.03572,0.0357 -0.04286,0.0357 -0.04286,0.0357 -0.05,0.0286 -0.05715,0.0286 -0.06429,0.0214 -0.06429,0.0286 -0.07143,0.0214 -0.04286,0.007 -0.03572,0.007 -0.04286,0.0143 -0.04286,0.007 -0.05,0.007 -0.04286,0.007 -0.05,0.007 -0.05715,0.007 -0.05,0 -0.05715,0.007 -0.05715,0.007 -0.06429,0 -0.05715,0.007 -0.06429,0.007 -0.07143,0 -0.06429,0 -0.07143,0.007 -0.07858,0 -0.07143,0 -0.08572,0 -0.07858,0.007 -0.08572,0 -0.08572,0 -0.08572,0 c -0.450028,0 -0.750047,0 -0.750047,0.54289 0,0.35003 0.300019,0.35003 0.750047,0.35003 l 8.879124,0 -0.44288,-0.89292 -3.38593,0 c -0.76433,0 -0.79291,-0.0357 -0.79291,-0.25716 0,-0.0214 0,-0.14286 0.0929,-0.51432 l 3.4145,-13.59371 c 0.20001,-0.77148 0.22144,-0.85005 1.27151,-0.85005 l 3.17877,0 c 2.79303,0 5.13604,1.39294 5.13604,4.77887 0,0.57861 -0.25716,4.87888 -2.74303,7.72192 -0.97149,1.11435 -3.10734,2.71445 -6.17182,2.71445 l 0.44288,0.89292 c 5.52892,0 10.82926,-5.0789 10.82926,-10.50067 0,-3.64308 -2.51445,-6.5004 -6.5647,-6.5004 l -9.06486,0 c -0.500027,0 -0.792903,0 -0.792903,0.55003 0,0.34288 0.271446,0.34288 0.821483,0.34288 0.40002,0 0.50003,0 0.94291,0.0571 0.50718,0.0429 0.55004,0.10001 0.55004,0.34288 0,0.05 0,0.17144 -0.10001,0.55004 z"
             id="path9214" />
          <polyline
             transform="matrix(0.71433069,0,0,-0.71433069,-236.02789,450.11542)"
             style="font-style:normal;font-variant:normal;font-weight:normal;font-stretch:normal;letter-spacing:normal;word-spacing:normal;text-anchor:start;fill:#000000;fill-opacity:1;fill-rule:nonzero;stroke:#000000;stroke-width:0;stroke-linecap:butt;stroke-linejoin:miter;stroke-miterlimit:10.43299961;stroke-dasharray:none;stroke-dashoffset:0;stroke-opacity:1"
             points="462,418 495.72,418 495.72,420.04 462,420.04 "
             id="polyline9216" />
          <path
             style="font-style:normal;font-variant:normal;font-weight:normal;font-stretch:normal;letter-spacing:normal;word-spacing:normal;text-anchor:start;fill:#000000;fill-opacity:1;fill-rule:evenodd;stroke:#000000;stroke-width:0;stroke-linecap:butt;stroke-linejoin:miter;stroke-miterlimit:10.43299961;stroke-dasharray:none;stroke-dashoffset:0;stroke-opacity:1"
             inkscape:connector-curvature="0"
             d="m 106.13651,161.38296 -0.34288,0.1 -0.33573,0.10715 -0.3286,0.12144 -0.3143,0.12858 -0.30716,0.14286 -0.30002,0.15716 -0.28573,0.16429 -0.27145,0.17144 -0.2643,0.18573 -0.25716,0.18572 -0.24287,0.20002 -0.23573,0.20715 -0.22145,0.2143 -0.21429,0.22144 -0.20002,0.22145 -0.19287,0.23572 -0.17858,0.23573 -0.17144,0.24288 -0.15715,0.24287 -0.15001,0.24287 -0.12858,0.25716 -0.12858,0.25002 -0.11429,0.25716 -0.10001,0.25001 -0.0857,0.25716 -0.0786,0.25716 -0.0643,0.25716 -0.0571,0.25716 -0.0429,0.25716 -0.0286,0.25001 -0.0214,0.25002 -0.007,0.25001 c 0,2.63588 2.02156,4.35028 4.47886,4.35028 l 0.0571,-0.70005 c -1.37151,0 -2.71445,-0.89291 -2.71445,-2.95733 0,-1.64296 0.95006,-5.95037 4.42885,-6.80042 l 0,0 c 0.6929,1.11435 1.58581,2.57159 1.58581,4.35741 0,2.04299 -1.21436,5.40034 -3.30021,5.40034 l -0.0571,0.70005 c 3.01447,0 5.35748,-3.53594 5.35748,-7.16474 0,-2.42158 -1.29294,-3.83596 -2.06442,-4.68601 -0.92863,-1.03578 -2.79303,-3.07876 -2.79303,-4.22884 0,-0.32859 0.35002,-1.05006 1.37151,-1.05006 0.85006,0 1.54296,0.40002 2.09299,0.70004 0.22144,0.12144 1.11436,0.65004 1.49295,0.65004 0.5929,0 1.03578,-0.55003 1.03578,-1.05006 0,-0.61433 -0.32145,-0.67147 -1.65725,-0.93578 -0.30716,-0.0571 -1.44294,-0.30002 -2.25014,-0.30002 -1.85726,0 -2.90732,1.09293 -2.90732,2.60731 0,1.32151 0.80005,2.83589 1.67153,4.32885 z"
             id="path9218" />
        </g>
      </g>
    </g>
  </g>
</svg>
