DBRep_DrawableShape

CASCADE Topology V1, (c) Matra-Datavision
Locations 0
Curve2ds 4
1 0 0 1 0 
1 50.6449510224598 0 0 1 
1 0 1 1 0 
1 0 0 0 1 
Curves 8
7 0 0  3 7 5  0 0 0  0 3.1445227483629785 5.5177934385614842  0 9.9415731323068037 7.3805930971301184  0 21.418972686628148 -5.1233187788940509  0 29.928524372522411 14.206704465569397  -0 36.313219222107215 11.233706644655564  0 40 0 
 0 4 11.180339887498949 1 22.360679774997898 1 36.502815398728849 1 50.6449510224598 4
7 0 0  1 2 2  0 40 0  15 40 0 
 0 2 1 2
7 0 0  3 7 5  15 0 0  14.999999999999998 3.1445227483629785 4.0923294955202012  14.999999999999996 9.9415731323068037 6.5599693627692748  15.000000000000005 21.418972686628148 0.40195925090386658  14.999999999999996 29.928524372522411 -13.463859870991991  15 36.313219222107215 -9.5460474871810703  15 40 0 
 0 4 11.180339887498949 1 22.360679774997898 1 36.502815398728849 1 50.6449510224598 4
7 0 0  1 2 2  0 0 0  15 0 0 
 0 2 1 2
1 7 -1 -5 0.097571424031370577 0.99522852511997995 0 
1 12 50 -5 0 0 1 
1 12 50 35 -0.097571424031370577 -0.99522852511997995 0 
1 7 -1 35 0 0 -1 
Polygon3D 0
PolygonOnTriangulations 0
Surfaces 2
9 0 0 0 0 3 1 7 2 5 2 0 0 0  15 0 0  
0 3.1445227483629785 5.5177934385614842  14.999999999999998 3.1445227483629785 4.0923294955202012  
0 9.9415731323068037 7.3805930971301184  14.999999999999996 9.9415731323068037 6.5599693627692748  
0 21.418972686628148 -5.1233187788940509  15.000000000000005 21.418972686628148 0.40195925090386658  
0 29.928524372522411 14.206704465569397  14.999999999999996 29.928524372522411 -13.463859870991991  
-0 36.313219222107215 11.233706644655564  15 36.313219222107215 -9.5460474871810703  
0 40 0  15 40 0  

0 4
11.180339887498949 1
22.360679774997898 1
36.502815398728849 1
50.6449510224598 4

0 2
1 2

1 7 -1 -5 -0.99522852511997995 0.097571424031370591 0 -0.097571424031370591 -0.99522852511997995 0 0 0 1 
Triangulations 0

TShapes 61
Ve
1e-07
0 0 0
0 0

0101101
*
Ve
1e-07
0 40 -1.77635683940025e-15
0 0

0101101
*
Ed
 1e-07 1 1 0
1  1 0 0 50.6449510224598
2  1 1 0 0 50.6449510224598
0

0101000
+61 0 -60 0 *
Ve
1e-07
15 40 0
0 0

0101101
*
Ed
 1e-07 1 1 0
1  2 0 0 1
2  2 1 0 0 1
0

0101000
+60 0 -58 0 *
Ve
1e-07
15 0 0
0 0

0101101
*
Ed
 1e-07 1 1 0
1  3 0 0 50.6449510224598
2  3 1 0 0 50.6449510224598
0

0101000
+56 0 -58 0 *
Ed
 1e-07 1 1 0
1  4 0 0 1
2  4 1 0 0 1
0

0101000
+61 0 -56 0 *
Wi

0101000
+59 0 +57 0 -55 0 -54 0 *
Fa
0  1e-07 1 0

0101000
+53 0 *
Sh

0101000
+52 0 *
Ve
1e-07
7 -1 -5
0 0

0101101
*
Ve
1e-07
12 50 -5
0 0

0101101
*
Ed
 1e-07 1 1 0
1  5 0 0 51.2445119012758
0

0101000
+50 0 -49 0 *
Ve
1e-07
12 50 35
0 0

0101101
*
Ed
 1e-07 1 1 0
1  6 0 0 40
0

0101000
-47 0 +49 0 *
Ve
1e-07
7 -1 35
0 0

0101101
*
Ed
 1e-07 1 1 0
1  7 0 0 51.2445119012758
0

0101000
-45 0 +47 0 *
Ed
 1e-07 1 1 0
1  8 0 0 40
0

0101000
-50 0 +45 0 *
Wi

0101100
+48 0 +46 0 +44 0 +43 0 *
Fa
0  1e-07 2 0

0101000
-42 0 *
Ve
1e-07
11.0196078431373 40 0
0 0

0101101
*
Ve
1e-07
10.9047389477662 38.8283372672156 -1.15121566364199
0 0

0101101
*
Ve
1e-07
10.7929184789825 37.687768485621 -2.03312288228314
0 0

0101101
*
Ve
1e-07
10.6838379224697 36.575146809191 -2.68367885997085
0 0

0101101
*
Ve
1e-07
10.5771887639162 35.4873253919452 -3.13719581374571
0 0

0101101
*
Ve
1e-07
10.4726624890141 34.4211573879439 -3.42467484558834
0 0

0101101
*
Ve
1e-07
10.3699505834594 33.3734959512856 -3.57411023832819
0 0

0101101
*
Ve
1e-07
10.2687445329513 32.3411942361036 -3.610764175517
0 0

0101101
*
Ve
1e-07
10.1687358231926 31.3211053965642 -3.55741188526901
0 0

0101101
*
Ve
1e-07
10.0696159398887 30.3100825868643 -3.43455720806992
0 0

0101101
*
Ve
1e-07
9.97105909426072 29.3048027614593 -3.26008885091266
0 0

0101101
*
Ve
1e-07
9.87255606305133 28.3000718431236 -3.04413646076888
0 0

0101101
*
Ve
1e-07
9.7734870406999 27.289567815139 -2.79082785096823
0 0

0101101
*
Ve
1e-07
9.6732306979568 26.2669531191593 -2.50158033554017
0 0

0101101
*
Ve
1e-07
9.57116570558405 25.2258901969573 -2.17519202124643
0 0

0101101
*
Ve
1e-07
9.46667073435619 24.1600414904332 -1.80779096974259
0 0

0101101
*
Ve
1e-07
9.35912445506145 23.0630694416268 -1.39268766928677
0 0

0101101
*
Ve
1e-07
9.24790553850328 21.9286364927335 -0.92013081600427
0 0

0101101
*
Ve
1e-07
9.13239265550221 20.7504050861226 -0.376966404718226
0 0

0101101
*
Ve
1e-07
9.01197794352663 19.5221750239716 0.253280941019294
0 0

0101101
*
Ve
1e-07
8.88663034346281 18.2436295033206 0.968509209797848
0 0

0101101
*
Ve
1e-07
8.75710045822322 16.9224246738768 1.73670565800659
0 0

0101101
*
Ve
1e-07
8.62419451911489 15.5667840949718 2.5216489636175
0 0

0101101
*
Ve
1e-07
8.48871875746408 14.1849313261336 3.28456303373376
0 0

0101101
*
Ve
1e-07
8.35147940461908 12.7850899271147 3.9837806879832
0 0

0101101
*
Ve
1e-07
8.21328269195227 11.3754834579131 4.57450172630452
0 0

0101101
*
Ve
1e-07
8.07493484946336 9.96433546452622 5.00864544756254
0 0

0101101
*
Ve
1e-07
7.93714914504113 8.55892127941954 5.23933920373187
0 0

0101101
*
Ve
1e-07
7.80029416445277 7.16300047741823 5.23420442720551
0 0

0101101
*
Ve
1e-07
7.70972127787239 6.23915703429835 5.08538403146955
0 0

0101101
*
Ve
1e-07
7.66465862507675 5.77951797578284 4.96406120017857
0 0

0101101
*
Ve
1e-07
7.5794932874459 4.91083153194815 4.64235367223037
0 0

0101101
*
Ve
1e-07
7.53053124429459 4.41141869180484 4.39927289867453
0 0

0101101
*
Ve
1e-07
7.44559514808309 3.54507051044753 3.86917702975947
0 0

0101101
*
Ve
1e-07
7.39820073949068 3.06164754280489 3.50978275541078
0 0

0101101
*
Ve
1e-07
7.31240057061399 2.18648582026273 2.73422410857221
0 0

0101101
*
Ve
1e-07
7.26795582805204 1.7331494461308 2.265155681655
0 0

0101101
*
Ve
1e-07
7.18072203652712 0.843364772576668 1.20018934452644
0 0

0101101
*
Ve
1e-07
7.09803921568628 6.88338275267597e-15 -8.88178419700125e-16
0 0

0101101
*
Co

1100000
+51 0 +41 0 +40 0 +39 0 +38 0 +37 0 +36 0 +35 0 +34 0 +33 0 
+32 0 +31 0 +30 0 +29 0 +28 0 +27 0 +26 0 +25 0 +24 0 +23 0 
+22 0 +21 0 +20 0 +19 0 +18 0 +17 0 +16 0 +15 0 +14 0 +13 0 
+12 0 +11 0 +10 0 +9 0 +8 0 +7 0 +6 0 +5 0 +4 0 +3 0 
+2 0 *

+1 0 