<!DOCTYPE svg PUBLIC "-//W3C//DTD SVG 1.1//EN" "http://www.w3.org/Graphics/SVG/1.1/DTD/svg11.dtd">
<svg xmlns="http://www.w3.org/2000/svg" xmlns:xlink="http://www.w3.org/1999/xlink" xmlns:jfreesvg="http://www.jfree.org/jfreesvg/svg" width="1152" height="768" text-rendering="auto" shape-rendering="auto">
<defs><clipPath id="_952050161260997clip-0"><path d="M 0 0 L 1152 0 L 1152 768 L 0 768 L 0 0 Z "/></clipPath>
<clipPath id="_952050161260997clip-1"><path d="M 384.5 345.5 L 384.5 1497.5 L -383.5 1497.5 L -383.5 345.5 L 384.5 345.5 Z "/></clipPath>
<clipPath id="_952050161260997clip-2"><path d="M 79 35 L 79 695 L 1140 695 L 1140 35 Z "/></clipPath>
</defs>
<rect x="0" y="0" width="1152" height="768" style="fill: rgb(255,255,255); fill-opacity: 1.0" transform="matrix(1,0,0,1,0,0)" clip-path="url(#_952050161260997clip-0)"/><g transform="matrix(1,0,0,1,0,0)"><text x="514.5" y="21.01" style="fill: rgb(0,0,0); fill-opacity: 1.0; font-family: Tahoma; font-size: 20px; font-weight: bold;" clip-path="url(#_952050161260997clip-0)">Polar_Curve</text></g><rect x="528.5" y="746" width="95" height="21" style="fill: rgb(255,255,255); fill-opacity: 1.0" transform="matrix(1,0,0,1,0,0)" clip-path="url(#_952050161260997clip-0)"/><g style="stroke-width: 3.0;stroke: rgb(0,0,0);stroke-opacity: 1.0;stroke-linecap: square;shape-rendering:geometricPrecision;; fill: none" transform="matrix(1,0,0,1,0,0)" clip-path="url(#_952050161260997clip-0)"><path d="M 531.5 756.5 L 545.5 756.5"/></g><g transform="matrix(1,0,0,1,0,0)"><text x="549.5" y="761.01" style="fill: rgb(64,64,64); fill-opacity: 1.0; font-family: Tahoma; font-size: 12px;" clip-path="url(#_952050161260997clip-0)"> Polar_Curve </text></g><rect x="79" y="35" width="1061" height="660" style="fill: rgb(255,255,255); fill-opacity: 0.0" transform="matrix(1,0,0,1,0,0)" clip-path="url(#_952050161260997clip-0)"/><line x1="79" y1="699" x2="1140" y2="699" style="stroke-width: 0.5;stroke: rgb(128,128,128);stroke-opacity: 1.0;stroke-linecap: square;shape-rendering:crispEdges;" transform="matrix(1,0,0,1,0,0)" clip-path="url(#_952050161260997clip-0)"/><g transform="matrix(1,0,0,1,0,0)"><text x="91.9" y="715.52" style="fill: rgb(64,64,64); fill-opacity: 1.0; font-family: Tahoma; font-size: 12px;" clip-path="url(#_952050161260997clip-0)">-4,5</text></g><line x1="102.4" y1="701" x2="102.4" y2="699" style="stroke-width: 0.5;stroke: rgb(128,128,128);stroke-opacity: 1.0;stroke-linecap: square;shape-rendering:crispEdges;" transform="matrix(1,0,0,1,0,0)" clip-path="url(#_952050161260997clip-0)"/><g transform="matrix(1,0,0,1,0,0)"><text x="130.91" y="715.52" style="fill: rgb(64,64,64); fill-opacity: 1.0; font-family: Tahoma; font-size: 12px;" clip-path="url(#_952050161260997clip-0)">-4,0</text></g><line x1="141.41" y1="701" x2="141.41" y2="699" style="stroke-width: 0.5;stroke: rgb(128,128,128);stroke-opacity: 1.0;stroke-linecap: square;shape-rendering:crispEdges;" transform="matrix(1,0,0,1,0,0)" clip-path="url(#_952050161260997clip-0)"/><g transform="matrix(1,0,0,1,0,0)"><text x="169.92" y="715.52" style="fill: rgb(64,64,64); fill-opacity: 1.0; font-family: Tahoma; font-size: 12px;" clip-path="url(#_952050161260997clip-0)">-3,5</text></g><line x1="180.42" y1="701" x2="180.42" y2="699" style="stroke-width: 0.5;stroke: rgb(128,128,128);stroke-opacity: 1.0;stroke-linecap: square;shape-rendering:crispEdges;" transform="matrix(1,0,0,1,0,0)" clip-path="url(#_952050161260997clip-0)"/><g transform="matrix(1,0,0,1,0,0)"><text x="208.93" y="715.52" style="fill: rgb(64,64,64); fill-opacity: 1.0; font-family: Tahoma; font-size: 12px;" clip-path="url(#_952050161260997clip-0)">-3,0</text></g><line x1="219.43" y1="701" x2="219.43" y2="699" style="stroke-width: 0.5;stroke: rgb(128,128,128);stroke-opacity: 1.0;stroke-linecap: square;shape-rendering:crispEdges;" transform="matrix(1,0,0,1,0,0)" clip-path="url(#_952050161260997clip-0)"/><g transform="matrix(1,0,0,1,0,0)"><text x="247.93" y="715.52" style="fill: rgb(64,64,64); fill-opacity: 1.0; font-family: Tahoma; font-size: 12px;" clip-path="url(#_952050161260997clip-0)">-2,5</text></g><line x1="258.43" y1="701" x2="258.43" y2="699" style="stroke-width: 0.5;stroke: rgb(128,128,128);stroke-opacity: 1.0;stroke-linecap: square;shape-rendering:crispEdges;" transform="matrix(1,0,0,1,0,0)" clip-path="url(#_952050161260997clip-0)"/><g transform="matrix(1,0,0,1,0,0)"><text x="286.94" y="715.52" style="fill: rgb(64,64,64); fill-opacity: 1.0; font-family: Tahoma; font-size: 12px;" clip-path="url(#_952050161260997clip-0)">-2,0</text></g><line x1="297.44" y1="701" x2="297.44" y2="699" style="stroke-width: 0.5;stroke: rgb(128,128,128);stroke-opacity: 1.0;stroke-linecap: square;shape-rendering:crispEdges;" transform="matrix(1,0,0,1,0,0)" clip-path="url(#_952050161260997clip-0)"/><g transform="matrix(1,0,0,1,0,0)"><text x="325.95" y="715.52" style="fill: rgb(64,64,64); fill-opacity: 1.0; font-family: Tahoma; font-size: 12px;" clip-path="url(#_952050161260997clip-0)">-1,5</text></g><line x1="336.45" y1="701" x2="336.45" y2="699" style="stroke-width: 0.5;stroke: rgb(128,128,128);stroke-opacity: 1.0;stroke-linecap: square;shape-rendering:crispEdges;" transform="matrix(1,0,0,1,0,0)" clip-path="url(#_952050161260997clip-0)"/><g transform="matrix(1,0,0,1,0,0)"><text x="364.96" y="715.52" style="fill: rgb(64,64,64); fill-opacity: 1.0; font-family: Tahoma; font-size: 12px;" clip-path="url(#_952050161260997clip-0)">-1,0</text></g><line x1="375.46" y1="701" x2="375.46" y2="699" style="stroke-width: 0.5;stroke: rgb(128,128,128);stroke-opacity: 1.0;stroke-linecap: square;shape-rendering:crispEdges;" transform="matrix(1,0,0,1,0,0)" clip-path="url(#_952050161260997clip-0)"/><g transform="matrix(1,0,0,1,0,0)"><text x="403.96" y="715.52" style="fill: rgb(64,64,64); fill-opacity: 1.0; font-family: Tahoma; font-size: 12px;" clip-path="url(#_952050161260997clip-0)">-0,5</text></g><line x1="414.46" y1="701" x2="414.46" y2="699" style="stroke-width: 0.5;stroke: rgb(128,128,128);stroke-opacity: 1.0;stroke-linecap: square;shape-rendering:crispEdges;" transform="matrix(1,0,0,1,0,0)" clip-path="url(#_952050161260997clip-0)"/><g transform="matrix(1,0,0,1,0,0)"><text x="444.97" y="715.52" style="fill: rgb(64,64,64); fill-opacity: 1.0; font-family: Tahoma; font-size: 12px;" clip-path="url(#_952050161260997clip-0)">0,0</text></g><line x1="453.47" y1="701" x2="453.47" y2="699" style="stroke-width: 0.5;stroke: rgb(128,128,128);stroke-opacity: 1.0;stroke-linecap: square;shape-rendering:crispEdges;" transform="matrix(1,0,0,1,0,0)" clip-path="url(#_952050161260997clip-0)"/><g transform="matrix(1,0,0,1,0,0)"><text x="483.98" y="715.52" style="fill: rgb(64,64,64); fill-opacity: 1.0; font-family: Tahoma; font-size: 12px;" clip-path="url(#_952050161260997clip-0)">0,5</text></g><line x1="492.48" y1="701" x2="492.48" y2="699" style="stroke-width: 0.5;stroke: rgb(128,128,128);stroke-opacity: 1.0;stroke-linecap: square;shape-rendering:crispEdges;" transform="matrix(1,0,0,1,0,0)" clip-path="url(#_952050161260997clip-0)"/><g transform="matrix(1,0,0,1,0,0)"><text x="522.99" y="715.52" style="fill: rgb(64,64,64); fill-opacity: 1.0; font-family: Tahoma; font-size: 12px;" clip-path="url(#_952050161260997clip-0)">1,0</text></g><line x1="531.49" y1="701" x2="531.49" y2="699" style="stroke-width: 0.5;stroke: rgb(128,128,128);stroke-opacity: 1.0;stroke-linecap: square;shape-rendering:crispEdges;" transform="matrix(1,0,0,1,0,0)" clip-path="url(#_952050161260997clip-0)"/><g transform="matrix(1,0,0,1,0,0)"><text x="561.99" y="715.52" style="fill: rgb(64,64,64); fill-opacity: 1.0; font-family: Tahoma; font-size: 12px;" clip-path="url(#_952050161260997clip-0)">1,5</text></g><line x1="570.49" y1="701" x2="570.49" y2="699" style="stroke-width: 0.5;stroke: rgb(128,128,128);stroke-opacity: 1.0;stroke-linecap: square;shape-rendering:crispEdges;" transform="matrix(1,0,0,1,0,0)" clip-path="url(#_952050161260997clip-0)"/><g transform="matrix(1,0,0,1,0,0)"><text x="601" y="715.52" style="fill: rgb(64,64,64); fill-opacity: 1.0; font-family: Tahoma; font-size: 12px;" clip-path="url(#_952050161260997clip-0)">2,0</text></g><line x1="609.5" y1="701" x2="609.5" y2="699" style="stroke-width: 0.5;stroke: rgb(128,128,128);stroke-opacity: 1.0;stroke-linecap: square;shape-rendering:crispEdges;" transform="matrix(1,0,0,1,0,0)" clip-path="url(#_952050161260997clip-0)"/><g transform="matrix(1,0,0,1,0,0)"><text x="640.01" y="715.52" style="fill: rgb(64,64,64); fill-opacity: 1.0; font-family: Tahoma; font-size: 12px;" clip-path="url(#_952050161260997clip-0)">2,5</text></g><line x1="648.51" y1="701" x2="648.51" y2="699" style="stroke-width: 0.5;stroke: rgb(128,128,128);stroke-opacity: 1.0;stroke-linecap: square;shape-rendering:crispEdges;" transform="matrix(1,0,0,1,0,0)" clip-path="url(#_952050161260997clip-0)"/><g transform="matrix(1,0,0,1,0,0)"><text x="679.01" y="715.52" style="fill: rgb(64,64,64); fill-opacity: 1.0; font-family: Tahoma; font-size: 12px;" clip-path="url(#_952050161260997clip-0)">3,0</text></g><line x1="687.51" y1="701" x2="687.51" y2="699" style="stroke-width: 0.5;stroke: rgb(128,128,128);stroke-opacity: 1.0;stroke-linecap: square;shape-rendering:crispEdges;" transform="matrix(1,0,0,1,0,0)" clip-path="url(#_952050161260997clip-0)"/><g transform="matrix(1,0,0,1,0,0)"><text x="718.02" y="715.52" style="fill: rgb(64,64,64); fill-opacity: 1.0; font-family: Tahoma; font-size: 12px;" clip-path="url(#_952050161260997clip-0)">3,5</text></g><line x1="726.52" y1="701" x2="726.52" y2="699" style="stroke-width: 0.5;stroke: rgb(128,128,128);stroke-opacity: 1.0;stroke-linecap: square;shape-rendering:crispEdges;" transform="matrix(1,0,0,1,0,0)" clip-path="url(#_952050161260997clip-0)"/><g transform="matrix(1,0,0,1,0,0)"><text x="757.03" y="715.52" style="fill: rgb(64,64,64); fill-opacity: 1.0; font-family: Tahoma; font-size: 12px;" clip-path="url(#_952050161260997clip-0)">4,0</text></g><line x1="765.53" y1="701" x2="765.53" y2="699" style="stroke-width: 0.5;stroke: rgb(128,128,128);stroke-opacity: 1.0;stroke-linecap: square;shape-rendering:crispEdges;" transform="matrix(1,0,0,1,0,0)" clip-path="url(#_952050161260997clip-0)"/><g transform="matrix(1,0,0,1,0,0)"><text x="796.04" y="715.52" style="fill: rgb(64,64,64); fill-opacity: 1.0; font-family: Tahoma; font-size: 12px;" clip-path="url(#_952050161260997clip-0)">4,5</text></g><line x1="804.54" y1="701" x2="804.54" y2="699" style="stroke-width: 0.5;stroke: rgb(128,128,128);stroke-opacity: 1.0;stroke-linecap: square;shape-rendering:crispEdges;" transform="matrix(1,0,0,1,0,0)" clip-path="url(#_952050161260997clip-0)"/><g transform="matrix(1,0,0,1,0,0)"><text x="835.04" y="715.52" style="fill: rgb(64,64,64); fill-opacity: 1.0; font-family: Tahoma; font-size: 12px;" clip-path="url(#_952050161260997clip-0)">5,0</text></g><line x1="843.54" y1="701" x2="843.54" y2="699" style="stroke-width: 0.5;stroke: rgb(128,128,128);stroke-opacity: 1.0;stroke-linecap: square;shape-rendering:crispEdges;" transform="matrix(1,0,0,1,0,0)" clip-path="url(#_952050161260997clip-0)"/><g transform="matrix(1,0,0,1,0,0)"><text x="874.05" y="715.52" style="fill: rgb(64,64,64); fill-opacity: 1.0; font-family: Tahoma; font-size: 12px;" clip-path="url(#_952050161260997clip-0)">5,5</text></g><line x1="882.55" y1="701" x2="882.55" y2="699" style="stroke-width: 0.5;stroke: rgb(128,128,128);stroke-opacity: 1.0;stroke-linecap: square;shape-rendering:crispEdges;" transform="matrix(1,0,0,1,0,0)" clip-path="url(#_952050161260997clip-0)"/><g transform="matrix(1,0,0,1,0,0)"><text x="913.06" y="715.52" style="fill: rgb(64,64,64); fill-opacity: 1.0; font-family: Tahoma; font-size: 12px;" clip-path="url(#_952050161260997clip-0)">6,0</text></g><line x1="921.56" y1="701" x2="921.56" y2="699" style="stroke-width: 0.5;stroke: rgb(128,128,128);stroke-opacity: 1.0;stroke-linecap: square;shape-rendering:crispEdges;" transform="matrix(1,0,0,1,0,0)" clip-path="url(#_952050161260997clip-0)"/><g transform="matrix(1,0,0,1,0,0)"><text x="952.07" y="715.52" style="fill: rgb(64,64,64); fill-opacity: 1.0; font-family: Tahoma; font-size: 12px;" clip-path="url(#_952050161260997clip-0)">6,5</text></g><line x1="960.57" y1="701" x2="960.57" y2="699" style="stroke-width: 0.5;stroke: rgb(128,128,128);stroke-opacity: 1.0;stroke-linecap: square;shape-rendering:crispEdges;" transform="matrix(1,0,0,1,0,0)" clip-path="url(#_952050161260997clip-0)"/><g transform="matrix(1,0,0,1,0,0)"><text x="991.07" y="715.52" style="fill: rgb(64,64,64); fill-opacity: 1.0; font-family: Tahoma; font-size: 12px;" clip-path="url(#_952050161260997clip-0)">7,0</text></g><line x1="999.57" y1="701" x2="999.57" y2="699" style="stroke-width: 0.5;stroke: rgb(128,128,128);stroke-opacity: 1.0;stroke-linecap: square;shape-rendering:crispEdges;" transform="matrix(1,0,0,1,0,0)" clip-path="url(#_952050161260997clip-0)"/><g transform="matrix(1,0,0,1,0,0)"><text x="1030.08" y="715.52" style="fill: rgb(64,64,64); fill-opacity: 1.0; font-family: Tahoma; font-size: 12px;" clip-path="url(#_952050161260997clip-0)">7,5</text></g><line x1="1038.58" y1="701" x2="1038.58" y2="699" style="stroke-width: 0.5;stroke: rgb(128,128,128);stroke-opacity: 1.0;stroke-linecap: square;shape-rendering:crispEdges;" transform="matrix(1,0,0,1,0,0)" clip-path="url(#_952050161260997clip-0)"/><g transform="matrix(1,0,0,1,0,0)"><text x="1069.09" y="715.52" style="fill: rgb(64,64,64); fill-opacity: 1.0; font-family: Tahoma; font-size: 12px;" clip-path="url(#_952050161260997clip-0)">8,0</text></g><line x1="1077.59" y1="701" x2="1077.59" y2="699" style="stroke-width: 0.5;stroke: rgb(128,128,128);stroke-opacity: 1.0;stroke-linecap: square;shape-rendering:crispEdges;" transform="matrix(1,0,0,1,0,0)" clip-path="url(#_952050161260997clip-0)"/><g transform="matrix(1,0,0,1,0,0)"><text x="1108.1" y="715.52" style="fill: rgb(64,64,64); fill-opacity: 1.0; font-family: Tahoma; font-size: 12px;" clip-path="url(#_952050161260997clip-0)">8,5</text></g><line x1="1116.6" y1="701" x2="1116.6" y2="699" style="stroke-width: 0.5;stroke: rgb(128,128,128);stroke-opacity: 1.0;stroke-linecap: square;shape-rendering:crispEdges;" transform="matrix(1,0,0,1,0,0)" clip-path="url(#_952050161260997clip-0)"/><g transform="matrix(1,0,0,1,0,0)"><text x="560" y="734.59" style="fill: rgb(64,64,64); fill-opacity: 1.0; font-family: Tahoma; font-size: 14px; font-weight: bold;" clip-path="url(#_952050161260997clip-0)">alpha_b (deg)</text></g><line x1="75" y1="35" x2="75" y2="695" style="stroke-width: 0.5;stroke: rgb(128,128,128);stroke-opacity: 1.0;stroke-linecap: square;shape-rendering:crispEdges;" transform="matrix(1,0,0,1,0,0)" clip-path="url(#_952050161260997clip-0)"/><g transform="matrix(1,0,0,1,0,0)"><text x="33" y="682.51" style="fill: rgb(64,64,64); fill-opacity: 1.0; font-family: Tahoma; font-size: 12px;" clip-path="url(#_952050161260997clip-0)">0,0034</text></g><line x1="73" y1="677.49" x2="75" y2="677.49" style="stroke-width: 0.5;stroke: rgb(128,128,128);stroke-opacity: 1.0;stroke-linecap: square;shape-rendering:crispEdges;" transform="matrix(1,0,0,1,0,0)" clip-path="url(#_952050161260997clip-0)"/><g transform="matrix(1,0,0,1,0,0)"><text x="33" y="655.3" style="fill: rgb(64,64,64); fill-opacity: 1.0; font-family: Tahoma; font-size: 12px;" clip-path="url(#_952050161260997clip-0)">0,0035</text></g><line x1="73" y1="650.28" x2="75" y2="650.28" style="stroke-width: 0.5;stroke: rgb(128,128,128);stroke-opacity: 1.0;stroke-linecap: square;shape-rendering:crispEdges;" transform="matrix(1,0,0,1,0,0)" clip-path="url(#_952050161260997clip-0)"/><g transform="matrix(1,0,0,1,0,0)"><text x="33" y="628.09" style="fill: rgb(64,64,64); fill-opacity: 1.0; font-family: Tahoma; font-size: 12px;" clip-path="url(#_952050161260997clip-0)">0,0036</text></g><line x1="73" y1="623.07" x2="75" y2="623.07" style="stroke-width: 0.5;stroke: rgb(128,128,128);stroke-opacity: 1.0;stroke-linecap: square;shape-rendering:crispEdges;" transform="matrix(1,0,0,1,0,0)" clip-path="url(#_952050161260997clip-0)"/><g transform="matrix(1,0,0,1,0,0)"><text x="33" y="600.89" style="fill: rgb(64,64,64); fill-opacity: 1.0; font-family: Tahoma; font-size: 12px;" clip-path="url(#_952050161260997clip-0)">0,0037</text></g><line x1="73" y1="595.86" x2="75" y2="595.86" style="stroke-width: 0.5;stroke: rgb(128,128,128);stroke-opacity: 1.0;stroke-linecap: square;shape-rendering:crispEdges;" transform="matrix(1,0,0,1,0,0)" clip-path="url(#_952050161260997clip-0)"/><g transform="matrix(1,0,0,1,0,0)"><text x="33" y="573.68" style="fill: rgb(64,64,64); fill-opacity: 1.0; font-family: Tahoma; font-size: 12px;" clip-path="url(#_952050161260997clip-0)">0,0038</text></g><line x1="73" y1="568.66" x2="75" y2="568.66" style="stroke-width: 0.5;stroke: rgb(128,128,128);stroke-opacity: 1.0;stroke-linecap: square;shape-rendering:crispEdges;" transform="matrix(1,0,0,1,0,0)" clip-path="url(#_952050161260997clip-0)"/><g transform="matrix(1,0,0,1,0,0)"><text x="33" y="546.47" style="fill: rgb(64,64,64); fill-opacity: 1.0; font-family: Tahoma; font-size: 12px;" clip-path="url(#_952050161260997clip-0)">0,0039</text></g><line x1="73" y1="541.45" x2="75" y2="541.45" style="stroke-width: 0.5;stroke: rgb(128,128,128);stroke-opacity: 1.0;stroke-linecap: square;shape-rendering:crispEdges;" transform="matrix(1,0,0,1,0,0)" clip-path="url(#_952050161260997clip-0)"/><g transform="matrix(1,0,0,1,0,0)"><text x="33" y="519.26" style="fill: rgb(64,64,64); fill-opacity: 1.0; font-family: Tahoma; font-size: 12px;" clip-path="url(#_952050161260997clip-0)">0,0040</text></g><line x1="73" y1="514.24" x2="75" y2="514.24" style="stroke-width: 0.5;stroke: rgb(128,128,128);stroke-opacity: 1.0;stroke-linecap: square;shape-rendering:crispEdges;" transform="matrix(1,0,0,1,0,0)" clip-path="url(#_952050161260997clip-0)"/><g transform="matrix(1,0,0,1,0,0)"><text x="33" y="492.05" style="fill: rgb(64,64,64); fill-opacity: 1.0; font-family: Tahoma; font-size: 12px;" clip-path="url(#_952050161260997clip-0)">0,0041</text></g><line x1="73" y1="487.03" x2="75" y2="487.03" style="stroke-width: 0.5;stroke: rgb(128,128,128);stroke-opacity: 1.0;stroke-linecap: square;shape-rendering:crispEdges;" transform="matrix(1,0,0,1,0,0)" clip-path="url(#_952050161260997clip-0)"/><g transform="matrix(1,0,0,1,0,0)"><text x="33" y="464.84" style="fill: rgb(64,64,64); fill-opacity: 1.0; font-family: Tahoma; font-size: 12px;" clip-path="url(#_952050161260997clip-0)">0,0042</text></g><line x1="73" y1="459.82" x2="75" y2="459.82" style="stroke-width: 0.5;stroke: rgb(128,128,128);stroke-opacity: 1.0;stroke-linecap: square;shape-rendering:crispEdges;" transform="matrix(1,0,0,1,0,0)" clip-path="url(#_952050161260997clip-0)"/><g transform="matrix(1,0,0,1,0,0)"><text x="33" y="437.63" style="fill: rgb(64,64,64); fill-opacity: 1.0; font-family: Tahoma; font-size: 12px;" clip-path="url(#_952050161260997clip-0)">0,0043</text></g><line x1="73" y1="432.61" x2="75" y2="432.61" style="stroke-width: 0.5;stroke: rgb(128,128,128);stroke-opacity: 1.0;stroke-linecap: square;shape-rendering:crispEdges;" transform="matrix(1,0,0,1,0,0)" clip-path="url(#_952050161260997clip-0)"/><g transform="matrix(1,0,0,1,0,0)"><text x="33" y="410.42" style="fill: rgb(64,64,64); fill-opacity: 1.0; font-family: Tahoma; font-size: 12px;" clip-path="url(#_952050161260997clip-0)">0,0044</text></g><line x1="73" y1="405.4" x2="75" y2="405.4" style="stroke-width: 0.5;stroke: rgb(128,128,128);stroke-opacity: 1.0;stroke-linecap: square;shape-rendering:crispEdges;" transform="matrix(1,0,0,1,0,0)" clip-path="url(#_952050161260997clip-0)"/><g transform="matrix(1,0,0,1,0,0)"><text x="33" y="383.21" style="fill: rgb(64,64,64); fill-opacity: 1.0; font-family: Tahoma; font-size: 12px;" clip-path="url(#_952050161260997clip-0)">0,0045</text></g><line x1="73" y1="378.19" x2="75" y2="378.19" style="stroke-width: 0.5;stroke: rgb(128,128,128);stroke-opacity: 1.0;stroke-linecap: square;shape-rendering:crispEdges;" transform="matrix(1,0,0,1,0,0)" clip-path="url(#_952050161260997clip-0)"/><g transform="matrix(1,0,0,1,0,0)"><text x="33" y="356.01" style="fill: rgb(64,64,64); fill-opacity: 1.0; font-family: Tahoma; font-size: 12px;" clip-path="url(#_952050161260997clip-0)">0,0046</text></g><line x1="73" y1="350.98" x2="75" y2="350.98" style="stroke-width: 0.5;stroke: rgb(128,128,128);stroke-opacity: 1.0;stroke-linecap: square;shape-rendering:crispEdges;" transform="matrix(1,0,0,1,0,0)" clip-path="url(#_952050161260997clip-0)"/><g transform="matrix(1,0,0,1,0,0)"><text x="33" y="328.8" style="fill: rgb(64,64,64); fill-opacity: 1.0; font-family: Tahoma; font-size: 12px;" clip-path="url(#_952050161260997clip-0)">0,0047</text></g><line x1="73" y1="323.77" x2="75" y2="323.77" style="stroke-width: 0.5;stroke: rgb(128,128,128);stroke-opacity: 1.0;stroke-linecap: square;shape-rendering:crispEdges;" transform="matrix(1,0,0,1,0,0)" clip-path="url(#_952050161260997clip-0)"/><g transform="matrix(1,0,0,1,0,0)"><text x="33" y="301.59" style="fill: rgb(64,64,64); fill-opacity: 1.0; font-family: Tahoma; font-size: 12px;" clip-path="url(#_952050161260997clip-0)">0,0048</text></g><line x1="73" y1="296.57" x2="75" y2="296.57" style="stroke-width: 0.5;stroke: rgb(128,128,128);stroke-opacity: 1.0;stroke-linecap: square;shape-rendering:crispEdges;" transform="matrix(1,0,0,1,0,0)" clip-path="url(#_952050161260997clip-0)"/><g transform="matrix(1,0,0,1,0,0)"><text x="33" y="274.38" style="fill: rgb(64,64,64); fill-opacity: 1.0; font-family: Tahoma; font-size: 12px;" clip-path="url(#_952050161260997clip-0)">0,0049</text></g><line x1="73" y1="269.36" x2="75" y2="269.36" style="stroke-width: 0.5;stroke: rgb(128,128,128);stroke-opacity: 1.0;stroke-linecap: square;shape-rendering:crispEdges;" transform="matrix(1,0,0,1,0,0)" clip-path="url(#_952050161260997clip-0)"/><g transform="matrix(1,0,0,1,0,0)"><text x="33" y="247.17" style="fill: rgb(64,64,64); fill-opacity: 1.0; font-family: Tahoma; font-size: 12px;" clip-path="url(#_952050161260997clip-0)">0,0050</text></g><line x1="73" y1="242.15" x2="75" y2="242.15" style="stroke-width: 0.5;stroke: rgb(128,128,128);stroke-opacity: 1.0;stroke-linecap: square;shape-rendering:crispEdges;" transform="matrix(1,0,0,1,0,0)" clip-path="url(#_952050161260997clip-0)"/><g transform="matrix(1,0,0,1,0,0)"><text x="33" y="219.96" style="fill: rgb(64,64,64); fill-opacity: 1.0; font-family: Tahoma; font-size: 12px;" clip-path="url(#_952050161260997clip-0)">0,0051</text></g><line x1="73" y1="214.94" x2="75" y2="214.94" style="stroke-width: 0.5;stroke: rgb(128,128,128);stroke-opacity: 1.0;stroke-linecap: square;shape-rendering:crispEdges;" transform="matrix(1,0,0,1,0,0)" clip-path="url(#_952050161260997clip-0)"/><g transform="matrix(1,0,0,1,0,0)"><text x="33" y="192.75" style="fill: rgb(64,64,64); fill-opacity: 1.0; font-family: Tahoma; font-size: 12px;" clip-path="url(#_952050161260997clip-0)">0,0052</text></g><line x1="73" y1="187.73" x2="75" y2="187.73" style="stroke-width: 0.5;stroke: rgb(128,128,128);stroke-opacity: 1.0;stroke-linecap: square;shape-rendering:crispEdges;" transform="matrix(1,0,0,1,0,0)" clip-path="url(#_952050161260997clip-0)"/><g transform="matrix(1,0,0,1,0,0)"><text x="33" y="165.54" style="fill: rgb(64,64,64); fill-opacity: 1.0; font-family: Tahoma; font-size: 12px;" clip-path="url(#_952050161260997clip-0)">0,0053</text></g><line x1="73" y1="160.52" x2="75" y2="160.52" style="stroke-width: 0.5;stroke: rgb(128,128,128);stroke-opacity: 1.0;stroke-linecap: square;shape-rendering:crispEdges;" transform="matrix(1,0,0,1,0,0)" clip-path="url(#_952050161260997clip-0)"/><g transform="matrix(1,0,0,1,0,0)"><text x="33" y="138.33" style="fill: rgb(64,64,64); fill-opacity: 1.0; font-family: Tahoma; font-size: 12px;" clip-path="url(#_952050161260997clip-0)">0,0054</text></g><line x1="73" y1="133.31" x2="75" y2="133.31" style="stroke-width: 0.5;stroke: rgb(128,128,128);stroke-opacity: 1.0;stroke-linecap: square;shape-rendering:crispEdges;" transform="matrix(1,0,0,1,0,0)" clip-path="url(#_952050161260997clip-0)"/><g transform="matrix(1,0,0,1,0,0)"><text x="33" y="111.12" style="fill: rgb(64,64,64); fill-opacity: 1.0; font-family: Tahoma; font-size: 12px;" clip-path="url(#_952050161260997clip-0)">0,0055</text></g><line x1="73" y1="106.1" x2="75" y2="106.1" style="stroke-width: 0.5;stroke: rgb(128,128,128);stroke-opacity: 1.0;stroke-linecap: square;shape-rendering:crispEdges;" transform="matrix(1,0,0,1,0,0)" clip-path="url(#_952050161260997clip-0)"/><g transform="matrix(1,0,0,1,0,0)"><text x="33" y="83.92" style="fill: rgb(64,64,64); fill-opacity: 1.0; font-family: Tahoma; font-size: 12px;" clip-path="url(#_952050161260997clip-0)">0,0056</text></g><line x1="73" y1="78.89" x2="75" y2="78.89" style="stroke-width: 0.5;stroke: rgb(128,128,128);stroke-opacity: 1.0;stroke-linecap: square;shape-rendering:crispEdges;" transform="matrix(1,0,0,1,0,0)" clip-path="url(#_952050161260997clip-0)"/><g transform="matrix(1,0,0,1,0,0)"><text x="33" y="56.71" style="fill: rgb(64,64,64); fill-opacity: 1.0; font-family: Tahoma; font-size: 12px;" clip-path="url(#_952050161260997clip-0)">0,0057</text></g><line x1="73" y1="51.69" x2="75" y2="51.69" style="stroke-width: 0.5;stroke: rgb(128,128,128);stroke-opacity: 1.0;stroke-linecap: square;shape-rendering:crispEdges;" transform="matrix(1,0,0,1,0,0)" clip-path="url(#_952050161260997clip-0)"/><g style="fill: rgb(64,64,64); fill-opacity: 1.0; stroke: none" transform="matrix(0,-1,1,0,-345.5,384.5)" clip-path="url(#_952050161260997clip-1)"><path d="M 12.94 370.81 Q 10.66 370.81 9.3 369.42 Q 7.95 368.03 7.95 365.53 Q 7.95 363.11 9.3 361.67 Q 10.66 360.23 12.95 360.23 Q 13.56 360.23 14.05 360.3 Q 14.53 360.37 14.97 360.48 Q 15.33 360.59 15.73 360.77 Q 16.14 360.95 16.39 361.08 L 16.39 363.5 L 16.14 363.5 Q 15.95 363.34 15.67 363.12 Q 15.39 362.89 15.03 362.67 Q 14.67 362.45 14.25 362.3 Q 13.83 362.14 13.36 362.14 Q 12.81 362.14 12.34 362.31 Q 11.88 362.48 11.47 362.92 Q 11.08 363.31 10.84 363.98 Q 10.59 364.64 10.59 365.53 Q 10.59 366.48 10.85 367.13 Q 11.11 367.78 11.52 368.17 Q 11.91 368.56 12.4 368.73 Q 12.89 368.91 13.38 368.91 Q 13.88 368.91 14.34 368.73 Q 14.8 368.56 15.11 368.36 Q 15.45 368.14 15.71 367.92 Q 15.97 367.7 16.16 367.55 L 16.39 367.55 L 16.39 369.94 Q 16.11 370.06 15.74 370.23 Q 15.38 370.39 14.98 370.51 Q 14.5 370.66 14.09 370.73 Q 13.67 370.81 12.94 370.81 Z  M 26.99 365.53 Q 26.99 366.95 26.37 368.08 Q 25.75 369.2 24.8 369.8 Q 24 370.31 23.07 370.46 Q 22.14 370.61 21.08 370.61 L 17.89 370.61 L 17.89 360.44 L 21.06 360.44 Q 22.13 360.44 23.06 360.57 Q 24 360.7 24.83 361.23 Q 25.83 361.87 26.41 362.96 Q 26.99 364.05 26.99 365.53 Z  M 24.36 365.51 Q 24.36 364.5 24.02 363.79 Q 23.67 363.08 22.95 362.67 Q 22.44 362.39 21.87 362.36 Q 21.3 362.33 20.5 362.33 L 20.45 362.33 L 20.45 368.7 L 20.5 368.7 Q 21.36 368.7 21.95 368.67 Q 22.55 368.64 23.08 368.31 Q 23.7 367.91 24.03 367.21 Q 24.36 366.51 24.36 365.51 Z "/></g><line x1="102.4" y1="35" x2="102.4" y2="695" style="stroke-width: 0.5;stroke: rgb(192,192,192);stroke-opacity: 1.0;stroke-linejoin: bevel;stroke-dasharray: 2.0, 2.0;shape-rendering:crispEdges;" transform="matrix(1,0,0,1,0,0)" clip-path="url(#_952050161260997clip-2)"/><line x1="141.41" y1="35" x2="141.41" y2="695" style="stroke-width: 0.5;stroke: rgb(192,192,192);stroke-opacity: 1.0;stroke-linejoin: bevel;stroke-dasharray: 2.0, 2.0;shape-rendering:crispEdges;" transform="matrix(1,0,0,1,0,0)" clip-path="url(#_952050161260997clip-2)"/><line x1="180.42" y1="35" x2="180.42" y2="695" style="stroke-width: 0.5;stroke: rgb(192,192,192);stroke-opacity: 1.0;stroke-linejoin: bevel;stroke-dasharray: 2.0, 2.0;shape-rendering:crispEdges;" transform="matrix(1,0,0,1,0,0)" clip-path="url(#_952050161260997clip-2)"/><line x1="219.43" y1="35" x2="219.43" y2="695" style="stroke-width: 0.5;stroke: rgb(192,192,192);stroke-opacity: 1.0;stroke-linejoin: bevel;stroke-dasharray: 2.0, 2.0;shape-rendering:crispEdges;" transform="matrix(1,0,0,1,0,0)" clip-path="url(#_952050161260997clip-2)"/><line x1="258.43" y1="35" x2="258.43" y2="695" style="stroke-width: 0.5;stroke: rgb(192,192,192);stroke-opacity: 1.0;stroke-linejoin: bevel;stroke-dasharray: 2.0, 2.0;shape-rendering:crispEdges;" transform="matrix(1,0,0,1,0,0)" clip-path="url(#_952050161260997clip-2)"/><line x1="297.44" y1="35" x2="297.44" y2="695" style="stroke-width: 0.5;stroke: rgb(192,192,192);stroke-opacity: 1.0;stroke-linejoin: bevel;stroke-dasharray: 2.0, 2.0;shape-rendering:crispEdges;" transform="matrix(1,0,0,1,0,0)" clip-path="url(#_952050161260997clip-2)"/><line x1="336.45" y1="35" x2="336.45" y2="695" style="stroke-width: 0.5;stroke: rgb(192,192,192);stroke-opacity: 1.0;stroke-linejoin: bevel;stroke-dasharray: 2.0, 2.0;shape-rendering:crispEdges;" transform="matrix(1,0,0,1,0,0)" clip-path="url(#_952050161260997clip-2)"/><line x1="375.46" y1="35" x2="375.46" y2="695" style="stroke-width: 0.5;stroke: rgb(192,192,192);stroke-opacity: 1.0;stroke-linejoin: bevel;stroke-dasharray: 2.0, 2.0;shape-rendering:crispEdges;" transform="matrix(1,0,0,1,0,0)" clip-path="url(#_952050161260997clip-2)"/><line x1="414.46" y1="35" x2="414.46" y2="695" style="stroke-width: 0.5;stroke: rgb(192,192,192);stroke-opacity: 1.0;stroke-linejoin: bevel;stroke-dasharray: 2.0, 2.0;shape-rendering:crispEdges;" transform="matrix(1,0,0,1,0,0)" clip-path="url(#_952050161260997clip-2)"/><line x1="453.47" y1="35" x2="453.47" y2="695" style="stroke-width: 0.5;stroke: rgb(192,192,192);stroke-opacity: 1.0;stroke-linejoin: bevel;stroke-dasharray: 2.0, 2.0;shape-rendering:crispEdges;" transform="matrix(1,0,0,1,0,0)" clip-path="url(#_952050161260997clip-2)"/><line x1="492.48" y1="35" x2="492.48" y2="695" style="stroke-width: 0.5;stroke: rgb(192,192,192);stroke-opacity: 1.0;stroke-linejoin: bevel;stroke-dasharray: 2.0, 2.0;shape-rendering:crispEdges;" transform="matrix(1,0,0,1,0,0)" clip-path="url(#_952050161260997clip-2)"/><line x1="531.49" y1="35" x2="531.49" y2="695" style="stroke-width: 0.5;stroke: rgb(192,192,192);stroke-opacity: 1.0;stroke-linejoin: bevel;stroke-dasharray: 2.0, 2.0;shape-rendering:crispEdges;" transform="matrix(1,0,0,1,0,0)" clip-path="url(#_952050161260997clip-2)"/><line x1="570.49" y1="35" x2="570.49" y2="695" style="stroke-width: 0.5;stroke: rgb(192,192,192);stroke-opacity: 1.0;stroke-linejoin: bevel;stroke-dasharray: 2.0, 2.0;shape-rendering:crispEdges;" transform="matrix(1,0,0,1,0,0)" clip-path="url(#_952050161260997clip-2)"/><line x1="609.5" y1="35" x2="609.5" y2="695" style="stroke-width: 0.5;stroke: rgb(192,192,192);stroke-opacity: 1.0;stroke-linejoin: bevel;stroke-dasharray: 2.0, 2.0;shape-rendering:crispEdges;" transform="matrix(1,0,0,1,0,0)" clip-path="url(#_952050161260997clip-2)"/><line x1="648.51" y1="35" x2="648.51" y2="695" style="stroke-width: 0.5;stroke: rgb(192,192,192);stroke-opacity: 1.0;stroke-linejoin: bevel;stroke-dasharray: 2.0, 2.0;shape-rendering:crispEdges;" transform="matrix(1,0,0,1,0,0)" clip-path="url(#_952050161260997clip-2)"/><line x1="687.51" y1="35" x2="687.51" y2="695" style="stroke-width: 0.5;stroke: rgb(192,192,192);stroke-opacity: 1.0;stroke-linejoin: bevel;stroke-dasharray: 2.0, 2.0;shape-rendering:crispEdges;" transform="matrix(1,0,0,1,0,0)" clip-path="url(#_952050161260997clip-2)"/><line x1="726.52" y1="35" x2="726.52" y2="695" style="stroke-width: 0.5;stroke: rgb(192,192,192);stroke-opacity: 1.0;stroke-linejoin: bevel;stroke-dasharray: 2.0, 2.0;shape-rendering:crispEdges;" transform="matrix(1,0,0,1,0,0)" clip-path="url(#_952050161260997clip-2)"/><line x1="765.53" y1="35" x2="765.53" y2="695" style="stroke-width: 0.5;stroke: rgb(192,192,192);stroke-opacity: 1.0;stroke-linejoin: bevel;stroke-dasharray: 2.0, 2.0;shape-rendering:crispEdges;" transform="matrix(1,0,0,1,0,0)" clip-path="url(#_952050161260997clip-2)"/><line x1="804.54" y1="35" x2="804.54" y2="695" style="stroke-width: 0.5;stroke: rgb(192,192,192);stroke-opacity: 1.0;stroke-linejoin: bevel;stroke-dasharray: 2.0, 2.0;shape-rendering:crispEdges;" transform="matrix(1,0,0,1,0,0)" clip-path="url(#_952050161260997clip-2)"/><line x1="843.54" y1="35" x2="843.54" y2="695" style="stroke-width: 0.5;stroke: rgb(192,192,192);stroke-opacity: 1.0;stroke-linejoin: bevel;stroke-dasharray: 2.0, 2.0;shape-rendering:crispEdges;" transform="matrix(1,0,0,1,0,0)" clip-path="url(#_952050161260997clip-2)"/><line x1="882.55" y1="35" x2="882.55" y2="695" style="stroke-width: 0.5;stroke: rgb(192,192,192);stroke-opacity: 1.0;stroke-linejoin: bevel;stroke-dasharray: 2.0, 2.0;shape-rendering:crispEdges;" transform="matrix(1,0,0,1,0,0)" clip-path="url(#_952050161260997clip-2)"/><line x1="921.56" y1="35" x2="921.56" y2="695" style="stroke-width: 0.5;stroke: rgb(192,192,192);stroke-opacity: 1.0;stroke-linejoin: bevel;stroke-dasharray: 2.0, 2.0;shape-rendering:crispEdges;" transform="matrix(1,0,0,1,0,0)" clip-path="url(#_952050161260997clip-2)"/><line x1="960.57" y1="35" x2="960.57" y2="695" style="stroke-width: 0.5;stroke: rgb(192,192,192);stroke-opacity: 1.0;stroke-linejoin: bevel;stroke-dasharray: 2.0, 2.0;shape-rendering:crispEdges;" transform="matrix(1,0,0,1,0,0)" clip-path="url(#_952050161260997clip-2)"/><line x1="999.57" y1="35" x2="999.57" y2="695" style="stroke-width: 0.5;stroke: rgb(192,192,192);stroke-opacity: 1.0;stroke-linejoin: bevel;stroke-dasharray: 2.0, 2.0;shape-rendering:crispEdges;" transform="matrix(1,0,0,1,0,0)" clip-path="url(#_952050161260997clip-2)"/><line x1="1038.58" y1="35" x2="1038.58" y2="695" style="stroke-width: 0.5;stroke: rgb(192,192,192);stroke-opacity: 1.0;stroke-linejoin: bevel;stroke-dasharray: 2.0, 2.0;shape-rendering:crispEdges;" transform="matrix(1,0,0,1,0,0)" clip-path="url(#_952050161260997clip-2)"/><line x1="1077.59" y1="35" x2="1077.59" y2="695" style="stroke-width: 0.5;stroke: rgb(192,192,192);stroke-opacity: 1.0;stroke-linejoin: bevel;stroke-dasharray: 2.0, 2.0;shape-rendering:crispEdges;" transform="matrix(1,0,0,1,0,0)" clip-path="url(#_952050161260997clip-2)"/><line x1="1116.6" y1="35" x2="1116.6" y2="695" style="stroke-width: 0.5;stroke: rgb(192,192,192);stroke-opacity: 1.0;stroke-linejoin: bevel;stroke-dasharray: 2.0, 2.0;shape-rendering:crispEdges;" transform="matrix(1,0,0,1,0,0)" clip-path="url(#_952050161260997clip-2)"/><line x1="79" y1="677.49" x2="1140" y2="677.49" style="stroke-width: 0.5;stroke: rgb(192,192,192);stroke-opacity: 1.0;stroke-linejoin: bevel;stroke-dasharray: 2.0, 2.0;shape-rendering:crispEdges;" transform="matrix(1,0,0,1,0,0)" clip-path="url(#_952050161260997clip-2)"/><line x1="79" y1="650.28" x2="1140" y2="650.28" style="stroke-width: 0.5;stroke: rgb(192,192,192);stroke-opacity: 1.0;stroke-linejoin: bevel;stroke-dasharray: 2.0, 2.0;shape-rendering:crispEdges;" transform="matrix(1,0,0,1,0,0)" clip-path="url(#_952050161260997clip-2)"/><line x1="79" y1="623.07" x2="1140" y2="623.07" style="stroke-width: 0.5;stroke: rgb(192,192,192);stroke-opacity: 1.0;stroke-linejoin: bevel;stroke-dasharray: 2.0, 2.0;shape-rendering:crispEdges;" transform="matrix(1,0,0,1,0,0)" clip-path="url(#_952050161260997clip-2)"/><line x1="79" y1="595.86" x2="1140" y2="595.86" style="stroke-width: 0.5;stroke: rgb(192,192,192);stroke-opacity: 1.0;stroke-linejoin: bevel;stroke-dasharray: 2.0, 2.0;shape-rendering:crispEdges;" transform="matrix(1,0,0,1,0,0)" clip-path="url(#_952050161260997clip-2)"/><line x1="79" y1="568.66" x2="1140" y2="568.66" style="stroke-width: 0.5;stroke: rgb(192,192,192);stroke-opacity: 1.0;stroke-linejoin: bevel;stroke-dasharray: 2.0, 2.0;shape-rendering:crispEdges;" transform="matrix(1,0,0,1,0,0)" clip-path="url(#_952050161260997clip-2)"/><line x1="79" y1="541.45" x2="1140" y2="541.45" style="stroke-width: 0.5;stroke: rgb(192,192,192);stroke-opacity: 1.0;stroke-linejoin: bevel;stroke-dasharray: 2.0, 2.0;shape-rendering:crispEdges;" transform="matrix(1,0,0,1,0,0)" clip-path="url(#_952050161260997clip-2)"/><line x1="79" y1="514.24" x2="1140" y2="514.24" style="stroke-width: 0.5;stroke: rgb(192,192,192);stroke-opacity: 1.0;stroke-linejoin: bevel;stroke-dasharray: 2.0, 2.0;shape-rendering:crispEdges;" transform="matrix(1,0,0,1,0,0)" clip-path="url(#_952050161260997clip-2)"/><line x1="79" y1="487.03" x2="1140" y2="487.03" style="stroke-width: 0.5;stroke: rgb(192,192,192);stroke-opacity: 1.0;stroke-linejoin: bevel;stroke-dasharray: 2.0, 2.0;shape-rendering:crispEdges;" transform="matrix(1,0,0,1,0,0)" clip-path="url(#_952050161260997clip-2)"/><line x1="79" y1="459.82" x2="1140" y2="459.82" style="stroke-width: 0.5;stroke: rgb(192,192,192);stroke-opacity: 1.0;stroke-linejoin: bevel;stroke-dasharray: 2.0, 2.0;shape-rendering:crispEdges;" transform="matrix(1,0,0,1,0,0)" clip-path="url(#_952050161260997clip-2)"/><line x1="79" y1="432.61" x2="1140" y2="432.61" style="stroke-width: 0.5;stroke: rgb(192,192,192);stroke-opacity: 1.0;stroke-linejoin: bevel;stroke-dasharray: 2.0, 2.0;shape-rendering:crispEdges;" transform="matrix(1,0,0,1,0,0)" clip-path="url(#_952050161260997clip-2)"/><line x1="79" y1="405.4" x2="1140" y2="405.4" style="stroke-width: 0.5;stroke: rgb(192,192,192);stroke-opacity: 1.0;stroke-linejoin: bevel;stroke-dasharray: 2.0, 2.0;shape-rendering:crispEdges;" transform="matrix(1,0,0,1,0,0)" clip-path="url(#_952050161260997clip-2)"/><line x1="79" y1="378.19" x2="1140" y2="378.19" style="stroke-width: 0.5;stroke: rgb(192,192,192);stroke-opacity: 1.0;stroke-linejoin: bevel;stroke-dasharray: 2.0, 2.0;shape-rendering:crispEdges;" transform="matrix(1,0,0,1,0,0)" clip-path="url(#_952050161260997clip-2)"/><line x1="79" y1="350.98" x2="1140" y2="350.98" style="stroke-width: 0.5;stroke: rgb(192,192,192);stroke-opacity: 1.0;stroke-linejoin: bevel;stroke-dasharray: 2.0, 2.0;shape-rendering:crispEdges;" transform="matrix(1,0,0,1,0,0)" clip-path="url(#_952050161260997clip-2)"/><line x1="79" y1="323.77" x2="1140" y2="323.77" style="stroke-width: 0.5;stroke: rgb(192,192,192);stroke-opacity: 1.0;stroke-linejoin: bevel;stroke-dasharray: 2.0, 2.0;shape-rendering:crispEdges;" transform="matrix(1,0,0,1,0,0)" clip-path="url(#_952050161260997clip-2)"/><line x1="79" y1="296.57" x2="1140" y2="296.57" style="stroke-width: 0.5;stroke: rgb(192,192,192);stroke-opacity: 1.0;stroke-linejoin: bevel;stroke-dasharray: 2.0, 2.0;shape-rendering:crispEdges;" transform="matrix(1,0,0,1,0,0)" clip-path="url(#_952050161260997clip-2)"/><line x1="79" y1="269.36" x2="1140" y2="269.36" style="stroke-width: 0.5;stroke: rgb(192,192,192);stroke-opacity: 1.0;stroke-linejoin: bevel;stroke-dasharray: 2.0, 2.0;shape-rendering:crispEdges;" transform="matrix(1,0,0,1,0,0)" clip-path="url(#_952050161260997clip-2)"/><line x1="79" y1="242.15" x2="1140" y2="242.15" style="stroke-width: 0.5;stroke: rgb(192,192,192);stroke-opacity: 1.0;stroke-linejoin: bevel;stroke-dasharray: 2.0, 2.0;shape-rendering:crispEdges;" transform="matrix(1,0,0,1,0,0)" clip-path="url(#_952050161260997clip-2)"/><line x1="79" y1="214.94" x2="1140" y2="214.94" style="stroke-width: 0.5;stroke: rgb(192,192,192);stroke-opacity: 1.0;stroke-linejoin: bevel;stroke-dasharray: 2.0, 2.0;shape-rendering:crispEdges;" transform="matrix(1,0,0,1,0,0)" clip-path="url(#_952050161260997clip-2)"/><line x1="79" y1="187.73" x2="1140" y2="187.73" style="stroke-width: 0.5;stroke: rgb(192,192,192);stroke-opacity: 1.0;stroke-linejoin: bevel;stroke-dasharray: 2.0, 2.0;shape-rendering:crispEdges;" transform="matrix(1,0,0,1,0,0)" clip-path="url(#_952050161260997clip-2)"/><line x1="79" y1="160.52" x2="1140" y2="160.52" style="stroke-width: 0.5;stroke: rgb(192,192,192);stroke-opacity: 1.0;stroke-linejoin: bevel;stroke-dasharray: 2.0, 2.0;shape-rendering:crispEdges;" transform="matrix(1,0,0,1,0,0)" clip-path="url(#_952050161260997clip-2)"/><line x1="79" y1="133.31" x2="1140" y2="133.31" style="stroke-width: 0.5;stroke: rgb(192,192,192);stroke-opacity: 1.0;stroke-linejoin: bevel;stroke-dasharray: 2.0, 2.0;shape-rendering:crispEdges;" transform="matrix(1,0,0,1,0,0)" clip-path="url(#_952050161260997clip-2)"/><line x1="79" y1="106.1" x2="1140" y2="106.1" style="stroke-width: 0.5;stroke: rgb(192,192,192);stroke-opacity: 1.0;stroke-linejoin: bevel;stroke-dasharray: 2.0, 2.0;shape-rendering:crispEdges;" transform="matrix(1,0,0,1,0,0)" clip-path="url(#_952050161260997clip-2)"/><line x1="79" y1="78.89" x2="1140" y2="78.89" style="stroke-width: 0.5;stroke: rgb(192,192,192);stroke-opacity: 1.0;stroke-linejoin: bevel;stroke-dasharray: 2.0, 2.0;shape-rendering:crispEdges;" transform="matrix(1,0,0,1,0,0)" clip-path="url(#_952050161260997clip-2)"/><line x1="79" y1="51.69" x2="1140" y2="51.69" style="stroke-width: 0.5;stroke: rgb(192,192,192);stroke-opacity: 1.0;stroke-linejoin: bevel;stroke-dasharray: 2.0, 2.0;shape-rendering:crispEdges;" transform="matrix(1,0,0,1,0,0)" clip-path="url(#_952050161260997clip-2)"/><line x1="141.41" y1="465.5" x2="173.69" y2="482.35" style="stroke-width: 3.0;stroke: rgb(0,0,0);stroke-opacity: 1.0;stroke-linecap: square;shape-rendering:geometricPrecision;" transform="matrix(1,0,0,1,0,0)" clip-path="url(#_952050161260997clip-2)"/><line x1="173.69" y1="482.35" x2="205.98" y2="497.44" style="stroke-width: 3.0;stroke: rgb(0,0,0);stroke-opacity: 1.0;stroke-linecap: square;shape-rendering:geometricPrecision;" transform="matrix(1,0,0,1,0,0)" clip-path="url(#_952050161260997clip-2)"/><line x1="205.98" y1="497.44" x2="238.26" y2="510.76" style="stroke-width: 3.0;stroke: rgb(0,0,0);stroke-opacity: 1.0;stroke-linecap: square;shape-rendering:geometricPrecision;" transform="matrix(1,0,0,1,0,0)" clip-path="url(#_952050161260997clip-2)"/><line x1="238.26" y1="510.76" x2="270.54" y2="522.28" style="stroke-width: 3.0;stroke: rgb(0,0,0);stroke-opacity: 1.0;stroke-linecap: square;shape-rendering:geometricPrecision;" transform="matrix(1,0,0,1,0,0)" clip-path="url(#_952050161260997clip-2)"/><line x1="270.54" y1="522.28" x2="302.82" y2="531.98" style="stroke-width: 3.0;stroke: rgb(0,0,0);stroke-opacity: 1.0;stroke-linecap: square;shape-rendering:geometricPrecision;" transform="matrix(1,0,0,1,0,0)" clip-path="url(#_952050161260997clip-2)"/><line x1="302.82" y1="531.98" x2="335.1" y2="539.83" style="stroke-width: 3.0;stroke: rgb(0,0,0);stroke-opacity: 1.0;stroke-linecap: square;shape-rendering:geometricPrecision;" transform="matrix(1,0,0,1,0,0)" clip-path="url(#_952050161260997clip-2)"/><line x1="335.1" y1="539.83" x2="367.39" y2="545.83" style="stroke-width: 3.0;stroke: rgb(0,0,0);stroke-opacity: 1.0;stroke-linecap: square;shape-rendering:geometricPrecision;" transform="matrix(1,0,0,1,0,0)" clip-path="url(#_952050161260997clip-2)"/><line x1="367.39" y1="545.83" x2="399.67" y2="549.95" style="stroke-width: 3.0;stroke: rgb(0,0,0);stroke-opacity: 1.0;stroke-linecap: square;shape-rendering:geometricPrecision;" transform="matrix(1,0,0,1,0,0)" clip-path="url(#_952050161260997clip-2)"/><line x1="399.67" y1="549.95" x2="431.95" y2="552.17" style="stroke-width: 3.0;stroke: rgb(0,0,0);stroke-opacity: 1.0;stroke-linecap: square;shape-rendering:geometricPrecision;" transform="matrix(1,0,0,1,0,0)" clip-path="url(#_952050161260997clip-2)"/><line x1="431.95" y1="552.17" x2="464.23" y2="552.49" style="stroke-width: 3.0;stroke: rgb(0,0,0);stroke-opacity: 1.0;stroke-linecap: square;shape-rendering:geometricPrecision;" transform="matrix(1,0,0,1,0,0)" clip-path="url(#_952050161260997clip-2)"/><line x1="464.23" y1="552.49" x2="496.51" y2="550.89" style="stroke-width: 3.0;stroke: rgb(0,0,0);stroke-opacity: 1.0;stroke-linecap: square;shape-rendering:geometricPrecision;" transform="matrix(1,0,0,1,0,0)" clip-path="url(#_952050161260997clip-2)"/><line x1="496.51" y1="550.89" x2="528.8" y2="547.35" style="stroke-width: 3.0;stroke: rgb(0,0,0);stroke-opacity: 1.0;stroke-linecap: square;shape-rendering:geometricPrecision;" transform="matrix(1,0,0,1,0,0)" clip-path="url(#_952050161260997clip-2)"/><line x1="528.8" y1="547.35" x2="561.08" y2="541.86" style="stroke-width: 3.0;stroke: rgb(0,0,0);stroke-opacity: 1.0;stroke-linecap: square;shape-rendering:geometricPrecision;" transform="matrix(1,0,0,1,0,0)" clip-path="url(#_952050161260997clip-2)"/><line x1="561.08" y1="541.86" x2="593.36" y2="534.4" style="stroke-width: 3.0;stroke: rgb(0,0,0);stroke-opacity: 1.0;stroke-linecap: square;shape-rendering:geometricPrecision;" transform="matrix(1,0,0,1,0,0)" clip-path="url(#_952050161260997clip-2)"/><line x1="593.36" y1="534.4" x2="625.64" y2="524.97" style="stroke-width: 3.0;stroke: rgb(0,0,0);stroke-opacity: 1.0;stroke-linecap: square;shape-rendering:geometricPrecision;" transform="matrix(1,0,0,1,0,0)" clip-path="url(#_952050161260997clip-2)"/><line x1="625.64" y1="524.97" x2="657.92" y2="513.55" style="stroke-width: 3.0;stroke: rgb(0,0,0);stroke-opacity: 1.0;stroke-linecap: square;shape-rendering:geometricPrecision;" transform="matrix(1,0,0,1,0,0)" clip-path="url(#_952050161260997clip-2)"/><line x1="657.92" y1="513.55" x2="690.2" y2="500.12" style="stroke-width: 3.0;stroke: rgb(0,0,0);stroke-opacity: 1.0;stroke-linecap: square;shape-rendering:geometricPrecision;" transform="matrix(1,0,0,1,0,0)" clip-path="url(#_952050161260997clip-2)"/><line x1="690.2" y1="500.12" x2="722.49" y2="484.68" style="stroke-width: 3.0;stroke: rgb(0,0,0);stroke-opacity: 1.0;stroke-linecap: square;shape-rendering:geometricPrecision;" transform="matrix(1,0,0,1,0,0)" clip-path="url(#_952050161260997clip-2)"/><line x1="722.49" y1="484.68" x2="754.77" y2="467.2" style="stroke-width: 3.0;stroke: rgb(0,0,0);stroke-opacity: 1.0;stroke-linecap: square;shape-rendering:geometricPrecision;" transform="matrix(1,0,0,1,0,0)" clip-path="url(#_952050161260997clip-2)"/><line x1="754.77" y1="467.2" x2="787.05" y2="447.68" style="stroke-width: 3.0;stroke: rgb(0,0,0);stroke-opacity: 1.0;stroke-linecap: square;shape-rendering:geometricPrecision;" transform="matrix(1,0,0,1,0,0)" clip-path="url(#_952050161260997clip-2)"/><line x1="787.05" y1="447.68" x2="819.33" y2="426.09" style="stroke-width: 3.0;stroke: rgb(0,0,0);stroke-opacity: 1.0;stroke-linecap: square;shape-rendering:geometricPrecision;" transform="matrix(1,0,0,1,0,0)" clip-path="url(#_952050161260997clip-2)"/><line x1="819.33" y1="426.09" x2="851.61" y2="402.44" style="stroke-width: 3.0;stroke: rgb(0,0,0);stroke-opacity: 1.0;stroke-linecap: square;shape-rendering:geometricPrecision;" transform="matrix(1,0,0,1,0,0)" clip-path="url(#_952050161260997clip-2)"/><line x1="851.61" y1="402.44" x2="883.9" y2="376.69" style="stroke-width: 3.0;stroke: rgb(0,0,0);stroke-opacity: 1.0;stroke-linecap: square;shape-rendering:geometricPrecision;" transform="matrix(1,0,0,1,0,0)" clip-path="url(#_952050161260997clip-2)"/><line x1="883.9" y1="376.69" x2="916.18" y2="348.84" style="stroke-width: 3.0;stroke: rgb(0,0,0);stroke-opacity: 1.0;stroke-linecap: square;shape-rendering:geometricPrecision;" transform="matrix(1,0,0,1,0,0)" clip-path="url(#_952050161260997clip-2)"/><line x1="916.18" y1="348.84" x2="948.46" y2="318.87" style="stroke-width: 3.0;stroke: rgb(0,0,0);stroke-opacity: 1.0;stroke-linecap: square;shape-rendering:geometricPrecision;" transform="matrix(1,0,0,1,0,0)" clip-path="url(#_952050161260997clip-2)"/><line x1="948.46" y1="318.87" x2="980.74" y2="286.77" style="stroke-width: 3.0;stroke: rgb(0,0,0);stroke-opacity: 1.0;stroke-linecap: square;shape-rendering:geometricPrecision;" transform="matrix(1,0,0,1,0,0)" clip-path="url(#_952050161260997clip-2)"/><line x1="980.74" y1="286.77" x2="1013.02" y2="252.52" style="stroke-width: 3.0;stroke: rgb(0,0,0);stroke-opacity: 1.0;stroke-linecap: square;shape-rendering:geometricPrecision;" transform="matrix(1,0,0,1,0,0)" clip-path="url(#_952050161260997clip-2)"/><line x1="1013.02" y1="252.52" x2="1045.31" y2="216.1" style="stroke-width: 3.0;stroke: rgb(0,0,0);stroke-opacity: 1.0;stroke-linecap: square;shape-rendering:geometricPrecision;" transform="matrix(1,0,0,1,0,0)" clip-path="url(#_952050161260997clip-2)"/><line x1="1045.31" y1="216.1" x2="1077.59" y2="177.51" style="stroke-width: 3.0;stroke: rgb(0,0,0);stroke-opacity: 1.0;stroke-linecap: square;shape-rendering:geometricPrecision;" transform="matrix(1,0,0,1,0,0)" clip-path="url(#_952050161260997clip-2)"/><rect x="79" y="35" width="1061" height="660" style="stroke-width: 0.5;stroke: rgb(0,0,0);stroke-opacity: 1.0;stroke-linecap: round;stroke-linejoin: round;shape-rendering:crispEdges;; fill: none" transform="matrix(1,0,0,1,0,0)" clip-path="url(#_952050161260997clip-0)"/></svg>
