<!DOCTYPE svg PUBLIC "-//W3C//DTD SVG 1.1//EN" "http://www.w3.org/Graphics/SVG/1.1/DTD/svg11.dtd">
<svg xmlns="http://www.w3.org/2000/svg" xmlns:xlink="http://www.w3.org/1999/xlink" xmlns:jfreesvg="http://www.jfree.org/jfreesvg/svg" width="650" height="650" text-rendering="auto" shape-rendering="auto">
<defs><clipPath id="_162480102958015clip-0"><path d="M 0 0 L 650 0 L 650 650 L 0 650 L 0 0 Z "/></clipPath>
<clipPath id="_162480102958015clip-1"><path d="M 337 298 L 337 948 L -313 948 L -313 298 L 337 298 Z "/></clipPath>
<clipPath id="_162480102958015clip-2"><path d="M 56 35 L 56 600 L 638 600 L 638 35 Z "/></clipPath>
</defs>
<rect x="0" y="0" width="650" height="650" style="fill: rgb(245,245,245); fill-opacity: 1.0" transform="matrix(1,0,0,1,0,0)" clip-path="url(#_162480102958015clip-0)"/><g transform="matrix(1,0,0,1,0,0)"><text x="173" y="21.01" style="fill: rgb(0,0,0); fill-opacity: 1.0; font-family: Tahoma; font-size: 20px; font-weight: bold;" clip-path="url(#_162480102958015clip-0)">Wing Planform representation</text></g><rect x="56" y="35" width="582" height="565" style="fill: rgb(240,248,255); fill-opacity: 0.0" transform="matrix(1,0,0,1,0,0)" clip-path="url(#_162480102958015clip-0)"/><line x1="56" y1="604" x2="638" y2="604" style="stroke-width: 0.5;stroke: rgb(128,128,128);stroke-opacity: 1.0;stroke-linecap: square;shape-rendering:crispEdges;" transform="matrix(1,0,0,1,0,0)" clip-path="url(#_162480102958015clip-0)"/><g transform="matrix(1,0,0,1,0,0)"><text x="78.95" y="620.52" style="fill: rgb(64,64,64); fill-opacity: 1.0; font-family: Tahoma; font-size: 12px;" clip-path="url(#_162480102958015clip-0)">0</text></g><line x1="82.45" y1="606" x2="82.45" y2="604" style="stroke-width: 0.5;stroke: rgb(128,128,128);stroke-opacity: 1.0;stroke-linecap: square;shape-rendering:crispEdges;" transform="matrix(1,0,0,1,0,0)" clip-path="url(#_162480102958015clip-0)"/><g transform="matrix(1,0,0,1,0,0)"><text x="109.24" y="620.52" style="fill: rgb(64,64,64); fill-opacity: 1.0; font-family: Tahoma; font-size: 12px;" clip-path="url(#_162480102958015clip-0)">1</text></g><line x1="112.74" y1="606" x2="112.74" y2="604" style="stroke-width: 0.5;stroke: rgb(128,128,128);stroke-opacity: 1.0;stroke-linecap: square;shape-rendering:crispEdges;" transform="matrix(1,0,0,1,0,0)" clip-path="url(#_162480102958015clip-0)"/><g transform="matrix(1,0,0,1,0,0)"><text x="139.53" y="620.52" style="fill: rgb(64,64,64); fill-opacity: 1.0; font-family: Tahoma; font-size: 12px;" clip-path="url(#_162480102958015clip-0)">2</text></g><line x1="143.03" y1="606" x2="143.03" y2="604" style="stroke-width: 0.5;stroke: rgb(128,128,128);stroke-opacity: 1.0;stroke-linecap: square;shape-rendering:crispEdges;" transform="matrix(1,0,0,1,0,0)" clip-path="url(#_162480102958015clip-0)"/><g transform="matrix(1,0,0,1,0,0)"><text x="169.82" y="620.52" style="fill: rgb(64,64,64); fill-opacity: 1.0; font-family: Tahoma; font-size: 12px;" clip-path="url(#_162480102958015clip-0)">3</text></g><line x1="173.32" y1="606" x2="173.32" y2="604" style="stroke-width: 0.5;stroke: rgb(128,128,128);stroke-opacity: 1.0;stroke-linecap: square;shape-rendering:crispEdges;" transform="matrix(1,0,0,1,0,0)" clip-path="url(#_162480102958015clip-0)"/><g transform="matrix(1,0,0,1,0,0)"><text x="200.1" y="620.52" style="fill: rgb(64,64,64); fill-opacity: 1.0; font-family: Tahoma; font-size: 12px;" clip-path="url(#_162480102958015clip-0)">4</text></g><line x1="203.6" y1="606" x2="203.6" y2="604" style="stroke-width: 0.5;stroke: rgb(128,128,128);stroke-opacity: 1.0;stroke-linecap: square;shape-rendering:crispEdges;" transform="matrix(1,0,0,1,0,0)" clip-path="url(#_162480102958015clip-0)"/><g transform="matrix(1,0,0,1,0,0)"><text x="230.39" y="620.52" style="fill: rgb(64,64,64); fill-opacity: 1.0; font-family: Tahoma; font-size: 12px;" clip-path="url(#_162480102958015clip-0)">5</text></g><line x1="233.89" y1="606" x2="233.89" y2="604" style="stroke-width: 0.5;stroke: rgb(128,128,128);stroke-opacity: 1.0;stroke-linecap: square;shape-rendering:crispEdges;" transform="matrix(1,0,0,1,0,0)" clip-path="url(#_162480102958015clip-0)"/><g transform="matrix(1,0,0,1,0,0)"><text x="260.68" y="620.52" style="fill: rgb(64,64,64); fill-opacity: 1.0; font-family: Tahoma; font-size: 12px;" clip-path="url(#_162480102958015clip-0)">6</text></g><line x1="264.18" y1="606" x2="264.18" y2="604" style="stroke-width: 0.5;stroke: rgb(128,128,128);stroke-opacity: 1.0;stroke-linecap: square;shape-rendering:crispEdges;" transform="matrix(1,0,0,1,0,0)" clip-path="url(#_162480102958015clip-0)"/><g transform="matrix(1,0,0,1,0,0)"><text x="290.96" y="620.52" style="fill: rgb(64,64,64); fill-opacity: 1.0; font-family: Tahoma; font-size: 12px;" clip-path="url(#_162480102958015clip-0)">7</text></g><line x1="294.46" y1="606" x2="294.46" y2="604" style="stroke-width: 0.5;stroke: rgb(128,128,128);stroke-opacity: 1.0;stroke-linecap: square;shape-rendering:crispEdges;" transform="matrix(1,0,0,1,0,0)" clip-path="url(#_162480102958015clip-0)"/><g transform="matrix(1,0,0,1,0,0)"><text x="321.25" y="620.52" style="fill: rgb(64,64,64); fill-opacity: 1.0; font-family: Tahoma; font-size: 12px;" clip-path="url(#_162480102958015clip-0)">8</text></g><line x1="324.75" y1="606" x2="324.75" y2="604" style="stroke-width: 0.5;stroke: rgb(128,128,128);stroke-opacity: 1.0;stroke-linecap: square;shape-rendering:crispEdges;" transform="matrix(1,0,0,1,0,0)" clip-path="url(#_162480102958015clip-0)"/><g transform="matrix(1,0,0,1,0,0)"><text x="351.54" y="620.52" style="fill: rgb(64,64,64); fill-opacity: 1.0; font-family: Tahoma; font-size: 12px;" clip-path="url(#_162480102958015clip-0)">9</text></g><line x1="355.04" y1="606" x2="355.04" y2="604" style="stroke-width: 0.5;stroke: rgb(128,128,128);stroke-opacity: 1.0;stroke-linecap: square;shape-rendering:crispEdges;" transform="matrix(1,0,0,1,0,0)" clip-path="url(#_162480102958015clip-0)"/><g transform="matrix(1,0,0,1,0,0)"><text x="378.83" y="620.52" style="fill: rgb(64,64,64); fill-opacity: 1.0; font-family: Tahoma; font-size: 12px;" clip-path="url(#_162480102958015clip-0)">10</text></g><line x1="385.33" y1="606" x2="385.33" y2="604" style="stroke-width: 0.5;stroke: rgb(128,128,128);stroke-opacity: 1.0;stroke-linecap: square;shape-rendering:crispEdges;" transform="matrix(1,0,0,1,0,0)" clip-path="url(#_162480102958015clip-0)"/><g transform="matrix(1,0,0,1,0,0)"><text x="409.11" y="620.52" style="fill: rgb(64,64,64); fill-opacity: 1.0; font-family: Tahoma; font-size: 12px;" clip-path="url(#_162480102958015clip-0)">11</text></g><line x1="415.61" y1="606" x2="415.61" y2="604" style="stroke-width: 0.5;stroke: rgb(128,128,128);stroke-opacity: 1.0;stroke-linecap: square;shape-rendering:crispEdges;" transform="matrix(1,0,0,1,0,0)" clip-path="url(#_162480102958015clip-0)"/><g transform="matrix(1,0,0,1,0,0)"><text x="439.4" y="620.52" style="fill: rgb(64,64,64); fill-opacity: 1.0; font-family: Tahoma; font-size: 12px;" clip-path="url(#_162480102958015clip-0)">12</text></g><line x1="445.9" y1="606" x2="445.9" y2="604" style="stroke-width: 0.5;stroke: rgb(128,128,128);stroke-opacity: 1.0;stroke-linecap: square;shape-rendering:crispEdges;" transform="matrix(1,0,0,1,0,0)" clip-path="url(#_162480102958015clip-0)"/><g transform="matrix(1,0,0,1,0,0)"><text x="469.69" y="620.52" style="fill: rgb(64,64,64); fill-opacity: 1.0; font-family: Tahoma; font-size: 12px;" clip-path="url(#_162480102958015clip-0)">13</text></g><line x1="476.19" y1="606" x2="476.19" y2="604" style="stroke-width: 0.5;stroke: rgb(128,128,128);stroke-opacity: 1.0;stroke-linecap: square;shape-rendering:crispEdges;" transform="matrix(1,0,0,1,0,0)" clip-path="url(#_162480102958015clip-0)"/><g transform="matrix(1,0,0,1,0,0)"><text x="499.97" y="620.52" style="fill: rgb(64,64,64); fill-opacity: 1.0; font-family: Tahoma; font-size: 12px;" clip-path="url(#_162480102958015clip-0)">14</text></g><line x1="506.47" y1="606" x2="506.47" y2="604" style="stroke-width: 0.5;stroke: rgb(128,128,128);stroke-opacity: 1.0;stroke-linecap: square;shape-rendering:crispEdges;" transform="matrix(1,0,0,1,0,0)" clip-path="url(#_162480102958015clip-0)"/><g transform="matrix(1,0,0,1,0,0)"><text x="530.26" y="620.52" style="fill: rgb(64,64,64); fill-opacity: 1.0; font-family: Tahoma; font-size: 12px;" clip-path="url(#_162480102958015clip-0)">15</text></g><line x1="536.76" y1="606" x2="536.76" y2="604" style="stroke-width: 0.5;stroke: rgb(128,128,128);stroke-opacity: 1.0;stroke-linecap: square;shape-rendering:crispEdges;" transform="matrix(1,0,0,1,0,0)" clip-path="url(#_162480102958015clip-0)"/><g transform="matrix(1,0,0,1,0,0)"><text x="560.55" y="620.52" style="fill: rgb(64,64,64); fill-opacity: 1.0; font-family: Tahoma; font-size: 12px;" clip-path="url(#_162480102958015clip-0)">16</text></g><line x1="567.05" y1="606" x2="567.05" y2="604" style="stroke-width: 0.5;stroke: rgb(128,128,128);stroke-opacity: 1.0;stroke-linecap: square;shape-rendering:crispEdges;" transform="matrix(1,0,0,1,0,0)" clip-path="url(#_162480102958015clip-0)"/><g transform="matrix(1,0,0,1,0,0)"><text x="590.83" y="620.52" style="fill: rgb(64,64,64); fill-opacity: 1.0; font-family: Tahoma; font-size: 12px;" clip-path="url(#_162480102958015clip-0)">17</text></g><line x1="597.33" y1="606" x2="597.33" y2="604" style="stroke-width: 0.5;stroke: rgb(128,128,128);stroke-opacity: 1.0;stroke-linecap: square;shape-rendering:crispEdges;" transform="matrix(1,0,0,1,0,0)" clip-path="url(#_162480102958015clip-0)"/><g transform="matrix(1,0,0,1,0,0)"><text x="621.12" y="620.52" style="fill: rgb(64,64,64); fill-opacity: 1.0; font-family: Tahoma; font-size: 12px;" clip-path="url(#_162480102958015clip-0)">18</text></g><line x1="627.62" y1="606" x2="627.62" y2="604" style="stroke-width: 0.5;stroke: rgb(128,128,128);stroke-opacity: 1.0;stroke-linecap: square;shape-rendering:crispEdges;" transform="matrix(1,0,0,1,0,0)" clip-path="url(#_162480102958015clip-0)"/><g transform="matrix(1,0,0,1,0,0)"><text x="327.5" y="639.59" style="fill: rgb(64,64,64); fill-opacity: 1.0; font-family: Tahoma; font-size: 14px; font-weight: bold;" clip-path="url(#_162480102958015clip-0)">x (m)</text></g><line x1="52" y1="35" x2="52" y2="600" style="stroke-width: 0.5;stroke: rgb(128,128,128);stroke-opacity: 1.0;stroke-linecap: square;shape-rendering:crispEdges;" transform="matrix(1,0,0,1,0,0)" clip-path="url(#_162480102958015clip-0)"/><g transform="matrix(1,0,0,1,0,0)"><text x="35" y="61.09" style="fill: rgb(64,64,64); fill-opacity: 1.0; font-family: Tahoma; font-size: 12px;" clip-path="url(#_162480102958015clip-0)">-3</text></g><line x1="50" y1="56.07" x2="52" y2="56.07" style="stroke-width: 0.5;stroke: rgb(128,128,128);stroke-opacity: 1.0;stroke-linecap: square;shape-rendering:crispEdges;" transform="matrix(1,0,0,1,0,0)" clip-path="url(#_162480102958015clip-0)"/><g transform="matrix(1,0,0,1,0,0)"><text x="35" y="90.49" style="fill: rgb(64,64,64); fill-opacity: 1.0; font-family: Tahoma; font-size: 12px;" clip-path="url(#_162480102958015clip-0)">-2</text></g><line x1="50" y1="85.47" x2="52" y2="85.47" style="stroke-width: 0.5;stroke: rgb(128,128,128);stroke-opacity: 1.0;stroke-linecap: square;shape-rendering:crispEdges;" transform="matrix(1,0,0,1,0,0)" clip-path="url(#_162480102958015clip-0)"/><g transform="matrix(1,0,0,1,0,0)"><text x="35" y="119.9" style="fill: rgb(64,64,64); fill-opacity: 1.0; font-family: Tahoma; font-size: 12px;" clip-path="url(#_162480102958015clip-0)">-1</text></g><line x1="50" y1="114.87" x2="52" y2="114.87" style="stroke-width: 0.5;stroke: rgb(128,128,128);stroke-opacity: 1.0;stroke-linecap: square;shape-rendering:crispEdges;" transform="matrix(1,0,0,1,0,0)" clip-path="url(#_162480102958015clip-0)"/><g transform="matrix(1,0,0,1,0,0)"><text x="39" y="149.3" style="fill: rgb(64,64,64); fill-opacity: 1.0; font-family: Tahoma; font-size: 12px;" clip-path="url(#_162480102958015clip-0)">0</text></g><line x1="50" y1="144.28" x2="52" y2="144.28" style="stroke-width: 0.5;stroke: rgb(128,128,128);stroke-opacity: 1.0;stroke-linecap: square;shape-rendering:crispEdges;" transform="matrix(1,0,0,1,0,0)" clip-path="url(#_162480102958015clip-0)"/><g transform="matrix(1,0,0,1,0,0)"><text x="39" y="178.7" style="fill: rgb(64,64,64); fill-opacity: 1.0; font-family: Tahoma; font-size: 12px;" clip-path="url(#_162480102958015clip-0)">1</text></g><line x1="50" y1="173.68" x2="52" y2="173.68" style="stroke-width: 0.5;stroke: rgb(128,128,128);stroke-opacity: 1.0;stroke-linecap: square;shape-rendering:crispEdges;" transform="matrix(1,0,0,1,0,0)" clip-path="url(#_162480102958015clip-0)"/><g transform="matrix(1,0,0,1,0,0)"><text x="39" y="208.1" style="fill: rgb(64,64,64); fill-opacity: 1.0; font-family: Tahoma; font-size: 12px;" clip-path="url(#_162480102958015clip-0)">2</text></g><line x1="50" y1="203.08" x2="52" y2="203.08" style="stroke-width: 0.5;stroke: rgb(128,128,128);stroke-opacity: 1.0;stroke-linecap: square;shape-rendering:crispEdges;" transform="matrix(1,0,0,1,0,0)" clip-path="url(#_162480102958015clip-0)"/><g transform="matrix(1,0,0,1,0,0)"><text x="39" y="237.51" style="fill: rgb(64,64,64); fill-opacity: 1.0; font-family: Tahoma; font-size: 12px;" clip-path="url(#_162480102958015clip-0)">3</text></g><line x1="50" y1="232.48" x2="52" y2="232.48" style="stroke-width: 0.5;stroke: rgb(128,128,128);stroke-opacity: 1.0;stroke-linecap: square;shape-rendering:crispEdges;" transform="matrix(1,0,0,1,0,0)" clip-path="url(#_162480102958015clip-0)"/><g transform="matrix(1,0,0,1,0,0)"><text x="39" y="266.91" style="fill: rgb(64,64,64); fill-opacity: 1.0; font-family: Tahoma; font-size: 12px;" clip-path="url(#_162480102958015clip-0)">4</text></g><line x1="50" y1="261.89" x2="52" y2="261.89" style="stroke-width: 0.5;stroke: rgb(128,128,128);stroke-opacity: 1.0;stroke-linecap: square;shape-rendering:crispEdges;" transform="matrix(1,0,0,1,0,0)" clip-path="url(#_162480102958015clip-0)"/><g transform="matrix(1,0,0,1,0,0)"><text x="39" y="296.31" style="fill: rgb(64,64,64); fill-opacity: 1.0; font-family: Tahoma; font-size: 12px;" clip-path="url(#_162480102958015clip-0)">5</text></g><line x1="50" y1="291.29" x2="52" y2="291.29" style="stroke-width: 0.5;stroke: rgb(128,128,128);stroke-opacity: 1.0;stroke-linecap: square;shape-rendering:crispEdges;" transform="matrix(1,0,0,1,0,0)" clip-path="url(#_162480102958015clip-0)"/><g transform="matrix(1,0,0,1,0,0)"><text x="39" y="325.71" style="fill: rgb(64,64,64); fill-opacity: 1.0; font-family: Tahoma; font-size: 12px;" clip-path="url(#_162480102958015clip-0)">6</text></g><line x1="50" y1="320.69" x2="52" y2="320.69" style="stroke-width: 0.5;stroke: rgb(128,128,128);stroke-opacity: 1.0;stroke-linecap: square;shape-rendering:crispEdges;" transform="matrix(1,0,0,1,0,0)" clip-path="url(#_162480102958015clip-0)"/><g transform="matrix(1,0,0,1,0,0)"><text x="39" y="355.12" style="fill: rgb(64,64,64); fill-opacity: 1.0; font-family: Tahoma; font-size: 12px;" clip-path="url(#_162480102958015clip-0)">7</text></g><line x1="50" y1="350.09" x2="52" y2="350.09" style="stroke-width: 0.5;stroke: rgb(128,128,128);stroke-opacity: 1.0;stroke-linecap: square;shape-rendering:crispEdges;" transform="matrix(1,0,0,1,0,0)" clip-path="url(#_162480102958015clip-0)"/><g transform="matrix(1,0,0,1,0,0)"><text x="39" y="384.52" style="fill: rgb(64,64,64); fill-opacity: 1.0; font-family: Tahoma; font-size: 12px;" clip-path="url(#_162480102958015clip-0)">8</text></g><line x1="50" y1="379.5" x2="52" y2="379.5" style="stroke-width: 0.5;stroke: rgb(128,128,128);stroke-opacity: 1.0;stroke-linecap: square;shape-rendering:crispEdges;" transform="matrix(1,0,0,1,0,0)" clip-path="url(#_162480102958015clip-0)"/><g transform="matrix(1,0,0,1,0,0)"><text x="39" y="413.92" style="fill: rgb(64,64,64); fill-opacity: 1.0; font-family: Tahoma; font-size: 12px;" clip-path="url(#_162480102958015clip-0)">9</text></g><line x1="50" y1="408.9" x2="52" y2="408.9" style="stroke-width: 0.5;stroke: rgb(128,128,128);stroke-opacity: 1.0;stroke-linecap: square;shape-rendering:crispEdges;" transform="matrix(1,0,0,1,0,0)" clip-path="url(#_162480102958015clip-0)"/><g transform="matrix(1,0,0,1,0,0)"><text x="33" y="443.32" style="fill: rgb(64,64,64); fill-opacity: 1.0; font-family: Tahoma; font-size: 12px;" clip-path="url(#_162480102958015clip-0)">10</text></g><line x1="50" y1="438.3" x2="52" y2="438.3" style="stroke-width: 0.5;stroke: rgb(128,128,128);stroke-opacity: 1.0;stroke-linecap: square;shape-rendering:crispEdges;" transform="matrix(1,0,0,1,0,0)" clip-path="url(#_162480102958015clip-0)"/><g transform="matrix(1,0,0,1,0,0)"><text x="33" y="472.72" style="fill: rgb(64,64,64); fill-opacity: 1.0; font-family: Tahoma; font-size: 12px;" clip-path="url(#_162480102958015clip-0)">11</text></g><line x1="50" y1="467.7" x2="52" y2="467.7" style="stroke-width: 0.5;stroke: rgb(128,128,128);stroke-opacity: 1.0;stroke-linecap: square;shape-rendering:crispEdges;" transform="matrix(1,0,0,1,0,0)" clip-path="url(#_162480102958015clip-0)"/><g transform="matrix(1,0,0,1,0,0)"><text x="33" y="502.13" style="fill: rgb(64,64,64); fill-opacity: 1.0; font-family: Tahoma; font-size: 12px;" clip-path="url(#_162480102958015clip-0)">12</text></g><line x1="50" y1="497.11" x2="52" y2="497.11" style="stroke-width: 0.5;stroke: rgb(128,128,128);stroke-opacity: 1.0;stroke-linecap: square;shape-rendering:crispEdges;" transform="matrix(1,0,0,1,0,0)" clip-path="url(#_162480102958015clip-0)"/><g transform="matrix(1,0,0,1,0,0)"><text x="33" y="531.53" style="fill: rgb(64,64,64); fill-opacity: 1.0; font-family: Tahoma; font-size: 12px;" clip-path="url(#_162480102958015clip-0)">13</text></g><line x1="50" y1="526.51" x2="52" y2="526.51" style="stroke-width: 0.5;stroke: rgb(128,128,128);stroke-opacity: 1.0;stroke-linecap: square;shape-rendering:crispEdges;" transform="matrix(1,0,0,1,0,0)" clip-path="url(#_162480102958015clip-0)"/><g transform="matrix(1,0,0,1,0,0)"><text x="33" y="560.93" style="fill: rgb(64,64,64); fill-opacity: 1.0; font-family: Tahoma; font-size: 12px;" clip-path="url(#_162480102958015clip-0)">14</text></g><line x1="50" y1="555.91" x2="52" y2="555.91" style="stroke-width: 0.5;stroke: rgb(128,128,128);stroke-opacity: 1.0;stroke-linecap: square;shape-rendering:crispEdges;" transform="matrix(1,0,0,1,0,0)" clip-path="url(#_162480102958015clip-0)"/><g transform="matrix(1,0,0,1,0,0)"><text x="33" y="590.33" style="fill: rgb(64,64,64); fill-opacity: 1.0; font-family: Tahoma; font-size: 12px;" clip-path="url(#_162480102958015clip-0)">15</text></g><line x1="50" y1="585.31" x2="52" y2="585.31" style="stroke-width: 0.5;stroke: rgb(128,128,128);stroke-opacity: 1.0;stroke-linecap: square;shape-rendering:crispEdges;" transform="matrix(1,0,0,1,0,0)" clip-path="url(#_162480102958015clip-0)"/><g style="fill: rgb(64,64,64); fill-opacity: 1.0; stroke: none" transform="matrix(0,-1,1,0,-298,337)" clip-path="url(#_162480102958015clip-1)"><path d="M 8.58 315.44 L 4.7 325.92 L 2.14 325.92 L 3.3 322.92 L 0.48 315.44 L 3 315.44 L 4.61 320.25 L 6.12 315.44 L 8.58 315.44 Z  M 18.47 325.92 L 15.96 325.92 Q 15.38 325.23 14.91 324.5 Q 14.44 323.76 14.1 322.94 Q 13.77 322.14 13.59 321.19 Q 13.41 320.23 13.41 319.2 Q 13.41 318.08 13.6 317.16 Q 13.79 316.23 14.08 315.48 Q 14.41 314.66 14.89 313.92 Q 15.36 313.19 15.96 312.47 L 18.47 312.47 L 18.47 312.67 Q 17.91 313.17 17.41 313.8 Q 16.91 314.44 16.49 315.28 Q 16.07 316.09 15.82 317.08 Q 15.57 318.08 15.57 319.2 Q 15.57 320.37 15.81 321.32 Q 16.05 322.26 16.49 323.11 Q 16.9 323.92 17.41 324.58 Q 17.93 325.25 18.47 325.73 L 18.47 325.92 Z  M 29.11 323.11 L 29.11 319.28 Q 29.11 318.7 29.09 318.31 Q 29.07 317.92 28.97 317.69 Q 28.86 317.44 28.64 317.32 Q 28.42 317.2 28.05 317.2 Q 27.77 317.2 27.5 317.33 Q 27.24 317.45 26.92 317.67 L 26.92 323.11 L 24.52 323.11 L 24.52 319.28 Q 24.52 318.72 24.5 318.32 Q 24.47 317.92 24.36 317.69 Q 24.27 317.44 24.05 317.32 Q 23.83 317.2 23.46 317.2 Q 23.16 317.2 22.88 317.34 Q 22.6 317.48 22.33 317.67 L 22.33 323.11 L 19.94 323.11 L 19.94 315.44 L 22.33 315.44 L 22.33 316.28 Q 22.91 315.78 23.43 315.5 Q 23.96 315.22 24.6 315.22 Q 25.32 315.22 25.85 315.55 Q 26.38 315.89 26.66 316.55 Q 27.35 315.91 27.96 315.56 Q 28.57 315.22 29.19 315.22 Q 29.74 315.22 30.16 315.39 Q 30.58 315.56 30.88 315.91 Q 31.19 316.26 31.35 316.78 Q 31.52 317.3 31.52 318.11 L 31.52 323.11 L 29.11 323.11 Z  M 37.96 319.2 Q 37.96 320.23 37.78 321.19 Q 37.6 322.14 37.29 322.94 Q 36.95 323.76 36.47 324.5 Q 35.99 325.23 35.42 325.92 L 32.92 325.92 L 32.92 325.73 Q 33.46 325.25 33.98 324.59 Q 34.49 323.94 34.9 323.11 Q 35.32 322.26 35.57 321.32 Q 35.82 320.37 35.82 319.2 Q 35.82 318.08 35.56 317.08 Q 35.31 316.09 34.9 315.28 Q 34.46 314.44 33.96 313.8 Q 33.46 313.17 32.92 312.67 L 32.92 312.47 L 35.42 312.47 Q 36.01 313.19 36.49 313.92 Q 36.96 314.66 37.29 315.48 Q 37.59 316.23 37.78 317.16 Q 37.96 318.08 37.96 319.2 Z "/></g><line x1="56" y1="56.07" x2="638" y2="56.07" style="stroke-width: 0.5;stroke: rgb(128,128,128);stroke-opacity: 0.5;stroke-linejoin: bevel;stroke-dasharray: 2.0, 2.0;shape-rendering:crispEdges;" transform="matrix(1,0,0,1,0,0)" clip-path="url(#_162480102958015clip-2)"/><line x1="56" y1="85.47" x2="638" y2="85.47" style="stroke-width: 0.5;stroke: rgb(128,128,128);stroke-opacity: 0.5;stroke-linejoin: bevel;stroke-dasharray: 2.0, 2.0;shape-rendering:crispEdges;" transform="matrix(1,0,0,1,0,0)" clip-path="url(#_162480102958015clip-2)"/><line x1="56" y1="114.87" x2="638" y2="114.87" style="stroke-width: 0.5;stroke: rgb(128,128,128);stroke-opacity: 0.5;stroke-linejoin: bevel;stroke-dasharray: 2.0, 2.0;shape-rendering:crispEdges;" transform="matrix(1,0,0,1,0,0)" clip-path="url(#_162480102958015clip-2)"/><line x1="56" y1="144.28" x2="638" y2="144.28" style="stroke-width: 0.5;stroke: rgb(128,128,128);stroke-opacity: 0.5;stroke-linejoin: bevel;stroke-dasharray: 2.0, 2.0;shape-rendering:crispEdges;" transform="matrix(1,0,0,1,0,0)" clip-path="url(#_162480102958015clip-2)"/><line x1="56" y1="173.68" x2="638" y2="173.68" style="stroke-width: 0.5;stroke: rgb(128,128,128);stroke-opacity: 0.5;stroke-linejoin: bevel;stroke-dasharray: 2.0, 2.0;shape-rendering:crispEdges;" transform="matrix(1,0,0,1,0,0)" clip-path="url(#_162480102958015clip-2)"/><line x1="56" y1="203.08" x2="638" y2="203.08" style="stroke-width: 0.5;stroke: rgb(128,128,128);stroke-opacity: 0.5;stroke-linejoin: bevel;stroke-dasharray: 2.0, 2.0;shape-rendering:crispEdges;" transform="matrix(1,0,0,1,0,0)" clip-path="url(#_162480102958015clip-2)"/><line x1="56" y1="232.48" x2="638" y2="232.48" style="stroke-width: 0.5;stroke: rgb(128,128,128);stroke-opacity: 0.5;stroke-linejoin: bevel;stroke-dasharray: 2.0, 2.0;shape-rendering:crispEdges;" transform="matrix(1,0,0,1,0,0)" clip-path="url(#_162480102958015clip-2)"/><line x1="56" y1="261.89" x2="638" y2="261.89" style="stroke-width: 0.5;stroke: rgb(128,128,128);stroke-opacity: 0.5;stroke-linejoin: bevel;stroke-dasharray: 2.0, 2.0;shape-rendering:crispEdges;" transform="matrix(1,0,0,1,0,0)" clip-path="url(#_162480102958015clip-2)"/><line x1="56" y1="291.29" x2="638" y2="291.29" style="stroke-width: 0.5;stroke: rgb(128,128,128);stroke-opacity: 0.5;stroke-linejoin: bevel;stroke-dasharray: 2.0, 2.0;shape-rendering:crispEdges;" transform="matrix(1,0,0,1,0,0)" clip-path="url(#_162480102958015clip-2)"/><line x1="56" y1="320.69" x2="638" y2="320.69" style="stroke-width: 0.5;stroke: rgb(128,128,128);stroke-opacity: 0.5;stroke-linejoin: bevel;stroke-dasharray: 2.0, 2.0;shape-rendering:crispEdges;" transform="matrix(1,0,0,1,0,0)" clip-path="url(#_162480102958015clip-2)"/><line x1="56" y1="350.09" x2="638" y2="350.09" style="stroke-width: 0.5;stroke: rgb(128,128,128);stroke-opacity: 0.5;stroke-linejoin: bevel;stroke-dasharray: 2.0, 2.0;shape-rendering:crispEdges;" transform="matrix(1,0,0,1,0,0)" clip-path="url(#_162480102958015clip-2)"/><line x1="56" y1="379.5" x2="638" y2="379.5" style="stroke-width: 0.5;stroke: rgb(128,128,128);stroke-opacity: 0.5;stroke-linejoin: bevel;stroke-dasharray: 2.0, 2.0;shape-rendering:crispEdges;" transform="matrix(1,0,0,1,0,0)" clip-path="url(#_162480102958015clip-2)"/><line x1="56" y1="408.9" x2="638" y2="408.9" style="stroke-width: 0.5;stroke: rgb(128,128,128);stroke-opacity: 0.5;stroke-linejoin: bevel;stroke-dasharray: 2.0, 2.0;shape-rendering:crispEdges;" transform="matrix(1,0,0,1,0,0)" clip-path="url(#_162480102958015clip-2)"/><line x1="56" y1="438.3" x2="638" y2="438.3" style="stroke-width: 0.5;stroke: rgb(128,128,128);stroke-opacity: 0.5;stroke-linejoin: bevel;stroke-dasharray: 2.0, 2.0;shape-rendering:crispEdges;" transform="matrix(1,0,0,1,0,0)" clip-path="url(#_162480102958015clip-2)"/><line x1="56" y1="467.7" x2="638" y2="467.7" style="stroke-width: 0.5;stroke: rgb(128,128,128);stroke-opacity: 0.5;stroke-linejoin: bevel;stroke-dasharray: 2.0, 2.0;shape-rendering:crispEdges;" transform="matrix(1,0,0,1,0,0)" clip-path="url(#_162480102958015clip-2)"/><line x1="56" y1="497.11" x2="638" y2="497.11" style="stroke-width: 0.5;stroke: rgb(128,128,128);stroke-opacity: 0.5;stroke-linejoin: bevel;stroke-dasharray: 2.0, 2.0;shape-rendering:crispEdges;" transform="matrix(1,0,0,1,0,0)" clip-path="url(#_162480102958015clip-2)"/><line x1="56" y1="526.51" x2="638" y2="526.51" style="stroke-width: 0.5;stroke: rgb(128,128,128);stroke-opacity: 0.5;stroke-linejoin: bevel;stroke-dasharray: 2.0, 2.0;shape-rendering:crispEdges;" transform="matrix(1,0,0,1,0,0)" clip-path="url(#_162480102958015clip-2)"/><line x1="56" y1="555.91" x2="638" y2="555.91" style="stroke-width: 0.5;stroke: rgb(128,128,128);stroke-opacity: 0.5;stroke-linejoin: bevel;stroke-dasharray: 2.0, 2.0;shape-rendering:crispEdges;" transform="matrix(1,0,0,1,0,0)" clip-path="url(#_162480102958015clip-2)"/><line x1="56" y1="585.31" x2="638" y2="585.31" style="stroke-width: 0.5;stroke: rgb(128,128,128);stroke-opacity: 0.5;stroke-linejoin: bevel;stroke-dasharray: 2.0, 2.0;shape-rendering:crispEdges;" transform="matrix(1,0,0,1,0,0)" clip-path="url(#_162480102958015clip-2)"/><line x1="82.45" y1="35" x2="82.45" y2="600" style="stroke-width: 0.5;stroke: rgb(128,128,128);stroke-opacity: 0.5;stroke-linejoin: bevel;stroke-dasharray: 2.0, 2.0;shape-rendering:crispEdges;" transform="matrix(1,0,0,1,0,0)" clip-path="url(#_162480102958015clip-2)"/><line x1="112.74" y1="35" x2="112.74" y2="600" style="stroke-width: 0.5;stroke: rgb(128,128,128);stroke-opacity: 0.5;stroke-linejoin: bevel;stroke-dasharray: 2.0, 2.0;shape-rendering:crispEdges;" transform="matrix(1,0,0,1,0,0)" clip-path="url(#_162480102958015clip-2)"/><line x1="143.03" y1="35" x2="143.03" y2="600" style="stroke-width: 0.5;stroke: rgb(128,128,128);stroke-opacity: 0.5;stroke-linejoin: bevel;stroke-dasharray: 2.0, 2.0;shape-rendering:crispEdges;" transform="matrix(1,0,0,1,0,0)" clip-path="url(#_162480102958015clip-2)"/><line x1="173.32" y1="35" x2="173.32" y2="600" style="stroke-width: 0.5;stroke: rgb(128,128,128);stroke-opacity: 0.5;stroke-linejoin: bevel;stroke-dasharray: 2.0, 2.0;shape-rendering:crispEdges;" transform="matrix(1,0,0,1,0,0)" clip-path="url(#_162480102958015clip-2)"/><line x1="203.6" y1="35" x2="203.6" y2="600" style="stroke-width: 0.5;stroke: rgb(128,128,128);stroke-opacity: 0.5;stroke-linejoin: bevel;stroke-dasharray: 2.0, 2.0;shape-rendering:crispEdges;" transform="matrix(1,0,0,1,0,0)" clip-path="url(#_162480102958015clip-2)"/><line x1="233.89" y1="35" x2="233.89" y2="600" style="stroke-width: 0.5;stroke: rgb(128,128,128);stroke-opacity: 0.5;stroke-linejoin: bevel;stroke-dasharray: 2.0, 2.0;shape-rendering:crispEdges;" transform="matrix(1,0,0,1,0,0)" clip-path="url(#_162480102958015clip-2)"/><line x1="264.18" y1="35" x2="264.18" y2="600" style="stroke-width: 0.5;stroke: rgb(128,128,128);stroke-opacity: 0.5;stroke-linejoin: bevel;stroke-dasharray: 2.0, 2.0;shape-rendering:crispEdges;" transform="matrix(1,0,0,1,0,0)" clip-path="url(#_162480102958015clip-2)"/><line x1="294.46" y1="35" x2="294.46" y2="600" style="stroke-width: 0.5;stroke: rgb(128,128,128);stroke-opacity: 0.5;stroke-linejoin: bevel;stroke-dasharray: 2.0, 2.0;shape-rendering:crispEdges;" transform="matrix(1,0,0,1,0,0)" clip-path="url(#_162480102958015clip-2)"/><line x1="324.75" y1="35" x2="324.75" y2="600" style="stroke-width: 0.5;stroke: rgb(128,128,128);stroke-opacity: 0.5;stroke-linejoin: bevel;stroke-dasharray: 2.0, 2.0;shape-rendering:crispEdges;" transform="matrix(1,0,0,1,0,0)" clip-path="url(#_162480102958015clip-2)"/><line x1="355.04" y1="35" x2="355.04" y2="600" style="stroke-width: 0.5;stroke: rgb(128,128,128);stroke-opacity: 0.5;stroke-linejoin: bevel;stroke-dasharray: 2.0, 2.0;shape-rendering:crispEdges;" transform="matrix(1,0,0,1,0,0)" clip-path="url(#_162480102958015clip-2)"/><line x1="385.33" y1="35" x2="385.33" y2="600" style="stroke-width: 0.5;stroke: rgb(128,128,128);stroke-opacity: 0.5;stroke-linejoin: bevel;stroke-dasharray: 2.0, 2.0;shape-rendering:crispEdges;" transform="matrix(1,0,0,1,0,0)" clip-path="url(#_162480102958015clip-2)"/><line x1="415.61" y1="35" x2="415.61" y2="600" style="stroke-width: 0.5;stroke: rgb(128,128,128);stroke-opacity: 0.5;stroke-linejoin: bevel;stroke-dasharray: 2.0, 2.0;shape-rendering:crispEdges;" transform="matrix(1,0,0,1,0,0)" clip-path="url(#_162480102958015clip-2)"/><line x1="445.9" y1="35" x2="445.9" y2="600" style="stroke-width: 0.5;stroke: rgb(128,128,128);stroke-opacity: 0.5;stroke-linejoin: bevel;stroke-dasharray: 2.0, 2.0;shape-rendering:crispEdges;" transform="matrix(1,0,0,1,0,0)" clip-path="url(#_162480102958015clip-2)"/><line x1="476.19" y1="35" x2="476.19" y2="600" style="stroke-width: 0.5;stroke: rgb(128,128,128);stroke-opacity: 0.5;stroke-linejoin: bevel;stroke-dasharray: 2.0, 2.0;shape-rendering:crispEdges;" transform="matrix(1,0,0,1,0,0)" clip-path="url(#_162480102958015clip-2)"/><line x1="506.47" y1="35" x2="506.47" y2="600" style="stroke-width: 0.5;stroke: rgb(128,128,128);stroke-opacity: 0.5;stroke-linejoin: bevel;stroke-dasharray: 2.0, 2.0;shape-rendering:crispEdges;" transform="matrix(1,0,0,1,0,0)" clip-path="url(#_162480102958015clip-2)"/><line x1="536.76" y1="35" x2="536.76" y2="600" style="stroke-width: 0.5;stroke: rgb(128,128,128);stroke-opacity: 0.5;stroke-linejoin: bevel;stroke-dasharray: 2.0, 2.0;shape-rendering:crispEdges;" transform="matrix(1,0,0,1,0,0)" clip-path="url(#_162480102958015clip-2)"/><line x1="567.05" y1="35" x2="567.05" y2="600" style="stroke-width: 0.5;stroke: rgb(128,128,128);stroke-opacity: 0.5;stroke-linejoin: bevel;stroke-dasharray: 2.0, 2.0;shape-rendering:crispEdges;" transform="matrix(1,0,0,1,0,0)" clip-path="url(#_162480102958015clip-2)"/><line x1="597.33" y1="35" x2="597.33" y2="600" style="stroke-width: 0.5;stroke: rgb(128,128,128);stroke-opacity: 0.5;stroke-linejoin: bevel;stroke-dasharray: 2.0, 2.0;shape-rendering:crispEdges;" transform="matrix(1,0,0,1,0,0)" clip-path="url(#_162480102958015clip-2)"/><line x1="627.62" y1="35" x2="627.62" y2="600" style="stroke-width: 0.5;stroke: rgb(128,128,128);stroke-opacity: 0.5;stroke-linejoin: bevel;stroke-dasharray: 2.0, 2.0;shape-rendering:crispEdges;" transform="matrix(1,0,0,1,0,0)" clip-path="url(#_162480102958015clip-2)"/><g style="fill: rgb(135,206,250); fill-opacity: 0.5; stroke: none" transform="matrix(1,0,0,1,0,0)" clip-path="url(#_162480102958015clip-2)"><path d="M 82.45 144.28 L 82.45 144.28 L 611.55 440.83 L 611.55 479.05 L 82.45 295.45 L 82.45 144.28 L 82.45 144.28 Z "/></g><g style="stroke-width: 2.5;stroke: rgb(255,85,85);stroke-opacity: 0.5;stroke-linecap: round;stroke-linejoin: round;stroke-dasharray: 5.0;shape-rendering:geometricPrecision;; fill: none" transform="matrix(1,0,0,1,0,0)" clip-path="url(#_162480102958015clip-2)"><path d="M 278.71 254.28 L 278.71 368.89"/></g><g style="stroke-width: 2.5;stroke: rgb(85,85,255);stroke-opacity: 0.5;stroke-linecap: round;stroke-linejoin: round;stroke-dasharray: 5.0;shape-rendering:geometricPrecision;; fill: none" transform="matrix(1,0,0,1,0,0)" clip-path="url(#_162480102958015clip-2)"><path d="M 82.45 144.28 L 100.7 154.5 L 118.94 164.73 L 137.19 174.95 L 155.43 185.18 L 173.68 195.41 L 191.92 205.63 L 210.17 215.86 L 228.41 226.08 L 246.66 236.31 L 264.85 246.51 L 264.9 246.53 L 301.39 266.99 L 319.63 277.21 L 337.88 287.44 L 356.12 297.66 L 374.37 307.89 L 392.61 318.12 L 410.86 328.34 L 429.1 338.57 L 447.34 348.79 L 465.59 359.02 L 483.83 369.24 L 502.08 379.47 L 520.32 389.7 L 538.57 399.92 L 556.81 410.15 L 575.06 420.37 L 593.3 430.6 L 611.55 440.83 L 611.55 479.31 L 593.3 472.11 L 575.06 464.9 L 556.81 457.69 L 538.57 450.48 L 520.32 443.28 L 502.08 436.07 L 483.83 428.86 L 465.59 421.66 L 447.34 414.45 L 429.1 407.24 L 410.86 400.04 L 392.61 392.83 L 374.37 385.62 L 356.12 378.41 L 337.88 371.21 L 319.63 364 L 301.39 356.79 L 264.9 342.83 L 264.85 342.83 L 246.66 342.79 L 228.41 342.75 L 210.17 342.71 L 191.92 342.68 L 173.68 342.64 L 155.43 342.6 L 137.19 342.56 L 118.94 342.52 L 100.7 342.49 L 82.45 342.45 L 82.45 144.28"/></g><g style="stroke-width: 1.0;stroke: rgb(0,0,0);stroke-opacity: 0.5;stroke-linecap: round;stroke-linejoin: round;shape-rendering:geometricPrecision;; fill: none" transform="matrix(1,0,0,1,0,0)" clip-path="url(#_162480102958015clip-2)"><path d="M 82.45 144.28 L 611.55 440.83 L 611.55 479.05 L 82.45 295.45 L 82.45 144.28"/></g><rect x="56" y="35" width="582" height="565" style="stroke-width: 0.5;stroke: rgb(0,0,0);stroke-opacity: 1.0;stroke-linecap: round;stroke-linejoin: round;shape-rendering:crispEdges;; fill: none" transform="matrix(1,0,0,1,0,0)" clip-path="url(#_162480102958015clip-0)"/></svg>
