<!DOCTYPE svg PUBLIC "-//W3C//DTD SVG 1.1//EN" "http://www.w3.org/Graphics/SVG/1.1/DTD/svg11.dtd">
<svg xmlns="http://www.w3.org/2000/svg" xmlns:xlink="http://www.w3.org/1999/xlink" xmlns:jfreesvg="http://www.jfree.org/jfreesvg/svg" width="650" height="650" text-rendering="auto" shape-rendering="auto">
<defs><clipPath id="_1205699474379701clip-0"><path d="M 0 0 L 650 0 L 650 650 L 0 650 L 0 0 Z "/></clipPath>
<clipPath id="_1205699474379701clip-1"><path d="M 337 298 L 337 948 L -313 948 L -313 298 L 337 298 Z "/></clipPath>
<clipPath id="_1205699474379701clip-2"><path d="M 64 35 L 64 600 L 638 600 L 638 35 Z "/></clipPath>
</defs>
<rect x="0" y="0" width="650" height="650" style="fill: rgb(245,245,245); fill-opacity: 1.0" transform="matrix(1,0,0,1,0,0)" clip-path="url(#_1205699474379701clip-0)"/><g transform="matrix(1,0,0,1,0,0)"><text x="129.5" y="21.01" style="fill: rgb(0,0,0); fill-opacity: 1.0; font-family: Tahoma; font-size: 20px; font-weight: bold;" clip-path="url(#_1205699474379701clip-0)">Nacelle data representation - Top View</text></g><rect x="64" y="35" width="574" height="565" style="fill: rgb(240,248,255); fill-opacity: 0.0" transform="matrix(1,0,0,1,0,0)" clip-path="url(#_1205699474379701clip-0)"/><line x1="64" y1="604" x2="638" y2="604" style="stroke-width: 0.5;stroke: rgb(128,128,128);stroke-opacity: 1.0;stroke-linecap: square;shape-rendering:crispEdges;" transform="matrix(1,0,0,1,0,0)" clip-path="url(#_1205699474379701clip-0)"/><g transform="matrix(1,0,0,1,0,0)"><text x="59.14" y="620.52" style="fill: rgb(64,64,64); fill-opacity: 1.0; font-family: Tahoma; font-size: 12px;" clip-path="url(#_1205699474379701clip-0)">-2,5</text></g><line x1="69.64" y1="606" x2="69.64" y2="604" style="stroke-width: 0.5;stroke: rgb(128,128,128);stroke-opacity: 1.0;stroke-linecap: square;shape-rendering:crispEdges;" transform="matrix(1,0,0,1,0,0)" clip-path="url(#_1205699474379701clip-0)"/><g transform="matrix(1,0,0,1,0,0)"><text x="115.41" y="620.52" style="fill: rgb(64,64,64); fill-opacity: 1.0; font-family: Tahoma; font-size: 12px;" clip-path="url(#_1205699474379701clip-0)">-2,0</text></g><line x1="125.91" y1="606" x2="125.91" y2="604" style="stroke-width: 0.5;stroke: rgb(128,128,128);stroke-opacity: 1.0;stroke-linecap: square;shape-rendering:crispEdges;" transform="matrix(1,0,0,1,0,0)" clip-path="url(#_1205699474379701clip-0)"/><g transform="matrix(1,0,0,1,0,0)"><text x="171.68" y="620.52" style="fill: rgb(64,64,64); fill-opacity: 1.0; font-family: Tahoma; font-size: 12px;" clip-path="url(#_1205699474379701clip-0)">-1,5</text></g><line x1="182.18" y1="606" x2="182.18" y2="604" style="stroke-width: 0.5;stroke: rgb(128,128,128);stroke-opacity: 1.0;stroke-linecap: square;shape-rendering:crispEdges;" transform="matrix(1,0,0,1,0,0)" clip-path="url(#_1205699474379701clip-0)"/><g transform="matrix(1,0,0,1,0,0)"><text x="227.96" y="620.52" style="fill: rgb(64,64,64); fill-opacity: 1.0; font-family: Tahoma; font-size: 12px;" clip-path="url(#_1205699474379701clip-0)">-1,0</text></g><line x1="238.46" y1="606" x2="238.46" y2="604" style="stroke-width: 0.5;stroke: rgb(128,128,128);stroke-opacity: 1.0;stroke-linecap: square;shape-rendering:crispEdges;" transform="matrix(1,0,0,1,0,0)" clip-path="url(#_1205699474379701clip-0)"/><g transform="matrix(1,0,0,1,0,0)"><text x="284.23" y="620.52" style="fill: rgb(64,64,64); fill-opacity: 1.0; font-family: Tahoma; font-size: 12px;" clip-path="url(#_1205699474379701clip-0)">-0,5</text></g><line x1="294.73" y1="606" x2="294.73" y2="604" style="stroke-width: 0.5;stroke: rgb(128,128,128);stroke-opacity: 1.0;stroke-linecap: square;shape-rendering:crispEdges;" transform="matrix(1,0,0,1,0,0)" clip-path="url(#_1205699474379701clip-0)"/><g transform="matrix(1,0,0,1,0,0)"><text x="342.5" y="620.52" style="fill: rgb(64,64,64); fill-opacity: 1.0; font-family: Tahoma; font-size: 12px;" clip-path="url(#_1205699474379701clip-0)">0,0</text></g><line x1="351" y1="606" x2="351" y2="604" style="stroke-width: 0.5;stroke: rgb(128,128,128);stroke-opacity: 1.0;stroke-linecap: square;shape-rendering:crispEdges;" transform="matrix(1,0,0,1,0,0)" clip-path="url(#_1205699474379701clip-0)"/><g transform="matrix(1,0,0,1,0,0)"><text x="398.77" y="620.52" style="fill: rgb(64,64,64); fill-opacity: 1.0; font-family: Tahoma; font-size: 12px;" clip-path="url(#_1205699474379701clip-0)">0,5</text></g><line x1="407.27" y1="606" x2="407.27" y2="604" style="stroke-width: 0.5;stroke: rgb(128,128,128);stroke-opacity: 1.0;stroke-linecap: square;shape-rendering:crispEdges;" transform="matrix(1,0,0,1,0,0)" clip-path="url(#_1205699474379701clip-0)"/><g transform="matrix(1,0,0,1,0,0)"><text x="455.04" y="620.52" style="fill: rgb(64,64,64); fill-opacity: 1.0; font-family: Tahoma; font-size: 12px;" clip-path="url(#_1205699474379701clip-0)">1,0</text></g><line x1="463.54" y1="606" x2="463.54" y2="604" style="stroke-width: 0.5;stroke: rgb(128,128,128);stroke-opacity: 1.0;stroke-linecap: square;shape-rendering:crispEdges;" transform="matrix(1,0,0,1,0,0)" clip-path="url(#_1205699474379701clip-0)"/><g transform="matrix(1,0,0,1,0,0)"><text x="511.32" y="620.52" style="fill: rgb(64,64,64); fill-opacity: 1.0; font-family: Tahoma; font-size: 12px;" clip-path="url(#_1205699474379701clip-0)">1,5</text></g><line x1="519.82" y1="606" x2="519.82" y2="604" style="stroke-width: 0.5;stroke: rgb(128,128,128);stroke-opacity: 1.0;stroke-linecap: square;shape-rendering:crispEdges;" transform="matrix(1,0,0,1,0,0)" clip-path="url(#_1205699474379701clip-0)"/><g transform="matrix(1,0,0,1,0,0)"><text x="567.59" y="620.52" style="fill: rgb(64,64,64); fill-opacity: 1.0; font-family: Tahoma; font-size: 12px;" clip-path="url(#_1205699474379701clip-0)">2,0</text></g><line x1="576.09" y1="606" x2="576.09" y2="604" style="stroke-width: 0.5;stroke: rgb(128,128,128);stroke-opacity: 1.0;stroke-linecap: square;shape-rendering:crispEdges;" transform="matrix(1,0,0,1,0,0)" clip-path="url(#_1205699474379701clip-0)"/><g transform="matrix(1,0,0,1,0,0)"><text x="623.86" y="620.52" style="fill: rgb(64,64,64); fill-opacity: 1.0; font-family: Tahoma; font-size: 12px;" clip-path="url(#_1205699474379701clip-0)">2,5</text></g><line x1="632.36" y1="606" x2="632.36" y2="604" style="stroke-width: 0.5;stroke: rgb(128,128,128);stroke-opacity: 1.0;stroke-linecap: square;shape-rendering:crispEdges;" transform="matrix(1,0,0,1,0,0)" clip-path="url(#_1205699474379701clip-0)"/><g transform="matrix(1,0,0,1,0,0)"><text x="331.5" y="639.59" style="fill: rgb(64,64,64); fill-opacity: 1.0; font-family: Tahoma; font-size: 14px; font-weight: bold;" clip-path="url(#_1205699474379701clip-0)">x (m)</text></g><line x1="60" y1="35" x2="60" y2="600" style="stroke-width: 0.5;stroke: rgb(128,128,128);stroke-opacity: 1.0;stroke-linecap: square;shape-rendering:crispEdges;" transform="matrix(1,0,0,1,0,0)" clip-path="url(#_1205699474379701clip-0)"/><g transform="matrix(1,0,0,1,0,0)"><text x="33" y="54.27" style="fill: rgb(64,64,64); fill-opacity: 1.0; font-family: Tahoma; font-size: 12px;" clip-path="url(#_1205699474379701clip-0)">-0,6</text></g><line x1="58" y1="49.25" x2="60" y2="49.25" style="stroke-width: 0.5;stroke: rgb(128,128,128);stroke-opacity: 1.0;stroke-linecap: square;shape-rendering:crispEdges;" transform="matrix(1,0,0,1,0,0)" clip-path="url(#_1205699474379701clip-0)"/><g transform="matrix(1,0,0,1,0,0)"><text x="33" y="76.42" style="fill: rgb(64,64,64); fill-opacity: 1.0; font-family: Tahoma; font-size: 12px;" clip-path="url(#_1205699474379701clip-0)">-0,4</text></g><line x1="58" y1="71.4" x2="60" y2="71.4" style="stroke-width: 0.5;stroke: rgb(128,128,128);stroke-opacity: 1.0;stroke-linecap: square;shape-rendering:crispEdges;" transform="matrix(1,0,0,1,0,0)" clip-path="url(#_1205699474379701clip-0)"/><g transform="matrix(1,0,0,1,0,0)"><text x="33" y="98.58" style="fill: rgb(64,64,64); fill-opacity: 1.0; font-family: Tahoma; font-size: 12px;" clip-path="url(#_1205699474379701clip-0)">-0,2</text></g><line x1="58" y1="93.56" x2="60" y2="93.56" style="stroke-width: 0.5;stroke: rgb(128,128,128);stroke-opacity: 1.0;stroke-linecap: square;shape-rendering:crispEdges;" transform="matrix(1,0,0,1,0,0)" clip-path="url(#_1205699474379701clip-0)"/><g transform="matrix(1,0,0,1,0,0)"><text x="37" y="120.74" style="fill: rgb(64,64,64); fill-opacity: 1.0; font-family: Tahoma; font-size: 12px;" clip-path="url(#_1205699474379701clip-0)">0,0</text></g><line x1="58" y1="115.71" x2="60" y2="115.71" style="stroke-width: 0.5;stroke: rgb(128,128,128);stroke-opacity: 1.0;stroke-linecap: square;shape-rendering:crispEdges;" transform="matrix(1,0,0,1,0,0)" clip-path="url(#_1205699474379701clip-0)"/><g transform="matrix(1,0,0,1,0,0)"><text x="37" y="142.89" style="fill: rgb(64,64,64); fill-opacity: 1.0; font-family: Tahoma; font-size: 12px;" clip-path="url(#_1205699474379701clip-0)">0,2</text></g><line x1="58" y1="137.87" x2="60" y2="137.87" style="stroke-width: 0.5;stroke: rgb(128,128,128);stroke-opacity: 1.0;stroke-linecap: square;shape-rendering:crispEdges;" transform="matrix(1,0,0,1,0,0)" clip-path="url(#_1205699474379701clip-0)"/><g transform="matrix(1,0,0,1,0,0)"><text x="37" y="165.05" style="fill: rgb(64,64,64); fill-opacity: 1.0; font-family: Tahoma; font-size: 12px;" clip-path="url(#_1205699474379701clip-0)">0,4</text></g><line x1="58" y1="160.03" x2="60" y2="160.03" style="stroke-width: 0.5;stroke: rgb(128,128,128);stroke-opacity: 1.0;stroke-linecap: square;shape-rendering:crispEdges;" transform="matrix(1,0,0,1,0,0)" clip-path="url(#_1205699474379701clip-0)"/><g transform="matrix(1,0,0,1,0,0)"><text x="37" y="187.2" style="fill: rgb(64,64,64); fill-opacity: 1.0; font-family: Tahoma; font-size: 12px;" clip-path="url(#_1205699474379701clip-0)">0,6</text></g><line x1="58" y1="182.18" x2="60" y2="182.18" style="stroke-width: 0.5;stroke: rgb(128,128,128);stroke-opacity: 1.0;stroke-linecap: square;shape-rendering:crispEdges;" transform="matrix(1,0,0,1,0,0)" clip-path="url(#_1205699474379701clip-0)"/><g transform="matrix(1,0,0,1,0,0)"><text x="37" y="209.36" style="fill: rgb(64,64,64); fill-opacity: 1.0; font-family: Tahoma; font-size: 12px;" clip-path="url(#_1205699474379701clip-0)">0,8</text></g><line x1="58" y1="204.34" x2="60" y2="204.34" style="stroke-width: 0.5;stroke: rgb(128,128,128);stroke-opacity: 1.0;stroke-linecap: square;shape-rendering:crispEdges;" transform="matrix(1,0,0,1,0,0)" clip-path="url(#_1205699474379701clip-0)"/><g transform="matrix(1,0,0,1,0,0)"><text x="37" y="231.52" style="fill: rgb(64,64,64); fill-opacity: 1.0; font-family: Tahoma; font-size: 12px;" clip-path="url(#_1205699474379701clip-0)">1,0</text></g><line x1="58" y1="226.49" x2="60" y2="226.49" style="stroke-width: 0.5;stroke: rgb(128,128,128);stroke-opacity: 1.0;stroke-linecap: square;shape-rendering:crispEdges;" transform="matrix(1,0,0,1,0,0)" clip-path="url(#_1205699474379701clip-0)"/><g transform="matrix(1,0,0,1,0,0)"><text x="37" y="253.67" style="fill: rgb(64,64,64); fill-opacity: 1.0; font-family: Tahoma; font-size: 12px;" clip-path="url(#_1205699474379701clip-0)">1,2</text></g><line x1="58" y1="248.65" x2="60" y2="248.65" style="stroke-width: 0.5;stroke: rgb(128,128,128);stroke-opacity: 1.0;stroke-linecap: square;shape-rendering:crispEdges;" transform="matrix(1,0,0,1,0,0)" clip-path="url(#_1205699474379701clip-0)"/><g transform="matrix(1,0,0,1,0,0)"><text x="37" y="275.83" style="fill: rgb(64,64,64); fill-opacity: 1.0; font-family: Tahoma; font-size: 12px;" clip-path="url(#_1205699474379701clip-0)">1,4</text></g><line x1="58" y1="270.81" x2="60" y2="270.81" style="stroke-width: 0.5;stroke: rgb(128,128,128);stroke-opacity: 1.0;stroke-linecap: square;shape-rendering:crispEdges;" transform="matrix(1,0,0,1,0,0)" clip-path="url(#_1205699474379701clip-0)"/><g transform="matrix(1,0,0,1,0,0)"><text x="37" y="297.98" style="fill: rgb(64,64,64); fill-opacity: 1.0; font-family: Tahoma; font-size: 12px;" clip-path="url(#_1205699474379701clip-0)">1,6</text></g><line x1="58" y1="292.96" x2="60" y2="292.96" style="stroke-width: 0.5;stroke: rgb(128,128,128);stroke-opacity: 1.0;stroke-linecap: square;shape-rendering:crispEdges;" transform="matrix(1,0,0,1,0,0)" clip-path="url(#_1205699474379701clip-0)"/><g transform="matrix(1,0,0,1,0,0)"><text x="37" y="320.14" style="fill: rgb(64,64,64); fill-opacity: 1.0; font-family: Tahoma; font-size: 12px;" clip-path="url(#_1205699474379701clip-0)">1,8</text></g><line x1="58" y1="315.12" x2="60" y2="315.12" style="stroke-width: 0.5;stroke: rgb(128,128,128);stroke-opacity: 1.0;stroke-linecap: square;shape-rendering:crispEdges;" transform="matrix(1,0,0,1,0,0)" clip-path="url(#_1205699474379701clip-0)"/><g transform="matrix(1,0,0,1,0,0)"><text x="37" y="342.3" style="fill: rgb(64,64,64); fill-opacity: 1.0; font-family: Tahoma; font-size: 12px;" clip-path="url(#_1205699474379701clip-0)">2,0</text></g><line x1="58" y1="337.27" x2="60" y2="337.27" style="stroke-width: 0.5;stroke: rgb(128,128,128);stroke-opacity: 1.0;stroke-linecap: square;shape-rendering:crispEdges;" transform="matrix(1,0,0,1,0,0)" clip-path="url(#_1205699474379701clip-0)"/><g transform="matrix(1,0,0,1,0,0)"><text x="37" y="364.45" style="fill: rgb(64,64,64); fill-opacity: 1.0; font-family: Tahoma; font-size: 12px;" clip-path="url(#_1205699474379701clip-0)">2,2</text></g><line x1="58" y1="359.43" x2="60" y2="359.43" style="stroke-width: 0.5;stroke: rgb(128,128,128);stroke-opacity: 1.0;stroke-linecap: square;shape-rendering:crispEdges;" transform="matrix(1,0,0,1,0,0)" clip-path="url(#_1205699474379701clip-0)"/><g transform="matrix(1,0,0,1,0,0)"><text x="37" y="386.61" style="fill: rgb(64,64,64); fill-opacity: 1.0; font-family: Tahoma; font-size: 12px;" clip-path="url(#_1205699474379701clip-0)">2,4</text></g><line x1="58" y1="381.59" x2="60" y2="381.59" style="stroke-width: 0.5;stroke: rgb(128,128,128);stroke-opacity: 1.0;stroke-linecap: square;shape-rendering:crispEdges;" transform="matrix(1,0,0,1,0,0)" clip-path="url(#_1205699474379701clip-0)"/><g transform="matrix(1,0,0,1,0,0)"><text x="37" y="408.76" style="fill: rgb(64,64,64); fill-opacity: 1.0; font-family: Tahoma; font-size: 12px;" clip-path="url(#_1205699474379701clip-0)">2,6</text></g><line x1="58" y1="403.74" x2="60" y2="403.74" style="stroke-width: 0.5;stroke: rgb(128,128,128);stroke-opacity: 1.0;stroke-linecap: square;shape-rendering:crispEdges;" transform="matrix(1,0,0,1,0,0)" clip-path="url(#_1205699474379701clip-0)"/><g transform="matrix(1,0,0,1,0,0)"><text x="37" y="430.92" style="fill: rgb(64,64,64); fill-opacity: 1.0; font-family: Tahoma; font-size: 12px;" clip-path="url(#_1205699474379701clip-0)">2,8</text></g><line x1="58" y1="425.9" x2="60" y2="425.9" style="stroke-width: 0.5;stroke: rgb(128,128,128);stroke-opacity: 1.0;stroke-linecap: square;shape-rendering:crispEdges;" transform="matrix(1,0,0,1,0,0)" clip-path="url(#_1205699474379701clip-0)"/><g transform="matrix(1,0,0,1,0,0)"><text x="37" y="453.08" style="fill: rgb(64,64,64); fill-opacity: 1.0; font-family: Tahoma; font-size: 12px;" clip-path="url(#_1205699474379701clip-0)">3,0</text></g><line x1="58" y1="448.05" x2="60" y2="448.05" style="stroke-width: 0.5;stroke: rgb(128,128,128);stroke-opacity: 1.0;stroke-linecap: square;shape-rendering:crispEdges;" transform="matrix(1,0,0,1,0,0)" clip-path="url(#_1205699474379701clip-0)"/><g transform="matrix(1,0,0,1,0,0)"><text x="37" y="475.23" style="fill: rgb(64,64,64); fill-opacity: 1.0; font-family: Tahoma; font-size: 12px;" clip-path="url(#_1205699474379701clip-0)">3,2</text></g><line x1="58" y1="470.21" x2="60" y2="470.21" style="stroke-width: 0.5;stroke: rgb(128,128,128);stroke-opacity: 1.0;stroke-linecap: square;shape-rendering:crispEdges;" transform="matrix(1,0,0,1,0,0)" clip-path="url(#_1205699474379701clip-0)"/><g transform="matrix(1,0,0,1,0,0)"><text x="37" y="497.39" style="fill: rgb(64,64,64); fill-opacity: 1.0; font-family: Tahoma; font-size: 12px;" clip-path="url(#_1205699474379701clip-0)">3,4</text></g><line x1="58" y1="492.37" x2="60" y2="492.37" style="stroke-width: 0.5;stroke: rgb(128,128,128);stroke-opacity: 1.0;stroke-linecap: square;shape-rendering:crispEdges;" transform="matrix(1,0,0,1,0,0)" clip-path="url(#_1205699474379701clip-0)"/><g transform="matrix(1,0,0,1,0,0)"><text x="37" y="519.54" style="fill: rgb(64,64,64); fill-opacity: 1.0; font-family: Tahoma; font-size: 12px;" clip-path="url(#_1205699474379701clip-0)">3,6</text></g><line x1="58" y1="514.52" x2="60" y2="514.52" style="stroke-width: 0.5;stroke: rgb(128,128,128);stroke-opacity: 1.0;stroke-linecap: square;shape-rendering:crispEdges;" transform="matrix(1,0,0,1,0,0)" clip-path="url(#_1205699474379701clip-0)"/><g transform="matrix(1,0,0,1,0,0)"><text x="37" y="541.7" style="fill: rgb(64,64,64); fill-opacity: 1.0; font-family: Tahoma; font-size: 12px;" clip-path="url(#_1205699474379701clip-0)">3,8</text></g><line x1="58" y1="536.68" x2="60" y2="536.68" style="stroke-width: 0.5;stroke: rgb(128,128,128);stroke-opacity: 1.0;stroke-linecap: square;shape-rendering:crispEdges;" transform="matrix(1,0,0,1,0,0)" clip-path="url(#_1205699474379701clip-0)"/><g transform="matrix(1,0,0,1,0,0)"><text x="37" y="563.86" style="fill: rgb(64,64,64); fill-opacity: 1.0; font-family: Tahoma; font-size: 12px;" clip-path="url(#_1205699474379701clip-0)">4,0</text></g><line x1="58" y1="558.83" x2="60" y2="558.83" style="stroke-width: 0.5;stroke: rgb(128,128,128);stroke-opacity: 1.0;stroke-linecap: square;shape-rendering:crispEdges;" transform="matrix(1,0,0,1,0,0)" clip-path="url(#_1205699474379701clip-0)"/><g transform="matrix(1,0,0,1,0,0)"><text x="37" y="586.01" style="fill: rgb(64,64,64); fill-opacity: 1.0; font-family: Tahoma; font-size: 12px;" clip-path="url(#_1205699474379701clip-0)">4,2</text></g><line x1="58" y1="580.99" x2="60" y2="580.99" style="stroke-width: 0.5;stroke: rgb(128,128,128);stroke-opacity: 1.0;stroke-linecap: square;shape-rendering:crispEdges;" transform="matrix(1,0,0,1,0,0)" clip-path="url(#_1205699474379701clip-0)"/><g style="fill: rgb(64,64,64); fill-opacity: 1.0; stroke: none" transform="matrix(0,-1,1,0,-298,337)" clip-path="url(#_1205699474379701clip-1)"><path d="M 8.58 315.44 L 4.7 325.92 L 2.14 325.92 L 3.3 322.92 L 0.48 315.44 L 3 315.44 L 4.61 320.25 L 6.12 315.44 L 8.58 315.44 Z  M 18.47 325.92 L 15.96 325.92 Q 15.38 325.23 14.91 324.5 Q 14.44 323.76 14.1 322.94 Q 13.77 322.14 13.59 321.19 Q 13.41 320.23 13.41 319.2 Q 13.41 318.08 13.6 317.16 Q 13.79 316.23 14.08 315.48 Q 14.41 314.66 14.89 313.92 Q 15.36 313.19 15.96 312.47 L 18.47 312.47 L 18.47 312.67 Q 17.91 313.17 17.41 313.8 Q 16.91 314.44 16.49 315.28 Q 16.07 316.09 15.82 317.08 Q 15.57 318.08 15.57 319.2 Q 15.57 320.37 15.81 321.32 Q 16.05 322.26 16.49 323.11 Q 16.9 323.92 17.41 324.58 Q 17.93 325.25 18.47 325.73 L 18.47 325.92 Z  M 29.11 323.11 L 29.11 319.28 Q 29.11 318.7 29.09 318.31 Q 29.07 317.92 28.97 317.69 Q 28.86 317.44 28.64 317.32 Q 28.42 317.2 28.05 317.2 Q 27.77 317.2 27.5 317.33 Q 27.24 317.45 26.92 317.67 L 26.92 323.11 L 24.52 323.11 L 24.52 319.28 Q 24.52 318.72 24.5 318.32 Q 24.47 317.92 24.36 317.69 Q 24.27 317.44 24.05 317.32 Q 23.83 317.2 23.46 317.2 Q 23.16 317.2 22.88 317.34 Q 22.6 317.48 22.33 317.67 L 22.33 323.11 L 19.94 323.11 L 19.94 315.44 L 22.33 315.44 L 22.33 316.28 Q 22.91 315.78 23.43 315.5 Q 23.96 315.22 24.6 315.22 Q 25.32 315.22 25.85 315.55 Q 26.38 315.89 26.66 316.55 Q 27.35 315.91 27.96 315.56 Q 28.57 315.22 29.19 315.22 Q 29.74 315.22 30.16 315.39 Q 30.58 315.56 30.88 315.91 Q 31.19 316.26 31.35 316.78 Q 31.52 317.3 31.52 318.11 L 31.52 323.11 L 29.11 323.11 Z  M 37.96 319.2 Q 37.96 320.23 37.78 321.19 Q 37.6 322.14 37.29 322.94 Q 36.95 323.76 36.47 324.5 Q 35.99 325.23 35.42 325.92 L 32.92 325.92 L 32.92 325.73 Q 33.46 325.25 33.98 324.59 Q 34.49 323.94 34.9 323.11 Q 35.32 322.26 35.57 321.32 Q 35.82 320.37 35.82 319.2 Q 35.82 318.08 35.56 317.08 Q 35.31 316.09 34.9 315.28 Q 34.46 314.44 33.96 313.8 Q 33.46 313.17 32.92 312.67 L 32.92 312.47 L 35.42 312.47 Q 36.01 313.19 36.49 313.92 Q 36.96 314.66 37.29 315.48 Q 37.59 316.23 37.78 317.16 Q 37.96 318.08 37.96 319.2 Z "/></g><line x1="64" y1="49.25" x2="638" y2="49.25" style="stroke-width: 0.5;stroke: rgb(128,128,128);stroke-opacity: 0.5;stroke-linejoin: bevel;stroke-dasharray: 2.0, 2.0;shape-rendering:crispEdges;" transform="matrix(1,0,0,1,0,0)" clip-path="url(#_1205699474379701clip-2)"/><line x1="64" y1="71.4" x2="638" y2="71.4" style="stroke-width: 0.5;stroke: rgb(128,128,128);stroke-opacity: 0.5;stroke-linejoin: bevel;stroke-dasharray: 2.0, 2.0;shape-rendering:crispEdges;" transform="matrix(1,0,0,1,0,0)" clip-path="url(#_1205699474379701clip-2)"/><line x1="64" y1="93.56" x2="638" y2="93.56" style="stroke-width: 0.5;stroke: rgb(128,128,128);stroke-opacity: 0.5;stroke-linejoin: bevel;stroke-dasharray: 2.0, 2.0;shape-rendering:crispEdges;" transform="matrix(1,0,0,1,0,0)" clip-path="url(#_1205699474379701clip-2)"/><line x1="64" y1="115.71" x2="638" y2="115.71" style="stroke-width: 0.5;stroke: rgb(128,128,128);stroke-opacity: 0.5;stroke-linejoin: bevel;stroke-dasharray: 2.0, 2.0;shape-rendering:crispEdges;" transform="matrix(1,0,0,1,0,0)" clip-path="url(#_1205699474379701clip-2)"/><line x1="64" y1="137.87" x2="638" y2="137.87" style="stroke-width: 0.5;stroke: rgb(128,128,128);stroke-opacity: 0.5;stroke-linejoin: bevel;stroke-dasharray: 2.0, 2.0;shape-rendering:crispEdges;" transform="matrix(1,0,0,1,0,0)" clip-path="url(#_1205699474379701clip-2)"/><line x1="64" y1="160.03" x2="638" y2="160.03" style="stroke-width: 0.5;stroke: rgb(128,128,128);stroke-opacity: 0.5;stroke-linejoin: bevel;stroke-dasharray: 2.0, 2.0;shape-rendering:crispEdges;" transform="matrix(1,0,0,1,0,0)" clip-path="url(#_1205699474379701clip-2)"/><line x1="64" y1="182.18" x2="638" y2="182.18" style="stroke-width: 0.5;stroke: rgb(128,128,128);stroke-opacity: 0.5;stroke-linejoin: bevel;stroke-dasharray: 2.0, 2.0;shape-rendering:crispEdges;" transform="matrix(1,0,0,1,0,0)" clip-path="url(#_1205699474379701clip-2)"/><line x1="64" y1="204.34" x2="638" y2="204.34" style="stroke-width: 0.5;stroke: rgb(128,128,128);stroke-opacity: 0.5;stroke-linejoin: bevel;stroke-dasharray: 2.0, 2.0;shape-rendering:crispEdges;" transform="matrix(1,0,0,1,0,0)" clip-path="url(#_1205699474379701clip-2)"/><line x1="64" y1="226.49" x2="638" y2="226.49" style="stroke-width: 0.5;stroke: rgb(128,128,128);stroke-opacity: 0.5;stroke-linejoin: bevel;stroke-dasharray: 2.0, 2.0;shape-rendering:crispEdges;" transform="matrix(1,0,0,1,0,0)" clip-path="url(#_1205699474379701clip-2)"/><line x1="64" y1="248.65" x2="638" y2="248.65" style="stroke-width: 0.5;stroke: rgb(128,128,128);stroke-opacity: 0.5;stroke-linejoin: bevel;stroke-dasharray: 2.0, 2.0;shape-rendering:crispEdges;" transform="matrix(1,0,0,1,0,0)" clip-path="url(#_1205699474379701clip-2)"/><line x1="64" y1="270.81" x2="638" y2="270.81" style="stroke-width: 0.5;stroke: rgb(128,128,128);stroke-opacity: 0.5;stroke-linejoin: bevel;stroke-dasharray: 2.0, 2.0;shape-rendering:crispEdges;" transform="matrix(1,0,0,1,0,0)" clip-path="url(#_1205699474379701clip-2)"/><line x1="64" y1="292.96" x2="638" y2="292.96" style="stroke-width: 0.5;stroke: rgb(128,128,128);stroke-opacity: 0.5;stroke-linejoin: bevel;stroke-dasharray: 2.0, 2.0;shape-rendering:crispEdges;" transform="matrix(1,0,0,1,0,0)" clip-path="url(#_1205699474379701clip-2)"/><line x1="64" y1="315.12" x2="638" y2="315.12" style="stroke-width: 0.5;stroke: rgb(128,128,128);stroke-opacity: 0.5;stroke-linejoin: bevel;stroke-dasharray: 2.0, 2.0;shape-rendering:crispEdges;" transform="matrix(1,0,0,1,0,0)" clip-path="url(#_1205699474379701clip-2)"/><line x1="64" y1="337.27" x2="638" y2="337.27" style="stroke-width: 0.5;stroke: rgb(128,128,128);stroke-opacity: 0.5;stroke-linejoin: bevel;stroke-dasharray: 2.0, 2.0;shape-rendering:crispEdges;" transform="matrix(1,0,0,1,0,0)" clip-path="url(#_1205699474379701clip-2)"/><line x1="64" y1="359.43" x2="638" y2="359.43" style="stroke-width: 0.5;stroke: rgb(128,128,128);stroke-opacity: 0.5;stroke-linejoin: bevel;stroke-dasharray: 2.0, 2.0;shape-rendering:crispEdges;" transform="matrix(1,0,0,1,0,0)" clip-path="url(#_1205699474379701clip-2)"/><line x1="64" y1="381.59" x2="638" y2="381.59" style="stroke-width: 0.5;stroke: rgb(128,128,128);stroke-opacity: 0.5;stroke-linejoin: bevel;stroke-dasharray: 2.0, 2.0;shape-rendering:crispEdges;" transform="matrix(1,0,0,1,0,0)" clip-path="url(#_1205699474379701clip-2)"/><line x1="64" y1="403.74" x2="638" y2="403.74" style="stroke-width: 0.5;stroke: rgb(128,128,128);stroke-opacity: 0.5;stroke-linejoin: bevel;stroke-dasharray: 2.0, 2.0;shape-rendering:crispEdges;" transform="matrix(1,0,0,1,0,0)" clip-path="url(#_1205699474379701clip-2)"/><line x1="64" y1="425.9" x2="638" y2="425.9" style="stroke-width: 0.5;stroke: rgb(128,128,128);stroke-opacity: 0.5;stroke-linejoin: bevel;stroke-dasharray: 2.0, 2.0;shape-rendering:crispEdges;" transform="matrix(1,0,0,1,0,0)" clip-path="url(#_1205699474379701clip-2)"/><line x1="64" y1="448.05" x2="638" y2="448.05" style="stroke-width: 0.5;stroke: rgb(128,128,128);stroke-opacity: 0.5;stroke-linejoin: bevel;stroke-dasharray: 2.0, 2.0;shape-rendering:crispEdges;" transform="matrix(1,0,0,1,0,0)" clip-path="url(#_1205699474379701clip-2)"/><line x1="64" y1="470.21" x2="638" y2="470.21" style="stroke-width: 0.5;stroke: rgb(128,128,128);stroke-opacity: 0.5;stroke-linejoin: bevel;stroke-dasharray: 2.0, 2.0;shape-rendering:crispEdges;" transform="matrix(1,0,0,1,0,0)" clip-path="url(#_1205699474379701clip-2)"/><line x1="64" y1="492.37" x2="638" y2="492.37" style="stroke-width: 0.5;stroke: rgb(128,128,128);stroke-opacity: 0.5;stroke-linejoin: bevel;stroke-dasharray: 2.0, 2.0;shape-rendering:crispEdges;" transform="matrix(1,0,0,1,0,0)" clip-path="url(#_1205699474379701clip-2)"/><line x1="64" y1="514.52" x2="638" y2="514.52" style="stroke-width: 0.5;stroke: rgb(128,128,128);stroke-opacity: 0.5;stroke-linejoin: bevel;stroke-dasharray: 2.0, 2.0;shape-rendering:crispEdges;" transform="matrix(1,0,0,1,0,0)" clip-path="url(#_1205699474379701clip-2)"/><line x1="64" y1="536.68" x2="638" y2="536.68" style="stroke-width: 0.5;stroke: rgb(128,128,128);stroke-opacity: 0.5;stroke-linejoin: bevel;stroke-dasharray: 2.0, 2.0;shape-rendering:crispEdges;" transform="matrix(1,0,0,1,0,0)" clip-path="url(#_1205699474379701clip-2)"/><line x1="64" y1="558.83" x2="638" y2="558.83" style="stroke-width: 0.5;stroke: rgb(128,128,128);stroke-opacity: 0.5;stroke-linejoin: bevel;stroke-dasharray: 2.0, 2.0;shape-rendering:crispEdges;" transform="matrix(1,0,0,1,0,0)" clip-path="url(#_1205699474379701clip-2)"/><line x1="64" y1="580.99" x2="638" y2="580.99" style="stroke-width: 0.5;stroke: rgb(128,128,128);stroke-opacity: 0.5;stroke-linejoin: bevel;stroke-dasharray: 2.0, 2.0;shape-rendering:crispEdges;" transform="matrix(1,0,0,1,0,0)" clip-path="url(#_1205699474379701clip-2)"/><line x1="69.64" y1="35" x2="69.64" y2="600" style="stroke-width: 0.5;stroke: rgb(128,128,128);stroke-opacity: 0.5;stroke-linejoin: bevel;stroke-dasharray: 2.0, 2.0;shape-rendering:crispEdges;" transform="matrix(1,0,0,1,0,0)" clip-path="url(#_1205699474379701clip-2)"/><line x1="125.91" y1="35" x2="125.91" y2="600" style="stroke-width: 0.5;stroke: rgb(128,128,128);stroke-opacity: 0.5;stroke-linejoin: bevel;stroke-dasharray: 2.0, 2.0;shape-rendering:crispEdges;" transform="matrix(1,0,0,1,0,0)" clip-path="url(#_1205699474379701clip-2)"/><line x1="182.18" y1="35" x2="182.18" y2="600" style="stroke-width: 0.5;stroke: rgb(128,128,128);stroke-opacity: 0.5;stroke-linejoin: bevel;stroke-dasharray: 2.0, 2.0;shape-rendering:crispEdges;" transform="matrix(1,0,0,1,0,0)" clip-path="url(#_1205699474379701clip-2)"/><line x1="238.46" y1="35" x2="238.46" y2="600" style="stroke-width: 0.5;stroke: rgb(128,128,128);stroke-opacity: 0.5;stroke-linejoin: bevel;stroke-dasharray: 2.0, 2.0;shape-rendering:crispEdges;" transform="matrix(1,0,0,1,0,0)" clip-path="url(#_1205699474379701clip-2)"/><line x1="294.73" y1="35" x2="294.73" y2="600" style="stroke-width: 0.5;stroke: rgb(128,128,128);stroke-opacity: 0.5;stroke-linejoin: bevel;stroke-dasharray: 2.0, 2.0;shape-rendering:crispEdges;" transform="matrix(1,0,0,1,0,0)" clip-path="url(#_1205699474379701clip-2)"/><line x1="351" y1="35" x2="351" y2="600" style="stroke-width: 0.5;stroke: rgb(128,128,128);stroke-opacity: 0.5;stroke-linejoin: bevel;stroke-dasharray: 2.0, 2.0;shape-rendering:crispEdges;" transform="matrix(1,0,0,1,0,0)" clip-path="url(#_1205699474379701clip-2)"/><line x1="407.27" y1="35" x2="407.27" y2="600" style="stroke-width: 0.5;stroke: rgb(128,128,128);stroke-opacity: 0.5;stroke-linejoin: bevel;stroke-dasharray: 2.0, 2.0;shape-rendering:crispEdges;" transform="matrix(1,0,0,1,0,0)" clip-path="url(#_1205699474379701clip-2)"/><line x1="463.54" y1="35" x2="463.54" y2="600" style="stroke-width: 0.5;stroke: rgb(128,128,128);stroke-opacity: 0.5;stroke-linejoin: bevel;stroke-dasharray: 2.0, 2.0;shape-rendering:crispEdges;" transform="matrix(1,0,0,1,0,0)" clip-path="url(#_1205699474379701clip-2)"/><line x1="519.82" y1="35" x2="519.82" y2="600" style="stroke-width: 0.5;stroke: rgb(128,128,128);stroke-opacity: 0.5;stroke-linejoin: bevel;stroke-dasharray: 2.0, 2.0;shape-rendering:crispEdges;" transform="matrix(1,0,0,1,0,0)" clip-path="url(#_1205699474379701clip-2)"/><line x1="576.09" y1="35" x2="576.09" y2="600" style="stroke-width: 0.5;stroke: rgb(128,128,128);stroke-opacity: 0.5;stroke-linejoin: bevel;stroke-dasharray: 2.0, 2.0;shape-rendering:crispEdges;" transform="matrix(1,0,0,1,0,0)" clip-path="url(#_1205699474379701clip-2)"/><line x1="632.36" y1="35" x2="632.36" y2="600" style="stroke-width: 0.5;stroke: rgb(128,128,128);stroke-opacity: 0.5;stroke-linejoin: bevel;stroke-dasharray: 2.0, 2.0;shape-rendering:crispEdges;" transform="matrix(1,0,0,1,0,0)" clip-path="url(#_1205699474379701clip-2)"/><line x1="463.76" y1="115.71" x2="469.67" y2="136.95" style="stroke-width: 1.5;stroke: rgb(0,0,0);stroke-opacity: 0.5;stroke-linecap: round;stroke-linejoin: round;shape-rendering:geometricPrecision;" transform="matrix(1,0,0,1,0,0)" clip-path="url(#_1205699474379701clip-2)"/><line x1="469.67" y1="136.95" x2="475.32" y2="158.2" style="stroke-width: 1.5;stroke: rgb(0,0,0);stroke-opacity: 0.5;stroke-linecap: round;stroke-linejoin: round;shape-rendering:geometricPrecision;" transform="matrix(1,0,0,1,0,0)" clip-path="url(#_1205699474379701clip-2)"/><line x1="475.32" y1="158.2" x2="480.46" y2="179.44" style="stroke-width: 1.5;stroke: rgb(0,0,0);stroke-opacity: 0.5;stroke-linecap: round;stroke-linejoin: round;shape-rendering:geometricPrecision;" transform="matrix(1,0,0,1,0,0)" clip-path="url(#_1205699474379701clip-2)"/><line x1="480.46" y1="179.44" x2="484.81" y2="200.68" style="stroke-width: 1.5;stroke: rgb(0,0,0);stroke-opacity: 0.5;stroke-linecap: round;stroke-linejoin: round;shape-rendering:geometricPrecision;" transform="matrix(1,0,0,1,0,0)" clip-path="url(#_1205699474379701clip-2)"/><line x1="484.81" y1="200.68" x2="488.13" y2="221.92" style="stroke-width: 1.5;stroke: rgb(0,0,0);stroke-opacity: 0.5;stroke-linecap: round;stroke-linejoin: round;shape-rendering:geometricPrecision;" transform="matrix(1,0,0,1,0,0)" clip-path="url(#_1205699474379701clip-2)"/><line x1="488.13" y1="221.92" x2="490.28" y2="243.16" style="stroke-width: 1.5;stroke: rgb(0,0,0);stroke-opacity: 0.5;stroke-linecap: round;stroke-linejoin: round;shape-rendering:geometricPrecision;" transform="matrix(1,0,0,1,0,0)" clip-path="url(#_1205699474379701clip-2)"/><line x1="490.28" y1="243.16" x2="491.34" y2="264.4" style="stroke-width: 1.5;stroke: rgb(0,0,0);stroke-opacity: 0.5;stroke-linecap: round;stroke-linejoin: round;shape-rendering:geometricPrecision;" transform="matrix(1,0,0,1,0,0)" clip-path="url(#_1205699474379701clip-2)"/><line x1="491.34" y1="264.4" x2="491.37" y2="285.64" style="stroke-width: 1.5;stroke: rgb(0,0,0);stroke-opacity: 0.5;stroke-linecap: round;stroke-linejoin: round;shape-rendering:geometricPrecision;" transform="matrix(1,0,0,1,0,0)" clip-path="url(#_1205699474379701clip-2)"/><line x1="491.37" y1="285.64" x2="490.47" y2="306.88" style="stroke-width: 1.5;stroke: rgb(0,0,0);stroke-opacity: 0.5;stroke-linecap: round;stroke-linejoin: round;shape-rendering:geometricPrecision;" transform="matrix(1,0,0,1,0,0)" clip-path="url(#_1205699474379701clip-2)"/><line x1="490.47" y1="306.88" x2="488.73" y2="328.12" style="stroke-width: 1.5;stroke: rgb(0,0,0);stroke-opacity: 0.5;stroke-linecap: round;stroke-linejoin: round;shape-rendering:geometricPrecision;" transform="matrix(1,0,0,1,0,0)" clip-path="url(#_1205699474379701clip-2)"/><line x1="488.73" y1="328.12" x2="486.23" y2="349.36" style="stroke-width: 1.5;stroke: rgb(0,0,0);stroke-opacity: 0.5;stroke-linecap: round;stroke-linejoin: round;shape-rendering:geometricPrecision;" transform="matrix(1,0,0,1,0,0)" clip-path="url(#_1205699474379701clip-2)"/><line x1="486.23" y1="349.36" x2="483.04" y2="370.6" style="stroke-width: 1.5;stroke: rgb(0,0,0);stroke-opacity: 0.5;stroke-linecap: round;stroke-linejoin: round;shape-rendering:geometricPrecision;" transform="matrix(1,0,0,1,0,0)" clip-path="url(#_1205699474379701clip-2)"/><line x1="483.04" y1="370.6" x2="479.27" y2="391.84" style="stroke-width: 1.5;stroke: rgb(0,0,0);stroke-opacity: 0.5;stroke-linecap: round;stroke-linejoin: round;shape-rendering:geometricPrecision;" transform="matrix(1,0,0,1,0,0)" clip-path="url(#_1205699474379701clip-2)"/><line x1="479.27" y1="391.84" x2="474.99" y2="413.08" style="stroke-width: 1.5;stroke: rgb(0,0,0);stroke-opacity: 0.5;stroke-linecap: round;stroke-linejoin: round;shape-rendering:geometricPrecision;" transform="matrix(1,0,0,1,0,0)" clip-path="url(#_1205699474379701clip-2)"/><line x1="474.99" y1="413.08" x2="470.28" y2="434.32" style="stroke-width: 1.5;stroke: rgb(0,0,0);stroke-opacity: 0.5;stroke-linecap: round;stroke-linejoin: round;shape-rendering:geometricPrecision;" transform="matrix(1,0,0,1,0,0)" clip-path="url(#_1205699474379701clip-2)"/><line x1="470.28" y1="434.32" x2="465.23" y2="455.56" style="stroke-width: 1.5;stroke: rgb(0,0,0);stroke-opacity: 0.5;stroke-linecap: round;stroke-linejoin: round;shape-rendering:geometricPrecision;" transform="matrix(1,0,0,1,0,0)" clip-path="url(#_1205699474379701clip-2)"/><line x1="465.23" y1="455.56" x2="459.93" y2="476.8" style="stroke-width: 1.5;stroke: rgb(0,0,0);stroke-opacity: 0.5;stroke-linecap: round;stroke-linejoin: round;shape-rendering:geometricPrecision;" transform="matrix(1,0,0,1,0,0)" clip-path="url(#_1205699474379701clip-2)"/><line x1="459.93" y1="476.8" x2="454.47" y2="498.05" style="stroke-width: 1.5;stroke: rgb(0,0,0);stroke-opacity: 0.5;stroke-linecap: round;stroke-linejoin: round;shape-rendering:geometricPrecision;" transform="matrix(1,0,0,1,0,0)" clip-path="url(#_1205699474379701clip-2)"/><line x1="454.47" y1="498.05" x2="448.91" y2="519.29" style="stroke-width: 1.5;stroke: rgb(0,0,0);stroke-opacity: 0.5;stroke-linecap: round;stroke-linejoin: round;shape-rendering:geometricPrecision;" transform="matrix(1,0,0,1,0,0)" clip-path="url(#_1205699474379701clip-2)"/><line x1="448.91" y1="519.29" x2="253.09" y2="519.29" style="stroke-width: 1.5;stroke: rgb(0,0,0);stroke-opacity: 0.5;stroke-linecap: round;stroke-linejoin: round;shape-rendering:geometricPrecision;" transform="matrix(1,0,0,1,0,0)" clip-path="url(#_1205699474379701clip-2)"/><line x1="253.09" y1="519.29" x2="247.53" y2="498.05" style="stroke-width: 1.5;stroke: rgb(0,0,0);stroke-opacity: 0.5;stroke-linecap: round;stroke-linejoin: round;shape-rendering:geometricPrecision;" transform="matrix(1,0,0,1,0,0)" clip-path="url(#_1205699474379701clip-2)"/><line x1="247.53" y1="498.05" x2="242.07" y2="476.8" style="stroke-width: 1.5;stroke: rgb(0,0,0);stroke-opacity: 0.5;stroke-linecap: round;stroke-linejoin: round;shape-rendering:geometricPrecision;" transform="matrix(1,0,0,1,0,0)" clip-path="url(#_1205699474379701clip-2)"/><line x1="242.07" y1="476.8" x2="236.77" y2="455.56" style="stroke-width: 1.5;stroke: rgb(0,0,0);stroke-opacity: 0.5;stroke-linecap: round;stroke-linejoin: round;shape-rendering:geometricPrecision;" transform="matrix(1,0,0,1,0,0)" clip-path="url(#_1205699474379701clip-2)"/><line x1="236.77" y1="455.56" x2="231.72" y2="434.32" style="stroke-width: 1.5;stroke: rgb(0,0,0);stroke-opacity: 0.5;stroke-linecap: round;stroke-linejoin: round;shape-rendering:geometricPrecision;" transform="matrix(1,0,0,1,0,0)" clip-path="url(#_1205699474379701clip-2)"/><line x1="231.72" y1="434.32" x2="227.01" y2="413.08" style="stroke-width: 1.5;stroke: rgb(0,0,0);stroke-opacity: 0.5;stroke-linecap: round;stroke-linejoin: round;shape-rendering:geometricPrecision;" transform="matrix(1,0,0,1,0,0)" clip-path="url(#_1205699474379701clip-2)"/><line x1="227.01" y1="413.08" x2="222.73" y2="391.84" style="stroke-width: 1.5;stroke: rgb(0,0,0);stroke-opacity: 0.5;stroke-linecap: round;stroke-linejoin: round;shape-rendering:geometricPrecision;" transform="matrix(1,0,0,1,0,0)" clip-path="url(#_1205699474379701clip-2)"/><line x1="222.73" y1="391.84" x2="218.96" y2="370.6" style="stroke-width: 1.5;stroke: rgb(0,0,0);stroke-opacity: 0.5;stroke-linecap: round;stroke-linejoin: round;shape-rendering:geometricPrecision;" transform="matrix(1,0,0,1,0,0)" clip-path="url(#_1205699474379701clip-2)"/><line x1="218.96" y1="370.6" x2="215.77" y2="349.36" style="stroke-width: 1.5;stroke: rgb(0,0,0);stroke-opacity: 0.5;stroke-linecap: round;stroke-linejoin: round;shape-rendering:geometricPrecision;" transform="matrix(1,0,0,1,0,0)" clip-path="url(#_1205699474379701clip-2)"/><line x1="215.77" y1="349.36" x2="213.27" y2="328.12" style="stroke-width: 1.5;stroke: rgb(0,0,0);stroke-opacity: 0.5;stroke-linecap: round;stroke-linejoin: round;shape-rendering:geometricPrecision;" transform="matrix(1,0,0,1,0,0)" clip-path="url(#_1205699474379701clip-2)"/><line x1="213.27" y1="328.12" x2="211.53" y2="306.88" style="stroke-width: 1.5;stroke: rgb(0,0,0);stroke-opacity: 0.5;stroke-linecap: round;stroke-linejoin: round;shape-rendering:geometricPrecision;" transform="matrix(1,0,0,1,0,0)" clip-path="url(#_1205699474379701clip-2)"/><line x1="211.53" y1="306.88" x2="210.63" y2="285.64" style="stroke-width: 1.5;stroke: rgb(0,0,0);stroke-opacity: 0.5;stroke-linecap: round;stroke-linejoin: round;shape-rendering:geometricPrecision;" transform="matrix(1,0,0,1,0,0)" clip-path="url(#_1205699474379701clip-2)"/><line x1="210.63" y1="285.64" x2="210.66" y2="264.4" style="stroke-width: 1.5;stroke: rgb(0,0,0);stroke-opacity: 0.5;stroke-linecap: round;stroke-linejoin: round;shape-rendering:geometricPrecision;" transform="matrix(1,0,0,1,0,0)" clip-path="url(#_1205699474379701clip-2)"/><line x1="210.66" y1="264.4" x2="211.72" y2="243.16" style="stroke-width: 1.5;stroke: rgb(0,0,0);stroke-opacity: 0.5;stroke-linecap: round;stroke-linejoin: round;shape-rendering:geometricPrecision;" transform="matrix(1,0,0,1,0,0)" clip-path="url(#_1205699474379701clip-2)"/><line x1="211.72" y1="243.16" x2="213.87" y2="221.92" style="stroke-width: 1.5;stroke: rgb(0,0,0);stroke-opacity: 0.5;stroke-linecap: round;stroke-linejoin: round;shape-rendering:geometricPrecision;" transform="matrix(1,0,0,1,0,0)" clip-path="url(#_1205699474379701clip-2)"/><line x1="213.87" y1="221.92" x2="217.19" y2="200.68" style="stroke-width: 1.5;stroke: rgb(0,0,0);stroke-opacity: 0.5;stroke-linecap: round;stroke-linejoin: round;shape-rendering:geometricPrecision;" transform="matrix(1,0,0,1,0,0)" clip-path="url(#_1205699474379701clip-2)"/><line x1="217.19" y1="200.68" x2="221.54" y2="179.44" style="stroke-width: 1.5;stroke: rgb(0,0,0);stroke-opacity: 0.5;stroke-linecap: round;stroke-linejoin: round;shape-rendering:geometricPrecision;" transform="matrix(1,0,0,1,0,0)" clip-path="url(#_1205699474379701clip-2)"/><line x1="221.54" y1="179.44" x2="226.68" y2="158.2" style="stroke-width: 1.5;stroke: rgb(0,0,0);stroke-opacity: 0.5;stroke-linecap: round;stroke-linejoin: round;shape-rendering:geometricPrecision;" transform="matrix(1,0,0,1,0,0)" clip-path="url(#_1205699474379701clip-2)"/><line x1="226.68" y1="158.2" x2="232.33" y2="136.95" style="stroke-width: 1.5;stroke: rgb(0,0,0);stroke-opacity: 0.5;stroke-linecap: round;stroke-linejoin: round;shape-rendering:geometricPrecision;" transform="matrix(1,0,0,1,0,0)" clip-path="url(#_1205699474379701clip-2)"/><line x1="232.33" y1="136.95" x2="238.24" y2="115.71" style="stroke-width: 1.5;stroke: rgb(0,0,0);stroke-opacity: 0.5;stroke-linecap: round;stroke-linejoin: round;shape-rendering:geometricPrecision;" transform="matrix(1,0,0,1,0,0)" clip-path="url(#_1205699474379701clip-2)"/><line x1="238.24" y1="115.71" x2="463.76" y2="115.71" style="stroke-width: 1.5;stroke: rgb(0,0,0);stroke-opacity: 0.5;stroke-linecap: round;stroke-linejoin: round;shape-rendering:geometricPrecision;" transform="matrix(1,0,0,1,0,0)" clip-path="url(#_1205699474379701clip-2)"/><g style="fill: rgb(255,127,80); fill-opacity: 0.5; stroke: none" transform="matrix(1,0,0,1,0,0)" clip-path="url(#_1205699474379701clip-2)"><path d="M 351 115.71 L 463.76 115.71 L 469.67 136.95 L 475.32 158.2 L 480.46 179.44 L 484.81 200.68 L 488.13 221.92 L 490.28 243.16 L 491.34 264.4 L 491.37 285.64 L 490.47 306.88 L 488.73 328.12 L 486.23 349.36 L 483.04 370.6 L 479.27 391.84 L 474.99 413.08 L 470.28 434.32 L 465.23 455.56 L 459.93 476.8 L 454.47 498.05 L 448.91 519.29 L 253.09 519.29 L 247.53 498.05 L 242.07 476.8 L 236.77 455.56 L 231.72 434.32 L 227.01 413.08 L 222.73 391.84 L 218.96 370.6 L 215.77 349.36 L 213.27 328.12 L 211.53 306.88 L 210.63 285.64 L 210.66 264.4 L 211.72 243.16 L 213.87 221.92 L 217.19 200.68 L 221.54 179.44 L 226.68 158.2 L 232.33 136.95 L 238.24 115.71 L 463.76 115.71 L 351 115.71 Z "/></g><rect x="64" y="35" width="574" height="565" style="stroke-width: 0.5;stroke: rgb(0,0,0);stroke-opacity: 1.0;stroke-linecap: round;stroke-linejoin: round;shape-rendering:crispEdges;; fill: none" transform="matrix(1,0,0,1,0,0)" clip-path="url(#_1205699474379701clip-0)"/></svg>
