<!DOCTYPE svg PUBLIC "-//W3C//DTD SVG 1.1//EN" "http://www.w3.org/Graphics/SVG/1.1/DTD/svg11.dtd">
<svg xmlns="http://www.w3.org/2000/svg" xmlns:xlink="http://www.w3.org/1999/xlink" xmlns:jfreesvg="http://www.jfree.org/jfreesvg/svg" width="650" height="650" text-rendering="auto" shape-rendering="auto">
<defs><clipPath id="_109027317585423clip-0"><path d="M 0 0 L 650 0 L 650 650 L 0 650 L 0 0 Z "/></clipPath>
<clipPath id="_109027317585423clip-1"><path d="M 337 298 L 337 948 L -313 948 L -313 298 L 337 298 Z "/></clipPath>
<clipPath id="_109027317585423clip-2"><path d="M 64 35 L 64 600 L 638 600 L 638 35 Z "/></clipPath>
</defs>
<rect x="0" y="0" width="650" height="650" style="fill: rgb(245,245,245); fill-opacity: 1.0" transform="matrix(1,0,0,1,0,0)" clip-path="url(#_109027317585423clip-0)"/><g transform="matrix(1,0,0,1,0,0)"><text x="126.5" y="21.01" style="fill: rgb(0,0,0); fill-opacity: 1.0; font-family: Tahoma; font-size: 20px; font-weight: bold;" clip-path="url(#_109027317585423clip-0)">Nacelle data representation - Side View</text></g><rect x="64" y="35" width="574" height="565" style="fill: rgb(240,248,255); fill-opacity: 0.0" transform="matrix(1,0,0,1,0,0)" clip-path="url(#_109027317585423clip-0)"/><line x1="64" y1="604" x2="638" y2="604" style="stroke-width: 0.5;stroke: rgb(128,128,128);stroke-opacity: 1.0;stroke-linecap: square;shape-rendering:crispEdges;" transform="matrix(1,0,0,1,0,0)" clip-path="url(#_109027317585423clip-0)"/><g transform="matrix(1,0,0,1,0,0)"><text x="79.34" y="620.52" style="fill: rgb(64,64,64); fill-opacity: 1.0; font-family: Tahoma; font-size: 12px;" clip-path="url(#_109027317585423clip-0)">-0,5</text></g><line x1="89.84" y1="606" x2="89.84" y2="604" style="stroke-width: 0.5;stroke: rgb(128,128,128);stroke-opacity: 1.0;stroke-linecap: square;shape-rendering:crispEdges;" transform="matrix(1,0,0,1,0,0)" clip-path="url(#_109027317585423clip-0)"/><g transform="matrix(1,0,0,1,0,0)"><text x="137.5" y="620.52" style="fill: rgb(64,64,64); fill-opacity: 1.0; font-family: Tahoma; font-size: 12px;" clip-path="url(#_109027317585423clip-0)">0,0</text></g><line x1="146" y1="606" x2="146" y2="604" style="stroke-width: 0.5;stroke: rgb(128,128,128);stroke-opacity: 1.0;stroke-linecap: square;shape-rendering:crispEdges;" transform="matrix(1,0,0,1,0,0)" clip-path="url(#_109027317585423clip-0)"/><g transform="matrix(1,0,0,1,0,0)"><text x="193.66" y="620.52" style="fill: rgb(64,64,64); fill-opacity: 1.0; font-family: Tahoma; font-size: 12px;" clip-path="url(#_109027317585423clip-0)">0,5</text></g><line x1="202.16" y1="606" x2="202.16" y2="604" style="stroke-width: 0.5;stroke: rgb(128,128,128);stroke-opacity: 1.0;stroke-linecap: square;shape-rendering:crispEdges;" transform="matrix(1,0,0,1,0,0)" clip-path="url(#_109027317585423clip-0)"/><g transform="matrix(1,0,0,1,0,0)"><text x="249.83" y="620.52" style="fill: rgb(64,64,64); fill-opacity: 1.0; font-family: Tahoma; font-size: 12px;" clip-path="url(#_109027317585423clip-0)">1,0</text></g><line x1="258.33" y1="606" x2="258.33" y2="604" style="stroke-width: 0.5;stroke: rgb(128,128,128);stroke-opacity: 1.0;stroke-linecap: square;shape-rendering:crispEdges;" transform="matrix(1,0,0,1,0,0)" clip-path="url(#_109027317585423clip-0)"/><g transform="matrix(1,0,0,1,0,0)"><text x="305.99" y="620.52" style="fill: rgb(64,64,64); fill-opacity: 1.0; font-family: Tahoma; font-size: 12px;" clip-path="url(#_109027317585423clip-0)">1,5</text></g><line x1="314.49" y1="606" x2="314.49" y2="604" style="stroke-width: 0.5;stroke: rgb(128,128,128);stroke-opacity: 1.0;stroke-linecap: square;shape-rendering:crispEdges;" transform="matrix(1,0,0,1,0,0)" clip-path="url(#_109027317585423clip-0)"/><g transform="matrix(1,0,0,1,0,0)"><text x="362.16" y="620.52" style="fill: rgb(64,64,64); fill-opacity: 1.0; font-family: Tahoma; font-size: 12px;" clip-path="url(#_109027317585423clip-0)">2,0</text></g><line x1="370.66" y1="606" x2="370.66" y2="604" style="stroke-width: 0.5;stroke: rgb(128,128,128);stroke-opacity: 1.0;stroke-linecap: square;shape-rendering:crispEdges;" transform="matrix(1,0,0,1,0,0)" clip-path="url(#_109027317585423clip-0)"/><g transform="matrix(1,0,0,1,0,0)"><text x="418.32" y="620.52" style="fill: rgb(64,64,64); fill-opacity: 1.0; font-family: Tahoma; font-size: 12px;" clip-path="url(#_109027317585423clip-0)">2,5</text></g><line x1="426.82" y1="606" x2="426.82" y2="604" style="stroke-width: 0.5;stroke: rgb(128,128,128);stroke-opacity: 1.0;stroke-linecap: square;shape-rendering:crispEdges;" transform="matrix(1,0,0,1,0,0)" clip-path="url(#_109027317585423clip-0)"/><g transform="matrix(1,0,0,1,0,0)"><text x="474.49" y="620.52" style="fill: rgb(64,64,64); fill-opacity: 1.0; font-family: Tahoma; font-size: 12px;" clip-path="url(#_109027317585423clip-0)">3,0</text></g><line x1="482.99" y1="606" x2="482.99" y2="604" style="stroke-width: 0.5;stroke: rgb(128,128,128);stroke-opacity: 1.0;stroke-linecap: square;shape-rendering:crispEdges;" transform="matrix(1,0,0,1,0,0)" clip-path="url(#_109027317585423clip-0)"/><g transform="matrix(1,0,0,1,0,0)"><text x="530.65" y="620.52" style="fill: rgb(64,64,64); fill-opacity: 1.0; font-family: Tahoma; font-size: 12px;" clip-path="url(#_109027317585423clip-0)">3,5</text></g><line x1="539.15" y1="606" x2="539.15" y2="604" style="stroke-width: 0.5;stroke: rgb(128,128,128);stroke-opacity: 1.0;stroke-linecap: square;shape-rendering:crispEdges;" transform="matrix(1,0,0,1,0,0)" clip-path="url(#_109027317585423clip-0)"/><g transform="matrix(1,0,0,1,0,0)"><text x="586.82" y="620.52" style="fill: rgb(64,64,64); fill-opacity: 1.0; font-family: Tahoma; font-size: 12px;" clip-path="url(#_109027317585423clip-0)">4,0</text></g><line x1="595.32" y1="606" x2="595.32" y2="604" style="stroke-width: 0.5;stroke: rgb(128,128,128);stroke-opacity: 1.0;stroke-linecap: square;shape-rendering:crispEdges;" transform="matrix(1,0,0,1,0,0)" clip-path="url(#_109027317585423clip-0)"/><g transform="matrix(1,0,0,1,0,0)"><text x="331.5" y="639.59" style="fill: rgb(64,64,64); fill-opacity: 1.0; font-family: Tahoma; font-size: 14px; font-weight: bold;" clip-path="url(#_109027317585423clip-0)">x (m)</text></g><line x1="60" y1="35" x2="60" y2="600" style="stroke-width: 0.5;stroke: rgb(128,128,128);stroke-opacity: 1.0;stroke-linecap: square;shape-rendering:crispEdges;" transform="matrix(1,0,0,1,0,0)" clip-path="url(#_109027317585423clip-0)"/><g transform="matrix(1,0,0,1,0,0)"><text x="33" y="587.88" style="fill: rgb(64,64,64); fill-opacity: 1.0; font-family: Tahoma; font-size: 12px;" clip-path="url(#_109027317585423clip-0)">-2,4</text></g><line x1="58" y1="582.86" x2="60" y2="582.86" style="stroke-width: 0.5;stroke: rgb(128,128,128);stroke-opacity: 1.0;stroke-linecap: square;shape-rendering:crispEdges;" transform="matrix(1,0,0,1,0,0)" clip-path="url(#_109027317585423clip-0)"/><g transform="matrix(1,0,0,1,0,0)"><text x="33" y="565.77" style="fill: rgb(64,64,64); fill-opacity: 1.0; font-family: Tahoma; font-size: 12px;" clip-path="url(#_109027317585423clip-0)">-2,2</text></g><line x1="58" y1="560.75" x2="60" y2="560.75" style="stroke-width: 0.5;stroke: rgb(128,128,128);stroke-opacity: 1.0;stroke-linecap: square;shape-rendering:crispEdges;" transform="matrix(1,0,0,1,0,0)" clip-path="url(#_109027317585423clip-0)"/><g transform="matrix(1,0,0,1,0,0)"><text x="33" y="543.66" style="fill: rgb(64,64,64); fill-opacity: 1.0; font-family: Tahoma; font-size: 12px;" clip-path="url(#_109027317585423clip-0)">-2,0</text></g><line x1="58" y1="538.64" x2="60" y2="538.64" style="stroke-width: 0.5;stroke: rgb(128,128,128);stroke-opacity: 1.0;stroke-linecap: square;shape-rendering:crispEdges;" transform="matrix(1,0,0,1,0,0)" clip-path="url(#_109027317585423clip-0)"/><g transform="matrix(1,0,0,1,0,0)"><text x="33" y="521.54" style="fill: rgb(64,64,64); fill-opacity: 1.0; font-family: Tahoma; font-size: 12px;" clip-path="url(#_109027317585423clip-0)">-1,8</text></g><line x1="58" y1="516.52" x2="60" y2="516.52" style="stroke-width: 0.5;stroke: rgb(128,128,128);stroke-opacity: 1.0;stroke-linecap: square;shape-rendering:crispEdges;" transform="matrix(1,0,0,1,0,0)" clip-path="url(#_109027317585423clip-0)"/><g transform="matrix(1,0,0,1,0,0)"><text x="33" y="499.43" style="fill: rgb(64,64,64); fill-opacity: 1.0; font-family: Tahoma; font-size: 12px;" clip-path="url(#_109027317585423clip-0)">-1,6</text></g><line x1="58" y1="494.41" x2="60" y2="494.41" style="stroke-width: 0.5;stroke: rgb(128,128,128);stroke-opacity: 1.0;stroke-linecap: square;shape-rendering:crispEdges;" transform="matrix(1,0,0,1,0,0)" clip-path="url(#_109027317585423clip-0)"/><g transform="matrix(1,0,0,1,0,0)"><text x="33" y="477.32" style="fill: rgb(64,64,64); fill-opacity: 1.0; font-family: Tahoma; font-size: 12px;" clip-path="url(#_109027317585423clip-0)">-1,4</text></g><line x1="58" y1="472.29" x2="60" y2="472.29" style="stroke-width: 0.5;stroke: rgb(128,128,128);stroke-opacity: 1.0;stroke-linecap: square;shape-rendering:crispEdges;" transform="matrix(1,0,0,1,0,0)" clip-path="url(#_109027317585423clip-0)"/><g transform="matrix(1,0,0,1,0,0)"><text x="33" y="455.2" style="fill: rgb(64,64,64); fill-opacity: 1.0; font-family: Tahoma; font-size: 12px;" clip-path="url(#_109027317585423clip-0)">-1,2</text></g><line x1="58" y1="450.18" x2="60" y2="450.18" style="stroke-width: 0.5;stroke: rgb(128,128,128);stroke-opacity: 1.0;stroke-linecap: square;shape-rendering:crispEdges;" transform="matrix(1,0,0,1,0,0)" clip-path="url(#_109027317585423clip-0)"/><g transform="matrix(1,0,0,1,0,0)"><text x="33" y="433.09" style="fill: rgb(64,64,64); fill-opacity: 1.0; font-family: Tahoma; font-size: 12px;" clip-path="url(#_109027317585423clip-0)">-1,0</text></g><line x1="58" y1="428.07" x2="60" y2="428.07" style="stroke-width: 0.5;stroke: rgb(128,128,128);stroke-opacity: 1.0;stroke-linecap: square;shape-rendering:crispEdges;" transform="matrix(1,0,0,1,0,0)" clip-path="url(#_109027317585423clip-0)"/><g transform="matrix(1,0,0,1,0,0)"><text x="33" y="410.98" style="fill: rgb(64,64,64); fill-opacity: 1.0; font-family: Tahoma; font-size: 12px;" clip-path="url(#_109027317585423clip-0)">-0,8</text></g><line x1="58" y1="405.95" x2="60" y2="405.95" style="stroke-width: 0.5;stroke: rgb(128,128,128);stroke-opacity: 1.0;stroke-linecap: square;shape-rendering:crispEdges;" transform="matrix(1,0,0,1,0,0)" clip-path="url(#_109027317585423clip-0)"/><g transform="matrix(1,0,0,1,0,0)"><text x="33" y="388.86" style="fill: rgb(64,64,64); fill-opacity: 1.0; font-family: Tahoma; font-size: 12px;" clip-path="url(#_109027317585423clip-0)">-0,6</text></g><line x1="58" y1="383.84" x2="60" y2="383.84" style="stroke-width: 0.5;stroke: rgb(128,128,128);stroke-opacity: 1.0;stroke-linecap: square;shape-rendering:crispEdges;" transform="matrix(1,0,0,1,0,0)" clip-path="url(#_109027317585423clip-0)"/><g transform="matrix(1,0,0,1,0,0)"><text x="33" y="366.75" style="fill: rgb(64,64,64); fill-opacity: 1.0; font-family: Tahoma; font-size: 12px;" clip-path="url(#_109027317585423clip-0)">-0,4</text></g><line x1="58" y1="361.73" x2="60" y2="361.73" style="stroke-width: 0.5;stroke: rgb(128,128,128);stroke-opacity: 1.0;stroke-linecap: square;shape-rendering:crispEdges;" transform="matrix(1,0,0,1,0,0)" clip-path="url(#_109027317585423clip-0)"/><g transform="matrix(1,0,0,1,0,0)"><text x="33" y="344.63" style="fill: rgb(64,64,64); fill-opacity: 1.0; font-family: Tahoma; font-size: 12px;" clip-path="url(#_109027317585423clip-0)">-0,2</text></g><line x1="58" y1="339.61" x2="60" y2="339.61" style="stroke-width: 0.5;stroke: rgb(128,128,128);stroke-opacity: 1.0;stroke-linecap: square;shape-rendering:crispEdges;" transform="matrix(1,0,0,1,0,0)" clip-path="url(#_109027317585423clip-0)"/><g transform="matrix(1,0,0,1,0,0)"><text x="37" y="322.52" style="fill: rgb(64,64,64); fill-opacity: 1.0; font-family: Tahoma; font-size: 12px;" clip-path="url(#_109027317585423clip-0)">0,0</text></g><line x1="58" y1="317.5" x2="60" y2="317.5" style="stroke-width: 0.5;stroke: rgb(128,128,128);stroke-opacity: 1.0;stroke-linecap: square;shape-rendering:crispEdges;" transform="matrix(1,0,0,1,0,0)" clip-path="url(#_109027317585423clip-0)"/><g transform="matrix(1,0,0,1,0,0)"><text x="37" y="300.41" style="fill: rgb(64,64,64); fill-opacity: 1.0; font-family: Tahoma; font-size: 12px;" clip-path="url(#_109027317585423clip-0)">0,2</text></g><line x1="58" y1="295.39" x2="60" y2="295.39" style="stroke-width: 0.5;stroke: rgb(128,128,128);stroke-opacity: 1.0;stroke-linecap: square;shape-rendering:crispEdges;" transform="matrix(1,0,0,1,0,0)" clip-path="url(#_109027317585423clip-0)"/><g transform="matrix(1,0,0,1,0,0)"><text x="37" y="278.29" style="fill: rgb(64,64,64); fill-opacity: 1.0; font-family: Tahoma; font-size: 12px;" clip-path="url(#_109027317585423clip-0)">0,4</text></g><line x1="58" y1="273.27" x2="60" y2="273.27" style="stroke-width: 0.5;stroke: rgb(128,128,128);stroke-opacity: 1.0;stroke-linecap: square;shape-rendering:crispEdges;" transform="matrix(1,0,0,1,0,0)" clip-path="url(#_109027317585423clip-0)"/><g transform="matrix(1,0,0,1,0,0)"><text x="37" y="256.18" style="fill: rgb(64,64,64); fill-opacity: 1.0; font-family: Tahoma; font-size: 12px;" clip-path="url(#_109027317585423clip-0)">0,6</text></g><line x1="58" y1="251.16" x2="60" y2="251.16" style="stroke-width: 0.5;stroke: rgb(128,128,128);stroke-opacity: 1.0;stroke-linecap: square;shape-rendering:crispEdges;" transform="matrix(1,0,0,1,0,0)" clip-path="url(#_109027317585423clip-0)"/><g transform="matrix(1,0,0,1,0,0)"><text x="37" y="234.07" style="fill: rgb(64,64,64); fill-opacity: 1.0; font-family: Tahoma; font-size: 12px;" clip-path="url(#_109027317585423clip-0)">0,8</text></g><line x1="58" y1="229.05" x2="60" y2="229.05" style="stroke-width: 0.5;stroke: rgb(128,128,128);stroke-opacity: 1.0;stroke-linecap: square;shape-rendering:crispEdges;" transform="matrix(1,0,0,1,0,0)" clip-path="url(#_109027317585423clip-0)"/><g transform="matrix(1,0,0,1,0,0)"><text x="37" y="211.95" style="fill: rgb(64,64,64); fill-opacity: 1.0; font-family: Tahoma; font-size: 12px;" clip-path="url(#_109027317585423clip-0)">1,0</text></g><line x1="58" y1="206.93" x2="60" y2="206.93" style="stroke-width: 0.5;stroke: rgb(128,128,128);stroke-opacity: 1.0;stroke-linecap: square;shape-rendering:crispEdges;" transform="matrix(1,0,0,1,0,0)" clip-path="url(#_109027317585423clip-0)"/><g transform="matrix(1,0,0,1,0,0)"><text x="37" y="189.84" style="fill: rgb(64,64,64); fill-opacity: 1.0; font-family: Tahoma; font-size: 12px;" clip-path="url(#_109027317585423clip-0)">1,2</text></g><line x1="58" y1="184.82" x2="60" y2="184.82" style="stroke-width: 0.5;stroke: rgb(128,128,128);stroke-opacity: 1.0;stroke-linecap: square;shape-rendering:crispEdges;" transform="matrix(1,0,0,1,0,0)" clip-path="url(#_109027317585423clip-0)"/><g transform="matrix(1,0,0,1,0,0)"><text x="37" y="167.73" style="fill: rgb(64,64,64); fill-opacity: 1.0; font-family: Tahoma; font-size: 12px;" clip-path="url(#_109027317585423clip-0)">1,4</text></g><line x1="58" y1="162.71" x2="60" y2="162.71" style="stroke-width: 0.5;stroke: rgb(128,128,128);stroke-opacity: 1.0;stroke-linecap: square;shape-rendering:crispEdges;" transform="matrix(1,0,0,1,0,0)" clip-path="url(#_109027317585423clip-0)"/><g transform="matrix(1,0,0,1,0,0)"><text x="37" y="145.61" style="fill: rgb(64,64,64); fill-opacity: 1.0; font-family: Tahoma; font-size: 12px;" clip-path="url(#_109027317585423clip-0)">1,6</text></g><line x1="58" y1="140.59" x2="60" y2="140.59" style="stroke-width: 0.5;stroke: rgb(128,128,128);stroke-opacity: 1.0;stroke-linecap: square;shape-rendering:crispEdges;" transform="matrix(1,0,0,1,0,0)" clip-path="url(#_109027317585423clip-0)"/><g transform="matrix(1,0,0,1,0,0)"><text x="37" y="123.5" style="fill: rgb(64,64,64); fill-opacity: 1.0; font-family: Tahoma; font-size: 12px;" clip-path="url(#_109027317585423clip-0)">1,8</text></g><line x1="58" y1="118.48" x2="60" y2="118.48" style="stroke-width: 0.5;stroke: rgb(128,128,128);stroke-opacity: 1.0;stroke-linecap: square;shape-rendering:crispEdges;" transform="matrix(1,0,0,1,0,0)" clip-path="url(#_109027317585423clip-0)"/><g transform="matrix(1,0,0,1,0,0)"><text x="37" y="101.39" style="fill: rgb(64,64,64); fill-opacity: 1.0; font-family: Tahoma; font-size: 12px;" clip-path="url(#_109027317585423clip-0)">2,0</text></g><line x1="58" y1="96.36" x2="60" y2="96.36" style="stroke-width: 0.5;stroke: rgb(128,128,128);stroke-opacity: 1.0;stroke-linecap: square;shape-rendering:crispEdges;" transform="matrix(1,0,0,1,0,0)" clip-path="url(#_109027317585423clip-0)"/><g transform="matrix(1,0,0,1,0,0)"><text x="37" y="79.27" style="fill: rgb(64,64,64); fill-opacity: 1.0; font-family: Tahoma; font-size: 12px;" clip-path="url(#_109027317585423clip-0)">2,2</text></g><line x1="58" y1="74.25" x2="60" y2="74.25" style="stroke-width: 0.5;stroke: rgb(128,128,128);stroke-opacity: 1.0;stroke-linecap: square;shape-rendering:crispEdges;" transform="matrix(1,0,0,1,0,0)" clip-path="url(#_109027317585423clip-0)"/><g transform="matrix(1,0,0,1,0,0)"><text x="37" y="57.16" style="fill: rgb(64,64,64); fill-opacity: 1.0; font-family: Tahoma; font-size: 12px;" clip-path="url(#_109027317585423clip-0)">2,4</text></g><line x1="58" y1="52.14" x2="60" y2="52.14" style="stroke-width: 0.5;stroke: rgb(128,128,128);stroke-opacity: 1.0;stroke-linecap: square;shape-rendering:crispEdges;" transform="matrix(1,0,0,1,0,0)" clip-path="url(#_109027317585423clip-0)"/><g style="fill: rgb(64,64,64); fill-opacity: 1.0; stroke: none" transform="matrix(0,-1,1,0,-298,337)" clip-path="url(#_109027317585423clip-1)"><path d="M 7.55 323.11 L 0.83 323.11 L 0.83 321.53 L 4.5 317.23 L 1 317.23 L 1 315.44 L 7.47 315.44 L 7.47 316.98 L 3.8 321.28 L 7.55 321.28 L 7.55 323.11 Z  M 17.78 325.92 L 15.26 325.92 Q 14.68 325.23 14.21 324.5 Q 13.75 323.76 13.4 322.94 Q 13.07 322.14 12.89 321.19 Q 12.71 320.23 12.71 319.2 Q 12.71 318.08 12.9 317.16 Q 13.09 316.23 13.39 315.48 Q 13.71 314.66 14.19 313.92 Q 14.67 313.19 15.26 312.47 L 17.78 312.47 L 17.78 312.67 Q 17.21 313.17 16.71 313.8 Q 16.21 314.44 15.79 315.28 Q 15.37 316.09 15.12 317.08 Q 14.87 318.08 14.87 319.2 Q 14.87 320.37 15.11 321.32 Q 15.35 322.26 15.79 323.11 Q 16.2 323.92 16.71 324.58 Q 17.23 325.25 17.78 325.73 L 17.78 325.92 Z  M 28.42 323.11 L 28.42 319.28 Q 28.42 318.7 28.39 318.31 Q 28.37 317.92 28.27 317.69 Q 28.17 317.44 27.95 317.32 Q 27.73 317.2 27.35 317.2 Q 27.07 317.2 26.81 317.33 Q 26.54 317.45 26.23 317.67 L 26.23 323.11 L 23.82 323.11 L 23.82 319.28 Q 23.82 318.72 23.8 318.32 Q 23.77 317.92 23.67 317.69 Q 23.57 317.44 23.35 317.32 Q 23.13 317.2 22.76 317.2 Q 22.46 317.2 22.18 317.34 Q 21.9 317.48 21.63 317.67 L 21.63 323.11 L 19.24 323.11 L 19.24 315.44 L 21.63 315.44 L 21.63 316.28 Q 22.21 315.78 22.74 315.5 Q 23.26 315.22 23.9 315.22 Q 24.62 315.22 25.15 315.55 Q 25.68 315.89 25.96 316.55 Q 26.65 315.91 27.26 315.56 Q 27.87 315.22 28.49 315.22 Q 29.04 315.22 29.46 315.39 Q 29.88 315.56 30.18 315.91 Q 30.49 316.26 30.66 316.78 Q 30.82 317.3 30.82 318.11 L 30.82 323.11 L 28.42 323.11 Z  M 37.27 319.2 Q 37.27 320.23 37.09 321.19 Q 36.91 322.14 36.59 322.94 Q 36.25 323.76 35.77 324.5 Q 35.3 325.23 34.72 325.92 L 32.22 325.92 L 32.22 325.73 Q 32.77 325.25 33.28 324.59 Q 33.8 323.94 34.2 323.11 Q 34.62 322.26 34.88 321.32 Q 35.12 320.37 35.12 319.2 Q 35.12 318.08 34.87 317.08 Q 34.61 316.09 34.2 315.28 Q 33.77 314.44 33.27 313.8 Q 32.77 313.17 32.22 312.67 L 32.22 312.47 L 34.72 312.47 Q 35.31 313.19 35.79 313.92 Q 36.27 314.66 36.59 315.48 Q 36.89 316.23 37.08 317.16 Q 37.27 318.08 37.27 319.2 Z "/></g><line x1="64" y1="582.86" x2="638" y2="582.86" style="stroke-width: 0.5;stroke: rgb(128,128,128);stroke-opacity: 0.5;stroke-linejoin: bevel;stroke-dasharray: 2.0, 2.0;shape-rendering:crispEdges;" transform="matrix(1,0,0,1,0,0)" clip-path="url(#_109027317585423clip-2)"/><line x1="64" y1="560.75" x2="638" y2="560.75" style="stroke-width: 0.5;stroke: rgb(128,128,128);stroke-opacity: 0.5;stroke-linejoin: bevel;stroke-dasharray: 2.0, 2.0;shape-rendering:crispEdges;" transform="matrix(1,0,0,1,0,0)" clip-path="url(#_109027317585423clip-2)"/><line x1="64" y1="538.64" x2="638" y2="538.64" style="stroke-width: 0.5;stroke: rgb(128,128,128);stroke-opacity: 0.5;stroke-linejoin: bevel;stroke-dasharray: 2.0, 2.0;shape-rendering:crispEdges;" transform="matrix(1,0,0,1,0,0)" clip-path="url(#_109027317585423clip-2)"/><line x1="64" y1="516.52" x2="638" y2="516.52" style="stroke-width: 0.5;stroke: rgb(128,128,128);stroke-opacity: 0.5;stroke-linejoin: bevel;stroke-dasharray: 2.0, 2.0;shape-rendering:crispEdges;" transform="matrix(1,0,0,1,0,0)" clip-path="url(#_109027317585423clip-2)"/><line x1="64" y1="494.41" x2="638" y2="494.41" style="stroke-width: 0.5;stroke: rgb(128,128,128);stroke-opacity: 0.5;stroke-linejoin: bevel;stroke-dasharray: 2.0, 2.0;shape-rendering:crispEdges;" transform="matrix(1,0,0,1,0,0)" clip-path="url(#_109027317585423clip-2)"/><line x1="64" y1="472.29" x2="638" y2="472.29" style="stroke-width: 0.5;stroke: rgb(128,128,128);stroke-opacity: 0.5;stroke-linejoin: bevel;stroke-dasharray: 2.0, 2.0;shape-rendering:crispEdges;" transform="matrix(1,0,0,1,0,0)" clip-path="url(#_109027317585423clip-2)"/><line x1="64" y1="450.18" x2="638" y2="450.18" style="stroke-width: 0.5;stroke: rgb(128,128,128);stroke-opacity: 0.5;stroke-linejoin: bevel;stroke-dasharray: 2.0, 2.0;shape-rendering:crispEdges;" transform="matrix(1,0,0,1,0,0)" clip-path="url(#_109027317585423clip-2)"/><line x1="64" y1="428.07" x2="638" y2="428.07" style="stroke-width: 0.5;stroke: rgb(128,128,128);stroke-opacity: 0.5;stroke-linejoin: bevel;stroke-dasharray: 2.0, 2.0;shape-rendering:crispEdges;" transform="matrix(1,0,0,1,0,0)" clip-path="url(#_109027317585423clip-2)"/><line x1="64" y1="405.95" x2="638" y2="405.95" style="stroke-width: 0.5;stroke: rgb(128,128,128);stroke-opacity: 0.5;stroke-linejoin: bevel;stroke-dasharray: 2.0, 2.0;shape-rendering:crispEdges;" transform="matrix(1,0,0,1,0,0)" clip-path="url(#_109027317585423clip-2)"/><line x1="64" y1="383.84" x2="638" y2="383.84" style="stroke-width: 0.5;stroke: rgb(128,128,128);stroke-opacity: 0.5;stroke-linejoin: bevel;stroke-dasharray: 2.0, 2.0;shape-rendering:crispEdges;" transform="matrix(1,0,0,1,0,0)" clip-path="url(#_109027317585423clip-2)"/><line x1="64" y1="361.73" x2="638" y2="361.73" style="stroke-width: 0.5;stroke: rgb(128,128,128);stroke-opacity: 0.5;stroke-linejoin: bevel;stroke-dasharray: 2.0, 2.0;shape-rendering:crispEdges;" transform="matrix(1,0,0,1,0,0)" clip-path="url(#_109027317585423clip-2)"/><line x1="64" y1="339.61" x2="638" y2="339.61" style="stroke-width: 0.5;stroke: rgb(128,128,128);stroke-opacity: 0.5;stroke-linejoin: bevel;stroke-dasharray: 2.0, 2.0;shape-rendering:crispEdges;" transform="matrix(1,0,0,1,0,0)" clip-path="url(#_109027317585423clip-2)"/><line x1="64" y1="317.5" x2="638" y2="317.5" style="stroke-width: 0.5;stroke: rgb(128,128,128);stroke-opacity: 0.5;stroke-linejoin: bevel;stroke-dasharray: 2.0, 2.0;shape-rendering:crispEdges;" transform="matrix(1,0,0,1,0,0)" clip-path="url(#_109027317585423clip-2)"/><line x1="64" y1="295.39" x2="638" y2="295.39" style="stroke-width: 0.5;stroke: rgb(128,128,128);stroke-opacity: 0.5;stroke-linejoin: bevel;stroke-dasharray: 2.0, 2.0;shape-rendering:crispEdges;" transform="matrix(1,0,0,1,0,0)" clip-path="url(#_109027317585423clip-2)"/><line x1="64" y1="273.27" x2="638" y2="273.27" style="stroke-width: 0.5;stroke: rgb(128,128,128);stroke-opacity: 0.5;stroke-linejoin: bevel;stroke-dasharray: 2.0, 2.0;shape-rendering:crispEdges;" transform="matrix(1,0,0,1,0,0)" clip-path="url(#_109027317585423clip-2)"/><line x1="64" y1="251.16" x2="638" y2="251.16" style="stroke-width: 0.5;stroke: rgb(128,128,128);stroke-opacity: 0.5;stroke-linejoin: bevel;stroke-dasharray: 2.0, 2.0;shape-rendering:crispEdges;" transform="matrix(1,0,0,1,0,0)" clip-path="url(#_109027317585423clip-2)"/><line x1="64" y1="229.05" x2="638" y2="229.05" style="stroke-width: 0.5;stroke: rgb(128,128,128);stroke-opacity: 0.5;stroke-linejoin: bevel;stroke-dasharray: 2.0, 2.0;shape-rendering:crispEdges;" transform="matrix(1,0,0,1,0,0)" clip-path="url(#_109027317585423clip-2)"/><line x1="64" y1="206.93" x2="638" y2="206.93" style="stroke-width: 0.5;stroke: rgb(128,128,128);stroke-opacity: 0.5;stroke-linejoin: bevel;stroke-dasharray: 2.0, 2.0;shape-rendering:crispEdges;" transform="matrix(1,0,0,1,0,0)" clip-path="url(#_109027317585423clip-2)"/><line x1="64" y1="184.82" x2="638" y2="184.82" style="stroke-width: 0.5;stroke: rgb(128,128,128);stroke-opacity: 0.5;stroke-linejoin: bevel;stroke-dasharray: 2.0, 2.0;shape-rendering:crispEdges;" transform="matrix(1,0,0,1,0,0)" clip-path="url(#_109027317585423clip-2)"/><line x1="64" y1="162.71" x2="638" y2="162.71" style="stroke-width: 0.5;stroke: rgb(128,128,128);stroke-opacity: 0.5;stroke-linejoin: bevel;stroke-dasharray: 2.0, 2.0;shape-rendering:crispEdges;" transform="matrix(1,0,0,1,0,0)" clip-path="url(#_109027317585423clip-2)"/><line x1="64" y1="140.59" x2="638" y2="140.59" style="stroke-width: 0.5;stroke: rgb(128,128,128);stroke-opacity: 0.5;stroke-linejoin: bevel;stroke-dasharray: 2.0, 2.0;shape-rendering:crispEdges;" transform="matrix(1,0,0,1,0,0)" clip-path="url(#_109027317585423clip-2)"/><line x1="64" y1="118.48" x2="638" y2="118.48" style="stroke-width: 0.5;stroke: rgb(128,128,128);stroke-opacity: 0.5;stroke-linejoin: bevel;stroke-dasharray: 2.0, 2.0;shape-rendering:crispEdges;" transform="matrix(1,0,0,1,0,0)" clip-path="url(#_109027317585423clip-2)"/><line x1="64" y1="96.36" x2="638" y2="96.36" style="stroke-width: 0.5;stroke: rgb(128,128,128);stroke-opacity: 0.5;stroke-linejoin: bevel;stroke-dasharray: 2.0, 2.0;shape-rendering:crispEdges;" transform="matrix(1,0,0,1,0,0)" clip-path="url(#_109027317585423clip-2)"/><line x1="64" y1="74.25" x2="638" y2="74.25" style="stroke-width: 0.5;stroke: rgb(128,128,128);stroke-opacity: 0.5;stroke-linejoin: bevel;stroke-dasharray: 2.0, 2.0;shape-rendering:crispEdges;" transform="matrix(1,0,0,1,0,0)" clip-path="url(#_109027317585423clip-2)"/><line x1="64" y1="52.14" x2="638" y2="52.14" style="stroke-width: 0.5;stroke: rgb(128,128,128);stroke-opacity: 0.5;stroke-linejoin: bevel;stroke-dasharray: 2.0, 2.0;shape-rendering:crispEdges;" transform="matrix(1,0,0,1,0,0)" clip-path="url(#_109027317585423clip-2)"/><line x1="89.84" y1="35" x2="89.84" y2="600" style="stroke-width: 0.5;stroke: rgb(128,128,128);stroke-opacity: 0.5;stroke-linejoin: bevel;stroke-dasharray: 2.0, 2.0;shape-rendering:crispEdges;" transform="matrix(1,0,0,1,0,0)" clip-path="url(#_109027317585423clip-2)"/><line x1="146" y1="35" x2="146" y2="600" style="stroke-width: 0.5;stroke: rgb(128,128,128);stroke-opacity: 0.5;stroke-linejoin: bevel;stroke-dasharray: 2.0, 2.0;shape-rendering:crispEdges;" transform="matrix(1,0,0,1,0,0)" clip-path="url(#_109027317585423clip-2)"/><line x1="202.16" y1="35" x2="202.16" y2="600" style="stroke-width: 0.5;stroke: rgb(128,128,128);stroke-opacity: 0.5;stroke-linejoin: bevel;stroke-dasharray: 2.0, 2.0;shape-rendering:crispEdges;" transform="matrix(1,0,0,1,0,0)" clip-path="url(#_109027317585423clip-2)"/><line x1="258.33" y1="35" x2="258.33" y2="600" style="stroke-width: 0.5;stroke: rgb(128,128,128);stroke-opacity: 0.5;stroke-linejoin: bevel;stroke-dasharray: 2.0, 2.0;shape-rendering:crispEdges;" transform="matrix(1,0,0,1,0,0)" clip-path="url(#_109027317585423clip-2)"/><line x1="314.49" y1="35" x2="314.49" y2="600" style="stroke-width: 0.5;stroke: rgb(128,128,128);stroke-opacity: 0.5;stroke-linejoin: bevel;stroke-dasharray: 2.0, 2.0;shape-rendering:crispEdges;" transform="matrix(1,0,0,1,0,0)" clip-path="url(#_109027317585423clip-2)"/><line x1="370.66" y1="35" x2="370.66" y2="600" style="stroke-width: 0.5;stroke: rgb(128,128,128);stroke-opacity: 0.5;stroke-linejoin: bevel;stroke-dasharray: 2.0, 2.0;shape-rendering:crispEdges;" transform="matrix(1,0,0,1,0,0)" clip-path="url(#_109027317585423clip-2)"/><line x1="426.82" y1="35" x2="426.82" y2="600" style="stroke-width: 0.5;stroke: rgb(128,128,128);stroke-opacity: 0.5;stroke-linejoin: bevel;stroke-dasharray: 2.0, 2.0;shape-rendering:crispEdges;" transform="matrix(1,0,0,1,0,0)" clip-path="url(#_109027317585423clip-2)"/><line x1="482.99" y1="35" x2="482.99" y2="600" style="stroke-width: 0.5;stroke: rgb(128,128,128);stroke-opacity: 0.5;stroke-linejoin: bevel;stroke-dasharray: 2.0, 2.0;shape-rendering:crispEdges;" transform="matrix(1,0,0,1,0,0)" clip-path="url(#_109027317585423clip-2)"/><line x1="539.15" y1="35" x2="539.15" y2="600" style="stroke-width: 0.5;stroke: rgb(128,128,128);stroke-opacity: 0.5;stroke-linejoin: bevel;stroke-dasharray: 2.0, 2.0;shape-rendering:crispEdges;" transform="matrix(1,0,0,1,0,0)" clip-path="url(#_109027317585423clip-2)"/><line x1="595.32" y1="35" x2="595.32" y2="600" style="stroke-width: 0.5;stroke: rgb(128,128,128);stroke-opacity: 0.5;stroke-linejoin: bevel;stroke-dasharray: 2.0, 2.0;shape-rendering:crispEdges;" transform="matrix(1,0,0,1,0,0)" clip-path="url(#_109027317585423clip-2)"/><line x1="146" y1="193.51" x2="167.58" y2="189.13" style="stroke-width: 1.5;stroke: rgb(0,0,0);stroke-opacity: 0.5;stroke-linecap: round;stroke-linejoin: round;shape-rendering:geometricPrecision;" transform="matrix(1,0,0,1,0,0)" clip-path="url(#_109027317585423clip-2)"/><line x1="167.58" y1="189.13" x2="189.16" y2="184.87" style="stroke-width: 1.5;stroke: rgb(0,0,0);stroke-opacity: 0.5;stroke-linecap: round;stroke-linejoin: round;shape-rendering:geometricPrecision;" transform="matrix(1,0,0,1,0,0)" clip-path="url(#_109027317585423clip-2)"/><line x1="189.16" y1="184.87" x2="210.74" y2="180.88" style="stroke-width: 1.5;stroke: rgb(0,0,0);stroke-opacity: 0.5;stroke-linecap: round;stroke-linejoin: round;shape-rendering:geometricPrecision;" transform="matrix(1,0,0,1,0,0)" clip-path="url(#_109027317585423clip-2)"/><line x1="210.74" y1="180.88" x2="232.32" y2="177.27" style="stroke-width: 1.5;stroke: rgb(0,0,0);stroke-opacity: 0.5;stroke-linecap: round;stroke-linejoin: round;shape-rendering:geometricPrecision;" transform="matrix(1,0,0,1,0,0)" clip-path="url(#_109027317585423clip-2)"/><line x1="232.32" y1="177.27" x2="253.89" y2="174.17" style="stroke-width: 1.5;stroke: rgb(0,0,0);stroke-opacity: 0.5;stroke-linecap: round;stroke-linejoin: round;shape-rendering:geometricPrecision;" transform="matrix(1,0,0,1,0,0)" clip-path="url(#_109027317585423clip-2)"/><line x1="253.89" y1="174.17" x2="275.47" y2="171.72" style="stroke-width: 1.5;stroke: rgb(0,0,0);stroke-opacity: 0.5;stroke-linecap: round;stroke-linejoin: round;shape-rendering:geometricPrecision;" transform="matrix(1,0,0,1,0,0)" clip-path="url(#_109027317585423clip-2)"/><line x1="275.47" y1="171.72" x2="297.05" y2="170.04" style="stroke-width: 1.5;stroke: rgb(0,0,0);stroke-opacity: 0.5;stroke-linecap: round;stroke-linejoin: round;shape-rendering:geometricPrecision;" transform="matrix(1,0,0,1,0,0)" clip-path="url(#_109027317585423clip-2)"/><line x1="297.05" y1="170.04" x2="318.63" y2="169.24" style="stroke-width: 1.5;stroke: rgb(0,0,0);stroke-opacity: 0.5;stroke-linecap: round;stroke-linejoin: round;shape-rendering:geometricPrecision;" transform="matrix(1,0,0,1,0,0)" clip-path="url(#_109027317585423clip-2)"/><line x1="318.63" y1="169.24" x2="340.21" y2="169.29" style="stroke-width: 1.5;stroke: rgb(0,0,0);stroke-opacity: 0.5;stroke-linecap: round;stroke-linejoin: round;shape-rendering:geometricPrecision;" transform="matrix(1,0,0,1,0,0)" clip-path="url(#_109027317585423clip-2)"/><line x1="340.21" y1="169.29" x2="361.79" y2="170.12" style="stroke-width: 1.5;stroke: rgb(0,0,0);stroke-opacity: 0.5;stroke-linecap: round;stroke-linejoin: round;shape-rendering:geometricPrecision;" transform="matrix(1,0,0,1,0,0)" clip-path="url(#_109027317585423clip-2)"/><line x1="361.79" y1="170.12" x2="383.37" y2="171.64" style="stroke-width: 1.5;stroke: rgb(0,0,0);stroke-opacity: 0.5;stroke-linecap: round;stroke-linejoin: round;shape-rendering:geometricPrecision;" transform="matrix(1,0,0,1,0,0)" clip-path="url(#_109027317585423clip-2)"/><line x1="383.37" y1="171.64" x2="404.95" y2="173.77" style="stroke-width: 1.5;stroke: rgb(0,0,0);stroke-opacity: 0.5;stroke-linecap: round;stroke-linejoin: round;shape-rendering:geometricPrecision;" transform="matrix(1,0,0,1,0,0)" clip-path="url(#_109027317585423clip-2)"/><line x1="404.95" y1="173.77" x2="426.53" y2="176.45" style="stroke-width: 1.5;stroke: rgb(0,0,0);stroke-opacity: 0.5;stroke-linecap: round;stroke-linejoin: round;shape-rendering:geometricPrecision;" transform="matrix(1,0,0,1,0,0)" clip-path="url(#_109027317585423clip-2)"/><line x1="426.53" y1="176.45" x2="448.11" y2="179.6" style="stroke-width: 1.5;stroke: rgb(0,0,0);stroke-opacity: 0.5;stroke-linecap: round;stroke-linejoin: round;shape-rendering:geometricPrecision;" transform="matrix(1,0,0,1,0,0)" clip-path="url(#_109027317585423clip-2)"/><line x1="448.11" y1="179.6" x2="469.68" y2="183.13" style="stroke-width: 1.5;stroke: rgb(0,0,0);stroke-opacity: 0.5;stroke-linecap: round;stroke-linejoin: round;shape-rendering:geometricPrecision;" transform="matrix(1,0,0,1,0,0)" clip-path="url(#_109027317585423clip-2)"/><line x1="469.68" y1="183.13" x2="491.26" y2="186.96" style="stroke-width: 1.5;stroke: rgb(0,0,0);stroke-opacity: 0.5;stroke-linecap: round;stroke-linejoin: round;shape-rendering:geometricPrecision;" transform="matrix(1,0,0,1,0,0)" clip-path="url(#_109027317585423clip-2)"/><line x1="491.26" y1="186.96" x2="512.84" y2="191.03" style="stroke-width: 1.5;stroke: rgb(0,0,0);stroke-opacity: 0.5;stroke-linecap: round;stroke-linejoin: round;shape-rendering:geometricPrecision;" transform="matrix(1,0,0,1,0,0)" clip-path="url(#_109027317585423clip-2)"/><line x1="512.84" y1="191.03" x2="534.42" y2="195.26" style="stroke-width: 1.5;stroke: rgb(0,0,0);stroke-opacity: 0.5;stroke-linecap: round;stroke-linejoin: round;shape-rendering:geometricPrecision;" transform="matrix(1,0,0,1,0,0)" clip-path="url(#_109027317585423clip-2)"/><line x1="534.42" y1="195.26" x2="556" y2="199.56" style="stroke-width: 1.5;stroke: rgb(0,0,0);stroke-opacity: 0.5;stroke-linecap: round;stroke-linejoin: round;shape-rendering:geometricPrecision;" transform="matrix(1,0,0,1,0,0)" clip-path="url(#_109027317585423clip-2)"/><line x1="556" y1="199.56" x2="556" y2="435.44" style="stroke-width: 1.5;stroke: rgb(0,0,0);stroke-opacity: 0.5;stroke-linecap: round;stroke-linejoin: round;shape-rendering:geometricPrecision;" transform="matrix(1,0,0,1,0,0)" clip-path="url(#_109027317585423clip-2)"/><line x1="556" y1="435.44" x2="534.42" y2="439.74" style="stroke-width: 1.5;stroke: rgb(0,0,0);stroke-opacity: 0.5;stroke-linecap: round;stroke-linejoin: round;shape-rendering:geometricPrecision;" transform="matrix(1,0,0,1,0,0)" clip-path="url(#_109027317585423clip-2)"/><line x1="534.42" y1="439.74" x2="512.84" y2="443.97" style="stroke-width: 1.5;stroke: rgb(0,0,0);stroke-opacity: 0.5;stroke-linecap: round;stroke-linejoin: round;shape-rendering:geometricPrecision;" transform="matrix(1,0,0,1,0,0)" clip-path="url(#_109027317585423clip-2)"/><line x1="512.84" y1="443.97" x2="491.26" y2="448.04" style="stroke-width: 1.5;stroke: rgb(0,0,0);stroke-opacity: 0.5;stroke-linecap: round;stroke-linejoin: round;shape-rendering:geometricPrecision;" transform="matrix(1,0,0,1,0,0)" clip-path="url(#_109027317585423clip-2)"/><line x1="491.26" y1="448.04" x2="469.68" y2="451.87" style="stroke-width: 1.5;stroke: rgb(0,0,0);stroke-opacity: 0.5;stroke-linecap: round;stroke-linejoin: round;shape-rendering:geometricPrecision;" transform="matrix(1,0,0,1,0,0)" clip-path="url(#_109027317585423clip-2)"/><line x1="469.68" y1="451.87" x2="448.11" y2="455.4" style="stroke-width: 1.5;stroke: rgb(0,0,0);stroke-opacity: 0.5;stroke-linecap: round;stroke-linejoin: round;shape-rendering:geometricPrecision;" transform="matrix(1,0,0,1,0,0)" clip-path="url(#_109027317585423clip-2)"/><line x1="448.11" y1="455.4" x2="426.53" y2="458.55" style="stroke-width: 1.5;stroke: rgb(0,0,0);stroke-opacity: 0.5;stroke-linecap: round;stroke-linejoin: round;shape-rendering:geometricPrecision;" transform="matrix(1,0,0,1,0,0)" clip-path="url(#_109027317585423clip-2)"/><line x1="426.53" y1="458.55" x2="404.95" y2="461.23" style="stroke-width: 1.5;stroke: rgb(0,0,0);stroke-opacity: 0.5;stroke-linecap: round;stroke-linejoin: round;shape-rendering:geometricPrecision;" transform="matrix(1,0,0,1,0,0)" clip-path="url(#_109027317585423clip-2)"/><line x1="404.95" y1="461.23" x2="383.37" y2="463.36" style="stroke-width: 1.5;stroke: rgb(0,0,0);stroke-opacity: 0.5;stroke-linecap: round;stroke-linejoin: round;shape-rendering:geometricPrecision;" transform="matrix(1,0,0,1,0,0)" clip-path="url(#_109027317585423clip-2)"/><line x1="383.37" y1="463.36" x2="361.79" y2="464.88" style="stroke-width: 1.5;stroke: rgb(0,0,0);stroke-opacity: 0.5;stroke-linecap: round;stroke-linejoin: round;shape-rendering:geometricPrecision;" transform="matrix(1,0,0,1,0,0)" clip-path="url(#_109027317585423clip-2)"/><line x1="361.79" y1="464.88" x2="340.21" y2="465.71" style="stroke-width: 1.5;stroke: rgb(0,0,0);stroke-opacity: 0.5;stroke-linecap: round;stroke-linejoin: round;shape-rendering:geometricPrecision;" transform="matrix(1,0,0,1,0,0)" clip-path="url(#_109027317585423clip-2)"/><line x1="340.21" y1="465.71" x2="318.63" y2="465.76" style="stroke-width: 1.5;stroke: rgb(0,0,0);stroke-opacity: 0.5;stroke-linecap: round;stroke-linejoin: round;shape-rendering:geometricPrecision;" transform="matrix(1,0,0,1,0,0)" clip-path="url(#_109027317585423clip-2)"/><line x1="318.63" y1="465.76" x2="297.05" y2="464.96" style="stroke-width: 1.5;stroke: rgb(0,0,0);stroke-opacity: 0.5;stroke-linecap: round;stroke-linejoin: round;shape-rendering:geometricPrecision;" transform="matrix(1,0,0,1,0,0)" clip-path="url(#_109027317585423clip-2)"/><line x1="297.05" y1="464.96" x2="275.47" y2="463.28" style="stroke-width: 1.5;stroke: rgb(0,0,0);stroke-opacity: 0.5;stroke-linecap: round;stroke-linejoin: round;shape-rendering:geometricPrecision;" transform="matrix(1,0,0,1,0,0)" clip-path="url(#_109027317585423clip-2)"/><line x1="275.47" y1="463.28" x2="253.89" y2="460.83" style="stroke-width: 1.5;stroke: rgb(0,0,0);stroke-opacity: 0.5;stroke-linecap: round;stroke-linejoin: round;shape-rendering:geometricPrecision;" transform="matrix(1,0,0,1,0,0)" clip-path="url(#_109027317585423clip-2)"/><line x1="253.89" y1="460.83" x2="232.32" y2="457.73" style="stroke-width: 1.5;stroke: rgb(0,0,0);stroke-opacity: 0.5;stroke-linecap: round;stroke-linejoin: round;shape-rendering:geometricPrecision;" transform="matrix(1,0,0,1,0,0)" clip-path="url(#_109027317585423clip-2)"/><line x1="232.32" y1="457.73" x2="210.74" y2="454.12" style="stroke-width: 1.5;stroke: rgb(0,0,0);stroke-opacity: 0.5;stroke-linecap: round;stroke-linejoin: round;shape-rendering:geometricPrecision;" transform="matrix(1,0,0,1,0,0)" clip-path="url(#_109027317585423clip-2)"/><line x1="210.74" y1="454.12" x2="189.16" y2="450.13" style="stroke-width: 1.5;stroke: rgb(0,0,0);stroke-opacity: 0.5;stroke-linecap: round;stroke-linejoin: round;shape-rendering:geometricPrecision;" transform="matrix(1,0,0,1,0,0)" clip-path="url(#_109027317585423clip-2)"/><line x1="189.16" y1="450.13" x2="167.58" y2="445.87" style="stroke-width: 1.5;stroke: rgb(0,0,0);stroke-opacity: 0.5;stroke-linecap: round;stroke-linejoin: round;shape-rendering:geometricPrecision;" transform="matrix(1,0,0,1,0,0)" clip-path="url(#_109027317585423clip-2)"/><line x1="167.58" y1="445.87" x2="146" y2="441.49" style="stroke-width: 1.5;stroke: rgb(0,0,0);stroke-opacity: 0.5;stroke-linecap: round;stroke-linejoin: round;shape-rendering:geometricPrecision;" transform="matrix(1,0,0,1,0,0)" clip-path="url(#_109027317585423clip-2)"/><line x1="146" y1="441.49" x2="146" y2="193.51" style="stroke-width: 1.5;stroke: rgb(0,0,0);stroke-opacity: 0.5;stroke-linecap: round;stroke-linejoin: round;shape-rendering:geometricPrecision;" transform="matrix(1,0,0,1,0,0)" clip-path="url(#_109027317585423clip-2)"/><g style="fill: rgb(255,127,80); fill-opacity: 0.5; stroke: none" transform="matrix(1,0,0,1,0,0)" clip-path="url(#_109027317585423clip-2)"><path d="M 146 193.51 L 146 193.51 L 167.58 189.13 L 189.16 184.87 L 210.74 180.88 L 232.32 177.27 L 253.89 174.17 L 275.47 171.72 L 297.05 170.04 L 318.63 169.24 L 340.21 169.29 L 361.79 170.12 L 383.37 171.64 L 404.95 173.77 L 426.53 176.45 L 448.11 179.6 L 469.68 183.13 L 491.26 186.96 L 512.84 191.03 L 534.42 195.26 L 556 199.56 L 556 435.44 L 534.42 439.74 L 512.84 443.97 L 491.26 448.04 L 469.68 451.87 L 448.11 455.4 L 426.53 458.55 L 404.95 461.23 L 383.37 463.36 L 361.79 464.88 L 340.21 465.71 L 318.63 465.76 L 297.05 464.96 L 275.47 463.28 L 253.89 460.83 L 232.32 457.73 L 210.74 454.12 L 189.16 450.13 L 167.58 445.87 L 146 441.49 L 146 193.51 L 146 193.51 Z "/></g><rect x="64" y="35" width="574" height="565" style="stroke-width: 0.5;stroke: rgb(0,0,0);stroke-opacity: 1.0;stroke-linecap: round;stroke-linejoin: round;shape-rendering:crispEdges;; fill: none" transform="matrix(1,0,0,1,0,0)" clip-path="url(#_109027317585423clip-0)"/></svg>
