<!DOCTYPE svg PUBLIC "-//W3C//DTD SVG 1.1//EN" "http://www.w3.org/Graphics/SVG/1.1/DTD/svg11.dtd">
<svg xmlns="http://www.w3.org/2000/svg" xmlns:xlink="http://www.w3.org/1999/xlink" xmlns:jfreesvg="http://www.jfree.org/jfreesvg/svg" width="1152" height="768" text-rendering="auto" shape-rendering="auto">
<defs><clipPath id="_159135002604091clip-0"><path d="M 0 0 L 1152 0 L 1152 768 L 0 768 L 0 0 Z "/></clipPath>
<clipPath id="_159135002604091clip-1"><path d="M 370.5 309.5 L 370.5 1461.5 L -397.5 1461.5 L -397.5 309.5 L 370.5 309.5 Z "/></clipPath>
<clipPath id="_159135002604091clip-2"><path d="M 141 35 L 141 645 L 1140 645 L 1140 35 Z "/></clipPath>
</defs>
<rect x="0" y="0" width="1152" height="768" style="fill: rgb(255,255,255); fill-opacity: 1.0" transform="matrix(1,0,0,1,0,0)" clip-path="url(#_159135002604091clip-0)"/><g transform="matrix(1,0,0,1,0,0)"><text x="349" y="21.01" style="fill: rgb(0,0,0); fill-opacity: 1.0; font-family: Tahoma; font-size: 20px; font-weight: bold;" clip-path="url(#_159135002604091clip-0)">Max_Climb_Angle_envelope_AEO_IMPERIAL</text></g><rect x="352" y="735" width="448" height="32" style="fill: rgb(255,255,255); fill-opacity: 1.0" transform="matrix(1,0,0,1,0,0)" clip-path="url(#_159135002604091clip-0)"/><g style="stroke-width: 3.0;stroke: rgb(0,0,0);stroke-opacity: 1.0;stroke-linecap: square;shape-rendering:geometricPrecision;; fill: none" transform="matrix(1,0,0,1,0,0)" clip-path="url(#_159135002604091clip-0)"><path d="M 355 751 L 369 751"/></g><g transform="matrix(1,0,0,1,0,0)"><text x="373" y="758.11" style="fill: rgb(64,64,64); fill-opacity: 1.0; font-family: sans-serif; font-size: 20px;" clip-path="url(#_159135002604091clip-0)"> Max_Climb_Angle_envelope_AEO_IMPERIAL </text></g><rect x="141" y="35" width="999" height="610" style="fill: rgb(255,255,255); fill-opacity: 0.0" transform="matrix(1,0,0,1,0,0)" clip-path="url(#_159135002604091clip-0)"/><line x1="141" y1="649" x2="1140" y2="649" style="stroke-width: 0.5;stroke: rgb(128,128,128);stroke-opacity: 1.0;stroke-linecap: square;shape-rendering:crispEdges;" transform="matrix(1,0,0,1,0,0)" clip-path="url(#_159135002604091clip-0)"/><g transform="matrix(1,0,0,1,0,0)"><text x="117.9" y="679.69" style="fill: rgb(64,64,64); fill-opacity: 1.0; font-family: sans-serif; font-size: 25px;" clip-path="url(#_159135002604091clip-0)">-0,02</text></g><line x1="146.4" y1="651" x2="146.4" y2="649" style="stroke-width: 0.5;stroke: rgb(128,128,128);stroke-opacity: 1.0;stroke-linecap: square;shape-rendering:crispEdges;" transform="matrix(1,0,0,1,0,0)" clip-path="url(#_159135002604091clip-0)"/><g transform="matrix(1,0,0,1,0,0)"><text x="199.75" y="679.69" style="fill: rgb(64,64,64); fill-opacity: 1.0; font-family: sans-serif; font-size: 25px;" clip-path="url(#_159135002604091clip-0)">0,00</text></g><line x1="224.25" y1="651" x2="224.25" y2="649" style="stroke-width: 0.5;stroke: rgb(128,128,128);stroke-opacity: 1.0;stroke-linecap: square;shape-rendering:crispEdges;" transform="matrix(1,0,0,1,0,0)" clip-path="url(#_159135002604091clip-0)"/><g transform="matrix(1,0,0,1,0,0)"><text x="277.6" y="679.69" style="fill: rgb(64,64,64); fill-opacity: 1.0; font-family: sans-serif; font-size: 25px;" clip-path="url(#_159135002604091clip-0)">0,02</text></g><line x1="302.1" y1="651" x2="302.1" y2="649" style="stroke-width: 0.5;stroke: rgb(128,128,128);stroke-opacity: 1.0;stroke-linecap: square;shape-rendering:crispEdges;" transform="matrix(1,0,0,1,0,0)" clip-path="url(#_159135002604091clip-0)"/><g transform="matrix(1,0,0,1,0,0)"><text x="355.44" y="679.69" style="fill: rgb(64,64,64); fill-opacity: 1.0; font-family: sans-serif; font-size: 25px;" clip-path="url(#_159135002604091clip-0)">0,04</text></g><line x1="379.94" y1="651" x2="379.94" y2="649" style="stroke-width: 0.5;stroke: rgb(128,128,128);stroke-opacity: 1.0;stroke-linecap: square;shape-rendering:crispEdges;" transform="matrix(1,0,0,1,0,0)" clip-path="url(#_159135002604091clip-0)"/><g transform="matrix(1,0,0,1,0,0)"><text x="433.29" y="679.69" style="fill: rgb(64,64,64); fill-opacity: 1.0; font-family: sans-serif; font-size: 25px;" clip-path="url(#_159135002604091clip-0)">0,06</text></g><line x1="457.79" y1="651" x2="457.79" y2="649" style="stroke-width: 0.5;stroke: rgb(128,128,128);stroke-opacity: 1.0;stroke-linecap: square;shape-rendering:crispEdges;" transform="matrix(1,0,0,1,0,0)" clip-path="url(#_159135002604091clip-0)"/><g transform="matrix(1,0,0,1,0,0)"><text x="511.14" y="679.69" style="fill: rgb(64,64,64); fill-opacity: 1.0; font-family: sans-serif; font-size: 25px;" clip-path="url(#_159135002604091clip-0)">0,08</text></g><line x1="535.64" y1="651" x2="535.64" y2="649" style="stroke-width: 0.5;stroke: rgb(128,128,128);stroke-opacity: 1.0;stroke-linecap: square;shape-rendering:crispEdges;" transform="matrix(1,0,0,1,0,0)" clip-path="url(#_159135002604091clip-0)"/><g transform="matrix(1,0,0,1,0,0)"><text x="588.99" y="679.69" style="fill: rgb(64,64,64); fill-opacity: 1.0; font-family: sans-serif; font-size: 25px;" clip-path="url(#_159135002604091clip-0)">0,10</text></g><line x1="613.49" y1="651" x2="613.49" y2="649" style="stroke-width: 0.5;stroke: rgb(128,128,128);stroke-opacity: 1.0;stroke-linecap: square;shape-rendering:crispEdges;" transform="matrix(1,0,0,1,0,0)" clip-path="url(#_159135002604091clip-0)"/><g transform="matrix(1,0,0,1,0,0)"><text x="666.83" y="679.69" style="fill: rgb(64,64,64); fill-opacity: 1.0; font-family: sans-serif; font-size: 25px;" clip-path="url(#_159135002604091clip-0)">0,12</text></g><line x1="691.33" y1="651" x2="691.33" y2="649" style="stroke-width: 0.5;stroke: rgb(128,128,128);stroke-opacity: 1.0;stroke-linecap: square;shape-rendering:crispEdges;" transform="matrix(1,0,0,1,0,0)" clip-path="url(#_159135002604091clip-0)"/><g transform="matrix(1,0,0,1,0,0)"><text x="744.68" y="679.69" style="fill: rgb(64,64,64); fill-opacity: 1.0; font-family: sans-serif; font-size: 25px;" clip-path="url(#_159135002604091clip-0)">0,14</text></g><line x1="769.18" y1="651" x2="769.18" y2="649" style="stroke-width: 0.5;stroke: rgb(128,128,128);stroke-opacity: 1.0;stroke-linecap: square;shape-rendering:crispEdges;" transform="matrix(1,0,0,1,0,0)" clip-path="url(#_159135002604091clip-0)"/><g transform="matrix(1,0,0,1,0,0)"><text x="822.53" y="679.69" style="fill: rgb(64,64,64); fill-opacity: 1.0; font-family: sans-serif; font-size: 25px;" clip-path="url(#_159135002604091clip-0)">0,16</text></g><line x1="847.03" y1="651" x2="847.03" y2="649" style="stroke-width: 0.5;stroke: rgb(128,128,128);stroke-opacity: 1.0;stroke-linecap: square;shape-rendering:crispEdges;" transform="matrix(1,0,0,1,0,0)" clip-path="url(#_159135002604091clip-0)"/><g transform="matrix(1,0,0,1,0,0)"><text x="900.38" y="679.69" style="fill: rgb(64,64,64); fill-opacity: 1.0; font-family: sans-serif; font-size: 25px;" clip-path="url(#_159135002604091clip-0)">0,18</text></g><line x1="924.88" y1="651" x2="924.88" y2="649" style="stroke-width: 0.5;stroke: rgb(128,128,128);stroke-opacity: 1.0;stroke-linecap: square;shape-rendering:crispEdges;" transform="matrix(1,0,0,1,0,0)" clip-path="url(#_159135002604091clip-0)"/><g transform="matrix(1,0,0,1,0,0)"><text x="978.22" y="679.69" style="fill: rgb(64,64,64); fill-opacity: 1.0; font-family: sans-serif; font-size: 25px;" clip-path="url(#_159135002604091clip-0)">0,20</text></g><line x1="1002.72" y1="651" x2="1002.72" y2="649" style="stroke-width: 0.5;stroke: rgb(128,128,128);stroke-opacity: 1.0;stroke-linecap: square;shape-rendering:crispEdges;" transform="matrix(1,0,0,1,0,0)" clip-path="url(#_159135002604091clip-0)"/><g transform="matrix(1,0,0,1,0,0)"><text x="1056.07" y="679.69" style="fill: rgb(64,64,64); fill-opacity: 1.0; font-family: sans-serif; font-size: 25px;" clip-path="url(#_159135002604091clip-0)">0,22</text></g><line x1="1080.57" y1="651" x2="1080.57" y2="649" style="stroke-width: 0.5;stroke: rgb(128,128,128);stroke-opacity: 1.0;stroke-linecap: square;shape-rendering:crispEdges;" transform="matrix(1,0,0,1,0,0)" clip-path="url(#_159135002604091clip-0)"/><g transform="matrix(1,0,0,1,0,0)"><text x="454.5" y="718.87" style="fill: rgb(64,64,64); fill-opacity: 1.0; font-family: sans-serif; font-size: 30px;" clip-path="url(#_159135002604091clip-0)">Maximum Climb Angle (rad)</text></g><line x1="137" y1="35" x2="137" y2="645" style="stroke-width: 0.5;stroke: rgb(128,128,128);stroke-opacity: 1.0;stroke-linecap: square;shape-rendering:crispEdges;" transform="matrix(1,0,0,1,0,0)" clip-path="url(#_159135002604091clip-0)"/><g transform="matrix(1,0,0,1,0,0)"><text x="117" y="604.36" style="fill: rgb(64,64,64); fill-opacity: 1.0; font-family: sans-serif; font-size: 25px;" clip-path="url(#_159135002604091clip-0)">0</text></g><line x1="135" y1="594.17" x2="137" y2="594.17" style="stroke-width: 0.5;stroke: rgb(128,128,128);stroke-opacity: 1.0;stroke-linecap: square;shape-rendering:crispEdges;" transform="matrix(1,0,0,1,0,0)" clip-path="url(#_159135002604091clip-0)"/><g transform="matrix(1,0,0,1,0,0)"><text x="68" y="519.63" style="fill: rgb(64,64,64); fill-opacity: 1.0; font-family: sans-serif; font-size: 25px;" clip-path="url(#_159135002604091clip-0)">5.000</text></g><line x1="135" y1="509.44" x2="137" y2="509.44" style="stroke-width: 0.5;stroke: rgb(128,128,128);stroke-opacity: 1.0;stroke-linecap: square;shape-rendering:crispEdges;" transform="matrix(1,0,0,1,0,0)" clip-path="url(#_159135002604091clip-0)"/><g transform="matrix(1,0,0,1,0,0)"><text x="55" y="434.91" style="fill: rgb(64,64,64); fill-opacity: 1.0; font-family: sans-serif; font-size: 25px;" clip-path="url(#_159135002604091clip-0)">10.000</text></g><line x1="135" y1="424.72" x2="137" y2="424.72" style="stroke-width: 0.5;stroke: rgb(128,128,128);stroke-opacity: 1.0;stroke-linecap: square;shape-rendering:crispEdges;" transform="matrix(1,0,0,1,0,0)" clip-path="url(#_159135002604091clip-0)"/><g transform="matrix(1,0,0,1,0,0)"><text x="55" y="350.19" style="fill: rgb(64,64,64); fill-opacity: 1.0; font-family: sans-serif; font-size: 25px;" clip-path="url(#_159135002604091clip-0)">15.000</text></g><line x1="135" y1="340" x2="137" y2="340" style="stroke-width: 0.5;stroke: rgb(128,128,128);stroke-opacity: 1.0;stroke-linecap: square;shape-rendering:crispEdges;" transform="matrix(1,0,0,1,0,0)" clip-path="url(#_159135002604091clip-0)"/><g transform="matrix(1,0,0,1,0,0)"><text x="55" y="265.47" style="fill: rgb(64,64,64); fill-opacity: 1.0; font-family: sans-serif; font-size: 25px;" clip-path="url(#_159135002604091clip-0)">20.000</text></g><line x1="135" y1="255.28" x2="137" y2="255.28" style="stroke-width: 0.5;stroke: rgb(128,128,128);stroke-opacity: 1.0;stroke-linecap: square;shape-rendering:crispEdges;" transform="matrix(1,0,0,1,0,0)" clip-path="url(#_159135002604091clip-0)"/><g transform="matrix(1,0,0,1,0,0)"><text x="55" y="180.74" style="fill: rgb(64,64,64); fill-opacity: 1.0; font-family: sans-serif; font-size: 25px;" clip-path="url(#_159135002604091clip-0)">25.000</text></g><line x1="135" y1="170.56" x2="137" y2="170.56" style="stroke-width: 0.5;stroke: rgb(128,128,128);stroke-opacity: 1.0;stroke-linecap: square;shape-rendering:crispEdges;" transform="matrix(1,0,0,1,0,0)" clip-path="url(#_159135002604091clip-0)"/><g transform="matrix(1,0,0,1,0,0)"><text x="55" y="96.02" style="fill: rgb(64,64,64); fill-opacity: 1.0; font-family: sans-serif; font-size: 25px;" clip-path="url(#_159135002604091clip-0)">30.000</text></g><line x1="135" y1="85.83" x2="137" y2="85.83" style="stroke-width: 0.5;stroke: rgb(128,128,128);stroke-opacity: 1.0;stroke-linecap: square;shape-rendering:crispEdges;" transform="matrix(1,0,0,1,0,0)" clip-path="url(#_159135002604091clip-0)"/><g style="fill: rgb(64,64,64); fill-opacity: 1.0; stroke: none" transform="matrix(0,-1,1,0,-309.5,370.5)" clip-path="url(#_159135002604091clip-1)"><path d="M -42.05 351.93 L -33.8 330.46 L -30.73 330.46 L -21.95 351.93 L -25.19 351.93 L -27.69 345.43 L -36.67 345.43 L -39.03 351.93 L -42.05 351.93 Z  M -35.84 343.11 L -28.56 343.11 L -30.81 337.16 Q -31.83 334.46 -32.33 332.71 Q -32.73 334.77 -33.48 336.8 L -35.84 343.11 Z  M -20.07 351.93 L -20.07 330.46 L -17.43 330.46 L -17.43 351.93 L -20.07 351.93 Z  M -7.59 349.57 L -7.22 351.9 Q -8.33 352.13 -9.2 352.13 Q -10.64 352.13 -11.43 351.68 Q -12.22 351.22 -12.54 350.48 Q -12.86 349.74 -12.86 347.36 L -12.86 338.43 L -14.79 338.43 L -14.79 336.36 L -12.86 336.36 L -12.86 332.52 L -10.25 330.94 L -10.25 336.36 L -7.59 336.36 L -7.59 338.43 L -10.25 338.43 L -10.25 347.52 Q -10.25 348.65 -10.11 348.97 Q -9.97 349.29 -9.65 349.48 Q -9.34 349.68 -8.75 349.68 Q -8.31 349.68 -7.59 349.57 Z  M -4.99 333.49 L -4.99 330.46 L -2.37 330.46 L -2.37 333.49 L -4.99 333.49 Z  M -4.99 351.93 L -4.99 336.36 L -2.37 336.36 L -2.37 351.93 L -4.99 351.93 Z  M 7.41 349.57 L 7.78 351.9 Q 6.67 352.13 5.8 352.13 Q 4.36 352.13 3.57 351.68 Q 2.78 351.22 2.46 350.48 Q 2.14 349.74 2.14 347.36 L 2.14 338.43 L 0.21 338.43 L 0.21 336.36 L 2.14 336.36 L 2.14 332.52 L 4.75 330.94 L 4.75 336.36 L 7.41 336.36 L 7.41 338.43 L 4.75 338.43 L 4.75 347.52 Q 4.75 348.65 4.89 348.97 Q 5.03 349.29 5.35 349.48 Q 5.66 349.68 6.25 349.68 Q 6.69 349.68 7.41 349.57 Z  M 20.18 351.93 L 20.18 349.65 Q 18.37 352.29 15.24 352.29 Q 13.87 352.29 12.67 351.75 Q 11.48 351.22 10.9 350.43 Q 10.32 349.63 10.09 348.47 Q 9.93 347.69 9.93 346 L 9.93 336.36 L 12.57 336.36 L 12.57 345 Q 12.57 347.07 12.73 347.79 Q 12.98 348.82 13.78 349.41 Q 14.59 350 15.78 350 Q 16.96 350 18 349.4 Q 19.04 348.79 19.47 347.74 Q 19.9 346.69 19.9 344.71 L 19.9 336.36 L 22.54 336.36 L 22.54 351.93 L 20.18 351.93 Z  M 36.77 351.93 L 36.77 349.96 Q 35.29 352.29 32.41 352.29 Q 30.55 352.29 28.99 351.25 Q 27.43 350.22 26.58 348.39 Q 25.73 346.55 25.73 344.16 Q 25.73 341.83 26.5 339.93 Q 27.27 338.04 28.83 337.03 Q 30.38 336.02 32.3 336.02 Q 33.71 336.02 34.8 336.61 Q 35.9 337.21 36.58 338.16 L 36.58 330.46 L 39.21 330.46 L 39.21 351.93 L 36.77 351.93 Z  M 28.43 344.16 Q 28.43 347.15 29.69 348.63 Q 30.94 350.11 32.66 350.11 Q 34.4 350.11 35.6 348.7 Q 36.8 347.29 36.8 344.38 Q 36.8 341.19 35.58 339.7 Q 34.35 338.21 32.55 338.21 Q 30.79 338.21 29.61 339.64 Q 28.43 341.07 28.43 344.16 Z  M 54 346.91 L 56.74 347.25 Q 56.08 349.65 54.34 350.97 Q 52.6 352.29 49.89 352.29 Q 46.47 352.29 44.47 350.18 Q 42.47 348.07 42.47 344.29 Q 42.47 340.35 44.5 338.18 Q 46.52 336.02 49.74 336.02 Q 52.86 336.02 54.84 338.15 Q 56.82 340.27 56.82 344.11 Q 56.82 344.35 56.8 344.82 L 45.21 344.82 Q 45.35 347.38 46.65 348.75 Q 47.96 350.11 49.91 350.11 Q 51.35 350.11 52.38 349.35 Q 53.41 348.58 54 346.91 Z  M 45.35 342.66 L 54.04 342.66 Q 53.86 340.69 53.04 339.71 Q 51.79 338.19 49.77 338.19 Q 47.96 338.19 46.72 339.4 Q 45.49 340.61 45.35 342.66 Z  M 73.41 358.24 Q 71.23 355.49 69.72 351.79 Q 68.21 348.1 68.21 344.15 Q 68.21 340.66 69.34 337.47 Q 70.66 333.75 73.41 330.08 L 75.3 330.08 Q 73.54 333.13 72.96 334.44 Q 72.07 336.46 71.55 338.66 Q 70.93 341.4 70.93 344.16 Q 70.93 351.21 75.3 358.24 L 73.41 358.24 Z  M 79 351.93 L 79 338.43 L 76.67 338.43 L 76.67 336.36 L 79 336.36 L 79 334.71 Q 79 333.15 79.28 332.38 Q 79.65 331.36 80.62 330.72 Q 81.58 330.08 83.31 330.08 Q 84.42 330.08 85.76 330.35 L 85.37 332.65 Q 84.54 332.5 83.81 332.5 Q 82.61 332.5 82.12 333.01 Q 81.62 333.52 81.62 334.93 L 81.62 336.36 L 84.65 336.36 L 84.65 338.43 L 81.62 338.43 L 81.62 351.93 L 79 351.93 Z  M 92.46 349.57 L 92.83 351.9 Q 91.72 352.13 90.85 352.13 Q 89.41 352.13 88.62 351.68 Q 87.83 351.22 87.51 350.48 Q 87.19 349.74 87.19 347.36 L 87.19 338.43 L 85.25 338.43 L 85.25 336.36 L 87.19 336.36 L 87.19 332.52 L 89.8 330.94 L 89.8 336.36 L 92.46 336.36 L 92.46 338.43 L 89.8 338.43 L 89.8 347.52 Q 89.8 348.65 89.94 348.97 Q 90.08 349.29 90.4 349.48 Q 90.71 349.68 91.3 349.68 Q 91.74 349.68 92.46 349.57 Z  M 96.76 358.24 L 94.87 358.24 Q 99.26 351.21 99.26 344.16 Q 99.26 341.41 98.62 338.69 Q 98.12 336.5 97.23 334.47 Q 96.67 333.16 94.87 330.08 L 96.76 330.08 Q 99.51 333.75 100.84 337.47 Q 101.96 340.66 101.96 344.15 Q 101.96 348.1 100.45 351.79 Q 98.93 355.49 96.76 358.24 Z "/></g><line x1="146.4" y1="35" x2="146.4" y2="645" style="stroke-width: 0.5;stroke: rgb(192,192,192);stroke-opacity: 1.0;stroke-linejoin: bevel;stroke-dasharray: 2.0, 2.0;shape-rendering:crispEdges;" transform="matrix(1,0,0,1,0,0)" clip-path="url(#_159135002604091clip-2)"/><line x1="224.25" y1="35" x2="224.25" y2="645" style="stroke-width: 0.5;stroke: rgb(192,192,192);stroke-opacity: 1.0;stroke-linejoin: bevel;stroke-dasharray: 2.0, 2.0;shape-rendering:crispEdges;" transform="matrix(1,0,0,1,0,0)" clip-path="url(#_159135002604091clip-2)"/><line x1="302.1" y1="35" x2="302.1" y2="645" style="stroke-width: 0.5;stroke: rgb(192,192,192);stroke-opacity: 1.0;stroke-linejoin: bevel;stroke-dasharray: 2.0, 2.0;shape-rendering:crispEdges;" transform="matrix(1,0,0,1,0,0)" clip-path="url(#_159135002604091clip-2)"/><line x1="379.94" y1="35" x2="379.94" y2="645" style="stroke-width: 0.5;stroke: rgb(192,192,192);stroke-opacity: 1.0;stroke-linejoin: bevel;stroke-dasharray: 2.0, 2.0;shape-rendering:crispEdges;" transform="matrix(1,0,0,1,0,0)" clip-path="url(#_159135002604091clip-2)"/><line x1="457.79" y1="35" x2="457.79" y2="645" style="stroke-width: 0.5;stroke: rgb(192,192,192);stroke-opacity: 1.0;stroke-linejoin: bevel;stroke-dasharray: 2.0, 2.0;shape-rendering:crispEdges;" transform="matrix(1,0,0,1,0,0)" clip-path="url(#_159135002604091clip-2)"/><line x1="535.64" y1="35" x2="535.64" y2="645" style="stroke-width: 0.5;stroke: rgb(192,192,192);stroke-opacity: 1.0;stroke-linejoin: bevel;stroke-dasharray: 2.0, 2.0;shape-rendering:crispEdges;" transform="matrix(1,0,0,1,0,0)" clip-path="url(#_159135002604091clip-2)"/><line x1="613.49" y1="35" x2="613.49" y2="645" style="stroke-width: 0.5;stroke: rgb(192,192,192);stroke-opacity: 1.0;stroke-linejoin: bevel;stroke-dasharray: 2.0, 2.0;shape-rendering:crispEdges;" transform="matrix(1,0,0,1,0,0)" clip-path="url(#_159135002604091clip-2)"/><line x1="691.33" y1="35" x2="691.33" y2="645" style="stroke-width: 0.5;stroke: rgb(192,192,192);stroke-opacity: 1.0;stroke-linejoin: bevel;stroke-dasharray: 2.0, 2.0;shape-rendering:crispEdges;" transform="matrix(1,0,0,1,0,0)" clip-path="url(#_159135002604091clip-2)"/><line x1="769.18" y1="35" x2="769.18" y2="645" style="stroke-width: 0.5;stroke: rgb(192,192,192);stroke-opacity: 1.0;stroke-linejoin: bevel;stroke-dasharray: 2.0, 2.0;shape-rendering:crispEdges;" transform="matrix(1,0,0,1,0,0)" clip-path="url(#_159135002604091clip-2)"/><line x1="847.03" y1="35" x2="847.03" y2="645" style="stroke-width: 0.5;stroke: rgb(192,192,192);stroke-opacity: 1.0;stroke-linejoin: bevel;stroke-dasharray: 2.0, 2.0;shape-rendering:crispEdges;" transform="matrix(1,0,0,1,0,0)" clip-path="url(#_159135002604091clip-2)"/><line x1="924.88" y1="35" x2="924.88" y2="645" style="stroke-width: 0.5;stroke: rgb(192,192,192);stroke-opacity: 1.0;stroke-linejoin: bevel;stroke-dasharray: 2.0, 2.0;shape-rendering:crispEdges;" transform="matrix(1,0,0,1,0,0)" clip-path="url(#_159135002604091clip-2)"/><line x1="1002.72" y1="35" x2="1002.72" y2="645" style="stroke-width: 0.5;stroke: rgb(192,192,192);stroke-opacity: 1.0;stroke-linejoin: bevel;stroke-dasharray: 2.0, 2.0;shape-rendering:crispEdges;" transform="matrix(1,0,0,1,0,0)" clip-path="url(#_159135002604091clip-2)"/><line x1="1080.57" y1="35" x2="1080.57" y2="645" style="stroke-width: 0.5;stroke: rgb(192,192,192);stroke-opacity: 1.0;stroke-linejoin: bevel;stroke-dasharray: 2.0, 2.0;shape-rendering:crispEdges;" transform="matrix(1,0,0,1,0,0)" clip-path="url(#_159135002604091clip-2)"/><line x1="141" y1="594.17" x2="1140" y2="594.17" style="stroke-width: 0.5;stroke: rgb(192,192,192);stroke-opacity: 1.0;stroke-linejoin: bevel;stroke-dasharray: 2.0, 2.0;shape-rendering:crispEdges;" transform="matrix(1,0,0,1,0,0)" clip-path="url(#_159135002604091clip-2)"/><line x1="141" y1="509.44" x2="1140" y2="509.44" style="stroke-width: 0.5;stroke: rgb(192,192,192);stroke-opacity: 1.0;stroke-linejoin: bevel;stroke-dasharray: 2.0, 2.0;shape-rendering:crispEdges;" transform="matrix(1,0,0,1,0,0)" clip-path="url(#_159135002604091clip-2)"/><line x1="141" y1="424.72" x2="1140" y2="424.72" style="stroke-width: 0.5;stroke: rgb(192,192,192);stroke-opacity: 1.0;stroke-linejoin: bevel;stroke-dasharray: 2.0, 2.0;shape-rendering:crispEdges;" transform="matrix(1,0,0,1,0,0)" clip-path="url(#_159135002604091clip-2)"/><line x1="141" y1="340" x2="1140" y2="340" style="stroke-width: 0.5;stroke: rgb(192,192,192);stroke-opacity: 1.0;stroke-linejoin: bevel;stroke-dasharray: 2.0, 2.0;shape-rendering:crispEdges;" transform="matrix(1,0,0,1,0,0)" clip-path="url(#_159135002604091clip-2)"/><line x1="141" y1="255.28" x2="1140" y2="255.28" style="stroke-width: 0.5;stroke: rgb(192,192,192);stroke-opacity: 1.0;stroke-linejoin: bevel;stroke-dasharray: 2.0, 2.0;shape-rendering:crispEdges;" transform="matrix(1,0,0,1,0,0)" clip-path="url(#_159135002604091clip-2)"/><line x1="141" y1="170.56" x2="1140" y2="170.56" style="stroke-width: 0.5;stroke: rgb(192,192,192);stroke-opacity: 1.0;stroke-linejoin: bevel;stroke-dasharray: 2.0, 2.0;shape-rendering:crispEdges;" transform="matrix(1,0,0,1,0,0)" clip-path="url(#_159135002604091clip-2)"/><line x1="141" y1="85.83" x2="1140" y2="85.83" style="stroke-width: 0.5;stroke: rgb(192,192,192);stroke-opacity: 1.0;stroke-linejoin: bevel;stroke-dasharray: 2.0, 2.0;shape-rendering:crispEdges;" transform="matrix(1,0,0,1,0,0)" clip-path="url(#_159135002604091clip-2)"/><line x1="399.17" y1="85.83" x2="532.9" y2="206.56" style="stroke-width: 3.0;stroke: rgb(0,0,0);stroke-opacity: 1.0;stroke-linecap: square;shape-rendering:geometricPrecision;" transform="matrix(1,0,0,1,0,0)" clip-path="url(#_159135002604091clip-2)"/><line x1="532.9" y1="206.56" x2="690.65" y2="327.29" style="stroke-width: 3.0;stroke: rgb(0,0,0);stroke-opacity: 1.0;stroke-linecap: square;shape-rendering:geometricPrecision;" transform="matrix(1,0,0,1,0,0)" clip-path="url(#_159135002604091clip-2)"/><line x1="690.65" y1="327.29" x2="860.1" y2="448.02" style="stroke-width: 3.0;stroke: rgb(0,0,0);stroke-opacity: 1.0;stroke-linecap: square;shape-rendering:geometricPrecision;" transform="matrix(1,0,0,1,0,0)" clip-path="url(#_159135002604091clip-2)"/><line x1="860.1" y1="448.02" x2="1056.75" y2="568.75" style="stroke-width: 3.0;stroke: rgb(0,0,0);stroke-opacity: 1.0;stroke-linecap: square;shape-rendering:geometricPrecision;" transform="matrix(1,0,0,1,0,0)" clip-path="url(#_159135002604091clip-2)"/><rect x="141" y="35" width="999" height="610" style="stroke-width: 0.5;stroke: rgb(0,0,0);stroke-opacity: 1.0;stroke-linecap: round;stroke-linejoin: round;shape-rendering:crispEdges;; fill: none" transform="matrix(1,0,0,1,0,0)" clip-path="url(#_159135002604091clip-0)"/></svg>
