<!DOCTYPE svg PUBLIC "-//W3C//DTD SVG 1.1//EN" "http://www.w3.org/Graphics/SVG/1.1/DTD/svg11.dtd">
<svg xmlns="http://www.w3.org/2000/svg" xmlns:xlink="http://www.w3.org/1999/xlink" xmlns:jfreesvg="http://www.jfree.org/jfreesvg/svg" width="1920" height="1080" text-rendering="auto" shape-rendering="auto">
<defs><clipPath id="_451170350735729clip-0"><path d="M 0 0 L 1920 0 L 1920 1080 L 0 1080 L 0 0 Z "/></clipPath>
<clipPath id="_451170350735729clip-1"><path d="M 5 27 L 5 1075 L 1915 1075 L 1915 27 Z "/></clipPath>
</defs>
<rect x="0" y="0" width="1920" height="1080" style="fill: rgb(255,255,255); fill-opacity: 1.0" transform="matrix(1,0,0,1,0,0)" clip-path="url(#_451170350735729clip-0)"/><g transform="matrix(1,0,0,1,0,0)"><text x="878" y="21.01" style="fill: rgb(0,0,0); fill-opacity: 1.0; font-family: Tahoma; font-size: 20px; font-weight: bold;" clip-path="url(#_451170350735729clip-0)">DOC Breakdown</text></g><rect x="5" y="27" width="1910" height="1048" style="fill: rgb(255,255,255); fill-opacity: 0.0" transform="matrix(1,0,0,1,0,0)" clip-path="url(#_451170350735729clip-0)"/><rect x="5" y="27" width="1910" height="1048" style="stroke-width: 0.5;stroke: rgb(0,0,0);stroke-opacity: 1.0;stroke-linecap: round;stroke-linejoin: round;shape-rendering:crispEdges;; fill: none" transform="matrix(1,0,0,1,0,0)" clip-path="url(#_451170350735729clip-0)"/><g style="fill: rgb(128,128,128); fill-opacity: 1.0; stroke: none" transform="matrix(1,0,0,1,0,0)" clip-path="url(#_451170350735729clip-1)"><path d="M 964 136.85 C 1145.02 136.85 1305.48 253.32 1361.57 425.43 C 1417.66 597.54 1356.64 786.2 1210.38 892.86 L 964 555 Z "/></g><g style="fill: rgb(128,128,128); fill-opacity: 1.0; stroke: none" transform="matrix(1,0,0,1,0,0)" clip-path="url(#_451170350735729clip-1)"><path d="M 1210.38 892.86 C 1051.73 1008.55 833.95 998.28 686.9 868.15 L 964 555 Z "/></g><g style="fill: rgb(128,128,128); fill-opacity: 1.0; stroke: none" transform="matrix(1,0,0,1,0,0)" clip-path="url(#_451170350735729clip-1)"><path d="M 686.9 868.15 C 634.87 822.12 595.14 763.85 571.28 698.61 L 964 555 Z "/></g><g style="fill: rgb(128,128,128); fill-opacity: 1.0; stroke: none" transform="matrix(1,0,0,1,0,0)" clip-path="url(#_451170350735729clip-1)"><path d="M 571.28 698.61 C 546.21 630.05 539.53 556.12 551.89 484.18 L 964 555 Z "/></g><g style="fill: rgb(128,128,128); fill-opacity: 1.0; stroke: none" transform="matrix(1,0,0,1,0,0)" clip-path="url(#_451170350735729clip-1)"><path d="M 551.89 484.18 C 586.37 283.51 760.39 136.85 964 136.85 L 964 555 Z "/></g><g style="fill: rgb(255,85,85); fill-opacity: 1.0; stroke: none" transform="matrix(1,0,0,1,0,0)" clip-path="url(#_451170350735729clip-1)"><path d="M 960 132.85 C 1141.02 132.85 1301.48 249.32 1357.57 421.43 C 1413.66 593.54 1352.64 782.2 1206.38 888.86 L 960 551 Z "/></g><g style="stroke-width: 0.5;stroke: rgb(128,128,128);stroke-opacity: 1.0;stroke-linecap: round;stroke-linejoin: round;shape-rendering:geometricPrecision;; fill: none" transform="matrix(1,0,0,1,0,0)" clip-path="url(#_451170350735729clip-1)"><path d="M 960 132.85 C 1141.02 132.85 1301.48 249.32 1357.57 421.43 C 1413.66 593.54 1352.64 782.2 1206.38 888.86 L 960 551 Z "/></g><g style="fill: rgb(85,85,255); fill-opacity: 1.0; stroke: none" transform="matrix(1,0,0,1,0,0)" clip-path="url(#_451170350735729clip-1)"><path d="M 1206.38 888.86 C 1047.73 1004.55 829.95 994.28 682.9 864.15 L 960 551 Z "/></g><g style="stroke-width: 0.5;stroke: rgb(128,128,128);stroke-opacity: 1.0;stroke-linecap: round;stroke-linejoin: round;shape-rendering:geometricPrecision;; fill: none" transform="matrix(1,0,0,1,0,0)" clip-path="url(#_451170350735729clip-1)"><path d="M 1206.38 888.86 C 1047.73 1004.55 829.95 994.28 682.9 864.15 L 960 551 Z "/></g><g style="fill: rgb(85,255,85); fill-opacity: 1.0; stroke: none" transform="matrix(1,0,0,1,0,0)" clip-path="url(#_451170350735729clip-1)"><path d="M 682.9 864.15 C 630.87 818.12 591.14 759.85 567.28 694.61 L 960 551 Z "/></g><g style="stroke-width: 0.5;stroke: rgb(128,128,128);stroke-opacity: 1.0;stroke-linecap: round;stroke-linejoin: round;shape-rendering:geometricPrecision;; fill: none" transform="matrix(1,0,0,1,0,0)" clip-path="url(#_451170350735729clip-1)"><path d="M 682.9 864.15 C 630.87 818.12 591.14 759.85 567.28 694.61 L 960 551 Z "/></g><g style="fill: rgb(255,255,85); fill-opacity: 1.0; stroke: none" transform="matrix(1,0,0,1,0,0)" clip-path="url(#_451170350735729clip-1)"><path d="M 567.28 694.61 C 542.21 626.05 535.53 552.12 547.89 480.18 L 960 551 Z "/></g><g style="stroke-width: 0.5;stroke: rgb(128,128,128);stroke-opacity: 1.0;stroke-linecap: round;stroke-linejoin: round;shape-rendering:geometricPrecision;; fill: none" transform="matrix(1,0,0,1,0,0)" clip-path="url(#_451170350735729clip-1)"><path d="M 567.28 694.61 C 542.21 626.05 535.53 552.12 547.89 480.18 L 960 551 Z "/></g><g style="fill: rgb(255,85,255); fill-opacity: 1.0; stroke: none" transform="matrix(1,0,0,1,0,0)" clip-path="url(#_451170350735729clip-1)"><path d="M 547.89 480.18 C 582.37 279.51 756.39 132.85 960 132.85 L 960 551 Z "/></g><g style="stroke-width: 0.5;stroke: rgb(128,128,128);stroke-opacity: 1.0;stroke-linecap: round;stroke-linejoin: round;shape-rendering:geometricPrecision;; fill: none" transform="matrix(1,0,0,1,0,0)" clip-path="url(#_451170350735729clip-1)"><path d="M 547.89 480.18 C 582.37 279.51 756.39 132.85 960 132.85 L 960 551 Z "/></g><g style="stroke-width: 0.5;stroke: rgb(0,0,0);stroke-opacity: 1.0;stroke-linecap: square;shape-rendering:geometricPrecision;; fill: none" transform="matrix(1,0,0,1,0,0)" clip-path="url(#_451170350735729clip-1)"><path d="M 480.58 214.43 C 519.84 214.43 676.34 214.43 717.47 263.24"/></g><rect x="88.58" y="193.43" width="394" height="46" style="fill: rgb(151,151,151); fill-opacity: 0.5019608" transform="matrix(1,0,0,1,0,0)" clip-path="url(#_451170350735729clip-1)"/><rect x="86.58" y="191.43" width="394" height="46" style="fill: rgb(255,255,192); fill-opacity: 1.0" transform="matrix(1,0,0,1,0,0)" clip-path="url(#_451170350735729clip-1)"/><rect x="86.58" y="191.43" width="394" height="46" style="stroke-width: 0.5;stroke: rgb(0,0,0);stroke-opacity: 1.0;stroke-linecap: square;shape-rendering:geometricPrecision;; fill: none" transform="matrix(1,0,0,1,0,0)" clip-path="url(#_451170350735729clip-1)"/><g transform="matrix(1,0,0,1,0,0)"><text x="88.58" y="225.61" style="fill: rgb(0,0,0); fill-opacity: 1.0; font-family: sans-serif; font-size: 32px;" clip-path="url(#_451170350735729clip-1)">DOC Maintenance: 22,29%</text></g><g style="stroke-width: 0.5;stroke: rgb(0,0,0);stroke-opacity: 1.0;stroke-linecap: square;shape-rendering:geometricPrecision;; fill: none" transform="matrix(1,0,0,1,0,0)" clip-path="url(#_451170350735729clip-1)"><path d="M 472.19 590.64 C 519.84 590.64 521.63 590.64 585.19 584.9"/></g><rect x="161.19" y="569.64" width="313" height="46" style="fill: rgb(151,151,151); fill-opacity: 0.5019608" transform="matrix(1,0,0,1,0,0)" clip-path="url(#_451170350735729clip-1)"/><rect x="159.19" y="567.64" width="313" height="46" style="fill: rgb(255,255,192); fill-opacity: 1.0" transform="matrix(1,0,0,1,0,0)" clip-path="url(#_451170350735729clip-1)"/><rect x="159.19" y="567.64" width="313" height="46" style="stroke-width: 0.5;stroke: rgb(0,0,0);stroke-opacity: 1.0;stroke-linecap: square;shape-rendering:geometricPrecision;; fill: none" transform="matrix(1,0,0,1,0,0)" clip-path="url(#_451170350735729clip-1)"/><g transform="matrix(1,0,0,1,0,0)"><text x="161.19" y="601.82" style="fill: rgb(0,0,0); fill-opacity: 1.0; font-family: sans-serif; font-size: 32px;" clip-path="url(#_451170350735729clip-1)">DOC Charges: 8,29%</text></g><g style="stroke-width: 0.5;stroke: rgb(0,0,0);stroke-opacity: 1.0;stroke-linecap: square;shape-rendering:geometricPrecision;; fill: none" transform="matrix(1,0,0,1,0,0)" clip-path="url(#_451170350735729clip-1)"><path d="M 476.24 798.98 C 519.84 798.98 596.34 798.98 649.07 763.02"/></g><rect x="223.24" y="777.98" width="255" height="46" style="fill: rgb(151,151,151); fill-opacity: 0.5019608" transform="matrix(1,0,0,1,0,0)" clip-path="url(#_451170350735729clip-1)"/><rect x="221.24" y="775.98" width="255" height="46" style="fill: rgb(255,255,192); fill-opacity: 1.0" transform="matrix(1,0,0,1,0,0)" clip-path="url(#_451170350735729clip-1)"/><rect x="221.24" y="775.98" width="255" height="46" style="stroke-width: 0.5;stroke: rgb(0,0,0);stroke-opacity: 1.0;stroke-linecap: square;shape-rendering:geometricPrecision;; fill: none" transform="matrix(1,0,0,1,0,0)" clip-path="url(#_451170350735729clip-1)"/><g transform="matrix(1,0,0,1,0,0)"><text x="223.24" y="810.15" style="fill: rgb(0,0,0); fill-opacity: 1.0; font-family: sans-serif; font-size: 32px;" clip-path="url(#_451170350735729clip-1)">DOC Fuel: 7,89%</text></g><g style="stroke-width: 0.5;stroke: rgb(0,0,0);stroke-opacity: 1.0;stroke-linecap: square;shape-rendering:geometricPrecision;; fill: none" transform="matrix(1,0,0,1,0,0)" clip-path="url(#_451170350735729clip-1)"><path d="M 494.84 990.67 C 519.84 990.67 939.25 990.67 942.26 926.92"/></g><rect x="211.84" y="969.67" width="285" height="46" style="fill: rgb(151,151,151); fill-opacity: 0.5019608" transform="matrix(1,0,0,1,0,0)" clip-path="url(#_451170350735729clip-1)"/><rect x="209.84" y="967.67" width="285" height="46" style="fill: rgb(255,255,192); fill-opacity: 1.0" transform="matrix(1,0,0,1,0,0)" clip-path="url(#_451170350735729clip-1)"/><rect x="209.84" y="967.67" width="285" height="46" style="stroke-width: 0.5;stroke: rgb(0,0,0);stroke-opacity: 1.0;stroke-linecap: square;shape-rendering:geometricPrecision;; fill: none" transform="matrix(1,0,0,1,0,0)" clip-path="url(#_451170350735729clip-1)"/><g transform="matrix(1,0,0,1,0,0)"><text x="211.84" y="1001.84" style="fill: rgb(0,0,0); fill-opacity: 1.0; font-family: sans-serif; font-size: 32px;" clip-path="url(#_451170350735729clip-1)">DOC Crew: 21,56%</text></g><g style="stroke-width: 0.5;stroke: rgb(0,0,0);stroke-opacity: 1.0;stroke-linecap: square;shape-rendering:geometricPrecision;; fill: none" transform="matrix(1,0,0,1,0,0)" clip-path="url(#_451170350735729clip-1)"><path d="M 1446.73 414.61 C 1400.16 414.61 1378.5 414.61 1317.82 434.39"/></g><rect x="1448.73" y="393.61" width="310" height="46" style="fill: rgb(151,151,151); fill-opacity: 0.5019608" transform="matrix(1,0,0,1,0,0)" clip-path="url(#_451170350735729clip-1)"/><rect x="1446.73" y="391.61" width="310" height="46" style="fill: rgb(255,255,192); fill-opacity: 1.0" transform="matrix(1,0,0,1,0,0)" clip-path="url(#_451170350735729clip-1)"/><rect x="1446.73" y="391.61" width="310" height="46" style="stroke-width: 0.5;stroke: rgb(0,0,0);stroke-opacity: 1.0;stroke-linecap: square;shape-rendering:geometricPrecision;; fill: none" transform="matrix(1,0,0,1,0,0)" clip-path="url(#_451170350735729clip-1)"/><g transform="matrix(1,0,0,1,0,0)"><text x="1448.73" y="425.79" style="fill: rgb(0,0,0); fill-opacity: 1.0; font-family: sans-serif; font-size: 32px;" clip-path="url(#_451170350735729clip-1)">DOC Capital: 39,97%</text></g><rect x="5" y="27" width="1910" height="1048" style="stroke-width: 0.5;stroke: rgb(0,0,0);stroke-opacity: 1.0;stroke-linecap: round;stroke-linejoin: round;shape-rendering:crispEdges;; fill: none" transform="matrix(1,0,0,1,0,0)" clip-path="url(#_451170350735729clip-0)"/></svg>
