<!DOCTYPE svg PUBLIC "-//W3C//DTD SVG 1.1//EN" "http://www.w3.org/Graphics/SVG/1.1/DTD/svg11.dtd">
<svg xmlns="http://www.w3.org/2000/svg" xmlns:xlink="http://www.w3.org/1999/xlink" xmlns:jfreesvg="http://www.jfree.org/jfreesvg/svg" width="1920" height="1080" text-rendering="auto" shape-rendering="auto">
<defs><clipPath id="_358978838579337clip-0"><path d="M 0 0 L 1920 0 L 1920 1080 L 0 1080 L 0 0 Z "/></clipPath>
<clipPath id="_358978838579337clip-1"><path d="M 5 27 L 5 1075 L 1915 1075 L 1915 27 Z "/></clipPath>
</defs>
<rect x="0" y="0" width="1920" height="1080" style="fill: rgb(255,255,255); fill-opacity: 1.0" transform="matrix(1,0,0,1,0,0)" clip-path="url(#_358978838579337clip-0)"/><g transform="matrix(1,0,0,1,0,0)"><text x="878" y="21.01" style="fill: rgb(0,0,0); fill-opacity: 1.0; font-family: Tahoma; font-size: 20px; font-weight: bold;" clip-path="url(#_358978838579337clip-0)">DOC Breakdown</text></g><rect x="5" y="27" width="1910" height="1048" style="fill: rgb(255,255,255); fill-opacity: 0.0" transform="matrix(1,0,0,1,0,0)" clip-path="url(#_358978838579337clip-0)"/><rect x="5" y="27" width="1910" height="1048" style="stroke-width: 0.5;stroke: rgb(0,0,0);stroke-opacity: 1.0;stroke-linecap: round;stroke-linejoin: round;shape-rendering:crispEdges;; fill: none" transform="matrix(1,0,0,1,0,0)" clip-path="url(#_358978838579337clip-0)"/><g style="fill: rgb(128,128,128); fill-opacity: 1.0; stroke: none" transform="matrix(1,0,0,1,0,0)" clip-path="url(#_358978838579337clip-1)"><path d="M 964 136.85 C 1139 136.85 1295.48 245.82 1356.19 409.95 C 1416.89 574.08 1368.97 758.65 1236.09 872.52 L 964 555 Z "/></g><g style="fill: rgb(128,128,128); fill-opacity: 1.0; stroke: none" transform="matrix(1,0,0,1,0,0)" clip-path="url(#_358978838579337clip-1)"><path d="M 1236.09 872.52 C 1084.98 1002.01 863.54 1007.06 706.67 884.6 L 964 555 Z "/></g><g style="fill: rgb(128,128,128); fill-opacity: 1.0; stroke: none" transform="matrix(1,0,0,1,0,0)" clip-path="url(#_358978838579337clip-1)"><path d="M 706.67 884.6 C 641.38 833.62 592.69 764.39 566.8 685.7 L 964 555 Z "/></g><g style="fill: rgb(128,128,128); fill-opacity: 1.0; stroke: none" transform="matrix(1,0,0,1,0,0)" clip-path="url(#_358978838579337clip-1)"><path d="M 566.8 685.7 C 541.34 608.32 539.03 525.19 560.17 446.51 L 964 555 Z "/></g><g style="fill: rgb(128,128,128); fill-opacity: 1.0; stroke: none" transform="matrix(1,0,0,1,0,0)" clip-path="url(#_358978838579337clip-1)"><path d="M 560.17 446.51 C 609.24 263.83 774.84 136.85 964 136.85 L 964 555 Z "/></g><g style="fill: rgb(255,85,85); fill-opacity: 1.0; stroke: none" transform="matrix(1,0,0,1,0,0)" clip-path="url(#_358978838579337clip-1)"><path d="M 960 132.85 C 1135 132.85 1291.48 241.82 1352.19 405.95 C 1412.89 570.08 1364.97 754.65 1232.09 868.52 L 960 551 Z "/></g><g style="stroke-width: 0.5;stroke: rgb(128,128,128);stroke-opacity: 1.0;stroke-linecap: round;stroke-linejoin: round;shape-rendering:geometricPrecision;; fill: none" transform="matrix(1,0,0,1,0,0)" clip-path="url(#_358978838579337clip-1)"><path d="M 960 132.85 C 1135 132.85 1291.48 241.82 1352.19 405.95 C 1412.89 570.08 1364.97 754.65 1232.09 868.52 L 960 551 Z "/></g><g style="fill: rgb(85,85,255); fill-opacity: 1.0; stroke: none" transform="matrix(1,0,0,1,0,0)" clip-path="url(#_358978838579337clip-1)"><path d="M 1232.09 868.52 C 1080.98 998.01 859.54 1003.06 702.67 880.6 L 960 551 Z "/></g><g style="stroke-width: 0.5;stroke: rgb(128,128,128);stroke-opacity: 1.0;stroke-linecap: round;stroke-linejoin: round;shape-rendering:geometricPrecision;; fill: none" transform="matrix(1,0,0,1,0,0)" clip-path="url(#_358978838579337clip-1)"><path d="M 1232.09 868.52 C 1080.98 998.01 859.54 1003.06 702.67 880.6 L 960 551 Z "/></g><g style="fill: rgb(85,255,85); fill-opacity: 1.0; stroke: none" transform="matrix(1,0,0,1,0,0)" clip-path="url(#_358978838579337clip-1)"><path d="M 702.67 880.6 C 637.38 829.62 588.69 760.39 562.8 681.7 L 960 551 Z "/></g><g style="stroke-width: 0.5;stroke: rgb(128,128,128);stroke-opacity: 1.0;stroke-linecap: round;stroke-linejoin: round;shape-rendering:geometricPrecision;; fill: none" transform="matrix(1,0,0,1,0,0)" clip-path="url(#_358978838579337clip-1)"><path d="M 702.67 880.6 C 637.38 829.62 588.69 760.39 562.8 681.7 L 960 551 Z "/></g><g style="fill: rgb(255,255,85); fill-opacity: 1.0; stroke: none" transform="matrix(1,0,0,1,0,0)" clip-path="url(#_358978838579337clip-1)"><path d="M 562.8 681.7 C 537.34 604.32 535.03 521.19 556.17 442.51 L 960 551 Z "/></g><g style="stroke-width: 0.5;stroke: rgb(128,128,128);stroke-opacity: 1.0;stroke-linecap: round;stroke-linejoin: round;shape-rendering:geometricPrecision;; fill: none" transform="matrix(1,0,0,1,0,0)" clip-path="url(#_358978838579337clip-1)"><path d="M 562.8 681.7 C 537.34 604.32 535.03 521.19 556.17 442.51 L 960 551 Z "/></g><g style="fill: rgb(255,85,255); fill-opacity: 1.0; stroke: none" transform="matrix(1,0,0,1,0,0)" clip-path="url(#_358978838579337clip-1)"><path d="M 556.17 442.51 C 605.24 259.83 770.84 132.85 960 132.85 L 960 551 Z "/></g><g style="stroke-width: 0.5;stroke: rgb(128,128,128);stroke-opacity: 1.0;stroke-linecap: round;stroke-linejoin: round;shape-rendering:geometricPrecision;; fill: none" transform="matrix(1,0,0,1,0,0)" clip-path="url(#_358978838579337clip-1)"><path d="M 556.17 442.51 C 605.24 259.83 770.84 132.85 960 132.85 L 960 551 Z "/></g><g style="stroke-width: 0.5;stroke: rgb(0,0,0);stroke-opacity: 1.0;stroke-linecap: square;shape-rendering:geometricPrecision;; fill: none" transform="matrix(1,0,0,1,0,0)" clip-path="url(#_358978838579337clip-1)"><path d="M 481.44 201.71 C 519.84 201.71 692.16 201.71 731 252.36"/></g><rect x="89.44" y="180.71" width="394" height="46" style="fill: rgb(151,151,151); fill-opacity: 0.5019608" transform="matrix(1,0,0,1,0,0)" clip-path="url(#_358978838579337clip-1)"/><rect x="87.44" y="178.71" width="394" height="46" style="fill: rgb(255,255,192); fill-opacity: 1.0" transform="matrix(1,0,0,1,0,0)" clip-path="url(#_358978838579337clip-1)"/><rect x="87.44" y="178.71" width="394" height="46" style="stroke-width: 0.5;stroke: rgb(0,0,0);stroke-opacity: 1.0;stroke-linecap: square;shape-rendering:geometricPrecision;; fill: none" transform="matrix(1,0,0,1,0,0)" clip-path="url(#_358978838579337clip-1)"/><g transform="matrix(1,0,0,1,0,0)"><text x="89.44" y="212.88" style="fill: rgb(0,0,0); fill-opacity: 1.0; font-family: sans-serif; font-size: 32px;" clip-path="url(#_358978838579337clip-1)">DOC Maintenance: 20,82%</text></g><g style="stroke-width: 0.5;stroke: rgb(0,0,0);stroke-opacity: 1.0;stroke-linecap: square;shape-rendering:geometricPrecision;; fill: none" transform="matrix(1,0,0,1,0,0)" clip-path="url(#_358978838579337clip-1)"><path d="M 472.1 563.2 C 519.84 563.2 520.01 563.2 583.81 561.43"/></g><rect x="161.1" y="542.2" width="313" height="46" style="fill: rgb(151,151,151); fill-opacity: 0.5019608" transform="matrix(1,0,0,1,0,0)" clip-path="url(#_358978838579337clip-1)"/><rect x="159.1" y="540.2" width="313" height="46" style="fill: rgb(255,255,192); fill-opacity: 1.0" transform="matrix(1,0,0,1,0,0)" clip-path="url(#_358978838579337clip-1)"/><rect x="159.1" y="540.2" width="313" height="46" style="stroke-width: 0.5;stroke: rgb(0,0,0);stroke-opacity: 1.0;stroke-linecap: square;shape-rendering:geometricPrecision;; fill: none" transform="matrix(1,0,0,1,0,0)" clip-path="url(#_358978838579337clip-1)"/><g transform="matrix(1,0,0,1,0,0)"><text x="161.1" y="574.37" style="fill: rgb(0,0,0); fill-opacity: 1.0; font-family: sans-serif; font-size: 32px;" clip-path="url(#_358978838579337clip-1)">DOC Charges: 9,24%</text></g><g style="stroke-width: 0.5;stroke: rgb(0,0,0);stroke-opacity: 1.0;stroke-linecap: square;shape-rendering:geometricPrecision;; fill: none" transform="matrix(1,0,0,1,0,0)" clip-path="url(#_358978838579337clip-1)"><path d="M 476.44 804.2 C 519.84 804.2 599.96 804.2 652.16 767.49"/></g><rect x="223.44" y="783.2" width="255" height="46" style="fill: rgb(151,151,151); fill-opacity: 0.5019608" transform="matrix(1,0,0,1,0,0)" clip-path="url(#_358978838579337clip-1)"/><rect x="221.44" y="781.2" width="255" height="46" style="fill: rgb(255,255,192); fill-opacity: 1.0" transform="matrix(1,0,0,1,0,0)" clip-path="url(#_358978838579337clip-1)"/><rect x="221.44" y="781.2" width="255" height="46" style="stroke-width: 0.5;stroke: rgb(0,0,0);stroke-opacity: 1.0;stroke-linecap: square;shape-rendering:geometricPrecision;; fill: none" transform="matrix(1,0,0,1,0,0)" clip-path="url(#_358978838579337clip-1)"/><g transform="matrix(1,0,0,1,0,0)"><text x="223.44" y="815.37" style="fill: rgb(0,0,0); fill-opacity: 1.0; font-family: sans-serif; font-size: 32px;" clip-path="url(#_358978838579337clip-1)">DOC Fuel: 9,39%</text></g><g style="stroke-width: 0.5;stroke: rgb(0,0,0);stroke-opacity: 1.0;stroke-linecap: square;shape-rendering:geometricPrecision;; fill: none" transform="matrix(1,0,0,1,0,0)" clip-path="url(#_358978838579337clip-1)"><path d="M 1446.43 398.31 C 1400.16 398.31 1372.83 398.31 1312.97 420.45"/></g><rect x="1448.43" y="377.31" width="310" height="46" style="fill: rgb(151,151,151); fill-opacity: 0.5019608" transform="matrix(1,0,0,1,0,0)" clip-path="url(#_358978838579337clip-1)"/><rect x="1446.43" y="375.31" width="310" height="46" style="fill: rgb(255,255,192); fill-opacity: 1.0" transform="matrix(1,0,0,1,0,0)" clip-path="url(#_358978838579337clip-1)"/><rect x="1446.43" y="375.31" width="310" height="46" style="stroke-width: 0.5;stroke: rgb(0,0,0);stroke-opacity: 1.0;stroke-linecap: square;shape-rendering:geometricPrecision;; fill: none" transform="matrix(1,0,0,1,0,0)" clip-path="url(#_358978838579337clip-1)"/><g transform="matrix(1,0,0,1,0,0)"><text x="1448.43" y="409.49" style="fill: rgb(0,0,0); fill-opacity: 1.0; font-family: sans-serif; font-size: 32px;" clip-path="url(#_358978838579337clip-1)">DOC Capital: 38,72%</text></g><g style="stroke-width: 0.5;stroke: rgb(0,0,0);stroke-opacity: 1.0;stroke-linecap: square;shape-rendering:geometricPrecision;; fill: none" transform="matrix(1,0,0,1,0,0)" clip-path="url(#_358978838579337clip-1)"><path d="M 1424.58 991.05 C 1400.16 991.05 970.04 991.05 968.58 927.24"/></g><rect x="1426.58" y="970.05" width="285" height="46" style="fill: rgb(151,151,151); fill-opacity: 0.5019608" transform="matrix(1,0,0,1,0,0)" clip-path="url(#_358978838579337clip-1)"/><rect x="1424.58" y="968.05" width="285" height="46" style="fill: rgb(255,255,192); fill-opacity: 1.0" transform="matrix(1,0,0,1,0,0)" clip-path="url(#_358978838579337clip-1)"/><rect x="1424.58" y="968.05" width="285" height="46" style="stroke-width: 0.5;stroke: rgb(0,0,0);stroke-opacity: 1.0;stroke-linecap: square;shape-rendering:geometricPrecision;; fill: none" transform="matrix(1,0,0,1,0,0)" clip-path="url(#_358978838579337clip-1)"/><g transform="matrix(1,0,0,1,0,0)"><text x="1426.58" y="1002.22" style="fill: rgb(0,0,0); fill-opacity: 1.0; font-family: sans-serif; font-size: 32px;" clip-path="url(#_358978838579337clip-1)">DOC Crew: 21,83%</text></g><rect x="5" y="27" width="1910" height="1048" style="stroke-width: 0.5;stroke: rgb(0,0,0);stroke-opacity: 1.0;stroke-linecap: round;stroke-linejoin: round;shape-rendering:crispEdges;; fill: none" transform="matrix(1,0,0,1,0,0)" clip-path="url(#_358978838579337clip-0)"/></svg>
