<!DOCTYPE svg PUBLIC "-//W3C//DTD SVG 1.1//EN" "http://www.w3.org/Graphics/SVG/1.1/DTD/svg11.dtd">
<svg xmlns="http://www.w3.org/2000/svg" xmlns:xlink="http://www.w3.org/1999/xlink" xmlns:jfreesvg="http://www.jfree.org/jfreesvg/svg" width="1920" height="1080" text-rendering="auto" shape-rendering="auto">
<defs><clipPath id="_280469246586100clip-0"><path d="M 0 0 L 1920 0 L 1920 1080 L 0 1080 L 0 0 Z "/></clipPath>
<clipPath id="_280469246586100clip-1"><path d="M 5 27 L 5 1075 L 1915 1075 L 1915 27 Z "/></clipPath>
</defs>
<rect x="0" y="0" width="1920" height="1080" style="fill: rgb(255,255,255); fill-opacity: 1.0" transform="matrix(1,0,0,1,0,0)" clip-path="url(#_280469246586100clip-0)"/><g transform="matrix(1,0,0,1,0,0)"><text x="878" y="21.01" style="fill: rgb(0,0,0); fill-opacity: 1.0; font-family: Tahoma; font-size: 20px; font-weight: bold;" clip-path="url(#_280469246586100clip-0)">DOC Breakdown</text></g><rect x="5" y="27" width="1910" height="1048" style="fill: rgb(255,255,255); fill-opacity: 0.0" transform="matrix(1,0,0,1,0,0)" clip-path="url(#_280469246586100clip-0)"/><rect x="5" y="27" width="1910" height="1048" style="stroke-width: 0.5;stroke: rgb(0,0,0);stroke-opacity: 1.0;stroke-linecap: round;stroke-linejoin: round;shape-rendering:crispEdges;; fill: none" transform="matrix(1,0,0,1,0,0)" clip-path="url(#_280469246586100clip-0)"/><g style="fill: rgb(128,128,128); fill-opacity: 1.0; stroke: none" transform="matrix(1,0,0,1,0,0)" clip-path="url(#_280469246586100clip-1)"><path d="M 964 136.85 C 1166.44 136.85 1339.8 281.86 1375.57 481.11 C 1411.34 680.36 1299.25 876.62 1109.46 947.04 L 964 555 Z "/></g><g style="fill: rgb(128,128,128); fill-opacity: 1.0; stroke: none" transform="matrix(1,0,0,1,0,0)" clip-path="url(#_280469246586100clip-1)"><path d="M 1109.46 947.04 C 997.93 988.42 874.05 980.34 768.84 924.82 L 964 555 Z "/></g><g style="fill: rgb(128,128,128); fill-opacity: 1.0; stroke: none" transform="matrix(1,0,0,1,0,0)" clip-path="url(#_280469246586100clip-1)"><path d="M 768.84 924.82 C 674.28 874.91 602.42 790.68 568.05 689.43 L 964 555 Z "/></g><g style="fill: rgb(128,128,128); fill-opacity: 1.0; stroke: none" transform="matrix(1,0,0,1,0,0)" clip-path="url(#_280469246586100clip-1)"><path d="M 568.05 689.43 C 531.05 580.46 540.6 461.07 594.44 359.36 L 964 555 Z "/></g><g style="fill: rgb(128,128,128); fill-opacity: 1.0; stroke: none" transform="matrix(1,0,0,1,0,0)" clip-path="url(#_280469246586100clip-1)"><path d="M 594.44 359.36 C 666.9 222.47 809.11 136.85 964 136.85 L 964 555 Z "/></g><g style="fill: rgb(255,85,85); fill-opacity: 1.0; stroke: none" transform="matrix(1,0,0,1,0,0)" clip-path="url(#_280469246586100clip-1)"><path d="M 960 132.85 C 1162.44 132.85 1335.8 277.86 1371.57 477.11 C 1407.34 676.36 1295.25 872.62 1105.46 943.04 L 960 551 Z "/></g><g style="stroke-width: 0.5;stroke: rgb(128,128,128);stroke-opacity: 1.0;stroke-linecap: round;stroke-linejoin: round;shape-rendering:geometricPrecision;; fill: none" transform="matrix(1,0,0,1,0,0)" clip-path="url(#_280469246586100clip-1)"><path d="M 960 132.85 C 1162.44 132.85 1335.8 277.86 1371.57 477.11 C 1407.34 676.36 1295.25 872.62 1105.46 943.04 L 960 551 Z "/></g><g style="fill: rgb(85,85,255); fill-opacity: 1.0; stroke: none" transform="matrix(1,0,0,1,0,0)" clip-path="url(#_280469246586100clip-1)"><path d="M 1105.46 943.04 C 993.93 984.42 870.05 976.34 764.84 920.82 L 960 551 Z "/></g><g style="stroke-width: 0.5;stroke: rgb(128,128,128);stroke-opacity: 1.0;stroke-linecap: round;stroke-linejoin: round;shape-rendering:geometricPrecision;; fill: none" transform="matrix(1,0,0,1,0,0)" clip-path="url(#_280469246586100clip-1)"><path d="M 1105.46 943.04 C 993.93 984.42 870.05 976.34 764.84 920.82 L 960 551 Z "/></g><g style="fill: rgb(85,255,85); fill-opacity: 1.0; stroke: none" transform="matrix(1,0,0,1,0,0)" clip-path="url(#_280469246586100clip-1)"><path d="M 764.84 920.82 C 670.28 870.91 598.42 786.68 564.05 685.43 L 960 551 Z "/></g><g style="stroke-width: 0.5;stroke: rgb(128,128,128);stroke-opacity: 1.0;stroke-linecap: round;stroke-linejoin: round;shape-rendering:geometricPrecision;; fill: none" transform="matrix(1,0,0,1,0,0)" clip-path="url(#_280469246586100clip-1)"><path d="M 764.84 920.82 C 670.28 870.91 598.42 786.68 564.05 685.43 L 960 551 Z "/></g><g style="fill: rgb(255,255,85); fill-opacity: 1.0; stroke: none" transform="matrix(1,0,0,1,0,0)" clip-path="url(#_280469246586100clip-1)"><path d="M 564.05 685.43 C 527.05 576.46 536.6 457.07 590.44 355.36 L 960 551 Z "/></g><g style="stroke-width: 0.5;stroke: rgb(128,128,128);stroke-opacity: 1.0;stroke-linecap: round;stroke-linejoin: round;shape-rendering:geometricPrecision;; fill: none" transform="matrix(1,0,0,1,0,0)" clip-path="url(#_280469246586100clip-1)"><path d="M 564.05 685.43 C 527.05 576.46 536.6 457.07 590.44 355.36 L 960 551 Z "/></g><g style="fill: rgb(255,85,255); fill-opacity: 1.0; stroke: none" transform="matrix(1,0,0,1,0,0)" clip-path="url(#_280469246586100clip-1)"><path d="M 590.44 355.36 C 662.9 218.47 805.11 132.85 960 132.85 L 960 551 Z "/></g><g style="stroke-width: 0.5;stroke: rgb(128,128,128);stroke-opacity: 1.0;stroke-linecap: round;stroke-linejoin: round;shape-rendering:geometricPrecision;; fill: none" transform="matrix(1,0,0,1,0,0)" clip-path="url(#_280469246586100clip-1)"><path d="M 590.44 355.36 C 662.9 218.47 805.11 132.85 960 132.85 L 960 551 Z "/></g><g style="stroke-width: 0.5;stroke: rgb(0,0,0);stroke-opacity: 1.0;stroke-linecap: square;shape-rendering:geometricPrecision;; fill: none" transform="matrix(1,0,0,1,0,0)" clip-path="url(#_280469246586100clip-1)"><path d="M 483.65 173.92 C 519.84 173.92 732.96 173.92 765.88 228.59"/></g><rect x="91.65" y="152.92" width="394" height="46" style="fill: rgb(151,151,151); fill-opacity: 0.5019608" transform="matrix(1,0,0,1,0,0)" clip-path="url(#_280469246586100clip-1)"/><rect x="89.65" y="150.92" width="394" height="46" style="fill: rgb(255,255,192); fill-opacity: 1.0" transform="matrix(1,0,0,1,0,0)" clip-path="url(#_280469246586100clip-1)"/><rect x="89.65" y="150.92" width="394" height="46" style="stroke-width: 0.5;stroke: rgb(0,0,0);stroke-opacity: 1.0;stroke-linecap: square;shape-rendering:geometricPrecision;; fill: none" transform="matrix(1,0,0,1,0,0)" clip-path="url(#_280469246586100clip-1)"/><g transform="matrix(1,0,0,1,0,0)"><text x="91.65" y="185.09" style="fill: rgb(0,0,0); fill-opacity: 1.0; font-family: sans-serif; font-size: 32px;" clip-path="url(#_280469246586100clip-1)">DOC Maintenance: 17,25%</text></g><g style="stroke-width: 0.5;stroke: rgb(0,0,0);stroke-opacity: 1.0;stroke-linecap: square;shape-rendering:geometricPrecision;; fill: none" transform="matrix(1,0,0,1,0,0)" clip-path="url(#_280469246586100clip-1)"><path d="M 472.17 515.92 C 519.84 515.92 521.24 515.92 584.86 521.01"/></g><rect x="143.17" y="494.92" width="331" height="46" style="fill: rgb(151,151,151); fill-opacity: 0.5019608" transform="matrix(1,0,0,1,0,0)" clip-path="url(#_280469246586100clip-1)"/><rect x="141.17" y="492.92" width="331" height="46" style="fill: rgb(255,255,192); fill-opacity: 1.0" transform="matrix(1,0,0,1,0,0)" clip-path="url(#_280469246586100clip-1)"/><rect x="141.17" y="492.92" width="331" height="46" style="stroke-width: 0.5;stroke: rgb(0,0,0);stroke-opacity: 1.0;stroke-linecap: square;shape-rendering:geometricPrecision;; fill: none" transform="matrix(1,0,0,1,0,0)" clip-path="url(#_280469246586100clip-1)"/><g transform="matrix(1,0,0,1,0,0)"><text x="143.17" y="527.09" style="fill: rgb(0,0,0); fill-opacity: 1.0; font-family: sans-serif; font-size: 32px;" clip-path="url(#_280469246586100clip-1)">DOC Charges: 12,96%</text></g><g style="stroke-width: 0.5;stroke: rgb(0,0,0);stroke-opacity: 1.0;stroke-linecap: square;shape-rendering:geometricPrecision;; fill: none" transform="matrix(1,0,0,1,0,0)" clip-path="url(#_280469246586100clip-1)"><path d="M 477.8 836.66 C 519.84 836.66 625.13 836.66 673.69 795.24"/></g><rect x="206.8" y="815.66" width="273" height="46" style="fill: rgb(151,151,151); fill-opacity: 0.5019608" transform="matrix(1,0,0,1,0,0)" clip-path="url(#_280469246586100clip-1)"/><rect x="204.8" y="813.66" width="273" height="46" style="fill: rgb(255,255,192); fill-opacity: 1.0" transform="matrix(1,0,0,1,0,0)" clip-path="url(#_280469246586100clip-1)"/><rect x="204.8" y="813.66" width="273" height="46" style="stroke-width: 0.5;stroke: rgb(0,0,0);stroke-opacity: 1.0;stroke-linecap: square;shape-rendering:geometricPrecision;; fill: none" transform="matrix(1,0,0,1,0,0)" clip-path="url(#_280469246586100clip-1)"/><g transform="matrix(1,0,0,1,0,0)"><text x="206.8" y="847.83" style="fill: rgb(0,0,0); fill-opacity: 1.0; font-family: sans-serif; font-size: 32px;" clip-path="url(#_280469246586100clip-1)">DOC Fuel: 12,06%</text></g><g style="stroke-width: 0.5;stroke: rgb(0,0,0);stroke-opacity: 1.0;stroke-linecap: square;shape-rendering:geometricPrecision;; fill: none" transform="matrix(1,0,0,1,0,0)" clip-path="url(#_280469246586100clip-1)"><path d="M 494.41 990.23 C 519.84 990.23 931.35 990.23 935.5 926.54"/></g><rect x="211.41" y="969.23" width="285" height="46" style="fill: rgb(151,151,151); fill-opacity: 0.5019608" transform="matrix(1,0,0,1,0,0)" clip-path="url(#_280469246586100clip-1)"/><rect x="209.41" y="967.23" width="285" height="46" style="fill: rgb(255,255,192); fill-opacity: 1.0" transform="matrix(1,0,0,1,0,0)" clip-path="url(#_280469246586100clip-1)"/><rect x="209.41" y="967.23" width="285" height="46" style="stroke-width: 0.5;stroke: rgb(0,0,0);stroke-opacity: 1.0;stroke-linecap: square;shape-rendering:geometricPrecision;; fill: none" transform="matrix(1,0,0,1,0,0)" clip-path="url(#_280469246586100clip-1)"/><g transform="matrix(1,0,0,1,0,0)"><text x="211.41" y="1001.4" style="fill: rgb(0,0,0); fill-opacity: 1.0; font-family: sans-serif; font-size: 32px;" clip-path="url(#_280469246586100clip-1)">DOC Crew: 13,38%</text></g><g style="stroke-width: 0.5;stroke: rgb(0,0,0);stroke-opacity: 1.0;stroke-linecap: square;shape-rendering:geometricPrecision;; fill: none" transform="matrix(1,0,0,1,0,0)" clip-path="url(#_280469246586100clip-1)"><path d="M 1447.53 473.22 C 1400.16 473.22 1393.23 473.22 1330.41 484.5"/></g><rect x="1449.53" y="452.22" width="310" height="46" style="fill: rgb(151,151,151); fill-opacity: 0.5019608" transform="matrix(1,0,0,1,0,0)" clip-path="url(#_280469246586100clip-1)"/><rect x="1447.53" y="450.22" width="310" height="46" style="fill: rgb(255,255,192); fill-opacity: 1.0" transform="matrix(1,0,0,1,0,0)" clip-path="url(#_280469246586100clip-1)"/><rect x="1447.53" y="450.22" width="310" height="46" style="stroke-width: 0.5;stroke: rgb(0,0,0);stroke-opacity: 1.0;stroke-linecap: square;shape-rendering:geometricPrecision;; fill: none" transform="matrix(1,0,0,1,0,0)" clip-path="url(#_280469246586100clip-1)"/><g transform="matrix(1,0,0,1,0,0)"><text x="1449.53" y="484.39" style="fill: rgb(0,0,0); fill-opacity: 1.0; font-family: sans-serif; font-size: 32px;" clip-path="url(#_280469246586100clip-1)">DOC Capital: 44,35%</text></g><rect x="5" y="27" width="1910" height="1048" style="stroke-width: 0.5;stroke: rgb(0,0,0);stroke-opacity: 1.0;stroke-linecap: round;stroke-linejoin: round;shape-rendering:crispEdges;; fill: none" transform="matrix(1,0,0,1,0,0)" clip-path="url(#_280469246586100clip-0)"/></svg>
