<!DOCTYPE svg PUBLIC "-//W3C//DTD SVG 1.1//EN" "http://www.w3.org/Graphics/SVG/1.1/DTD/svg11.dtd">
<svg xmlns="http://www.w3.org/2000/svg" xmlns:xlink="http://www.w3.org/1999/xlink" xmlns:jfreesvg="http://www.jfree.org/jfreesvg/svg" width="1920" height="1080" text-rendering="auto" shape-rendering="auto">
<defs><clipPath id="_438811818285019clip-0"><path d="M 0 0 L 1920 0 L 1920 1080 L 0 1080 L 0 0 Z "/></clipPath>
<clipPath id="_438811818285019clip-1"><path d="M 5 27 L 5 1075 L 1915 1075 L 1915 27 Z "/></clipPath>
</defs>
<rect x="0" y="0" width="1920" height="1080" style="fill: rgb(255,255,255); fill-opacity: 1.0" transform="matrix(1,0,0,1,0,0)" clip-path="url(#_438811818285019clip-0)"/><g transform="matrix(1,0,0,1,0,0)"><text x="878" y="21.01" style="fill: rgb(0,0,0); fill-opacity: 1.0; font-family: Tahoma; font-size: 20px; font-weight: bold;" clip-path="url(#_438811818285019clip-0)">DOC Breakdown</text></g><rect x="5" y="27" width="1910" height="1048" style="fill: rgb(255,255,255); fill-opacity: 0.0" transform="matrix(1,0,0,1,0,0)" clip-path="url(#_438811818285019clip-0)"/><rect x="5" y="27" width="1910" height="1048" style="stroke-width: 0.5;stroke: rgb(0,0,0);stroke-opacity: 1.0;stroke-linecap: round;stroke-linejoin: round;shape-rendering:crispEdges;; fill: none" transform="matrix(1,0,0,1,0,0)" clip-path="url(#_438811818285019clip-0)"/><g style="fill: rgb(128,128,128); fill-opacity: 1.0; stroke: none" transform="matrix(1,0,0,1,0,0)" clip-path="url(#_438811818285019clip-1)"><path d="M 964 136.85 C 1168.74 136.85 1343.37 285.1 1376.61 487.12 C 1409.84 689.15 1291.91 885.53 1097.95 951.12 L 964 555 Z "/></g><g style="fill: rgb(128,128,128); fill-opacity: 1.0; stroke: none" transform="matrix(1,0,0,1,0,0)" clip-path="url(#_438811818285019clip-1)"><path d="M 1097.95 951.12 C 1002.74 983.31 899.12 980.14 806.06 942.18 L 964 555 Z "/></g><g style="fill: rgb(128,128,128); fill-opacity: 1.0; stroke: none" transform="matrix(1,0,0,1,0,0)" clip-path="url(#_438811818285019clip-1)"><path d="M 806.06 942.18 C 761.24 923.89 719.94 897.97 683.99 865.55 L 964 555 Z "/></g><g style="fill: rgb(128,128,128); fill-opacity: 1.0; stroke: none" transform="matrix(1,0,0,1,0,0)" clip-path="url(#_438811818285019clip-1)"><path d="M 683.99 865.55 C 560.2 753.94 514.52 579.48 567.72 421.53 L 964 555 Z "/></g><g style="fill: rgb(128,128,128); fill-opacity: 1.0; stroke: none" transform="matrix(1,0,0,1,0,0)" clip-path="url(#_438811818285019clip-1)"><path d="M 567.72 421.53 C 625.02 251.41 784.5 136.85 964 136.85 L 964 555 Z "/></g><g style="fill: rgb(255,85,85); fill-opacity: 1.0; stroke: none" transform="matrix(1,0,0,1,0,0)" clip-path="url(#_438811818285019clip-1)"><path d="M 960 132.85 C 1164.74 132.85 1339.37 281.1 1372.61 483.12 C 1405.84 685.15 1287.91 881.53 1093.95 947.12 L 960 551 Z "/></g><g style="stroke-width: 0.5;stroke: rgb(128,128,128);stroke-opacity: 1.0;stroke-linecap: round;stroke-linejoin: round;shape-rendering:geometricPrecision;; fill: none" transform="matrix(1,0,0,1,0,0)" clip-path="url(#_438811818285019clip-1)"><path d="M 960 132.85 C 1164.74 132.85 1339.37 281.1 1372.61 483.12 C 1405.84 685.15 1287.91 881.53 1093.95 947.12 L 960 551 Z "/></g><g style="fill: rgb(85,85,255); fill-opacity: 1.0; stroke: none" transform="matrix(1,0,0,1,0,0)" clip-path="url(#_438811818285019clip-1)"><path d="M 1093.95 947.12 C 998.74 979.31 895.12 976.14 802.06 938.18 L 960 551 Z "/></g><g style="stroke-width: 0.5;stroke: rgb(128,128,128);stroke-opacity: 1.0;stroke-linecap: round;stroke-linejoin: round;shape-rendering:geometricPrecision;; fill: none" transform="matrix(1,0,0,1,0,0)" clip-path="url(#_438811818285019clip-1)"><path d="M 1093.95 947.12 C 998.74 979.31 895.12 976.14 802.06 938.18 L 960 551 Z "/></g><g style="fill: rgb(85,255,85); fill-opacity: 1.0; stroke: none" transform="matrix(1,0,0,1,0,0)" clip-path="url(#_438811818285019clip-1)"><path d="M 802.06 938.18 C 757.24 919.89 715.94 893.97 679.99 861.55 L 960 551 Z "/></g><g style="stroke-width: 0.5;stroke: rgb(128,128,128);stroke-opacity: 1.0;stroke-linecap: round;stroke-linejoin: round;shape-rendering:geometricPrecision;; fill: none" transform="matrix(1,0,0,1,0,0)" clip-path="url(#_438811818285019clip-1)"><path d="M 802.06 938.18 C 757.24 919.89 715.94 893.97 679.99 861.55 L 960 551 Z "/></g><g style="fill: rgb(255,255,85); fill-opacity: 1.0; stroke: none" transform="matrix(1,0,0,1,0,0)" clip-path="url(#_438811818285019clip-1)"><path d="M 679.99 861.55 C 556.2 749.94 510.52 575.48 563.72 417.53 L 960 551 Z "/></g><g style="stroke-width: 0.5;stroke: rgb(128,128,128);stroke-opacity: 1.0;stroke-linecap: round;stroke-linejoin: round;shape-rendering:geometricPrecision;; fill: none" transform="matrix(1,0,0,1,0,0)" clip-path="url(#_438811818285019clip-1)"><path d="M 679.99 861.55 C 556.2 749.94 510.52 575.48 563.72 417.53 L 960 551 Z "/></g><g style="fill: rgb(255,85,255); fill-opacity: 1.0; stroke: none" transform="matrix(1,0,0,1,0,0)" clip-path="url(#_438811818285019clip-1)"><path d="M 563.72 417.53 C 621.02 247.41 780.5 132.85 960 132.85 L 960 551 Z "/></g><g style="stroke-width: 0.5;stroke: rgb(128,128,128);stroke-opacity: 1.0;stroke-linecap: round;stroke-linejoin: round;shape-rendering:geometricPrecision;; fill: none" transform="matrix(1,0,0,1,0,0)" clip-path="url(#_438811818285019clip-1)"><path d="M 563.72 417.53 C 621.02 247.41 780.5 132.85 960 132.85 L 960 551 Z "/></g><g style="stroke-width: 0.5;stroke: rgb(0,0,0);stroke-opacity: 1.0;stroke-linecap: square;shape-rendering:geometricPrecision;; fill: none" transform="matrix(1,0,0,1,0,0)" clip-path="url(#_438811818285019clip-1)"><path d="M 482.04 193.52 C 519.84 193.52 703.19 193.52 740.43 245.36"/></g><rect x="90.04" y="172.52" width="394" height="46" style="fill: rgb(151,151,151); fill-opacity: 0.5019608" transform="matrix(1,0,0,1,0,0)" clip-path="url(#_438811818285019clip-1)"/><rect x="88.04" y="170.52" width="394" height="46" style="fill: rgb(255,255,192); fill-opacity: 1.0" transform="matrix(1,0,0,1,0,0)" clip-path="url(#_438811818285019clip-1)"/><rect x="88.04" y="170.52" width="394" height="46" style="stroke-width: 0.5;stroke: rgb(0,0,0);stroke-opacity: 1.0;stroke-linecap: square;shape-rendering:geometricPrecision;; fill: none" transform="matrix(1,0,0,1,0,0)" clip-path="url(#_438811818285019clip-1)"/><g transform="matrix(1,0,0,1,0,0)"><text x="90.04" y="204.69" style="fill: rgb(0,0,0); fill-opacity: 1.0; font-family: sans-serif; font-size: 32px;" clip-path="url(#_438811818285019clip-1)">DOC Maintenance: 19,83%</text></g><g style="stroke-width: 0.5;stroke: rgb(0,0,0);stroke-opacity: 1.0;stroke-linecap: square;shape-rendering:geometricPrecision;; fill: none" transform="matrix(1,0,0,1,0,0)" clip-path="url(#_438811818285019clip-1)"><path d="M 472.87 662.49 C 519.84 662.49 534.2 662.49 595.94 646.33"/></g><rect x="143.87" y="641.49" width="331" height="46" style="fill: rgb(151,151,151); fill-opacity: 0.5019608" transform="matrix(1,0,0,1,0,0)" clip-path="url(#_438811818285019clip-1)"/><rect x="141.87" y="639.49" width="331" height="46" style="fill: rgb(255,255,192); fill-opacity: 1.0" transform="matrix(1,0,0,1,0,0)" clip-path="url(#_438811818285019clip-1)"/><rect x="141.87" y="639.49" width="331" height="46" style="stroke-width: 0.5;stroke: rgb(0,0,0);stroke-opacity: 1.0;stroke-linecap: square;shape-rendering:geometricPrecision;; fill: none" transform="matrix(1,0,0,1,0,0)" clip-path="url(#_438811818285019clip-1)"/><g transform="matrix(1,0,0,1,0,0)"><text x="143.87" y="673.67" style="fill: rgb(0,0,0); fill-opacity: 1.0; font-family: sans-serif; font-size: 32px;" clip-path="url(#_438811818285019clip-1)">DOC Charges: 18,49%</text></g><g style="stroke-width: 0.5;stroke: rgb(0,0,0);stroke-opacity: 1.0;stroke-linecap: square;shape-rendering:geometricPrecision;; fill: none" transform="matrix(1,0,0,1,0,0)" clip-path="url(#_438811818285019clip-1)"><path d="M 483.27 923.8 C 519.84 923.8 726 923.8 759.93 869.75"/></g><rect x="230.27" y="902.8" width="255" height="46" style="fill: rgb(151,151,151); fill-opacity: 0.5019608" transform="matrix(1,0,0,1,0,0)" clip-path="url(#_438811818285019clip-1)"/><rect x="228.27" y="900.8" width="255" height="46" style="fill: rgb(255,255,192); fill-opacity: 1.0" transform="matrix(1,0,0,1,0,0)" clip-path="url(#_438811818285019clip-1)"/><rect x="228.27" y="900.8" width="255" height="46" style="stroke-width: 0.5;stroke: rgb(0,0,0);stroke-opacity: 1.0;stroke-linecap: square;shape-rendering:geometricPrecision;; fill: none" transform="matrix(1,0,0,1,0,0)" clip-path="url(#_438811818285019clip-1)"/><g transform="matrix(1,0,0,1,0,0)"><text x="230.27" y="934.98" style="fill: rgb(0,0,0); fill-opacity: 1.0; font-family: sans-serif; font-size: 32px;" clip-path="url(#_438811818285019clip-1)">DOC Fuel: 5,51%</text></g><g style="stroke-width: 0.5;stroke: rgb(0,0,0);stroke-opacity: 1.0;stroke-linecap: square;shape-rendering:geometricPrecision;; fill: none" transform="matrix(1,0,0,1,0,0)" clip-path="url(#_438811818285019clip-1)"><path d="M 495.23 990.95 C 519.84 990.95 946.53 990.95 948.48 927.16"/></g><rect x="212.23" y="969.95" width="285" height="46" style="fill: rgb(151,151,151); fill-opacity: 0.5019608" transform="matrix(1,0,0,1,0,0)" clip-path="url(#_438811818285019clip-1)"/><rect x="210.23" y="967.95" width="285" height="46" style="fill: rgb(255,255,192); fill-opacity: 1.0" transform="matrix(1,0,0,1,0,0)" clip-path="url(#_438811818285019clip-1)"/><rect x="210.23" y="967.95" width="285" height="46" style="stroke-width: 0.5;stroke: rgb(0,0,0);stroke-opacity: 1.0;stroke-linecap: square;shape-rendering:geometricPrecision;; fill: none" transform="matrix(1,0,0,1,0,0)" clip-path="url(#_438811818285019clip-1)"/><g transform="matrix(1,0,0,1,0,0)"><text x="212.23" y="1002.13" style="fill: rgb(0,0,0); fill-opacity: 1.0; font-family: sans-serif; font-size: 32px;" clip-path="url(#_438811818285019clip-1)">DOC Crew: 11,35%</text></g><g style="stroke-width: 0.5;stroke: rgb(0,0,0);stroke-opacity: 1.0;stroke-linecap: square;shape-rendering:geometricPrecision;; fill: none" transform="matrix(1,0,0,1,0,0)" clip-path="url(#_438811818285019clip-1)"><path d="M 1447.59 479.55 C 1400.16 479.55 1394.32 479.55 1331.35 489.91"/></g><rect x="1449.59" y="458.55" width="310" height="46" style="fill: rgb(151,151,151); fill-opacity: 0.5019608" transform="matrix(1,0,0,1,0,0)" clip-path="url(#_438811818285019clip-1)"/><rect x="1447.59" y="456.55" width="310" height="46" style="fill: rgb(255,255,192); fill-opacity: 1.0" transform="matrix(1,0,0,1,0,0)" clip-path="url(#_438811818285019clip-1)"/><rect x="1447.59" y="456.55" width="310" height="46" style="stroke-width: 0.5;stroke: rgb(0,0,0);stroke-opacity: 1.0;stroke-linecap: square;shape-rendering:geometricPrecision;; fill: none" transform="matrix(1,0,0,1,0,0)" clip-path="url(#_438811818285019clip-1)"/><g transform="matrix(1,0,0,1,0,0)"><text x="1449.59" y="490.72" style="fill: rgb(0,0,0); fill-opacity: 1.0; font-family: sans-serif; font-size: 32px;" clip-path="url(#_438811818285019clip-1)">DOC Capital: 44,81%</text></g><rect x="5" y="27" width="1910" height="1048" style="stroke-width: 0.5;stroke: rgb(0,0,0);stroke-opacity: 1.0;stroke-linecap: round;stroke-linejoin: round;shape-rendering:crispEdges;; fill: none" transform="matrix(1,0,0,1,0,0)" clip-path="url(#_438811818285019clip-0)"/></svg>
