<!DOCTYPE svg PUBLIC "-//W3C//DTD SVG 1.1//EN" "http://www.w3.org/Graphics/SVG/1.1/DTD/svg11.dtd">
<svg xmlns="http://www.w3.org/2000/svg" xmlns:xlink="http://www.w3.org/1999/xlink" xmlns:jfreesvg="http://www.jfree.org/jfreesvg/svg" width="1152" height="768" text-rendering="auto" shape-rendering="auto">
<defs><clipPath id="_88706125230369clip-0"><path d="M 0 0 L 1152 0 L 1152 768 L 0 768 L 0 0 Z "/></clipPath>
<clipPath id="_88706125230369clip-1"><path d="M 384.5 345.5 L 384.5 1497.5 L -383.5 1497.5 L -383.5 345.5 L 384.5 345.5 Z "/></clipPath>
<clipPath id="_88706125230369clip-2"><path d="M 64 35 L 64 695 L 1140 695 L 1140 35 Z "/></clipPath>
</defs>
<rect x="0" y="0" width="1152" height="768" style="fill: rgb(255,255,255); fill-opacity: 1.0" transform="matrix(1,0,0,1,0,0)" clip-path="url(#_88706125230369clip-0)"/><g transform="matrix(1,0,0,1,0,0)"><text x="466.5" y="21.01" style="fill: rgb(0,0,0); fill-opacity: 1.0; font-family: Tahoma; font-size: 20px; font-weight: bold;" clip-path="url(#_88706125230369clip-0)">Polar_Curve_Elevator</text></g><rect x="392.5" y="746" width="367" height="21" style="fill: rgb(255,255,255); fill-opacity: 1.0" transform="matrix(1,0,0,1,0,0)" clip-path="url(#_88706125230369clip-0)"/><g style="stroke-width: 3.0;stroke: rgb(0,0,0);stroke-opacity: 1.0;stroke-linecap: square;shape-rendering:geometricPrecision;; fill: none" transform="matrix(1,0,0,1,0,0)" clip-path="url(#_88706125230369clip-0)"><path d="M 395.5 756.5 L 409.5 756.5"/></g><g transform="matrix(1,0,0,1,0,0)"><text x="413.5" y="761.01" style="fill: rgb(64,64,64); fill-opacity: 1.0; font-family: Tahoma; font-size: 12px;" clip-path="url(#_88706125230369clip-0)"> Clean configuration </text></g><g style="stroke-width: 3.0;stroke: rgb(0,0,255);stroke-opacity: 1.0;stroke-linecap: round;stroke-linejoin: round;stroke-dasharray: 10.0, 5.0;shape-rendering:geometricPrecision;; fill: none" transform="matrix(1,0,0,1,0,0)" clip-path="url(#_88706125230369clip-0)"><path d="M 529.5 756.5 L 543.5 756.5"/></g><g transform="matrix(1,0,0,1,0,0)"><text x="547.5" y="761.01" style="fill: rgb(64,64,64); fill-opacity: 1.0; font-family: Tahoma; font-size: 12px;" clip-path="url(#_88706125230369clip-0)"> Configuration with elevator at 5.0 deg </text></g><rect x="64" y="35" width="1076" height="660" style="fill: rgb(255,255,255); fill-opacity: 0.0" transform="matrix(1,0,0,1,0,0)" clip-path="url(#_88706125230369clip-0)"/><line x1="64" y1="699" x2="1140" y2="699" style="stroke-width: 0.5;stroke: rgb(128,128,128);stroke-opacity: 1.0;stroke-linecap: square;shape-rendering:crispEdges;" transform="matrix(1,0,0,1,0,0)" clip-path="url(#_88706125230369clip-0)"/><g transform="matrix(1,0,0,1,0,0)"><text x="119.87" y="715.52" style="fill: rgb(64,64,64); fill-opacity: 1.0; font-family: Tahoma; font-size: 12px;" clip-path="url(#_88706125230369clip-0)">0,0050</text></g><line x1="137.87" y1="701" x2="137.87" y2="699" style="stroke-width: 0.5;stroke: rgb(128,128,128);stroke-opacity: 1.0;stroke-linecap: square;shape-rendering:crispEdges;" transform="matrix(1,0,0,1,0,0)" clip-path="url(#_88706125230369clip-0)"/><g transform="matrix(1,0,0,1,0,0)"><text x="213.46" y="715.52" style="fill: rgb(64,64,64); fill-opacity: 1.0; font-family: Tahoma; font-size: 12px;" clip-path="url(#_88706125230369clip-0)">0,0055</text></g><line x1="231.46" y1="701" x2="231.46" y2="699" style="stroke-width: 0.5;stroke: rgb(128,128,128);stroke-opacity: 1.0;stroke-linecap: square;shape-rendering:crispEdges;" transform="matrix(1,0,0,1,0,0)" clip-path="url(#_88706125230369clip-0)"/><g transform="matrix(1,0,0,1,0,0)"><text x="307.05" y="715.52" style="fill: rgb(64,64,64); fill-opacity: 1.0; font-family: Tahoma; font-size: 12px;" clip-path="url(#_88706125230369clip-0)">0,0060</text></g><line x1="325.05" y1="701" x2="325.05" y2="699" style="stroke-width: 0.5;stroke: rgb(128,128,128);stroke-opacity: 1.0;stroke-linecap: square;shape-rendering:crispEdges;" transform="matrix(1,0,0,1,0,0)" clip-path="url(#_88706125230369clip-0)"/><g transform="matrix(1,0,0,1,0,0)"><text x="400.65" y="715.52" style="fill: rgb(64,64,64); fill-opacity: 1.0; font-family: Tahoma; font-size: 12px;" clip-path="url(#_88706125230369clip-0)">0,0065</text></g><line x1="418.65" y1="701" x2="418.65" y2="699" style="stroke-width: 0.5;stroke: rgb(128,128,128);stroke-opacity: 1.0;stroke-linecap: square;shape-rendering:crispEdges;" transform="matrix(1,0,0,1,0,0)" clip-path="url(#_88706125230369clip-0)"/><g transform="matrix(1,0,0,1,0,0)"><text x="494.24" y="715.52" style="fill: rgb(64,64,64); fill-opacity: 1.0; font-family: Tahoma; font-size: 12px;" clip-path="url(#_88706125230369clip-0)">0,0070</text></g><line x1="512.24" y1="701" x2="512.24" y2="699" style="stroke-width: 0.5;stroke: rgb(128,128,128);stroke-opacity: 1.0;stroke-linecap: square;shape-rendering:crispEdges;" transform="matrix(1,0,0,1,0,0)" clip-path="url(#_88706125230369clip-0)"/><g transform="matrix(1,0,0,1,0,0)"><text x="587.83" y="715.52" style="fill: rgb(64,64,64); fill-opacity: 1.0; font-family: Tahoma; font-size: 12px;" clip-path="url(#_88706125230369clip-0)">0,0075</text></g><line x1="605.83" y1="701" x2="605.83" y2="699" style="stroke-width: 0.5;stroke: rgb(128,128,128);stroke-opacity: 1.0;stroke-linecap: square;shape-rendering:crispEdges;" transform="matrix(1,0,0,1,0,0)" clip-path="url(#_88706125230369clip-0)"/><g transform="matrix(1,0,0,1,0,0)"><text x="681.42" y="715.52" style="fill: rgb(64,64,64); fill-opacity: 1.0; font-family: Tahoma; font-size: 12px;" clip-path="url(#_88706125230369clip-0)">0,0080</text></g><line x1="699.42" y1="701" x2="699.42" y2="699" style="stroke-width: 0.5;stroke: rgb(128,128,128);stroke-opacity: 1.0;stroke-linecap: square;shape-rendering:crispEdges;" transform="matrix(1,0,0,1,0,0)" clip-path="url(#_88706125230369clip-0)"/><g transform="matrix(1,0,0,1,0,0)"><text x="775.01" y="715.52" style="fill: rgb(64,64,64); fill-opacity: 1.0; font-family: Tahoma; font-size: 12px;" clip-path="url(#_88706125230369clip-0)">0,0085</text></g><line x1="793.01" y1="701" x2="793.01" y2="699" style="stroke-width: 0.5;stroke: rgb(128,128,128);stroke-opacity: 1.0;stroke-linecap: square;shape-rendering:crispEdges;" transform="matrix(1,0,0,1,0,0)" clip-path="url(#_88706125230369clip-0)"/><g transform="matrix(1,0,0,1,0,0)"><text x="868.6" y="715.52" style="fill: rgb(64,64,64); fill-opacity: 1.0; font-family: Tahoma; font-size: 12px;" clip-path="url(#_88706125230369clip-0)">0,0090</text></g><line x1="886.6" y1="701" x2="886.6" y2="699" style="stroke-width: 0.5;stroke: rgb(128,128,128);stroke-opacity: 1.0;stroke-linecap: square;shape-rendering:crispEdges;" transform="matrix(1,0,0,1,0,0)" clip-path="url(#_88706125230369clip-0)"/><g transform="matrix(1,0,0,1,0,0)"><text x="962.2" y="715.52" style="fill: rgb(64,64,64); fill-opacity: 1.0; font-family: Tahoma; font-size: 12px;" clip-path="url(#_88706125230369clip-0)">0,0095</text></g><line x1="980.2" y1="701" x2="980.2" y2="699" style="stroke-width: 0.5;stroke: rgb(128,128,128);stroke-opacity: 1.0;stroke-linecap: square;shape-rendering:crispEdges;" transform="matrix(1,0,0,1,0,0)" clip-path="url(#_88706125230369clip-0)"/><g transform="matrix(1,0,0,1,0,0)"><text x="1055.79" y="715.52" style="fill: rgb(64,64,64); fill-opacity: 1.0; font-family: Tahoma; font-size: 12px;" clip-path="url(#_88706125230369clip-0)">0,0100</text></g><line x1="1073.79" y1="701" x2="1073.79" y2="699" style="stroke-width: 0.5;stroke: rgb(128,128,128);stroke-opacity: 1.0;stroke-linecap: square;shape-rendering:crispEdges;" transform="matrix(1,0,0,1,0,0)" clip-path="url(#_88706125230369clip-0)"/><g transform="matrix(1,0,0,1,0,0)"><text x="570.5" y="734.59" style="fill: rgb(64,64,64); fill-opacity: 1.0; font-family: Tahoma; font-size: 14px; font-weight: bold;" clip-path="url(#_88706125230369clip-0)">CD (deg)</text></g><line x1="60" y1="35" x2="60" y2="695" style="stroke-width: 0.5;stroke: rgb(128,128,128);stroke-opacity: 1.0;stroke-linecap: square;shape-rendering:crispEdges;" transform="matrix(1,0,0,1,0,0)" clip-path="url(#_88706125230369clip-0)"/><g transform="matrix(1,0,0,1,0,0)"><text x="33" y="690.72" style="fill: rgb(64,64,64); fill-opacity: 1.0; font-family: Tahoma; font-size: 12px;" clip-path="url(#_88706125230369clip-0)">-0,6</text></g><line x1="58" y1="685.7" x2="60" y2="685.7" style="stroke-width: 0.5;stroke: rgb(128,128,128);stroke-opacity: 1.0;stroke-linecap: square;shape-rendering:crispEdges;" transform="matrix(1,0,0,1,0,0)" clip-path="url(#_88706125230369clip-0)"/><g transform="matrix(1,0,0,1,0,0)"><text x="33" y="656.55" style="fill: rgb(64,64,64); fill-opacity: 1.0; font-family: Tahoma; font-size: 12px;" clip-path="url(#_88706125230369clip-0)">-0,5</text></g><line x1="58" y1="651.53" x2="60" y2="651.53" style="stroke-width: 0.5;stroke: rgb(128,128,128);stroke-opacity: 1.0;stroke-linecap: square;shape-rendering:crispEdges;" transform="matrix(1,0,0,1,0,0)" clip-path="url(#_88706125230369clip-0)"/><g transform="matrix(1,0,0,1,0,0)"><text x="33" y="622.38" style="fill: rgb(64,64,64); fill-opacity: 1.0; font-family: Tahoma; font-size: 12px;" clip-path="url(#_88706125230369clip-0)">-0,4</text></g><line x1="58" y1="617.36" x2="60" y2="617.36" style="stroke-width: 0.5;stroke: rgb(128,128,128);stroke-opacity: 1.0;stroke-linecap: square;shape-rendering:crispEdges;" transform="matrix(1,0,0,1,0,0)" clip-path="url(#_88706125230369clip-0)"/><g transform="matrix(1,0,0,1,0,0)"><text x="33" y="588.22" style="fill: rgb(64,64,64); fill-opacity: 1.0; font-family: Tahoma; font-size: 12px;" clip-path="url(#_88706125230369clip-0)">-0,3</text></g><line x1="58" y1="583.19" x2="60" y2="583.19" style="stroke-width: 0.5;stroke: rgb(128,128,128);stroke-opacity: 1.0;stroke-linecap: square;shape-rendering:crispEdges;" transform="matrix(1,0,0,1,0,0)" clip-path="url(#_88706125230369clip-0)"/><g transform="matrix(1,0,0,1,0,0)"><text x="33" y="554.05" style="fill: rgb(64,64,64); fill-opacity: 1.0; font-family: Tahoma; font-size: 12px;" clip-path="url(#_88706125230369clip-0)">-0,2</text></g><line x1="58" y1="549.03" x2="60" y2="549.03" style="stroke-width: 0.5;stroke: rgb(128,128,128);stroke-opacity: 1.0;stroke-linecap: square;shape-rendering:crispEdges;" transform="matrix(1,0,0,1,0,0)" clip-path="url(#_88706125230369clip-0)"/><g transform="matrix(1,0,0,1,0,0)"><text x="33" y="519.88" style="fill: rgb(64,64,64); fill-opacity: 1.0; font-family: Tahoma; font-size: 12px;" clip-path="url(#_88706125230369clip-0)">-0,1</text></g><line x1="58" y1="514.86" x2="60" y2="514.86" style="stroke-width: 0.5;stroke: rgb(128,128,128);stroke-opacity: 1.0;stroke-linecap: square;shape-rendering:crispEdges;" transform="matrix(1,0,0,1,0,0)" clip-path="url(#_88706125230369clip-0)"/><g transform="matrix(1,0,0,1,0,0)"><text x="37" y="485.71" style="fill: rgb(64,64,64); fill-opacity: 1.0; font-family: Tahoma; font-size: 12px;" clip-path="url(#_88706125230369clip-0)">0,0</text></g><line x1="58" y1="480.69" x2="60" y2="480.69" style="stroke-width: 0.5;stroke: rgb(128,128,128);stroke-opacity: 1.0;stroke-linecap: square;shape-rendering:crispEdges;" transform="matrix(1,0,0,1,0,0)" clip-path="url(#_88706125230369clip-0)"/><g transform="matrix(1,0,0,1,0,0)"><text x="37" y="451.55" style="fill: rgb(64,64,64); fill-opacity: 1.0; font-family: Tahoma; font-size: 12px;" clip-path="url(#_88706125230369clip-0)">0,1</text></g><line x1="58" y1="446.52" x2="60" y2="446.52" style="stroke-width: 0.5;stroke: rgb(128,128,128);stroke-opacity: 1.0;stroke-linecap: square;shape-rendering:crispEdges;" transform="matrix(1,0,0,1,0,0)" clip-path="url(#_88706125230369clip-0)"/><g transform="matrix(1,0,0,1,0,0)"><text x="37" y="417.38" style="fill: rgb(64,64,64); fill-opacity: 1.0; font-family: Tahoma; font-size: 12px;" clip-path="url(#_88706125230369clip-0)">0,2</text></g><line x1="58" y1="412.36" x2="60" y2="412.36" style="stroke-width: 0.5;stroke: rgb(128,128,128);stroke-opacity: 1.0;stroke-linecap: square;shape-rendering:crispEdges;" transform="matrix(1,0,0,1,0,0)" clip-path="url(#_88706125230369clip-0)"/><g transform="matrix(1,0,0,1,0,0)"><text x="37" y="383.21" style="fill: rgb(64,64,64); fill-opacity: 1.0; font-family: Tahoma; font-size: 12px;" clip-path="url(#_88706125230369clip-0)">0,3</text></g><line x1="58" y1="378.19" x2="60" y2="378.19" style="stroke-width: 0.5;stroke: rgb(128,128,128);stroke-opacity: 1.0;stroke-linecap: square;shape-rendering:crispEdges;" transform="matrix(1,0,0,1,0,0)" clip-path="url(#_88706125230369clip-0)"/><g transform="matrix(1,0,0,1,0,0)"><text x="37" y="349.04" style="fill: rgb(64,64,64); fill-opacity: 1.0; font-family: Tahoma; font-size: 12px;" clip-path="url(#_88706125230369clip-0)">0,4</text></g><line x1="58" y1="344.02" x2="60" y2="344.02" style="stroke-width: 0.5;stroke: rgb(128,128,128);stroke-opacity: 1.0;stroke-linecap: square;shape-rendering:crispEdges;" transform="matrix(1,0,0,1,0,0)" clip-path="url(#_88706125230369clip-0)"/><g transform="matrix(1,0,0,1,0,0)"><text x="37" y="314.88" style="fill: rgb(64,64,64); fill-opacity: 1.0; font-family: Tahoma; font-size: 12px;" clip-path="url(#_88706125230369clip-0)">0,5</text></g><line x1="58" y1="309.85" x2="60" y2="309.85" style="stroke-width: 0.5;stroke: rgb(128,128,128);stroke-opacity: 1.0;stroke-linecap: square;shape-rendering:crispEdges;" transform="matrix(1,0,0,1,0,0)" clip-path="url(#_88706125230369clip-0)"/><g transform="matrix(1,0,0,1,0,0)"><text x="37" y="280.71" style="fill: rgb(64,64,64); fill-opacity: 1.0; font-family: Tahoma; font-size: 12px;" clip-path="url(#_88706125230369clip-0)">0,6</text></g><line x1="58" y1="275.69" x2="60" y2="275.69" style="stroke-width: 0.5;stroke: rgb(128,128,128);stroke-opacity: 1.0;stroke-linecap: square;shape-rendering:crispEdges;" transform="matrix(1,0,0,1,0,0)" clip-path="url(#_88706125230369clip-0)"/><g transform="matrix(1,0,0,1,0,0)"><text x="37" y="246.54" style="fill: rgb(64,64,64); fill-opacity: 1.0; font-family: Tahoma; font-size: 12px;" clip-path="url(#_88706125230369clip-0)">0,7</text></g><line x1="58" y1="241.52" x2="60" y2="241.52" style="stroke-width: 0.5;stroke: rgb(128,128,128);stroke-opacity: 1.0;stroke-linecap: square;shape-rendering:crispEdges;" transform="matrix(1,0,0,1,0,0)" clip-path="url(#_88706125230369clip-0)"/><g transform="matrix(1,0,0,1,0,0)"><text x="37" y="212.37" style="fill: rgb(64,64,64); fill-opacity: 1.0; font-family: Tahoma; font-size: 12px;" clip-path="url(#_88706125230369clip-0)">0,8</text></g><line x1="58" y1="207.35" x2="60" y2="207.35" style="stroke-width: 0.5;stroke: rgb(128,128,128);stroke-opacity: 1.0;stroke-linecap: square;shape-rendering:crispEdges;" transform="matrix(1,0,0,1,0,0)" clip-path="url(#_88706125230369clip-0)"/><g transform="matrix(1,0,0,1,0,0)"><text x="37" y="178.2" style="fill: rgb(64,64,64); fill-opacity: 1.0; font-family: Tahoma; font-size: 12px;" clip-path="url(#_88706125230369clip-0)">0,9</text></g><line x1="58" y1="173.18" x2="60" y2="173.18" style="stroke-width: 0.5;stroke: rgb(128,128,128);stroke-opacity: 1.0;stroke-linecap: square;shape-rendering:crispEdges;" transform="matrix(1,0,0,1,0,0)" clip-path="url(#_88706125230369clip-0)"/><g transform="matrix(1,0,0,1,0,0)"><text x="37" y="144.04" style="fill: rgb(64,64,64); fill-opacity: 1.0; font-family: Tahoma; font-size: 12px;" clip-path="url(#_88706125230369clip-0)">1,0</text></g><line x1="58" y1="139.02" x2="60" y2="139.02" style="stroke-width: 0.5;stroke: rgb(128,128,128);stroke-opacity: 1.0;stroke-linecap: square;shape-rendering:crispEdges;" transform="matrix(1,0,0,1,0,0)" clip-path="url(#_88706125230369clip-0)"/><g transform="matrix(1,0,0,1,0,0)"><text x="37" y="109.87" style="fill: rgb(64,64,64); fill-opacity: 1.0; font-family: Tahoma; font-size: 12px;" clip-path="url(#_88706125230369clip-0)">1,1</text></g><line x1="58" y1="104.85" x2="60" y2="104.85" style="stroke-width: 0.5;stroke: rgb(128,128,128);stroke-opacity: 1.0;stroke-linecap: square;shape-rendering:crispEdges;" transform="matrix(1,0,0,1,0,0)" clip-path="url(#_88706125230369clip-0)"/><g transform="matrix(1,0,0,1,0,0)"><text x="37" y="75.7" style="fill: rgb(64,64,64); fill-opacity: 1.0; font-family: Tahoma; font-size: 12px;" clip-path="url(#_88706125230369clip-0)">1,2</text></g><line x1="58" y1="70.68" x2="60" y2="70.68" style="stroke-width: 0.5;stroke: rgb(128,128,128);stroke-opacity: 1.0;stroke-linecap: square;shape-rendering:crispEdges;" transform="matrix(1,0,0,1,0,0)" clip-path="url(#_88706125230369clip-0)"/><g transform="matrix(1,0,0,1,0,0)"><text x="37" y="41.53" style="fill: rgb(64,64,64); fill-opacity: 1.0; font-family: Tahoma; font-size: 12px;" clip-path="url(#_88706125230369clip-0)">1,3</text></g><line x1="58" y1="36.51" x2="60" y2="36.51" style="stroke-width: 0.5;stroke: rgb(128,128,128);stroke-opacity: 1.0;stroke-linecap: square;shape-rendering:crispEdges;" transform="matrix(1,0,0,1,0,0)" clip-path="url(#_88706125230369clip-0)"/><g style="fill: rgb(64,64,64); fill-opacity: 1.0; stroke: none" transform="matrix(0,-1,1,0,-345.5,384.5)" clip-path="url(#_88706125230369clip-1)"><path d="M 14.44 370.81 Q 12.16 370.81 10.8 369.42 Q 9.45 368.03 9.45 365.53 Q 9.45 363.11 10.8 361.67 Q 12.16 360.23 14.45 360.23 Q 15.06 360.23 15.55 360.3 Q 16.03 360.37 16.47 360.48 Q 16.83 360.59 17.23 360.77 Q 17.64 360.95 17.89 361.08 L 17.89 363.5 L 17.64 363.5 Q 17.45 363.34 17.17 363.12 Q 16.89 362.89 16.53 362.67 Q 16.17 362.45 15.75 362.3 Q 15.33 362.14 14.86 362.14 Q 14.31 362.14 13.84 362.31 Q 13.38 362.48 12.97 362.92 Q 12.58 363.31 12.34 363.98 Q 12.09 364.64 12.09 365.53 Q 12.09 366.48 12.35 367.13 Q 12.61 367.78 13.02 368.17 Q 13.41 368.56 13.9 368.73 Q 14.39 368.91 14.88 368.91 Q 15.38 368.91 15.84 368.73 Q 16.3 368.56 16.61 368.36 Q 16.95 368.14 17.21 367.92 Q 17.47 367.7 17.66 367.55 L 17.89 367.55 L 17.89 369.94 Q 17.61 370.06 17.24 370.23 Q 16.88 370.39 16.48 370.51 Q 16 370.66 15.59 370.73 Q 15.17 370.81 14.44 370.81 Z  M 26.19 370.61 L 19.39 370.61 L 19.39 360.44 L 21.95 360.44 L 21.95 368.67 L 26.19 368.67 L 26.19 370.61 Z "/></g><line x1="137.87" y1="35" x2="137.87" y2="695" style="stroke-width: 0.5;stroke: rgb(192,192,192);stroke-opacity: 1.0;stroke-linejoin: bevel;stroke-dasharray: 2.0, 2.0;shape-rendering:crispEdges;" transform="matrix(1,0,0,1,0,0)" clip-path="url(#_88706125230369clip-2)"/><line x1="231.46" y1="35" x2="231.46" y2="695" style="stroke-width: 0.5;stroke: rgb(192,192,192);stroke-opacity: 1.0;stroke-linejoin: bevel;stroke-dasharray: 2.0, 2.0;shape-rendering:crispEdges;" transform="matrix(1,0,0,1,0,0)" clip-path="url(#_88706125230369clip-2)"/><line x1="325.05" y1="35" x2="325.05" y2="695" style="stroke-width: 0.5;stroke: rgb(192,192,192);stroke-opacity: 1.0;stroke-linejoin: bevel;stroke-dasharray: 2.0, 2.0;shape-rendering:crispEdges;" transform="matrix(1,0,0,1,0,0)" clip-path="url(#_88706125230369clip-2)"/><line x1="418.65" y1="35" x2="418.65" y2="695" style="stroke-width: 0.5;stroke: rgb(192,192,192);stroke-opacity: 1.0;stroke-linejoin: bevel;stroke-dasharray: 2.0, 2.0;shape-rendering:crispEdges;" transform="matrix(1,0,0,1,0,0)" clip-path="url(#_88706125230369clip-2)"/><line x1="512.24" y1="35" x2="512.24" y2="695" style="stroke-width: 0.5;stroke: rgb(192,192,192);stroke-opacity: 1.0;stroke-linejoin: bevel;stroke-dasharray: 2.0, 2.0;shape-rendering:crispEdges;" transform="matrix(1,0,0,1,0,0)" clip-path="url(#_88706125230369clip-2)"/><line x1="605.83" y1="35" x2="605.83" y2="695" style="stroke-width: 0.5;stroke: rgb(192,192,192);stroke-opacity: 1.0;stroke-linejoin: bevel;stroke-dasharray: 2.0, 2.0;shape-rendering:crispEdges;" transform="matrix(1,0,0,1,0,0)" clip-path="url(#_88706125230369clip-2)"/><line x1="699.42" y1="35" x2="699.42" y2="695" style="stroke-width: 0.5;stroke: rgb(192,192,192);stroke-opacity: 1.0;stroke-linejoin: bevel;stroke-dasharray: 2.0, 2.0;shape-rendering:crispEdges;" transform="matrix(1,0,0,1,0,0)" clip-path="url(#_88706125230369clip-2)"/><line x1="793.01" y1="35" x2="793.01" y2="695" style="stroke-width: 0.5;stroke: rgb(192,192,192);stroke-opacity: 1.0;stroke-linejoin: bevel;stroke-dasharray: 2.0, 2.0;shape-rendering:crispEdges;" transform="matrix(1,0,0,1,0,0)" clip-path="url(#_88706125230369clip-2)"/><line x1="886.6" y1="35" x2="886.6" y2="695" style="stroke-width: 0.5;stroke: rgb(192,192,192);stroke-opacity: 1.0;stroke-linejoin: bevel;stroke-dasharray: 2.0, 2.0;shape-rendering:crispEdges;" transform="matrix(1,0,0,1,0,0)" clip-path="url(#_88706125230369clip-2)"/><line x1="980.2" y1="35" x2="980.2" y2="695" style="stroke-width: 0.5;stroke: rgb(192,192,192);stroke-opacity: 1.0;stroke-linejoin: bevel;stroke-dasharray: 2.0, 2.0;shape-rendering:crispEdges;" transform="matrix(1,0,0,1,0,0)" clip-path="url(#_88706125230369clip-2)"/><line x1="1073.79" y1="35" x2="1073.79" y2="695" style="stroke-width: 0.5;stroke: rgb(192,192,192);stroke-opacity: 1.0;stroke-linejoin: bevel;stroke-dasharray: 2.0, 2.0;shape-rendering:crispEdges;" transform="matrix(1,0,0,1,0,0)" clip-path="url(#_88706125230369clip-2)"/><line x1="64" y1="685.7" x2="1140" y2="685.7" style="stroke-width: 0.5;stroke: rgb(192,192,192);stroke-opacity: 1.0;stroke-linejoin: bevel;stroke-dasharray: 2.0, 2.0;shape-rendering:crispEdges;" transform="matrix(1,0,0,1,0,0)" clip-path="url(#_88706125230369clip-2)"/><line x1="64" y1="651.53" x2="1140" y2="651.53" style="stroke-width: 0.5;stroke: rgb(192,192,192);stroke-opacity: 1.0;stroke-linejoin: bevel;stroke-dasharray: 2.0, 2.0;shape-rendering:crispEdges;" transform="matrix(1,0,0,1,0,0)" clip-path="url(#_88706125230369clip-2)"/><line x1="64" y1="617.36" x2="1140" y2="617.36" style="stroke-width: 0.5;stroke: rgb(192,192,192);stroke-opacity: 1.0;stroke-linejoin: bevel;stroke-dasharray: 2.0, 2.0;shape-rendering:crispEdges;" transform="matrix(1,0,0,1,0,0)" clip-path="url(#_88706125230369clip-2)"/><line x1="64" y1="583.19" x2="1140" y2="583.19" style="stroke-width: 0.5;stroke: rgb(192,192,192);stroke-opacity: 1.0;stroke-linejoin: bevel;stroke-dasharray: 2.0, 2.0;shape-rendering:crispEdges;" transform="matrix(1,0,0,1,0,0)" clip-path="url(#_88706125230369clip-2)"/><line x1="64" y1="549.03" x2="1140" y2="549.03" style="stroke-width: 0.5;stroke: rgb(192,192,192);stroke-opacity: 1.0;stroke-linejoin: bevel;stroke-dasharray: 2.0, 2.0;shape-rendering:crispEdges;" transform="matrix(1,0,0,1,0,0)" clip-path="url(#_88706125230369clip-2)"/><line x1="64" y1="514.86" x2="1140" y2="514.86" style="stroke-width: 0.5;stroke: rgb(192,192,192);stroke-opacity: 1.0;stroke-linejoin: bevel;stroke-dasharray: 2.0, 2.0;shape-rendering:crispEdges;" transform="matrix(1,0,0,1,0,0)" clip-path="url(#_88706125230369clip-2)"/><line x1="64" y1="480.69" x2="1140" y2="480.69" style="stroke-width: 0.5;stroke: rgb(192,192,192);stroke-opacity: 1.0;stroke-linejoin: bevel;stroke-dasharray: 2.0, 2.0;shape-rendering:crispEdges;" transform="matrix(1,0,0,1,0,0)" clip-path="url(#_88706125230369clip-2)"/><line x1="64" y1="446.52" x2="1140" y2="446.52" style="stroke-width: 0.5;stroke: rgb(192,192,192);stroke-opacity: 1.0;stroke-linejoin: bevel;stroke-dasharray: 2.0, 2.0;shape-rendering:crispEdges;" transform="matrix(1,0,0,1,0,0)" clip-path="url(#_88706125230369clip-2)"/><line x1="64" y1="412.36" x2="1140" y2="412.36" style="stroke-width: 0.5;stroke: rgb(192,192,192);stroke-opacity: 1.0;stroke-linejoin: bevel;stroke-dasharray: 2.0, 2.0;shape-rendering:crispEdges;" transform="matrix(1,0,0,1,0,0)" clip-path="url(#_88706125230369clip-2)"/><line x1="64" y1="378.19" x2="1140" y2="378.19" style="stroke-width: 0.5;stroke: rgb(192,192,192);stroke-opacity: 1.0;stroke-linejoin: bevel;stroke-dasharray: 2.0, 2.0;shape-rendering:crispEdges;" transform="matrix(1,0,0,1,0,0)" clip-path="url(#_88706125230369clip-2)"/><line x1="64" y1="344.02" x2="1140" y2="344.02" style="stroke-width: 0.5;stroke: rgb(192,192,192);stroke-opacity: 1.0;stroke-linejoin: bevel;stroke-dasharray: 2.0, 2.0;shape-rendering:crispEdges;" transform="matrix(1,0,0,1,0,0)" clip-path="url(#_88706125230369clip-2)"/><line x1="64" y1="309.85" x2="1140" y2="309.85" style="stroke-width: 0.5;stroke: rgb(192,192,192);stroke-opacity: 1.0;stroke-linejoin: bevel;stroke-dasharray: 2.0, 2.0;shape-rendering:crispEdges;" transform="matrix(1,0,0,1,0,0)" clip-path="url(#_88706125230369clip-2)"/><line x1="64" y1="275.69" x2="1140" y2="275.69" style="stroke-width: 0.5;stroke: rgb(192,192,192);stroke-opacity: 1.0;stroke-linejoin: bevel;stroke-dasharray: 2.0, 2.0;shape-rendering:crispEdges;" transform="matrix(1,0,0,1,0,0)" clip-path="url(#_88706125230369clip-2)"/><line x1="64" y1="241.52" x2="1140" y2="241.52" style="stroke-width: 0.5;stroke: rgb(192,192,192);stroke-opacity: 1.0;stroke-linejoin: bevel;stroke-dasharray: 2.0, 2.0;shape-rendering:crispEdges;" transform="matrix(1,0,0,1,0,0)" clip-path="url(#_88706125230369clip-2)"/><line x1="64" y1="207.35" x2="1140" y2="207.35" style="stroke-width: 0.5;stroke: rgb(192,192,192);stroke-opacity: 1.0;stroke-linejoin: bevel;stroke-dasharray: 2.0, 2.0;shape-rendering:crispEdges;" transform="matrix(1,0,0,1,0,0)" clip-path="url(#_88706125230369clip-2)"/><line x1="64" y1="173.18" x2="1140" y2="173.18" style="stroke-width: 0.5;stroke: rgb(192,192,192);stroke-opacity: 1.0;stroke-linejoin: bevel;stroke-dasharray: 2.0, 2.0;shape-rendering:crispEdges;" transform="matrix(1,0,0,1,0,0)" clip-path="url(#_88706125230369clip-2)"/><line x1="64" y1="139.02" x2="1140" y2="139.02" style="stroke-width: 0.5;stroke: rgb(192,192,192);stroke-opacity: 1.0;stroke-linejoin: bevel;stroke-dasharray: 2.0, 2.0;shape-rendering:crispEdges;" transform="matrix(1,0,0,1,0,0)" clip-path="url(#_88706125230369clip-2)"/><line x1="64" y1="104.85" x2="1140" y2="104.85" style="stroke-width: 0.5;stroke: rgb(192,192,192);stroke-opacity: 1.0;stroke-linejoin: bevel;stroke-dasharray: 2.0, 2.0;shape-rendering:crispEdges;" transform="matrix(1,0,0,1,0,0)" clip-path="url(#_88706125230369clip-2)"/><line x1="64" y1="70.68" x2="1140" y2="70.68" style="stroke-width: 0.5;stroke: rgb(192,192,192);stroke-opacity: 1.0;stroke-linejoin: bevel;stroke-dasharray: 2.0, 2.0;shape-rendering:crispEdges;" transform="matrix(1,0,0,1,0,0)" clip-path="url(#_88706125230369clip-2)"/><line x1="64" y1="36.51" x2="1140" y2="36.51" style="stroke-width: 0.5;stroke: rgb(192,192,192);stroke-opacity: 1.0;stroke-linejoin: bevel;stroke-dasharray: 2.0, 2.0;shape-rendering:crispEdges;" transform="matrix(1,0,0,1,0,0)" clip-path="url(#_88706125230369clip-2)"/><line x1="488.49" y1="590.03" x2="454.29" y2="571.91" style="stroke-width: 3.0;stroke: rgb(0,0,255);stroke-opacity: 1.0;stroke-linecap: round;stroke-linejoin: round;stroke-dasharray: 10.0, 5.0;shape-rendering:geometricPrecision;" transform="matrix(1,0,0,1,0,0)" clip-path="url(#_88706125230369clip-2)"/><line x1="454.29" y1="571.91" x2="424.54" y2="553.78" style="stroke-width: 3.0;stroke: rgb(0,0,255);stroke-opacity: 1.0;stroke-linecap: round;stroke-linejoin: round;stroke-dasharray: 10.0, 5.0;shape-rendering:geometricPrecision;" transform="matrix(1,0,0,1,0,0)" clip-path="url(#_88706125230369clip-2)"/><line x1="424.54" y1="553.78" x2="397.4" y2="535.65" style="stroke-width: 3.0;stroke: rgb(0,0,255);stroke-opacity: 1.0;stroke-linecap: round;stroke-linejoin: round;stroke-dasharray: 10.0, 5.0;shape-rendering:geometricPrecision;" transform="matrix(1,0,0,1,0,0)" clip-path="url(#_88706125230369clip-2)"/><line x1="397.4" y1="535.65" x2="375.3" y2="517.53" style="stroke-width: 3.0;stroke: rgb(0,0,255);stroke-opacity: 1.0;stroke-linecap: round;stroke-linejoin: round;stroke-dasharray: 10.0, 5.0;shape-rendering:geometricPrecision;" transform="matrix(1,0,0,1,0,0)" clip-path="url(#_88706125230369clip-2)"/><line x1="375.3" y1="517.53" x2="355.24" y2="499.4" style="stroke-width: 3.0;stroke: rgb(0,0,255);stroke-opacity: 1.0;stroke-linecap: round;stroke-linejoin: round;stroke-dasharray: 10.0, 5.0;shape-rendering:geometricPrecision;" transform="matrix(1,0,0,1,0,0)" clip-path="url(#_88706125230369clip-2)"/><line x1="355.24" y1="499.4" x2="340.77" y2="481.28" style="stroke-width: 3.0;stroke: rgb(0,0,255);stroke-opacity: 1.0;stroke-linecap: round;stroke-linejoin: round;stroke-dasharray: 10.0, 5.0;shape-rendering:geometricPrecision;" transform="matrix(1,0,0,1,0,0)" clip-path="url(#_88706125230369clip-2)"/><line x1="340.77" y1="481.28" x2="327.89" y2="463.37" style="stroke-width: 3.0;stroke: rgb(0,0,255);stroke-opacity: 1.0;stroke-linecap: round;stroke-linejoin: round;stroke-dasharray: 10.0, 5.0;shape-rendering:geometricPrecision;" transform="matrix(1,0,0,1,0,0)" clip-path="url(#_88706125230369clip-2)"/><line x1="327.89" y1="463.37" x2="320.93" y2="445.03" style="stroke-width: 3.0;stroke: rgb(0,0,255);stroke-opacity: 1.0;stroke-linecap: round;stroke-linejoin: round;stroke-dasharray: 10.0, 5.0;shape-rendering:geometricPrecision;" transform="matrix(1,0,0,1,0,0)" clip-path="url(#_88706125230369clip-2)"/><line x1="320.93" y1="445.03" x2="315.06" y2="426.9" style="stroke-width: 3.0;stroke: rgb(0,0,255);stroke-opacity: 1.0;stroke-linecap: round;stroke-linejoin: round;stroke-dasharray: 10.0, 5.0;shape-rendering:geometricPrecision;" transform="matrix(1,0,0,1,0,0)" clip-path="url(#_88706125230369clip-2)"/><line x1="315.06" y1="426.9" x2="315.86" y2="408.98" style="stroke-width: 3.0;stroke: rgb(0,0,255);stroke-opacity: 1.0;stroke-linecap: round;stroke-linejoin: round;stroke-dasharray: 10.0, 5.0;shape-rendering:geometricPrecision;" transform="matrix(1,0,0,1,0,0)" clip-path="url(#_88706125230369clip-2)"/><line x1="315.86" y1="408.98" x2="317.31" y2="391.27" style="stroke-width: 3.0;stroke: rgb(0,0,255);stroke-opacity: 1.0;stroke-linecap: round;stroke-linejoin: round;stroke-dasharray: 10.0, 5.0;shape-rendering:geometricPrecision;" transform="matrix(1,0,0,1,0,0)" clip-path="url(#_88706125230369clip-2)"/><line x1="317.31" y1="391.27" x2="325.2" y2="373.75" style="stroke-width: 3.0;stroke: rgb(0,0,255);stroke-opacity: 1.0;stroke-linecap: round;stroke-linejoin: round;stroke-dasharray: 10.0, 5.0;shape-rendering:geometricPrecision;" transform="matrix(1,0,0,1,0,0)" clip-path="url(#_88706125230369clip-2)"/><line x1="325.2" y1="373.75" x2="334.12" y2="356.44" style="stroke-width: 3.0;stroke: rgb(0,0,255);stroke-opacity: 1.0;stroke-linecap: round;stroke-linejoin: round;stroke-dasharray: 10.0, 5.0;shape-rendering:geometricPrecision;" transform="matrix(1,0,0,1,0,0)" clip-path="url(#_88706125230369clip-2)"/><line x1="334.12" y1="356.44" x2="348.98" y2="339.33" style="stroke-width: 3.0;stroke: rgb(0,0,255);stroke-opacity: 1.0;stroke-linecap: round;stroke-linejoin: round;stroke-dasharray: 10.0, 5.0;shape-rendering:geometricPrecision;" transform="matrix(1,0,0,1,0,0)" clip-path="url(#_88706125230369clip-2)"/><line x1="348.98" y1="339.33" x2="364.94" y2="322.4" style="stroke-width: 3.0;stroke: rgb(0,0,255);stroke-opacity: 1.0;stroke-linecap: round;stroke-linejoin: round;stroke-dasharray: 10.0, 5.0;shape-rendering:geometricPrecision;" transform="matrix(1,0,0,1,0,0)" clip-path="url(#_88706125230369clip-2)"/><line x1="364.94" y1="322.4" x2="385.79" y2="305.66" style="stroke-width: 3.0;stroke: rgb(0,0,255);stroke-opacity: 1.0;stroke-linecap: round;stroke-linejoin: round;stroke-dasharray: 10.0, 5.0;shape-rendering:geometricPrecision;" transform="matrix(1,0,0,1,0,0)" clip-path="url(#_88706125230369clip-2)"/><line x1="385.79" y1="305.66" x2="407.73" y2="289.1" style="stroke-width: 3.0;stroke: rgb(0,0,255);stroke-opacity: 1.0;stroke-linecap: round;stroke-linejoin: round;stroke-dasharray: 10.0, 5.0;shape-rendering:geometricPrecision;" transform="matrix(1,0,0,1,0,0)" clip-path="url(#_88706125230369clip-2)"/><line x1="407.73" y1="289.1" x2="434.1" y2="272.72" style="stroke-width: 3.0;stroke: rgb(0,0,255);stroke-opacity: 1.0;stroke-linecap: round;stroke-linejoin: round;stroke-dasharray: 10.0, 5.0;shape-rendering:geometricPrecision;" transform="matrix(1,0,0,1,0,0)" clip-path="url(#_88706125230369clip-2)"/><line x1="434.1" y1="272.72" x2="461.66" y2="256.51" style="stroke-width: 3.0;stroke: rgb(0,0,255);stroke-opacity: 1.0;stroke-linecap: round;stroke-linejoin: round;stroke-dasharray: 10.0, 5.0;shape-rendering:geometricPrecision;" transform="matrix(1,0,0,1,0,0)" clip-path="url(#_88706125230369clip-2)"/><line x1="461.66" y1="256.51" x2="493.17" y2="240.47" style="stroke-width: 3.0;stroke: rgb(0,0,255);stroke-opacity: 1.0;stroke-linecap: round;stroke-linejoin: round;stroke-dasharray: 10.0, 5.0;shape-rendering:geometricPrecision;" transform="matrix(1,0,0,1,0,0)" clip-path="url(#_88706125230369clip-2)"/><line x1="493.17" y1="240.47" x2="526.09" y2="224.57" style="stroke-width: 3.0;stroke: rgb(0,0,255);stroke-opacity: 1.0;stroke-linecap: round;stroke-linejoin: round;stroke-dasharray: 10.0, 5.0;shape-rendering:geometricPrecision;" transform="matrix(1,0,0,1,0,0)" clip-path="url(#_88706125230369clip-2)"/><line x1="526.09" y1="224.57" x2="563.82" y2="208.24" style="stroke-width: 3.0;stroke: rgb(0,0,255);stroke-opacity: 1.0;stroke-linecap: round;stroke-linejoin: round;stroke-dasharray: 10.0, 5.0;shape-rendering:geometricPrecision;" transform="matrix(1,0,0,1,0,0)" clip-path="url(#_88706125230369clip-2)"/><line x1="563.82" y1="208.24" x2="607.09" y2="190.61" style="stroke-width: 3.0;stroke: rgb(0,0,255);stroke-opacity: 1.0;stroke-linecap: round;stroke-linejoin: round;stroke-dasharray: 10.0, 5.0;shape-rendering:geometricPrecision;" transform="matrix(1,0,0,1,0,0)" clip-path="url(#_88706125230369clip-2)"/><line x1="607.09" y1="190.61" x2="661.99" y2="170.22" style="stroke-width: 3.0;stroke: rgb(0,0,255);stroke-opacity: 1.0;stroke-linecap: round;stroke-linejoin: round;stroke-dasharray: 10.0, 5.0;shape-rendering:geometricPrecision;" transform="matrix(1,0,0,1,0,0)" clip-path="url(#_88706125230369clip-2)"/><line x1="661.99" y1="170.22" x2="725.89" y2="147.93" style="stroke-width: 3.0;stroke: rgb(0,0,255);stroke-opacity: 1.0;stroke-linecap: round;stroke-linejoin: round;stroke-dasharray: 10.0, 5.0;shape-rendering:geometricPrecision;" transform="matrix(1,0,0,1,0,0)" clip-path="url(#_88706125230369clip-2)"/><line x1="725.89" y1="147.93" x2="807.91" y2="121.3" style="stroke-width: 3.0;stroke: rgb(0,0,255);stroke-opacity: 1.0;stroke-linecap: round;stroke-linejoin: round;stroke-dasharray: 10.0, 5.0;shape-rendering:geometricPrecision;" transform="matrix(1,0,0,1,0,0)" clip-path="url(#_88706125230369clip-2)"/><line x1="807.91" y1="121.3" x2="895.36" y2="94.96" style="stroke-width: 3.0;stroke: rgb(0,0,255);stroke-opacity: 1.0;stroke-linecap: round;stroke-linejoin: round;stroke-dasharray: 10.0, 5.0;shape-rendering:geometricPrecision;" transform="matrix(1,0,0,1,0,0)" clip-path="url(#_88706125230369clip-2)"/><line x1="895.36" y1="94.96" x2="963.81" y2="75.52" style="stroke-width: 3.0;stroke: rgb(0,0,255);stroke-opacity: 1.0;stroke-linecap: round;stroke-linejoin: round;stroke-dasharray: 10.0, 5.0;shape-rendering:geometricPrecision;" transform="matrix(1,0,0,1,0,0)" clip-path="url(#_88706125230369clip-2)"/><line x1="413.62" y1="654.48" x2="379.42" y2="636.36" style="stroke-width: 3.0;stroke: rgb(0,0,0);stroke-opacity: 1.0;stroke-linecap: square;shape-rendering:geometricPrecision;" transform="matrix(1,0,0,1,0,0)" clip-path="url(#_88706125230369clip-2)"/><line x1="379.42" y1="636.36" x2="349.67" y2="618.23" style="stroke-width: 3.0;stroke: rgb(0,0,0);stroke-opacity: 1.0;stroke-linecap: square;shape-rendering:geometricPrecision;" transform="matrix(1,0,0,1,0,0)" clip-path="url(#_88706125230369clip-2)"/><line x1="349.67" y1="618.23" x2="322.52" y2="600.11" style="stroke-width: 3.0;stroke: rgb(0,0,0);stroke-opacity: 1.0;stroke-linecap: square;shape-rendering:geometricPrecision;" transform="matrix(1,0,0,1,0,0)" clip-path="url(#_88706125230369clip-2)"/><line x1="322.52" y1="600.11" x2="300.43" y2="581.98" style="stroke-width: 3.0;stroke: rgb(0,0,0);stroke-opacity: 1.0;stroke-linecap: square;shape-rendering:geometricPrecision;" transform="matrix(1,0,0,1,0,0)" clip-path="url(#_88706125230369clip-2)"/><line x1="300.43" y1="581.98" x2="280.37" y2="563.85" style="stroke-width: 3.0;stroke: rgb(0,0,0);stroke-opacity: 1.0;stroke-linecap: square;shape-rendering:geometricPrecision;" transform="matrix(1,0,0,1,0,0)" clip-path="url(#_88706125230369clip-2)"/><line x1="280.37" y1="563.85" x2="265.89" y2="545.73" style="stroke-width: 3.0;stroke: rgb(0,0,0);stroke-opacity: 1.0;stroke-linecap: square;shape-rendering:geometricPrecision;" transform="matrix(1,0,0,1,0,0)" clip-path="url(#_88706125230369clip-2)"/><line x1="265.89" y1="545.73" x2="253.02" y2="527.82" style="stroke-width: 3.0;stroke: rgb(0,0,0);stroke-opacity: 1.0;stroke-linecap: square;shape-rendering:geometricPrecision;" transform="matrix(1,0,0,1,0,0)" clip-path="url(#_88706125230369clip-2)"/><line x1="253.02" y1="527.82" x2="246.06" y2="509.48" style="stroke-width: 3.0;stroke: rgb(0,0,0);stroke-opacity: 1.0;stroke-linecap: square;shape-rendering:geometricPrecision;" transform="matrix(1,0,0,1,0,0)" clip-path="url(#_88706125230369clip-2)"/><line x1="246.06" y1="509.48" x2="240.19" y2="491.35" style="stroke-width: 3.0;stroke: rgb(0,0,0);stroke-opacity: 1.0;stroke-linecap: square;shape-rendering:geometricPrecision;" transform="matrix(1,0,0,1,0,0)" clip-path="url(#_88706125230369clip-2)"/><line x1="240.19" y1="491.35" x2="240.99" y2="473.43" style="stroke-width: 3.0;stroke: rgb(0,0,0);stroke-opacity: 1.0;stroke-linecap: square;shape-rendering:geometricPrecision;" transform="matrix(1,0,0,1,0,0)" clip-path="url(#_88706125230369clip-2)"/><line x1="240.99" y1="473.43" x2="242.44" y2="455.72" style="stroke-width: 3.0;stroke: rgb(0,0,0);stroke-opacity: 1.0;stroke-linecap: square;shape-rendering:geometricPrecision;" transform="matrix(1,0,0,1,0,0)" clip-path="url(#_88706125230369clip-2)"/><line x1="242.44" y1="455.72" x2="250.33" y2="438.2" style="stroke-width: 3.0;stroke: rgb(0,0,0);stroke-opacity: 1.0;stroke-linecap: square;shape-rendering:geometricPrecision;" transform="matrix(1,0,0,1,0,0)" clip-path="url(#_88706125230369clip-2)"/><line x1="250.33" y1="438.2" x2="259.24" y2="420.89" style="stroke-width: 3.0;stroke: rgb(0,0,0);stroke-opacity: 1.0;stroke-linecap: square;shape-rendering:geometricPrecision;" transform="matrix(1,0,0,1,0,0)" clip-path="url(#_88706125230369clip-2)"/><line x1="259.24" y1="420.89" x2="274.1" y2="403.78" style="stroke-width: 3.0;stroke: rgb(0,0,0);stroke-opacity: 1.0;stroke-linecap: square;shape-rendering:geometricPrecision;" transform="matrix(1,0,0,1,0,0)" clip-path="url(#_88706125230369clip-2)"/><line x1="274.1" y1="403.78" x2="290.06" y2="386.85" style="stroke-width: 3.0;stroke: rgb(0,0,0);stroke-opacity: 1.0;stroke-linecap: square;shape-rendering:geometricPrecision;" transform="matrix(1,0,0,1,0,0)" clip-path="url(#_88706125230369clip-2)"/><line x1="290.06" y1="386.85" x2="310.91" y2="370.11" style="stroke-width: 3.0;stroke: rgb(0,0,0);stroke-opacity: 1.0;stroke-linecap: square;shape-rendering:geometricPrecision;" transform="matrix(1,0,0,1,0,0)" clip-path="url(#_88706125230369clip-2)"/><line x1="310.91" y1="370.11" x2="332.86" y2="353.55" style="stroke-width: 3.0;stroke: rgb(0,0,0);stroke-opacity: 1.0;stroke-linecap: square;shape-rendering:geometricPrecision;" transform="matrix(1,0,0,1,0,0)" clip-path="url(#_88706125230369clip-2)"/><line x1="332.86" y1="353.55" x2="359.23" y2="337.17" style="stroke-width: 3.0;stroke: rgb(0,0,0);stroke-opacity: 1.0;stroke-linecap: square;shape-rendering:geometricPrecision;" transform="matrix(1,0,0,1,0,0)" clip-path="url(#_88706125230369clip-2)"/><line x1="359.23" y1="337.17" x2="386.79" y2="320.96" style="stroke-width: 3.0;stroke: rgb(0,0,0);stroke-opacity: 1.0;stroke-linecap: square;shape-rendering:geometricPrecision;" transform="matrix(1,0,0,1,0,0)" clip-path="url(#_88706125230369clip-2)"/><line x1="386.79" y1="320.96" x2="418.29" y2="304.92" style="stroke-width: 3.0;stroke: rgb(0,0,0);stroke-opacity: 1.0;stroke-linecap: square;shape-rendering:geometricPrecision;" transform="matrix(1,0,0,1,0,0)" clip-path="url(#_88706125230369clip-2)"/><line x1="418.29" y1="304.92" x2="451.22" y2="289.02" style="stroke-width: 3.0;stroke: rgb(0,0,0);stroke-opacity: 1.0;stroke-linecap: square;shape-rendering:geometricPrecision;" transform="matrix(1,0,0,1,0,0)" clip-path="url(#_88706125230369clip-2)"/><line x1="451.22" y1="289.02" x2="488.95" y2="272.69" style="stroke-width: 3.0;stroke: rgb(0,0,0);stroke-opacity: 1.0;stroke-linecap: square;shape-rendering:geometricPrecision;" transform="matrix(1,0,0,1,0,0)" clip-path="url(#_88706125230369clip-2)"/><line x1="488.95" y1="272.69" x2="532.22" y2="255.06" style="stroke-width: 3.0;stroke: rgb(0,0,0);stroke-opacity: 1.0;stroke-linecap: square;shape-rendering:geometricPrecision;" transform="matrix(1,0,0,1,0,0)" clip-path="url(#_88706125230369clip-2)"/><line x1="532.22" y1="255.06" x2="587.12" y2="234.79" style="stroke-width: 3.0;stroke: rgb(0,0,0);stroke-opacity: 1.0;stroke-linecap: square;shape-rendering:geometricPrecision;" transform="matrix(1,0,0,1,0,0)" clip-path="url(#_88706125230369clip-2)"/><line x1="587.12" y1="234.79" x2="651.02" y2="212.87" style="stroke-width: 3.0;stroke: rgb(0,0,0);stroke-opacity: 1.0;stroke-linecap: square;shape-rendering:geometricPrecision;" transform="matrix(1,0,0,1,0,0)" clip-path="url(#_88706125230369clip-2)"/><line x1="651.02" y1="212.87" x2="733.04" y2="187.1" style="stroke-width: 3.0;stroke: rgb(0,0,0);stroke-opacity: 1.0;stroke-linecap: square;shape-rendering:geometricPrecision;" transform="matrix(1,0,0,1,0,0)" clip-path="url(#_88706125230369clip-2)"/><line x1="733.04" y1="187.1" x2="820.49" y2="161.83" style="stroke-width: 3.0;stroke: rgb(0,0,0);stroke-opacity: 1.0;stroke-linecap: square;shape-rendering:geometricPrecision;" transform="matrix(1,0,0,1,0,0)" clip-path="url(#_88706125230369clip-2)"/><line x1="820.49" y1="161.83" x2="888.94" y2="143.13" style="stroke-width: 3.0;stroke: rgb(0,0,0);stroke-opacity: 1.0;stroke-linecap: square;shape-rendering:geometricPrecision;" transform="matrix(1,0,0,1,0,0)" clip-path="url(#_88706125230369clip-2)"/><rect x="64" y="35" width="1076" height="660" style="stroke-width: 0.5;stroke: rgb(0,0,0);stroke-opacity: 1.0;stroke-linecap: round;stroke-linejoin: round;shape-rendering:crispEdges;; fill: none" transform="matrix(1,0,0,1,0,0)" clip-path="url(#_88706125230369clip-0)"/></svg>
