<!DOCTYPE svg PUBLIC "-//W3C//DTD SVG 1.1//EN" "http://www.w3.org/Graphics/SVG/1.1/DTD/svg11.dtd">
<svg xmlns="http://www.w3.org/2000/svg" xmlns:xlink="http://www.w3.org/1999/xlink" xmlns:jfreesvg="http://www.jfree.org/jfreesvg/svg" width="1920" height="1080" text-rendering="auto" shape-rendering="auto">
<defs><clipPath id="_273067709462517clip-0"><path d="M 0 0 L 1920 0 L 1920 1080 L 0 1080 L 0 0 Z "/></clipPath>
<clipPath id="_273067709462517clip-1"><path d="M 5 27 L 5 1075 L 1915 1075 L 1915 27 Z "/></clipPath>
</defs>
<rect x="0" y="0" width="1920" height="1080" style="fill: rgb(255,255,255); fill-opacity: 1.0" transform="matrix(1,0,0,1,0,0)" clip-path="url(#_273067709462517clip-0)"/><g transform="matrix(1,0,0,1,0,0)"><text x="878" y="21.01" style="fill: rgb(0,0,0); fill-opacity: 1.0; font-family: Tahoma; font-size: 20px; font-weight: bold;" clip-path="url(#_273067709462517clip-0)">DOC Breakdown</text></g><rect x="5" y="27" width="1910" height="1048" style="fill: rgb(255,255,255); fill-opacity: 0.0" transform="matrix(1,0,0,1,0,0)" clip-path="url(#_273067709462517clip-0)"/><rect x="5" y="27" width="1910" height="1048" style="stroke-width: 0.5;stroke: rgb(0,0,0);stroke-opacity: 1.0;stroke-linecap: round;stroke-linejoin: round;shape-rendering:crispEdges;; fill: none" transform="matrix(1,0,0,1,0,0)" clip-path="url(#_273067709462517clip-0)"/><g style="fill: rgb(128,128,128); fill-opacity: 1.0; stroke: none" transform="matrix(1,0,0,1,0,0)" clip-path="url(#_273067709462517clip-1)"><path d="M 964 136.85 C 1128.85 136.85 1278.32 233.7 1345.67 384.17 C 1413.01 534.64 1385.67 710.64 1275.84 833.58 C 1166.02 956.52 994.21 1003.46 837.13 953.44 L 964 555 Z "/></g><g style="fill: rgb(128,128,128); fill-opacity: 1.0; stroke: none" transform="matrix(1,0,0,1,0,0)" clip-path="url(#_273067709462517clip-1)"><path d="M 837.13 953.44 C 758.22 928.31 688.54 880.32 636.94 815.55 L 964 555 Z "/></g><g style="fill: rgb(128,128,128); fill-opacity: 1.0; stroke: none" transform="matrix(1,0,0,1,0,0)" clip-path="url(#_273067709462517clip-1)"><path d="M 636.94 815.55 C 589.64 756.17 559.4 685.05 549.45 609.79 L 964 555 Z "/></g><g style="fill: rgb(128,128,128); fill-opacity: 1.0; stroke: none" transform="matrix(1,0,0,1,0,0)" clip-path="url(#_273067709462517clip-1)"><path d="M 549.45 609.79 C 545.56 580.33 544.82 550.53 547.24 520.91 L 964 555 Z "/></g><g style="fill: rgb(128,128,128); fill-opacity: 1.0; stroke: none" transform="matrix(1,0,0,1,0,0)" clip-path="url(#_273067709462517clip-1)"><path d="M 547.24 520.91 C 564.99 303.91 746.28 136.85 964 136.85 L 964 555 Z "/></g><g style="fill: rgb(255,85,85); fill-opacity: 1.0; stroke: none" transform="matrix(1,0,0,1,0,0)" clip-path="url(#_273067709462517clip-1)"><path d="M 960 132.85 C 1124.85 132.85 1274.32 229.7 1341.67 380.17 C 1409.01 530.64 1381.67 706.64 1271.84 829.58 C 1162.02 952.52 990.21 999.46 833.13 949.44 L 960 551 Z "/></g><g style="stroke-width: 0.5;stroke: rgb(128,128,128);stroke-opacity: 1.0;stroke-linecap: round;stroke-linejoin: round;shape-rendering:geometricPrecision;; fill: none" transform="matrix(1,0,0,1,0,0)" clip-path="url(#_273067709462517clip-1)"><path d="M 960 132.85 C 1124.85 132.85 1274.32 229.7 1341.67 380.17 C 1409.01 530.64 1381.67 706.64 1271.84 829.58 C 1162.02 952.52 990.21 999.46 833.13 949.44 L 960 551 Z "/></g><g style="fill: rgb(85,85,255); fill-opacity: 1.0; stroke: none" transform="matrix(1,0,0,1,0,0)" clip-path="url(#_273067709462517clip-1)"><path d="M 833.13 949.44 C 754.22 924.31 684.54 876.32 632.94 811.55 L 960 551 Z "/></g><g style="stroke-width: 0.5;stroke: rgb(128,128,128);stroke-opacity: 1.0;stroke-linecap: round;stroke-linejoin: round;shape-rendering:geometricPrecision;; fill: none" transform="matrix(1,0,0,1,0,0)" clip-path="url(#_273067709462517clip-1)"><path d="M 833.13 949.44 C 754.22 924.31 684.54 876.32 632.94 811.55 L 960 551 Z "/></g><g style="fill: rgb(85,255,85); fill-opacity: 1.0; stroke: none" transform="matrix(1,0,0,1,0,0)" clip-path="url(#_273067709462517clip-1)"><path d="M 632.94 811.55 C 585.64 752.17 555.4 681.05 545.45 605.79 L 960 551 Z "/></g><g style="stroke-width: 0.5;stroke: rgb(128,128,128);stroke-opacity: 1.0;stroke-linecap: round;stroke-linejoin: round;shape-rendering:geometricPrecision;; fill: none" transform="matrix(1,0,0,1,0,0)" clip-path="url(#_273067709462517clip-1)"><path d="M 632.94 811.55 C 585.64 752.17 555.4 681.05 545.45 605.79 L 960 551 Z "/></g><g style="fill: rgb(255,255,85); fill-opacity: 1.0; stroke: none" transform="matrix(1,0,0,1,0,0)" clip-path="url(#_273067709462517clip-1)"><path d="M 545.45 605.79 C 541.56 576.33 540.82 546.53 543.24 516.91 L 960 551 Z "/></g><g style="stroke-width: 0.5;stroke: rgb(128,128,128);stroke-opacity: 1.0;stroke-linecap: round;stroke-linejoin: round;shape-rendering:geometricPrecision;; fill: none" transform="matrix(1,0,0,1,0,0)" clip-path="url(#_273067709462517clip-1)"><path d="M 545.45 605.79 C 541.56 576.33 540.82 546.53 543.24 516.91 L 960 551 Z "/></g><g style="fill: rgb(255,85,255); fill-opacity: 1.0; stroke: none" transform="matrix(1,0,0,1,0,0)" clip-path="url(#_273067709462517clip-1)"><path d="M 543.24 516.91 C 560.99 299.91 742.28 132.85 960 132.85 L 960 551 Z "/></g><g style="stroke-width: 0.5;stroke: rgb(128,128,128);stroke-opacity: 1.0;stroke-linecap: round;stroke-linejoin: round;shape-rendering:geometricPrecision;; fill: none" transform="matrix(1,0,0,1,0,0)" clip-path="url(#_273067709462517clip-1)"><path d="M 543.24 516.91 C 560.99 299.91 742.28 132.85 960 132.85 L 960 551 Z "/></g><g style="stroke-width: 0.5;stroke: rgb(0,0,0);stroke-opacity: 1.0;stroke-linecap: square;shape-rendering:geometricPrecision;; fill: none" transform="matrix(1,0,0,1,0,0)" clip-path="url(#_273067709462517clip-1)"><path d="M 479.79 227.32 C 519.84 227.32 661.72 227.32 704.97 274.26"/></g><rect x="87.79" y="206.32" width="394" height="46" style="fill: rgb(151,151,151); fill-opacity: 0.5019608" transform="matrix(1,0,0,1,0,0)" clip-path="url(#_273067709462517clip-1)"/><rect x="85.79" y="204.32" width="394" height="46" style="fill: rgb(255,255,192); fill-opacity: 1.0" transform="matrix(1,0,0,1,0,0)" clip-path="url(#_273067709462517clip-1)"/><rect x="85.79" y="204.32" width="394" height="46" style="stroke-width: 0.5;stroke: rgb(0,0,0);stroke-opacity: 1.0;stroke-linecap: square;shape-rendering:geometricPrecision;; fill: none" transform="matrix(1,0,0,1,0,0)" clip-path="url(#_273067709462517clip-1)"/><g transform="matrix(1,0,0,1,0,0)"><text x="87.79" y="238.49" style="fill: rgb(0,0,0); fill-opacity: 1.0; font-family: sans-serif; font-size: 32px;" clip-path="url(#_273067709462517clip-1)">DOC Maintenance: 23,70%</text></g><g style="stroke-width: 0.5;stroke: rgb(0,0,0);stroke-opacity: 1.0;stroke-linecap: square;shape-rendering:geometricPrecision;; fill: none" transform="matrix(1,0,0,1,0,0)" clip-path="url(#_273067709462517clip-1)"><path d="M 472.1 561.96 C 519.84 561.96 519.98 561.96 583.78 560.37"/></g><rect x="161.1" y="540.96" width="313" height="46" style="fill: rgb(151,151,151); fill-opacity: 0.5019608" transform="matrix(1,0,0,1,0,0)" clip-path="url(#_273067709462517clip-1)"/><rect x="159.1" y="538.96" width="313" height="46" style="fill: rgb(255,255,192); fill-opacity: 1.0" transform="matrix(1,0,0,1,0,0)" clip-path="url(#_273067709462517clip-1)"/><rect x="159.1" y="538.96" width="313" height="46" style="stroke-width: 0.5;stroke: rgb(0,0,0);stroke-opacity: 1.0;stroke-linecap: square;shape-rendering:geometricPrecision;; fill: none" transform="matrix(1,0,0,1,0,0)" clip-path="url(#_273067709462517clip-1)"/><g transform="matrix(1,0,0,1,0,0)"><text x="161.1" y="573.13" style="fill: rgb(0,0,0); fill-opacity: 1.0; font-family: sans-serif; font-size: 32px;" clip-path="url(#_273067709462517clip-1)">DOC Charges: 3,39%</text></g><g style="stroke-width: 0.5;stroke: rgb(0,0,0);stroke-opacity: 1.0;stroke-linecap: square;shape-rendering:geometricPrecision;; fill: none" transform="matrix(1,0,0,1,0,0)" clip-path="url(#_273067709462517clip-1)"><path d="M 473.99 723.24 C 519.84 723.24 554.94 723.24 613.67 698.26"/></g><rect x="220.99" y="702.24" width="255" height="46" style="fill: rgb(151,151,151); fill-opacity: 0.5019608" transform="matrix(1,0,0,1,0,0)" clip-path="url(#_273067709462517clip-1)"/><rect x="218.99" y="700.24" width="255" height="46" style="fill: rgb(255,255,192); fill-opacity: 1.0" transform="matrix(1,0,0,1,0,0)" clip-path="url(#_273067709462517clip-1)"/><rect x="218.99" y="700.24" width="255" height="46" style="stroke-width: 0.5;stroke: rgb(0,0,0);stroke-opacity: 1.0;stroke-linecap: square;shape-rendering:geometricPrecision;; fill: none" transform="matrix(1,0,0,1,0,0)" clip-path="url(#_273067709462517clip-1)"/><g transform="matrix(1,0,0,1,0,0)"><text x="220.99" y="734.41" style="fill: rgb(0,0,0); fill-opacity: 1.0; font-family: sans-serif; font-size: 32px;" clip-path="url(#_273067709462517clip-1)">DOC Fuel: 8,61%</text></g><g style="stroke-width: 0.5;stroke: rgb(0,0,0);stroke-opacity: 1.0;stroke-linecap: square;shape-rendering:geometricPrecision;; fill: none" transform="matrix(1,0,0,1,0,0)" clip-path="url(#_273067709462517clip-1)"><path d="M 482.42 913.48 C 519.84 913.48 710.31 913.48 746.51 860.92"/></g><rect x="217.42" y="892.48" width="267" height="46" style="fill: rgb(151,151,151); fill-opacity: 0.5019608" transform="matrix(1,0,0,1,0,0)" clip-path="url(#_273067709462517clip-1)"/><rect x="215.42" y="890.48" width="267" height="46" style="fill: rgb(255,255,192); fill-opacity: 1.0" transform="matrix(1,0,0,1,0,0)" clip-path="url(#_273067709462517clip-1)"/><rect x="215.42" y="890.48" width="267" height="46" style="stroke-width: 0.5;stroke: rgb(0,0,0);stroke-opacity: 1.0;stroke-linecap: square;shape-rendering:geometricPrecision;; fill: none" transform="matrix(1,0,0,1,0,0)" clip-path="url(#_273067709462517clip-1)"/><g transform="matrix(1,0,0,1,0,0)"><text x="217.42" y="924.66" style="fill: rgb(0,0,0); fill-opacity: 1.0; font-family: sans-serif; font-size: 32px;" clip-path="url(#_273067709462517clip-1)">DOC Crew: 9,39%</text></g><g style="stroke-width: 0.5;stroke: rgb(0,0,0);stroke-opacity: 1.0;stroke-linecap: square;shape-rendering:geometricPrecision;; fill: none" transform="matrix(1,0,0,1,0,0)" clip-path="url(#_273067709462517clip-1)"><path d="M 1447.63 618.58 C 1400.16 618.58 1394.94 618.58 1331.88 608.78"/></g><rect x="1449.63" y="597.58" width="310" height="46" style="fill: rgb(151,151,151); fill-opacity: 0.5019608" transform="matrix(1,0,0,1,0,0)" clip-path="url(#_273067709462517clip-1)"/><rect x="1447.63" y="595.58" width="310" height="46" style="fill: rgb(255,255,192); fill-opacity: 1.0" transform="matrix(1,0,0,1,0,0)" clip-path="url(#_273067709462517clip-1)"/><rect x="1447.63" y="595.58" width="310" height="46" style="stroke-width: 0.5;stroke: rgb(0,0,0);stroke-opacity: 1.0;stroke-linecap: square;shape-rendering:geometricPrecision;; fill: none" transform="matrix(1,0,0,1,0,0)" clip-path="url(#_273067709462517clip-1)"/><g transform="matrix(1,0,0,1,0,0)"><text x="1449.63" y="629.75" style="fill: rgb(0,0,0); fill-opacity: 1.0; font-family: sans-serif; font-size: 32px;" clip-path="url(#_273067709462517clip-1)">DOC Capital: 54,91%</text></g><rect x="5" y="27" width="1910" height="1048" style="stroke-width: 0.5;stroke: rgb(0,0,0);stroke-opacity: 1.0;stroke-linecap: round;stroke-linejoin: round;shape-rendering:crispEdges;; fill: none" transform="matrix(1,0,0,1,0,0)" clip-path="url(#_273067709462517clip-0)"/></svg>
