<?xml version="1.0" encoding="UTF-8" standalone="no"?>
<!-- Created with Inkscape (http://www.inkscape.org/) -->

<svg
   xmlns:dc="http://purl.org/dc/elements/1.1/"
   xmlns:cc="http://creativecommons.org/ns#"
   xmlns:rdf="http://www.w3.org/1999/02/22-rdf-syntax-ns#"
   xmlns:svg="http://www.w3.org/2000/svg"
   xmlns="http://www.w3.org/2000/svg"
   xmlns:sodipodi="http://sodipodi.sourceforge.net/DTD/sodipodi-0.dtd"
   xmlns:inkscape="http://www.inkscape.org/namespaces/inkscape"
   width="210mm"
   height="297mm"
   viewBox="0 0 744.09448819 1052.3622047"
   id="svg16420"
   version="1.1"
   inkscape:version="0.91 r13725"
   sodipodi:docname="Mission_Profile.svg">
  <sodipodi:namedview
     id="base"
     pagecolor="#ffffff"
     bordercolor="#666666"
     borderopacity="1.0"
     inkscape:pageopacity="0.0"
     inkscape:pageshadow="2"
     inkscape:zoom="1.979899"
     inkscape:cx="316.52346"
     inkscape:cy="785.06584"
     inkscape:document-units="px"
     inkscape:current-layer="layer1"
     showgrid="false"
     inkscape:window-width="1920"
     inkscape:window-height="1001"
     inkscape:window-x="-9"
     inkscape:window-y="-9"
     inkscape:window-maximized="1" />
  <defs
     id="defs16422" />
  <metadata
     id="metadata16425">
    <rdf:RDF>
      <cc:Work
         rdf:about="">
        <dc:format>image/svg+xml</dc:format>
        <dc:type
           rdf:resource="http://purl.org/dc/dcmitype/StillImage" />
        <dc:title></dc:title>
      </cc:Work>
    </rdf:RDF>
  </metadata>
  <g
     id="layer1"
     inkscape:groupmode="layer"
     inkscape:label="Livello 1">
    <g
       id="g18441"
       inkscape:export-xdpi="90"
       inkscape:export-ydpi="90">
      <path
         style="fill:none;fill-rule:evenodd;stroke:#000000;stroke-width:0.93897587;stroke-linecap:butt;stroke-linejoin:miter;stroke-miterlimit:4;stroke-dasharray:7.51180684, 7.51180684;stroke-dashoffset:0;stroke-opacity:1"
         d="M 76.772717,354.34746 579.32136,353.33598"
         id="path16428"
         inkscape:connector-curvature="0" />
      <path
         style="fill:none;fill-rule:evenodd;stroke:#000000;stroke-width:1px;stroke-linecap:round;stroke-linejoin:miter;stroke-opacity:1"
         d="m 203.04066,353.69378 18.18274,-145.46196 145.46197,1.01015 15.15229,144.45181 10.10153,-84.85281 138.39089,0 10.10153,84.85281"
         id="path16430"
         inkscape:connector-curvature="0"
         sodipodi:nodetypes="ccccccc" />
      <path
         style="fill:none;fill-rule:evenodd;stroke:#000000;stroke-width:1.20126915;stroke-linecap:round;stroke-linejoin:miter;stroke-miterlimit:4;stroke-dasharray:none;stroke-opacity:1"
         d="m 77.233431,354.14792 125.622419,0"
         id="path16974"
         inkscape:connector-curvature="0" />
      <path
         style="fill:none;fill-rule:evenodd;stroke:#000000;stroke-width:1;stroke-linecap:round;stroke-linejoin:miter;stroke-opacity:1;stroke-miterlimit:4;stroke-dasharray:none"
         d="m 540.28803,353.52292 35.11119,0"
         id="path16976"
         inkscape:connector-curvature="0" />
      <ellipse
         style="opacity:1;fill:none;fill-opacity:1;stroke:#000000;stroke-width:0.69999999;stroke-linecap:round;stroke-linejoin:miter;stroke-miterlimit:4;stroke-dasharray:2.8, 1.4, 0.7, 1.4;stroke-dashoffset:0;stroke-opacity:1"
         id="path16980"
         cx="547.67859"
         cy="273.61221"
         rx="12.142858"
         ry="5.3571429" />
      <path
         style="fill:#000000;fill-rule:evenodd;stroke:#000000;stroke-width:1;stroke-linecap:round;stroke-linejoin:miter;stroke-opacity:1;fill-opacity:1;stroke-miterlimit:1;stroke-dasharray:none"
         d="m 547.32143,269.8622 0,-3.03571 3.39286,1.60714 z"
         id="path16982"
         inkscape:connector-curvature="0" />
      <path
         inkscape:connector-curvature="0"
         id="path16984"
         d="m 550.24976,277.37115 0,3.03571 -3.39286,-1.60714 z"
         style="fill:#000000;fill-opacity:1;fill-rule:evenodd;stroke:#000000;stroke-width:1;stroke-linecap:round;stroke-linejoin:miter;stroke-miterlimit:1;stroke-dasharray:none;stroke-opacity:1" />
      <ellipse
         style="opacity:1;fill:#000000;fill-opacity:1;stroke:#000000;stroke-width:1;stroke-linecap:round;stroke-linejoin:miter;stroke-miterlimit:1;stroke-dasharray:none;stroke-dashoffset:0;stroke-opacity:1"
         id="path16986"
         cx="78.034286"
         cy="353.84171"
         rx="2.2728431"
         ry="2.0203052" />
      <ellipse
         ry="2.0203052"
         rx="2.2728431"
         cy="353.84171"
         cx="117.43024"
         id="ellipse16988"
         style="opacity:1;fill:#000000;fill-opacity:1;stroke:#000000;stroke-width:1;stroke-linecap:round;stroke-linejoin:miter;stroke-miterlimit:1;stroke-dasharray:none;stroke-dashoffset:0;stroke-opacity:1" />
      <ellipse
         style="opacity:1;fill:#000000;fill-opacity:1;stroke:#000000;stroke-width:1;stroke-linecap:round;stroke-linejoin:miter;stroke-miterlimit:1;stroke-dasharray:none;stroke-dashoffset:0;stroke-opacity:1"
         id="ellipse16990"
         cx="158.34142"
         cy="353.84171"
         rx="2.2728431"
         ry="2.0203052" />
      <ellipse
         ry="2.0203052"
         rx="2.2728431"
         cy="353.84171"
         cx="202.78812"
         id="ellipse16992"
         style="opacity:1;fill:#000000;fill-opacity:1;stroke:#000000;stroke-width:1;stroke-linecap:round;stroke-linejoin:miter;stroke-miterlimit:1;stroke-dasharray:none;stroke-dashoffset:0;stroke-opacity:1" />
      <ellipse
         style="opacity:1;fill:#000000;fill-opacity:1;stroke:#000000;stroke-width:1;stroke-linecap:round;stroke-linejoin:miter;stroke-miterlimit:1;stroke-dasharray:none;stroke-dashoffset:0;stroke-opacity:1"
         id="ellipse16994"
         cx="221.47594"
         cy="207.87466"
         rx="2.2728431"
         ry="2.0203052" />
      <ellipse
         ry="2.0203052"
         rx="2.2728431"
         cy="208.88481"
         cx="365.42267"
         id="ellipse16996"
         style="opacity:1;fill:#000000;fill-opacity:1;stroke:#000000;stroke-width:1;stroke-linecap:round;stroke-linejoin:miter;stroke-miterlimit:1;stroke-dasharray:none;stroke-dashoffset:0;stroke-opacity:1" />
      <ellipse
         style="opacity:1;fill:#000000;fill-opacity:1;stroke:#000000;stroke-width:1;stroke-linecap:round;stroke-linejoin:miter;stroke-miterlimit:1;stroke-dasharray:none;stroke-dashoffset:0;stroke-opacity:1"
         id="ellipse16998"
         cx="382.09018"
         cy="353.33664"
         rx="2.2728431"
         ry="2.0203052" />
      <ellipse
         ry="2.0203052"
         rx="2.2728431"
         cy="268.98889"
         cx="392.19171"
         id="ellipse17000"
         style="opacity:1;fill:#000000;fill-opacity:1;stroke:#000000;stroke-width:1;stroke-linecap:round;stroke-linejoin:miter;stroke-miterlimit:1;stroke-dasharray:none;stroke-dashoffset:0;stroke-opacity:1" />
      <ellipse
         style="opacity:1;fill:#000000;fill-opacity:1;stroke:#000000;stroke-width:1;stroke-linecap:round;stroke-linejoin:miter;stroke-miterlimit:1;stroke-dasharray:none;stroke-dashoffset:0;stroke-opacity:1"
         id="ellipse17002"
         cx="529.57245"
         cy="268.48383"
         rx="2.2728431"
         ry="2.0203052" />
      <ellipse
         ry="2.0203052"
         rx="2.2728431"
         cy="352.83157"
         cx="540.17908"
         id="ellipse17004"
         style="opacity:1;fill:#000000;fill-opacity:1;stroke:#000000;stroke-width:1;stroke-linecap:round;stroke-linejoin:miter;stroke-miterlimit:1;stroke-dasharray:none;stroke-dashoffset:0;stroke-opacity:1" />
      <ellipse
         style="opacity:1;fill:#000000;fill-opacity:1;stroke:#000000;stroke-width:1;stroke-linecap:round;stroke-linejoin:miter;stroke-miterlimit:1;stroke-dasharray:none;stroke-dashoffset:0;stroke-opacity:1"
         id="ellipse17006"
         cx="579.57501"
         cy="352.83157"
         rx="2.2728431"
         ry="2.0203052" />
      <g
         id="g18005"
         transform="translate(29.294424,76.771593)">
        <g
           word-spacing="normal"
           letter-spacing="normal"
           font-size-adjust="none"
           font-stretch="normal"
           font-weight="normal"
           font-variant="normal"
           font-style="normal"
           stroke-miterlimit="10.433"
           xml:space="preserve"
           transform="matrix(1.0629921,0,0,-1.0629921,-186.02362,789.27165)"
           id="g18007"
           style="font-style:normal;font-variant:normal;font-weight:normal;font-stretch:normal;letter-spacing:normal;word-spacing:normal;text-anchor:start;fill:none;fill-opacity:1;fill-rule:evenodd;stroke:#000000;stroke-linecap:butt;stroke-linejoin:miter;stroke-miterlimit:10.43299961;stroke-dasharray:none;stroke-dashoffset:0;stroke-opacity:1"><g
             id="g18076"
             transform="matrix(0.25,0,0,0.25,96.904118,367.82678)"><path
               style="fill:#000000;stroke-width:0"
               inkscape:connector-curvature="0"
               d="m 500.8,435.34 0.09,0.26 0.09,0.25 0.11,0.23 0.11,0.22 0.11,0.21 0.12,0.19 0.13,0.19 0.13,0.17 0.14,0.16 0.14,0.16 0.14,0.14 0.16,0.13 0.15,0.12 0.16,0.11 0.16,0.1 0.17,0.1 0.16,0.08 0.18,0.08 0.17,0.07 0.18,0.07 0.17,0.05 0.18,0.05 0.18,0.04 0.19,0.04 0.18,0.03 0.18,0.03 0.19,0.02 0.18,0.02 0.37,0.02 0.37,0 0,1.55 c -1.49,-0.11 -3.04,-0.16 -4.54,-0.16 -1.43,0 -4.62,0.11 -5.92,0.16 l 0,-1.55 c 3.33,-0.04 4.33,-1.68 4.33,-2.64 0,-0.29 -0.14,-0.7 -0.25,-1 l -7.47,-23.01 -7.97,24.4 c -0.06,0.21 -0.15,0.5 -0.15,0.75 0,1.5 2.89,1.5 4.18,1.5 l 0,1.55 c -1.79,-0.16 -5.18,-0.16 -7.07,-0.16 -1.89,0 -4.04,0.11 -6.08,0.16 l 0,-1.55 c 2.84,0 3.89,0 4.48,-1.79 l 1.1,-3.49 -6.93,-21.37 -8.01,24.51 c -0.05,0.14 -0.11,0.5 -0.11,0.64 0,1.5 2.89,1.5 4.19,1.5 l 0,1.55 c -1.8,-0.16 -5.18,-0.16 -7.08,-0.16 -1.89,0 -4.03,0.11 -6.08,0.16 l 0,-1.55 c 3.75,0 3.94,-0.25 4.55,-2.09 l 9.95,-30.55 c 0.16,-0.43 0.3,-0.93 0.95,-0.93 0.69,0 0.8,0.34 1,1 l 8.22,25.29 8.27,-25.36 c 0.15,-0.43 0.29,-0.93 0.95,-0.93 0.69,0 0.8,0.34 0.99,1 z"
               id="path18009" /><path
               style="fill:#000000;stroke-width:0"
               inkscape:connector-curvature="0"
               d="m 522.92765,424.63138 -18.276,0 -0.564,-6.732 0.75,0 c 0.414,4.824 0.864,5.808 5.376,5.808 0.54,0 1.32,0 1.62,-0.066 0.63,-0.114 0.63,-0.444 0.63,-1.134 l 0,-15.75 c 0,-1.026 0,-1.434 -3.144,-1.434 l -1.2,0 0,-0.93 c 1.23,0.096 4.278,0.096 5.658,0.096 1.374,0 4.452,0 5.676,-0.096 l 0,0.93 -1.2,0 c -3.138,0 -3.138,0.408 -3.138,1.434 l 0,15.75 c 0,0.6 0,1.02 0.546,1.134 0.324,0.066 1.134,0.066 1.704,0.066 4.512,0 4.962,-0.984 5.37,-5.808 l 0.75,0 z"
               id="path18011" /><path
               style="fill:#000000;stroke-width:0"
               inkscape:connector-curvature="0"
               d="m 544.49555,414.58738 -0.012,0.57 -0.042,0.558 -0.06,0.552 -0.09,0.54 -0.114,0.534 -0.132,0.516 -0.162,0.51 -0.18,0.498 -0.198,0.486 -0.222,0.474 -0.246,0.456 -0.258,0.444 -0.282,0.432 -0.294,0.408 -0.318,0.396 -0.33,0.384 -0.348,0.36 -0.36,0.342 -0.378,0.324 -0.39,0.3 -0.402,0.282 -0.42,0.264 -0.426,0.24 -0.444,0.216 -0.45,0.198 -0.462,0.168 -0.468,0.15 -0.48,0.12 -0.486,0.096 -0.492,0.066 -0.504,0.042 -0.504,0.012 0,-0.75 c 2.604,0 6.876,-2.118 6.876,-9.768 0,-7.92 -4.092,-10.434 -6.852,-10.434 l 0,0 c -2.868,0 -6.87,2.628 -6.87,10.434 0,7.734 4.368,9.768 6.846,9.768 l 0,0.75 c -5.358,0 -9.924,-4.776 -9.924,-10.938 0,-6.132 4.608,-10.788 9.924,-10.788 5.436,0 9.954,4.752 9.954,10.788 z"
               id="path18013" /></g></g>      </g>
      <g
         id="g18213"
         transform="translate(7.0710678,-0.50507627)">
        <g
           transform="matrix(0.25,0,0,0.25,458.14608,277.54076)"
           id="g17769">
          <g
             style="font-style:normal;font-variant:normal;font-weight:normal;font-stretch:normal;letter-spacing:normal;word-spacing:normal;text-anchor:start;fill:none;fill-opacity:1;fill-rule:evenodd;stroke:#000000;stroke-linecap:butt;stroke-linejoin:miter;stroke-miterlimit:10.43299961;stroke-dasharray:none;stroke-dashoffset:0;stroke-opacity:1"
             id="g17771"
             transform="matrix(1.0629921,0,0,-1.0629921,-186.02362,789.27165)"
             xml:space="preserve"
             stroke-miterlimit="10.433"
             font-style="normal"
             font-variant="normal"
             font-weight="normal"
             font-stretch="normal"
             font-size-adjust="none"
             letter-spacing="normal"
             word-spacing="normal"><path
               style="fill:#000000;stroke-width:0"
               inkscape:connector-curvature="0"
               d="m 470.16,438.09 0,0.05 0,0.06 0,0.05 0,0.05 0,0.05 0,0.05 0,0.04 0,0.05 0,0.04 0,0.04 -0.01,0.04 0,0.04 0,0.04 0,0.03 0,0.04 -0.01,0.03 -0.01,0.07 0,0.06 -0.02,0.05 -0.01,0.05 -0.02,0.05 -0.02,0.04 -0.02,0.04 -0.02,0.03 -0.03,0.03 -0.03,0.03 -0.04,0.03 -0.04,0.02 -0.04,0.02 -0.03,0.01 -0.02,0.01 -0.03,0 -0.02,0.01 -0.03,0.01 -0.03,0 -0.03,0.01 -0.03,0 -0.04,0.01 -0.03,0 -0.04,0 -0.03,0.01 -0.04,0 -0.04,0 -0.05,0 -0.04,0 -0.04,0 -0.05,0.01 -0.05,0 -0.05,0 -0.05,0 -0.05,0 c -3.09,-3.19 -7.47,-3.19 -9.06,-3.19 l 0,-1.55 c 1,0 3.93,0 6.51,1.3 l 0,-25.81 c 0,-1.8 -0.14,-2.39 -4.62,-2.39 l -1.6,0 0,-1.55 c 1.75,0.16 6.08,0.16 8.07,0.16 2,0 6.32,0 8.07,-0.16 l 0,1.55 -1.59,0 c -4.48,0 -4.64,0.54 -4.64,2.39 z"
               id="path17773" /><path
               style="fill:#000000;stroke-width:0"
               inkscape:connector-curvature="0"
               d="m 503.4,422.14 -0.01,0.74 -0.01,0.75 -0.02,0.75 -0.03,0.74 -0.04,0.75 -0.06,0.74 -0.08,0.74 -0.1,0.73 -0.11,0.73 -0.14,0.73 -0.16,0.72 -0.19,0.72 -0.22,0.72 -0.24,0.7 -0.28,0.7 -0.15,0.35 -0.16,0.34 c -2.28,4.8 -6.38,5.6 -8.47,5.6 -2.98,0 -6.63,-1.3 -8.67,-5.94 -1.6,-3.44 -1.85,-7.33 -1.85,-11.31 0,-3.74 0.21,-8.22 2.25,-12 2.14,-4.03 5.79,-5.03 8.22,-5.03 l 0,1.09 c -1.93,0 -4.89,1.25 -5.78,6.03 -0.55,2.98 -0.55,7.56 -0.55,10.52 0,3.18 0,6.46 0.41,9.15 0.94,5.94 4.67,6.38 5.92,6.38 1.64,0 4.94,-0.89 5.88,-5.83 0.5,-2.78 0.5,-6.58 0.5,-9.7 0,-3.75 0,-7.13 -0.55,-10.32 -0.75,-4.73 -3.59,-6.23 -5.83,-6.23 l 0,0 0,-1.09 c 2.69,0 6.47,1.04 8.67,5.78 1.6,3.43 1.85,7.31 1.85,11.25 z"
               id="path17775" /></g>        </g>
        <g
           id="g18081"
           transform="matrix(0.25,0,0,0.25,445.81439,277.20591)">
          <g
             id="g18083"
             transform="matrix(1.0629921,0,0,-1.0629921,-186.02362,789.27165)"
             xml:space="preserve"
             stroke-miterlimit="10.433"
             font-style="normal"
             font-variant="normal"
             font-weight="normal"
             font-stretch="normal"
             font-size-adjust="none"
             letter-spacing="normal"
             word-spacing="normal"
             style="font-style:normal;font-variant:normal;font-weight:normal;font-stretch:normal;letter-spacing:normal;word-spacing:normal;text-anchor:start;fill:none;fill-opacity:1;fill-rule:evenodd;stroke:#000000;stroke-linecap:butt;stroke-linejoin:miter;stroke-miterlimit:10.43299961;stroke-dasharray:none;stroke-dashoffset:0;stroke-opacity:1"><path
               d="m 500.8,435.34 0.09,0.26 0.09,0.25 0.11,0.23 0.11,0.22 0.11,0.21 0.12,0.19 0.13,0.19 0.13,0.17 0.14,0.16 0.14,0.16 0.14,0.14 0.16,0.13 0.15,0.12 0.16,0.11 0.16,0.1 0.17,0.1 0.16,0.08 0.18,0.08 0.17,0.07 0.18,0.07 0.17,0.05 0.18,0.05 0.18,0.04 0.19,0.04 0.18,0.03 0.18,0.03 0.19,0.02 0.18,0.02 0.37,0.02 0.37,0 0,1.55 c -1.49,-0.11 -3.04,-0.16 -4.54,-0.16 -1.43,0 -4.62,0.11 -5.92,0.16 l 0,-1.55 c 3.33,-0.04 4.33,-1.68 4.33,-2.64 0,-0.29 -0.14,-0.7 -0.25,-1 l -7.47,-23.01 -7.97,24.4 c -0.06,0.21 -0.15,0.5 -0.15,0.75 0,1.5 2.89,1.5 4.18,1.5 l 0,1.55 c -1.79,-0.16 -5.18,-0.16 -7.07,-0.16 -1.89,0 -4.04,0.11 -6.08,0.16 l 0,-1.55 c 2.84,0 3.89,0 4.48,-1.79 l 1.1,-3.49 -6.93,-21.37 -8.01,24.51 c -0.05,0.14 -0.11,0.5 -0.11,0.64 0,1.5 2.89,1.5 4.19,1.5 l 0,1.55 c -1.8,-0.16 -5.18,-0.16 -7.08,-0.16 -1.89,0 -4.03,0.11 -6.08,0.16 l 0,-1.55 c 3.75,0 3.94,-0.25 4.55,-2.09 l 9.95,-30.55 c 0.16,-0.43 0.3,-0.93 0.95,-0.93 0.69,0 0.8,0.34 1,1 l 8.22,25.29 8.27,-25.36 c 0.15,-0.43 0.29,-0.93 0.95,-0.93 0.69,0 0.8,0.34 0.99,1 z"
               id="path18085"
               inkscape:connector-curvature="0"
               style="fill:#000000;stroke-width:0" /></g>        </g>
      </g>
      <g
         id="g18205"
         transform="translate(10.354064,-16.414979)">
        <g
           transform="matrix(0.25,0,0,0.25,490.889,204.05217)"
           id="g17663">
          <g
             style="font-style:normal;font-variant:normal;font-weight:normal;font-stretch:normal;letter-spacing:normal;word-spacing:normal;text-anchor:start;fill:none;fill-opacity:1;fill-rule:evenodd;stroke:#000000;stroke-linecap:butt;stroke-linejoin:miter;stroke-miterlimit:10.43299961;stroke-dasharray:none;stroke-dashoffset:0;stroke-opacity:1"
             word-spacing="normal"
             letter-spacing="normal"
             font-size-adjust="none"
             font-stretch="normal"
             font-weight="normal"
             font-variant="normal"
             font-style="normal"
             stroke-miterlimit="10.433"
             xml:space="preserve"
             transform="matrix(1.0629921,0,0,-1.0629921,-186.02362,789.27165)"
             id="g17665"><path
               style="fill:#000000;stroke-width:0"
               inkscape:connector-curvature="0"
               id="path17667"
               d="m 473.8,422.04 0,-1.59 c 0,-11.66 -5.17,-13.95 -8.06,-13.95 -0.86,0 -3.55,0.11 -4.89,1.79 2.19,0 2.59,1.44 2.59,2.3 0,1.53 -1.2,2.28 -2.3,2.28 -0.79,0 -2.28,-0.44 -2.28,-2.39 0,-3.33 2.69,-5.37 6.93,-5.37 6.42,0 12.5,6.76 12.5,17.48 0,13.41 -5.74,16.8 -10.16,16.8 -2.75,0 -5.19,-0.91 -7.33,-3.14 -2.05,-2.25 -3.19,-4.35 -3.19,-8.08 0,-6.22 4.39,-11.11 9.97,-11.11 l 0.05,1.14 c -0.8,0 -3.09,0 -4.64,3.14 -0.89,1.84 -0.89,4.34 -0.89,6.78 0,2.69 0,5.03 1.04,6.88 1.35,2.48 3.24,3.14 4.99,3.14 2.28,0 3.94,-1.71 4.78,-3.94 0.59,-1.59 0.8,-4.74 0.8,-7.03 0,-4.13 -1.71,-8.97 -6.08,-8.97 l 0,0 -0.05,-1.14 c 3.03,0 5.08,2.09 6.22,4.98 z" /></g>        </g>
        <g
           transform="matrix(0.25,0,0,0.25,477.38166,204.47493)"
           id="g18087">
          <g
             style="font-style:normal;font-variant:normal;font-weight:normal;font-stretch:normal;letter-spacing:normal;word-spacing:normal;text-anchor:start;fill:none;fill-opacity:1;fill-rule:evenodd;stroke:#000000;stroke-linecap:butt;stroke-linejoin:miter;stroke-miterlimit:10.43299961;stroke-dasharray:none;stroke-dashoffset:0;stroke-opacity:1"
             word-spacing="normal"
             letter-spacing="normal"
             font-size-adjust="none"
             font-stretch="normal"
             font-weight="normal"
             font-variant="normal"
             font-style="normal"
             stroke-miterlimit="10.433"
             xml:space="preserve"
             transform="matrix(1.0629921,0,0,-1.0629921,-186.02362,789.27165)"
             id="g18089"><path
               style="fill:#000000;stroke-width:0"
               inkscape:connector-curvature="0"
               id="path18091"
               d="m 500.8,435.34 0.09,0.26 0.09,0.25 0.11,0.23 0.11,0.22 0.11,0.21 0.12,0.19 0.13,0.19 0.13,0.17 0.14,0.16 0.14,0.16 0.14,0.14 0.16,0.13 0.15,0.12 0.16,0.11 0.16,0.1 0.17,0.1 0.16,0.08 0.18,0.08 0.17,0.07 0.18,0.07 0.17,0.05 0.18,0.05 0.18,0.04 0.19,0.04 0.18,0.03 0.18,0.03 0.19,0.02 0.18,0.02 0.37,0.02 0.37,0 0,1.55 c -1.49,-0.11 -3.04,-0.16 -4.54,-0.16 -1.43,0 -4.62,0.11 -5.92,0.16 l 0,-1.55 c 3.33,-0.04 4.33,-1.68 4.33,-2.64 0,-0.29 -0.14,-0.7 -0.25,-1 l -7.47,-23.01 -7.97,24.4 c -0.06,0.21 -0.15,0.5 -0.15,0.75 0,1.5 2.89,1.5 4.18,1.5 l 0,1.55 c -1.79,-0.16 -5.18,-0.16 -7.07,-0.16 -1.89,0 -4.04,0.11 -6.08,0.16 l 0,-1.55 c 2.84,0 3.89,0 4.48,-1.79 l 1.1,-3.49 -6.93,-21.37 -8.01,24.51 c -0.05,0.14 -0.11,0.5 -0.11,0.64 0,1.5 2.89,1.5 4.19,1.5 l 0,1.55 c -1.8,-0.16 -5.18,-0.16 -7.08,-0.16 -1.89,0 -4.03,0.11 -6.08,0.16 l 0,-1.55 c 3.75,0 3.94,-0.25 4.55,-2.09 l 9.95,-30.55 c 0.16,-0.43 0.3,-0.93 0.95,-0.93 0.69,0 0.8,0.34 1,1 l 8.22,25.29 8.27,-25.36 c 0.15,-0.43 0.29,-0.93 0.95,-0.93 0.69,0 0.8,0.34 0.99,1 z" /></g>        </g>
      </g>
      <g
         id="g18197"
         transform="translate(5.8083771,1.0101525)">
        <g
           transform="matrix(0.25,0,0,0.25,450.73544,172.98998)"
           id="g17563">
          <g
             style="font-style:normal;font-variant:normal;font-weight:normal;font-stretch:normal;letter-spacing:normal;word-spacing:normal;text-anchor:start;fill:none;fill-opacity:1;fill-rule:evenodd;stroke:#000000;stroke-linecap:butt;stroke-linejoin:miter;stroke-miterlimit:10.43299961;stroke-dasharray:none;stroke-dashoffset:0;stroke-opacity:1"
             id="g17565"
             transform="matrix(1.0629921,0,0,-1.0629921,-186.02362,789.27165)"
             xml:space="preserve"
             stroke-miterlimit="10.433"
             font-style="normal"
             font-variant="normal"
             font-weight="normal"
             font-stretch="normal"
             font-size-adjust="none"
             letter-spacing="normal"
             word-spacing="normal"><path
               style="fill:#000000;stroke-width:0"
               inkscape:connector-curvature="0"
               d="m 470.91,424.23 0.33,0.18 0.33,0.17 0.32,0.19 0.31,0.19 0.31,0.19 0.29,0.2 0.29,0.2 0.28,0.2 0.27,0.21 0.26,0.22 0.25,0.21 0.25,0.23 0.23,0.22 0.23,0.24 0.21,0.23 0.2,0.24 0.2,0.24 0.18,0.25 0.17,0.25 0.16,0.26 0.15,0.26 0.14,0.27 0.12,0.27 0.11,0.27 0.1,0.28 0.09,0.28 0.08,0.28 0.06,0.29 0.05,0.29 0.03,0.3 0.02,0.3 0.01,0.31 c 0,4.59 -4.44,7.44 -8.97,7.44 l -0.04,-1.25 c 3.64,0 6.82,-2.6 6.82,-6.19 0,-2.83 -1.95,-5.22 -4.93,-6.97 l -6.18,3.98 c -2.29,1.5 -2.5,3.19 -2.5,4.04 0,3.04 3.25,5.14 6.79,5.14 l 0.04,1.25 c -4.98,0 -9.01,-3.69 -9.01,-8.33 0,-0.89 0.09,-3.14 2.18,-5.49 0.55,-0.59 2.4,-1.84 3.65,-2.68 l 1.14,-0.75 6.14,-3.88 c 1.39,-0.95 3.73,-2.45 3.73,-5.48 0,-3.69 -3.73,-6.28 -7.83,-6.28 -4.28,0 -7.87,3.09 -7.87,7.21 0,2.9 1.59,6.08 5.83,8.43 l 0,0 -1.14,0.75 c -2.9,-1.44 -7.18,-4.24 -7.18,-9.18 0,-5.28 5.08,-8.6 10.32,-8.6 5.62,0 10.36,4.14 10.36,9.46 0,1.79 -0.55,4.04 -2.44,6.13 -0.96,1.05 -1.75,1.55 -4.94,3.53 z"
               id="path17567" /></g>        </g>
        <g
           id="g18093"
           transform="matrix(0.25,0,0,0.25,438.23825,173.1602)">
          <g
             id="g18095"
             transform="matrix(1.0629921,0,0,-1.0629921,-186.02362,789.27165)"
             xml:space="preserve"
             stroke-miterlimit="10.433"
             font-style="normal"
             font-variant="normal"
             font-weight="normal"
             font-stretch="normal"
             font-size-adjust="none"
             letter-spacing="normal"
             word-spacing="normal"
             style="font-style:normal;font-variant:normal;font-weight:normal;font-stretch:normal;letter-spacing:normal;word-spacing:normal;text-anchor:start;fill:none;fill-opacity:1;fill-rule:evenodd;stroke:#000000;stroke-linecap:butt;stroke-linejoin:miter;stroke-miterlimit:10.43299961;stroke-dasharray:none;stroke-dashoffset:0;stroke-opacity:1"><path
               d="m 500.8,435.34 0.09,0.26 0.09,0.25 0.11,0.23 0.11,0.22 0.11,0.21 0.12,0.19 0.13,0.19 0.13,0.17 0.14,0.16 0.14,0.16 0.14,0.14 0.16,0.13 0.15,0.12 0.16,0.11 0.16,0.1 0.17,0.1 0.16,0.08 0.18,0.08 0.17,0.07 0.18,0.07 0.17,0.05 0.18,0.05 0.18,0.04 0.19,0.04 0.18,0.03 0.18,0.03 0.19,0.02 0.18,0.02 0.37,0.02 0.37,0 0,1.55 c -1.49,-0.11 -3.04,-0.16 -4.54,-0.16 -1.43,0 -4.62,0.11 -5.92,0.16 l 0,-1.55 c 3.33,-0.04 4.33,-1.68 4.33,-2.64 0,-0.29 -0.14,-0.7 -0.25,-1 l -7.47,-23.01 -7.97,24.4 c -0.06,0.21 -0.15,0.5 -0.15,0.75 0,1.5 2.89,1.5 4.18,1.5 l 0,1.55 c -1.79,-0.16 -5.18,-0.16 -7.07,-0.16 -1.89,0 -4.04,0.11 -6.08,0.16 l 0,-1.55 c 2.84,0 3.89,0 4.48,-1.79 l 1.1,-3.49 -6.93,-21.37 -8.01,24.51 c -0.05,0.14 -0.11,0.5 -0.11,0.64 0,1.5 2.89,1.5 4.19,1.5 l 0,1.55 c -1.8,-0.16 -5.18,-0.16 -7.08,-0.16 -1.89,0 -4.03,0.11 -6.08,0.16 l 0,-1.55 c 3.75,0 3.94,-0.25 4.55,-2.09 l 9.95,-30.55 c 0.16,-0.43 0.3,-0.93 0.95,-0.93 0.69,0 0.8,0.34 1,1 l 8.22,25.29 8.27,-25.36 c 0.15,-0.43 0.29,-0.93 0.95,-0.93 0.69,0 0.8,0.34 0.99,1 z"
               id="path18097"
               inkscape:connector-curvature="0"
               style="fill:#000000;stroke-width:0" /></g>        </g>
      </g>
      <g
         id="g18189"
         transform="translate(4.7982246,0)">
        <g
           transform="matrix(0.25,0,0,0.25,314.19181,174.31386)"
           id="g17469">
          <g
             style="font-style:normal;font-variant:normal;font-weight:normal;font-stretch:normal;letter-spacing:normal;word-spacing:normal;text-anchor:start;fill:none;fill-opacity:1;fill-rule:evenodd;stroke:#000000;stroke-linecap:butt;stroke-linejoin:miter;stroke-miterlimit:10.43299961;stroke-dasharray:none;stroke-dashoffset:0;stroke-opacity:1"
             word-spacing="normal"
             letter-spacing="normal"
             font-size-adjust="none"
             font-stretch="normal"
             font-weight="normal"
             font-variant="normal"
             font-style="normal"
             stroke-miterlimit="10.433"
             xml:space="preserve"
             transform="matrix(1.0629921,0,0,-1.0629921,-186.02362,789.27165)"
             id="g17471"><path
               style="fill:#000000;stroke-width:0"
               inkscape:connector-curvature="0"
               id="path17473"
               d="m 479.24,436.54 0.04,0.06 0.04,0.05 0.03,0.05 0.03,0.05 0.03,0.04 0.03,0.04 0.03,0.05 0.02,0.04 0.02,0.04 0.02,0.04 0.02,0.04 0.02,0.04 0.01,0.04 0.02,0.04 0.01,0.04 0.01,0.04 0.01,0.04 0.01,0.05 0.01,0.05 0,0.04 0.01,0.06 0,0.05 0.01,0.06 0,0.06 0,0.06 0,0.07 0,0.07 0.01,0.08 0,0.08 0,0.08 0,0.09 0,0.05 0,0.05 -12.1,0 c -6.08,0 -6.19,0.65 -6.39,1.59 l -1.23,0 -1.64,-10.25 1.23,0 c 0.16,0.8 0.61,3.94 1.25,4.53 0.34,0.3 4.24,0.3 4.88,0.3 l 10.32,0 c -0.56,-0.8 -4.48,-6.24 -5.59,-7.88 -4.48,-6.71 -6.12,-13.65 -6.12,-18.73 0,-0.5 0,-2.73 2.29,-2.73 2.3,0 2.3,2.23 2.3,2.73 l 0,2.55 c 0,2.73 0.14,5.48 0.55,8.17 0.18,1.14 0.89,5.42 3.07,8.51 z" /></g>        </g>
        <g
           transform="matrix(0.25,0,0,0.25,301.11004,174.42289)"
           id="g18099">
          <g
             style="font-style:normal;font-variant:normal;font-weight:normal;font-stretch:normal;letter-spacing:normal;word-spacing:normal;text-anchor:start;fill:none;fill-opacity:1;fill-rule:evenodd;stroke:#000000;stroke-linecap:butt;stroke-linejoin:miter;stroke-miterlimit:10.43299961;stroke-dasharray:none;stroke-dashoffset:0;stroke-opacity:1"
             word-spacing="normal"
             letter-spacing="normal"
             font-size-adjust="none"
             font-stretch="normal"
             font-weight="normal"
             font-variant="normal"
             font-style="normal"
             stroke-miterlimit="10.433"
             xml:space="preserve"
             transform="matrix(1.0629921,0,0,-1.0629921,-186.02362,789.27165)"
             id="g18101"><path
               style="fill:#000000;stroke-width:0"
               inkscape:connector-curvature="0"
               id="path18103"
               d="m 500.8,435.34 0.09,0.26 0.09,0.25 0.11,0.23 0.11,0.22 0.11,0.21 0.12,0.19 0.13,0.19 0.13,0.17 0.14,0.16 0.14,0.16 0.14,0.14 0.16,0.13 0.15,0.12 0.16,0.11 0.16,0.1 0.17,0.1 0.16,0.08 0.18,0.08 0.17,0.07 0.18,0.07 0.17,0.05 0.18,0.05 0.18,0.04 0.19,0.04 0.18,0.03 0.18,0.03 0.19,0.02 0.18,0.02 0.37,0.02 0.37,0 0,1.55 c -1.49,-0.11 -3.04,-0.16 -4.54,-0.16 -1.43,0 -4.62,0.11 -5.92,0.16 l 0,-1.55 c 3.33,-0.04 4.33,-1.68 4.33,-2.64 0,-0.29 -0.14,-0.7 -0.25,-1 l -7.47,-23.01 -7.97,24.4 c -0.06,0.21 -0.15,0.5 -0.15,0.75 0,1.5 2.89,1.5 4.18,1.5 l 0,1.55 c -1.79,-0.16 -5.18,-0.16 -7.07,-0.16 -1.89,0 -4.04,0.11 -6.08,0.16 l 0,-1.55 c 2.84,0 3.89,0 4.48,-1.79 l 1.1,-3.49 -6.93,-21.37 -8.01,24.51 c -0.05,0.14 -0.11,0.5 -0.11,0.64 0,1.5 2.89,1.5 4.19,1.5 l 0,1.55 c -1.8,-0.16 -5.18,-0.16 -7.08,-0.16 -1.89,0 -4.03,0.11 -6.08,0.16 l 0,-1.55 c 3.75,0 3.94,-0.25 4.55,-2.09 l 9.95,-30.55 c 0.16,-0.43 0.3,-0.93 0.95,-0.93 0.69,0 0.8,0.34 1,1 l 8.22,25.29 8.27,-25.36 c 0.15,-0.43 0.29,-0.93 0.95,-0.93 0.69,0 0.8,0.34 0.99,1 z" /></g>        </g>
      </g>
      <g
         id="g18181"
         transform="translate(6.5659916,-0.75761441)">
        <g
           transform="matrix(0.25,0,0,0.25,303.75825,278.04584)"
           id="g17381">
          <g
             style="font-style:normal;font-variant:normal;font-weight:normal;font-stretch:normal;letter-spacing:normal;word-spacing:normal;text-anchor:start;fill:none;fill-opacity:1;fill-rule:evenodd;stroke:#000000;stroke-linecap:butt;stroke-linejoin:miter;stroke-miterlimit:10.43299961;stroke-dasharray:none;stroke-dashoffset:0;stroke-opacity:1"
             id="g17383"
             transform="matrix(1.0629921,0,0,-1.0629921,-186.02362,789.27165)"
             xml:space="preserve"
             stroke-miterlimit="10.433"
             font-style="normal"
             font-variant="normal"
             font-weight="normal"
             font-stretch="normal"
             font-size-adjust="none"
             letter-spacing="normal"
             word-spacing="normal"><path
               style="fill:#000000;stroke-width:0"
               inkscape:connector-curvature="0"
               d="m 462.1,422.54 0,1.19 c 0,12.61 6.17,14.41 8.72,14.41 1.18,0 3.28,-0.3 4.37,-2 -0.73,0 -2.73,0 -2.73,-2.24 0,-1.54 1.2,-2.29 2.29,-2.29 0.8,0 2.29,0.45 2.29,2.39 0,3 -2.19,5.39 -6.32,5.39 -6.39,0 -13.11,-6.44 -13.11,-17.44 0,-13.31 5.78,-16.84 10.41,-16.84 5.53,0 10.27,4.68 10.27,11.25 0,6.32 -4.44,11.12 -9.97,11.12 l -0.05,-1.16 c 0.8,0 3.09,0 4.64,-3.09 0.89,-1.83 0.89,-4.37 0.89,-6.81 0,-2.39 0,-4.89 -0.84,-6.69 -1.5,-2.98 -3.78,-3.23 -4.94,-3.23 l 0,0 c -3.14,0 -4.63,2.98 -4.92,3.73 -0.91,2.34 -0.91,6.33 -0.91,7.23 0,3.88 1.6,8.86 6.08,8.86 l 0.05,1.16 c -3.38,0 -5.22,-2.55 -6.22,-4.94 z"
               id="path17385" /></g>        </g>
        <g
           id="g18105"
           transform="matrix(0.25,0,0,0.25,291.51359,278.21607)">
          <g
             id="g18107"
             transform="matrix(1.0629921,0,0,-1.0629921,-186.02362,789.27165)"
             xml:space="preserve"
             stroke-miterlimit="10.433"
             font-style="normal"
             font-variant="normal"
             font-weight="normal"
             font-stretch="normal"
             font-size-adjust="none"
             letter-spacing="normal"
             word-spacing="normal"
             style="font-style:normal;font-variant:normal;font-weight:normal;font-stretch:normal;letter-spacing:normal;word-spacing:normal;text-anchor:start;fill:none;fill-opacity:1;fill-rule:evenodd;stroke:#000000;stroke-linecap:butt;stroke-linejoin:miter;stroke-miterlimit:10.43299961;stroke-dasharray:none;stroke-dashoffset:0;stroke-opacity:1"><path
               d="m 500.8,435.34 0.09,0.26 0.09,0.25 0.11,0.23 0.11,0.22 0.11,0.21 0.12,0.19 0.13,0.19 0.13,0.17 0.14,0.16 0.14,0.16 0.14,0.14 0.16,0.13 0.15,0.12 0.16,0.11 0.16,0.1 0.17,0.1 0.16,0.08 0.18,0.08 0.17,0.07 0.18,0.07 0.17,0.05 0.18,0.05 0.18,0.04 0.19,0.04 0.18,0.03 0.18,0.03 0.19,0.02 0.18,0.02 0.37,0.02 0.37,0 0,1.55 c -1.49,-0.11 -3.04,-0.16 -4.54,-0.16 -1.43,0 -4.62,0.11 -5.92,0.16 l 0,-1.55 c 3.33,-0.04 4.33,-1.68 4.33,-2.64 0,-0.29 -0.14,-0.7 -0.25,-1 l -7.47,-23.01 -7.97,24.4 c -0.06,0.21 -0.15,0.5 -0.15,0.75 0,1.5 2.89,1.5 4.18,1.5 l 0,1.55 c -1.79,-0.16 -5.18,-0.16 -7.07,-0.16 -1.89,0 -4.04,0.11 -6.08,0.16 l 0,-1.55 c 2.84,0 3.89,0 4.48,-1.79 l 1.1,-3.49 -6.93,-21.37 -8.01,24.51 c -0.05,0.14 -0.11,0.5 -0.11,0.64 0,1.5 2.89,1.5 4.19,1.5 l 0,1.55 c -1.8,-0.16 -5.18,-0.16 -7.08,-0.16 -1.89,0 -4.03,0.11 -6.08,0.16 l 0,-1.55 c 3.75,0 3.94,-0.25 4.55,-2.09 l 9.95,-30.55 c 0.16,-0.43 0.3,-0.93 0.95,-0.93 0.69,0 0.8,0.34 1,1 l 8.22,25.29 8.27,-25.36 c 0.15,-0.43 0.29,-0.93 0.95,-0.93 0.69,0 0.8,0.34 0.99,1 z"
               id="path18109"
               inkscape:connector-curvature="0"
               style="fill:#000000;stroke-width:0" /></g>        </g>
      </g>
      <g
         id="g18173"
         transform="translate(5.0507627,2.0203051)">
        <g
           transform="matrix(0.25,0,0,0.25,287.59181,112.38083)"
           id="g17299">
          <g
             style="font-style:normal;font-variant:normal;font-weight:normal;font-stretch:normal;letter-spacing:normal;word-spacing:normal;text-anchor:start;fill:none;fill-opacity:1;fill-rule:evenodd;stroke:#000000;stroke-linecap:butt;stroke-linejoin:miter;stroke-miterlimit:10.43299961;stroke-dasharray:none;stroke-dashoffset:0;stroke-opacity:1"
             word-spacing="normal"
             letter-spacing="normal"
             font-size-adjust="none"
             font-stretch="normal"
             font-weight="normal"
             font-variant="normal"
             font-style="normal"
             stroke-miterlimit="10.433"
             xml:space="preserve"
             transform="matrix(1.0629921,0,0,-1.0629921,-186.02362,789.27165)"
             id="g17301"><path
               style="fill:#000000;stroke-width:0"
               inkscape:connector-curvature="0"
               id="path17303"
               d="m 477.89,416.21 -0.01,0.56 -0.03,0.54 -0.06,0.54 -0.08,0.53 -0.1,0.53 -0.13,0.51 -0.14,0.5 -0.17,0.5 -0.18,0.48 -0.21,0.47 -0.22,0.46 -0.24,0.44 -0.26,0.43 -0.28,0.41 -0.29,0.4 -0.31,0.38 -0.33,0.36 -0.34,0.35 -0.36,0.32 -0.37,0.31 -0.38,0.29 -0.4,0.26 -0.41,0.25 -0.42,0.22 -0.43,0.2 -0.44,0.17 -0.46,0.15 -0.46,0.13 -0.48,0.09 -0.48,0.07 -0.49,0.05 -0.5,0.01 c -2.39,0 -4.54,-0.8 -6.33,-2.53 l 0,9.7 c 1,-0.29 2.64,-0.64 4.23,-0.64 6.13,0 9.61,4.53 9.61,5.19 0,0.3 -0.14,0.55 -0.5,0.55 -0.05,0 -0.14,0 -0.39,-0.16 -1,-0.45 -3.44,-1.44 -6.78,-1.44 -1.98,0 -4.28,0.35 -6.63,1.39 -0.39,0.14 -0.5,0.14 -0.59,0.14 -0.5,0 -0.5,-0.39 -0.5,-1.18 l 0,-14.75 c 0,-0.89 0,-1.3 0.7,-1.3 0.35,0 0.44,0.16 0.64,0.45 0.55,0.8 2.4,3.49 6.43,3.49 2.59,0 3.84,-2.3 4.23,-3.19 0.81,-1.84 0.91,-3.78 0.91,-6.28 0,-1.74 0,-4.74 -1.21,-6.83 -1.18,-1.94 -3.03,-3.23 -5.32,-3.23 -3.64,0 -6.47,2.64 -7.33,5.57 0.15,-0.04 0.31,-0.09 0.86,-0.09 1.64,0 2.48,1.25 2.48,2.44 0,1.2 -0.84,2.44 -2.48,2.44 -0.71,0 -2.46,-0.35 -2.46,-2.65 0,-4.28 3.44,-9.1 9.04,-9.1 5.76,0 10.85,4.78 10.85,11.1 z" /></g>        </g>
        <g
           transform="matrix(0.25,0,0,0.25,274.341,112.55105)"
           id="g18111">
          <g
             style="font-style:normal;font-variant:normal;font-weight:normal;font-stretch:normal;letter-spacing:normal;word-spacing:normal;text-anchor:start;fill:none;fill-opacity:1;fill-rule:evenodd;stroke:#000000;stroke-linecap:butt;stroke-linejoin:miter;stroke-miterlimit:10.43299961;stroke-dasharray:none;stroke-dashoffset:0;stroke-opacity:1"
             word-spacing="normal"
             letter-spacing="normal"
             font-size-adjust="none"
             font-stretch="normal"
             font-weight="normal"
             font-variant="normal"
             font-style="normal"
             stroke-miterlimit="10.433"
             xml:space="preserve"
             transform="matrix(1.0629921,0,0,-1.0629921,-186.02362,789.27165)"
             id="g18113"><path
               style="fill:#000000;stroke-width:0"
               inkscape:connector-curvature="0"
               id="path18115"
               d="m 500.8,435.34 0.09,0.26 0.09,0.25 0.11,0.23 0.11,0.22 0.11,0.21 0.12,0.19 0.13,0.19 0.13,0.17 0.14,0.16 0.14,0.16 0.14,0.14 0.16,0.13 0.15,0.12 0.16,0.11 0.16,0.1 0.17,0.1 0.16,0.08 0.18,0.08 0.17,0.07 0.18,0.07 0.17,0.05 0.18,0.05 0.18,0.04 0.19,0.04 0.18,0.03 0.18,0.03 0.19,0.02 0.18,0.02 0.37,0.02 0.37,0 0,1.55 c -1.49,-0.11 -3.04,-0.16 -4.54,-0.16 -1.43,0 -4.62,0.11 -5.92,0.16 l 0,-1.55 c 3.33,-0.04 4.33,-1.68 4.33,-2.64 0,-0.29 -0.14,-0.7 -0.25,-1 l -7.47,-23.01 -7.97,24.4 c -0.06,0.21 -0.15,0.5 -0.15,0.75 0,1.5 2.89,1.5 4.18,1.5 l 0,1.55 c -1.79,-0.16 -5.18,-0.16 -7.07,-0.16 -1.89,0 -4.04,0.11 -6.08,0.16 l 0,-1.55 c 2.84,0 3.89,0 4.48,-1.79 l 1.1,-3.49 -6.93,-21.37 -8.01,24.51 c -0.05,0.14 -0.11,0.5 -0.11,0.64 0,1.5 2.89,1.5 4.19,1.5 l 0,1.55 c -1.8,-0.16 -5.18,-0.16 -7.08,-0.16 -1.89,0 -4.03,0.11 -6.08,0.16 l 0,-1.55 c 3.75,0 3.94,-0.25 4.55,-2.09 l 9.95,-30.55 c 0.16,-0.43 0.3,-0.93 0.95,-0.93 0.69,0 0.8,0.34 1,1 l 8.22,25.29 8.27,-25.36 c 0.15,-0.43 0.29,-0.93 0.95,-0.93 0.69,0 0.8,0.34 0.99,1 z" /></g>        </g>
      </g>
      <g
         id="g18165"
         transform="translate(5.0507627,1.5152288)">
        <g
           transform="matrix(0.25,0,0,0.25,143.64907,111.73108)"
           id="g17223">
          <g
             style="font-style:normal;font-variant:normal;font-weight:normal;font-stretch:normal;letter-spacing:normal;word-spacing:normal;text-anchor:start;fill:none;fill-opacity:1;fill-rule:evenodd;stroke:#000000;stroke-linecap:butt;stroke-linejoin:miter;stroke-miterlimit:10.43299961;stroke-dasharray:none;stroke-dashoffset:0;stroke-opacity:1"
             id="g17225"
             transform="matrix(1.0629921,0,0,-1.0629921,-186.02362,789.27165)"
             xml:space="preserve"
             stroke-miterlimit="10.433"
             font-style="normal"
             font-variant="normal"
             font-weight="normal"
             font-stretch="normal"
             font-size-adjust="none"
             letter-spacing="normal"
             word-spacing="normal"><path
               style="fill:#000000;stroke-width:0"
               inkscape:connector-curvature="0"
               d="m 470.16,414.42 0,-4.33 c 0,-1.8 -0.09,-2.34 -3.78,-2.34 l -1.05,0 0,-1.55 c 2.05,0.16 4.64,0.16 6.74,0.16 2.09,0 4.73,0 6.76,-0.16 l 0,1.55 -1.04,0 c -3.69,0 -3.79,0.54 -3.79,2.34 l 0,4.33 4.99,0 0,1.54 -4.99,0 0,22.68 c 0,1 0,1.29 -0.79,1.29 -0.46,0 -0.6,0 -1,-0.61 l -15.3,-23.36 1.41,0 12.15,18.58 0,-18.58 -12.15,0 -1.41,0 0,-1.54 z"
               id="path17227" /></g>        </g>
        <g
           id="g18117"
           transform="matrix(0.25,0,0,0.25,130.6468,111.79344)">
          <g
             id="g18119"
             transform="matrix(1.0629921,0,0,-1.0629921,-186.02362,789.27165)"
             xml:space="preserve"
             stroke-miterlimit="10.433"
             font-style="normal"
             font-variant="normal"
             font-weight="normal"
             font-stretch="normal"
             font-size-adjust="none"
             letter-spacing="normal"
             word-spacing="normal"
             style="font-style:normal;font-variant:normal;font-weight:normal;font-stretch:normal;letter-spacing:normal;word-spacing:normal;text-anchor:start;fill:none;fill-opacity:1;fill-rule:evenodd;stroke:#000000;stroke-linecap:butt;stroke-linejoin:miter;stroke-miterlimit:10.43299961;stroke-dasharray:none;stroke-dashoffset:0;stroke-opacity:1"><path
               d="m 500.8,435.34 0.09,0.26 0.09,0.25 0.11,0.23 0.11,0.22 0.11,0.21 0.12,0.19 0.13,0.19 0.13,0.17 0.14,0.16 0.14,0.16 0.14,0.14 0.16,0.13 0.15,0.12 0.16,0.11 0.16,0.1 0.17,0.1 0.16,0.08 0.18,0.08 0.17,0.07 0.18,0.07 0.17,0.05 0.18,0.05 0.18,0.04 0.19,0.04 0.18,0.03 0.18,0.03 0.19,0.02 0.18,0.02 0.37,0.02 0.37,0 0,1.55 c -1.49,-0.11 -3.04,-0.16 -4.54,-0.16 -1.43,0 -4.62,0.11 -5.92,0.16 l 0,-1.55 c 3.33,-0.04 4.33,-1.68 4.33,-2.64 0,-0.29 -0.14,-0.7 -0.25,-1 l -7.47,-23.01 -7.97,24.4 c -0.06,0.21 -0.15,0.5 -0.15,0.75 0,1.5 2.89,1.5 4.18,1.5 l 0,1.55 c -1.79,-0.16 -5.18,-0.16 -7.07,-0.16 -1.89,0 -4.04,0.11 -6.08,0.16 l 0,-1.55 c 2.84,0 3.89,0 4.48,-1.79 l 1.1,-3.49 -6.93,-21.37 -8.01,24.51 c -0.05,0.14 -0.11,0.5 -0.11,0.64 0,1.5 2.89,1.5 4.19,1.5 l 0,1.55 c -1.8,-0.16 -5.18,-0.16 -7.08,-0.16 -1.89,0 -4.03,0.11 -6.08,0.16 l 0,-1.55 c 3.75,0 3.94,-0.25 4.55,-2.09 l 9.95,-30.55 c 0.16,-0.43 0.3,-0.93 0.95,-0.93 0.69,0 0.8,0.34 1,1 l 8.22,25.29 8.27,-25.36 c 0.15,-0.43 0.29,-0.93 0.95,-0.93 0.69,0 0.8,0.34 0.99,1 z"
               id="path18121"
               inkscape:connector-curvature="0"
               style="fill:#000000;stroke-width:0" /></g>        </g>
      </g>
      <g
         id="g18157"
         transform="translate(5.0507627,-1.5152288)">
        <g
           transform="matrix(0.25,0,0,0.25,123.95109,279.05599)"
           id="g17153">
          <g
             style="font-style:normal;font-variant:normal;font-weight:normal;font-stretch:normal;letter-spacing:normal;word-spacing:normal;text-anchor:start;fill:none;fill-opacity:1;fill-rule:evenodd;stroke:#000000;stroke-linecap:butt;stroke-linejoin:miter;stroke-miterlimit:10.43299961;stroke-dasharray:none;stroke-dashoffset:0;stroke-opacity:1"
             word-spacing="normal"
             letter-spacing="normal"
             font-size-adjust="none"
             font-stretch="normal"
             font-weight="normal"
             font-variant="normal"
             font-style="normal"
             stroke-miterlimit="10.433"
             xml:space="preserve"
             transform="matrix(1.0629921,0,0,-1.0629921,-186.02362,789.27165)"
             id="g17155"><path
               style="fill:#000000;stroke-width:0"
               inkscape:connector-curvature="0"
               id="path17157"
               d="m 469.97,423.73 0.38,0.13 0.37,0.15 0.37,0.15 0.35,0.17 0.35,0.18 0.34,0.19 0.33,0.2 0.32,0.22 0.31,0.22 0.31,0.23 0.29,0.24 0.28,0.25 0.27,0.26 0.26,0.27 0.25,0.27 0.24,0.29 0.22,0.29 0.21,0.3 0.2,0.3 0.19,0.32 0.18,0.32 0.16,0.32 0.14,0.33 0.14,0.34 0.11,0.34 0.11,0.34 0.09,0.35 0.07,0.36 0.06,0.36 0.04,0.36 0.02,0.36 0.01,0.37 c 0,4.08 -4.39,6.88 -9.17,6.88 -5.03,0 -8.81,-3 -8.81,-6.78 0,-1.65 1.09,-2.6 2.54,-2.6 1.54,0 2.54,1.1 2.54,2.55 0,2.48 -2.35,2.48 -3.08,2.48 1.53,2.44 4.83,3.1 6.62,3.1 2.03,0 4.78,-1.1 4.78,-5.58 0,-0.61 -0.11,-3.49 -1.4,-5.69 -1.49,-2.39 -3.19,-2.53 -4.42,-2.59 -0.41,-0.05 -1.6,-0.14 -1.96,-0.14 -0.39,-0.05 -0.75,-0.1 -0.75,-0.6 0,-0.54 0.36,-0.54 1.21,-0.54 l 2.18,0 c 4.1,0 5.94,-3.39 5.94,-8.29 0,-6.76 -3.44,-8.21 -5.64,-8.21 -2.14,0 -5.88,0.84 -7.61,3.78 1.73,-0.24 3.28,0.86 3.28,2.75 0,1.79 -1.34,2.78 -2.8,2.78 -1.18,0 -2.78,-0.69 -2.78,-2.89 0,-4.53 4.63,-7.81 10.07,-7.81 6.07,0 10.61,4.53 10.61,9.6 0,4.1 -3.15,7.97 -8.32,9.02 z" /></g>        </g>
        <g
           transform="matrix(0.25,0,0,0.25,110.69628,279.22622)"
           id="g18123">
          <g
             style="font-style:normal;font-variant:normal;font-weight:normal;font-stretch:normal;letter-spacing:normal;word-spacing:normal;text-anchor:start;fill:none;fill-opacity:1;fill-rule:evenodd;stroke:#000000;stroke-linecap:butt;stroke-linejoin:miter;stroke-miterlimit:10.43299961;stroke-dasharray:none;stroke-dashoffset:0;stroke-opacity:1"
             word-spacing="normal"
             letter-spacing="normal"
             font-size-adjust="none"
             font-stretch="normal"
             font-weight="normal"
             font-variant="normal"
             font-style="normal"
             stroke-miterlimit="10.433"
             xml:space="preserve"
             transform="matrix(1.0629921,0,0,-1.0629921,-186.02362,789.27165)"
             id="g18125"><path
               style="fill:#000000;stroke-width:0"
               inkscape:connector-curvature="0"
               id="path18127"
               d="m 500.8,435.34 0.09,0.26 0.09,0.25 0.11,0.23 0.11,0.22 0.11,0.21 0.12,0.19 0.13,0.19 0.13,0.17 0.14,0.16 0.14,0.16 0.14,0.14 0.16,0.13 0.15,0.12 0.16,0.11 0.16,0.1 0.17,0.1 0.16,0.08 0.18,0.08 0.17,0.07 0.18,0.07 0.17,0.05 0.18,0.05 0.18,0.04 0.19,0.04 0.18,0.03 0.18,0.03 0.19,0.02 0.18,0.02 0.37,0.02 0.37,0 0,1.55 c -1.49,-0.11 -3.04,-0.16 -4.54,-0.16 -1.43,0 -4.62,0.11 -5.92,0.16 l 0,-1.55 c 3.33,-0.04 4.33,-1.68 4.33,-2.64 0,-0.29 -0.14,-0.7 -0.25,-1 l -7.47,-23.01 -7.97,24.4 c -0.06,0.21 -0.15,0.5 -0.15,0.75 0,1.5 2.89,1.5 4.18,1.5 l 0,1.55 c -1.79,-0.16 -5.18,-0.16 -7.07,-0.16 -1.89,0 -4.04,0.11 -6.08,0.16 l 0,-1.55 c 2.84,0 3.89,0 4.48,-1.79 l 1.1,-3.49 -6.93,-21.37 -8.01,24.51 c -0.05,0.14 -0.11,0.5 -0.11,0.64 0,1.5 2.89,1.5 4.19,1.5 l 0,1.55 c -1.8,-0.16 -5.18,-0.16 -7.08,-0.16 -1.89,0 -4.03,0.11 -6.08,0.16 l 0,-1.55 c 3.75,0 3.94,-0.25 4.55,-2.09 l 9.95,-30.55 c 0.16,-0.43 0.3,-0.93 0.95,-0.93 0.69,0 0.8,0.34 1,1 l 8.22,25.29 8.27,-25.36 c 0.15,-0.43 0.29,-0.93 0.95,-0.93 0.69,0 0.8,0.34 0.99,1 z" /></g>        </g>
      </g>
      <g
         id="g18149"
         transform="translate(5.555839,-0.75761441)">
        <g
           transform="matrix(0.25,0,0,0.25,79.500405,278.6215)"
           id="g17089">
          <g
             style="font-style:normal;font-variant:normal;font-weight:normal;font-stretch:normal;letter-spacing:normal;word-spacing:normal;text-anchor:start;fill:none;fill-opacity:1;fill-rule:evenodd;stroke:#000000;stroke-linecap:butt;stroke-linejoin:miter;stroke-miterlimit:10.43299961;stroke-dasharray:none;stroke-dashoffset:0;stroke-opacity:1"
             id="g17091"
             transform="matrix(1.0629921,0,0,-1.0629921,-186.02362,789.27165)"
             xml:space="preserve"
             stroke-miterlimit="10.433"
             font-style="normal"
             font-variant="normal"
             font-weight="normal"
             font-stretch="normal"
             font-size-adjust="none"
             letter-spacing="normal"
             word-spacing="normal"><path
               style="fill:#000000;stroke-width:0"
               inkscape:connector-curvature="0"
               d="m 461.85,410.04 5.28,5.13 c 7.76,6.87 10.76,9.56 10.76,14.54 0,5.69 -4.48,9.68 -10.56,9.68 -5.64,0 -9.33,-4.6 -9.33,-9.03 0,-2.79 2.5,-2.79 2.64,-2.79 0.86,0 2.6,0.6 2.6,2.64 0,1.3 -0.89,2.6 -2.64,2.6 -0.39,0 -0.5,0 -0.64,-0.05 1.14,3.24 3.83,5.08 6.72,5.08 4.53,0 6.68,-4.05 6.68,-8.13 0,-3.98 -2.5,-7.92 -5.23,-11.01 l -9.56,-10.66 C 458,407.5 458,407.4 458,406.2 l 18.49,0 1.4,8.67 -1.25,0 c -0.25,-1.5 -0.59,-3.69 -1.09,-4.44 -0.36,-0.39 -3.64,-0.39 -4.73,-0.39 z"
               id="path17093" /></g>        </g>
        <g
           id="g18129"
           transform="matrix(0.25,0,0,0.25,66.249572,278.46861)">
          <g
             id="g18131"
             transform="matrix(1.0629921,0,0,-1.0629921,-186.02362,789.27165)"
             xml:space="preserve"
             stroke-miterlimit="10.433"
             font-style="normal"
             font-variant="normal"
             font-weight="normal"
             font-stretch="normal"
             font-size-adjust="none"
             letter-spacing="normal"
             word-spacing="normal"
             style="font-style:normal;font-variant:normal;font-weight:normal;font-stretch:normal;letter-spacing:normal;word-spacing:normal;text-anchor:start;fill:none;fill-opacity:1;fill-rule:evenodd;stroke:#000000;stroke-linecap:butt;stroke-linejoin:miter;stroke-miterlimit:10.43299961;stroke-dasharray:none;stroke-dashoffset:0;stroke-opacity:1"><path
               d="m 500.8,435.34 0.09,0.26 0.09,0.25 0.11,0.23 0.11,0.22 0.11,0.21 0.12,0.19 0.13,0.19 0.13,0.17 0.14,0.16 0.14,0.16 0.14,0.14 0.16,0.13 0.15,0.12 0.16,0.11 0.16,0.1 0.17,0.1 0.16,0.08 0.18,0.08 0.17,0.07 0.18,0.07 0.17,0.05 0.18,0.05 0.18,0.04 0.19,0.04 0.18,0.03 0.18,0.03 0.19,0.02 0.18,0.02 0.37,0.02 0.37,0 0,1.55 c -1.49,-0.11 -3.04,-0.16 -4.54,-0.16 -1.43,0 -4.62,0.11 -5.92,0.16 l 0,-1.55 c 3.33,-0.04 4.33,-1.68 4.33,-2.64 0,-0.29 -0.14,-0.7 -0.25,-1 l -7.47,-23.01 -7.97,24.4 c -0.06,0.21 -0.15,0.5 -0.15,0.75 0,1.5 2.89,1.5 4.18,1.5 l 0,1.55 c -1.79,-0.16 -5.18,-0.16 -7.07,-0.16 -1.89,0 -4.04,0.11 -6.08,0.16 l 0,-1.55 c 2.84,0 3.89,0 4.48,-1.79 l 1.1,-3.49 -6.93,-21.37 -8.01,24.51 c -0.05,0.14 -0.11,0.5 -0.11,0.64 0,1.5 2.89,1.5 4.19,1.5 l 0,1.55 c -1.8,-0.16 -5.18,-0.16 -7.08,-0.16 -1.89,0 -4.03,0.11 -6.08,0.16 l 0,-1.55 c 3.75,0 3.94,-0.25 4.55,-2.09 l 9.95,-30.55 c 0.16,-0.43 0.3,-0.93 0.95,-0.93 0.69,0 0.8,0.34 1,1 l 8.22,25.29 8.27,-25.36 c 0.15,-0.43 0.29,-0.93 0.95,-0.93 0.69,0 0.8,0.34 0.99,1 z"
               id="path18133"
               inkscape:connector-curvature="0"
               style="fill:#000000;stroke-width:0" /></g>        </g>
      </g>
      <g
         id="g18141"
         transform="translate(5.0507627,-0.50507627)">
        <g
           transform="matrix(0.25,0,0,0.25,39.277675,278.11642)"
           id="g17032">
          <g
             style="font-style:normal;font-variant:normal;font-weight:normal;font-stretch:normal;letter-spacing:normal;word-spacing:normal;text-anchor:start;fill:none;fill-opacity:1;fill-rule:evenodd;stroke:#000000;stroke-linecap:butt;stroke-linejoin:miter;stroke-miterlimit:10.43299961;stroke-dasharray:none;stroke-dashoffset:0;stroke-opacity:1"
             word-spacing="normal"
             letter-spacing="normal"
             font-size-adjust="none"
             font-stretch="normal"
             font-weight="normal"
             font-variant="normal"
             font-style="normal"
             stroke-miterlimit="10.433"
             xml:space="preserve"
             transform="matrix(1.0629921,0,0,-1.0629921,-186.02362,789.27165)"
             id="content"><path
               style="fill:#000000;stroke-width:0"
               inkscape:connector-curvature="0"
               id="path17035"
               d="m 470.16,438.09 0,0.05 0,0.06 0,0.05 0,0.05 0,0.05 0,0.05 0,0.04 0,0.05 0,0.04 0,0.04 -0.01,0.04 0,0.04 0,0.04 0,0.03 0,0.04 -0.01,0.03 -0.01,0.07 0,0.06 -0.02,0.05 -0.01,0.05 -0.02,0.05 -0.02,0.04 -0.02,0.04 -0.02,0.03 -0.03,0.03 -0.03,0.03 -0.04,0.03 -0.04,0.02 -0.04,0.02 -0.03,0.01 -0.02,0.01 -0.03,0 -0.02,0.01 -0.03,0.01 -0.03,0 -0.03,0.01 -0.03,0 -0.04,0.01 -0.03,0 -0.04,0 -0.03,0.01 -0.04,0 -0.04,0 -0.05,0 -0.04,0 -0.04,0 -0.05,0.01 -0.05,0 -0.05,0 -0.05,0 -0.05,0 c -3.09,-3.19 -7.47,-3.19 -9.06,-3.19 l 0,-1.55 c 1,0 3.93,0 6.51,1.3 l 0,-25.81 c 0,-1.8 -0.14,-2.39 -4.62,-2.39 l -1.6,0 0,-1.55 c 1.75,0.16 6.08,0.16 8.07,0.16 2,0 6.32,0 8.07,-0.16 l 0,1.55 -1.59,0 c -4.48,0 -4.64,0.54 -4.64,2.39 z" /></g>        </g>
        <g
           transform="matrix(0.25,0,0,0.25,26.348546,278.21607)"
           id="g18135">
          <g
             style="font-style:normal;font-variant:normal;font-weight:normal;font-stretch:normal;letter-spacing:normal;word-spacing:normal;text-anchor:start;fill:none;fill-opacity:1;fill-rule:evenodd;stroke:#000000;stroke-linecap:butt;stroke-linejoin:miter;stroke-miterlimit:10.43299961;stroke-dasharray:none;stroke-dashoffset:0;stroke-opacity:1"
             word-spacing="normal"
             letter-spacing="normal"
             font-size-adjust="none"
             font-stretch="normal"
             font-weight="normal"
             font-variant="normal"
             font-style="normal"
             stroke-miterlimit="10.433"
             xml:space="preserve"
             transform="matrix(1.0629921,0,0,-1.0629921,-186.02362,789.27165)"
             id="g18137"><path
               style="fill:#000000;stroke-width:0"
               inkscape:connector-curvature="0"
               id="path18139"
               d="m 500.8,435.34 0.09,0.26 0.09,0.25 0.11,0.23 0.11,0.22 0.11,0.21 0.12,0.19 0.13,0.19 0.13,0.17 0.14,0.16 0.14,0.16 0.14,0.14 0.16,0.13 0.15,0.12 0.16,0.11 0.16,0.1 0.17,0.1 0.16,0.08 0.18,0.08 0.17,0.07 0.18,0.07 0.17,0.05 0.18,0.05 0.18,0.04 0.19,0.04 0.18,0.03 0.18,0.03 0.19,0.02 0.18,0.02 0.37,0.02 0.37,0 0,1.55 c -1.49,-0.11 -3.04,-0.16 -4.54,-0.16 -1.43,0 -4.62,0.11 -5.92,0.16 l 0,-1.55 c 3.33,-0.04 4.33,-1.68 4.33,-2.64 0,-0.29 -0.14,-0.7 -0.25,-1 l -7.47,-23.01 -7.97,24.4 c -0.06,0.21 -0.15,0.5 -0.15,0.75 0,1.5 2.89,1.5 4.18,1.5 l 0,1.55 c -1.79,-0.16 -5.18,-0.16 -7.07,-0.16 -1.89,0 -4.04,0.11 -6.08,0.16 l 0,-1.55 c 2.84,0 3.89,0 4.48,-1.79 l 1.1,-3.49 -6.93,-21.37 -8.01,24.51 c -0.05,0.14 -0.11,0.5 -0.11,0.64 0,1.5 2.89,1.5 4.19,1.5 l 0,1.55 c -1.8,-0.16 -5.18,-0.16 -7.08,-0.16 -1.89,0 -4.03,0.11 -6.08,0.16 l 0,-1.55 c 3.75,0 3.94,-0.25 4.55,-2.09 l 9.95,-30.55 c 0.16,-0.43 0.3,-0.93 0.95,-0.93 0.69,0 0.8,0.34 1,1 l 8.22,25.29 8.27,-25.36 c 0.15,-0.43 0.29,-0.93 0.95,-0.93 0.69,0 0.8,0.34 0.99,1 z" /></g>        </g>
      </g>
      <g
         transform="matrix(0.25,0,0,0.25,487.09685,276.77142)"
         id="g18322">
        <g
           style="font-style:normal;font-variant:normal;font-weight:normal;font-stretch:normal;letter-spacing:normal;word-spacing:normal;text-anchor:start;fill:none;fill-opacity:1;fill-rule:evenodd;stroke:#000000;stroke-linecap:butt;stroke-linejoin:miter;stroke-miterlimit:10.43299961;stroke-dasharray:none;stroke-dashoffset:0;stroke-opacity:1"
           id="g18324"
           transform="matrix(1.0629921,0,0,-1.0629921,-186.02362,789.27165)"
           xml:space="preserve"
           stroke-miterlimit="10.433"
           font-style="normal"
           font-variant="normal"
           font-weight="normal"
           font-stretch="normal"
           font-size-adjust="none"
           letter-spacing="normal"
           word-spacing="normal"><path
             style="fill:#000000;stroke-width:0"
             inkscape:connector-curvature="0"
             d="m 500.8,435.34 0.09,0.26 0.09,0.25 0.11,0.23 0.11,0.22 0.11,0.21 0.12,0.19 0.13,0.19 0.13,0.17 0.14,0.16 0.14,0.16 0.14,0.14 0.16,0.13 0.15,0.12 0.16,0.11 0.16,0.1 0.17,0.1 0.16,0.08 0.18,0.08 0.17,0.07 0.18,0.07 0.17,0.05 0.18,0.05 0.18,0.04 0.19,0.04 0.18,0.03 0.18,0.03 0.19,0.02 0.18,0.02 0.37,0.02 0.37,0 0,1.55 c -1.49,-0.11 -3.04,-0.16 -4.54,-0.16 -1.43,0 -4.62,0.11 -5.92,0.16 l 0,-1.55 c 3.33,-0.04 4.33,-1.68 4.33,-2.64 0,-0.29 -0.14,-0.7 -0.25,-1 l -7.47,-23.01 -7.97,24.4 c -0.06,0.21 -0.15,0.5 -0.15,0.75 0,1.5 2.89,1.5 4.18,1.5 l 0,1.55 c -1.79,-0.16 -5.18,-0.16 -7.07,-0.16 -1.89,0 -4.04,0.11 -6.08,0.16 l 0,-1.55 c 2.84,0 3.89,0 4.48,-1.79 l 1.1,-3.49 -6.93,-21.37 -8.01,24.51 c -0.05,0.14 -0.11,0.5 -0.11,0.64 0,1.5 2.89,1.5 4.19,1.5 l 0,1.55 c -1.8,-0.16 -5.18,-0.16 -7.08,-0.16 -1.89,0 -4.03,0.11 -6.08,0.16 l 0,-1.55 c 3.75,0 3.94,-0.25 4.55,-2.09 l 9.95,-30.55 c 0.16,-0.43 0.3,-0.93 0.95,-0.93 0.69,0 0.8,0.34 1,1 l 8.22,25.29 8.27,-25.36 c 0.15,-0.43 0.29,-0.93 0.95,-0.93 0.69,0 0.8,0.34 0.99,1 z"
             id="path18326" /><path
             style="fill:#000000;stroke-width:0"
             inkscape:connector-curvature="0"
             d="m 523.2,426.12 0.1,0 0.1,0 0.11,0 0.09,-0.01 0.1,0 0.09,-0.01 0.09,0 0.09,-0.01 0.16,-0.02 0.16,-0.02 0.15,-0.03 0.14,-0.03 0.13,-0.04 0.12,-0.04 0.11,-0.05 0.1,-0.05 0.1,-0.06 0.08,-0.06 0.08,-0.07 0.08,-0.08 0.06,-0.08 0.06,-0.08 0.06,-0.1 0.05,-0.1 0.04,-0.1 0.04,-0.12 0.03,-0.12 0.03,-0.12 0.02,-0.14 0.02,-0.14 0.01,-0.15 0.02,-0.15 0.01,-0.17 0,-0.17 0,-0.18 0.01,-0.19 0,-13.45 c 0,-2.23 -0.55,-2.23 -3.88,-2.23 l 0,-1.55 c 1.64,0.05 4.28,0.16 5.52,0.16 1.25,0 3.68,-0.11 5.53,-0.16 l 0,1.55 c -3.33,0 -3.88,0 -3.88,2.23 l 0,18.3 -6.28,-0.46 c -0.8,-0.04 -0.84,-0.11 -0.89,-0.11 -0.11,-0.04 -0.2,-0.04 -0.91,-0.04 l -5.87,0 0,5.64 c 0,4.92 4.28,6.92 7.37,6.92 1.49,0 3.29,-0.5 4.29,-1.64 -2.05,-0.11 -2.35,-1.5 -2.35,-2.3 0,-1.64 1.3,-2.29 2.25,-2.29 1.14,0 2.28,0.79 2.28,2.29 0,2.94 -2.73,5.03 -6.42,5.03 -4.64,0 -10.56,-2.54 -10.56,-7.96 l 0,-5.69 -3.94,0 0,-1.55 3.94,0 0,-16.14 c 0,-2.23 -0.55,-2.23 -3.89,-2.23 l 0,-1.55 c 1.65,0.05 4.28,0.16 5.53,0.16 1.25,0 3.69,-0.11 5.53,-0.16 l 0,1.55 c -3.33,0 -3.89,0 -3.89,2.23 l 0,16.14 z"
             id="path18328" /><path
             style="fill:#000000;stroke-width:0"
             inkscape:connector-curvature="0"
             d="m 539.96,423.34 0,-13.36 c 0,-2.23 -0.55,-2.23 -3.89,-2.23 l 0,-1.55 c 1.75,0.05 4.28,0.16 5.63,0.16 1.29,0 3.89,-0.11 5.57,-0.16 l 0,1.55 c -3.32,0 -3.87,0 -3.87,2.23 l 0,9.17 c 0,5.19 3.53,7.97 6.72,7.97 3.14,0 3.68,-2.69 3.68,-5.53 l 0,-11.61 c 0,-2.23 -0.54,-2.23 -3.89,-2.23 l 0,-1.55 c 1.75,0.05 4.3,0.16 5.64,0.16 1.3,0 3.88,-0.11 5.58,-0.16 l 0,1.55 c -2.59,0 -3.84,0 -3.89,1.5 l 0,9.51 c 0,4.28 0,5.83 -1.54,7.61 -0.69,0.86 -2.35,1.84 -5.22,1.84 -3.64,0 -5.99,-2.14 -7.38,-5.21 l 0,5.21 -7.03,-0.54 0,-1.55 c 3.48,0 3.89,-0.34 3.89,-2.78 z"
             id="path18330" /><path
             style="fill:#000000;stroke-width:0"
             inkscape:connector-curvature="0"
             d="m 578.79,409.98 0.02,-0.19 0.03,-0.18 0.04,-0.19 0.04,-0.18 0.05,-0.19 0.05,-0.18 0.06,-0.18 0.07,-0.18 0.08,-0.18 0.08,-0.17 0.09,-0.18 0.09,-0.16 0.1,-0.16 0.11,-0.16 0.11,-0.16 0.12,-0.14 0.13,-0.14 0.13,-0.14 0.14,-0.13 0.14,-0.12 0.15,-0.12 0.16,-0.1 0.16,-0.1 0.17,-0.09 0.18,-0.08 0.18,-0.07 0.19,-0.06 0.19,-0.05 0.2,-0.04 0.2,-0.03 0.21,-0.02 0.22,-0.01 c 1.03,0 4.08,0.71 4.08,4.74 l 0,2.78 -1.25,0 0,-2.78 c 0,-2.89 -1.24,-3.19 -1.8,-3.19 -1.64,0 -1.84,2.23 -1.84,2.48 l 0,9.97 c 0,2.1 0,4.03 -1.78,5.88 -1.96,1.93 -4.44,2.73 -6.83,2.73 -4.1,0 -7.53,-2.33 -7.53,-5.62 0,-1.49 1,-2.35 2.29,-2.35 1.39,0 2.3,1 2.3,2.3 0,0.59 -0.25,2.23 -2.55,2.3 1.35,1.73 3.78,2.28 5.38,2.28 2.45,0 5.28,-1.94 5.28,-6.38 l 0,-1.84 0,-1.05 0,-4.98 c 0,-4.74 -3.58,-6.42 -5.83,-6.42 -2.44,0 -4.48,1.75 -4.48,4.23 0,2.73 2.09,6.88 10.31,7.17 l 0,0 0,1.05 c -2.53,-0.14 -6.02,-0.3 -9.16,-1.8 -3.73,-1.69 -4.98,-4.28 -4.98,-6.47 0,-4.03 4.83,-5.28 7.97,-5.28 3.29,0 5.58,1.99 6.53,4.33 z"
             id="path18332" /><path
             style="fill:#000000;stroke-width:0"
             inkscape:connector-curvature="0"
             d="m 595.97,440.78 -7.18,-0.55 0,-1.55 c 3.49,0 3.89,-0.34 3.89,-2.79 l 0,-25.91 c 0,-2.23 -0.54,-2.23 -3.89,-2.23 l 0,-1.55 c 1.64,0.05 4.28,0.16 5.53,0.16 1.25,0 3.69,-0.11 5.53,-0.16 l 0,1.55 c -3.34,0 -3.88,0 -3.88,2.23 z"
             id="path18334" /></g>      </g>
    </g>
  </g>
</svg>
