<?xml version="1.0" encoding="UTF-8" standalone="no"?>
<!-- Created with Inkscape (http://www.inkscape.org/) -->

<svg
   xmlns:dc="http://purl.org/dc/elements/1.1/"
   xmlns:cc="http://creativecommons.org/ns#"
   xmlns:rdf="http://www.w3.org/1999/02/22-rdf-syntax-ns#"
   xmlns:svg="http://www.w3.org/2000/svg"
   xmlns="http://www.w3.org/2000/svg"
   xmlns:sodipodi="http://sodipodi.sourceforge.net/DTD/sodipodi-0.dtd"
   xmlns:inkscape="http://www.inkscape.org/namespaces/inkscape"
   width="210mm"
   height="297mm"
   viewBox="0 0 744.09448819 1052.3622047"
   id="svg2"
   version="1.1"
   inkscape:version="0.91 r13725"
   sodipodi:docname="TDelta_SpecificRange.svg">
  <sodipodi:namedview
     id="base"
     pagecolor="#ffffff"
     bordercolor="#666666"
     borderopacity="1.0"
     inkscape:pageopacity="0.0"
     inkscape:pageshadow="2"
     inkscape:zoom="0.98994949"
     inkscape:cx="395.95787"
     inkscape:cy="672.83961"
     inkscape:document-units="px"
     inkscape:current-layer="layer1"
     showgrid="false"
     inkscape:window-width="1536"
     inkscape:window-height="801"
     inkscape:window-x="-8"
     inkscape:window-y="-8"
     inkscape:window-maximized="1" />
  <defs
     id="defs4">
    <inkscape:path-effect
       effect="spiro"
       id="path-effect4169"
       is_visible="true" />
    <inkscape:path-effect
       effect="spiro"
       id="path-effect4165"
       is_visible="true" />
    <inkscape:path-effect
       effect="spiro"
       id="path-effect4169-6"
       is_visible="true" />
    <inkscape:path-effect
       effect="spiro"
       id="path-effect4169-6-7"
       is_visible="true" />
  </defs>
  <metadata
     id="metadata7">
    <rdf:RDF>
      <cc:Work
         rdf:about="">
        <dc:format>image/svg+xml</dc:format>
        <dc:type
           rdf:resource="http://purl.org/dc/dcmitype/StillImage" />
        <dc:title />
      </cc:Work>
    </rdf:RDF>
  </metadata>
  <g
     inkscape:label="Livello 1"
     inkscape:groupmode="layer"
     id="layer1">
    <path
       style="fill:none;fill-opacity:1;fill-rule:evenodd;stroke:#000000;stroke-width:2.4000001;stroke-linecap:round;stroke-linejoin:miter;stroke-miterlimit:4;stroke-dasharray:none;stroke-opacity:1"
       d="m 140,152.3622 0,491.42858 525.71429,0"
       id="path3336"
       inkscape:connector-curvature="0" />
    <path
       style="fill:#000000;fill-opacity:1;fill-rule:evenodd;stroke:#000000;stroke-width:1px;stroke-linecap:round;stroke-linejoin:round;stroke-opacity:1"
       d="M 135.78571,159.50507 140,140.50506 l 4.57143,19.00001 z"
       id="path4138"
       inkscape:connector-curvature="0"
       sodipodi:nodetypes="cccc" />
    <path
       style="fill:#000000;fill-opacity:1;fill-rule:evenodd;stroke:#000000;stroke-width:1px;stroke-linecap:round;stroke-linejoin:round;stroke-opacity:1"
       d="m 660.91016,639.14011 19.00001,4.21429 -19.00001,4.57143 z"
       id="path4138-6"
       inkscape:connector-curvature="0"
       sodipodi:nodetypes="cccc" />
    <g
       transform="matrix(0.7,0,0,0.7,-279.23781,-68.856013)"
       id="g4489">
      <path
         id="path4391"
         d="m 552.89036,303.17258 0.0106,-0.0531 0.0106,-0.0425 0.0106,-0.0532 0.0106,-0.0425 0.0106,-0.0425 0.0106,-0.0425 0.0106,-0.0425 0.0106,-0.0425 0.0213,-0.0744 0.0213,-0.0744 0.0213,-0.0744 0.0213,-0.0531 0.0213,-0.0638 0.0213,-0.0531 0.0213,-0.0532 0.0213,-0.0532 0.0213,-0.0425 0.0319,-0.0319 0.0213,-0.0425 0.0319,-0.0319 0.0213,-0.0319 0.0319,-0.0319 0.0425,-0.0213 0.0319,-0.0213 0.0425,-0.0213 0.0319,-0.0213 0.0425,-0.0106 0.0532,-0.0213 0.0425,-0.0106 0.0531,-0.0106 0.0531,-0.0106 0.0638,-0.0106 0.0638,-0.0106 0.0638,0 0.0744,-0.0106 0.0744,-0.0106 c 0.18071,-0.0319 1.47756,-0.0319 2.22166,-0.0319 2.25354,0 3.22086,0 4.13503,0.29764 1.67953,0.52086 1.74331,1.59449 1.74331,2.92323 0,0.58464 0,1.06299 -0.24449,2.99763 l -0.085,0.41457 c 0,0.36142 0.26575,0.54213 0.62717,0.54213 0.56339,0 0.63779,-0.32953 0.7122,-0.91418 l 0.99922,-7.06889 c 0,-0.5315 -0.44646,-0.5315 -1.11615,-0.5315 l -22.77992,0 c -0.91417,0 -0.99921,0 -1.25433,0.77598 l -2.33858,6.55867 c -0.0319,0.14881 -0.18071,0.48897 -0.18071,0.66968 0,0.14882 0.0638,0.51024 0.62717,0.51024 0.48897,0 0.55275,-0.18071 0.78661,-0.88229 2.13662,-5.92086 3.36969,-6.29291 9.00354,-6.29291 l 1.54134,0 c 1.11614,0 1.14803,0.0319 1.14803,0.37205 0,0.0319 0,0.2126 -0.14881,0.77598 l -4.88977,19.48465 c -0.32953,1.36063 -0.44645,1.7433 -4.32638,1.7433 -1.32874,0 -1.66889,0 -1.66889,0.80788 0,0.1063 0.0744,0.52086 0.63779,0.52086 1.0311,0 2.13662,-0.11693 3.16772,-0.11693 1.05236,0 2.15787,-0.0319 3.18897,-0.0319 1.05237,0 2.3067,0 3.3378,0.0319 0.99921,0.0531 2.11535,0.11693 3.10394,0.11693 0.29763,0 0.87165,0 0.87165,-0.8185 0,-0.51024 -0.38268,-0.51024 -1.53071,-0.51024 -0.70157,0 -1.44567,-0.0532 -2.14724,-0.085 -1.25433,-0.0957 -1.32874,-0.24448 -1.32874,-0.70157 0,-0.26575 0,-0.32953 0.13819,-0.83976 z"
         inkscape:connector-curvature="0"
         style="font-style:normal;font-variant:normal;font-weight:normal;font-stretch:normal;letter-spacing:normal;word-spacing:normal;text-anchor:start;fill:#000000;fill-opacity:1;fill-rule:evenodd;stroke:#000000;stroke-width:0;stroke-linecap:butt;stroke-linejoin:miter;stroke-miterlimit:10.43299961;stroke-dasharray:none;stroke-dashoffset:0;stroke-opacity:1" />
      <polyline
         id="polyline4393"
         points="462,418 490.92,418 490.92,420.04 462,420.04 "
         style="font-style:normal;font-variant:normal;font-weight:normal;font-stretch:normal;letter-spacing:normal;word-spacing:normal;text-anchor:start;fill:#000000;fill-opacity:1;fill-rule:nonzero;stroke:#000000;stroke-width:0;stroke-linecap:butt;stroke-linejoin:miter;stroke-miterlimit:10.43299961;stroke-dasharray:none;stroke-dashoffset:0;stroke-opacity:1"
         transform="matrix(1.0629921,0,0,-1.0629921,44.29116,778.15997)" />
      <path
         id="path4395"
         d="m 550.91319,348.49856 -0.51023,0.14882 -0.49961,0.15945 -0.48897,0.18071 -0.46772,0.19134 -0.45709,0.2126 -0.43582,0.23385 -0.43583,0.24449 -0.40394,0.25512 -0.3933,0.27638 -0.38268,0.27638 -0.36142,0.29763 -0.35079,0.30827 -0.32952,0.3189 -0.3189,0.32953 -0.29764,0.32953 -0.28701,0.35078 -0.26575,0.35079 -0.25511,0.36142 -0.23386,0.36141 -0.2126,0.36142 -0.20197,0.38268 -0.19134,0.37205 -0.17008,0.38267 -0.14881,0.37205 -0.12756,0.38268 -0.11693,0.38268 -0.0957,0.38267 -0.085,0.38268 -0.0638,0.38268 -0.0425,0.37204 -0.0319,0.37205 0,0.37205 c 0,3.92244 2.99764,6.47362 6.65433,6.47362 l 0.085,-1.04173 c -2.04095,0 -4.03937,-1.32874 -4.03937,-4.40079 0,-2.44488 1.41378,-8.85472 6.60118,-10.11968 l 0,0 c 1.02047,1.65826 2.34921,3.82677 2.34921,6.48425 0,3.04015 -1.80708,8.03622 -4.91102,8.03622 l -0.085,1.04173 c 4.48583,0 7.97244,-5.26181 7.97244,-10.66181 0,-3.60354 -1.92402,-5.70827 -3.07205,-6.97323 -1.38189,-1.54134 -4.1563,-4.58149 -4.1563,-6.29291 0,-0.48898 0.52087,-1.5626 2.05158,-1.5626 1.25433,0 2.28543,0.59528 3.10394,1.04173 0.32952,0.18071 1.65826,0.96732 2.22165,0.96732 0.88228,0 1.54134,-0.8185 1.54134,-1.56259 0,-0.91418 -0.47835,-0.99922 -2.46614,-1.39252 -0.45709,-0.085 -2.14725,-0.44646 -3.3378,-0.44646 -2.77441,0 -4.33701,1.62638 -4.33701,3.87992 0,1.96654 1.19055,4.22008 2.4874,6.44173 z"
         inkscape:connector-curvature="0"
         style="font-style:normal;font-variant:normal;font-weight:normal;font-stretch:normal;letter-spacing:normal;word-spacing:normal;text-anchor:start;fill:#000000;fill-opacity:1;fill-rule:evenodd;stroke:#000000;stroke-width:0;stroke-linecap:butt;stroke-linejoin:miter;stroke-miterlimit:10.43299961;stroke-dasharray:none;stroke-dashoffset:0;stroke-opacity:1" />
    </g>
    <path
       style="font-style:normal;font-variant:normal;font-weight:normal;font-stretch:normal;letter-spacing:normal;word-spacing:normal;text-anchor:start;fill:#000000;fill-opacity:1;fill-rule:evenodd;stroke:#000000;stroke-width:0;stroke-linecap:butt;stroke-linejoin:miter;stroke-miterlimit:10.43299961;stroke-dasharray:none;stroke-dashoffset:0;stroke-opacity:1"
       inkscape:connector-curvature="0"
       d="m 681.31673,665.91592 0.0239,-0.0953 0.0238,-0.0952 0.0178,-0.0893 0.0238,-0.0833 0.0238,-0.0833 0.0238,-0.0774 0.0298,-0.0714 0.0298,-0.0654 0.0298,-0.0655 0.0298,-0.0655 0.0358,-0.0536 0.0417,-0.0536 0.0417,-0.0536 0.0476,-0.0476 0.0536,-0.0417 0.0595,-0.0417 0.0655,-0.0358 0.0715,-0.0358 0.0774,-0.0298 0.0833,-0.0298 0.0893,-0.0238 0.0476,-0.0119 0.0536,-0.0119 0.0536,-0.0119 0.0536,-0.0119 0.0595,-0.006 0.0595,-0.0119 0.0595,-0.006 0.0654,-0.006 0.0655,-0.0119 0.0655,-0.006 0.0714,-0.006 0.0774,0 0.0774,-0.006 0.0774,-0.006 0.0833,-0.006 0.0833,0 0.0893,0 0.0893,-0.006 0.0952,0 0.0953,0 0.1012,0 0.10119,0 c 0.67862,0 0.94649,0 0.94649,-0.59528 0,-0.3274 -0.29764,-0.3274 -0.79766,-0.3274 l -3.91692,0 c -0.77386,0 -0.79767,0 -1.15483,0.56551 l -10.82212,16.89988 -2.32156,-16.77487 c -0.0893,-0.69052 -0.14883,-0.69052 -0.91673,-0.69052 l -4.06574,0 c -0.55956,0 -0.881,0 -0.881,0.56551 0,0.35717 0.25596,0.35717 0.85124,0.35717 0.39288,0 0.92267,0.0238 1.27389,0.0536 0.47622,0.0654 0.65481,0.14883 0.65481,0.47623 0,0.11905 -0.0298,0.2143 -0.11311,0.56551 l -3.76809,15.09618 c -0.29764,1.19055 -0.79768,2.13704 -3.20854,2.22039 -0.14882,0 -0.52979,0.0298 -0.52979,0.57146 0,0.25597 0.17858,0.35121 0.41669,0.35121 0.95244,0 1.98227,-0.0952 2.95852,-0.0952 1.01792,0 2.08346,0.0952 3.05971,0.0952 0.14882,0 0.5298,0 0.5298,-0.59527 0,-0.3274 -0.32145,-0.3274 -0.5298,-0.3274 -1.69058,-0.0238 -2.01798,-0.61909 -2.01798,-1.29771 0,-0.20834 0.0298,-0.35717 0.12501,-0.67861 l 4.02406,-16.16768 0.0358,0 2.54778,18.38806 c 0.0595,0.35121 0.0893,0.67861 0.44646,0.67861 0.3274,0 0.50598,-0.3274 0.6548,-0.52979 l 11.97695,-18.78095 0.0298,0 -4.23837,16.99512 c -0.29763,1.16079 -0.35716,1.39295 -2.70255,1.39295 -0.50003,0 -0.82743,0 -0.82743,0.57146 0,0.35121 0.35716,0.35121 0.44646,0.35121 0.82742,0 2.84542,-0.0952 3.6788,-0.0952 1.21436,0 2.48825,0.0952 3.70857,0.0952 0.17857,0 0.55955,0 0.55955,-0.59527 0,-0.3274 -0.27382,-0.3274 -0.82743,-0.3274 -1.10126,0 -1.92869,0 -1.92869,-0.5298 0,-0.11906 0,-0.17263 0.14882,-0.71433 z"
       id="path4401" />
    <g
       id="g4831">
      <path
         sodipodi:nodetypes="ccc"
         inkscape:connector-curvature="0"
         inkscape:original-d="M 220.5282,476.91951 C 369.52509,431.82718 367.55989,469.0347 460.63652,329.81816 485.2587,291.49373 538.20171,233.18296 602.43978,194.29573"
         inkscape:path-effect="#path-effect4169"
         id="path4167"
         d="m 220.5282,476.91951 c 85.77633,-38.71739 166.65597,-88.26796 240.10832,-147.10135 51.0964,-40.92687 98.6051,-86.33128 141.80326,-135.52243"
         style="fill:none;fill-rule:evenodd;stroke:#000000;stroke-width:1.29999995;stroke-linecap:butt;stroke-linejoin:miter;stroke-miterlimit:4;stroke-dasharray:none;stroke-opacity:1" />
      <path
         sodipodi:nodetypes="ccc"
         inkscape:connector-curvature="0"
         inkscape:original-d="M 237.33561,533.00495 C 386.31643,487.85952 384.36448,525.06774 477.3915,385.81805 502.00003,347.48484 554.92226,289.15522 619.14647,250.2451"
         inkscape:path-effect="#path-effect4169-6"
         id="path4167-5"
         d="M 237.33561,533.00495 C 323.09814,494.257 403.96012,444.67761 477.3915,385.81805 528.47332,344.87298 575.96583,299.45164 619.14647,250.2451"
         style="fill:none;fill-rule:evenodd;stroke:#000000;stroke-width:1.29999995;stroke-linecap:butt;stroke-linejoin:miter;stroke-miterlimit:4;stroke-dasharray:none;stroke-opacity:1" />
      <path
         sodipodi:nodetypes="ccc"
         inkscape:connector-curvature="0"
         inkscape:original-d="m 260.84174,589.90489 c 147.89703,-48.57841 146.806,-11.335 236.58814,-152.69861 23.71553,-38.89201 75.27478,-98.42981 138.58207,-138.81464"
         inkscape:path-effect="#path-effect4169-6-7"
         id="path4167-5-8"
         d="m 260.84174,589.90489 c 84.84358,-40.72077 164.53747,-92.15676 236.58814,-152.69861 50.12134,-42.11534 96.55083,-88.62275 138.58207,-138.81464"
         style="fill:none;fill-rule:evenodd;stroke:#000000;stroke-width:1.29999995;stroke-linecap:butt;stroke-linejoin:miter;stroke-miterlimit:4;stroke-dasharray:none;stroke-opacity:1" />
      <path
         inkscape:connector-curvature="0"
         id="path4207"
         d="M 373.27292,349.24741 497.47853,480.66446"
         style="fill:none;fill-rule:evenodd;stroke:#000000;stroke-width:0.53576434;stroke-linecap:butt;stroke-linejoin:miter;stroke-miterlimit:4;stroke-dasharray:none;stroke-opacity:1" />
      <path
         style="fill:#000000;fill-opacity:1;fill-rule:evenodd;stroke:#000000;stroke-width:0;stroke-linecap:round;stroke-linejoin:round;stroke-miterlimit:4;stroke-dasharray:none;stroke-opacity:1"
         d="m 493.51474,472.54599 5.2249,9.78304 -8.962,-6.38198 z"
         id="path4218"
         inkscape:connector-curvature="0"
         sodipodi:nodetypes="cccc"
         inkscape:transform-center-x="-0.35714234"
         inkscape:transform-center-y="2.191974e-005" />
      <g
         transform="matrix(0.512,0,0,0.512,352.28694,314.92102)"
         id="g4572">
        <g
           style="font-style:normal;font-variant:normal;font-weight:normal;font-stretch:normal;letter-spacing:normal;word-spacing:normal;text-anchor:start;fill:none;fill-opacity:1;fill-rule:evenodd;stroke:#000000;stroke-linecap:butt;stroke-linejoin:miter;stroke-miterlimit:10.43299961;stroke-dasharray:none;stroke-dashoffset:0;stroke-opacity:1"
           id="content"
           transform="matrix(1.0629921,0,0,-1.0629921,-186.02362,789.27165)"
           xml:space="preserve"
           stroke-miterlimit="10.433"
           font-style="normal"
           font-variant="normal"
           font-weight="normal"
           font-stretch="normal"
           font-size-adjust="none"
           letter-spacing="normal"
           word-spacing="normal"><path
             style="fill:#000000;stroke-width:0"
             inkscape:connector-curvature="0"
             d="m 468.68,427.96 -0.58,-0.15 -0.58,-0.18 -0.56,-0.21 -0.55,-0.24 -0.54,-0.26 -0.53,-0.28 -0.52,-0.31 -0.5,-0.33 -0.49,-0.35 -0.48,-0.38 -0.47,-0.39 -0.44,-0.41 -0.44,-0.42 -0.41,-0.45 -0.4,-0.46 -0.38,-0.47 -0.37,-0.49 -0.34,-0.5 -0.33,-0.51 -0.3,-0.52 -0.28,-0.53 -0.27,-0.53 -0.24,-0.55 -0.22,-0.55 -0.19,-0.56 -0.17,-0.56 -0.15,-0.57 -0.12,-0.56 -0.09,-0.57 -0.07,-0.57 -0.04,-0.57 -0.02,-0.57 c 0,-4.78 3.19,-8.35 7.88,-8.35 l 0,1.09 c -2.75,0 -4.78,2.09 -4.78,5.87 0,3.14 1.84,12.5 8.56,14.3 l 0,0 c 1.25,-2.28 2.73,-4.98 2.73,-8.56 0,-3.3 -1.89,-11.61 -6.51,-11.61 l 0,-1.09 c 5.83,0 9.95,7.81 9.95,14.68 0,4.55 -1.98,7.03 -3.69,9.27 -1.78,2.25 -4.71,5.98 -4.71,8.17 0,1.11 0.98,2.3 2.73,2.3 1.5,0 2.48,-0.64 3.53,-1.35 1,-0.59 2,-1.25 2.75,-1.25 1.24,0 1.99,1.21 1.99,2 0,1.1 -0.8,1.24 -2.6,1.64 -2.58,0.55 -3.28,0.55 -4.08,0.55 -3.89,0 -5.68,-2.14 -5.68,-5.12 0,-2.71 1.45,-5.49 3,-8.54 z"
             id="path4575" /><polygon
             style="fill:#000000;stroke-width:0"
             points="502.86,434.04 502.86,435.59 484.88,435.59 484.88,434.04 "
             id="polygon4577" /><path
             style="fill:#000000;stroke-width:0"
             inkscape:connector-curvature="0"
             d="m 499,424.84 -0.13,-0.01 -0.13,-0.01 -0.12,-0.02 -0.13,-0.03 -0.12,-0.03 -0.11,-0.04 -0.12,-0.04 -0.11,-0.04 -0.1,-0.05 -0.11,-0.06 -0.1,-0.06 -0.09,-0.06 -0.1,-0.07 -0.09,-0.07 -0.08,-0.07 -0.08,-0.08 -0.08,-0.08 -0.07,-0.08 -0.07,-0.09 -0.07,-0.08 -0.05,-0.09 -0.06,-0.1 -0.05,-0.09 -0.05,-0.1 -0.04,-0.09 -0.03,-0.1 -0.03,-0.1 -0.03,-0.1 -0.02,-0.1 -0.01,-0.11 -0.01,-0.1 0,-0.1 c 0,-0.7 0.44,-1.44 1.55,-1.44 1.09,0 2.28,0.85 2.28,2.78 0,2.25 -2.14,4.28 -5.92,4.28 -6.58,0 -8.43,-5.07 -8.43,-7.26 0,-3.89 3.69,-4.64 5.13,-4.94 2.59,-0.5 5.19,-1.05 5.19,-3.78 0,-1.3 -1.14,-5.48 -7.13,-5.48 -0.7,0 -4.53,0 -5.69,2.64 1.91,-0.25 3.14,1.25 3.14,2.64 0,1.14 -0.79,1.75 -1.84,1.75 -1.3,0 -2.78,-1.05 -2.78,-3.3 0,-2.84 2.84,-4.83 7.12,-4.83 8.07,0 10.02,6.03 10.02,8.27 0,1.79 -0.95,3.04 -1.55,3.64 -1.34,1.39 -2.79,1.64 -4.98,2.09 -1.8,0.39 -3.78,0.75 -3.78,2.99 0,1.45 1.19,4.48 5.58,4.48 1.23,0 3.73,-0.34 4.48,-2.28 z"
             id="path4579" /></g>      </g>
    </g>
  </g>
</svg>
