<!DOCTYPE svg PUBLIC "-//W3C//DTD SVG 1.1//EN" "http://www.w3.org/Graphics/SVG/1.1/DTD/svg11.dtd">
<svg xmlns="http://www.w3.org/2000/svg" xmlns:xlink="http://www.w3.org/1999/xlink" xmlns:jfreesvg="http://www.jfree.org/jfreesvg/svg" width="1152" height="768" text-rendering="auto" shape-rendering="auto">
<defs><clipPath id="_1972719721021440clip-0"><path d="M 0 0 L 1152 0 L 1152 768 L 0 768 L 0 0 Z "/></clipPath>
<clipPath id="_1972719721021440clip-1"><path d="M 384.5 345.5 L 384.5 1497.5 L -383.5 1497.5 L -383.5 345.5 L 384.5 345.5 Z "/></clipPath>
<clipPath id="_1972719721021440clip-2"><path d="M 84 35 L 84 695 L 1140 695 L 1140 35 Z "/></clipPath>
</defs>
<rect x="0" y="0" width="1152" height="768" style="fill: rgb(255,255,255); fill-opacity: 1.0" transform="matrix(1,0,0,1,0,0)" clip-path="url(#_1972719721021440clip-0)"/><g transform="matrix(1,0,0,1,0,0)"><text x="439" y="21.01" style="fill: rgb(0,0,0); fill-opacity: 1.0; font-family: Tahoma; font-size: 20px; font-weight: bold;" clip-path="url(#_1972719721021440clip-0)">Moment_Coefficient_Curve</text></g><rect x="489" y="746" width="174" height="21" style="fill: rgb(255,255,255); fill-opacity: 1.0" transform="matrix(1,0,0,1,0,0)" clip-path="url(#_1972719721021440clip-0)"/><g style="stroke-width: 3.0;stroke: rgb(0,0,0);stroke-opacity: 1.0;stroke-linecap: square;shape-rendering:geometricPrecision;; fill: none" transform="matrix(1,0,0,1,0,0)" clip-path="url(#_1972719721021440clip-0)"><path d="M 492 756.5 L 506 756.5"/></g><g transform="matrix(1,0,0,1,0,0)"><text x="510" y="761.01" style="fill: rgb(64,64,64); fill-opacity: 1.0; font-family: Tahoma; font-size: 12px;" clip-path="url(#_1972719721021440clip-0)"> Moment_Coefficient_Curve </text></g><rect x="84" y="35" width="1056" height="660" style="fill: rgb(255,255,255); fill-opacity: 0.0" transform="matrix(1,0,0,1,0,0)" clip-path="url(#_1972719721021440clip-0)"/><line x1="84" y1="699" x2="1140" y2="699" style="stroke-width: 0.5;stroke: rgb(128,128,128);stroke-opacity: 1.0;stroke-linecap: square;shape-rendering:crispEdges;" transform="matrix(1,0,0,1,0,0)" clip-path="url(#_1972719721021440clip-0)"/><g transform="matrix(1,0,0,1,0,0)"><text x="122.82" y="715.52" style="fill: rgb(64,64,64); fill-opacity: 1.0; font-family: Tahoma; font-size: 12px;" clip-path="url(#_1972719721021440clip-0)">-7</text></g><line x1="128.32" y1="701" x2="128.32" y2="699" style="stroke-width: 0.5;stroke: rgb(128,128,128);stroke-opacity: 1.0;stroke-linecap: square;shape-rendering:crispEdges;" transform="matrix(1,0,0,1,0,0)" clip-path="url(#_1972719721021440clip-0)"/><g transform="matrix(1,0,0,1,0,0)"><text x="169.64" y="715.52" style="fill: rgb(64,64,64); fill-opacity: 1.0; font-family: Tahoma; font-size: 12px;" clip-path="url(#_1972719721021440clip-0)">-6</text></g><line x1="175.14" y1="701" x2="175.14" y2="699" style="stroke-width: 0.5;stroke: rgb(128,128,128);stroke-opacity: 1.0;stroke-linecap: square;shape-rendering:crispEdges;" transform="matrix(1,0,0,1,0,0)" clip-path="url(#_1972719721021440clip-0)"/><g transform="matrix(1,0,0,1,0,0)"><text x="216.46" y="715.52" style="fill: rgb(64,64,64); fill-opacity: 1.0; font-family: Tahoma; font-size: 12px;" clip-path="url(#_1972719721021440clip-0)">-5</text></g><line x1="221.96" y1="701" x2="221.96" y2="699" style="stroke-width: 0.5;stroke: rgb(128,128,128);stroke-opacity: 1.0;stroke-linecap: square;shape-rendering:crispEdges;" transform="matrix(1,0,0,1,0,0)" clip-path="url(#_1972719721021440clip-0)"/><g transform="matrix(1,0,0,1,0,0)"><text x="263.28" y="715.52" style="fill: rgb(64,64,64); fill-opacity: 1.0; font-family: Tahoma; font-size: 12px;" clip-path="url(#_1972719721021440clip-0)">-4</text></g><line x1="268.78" y1="701" x2="268.78" y2="699" style="stroke-width: 0.5;stroke: rgb(128,128,128);stroke-opacity: 1.0;stroke-linecap: square;shape-rendering:crispEdges;" transform="matrix(1,0,0,1,0,0)" clip-path="url(#_1972719721021440clip-0)"/><g transform="matrix(1,0,0,1,0,0)"><text x="310.11" y="715.52" style="fill: rgb(64,64,64); fill-opacity: 1.0; font-family: Tahoma; font-size: 12px;" clip-path="url(#_1972719721021440clip-0)">-3</text></g><line x1="315.61" y1="701" x2="315.61" y2="699" style="stroke-width: 0.5;stroke: rgb(128,128,128);stroke-opacity: 1.0;stroke-linecap: square;shape-rendering:crispEdges;" transform="matrix(1,0,0,1,0,0)" clip-path="url(#_1972719721021440clip-0)"/><g transform="matrix(1,0,0,1,0,0)"><text x="356.93" y="715.52" style="fill: rgb(64,64,64); fill-opacity: 1.0; font-family: Tahoma; font-size: 12px;" clip-path="url(#_1972719721021440clip-0)">-2</text></g><line x1="362.43" y1="701" x2="362.43" y2="699" style="stroke-width: 0.5;stroke: rgb(128,128,128);stroke-opacity: 1.0;stroke-linecap: square;shape-rendering:crispEdges;" transform="matrix(1,0,0,1,0,0)" clip-path="url(#_1972719721021440clip-0)"/><g transform="matrix(1,0,0,1,0,0)"><text x="403.75" y="715.52" style="fill: rgb(64,64,64); fill-opacity: 1.0; font-family: Tahoma; font-size: 12px;" clip-path="url(#_1972719721021440clip-0)">-1</text></g><line x1="409.25" y1="701" x2="409.25" y2="699" style="stroke-width: 0.5;stroke: rgb(128,128,128);stroke-opacity: 1.0;stroke-linecap: square;shape-rendering:crispEdges;" transform="matrix(1,0,0,1,0,0)" clip-path="url(#_1972719721021440clip-0)"/><g transform="matrix(1,0,0,1,0,0)"><text x="452.57" y="715.52" style="fill: rgb(64,64,64); fill-opacity: 1.0; font-family: Tahoma; font-size: 12px;" clip-path="url(#_1972719721021440clip-0)">0</text></g><line x1="456.07" y1="701" x2="456.07" y2="699" style="stroke-width: 0.5;stroke: rgb(128,128,128);stroke-opacity: 1.0;stroke-linecap: square;shape-rendering:crispEdges;" transform="matrix(1,0,0,1,0,0)" clip-path="url(#_1972719721021440clip-0)"/><g transform="matrix(1,0,0,1,0,0)"><text x="499.4" y="715.52" style="fill: rgb(64,64,64); fill-opacity: 1.0; font-family: Tahoma; font-size: 12px;" clip-path="url(#_1972719721021440clip-0)">1</text></g><line x1="502.9" y1="701" x2="502.9" y2="699" style="stroke-width: 0.5;stroke: rgb(128,128,128);stroke-opacity: 1.0;stroke-linecap: square;shape-rendering:crispEdges;" transform="matrix(1,0,0,1,0,0)" clip-path="url(#_1972719721021440clip-0)"/><g transform="matrix(1,0,0,1,0,0)"><text x="546.22" y="715.52" style="fill: rgb(64,64,64); fill-opacity: 1.0; font-family: Tahoma; font-size: 12px;" clip-path="url(#_1972719721021440clip-0)">2</text></g><line x1="549.72" y1="701" x2="549.72" y2="699" style="stroke-width: 0.5;stroke: rgb(128,128,128);stroke-opacity: 1.0;stroke-linecap: square;shape-rendering:crispEdges;" transform="matrix(1,0,0,1,0,0)" clip-path="url(#_1972719721021440clip-0)"/><g transform="matrix(1,0,0,1,0,0)"><text x="593.04" y="715.52" style="fill: rgb(64,64,64); fill-opacity: 1.0; font-family: Tahoma; font-size: 12px;" clip-path="url(#_1972719721021440clip-0)">3</text></g><line x1="596.54" y1="701" x2="596.54" y2="699" style="stroke-width: 0.5;stroke: rgb(128,128,128);stroke-opacity: 1.0;stroke-linecap: square;shape-rendering:crispEdges;" transform="matrix(1,0,0,1,0,0)" clip-path="url(#_1972719721021440clip-0)"/><g transform="matrix(1,0,0,1,0,0)"><text x="639.86" y="715.52" style="fill: rgb(64,64,64); fill-opacity: 1.0; font-family: Tahoma; font-size: 12px;" clip-path="url(#_1972719721021440clip-0)">4</text></g><line x1="643.36" y1="701" x2="643.36" y2="699" style="stroke-width: 0.5;stroke: rgb(128,128,128);stroke-opacity: 1.0;stroke-linecap: square;shape-rendering:crispEdges;" transform="matrix(1,0,0,1,0,0)" clip-path="url(#_1972719721021440clip-0)"/><g transform="matrix(1,0,0,1,0,0)"><text x="686.68" y="715.52" style="fill: rgb(64,64,64); fill-opacity: 1.0; font-family: Tahoma; font-size: 12px;" clip-path="url(#_1972719721021440clip-0)">5</text></g><line x1="690.18" y1="701" x2="690.18" y2="699" style="stroke-width: 0.5;stroke: rgb(128,128,128);stroke-opacity: 1.0;stroke-linecap: square;shape-rendering:crispEdges;" transform="matrix(1,0,0,1,0,0)" clip-path="url(#_1972719721021440clip-0)"/><g transform="matrix(1,0,0,1,0,0)"><text x="733.51" y="715.52" style="fill: rgb(64,64,64); fill-opacity: 1.0; font-family: Tahoma; font-size: 12px;" clip-path="url(#_1972719721021440clip-0)">6</text></g><line x1="737.01" y1="701" x2="737.01" y2="699" style="stroke-width: 0.5;stroke: rgb(128,128,128);stroke-opacity: 1.0;stroke-linecap: square;shape-rendering:crispEdges;" transform="matrix(1,0,0,1,0,0)" clip-path="url(#_1972719721021440clip-0)"/><g transform="matrix(1,0,0,1,0,0)"><text x="780.33" y="715.52" style="fill: rgb(64,64,64); fill-opacity: 1.0; font-family: Tahoma; font-size: 12px;" clip-path="url(#_1972719721021440clip-0)">7</text></g><line x1="783.83" y1="701" x2="783.83" y2="699" style="stroke-width: 0.5;stroke: rgb(128,128,128);stroke-opacity: 1.0;stroke-linecap: square;shape-rendering:crispEdges;" transform="matrix(1,0,0,1,0,0)" clip-path="url(#_1972719721021440clip-0)"/><g transform="matrix(1,0,0,1,0,0)"><text x="827.15" y="715.52" style="fill: rgb(64,64,64); fill-opacity: 1.0; font-family: Tahoma; font-size: 12px;" clip-path="url(#_1972719721021440clip-0)">8</text></g><line x1="830.65" y1="701" x2="830.65" y2="699" style="stroke-width: 0.5;stroke: rgb(128,128,128);stroke-opacity: 1.0;stroke-linecap: square;shape-rendering:crispEdges;" transform="matrix(1,0,0,1,0,0)" clip-path="url(#_1972719721021440clip-0)"/><g transform="matrix(1,0,0,1,0,0)"><text x="873.97" y="715.52" style="fill: rgb(64,64,64); fill-opacity: 1.0; font-family: Tahoma; font-size: 12px;" clip-path="url(#_1972719721021440clip-0)">9</text></g><line x1="877.47" y1="701" x2="877.47" y2="699" style="stroke-width: 0.5;stroke: rgb(128,128,128);stroke-opacity: 1.0;stroke-linecap: square;shape-rendering:crispEdges;" transform="matrix(1,0,0,1,0,0)" clip-path="url(#_1972719721021440clip-0)"/><g transform="matrix(1,0,0,1,0,0)"><text x="917.8" y="715.52" style="fill: rgb(64,64,64); fill-opacity: 1.0; font-family: Tahoma; font-size: 12px;" clip-path="url(#_1972719721021440clip-0)">10</text></g><line x1="924.3" y1="701" x2="924.3" y2="699" style="stroke-width: 0.5;stroke: rgb(128,128,128);stroke-opacity: 1.0;stroke-linecap: square;shape-rendering:crispEdges;" transform="matrix(1,0,0,1,0,0)" clip-path="url(#_1972719721021440clip-0)"/><g transform="matrix(1,0,0,1,0,0)"><text x="964.62" y="715.52" style="fill: rgb(64,64,64); fill-opacity: 1.0; font-family: Tahoma; font-size: 12px;" clip-path="url(#_1972719721021440clip-0)">11</text></g><line x1="971.12" y1="701" x2="971.12" y2="699" style="stroke-width: 0.5;stroke: rgb(128,128,128);stroke-opacity: 1.0;stroke-linecap: square;shape-rendering:crispEdges;" transform="matrix(1,0,0,1,0,0)" clip-path="url(#_1972719721021440clip-0)"/><g transform="matrix(1,0,0,1,0,0)"><text x="1011.44" y="715.52" style="fill: rgb(64,64,64); fill-opacity: 1.0; font-family: Tahoma; font-size: 12px;" clip-path="url(#_1972719721021440clip-0)">12</text></g><line x1="1017.94" y1="701" x2="1017.94" y2="699" style="stroke-width: 0.5;stroke: rgb(128,128,128);stroke-opacity: 1.0;stroke-linecap: square;shape-rendering:crispEdges;" transform="matrix(1,0,0,1,0,0)" clip-path="url(#_1972719721021440clip-0)"/><g transform="matrix(1,0,0,1,0,0)"><text x="1058.26" y="715.52" style="fill: rgb(64,64,64); fill-opacity: 1.0; font-family: Tahoma; font-size: 12px;" clip-path="url(#_1972719721021440clip-0)">13</text></g><line x1="1064.76" y1="701" x2="1064.76" y2="699" style="stroke-width: 0.5;stroke: rgb(128,128,128);stroke-opacity: 1.0;stroke-linecap: square;shape-rendering:crispEdges;" transform="matrix(1,0,0,1,0,0)" clip-path="url(#_1972719721021440clip-0)"/><g transform="matrix(1,0,0,1,0,0)"><text x="1105.08" y="715.52" style="fill: rgb(64,64,64); fill-opacity: 1.0; font-family: Tahoma; font-size: 12px;" clip-path="url(#_1972719721021440clip-0)">14</text></g><line x1="1111.58" y1="701" x2="1111.58" y2="699" style="stroke-width: 0.5;stroke: rgb(128,128,128);stroke-opacity: 1.0;stroke-linecap: square;shape-rendering:crispEdges;" transform="matrix(1,0,0,1,0,0)" clip-path="url(#_1972719721021440clip-0)"/><g transform="matrix(1,0,0,1,0,0)"><text x="562.5" y="734.59" style="fill: rgb(64,64,64); fill-opacity: 1.0; font-family: Tahoma; font-size: 14px; font-weight: bold;" clip-path="url(#_1972719721021440clip-0)">alpha_h (deg)</text></g><line x1="80" y1="35" x2="80" y2="695" style="stroke-width: 0.5;stroke: rgb(128,128,128);stroke-opacity: 1.0;stroke-linecap: square;shape-rendering:crispEdges;" transform="matrix(1,0,0,1,0,0)" clip-path="url(#_1972719721021440clip-0)"/><g transform="matrix(1,0,0,1,0,0)"><text x="33" y="688.01" style="fill: rgb(64,64,64); fill-opacity: 1.0; font-family: Tahoma; font-size: 12px;" clip-path="url(#_1972719721021440clip-0)">-0,0040</text></g><line x1="78" y1="682.99" x2="80" y2="682.99" style="stroke-width: 0.5;stroke: rgb(128,128,128);stroke-opacity: 1.0;stroke-linecap: square;shape-rendering:crispEdges;" transform="matrix(1,0,0,1,0,0)" clip-path="url(#_1972719721021440clip-0)"/><g transform="matrix(1,0,0,1,0,0)"><text x="33" y="660.44" style="fill: rgb(64,64,64); fill-opacity: 1.0; font-family: Tahoma; font-size: 12px;" clip-path="url(#_1972719721021440clip-0)">-0,0035</text></g><line x1="78" y1="655.42" x2="80" y2="655.42" style="stroke-width: 0.5;stroke: rgb(128,128,128);stroke-opacity: 1.0;stroke-linecap: square;shape-rendering:crispEdges;" transform="matrix(1,0,0,1,0,0)" clip-path="url(#_1972719721021440clip-0)"/><g transform="matrix(1,0,0,1,0,0)"><text x="33" y="632.87" style="fill: rgb(64,64,64); fill-opacity: 1.0; font-family: Tahoma; font-size: 12px;" clip-path="url(#_1972719721021440clip-0)">-0,0030</text></g><line x1="78" y1="627.85" x2="80" y2="627.85" style="stroke-width: 0.5;stroke: rgb(128,128,128);stroke-opacity: 1.0;stroke-linecap: square;shape-rendering:crispEdges;" transform="matrix(1,0,0,1,0,0)" clip-path="url(#_1972719721021440clip-0)"/><g transform="matrix(1,0,0,1,0,0)"><text x="33" y="605.31" style="fill: rgb(64,64,64); fill-opacity: 1.0; font-family: Tahoma; font-size: 12px;" clip-path="url(#_1972719721021440clip-0)">-0,0025</text></g><line x1="78" y1="600.29" x2="80" y2="600.29" style="stroke-width: 0.5;stroke: rgb(128,128,128);stroke-opacity: 1.0;stroke-linecap: square;shape-rendering:crispEdges;" transform="matrix(1,0,0,1,0,0)" clip-path="url(#_1972719721021440clip-0)"/><g transform="matrix(1,0,0,1,0,0)"><text x="33" y="577.74" style="fill: rgb(64,64,64); fill-opacity: 1.0; font-family: Tahoma; font-size: 12px;" clip-path="url(#_1972719721021440clip-0)">-0,0020</text></g><line x1="78" y1="572.72" x2="80" y2="572.72" style="stroke-width: 0.5;stroke: rgb(128,128,128);stroke-opacity: 1.0;stroke-linecap: square;shape-rendering:crispEdges;" transform="matrix(1,0,0,1,0,0)" clip-path="url(#_1972719721021440clip-0)"/><g transform="matrix(1,0,0,1,0,0)"><text x="33" y="550.18" style="fill: rgb(64,64,64); fill-opacity: 1.0; font-family: Tahoma; font-size: 12px;" clip-path="url(#_1972719721021440clip-0)">-0,0015</text></g><line x1="78" y1="545.15" x2="80" y2="545.15" style="stroke-width: 0.5;stroke: rgb(128,128,128);stroke-opacity: 1.0;stroke-linecap: square;shape-rendering:crispEdges;" transform="matrix(1,0,0,1,0,0)" clip-path="url(#_1972719721021440clip-0)"/><g transform="matrix(1,0,0,1,0,0)"><text x="33" y="522.61" style="fill: rgb(64,64,64); fill-opacity: 1.0; font-family: Tahoma; font-size: 12px;" clip-path="url(#_1972719721021440clip-0)">-0,0010</text></g><line x1="78" y1="517.59" x2="80" y2="517.59" style="stroke-width: 0.5;stroke: rgb(128,128,128);stroke-opacity: 1.0;stroke-linecap: square;shape-rendering:crispEdges;" transform="matrix(1,0,0,1,0,0)" clip-path="url(#_1972719721021440clip-0)"/><g transform="matrix(1,0,0,1,0,0)"><text x="33" y="495.04" style="fill: rgb(64,64,64); fill-opacity: 1.0; font-family: Tahoma; font-size: 12px;" clip-path="url(#_1972719721021440clip-0)">-0,0005</text></g><line x1="78" y1="490.02" x2="80" y2="490.02" style="stroke-width: 0.5;stroke: rgb(128,128,128);stroke-opacity: 1.0;stroke-linecap: square;shape-rendering:crispEdges;" transform="matrix(1,0,0,1,0,0)" clip-path="url(#_1972719721021440clip-0)"/><g transform="matrix(1,0,0,1,0,0)"><text x="38" y="467.48" style="fill: rgb(64,64,64); fill-opacity: 1.0; font-family: Tahoma; font-size: 12px;" clip-path="url(#_1972719721021440clip-0)">0,0000</text></g><line x1="78" y1="462.45" x2="80" y2="462.45" style="stroke-width: 0.5;stroke: rgb(128,128,128);stroke-opacity: 1.0;stroke-linecap: square;shape-rendering:crispEdges;" transform="matrix(1,0,0,1,0,0)" clip-path="url(#_1972719721021440clip-0)"/><g transform="matrix(1,0,0,1,0,0)"><text x="38" y="439.91" style="fill: rgb(64,64,64); fill-opacity: 1.0; font-family: Tahoma; font-size: 12px;" clip-path="url(#_1972719721021440clip-0)">0,0005</text></g><line x1="78" y1="434.89" x2="80" y2="434.89" style="stroke-width: 0.5;stroke: rgb(128,128,128);stroke-opacity: 1.0;stroke-linecap: square;shape-rendering:crispEdges;" transform="matrix(1,0,0,1,0,0)" clip-path="url(#_1972719721021440clip-0)"/><g transform="matrix(1,0,0,1,0,0)"><text x="38" y="412.34" style="fill: rgb(64,64,64); fill-opacity: 1.0; font-family: Tahoma; font-size: 12px;" clip-path="url(#_1972719721021440clip-0)">0,0010</text></g><line x1="78" y1="407.32" x2="80" y2="407.32" style="stroke-width: 0.5;stroke: rgb(128,128,128);stroke-opacity: 1.0;stroke-linecap: square;shape-rendering:crispEdges;" transform="matrix(1,0,0,1,0,0)" clip-path="url(#_1972719721021440clip-0)"/><g transform="matrix(1,0,0,1,0,0)"><text x="38" y="384.78" style="fill: rgb(64,64,64); fill-opacity: 1.0; font-family: Tahoma; font-size: 12px;" clip-path="url(#_1972719721021440clip-0)">0,0015</text></g><line x1="78" y1="379.76" x2="80" y2="379.76" style="stroke-width: 0.5;stroke: rgb(128,128,128);stroke-opacity: 1.0;stroke-linecap: square;shape-rendering:crispEdges;" transform="matrix(1,0,0,1,0,0)" clip-path="url(#_1972719721021440clip-0)"/><g transform="matrix(1,0,0,1,0,0)"><text x="38" y="357.21" style="fill: rgb(64,64,64); fill-opacity: 1.0; font-family: Tahoma; font-size: 12px;" clip-path="url(#_1972719721021440clip-0)">0,0020</text></g><line x1="78" y1="352.19" x2="80" y2="352.19" style="stroke-width: 0.5;stroke: rgb(128,128,128);stroke-opacity: 1.0;stroke-linecap: square;shape-rendering:crispEdges;" transform="matrix(1,0,0,1,0,0)" clip-path="url(#_1972719721021440clip-0)"/><g transform="matrix(1,0,0,1,0,0)"><text x="38" y="329.64" style="fill: rgb(64,64,64); fill-opacity: 1.0; font-family: Tahoma; font-size: 12px;" clip-path="url(#_1972719721021440clip-0)">0,0025</text></g><line x1="78" y1="324.62" x2="80" y2="324.62" style="stroke-width: 0.5;stroke: rgb(128,128,128);stroke-opacity: 1.0;stroke-linecap: square;shape-rendering:crispEdges;" transform="matrix(1,0,0,1,0,0)" clip-path="url(#_1972719721021440clip-0)"/><g transform="matrix(1,0,0,1,0,0)"><text x="38" y="302.08" style="fill: rgb(64,64,64); fill-opacity: 1.0; font-family: Tahoma; font-size: 12px;" clip-path="url(#_1972719721021440clip-0)">0,0030</text></g><line x1="78" y1="297.06" x2="80" y2="297.06" style="stroke-width: 0.5;stroke: rgb(128,128,128);stroke-opacity: 1.0;stroke-linecap: square;shape-rendering:crispEdges;" transform="matrix(1,0,0,1,0,0)" clip-path="url(#_1972719721021440clip-0)"/><g transform="matrix(1,0,0,1,0,0)"><text x="38" y="274.51" style="fill: rgb(64,64,64); fill-opacity: 1.0; font-family: Tahoma; font-size: 12px;" clip-path="url(#_1972719721021440clip-0)">0,0035</text></g><line x1="78" y1="269.49" x2="80" y2="269.49" style="stroke-width: 0.5;stroke: rgb(128,128,128);stroke-opacity: 1.0;stroke-linecap: square;shape-rendering:crispEdges;" transform="matrix(1,0,0,1,0,0)" clip-path="url(#_1972719721021440clip-0)"/><g transform="matrix(1,0,0,1,0,0)"><text x="38" y="246.94" style="fill: rgb(64,64,64); fill-opacity: 1.0; font-family: Tahoma; font-size: 12px;" clip-path="url(#_1972719721021440clip-0)">0,0040</text></g><line x1="78" y1="241.92" x2="80" y2="241.92" style="stroke-width: 0.5;stroke: rgb(128,128,128);stroke-opacity: 1.0;stroke-linecap: square;shape-rendering:crispEdges;" transform="matrix(1,0,0,1,0,0)" clip-path="url(#_1972719721021440clip-0)"/><g transform="matrix(1,0,0,1,0,0)"><text x="38" y="219.38" style="fill: rgb(64,64,64); fill-opacity: 1.0; font-family: Tahoma; font-size: 12px;" clip-path="url(#_1972719721021440clip-0)">0,0045</text></g><line x1="78" y1="214.36" x2="80" y2="214.36" style="stroke-width: 0.5;stroke: rgb(128,128,128);stroke-opacity: 1.0;stroke-linecap: square;shape-rendering:crispEdges;" transform="matrix(1,0,0,1,0,0)" clip-path="url(#_1972719721021440clip-0)"/><g transform="matrix(1,0,0,1,0,0)"><text x="38" y="191.81" style="fill: rgb(64,64,64); fill-opacity: 1.0; font-family: Tahoma; font-size: 12px;" clip-path="url(#_1972719721021440clip-0)">0,0050</text></g><line x1="78" y1="186.79" x2="80" y2="186.79" style="stroke-width: 0.5;stroke: rgb(128,128,128);stroke-opacity: 1.0;stroke-linecap: square;shape-rendering:crispEdges;" transform="matrix(1,0,0,1,0,0)" clip-path="url(#_1972719721021440clip-0)"/><g transform="matrix(1,0,0,1,0,0)"><text x="38" y="164.25" style="fill: rgb(64,64,64); fill-opacity: 1.0; font-family: Tahoma; font-size: 12px;" clip-path="url(#_1972719721021440clip-0)">0,0055</text></g><line x1="78" y1="159.22" x2="80" y2="159.22" style="stroke-width: 0.5;stroke: rgb(128,128,128);stroke-opacity: 1.0;stroke-linecap: square;shape-rendering:crispEdges;" transform="matrix(1,0,0,1,0,0)" clip-path="url(#_1972719721021440clip-0)"/><g transform="matrix(1,0,0,1,0,0)"><text x="38" y="136.68" style="fill: rgb(64,64,64); fill-opacity: 1.0; font-family: Tahoma; font-size: 12px;" clip-path="url(#_1972719721021440clip-0)">0,0060</text></g><line x1="78" y1="131.66" x2="80" y2="131.66" style="stroke-width: 0.5;stroke: rgb(128,128,128);stroke-opacity: 1.0;stroke-linecap: square;shape-rendering:crispEdges;" transform="matrix(1,0,0,1,0,0)" clip-path="url(#_1972719721021440clip-0)"/><g transform="matrix(1,0,0,1,0,0)"><text x="38" y="109.11" style="fill: rgb(64,64,64); fill-opacity: 1.0; font-family: Tahoma; font-size: 12px;" clip-path="url(#_1972719721021440clip-0)">0,0065</text></g><line x1="78" y1="104.09" x2="80" y2="104.09" style="stroke-width: 0.5;stroke: rgb(128,128,128);stroke-opacity: 1.0;stroke-linecap: square;shape-rendering:crispEdges;" transform="matrix(1,0,0,1,0,0)" clip-path="url(#_1972719721021440clip-0)"/><g transform="matrix(1,0,0,1,0,0)"><text x="38" y="81.55" style="fill: rgb(64,64,64); fill-opacity: 1.0; font-family: Tahoma; font-size: 12px;" clip-path="url(#_1972719721021440clip-0)">0,0070</text></g><line x1="78" y1="76.52" x2="80" y2="76.52" style="stroke-width: 0.5;stroke: rgb(128,128,128);stroke-opacity: 1.0;stroke-linecap: square;shape-rendering:crispEdges;" transform="matrix(1,0,0,1,0,0)" clip-path="url(#_1972719721021440clip-0)"/><g transform="matrix(1,0,0,1,0,0)"><text x="38" y="53.98" style="fill: rgb(64,64,64); fill-opacity: 1.0; font-family: Tahoma; font-size: 12px;" clip-path="url(#_1972719721021440clip-0)">0,0075</text></g><line x1="78" y1="48.96" x2="80" y2="48.96" style="stroke-width: 0.5;stroke: rgb(128,128,128);stroke-opacity: 1.0;stroke-linecap: square;shape-rendering:crispEdges;" transform="matrix(1,0,0,1,0,0)" clip-path="url(#_1972719721021440clip-0)"/><g style="fill: rgb(64,64,64); fill-opacity: 1.0; stroke: none" transform="matrix(0,-1,1,0,-345.5,384.5)" clip-path="url(#_1972719721021440clip-1)"><path d="M 11.94 370.81 Q 9.66 370.81 8.3 369.42 Q 6.95 368.03 6.95 365.53 Q 6.95 363.11 8.3 361.67 Q 9.66 360.23 11.95 360.23 Q 12.56 360.23 13.05 360.3 Q 13.53 360.37 13.97 360.48 Q 14.33 360.59 14.73 360.77 Q 15.14 360.95 15.39 361.08 L 15.39 363.5 L 15.14 363.5 Q 14.95 363.34 14.67 363.12 Q 14.39 362.89 14.03 362.67 Q 13.67 362.45 13.25 362.3 Q 12.83 362.14 12.36 362.14 Q 11.81 362.14 11.34 362.31 Q 10.88 362.48 10.47 362.92 Q 10.08 363.31 9.84 363.98 Q 9.59 364.64 9.59 365.53 Q 9.59 366.48 9.85 367.13 Q 10.11 367.78 10.52 368.17 Q 10.91 368.56 11.4 368.73 Q 11.89 368.91 12.38 368.91 Q 12.88 368.91 13.34 368.73 Q 13.8 368.56 14.11 368.36 Q 14.45 368.14 14.71 367.92 Q 14.97 367.7 15.16 367.55 L 15.39 367.55 L 15.39 369.94 Q 15.11 370.06 14.74 370.23 Q 14.38 370.39 13.98 370.51 Q 13.5 370.66 13.09 370.73 Q 12.67 370.81 11.94 370.81 Z  M 27.3 370.61 L 24.75 370.61 L 24.75 363.86 L 22.91 368.22 L 21.16 368.22 L 19.3 363.86 L 19.3 370.61 L 16.89 370.61 L 16.89 360.44 L 19.84 360.44 L 22.09 365.45 L 24.34 360.44 L 27.3 360.44 L 27.3 370.61 Z "/></g><line x1="128.32" y1="35" x2="128.32" y2="695" style="stroke-width: 0.5;stroke: rgb(192,192,192);stroke-opacity: 1.0;stroke-linejoin: bevel;stroke-dasharray: 2.0, 2.0;shape-rendering:crispEdges;" transform="matrix(1,0,0,1,0,0)" clip-path="url(#_1972719721021440clip-2)"/><line x1="175.14" y1="35" x2="175.14" y2="695" style="stroke-width: 0.5;stroke: rgb(192,192,192);stroke-opacity: 1.0;stroke-linejoin: bevel;stroke-dasharray: 2.0, 2.0;shape-rendering:crispEdges;" transform="matrix(1,0,0,1,0,0)" clip-path="url(#_1972719721021440clip-2)"/><line x1="221.96" y1="35" x2="221.96" y2="695" style="stroke-width: 0.5;stroke: rgb(192,192,192);stroke-opacity: 1.0;stroke-linejoin: bevel;stroke-dasharray: 2.0, 2.0;shape-rendering:crispEdges;" transform="matrix(1,0,0,1,0,0)" clip-path="url(#_1972719721021440clip-2)"/><line x1="268.78" y1="35" x2="268.78" y2="695" style="stroke-width: 0.5;stroke: rgb(192,192,192);stroke-opacity: 1.0;stroke-linejoin: bevel;stroke-dasharray: 2.0, 2.0;shape-rendering:crispEdges;" transform="matrix(1,0,0,1,0,0)" clip-path="url(#_1972719721021440clip-2)"/><line x1="315.61" y1="35" x2="315.61" y2="695" style="stroke-width: 0.5;stroke: rgb(192,192,192);stroke-opacity: 1.0;stroke-linejoin: bevel;stroke-dasharray: 2.0, 2.0;shape-rendering:crispEdges;" transform="matrix(1,0,0,1,0,0)" clip-path="url(#_1972719721021440clip-2)"/><line x1="362.43" y1="35" x2="362.43" y2="695" style="stroke-width: 0.5;stroke: rgb(192,192,192);stroke-opacity: 1.0;stroke-linejoin: bevel;stroke-dasharray: 2.0, 2.0;shape-rendering:crispEdges;" transform="matrix(1,0,0,1,0,0)" clip-path="url(#_1972719721021440clip-2)"/><line x1="409.25" y1="35" x2="409.25" y2="695" style="stroke-width: 0.5;stroke: rgb(192,192,192);stroke-opacity: 1.0;stroke-linejoin: bevel;stroke-dasharray: 2.0, 2.0;shape-rendering:crispEdges;" transform="matrix(1,0,0,1,0,0)" clip-path="url(#_1972719721021440clip-2)"/><line x1="456.07" y1="35" x2="456.07" y2="695" style="stroke-width: 0.5;stroke: rgb(192,192,192);stroke-opacity: 1.0;stroke-linejoin: bevel;stroke-dasharray: 2.0, 2.0;shape-rendering:crispEdges;" transform="matrix(1,0,0,1,0,0)" clip-path="url(#_1972719721021440clip-2)"/><line x1="502.9" y1="35" x2="502.9" y2="695" style="stroke-width: 0.5;stroke: rgb(192,192,192);stroke-opacity: 1.0;stroke-linejoin: bevel;stroke-dasharray: 2.0, 2.0;shape-rendering:crispEdges;" transform="matrix(1,0,0,1,0,0)" clip-path="url(#_1972719721021440clip-2)"/><line x1="549.72" y1="35" x2="549.72" y2="695" style="stroke-width: 0.5;stroke: rgb(192,192,192);stroke-opacity: 1.0;stroke-linejoin: bevel;stroke-dasharray: 2.0, 2.0;shape-rendering:crispEdges;" transform="matrix(1,0,0,1,0,0)" clip-path="url(#_1972719721021440clip-2)"/><line x1="596.54" y1="35" x2="596.54" y2="695" style="stroke-width: 0.5;stroke: rgb(192,192,192);stroke-opacity: 1.0;stroke-linejoin: bevel;stroke-dasharray: 2.0, 2.0;shape-rendering:crispEdges;" transform="matrix(1,0,0,1,0,0)" clip-path="url(#_1972719721021440clip-2)"/><line x1="643.36" y1="35" x2="643.36" y2="695" style="stroke-width: 0.5;stroke: rgb(192,192,192);stroke-opacity: 1.0;stroke-linejoin: bevel;stroke-dasharray: 2.0, 2.0;shape-rendering:crispEdges;" transform="matrix(1,0,0,1,0,0)" clip-path="url(#_1972719721021440clip-2)"/><line x1="690.18" y1="35" x2="690.18" y2="695" style="stroke-width: 0.5;stroke: rgb(192,192,192);stroke-opacity: 1.0;stroke-linejoin: bevel;stroke-dasharray: 2.0, 2.0;shape-rendering:crispEdges;" transform="matrix(1,0,0,1,0,0)" clip-path="url(#_1972719721021440clip-2)"/><line x1="737.01" y1="35" x2="737.01" y2="695" style="stroke-width: 0.5;stroke: rgb(192,192,192);stroke-opacity: 1.0;stroke-linejoin: bevel;stroke-dasharray: 2.0, 2.0;shape-rendering:crispEdges;" transform="matrix(1,0,0,1,0,0)" clip-path="url(#_1972719721021440clip-2)"/><line x1="783.83" y1="35" x2="783.83" y2="695" style="stroke-width: 0.5;stroke: rgb(192,192,192);stroke-opacity: 1.0;stroke-linejoin: bevel;stroke-dasharray: 2.0, 2.0;shape-rendering:crispEdges;" transform="matrix(1,0,0,1,0,0)" clip-path="url(#_1972719721021440clip-2)"/><line x1="830.65" y1="35" x2="830.65" y2="695" style="stroke-width: 0.5;stroke: rgb(192,192,192);stroke-opacity: 1.0;stroke-linejoin: bevel;stroke-dasharray: 2.0, 2.0;shape-rendering:crispEdges;" transform="matrix(1,0,0,1,0,0)" clip-path="url(#_1972719721021440clip-2)"/><line x1="877.47" y1="35" x2="877.47" y2="695" style="stroke-width: 0.5;stroke: rgb(192,192,192);stroke-opacity: 1.0;stroke-linejoin: bevel;stroke-dasharray: 2.0, 2.0;shape-rendering:crispEdges;" transform="matrix(1,0,0,1,0,0)" clip-path="url(#_1972719721021440clip-2)"/><line x1="924.3" y1="35" x2="924.3" y2="695" style="stroke-width: 0.5;stroke: rgb(192,192,192);stroke-opacity: 1.0;stroke-linejoin: bevel;stroke-dasharray: 2.0, 2.0;shape-rendering:crispEdges;" transform="matrix(1,0,0,1,0,0)" clip-path="url(#_1972719721021440clip-2)"/><line x1="971.12" y1="35" x2="971.12" y2="695" style="stroke-width: 0.5;stroke: rgb(192,192,192);stroke-opacity: 1.0;stroke-linejoin: bevel;stroke-dasharray: 2.0, 2.0;shape-rendering:crispEdges;" transform="matrix(1,0,0,1,0,0)" clip-path="url(#_1972719721021440clip-2)"/><line x1="1017.94" y1="35" x2="1017.94" y2="695" style="stroke-width: 0.5;stroke: rgb(192,192,192);stroke-opacity: 1.0;stroke-linejoin: bevel;stroke-dasharray: 2.0, 2.0;shape-rendering:crispEdges;" transform="matrix(1,0,0,1,0,0)" clip-path="url(#_1972719721021440clip-2)"/><line x1="1064.76" y1="35" x2="1064.76" y2="695" style="stroke-width: 0.5;stroke: rgb(192,192,192);stroke-opacity: 1.0;stroke-linejoin: bevel;stroke-dasharray: 2.0, 2.0;shape-rendering:crispEdges;" transform="matrix(1,0,0,1,0,0)" clip-path="url(#_1972719721021440clip-2)"/><line x1="1111.58" y1="35" x2="1111.58" y2="695" style="stroke-width: 0.5;stroke: rgb(192,192,192);stroke-opacity: 1.0;stroke-linejoin: bevel;stroke-dasharray: 2.0, 2.0;shape-rendering:crispEdges;" transform="matrix(1,0,0,1,0,0)" clip-path="url(#_1972719721021440clip-2)"/><line x1="84" y1="682.99" x2="1140" y2="682.99" style="stroke-width: 0.5;stroke: rgb(192,192,192);stroke-opacity: 1.0;stroke-linejoin: bevel;stroke-dasharray: 2.0, 2.0;shape-rendering:crispEdges;" transform="matrix(1,0,0,1,0,0)" clip-path="url(#_1972719721021440clip-2)"/><line x1="84" y1="655.42" x2="1140" y2="655.42" style="stroke-width: 0.5;stroke: rgb(192,192,192);stroke-opacity: 1.0;stroke-linejoin: bevel;stroke-dasharray: 2.0, 2.0;shape-rendering:crispEdges;" transform="matrix(1,0,0,1,0,0)" clip-path="url(#_1972719721021440clip-2)"/><line x1="84" y1="627.85" x2="1140" y2="627.85" style="stroke-width: 0.5;stroke: rgb(192,192,192);stroke-opacity: 1.0;stroke-linejoin: bevel;stroke-dasharray: 2.0, 2.0;shape-rendering:crispEdges;" transform="matrix(1,0,0,1,0,0)" clip-path="url(#_1972719721021440clip-2)"/><line x1="84" y1="600.29" x2="1140" y2="600.29" style="stroke-width: 0.5;stroke: rgb(192,192,192);stroke-opacity: 1.0;stroke-linejoin: bevel;stroke-dasharray: 2.0, 2.0;shape-rendering:crispEdges;" transform="matrix(1,0,0,1,0,0)" clip-path="url(#_1972719721021440clip-2)"/><line x1="84" y1="572.72" x2="1140" y2="572.72" style="stroke-width: 0.5;stroke: rgb(192,192,192);stroke-opacity: 1.0;stroke-linejoin: bevel;stroke-dasharray: 2.0, 2.0;shape-rendering:crispEdges;" transform="matrix(1,0,0,1,0,0)" clip-path="url(#_1972719721021440clip-2)"/><line x1="84" y1="545.15" x2="1140" y2="545.15" style="stroke-width: 0.5;stroke: rgb(192,192,192);stroke-opacity: 1.0;stroke-linejoin: bevel;stroke-dasharray: 2.0, 2.0;shape-rendering:crispEdges;" transform="matrix(1,0,0,1,0,0)" clip-path="url(#_1972719721021440clip-2)"/><line x1="84" y1="517.59" x2="1140" y2="517.59" style="stroke-width: 0.5;stroke: rgb(192,192,192);stroke-opacity: 1.0;stroke-linejoin: bevel;stroke-dasharray: 2.0, 2.0;shape-rendering:crispEdges;" transform="matrix(1,0,0,1,0,0)" clip-path="url(#_1972719721021440clip-2)"/><line x1="84" y1="490.02" x2="1140" y2="490.02" style="stroke-width: 0.5;stroke: rgb(192,192,192);stroke-opacity: 1.0;stroke-linejoin: bevel;stroke-dasharray: 2.0, 2.0;shape-rendering:crispEdges;" transform="matrix(1,0,0,1,0,0)" clip-path="url(#_1972719721021440clip-2)"/><line x1="84" y1="462.45" x2="1140" y2="462.45" style="stroke-width: 0.5;stroke: rgb(192,192,192);stroke-opacity: 1.0;stroke-linejoin: bevel;stroke-dasharray: 2.0, 2.0;shape-rendering:crispEdges;" transform="matrix(1,0,0,1,0,0)" clip-path="url(#_1972719721021440clip-2)"/><line x1="84" y1="434.89" x2="1140" y2="434.89" style="stroke-width: 0.5;stroke: rgb(192,192,192);stroke-opacity: 1.0;stroke-linejoin: bevel;stroke-dasharray: 2.0, 2.0;shape-rendering:crispEdges;" transform="matrix(1,0,0,1,0,0)" clip-path="url(#_1972719721021440clip-2)"/><line x1="84" y1="407.32" x2="1140" y2="407.32" style="stroke-width: 0.5;stroke: rgb(192,192,192);stroke-opacity: 1.0;stroke-linejoin: bevel;stroke-dasharray: 2.0, 2.0;shape-rendering:crispEdges;" transform="matrix(1,0,0,1,0,0)" clip-path="url(#_1972719721021440clip-2)"/><line x1="84" y1="379.76" x2="1140" y2="379.76" style="stroke-width: 0.5;stroke: rgb(192,192,192);stroke-opacity: 1.0;stroke-linejoin: bevel;stroke-dasharray: 2.0, 2.0;shape-rendering:crispEdges;" transform="matrix(1,0,0,1,0,0)" clip-path="url(#_1972719721021440clip-2)"/><line x1="84" y1="352.19" x2="1140" y2="352.19" style="stroke-width: 0.5;stroke: rgb(192,192,192);stroke-opacity: 1.0;stroke-linejoin: bevel;stroke-dasharray: 2.0, 2.0;shape-rendering:crispEdges;" transform="matrix(1,0,0,1,0,0)" clip-path="url(#_1972719721021440clip-2)"/><line x1="84" y1="324.62" x2="1140" y2="324.62" style="stroke-width: 0.5;stroke: rgb(192,192,192);stroke-opacity: 1.0;stroke-linejoin: bevel;stroke-dasharray: 2.0, 2.0;shape-rendering:crispEdges;" transform="matrix(1,0,0,1,0,0)" clip-path="url(#_1972719721021440clip-2)"/><line x1="84" y1="297.06" x2="1140" y2="297.06" style="stroke-width: 0.5;stroke: rgb(192,192,192);stroke-opacity: 1.0;stroke-linejoin: bevel;stroke-dasharray: 2.0, 2.0;shape-rendering:crispEdges;" transform="matrix(1,0,0,1,0,0)" clip-path="url(#_1972719721021440clip-2)"/><line x1="84" y1="269.49" x2="1140" y2="269.49" style="stroke-width: 0.5;stroke: rgb(192,192,192);stroke-opacity: 1.0;stroke-linejoin: bevel;stroke-dasharray: 2.0, 2.0;shape-rendering:crispEdges;" transform="matrix(1,0,0,1,0,0)" clip-path="url(#_1972719721021440clip-2)"/><line x1="84" y1="241.92" x2="1140" y2="241.92" style="stroke-width: 0.5;stroke: rgb(192,192,192);stroke-opacity: 1.0;stroke-linejoin: bevel;stroke-dasharray: 2.0, 2.0;shape-rendering:crispEdges;" transform="matrix(1,0,0,1,0,0)" clip-path="url(#_1972719721021440clip-2)"/><line x1="84" y1="214.36" x2="1140" y2="214.36" style="stroke-width: 0.5;stroke: rgb(192,192,192);stroke-opacity: 1.0;stroke-linejoin: bevel;stroke-dasharray: 2.0, 2.0;shape-rendering:crispEdges;" transform="matrix(1,0,0,1,0,0)" clip-path="url(#_1972719721021440clip-2)"/><line x1="84" y1="186.79" x2="1140" y2="186.79" style="stroke-width: 0.5;stroke: rgb(192,192,192);stroke-opacity: 1.0;stroke-linejoin: bevel;stroke-dasharray: 2.0, 2.0;shape-rendering:crispEdges;" transform="matrix(1,0,0,1,0,0)" clip-path="url(#_1972719721021440clip-2)"/><line x1="84" y1="159.22" x2="1140" y2="159.22" style="stroke-width: 0.5;stroke: rgb(192,192,192);stroke-opacity: 1.0;stroke-linejoin: bevel;stroke-dasharray: 2.0, 2.0;shape-rendering:crispEdges;" transform="matrix(1,0,0,1,0,0)" clip-path="url(#_1972719721021440clip-2)"/><line x1="84" y1="131.66" x2="1140" y2="131.66" style="stroke-width: 0.5;stroke: rgb(192,192,192);stroke-opacity: 1.0;stroke-linejoin: bevel;stroke-dasharray: 2.0, 2.0;shape-rendering:crispEdges;" transform="matrix(1,0,0,1,0,0)" clip-path="url(#_1972719721021440clip-2)"/><line x1="84" y1="104.09" x2="1140" y2="104.09" style="stroke-width: 0.5;stroke: rgb(192,192,192);stroke-opacity: 1.0;stroke-linejoin: bevel;stroke-dasharray: 2.0, 2.0;shape-rendering:crispEdges;" transform="matrix(1,0,0,1,0,0)" clip-path="url(#_1972719721021440clip-2)"/><line x1="84" y1="76.52" x2="1140" y2="76.52" style="stroke-width: 0.5;stroke: rgb(192,192,192);stroke-opacity: 1.0;stroke-linejoin: bevel;stroke-dasharray: 2.0, 2.0;shape-rendering:crispEdges;" transform="matrix(1,0,0,1,0,0)" clip-path="url(#_1972719721021440clip-2)"/><line x1="84" y1="48.96" x2="1140" y2="48.96" style="stroke-width: 0.5;stroke: rgb(192,192,192);stroke-opacity: 1.0;stroke-linejoin: bevel;stroke-dasharray: 2.0, 2.0;shape-rendering:crispEdges;" transform="matrix(1,0,0,1,0,0)" clip-path="url(#_1972719721021440clip-2)"/><line x1="146.18" y1="656.14" x2="169.88" y2="641.33" style="stroke-width: 3.0;stroke: rgb(0,0,0);stroke-opacity: 1.0;stroke-linecap: square;shape-rendering:geometricPrecision;" transform="matrix(1,0,0,1,0,0)" clip-path="url(#_1972719721021440clip-2)"/><line x1="169.88" y1="641.33" x2="191.96" y2="627.53" style="stroke-width: 3.0;stroke: rgb(0,0,0);stroke-opacity: 1.0;stroke-linecap: square;shape-rendering:geometricPrecision;" transform="matrix(1,0,0,1,0,0)" clip-path="url(#_1972719721021440clip-2)"/><line x1="191.96" y1="627.53" x2="213.95" y2="613.78" style="stroke-width: 3.0;stroke: rgb(0,0,0);stroke-opacity: 1.0;stroke-linecap: square;shape-rendering:geometricPrecision;" transform="matrix(1,0,0,1,0,0)" clip-path="url(#_1972719721021440clip-2)"/><line x1="213.95" y1="613.78" x2="235.85" y2="600.09" style="stroke-width: 3.0;stroke: rgb(0,0,0);stroke-opacity: 1.0;stroke-linecap: square;shape-rendering:geometricPrecision;" transform="matrix(1,0,0,1,0,0)" clip-path="url(#_1972719721021440clip-2)"/><line x1="235.85" y1="600.09" x2="257.67" y2="586.45" style="stroke-width: 3.0;stroke: rgb(0,0,0);stroke-opacity: 1.0;stroke-linecap: square;shape-rendering:geometricPrecision;" transform="matrix(1,0,0,1,0,0)" clip-path="url(#_1972719721021440clip-2)"/><line x1="257.67" y1="586.45" x2="279.43" y2="572.86" style="stroke-width: 3.0;stroke: rgb(0,0,0);stroke-opacity: 1.0;stroke-linecap: square;shape-rendering:geometricPrecision;" transform="matrix(1,0,0,1,0,0)" clip-path="url(#_1972719721021440clip-2)"/><line x1="279.43" y1="572.86" x2="301.7" y2="558.94" style="stroke-width: 3.0;stroke: rgb(0,0,0);stroke-opacity: 1.0;stroke-linecap: square;shape-rendering:geometricPrecision;" transform="matrix(1,0,0,1,0,0)" clip-path="url(#_1972719721021440clip-2)"/><line x1="301.7" y1="558.94" x2="324.24" y2="544.85" style="stroke-width: 3.0;stroke: rgb(0,0,0);stroke-opacity: 1.0;stroke-linecap: square;shape-rendering:geometricPrecision;" transform="matrix(1,0,0,1,0,0)" clip-path="url(#_1972719721021440clip-2)"/><line x1="324.24" y1="544.85" x2="346.89" y2="530.7" style="stroke-width: 3.0;stroke: rgb(0,0,0);stroke-opacity: 1.0;stroke-linecap: square;shape-rendering:geometricPrecision;" transform="matrix(1,0,0,1,0,0)" clip-path="url(#_1972719721021440clip-2)"/><line x1="346.89" y1="530.7" x2="369.64" y2="516.47" style="stroke-width: 3.0;stroke: rgb(0,0,0);stroke-opacity: 1.0;stroke-linecap: square;shape-rendering:geometricPrecision;" transform="matrix(1,0,0,1,0,0)" clip-path="url(#_1972719721021440clip-2)"/><line x1="369.64" y1="516.47" x2="392.51" y2="502.18" style="stroke-width: 3.0;stroke: rgb(0,0,0);stroke-opacity: 1.0;stroke-linecap: square;shape-rendering:geometricPrecision;" transform="matrix(1,0,0,1,0,0)" clip-path="url(#_1972719721021440clip-2)"/><line x1="392.51" y1="502.18" x2="415.48" y2="487.82" style="stroke-width: 3.0;stroke: rgb(0,0,0);stroke-opacity: 1.0;stroke-linecap: square;shape-rendering:geometricPrecision;" transform="matrix(1,0,0,1,0,0)" clip-path="url(#_1972719721021440clip-2)"/><line x1="415.48" y1="487.82" x2="438.58" y2="473.39" style="stroke-width: 3.0;stroke: rgb(0,0,0);stroke-opacity: 1.0;stroke-linecap: square;shape-rendering:geometricPrecision;" transform="matrix(1,0,0,1,0,0)" clip-path="url(#_1972719721021440clip-2)"/><line x1="438.58" y1="473.39" x2="461.79" y2="458.88" style="stroke-width: 3.0;stroke: rgb(0,0,0);stroke-opacity: 1.0;stroke-linecap: square;shape-rendering:geometricPrecision;" transform="matrix(1,0,0,1,0,0)" clip-path="url(#_1972719721021440clip-2)"/><line x1="461.79" y1="458.88" x2="485.08" y2="444.32" style="stroke-width: 3.0;stroke: rgb(0,0,0);stroke-opacity: 1.0;stroke-linecap: square;shape-rendering:geometricPrecision;" transform="matrix(1,0,0,1,0,0)" clip-path="url(#_1972719721021440clip-2)"/><line x1="485.08" y1="444.32" x2="508.3" y2="429.81" style="stroke-width: 3.0;stroke: rgb(0,0,0);stroke-opacity: 1.0;stroke-linecap: square;shape-rendering:geometricPrecision;" transform="matrix(1,0,0,1,0,0)" clip-path="url(#_1972719721021440clip-2)"/><line x1="508.3" y1="429.81" x2="531.4" y2="415.37" style="stroke-width: 3.0;stroke: rgb(0,0,0);stroke-opacity: 1.0;stroke-linecap: square;shape-rendering:geometricPrecision;" transform="matrix(1,0,0,1,0,0)" clip-path="url(#_1972719721021440clip-2)"/><line x1="531.4" y1="415.37" x2="554.49" y2="400.94" style="stroke-width: 3.0;stroke: rgb(0,0,0);stroke-opacity: 1.0;stroke-linecap: square;shape-rendering:geometricPrecision;" transform="matrix(1,0,0,1,0,0)" clip-path="url(#_1972719721021440clip-2)"/><line x1="554.49" y1="400.94" x2="577.8" y2="386.38" style="stroke-width: 3.0;stroke: rgb(0,0,0);stroke-opacity: 1.0;stroke-linecap: square;shape-rendering:geometricPrecision;" transform="matrix(1,0,0,1,0,0)" clip-path="url(#_1972719721021440clip-2)"/><line x1="577.8" y1="386.38" x2="601.77" y2="371.39" style="stroke-width: 3.0;stroke: rgb(0,0,0);stroke-opacity: 1.0;stroke-linecap: square;shape-rendering:geometricPrecision;" transform="matrix(1,0,0,1,0,0)" clip-path="url(#_1972719721021440clip-2)"/><line x1="601.77" y1="371.39" x2="627.18" y2="355.51" style="stroke-width: 3.0;stroke: rgb(0,0,0);stroke-opacity: 1.0;stroke-linecap: square;shape-rendering:geometricPrecision;" transform="matrix(1,0,0,1,0,0)" clip-path="url(#_1972719721021440clip-2)"/><line x1="627.18" y1="355.51" x2="654.68" y2="338.32" style="stroke-width: 3.0;stroke: rgb(0,0,0);stroke-opacity: 1.0;stroke-linecap: square;shape-rendering:geometricPrecision;" transform="matrix(1,0,0,1,0,0)" clip-path="url(#_1972719721021440clip-2)"/><line x1="654.68" y1="338.32" x2="685.11" y2="319.31" style="stroke-width: 3.0;stroke: rgb(0,0,0);stroke-opacity: 1.0;stroke-linecap: square;shape-rendering:geometricPrecision;" transform="matrix(1,0,0,1,0,0)" clip-path="url(#_1972719721021440clip-2)"/><line x1="685.11" y1="319.31" x2="719.41" y2="297.87" style="stroke-width: 3.0;stroke: rgb(0,0,0);stroke-opacity: 1.0;stroke-linecap: square;shape-rendering:geometricPrecision;" transform="matrix(1,0,0,1,0,0)" clip-path="url(#_1972719721021440clip-2)"/><line x1="719.41" y1="297.87" x2="758.61" y2="273.37" style="stroke-width: 3.0;stroke: rgb(0,0,0);stroke-opacity: 1.0;stroke-linecap: square;shape-rendering:geometricPrecision;" transform="matrix(1,0,0,1,0,0)" clip-path="url(#_1972719721021440clip-2)"/><line x1="758.61" y1="273.37" x2="805.41" y2="244.12" style="stroke-width: 3.0;stroke: rgb(0,0,0);stroke-opacity: 1.0;stroke-linecap: square;shape-rendering:geometricPrecision;" transform="matrix(1,0,0,1,0,0)" clip-path="url(#_1972719721021440clip-2)"/><line x1="805.41" y1="244.12" x2="859.98" y2="210.02" style="stroke-width: 3.0;stroke: rgb(0,0,0);stroke-opacity: 1.0;stroke-linecap: square;shape-rendering:geometricPrecision;" transform="matrix(1,0,0,1,0,0)" clip-path="url(#_1972719721021440clip-2)"/><line x1="859.98" y1="210.02" x2="923.36" y2="170.4" style="stroke-width: 3.0;stroke: rgb(0,0,0);stroke-opacity: 1.0;stroke-linecap: square;shape-rendering:geometricPrecision;" transform="matrix(1,0,0,1,0,0)" clip-path="url(#_1972719721021440clip-2)"/><line x1="923.36" y1="170.4" x2="996.55" y2="124.66" style="stroke-width: 3.0;stroke: rgb(0,0,0);stroke-opacity: 1.0;stroke-linecap: square;shape-rendering:geometricPrecision;" transform="matrix(1,0,0,1,0,0)" clip-path="url(#_1972719721021440clip-2)"/><line x1="996.55" y1="124.66" x2="1077.82" y2="73.86" style="stroke-width: 3.0;stroke: rgb(0,0,0);stroke-opacity: 1.0;stroke-linecap: square;shape-rendering:geometricPrecision;" transform="matrix(1,0,0,1,0,0)" clip-path="url(#_1972719721021440clip-2)"/><rect x="84" y="35" width="1056" height="660" style="stroke-width: 0.5;stroke: rgb(0,0,0);stroke-opacity: 1.0;stroke-linecap: round;stroke-linejoin: round;shape-rendering:crispEdges;; fill: none" transform="matrix(1,0,0,1,0,0)" clip-path="url(#_1972719721021440clip-0)"/></svg>
