<!DOCTYPE svg PUBLIC "-//W3C//DTD SVG 1.1//EN" "http://www.w3.org/Graphics/SVG/1.1/DTD/svg11.dtd">
<svg xmlns="http://www.w3.org/2000/svg" xmlns:xlink="http://www.w3.org/1999/xlink" xmlns:jfreesvg="http://www.jfree.org/jfreesvg/svg" width="1920" height="1080" text-rendering="auto" shape-rendering="auto">
<defs><clipPath id="_159144028833020clip-0"><path d="M 0 0 L 1920 0 L 1920 1080 L 0 1080 L 0 0 Z "/></clipPath>
<clipPath id="_159144028833020clip-1"><path d="M 526.5 465.5 L 526.5 2385.5 L -553.5 2385.5 L -553.5 465.5 L 526.5 465.5 Z "/></clipPath>
<clipPath id="_159144028833020clip-2"><path d="M 57 35 L 57 957 L 1908 957 L 1908 35 Z "/></clipPath>
</defs>
<rect x="0" y="0" width="1920" height="1080" style="fill: rgb(255,255,255); fill-opacity: 1.0" transform="matrix(1,0,0,1,0,0)" clip-path="url(#_159144028833020clip-0)"/><g transform="matrix(1,0,0,1,0,0)"><text x="836.5" y="21.01" style="fill: rgb(0,0,0); fill-opacity: 1.0; font-family: Tahoma; font-size: 20px; font-weight: bold;" clip-path="url(#_159144028833020clip-0)">Specific Range v.s. Mach</text></g><rect x="134" y="1047" width="1652" height="32" style="fill: rgb(255,255,255); fill-opacity: 1.0" transform="matrix(1,0,0,1,0,0)" clip-path="url(#_159144028833020clip-0)"/><g style="stroke-width: 3.0;stroke: rgb(192,0,0);stroke-opacity: 1.0;stroke-linecap: square;shape-rendering:geometricPrecision;; fill: none" transform="matrix(1,0,0,1,0,0)" clip-path="url(#_159144028833020clip-0)"><path d="M 137 1063 L 151 1063"/></g><g transform="matrix(1,0,0,1,0,0)"><text x="155" y="1070.11" style="fill: rgb(64,64,64); fill-opacity: 1.0; font-family: sans-serif; font-size: 20px;" clip-path="url(#_159144028833020clip-0)">Mass = 50582.003028557156</text></g><g style="stroke-width: 3.0;stroke: rgb(0,128,0);stroke-opacity: 1.0;stroke-linecap: round;stroke-linejoin: round;stroke-dasharray: 10.0, 5.0;shape-rendering:geometricPrecision;; fill: none" transform="matrix(1,0,0,1,0,0)" clip-path="url(#_159144028833020clip-0)"><path d="M 426 1063 L 440 1063"/></g><g transform="matrix(1,0,0,1,0,0)"><text x="444" y="1070.11" style="fill: rgb(64,64,64); fill-opacity: 1.0; font-family: sans-serif; font-size: 20px;" clip-path="url(#_159144028833020clip-0)">Mass = 53743.42920365263</text></g><g style="stroke-width: 1.0;stroke: rgb(255,200,0);stroke-opacity: 1.0;stroke-linecap: square;stroke-linejoin: bevel;shape-rendering:geometricPrecision;; fill: none" transform="matrix(1,0,0,1,0,0)" clip-path="url(#_159144028833020clip-0)"><path d="M 704 1063 L 718 1063"/></g><g transform="matrix(1,0,0,1,0,0)"><text x="722" y="1070.11" style="fill: rgb(64,64,64); fill-opacity: 1.0; font-family: sans-serif; font-size: 20px;" clip-path="url(#_159144028833020clip-0)">Mass = 56904.7534071268</text></g><g style="stroke-width: 1.0;stroke: rgb(0,192,0);stroke-opacity: 1.0;stroke-linecap: square;stroke-linejoin: bevel;shape-rendering:geometricPrecision;; fill: none" transform="matrix(1,0,0,1,0,0)" clip-path="url(#_159144028833020clip-0)"><path d="M 971 1063 L 985 1063"/></g><g transform="matrix(1,0,0,1,0,0)"><text x="989" y="1070.11" style="fill: rgb(64,64,64); fill-opacity: 1.0; font-family: sans-serif; font-size: 20px;" clip-path="url(#_159144028833020clip-0)">Mass = 60066.17958222228</text></g><g style="stroke-width: 1.0;stroke: rgb(192,192,0);stroke-opacity: 1.0;stroke-linecap: square;stroke-linejoin: bevel;shape-rendering:geometricPrecision;; fill: none" transform="matrix(1,0,0,1,0,0)" clip-path="url(#_159144028833020clip-0)"><path d="M 1249 1063 L 1263 1063"/></g><g transform="matrix(1,0,0,1,0,0)"><text x="1267" y="1070.11" style="fill: rgb(64,64,64); fill-opacity: 1.0; font-family: sans-serif; font-size: 20px;" clip-path="url(#_159144028833020clip-0)">Mass = 63227.50378569645</text></g><g style="stroke-width: 1.0;stroke: rgb(192,0,192);stroke-opacity: 1.0;stroke-linecap: square;stroke-linejoin: bevel;shape-rendering:geometricPrecision;; fill: none" transform="matrix(1,0,0,1,0,0)" clip-path="url(#_159144028833020clip-0)"><path d="M 1527 1063 L 1541 1063"/></g><g transform="matrix(1,0,0,1,0,0)"><text x="1545" y="1070.11" style="fill: rgb(64,64,64); fill-opacity: 1.0; font-family: sans-serif; font-size: 20px;" clip-path="url(#_159144028833020clip-0)">Best Range</text></g><g style="stroke-width: 1.0;stroke: rgb(0,192,192);stroke-opacity: 1.0;stroke-linecap: square;stroke-linejoin: bevel;shape-rendering:geometricPrecision;; fill: none" transform="matrix(1,0,0,1,0,0)" clip-path="url(#_159144028833020clip-0)"><path d="M 1656 1063 L 1670 1063"/></g><g transform="matrix(1,0,0,1,0,0)"><text x="1674" y="1070.11" style="fill: rgb(64,64,64); fill-opacity: 1.0; font-family: sans-serif; font-size: 20px;" clip-path="url(#_159144028833020clip-0)">Long Range</text></g><rect x="57" y="35" width="1851" height="922" style="fill: rgb(255,255,255); fill-opacity: 0.0" transform="matrix(1,0,0,1,0,0)" clip-path="url(#_159144028833020clip-0)"/><line x1="57" y1="961" x2="1908" y2="961" style="stroke-width: 0.5;stroke: rgb(128,128,128);stroke-opacity: 1.0;stroke-linecap: square;shape-rendering:crispEdges;" transform="matrix(1,0,0,1,0,0)" clip-path="url(#_159144028833020clip-0)"/><g transform="matrix(1,0,0,1,0,0)"><text x="66.57" y="991.69" style="fill: rgb(64,64,64); fill-opacity: 1.0; font-family: sans-serif; font-size: 25px;" clip-path="url(#_159144028833020clip-0)">0,38</text></g><line x1="91.07" y1="963" x2="91.07" y2="961" style="stroke-width: 0.5;stroke: rgb(128,128,128);stroke-opacity: 1.0;stroke-linecap: square;shape-rendering:crispEdges;" transform="matrix(1,0,0,1,0,0)" clip-path="url(#_159144028833020clip-0)"/><g transform="matrix(1,0,0,1,0,0)"><text x="136.99" y="991.69" style="fill: rgb(64,64,64); fill-opacity: 1.0; font-family: sans-serif; font-size: 25px;" clip-path="url(#_159144028833020clip-0)">0,40</text></g><line x1="161.49" y1="963" x2="161.49" y2="961" style="stroke-width: 0.5;stroke: rgb(128,128,128);stroke-opacity: 1.0;stroke-linecap: square;shape-rendering:crispEdges;" transform="matrix(1,0,0,1,0,0)" clip-path="url(#_159144028833020clip-0)"/><g transform="matrix(1,0,0,1,0,0)"><text x="207.42" y="991.69" style="fill: rgb(64,64,64); fill-opacity: 1.0; font-family: sans-serif; font-size: 25px;" clip-path="url(#_159144028833020clip-0)">0,42</text></g><line x1="231.92" y1="963" x2="231.92" y2="961" style="stroke-width: 0.5;stroke: rgb(128,128,128);stroke-opacity: 1.0;stroke-linecap: square;shape-rendering:crispEdges;" transform="matrix(1,0,0,1,0,0)" clip-path="url(#_159144028833020clip-0)"/><g transform="matrix(1,0,0,1,0,0)"><text x="277.84" y="991.69" style="fill: rgb(64,64,64); fill-opacity: 1.0; font-family: sans-serif; font-size: 25px;" clip-path="url(#_159144028833020clip-0)">0,44</text></g><line x1="302.34" y1="963" x2="302.34" y2="961" style="stroke-width: 0.5;stroke: rgb(128,128,128);stroke-opacity: 1.0;stroke-linecap: square;shape-rendering:crispEdges;" transform="matrix(1,0,0,1,0,0)" clip-path="url(#_159144028833020clip-0)"/><g transform="matrix(1,0,0,1,0,0)"><text x="348.26" y="991.69" style="fill: rgb(64,64,64); fill-opacity: 1.0; font-family: sans-serif; font-size: 25px;" clip-path="url(#_159144028833020clip-0)">0,46</text></g><line x1="372.76" y1="963" x2="372.76" y2="961" style="stroke-width: 0.5;stroke: rgb(128,128,128);stroke-opacity: 1.0;stroke-linecap: square;shape-rendering:crispEdges;" transform="matrix(1,0,0,1,0,0)" clip-path="url(#_159144028833020clip-0)"/><g transform="matrix(1,0,0,1,0,0)"><text x="418.68" y="991.69" style="fill: rgb(64,64,64); fill-opacity: 1.0; font-family: sans-serif; font-size: 25px;" clip-path="url(#_159144028833020clip-0)">0,48</text></g><line x1="443.18" y1="963" x2="443.18" y2="961" style="stroke-width: 0.5;stroke: rgb(128,128,128);stroke-opacity: 1.0;stroke-linecap: square;shape-rendering:crispEdges;" transform="matrix(1,0,0,1,0,0)" clip-path="url(#_159144028833020clip-0)"/><g transform="matrix(1,0,0,1,0,0)"><text x="489.1" y="991.69" style="fill: rgb(64,64,64); fill-opacity: 1.0; font-family: sans-serif; font-size: 25px;" clip-path="url(#_159144028833020clip-0)">0,50</text></g><line x1="513.6" y1="963" x2="513.6" y2="961" style="stroke-width: 0.5;stroke: rgb(128,128,128);stroke-opacity: 1.0;stroke-linecap: square;shape-rendering:crispEdges;" transform="matrix(1,0,0,1,0,0)" clip-path="url(#_159144028833020clip-0)"/><g transform="matrix(1,0,0,1,0,0)"><text x="559.52" y="991.69" style="fill: rgb(64,64,64); fill-opacity: 1.0; font-family: sans-serif; font-size: 25px;" clip-path="url(#_159144028833020clip-0)">0,52</text></g><line x1="584.02" y1="963" x2="584.02" y2="961" style="stroke-width: 0.5;stroke: rgb(128,128,128);stroke-opacity: 1.0;stroke-linecap: square;shape-rendering:crispEdges;" transform="matrix(1,0,0,1,0,0)" clip-path="url(#_159144028833020clip-0)"/><g transform="matrix(1,0,0,1,0,0)"><text x="629.95" y="991.69" style="fill: rgb(64,64,64); fill-opacity: 1.0; font-family: sans-serif; font-size: 25px;" clip-path="url(#_159144028833020clip-0)">0,54</text></g><line x1="654.45" y1="963" x2="654.45" y2="961" style="stroke-width: 0.5;stroke: rgb(128,128,128);stroke-opacity: 1.0;stroke-linecap: square;shape-rendering:crispEdges;" transform="matrix(1,0,0,1,0,0)" clip-path="url(#_159144028833020clip-0)"/><g transform="matrix(1,0,0,1,0,0)"><text x="700.37" y="991.69" style="fill: rgb(64,64,64); fill-opacity: 1.0; font-family: sans-serif; font-size: 25px;" clip-path="url(#_159144028833020clip-0)">0,56</text></g><line x1="724.87" y1="963" x2="724.87" y2="961" style="stroke-width: 0.5;stroke: rgb(128,128,128);stroke-opacity: 1.0;stroke-linecap: square;shape-rendering:crispEdges;" transform="matrix(1,0,0,1,0,0)" clip-path="url(#_159144028833020clip-0)"/><g transform="matrix(1,0,0,1,0,0)"><text x="770.79" y="991.69" style="fill: rgb(64,64,64); fill-opacity: 1.0; font-family: sans-serif; font-size: 25px;" clip-path="url(#_159144028833020clip-0)">0,58</text></g><line x1="795.29" y1="963" x2="795.29" y2="961" style="stroke-width: 0.5;stroke: rgb(128,128,128);stroke-opacity: 1.0;stroke-linecap: square;shape-rendering:crispEdges;" transform="matrix(1,0,0,1,0,0)" clip-path="url(#_159144028833020clip-0)"/><g transform="matrix(1,0,0,1,0,0)"><text x="841.21" y="991.69" style="fill: rgb(64,64,64); fill-opacity: 1.0; font-family: sans-serif; font-size: 25px;" clip-path="url(#_159144028833020clip-0)">0,60</text></g><line x1="865.71" y1="963" x2="865.71" y2="961" style="stroke-width: 0.5;stroke: rgb(128,128,128);stroke-opacity: 1.0;stroke-linecap: square;shape-rendering:crispEdges;" transform="matrix(1,0,0,1,0,0)" clip-path="url(#_159144028833020clip-0)"/><g transform="matrix(1,0,0,1,0,0)"><text x="911.63" y="991.69" style="fill: rgb(64,64,64); fill-opacity: 1.0; font-family: sans-serif; font-size: 25px;" clip-path="url(#_159144028833020clip-0)">0,62</text></g><line x1="936.13" y1="963" x2="936.13" y2="961" style="stroke-width: 0.5;stroke: rgb(128,128,128);stroke-opacity: 1.0;stroke-linecap: square;shape-rendering:crispEdges;" transform="matrix(1,0,0,1,0,0)" clip-path="url(#_159144028833020clip-0)"/><g transform="matrix(1,0,0,1,0,0)"><text x="982.05" y="991.69" style="fill: rgb(64,64,64); fill-opacity: 1.0; font-family: sans-serif; font-size: 25px;" clip-path="url(#_159144028833020clip-0)">0,64</text></g><line x1="1006.55" y1="963" x2="1006.55" y2="961" style="stroke-width: 0.5;stroke: rgb(128,128,128);stroke-opacity: 1.0;stroke-linecap: square;shape-rendering:crispEdges;" transform="matrix(1,0,0,1,0,0)" clip-path="url(#_159144028833020clip-0)"/><g transform="matrix(1,0,0,1,0,0)"><text x="1052.48" y="991.69" style="fill: rgb(64,64,64); fill-opacity: 1.0; font-family: sans-serif; font-size: 25px;" clip-path="url(#_159144028833020clip-0)">0,66</text></g><line x1="1076.98" y1="963" x2="1076.98" y2="961" style="stroke-width: 0.5;stroke: rgb(128,128,128);stroke-opacity: 1.0;stroke-linecap: square;shape-rendering:crispEdges;" transform="matrix(1,0,0,1,0,0)" clip-path="url(#_159144028833020clip-0)"/><g transform="matrix(1,0,0,1,0,0)"><text x="1122.9" y="991.69" style="fill: rgb(64,64,64); fill-opacity: 1.0; font-family: sans-serif; font-size: 25px;" clip-path="url(#_159144028833020clip-0)">0,68</text></g><line x1="1147.4" y1="963" x2="1147.4" y2="961" style="stroke-width: 0.5;stroke: rgb(128,128,128);stroke-opacity: 1.0;stroke-linecap: square;shape-rendering:crispEdges;" transform="matrix(1,0,0,1,0,0)" clip-path="url(#_159144028833020clip-0)"/><g transform="matrix(1,0,0,1,0,0)"><text x="1193.32" y="991.69" style="fill: rgb(64,64,64); fill-opacity: 1.0; font-family: sans-serif; font-size: 25px;" clip-path="url(#_159144028833020clip-0)">0,70</text></g><line x1="1217.82" y1="963" x2="1217.82" y2="961" style="stroke-width: 0.5;stroke: rgb(128,128,128);stroke-opacity: 1.0;stroke-linecap: square;shape-rendering:crispEdges;" transform="matrix(1,0,0,1,0,0)" clip-path="url(#_159144028833020clip-0)"/><g transform="matrix(1,0,0,1,0,0)"><text x="1263.74" y="991.69" style="fill: rgb(64,64,64); fill-opacity: 1.0; font-family: sans-serif; font-size: 25px;" clip-path="url(#_159144028833020clip-0)">0,72</text></g><line x1="1288.24" y1="963" x2="1288.24" y2="961" style="stroke-width: 0.5;stroke: rgb(128,128,128);stroke-opacity: 1.0;stroke-linecap: square;shape-rendering:crispEdges;" transform="matrix(1,0,0,1,0,0)" clip-path="url(#_159144028833020clip-0)"/><g transform="matrix(1,0,0,1,0,0)"><text x="1334.16" y="991.69" style="fill: rgb(64,64,64); fill-opacity: 1.0; font-family: sans-serif; font-size: 25px;" clip-path="url(#_159144028833020clip-0)">0,74</text></g><line x1="1358.66" y1="963" x2="1358.66" y2="961" style="stroke-width: 0.5;stroke: rgb(128,128,128);stroke-opacity: 1.0;stroke-linecap: square;shape-rendering:crispEdges;" transform="matrix(1,0,0,1,0,0)" clip-path="url(#_159144028833020clip-0)"/><g transform="matrix(1,0,0,1,0,0)"><text x="1404.58" y="991.69" style="fill: rgb(64,64,64); fill-opacity: 1.0; font-family: sans-serif; font-size: 25px;" clip-path="url(#_159144028833020clip-0)">0,76</text></g><line x1="1429.08" y1="963" x2="1429.08" y2="961" style="stroke-width: 0.5;stroke: rgb(128,128,128);stroke-opacity: 1.0;stroke-linecap: square;shape-rendering:crispEdges;" transform="matrix(1,0,0,1,0,0)" clip-path="url(#_159144028833020clip-0)"/><g transform="matrix(1,0,0,1,0,0)"><text x="1475" y="991.69" style="fill: rgb(64,64,64); fill-opacity: 1.0; font-family: sans-serif; font-size: 25px;" clip-path="url(#_159144028833020clip-0)">0,78</text></g><line x1="1499.5" y1="963" x2="1499.5" y2="961" style="stroke-width: 0.5;stroke: rgb(128,128,128);stroke-opacity: 1.0;stroke-linecap: square;shape-rendering:crispEdges;" transform="matrix(1,0,0,1,0,0)" clip-path="url(#_159144028833020clip-0)"/><g transform="matrix(1,0,0,1,0,0)"><text x="1545.43" y="991.69" style="fill: rgb(64,64,64); fill-opacity: 1.0; font-family: sans-serif; font-size: 25px;" clip-path="url(#_159144028833020clip-0)">0,80</text></g><line x1="1569.93" y1="963" x2="1569.93" y2="961" style="stroke-width: 0.5;stroke: rgb(128,128,128);stroke-opacity: 1.0;stroke-linecap: square;shape-rendering:crispEdges;" transform="matrix(1,0,0,1,0,0)" clip-path="url(#_159144028833020clip-0)"/><g transform="matrix(1,0,0,1,0,0)"><text x="1615.85" y="991.69" style="fill: rgb(64,64,64); fill-opacity: 1.0; font-family: sans-serif; font-size: 25px;" clip-path="url(#_159144028833020clip-0)">0,82</text></g><line x1="1640.35" y1="963" x2="1640.35" y2="961" style="stroke-width: 0.5;stroke: rgb(128,128,128);stroke-opacity: 1.0;stroke-linecap: square;shape-rendering:crispEdges;" transform="matrix(1,0,0,1,0,0)" clip-path="url(#_159144028833020clip-0)"/><g transform="matrix(1,0,0,1,0,0)"><text x="1686.27" y="991.69" style="fill: rgb(64,64,64); fill-opacity: 1.0; font-family: sans-serif; font-size: 25px;" clip-path="url(#_159144028833020clip-0)">0,84</text></g><line x1="1710.77" y1="963" x2="1710.77" y2="961" style="stroke-width: 0.5;stroke: rgb(128,128,128);stroke-opacity: 1.0;stroke-linecap: square;shape-rendering:crispEdges;" transform="matrix(1,0,0,1,0,0)" clip-path="url(#_159144028833020clip-0)"/><g transform="matrix(1,0,0,1,0,0)"><text x="1756.69" y="991.69" style="fill: rgb(64,64,64); fill-opacity: 1.0; font-family: sans-serif; font-size: 25px;" clip-path="url(#_159144028833020clip-0)">0,86</text></g><line x1="1781.19" y1="963" x2="1781.19" y2="961" style="stroke-width: 0.5;stroke: rgb(128,128,128);stroke-opacity: 1.0;stroke-linecap: square;shape-rendering:crispEdges;" transform="matrix(1,0,0,1,0,0)" clip-path="url(#_159144028833020clip-0)"/><g transform="matrix(1,0,0,1,0,0)"><text x="1827.11" y="991.69" style="fill: rgb(64,64,64); fill-opacity: 1.0; font-family: sans-serif; font-size: 25px;" clip-path="url(#_159144028833020clip-0)">0,88</text></g><line x1="1851.61" y1="963" x2="1851.61" y2="961" style="stroke-width: 0.5;stroke: rgb(128,128,128);stroke-opacity: 1.0;stroke-linecap: square;shape-rendering:crispEdges;" transform="matrix(1,0,0,1,0,0)" clip-path="url(#_159144028833020clip-0)"/><g transform="matrix(1,0,0,1,0,0)"><text x="941.5" y="1030.87" style="fill: rgb(64,64,64); fill-opacity: 1.0; font-family: sans-serif; font-size: 30px;" clip-path="url(#_159144028833020clip-0)">Mach </text></g><line x1="53" y1="35" x2="53" y2="957" style="stroke-width: 0.5;stroke: rgb(128,128,128);stroke-opacity: 1.0;stroke-linecap: square;shape-rendering:crispEdges;" transform="matrix(1,0,0,1,0,0)" clip-path="url(#_159144028833020clip-0)"/><g style="fill: rgb(64,64,64); fill-opacity: 1.0; stroke: none" transform="matrix(0,-1,1,0,-465.5,526.5)" clip-path="url(#_159144028833020clip-1)"><path d="M -130.66 501.02 L -127.97 500.79 Q -127.78 502.41 -127.09 503.44 Q -126.39 504.47 -124.92 505.11 Q -123.45 505.74 -121.62 505.74 Q -120 505.74 -118.76 505.25 Q -117.52 504.77 -116.91 503.93 Q -116.3 503.1 -116.3 502.1 Q -116.3 501.08 -116.88 500.33 Q -117.47 499.58 -118.81 499.07 Q -119.69 498.72 -122.64 498.01 Q -125.59 497.3 -126.78 496.68 Q -128.33 495.86 -129.08 494.68 Q -129.83 493.49 -129.83 492 Q -129.83 490.38 -128.91 488.97 Q -127.98 487.55 -126.21 486.82 Q -124.44 486.08 -122.27 486.08 Q -119.89 486.08 -118.06 486.86 Q -116.23 487.63 -115.26 489.12 Q -114.28 490.61 -114.2 492.5 L -116.92 492.71 Q -117.14 490.68 -118.41 489.63 Q -119.69 488.58 -122.16 488.58 Q -124.73 488.58 -125.91 489.53 Q -127.09 490.47 -127.09 491.82 Q -127.09 492.97 -126.25 493.72 Q -125.44 494.46 -121.98 495.25 Q -118.52 496.04 -117.22 496.61 Q -115.34 497.49 -114.45 498.81 Q -113.56 500.13 -113.56 501.86 Q -113.56 503.58 -114.54 505.1 Q -115.52 506.61 -117.36 507.45 Q -119.2 508.29 -121.5 508.29 Q -124.41 508.29 -126.38 507.44 Q -128.36 506.6 -129.48 504.89 Q -130.59 503.18 -130.66 501.02 Z  M -110.01 513.9 L -110.01 492.36 L -107.62 492.36 L -107.62 494.4 Q -106.76 493.21 -105.69 492.61 Q -104.62 492.02 -103.1 492.02 Q -101.1 492.02 -99.58 493.04 Q -98.05 494.07 -97.28 495.93 Q -96.51 497.8 -96.51 500.04 Q -96.51 502.41 -97.37 504.33 Q -98.22 506.24 -99.86 507.26 Q -101.49 508.29 -103.29 508.29 Q -104.6 508.29 -105.65 507.72 Q -106.71 507.16 -107.38 506.32 L -107.38 513.9 L -110.01 513.9 Z  M -107.63 500.24 Q -107.63 503.24 -106.41 504.68 Q -105.19 506.11 -103.46 506.11 Q -101.71 506.11 -100.46 504.62 Q -99.21 503.13 -99.21 500.02 Q -99.21 497.04 -100.43 495.56 Q -101.65 494.08 -103.35 494.08 Q -105.04 494.08 -106.33 495.66 Q -107.63 497.24 -107.63 500.24 Z  M -82.68 502.91 L -79.95 503.25 Q -80.6 505.65 -82.34 506.97 Q -84.09 508.29 -86.79 508.29 Q -90.21 508.29 -92.21 506.18 Q -94.21 504.07 -94.21 500.29 Q -94.21 496.35 -92.19 494.18 Q -90.17 492.02 -86.95 492.02 Q -83.82 492.02 -81.84 494.15 Q -79.87 496.27 -79.87 500.11 Q -79.87 500.35 -79.88 500.82 L -91.48 500.82 Q -91.34 503.38 -90.03 504.75 Q -88.73 506.11 -86.77 506.11 Q -85.34 506.11 -84.31 505.35 Q -83.27 504.58 -82.68 502.91 Z  M -91.34 498.66 L -82.65 498.66 Q -82.82 496.69 -83.65 495.71 Q -84.9 494.19 -86.92 494.19 Q -88.73 494.19 -89.96 495.4 Q -91.2 496.61 -91.34 498.66 Z  M -66.5 502.22 L -63.9 502.57 Q -64.32 505.24 -66.07 506.76 Q -67.82 508.29 -70.37 508.29 Q -73.57 508.29 -75.51 506.19 Q -77.45 504.1 -77.45 500.21 Q -77.45 497.69 -76.61 495.8 Q -75.78 493.91 -74.07 492.97 Q -72.37 492.02 -70.36 492.02 Q -67.82 492.02 -66.21 493.3 Q -64.61 494.58 -64.15 496.94 L -66.71 497.33 Q -67.07 495.77 -68 494.98 Q -68.93 494.19 -70.26 494.19 Q -72.25 494.19 -73.5 495.61 Q -74.75 497.04 -74.75 500.13 Q -74.75 503.27 -73.54 504.69 Q -72.34 506.11 -70.4 506.11 Q -68.86 506.11 -67.82 505.16 Q -66.78 504.21 -66.5 502.22 Z  M -61.62 489.49 L -61.62 486.46 L -59 486.46 L -59 489.49 L -61.62 489.49 Z  M -61.62 507.93 L -61.62 492.36 L -59 492.36 L -59 507.93 L -61.62 507.93 Z  M -54.35 507.93 L -54.35 494.43 L -56.67 494.43 L -56.67 492.36 L -54.35 492.36 L -54.35 490.71 Q -54.35 489.15 -54.07 488.38 Q -53.69 487.36 -52.73 486.72 Q -51.77 486.08 -50.03 486.08 Q -48.92 486.08 -47.58 486.35 L -47.97 488.65 Q -48.8 488.5 -49.53 488.5 Q -50.74 488.5 -51.23 489.01 Q -51.72 489.52 -51.72 490.93 L -51.72 492.36 L -48.69 492.36 L -48.69 494.43 L -51.72 494.43 L -51.72 507.93 L -54.35 507.93 Z  M -46.62 489.49 L -46.62 486.46 L -44 486.46 L -44 489.49 L -46.62 489.49 Z  M -46.62 507.93 L -46.62 492.36 L -44 492.36 L -44 507.93 L -46.62 507.93 Z  M -29.83 502.22 L -27.24 502.57 Q -27.66 505.24 -29.41 506.76 Q -31.16 508.29 -33.71 508.29 Q -36.91 508.29 -38.85 506.19 Q -40.78 504.1 -40.78 500.21 Q -40.78 497.69 -39.95 495.8 Q -39.11 493.91 -37.41 492.97 Q -35.71 492.02 -33.69 492.02 Q -31.16 492.02 -29.55 493.3 Q -27.94 494.58 -27.49 496.94 L -30.05 497.33 Q -30.41 495.77 -31.34 494.98 Q -32.27 494.19 -33.6 494.19 Q -35.58 494.19 -36.83 495.61 Q -38.08 497.04 -38.08 500.13 Q -38.08 503.27 -36.88 504.69 Q -35.67 506.11 -33.74 506.11 Q -32.19 506.11 -31.15 505.16 Q -30.11 504.21 -29.83 502.22 Z  M -16.26 507.93 L -16.26 486.46 L -6.75 486.46 Q -3.87 486.46 -2.38 487.04 Q -0.89 487.61 0.01 489.08 Q 0.91 490.54 0.91 492.32 Q 0.91 494.6 -0.57 496.16 Q -2.06 497.72 -5.14 498.16 Q -4.01 498.69 -3.43 499.22 Q -2.18 500.36 -1.07 502.08 L 2.66 507.93 L -0.92 507.93 L -3.75 503.46 Q -5 501.52 -5.8 500.5 Q -6.61 499.47 -7.25 499.07 Q -7.89 498.66 -8.54 498.49 Q -9.03 498.4 -10.12 498.4 L -13.42 498.4 L -13.42 507.93 L -16.26 507.93 Z  M -13.42 495.93 L -7.31 495.93 Q -5.37 495.93 -4.27 495.53 Q -3.17 495.13 -2.6 494.24 Q -2.03 493.35 -2.03 492.32 Q -2.03 490.79 -3.13 489.8 Q -4.23 488.82 -6.62 488.82 L -13.42 488.82 L -13.42 495.93 Z  M 15.17 506 Q 13.72 507.25 12.36 507.77 Q 11 508.29 9.45 508.29 Q 6.89 508.29 5.5 507.03 Q 4.12 505.77 4.12 503.82 Q 4.12 502.68 4.65 501.73 Q 5.17 500.79 6.01 500.22 Q 6.86 499.65 7.9 499.36 Q 8.68 499.15 10.25 498.96 Q 13.45 498.58 14.95 498.05 Q 14.97 497.5 14.97 497.36 Q 14.97 495.75 14.22 495.1 Q 13.22 494.21 11.22 494.21 Q 9.36 494.21 8.47 494.86 Q 7.59 495.5 7.15 497.16 L 4.58 496.8 Q 4.93 495.15 5.74 494.13 Q 6.54 493.11 8.07 492.57 Q 9.59 492.02 11.61 492.02 Q 13.59 492.02 14.83 492.49 Q 16.08 492.96 16.66 493.67 Q 17.25 494.38 17.48 495.46 Q 17.62 496.13 17.62 497.9 L 17.62 501.41 Q 17.62 505.08 17.79 506.06 Q 17.95 507.04 18.45 507.93 L 15.7 507.93 Q 15.29 507.1 15.17 506 Z  M 14.95 500.11 Q 13.51 500.71 10.65 501.11 Q 9.03 501.35 8.35 501.65 Q 7.67 501.94 7.3 502.5 Q 6.93 503.07 6.93 503.75 Q 6.93 504.8 7.74 505.5 Q 8.54 506.21 10.08 506.21 Q 11.61 506.21 12.79 505.54 Q 13.97 504.88 14.53 503.72 Q 14.95 502.83 14.95 501.08 L 14.95 500.11 Z  M 21.71 507.93 L 21.71 492.36 L 24.07 492.36 L 24.07 494.58 Q 25.79 492.02 29.03 492.02 Q 30.43 492.02 31.61 492.53 Q 32.79 493.04 33.38 493.86 Q 33.96 494.68 34.2 495.8 Q 34.35 496.54 34.35 498.36 L 34.35 507.93 L 31.71 507.93 L 31.71 498.46 Q 31.71 496.85 31.41 496.05 Q 31.1 495.25 30.31 494.78 Q 29.53 494.3 28.48 494.3 Q 26.79 494.3 25.56 495.37 Q 24.34 496.44 24.34 499.43 L 24.34 507.93 L 21.71 507.93 Z  M 37.91 509.22 L 40.48 509.6 Q 40.63 510.79 41.37 511.33 Q 42.35 512.05 44.04 512.05 Q 45.88 512.05 46.87 511.33 Q 47.87 510.6 48.23 509.27 Q 48.43 508.47 48.41 505.9 Q 46.68 507.93 44.1 507.93 Q 40.9 507.93 39.14 505.61 Q 37.38 503.3 37.38 500.07 Q 37.38 497.83 38.19 495.95 Q 38.99 494.07 40.52 493.04 Q 42.05 492.02 44.12 492.02 Q 46.87 492.02 48.66 494.24 L 48.66 492.36 L 51.08 492.36 L 51.08 505.82 Q 51.08 509.46 50.35 510.97 Q 49.62 512.49 48.01 513.36 Q 46.4 514.24 44.05 514.24 Q 41.27 514.24 39.56 512.99 Q 37.85 511.74 37.91 509.22 Z  M 40.08 499.86 Q 40.08 502.93 41.3 504.33 Q 42.52 505.74 44.35 505.74 Q 46.16 505.74 47.4 504.34 Q 48.63 502.94 48.63 499.96 Q 48.63 497.1 47.37 495.65 Q 46.1 494.21 44.3 494.21 Q 42.55 494.21 41.32 495.63 Q 40.08 497.05 40.08 499.86 Z  M 65.72 502.91 L 68.46 503.25 Q 67.8 505.65 66.06 506.97 Q 64.32 508.29 61.61 508.29 Q 58.19 508.29 56.19 506.18 Q 54.19 504.07 54.19 500.29 Q 54.19 496.35 56.21 494.18 Q 58.24 492.02 61.46 492.02 Q 64.58 492.02 66.56 494.15 Q 68.54 496.27 68.54 500.11 Q 68.54 500.35 68.52 500.82 L 56.93 500.82 Q 57.07 503.38 58.37 504.75 Q 59.68 506.11 61.63 506.11 Q 63.07 506.11 64.1 505.35 Q 65.13 504.58 65.72 502.91 Z  M 57.07 498.66 L 65.75 498.66 Q 65.58 496.69 64.75 495.71 Q 63.5 494.19 61.49 494.19 Q 59.68 494.19 58.44 495.4 Q 57.21 496.61 57.07 498.66 Z  M 85.13 514.24 Q 82.95 511.49 81.44 507.79 Q 79.93 504.1 79.93 500.15 Q 79.93 496.66 81.05 493.47 Q 82.38 489.75 85.13 486.08 L 87.02 486.08 Q 85.26 489.13 84.68 490.44 Q 83.79 492.46 83.27 494.66 Q 82.65 497.4 82.65 500.16 Q 82.65 507.21 87.02 514.24 L 85.13 514.24 Z  M 90.09 507.93 L 90.09 492.36 L 92.45 492.36 L 92.45 494.58 Q 94.17 492.02 97.4 492.02 Q 98.81 492.02 99.99 492.53 Q 101.17 493.04 101.76 493.86 Q 102.34 494.68 102.58 495.8 Q 102.73 496.54 102.73 498.36 L 102.73 507.93 L 100.09 507.93 L 100.09 498.46 Q 100.09 496.85 99.79 496.05 Q 99.48 495.25 98.69 494.78 Q 97.9 494.3 96.86 494.3 Q 95.17 494.3 93.94 495.37 Q 92.72 496.44 92.72 499.43 L 92.72 507.93 L 90.09 507.93 Z  M 106.78 507.93 L 106.78 492.36 L 109.14 492.36 L 109.14 494.55 Q 109.85 493.41 111.07 492.72 Q 112.29 492.02 113.84 492.02 Q 115.57 492.02 116.68 492.74 Q 117.79 493.46 118.25 494.74 Q 120.09 492.02 123.04 492.02 Q 125.35 492.02 126.6 493.3 Q 127.85 494.58 127.85 497.25 L 127.85 507.93 L 125.23 507.93 L 125.23 498.13 Q 125.23 496.55 124.97 495.85 Q 124.71 495.15 124.04 494.72 Q 123.37 494.3 122.46 494.3 Q 120.82 494.3 119.74 495.4 Q 118.65 496.49 118.65 498.9 L 118.65 507.93 L 116.01 507.93 L 116.01 497.82 Q 116.01 496.07 115.37 495.18 Q 114.73 494.3 113.26 494.3 Q 112.15 494.3 111.21 494.89 Q 110.26 495.47 109.83 496.6 Q 109.4 497.72 109.4 499.85 L 109.4 507.93 L 106.78 507.93 Z  M 131.78 489.49 L 131.78 486.46 L 134.41 486.46 L 134.41 489.49 L 131.78 489.49 Z  M 131.78 507.93 L 131.78 492.36 L 134.41 492.36 L 134.41 507.93 L 131.78 507.93 Z  M 136.45 508.29 L 142.67 486.08 L 144.78 486.08 L 138.57 508.29 L 136.45 508.29 Z  M 146.7 507.93 L 146.7 486.46 L 149.34 486.46 L 149.34 507.93 L 146.7 507.93 Z  M 155.85 507.93 L 153.42 507.93 L 153.42 486.46 L 156.04 486.46 L 156.04 494.11 Q 157.71 492.02 160.31 492.02 Q 161.74 492.02 163.03 492.6 Q 164.31 493.18 165.13 494.22 Q 165.96 495.27 166.43 496.75 Q 166.9 498.22 166.9 499.91 Q 166.9 503.91 164.92 506.1 Q 162.95 508.29 160.18 508.29 Q 157.43 508.29 155.85 505.97 L 155.85 507.93 Z  M 155.82 500.04 Q 155.82 502.83 156.59 504.07 Q 157.84 506.11 159.96 506.11 Q 161.68 506.11 162.95 504.61 Q 164.21 503.11 164.21 500.13 Q 164.21 497.08 163 495.64 Q 161.79 494.19 160.07 494.19 Q 158.35 494.19 157.09 495.69 Q 155.82 497.19 155.82 500.04 Z  M 169.05 503.29 L 171.66 502.88 Q 171.88 504.44 172.88 505.28 Q 173.88 506.11 175.69 506.11 Q 177.51 506.11 178.39 505.37 Q 179.27 504.63 179.27 503.63 Q 179.27 502.74 178.49 502.22 Q 177.94 501.88 175.79 501.33 Q 172.9 500.6 171.77 500.07 Q 170.65 499.54 170.07 498.59 Q 169.49 497.65 169.49 496.5 Q 169.49 495.46 169.97 494.58 Q 170.44 493.69 171.27 493.1 Q 171.88 492.65 172.94 492.33 Q 174.01 492.02 175.23 492.02 Q 177.05 492.02 178.44 492.54 Q 179.82 493.07 180.48 493.97 Q 181.15 494.88 181.38 496.38 L 178.8 496.74 Q 178.63 495.54 177.79 494.86 Q 176.94 494.19 175.41 494.19 Q 173.6 494.19 172.82 494.79 Q 172.04 495.38 172.04 496.19 Q 172.04 496.71 172.37 497.11 Q 172.69 497.54 173.38 497.82 Q 173.77 497.96 175.71 498.49 Q 178.51 499.24 179.61 499.72 Q 180.71 500.19 181.34 501.1 Q 181.98 502 181.98 503.35 Q 181.98 504.68 181.21 505.84 Q 180.44 507 178.99 507.65 Q 177.54 508.29 175.71 508.29 Q 172.68 508.29 171.08 507.02 Q 169.49 505.75 169.05 503.29 Z  M 186.83 514.24 L 184.94 514.24 Q 189.33 507.21 189.33 500.16 Q 189.33 497.41 188.69 494.69 Q 188.19 492.5 187.3 490.47 Q 186.74 489.16 184.94 486.08 L 186.83 486.08 Q 189.58 489.75 190.91 493.47 Q 192.04 496.66 192.04 500.15 Q 192.04 504.1 190.52 507.79 Q 189.01 511.49 186.83 514.24 Z "/></g><line x1="91.07" y1="35" x2="91.07" y2="957" style="stroke-width: 0.5;stroke: rgb(192,192,192);stroke-opacity: 1.0;stroke-linejoin: bevel;stroke-dasharray: 2.0, 2.0;shape-rendering:crispEdges;" transform="matrix(1,0,0,1,0,0)" clip-path="url(#_159144028833020clip-2)"/><line x1="161.49" y1="35" x2="161.49" y2="957" style="stroke-width: 0.5;stroke: rgb(192,192,192);stroke-opacity: 1.0;stroke-linejoin: bevel;stroke-dasharray: 2.0, 2.0;shape-rendering:crispEdges;" transform="matrix(1,0,0,1,0,0)" clip-path="url(#_159144028833020clip-2)"/><line x1="231.92" y1="35" x2="231.92" y2="957" style="stroke-width: 0.5;stroke: rgb(192,192,192);stroke-opacity: 1.0;stroke-linejoin: bevel;stroke-dasharray: 2.0, 2.0;shape-rendering:crispEdges;" transform="matrix(1,0,0,1,0,0)" clip-path="url(#_159144028833020clip-2)"/><line x1="302.34" y1="35" x2="302.34" y2="957" style="stroke-width: 0.5;stroke: rgb(192,192,192);stroke-opacity: 1.0;stroke-linejoin: bevel;stroke-dasharray: 2.0, 2.0;shape-rendering:crispEdges;" transform="matrix(1,0,0,1,0,0)" clip-path="url(#_159144028833020clip-2)"/><line x1="372.76" y1="35" x2="372.76" y2="957" style="stroke-width: 0.5;stroke: rgb(192,192,192);stroke-opacity: 1.0;stroke-linejoin: bevel;stroke-dasharray: 2.0, 2.0;shape-rendering:crispEdges;" transform="matrix(1,0,0,1,0,0)" clip-path="url(#_159144028833020clip-2)"/><line x1="443.18" y1="35" x2="443.18" y2="957" style="stroke-width: 0.5;stroke: rgb(192,192,192);stroke-opacity: 1.0;stroke-linejoin: bevel;stroke-dasharray: 2.0, 2.0;shape-rendering:crispEdges;" transform="matrix(1,0,0,1,0,0)" clip-path="url(#_159144028833020clip-2)"/><line x1="513.6" y1="35" x2="513.6" y2="957" style="stroke-width: 0.5;stroke: rgb(192,192,192);stroke-opacity: 1.0;stroke-linejoin: bevel;stroke-dasharray: 2.0, 2.0;shape-rendering:crispEdges;" transform="matrix(1,0,0,1,0,0)" clip-path="url(#_159144028833020clip-2)"/><line x1="584.02" y1="35" x2="584.02" y2="957" style="stroke-width: 0.5;stroke: rgb(192,192,192);stroke-opacity: 1.0;stroke-linejoin: bevel;stroke-dasharray: 2.0, 2.0;shape-rendering:crispEdges;" transform="matrix(1,0,0,1,0,0)" clip-path="url(#_159144028833020clip-2)"/><line x1="654.45" y1="35" x2="654.45" y2="957" style="stroke-width: 0.5;stroke: rgb(192,192,192);stroke-opacity: 1.0;stroke-linejoin: bevel;stroke-dasharray: 2.0, 2.0;shape-rendering:crispEdges;" transform="matrix(1,0,0,1,0,0)" clip-path="url(#_159144028833020clip-2)"/><line x1="724.87" y1="35" x2="724.87" y2="957" style="stroke-width: 0.5;stroke: rgb(192,192,192);stroke-opacity: 1.0;stroke-linejoin: bevel;stroke-dasharray: 2.0, 2.0;shape-rendering:crispEdges;" transform="matrix(1,0,0,1,0,0)" clip-path="url(#_159144028833020clip-2)"/><line x1="795.29" y1="35" x2="795.29" y2="957" style="stroke-width: 0.5;stroke: rgb(192,192,192);stroke-opacity: 1.0;stroke-linejoin: bevel;stroke-dasharray: 2.0, 2.0;shape-rendering:crispEdges;" transform="matrix(1,0,0,1,0,0)" clip-path="url(#_159144028833020clip-2)"/><line x1="865.71" y1="35" x2="865.71" y2="957" style="stroke-width: 0.5;stroke: rgb(192,192,192);stroke-opacity: 1.0;stroke-linejoin: bevel;stroke-dasharray: 2.0, 2.0;shape-rendering:crispEdges;" transform="matrix(1,0,0,1,0,0)" clip-path="url(#_159144028833020clip-2)"/><line x1="936.13" y1="35" x2="936.13" y2="957" style="stroke-width: 0.5;stroke: rgb(192,192,192);stroke-opacity: 1.0;stroke-linejoin: bevel;stroke-dasharray: 2.0, 2.0;shape-rendering:crispEdges;" transform="matrix(1,0,0,1,0,0)" clip-path="url(#_159144028833020clip-2)"/><line x1="1006.55" y1="35" x2="1006.55" y2="957" style="stroke-width: 0.5;stroke: rgb(192,192,192);stroke-opacity: 1.0;stroke-linejoin: bevel;stroke-dasharray: 2.0, 2.0;shape-rendering:crispEdges;" transform="matrix(1,0,0,1,0,0)" clip-path="url(#_159144028833020clip-2)"/><line x1="1076.98" y1="35" x2="1076.98" y2="957" style="stroke-width: 0.5;stroke: rgb(192,192,192);stroke-opacity: 1.0;stroke-linejoin: bevel;stroke-dasharray: 2.0, 2.0;shape-rendering:crispEdges;" transform="matrix(1,0,0,1,0,0)" clip-path="url(#_159144028833020clip-2)"/><line x1="1147.4" y1="35" x2="1147.4" y2="957" style="stroke-width: 0.5;stroke: rgb(192,192,192);stroke-opacity: 1.0;stroke-linejoin: bevel;stroke-dasharray: 2.0, 2.0;shape-rendering:crispEdges;" transform="matrix(1,0,0,1,0,0)" clip-path="url(#_159144028833020clip-2)"/><line x1="1217.82" y1="35" x2="1217.82" y2="957" style="stroke-width: 0.5;stroke: rgb(192,192,192);stroke-opacity: 1.0;stroke-linejoin: bevel;stroke-dasharray: 2.0, 2.0;shape-rendering:crispEdges;" transform="matrix(1,0,0,1,0,0)" clip-path="url(#_159144028833020clip-2)"/><line x1="1288.24" y1="35" x2="1288.24" y2="957" style="stroke-width: 0.5;stroke: rgb(192,192,192);stroke-opacity: 1.0;stroke-linejoin: bevel;stroke-dasharray: 2.0, 2.0;shape-rendering:crispEdges;" transform="matrix(1,0,0,1,0,0)" clip-path="url(#_159144028833020clip-2)"/><line x1="1358.66" y1="35" x2="1358.66" y2="957" style="stroke-width: 0.5;stroke: rgb(192,192,192);stroke-opacity: 1.0;stroke-linejoin: bevel;stroke-dasharray: 2.0, 2.0;shape-rendering:crispEdges;" transform="matrix(1,0,0,1,0,0)" clip-path="url(#_159144028833020clip-2)"/><line x1="1429.08" y1="35" x2="1429.08" y2="957" style="stroke-width: 0.5;stroke: rgb(192,192,192);stroke-opacity: 1.0;stroke-linejoin: bevel;stroke-dasharray: 2.0, 2.0;shape-rendering:crispEdges;" transform="matrix(1,0,0,1,0,0)" clip-path="url(#_159144028833020clip-2)"/><line x1="1499.5" y1="35" x2="1499.5" y2="957" style="stroke-width: 0.5;stroke: rgb(192,192,192);stroke-opacity: 1.0;stroke-linejoin: bevel;stroke-dasharray: 2.0, 2.0;shape-rendering:crispEdges;" transform="matrix(1,0,0,1,0,0)" clip-path="url(#_159144028833020clip-2)"/><line x1="1569.93" y1="35" x2="1569.93" y2="957" style="stroke-width: 0.5;stroke: rgb(192,192,192);stroke-opacity: 1.0;stroke-linejoin: bevel;stroke-dasharray: 2.0, 2.0;shape-rendering:crispEdges;" transform="matrix(1,0,0,1,0,0)" clip-path="url(#_159144028833020clip-2)"/><line x1="1640.35" y1="35" x2="1640.35" y2="957" style="stroke-width: 0.5;stroke: rgb(192,192,192);stroke-opacity: 1.0;stroke-linejoin: bevel;stroke-dasharray: 2.0, 2.0;shape-rendering:crispEdges;" transform="matrix(1,0,0,1,0,0)" clip-path="url(#_159144028833020clip-2)"/><line x1="1710.77" y1="35" x2="1710.77" y2="957" style="stroke-width: 0.5;stroke: rgb(192,192,192);stroke-opacity: 1.0;stroke-linejoin: bevel;stroke-dasharray: 2.0, 2.0;shape-rendering:crispEdges;" transform="matrix(1,0,0,1,0,0)" clip-path="url(#_159144028833020clip-2)"/><line x1="1781.19" y1="35" x2="1781.19" y2="957" style="stroke-width: 0.5;stroke: rgb(192,192,192);stroke-opacity: 1.0;stroke-linejoin: bevel;stroke-dasharray: 2.0, 2.0;shape-rendering:crispEdges;" transform="matrix(1,0,0,1,0,0)" clip-path="url(#_159144028833020clip-2)"/><line x1="1851.61" y1="35" x2="1851.61" y2="957" style="stroke-width: 0.5;stroke: rgb(192,192,192);stroke-opacity: 1.0;stroke-linejoin: bevel;stroke-dasharray: 2.0, 2.0;shape-rendering:crispEdges;" transform="matrix(1,0,0,1,0,0)" clip-path="url(#_159144028833020clip-2)"/><rect x="57" y="35" width="1851" height="922" style="stroke-width: 0.5;stroke: rgb(0,0,0);stroke-opacity: 1.0;stroke-linecap: round;stroke-linejoin: round;shape-rendering:crispEdges;; fill: none" transform="matrix(1,0,0,1,0,0)" clip-path="url(#_159144028833020clip-0)"/></svg>
