<!DOCTYPE svg PUBLIC "-//W3C//DTD SVG 1.1//EN" "http://www.w3.org/Graphics/SVG/1.1/DTD/svg11.dtd">
<svg xmlns="http://www.w3.org/2000/svg" xmlns:xlink="http://www.w3.org/1999/xlink" xmlns:jfreesvg="http://www.jfree.org/jfreesvg/svg" width="1920" height="1080" text-rendering="auto" shape-rendering="auto">
<defs><clipPath id="_20915057689600clip-0"><path d="M 0 0 L 1920 0 L 1920 1080 L 0 1080 L 0 0 Z "/></clipPath>
<clipPath id="_20915057689600clip-1"><path d="M 5 27 L 5 1075 L 1915 1075 L 1915 27 Z "/></clipPath>
</defs>
<rect x="0" y="0" width="1920" height="1080" style="fill: rgb(255,255,255); fill-opacity: 1.0" transform="matrix(1,0,0,1,0,0)" clip-path="url(#_20915057689600clip-0)"/><g transform="matrix(1,0,0,1,0,0)"><text x="859" y="21.01" style="fill: rgb(0,0,0); fill-opacity: 1.0; font-family: Tahoma; font-size: 20px; font-weight: bold;" clip-path="url(#_20915057689600clip-0)">Weights Breakdown</text></g><rect x="5" y="27" width="1910" height="1048" style="fill: rgb(255,255,255); fill-opacity: 0.0" transform="matrix(1,0,0,1,0,0)" clip-path="url(#_20915057689600clip-0)"/><rect x="5" y="27" width="1910" height="1048" style="stroke-width: 0.5;stroke: rgb(0,0,0);stroke-opacity: 1.0;stroke-linecap: round;stroke-linejoin: round;shape-rendering:crispEdges;; fill: none" transform="matrix(1,0,0,1,0,0)" clip-path="url(#_20915057689600clip-0)"/><g style="fill: rgb(128,128,128); fill-opacity: 1.0; stroke: none" transform="matrix(1,0,0,1,0,0)" clip-path="url(#_20915057689600clip-1)"><path d="M 964 136.85 C 1072.97 136.85 1177.64 179.39 1255.71 255.41 L 964 555 Z "/></g><g style="fill: rgb(128,128,128); fill-opacity: 1.0; stroke: none" transform="matrix(1,0,0,1,0,0)" clip-path="url(#_20915057689600clip-1)"><path d="M 1255.71 255.41 C 1307.48 305.82 1345.31 368.78 1365.5 438.16 L 964 555 Z "/></g><g style="fill: rgb(128,128,128); fill-opacity: 1.0; stroke: none" transform="matrix(1,0,0,1,0,0)" clip-path="url(#_20915057689600clip-1)"><path d="M 1365.5 438.16 C 1367.52 445.1 1369.35 452.08 1371.01 459.11 L 964 555 Z "/></g><g style="fill: rgb(128,128,128); fill-opacity: 1.0; stroke: none" transform="matrix(1,0,0,1,0,0)" clip-path="url(#_20915057689600clip-1)"><path d="M 1371.01 459.11 C 1373.28 468.74 1375.21 478.45 1376.79 488.22 L 964 555 Z "/></g><g style="fill: rgb(128,128,128); fill-opacity: 1.0; stroke: none" transform="matrix(1,0,0,1,0,0)" clip-path="url(#_20915057689600clip-1)"><path d="M 1376.79 488.22 C 1378.51 498.87 1379.82 509.58 1380.71 520.33 L 964 555 Z "/></g><g style="fill: rgb(128,128,128); fill-opacity: 1.0; stroke: none" transform="matrix(1,0,0,1,0,0)" clip-path="url(#_20915057689600clip-1)"><path d="M 1380.71 520.33 C 1383.68 556.04 1382.05 591.99 1375.86 627.29 L 964 555 Z "/></g><g style="fill: rgb(128,128,128); fill-opacity: 1.0; stroke: none" transform="matrix(1,0,0,1,0,0)" clip-path="url(#_20915057689600clip-1)"><path d="M 1375.86 627.29 C 1366.58 680.14 1347.22 730.72 1318.82 776.25 L 964 555 Z "/></g><g style="fill: rgb(128,128,128); fill-opacity: 1.0; stroke: none" transform="matrix(1,0,0,1,0,0)" clip-path="url(#_20915057689600clip-1)"><path d="M 1318.82 776.25 C 1251.32 884.5 1138.1 956.02 1011.35 970.46 L 964 555 Z "/></g><g style="fill: rgb(128,128,128); fill-opacity: 1.0; stroke: none" transform="matrix(1,0,0,1,0,0)" clip-path="url(#_20915057689600clip-1)"><path d="M 1011.35 970.46 C 993.61 972.48 975.76 973.37 957.9 973.11 L 964 555 Z "/></g><g style="fill: rgb(128,128,128); fill-opacity: 1.0; stroke: none" transform="matrix(1,0,0,1,0,0)" clip-path="url(#_20915057689600clip-1)"><path d="M 957.9 973.11 C 950.91 973.01 943.92 972.73 936.94 972.28 L 964 555 Z "/></g><g style="fill: rgb(128,128,128); fill-opacity: 1.0; stroke: none" transform="matrix(1,0,0,1,0,0)" clip-path="url(#_20915057689600clip-1)"><path d="M 936.94 972.28 C 798.47 963.3 673.48 886.21 603.29 766.52 C 533.1 646.82 526.86 500.1 586.63 374.87 L 964 555 Z "/></g><g style="fill: rgb(128,128,128); fill-opacity: 1.0; stroke: none" transform="matrix(1,0,0,1,0,0)" clip-path="url(#_20915057689600clip-1)"><path d="M 586.63 374.87 C 656.05 229.45 802.85 136.85 964 136.85 L 964 555 Z "/></g><g style="fill: rgb(255,85,85); fill-opacity: 1.0; stroke: none" transform="matrix(1,0,0,1,0,0)" clip-path="url(#_20915057689600clip-1)"><path d="M 960 132.85 C 1068.97 132.85 1173.64 175.39 1251.71 251.41 L 960 551 Z "/></g><g style="stroke-width: 0.5;stroke: rgb(128,128,128);stroke-opacity: 1.0;stroke-linecap: round;stroke-linejoin: round;shape-rendering:geometricPrecision;; fill: none" transform="matrix(1,0,0,1,0,0)" clip-path="url(#_20915057689600clip-1)"><path d="M 960 132.85 C 1068.97 132.85 1173.64 175.39 1251.71 251.41 L 960 551 Z "/></g><g style="fill: rgb(85,85,255); fill-opacity: 1.0; stroke: none" transform="matrix(1,0,0,1,0,0)" clip-path="url(#_20915057689600clip-1)"><path d="M 1251.71 251.41 C 1303.48 301.82 1341.31 364.78 1361.5 434.16 L 960 551 Z "/></g><g style="stroke-width: 0.5;stroke: rgb(128,128,128);stroke-opacity: 1.0;stroke-linecap: round;stroke-linejoin: round;shape-rendering:geometricPrecision;; fill: none" transform="matrix(1,0,0,1,0,0)" clip-path="url(#_20915057689600clip-1)"><path d="M 1251.71 251.41 C 1303.48 301.82 1341.31 364.78 1361.5 434.16 L 960 551 Z "/></g><g style="fill: rgb(85,255,85); fill-opacity: 1.0; stroke: none" transform="matrix(1,0,0,1,0,0)" clip-path="url(#_20915057689600clip-1)"><path d="M 1361.5 434.16 C 1363.52 441.1 1365.35 448.08 1367.01 455.11 L 960 551 Z "/></g><g style="stroke-width: 0.5;stroke: rgb(128,128,128);stroke-opacity: 1.0;stroke-linecap: round;stroke-linejoin: round;shape-rendering:geometricPrecision;; fill: none" transform="matrix(1,0,0,1,0,0)" clip-path="url(#_20915057689600clip-1)"><path d="M 1361.5 434.16 C 1363.52 441.1 1365.35 448.08 1367.01 455.11 L 960 551 Z "/></g><g style="fill: rgb(255,255,85); fill-opacity: 1.0; stroke: none" transform="matrix(1,0,0,1,0,0)" clip-path="url(#_20915057689600clip-1)"><path d="M 1367.01 455.11 C 1369.28 464.74 1371.21 474.45 1372.79 484.22 L 960 551 Z "/></g><g style="stroke-width: 0.5;stroke: rgb(128,128,128);stroke-opacity: 1.0;stroke-linecap: round;stroke-linejoin: round;shape-rendering:geometricPrecision;; fill: none" transform="matrix(1,0,0,1,0,0)" clip-path="url(#_20915057689600clip-1)"><path d="M 1367.01 455.11 C 1369.28 464.74 1371.21 474.45 1372.79 484.22 L 960 551 Z "/></g><g style="fill: rgb(255,85,255); fill-opacity: 1.0; stroke: none" transform="matrix(1,0,0,1,0,0)" clip-path="url(#_20915057689600clip-1)"><path d="M 1372.79 484.22 C 1374.51 494.87 1375.82 505.58 1376.71 516.33 L 960 551 Z "/></g><g style="stroke-width: 0.5;stroke: rgb(128,128,128);stroke-opacity: 1.0;stroke-linecap: round;stroke-linejoin: round;shape-rendering:geometricPrecision;; fill: none" transform="matrix(1,0,0,1,0,0)" clip-path="url(#_20915057689600clip-1)"><path d="M 1372.79 484.22 C 1374.51 494.87 1375.82 505.58 1376.71 516.33 L 960 551 Z "/></g><g style="fill: rgb(85,255,255); fill-opacity: 1.0; stroke: none" transform="matrix(1,0,0,1,0,0)" clip-path="url(#_20915057689600clip-1)"><path d="M 1376.71 516.33 C 1379.68 552.04 1378.05 587.99 1371.86 623.29 L 960 551 Z "/></g><g style="stroke-width: 0.5;stroke: rgb(128,128,128);stroke-opacity: 1.0;stroke-linecap: round;stroke-linejoin: round;shape-rendering:geometricPrecision;; fill: none" transform="matrix(1,0,0,1,0,0)" clip-path="url(#_20915057689600clip-1)"><path d="M 1376.71 516.33 C 1379.68 552.04 1378.05 587.99 1371.86 623.29 L 960 551 Z "/></g><g style="fill: rgb(255,175,175); fill-opacity: 1.0; stroke: none" transform="matrix(1,0,0,1,0,0)" clip-path="url(#_20915057689600clip-1)"><path d="M 1371.86 623.29 C 1362.58 676.14 1343.22 726.72 1314.82 772.25 L 960 551 Z "/></g><g style="stroke-width: 0.5;stroke: rgb(128,128,128);stroke-opacity: 1.0;stroke-linecap: round;stroke-linejoin: round;shape-rendering:geometricPrecision;; fill: none" transform="matrix(1,0,0,1,0,0)" clip-path="url(#_20915057689600clip-1)"><path d="M 1371.86 623.29 C 1362.58 676.14 1343.22 726.72 1314.82 772.25 L 960 551 Z "/></g><g style="fill: rgb(128,128,128); fill-opacity: 1.0; stroke: none" transform="matrix(1,0,0,1,0,0)" clip-path="url(#_20915057689600clip-1)"><path d="M 1314.82 772.25 C 1247.32 880.5 1134.1 952.02 1007.35 966.46 L 960 551 Z "/></g><g style="stroke-width: 0.5;stroke: rgb(128,128,128);stroke-opacity: 1.0;stroke-linecap: round;stroke-linejoin: round;shape-rendering:geometricPrecision;; fill: none" transform="matrix(1,0,0,1,0,0)" clip-path="url(#_20915057689600clip-1)"><path d="M 1314.82 772.25 C 1247.32 880.5 1134.1 952.02 1007.35 966.46 L 960 551 Z "/></g><g style="fill: rgb(192,0,0); fill-opacity: 1.0; stroke: none" transform="matrix(1,0,0,1,0,0)" clip-path="url(#_20915057689600clip-1)"><path d="M 1007.35 966.46 C 989.61 968.48 971.76 969.37 953.9 969.11 L 960 551 Z "/></g><g style="stroke-width: 0.5;stroke: rgb(128,128,128);stroke-opacity: 1.0;stroke-linecap: round;stroke-linejoin: round;shape-rendering:geometricPrecision;; fill: none" transform="matrix(1,0,0,1,0,0)" clip-path="url(#_20915057689600clip-1)"><path d="M 1007.35 966.46 C 989.61 968.48 971.76 969.37 953.9 969.11 L 960 551 Z "/></g><g style="fill: rgb(0,0,192); fill-opacity: 1.0; stroke: none" transform="matrix(1,0,0,1,0,0)" clip-path="url(#_20915057689600clip-1)"><path d="M 953.9 969.11 C 946.91 969.01 939.92 968.73 932.94 968.28 L 960 551 Z "/></g><g style="stroke-width: 0.5;stroke: rgb(128,128,128);stroke-opacity: 1.0;stroke-linecap: round;stroke-linejoin: round;shape-rendering:geometricPrecision;; fill: none" transform="matrix(1,0,0,1,0,0)" clip-path="url(#_20915057689600clip-1)"><path d="M 953.9 969.11 C 946.91 969.01 939.92 968.73 932.94 968.28 L 960 551 Z "/></g><g style="fill: rgb(0,192,0); fill-opacity: 1.0; stroke: none" transform="matrix(1,0,0,1,0,0)" clip-path="url(#_20915057689600clip-1)"><path d="M 932.94 968.28 C 794.47 959.3 669.48 882.21 599.29 762.52 C 529.1 642.82 522.86 496.1 582.63 370.87 L 960 551 Z "/></g><g style="stroke-width: 0.5;stroke: rgb(128,128,128);stroke-opacity: 1.0;stroke-linecap: round;stroke-linejoin: round;shape-rendering:geometricPrecision;; fill: none" transform="matrix(1,0,0,1,0,0)" clip-path="url(#_20915057689600clip-1)"><path d="M 932.94 968.28 C 794.47 959.3 669.48 882.21 599.29 762.52 C 529.1 642.82 522.86 496.1 582.63 370.87 L 960 551 Z "/></g><g style="fill: rgb(192,192,0); fill-opacity: 1.0; stroke: none" transform="matrix(1,0,0,1,0,0)" clip-path="url(#_20915057689600clip-1)"><path d="M 582.63 370.87 C 652.05 225.45 798.85 132.85 960 132.85 L 960 551 Z "/></g><g style="stroke-width: 0.5;stroke: rgb(128,128,128);stroke-opacity: 1.0;stroke-linecap: round;stroke-linejoin: round;shape-rendering:geometricPrecision;; fill: none" transform="matrix(1,0,0,1,0,0)" clip-path="url(#_20915057689600clip-1)"><path d="M 582.63 370.87 C 652.05 225.45 798.85 132.85 960 132.85 L 960 551 Z "/></g><g style="stroke-width: 0.5;stroke: rgb(0,0,0);stroke-opacity: 1.0;stroke-linecap: square;shape-rendering:geometricPrecision;; fill: none" transform="matrix(1,0,0,1,0,0)" clip-path="url(#_20915057689600clip-1)"><path d="M 483.23 178.71 C 519.84 178.71 725.18 178.71 759.23 232.69"/></g><rect x="292.23" y="157.71" width="193" height="46" style="fill: rgb(151,151,151); fill-opacity: 0.5019608" transform="matrix(1,0,0,1,0,0)" clip-path="url(#_20915057689600clip-1)"/><rect x="290.23" y="155.71" width="193" height="46" style="fill: rgb(255,255,192); fill-opacity: 1.0" transform="matrix(1,0,0,1,0,0)" clip-path="url(#_20915057689600clip-1)"/><rect x="290.23" y="155.71" width="193" height="46" style="stroke-width: 0.5;stroke: rgb(0,0,0);stroke-opacity: 1.0;stroke-linecap: square;shape-rendering:geometricPrecision;; fill: none" transform="matrix(1,0,0,1,0,0)" clip-path="url(#_20915057689600clip-1)"/><g transform="matrix(1,0,0,1,0,0)"><text x="292.23" y="189.88" style="fill: rgb(0,0,0); fill-opacity: 1.0; font-family: sans-serif; font-size: 32px;" clip-path="url(#_20915057689600clip-1)">Fuel: 17,91%</text></g><g style="stroke-width: 0.5;stroke: rgb(0,0,0);stroke-opacity: 1.0;stroke-linecap: square;shape-rendering:geometricPrecision;; fill: none" transform="matrix(1,0,0,1,0,0)" clip-path="url(#_20915057689600clip-1)"><path d="M 475.37 773.65 C 519.84 773.65 580.3 773.65 635.36 741.36"/></g><rect x="178.37" y="752.65" width="299" height="46" style="fill: rgb(151,151,151); fill-opacity: 0.5019608" transform="matrix(1,0,0,1,0,0)" clip-path="url(#_20915057689600clip-1)"/><rect x="176.37" y="750.65" width="299" height="46" style="fill: rgb(255,255,192); fill-opacity: 1.0" transform="matrix(1,0,0,1,0,0)" clip-path="url(#_20915057689600clip-1)"/><rect x="176.37" y="750.65" width="299" height="46" style="stroke-width: 0.5;stroke: rgb(0,0,0);stroke-opacity: 1.0;stroke-linecap: square;shape-rendering:geometricPrecision;; fill: none" transform="matrix(1,0,0,1,0,0)" clip-path="url(#_20915057689600clip-1)"/><g transform="matrix(1,0,0,1,0,0)"><text x="178.37" y="784.82" style="fill: rgb(0,0,0); fill-opacity: 1.0; font-family: sans-serif; font-size: 32px;" clip-path="url(#_20915057689600clip-1)">Passengers: 31,06%</text></g><g style="stroke-width: 0.5;stroke: rgb(0,0,0);stroke-opacity: 1.0;stroke-linecap: square;shape-rendering:geometricPrecision;; fill: none" transform="matrix(1,0,0,1,0,0)" clip-path="url(#_20915057689600clip-1)"><path d="M 495.02 990.81 C 519.84 990.81 942.54 990.81 945.07 927.04"/></g><rect x="310.02" y="969.81" width="187" height="46" style="fill: rgb(151,151,151); fill-opacity: 0.5019608" transform="matrix(1,0,0,1,0,0)" clip-path="url(#_20915057689600clip-1)"/><rect x="308.02" y="967.81" width="187" height="46" style="fill: rgb(255,255,192); fill-opacity: 1.0" transform="matrix(1,0,0,1,0,0)" clip-path="url(#_20915057689600clip-1)"/><rect x="308.02" y="967.81" width="187" height="46" style="stroke-width: 0.5;stroke: rgb(0,0,0);stroke-opacity: 1.0;stroke-linecap: square;shape-rendering:geometricPrecision;; fill: none" transform="matrix(1,0,0,1,0,0)" clip-path="url(#_20915057689600clip-1)"/><g transform="matrix(1,0,0,1,0,0)"><text x="310.02" y="1001.99" style="fill: rgb(0,0,0); fill-opacity: 1.0; font-family: sans-serif; font-size: 32px;" clip-path="url(#_20915057689600clip-1)">Crew: 0,80%</text></g><g style="stroke-width: 0.5;stroke: rgb(0,0,0);stroke-opacity: 1.0;stroke-linecap: square;shape-rendering:geometricPrecision;; fill: none" transform="matrix(1,0,0,1,0,0)" clip-path="url(#_20915057689600clip-1)"><path d="M 1433.02 143.23 C 1400.16 143.23 1125.73 143.23 1101.7 202.36"/></g><rect x="1435.02" y="122.23" width="262" height="46" style="fill: rgb(151,151,151); fill-opacity: 0.5019608" transform="matrix(1,0,0,1,0,0)" clip-path="url(#_20915057689600clip-1)"/><rect x="1433.02" y="120.23" width="262" height="46" style="fill: rgb(255,255,192); fill-opacity: 1.0" transform="matrix(1,0,0,1,0,0)" clip-path="url(#_20915057689600clip-1)"/><rect x="1433.02" y="120.23" width="262" height="46" style="stroke-width: 0.5;stroke: rgb(0,0,0);stroke-opacity: 1.0;stroke-linecap: square;shape-rendering:geometricPrecision;; fill: none" transform="matrix(1,0,0,1,0,0)" clip-path="url(#_20915057689600clip-1)"/><g transform="matrix(1,0,0,1,0,0)"><text x="1435.02" y="154.4" style="fill: rgb(0,0,0); fill-opacity: 1.0; font-family: sans-serif; font-size: 32px;" clip-path="url(#_20915057689600clip-1)">Fuselage: 12,29%</text></g><g style="stroke-width: 0.5;stroke: rgb(0,0,0);stroke-opacity: 1.0;stroke-linecap: square;shape-rendering:geometricPrecision;; fill: none" transform="matrix(1,0,0,1,0,0)" clip-path="url(#_20915057689600clip-1)"><path d="M 1444.5 324.34 C 1400.16 324.34 1337.31 324.34 1282.6 357.2"/></g><rect x="1446.5" y="303.34" width="185" height="46" style="fill: rgb(151,151,151); fill-opacity: 0.5019608" transform="matrix(1,0,0,1,0,0)" clip-path="url(#_20915057689600clip-1)"/><rect x="1444.5" y="301.34" width="185" height="46" style="fill: rgb(255,255,192); fill-opacity: 1.0" transform="matrix(1,0,0,1,0,0)" clip-path="url(#_20915057689600clip-1)"/><rect x="1444.5" y="301.34" width="185" height="46" style="stroke-width: 0.5;stroke: rgb(0,0,0);stroke-opacity: 1.0;stroke-linecap: square;shape-rendering:geometricPrecision;; fill: none" transform="matrix(1,0,0,1,0,0)" clip-path="url(#_20915057689600clip-1)"/><g transform="matrix(1,0,0,1,0,0)"><text x="1446.5" y="335.51" style="fill: rgb(0,0,0); fill-opacity: 1.0; font-family: sans-serif; font-size: 32px;" clip-path="url(#_20915057689600clip-1)">Wing: 8,21%</text></g><g style="stroke-width: 0.5;stroke: rgb(0,0,0);stroke-opacity: 1.0;stroke-linecap: square;shape-rendering:geometricPrecision;; fill: none" transform="matrix(1,0,0,1,0,0)" clip-path="url(#_20915057689600clip-1)"><path d="M 1447.12 439 C 1400.16 439 1385.67 439 1323.95 455.24"/></g><rect x="1449.12" y="418" width="317" height="46" style="fill: rgb(151,151,151); fill-opacity: 0.5019608" transform="matrix(1,0,0,1,0,0)" clip-path="url(#_20915057689600clip-1)"/><rect x="1447.12" y="416" width="317" height="46" style="fill: rgb(255,255,192); fill-opacity: 1.0" transform="matrix(1,0,0,1,0,0)" clip-path="url(#_20915057689600clip-1)"/><rect x="1447.12" y="416" width="317" height="46" style="stroke-width: 0.5;stroke: rgb(0,0,0);stroke-opacity: 1.0;stroke-linecap: square;shape-rendering:geometricPrecision;; fill: none" transform="matrix(1,0,0,1,0,0)" clip-path="url(#_20915057689600clip-1)"/><g transform="matrix(1,0,0,1,0,0)"><text x="1449.12" y="450.17" style="fill: rgb(0,0,0); fill-opacity: 1.0; font-family: sans-serif; font-size: 32px;" clip-path="url(#_20915057689600clip-1)">Horizontal Tail: 0,82%</text></g><g style="stroke-width: 0.5;stroke: rgb(0,0,0);stroke-opacity: 1.0;stroke-linecap: square;shape-rendering:geometricPrecision;; fill: none" transform="matrix(1,0,0,1,0,0)" clip-path="url(#_20915057689600clip-1)"><path d="M 1447.45 489 C 1400.16 465.33 1391.74 465.33 1329.14 477.75"/></g><rect x="1449.45" y="468" width="280" height="46" style="fill: rgb(151,151,151); fill-opacity: 0.5019608" transform="matrix(1,0,0,1,0,0)" clip-path="url(#_20915057689600clip-1)"/><rect x="1447.45" y="466" width="280" height="46" style="fill: rgb(255,255,192); fill-opacity: 1.0" transform="matrix(1,0,0,1,0,0)" clip-path="url(#_20915057689600clip-1)"/><rect x="1447.45" y="466" width="280" height="46" style="stroke-width: 0.5;stroke: rgb(0,0,0);stroke-opacity: 1.0;stroke-linecap: square;shape-rendering:geometricPrecision;; fill: none" transform="matrix(1,0,0,1,0,0)" clip-path="url(#_20915057689600clip-1)"/><g transform="matrix(1,0,0,1,0,0)"><text x="1449.45" y="500.17" style="fill: rgb(0,0,0); fill-opacity: 1.0; font-family: sans-serif; font-size: 32px;" clip-path="url(#_20915057689600clip-1)">Vertical Tail: 1,13%</text></g><g style="stroke-width: 0.5;stroke: rgb(0,0,0);stroke-opacity: 1.0;stroke-linecap: square;shape-rendering:geometricPrecision;; fill: none" transform="matrix(1,0,0,1,0,0)" clip-path="url(#_20915057689600clip-1)"><path d="M 1447.73 539 C 1400.16 497.57 1396.9 497.57 1333.55 505.32"/></g><rect x="1449.73" y="518" width="235" height="46" style="fill: rgb(151,151,151); fill-opacity: 0.5019608" transform="matrix(1,0,0,1,0,0)" clip-path="url(#_20915057689600clip-1)"/><rect x="1447.73" y="516" width="235" height="46" style="fill: rgb(255,255,192); fill-opacity: 1.0" transform="matrix(1,0,0,1,0,0)" clip-path="url(#_20915057689600clip-1)"/><rect x="1447.73" y="516" width="235" height="46" style="stroke-width: 0.5;stroke: rgb(0,0,0);stroke-opacity: 1.0;stroke-linecap: square;shape-rendering:geometricPrecision;; fill: none" transform="matrix(1,0,0,1,0,0)" clip-path="url(#_20915057689600clip-1)"/><g transform="matrix(1,0,0,1,0,0)"><text x="1449.73" y="550.17" style="fill: rgb(0,0,0); fill-opacity: 1.0; font-family: sans-serif; font-size: 32px;" clip-path="url(#_20915057689600clip-1)">Nacelles: 1,23%</text></g><g style="stroke-width: 0.5;stroke: rgb(0,0,0);stroke-opacity: 1.0;stroke-linecap: square;shape-rendering:geometricPrecision;; fill: none" transform="matrix(1,0,0,1,0,0)" clip-path="url(#_20915057689600clip-1)"><path d="M 1447.89 589 C 1400.16 570.96 1399.71 570.96 1335.95 568.07"/></g><rect x="1449.89" y="568" width="322" height="46" style="fill: rgb(151,151,151); fill-opacity: 0.5019608" transform="matrix(1,0,0,1,0,0)" clip-path="url(#_20915057689600clip-1)"/><rect x="1447.89" y="566" width="322" height="46" style="fill: rgb(255,255,192); fill-opacity: 1.0" transform="matrix(1,0,0,1,0,0)" clip-path="url(#_20915057689600clip-1)"/><rect x="1447.89" y="566" width="322" height="46" style="stroke-width: 0.5;stroke: rgb(0,0,0);stroke-opacity: 1.0;stroke-linecap: square;shape-rendering:geometricPrecision;; fill: none" transform="matrix(1,0,0,1,0,0)" clip-path="url(#_20915057689600clip-1)"/><g transform="matrix(1,0,0,1,0,0)"><text x="1449.89" y="600.17" style="fill: rgb(0,0,0); fill-opacity: 1.0; font-family: sans-serif; font-size: 32px;" clip-path="url(#_20915057689600clip-1)">Landing Gears: 4,09%</text></g><g style="stroke-width: 0.5;stroke: rgb(0,0,0);stroke-opacity: 1.0;stroke-linecap: square;shape-rendering:geometricPrecision;; fill: none" transform="matrix(1,0,0,1,0,0)" clip-path="url(#_20915057689600clip-1)"><path d="M 1446.33 708.38 C 1400.16 708.38 1371.06 708.38 1311.46 685.56"/></g><rect x="1448.33" y="687.38" width="285" height="46" style="fill: rgb(151,151,151); fill-opacity: 0.5019608" transform="matrix(1,0,0,1,0,0)" clip-path="url(#_20915057689600clip-1)"/><rect x="1446.33" y="685.38" width="285" height="46" style="fill: rgb(255,255,192); fill-opacity: 1.0" transform="matrix(1,0,0,1,0,0)" clip-path="url(#_20915057689600clip-1)"/><rect x="1446.33" y="685.38" width="285" height="46" style="stroke-width: 0.5;stroke: rgb(0,0,0);stroke-opacity: 1.0;stroke-linecap: square;shape-rendering:geometricPrecision;; fill: none" transform="matrix(1,0,0,1,0,0)" clip-path="url(#_20915057689600clip-1)"/><g transform="matrix(1,0,0,1,0,0)"><text x="1448.33" y="719.55" style="fill: rgb(0,0,0); fill-opacity: 1.0; font-family: sans-serif; font-size: 32px;" clip-path="url(#_20915057689600clip-1)">Power Plant: 6,11%</text></g><g style="stroke-width: 0.5;stroke: rgb(0,0,0);stroke-opacity: 1.0;stroke-linecap: square;shape-rendering:geometricPrecision;; fill: none" transform="matrix(1,0,0,1,0,0)" clip-path="url(#_20915057689600clip-1)"><path d="M 1436.79 923.14 C 1400.16 923.14 1195.06 923.14 1160.98 869.18"/></g><rect x="1438.79" y="902.14" width="253" height="46" style="fill: rgb(151,151,151); fill-opacity: 0.5019608" transform="matrix(1,0,0,1,0,0)" clip-path="url(#_20915057689600clip-1)"/><rect x="1436.79" y="900.14" width="253" height="46" style="fill: rgb(255,255,192); fill-opacity: 1.0" transform="matrix(1,0,0,1,0,0)" clip-path="url(#_20915057689600clip-1)"/><rect x="1436.79" y="900.14" width="253" height="46" style="stroke-width: 0.5;stroke: rgb(0,0,0);stroke-opacity: 1.0;stroke-linecap: square;shape-rendering:geometricPrecision;; fill: none" transform="matrix(1,0,0,1,0,0)" clip-path="url(#_20915057689600clip-1)"/><g transform="matrix(1,0,0,1,0,0)"><text x="1438.79" y="934.31" style="fill: rgb(0,0,0); fill-opacity: 1.0; font-family: sans-serif; font-size: 32px;" clip-path="url(#_20915057689600clip-1)">Systems: 14,32%</text></g><g style="stroke-width: 0.5;stroke: rgb(0,0,0);stroke-opacity: 1.0;stroke-linecap: square;shape-rendering:geometricPrecision;; fill: none" transform="matrix(1,0,0,1,0,0)" clip-path="url(#_20915057689600clip-1)"><path d="M 1425.22 990.62 C 1400.16 990.62 981.76 990.62 978.6 926.88"/></g><rect x="1427.22" y="969.62" width="340" height="46" style="fill: rgb(151,151,151); fill-opacity: 0.5019608" transform="matrix(1,0,0,1,0,0)" clip-path="url(#_20915057689600clip-1)"/><rect x="1425.22" y="967.62" width="340" height="46" style="fill: rgb(255,255,192); fill-opacity: 1.0" transform="matrix(1,0,0,1,0,0)" clip-path="url(#_20915057689600clip-1)"/><rect x="1425.22" y="967.62" width="340" height="46" style="stroke-width: 0.5;stroke: rgb(0,0,0);stroke-opacity: 1.0;stroke-linecap: square;shape-rendering:geometricPrecision;; fill: none" transform="matrix(1,0,0,1,0,0)" clip-path="url(#_20915057689600clip-1)"/><g transform="matrix(1,0,0,1,0,0)"><text x="1427.22" y="1001.79" style="fill: rgb(0,0,0); fill-opacity: 1.0; font-family: sans-serif; font-size: 32px;" clip-path="url(#_20915057689600clip-1)">Operating Items: 2,04%</text></g><rect x="5" y="27" width="1910" height="1048" style="stroke-width: 0.5;stroke: rgb(0,0,0);stroke-opacity: 1.0;stroke-linecap: round;stroke-linejoin: round;shape-rendering:crispEdges;; fill: none" transform="matrix(1,0,0,1,0,0)" clip-path="url(#_20915057689600clip-0)"/></svg>
