<!DOCTYPE svg PUBLIC "-//W3C//DTD SVG 1.1//EN" "http://www.w3.org/Graphics/SVG/1.1/DTD/svg11.dtd">
<svg xmlns="http://www.w3.org/2000/svg" xmlns:xlink="http://www.w3.org/1999/xlink" xmlns:jfreesvg="http://www.jfree.org/jfreesvg/svg" width="1152" height="768" text-rendering="auto" shape-rendering="auto">
<defs><clipPath id="_273066513136625clip-0"><path d="M 0 0 L 1152 0 L 1152 768 L 0 768 L 0 0 Z "/></clipPath>
<clipPath id="_273066513136625clip-1"><path d="M 384.5 345.5 L 384.5 1497.5 L -383.5 1497.5 L -383.5 345.5 L 384.5 345.5 Z "/></clipPath>
<clipPath id="_273066513136625clip-2"><path d="M 79 35 L 79 695 L 1140 695 L 1140 35 Z "/></clipPath>
</defs>
<rect x="0" y="0" width="1152" height="768" style="fill: rgb(255,255,255); fill-opacity: 1.0" transform="matrix(1,0,0,1,0,0)" clip-path="url(#_273066513136625clip-0)"/><g transform="matrix(1,0,0,1,0,0)"><text x="447.5" y="21.01" style="fill: rgb(0,0,0); fill-opacity: 1.0; font-family: Tahoma; font-size: 20px; font-weight: bold;" clip-path="url(#_273066513136625clip-0)">Range_Profile_IMPERIAL</text></g><rect x="494.5" y="746" width="163" height="21" style="fill: rgb(255,255,255); fill-opacity: 1.0" transform="matrix(1,0,0,1,0,0)" clip-path="url(#_273066513136625clip-0)"/><g style="stroke-width: 3.0;stroke: rgb(0,0,0);stroke-opacity: 1.0;stroke-linecap: square;shape-rendering:geometricPrecision;; fill: none" transform="matrix(1,0,0,1,0,0)" clip-path="url(#_273066513136625clip-0)"><path d="M 497.5 756.5 L 511.5 756.5"/></g><g transform="matrix(1,0,0,1,0,0)"><text x="515.5" y="761.01" style="fill: rgb(64,64,64); fill-opacity: 1.0; font-family: Tahoma; font-size: 12px;" clip-path="url(#_273066513136625clip-0)"> Range_Profile_IMPERIAL </text></g><rect x="79" y="35" width="1061" height="660" style="fill: rgb(255,255,255); fill-opacity: 0.0" transform="matrix(1,0,0,1,0,0)" clip-path="url(#_273066513136625clip-0)"/><line x1="79" y1="699" x2="1140" y2="699" style="stroke-width: 0.5;stroke: rgb(128,128,128);stroke-opacity: 1.0;stroke-linecap: square;shape-rendering:crispEdges;" transform="matrix(1,0,0,1,0,0)" clip-path="url(#_273066513136625clip-0)"/><g transform="matrix(1,0,0,1,0,0)"><text x="97.3" y="715.52" style="fill: rgb(64,64,64); fill-opacity: 1.0; font-family: Tahoma; font-size: 12px;" clip-path="url(#_273066513136625clip-0)">-20</text></g><line x1="105.8" y1="701" x2="105.8" y2="699" style="stroke-width: 0.5;stroke: rgb(128,128,128);stroke-opacity: 1.0;stroke-linecap: square;shape-rendering:crispEdges;" transform="matrix(1,0,0,1,0,0)" clip-path="url(#_273066513136625clip-0)"/><g transform="matrix(1,0,0,1,0,0)"><text x="128.11" y="715.52" style="fill: rgb(64,64,64); fill-opacity: 1.0; font-family: Tahoma; font-size: 12px;" clip-path="url(#_273066513136625clip-0)">-10</text></g><line x1="136.61" y1="701" x2="136.61" y2="699" style="stroke-width: 0.5;stroke: rgb(128,128,128);stroke-opacity: 1.0;stroke-linecap: square;shape-rendering:crispEdges;" transform="matrix(1,0,0,1,0,0)" clip-path="url(#_273066513136625clip-0)"/><g transform="matrix(1,0,0,1,0,0)"><text x="163.92" y="715.52" style="fill: rgb(64,64,64); fill-opacity: 1.0; font-family: Tahoma; font-size: 12px;" clip-path="url(#_273066513136625clip-0)">0</text></g><line x1="167.42" y1="701" x2="167.42" y2="699" style="stroke-width: 0.5;stroke: rgb(128,128,128);stroke-opacity: 1.0;stroke-linecap: square;shape-rendering:crispEdges;" transform="matrix(1,0,0,1,0,0)" clip-path="url(#_273066513136625clip-0)"/><g transform="matrix(1,0,0,1,0,0)"><text x="191.72" y="715.52" style="fill: rgb(64,64,64); fill-opacity: 1.0; font-family: Tahoma; font-size: 12px;" clip-path="url(#_273066513136625clip-0)">10</text></g><line x1="198.22" y1="701" x2="198.22" y2="699" style="stroke-width: 0.5;stroke: rgb(128,128,128);stroke-opacity: 1.0;stroke-linecap: square;shape-rendering:crispEdges;" transform="matrix(1,0,0,1,0,0)" clip-path="url(#_273066513136625clip-0)"/><g transform="matrix(1,0,0,1,0,0)"><text x="222.53" y="715.52" style="fill: rgb(64,64,64); fill-opacity: 1.0; font-family: Tahoma; font-size: 12px;" clip-path="url(#_273066513136625clip-0)">20</text></g><line x1="229.03" y1="701" x2="229.03" y2="699" style="stroke-width: 0.5;stroke: rgb(128,128,128);stroke-opacity: 1.0;stroke-linecap: square;shape-rendering:crispEdges;" transform="matrix(1,0,0,1,0,0)" clip-path="url(#_273066513136625clip-0)"/><g transform="matrix(1,0,0,1,0,0)"><text x="253.34" y="715.52" style="fill: rgb(64,64,64); fill-opacity: 1.0; font-family: Tahoma; font-size: 12px;" clip-path="url(#_273066513136625clip-0)">30</text></g><line x1="259.84" y1="701" x2="259.84" y2="699" style="stroke-width: 0.5;stroke: rgb(128,128,128);stroke-opacity: 1.0;stroke-linecap: square;shape-rendering:crispEdges;" transform="matrix(1,0,0,1,0,0)" clip-path="url(#_273066513136625clip-0)"/><g transform="matrix(1,0,0,1,0,0)"><text x="284.15" y="715.52" style="fill: rgb(64,64,64); fill-opacity: 1.0; font-family: Tahoma; font-size: 12px;" clip-path="url(#_273066513136625clip-0)">40</text></g><line x1="290.65" y1="701" x2="290.65" y2="699" style="stroke-width: 0.5;stroke: rgb(128,128,128);stroke-opacity: 1.0;stroke-linecap: square;shape-rendering:crispEdges;" transform="matrix(1,0,0,1,0,0)" clip-path="url(#_273066513136625clip-0)"/><g transform="matrix(1,0,0,1,0,0)"><text x="314.95" y="715.52" style="fill: rgb(64,64,64); fill-opacity: 1.0; font-family: Tahoma; font-size: 12px;" clip-path="url(#_273066513136625clip-0)">50</text></g><line x1="321.45" y1="701" x2="321.45" y2="699" style="stroke-width: 0.5;stroke: rgb(128,128,128);stroke-opacity: 1.0;stroke-linecap: square;shape-rendering:crispEdges;" transform="matrix(1,0,0,1,0,0)" clip-path="url(#_273066513136625clip-0)"/><g transform="matrix(1,0,0,1,0,0)"><text x="345.76" y="715.52" style="fill: rgb(64,64,64); fill-opacity: 1.0; font-family: Tahoma; font-size: 12px;" clip-path="url(#_273066513136625clip-0)">60</text></g><line x1="352.26" y1="701" x2="352.26" y2="699" style="stroke-width: 0.5;stroke: rgb(128,128,128);stroke-opacity: 1.0;stroke-linecap: square;shape-rendering:crispEdges;" transform="matrix(1,0,0,1,0,0)" clip-path="url(#_273066513136625clip-0)"/><g transform="matrix(1,0,0,1,0,0)"><text x="376.57" y="715.52" style="fill: rgb(64,64,64); fill-opacity: 1.0; font-family: Tahoma; font-size: 12px;" clip-path="url(#_273066513136625clip-0)">70</text></g><line x1="383.07" y1="701" x2="383.07" y2="699" style="stroke-width: 0.5;stroke: rgb(128,128,128);stroke-opacity: 1.0;stroke-linecap: square;shape-rendering:crispEdges;" transform="matrix(1,0,0,1,0,0)" clip-path="url(#_273066513136625clip-0)"/><g transform="matrix(1,0,0,1,0,0)"><text x="407.37" y="715.52" style="fill: rgb(64,64,64); fill-opacity: 1.0; font-family: Tahoma; font-size: 12px;" clip-path="url(#_273066513136625clip-0)">80</text></g><line x1="413.87" y1="701" x2="413.87" y2="699" style="stroke-width: 0.5;stroke: rgb(128,128,128);stroke-opacity: 1.0;stroke-linecap: square;shape-rendering:crispEdges;" transform="matrix(1,0,0,1,0,0)" clip-path="url(#_273066513136625clip-0)"/><g transform="matrix(1,0,0,1,0,0)"><text x="438.18" y="715.52" style="fill: rgb(64,64,64); fill-opacity: 1.0; font-family: Tahoma; font-size: 12px;" clip-path="url(#_273066513136625clip-0)">90</text></g><line x1="444.68" y1="701" x2="444.68" y2="699" style="stroke-width: 0.5;stroke: rgb(128,128,128);stroke-opacity: 1.0;stroke-linecap: square;shape-rendering:crispEdges;" transform="matrix(1,0,0,1,0,0)" clip-path="url(#_273066513136625clip-0)"/><g transform="matrix(1,0,0,1,0,0)"><text x="465.49" y="715.52" style="fill: rgb(64,64,64); fill-opacity: 1.0; font-family: Tahoma; font-size: 12px;" clip-path="url(#_273066513136625clip-0)">100</text></g><line x1="475.49" y1="701" x2="475.49" y2="699" style="stroke-width: 0.5;stroke: rgb(128,128,128);stroke-opacity: 1.0;stroke-linecap: square;shape-rendering:crispEdges;" transform="matrix(1,0,0,1,0,0)" clip-path="url(#_273066513136625clip-0)"/><g transform="matrix(1,0,0,1,0,0)"><text x="496.3" y="715.52" style="fill: rgb(64,64,64); fill-opacity: 1.0; font-family: Tahoma; font-size: 12px;" clip-path="url(#_273066513136625clip-0)">110</text></g><line x1="506.3" y1="701" x2="506.3" y2="699" style="stroke-width: 0.5;stroke: rgb(128,128,128);stroke-opacity: 1.0;stroke-linecap: square;shape-rendering:crispEdges;" transform="matrix(1,0,0,1,0,0)" clip-path="url(#_273066513136625clip-0)"/><g transform="matrix(1,0,0,1,0,0)"><text x="527.1" y="715.52" style="fill: rgb(64,64,64); fill-opacity: 1.0; font-family: Tahoma; font-size: 12px;" clip-path="url(#_273066513136625clip-0)">120</text></g><line x1="537.1" y1="701" x2="537.1" y2="699" style="stroke-width: 0.5;stroke: rgb(128,128,128);stroke-opacity: 1.0;stroke-linecap: square;shape-rendering:crispEdges;" transform="matrix(1,0,0,1,0,0)" clip-path="url(#_273066513136625clip-0)"/><g transform="matrix(1,0,0,1,0,0)"><text x="557.91" y="715.52" style="fill: rgb(64,64,64); fill-opacity: 1.0; font-family: Tahoma; font-size: 12px;" clip-path="url(#_273066513136625clip-0)">130</text></g><line x1="567.91" y1="701" x2="567.91" y2="699" style="stroke-width: 0.5;stroke: rgb(128,128,128);stroke-opacity: 1.0;stroke-linecap: square;shape-rendering:crispEdges;" transform="matrix(1,0,0,1,0,0)" clip-path="url(#_273066513136625clip-0)"/><g transform="matrix(1,0,0,1,0,0)"><text x="588.72" y="715.52" style="fill: rgb(64,64,64); fill-opacity: 1.0; font-family: Tahoma; font-size: 12px;" clip-path="url(#_273066513136625clip-0)">140</text></g><line x1="598.72" y1="701" x2="598.72" y2="699" style="stroke-width: 0.5;stroke: rgb(128,128,128);stroke-opacity: 1.0;stroke-linecap: square;shape-rendering:crispEdges;" transform="matrix(1,0,0,1,0,0)" clip-path="url(#_273066513136625clip-0)"/><g transform="matrix(1,0,0,1,0,0)"><text x="619.52" y="715.52" style="fill: rgb(64,64,64); fill-opacity: 1.0; font-family: Tahoma; font-size: 12px;" clip-path="url(#_273066513136625clip-0)">150</text></g><line x1="629.52" y1="701" x2="629.52" y2="699" style="stroke-width: 0.5;stroke: rgb(128,128,128);stroke-opacity: 1.0;stroke-linecap: square;shape-rendering:crispEdges;" transform="matrix(1,0,0,1,0,0)" clip-path="url(#_273066513136625clip-0)"/><g transform="matrix(1,0,0,1,0,0)"><text x="650.33" y="715.52" style="fill: rgb(64,64,64); fill-opacity: 1.0; font-family: Tahoma; font-size: 12px;" clip-path="url(#_273066513136625clip-0)">160</text></g><line x1="660.33" y1="701" x2="660.33" y2="699" style="stroke-width: 0.5;stroke: rgb(128,128,128);stroke-opacity: 1.0;stroke-linecap: square;shape-rendering:crispEdges;" transform="matrix(1,0,0,1,0,0)" clip-path="url(#_273066513136625clip-0)"/><g transform="matrix(1,0,0,1,0,0)"><text x="681.14" y="715.52" style="fill: rgb(64,64,64); fill-opacity: 1.0; font-family: Tahoma; font-size: 12px;" clip-path="url(#_273066513136625clip-0)">170</text></g><line x1="691.14" y1="701" x2="691.14" y2="699" style="stroke-width: 0.5;stroke: rgb(128,128,128);stroke-opacity: 1.0;stroke-linecap: square;shape-rendering:crispEdges;" transform="matrix(1,0,0,1,0,0)" clip-path="url(#_273066513136625clip-0)"/><g transform="matrix(1,0,0,1,0,0)"><text x="711.95" y="715.52" style="fill: rgb(64,64,64); fill-opacity: 1.0; font-family: Tahoma; font-size: 12px;" clip-path="url(#_273066513136625clip-0)">180</text></g><line x1="721.95" y1="701" x2="721.95" y2="699" style="stroke-width: 0.5;stroke: rgb(128,128,128);stroke-opacity: 1.0;stroke-linecap: square;shape-rendering:crispEdges;" transform="matrix(1,0,0,1,0,0)" clip-path="url(#_273066513136625clip-0)"/><g transform="matrix(1,0,0,1,0,0)"><text x="742.75" y="715.52" style="fill: rgb(64,64,64); fill-opacity: 1.0; font-family: Tahoma; font-size: 12px;" clip-path="url(#_273066513136625clip-0)">190</text></g><line x1="752.75" y1="701" x2="752.75" y2="699" style="stroke-width: 0.5;stroke: rgb(128,128,128);stroke-opacity: 1.0;stroke-linecap: square;shape-rendering:crispEdges;" transform="matrix(1,0,0,1,0,0)" clip-path="url(#_273066513136625clip-0)"/><g transform="matrix(1,0,0,1,0,0)"><text x="773.56" y="715.52" style="fill: rgb(64,64,64); fill-opacity: 1.0; font-family: Tahoma; font-size: 12px;" clip-path="url(#_273066513136625clip-0)">200</text></g><line x1="783.56" y1="701" x2="783.56" y2="699" style="stroke-width: 0.5;stroke: rgb(128,128,128);stroke-opacity: 1.0;stroke-linecap: square;shape-rendering:crispEdges;" transform="matrix(1,0,0,1,0,0)" clip-path="url(#_273066513136625clip-0)"/><g transform="matrix(1,0,0,1,0,0)"><text x="804.37" y="715.52" style="fill: rgb(64,64,64); fill-opacity: 1.0; font-family: Tahoma; font-size: 12px;" clip-path="url(#_273066513136625clip-0)">210</text></g><line x1="814.37" y1="701" x2="814.37" y2="699" style="stroke-width: 0.5;stroke: rgb(128,128,128);stroke-opacity: 1.0;stroke-linecap: square;shape-rendering:crispEdges;" transform="matrix(1,0,0,1,0,0)" clip-path="url(#_273066513136625clip-0)"/><g transform="matrix(1,0,0,1,0,0)"><text x="835.18" y="715.52" style="fill: rgb(64,64,64); fill-opacity: 1.0; font-family: Tahoma; font-size: 12px;" clip-path="url(#_273066513136625clip-0)">220</text></g><line x1="845.18" y1="701" x2="845.18" y2="699" style="stroke-width: 0.5;stroke: rgb(128,128,128);stroke-opacity: 1.0;stroke-linecap: square;shape-rendering:crispEdges;" transform="matrix(1,0,0,1,0,0)" clip-path="url(#_273066513136625clip-0)"/><g transform="matrix(1,0,0,1,0,0)"><text x="865.98" y="715.52" style="fill: rgb(64,64,64); fill-opacity: 1.0; font-family: Tahoma; font-size: 12px;" clip-path="url(#_273066513136625clip-0)">230</text></g><line x1="875.98" y1="701" x2="875.98" y2="699" style="stroke-width: 0.5;stroke: rgb(128,128,128);stroke-opacity: 1.0;stroke-linecap: square;shape-rendering:crispEdges;" transform="matrix(1,0,0,1,0,0)" clip-path="url(#_273066513136625clip-0)"/><g transform="matrix(1,0,0,1,0,0)"><text x="896.79" y="715.52" style="fill: rgb(64,64,64); fill-opacity: 1.0; font-family: Tahoma; font-size: 12px;" clip-path="url(#_273066513136625clip-0)">240</text></g><line x1="906.79" y1="701" x2="906.79" y2="699" style="stroke-width: 0.5;stroke: rgb(128,128,128);stroke-opacity: 1.0;stroke-linecap: square;shape-rendering:crispEdges;" transform="matrix(1,0,0,1,0,0)" clip-path="url(#_273066513136625clip-0)"/><g transform="matrix(1,0,0,1,0,0)"><text x="927.6" y="715.52" style="fill: rgb(64,64,64); fill-opacity: 1.0; font-family: Tahoma; font-size: 12px;" clip-path="url(#_273066513136625clip-0)">250</text></g><line x1="937.6" y1="701" x2="937.6" y2="699" style="stroke-width: 0.5;stroke: rgb(128,128,128);stroke-opacity: 1.0;stroke-linecap: square;shape-rendering:crispEdges;" transform="matrix(1,0,0,1,0,0)" clip-path="url(#_273066513136625clip-0)"/><g transform="matrix(1,0,0,1,0,0)"><text x="958.4" y="715.52" style="fill: rgb(64,64,64); fill-opacity: 1.0; font-family: Tahoma; font-size: 12px;" clip-path="url(#_273066513136625clip-0)">260</text></g><line x1="968.4" y1="701" x2="968.4" y2="699" style="stroke-width: 0.5;stroke: rgb(128,128,128);stroke-opacity: 1.0;stroke-linecap: square;shape-rendering:crispEdges;" transform="matrix(1,0,0,1,0,0)" clip-path="url(#_273066513136625clip-0)"/><g transform="matrix(1,0,0,1,0,0)"><text x="989.21" y="715.52" style="fill: rgb(64,64,64); fill-opacity: 1.0; font-family: Tahoma; font-size: 12px;" clip-path="url(#_273066513136625clip-0)">270</text></g><line x1="999.21" y1="701" x2="999.21" y2="699" style="stroke-width: 0.5;stroke: rgb(128,128,128);stroke-opacity: 1.0;stroke-linecap: square;shape-rendering:crispEdges;" transform="matrix(1,0,0,1,0,0)" clip-path="url(#_273066513136625clip-0)"/><g transform="matrix(1,0,0,1,0,0)"><text x="1020.02" y="715.52" style="fill: rgb(64,64,64); fill-opacity: 1.0; font-family: Tahoma; font-size: 12px;" clip-path="url(#_273066513136625clip-0)">280</text></g><line x1="1030.02" y1="701" x2="1030.02" y2="699" style="stroke-width: 0.5;stroke: rgb(128,128,128);stroke-opacity: 1.0;stroke-linecap: square;shape-rendering:crispEdges;" transform="matrix(1,0,0,1,0,0)" clip-path="url(#_273066513136625clip-0)"/><g transform="matrix(1,0,0,1,0,0)"><text x="1050.83" y="715.52" style="fill: rgb(64,64,64); fill-opacity: 1.0; font-family: Tahoma; font-size: 12px;" clip-path="url(#_273066513136625clip-0)">290</text></g><line x1="1060.83" y1="701" x2="1060.83" y2="699" style="stroke-width: 0.5;stroke: rgb(128,128,128);stroke-opacity: 1.0;stroke-linecap: square;shape-rendering:crispEdges;" transform="matrix(1,0,0,1,0,0)" clip-path="url(#_273066513136625clip-0)"/><g transform="matrix(1,0,0,1,0,0)"><text x="1081.63" y="715.52" style="fill: rgb(64,64,64); fill-opacity: 1.0; font-family: Tahoma; font-size: 12px;" clip-path="url(#_273066513136625clip-0)">300</text></g><line x1="1091.63" y1="701" x2="1091.63" y2="699" style="stroke-width: 0.5;stroke: rgb(128,128,128);stroke-opacity: 1.0;stroke-linecap: square;shape-rendering:crispEdges;" transform="matrix(1,0,0,1,0,0)" clip-path="url(#_273066513136625clip-0)"/><g transform="matrix(1,0,0,1,0,0)"><text x="1112.44" y="715.52" style="fill: rgb(64,64,64); fill-opacity: 1.0; font-family: Tahoma; font-size: 12px;" clip-path="url(#_273066513136625clip-0)">310</text></g><line x1="1122.44" y1="701" x2="1122.44" y2="699" style="stroke-width: 0.5;stroke: rgb(128,128,128);stroke-opacity: 1.0;stroke-linecap: square;shape-rendering:crispEdges;" transform="matrix(1,0,0,1,0,0)" clip-path="url(#_273066513136625clip-0)"/><g transform="matrix(1,0,0,1,0,0)"><text x="565.5" y="734.59" style="fill: rgb(64,64,64); fill-opacity: 1.0; font-family: Tahoma; font-size: 14px; font-weight: bold;" clip-path="url(#_273066513136625clip-0)">Range (nmi)</text></g><line x1="75" y1="35" x2="75" y2="695" style="stroke-width: 0.5;stroke: rgb(128,128,128);stroke-opacity: 1.0;stroke-linecap: square;shape-rendering:crispEdges;" transform="matrix(1,0,0,1,0,0)" clip-path="url(#_273066513136625clip-0)"/><g transform="matrix(1,0,0,1,0,0)"><text x="35" y="677.37" style="fill: rgb(64,64,64); fill-opacity: 1.0; font-family: Tahoma; font-size: 12px;" clip-path="url(#_273066513136625clip-0)">-1.000</text></g><line x1="73" y1="672.35" x2="75" y2="672.35" style="stroke-width: 0.5;stroke: rgb(128,128,128);stroke-opacity: 1.0;stroke-linecap: square;shape-rendering:crispEdges;" transform="matrix(1,0,0,1,0,0)" clip-path="url(#_273066513136625clip-0)"/><g transform="matrix(1,0,0,1,0,0)"><text x="62" y="645.02" style="fill: rgb(64,64,64); fill-opacity: 1.0; font-family: Tahoma; font-size: 12px;" clip-path="url(#_273066513136625clip-0)">0</text></g><line x1="73" y1="640" x2="75" y2="640" style="stroke-width: 0.5;stroke: rgb(128,128,128);stroke-opacity: 1.0;stroke-linecap: square;shape-rendering:crispEdges;" transform="matrix(1,0,0,1,0,0)" clip-path="url(#_273066513136625clip-0)"/><g transform="matrix(1,0,0,1,0,0)"><text x="39" y="612.67" style="fill: rgb(64,64,64); fill-opacity: 1.0; font-family: Tahoma; font-size: 12px;" clip-path="url(#_273066513136625clip-0)">1.000</text></g><line x1="73" y1="607.65" x2="75" y2="607.65" style="stroke-width: 0.5;stroke: rgb(128,128,128);stroke-opacity: 1.0;stroke-linecap: square;shape-rendering:crispEdges;" transform="matrix(1,0,0,1,0,0)" clip-path="url(#_273066513136625clip-0)"/><g transform="matrix(1,0,0,1,0,0)"><text x="39" y="580.32" style="fill: rgb(64,64,64); fill-opacity: 1.0; font-family: Tahoma; font-size: 12px;" clip-path="url(#_273066513136625clip-0)">2.000</text></g><line x1="73" y1="575.29" x2="75" y2="575.29" style="stroke-width: 0.5;stroke: rgb(128,128,128);stroke-opacity: 1.0;stroke-linecap: square;shape-rendering:crispEdges;" transform="matrix(1,0,0,1,0,0)" clip-path="url(#_273066513136625clip-0)"/><g transform="matrix(1,0,0,1,0,0)"><text x="39" y="547.96" style="fill: rgb(64,64,64); fill-opacity: 1.0; font-family: Tahoma; font-size: 12px;" clip-path="url(#_273066513136625clip-0)">3.000</text></g><line x1="73" y1="542.94" x2="75" y2="542.94" style="stroke-width: 0.5;stroke: rgb(128,128,128);stroke-opacity: 1.0;stroke-linecap: square;shape-rendering:crispEdges;" transform="matrix(1,0,0,1,0,0)" clip-path="url(#_273066513136625clip-0)"/><g transform="matrix(1,0,0,1,0,0)"><text x="39" y="515.61" style="fill: rgb(64,64,64); fill-opacity: 1.0; font-family: Tahoma; font-size: 12px;" clip-path="url(#_273066513136625clip-0)">4.000</text></g><line x1="73" y1="510.59" x2="75" y2="510.59" style="stroke-width: 0.5;stroke: rgb(128,128,128);stroke-opacity: 1.0;stroke-linecap: square;shape-rendering:crispEdges;" transform="matrix(1,0,0,1,0,0)" clip-path="url(#_273066513136625clip-0)"/><g transform="matrix(1,0,0,1,0,0)"><text x="39" y="483.26" style="fill: rgb(64,64,64); fill-opacity: 1.0; font-family: Tahoma; font-size: 12px;" clip-path="url(#_273066513136625clip-0)">5.000</text></g><line x1="73" y1="478.24" x2="75" y2="478.24" style="stroke-width: 0.5;stroke: rgb(128,128,128);stroke-opacity: 1.0;stroke-linecap: square;shape-rendering:crispEdges;" transform="matrix(1,0,0,1,0,0)" clip-path="url(#_273066513136625clip-0)"/><g transform="matrix(1,0,0,1,0,0)"><text x="39" y="450.9" style="fill: rgb(64,64,64); fill-opacity: 1.0; font-family: Tahoma; font-size: 12px;" clip-path="url(#_273066513136625clip-0)">6.000</text></g><line x1="73" y1="445.88" x2="75" y2="445.88" style="stroke-width: 0.5;stroke: rgb(128,128,128);stroke-opacity: 1.0;stroke-linecap: square;shape-rendering:crispEdges;" transform="matrix(1,0,0,1,0,0)" clip-path="url(#_273066513136625clip-0)"/><g transform="matrix(1,0,0,1,0,0)"><text x="39" y="418.55" style="fill: rgb(64,64,64); fill-opacity: 1.0; font-family: Tahoma; font-size: 12px;" clip-path="url(#_273066513136625clip-0)">7.000</text></g><line x1="73" y1="413.53" x2="75" y2="413.53" style="stroke-width: 0.5;stroke: rgb(128,128,128);stroke-opacity: 1.0;stroke-linecap: square;shape-rendering:crispEdges;" transform="matrix(1,0,0,1,0,0)" clip-path="url(#_273066513136625clip-0)"/><g transform="matrix(1,0,0,1,0,0)"><text x="39" y="386.2" style="fill: rgb(64,64,64); fill-opacity: 1.0; font-family: Tahoma; font-size: 12px;" clip-path="url(#_273066513136625clip-0)">8.000</text></g><line x1="73" y1="381.18" x2="75" y2="381.18" style="stroke-width: 0.5;stroke: rgb(128,128,128);stroke-opacity: 1.0;stroke-linecap: square;shape-rendering:crispEdges;" transform="matrix(1,0,0,1,0,0)" clip-path="url(#_273066513136625clip-0)"/><g transform="matrix(1,0,0,1,0,0)"><text x="39" y="353.85" style="fill: rgb(64,64,64); fill-opacity: 1.0; font-family: Tahoma; font-size: 12px;" clip-path="url(#_273066513136625clip-0)">9.000</text></g><line x1="73" y1="348.82" x2="75" y2="348.82" style="stroke-width: 0.5;stroke: rgb(128,128,128);stroke-opacity: 1.0;stroke-linecap: square;shape-rendering:crispEdges;" transform="matrix(1,0,0,1,0,0)" clip-path="url(#_273066513136625clip-0)"/><g transform="matrix(1,0,0,1,0,0)"><text x="33" y="321.49" style="fill: rgb(64,64,64); fill-opacity: 1.0; font-family: Tahoma; font-size: 12px;" clip-path="url(#_273066513136625clip-0)">10.000</text></g><line x1="73" y1="316.47" x2="75" y2="316.47" style="stroke-width: 0.5;stroke: rgb(128,128,128);stroke-opacity: 1.0;stroke-linecap: square;shape-rendering:crispEdges;" transform="matrix(1,0,0,1,0,0)" clip-path="url(#_273066513136625clip-0)"/><g transform="matrix(1,0,0,1,0,0)"><text x="33" y="289.14" style="fill: rgb(64,64,64); fill-opacity: 1.0; font-family: Tahoma; font-size: 12px;" clip-path="url(#_273066513136625clip-0)">11.000</text></g><line x1="73" y1="284.12" x2="75" y2="284.12" style="stroke-width: 0.5;stroke: rgb(128,128,128);stroke-opacity: 1.0;stroke-linecap: square;shape-rendering:crispEdges;" transform="matrix(1,0,0,1,0,0)" clip-path="url(#_273066513136625clip-0)"/><g transform="matrix(1,0,0,1,0,0)"><text x="33" y="256.79" style="fill: rgb(64,64,64); fill-opacity: 1.0; font-family: Tahoma; font-size: 12px;" clip-path="url(#_273066513136625clip-0)">12.000</text></g><line x1="73" y1="251.76" x2="75" y2="251.76" style="stroke-width: 0.5;stroke: rgb(128,128,128);stroke-opacity: 1.0;stroke-linecap: square;shape-rendering:crispEdges;" transform="matrix(1,0,0,1,0,0)" clip-path="url(#_273066513136625clip-0)"/><g transform="matrix(1,0,0,1,0,0)"><text x="33" y="224.43" style="fill: rgb(64,64,64); fill-opacity: 1.0; font-family: Tahoma; font-size: 12px;" clip-path="url(#_273066513136625clip-0)">13.000</text></g><line x1="73" y1="219.41" x2="75" y2="219.41" style="stroke-width: 0.5;stroke: rgb(128,128,128);stroke-opacity: 1.0;stroke-linecap: square;shape-rendering:crispEdges;" transform="matrix(1,0,0,1,0,0)" clip-path="url(#_273066513136625clip-0)"/><g transform="matrix(1,0,0,1,0,0)"><text x="33" y="192.08" style="fill: rgb(64,64,64); fill-opacity: 1.0; font-family: Tahoma; font-size: 12px;" clip-path="url(#_273066513136625clip-0)">14.000</text></g><line x1="73" y1="187.06" x2="75" y2="187.06" style="stroke-width: 0.5;stroke: rgb(128,128,128);stroke-opacity: 1.0;stroke-linecap: square;shape-rendering:crispEdges;" transform="matrix(1,0,0,1,0,0)" clip-path="url(#_273066513136625clip-0)"/><g transform="matrix(1,0,0,1,0,0)"><text x="33" y="159.73" style="fill: rgb(64,64,64); fill-opacity: 1.0; font-family: Tahoma; font-size: 12px;" clip-path="url(#_273066513136625clip-0)">15.000</text></g><line x1="73" y1="154.71" x2="75" y2="154.71" style="stroke-width: 0.5;stroke: rgb(128,128,128);stroke-opacity: 1.0;stroke-linecap: square;shape-rendering:crispEdges;" transform="matrix(1,0,0,1,0,0)" clip-path="url(#_273066513136625clip-0)"/><g transform="matrix(1,0,0,1,0,0)"><text x="33" y="127.37" style="fill: rgb(64,64,64); fill-opacity: 1.0; font-family: Tahoma; font-size: 12px;" clip-path="url(#_273066513136625clip-0)">16.000</text></g><line x1="73" y1="122.35" x2="75" y2="122.35" style="stroke-width: 0.5;stroke: rgb(128,128,128);stroke-opacity: 1.0;stroke-linecap: square;shape-rendering:crispEdges;" transform="matrix(1,0,0,1,0,0)" clip-path="url(#_273066513136625clip-0)"/><g transform="matrix(1,0,0,1,0,0)"><text x="33" y="95.02" style="fill: rgb(64,64,64); fill-opacity: 1.0; font-family: Tahoma; font-size: 12px;" clip-path="url(#_273066513136625clip-0)">17.000</text></g><line x1="73" y1="90" x2="75" y2="90" style="stroke-width: 0.5;stroke: rgb(128,128,128);stroke-opacity: 1.0;stroke-linecap: square;shape-rendering:crispEdges;" transform="matrix(1,0,0,1,0,0)" clip-path="url(#_273066513136625clip-0)"/><g transform="matrix(1,0,0,1,0,0)"><text x="33" y="62.67" style="fill: rgb(64,64,64); fill-opacity: 1.0; font-family: Tahoma; font-size: 12px;" clip-path="url(#_273066513136625clip-0)">18.000</text></g><line x1="73" y1="57.65" x2="75" y2="57.65" style="stroke-width: 0.5;stroke: rgb(128,128,128);stroke-opacity: 1.0;stroke-linecap: square;shape-rendering:crispEdges;" transform="matrix(1,0,0,1,0,0)" clip-path="url(#_273066513136625clip-0)"/><g style="fill: rgb(64,64,64); fill-opacity: 1.0; stroke: none" transform="matrix(0,-1,1,0,-345.5,384.5)" clip-path="url(#_273066513136625clip-1)"><path d="M -22.55 370.61 L -19.11 360.44 L -16.31 360.44 L -12.88 370.61 L -15.5 370.61 L -16.14 368.53 L -19.34 368.53 L -19.98 370.61 L -22.55 370.61 Z  M -16.7 366.69 L -17.73 363.33 L -18.78 366.69 L -16.7 366.69 Z  M -9.6 370.61 L -11.99 370.61 L -11.99 359.97 L -9.6 359.97 L -9.6 370.61 Z  M -4.83 370.76 Q -6.3 370.76 -6.96 370.16 Q -7.63 369.56 -7.63 368.19 L -7.63 364.59 L -8.55 364.59 L -8.55 362.94 L -7.63 362.94 L -7.63 360.73 L -5.24 360.73 L -5.24 362.94 L -2.94 362.94 L -2.94 364.59 L -5.24 364.59 L -5.24 367.33 Q -5.24 367.72 -5.23 368.02 Q -5.22 368.33 -5.13 368.56 Q -5.02 368.8 -4.78 368.94 Q -4.54 369.08 -4.08 369.08 Q -3.88 369.08 -3.57 369 Q -3.27 368.92 -3.14 368.86 L -2.94 368.86 L -2.94 370.55 Q -3.33 370.64 -3.77 370.7 Q -4.21 370.76 -4.83 370.76 Z  M 0.44 370.61 L -1.95 370.61 L -1.95 362.94 L 0.44 362.94 L 0.44 370.61 Z  M 0.5 361.84 L -2.03 361.84 L -2.03 359.97 L 0.5 359.97 L 0.5 361.84 Z  M 5.21 370.76 Q 3.74 370.76 3.08 370.16 Q 2.41 369.56 2.41 368.19 L 2.41 364.59 L 1.49 364.59 L 1.49 362.94 L 2.41 362.94 L 2.41 360.73 L 4.8 360.73 L 4.8 362.94 L 7.1 362.94 L 7.1 364.59 L 4.8 364.59 L 4.8 367.33 Q 4.8 367.72 4.81 368.02 Q 4.82 368.33 4.91 368.56 Q 5.02 368.8 5.26 368.94 Q 5.51 369.08 5.96 369.08 Q 6.16 369.08 6.47 369 Q 6.77 368.92 6.9 368.86 L 7.1 368.86 L 7.1 370.55 Q 6.71 370.64 6.27 370.7 Q 5.83 370.76 5.21 370.76 Z  M 15.21 370.61 L 12.82 370.61 L 12.82 369.76 Q 12.2 370.28 11.68 370.55 Q 11.17 370.83 10.45 370.83 Q 9.31 370.83 8.67 370.1 Q 8.03 369.37 8.03 367.92 L 8.03 362.94 L 10.43 362.94 L 10.43 366.73 Q 10.43 367.33 10.46 367.71 Q 10.5 368.09 10.61 368.34 Q 10.71 368.58 10.94 368.7 Q 11.17 368.83 11.59 368.83 Q 11.84 368.83 12.18 368.7 Q 12.53 368.58 12.82 368.37 L 12.82 362.94 L 15.21 362.94 L 15.21 370.61 Z  M 24.02 370.61 L 21.63 370.61 L 21.63 369.81 Q 21.4 370 21.1 370.22 Q 20.8 370.44 20.58 370.55 Q 20.29 370.69 20.01 370.76 Q 19.74 370.83 19.35 370.83 Q 18.04 370.83 17.27 369.73 Q 16.5 368.64 16.5 366.83 Q 16.5 365.83 16.76 365.08 Q 17.02 364.34 17.47 363.8 Q 17.9 363.3 18.49 363.01 Q 19.08 362.72 19.74 362.72 Q 20.35 362.72 20.73 362.84 Q 21.11 362.97 21.63 363.23 L 21.63 359.97 L 24.02 359.97 L 24.02 370.61 Z  M 21.63 368.48 L 21.63 364.72 Q 21.46 364.64 21.17 364.58 Q 20.88 364.51 20.68 364.51 Q 19.82 364.51 19.38 365.12 Q 18.94 365.72 18.94 366.8 Q 18.94 367.94 19.29 368.44 Q 19.63 368.95 20.41 368.95 Q 20.72 368.95 21.04 368.83 Q 21.36 368.7 21.63 368.48 Z  M 29.79 370.81 Q 27.61 370.81 26.46 369.77 Q 25.3 368.73 25.3 366.81 Q 25.3 364.94 26.38 363.81 Q 27.46 362.69 29.39 362.69 Q 31.16 362.69 32.05 363.64 Q 32.94 364.59 32.94 366.36 L 32.94 367.22 L 27.69 367.22 Q 27.74 367.76 27.93 368.12 Q 28.11 368.47 28.43 368.69 Q 28.74 368.91 29.14 368.99 Q 29.55 369.08 30.04 369.08 Q 30.46 369.08 30.86 368.99 Q 31.27 368.91 31.6 368.75 Q 31.89 368.62 32.14 368.47 Q 32.39 368.31 32.55 368.2 L 32.8 368.2 L 32.8 370.17 Q 32.5 370.3 32.26 370.4 Q 32.02 370.5 31.6 370.59 Q 31.21 370.7 30.79 370.76 Q 30.38 370.81 29.79 370.81 Z  M 30.58 365.78 Q 30.57 365.03 30.23 364.63 Q 29.89 364.23 29.21 364.23 Q 28.52 364.23 28.13 364.65 Q 27.74 365.06 27.69 365.78 L 30.58 365.78 Z  M 43.17 373.42 L 40.65 373.42 Q 40.07 372.73 39.61 372 Q 39.14 371.26 38.79 370.44 Q 38.46 369.64 38.29 368.69 Q 38.11 367.73 38.11 366.7 Q 38.11 365.58 38.29 364.66 Q 38.48 363.73 38.78 362.98 Q 39.11 362.16 39.58 361.42 Q 40.06 360.69 40.65 359.97 L 43.17 359.97 L 43.17 360.17 Q 42.61 360.67 42.11 361.3 Q 41.61 361.94 41.18 362.78 Q 40.76 363.59 40.51 364.58 Q 40.26 365.58 40.26 366.7 Q 40.26 367.87 40.5 368.82 Q 40.75 369.76 41.18 370.61 Q 41.59 371.42 42.11 372.08 Q 42.62 372.75 43.17 373.23 L 43.17 373.42 Z  M 49.54 361.78 L 49.35 361.78 Q 49.21 361.73 48.92 361.67 Q 48.63 361.61 48.37 361.61 Q 47.65 361.61 47.38 361.87 Q 47.12 362.14 47.12 362.87 L 47.12 362.94 L 49.03 362.94 L 49.03 364.59 L 47.21 364.59 L 47.21 370.61 L 44.81 370.61 L 44.81 364.59 L 43.85 364.59 L 43.85 362.94 L 44.81 362.94 L 44.81 362.72 Q 44.81 361.31 45.55 360.61 Q 46.29 359.91 47.79 359.91 Q 48.31 359.91 48.76 359.94 Q 49.21 359.98 49.54 360.05 L 49.54 361.78 Z  M 52.92 370.76 Q 51.46 370.76 50.79 370.16 Q 50.13 369.56 50.13 368.19 L 50.13 364.59 L 49.21 364.59 L 49.21 362.94 L 50.13 362.94 L 50.13 360.73 L 52.52 360.73 L 52.52 362.94 L 54.82 362.94 L 54.82 364.59 L 52.52 364.59 L 52.52 367.33 Q 52.52 367.72 52.53 368.02 Q 52.53 368.33 52.63 368.56 Q 52.74 368.8 52.98 368.94 Q 53.22 369.08 53.67 369.08 Q 53.88 369.08 54.18 369 Q 54.49 368.92 54.61 368.86 L 54.82 368.86 L 54.82 370.55 Q 54.42 370.64 53.99 370.7 Q 53.55 370.76 52.92 370.76 Z  M 60.48 366.7 Q 60.48 367.73 60.3 368.69 Q 60.12 369.64 59.8 370.44 Q 59.46 371.26 58.98 372 Q 58.51 372.73 57.93 373.42 L 55.43 373.42 L 55.43 373.23 Q 55.98 372.75 56.49 372.09 Q 57.01 371.44 57.41 370.61 Q 57.84 369.76 58.09 368.82 Q 58.34 367.87 58.34 366.7 Q 58.34 365.58 58.08 364.58 Q 57.82 363.59 57.41 362.78 Q 56.98 361.94 56.48 361.3 Q 55.98 360.67 55.43 360.17 L 55.43 359.97 L 57.93 359.97 Q 58.52 360.69 59 361.42 Q 59.48 362.16 59.8 362.98 Q 60.1 363.73 60.29 364.66 Q 60.48 365.58 60.48 366.7 Z "/></g><line x1="105.8" y1="35" x2="105.8" y2="695" style="stroke-width: 0.5;stroke: rgb(192,192,192);stroke-opacity: 1.0;stroke-linejoin: bevel;stroke-dasharray: 2.0, 2.0;shape-rendering:crispEdges;" transform="matrix(1,0,0,1,0,0)" clip-path="url(#_273066513136625clip-2)"/><line x1="136.61" y1="35" x2="136.61" y2="695" style="stroke-width: 0.5;stroke: rgb(192,192,192);stroke-opacity: 1.0;stroke-linejoin: bevel;stroke-dasharray: 2.0, 2.0;shape-rendering:crispEdges;" transform="matrix(1,0,0,1,0,0)" clip-path="url(#_273066513136625clip-2)"/><line x1="167.42" y1="35" x2="167.42" y2="695" style="stroke-width: 0.5;stroke: rgb(192,192,192);stroke-opacity: 1.0;stroke-linejoin: bevel;stroke-dasharray: 2.0, 2.0;shape-rendering:crispEdges;" transform="matrix(1,0,0,1,0,0)" clip-path="url(#_273066513136625clip-2)"/><line x1="198.22" y1="35" x2="198.22" y2="695" style="stroke-width: 0.5;stroke: rgb(192,192,192);stroke-opacity: 1.0;stroke-linejoin: bevel;stroke-dasharray: 2.0, 2.0;shape-rendering:crispEdges;" transform="matrix(1,0,0,1,0,0)" clip-path="url(#_273066513136625clip-2)"/><line x1="229.03" y1="35" x2="229.03" y2="695" style="stroke-width: 0.5;stroke: rgb(192,192,192);stroke-opacity: 1.0;stroke-linejoin: bevel;stroke-dasharray: 2.0, 2.0;shape-rendering:crispEdges;" transform="matrix(1,0,0,1,0,0)" clip-path="url(#_273066513136625clip-2)"/><line x1="259.84" y1="35" x2="259.84" y2="695" style="stroke-width: 0.5;stroke: rgb(192,192,192);stroke-opacity: 1.0;stroke-linejoin: bevel;stroke-dasharray: 2.0, 2.0;shape-rendering:crispEdges;" transform="matrix(1,0,0,1,0,0)" clip-path="url(#_273066513136625clip-2)"/><line x1="290.65" y1="35" x2="290.65" y2="695" style="stroke-width: 0.5;stroke: rgb(192,192,192);stroke-opacity: 1.0;stroke-linejoin: bevel;stroke-dasharray: 2.0, 2.0;shape-rendering:crispEdges;" transform="matrix(1,0,0,1,0,0)" clip-path="url(#_273066513136625clip-2)"/><line x1="321.45" y1="35" x2="321.45" y2="695" style="stroke-width: 0.5;stroke: rgb(192,192,192);stroke-opacity: 1.0;stroke-linejoin: bevel;stroke-dasharray: 2.0, 2.0;shape-rendering:crispEdges;" transform="matrix(1,0,0,1,0,0)" clip-path="url(#_273066513136625clip-2)"/><line x1="352.26" y1="35" x2="352.26" y2="695" style="stroke-width: 0.5;stroke: rgb(192,192,192);stroke-opacity: 1.0;stroke-linejoin: bevel;stroke-dasharray: 2.0, 2.0;shape-rendering:crispEdges;" transform="matrix(1,0,0,1,0,0)" clip-path="url(#_273066513136625clip-2)"/><line x1="383.07" y1="35" x2="383.07" y2="695" style="stroke-width: 0.5;stroke: rgb(192,192,192);stroke-opacity: 1.0;stroke-linejoin: bevel;stroke-dasharray: 2.0, 2.0;shape-rendering:crispEdges;" transform="matrix(1,0,0,1,0,0)" clip-path="url(#_273066513136625clip-2)"/><line x1="413.87" y1="35" x2="413.87" y2="695" style="stroke-width: 0.5;stroke: rgb(192,192,192);stroke-opacity: 1.0;stroke-linejoin: bevel;stroke-dasharray: 2.0, 2.0;shape-rendering:crispEdges;" transform="matrix(1,0,0,1,0,0)" clip-path="url(#_273066513136625clip-2)"/><line x1="444.68" y1="35" x2="444.68" y2="695" style="stroke-width: 0.5;stroke: rgb(192,192,192);stroke-opacity: 1.0;stroke-linejoin: bevel;stroke-dasharray: 2.0, 2.0;shape-rendering:crispEdges;" transform="matrix(1,0,0,1,0,0)" clip-path="url(#_273066513136625clip-2)"/><line x1="475.49" y1="35" x2="475.49" y2="695" style="stroke-width: 0.5;stroke: rgb(192,192,192);stroke-opacity: 1.0;stroke-linejoin: bevel;stroke-dasharray: 2.0, 2.0;shape-rendering:crispEdges;" transform="matrix(1,0,0,1,0,0)" clip-path="url(#_273066513136625clip-2)"/><line x1="506.3" y1="35" x2="506.3" y2="695" style="stroke-width: 0.5;stroke: rgb(192,192,192);stroke-opacity: 1.0;stroke-linejoin: bevel;stroke-dasharray: 2.0, 2.0;shape-rendering:crispEdges;" transform="matrix(1,0,0,1,0,0)" clip-path="url(#_273066513136625clip-2)"/><line x1="537.1" y1="35" x2="537.1" y2="695" style="stroke-width: 0.5;stroke: rgb(192,192,192);stroke-opacity: 1.0;stroke-linejoin: bevel;stroke-dasharray: 2.0, 2.0;shape-rendering:crispEdges;" transform="matrix(1,0,0,1,0,0)" clip-path="url(#_273066513136625clip-2)"/><line x1="567.91" y1="35" x2="567.91" y2="695" style="stroke-width: 0.5;stroke: rgb(192,192,192);stroke-opacity: 1.0;stroke-linejoin: bevel;stroke-dasharray: 2.0, 2.0;shape-rendering:crispEdges;" transform="matrix(1,0,0,1,0,0)" clip-path="url(#_273066513136625clip-2)"/><line x1="598.72" y1="35" x2="598.72" y2="695" style="stroke-width: 0.5;stroke: rgb(192,192,192);stroke-opacity: 1.0;stroke-linejoin: bevel;stroke-dasharray: 2.0, 2.0;shape-rendering:crispEdges;" transform="matrix(1,0,0,1,0,0)" clip-path="url(#_273066513136625clip-2)"/><line x1="629.52" y1="35" x2="629.52" y2="695" style="stroke-width: 0.5;stroke: rgb(192,192,192);stroke-opacity: 1.0;stroke-linejoin: bevel;stroke-dasharray: 2.0, 2.0;shape-rendering:crispEdges;" transform="matrix(1,0,0,1,0,0)" clip-path="url(#_273066513136625clip-2)"/><line x1="660.33" y1="35" x2="660.33" y2="695" style="stroke-width: 0.5;stroke: rgb(192,192,192);stroke-opacity: 1.0;stroke-linejoin: bevel;stroke-dasharray: 2.0, 2.0;shape-rendering:crispEdges;" transform="matrix(1,0,0,1,0,0)" clip-path="url(#_273066513136625clip-2)"/><line x1="691.14" y1="35" x2="691.14" y2="695" style="stroke-width: 0.5;stroke: rgb(192,192,192);stroke-opacity: 1.0;stroke-linejoin: bevel;stroke-dasharray: 2.0, 2.0;shape-rendering:crispEdges;" transform="matrix(1,0,0,1,0,0)" clip-path="url(#_273066513136625clip-2)"/><line x1="721.95" y1="35" x2="721.95" y2="695" style="stroke-width: 0.5;stroke: rgb(192,192,192);stroke-opacity: 1.0;stroke-linejoin: bevel;stroke-dasharray: 2.0, 2.0;shape-rendering:crispEdges;" transform="matrix(1,0,0,1,0,0)" clip-path="url(#_273066513136625clip-2)"/><line x1="752.75" y1="35" x2="752.75" y2="695" style="stroke-width: 0.5;stroke: rgb(192,192,192);stroke-opacity: 1.0;stroke-linejoin: bevel;stroke-dasharray: 2.0, 2.0;shape-rendering:crispEdges;" transform="matrix(1,0,0,1,0,0)" clip-path="url(#_273066513136625clip-2)"/><line x1="783.56" y1="35" x2="783.56" y2="695" style="stroke-width: 0.5;stroke: rgb(192,192,192);stroke-opacity: 1.0;stroke-linejoin: bevel;stroke-dasharray: 2.0, 2.0;shape-rendering:crispEdges;" transform="matrix(1,0,0,1,0,0)" clip-path="url(#_273066513136625clip-2)"/><line x1="814.37" y1="35" x2="814.37" y2="695" style="stroke-width: 0.5;stroke: rgb(192,192,192);stroke-opacity: 1.0;stroke-linejoin: bevel;stroke-dasharray: 2.0, 2.0;shape-rendering:crispEdges;" transform="matrix(1,0,0,1,0,0)" clip-path="url(#_273066513136625clip-2)"/><line x1="845.18" y1="35" x2="845.18" y2="695" style="stroke-width: 0.5;stroke: rgb(192,192,192);stroke-opacity: 1.0;stroke-linejoin: bevel;stroke-dasharray: 2.0, 2.0;shape-rendering:crispEdges;" transform="matrix(1,0,0,1,0,0)" clip-path="url(#_273066513136625clip-2)"/><line x1="875.98" y1="35" x2="875.98" y2="695" style="stroke-width: 0.5;stroke: rgb(192,192,192);stroke-opacity: 1.0;stroke-linejoin: bevel;stroke-dasharray: 2.0, 2.0;shape-rendering:crispEdges;" transform="matrix(1,0,0,1,0,0)" clip-path="url(#_273066513136625clip-2)"/><line x1="906.79" y1="35" x2="906.79" y2="695" style="stroke-width: 0.5;stroke: rgb(192,192,192);stroke-opacity: 1.0;stroke-linejoin: bevel;stroke-dasharray: 2.0, 2.0;shape-rendering:crispEdges;" transform="matrix(1,0,0,1,0,0)" clip-path="url(#_273066513136625clip-2)"/><line x1="937.6" y1="35" x2="937.6" y2="695" style="stroke-width: 0.5;stroke: rgb(192,192,192);stroke-opacity: 1.0;stroke-linejoin: bevel;stroke-dasharray: 2.0, 2.0;shape-rendering:crispEdges;" transform="matrix(1,0,0,1,0,0)" clip-path="url(#_273066513136625clip-2)"/><line x1="968.4" y1="35" x2="968.4" y2="695" style="stroke-width: 0.5;stroke: rgb(192,192,192);stroke-opacity: 1.0;stroke-linejoin: bevel;stroke-dasharray: 2.0, 2.0;shape-rendering:crispEdges;" transform="matrix(1,0,0,1,0,0)" clip-path="url(#_273066513136625clip-2)"/><line x1="999.21" y1="35" x2="999.21" y2="695" style="stroke-width: 0.5;stroke: rgb(192,192,192);stroke-opacity: 1.0;stroke-linejoin: bevel;stroke-dasharray: 2.0, 2.0;shape-rendering:crispEdges;" transform="matrix(1,0,0,1,0,0)" clip-path="url(#_273066513136625clip-2)"/><line x1="1030.02" y1="35" x2="1030.02" y2="695" style="stroke-width: 0.5;stroke: rgb(192,192,192);stroke-opacity: 1.0;stroke-linejoin: bevel;stroke-dasharray: 2.0, 2.0;shape-rendering:crispEdges;" transform="matrix(1,0,0,1,0,0)" clip-path="url(#_273066513136625clip-2)"/><line x1="1060.83" y1="35" x2="1060.83" y2="695" style="stroke-width: 0.5;stroke: rgb(192,192,192);stroke-opacity: 1.0;stroke-linejoin: bevel;stroke-dasharray: 2.0, 2.0;shape-rendering:crispEdges;" transform="matrix(1,0,0,1,0,0)" clip-path="url(#_273066513136625clip-2)"/><line x1="1091.63" y1="35" x2="1091.63" y2="695" style="stroke-width: 0.5;stroke: rgb(192,192,192);stroke-opacity: 1.0;stroke-linejoin: bevel;stroke-dasharray: 2.0, 2.0;shape-rendering:crispEdges;" transform="matrix(1,0,0,1,0,0)" clip-path="url(#_273066513136625clip-2)"/><line x1="1122.44" y1="35" x2="1122.44" y2="695" style="stroke-width: 0.5;stroke: rgb(192,192,192);stroke-opacity: 1.0;stroke-linejoin: bevel;stroke-dasharray: 2.0, 2.0;shape-rendering:crispEdges;" transform="matrix(1,0,0,1,0,0)" clip-path="url(#_273066513136625clip-2)"/><line x1="79" y1="672.35" x2="1140" y2="672.35" style="stroke-width: 0.5;stroke: rgb(192,192,192);stroke-opacity: 1.0;stroke-linejoin: bevel;stroke-dasharray: 2.0, 2.0;shape-rendering:crispEdges;" transform="matrix(1,0,0,1,0,0)" clip-path="url(#_273066513136625clip-2)"/><line x1="79" y1="640" x2="1140" y2="640" style="stroke-width: 0.5;stroke: rgb(192,192,192);stroke-opacity: 1.0;stroke-linejoin: bevel;stroke-dasharray: 2.0, 2.0;shape-rendering:crispEdges;" transform="matrix(1,0,0,1,0,0)" clip-path="url(#_273066513136625clip-2)"/><line x1="79" y1="607.65" x2="1140" y2="607.65" style="stroke-width: 0.5;stroke: rgb(192,192,192);stroke-opacity: 1.0;stroke-linejoin: bevel;stroke-dasharray: 2.0, 2.0;shape-rendering:crispEdges;" transform="matrix(1,0,0,1,0,0)" clip-path="url(#_273066513136625clip-2)"/><line x1="79" y1="575.29" x2="1140" y2="575.29" style="stroke-width: 0.5;stroke: rgb(192,192,192);stroke-opacity: 1.0;stroke-linejoin: bevel;stroke-dasharray: 2.0, 2.0;shape-rendering:crispEdges;" transform="matrix(1,0,0,1,0,0)" clip-path="url(#_273066513136625clip-2)"/><line x1="79" y1="542.94" x2="1140" y2="542.94" style="stroke-width: 0.5;stroke: rgb(192,192,192);stroke-opacity: 1.0;stroke-linejoin: bevel;stroke-dasharray: 2.0, 2.0;shape-rendering:crispEdges;" transform="matrix(1,0,0,1,0,0)" clip-path="url(#_273066513136625clip-2)"/><line x1="79" y1="510.59" x2="1140" y2="510.59" style="stroke-width: 0.5;stroke: rgb(192,192,192);stroke-opacity: 1.0;stroke-linejoin: bevel;stroke-dasharray: 2.0, 2.0;shape-rendering:crispEdges;" transform="matrix(1,0,0,1,0,0)" clip-path="url(#_273066513136625clip-2)"/><line x1="79" y1="478.24" x2="1140" y2="478.24" style="stroke-width: 0.5;stroke: rgb(192,192,192);stroke-opacity: 1.0;stroke-linejoin: bevel;stroke-dasharray: 2.0, 2.0;shape-rendering:crispEdges;" transform="matrix(1,0,0,1,0,0)" clip-path="url(#_273066513136625clip-2)"/><line x1="79" y1="445.88" x2="1140" y2="445.88" style="stroke-width: 0.5;stroke: rgb(192,192,192);stroke-opacity: 1.0;stroke-linejoin: bevel;stroke-dasharray: 2.0, 2.0;shape-rendering:crispEdges;" transform="matrix(1,0,0,1,0,0)" clip-path="url(#_273066513136625clip-2)"/><line x1="79" y1="413.53" x2="1140" y2="413.53" style="stroke-width: 0.5;stroke: rgb(192,192,192);stroke-opacity: 1.0;stroke-linejoin: bevel;stroke-dasharray: 2.0, 2.0;shape-rendering:crispEdges;" transform="matrix(1,0,0,1,0,0)" clip-path="url(#_273066513136625clip-2)"/><line x1="79" y1="381.18" x2="1140" y2="381.18" style="stroke-width: 0.5;stroke: rgb(192,192,192);stroke-opacity: 1.0;stroke-linejoin: bevel;stroke-dasharray: 2.0, 2.0;shape-rendering:crispEdges;" transform="matrix(1,0,0,1,0,0)" clip-path="url(#_273066513136625clip-2)"/><line x1="79" y1="348.82" x2="1140" y2="348.82" style="stroke-width: 0.5;stroke: rgb(192,192,192);stroke-opacity: 1.0;stroke-linejoin: bevel;stroke-dasharray: 2.0, 2.0;shape-rendering:crispEdges;" transform="matrix(1,0,0,1,0,0)" clip-path="url(#_273066513136625clip-2)"/><line x1="79" y1="316.47" x2="1140" y2="316.47" style="stroke-width: 0.5;stroke: rgb(192,192,192);stroke-opacity: 1.0;stroke-linejoin: bevel;stroke-dasharray: 2.0, 2.0;shape-rendering:crispEdges;" transform="matrix(1,0,0,1,0,0)" clip-path="url(#_273066513136625clip-2)"/><line x1="79" y1="284.12" x2="1140" y2="284.12" style="stroke-width: 0.5;stroke: rgb(192,192,192);stroke-opacity: 1.0;stroke-linejoin: bevel;stroke-dasharray: 2.0, 2.0;shape-rendering:crispEdges;" transform="matrix(1,0,0,1,0,0)" clip-path="url(#_273066513136625clip-2)"/><line x1="79" y1="251.76" x2="1140" y2="251.76" style="stroke-width: 0.5;stroke: rgb(192,192,192);stroke-opacity: 1.0;stroke-linejoin: bevel;stroke-dasharray: 2.0, 2.0;shape-rendering:crispEdges;" transform="matrix(1,0,0,1,0,0)" clip-path="url(#_273066513136625clip-2)"/><line x1="79" y1="219.41" x2="1140" y2="219.41" style="stroke-width: 0.5;stroke: rgb(192,192,192);stroke-opacity: 1.0;stroke-linejoin: bevel;stroke-dasharray: 2.0, 2.0;shape-rendering:crispEdges;" transform="matrix(1,0,0,1,0,0)" clip-path="url(#_273066513136625clip-2)"/><line x1="79" y1="187.06" x2="1140" y2="187.06" style="stroke-width: 0.5;stroke: rgb(192,192,192);stroke-opacity: 1.0;stroke-linejoin: bevel;stroke-dasharray: 2.0, 2.0;shape-rendering:crispEdges;" transform="matrix(1,0,0,1,0,0)" clip-path="url(#_273066513136625clip-2)"/><line x1="79" y1="154.71" x2="1140" y2="154.71" style="stroke-width: 0.5;stroke: rgb(192,192,192);stroke-opacity: 1.0;stroke-linejoin: bevel;stroke-dasharray: 2.0, 2.0;shape-rendering:crispEdges;" transform="matrix(1,0,0,1,0,0)" clip-path="url(#_273066513136625clip-2)"/><line x1="79" y1="122.35" x2="1140" y2="122.35" style="stroke-width: 0.5;stroke: rgb(192,192,192);stroke-opacity: 1.0;stroke-linejoin: bevel;stroke-dasharray: 2.0, 2.0;shape-rendering:crispEdges;" transform="matrix(1,0,0,1,0,0)" clip-path="url(#_273066513136625clip-2)"/><line x1="79" y1="90" x2="1140" y2="90" style="stroke-width: 0.5;stroke: rgb(192,192,192);stroke-opacity: 1.0;stroke-linejoin: bevel;stroke-dasharray: 2.0, 2.0;shape-rendering:crispEdges;" transform="matrix(1,0,0,1,0,0)" clip-path="url(#_273066513136625clip-2)"/><line x1="79" y1="57.65" x2="1140" y2="57.65" style="stroke-width: 0.5;stroke: rgb(192,192,192);stroke-opacity: 1.0;stroke-linejoin: bevel;stroke-dasharray: 2.0, 2.0;shape-rendering:crispEdges;" transform="matrix(1,0,0,1,0,0)" clip-path="url(#_273066513136625clip-2)"/><line x1="167.42" y1="640" x2="168.9" y2="638.87" style="stroke-width: 3.0;stroke: rgb(0,0,0);stroke-opacity: 1.0;stroke-linecap: square;shape-rendering:geometricPrecision;" transform="matrix(1,0,0,1,0,0)" clip-path="url(#_273066513136625clip-2)"/><line x1="168.9" y1="638.87" x2="290.47" y2="90" style="stroke-width: 3.0;stroke: rgb(0,0,0);stroke-opacity: 1.0;stroke-linecap: square;shape-rendering:geometricPrecision;" transform="matrix(1,0,0,1,0,0)" clip-path="url(#_273066513136625clip-2)"/><line x1="290.47" y1="90" x2="513.91" y2="90" style="stroke-width: 3.0;stroke: rgb(0,0,0);stroke-opacity: 1.0;stroke-linecap: square;shape-rendering:geometricPrecision;" transform="matrix(1,0,0,1,0,0)" clip-path="url(#_273066513136625clip-2)"/><line x1="513.91" y1="90" x2="652.55" y2="591.47" style="stroke-width: 3.0;stroke: rgb(0,0,0);stroke-opacity: 1.0;stroke-linecap: square;shape-rendering:geometricPrecision;" transform="matrix(1,0,0,1,0,0)" clip-path="url(#_273066513136625clip-2)"/><line x1="652.55" y1="591.47" x2="700.61" y2="316.47" style="stroke-width: 3.0;stroke: rgb(0,0,0);stroke-opacity: 1.0;stroke-linecap: square;shape-rendering:geometricPrecision;" transform="matrix(1,0,0,1,0,0)" clip-path="url(#_273066513136625clip-2)"/><line x1="700.61" y1="316.47" x2="968.64" y2="316.47" style="stroke-width: 3.0;stroke: rgb(0,0,0);stroke-opacity: 1.0;stroke-linecap: square;shape-rendering:geometricPrecision;" transform="matrix(1,0,0,1,0,0)" clip-path="url(#_273066513136625clip-2)"/><line x1="968.64" y1="316.47" x2="1039.46" y2="591.47" style="stroke-width: 3.0;stroke: rgb(0,0,0);stroke-opacity: 1.0;stroke-linecap: square;shape-rendering:geometricPrecision;" transform="matrix(1,0,0,1,0,0)" clip-path="url(#_273066513136625clip-2)"/><line x1="1039.46" y1="591.47" x2="1039.46" y2="591.47" style="stroke-width: 3.0;stroke: rgb(0,0,0);stroke-opacity: 1.0;stroke-linecap: square;shape-rendering:geometricPrecision;" transform="matrix(1,0,0,1,0,0)" clip-path="url(#_273066513136625clip-2)"/><line x1="1039.46" y1="591.47" x2="1050.51" y2="638.38" style="stroke-width: 3.0;stroke: rgb(0,0,0);stroke-opacity: 1.0;stroke-linecap: square;shape-rendering:geometricPrecision;" transform="matrix(1,0,0,1,0,0)" clip-path="url(#_273066513136625clip-2)"/><line x1="1050.51" y1="638.38" x2="1051.58" y2="640" style="stroke-width: 3.0;stroke: rgb(0,0,0);stroke-opacity: 1.0;stroke-linecap: square;shape-rendering:geometricPrecision;" transform="matrix(1,0,0,1,0,0)" clip-path="url(#_273066513136625clip-2)"/><rect x="79" y="35" width="1061" height="660" style="stroke-width: 0.5;stroke: rgb(0,0,0);stroke-opacity: 1.0;stroke-linecap: round;stroke-linejoin: round;shape-rendering:crispEdges;; fill: none" transform="matrix(1,0,0,1,0,0)" clip-path="url(#_273066513136625clip-0)"/></svg>
